G75*
%MOIN*%
%OFA0B0*%
%FSLAX25Y25*%
%IPPOS*%
%LPD*%
%AMOC8*
5,1,8,0,0,1.08239X$1,22.5*
%
%ADD10C,0.06800*%
%ADD11OC8,0.07800*%
%ADD12OC8,0.09300*%
%ADD13OC8,0.06400*%
%ADD14C,0.06350*%
%ADD15C,0.06350*%
%ADD16R,0.05162X0.05162*%
D10*
X0430783Y0161013D02*
X0436783Y0161013D01*
X0436783Y0171013D02*
X0430783Y0171013D01*
X0430783Y0235816D02*
X0436783Y0235816D01*
X0436783Y0245816D02*
X0430783Y0245816D01*
X0430783Y0306682D02*
X0436783Y0306682D01*
X0436783Y0316682D02*
X0430783Y0316682D01*
X0430783Y0515343D02*
X0436783Y0515343D01*
X0436783Y0525343D02*
X0430783Y0525343D01*
X0430783Y0594083D02*
X0436783Y0594083D01*
X0436783Y0604083D02*
X0430783Y0604083D01*
X0430783Y0672824D02*
X0436783Y0672824D01*
X0436783Y0682824D02*
X0430783Y0682824D01*
D11*
X0167287Y0650501D03*
X0147287Y0650501D03*
X0157287Y0611761D03*
X0147287Y0571761D03*
X0167287Y0571761D03*
X0157287Y0533020D03*
X0147287Y0493020D03*
X0167287Y0493020D03*
X0157287Y0324359D03*
X0147287Y0284359D03*
X0167287Y0284359D03*
X0157287Y0253493D03*
X0147287Y0213493D03*
X0167287Y0213493D03*
X0157287Y0178690D03*
X0147287Y0138690D03*
X0167287Y0138690D03*
X0157287Y0690501D03*
D12*
X0127366Y0680658D03*
X0092760Y0697036D03*
X0092760Y0618296D03*
X0127366Y0601918D03*
X0092760Y0539556D03*
X0127366Y0523178D03*
X0068862Y0440501D03*
X0092760Y0330894D03*
X0127366Y0314517D03*
X0161382Y0350265D03*
X0209807Y0283335D03*
X0209807Y0212469D03*
X0209807Y0137666D03*
X0127366Y0168847D03*
X0092760Y0185225D03*
X0127366Y0243650D03*
X0092760Y0260028D03*
X0209807Y0491997D03*
X0262917Y0443099D03*
X0284138Y0443099D03*
X0304689Y0443099D03*
X0266972Y0393572D03*
X0295004Y0315619D03*
X0295161Y0295146D03*
X0295004Y0244753D03*
X0295161Y0224280D03*
X0295004Y0169950D03*
X0295161Y0149477D03*
X0295161Y0503808D03*
X0295004Y0524280D03*
X0295161Y0582548D03*
X0295004Y0603020D03*
X0295161Y0661288D03*
X0295004Y0681761D03*
X0209807Y0649477D03*
X0209807Y0570737D03*
D13*
X0359810Y0438797D03*
X0359810Y0415197D03*
X0379410Y0415197D03*
X0379410Y0438797D03*
X0379410Y0381710D03*
X0379410Y0358110D03*
X0359810Y0358110D03*
X0359810Y0381710D03*
D14*
X0197917Y0368118D02*
X0197917Y0362569D01*
X0187917Y0362569D02*
X0187917Y0368118D01*
X0177917Y0368118D02*
X0177917Y0362569D01*
X0167917Y0362569D02*
X0167917Y0368118D01*
X0157917Y0368118D02*
X0157917Y0362569D01*
X0147917Y0362569D02*
X0147917Y0368118D01*
X0137917Y0368118D02*
X0137917Y0362569D01*
X0127917Y0362569D02*
X0127917Y0368118D01*
X0117917Y0368118D02*
X0117917Y0362569D01*
X0107917Y0362569D02*
X0107917Y0368118D01*
X0097917Y0368118D02*
X0097917Y0362569D01*
X0087917Y0362569D02*
X0087917Y0368118D01*
X0077917Y0368118D02*
X0077917Y0362569D01*
X0067917Y0362569D02*
X0067917Y0368118D01*
X0057917Y0368118D02*
X0057917Y0362569D01*
X0057917Y0422569D02*
X0057917Y0428118D01*
X0067917Y0428118D02*
X0067917Y0422569D01*
X0077917Y0422569D02*
X0077917Y0428118D01*
X0087917Y0428118D02*
X0087917Y0422569D01*
X0097917Y0422569D02*
X0097917Y0428118D01*
X0107917Y0428118D02*
X0107917Y0422569D01*
X0117917Y0422569D02*
X0117917Y0428118D01*
X0127917Y0428118D02*
X0127917Y0422569D01*
X0137917Y0422569D02*
X0137917Y0428118D01*
X0147917Y0428118D02*
X0147917Y0422569D01*
X0157917Y0422569D02*
X0157917Y0428118D01*
X0167917Y0428118D02*
X0167917Y0422569D01*
X0177917Y0422569D02*
X0177917Y0428118D01*
X0187917Y0428118D02*
X0187917Y0422569D01*
X0197917Y0422569D02*
X0197917Y0428118D01*
D15*
X0192917Y0405343D03*
X0192917Y0395343D03*
X0192917Y0385343D03*
X0202917Y0385343D03*
X0202917Y0395343D03*
X0202917Y0405343D03*
D16*
X0062524Y0145501D03*
X0062524Y0173060D03*
X0084177Y0143532D03*
X0100909Y0168139D03*
X0105831Y0153375D03*
X0113705Y0149438D03*
X0121579Y0160265D03*
X0133390Y0178965D03*
X0127484Y0212430D03*
X0113705Y0224241D03*
X0121579Y0235068D03*
X0105831Y0228178D03*
X0100909Y0242942D03*
X0084177Y0218335D03*
X0062524Y0220304D03*
X0062524Y0247863D03*
X0062524Y0291170D03*
X0062524Y0318729D03*
X0084177Y0289202D03*
X0100909Y0313808D03*
X0105831Y0299044D03*
X0113705Y0295107D03*
X0121579Y0305934D03*
X0133390Y0324635D03*
X0160949Y0332509D03*
X0170791Y0316761D03*
X0176697Y0332509D03*
X0194413Y0348257D03*
X0202287Y0332509D03*
X0218035Y0318729D03*
X0229846Y0330540D03*
X0212130Y0356131D03*
X0184571Y0377784D03*
X0176303Y0390383D03*
X0176697Y0397469D03*
X0178665Y0403375D03*
X0198350Y0411249D03*
X0210161Y0417154D03*
X0214098Y0426997D03*
X0202287Y0440776D03*
X0210161Y0448650D03*
X0229846Y0414202D03*
X0235752Y0423060D03*
X0251500Y0409280D03*
X0277169Y0405422D03*
X0286933Y0385658D03*
X0263311Y0340383D03*
X0253469Y0350225D03*
X0273154Y0322666D03*
X0281028Y0306918D03*
X0316461Y0310855D03*
X0324335Y0283296D03*
X0342051Y0283296D03*
X0340083Y0267548D03*
X0357799Y0245894D03*
X0363705Y0241957D03*
X0365673Y0230146D03*
X0365673Y0212430D03*
X0383390Y0216367D03*
X0395201Y0234083D03*
X0385358Y0238020D03*
X0405043Y0224241D03*
X0420791Y0232115D03*
X0410949Y0253769D03*
X0410949Y0261643D03*
X0405043Y0295107D03*
X0395201Y0304950D03*
X0385358Y0308887D03*
X0383390Y0287233D03*
X0365673Y0283296D03*
X0365673Y0301013D03*
X0363705Y0312824D03*
X0357799Y0316761D03*
X0340083Y0338414D03*
X0316461Y0239989D03*
X0324335Y0212430D03*
X0342051Y0212430D03*
X0340083Y0192745D03*
X0357799Y0171091D03*
X0363705Y0167154D03*
X0365673Y0155343D03*
X0365673Y0137627D03*
X0383390Y0141564D03*
X0395201Y0159280D03*
X0385358Y0163217D03*
X0405043Y0149438D03*
X0420791Y0157312D03*
X0410949Y0178965D03*
X0410949Y0186839D03*
X0342051Y0137627D03*
X0324335Y0137627D03*
X0316461Y0165186D03*
X0281028Y0161249D03*
X0273154Y0176997D03*
X0281028Y0236052D03*
X0273154Y0251800D03*
X0229846Y0259674D03*
X0218035Y0247863D03*
X0202287Y0261643D03*
X0186539Y0230146D03*
X0172760Y0220304D03*
X0170791Y0245894D03*
X0176697Y0261643D03*
X0160949Y0261643D03*
X0172760Y0291170D03*
X0186539Y0301013D03*
X0229846Y0299044D03*
X0229846Y0228178D03*
X0202287Y0186839D03*
X0218035Y0173060D03*
X0229846Y0184871D03*
X0229846Y0153375D03*
X0186539Y0155343D03*
X0172760Y0145501D03*
X0170791Y0171091D03*
X0176697Y0186839D03*
X0160949Y0186839D03*
X0127484Y0137627D03*
X0133390Y0253769D03*
X0127484Y0283296D03*
X0090083Y0340383D03*
X0101894Y0348257D03*
X0094020Y0375816D03*
X0111736Y0389595D03*
X0107799Y0413217D03*
X0127484Y0436839D03*
X0143232Y0397469D03*
X0127484Y0491957D03*
X0113705Y0503769D03*
X0121579Y0514595D03*
X0105831Y0507706D03*
X0100909Y0522469D03*
X0084177Y0497863D03*
X0062524Y0499831D03*
X0062524Y0527391D03*
X0084177Y0576603D03*
X0105831Y0586446D03*
X0113705Y0582509D03*
X0121579Y0593335D03*
X0133390Y0612036D03*
X0160949Y0619910D03*
X0170791Y0604162D03*
X0176697Y0619910D03*
X0186539Y0588414D03*
X0172760Y0578572D03*
X0176697Y0541170D03*
X0170791Y0525422D03*
X0160949Y0541170D03*
X0133390Y0533296D03*
X0127484Y0570698D03*
X0100909Y0601209D03*
X0127484Y0649438D03*
X0113705Y0661249D03*
X0121579Y0672076D03*
X0105831Y0665186D03*
X0100909Y0679950D03*
X0084177Y0655343D03*
X0062524Y0657312D03*
X0062524Y0684871D03*
X0062524Y0606131D03*
X0062524Y0578572D03*
X0133390Y0690776D03*
X0160949Y0698650D03*
X0170791Y0682902D03*
X0176697Y0698650D03*
X0186539Y0667154D03*
X0172760Y0657312D03*
X0202287Y0619910D03*
X0218035Y0606131D03*
X0229846Y0617942D03*
X0229846Y0586446D03*
X0202287Y0541170D03*
X0218035Y0527391D03*
X0229846Y0539202D03*
X0229846Y0507706D03*
X0186539Y0509674D03*
X0172760Y0499831D03*
X0273154Y0531328D03*
X0281028Y0515580D03*
X0316461Y0519517D03*
X0324335Y0491957D03*
X0342051Y0491957D03*
X0365673Y0491957D03*
X0365673Y0509674D03*
X0363705Y0521485D03*
X0357799Y0525422D03*
X0340083Y0547076D03*
X0342051Y0570698D03*
X0324335Y0570698D03*
X0316461Y0598257D03*
X0340083Y0625816D03*
X0342051Y0649438D03*
X0324335Y0649438D03*
X0316461Y0676997D03*
X0340083Y0704556D03*
X0357799Y0682902D03*
X0363705Y0678965D03*
X0365673Y0667154D03*
X0365673Y0649438D03*
X0383390Y0653375D03*
X0395201Y0671091D03*
X0385358Y0675028D03*
X0405043Y0661249D03*
X0420791Y0669123D03*
X0410949Y0690776D03*
X0410949Y0698650D03*
X0410949Y0619910D03*
X0410949Y0612036D03*
X0420791Y0590383D03*
X0405043Y0582509D03*
X0395201Y0592351D03*
X0385358Y0596288D03*
X0383390Y0574635D03*
X0365673Y0570698D03*
X0365673Y0588414D03*
X0363705Y0600225D03*
X0357799Y0604162D03*
X0410949Y0541170D03*
X0410949Y0533296D03*
X0420791Y0511643D03*
X0405043Y0503769D03*
X0395201Y0513611D03*
X0385358Y0517548D03*
X0383390Y0495894D03*
X0281028Y0594320D03*
X0273154Y0610068D03*
X0281028Y0673060D03*
X0273154Y0688808D03*
X0229846Y0696682D03*
X0218035Y0684871D03*
X0202287Y0698650D03*
X0229846Y0665186D03*
X0062524Y0385658D03*
X0410949Y0332509D03*
X0410949Y0324635D03*
X0420791Y0302981D03*
M02*
