%
M48
M72
T01C0.02362
T02C0.03150
T03C0.03200
T04C0.03600
T05C0.04000
T06C0.05200
%
T01
X62524Y145501
X62524Y173060
X84177Y143532
X100909Y168139
X105831Y153375
X113705Y149438
X121579Y160265
X133390Y178965
X127484Y212430
X113705Y224241
X121579Y235068
X105831Y228178
X100909Y242942
X84177Y218335
X62524Y220304
X62524Y247863
X62524Y291170
X62524Y318729
X84177Y289202
X100909Y313808
X105831Y299044
X113705Y295107
X121579Y305934
X133390Y324635
X160949Y332509
X170791Y316761
X176697Y332509
X194413Y348257
X202287Y332509
X218035Y318729
X229846Y330540
X212130Y356131
X184571Y377784
X176303Y390383
X176697Y397469
X178665Y403375
X198350Y411249
X210161Y417154
X214098Y426997
X202287Y440776
X210161Y448650
X229846Y414202
X235752Y423060
X251500Y409280
X277169Y405422
X286933Y385658
X263311Y340383
X253469Y350225
X273154Y322666
X281028Y306918
X316461Y310855
X324335Y283296
X342051Y283296
X340083Y267548
X357799Y245894
X363705Y241957
X365673Y230146
X365673Y212430
X383390Y216367
X395201Y234083
X385358Y238020
X405043Y224241
X420791Y232115
X410949Y253769
X410949Y261643
X405043Y295107
X395201Y304950
X385358Y308887
X383390Y287233
X365673Y283296
X365673Y301013
X363705Y312824
X357799Y316761
X340083Y338414
X316461Y239989
X324335Y212430
X342051Y212430
X340083Y192745
X357799Y171091
X363705Y167154
X365673Y155343
X365673Y137627
X383390Y141564
X395201Y159280
X385358Y163217
X405043Y149438
X420791Y157312
X410949Y178965
X410949Y186839
X342051Y137627
X324335Y137627
X316461Y165186
X281028Y161249
X273154Y176997
X281028Y236052
X273154Y251800
X229846Y259674
X218035Y247863
X202287Y261643
X186539Y230146
X172760Y220304
X170791Y245894
X176697Y261643
X160949Y261643
X172760Y291170
X186539Y301013
X229846Y299044
X229846Y228178
X202287Y186839
X218035Y173060
X229846Y184871
X229846Y153375
X186539Y155343
X172760Y145501
X170791Y171091
X176697Y186839
X160949Y186839
X127484Y137627
X133390Y253769
X127484Y283296
X90083Y340383
X101894Y348257
X94020Y375816
X111736Y389595
X107799Y413217
X127484Y436839
X143232Y397469
X127484Y491957
X113705Y503769
X121579Y514595
X105831Y507706
X100909Y522469
X84177Y497863
X62524Y499831
X62524Y527391
X84177Y576603
X105831Y586446
X113705Y582509
X121579Y593335
X133390Y612036
X160949Y619910
X170791Y604162
X176697Y619910
X186539Y588414
X172760Y578572
X176697Y541170
X170791Y525422
X160949Y541170
X133390Y533296
X127484Y570698
X100909Y601209
X127484Y649438
X113705Y661249
X121579Y672076
X105831Y665186
X100909Y679950
X84177Y655343
X62524Y657312
X62524Y684871
X62524Y606131
X62524Y578572
X133390Y690776
X160949Y698650
X170791Y682902
X176697Y698650
X186539Y667154
X172760Y657312
X202287Y619910
X218035Y606131
X229846Y617942
X229846Y586446
X202287Y541170
X218035Y527391
X229846Y539202
X229846Y507706
X186539Y509674
X172760Y499831
X273154Y531328
X281028Y515580
X316461Y519517
X324335Y491957
X342051Y491957
X365673Y491957
X365673Y509674
X363705Y521485
X357799Y525422
X340083Y547076
X342051Y570698
X324335Y570698
X316461Y598257
X340083Y625816
X342051Y649438
X324335Y649438
X316461Y676997
X340083Y704556
X357799Y682902
X363705Y678965
X365673Y667154
X365673Y649438
X383390Y653375
X395201Y671091
X385358Y675028
X405043Y661249
X420791Y669123
X410949Y690776
X410949Y698650
X410949Y619910
X410949Y612036
X420791Y590383
X405043Y582509
X395201Y592351
X385358Y596288
X383390Y574635
X365673Y570698
X365673Y588414
X363705Y600225
X357799Y604162
X410949Y541170
X410949Y533296
X420791Y511643
X405043Y503769
X395201Y513611
X385358Y517548
X383390Y495894
X281028Y594320
X273154Y610068
X281028Y673060
X273154Y688808
X229846Y696682
X218035Y684871
X202287Y698650
X229846Y665186
X62524Y385658
X410949Y332509
X410949Y324635
X420791Y302981
T02
X202917Y385343
X202917Y395343
X202917Y405343
X192917Y405343
X192917Y395343
X192917Y385343
X187917Y365343
X177917Y365343
X167917Y365343
X157917Y365343
X147917Y365343
X137917Y365343
X127917Y365343
X117917Y365343
X107917Y365343
X97917Y365343
X87917Y365343
X77917Y365343
X67917Y365343
X57917Y365343
X57917Y425343
X67917Y425343
X77917Y425343
X87917Y425343
X97917Y425343
X107917Y425343
X117917Y425343
X127917Y425343
X137917Y425343
X147917Y425343
X157917Y425343
X167917Y425343
X177917Y425343
X187917Y425343
X197917Y425343
X197917Y365343
T03
X359810Y358110
X359810Y381710
X379410Y381710
X379410Y358110
X379410Y415197
X379410Y438797
X359810Y438797
X359810Y415197
T04
X433783Y316682
X433783Y306682
X433783Y245816
X433783Y235816
X433783Y171013
X433783Y161013
X433783Y515343
X433783Y525343
X433783Y594083
X433783Y604083
X433783Y672824
X433783Y682824
T05
X167287Y650501
X147287Y650501
X157287Y611761
X147287Y571761
X167287Y571761
X157287Y533020
X147287Y493020
X167287Y493020
X157287Y324359
X147287Y284359
X167287Y284359
X157287Y253493
X147287Y213493
X167287Y213493
X157287Y178690
X147287Y138690
X167287Y138690
X157287Y690501
T06
X127366Y680658
X92760Y697036
X92760Y618296
X127366Y601918
X92760Y539556
X127366Y523178
X68862Y440501
X92760Y330894
X127366Y314517
X161382Y350265
X209807Y283335
X209807Y212469
X209807Y137666
X127366Y168847
X92760Y185225
X127366Y243650
X92760Y260028
X209807Y491997
X262917Y443099
X284138Y443099
X304689Y443099
X266972Y393572
X295004Y315619
X295161Y295146
X295004Y244753
X295161Y224280
X295004Y169950
X295161Y149477
X295161Y503808
X295004Y524280
X295161Y582548
X295004Y603020
X295161Y661288
X295004Y681761
X209807Y649477
X209807Y570737
M30
