G75*
%MOIN*%
%OFA0B0*%
%FSLAX25Y25*%
%IPPOS*%
%LPD*%
%AMOC8*
5,1,8,0,0,1.08239X$1,22.5*
%
%ADD10C,0.05600*%
%ADD11C,0.06000*%
%ADD12C,0.07800*%
%ADD13C,0.05200*%
%ADD14C,0.05150*%
%ADD15C,0.01600*%
%ADD16C,0.04362*%
%ADD17C,0.01000*%
%ADD18C,0.01200*%
D10*
X0433783Y0161013D03*
X0433783Y0171013D03*
X0433783Y0235816D03*
X0433783Y0245816D03*
X0433783Y0306682D03*
X0433783Y0316682D03*
X0433783Y0515343D03*
X0433783Y0525343D03*
X0433783Y0594083D03*
X0433783Y0604083D03*
X0433783Y0672824D03*
X0433783Y0682824D03*
D11*
X0167287Y0650501D03*
X0147287Y0650501D03*
X0157287Y0611761D03*
X0147287Y0571761D03*
X0167287Y0571761D03*
X0157287Y0533020D03*
X0147287Y0493020D03*
X0167287Y0493020D03*
X0157287Y0324359D03*
X0147287Y0284359D03*
X0167287Y0284359D03*
X0157287Y0253493D03*
X0147287Y0213493D03*
X0167287Y0213493D03*
X0157287Y0178690D03*
X0147287Y0138690D03*
X0167287Y0138690D03*
X0157287Y0690501D03*
D12*
X0127366Y0680658D03*
X0092760Y0697036D03*
X0092760Y0618296D03*
X0127366Y0601918D03*
X0092760Y0539556D03*
X0127366Y0523178D03*
X0068862Y0440501D03*
X0092760Y0330894D03*
X0127366Y0314517D03*
X0161382Y0350265D03*
X0209807Y0283335D03*
X0209807Y0212469D03*
X0209807Y0137666D03*
X0127366Y0168847D03*
X0092760Y0185225D03*
X0127366Y0243650D03*
X0092760Y0260028D03*
X0209807Y0491997D03*
X0262917Y0443099D03*
X0284138Y0443099D03*
X0304689Y0443099D03*
X0266972Y0393572D03*
X0295004Y0315619D03*
X0295161Y0295146D03*
X0295004Y0244753D03*
X0295161Y0224280D03*
X0295004Y0169950D03*
X0295161Y0149477D03*
X0295161Y0503808D03*
X0295004Y0524280D03*
X0295161Y0582548D03*
X0295004Y0603020D03*
X0295161Y0661288D03*
X0295004Y0681761D03*
X0209807Y0649477D03*
X0209807Y0570737D03*
D13*
X0359810Y0438797D03*
X0359810Y0415197D03*
X0379410Y0415197D03*
X0379410Y0438797D03*
X0379410Y0381710D03*
X0379410Y0358110D03*
X0359810Y0358110D03*
X0359810Y0381710D03*
D14*
X0202917Y0385343D03*
X0202917Y0395343D03*
X0202917Y0405343D03*
X0192917Y0405343D03*
X0192917Y0395343D03*
X0192917Y0385343D03*
X0187917Y0365343D03*
X0177917Y0365343D03*
X0167917Y0365343D03*
X0157917Y0365343D03*
X0147917Y0365343D03*
X0137917Y0365343D03*
X0127917Y0365343D03*
X0117917Y0365343D03*
X0107917Y0365343D03*
X0097917Y0365343D03*
X0087917Y0365343D03*
X0077917Y0365343D03*
X0067917Y0365343D03*
X0057917Y0365343D03*
X0057917Y0425343D03*
X0067917Y0425343D03*
X0077917Y0425343D03*
X0087917Y0425343D03*
X0097917Y0425343D03*
X0107917Y0425343D03*
X0117917Y0425343D03*
X0127917Y0425343D03*
X0137917Y0425343D03*
X0147917Y0425343D03*
X0157917Y0425343D03*
X0167917Y0425343D03*
X0177917Y0425343D03*
X0187917Y0425343D03*
X0197917Y0425343D03*
X0197917Y0365343D03*
D15*
X0054081Y0364218D02*
X0054081Y0125247D01*
X0443606Y0125247D01*
X0444664Y0712254D01*
X0054081Y0713310D01*
X0054081Y0426468D01*
X0054548Y0427595D01*
X0055666Y0428713D01*
X0057127Y0429318D01*
X0058708Y0429318D01*
X0060169Y0428713D01*
X0061287Y0427595D01*
X0061892Y0426134D01*
X0061892Y0424553D01*
X0061287Y0423092D01*
X0060169Y0421974D01*
X0058708Y0421369D01*
X0057127Y0421369D01*
X0055666Y0421974D01*
X0054548Y0423092D01*
X0054081Y0424218D01*
X0054081Y0366468D01*
X0054548Y0367595D01*
X0055666Y0368713D01*
X0057127Y0369318D01*
X0058708Y0369318D01*
X0060169Y0368713D01*
X0061287Y0367595D01*
X0061892Y0366134D01*
X0061892Y0364553D01*
X0061287Y0363092D01*
X0060169Y0361974D01*
X0058708Y0361369D01*
X0057127Y0361369D01*
X0055666Y0361974D01*
X0054548Y0363092D01*
X0054081Y0364218D01*
X0054081Y0363624D02*
X0054327Y0363624D01*
X0054081Y0362025D02*
X0055614Y0362025D01*
X0054081Y0360427D02*
X0355828Y0360427D01*
X0355876Y0360521D02*
X0355547Y0359876D01*
X0355323Y0359187D01*
X0355210Y0358472D01*
X0355210Y0358110D01*
X0355210Y0357748D01*
X0355323Y0357033D01*
X0355547Y0356344D01*
X0355876Y0355699D01*
X0356302Y0355114D01*
X0356814Y0354602D01*
X0357399Y0354176D01*
X0358044Y0353847D01*
X0358733Y0353623D01*
X0359448Y0353510D01*
X0359810Y0353510D01*
X0359810Y0358110D01*
X0355210Y0358110D01*
X0359810Y0358110D01*
X0359810Y0358110D01*
X0359810Y0358110D01*
X0359810Y0353510D01*
X0360172Y0353510D01*
X0360887Y0353623D01*
X0361576Y0353847D01*
X0362221Y0354176D01*
X0362807Y0354602D01*
X0363319Y0355114D01*
X0363745Y0355699D01*
X0364073Y0356344D01*
X0364297Y0357033D01*
X0364410Y0357748D01*
X0364410Y0358110D01*
X0359810Y0358110D01*
X0359810Y0362710D01*
X0359448Y0362710D01*
X0358733Y0362597D01*
X0358044Y0362373D01*
X0357399Y0362045D01*
X0356814Y0361619D01*
X0356302Y0361107D01*
X0355876Y0360521D01*
X0355267Y0358828D02*
X0214497Y0358828D01*
X0214158Y0359167D02*
X0212842Y0359712D01*
X0211418Y0359712D01*
X0210101Y0359167D01*
X0209094Y0358159D01*
X0208549Y0356843D01*
X0208549Y0355418D01*
X0209094Y0354102D01*
X0210101Y0353095D01*
X0211418Y0352550D01*
X0212842Y0352550D01*
X0214158Y0353095D01*
X0215166Y0354102D01*
X0215711Y0355418D01*
X0215711Y0356843D01*
X0215166Y0358159D01*
X0214158Y0359167D01*
X0215551Y0357230D02*
X0355292Y0357230D01*
X0355925Y0355631D02*
X0215711Y0355631D01*
X0215097Y0354033D02*
X0357680Y0354033D01*
X0359810Y0354033D02*
X0359810Y0354033D01*
X0359810Y0355631D02*
X0359810Y0355631D01*
X0359810Y0357230D02*
X0359810Y0357230D01*
X0359810Y0358110D02*
X0359810Y0358110D01*
X0359810Y0358110D01*
X0359810Y0362710D01*
X0360172Y0362710D01*
X0360887Y0362597D01*
X0361576Y0362373D01*
X0362221Y0362045D01*
X0362807Y0361619D01*
X0363319Y0361107D01*
X0363745Y0360521D01*
X0364073Y0359876D01*
X0364297Y0359187D01*
X0364410Y0358472D01*
X0364410Y0358110D01*
X0359810Y0358110D01*
X0359810Y0358828D02*
X0359810Y0358828D01*
X0359810Y0360427D02*
X0359810Y0360427D01*
X0359810Y0362025D02*
X0359810Y0362025D01*
X0357373Y0362025D02*
X0200221Y0362025D01*
X0200169Y0361974D02*
X0201287Y0363092D01*
X0201892Y0364553D01*
X0201892Y0366134D01*
X0201287Y0367595D01*
X0200169Y0368713D01*
X0198708Y0369318D01*
X0197127Y0369318D01*
X0195666Y0368713D01*
X0194548Y0367595D01*
X0193943Y0366134D01*
X0193943Y0364553D01*
X0194548Y0363092D01*
X0195666Y0361974D01*
X0197127Y0361369D01*
X0198708Y0361369D01*
X0200169Y0361974D01*
X0201507Y0363624D02*
X0444036Y0363624D01*
X0444039Y0365222D02*
X0201892Y0365222D01*
X0201608Y0366821D02*
X0444042Y0366821D01*
X0444045Y0368419D02*
X0200462Y0368419D01*
X0195372Y0368419D02*
X0191311Y0368419D01*
X0191407Y0368324D02*
X0190898Y0368833D01*
X0190315Y0369256D01*
X0189673Y0369583D01*
X0188989Y0369805D01*
X0188277Y0369918D01*
X0187917Y0369918D01*
X0187557Y0369918D01*
X0186846Y0369805D01*
X0186161Y0369583D01*
X0185520Y0369256D01*
X0184937Y0368833D01*
X0184428Y0368324D01*
X0184005Y0367741D01*
X0183678Y0367099D01*
X0183455Y0366415D01*
X0183343Y0365703D01*
X0183343Y0365343D01*
X0183343Y0364983D01*
X0183455Y0364272D01*
X0183678Y0363587D01*
X0184005Y0362946D01*
X0184428Y0362363D01*
X0184937Y0361854D01*
X0185520Y0361431D01*
X0186161Y0361104D01*
X0186846Y0360881D01*
X0187557Y0360769D01*
X0187917Y0360769D01*
X0187917Y0365343D01*
X0183343Y0365343D01*
X0187917Y0365343D01*
X0187917Y0365343D01*
X0187917Y0365343D01*
X0187917Y0360769D01*
X0188277Y0360769D01*
X0188989Y0360881D01*
X0189673Y0361104D01*
X0190315Y0361431D01*
X0190898Y0361854D01*
X0191407Y0362363D01*
X0191830Y0362946D01*
X0192157Y0363587D01*
X0192379Y0364272D01*
X0192492Y0364983D01*
X0192492Y0365343D01*
X0187917Y0365343D01*
X0187917Y0369918D01*
X0187917Y0365343D01*
X0187917Y0365343D01*
X0187917Y0365343D01*
X0192492Y0365343D01*
X0192492Y0365703D01*
X0192379Y0366415D01*
X0192157Y0367099D01*
X0191830Y0367741D01*
X0191407Y0368324D01*
X0192247Y0366821D02*
X0194227Y0366821D01*
X0193943Y0365222D02*
X0192492Y0365222D01*
X0192169Y0363624D02*
X0194327Y0363624D01*
X0195614Y0362025D02*
X0191069Y0362025D01*
X0187917Y0362025D02*
X0187917Y0362025D01*
X0187917Y0363624D02*
X0187917Y0363624D01*
X0187917Y0365222D02*
X0187917Y0365222D01*
X0187917Y0366821D02*
X0187917Y0366821D01*
X0187917Y0368419D02*
X0187917Y0368419D01*
X0184524Y0368419D02*
X0180462Y0368419D01*
X0180169Y0368713D02*
X0178708Y0369318D01*
X0177127Y0369318D01*
X0175666Y0368713D01*
X0174548Y0367595D01*
X0173943Y0366134D01*
X0173943Y0364553D01*
X0174548Y0363092D01*
X0175666Y0361974D01*
X0177127Y0361369D01*
X0178708Y0361369D01*
X0180169Y0361974D01*
X0181287Y0363092D01*
X0181892Y0364553D01*
X0181892Y0366134D01*
X0181287Y0367595D01*
X0180169Y0368713D01*
X0181608Y0366821D02*
X0183587Y0366821D01*
X0183343Y0365222D02*
X0181892Y0365222D01*
X0181507Y0363624D02*
X0183666Y0363624D01*
X0184765Y0362025D02*
X0180221Y0362025D01*
X0175614Y0362025D02*
X0170221Y0362025D01*
X0170169Y0361974D02*
X0171287Y0363092D01*
X0171892Y0364553D01*
X0171892Y0366134D01*
X0171287Y0367595D01*
X0170169Y0368713D01*
X0168708Y0369318D01*
X0167127Y0369318D01*
X0165666Y0368713D01*
X0164548Y0367595D01*
X0163943Y0366134D01*
X0163943Y0364553D01*
X0164548Y0363092D01*
X0165666Y0361974D01*
X0167127Y0361369D01*
X0168708Y0361369D01*
X0170169Y0361974D01*
X0171507Y0363624D02*
X0174327Y0363624D01*
X0173943Y0365222D02*
X0171892Y0365222D01*
X0171608Y0366821D02*
X0174227Y0366821D01*
X0175372Y0368419D02*
X0170462Y0368419D01*
X0165372Y0368419D02*
X0160462Y0368419D01*
X0160169Y0368713D02*
X0158708Y0369318D01*
X0157127Y0369318D01*
X0155666Y0368713D01*
X0154548Y0367595D01*
X0153943Y0366134D01*
X0153943Y0364553D01*
X0154548Y0363092D01*
X0155666Y0361974D01*
X0157127Y0361369D01*
X0158708Y0361369D01*
X0160169Y0361974D01*
X0161287Y0363092D01*
X0161892Y0364553D01*
X0161892Y0366134D01*
X0161287Y0367595D01*
X0160169Y0368713D01*
X0161608Y0366821D02*
X0164227Y0366821D01*
X0163943Y0365222D02*
X0161892Y0365222D01*
X0161507Y0363624D02*
X0164327Y0363624D01*
X0165614Y0362025D02*
X0160221Y0362025D01*
X0155614Y0362025D02*
X0150221Y0362025D01*
X0150169Y0361974D02*
X0151287Y0363092D01*
X0151892Y0364553D01*
X0151892Y0366134D01*
X0151287Y0367595D01*
X0150169Y0368713D01*
X0148708Y0369318D01*
X0147127Y0369318D01*
X0145666Y0368713D01*
X0144548Y0367595D01*
X0143943Y0366134D01*
X0143943Y0364553D01*
X0144548Y0363092D01*
X0145666Y0361974D01*
X0147127Y0361369D01*
X0148708Y0361369D01*
X0150169Y0361974D01*
X0151507Y0363624D02*
X0154327Y0363624D01*
X0153943Y0365222D02*
X0151892Y0365222D01*
X0151608Y0366821D02*
X0154227Y0366821D01*
X0155372Y0368419D02*
X0150462Y0368419D01*
X0145372Y0368419D02*
X0140462Y0368419D01*
X0140169Y0368713D02*
X0138708Y0369318D01*
X0137127Y0369318D01*
X0135666Y0368713D01*
X0134548Y0367595D01*
X0133943Y0366134D01*
X0133943Y0364553D01*
X0134548Y0363092D01*
X0135666Y0361974D01*
X0137127Y0361369D01*
X0138708Y0361369D01*
X0140169Y0361974D01*
X0141287Y0363092D01*
X0141892Y0364553D01*
X0141892Y0366134D01*
X0141287Y0367595D01*
X0140169Y0368713D01*
X0141608Y0366821D02*
X0144227Y0366821D01*
X0143943Y0365222D02*
X0141892Y0365222D01*
X0141507Y0363624D02*
X0144327Y0363624D01*
X0145614Y0362025D02*
X0140221Y0362025D01*
X0135614Y0362025D02*
X0130221Y0362025D01*
X0130169Y0361974D02*
X0131287Y0363092D01*
X0131892Y0364553D01*
X0131892Y0366134D01*
X0131287Y0367595D01*
X0130169Y0368713D01*
X0128708Y0369318D01*
X0127127Y0369318D01*
X0125666Y0368713D01*
X0124548Y0367595D01*
X0123943Y0366134D01*
X0123943Y0364553D01*
X0124548Y0363092D01*
X0125666Y0361974D01*
X0127127Y0361369D01*
X0128708Y0361369D01*
X0130169Y0361974D01*
X0131507Y0363624D02*
X0134327Y0363624D01*
X0133943Y0365222D02*
X0131892Y0365222D01*
X0131608Y0366821D02*
X0134227Y0366821D01*
X0135372Y0368419D02*
X0130462Y0368419D01*
X0125372Y0368419D02*
X0120462Y0368419D01*
X0120169Y0368713D02*
X0118708Y0369318D01*
X0117127Y0369318D01*
X0115666Y0368713D01*
X0114548Y0367595D01*
X0113943Y0366134D01*
X0113943Y0364553D01*
X0114548Y0363092D01*
X0115666Y0361974D01*
X0117127Y0361369D01*
X0118708Y0361369D01*
X0120169Y0361974D01*
X0121287Y0363092D01*
X0121892Y0364553D01*
X0121892Y0366134D01*
X0121287Y0367595D01*
X0120169Y0368713D01*
X0121608Y0366821D02*
X0124227Y0366821D01*
X0123943Y0365222D02*
X0121892Y0365222D01*
X0121507Y0363624D02*
X0124327Y0363624D01*
X0125614Y0362025D02*
X0120221Y0362025D01*
X0115614Y0362025D02*
X0110221Y0362025D01*
X0110169Y0361974D02*
X0111287Y0363092D01*
X0111892Y0364553D01*
X0111892Y0366134D01*
X0111287Y0367595D01*
X0110169Y0368713D01*
X0108708Y0369318D01*
X0107127Y0369318D01*
X0105666Y0368713D01*
X0104548Y0367595D01*
X0103943Y0366134D01*
X0103943Y0364553D01*
X0104548Y0363092D01*
X0105666Y0361974D01*
X0107127Y0361369D01*
X0108708Y0361369D01*
X0110169Y0361974D01*
X0111507Y0363624D02*
X0114327Y0363624D01*
X0113943Y0365222D02*
X0111892Y0365222D01*
X0111608Y0366821D02*
X0114227Y0366821D01*
X0115372Y0368419D02*
X0110462Y0368419D01*
X0105372Y0368419D02*
X0100462Y0368419D01*
X0100169Y0368713D02*
X0098708Y0369318D01*
X0097127Y0369318D01*
X0095666Y0368713D01*
X0094548Y0367595D01*
X0093943Y0366134D01*
X0093943Y0364553D01*
X0094548Y0363092D01*
X0095666Y0361974D01*
X0097127Y0361369D01*
X0098708Y0361369D01*
X0100169Y0361974D01*
X0101287Y0363092D01*
X0101892Y0364553D01*
X0101892Y0366134D01*
X0101287Y0367595D01*
X0100169Y0368713D01*
X0101608Y0366821D02*
X0104227Y0366821D01*
X0103943Y0365222D02*
X0101892Y0365222D01*
X0101507Y0363624D02*
X0104327Y0363624D01*
X0105614Y0362025D02*
X0100221Y0362025D01*
X0095614Y0362025D02*
X0090221Y0362025D01*
X0090169Y0361974D02*
X0091287Y0363092D01*
X0091892Y0364553D01*
X0091892Y0366134D01*
X0091287Y0367595D01*
X0090169Y0368713D01*
X0088708Y0369318D01*
X0087127Y0369318D01*
X0085666Y0368713D01*
X0084548Y0367595D01*
X0083943Y0366134D01*
X0083943Y0364553D01*
X0084548Y0363092D01*
X0085666Y0361974D01*
X0087127Y0361369D01*
X0088708Y0361369D01*
X0090169Y0361974D01*
X0091507Y0363624D02*
X0094327Y0363624D01*
X0093943Y0365222D02*
X0091892Y0365222D01*
X0091608Y0366821D02*
X0094227Y0366821D01*
X0095372Y0368419D02*
X0090462Y0368419D01*
X0091991Y0372780D02*
X0093307Y0372235D01*
X0094732Y0372235D01*
X0096048Y0372780D01*
X0097056Y0373787D01*
X0097601Y0375103D01*
X0097601Y0376528D01*
X0097056Y0377844D01*
X0096048Y0378852D01*
X0094732Y0379397D01*
X0093307Y0379397D01*
X0091991Y0378852D01*
X0090984Y0377844D01*
X0090439Y0376528D01*
X0090439Y0375103D01*
X0090984Y0373787D01*
X0091991Y0372780D01*
X0091556Y0373215D02*
X0054081Y0373215D01*
X0054081Y0371616D02*
X0444050Y0371616D01*
X0444048Y0370018D02*
X0054081Y0370018D01*
X0054081Y0368419D02*
X0055372Y0368419D01*
X0054227Y0366821D02*
X0054081Y0366821D01*
X0060462Y0368419D02*
X0065372Y0368419D01*
X0065666Y0368713D02*
X0064548Y0367595D01*
X0063943Y0366134D01*
X0063943Y0364553D01*
X0064548Y0363092D01*
X0065666Y0361974D01*
X0067127Y0361369D01*
X0068708Y0361369D01*
X0070169Y0361974D01*
X0071287Y0363092D01*
X0071892Y0364553D01*
X0071892Y0366134D01*
X0071287Y0367595D01*
X0070169Y0368713D01*
X0068708Y0369318D01*
X0067127Y0369318D01*
X0065666Y0368713D01*
X0064227Y0366821D02*
X0061608Y0366821D01*
X0061892Y0365222D02*
X0063943Y0365222D01*
X0064327Y0363624D02*
X0061507Y0363624D01*
X0060221Y0362025D02*
X0065614Y0362025D01*
X0070221Y0362025D02*
X0075614Y0362025D01*
X0075666Y0361974D02*
X0077127Y0361369D01*
X0078708Y0361369D01*
X0080169Y0361974D01*
X0081287Y0363092D01*
X0081892Y0364553D01*
X0081892Y0366134D01*
X0081287Y0367595D01*
X0080169Y0368713D01*
X0078708Y0369318D01*
X0077127Y0369318D01*
X0075666Y0368713D01*
X0074548Y0367595D01*
X0073943Y0366134D01*
X0073943Y0364553D01*
X0074548Y0363092D01*
X0075666Y0361974D01*
X0074327Y0363624D02*
X0071507Y0363624D01*
X0071892Y0365222D02*
X0073943Y0365222D01*
X0074227Y0366821D02*
X0071608Y0366821D01*
X0070462Y0368419D02*
X0075372Y0368419D01*
X0080462Y0368419D02*
X0085372Y0368419D01*
X0084227Y0366821D02*
X0081608Y0366821D01*
X0081892Y0365222D02*
X0083943Y0365222D01*
X0084327Y0363624D02*
X0081507Y0363624D01*
X0080221Y0362025D02*
X0085614Y0362025D01*
X0090559Y0374814D02*
X0054081Y0374814D01*
X0054081Y0376412D02*
X0090439Y0376412D01*
X0091150Y0378011D02*
X0054081Y0378011D01*
X0054081Y0379609D02*
X0181451Y0379609D01*
X0181535Y0379813D02*
X0180990Y0378497D01*
X0180990Y0377072D01*
X0181535Y0375756D01*
X0182542Y0374748D01*
X0183859Y0374203D01*
X0185283Y0374203D01*
X0186599Y0374748D01*
X0187607Y0375756D01*
X0188152Y0377072D01*
X0188152Y0378497D01*
X0187607Y0379813D01*
X0186599Y0380820D01*
X0185283Y0381365D01*
X0183859Y0381365D01*
X0182542Y0380820D01*
X0181535Y0379813D01*
X0180990Y0378011D02*
X0096889Y0378011D01*
X0097601Y0376412D02*
X0181263Y0376412D01*
X0182477Y0374814D02*
X0097481Y0374814D01*
X0096483Y0373215D02*
X0444053Y0373215D01*
X0444056Y0374814D02*
X0186665Y0374814D01*
X0187879Y0376412D02*
X0444059Y0376412D01*
X0444062Y0378011D02*
X0380931Y0378011D01*
X0380206Y0377710D02*
X0381676Y0378319D01*
X0382801Y0379444D01*
X0383410Y0380915D01*
X0383410Y0382506D01*
X0382801Y0383976D01*
X0381676Y0385101D01*
X0380206Y0385710D01*
X0378615Y0385710D01*
X0377144Y0385101D01*
X0376019Y0383976D01*
X0375410Y0382506D01*
X0375410Y0380915D01*
X0376019Y0379444D01*
X0377144Y0378319D01*
X0378615Y0377710D01*
X0380206Y0377710D01*
X0377890Y0378011D02*
X0361331Y0378011D01*
X0360606Y0377710D02*
X0362076Y0378319D01*
X0363201Y0379444D01*
X0363810Y0380915D01*
X0363810Y0382506D01*
X0363201Y0383976D01*
X0362076Y0385101D01*
X0360606Y0385710D01*
X0359015Y0385710D01*
X0357544Y0385101D01*
X0356419Y0383976D01*
X0355810Y0382506D01*
X0355810Y0380915D01*
X0356419Y0379444D01*
X0357544Y0378319D01*
X0359015Y0377710D01*
X0360606Y0377710D01*
X0358290Y0378011D02*
X0188152Y0378011D01*
X0187691Y0379609D02*
X0356351Y0379609D01*
X0355810Y0381208D02*
X0185664Y0381208D01*
X0183478Y0381208D02*
X0054081Y0381208D01*
X0054081Y0382806D02*
X0189833Y0382806D01*
X0189548Y0383092D02*
X0190666Y0381974D01*
X0192127Y0381369D01*
X0193708Y0381369D01*
X0195169Y0381974D01*
X0196287Y0383092D01*
X0196892Y0384553D01*
X0196892Y0386134D01*
X0196287Y0387595D01*
X0195169Y0388713D01*
X0193708Y0389318D01*
X0192127Y0389318D01*
X0190666Y0388713D01*
X0189548Y0387595D01*
X0188943Y0386134D01*
X0188943Y0384553D01*
X0189548Y0383092D01*
X0189004Y0384405D02*
X0054081Y0384405D01*
X0054081Y0386003D02*
X0188943Y0386003D01*
X0189554Y0387602D02*
X0178587Y0387602D01*
X0178332Y0387347D02*
X0179339Y0388354D01*
X0179884Y0389670D01*
X0179884Y0391095D01*
X0179339Y0392411D01*
X0178332Y0393419D01*
X0177198Y0393888D01*
X0177409Y0393888D01*
X0178725Y0394433D01*
X0179733Y0395441D01*
X0180278Y0396757D01*
X0180278Y0398182D01*
X0179733Y0399498D01*
X0179420Y0399811D01*
X0180694Y0400339D01*
X0181701Y0401346D01*
X0182246Y0402662D01*
X0182246Y0404087D01*
X0181701Y0405403D01*
X0180694Y0406411D01*
X0179378Y0406956D01*
X0177953Y0406956D01*
X0176637Y0406411D01*
X0175629Y0405403D01*
X0175084Y0404087D01*
X0175084Y0402662D01*
X0175629Y0401346D01*
X0175943Y0401033D01*
X0174668Y0400505D01*
X0173661Y0399498D01*
X0173116Y0398182D01*
X0173116Y0396757D01*
X0173661Y0395441D01*
X0174668Y0394433D01*
X0175802Y0393964D01*
X0175591Y0393964D01*
X0174275Y0393419D01*
X0173267Y0392411D01*
X0172722Y0391095D01*
X0172722Y0389670D01*
X0173267Y0388354D01*
X0174275Y0387347D01*
X0175591Y0386802D01*
X0177015Y0386802D01*
X0178332Y0387347D01*
X0179689Y0389200D02*
X0191842Y0389200D01*
X0193993Y0389200D02*
X0201842Y0389200D01*
X0202127Y0389318D02*
X0200666Y0388713D01*
X0199548Y0387595D01*
X0198943Y0386134D01*
X0198943Y0384553D01*
X0199548Y0383092D01*
X0200666Y0381974D01*
X0202127Y0381369D01*
X0203708Y0381369D01*
X0205169Y0381974D01*
X0206287Y0383092D01*
X0206892Y0384553D01*
X0206892Y0386134D01*
X0206287Y0387595D01*
X0205169Y0388713D01*
X0203708Y0389318D01*
X0202127Y0389318D01*
X0203993Y0389200D02*
X0263849Y0389200D01*
X0263970Y0389079D02*
X0265918Y0388272D01*
X0268027Y0388272D01*
X0269975Y0389079D01*
X0271466Y0390569D01*
X0272272Y0392517D01*
X0272272Y0394626D01*
X0271466Y0396574D01*
X0269975Y0398065D01*
X0268027Y0398872D01*
X0265918Y0398872D01*
X0263970Y0398065D01*
X0262479Y0396574D01*
X0261672Y0394626D01*
X0261672Y0392517D01*
X0262479Y0390569D01*
X0263970Y0389079D01*
X0262384Y0390799D02*
X0179884Y0390799D01*
X0179345Y0392397D02*
X0190242Y0392397D01*
X0190666Y0391974D02*
X0192127Y0391369D01*
X0193708Y0391369D01*
X0195169Y0391974D01*
X0196287Y0393092D01*
X0196892Y0394553D01*
X0196892Y0396134D01*
X0196287Y0397595D01*
X0195169Y0398713D01*
X0193708Y0399318D01*
X0192127Y0399318D01*
X0190666Y0398713D01*
X0189548Y0397595D01*
X0188943Y0396134D01*
X0188943Y0394553D01*
X0189548Y0393092D01*
X0190666Y0391974D01*
X0189173Y0393996D02*
X0177669Y0393996D01*
X0175725Y0393996D02*
X0054081Y0393996D01*
X0054081Y0395594D02*
X0173597Y0395594D01*
X0173116Y0397193D02*
X0054081Y0397193D01*
X0054081Y0398791D02*
X0173368Y0398791D01*
X0174553Y0400390D02*
X0054081Y0400390D01*
X0054081Y0401988D02*
X0175364Y0401988D01*
X0175084Y0403587D02*
X0054081Y0403587D01*
X0054081Y0405185D02*
X0175539Y0405185D01*
X0177537Y0406784D02*
X0054081Y0406784D01*
X0054081Y0408382D02*
X0190335Y0408382D01*
X0190666Y0408713D02*
X0189548Y0407595D01*
X0188943Y0406134D01*
X0188943Y0404553D01*
X0189548Y0403092D01*
X0190666Y0401974D01*
X0192127Y0401369D01*
X0193708Y0401369D01*
X0195169Y0401974D01*
X0196287Y0403092D01*
X0196892Y0404553D01*
X0196892Y0406134D01*
X0196287Y0407595D01*
X0195169Y0408713D01*
X0193708Y0409318D01*
X0192127Y0409318D01*
X0190666Y0408713D01*
X0189212Y0406784D02*
X0179793Y0406784D01*
X0181792Y0405185D02*
X0188943Y0405185D01*
X0189343Y0403587D02*
X0182246Y0403587D01*
X0181967Y0401988D02*
X0190651Y0401988D01*
X0190855Y0398791D02*
X0180025Y0398791D01*
X0180278Y0397193D02*
X0189381Y0397193D01*
X0188943Y0395594D02*
X0179796Y0395594D01*
X0180745Y0400390D02*
X0444102Y0400390D01*
X0444105Y0401988D02*
X0205183Y0401988D01*
X0205169Y0401974D02*
X0206287Y0403092D01*
X0206892Y0404553D01*
X0206892Y0406134D01*
X0206287Y0407595D01*
X0205169Y0408713D01*
X0203708Y0409318D01*
X0202127Y0409318D01*
X0201030Y0408864D01*
X0201386Y0409220D01*
X0201931Y0410536D01*
X0201931Y0411961D01*
X0201386Y0413277D01*
X0200379Y0414285D01*
X0199063Y0414830D01*
X0197638Y0414830D01*
X0196322Y0414285D01*
X0195314Y0413277D01*
X0194769Y0411961D01*
X0194769Y0410536D01*
X0195314Y0409220D01*
X0196322Y0408213D01*
X0197638Y0407668D01*
X0199063Y0407668D01*
X0200015Y0408062D01*
X0199548Y0407595D01*
X0198943Y0406134D01*
X0198943Y0404553D01*
X0199548Y0403092D01*
X0200666Y0401974D01*
X0202127Y0401369D01*
X0203708Y0401369D01*
X0205169Y0401974D01*
X0206492Y0403587D02*
X0444108Y0403587D01*
X0444111Y0405185D02*
X0206892Y0405185D01*
X0206623Y0406784D02*
X0444114Y0406784D01*
X0444117Y0408382D02*
X0205500Y0408382D01*
X0201701Y0409981D02*
X0444120Y0409981D01*
X0444123Y0411579D02*
X0381129Y0411579D01*
X0381676Y0411806D02*
X0380206Y0411197D01*
X0378615Y0411197D01*
X0377144Y0411806D01*
X0376019Y0412931D01*
X0375410Y0414401D01*
X0375410Y0415992D01*
X0376019Y0417463D01*
X0377144Y0418588D01*
X0378615Y0419197D01*
X0380206Y0419197D01*
X0381676Y0418588D01*
X0382801Y0417463D01*
X0383410Y0415992D01*
X0383410Y0414401D01*
X0382801Y0412931D01*
X0381676Y0411806D01*
X0382903Y0413178D02*
X0444125Y0413178D01*
X0444128Y0414776D02*
X0383410Y0414776D01*
X0383252Y0416375D02*
X0444131Y0416375D01*
X0444134Y0417973D02*
X0382291Y0417973D01*
X0377691Y0411579D02*
X0361529Y0411579D01*
X0362076Y0411806D02*
X0360606Y0411197D01*
X0359015Y0411197D01*
X0357544Y0411806D01*
X0356419Y0412931D01*
X0355810Y0414401D01*
X0355810Y0415992D01*
X0356419Y0417463D01*
X0357544Y0418588D01*
X0359015Y0419197D01*
X0360606Y0419197D01*
X0362076Y0418588D01*
X0363201Y0417463D01*
X0363810Y0415992D01*
X0363810Y0414401D01*
X0363201Y0412931D01*
X0362076Y0411806D01*
X0363303Y0413178D02*
X0375917Y0413178D01*
X0375410Y0414776D02*
X0363810Y0414776D01*
X0363652Y0416375D02*
X0375569Y0416375D01*
X0376530Y0417973D02*
X0362691Y0417973D01*
X0358091Y0411579D02*
X0232289Y0411579D01*
X0231875Y0411166D02*
X0232882Y0412173D01*
X0233428Y0413489D01*
X0233428Y0414914D01*
X0232882Y0416230D01*
X0231875Y0417237D01*
X0230559Y0417783D01*
X0229134Y0417783D01*
X0227818Y0417237D01*
X0226811Y0416230D01*
X0226265Y0414914D01*
X0226265Y0413489D01*
X0226811Y0412173D01*
X0227818Y0411166D01*
X0229134Y0410620D01*
X0230559Y0410620D01*
X0231875Y0411166D01*
X0233299Y0413178D02*
X0356317Y0413178D01*
X0355810Y0414776D02*
X0233428Y0414776D01*
X0232738Y0416375D02*
X0355969Y0416375D01*
X0356930Y0417973D02*
X0213698Y0417973D01*
X0213743Y0417867D02*
X0213197Y0419183D01*
X0212190Y0420190D01*
X0210874Y0420735D01*
X0209449Y0420735D01*
X0208133Y0420190D01*
X0207126Y0419183D01*
X0206580Y0417867D01*
X0206580Y0416442D01*
X0207126Y0415126D01*
X0208133Y0414118D01*
X0209449Y0413573D01*
X0210874Y0413573D01*
X0212190Y0414118D01*
X0213197Y0415126D01*
X0213743Y0416442D01*
X0213743Y0417867D01*
X0213715Y0416375D02*
X0226955Y0416375D01*
X0226265Y0414776D02*
X0212848Y0414776D01*
X0212808Y0419572D02*
X0234815Y0419572D01*
X0235040Y0419479D02*
X0233723Y0420024D01*
X0232716Y0421031D01*
X0232171Y0422348D01*
X0232171Y0423772D01*
X0232716Y0425088D01*
X0233723Y0426096D01*
X0235040Y0426641D01*
X0236464Y0426641D01*
X0237780Y0426096D01*
X0238788Y0425088D01*
X0239333Y0423772D01*
X0239333Y0422348D01*
X0238788Y0421031D01*
X0237780Y0420024D01*
X0236464Y0419479D01*
X0235040Y0419479D01*
X0236689Y0419572D02*
X0444137Y0419572D01*
X0444140Y0421170D02*
X0238845Y0421170D01*
X0239333Y0422769D02*
X0444143Y0422769D01*
X0444146Y0424367D02*
X0239087Y0424367D01*
X0237910Y0425966D02*
X0444148Y0425966D01*
X0444151Y0427564D02*
X0217680Y0427564D01*
X0217680Y0427709D02*
X0217134Y0429025D01*
X0216127Y0430033D01*
X0214811Y0430578D01*
X0213386Y0430578D01*
X0212070Y0430033D01*
X0211063Y0429025D01*
X0210517Y0427709D01*
X0210517Y0426285D01*
X0211063Y0424968D01*
X0212070Y0423961D01*
X0213386Y0423416D01*
X0214811Y0423416D01*
X0216127Y0423961D01*
X0217134Y0424968D01*
X0217680Y0426285D01*
X0217680Y0427709D01*
X0216997Y0429163D02*
X0444154Y0429163D01*
X0444157Y0430761D02*
X0054081Y0430761D01*
X0054081Y0429163D02*
X0056752Y0429163D01*
X0059083Y0429163D02*
X0066752Y0429163D01*
X0067127Y0429318D02*
X0065666Y0428713D01*
X0064548Y0427595D01*
X0063943Y0426134D01*
X0063943Y0424553D01*
X0064548Y0423092D01*
X0065666Y0421974D01*
X0067127Y0421369D01*
X0068708Y0421369D01*
X0070169Y0421974D01*
X0071287Y0423092D01*
X0071892Y0424553D01*
X0071892Y0426134D01*
X0071287Y0427595D01*
X0070169Y0428713D01*
X0068708Y0429318D01*
X0067127Y0429318D01*
X0069083Y0429163D02*
X0076752Y0429163D01*
X0077127Y0429318D02*
X0075666Y0428713D01*
X0074548Y0427595D01*
X0073943Y0426134D01*
X0073943Y0424553D01*
X0074548Y0423092D01*
X0075666Y0421974D01*
X0077127Y0421369D01*
X0078708Y0421369D01*
X0080169Y0421974D01*
X0081287Y0423092D01*
X0081892Y0424553D01*
X0081892Y0426134D01*
X0081287Y0427595D01*
X0080169Y0428713D01*
X0078708Y0429318D01*
X0077127Y0429318D01*
X0079083Y0429163D02*
X0086752Y0429163D01*
X0087127Y0429318D02*
X0085666Y0428713D01*
X0084548Y0427595D01*
X0083943Y0426134D01*
X0083943Y0424553D01*
X0084548Y0423092D01*
X0085666Y0421974D01*
X0087127Y0421369D01*
X0088708Y0421369D01*
X0090169Y0421974D01*
X0091287Y0423092D01*
X0091892Y0424553D01*
X0091892Y0426134D01*
X0091287Y0427595D01*
X0090169Y0428713D01*
X0088708Y0429318D01*
X0087127Y0429318D01*
X0089083Y0429163D02*
X0096752Y0429163D01*
X0097127Y0429318D02*
X0095666Y0428713D01*
X0094548Y0427595D01*
X0093943Y0426134D01*
X0093943Y0424553D01*
X0094548Y0423092D01*
X0095666Y0421974D01*
X0097127Y0421369D01*
X0098708Y0421369D01*
X0100169Y0421974D01*
X0101287Y0423092D01*
X0101892Y0424553D01*
X0101892Y0426134D01*
X0101287Y0427595D01*
X0100169Y0428713D01*
X0098708Y0429318D01*
X0097127Y0429318D01*
X0099083Y0429163D02*
X0106752Y0429163D01*
X0107127Y0429318D02*
X0105666Y0428713D01*
X0104548Y0427595D01*
X0103943Y0426134D01*
X0103943Y0424553D01*
X0104548Y0423092D01*
X0105666Y0421974D01*
X0107127Y0421369D01*
X0108708Y0421369D01*
X0110169Y0421974D01*
X0111287Y0423092D01*
X0111892Y0424553D01*
X0111892Y0426134D01*
X0111287Y0427595D01*
X0110169Y0428713D01*
X0108708Y0429318D01*
X0107127Y0429318D01*
X0109083Y0429163D02*
X0116752Y0429163D01*
X0117127Y0429318D02*
X0115666Y0428713D01*
X0114548Y0427595D01*
X0113943Y0426134D01*
X0113943Y0424553D01*
X0114548Y0423092D01*
X0115666Y0421974D01*
X0117127Y0421369D01*
X0118708Y0421369D01*
X0120169Y0421974D01*
X0121287Y0423092D01*
X0121892Y0424553D01*
X0121892Y0426134D01*
X0121287Y0427595D01*
X0120169Y0428713D01*
X0118708Y0429318D01*
X0117127Y0429318D01*
X0119083Y0429163D02*
X0126752Y0429163D01*
X0127127Y0429318D02*
X0125666Y0428713D01*
X0124548Y0427595D01*
X0123943Y0426134D01*
X0123943Y0424553D01*
X0124548Y0423092D01*
X0125666Y0421974D01*
X0127127Y0421369D01*
X0128708Y0421369D01*
X0130169Y0421974D01*
X0131287Y0423092D01*
X0131892Y0424553D01*
X0131892Y0426134D01*
X0131287Y0427595D01*
X0130169Y0428713D01*
X0128708Y0429318D01*
X0127127Y0429318D01*
X0129083Y0429163D02*
X0136752Y0429163D01*
X0137127Y0429318D02*
X0135666Y0428713D01*
X0134548Y0427595D01*
X0133943Y0426134D01*
X0133943Y0424553D01*
X0134548Y0423092D01*
X0135666Y0421974D01*
X0137127Y0421369D01*
X0138708Y0421369D01*
X0140169Y0421974D01*
X0141287Y0423092D01*
X0141892Y0424553D01*
X0141892Y0426134D01*
X0141287Y0427595D01*
X0140169Y0428713D01*
X0138708Y0429318D01*
X0137127Y0429318D01*
X0139083Y0429163D02*
X0146752Y0429163D01*
X0147127Y0429318D02*
X0145666Y0428713D01*
X0144548Y0427595D01*
X0143943Y0426134D01*
X0143943Y0424553D01*
X0144548Y0423092D01*
X0145666Y0421974D01*
X0147127Y0421369D01*
X0148708Y0421369D01*
X0150169Y0421974D01*
X0151287Y0423092D01*
X0151892Y0424553D01*
X0151892Y0426134D01*
X0151287Y0427595D01*
X0150169Y0428713D01*
X0148708Y0429318D01*
X0147127Y0429318D01*
X0149083Y0429163D02*
X0156752Y0429163D01*
X0157127Y0429318D02*
X0155666Y0428713D01*
X0154548Y0427595D01*
X0153943Y0426134D01*
X0153943Y0424553D01*
X0154548Y0423092D01*
X0155666Y0421974D01*
X0157127Y0421369D01*
X0158708Y0421369D01*
X0160169Y0421974D01*
X0161287Y0423092D01*
X0161892Y0424553D01*
X0161892Y0426134D01*
X0161287Y0427595D01*
X0160169Y0428713D01*
X0158708Y0429318D01*
X0157127Y0429318D01*
X0159083Y0429163D02*
X0166752Y0429163D01*
X0167127Y0429318D02*
X0165666Y0428713D01*
X0164548Y0427595D01*
X0163943Y0426134D01*
X0163943Y0424553D01*
X0164548Y0423092D01*
X0165666Y0421974D01*
X0167127Y0421369D01*
X0168708Y0421369D01*
X0170169Y0421974D01*
X0171287Y0423092D01*
X0171892Y0424553D01*
X0171892Y0426134D01*
X0171287Y0427595D01*
X0170169Y0428713D01*
X0168708Y0429318D01*
X0167127Y0429318D01*
X0169083Y0429163D02*
X0176752Y0429163D01*
X0177127Y0429318D02*
X0175666Y0428713D01*
X0174548Y0427595D01*
X0173943Y0426134D01*
X0173943Y0424553D01*
X0174548Y0423092D01*
X0175666Y0421974D01*
X0177127Y0421369D01*
X0178708Y0421369D01*
X0180169Y0421974D01*
X0181287Y0423092D01*
X0181892Y0424553D01*
X0181892Y0426134D01*
X0181287Y0427595D01*
X0180169Y0428713D01*
X0178708Y0429318D01*
X0177127Y0429318D01*
X0179083Y0429163D02*
X0186752Y0429163D01*
X0187127Y0429318D02*
X0185666Y0428713D01*
X0184548Y0427595D01*
X0183943Y0426134D01*
X0183943Y0424553D01*
X0184548Y0423092D01*
X0185666Y0421974D01*
X0187127Y0421369D01*
X0188708Y0421369D01*
X0190169Y0421974D01*
X0191287Y0423092D01*
X0191892Y0424553D01*
X0191892Y0426134D01*
X0191287Y0427595D01*
X0190169Y0428713D01*
X0188708Y0429318D01*
X0187127Y0429318D01*
X0189083Y0429163D02*
X0196752Y0429163D01*
X0197127Y0429318D02*
X0195666Y0428713D01*
X0194548Y0427595D01*
X0193943Y0426134D01*
X0193943Y0424553D01*
X0194548Y0423092D01*
X0195666Y0421974D01*
X0197127Y0421369D01*
X0198708Y0421369D01*
X0200169Y0421974D01*
X0201287Y0423092D01*
X0201892Y0424553D01*
X0201892Y0426134D01*
X0201287Y0427595D01*
X0200169Y0428713D01*
X0198708Y0429318D01*
X0197127Y0429318D01*
X0199083Y0429163D02*
X0211200Y0429163D01*
X0210517Y0427564D02*
X0201300Y0427564D01*
X0201892Y0425966D02*
X0210649Y0425966D01*
X0211663Y0424367D02*
X0201815Y0424367D01*
X0200964Y0422769D02*
X0232171Y0422769D01*
X0232417Y0424367D02*
X0216533Y0424367D01*
X0217548Y0425966D02*
X0233594Y0425966D01*
X0232658Y0421170D02*
X0054081Y0421170D01*
X0054081Y0419572D02*
X0207514Y0419572D01*
X0206625Y0417973D02*
X0054081Y0417973D01*
X0054081Y0416375D02*
X0106064Y0416375D01*
X0105771Y0416253D02*
X0104763Y0415246D01*
X0104218Y0413930D01*
X0104218Y0412505D01*
X0104763Y0411189D01*
X0105771Y0410181D01*
X0107087Y0409636D01*
X0108512Y0409636D01*
X0109828Y0410181D01*
X0110835Y0411189D01*
X0111380Y0412505D01*
X0111380Y0413930D01*
X0110835Y0415246D01*
X0109828Y0416253D01*
X0108512Y0416798D01*
X0107087Y0416798D01*
X0105771Y0416253D01*
X0104569Y0414776D02*
X0054081Y0414776D01*
X0054081Y0413178D02*
X0104218Y0413178D01*
X0104602Y0411579D02*
X0054081Y0411579D01*
X0054081Y0409981D02*
X0106255Y0409981D01*
X0109343Y0409981D02*
X0194999Y0409981D01*
X0194769Y0411579D02*
X0110997Y0411579D01*
X0111380Y0413178D02*
X0195273Y0413178D01*
X0197509Y0414776D02*
X0111030Y0414776D01*
X0109534Y0416375D02*
X0206608Y0416375D01*
X0207475Y0414776D02*
X0199192Y0414776D01*
X0201428Y0413178D02*
X0226394Y0413178D01*
X0227404Y0411579D02*
X0201931Y0411579D01*
X0199212Y0406784D02*
X0196623Y0406784D01*
X0196892Y0405185D02*
X0198943Y0405185D01*
X0199343Y0403587D02*
X0196492Y0403587D01*
X0195183Y0401988D02*
X0200651Y0401988D01*
X0202127Y0399318D02*
X0200666Y0398713D01*
X0199548Y0397595D01*
X0198943Y0396134D01*
X0198943Y0394553D01*
X0199548Y0393092D01*
X0200666Y0391974D01*
X0202127Y0391369D01*
X0203708Y0391369D01*
X0205169Y0391974D01*
X0206287Y0393092D01*
X0206892Y0394553D01*
X0206892Y0396134D01*
X0206287Y0397595D01*
X0205169Y0398713D01*
X0203708Y0399318D01*
X0202127Y0399318D01*
X0200855Y0398791D02*
X0194980Y0398791D01*
X0196454Y0397193D02*
X0199381Y0397193D01*
X0198943Y0395594D02*
X0196892Y0395594D01*
X0196661Y0393996D02*
X0199173Y0393996D01*
X0200242Y0392397D02*
X0195592Y0392397D01*
X0196280Y0387602D02*
X0199554Y0387602D01*
X0198943Y0386003D02*
X0196892Y0386003D01*
X0196831Y0384405D02*
X0199004Y0384405D01*
X0199833Y0382806D02*
X0196001Y0382806D01*
X0206001Y0382806D02*
X0284721Y0382806D01*
X0284905Y0382622D02*
X0286221Y0382077D01*
X0287645Y0382077D01*
X0288962Y0382622D01*
X0289969Y0383630D01*
X0290514Y0384946D01*
X0290514Y0386371D01*
X0289969Y0387687D01*
X0288962Y0388694D01*
X0287645Y0389239D01*
X0286221Y0389239D01*
X0284905Y0388694D01*
X0283897Y0387687D01*
X0283352Y0386371D01*
X0283352Y0384946D01*
X0283897Y0383630D01*
X0284905Y0382622D01*
X0283576Y0384405D02*
X0206831Y0384405D01*
X0206892Y0386003D02*
X0283352Y0386003D01*
X0283862Y0387602D02*
X0206280Y0387602D01*
X0205592Y0392397D02*
X0261722Y0392397D01*
X0261672Y0393996D02*
X0206661Y0393996D01*
X0206892Y0395594D02*
X0262074Y0395594D01*
X0263098Y0397193D02*
X0206454Y0397193D01*
X0204980Y0398791D02*
X0265724Y0398791D01*
X0268221Y0398791D02*
X0444099Y0398791D01*
X0444097Y0397193D02*
X0270847Y0397193D01*
X0271871Y0395594D02*
X0444094Y0395594D01*
X0444091Y0393996D02*
X0272272Y0393996D01*
X0272223Y0392397D02*
X0444088Y0392397D01*
X0444085Y0390799D02*
X0271560Y0390799D01*
X0270096Y0389200D02*
X0286126Y0389200D01*
X0287740Y0389200D02*
X0444082Y0389200D01*
X0444079Y0387602D02*
X0290004Y0387602D01*
X0290514Y0386003D02*
X0444076Y0386003D01*
X0444074Y0384405D02*
X0382373Y0384405D01*
X0383286Y0382806D02*
X0444071Y0382806D01*
X0444068Y0381208D02*
X0383410Y0381208D01*
X0382869Y0379609D02*
X0444065Y0379609D01*
X0444033Y0362025D02*
X0380411Y0362025D01*
X0380206Y0362110D02*
X0378615Y0362110D01*
X0377144Y0361501D01*
X0376019Y0360376D01*
X0375410Y0358906D01*
X0375410Y0357315D01*
X0376019Y0355844D01*
X0377144Y0354719D01*
X0378615Y0354110D01*
X0380206Y0354110D01*
X0381676Y0354719D01*
X0382801Y0355844D01*
X0383410Y0357315D01*
X0383410Y0358906D01*
X0382801Y0360376D01*
X0381676Y0361501D01*
X0380206Y0362110D01*
X0378410Y0362025D02*
X0362247Y0362025D01*
X0363793Y0360427D02*
X0376070Y0360427D01*
X0375410Y0358828D02*
X0364354Y0358828D01*
X0364328Y0357230D02*
X0375445Y0357230D01*
X0376232Y0355631D02*
X0363695Y0355631D01*
X0361940Y0354033D02*
X0444019Y0354033D01*
X0444022Y0355631D02*
X0382588Y0355631D01*
X0383375Y0357230D02*
X0444025Y0357230D01*
X0444027Y0358828D02*
X0383410Y0358828D01*
X0382750Y0360427D02*
X0444030Y0360427D01*
X0444016Y0352434D02*
X0256324Y0352434D01*
X0256504Y0352254D02*
X0255497Y0353261D01*
X0254181Y0353806D01*
X0252756Y0353806D01*
X0251440Y0353261D01*
X0250433Y0352254D01*
X0249887Y0350938D01*
X0249887Y0349513D01*
X0250433Y0348197D01*
X0251440Y0347189D01*
X0252756Y0346644D01*
X0254181Y0346644D01*
X0255497Y0347189D01*
X0256504Y0348197D01*
X0257050Y0349513D01*
X0257050Y0350938D01*
X0256504Y0352254D01*
X0257050Y0350836D02*
X0444013Y0350836D01*
X0444010Y0349237D02*
X0256935Y0349237D01*
X0255947Y0347639D02*
X0444007Y0347639D01*
X0444004Y0346040D02*
X0197261Y0346040D01*
X0197449Y0346228D02*
X0197994Y0347544D01*
X0197994Y0348969D01*
X0197449Y0350285D01*
X0196442Y0351293D01*
X0195126Y0351838D01*
X0193701Y0351838D01*
X0192385Y0351293D01*
X0191377Y0350285D01*
X0190832Y0348969D01*
X0190832Y0347544D01*
X0191377Y0346228D01*
X0192385Y0345221D01*
X0193701Y0344676D01*
X0195126Y0344676D01*
X0196442Y0345221D01*
X0197449Y0346228D01*
X0197994Y0347639D02*
X0250990Y0347639D01*
X0250002Y0349237D02*
X0197883Y0349237D01*
X0196899Y0350836D02*
X0249887Y0350836D01*
X0250613Y0352434D02*
X0166220Y0352434D01*
X0165875Y0353267D02*
X0164384Y0354758D01*
X0162436Y0355565D01*
X0160328Y0355565D01*
X0158380Y0354758D01*
X0156889Y0353267D01*
X0156082Y0351319D01*
X0156082Y0349210D01*
X0156889Y0347262D01*
X0158380Y0345771D01*
X0160328Y0344965D01*
X0162436Y0344965D01*
X0164384Y0345771D01*
X0165875Y0347262D01*
X0166682Y0349210D01*
X0166682Y0351319D01*
X0165875Y0353267D01*
X0165109Y0354033D02*
X0209163Y0354033D01*
X0208549Y0355631D02*
X0054081Y0355631D01*
X0054081Y0354033D02*
X0157655Y0354033D01*
X0156544Y0352434D02*
X0054081Y0352434D01*
X0054081Y0350836D02*
X0156082Y0350836D01*
X0156082Y0349237D02*
X0054081Y0349237D01*
X0054081Y0347639D02*
X0156733Y0347639D01*
X0158111Y0346040D02*
X0054081Y0346040D01*
X0054081Y0344442D02*
X0444002Y0344442D01*
X0443999Y0342843D02*
X0265915Y0342843D01*
X0266347Y0342411D02*
X0265340Y0343419D01*
X0264023Y0343964D01*
X0262599Y0343964D01*
X0261282Y0343419D01*
X0260275Y0342411D01*
X0259730Y0341095D01*
X0259730Y0339670D01*
X0260275Y0338354D01*
X0261282Y0337347D01*
X0262599Y0336802D01*
X0264023Y0336802D01*
X0265340Y0337347D01*
X0266347Y0338354D01*
X0266892Y0339670D01*
X0266892Y0341095D01*
X0266347Y0342411D01*
X0266830Y0341245D02*
X0337849Y0341245D01*
X0338054Y0341450D02*
X0337047Y0340443D01*
X0336502Y0339127D01*
X0336502Y0337702D01*
X0337047Y0336386D01*
X0338054Y0335378D01*
X0339370Y0334833D01*
X0340795Y0334833D01*
X0342111Y0335378D01*
X0343119Y0336386D01*
X0343664Y0337702D01*
X0343664Y0339127D01*
X0343119Y0340443D01*
X0342111Y0341450D01*
X0340795Y0341995D01*
X0339370Y0341995D01*
X0338054Y0341450D01*
X0336717Y0339646D02*
X0266882Y0339646D01*
X0266041Y0338048D02*
X0336502Y0338048D01*
X0337020Y0336449D02*
X0054081Y0336449D01*
X0054081Y0334851D02*
X0089221Y0334851D01*
X0089758Y0335388D02*
X0088267Y0333897D01*
X0087460Y0331949D01*
X0087460Y0329840D01*
X0088267Y0327892D01*
X0089758Y0326401D01*
X0091706Y0325594D01*
X0093814Y0325594D01*
X0095762Y0326401D01*
X0097253Y0327892D01*
X0098060Y0329840D01*
X0098060Y0331949D01*
X0097253Y0333897D01*
X0095762Y0335388D01*
X0093814Y0336194D01*
X0091706Y0336194D01*
X0089758Y0335388D01*
X0089370Y0336802D02*
X0090795Y0336802D01*
X0092111Y0337347D01*
X0093119Y0338354D01*
X0093664Y0339670D01*
X0093664Y0341095D01*
X0093119Y0342411D01*
X0092111Y0343419D01*
X0090795Y0343964D01*
X0089370Y0343964D01*
X0088054Y0343419D01*
X0087047Y0342411D01*
X0086502Y0341095D01*
X0086502Y0339670D01*
X0087047Y0338354D01*
X0088054Y0337347D01*
X0089370Y0336802D01*
X0087353Y0338048D02*
X0054081Y0338048D01*
X0054081Y0339646D02*
X0086512Y0339646D01*
X0086564Y0341245D02*
X0054081Y0341245D01*
X0054081Y0342843D02*
X0087479Y0342843D01*
X0092686Y0342843D02*
X0260707Y0342843D01*
X0259792Y0341245D02*
X0093602Y0341245D01*
X0093654Y0339646D02*
X0259740Y0339646D01*
X0260581Y0338048D02*
X0092812Y0338048D01*
X0096299Y0334851D02*
X0158226Y0334851D01*
X0157913Y0334537D02*
X0157368Y0333221D01*
X0157368Y0331796D01*
X0157913Y0330480D01*
X0158920Y0329473D01*
X0160236Y0328928D01*
X0161661Y0328928D01*
X0162977Y0329473D01*
X0163985Y0330480D01*
X0164530Y0331796D01*
X0164530Y0333221D01*
X0163985Y0334537D01*
X0162977Y0335545D01*
X0161661Y0336090D01*
X0160236Y0336090D01*
X0158920Y0335545D01*
X0157913Y0334537D01*
X0157381Y0333252D02*
X0097520Y0333252D01*
X0098060Y0331654D02*
X0157427Y0331654D01*
X0158338Y0330055D02*
X0098060Y0330055D01*
X0097487Y0328457D02*
X0155682Y0328457D01*
X0156412Y0328759D02*
X0154795Y0328089D01*
X0153557Y0326851D01*
X0152887Y0325234D01*
X0152887Y0323484D01*
X0153557Y0321867D01*
X0154795Y0320629D01*
X0156412Y0319959D01*
X0158163Y0319959D01*
X0159780Y0320629D01*
X0161018Y0321867D01*
X0161687Y0323484D01*
X0161687Y0325234D01*
X0161018Y0326851D01*
X0159780Y0328089D01*
X0158163Y0328759D01*
X0156412Y0328759D01*
X0158893Y0328457D02*
X0443973Y0328457D01*
X0443976Y0330055D02*
X0413560Y0330055D01*
X0413985Y0330480D02*
X0414530Y0331796D01*
X0414530Y0333221D01*
X0413985Y0334537D01*
X0412977Y0335545D01*
X0411661Y0336090D01*
X0410236Y0336090D01*
X0408920Y0335545D01*
X0407913Y0334537D01*
X0407368Y0333221D01*
X0407368Y0331796D01*
X0407913Y0330480D01*
X0408920Y0329473D01*
X0410236Y0328928D01*
X0411661Y0328928D01*
X0412977Y0329473D01*
X0413985Y0330480D01*
X0414471Y0331654D02*
X0443978Y0331654D01*
X0443981Y0333252D02*
X0414517Y0333252D01*
X0413671Y0334851D02*
X0443984Y0334851D01*
X0443987Y0336449D02*
X0343145Y0336449D01*
X0343664Y0338048D02*
X0443990Y0338048D01*
X0443993Y0339646D02*
X0343448Y0339646D01*
X0342316Y0341245D02*
X0443996Y0341245D01*
X0443970Y0326858D02*
X0161011Y0326858D01*
X0161677Y0325260D02*
X0443967Y0325260D01*
X0443964Y0323661D02*
X0161687Y0323661D01*
X0161099Y0322063D02*
X0216725Y0322063D01*
X0217323Y0322310D02*
X0216007Y0321765D01*
X0215000Y0320758D01*
X0214454Y0319441D01*
X0214454Y0318017D01*
X0215000Y0316701D01*
X0216007Y0315693D01*
X0217323Y0315148D01*
X0218748Y0315148D01*
X0220064Y0315693D01*
X0221071Y0316701D01*
X0221617Y0318017D01*
X0221617Y0319441D01*
X0221071Y0320758D01*
X0220064Y0321765D01*
X0218748Y0322310D01*
X0217323Y0322310D01*
X0219345Y0322063D02*
X0443961Y0322063D01*
X0443958Y0320464D02*
X0435627Y0320464D01*
X0436163Y0320242D02*
X0434619Y0320882D01*
X0432948Y0320882D01*
X0431404Y0320242D01*
X0430223Y0319061D01*
X0429583Y0317517D01*
X0429583Y0315846D01*
X0430223Y0314303D01*
X0431404Y0313121D01*
X0432948Y0312482D01*
X0434619Y0312482D01*
X0436163Y0313121D01*
X0437344Y0314303D01*
X0437983Y0315846D01*
X0437983Y0317517D01*
X0437344Y0319061D01*
X0436163Y0320242D01*
X0437425Y0318866D02*
X0443955Y0318866D01*
X0443953Y0317267D02*
X0437983Y0317267D01*
X0437910Y0315669D02*
X0443950Y0315669D01*
X0443947Y0314070D02*
X0437111Y0314070D01*
X0436163Y0310242D02*
X0434619Y0310882D01*
X0432948Y0310882D01*
X0431404Y0310242D01*
X0430223Y0309061D01*
X0429583Y0307517D01*
X0429583Y0305846D01*
X0430223Y0304303D01*
X0431404Y0303121D01*
X0432948Y0302482D01*
X0434619Y0302482D01*
X0436163Y0303121D01*
X0437344Y0304303D01*
X0437983Y0305846D01*
X0437983Y0307517D01*
X0437344Y0309061D01*
X0436163Y0310242D01*
X0437130Y0309275D02*
X0443938Y0309275D01*
X0443941Y0310873D02*
X0434640Y0310873D01*
X0432927Y0310873D02*
X0366773Y0310873D01*
X0366741Y0310795D02*
X0367286Y0312111D01*
X0367286Y0313536D01*
X0366741Y0314852D01*
X0365733Y0315860D01*
X0364417Y0316405D01*
X0362992Y0316405D01*
X0361676Y0315860D01*
X0361038Y0315221D01*
X0361380Y0316048D01*
X0361380Y0317473D01*
X0360835Y0318789D01*
X0359828Y0319797D01*
X0358512Y0320342D01*
X0357087Y0320342D01*
X0355771Y0319797D01*
X0354763Y0318789D01*
X0354218Y0317473D01*
X0354218Y0316048D01*
X0354763Y0314732D01*
X0355771Y0313725D01*
X0357087Y0313180D01*
X0358512Y0313180D01*
X0359828Y0313725D01*
X0360466Y0314363D01*
X0360124Y0313536D01*
X0360124Y0312111D01*
X0360669Y0310795D01*
X0361676Y0309788D01*
X0362992Y0309243D01*
X0364417Y0309243D01*
X0365733Y0309788D01*
X0366741Y0310795D01*
X0367286Y0312472D02*
X0443944Y0312472D01*
X0443935Y0307676D02*
X0437918Y0307676D01*
X0437983Y0306078D02*
X0443932Y0306078D01*
X0443929Y0304479D02*
X0437417Y0304479D01*
X0435581Y0302881D02*
X0443927Y0302881D01*
X0443924Y0301282D02*
X0369254Y0301282D01*
X0369254Y0301725D02*
X0368709Y0303041D01*
X0367702Y0304048D01*
X0366386Y0304594D01*
X0364961Y0304594D01*
X0363645Y0304048D01*
X0362637Y0303041D01*
X0362092Y0301725D01*
X0362092Y0300300D01*
X0362637Y0298984D01*
X0363645Y0297977D01*
X0364961Y0297431D01*
X0366386Y0297431D01*
X0367702Y0297977D01*
X0368709Y0298984D01*
X0369254Y0300300D01*
X0369254Y0301725D01*
X0368776Y0302881D02*
X0392205Y0302881D01*
X0392165Y0302921D02*
X0393172Y0301914D01*
X0394488Y0301369D01*
X0395913Y0301369D01*
X0397229Y0301914D01*
X0398237Y0302921D01*
X0398782Y0304237D01*
X0398782Y0305662D01*
X0398237Y0306978D01*
X0397229Y0307986D01*
X0395913Y0308531D01*
X0394488Y0308531D01*
X0393172Y0307986D01*
X0392165Y0306978D01*
X0391620Y0305662D01*
X0391620Y0304237D01*
X0392165Y0302921D01*
X0391620Y0304479D02*
X0366662Y0304479D01*
X0364684Y0304479D02*
X0283653Y0304479D01*
X0284063Y0304890D02*
X0283056Y0303882D01*
X0281740Y0303337D01*
X0280315Y0303337D01*
X0278999Y0303882D01*
X0277992Y0304890D01*
X0277446Y0306206D01*
X0277446Y0307630D01*
X0277992Y0308947D01*
X0278999Y0309954D01*
X0280315Y0310499D01*
X0281740Y0310499D01*
X0283056Y0309954D01*
X0284063Y0308947D01*
X0284609Y0307630D01*
X0284609Y0306206D01*
X0284063Y0304890D01*
X0284556Y0306078D02*
X0391792Y0306078D01*
X0392863Y0307676D02*
X0318144Y0307676D01*
X0318489Y0307819D02*
X0319497Y0308827D01*
X0320042Y0310143D01*
X0320042Y0311567D01*
X0319497Y0312884D01*
X0318489Y0313891D01*
X0317173Y0314436D01*
X0315748Y0314436D01*
X0314432Y0313891D01*
X0313425Y0312884D01*
X0312880Y0311567D01*
X0312880Y0310143D01*
X0313425Y0308827D01*
X0314432Y0307819D01*
X0315748Y0307274D01*
X0317173Y0307274D01*
X0318489Y0307819D01*
X0319682Y0309275D02*
X0362915Y0309275D01*
X0364494Y0309275D02*
X0430436Y0309275D01*
X0429649Y0307676D02*
X0397539Y0307676D01*
X0398610Y0306078D02*
X0429583Y0306078D01*
X0430150Y0304479D02*
X0398782Y0304479D01*
X0398196Y0302881D02*
X0431986Y0302881D01*
X0430456Y0314070D02*
X0367065Y0314070D01*
X0365924Y0315669D02*
X0429657Y0315669D01*
X0429583Y0317267D02*
X0361380Y0317267D01*
X0361485Y0315669D02*
X0361223Y0315669D01*
X0360345Y0314070D02*
X0360173Y0314070D01*
X0360124Y0312472D02*
X0319667Y0312472D01*
X0320042Y0310873D02*
X0360637Y0310873D01*
X0355425Y0314070D02*
X0318057Y0314070D01*
X0314864Y0314070D02*
X0300099Y0314070D01*
X0300304Y0314565D02*
X0299497Y0312617D01*
X0298006Y0311126D01*
X0296058Y0310319D01*
X0293950Y0310319D01*
X0292002Y0311126D01*
X0290511Y0312617D01*
X0289704Y0314565D01*
X0289704Y0316673D01*
X0290511Y0318621D01*
X0292002Y0320112D01*
X0293950Y0320919D01*
X0296058Y0320919D01*
X0298006Y0320112D01*
X0299497Y0318621D01*
X0300304Y0316673D01*
X0300304Y0314565D01*
X0300304Y0315669D02*
X0354375Y0315669D01*
X0354218Y0317267D02*
X0300058Y0317267D01*
X0299253Y0318866D02*
X0354840Y0318866D01*
X0360759Y0318866D02*
X0430142Y0318866D01*
X0431940Y0320464D02*
X0297156Y0320464D01*
X0292852Y0320464D02*
X0221193Y0320464D01*
X0221617Y0318866D02*
X0290755Y0318866D01*
X0289950Y0317267D02*
X0221306Y0317267D01*
X0220005Y0315669D02*
X0289704Y0315669D01*
X0289909Y0314070D02*
X0173165Y0314070D01*
X0172820Y0313725D02*
X0173827Y0314732D01*
X0174372Y0316048D01*
X0174372Y0317473D01*
X0173827Y0318789D01*
X0172820Y0319797D01*
X0171504Y0320342D01*
X0170079Y0320342D01*
X0168763Y0319797D01*
X0167755Y0318789D01*
X0167210Y0317473D01*
X0167210Y0316048D01*
X0167755Y0314732D01*
X0168763Y0313725D01*
X0170079Y0313180D01*
X0171504Y0313180D01*
X0172820Y0313725D01*
X0174215Y0315669D02*
X0216066Y0315669D01*
X0214765Y0317267D02*
X0174372Y0317267D01*
X0173751Y0318866D02*
X0214454Y0318866D01*
X0214878Y0320464D02*
X0159382Y0320464D01*
X0155193Y0320464D02*
X0065681Y0320464D01*
X0065560Y0320758D02*
X0064552Y0321765D01*
X0063236Y0322310D01*
X0061811Y0322310D01*
X0060495Y0321765D01*
X0059488Y0320758D01*
X0058943Y0319441D01*
X0058943Y0318017D01*
X0059488Y0316701D01*
X0060495Y0315693D01*
X0061811Y0315148D01*
X0063236Y0315148D01*
X0064552Y0315693D01*
X0065560Y0316701D01*
X0066105Y0318017D01*
X0066105Y0319441D01*
X0065560Y0320758D01*
X0066105Y0318866D02*
X0124220Y0318866D01*
X0124364Y0319010D02*
X0122873Y0317519D01*
X0122066Y0315571D01*
X0122066Y0313462D01*
X0122873Y0311514D01*
X0124364Y0310023D01*
X0126312Y0309217D01*
X0128420Y0309217D01*
X0130368Y0310023D01*
X0131859Y0311514D01*
X0132666Y0313462D01*
X0132666Y0315571D01*
X0131859Y0317519D01*
X0130368Y0319010D01*
X0128420Y0319817D01*
X0126312Y0319817D01*
X0124364Y0319010D01*
X0122769Y0317267D02*
X0101916Y0317267D01*
X0101622Y0317389D02*
X0100197Y0317389D01*
X0098881Y0316844D01*
X0097874Y0315836D01*
X0097328Y0314520D01*
X0097328Y0313096D01*
X0097874Y0311779D01*
X0098881Y0310772D01*
X0100197Y0310227D01*
X0101622Y0310227D01*
X0102938Y0310772D01*
X0103945Y0311779D01*
X0104491Y0313096D01*
X0104491Y0314520D01*
X0103945Y0315836D01*
X0102938Y0316844D01*
X0101622Y0317389D01*
X0099903Y0317267D02*
X0065794Y0317267D01*
X0064493Y0315669D02*
X0097804Y0315669D01*
X0097328Y0314070D02*
X0054081Y0314070D01*
X0054081Y0312472D02*
X0097587Y0312472D01*
X0098780Y0310873D02*
X0054081Y0310873D01*
X0054081Y0309275D02*
X0126172Y0309275D01*
X0128560Y0309275D02*
X0278320Y0309275D01*
X0277465Y0307676D02*
X0054081Y0307676D01*
X0054081Y0306078D02*
X0277500Y0306078D01*
X0278402Y0304479D02*
X0187529Y0304479D01*
X0187252Y0304594D02*
X0185827Y0304594D01*
X0184511Y0304048D01*
X0183503Y0303041D01*
X0182958Y0301725D01*
X0182958Y0300300D01*
X0183503Y0298984D01*
X0184511Y0297977D01*
X0185827Y0297431D01*
X0187252Y0297431D01*
X0188568Y0297977D01*
X0189575Y0298984D01*
X0190120Y0300300D01*
X0190120Y0301725D01*
X0189575Y0303041D01*
X0188568Y0304048D01*
X0187252Y0304594D01*
X0185550Y0304479D02*
X0054081Y0304479D01*
X0054081Y0302881D02*
X0183437Y0302881D01*
X0182958Y0301282D02*
X0108657Y0301282D01*
X0108867Y0301073D02*
X0107859Y0302080D01*
X0106543Y0302625D01*
X0105118Y0302625D01*
X0103802Y0302080D01*
X0102795Y0301073D01*
X0102250Y0299756D01*
X0102250Y0298332D01*
X0102795Y0297016D01*
X0103802Y0296008D01*
X0105118Y0295463D01*
X0106543Y0295463D01*
X0107859Y0296008D01*
X0108867Y0297016D01*
X0109412Y0298332D01*
X0109412Y0299756D01*
X0108867Y0301073D01*
X0109412Y0299683D02*
X0183214Y0299683D01*
X0184403Y0298085D02*
X0115791Y0298085D01*
X0115733Y0298143D02*
X0114417Y0298688D01*
X0112992Y0298688D01*
X0111676Y0298143D01*
X0110669Y0297136D01*
X0110124Y0295819D01*
X0110124Y0294395D01*
X0110669Y0293079D01*
X0111676Y0292071D01*
X0112992Y0291526D01*
X0114417Y0291526D01*
X0115733Y0292071D01*
X0116741Y0293079D01*
X0117286Y0294395D01*
X0117286Y0295819D01*
X0116741Y0297136D01*
X0115733Y0298143D01*
X0117010Y0296486D02*
X0227340Y0296486D01*
X0227818Y0296008D02*
X0229134Y0295463D01*
X0230559Y0295463D01*
X0231875Y0296008D01*
X0232882Y0297016D01*
X0233428Y0298332D01*
X0233428Y0299756D01*
X0232882Y0301073D01*
X0231875Y0302080D01*
X0230559Y0302625D01*
X0229134Y0302625D01*
X0227818Y0302080D01*
X0226811Y0301073D01*
X0226265Y0299756D01*
X0226265Y0298332D01*
X0226811Y0297016D01*
X0227818Y0296008D01*
X0226368Y0298085D02*
X0188676Y0298085D01*
X0189865Y0299683D02*
X0226265Y0299683D01*
X0227020Y0301282D02*
X0190120Y0301282D01*
X0189642Y0302881D02*
X0362571Y0302881D01*
X0362092Y0301282D02*
X0232673Y0301282D01*
X0233428Y0299683D02*
X0292265Y0299683D01*
X0292159Y0299640D02*
X0290668Y0298149D01*
X0289861Y0296201D01*
X0289861Y0294092D01*
X0290668Y0292144D01*
X0292159Y0290653D01*
X0294107Y0289846D01*
X0296216Y0289846D01*
X0298164Y0290653D01*
X0299655Y0292144D01*
X0300461Y0294092D01*
X0300461Y0296201D01*
X0299655Y0298149D01*
X0298164Y0299640D01*
X0296216Y0300446D01*
X0294107Y0300446D01*
X0292159Y0299640D01*
X0290642Y0298085D02*
X0233325Y0298085D01*
X0232353Y0296486D02*
X0289980Y0296486D01*
X0289861Y0294888D02*
X0117286Y0294888D01*
X0116828Y0293289D02*
X0290194Y0293289D01*
X0291122Y0291691D02*
X0114815Y0291691D01*
X0112594Y0291691D02*
X0086752Y0291691D01*
X0087213Y0291230D02*
X0086206Y0292237D01*
X0084889Y0292783D01*
X0083465Y0292783D01*
X0082149Y0292237D01*
X0081141Y0291230D01*
X0080596Y0289914D01*
X0080596Y0288489D01*
X0081141Y0287173D01*
X0082149Y0286166D01*
X0083465Y0285620D01*
X0084889Y0285620D01*
X0086206Y0286166D01*
X0087213Y0287173D01*
X0087758Y0288489D01*
X0087758Y0289914D01*
X0087213Y0291230D01*
X0087684Y0290092D02*
X0293513Y0290092D01*
X0296809Y0290092D02*
X0381185Y0290092D01*
X0381361Y0290269D02*
X0380354Y0289262D01*
X0379809Y0287945D01*
X0379809Y0286521D01*
X0380354Y0285205D01*
X0381361Y0284197D01*
X0382677Y0283652D01*
X0384102Y0283652D01*
X0385418Y0284197D01*
X0386426Y0285205D01*
X0386971Y0286521D01*
X0386971Y0287945D01*
X0386426Y0289262D01*
X0385418Y0290269D01*
X0384102Y0290814D01*
X0382677Y0290814D01*
X0381361Y0290269D01*
X0380036Y0288494D02*
X0211203Y0288494D01*
X0210861Y0288635D02*
X0208753Y0288635D01*
X0206805Y0287829D01*
X0205314Y0286338D01*
X0204507Y0284390D01*
X0204507Y0282281D01*
X0205314Y0280333D01*
X0206805Y0278842D01*
X0208753Y0278035D01*
X0210861Y0278035D01*
X0212809Y0278842D01*
X0214300Y0280333D01*
X0215107Y0282281D01*
X0215107Y0284390D01*
X0214300Y0286338D01*
X0212809Y0287829D01*
X0210861Y0288635D01*
X0208411Y0288494D02*
X0168803Y0288494D01*
X0168163Y0288759D02*
X0166412Y0288759D01*
X0164795Y0288089D01*
X0163557Y0286851D01*
X0162887Y0285234D01*
X0162887Y0283484D01*
X0163557Y0281867D01*
X0164795Y0280629D01*
X0166412Y0279959D01*
X0168163Y0279959D01*
X0169780Y0280629D01*
X0171018Y0281867D01*
X0171687Y0283484D01*
X0171687Y0285234D01*
X0171018Y0286851D01*
X0169780Y0288089D01*
X0168163Y0288759D01*
X0165772Y0288494D02*
X0148803Y0288494D01*
X0148163Y0288759D02*
X0146412Y0288759D01*
X0144795Y0288089D01*
X0143557Y0286851D01*
X0142887Y0285234D01*
X0142887Y0283484D01*
X0143557Y0281867D01*
X0144795Y0280629D01*
X0146412Y0279959D01*
X0148163Y0279959D01*
X0149780Y0280629D01*
X0151018Y0281867D01*
X0151687Y0283484D01*
X0151687Y0285234D01*
X0151018Y0286851D01*
X0149780Y0288089D01*
X0148163Y0288759D01*
X0145772Y0288494D02*
X0087758Y0288494D01*
X0086935Y0286895D02*
X0143601Y0286895D01*
X0142913Y0285297D02*
X0054081Y0285297D01*
X0054081Y0286895D02*
X0081419Y0286895D01*
X0080596Y0288494D02*
X0054081Y0288494D01*
X0054081Y0290092D02*
X0080670Y0290092D01*
X0081602Y0291691D02*
X0054081Y0291691D01*
X0054081Y0293289D02*
X0110581Y0293289D01*
X0110124Y0294888D02*
X0054081Y0294888D01*
X0054081Y0296486D02*
X0103324Y0296486D01*
X0102352Y0298085D02*
X0054081Y0298085D01*
X0054081Y0299683D02*
X0102250Y0299683D01*
X0103004Y0301282D02*
X0054081Y0301282D01*
X0054081Y0315669D02*
X0060555Y0315669D01*
X0059253Y0317267D02*
X0054081Y0317267D01*
X0054081Y0318866D02*
X0058943Y0318866D01*
X0059366Y0320464D02*
X0054081Y0320464D01*
X0054081Y0322063D02*
X0061214Y0322063D01*
X0063834Y0322063D02*
X0153476Y0322063D01*
X0152887Y0323661D02*
X0054081Y0323661D01*
X0054081Y0325260D02*
X0152898Y0325260D01*
X0153564Y0326858D02*
X0096219Y0326858D01*
X0089301Y0326858D02*
X0054081Y0326858D01*
X0054081Y0328457D02*
X0088033Y0328457D01*
X0087460Y0330055D02*
X0054081Y0330055D01*
X0054081Y0331654D02*
X0087460Y0331654D01*
X0088000Y0333252D02*
X0054081Y0333252D01*
X0054081Y0357230D02*
X0208709Y0357230D01*
X0209763Y0358828D02*
X0054081Y0358828D01*
X0054081Y0387602D02*
X0174020Y0387602D01*
X0172917Y0389200D02*
X0054081Y0389200D01*
X0054081Y0390799D02*
X0172722Y0390799D01*
X0173261Y0392397D02*
X0054081Y0392397D01*
X0054081Y0422769D02*
X0054871Y0422769D01*
X0054535Y0427564D02*
X0054081Y0427564D01*
X0054081Y0432360D02*
X0444160Y0432360D01*
X0444163Y0433958D02*
X0054081Y0433958D01*
X0054081Y0435557D02*
X0066948Y0435557D01*
X0067808Y0435201D02*
X0069916Y0435201D01*
X0071864Y0436008D01*
X0073355Y0437499D01*
X0074162Y0439447D01*
X0074162Y0441555D01*
X0073355Y0443503D01*
X0071864Y0444994D01*
X0069916Y0445801D01*
X0067808Y0445801D01*
X0065860Y0444994D01*
X0064369Y0443503D01*
X0063562Y0441555D01*
X0063562Y0439447D01*
X0064369Y0437499D01*
X0065860Y0436008D01*
X0067808Y0435201D01*
X0070776Y0435557D02*
X0356545Y0435557D01*
X0356302Y0435800D02*
X0356814Y0435288D01*
X0357399Y0434863D01*
X0358044Y0434534D01*
X0358733Y0434310D01*
X0359448Y0434197D01*
X0359810Y0434197D01*
X0359810Y0438797D01*
X0359810Y0438797D01*
X0355210Y0438797D01*
X0355210Y0439159D01*
X0355323Y0439874D01*
X0355547Y0440563D01*
X0355876Y0441208D01*
X0356302Y0441794D01*
X0356814Y0442306D01*
X0357399Y0442731D01*
X0358044Y0443060D01*
X0358733Y0443284D01*
X0359448Y0443397D01*
X0359810Y0443397D01*
X0359810Y0438797D01*
X0359810Y0438797D01*
X0355210Y0438797D01*
X0355210Y0438435D01*
X0355323Y0437720D01*
X0355547Y0437031D01*
X0355876Y0436386D01*
X0356302Y0435800D01*
X0355507Y0437155D02*
X0073012Y0437155D01*
X0073875Y0438754D02*
X0259767Y0438754D01*
X0259915Y0438606D02*
X0261863Y0437799D01*
X0263972Y0437799D01*
X0265920Y0438606D01*
X0267410Y0440097D01*
X0268217Y0442045D01*
X0268217Y0444153D01*
X0267410Y0446101D01*
X0265920Y0447592D01*
X0263972Y0448399D01*
X0261863Y0448399D01*
X0259915Y0447592D01*
X0258424Y0446101D01*
X0257617Y0444153D01*
X0257617Y0442045D01*
X0258424Y0440097D01*
X0259915Y0438606D01*
X0258318Y0440352D02*
X0074162Y0440352D01*
X0073998Y0441951D02*
X0257656Y0441951D01*
X0257617Y0443550D02*
X0073309Y0443550D01*
X0071492Y0445148D02*
X0209259Y0445148D01*
X0209449Y0445069D02*
X0210874Y0445069D01*
X0212190Y0445614D01*
X0213197Y0446622D01*
X0213743Y0447938D01*
X0213743Y0449363D01*
X0213197Y0450679D01*
X0212190Y0451686D01*
X0210874Y0452231D01*
X0209449Y0452231D01*
X0208133Y0451686D01*
X0207126Y0450679D01*
X0206580Y0449363D01*
X0206580Y0447938D01*
X0207126Y0446622D01*
X0208133Y0445614D01*
X0209449Y0445069D01*
X0211064Y0445148D02*
X0258029Y0445148D01*
X0259069Y0446747D02*
X0213249Y0446747D01*
X0213743Y0448345D02*
X0261732Y0448345D01*
X0264102Y0448345D02*
X0281437Y0448345D01*
X0281046Y0448145D02*
X0280294Y0447599D01*
X0279638Y0446943D01*
X0279092Y0446191D01*
X0278670Y0445364D01*
X0278383Y0444481D01*
X0278243Y0443599D01*
X0283638Y0443599D01*
X0283638Y0442599D01*
X0284638Y0442599D01*
X0284638Y0443599D01*
X0290032Y0443599D01*
X0289893Y0444481D01*
X0289606Y0445364D01*
X0289184Y0446191D01*
X0288638Y0446943D01*
X0287981Y0447599D01*
X0287230Y0448145D01*
X0286403Y0448567D01*
X0285519Y0448854D01*
X0284638Y0448994D01*
X0284638Y0443599D01*
X0283638Y0443599D01*
X0283638Y0448994D01*
X0282756Y0448854D01*
X0281873Y0448567D01*
X0281046Y0448145D01*
X0279495Y0446747D02*
X0266765Y0446747D01*
X0267805Y0445148D02*
X0278600Y0445148D01*
X0278243Y0442599D02*
X0278383Y0441718D01*
X0278670Y0440834D01*
X0279092Y0440007D01*
X0279638Y0439256D01*
X0280294Y0438599D01*
X0281046Y0438053D01*
X0281873Y0437631D01*
X0282756Y0437344D01*
X0283638Y0437205D01*
X0283638Y0442599D01*
X0278243Y0442599D01*
X0278346Y0441951D02*
X0268178Y0441951D01*
X0268217Y0443550D02*
X0283638Y0443550D01*
X0284638Y0443550D02*
X0299389Y0443550D01*
X0299389Y0444153D02*
X0299389Y0442045D01*
X0300196Y0440097D01*
X0301687Y0438606D01*
X0303635Y0437799D01*
X0305743Y0437799D01*
X0307691Y0438606D01*
X0309182Y0440097D01*
X0309989Y0442045D01*
X0309989Y0444153D01*
X0309182Y0446101D01*
X0307691Y0447592D01*
X0305743Y0448399D01*
X0303635Y0448399D01*
X0301687Y0447592D01*
X0300196Y0446101D01*
X0299389Y0444153D01*
X0299801Y0445148D02*
X0289676Y0445148D01*
X0288781Y0446747D02*
X0300841Y0446747D01*
X0303504Y0448345D02*
X0286838Y0448345D01*
X0284638Y0448345D02*
X0283638Y0448345D01*
X0283638Y0446747D02*
X0284638Y0446747D01*
X0284638Y0445148D02*
X0283638Y0445148D01*
X0284638Y0442599D02*
X0290032Y0442599D01*
X0289893Y0441718D01*
X0289606Y0440834D01*
X0289184Y0440007D01*
X0288638Y0439256D01*
X0287981Y0438599D01*
X0287230Y0438053D01*
X0286403Y0437631D01*
X0285519Y0437344D01*
X0284638Y0437205D01*
X0284638Y0442599D01*
X0284638Y0441951D02*
X0283638Y0441951D01*
X0283638Y0440352D02*
X0284638Y0440352D01*
X0284638Y0438754D02*
X0283638Y0438754D01*
X0280139Y0438754D02*
X0266067Y0438754D01*
X0267516Y0440352D02*
X0278916Y0440352D01*
X0288136Y0438754D02*
X0301539Y0438754D01*
X0300090Y0440352D02*
X0289360Y0440352D01*
X0289929Y0441951D02*
X0299428Y0441951D01*
X0307839Y0438754D02*
X0355210Y0438754D01*
X0355479Y0440352D02*
X0309288Y0440352D01*
X0309950Y0441951D02*
X0356459Y0441951D01*
X0359810Y0441951D02*
X0359810Y0441951D01*
X0359810Y0443397D02*
X0359810Y0438797D01*
X0359810Y0438797D01*
X0364410Y0438797D01*
X0364410Y0439159D01*
X0364297Y0439874D01*
X0364073Y0440563D01*
X0363745Y0441208D01*
X0363319Y0441794D01*
X0362807Y0442306D01*
X0362221Y0442731D01*
X0361576Y0443060D01*
X0360887Y0443284D01*
X0360172Y0443397D01*
X0359810Y0443397D01*
X0359810Y0440352D02*
X0359810Y0440352D01*
X0359810Y0438797D02*
X0359810Y0438797D01*
X0359810Y0434197D01*
X0360172Y0434197D01*
X0360887Y0434310D01*
X0361576Y0434534D01*
X0362221Y0434863D01*
X0362807Y0435288D01*
X0363319Y0435800D01*
X0363745Y0436386D01*
X0364073Y0437031D01*
X0364297Y0437720D01*
X0364410Y0438435D01*
X0364410Y0438797D01*
X0359810Y0438797D01*
X0359810Y0438754D02*
X0359810Y0438754D01*
X0359810Y0437155D02*
X0359810Y0437155D01*
X0359810Y0435557D02*
X0359810Y0435557D01*
X0363076Y0435557D02*
X0376993Y0435557D01*
X0377144Y0435406D02*
X0378615Y0434797D01*
X0380206Y0434797D01*
X0381676Y0435406D01*
X0382801Y0436531D01*
X0383410Y0438001D01*
X0383410Y0439592D01*
X0382801Y0441063D01*
X0381676Y0442188D01*
X0380206Y0442797D01*
X0378615Y0442797D01*
X0377144Y0442188D01*
X0376019Y0441063D01*
X0375410Y0439592D01*
X0375410Y0438001D01*
X0376019Y0436531D01*
X0377144Y0435406D01*
X0375761Y0437155D02*
X0364114Y0437155D01*
X0364410Y0438754D02*
X0375410Y0438754D01*
X0375725Y0440352D02*
X0364141Y0440352D01*
X0363161Y0441951D02*
X0376908Y0441951D01*
X0381913Y0441951D02*
X0444177Y0441951D01*
X0444180Y0443550D02*
X0309989Y0443550D01*
X0309577Y0445148D02*
X0444183Y0445148D01*
X0444186Y0446747D02*
X0308537Y0446747D01*
X0305874Y0448345D02*
X0444189Y0448345D01*
X0444192Y0449944D02*
X0213502Y0449944D01*
X0212334Y0451542D02*
X0444195Y0451542D01*
X0444197Y0453141D02*
X0054081Y0453141D01*
X0054081Y0454739D02*
X0444200Y0454739D01*
X0444203Y0456338D02*
X0054081Y0456338D01*
X0054081Y0457936D02*
X0444206Y0457936D01*
X0444209Y0459535D02*
X0054081Y0459535D01*
X0054081Y0461133D02*
X0444212Y0461133D01*
X0444215Y0462732D02*
X0054081Y0462732D01*
X0054081Y0464330D02*
X0444218Y0464330D01*
X0444220Y0465929D02*
X0054081Y0465929D01*
X0054081Y0467527D02*
X0444223Y0467527D01*
X0444226Y0469126D02*
X0054081Y0469126D01*
X0054081Y0470724D02*
X0444229Y0470724D01*
X0444232Y0472323D02*
X0054081Y0472323D01*
X0054081Y0473921D02*
X0444235Y0473921D01*
X0444238Y0475520D02*
X0054081Y0475520D01*
X0054081Y0477118D02*
X0444241Y0477118D01*
X0444244Y0478717D02*
X0054081Y0478717D01*
X0054081Y0480315D02*
X0444246Y0480315D01*
X0444249Y0481914D02*
X0054081Y0481914D01*
X0054081Y0483512D02*
X0444252Y0483512D01*
X0444255Y0485111D02*
X0054081Y0485111D01*
X0054081Y0486709D02*
X0208723Y0486709D01*
X0208753Y0486697D02*
X0210861Y0486697D01*
X0212809Y0487504D01*
X0214300Y0488995D01*
X0215107Y0490943D01*
X0215107Y0493051D01*
X0214300Y0494999D01*
X0212809Y0496490D01*
X0210861Y0497297D01*
X0208753Y0497297D01*
X0206805Y0496490D01*
X0205314Y0494999D01*
X0204507Y0493051D01*
X0204507Y0490943D01*
X0205314Y0488995D01*
X0206805Y0487504D01*
X0208753Y0486697D01*
X0210891Y0486709D02*
X0444258Y0486709D01*
X0444261Y0488308D02*
X0213613Y0488308D01*
X0214678Y0489906D02*
X0321321Y0489906D01*
X0321299Y0489929D02*
X0322306Y0488922D01*
X0323622Y0488376D01*
X0325047Y0488376D01*
X0326363Y0488922D01*
X0327371Y0489929D01*
X0327916Y0491245D01*
X0327916Y0492670D01*
X0327371Y0493986D01*
X0326363Y0494993D01*
X0325047Y0495539D01*
X0323622Y0495539D01*
X0322306Y0494993D01*
X0321299Y0493986D01*
X0320754Y0492670D01*
X0320754Y0491245D01*
X0321299Y0489929D01*
X0320754Y0491505D02*
X0215107Y0491505D01*
X0215085Y0493103D02*
X0320933Y0493103D01*
X0322015Y0494702D02*
X0214423Y0494702D01*
X0212999Y0496300D02*
X0379809Y0496300D01*
X0379809Y0496607D02*
X0379809Y0495182D01*
X0380354Y0493866D01*
X0381361Y0492859D01*
X0382677Y0492313D01*
X0384102Y0492313D01*
X0385418Y0492859D01*
X0386426Y0493866D01*
X0386971Y0495182D01*
X0386971Y0496607D01*
X0386426Y0497923D01*
X0385418Y0498930D01*
X0384102Y0499476D01*
X0382677Y0499476D01*
X0381361Y0498930D01*
X0380354Y0497923D01*
X0379809Y0496607D01*
X0380344Y0497899D02*
X0087758Y0497899D01*
X0087758Y0498575D02*
X0087213Y0499892D01*
X0086206Y0500899D01*
X0084889Y0501444D01*
X0083465Y0501444D01*
X0082149Y0500899D01*
X0081141Y0499892D01*
X0080596Y0498575D01*
X0080596Y0497151D01*
X0081141Y0495834D01*
X0082149Y0494827D01*
X0083465Y0494282D01*
X0084889Y0494282D01*
X0086206Y0494827D01*
X0087213Y0495834D01*
X0087758Y0497151D01*
X0087758Y0498575D01*
X0087376Y0499497D02*
X0291977Y0499497D01*
X0292159Y0499315D02*
X0294107Y0498508D01*
X0296216Y0498508D01*
X0298164Y0499315D01*
X0299655Y0500806D01*
X0300461Y0502754D01*
X0300461Y0504862D01*
X0299655Y0506810D01*
X0298164Y0508301D01*
X0296216Y0509108D01*
X0294107Y0509108D01*
X0292159Y0508301D01*
X0290668Y0506810D01*
X0289861Y0504862D01*
X0289861Y0502754D01*
X0290668Y0500806D01*
X0292159Y0499315D01*
X0290548Y0501096D02*
X0116097Y0501096D01*
X0115733Y0500733D02*
X0116741Y0501740D01*
X0117286Y0503056D01*
X0117286Y0504481D01*
X0116741Y0505797D01*
X0115733Y0506804D01*
X0114417Y0507350D01*
X0112992Y0507350D01*
X0111676Y0506804D01*
X0110669Y0505797D01*
X0110124Y0504481D01*
X0110124Y0503056D01*
X0110669Y0501740D01*
X0111676Y0500733D01*
X0112992Y0500187D01*
X0114417Y0500187D01*
X0115733Y0500733D01*
X0117136Y0502694D02*
X0289886Y0502694D01*
X0289861Y0504293D02*
X0230966Y0504293D01*
X0230559Y0504124D02*
X0231875Y0504670D01*
X0232882Y0505677D01*
X0233428Y0506993D01*
X0233428Y0508418D01*
X0232882Y0509734D01*
X0231875Y0510741D01*
X0230559Y0511287D01*
X0229134Y0511287D01*
X0227818Y0510741D01*
X0226811Y0509734D01*
X0226265Y0508418D01*
X0226265Y0506993D01*
X0226811Y0505677D01*
X0227818Y0504670D01*
X0229134Y0504124D01*
X0230559Y0504124D01*
X0228727Y0504293D02*
X0117286Y0504293D01*
X0116646Y0505891D02*
X0226722Y0505891D01*
X0226265Y0507490D02*
X0189420Y0507490D01*
X0189575Y0507645D02*
X0190120Y0508962D01*
X0190120Y0510386D01*
X0189575Y0511703D01*
X0188568Y0512710D01*
X0187252Y0513255D01*
X0185827Y0513255D01*
X0184511Y0512710D01*
X0183503Y0511703D01*
X0182958Y0510386D01*
X0182958Y0508962D01*
X0183503Y0507645D01*
X0184511Y0506638D01*
X0185827Y0506093D01*
X0187252Y0506093D01*
X0188568Y0506638D01*
X0189575Y0507645D01*
X0190120Y0509088D02*
X0226543Y0509088D01*
X0227763Y0510687D02*
X0189996Y0510687D01*
X0188992Y0512285D02*
X0279622Y0512285D01*
X0278999Y0512544D02*
X0280315Y0511998D01*
X0281740Y0511998D01*
X0283056Y0512544D01*
X0284063Y0513551D01*
X0284609Y0514867D01*
X0284609Y0516292D01*
X0284063Y0517608D01*
X0283056Y0518615D01*
X0281740Y0519161D01*
X0280315Y0519161D01*
X0278999Y0518615D01*
X0277992Y0517608D01*
X0277446Y0516292D01*
X0277446Y0514867D01*
X0277992Y0513551D01*
X0278999Y0512544D01*
X0277854Y0513884D02*
X0054081Y0513884D01*
X0054081Y0515483D02*
X0277446Y0515483D01*
X0277773Y0517081D02*
X0054081Y0517081D01*
X0054081Y0518680D02*
X0124377Y0518680D01*
X0124364Y0518685D02*
X0126312Y0517878D01*
X0128420Y0517878D01*
X0130368Y0518685D01*
X0131859Y0520176D01*
X0132666Y0522124D01*
X0132666Y0524232D01*
X0131859Y0526180D01*
X0130368Y0527671D01*
X0128420Y0528478D01*
X0126312Y0528478D01*
X0124364Y0527671D01*
X0122873Y0526180D01*
X0122066Y0524232D01*
X0122066Y0522124D01*
X0122873Y0520176D01*
X0124364Y0518685D01*
X0122831Y0520278D02*
X0103783Y0520278D01*
X0103945Y0520441D02*
X0104491Y0521757D01*
X0104491Y0523182D01*
X0103945Y0524498D01*
X0102938Y0525505D01*
X0101622Y0526050D01*
X0100197Y0526050D01*
X0098881Y0525505D01*
X0097874Y0524498D01*
X0097328Y0523182D01*
X0097328Y0521757D01*
X0097874Y0520441D01*
X0098881Y0519433D01*
X0100197Y0518888D01*
X0101622Y0518888D01*
X0102938Y0519433D01*
X0103945Y0520441D01*
X0104491Y0521877D02*
X0122169Y0521877D01*
X0122066Y0523475D02*
X0104369Y0523475D01*
X0103370Y0525074D02*
X0122415Y0525074D01*
X0123365Y0526672D02*
X0066102Y0526672D01*
X0066105Y0526678D02*
X0065560Y0525362D01*
X0064552Y0524355D01*
X0063236Y0523809D01*
X0061811Y0523809D01*
X0060495Y0524355D01*
X0059488Y0525362D01*
X0058943Y0526678D01*
X0058943Y0528103D01*
X0059488Y0529419D01*
X0060495Y0530426D01*
X0061811Y0530972D01*
X0063236Y0530972D01*
X0064552Y0530426D01*
X0065560Y0529419D01*
X0066105Y0528103D01*
X0066105Y0526678D01*
X0066035Y0528271D02*
X0125811Y0528271D01*
X0128921Y0528271D02*
X0168575Y0528271D01*
X0168763Y0528458D02*
X0167755Y0527451D01*
X0167210Y0526134D01*
X0167210Y0524710D01*
X0167755Y0523394D01*
X0168763Y0522386D01*
X0170079Y0521841D01*
X0171504Y0521841D01*
X0172820Y0522386D01*
X0173827Y0523394D01*
X0174372Y0524710D01*
X0174372Y0526134D01*
X0173827Y0527451D01*
X0172820Y0528458D01*
X0171504Y0529003D01*
X0170079Y0529003D01*
X0168763Y0528458D01*
X0167433Y0526672D02*
X0131367Y0526672D01*
X0132318Y0525074D02*
X0167210Y0525074D01*
X0167722Y0523475D02*
X0132666Y0523475D01*
X0132564Y0521877D02*
X0169993Y0521877D01*
X0171590Y0521877D02*
X0290263Y0521877D01*
X0290511Y0521278D02*
X0292002Y0519787D01*
X0293950Y0518980D01*
X0296058Y0518980D01*
X0298006Y0519787D01*
X0299497Y0521278D01*
X0300304Y0523226D01*
X0300304Y0525335D01*
X0299497Y0527283D01*
X0298006Y0528773D01*
X0296058Y0529580D01*
X0293950Y0529580D01*
X0292002Y0528773D01*
X0290511Y0527283D01*
X0289704Y0525335D01*
X0289704Y0523226D01*
X0290511Y0521278D01*
X0291511Y0520278D02*
X0131902Y0520278D01*
X0130356Y0518680D02*
X0279154Y0518680D01*
X0282901Y0518680D02*
X0312931Y0518680D01*
X0312880Y0518804D02*
X0313425Y0517488D01*
X0314432Y0516481D01*
X0315748Y0515935D01*
X0317173Y0515935D01*
X0318489Y0516481D01*
X0319497Y0517488D01*
X0320042Y0518804D01*
X0320042Y0520229D01*
X0319497Y0521545D01*
X0318489Y0522552D01*
X0317173Y0523098D01*
X0315748Y0523098D01*
X0314432Y0522552D01*
X0313425Y0521545D01*
X0312880Y0520229D01*
X0312880Y0518804D01*
X0312900Y0520278D02*
X0298497Y0520278D01*
X0299745Y0521877D02*
X0313756Y0521877D01*
X0313832Y0517081D02*
X0284282Y0517081D01*
X0284609Y0515483D02*
X0392100Y0515483D01*
X0392165Y0515640D02*
X0391620Y0514323D01*
X0391620Y0512899D01*
X0392165Y0511582D01*
X0393172Y0510575D01*
X0394488Y0510030D01*
X0395913Y0510030D01*
X0397229Y0510575D01*
X0398237Y0511582D01*
X0398782Y0512899D01*
X0398782Y0514323D01*
X0398237Y0515640D01*
X0397229Y0516647D01*
X0395913Y0517192D01*
X0394488Y0517192D01*
X0393172Y0516647D01*
X0392165Y0515640D01*
X0391620Y0513884D02*
X0284201Y0513884D01*
X0282433Y0512285D02*
X0363220Y0512285D01*
X0363645Y0512710D02*
X0362637Y0511703D01*
X0362092Y0510386D01*
X0362092Y0508962D01*
X0362637Y0507645D01*
X0363645Y0506638D01*
X0364961Y0506093D01*
X0366386Y0506093D01*
X0367702Y0506638D01*
X0368709Y0507645D01*
X0369254Y0508962D01*
X0369254Y0510386D01*
X0368709Y0511703D01*
X0367702Y0512710D01*
X0366386Y0513255D01*
X0364961Y0513255D01*
X0363645Y0512710D01*
X0362217Y0510687D02*
X0231929Y0510687D01*
X0233150Y0509088D02*
X0294060Y0509088D01*
X0296262Y0509088D02*
X0362092Y0509088D01*
X0362793Y0507490D02*
X0298975Y0507490D01*
X0300035Y0505891D02*
X0402102Y0505891D01*
X0402007Y0505797D02*
X0401462Y0504481D01*
X0401462Y0503056D01*
X0402007Y0501740D01*
X0403015Y0500733D01*
X0404331Y0500187D01*
X0405756Y0500187D01*
X0407072Y0500733D01*
X0408079Y0501740D01*
X0408624Y0503056D01*
X0408624Y0504481D01*
X0408079Y0505797D01*
X0407072Y0506804D01*
X0405756Y0507350D01*
X0404331Y0507350D01*
X0403015Y0506804D01*
X0402007Y0505797D01*
X0401462Y0504293D02*
X0300461Y0504293D01*
X0300437Y0502694D02*
X0401612Y0502694D01*
X0402651Y0501096D02*
X0299775Y0501096D01*
X0298346Y0499497D02*
X0444281Y0499497D01*
X0444278Y0497899D02*
X0386436Y0497899D01*
X0386971Y0496300D02*
X0444275Y0496300D01*
X0444272Y0494702D02*
X0386772Y0494702D01*
X0385663Y0493103D02*
X0444269Y0493103D01*
X0444267Y0491505D02*
X0369254Y0491505D01*
X0369254Y0491245D02*
X0368709Y0489929D01*
X0367702Y0488922D01*
X0366386Y0488376D01*
X0364961Y0488376D01*
X0363645Y0488922D01*
X0362637Y0489929D01*
X0362092Y0491245D01*
X0362092Y0492670D01*
X0362637Y0493986D01*
X0363645Y0494993D01*
X0364961Y0495539D01*
X0366386Y0495539D01*
X0367702Y0494993D01*
X0368709Y0493986D01*
X0369254Y0492670D01*
X0369254Y0491245D01*
X0368687Y0489906D02*
X0444264Y0489906D01*
X0444284Y0501096D02*
X0407435Y0501096D01*
X0408475Y0502694D02*
X0444287Y0502694D01*
X0444290Y0504293D02*
X0408624Y0504293D01*
X0407985Y0505891D02*
X0444292Y0505891D01*
X0444295Y0507490D02*
X0368554Y0507490D01*
X0369254Y0509088D02*
X0444298Y0509088D01*
X0444301Y0510687D02*
X0397341Y0510687D01*
X0398528Y0512285D02*
X0430902Y0512285D01*
X0431404Y0511783D02*
X0432948Y0511143D01*
X0434619Y0511143D01*
X0436163Y0511783D01*
X0437344Y0512964D01*
X0437983Y0514508D01*
X0437983Y0516179D01*
X0437344Y0517722D01*
X0436163Y0518904D01*
X0434619Y0519543D01*
X0432948Y0519543D01*
X0431404Y0518904D01*
X0430223Y0517722D01*
X0429583Y0516179D01*
X0429583Y0514508D01*
X0430223Y0512964D01*
X0431404Y0511783D01*
X0429842Y0513884D02*
X0398782Y0513884D01*
X0398302Y0515483D02*
X0429583Y0515483D01*
X0429957Y0517081D02*
X0396181Y0517081D01*
X0394220Y0517081D02*
X0319090Y0517081D01*
X0319990Y0518680D02*
X0361446Y0518680D01*
X0361676Y0518449D02*
X0362992Y0517904D01*
X0364417Y0517904D01*
X0365733Y0518449D01*
X0366741Y0519457D01*
X0367286Y0520773D01*
X0367286Y0522197D01*
X0366741Y0523514D01*
X0365733Y0524521D01*
X0364417Y0525066D01*
X0362992Y0525066D01*
X0361676Y0524521D01*
X0361038Y0523882D01*
X0361380Y0524710D01*
X0361380Y0526134D01*
X0360835Y0527451D01*
X0359828Y0528458D01*
X0358512Y0529003D01*
X0357087Y0529003D01*
X0355771Y0528458D01*
X0354763Y0527451D01*
X0354218Y0526134D01*
X0354218Y0524710D01*
X0354763Y0523394D01*
X0355771Y0522386D01*
X0357087Y0521841D01*
X0358512Y0521841D01*
X0359828Y0522386D01*
X0360466Y0523025D01*
X0360124Y0522197D01*
X0360124Y0520773D01*
X0360669Y0519457D01*
X0361676Y0518449D01*
X0360329Y0520278D02*
X0320021Y0520278D01*
X0319165Y0521877D02*
X0357001Y0521877D01*
X0358598Y0521877D02*
X0360124Y0521877D01*
X0361380Y0525074D02*
X0429583Y0525074D01*
X0429583Y0524508D02*
X0429583Y0526179D01*
X0430223Y0527722D01*
X0431404Y0528904D01*
X0432948Y0529543D01*
X0434619Y0529543D01*
X0436163Y0528904D01*
X0437344Y0527722D01*
X0437983Y0526179D01*
X0437983Y0524508D01*
X0437344Y0522964D01*
X0436163Y0521783D01*
X0434619Y0521143D01*
X0432948Y0521143D01*
X0431404Y0521783D01*
X0430223Y0522964D01*
X0429583Y0524508D01*
X0430011Y0523475D02*
X0366757Y0523475D01*
X0367286Y0521877D02*
X0431311Y0521877D01*
X0431180Y0518680D02*
X0365964Y0518680D01*
X0367081Y0520278D02*
X0444318Y0520278D01*
X0444316Y0518680D02*
X0436387Y0518680D01*
X0437610Y0517081D02*
X0444313Y0517081D01*
X0444310Y0515483D02*
X0437983Y0515483D01*
X0437725Y0513884D02*
X0444307Y0513884D01*
X0444304Y0512285D02*
X0436665Y0512285D01*
X0436256Y0521877D02*
X0444321Y0521877D01*
X0444324Y0523475D02*
X0437556Y0523475D01*
X0437983Y0525074D02*
X0444327Y0525074D01*
X0444330Y0526672D02*
X0437779Y0526672D01*
X0436796Y0528271D02*
X0444333Y0528271D01*
X0444336Y0529869D02*
X0220621Y0529869D01*
X0221071Y0529419D02*
X0220064Y0530426D01*
X0218748Y0530972D01*
X0217323Y0530972D01*
X0216007Y0530426D01*
X0215000Y0529419D01*
X0214454Y0528103D01*
X0214454Y0526678D01*
X0215000Y0525362D01*
X0216007Y0524355D01*
X0217323Y0523809D01*
X0218748Y0523809D01*
X0220064Y0524355D01*
X0221071Y0525362D01*
X0221617Y0526678D01*
X0221617Y0528103D01*
X0221071Y0529419D01*
X0221547Y0528271D02*
X0291499Y0528271D01*
X0290258Y0526672D02*
X0221614Y0526672D01*
X0220783Y0525074D02*
X0289704Y0525074D01*
X0289704Y0523475D02*
X0173861Y0523475D01*
X0174372Y0525074D02*
X0215288Y0525074D01*
X0214457Y0526672D02*
X0174150Y0526672D01*
X0173007Y0528271D02*
X0214524Y0528271D01*
X0215450Y0529869D02*
X0160359Y0529869D01*
X0159780Y0529290D02*
X0161018Y0530528D01*
X0161687Y0532145D01*
X0161687Y0533896D01*
X0161018Y0535513D01*
X0159780Y0536751D01*
X0158163Y0537420D01*
X0156412Y0537420D01*
X0154795Y0536751D01*
X0153557Y0535513D01*
X0152887Y0533896D01*
X0152887Y0532145D01*
X0153557Y0530528D01*
X0154795Y0529290D01*
X0156412Y0528620D01*
X0158163Y0528620D01*
X0159780Y0529290D01*
X0161407Y0531468D02*
X0444339Y0531468D01*
X0444341Y0533066D02*
X0161687Y0533066D01*
X0161369Y0534665D02*
X0444344Y0534665D01*
X0444347Y0536263D02*
X0160267Y0536263D01*
X0160236Y0537589D02*
X0161661Y0537589D01*
X0162977Y0538134D01*
X0163985Y0539142D01*
X0164530Y0540458D01*
X0164530Y0541882D01*
X0163985Y0543199D01*
X0162977Y0544206D01*
X0161661Y0544751D01*
X0160236Y0544751D01*
X0158920Y0544206D01*
X0157913Y0543199D01*
X0157368Y0541882D01*
X0157368Y0540458D01*
X0157913Y0539142D01*
X0158920Y0538134D01*
X0160236Y0537589D01*
X0159578Y0537862D02*
X0097795Y0537862D01*
X0098060Y0538502D02*
X0097253Y0536554D01*
X0095762Y0535063D01*
X0093814Y0534256D01*
X0091706Y0534256D01*
X0089758Y0535063D01*
X0088267Y0536554D01*
X0087460Y0538502D01*
X0087460Y0540610D01*
X0088267Y0542558D01*
X0089758Y0544049D01*
X0091706Y0544856D01*
X0093814Y0544856D01*
X0095762Y0544049D01*
X0097253Y0542558D01*
X0098060Y0540610D01*
X0098060Y0538502D01*
X0098060Y0539460D02*
X0157781Y0539460D01*
X0157368Y0541059D02*
X0097874Y0541059D01*
X0097154Y0542657D02*
X0157689Y0542657D01*
X0159040Y0544256D02*
X0095263Y0544256D01*
X0090257Y0544256D02*
X0054081Y0544256D01*
X0054081Y0545854D02*
X0336712Y0545854D01*
X0336502Y0546363D02*
X0337047Y0545047D01*
X0338054Y0544040D01*
X0339370Y0543494D01*
X0340795Y0543494D01*
X0342111Y0544040D01*
X0343119Y0545047D01*
X0343664Y0546363D01*
X0343664Y0547788D01*
X0343119Y0549104D01*
X0342111Y0550111D01*
X0340795Y0550657D01*
X0339370Y0550657D01*
X0338054Y0550111D01*
X0337047Y0549104D01*
X0336502Y0547788D01*
X0336502Y0546363D01*
X0336502Y0547453D02*
X0054081Y0547453D01*
X0054081Y0549051D02*
X0337025Y0549051D01*
X0339354Y0550650D02*
X0054081Y0550650D01*
X0054081Y0552248D02*
X0444376Y0552248D01*
X0444373Y0550650D02*
X0340812Y0550650D01*
X0343140Y0549051D02*
X0444370Y0549051D01*
X0444367Y0547453D02*
X0343664Y0547453D01*
X0343453Y0545854D02*
X0444365Y0545854D01*
X0444362Y0544256D02*
X0412857Y0544256D01*
X0412977Y0544206D02*
X0411661Y0544751D01*
X0410236Y0544751D01*
X0408920Y0544206D01*
X0407913Y0543199D01*
X0407368Y0541882D01*
X0407368Y0540458D01*
X0407913Y0539142D01*
X0408920Y0538134D01*
X0410236Y0537589D01*
X0411661Y0537589D01*
X0412977Y0538134D01*
X0413985Y0539142D01*
X0414530Y0540458D01*
X0414530Y0541882D01*
X0413985Y0543199D01*
X0412977Y0544206D01*
X0414209Y0542657D02*
X0444359Y0542657D01*
X0444356Y0541059D02*
X0414530Y0541059D01*
X0414117Y0539460D02*
X0444353Y0539460D01*
X0444350Y0537862D02*
X0412319Y0537862D01*
X0409578Y0537862D02*
X0178068Y0537862D01*
X0178725Y0538134D02*
X0179733Y0539142D01*
X0180278Y0540458D01*
X0180278Y0541882D01*
X0179733Y0543199D01*
X0178725Y0544206D01*
X0177409Y0544751D01*
X0175985Y0544751D01*
X0174668Y0544206D01*
X0173661Y0543199D01*
X0173116Y0541882D01*
X0173116Y0540458D01*
X0173661Y0539142D01*
X0174668Y0538134D01*
X0175985Y0537589D01*
X0177409Y0537589D01*
X0178725Y0538134D01*
X0179865Y0539460D02*
X0407781Y0539460D01*
X0407368Y0541059D02*
X0180278Y0541059D01*
X0179957Y0542657D02*
X0407689Y0542657D01*
X0409040Y0544256D02*
X0342327Y0544256D01*
X0337838Y0544256D02*
X0178605Y0544256D01*
X0174788Y0544256D02*
X0162857Y0544256D01*
X0164209Y0542657D02*
X0173437Y0542657D01*
X0173116Y0541059D02*
X0164530Y0541059D01*
X0164117Y0539460D02*
X0173529Y0539460D01*
X0175326Y0537862D02*
X0162319Y0537862D01*
X0154308Y0536263D02*
X0096962Y0536263D01*
X0094801Y0534665D02*
X0153206Y0534665D01*
X0152887Y0533066D02*
X0054081Y0533066D01*
X0054081Y0531468D02*
X0153168Y0531468D01*
X0154216Y0529869D02*
X0065109Y0529869D01*
X0065271Y0525074D02*
X0098449Y0525074D01*
X0097450Y0523475D02*
X0054081Y0523475D01*
X0054081Y0521877D02*
X0097328Y0521877D01*
X0098036Y0520278D02*
X0054081Y0520278D01*
X0054081Y0525074D02*
X0059776Y0525074D01*
X0058945Y0526672D02*
X0054081Y0526672D01*
X0054081Y0528271D02*
X0059012Y0528271D01*
X0059938Y0529869D02*
X0054081Y0529869D01*
X0054081Y0534665D02*
X0090719Y0534665D01*
X0088557Y0536263D02*
X0054081Y0536263D01*
X0054081Y0537862D02*
X0087725Y0537862D01*
X0087460Y0539460D02*
X0054081Y0539460D01*
X0054081Y0541059D02*
X0087646Y0541059D01*
X0088366Y0542657D02*
X0054081Y0542657D01*
X0054081Y0553847D02*
X0444379Y0553847D01*
X0444382Y0555445D02*
X0054081Y0555445D01*
X0054081Y0557044D02*
X0444385Y0557044D01*
X0444388Y0558642D02*
X0054081Y0558642D01*
X0054081Y0560241D02*
X0444390Y0560241D01*
X0444393Y0561839D02*
X0054081Y0561839D01*
X0054081Y0563438D02*
X0444396Y0563438D01*
X0444399Y0565036D02*
X0054081Y0565036D01*
X0054081Y0566635D02*
X0206414Y0566635D01*
X0206805Y0566244D02*
X0208753Y0565437D01*
X0210861Y0565437D01*
X0212809Y0566244D01*
X0214300Y0567735D01*
X0215107Y0569683D01*
X0215107Y0571791D01*
X0214300Y0573739D01*
X0212809Y0575230D01*
X0210861Y0576037D01*
X0208753Y0576037D01*
X0206805Y0575230D01*
X0205314Y0573739D01*
X0204507Y0571791D01*
X0204507Y0569683D01*
X0205314Y0567735D01*
X0206805Y0566244D01*
X0205107Y0568233D02*
X0169983Y0568233D01*
X0169780Y0568030D02*
X0171018Y0569268D01*
X0171687Y0570885D01*
X0171687Y0572636D01*
X0171018Y0574253D01*
X0169780Y0575491D01*
X0168163Y0576161D01*
X0166412Y0576161D01*
X0164795Y0575491D01*
X0163557Y0574253D01*
X0162887Y0572636D01*
X0162887Y0570885D01*
X0163557Y0569268D01*
X0164795Y0568030D01*
X0166412Y0567361D01*
X0168163Y0567361D01*
X0169780Y0568030D01*
X0171251Y0569832D02*
X0204507Y0569832D01*
X0204507Y0571430D02*
X0171687Y0571430D01*
X0171525Y0573029D02*
X0205020Y0573029D01*
X0206202Y0574627D02*
X0170643Y0574627D01*
X0163932Y0574627D02*
X0150643Y0574627D01*
X0151018Y0574253D02*
X0149780Y0575491D01*
X0148163Y0576161D01*
X0146412Y0576161D01*
X0144795Y0575491D01*
X0143557Y0574253D01*
X0142887Y0572636D01*
X0142887Y0570885D01*
X0143557Y0569268D01*
X0144795Y0568030D01*
X0146412Y0567361D01*
X0148163Y0567361D01*
X0149780Y0568030D01*
X0151018Y0569268D01*
X0151687Y0570885D01*
X0151687Y0572636D01*
X0151018Y0574253D01*
X0151525Y0573029D02*
X0163050Y0573029D01*
X0162887Y0571430D02*
X0151687Y0571430D01*
X0151251Y0569832D02*
X0163324Y0569832D01*
X0164592Y0568233D02*
X0149983Y0568233D01*
X0144592Y0568233D02*
X0054081Y0568233D01*
X0054081Y0569832D02*
X0143324Y0569832D01*
X0142887Y0571430D02*
X0054081Y0571430D01*
X0054081Y0573029D02*
X0083448Y0573029D01*
X0083465Y0573022D02*
X0084889Y0573022D01*
X0086206Y0573567D01*
X0087213Y0574575D01*
X0087758Y0575891D01*
X0087758Y0577315D01*
X0087213Y0578632D01*
X0086206Y0579639D01*
X0084889Y0580184D01*
X0083465Y0580184D01*
X0082149Y0579639D01*
X0081141Y0578632D01*
X0080596Y0577315D01*
X0080596Y0575891D01*
X0081141Y0574575D01*
X0082149Y0573567D01*
X0083465Y0573022D01*
X0084906Y0573029D02*
X0143050Y0573029D01*
X0143932Y0574627D02*
X0087235Y0574627D01*
X0087758Y0576226D02*
X0380173Y0576226D01*
X0380354Y0576663D02*
X0379809Y0575347D01*
X0379809Y0573922D01*
X0380354Y0572606D01*
X0381361Y0571599D01*
X0382677Y0571054D01*
X0384102Y0571054D01*
X0385418Y0571599D01*
X0386426Y0572606D01*
X0386971Y0573922D01*
X0386971Y0575347D01*
X0386426Y0576663D01*
X0385418Y0577671D01*
X0384102Y0578216D01*
X0382677Y0578216D01*
X0381361Y0577671D01*
X0380354Y0576663D01*
X0381733Y0577824D02*
X0297607Y0577824D01*
X0298164Y0578055D02*
X0299655Y0579546D01*
X0300461Y0581494D01*
X0300461Y0583602D01*
X0299655Y0585550D01*
X0298164Y0587041D01*
X0296216Y0587848D01*
X0294107Y0587848D01*
X0292159Y0587041D01*
X0290668Y0585550D01*
X0289861Y0583602D01*
X0289861Y0581494D01*
X0290668Y0579546D01*
X0292159Y0578055D01*
X0294107Y0577248D01*
X0296216Y0577248D01*
X0298164Y0578055D01*
X0299532Y0579423D02*
X0403135Y0579423D01*
X0403015Y0579473D02*
X0404331Y0578928D01*
X0405756Y0578928D01*
X0407072Y0579473D01*
X0408079Y0580480D01*
X0408624Y0581796D01*
X0408624Y0583221D01*
X0408079Y0584537D01*
X0407072Y0585545D01*
X0405756Y0586090D01*
X0404331Y0586090D01*
X0403015Y0585545D01*
X0402007Y0584537D01*
X0401462Y0583221D01*
X0401462Y0581796D01*
X0402007Y0580480D01*
X0403015Y0579473D01*
X0401783Y0581021D02*
X0300266Y0581021D01*
X0300461Y0582620D02*
X0401462Y0582620D01*
X0401875Y0584219D02*
X0300206Y0584219D01*
X0299388Y0585817D02*
X0363206Y0585817D01*
X0363645Y0585378D02*
X0364961Y0584833D01*
X0366386Y0584833D01*
X0367702Y0585378D01*
X0368709Y0586386D01*
X0369254Y0587702D01*
X0369254Y0589127D01*
X0368709Y0590443D01*
X0367702Y0591450D01*
X0366386Y0591995D01*
X0364961Y0591995D01*
X0363645Y0591450D01*
X0362637Y0590443D01*
X0362092Y0589127D01*
X0362092Y0587702D01*
X0362637Y0586386D01*
X0363645Y0585378D01*
X0362211Y0587416D02*
X0297260Y0587416D01*
X0293063Y0587416D02*
X0233321Y0587416D01*
X0233428Y0587158D02*
X0232882Y0588474D01*
X0231875Y0589482D01*
X0230559Y0590027D01*
X0229134Y0590027D01*
X0227818Y0589482D01*
X0226811Y0588474D01*
X0226265Y0587158D01*
X0226265Y0585733D01*
X0226811Y0584417D01*
X0227818Y0583410D01*
X0229134Y0582865D01*
X0230559Y0582865D01*
X0231875Y0583410D01*
X0232882Y0584417D01*
X0233428Y0585733D01*
X0233428Y0587158D01*
X0233428Y0585817D02*
X0290935Y0585817D01*
X0290117Y0584219D02*
X0232684Y0584219D01*
X0232343Y0589014D02*
X0362092Y0589014D01*
X0362807Y0590613D02*
X0189405Y0590613D01*
X0189575Y0590443D02*
X0188568Y0591450D01*
X0187252Y0591995D01*
X0185827Y0591995D01*
X0184511Y0591450D01*
X0183503Y0590443D01*
X0182958Y0589127D01*
X0182958Y0587702D01*
X0183503Y0586386D01*
X0184511Y0585378D01*
X0185827Y0584833D01*
X0187252Y0584833D01*
X0188568Y0585378D01*
X0189575Y0586386D01*
X0190120Y0587702D01*
X0190120Y0589127D01*
X0189575Y0590443D01*
X0190120Y0589014D02*
X0227350Y0589014D01*
X0226372Y0587416D02*
X0190002Y0587416D01*
X0189007Y0585817D02*
X0226265Y0585817D01*
X0227009Y0584219D02*
X0116873Y0584219D01*
X0116741Y0584537D02*
X0117286Y0583221D01*
X0117286Y0581796D01*
X0116741Y0580480D01*
X0115733Y0579473D01*
X0114417Y0578928D01*
X0112992Y0578928D01*
X0111676Y0579473D01*
X0110669Y0580480D01*
X0110124Y0581796D01*
X0110124Y0583221D01*
X0110669Y0584537D01*
X0111676Y0585545D01*
X0112992Y0586090D01*
X0114417Y0586090D01*
X0115733Y0585545D01*
X0116741Y0584537D01*
X0117286Y0582620D02*
X0289861Y0582620D01*
X0290057Y0581021D02*
X0116965Y0581021D01*
X0115613Y0579423D02*
X0290791Y0579423D01*
X0292716Y0577824D02*
X0087547Y0577824D01*
X0086422Y0579423D02*
X0111796Y0579423D01*
X0110445Y0581021D02*
X0054081Y0581021D01*
X0054081Y0579423D02*
X0081933Y0579423D01*
X0080807Y0577824D02*
X0054081Y0577824D01*
X0054081Y0576226D02*
X0080596Y0576226D01*
X0081119Y0574627D02*
X0054081Y0574627D01*
X0054081Y0582620D02*
X0110124Y0582620D01*
X0110537Y0584219D02*
X0108668Y0584219D01*
X0108867Y0584417D02*
X0107859Y0583410D01*
X0106543Y0582865D01*
X0105118Y0582865D01*
X0103802Y0583410D01*
X0102795Y0584417D01*
X0102250Y0585733D01*
X0102250Y0587158D01*
X0102795Y0588474D01*
X0103802Y0589482D01*
X0105118Y0590027D01*
X0106543Y0590027D01*
X0107859Y0589482D01*
X0108867Y0588474D01*
X0109412Y0587158D01*
X0109412Y0585733D01*
X0108867Y0584417D01*
X0109412Y0585817D02*
X0112334Y0585817D01*
X0115075Y0585817D02*
X0184072Y0585817D01*
X0183077Y0587416D02*
X0109305Y0587416D01*
X0108327Y0589014D02*
X0182958Y0589014D01*
X0183673Y0590613D02*
X0054081Y0590613D01*
X0054081Y0592211D02*
X0278072Y0592211D01*
X0277992Y0592291D02*
X0278999Y0591284D01*
X0280315Y0590739D01*
X0281740Y0590739D01*
X0283056Y0591284D01*
X0284063Y0592291D01*
X0284609Y0593607D01*
X0284609Y0595032D01*
X0284063Y0596348D01*
X0283056Y0597356D01*
X0281740Y0597901D01*
X0280315Y0597901D01*
X0278999Y0597356D01*
X0277992Y0596348D01*
X0277446Y0595032D01*
X0277446Y0593607D01*
X0277992Y0592291D01*
X0277446Y0593810D02*
X0054081Y0593810D01*
X0054081Y0595408D02*
X0277602Y0595408D01*
X0278650Y0597007D02*
X0129358Y0597007D01*
X0128420Y0596618D02*
X0130368Y0597425D01*
X0131859Y0598916D01*
X0132666Y0600864D01*
X0132666Y0602972D01*
X0131859Y0604920D01*
X0130368Y0606411D01*
X0128420Y0607218D01*
X0126312Y0607218D01*
X0124364Y0606411D01*
X0122873Y0604920D01*
X0122066Y0602972D01*
X0122066Y0600864D01*
X0122873Y0598916D01*
X0124364Y0597425D01*
X0126312Y0596618D01*
X0128420Y0596618D01*
X0125374Y0597007D02*
X0054081Y0597007D01*
X0054081Y0598605D02*
X0098449Y0598605D01*
X0098881Y0598174D02*
X0100197Y0597628D01*
X0101622Y0597628D01*
X0102938Y0598174D01*
X0103945Y0599181D01*
X0104491Y0600497D01*
X0104491Y0601922D01*
X0103945Y0603238D01*
X0102938Y0604245D01*
X0101622Y0604791D01*
X0100197Y0604791D01*
X0098881Y0604245D01*
X0097874Y0603238D01*
X0097328Y0601922D01*
X0097328Y0600497D01*
X0097874Y0599181D01*
X0098881Y0598174D01*
X0097450Y0600204D02*
X0054081Y0600204D01*
X0054081Y0601802D02*
X0097328Y0601802D01*
X0098036Y0603401D02*
X0064858Y0603401D01*
X0064552Y0603095D02*
X0065560Y0604102D01*
X0066105Y0605418D01*
X0066105Y0606843D01*
X0065560Y0608159D01*
X0064552Y0609167D01*
X0063236Y0609712D01*
X0061811Y0609712D01*
X0060495Y0609167D01*
X0059488Y0608159D01*
X0058943Y0606843D01*
X0058943Y0605418D01*
X0059488Y0604102D01*
X0060495Y0603095D01*
X0061811Y0602550D01*
X0063236Y0602550D01*
X0064552Y0603095D01*
X0065931Y0604999D02*
X0122952Y0604999D01*
X0122244Y0603401D02*
X0103783Y0603401D01*
X0104491Y0601802D02*
X0122066Y0601802D01*
X0122340Y0600204D02*
X0104369Y0600204D01*
X0103370Y0598605D02*
X0123184Y0598605D01*
X0131548Y0598605D02*
X0291924Y0598605D01*
X0292002Y0598527D02*
X0293950Y0597720D01*
X0296058Y0597720D01*
X0298006Y0598527D01*
X0299497Y0600018D01*
X0300304Y0601966D01*
X0300304Y0604075D01*
X0299497Y0606023D01*
X0298006Y0607514D01*
X0296058Y0608320D01*
X0293950Y0608320D01*
X0292002Y0607514D01*
X0290511Y0606023D01*
X0289704Y0604075D01*
X0289704Y0601966D01*
X0290511Y0600018D01*
X0292002Y0598527D01*
X0290434Y0600204D02*
X0132393Y0600204D01*
X0132666Y0601802D02*
X0168087Y0601802D01*
X0167755Y0602134D02*
X0168763Y0601126D01*
X0170079Y0600581D01*
X0171504Y0600581D01*
X0172820Y0601126D01*
X0173827Y0602134D01*
X0174372Y0603450D01*
X0174372Y0604875D01*
X0173827Y0606191D01*
X0172820Y0607198D01*
X0171504Y0607743D01*
X0170079Y0607743D01*
X0168763Y0607198D01*
X0167755Y0606191D01*
X0167210Y0604875D01*
X0167210Y0603450D01*
X0167755Y0602134D01*
X0167231Y0603401D02*
X0132489Y0603401D01*
X0131780Y0604999D02*
X0167262Y0604999D01*
X0168162Y0606598D02*
X0129918Y0606598D01*
X0124814Y0606598D02*
X0066105Y0606598D01*
X0065523Y0608196D02*
X0154629Y0608196D01*
X0154795Y0608030D02*
X0156412Y0607361D01*
X0158163Y0607361D01*
X0159780Y0608030D01*
X0161018Y0609268D01*
X0161687Y0610885D01*
X0161687Y0612636D01*
X0161018Y0614253D01*
X0159780Y0615491D01*
X0158163Y0616161D01*
X0156412Y0616161D01*
X0154795Y0615491D01*
X0153557Y0614253D01*
X0152887Y0612636D01*
X0152887Y0610885D01*
X0153557Y0609268D01*
X0154795Y0608030D01*
X0153339Y0609795D02*
X0054081Y0609795D01*
X0054081Y0611393D02*
X0152887Y0611393D01*
X0153035Y0612992D02*
X0054081Y0612992D01*
X0054081Y0614590D02*
X0088970Y0614590D01*
X0088267Y0615294D02*
X0089758Y0613803D01*
X0091706Y0612996D01*
X0093814Y0612996D01*
X0095762Y0613803D01*
X0097253Y0615294D01*
X0098060Y0617242D01*
X0098060Y0619350D01*
X0097253Y0621298D01*
X0095762Y0622789D01*
X0093814Y0623596D01*
X0091706Y0623596D01*
X0089758Y0622789D01*
X0088267Y0621298D01*
X0087460Y0619350D01*
X0087460Y0617242D01*
X0088267Y0615294D01*
X0087896Y0616189D02*
X0054081Y0616189D01*
X0054081Y0617787D02*
X0087460Y0617787D01*
X0087475Y0619386D02*
X0054081Y0619386D01*
X0054081Y0620984D02*
X0088137Y0620984D01*
X0089551Y0622583D02*
X0054081Y0622583D01*
X0054081Y0624181D02*
X0336884Y0624181D01*
X0337047Y0623787D02*
X0338054Y0622780D01*
X0339370Y0622235D01*
X0340795Y0622235D01*
X0342111Y0622780D01*
X0343119Y0623787D01*
X0343664Y0625103D01*
X0343664Y0626528D01*
X0343119Y0627844D01*
X0342111Y0628852D01*
X0340795Y0629397D01*
X0339370Y0629397D01*
X0338054Y0628852D01*
X0337047Y0627844D01*
X0336502Y0626528D01*
X0336502Y0625103D01*
X0337047Y0623787D01*
X0338530Y0622583D02*
X0179089Y0622583D01*
X0178725Y0622946D02*
X0177409Y0623491D01*
X0175985Y0623491D01*
X0174668Y0622946D01*
X0173661Y0621939D01*
X0173116Y0620623D01*
X0173116Y0619198D01*
X0173661Y0617882D01*
X0174668Y0616874D01*
X0175985Y0616329D01*
X0177409Y0616329D01*
X0178725Y0616874D01*
X0179733Y0617882D01*
X0180278Y0619198D01*
X0180278Y0620623D01*
X0179733Y0621939D01*
X0178725Y0622946D01*
X0180128Y0620984D02*
X0407518Y0620984D01*
X0407368Y0620623D02*
X0407368Y0619198D01*
X0407913Y0617882D01*
X0408920Y0616874D01*
X0410236Y0616329D01*
X0411661Y0616329D01*
X0412977Y0616874D01*
X0413985Y0617882D01*
X0414530Y0619198D01*
X0414530Y0620623D01*
X0413985Y0621939D01*
X0412977Y0622946D01*
X0411661Y0623491D01*
X0410236Y0623491D01*
X0408920Y0622946D01*
X0407913Y0621939D01*
X0407368Y0620623D01*
X0407368Y0619386D02*
X0180278Y0619386D01*
X0179638Y0617787D02*
X0408007Y0617787D01*
X0408557Y0622583D02*
X0341635Y0622583D01*
X0343282Y0624181D02*
X0444506Y0624181D01*
X0444503Y0622583D02*
X0413341Y0622583D01*
X0414380Y0620984D02*
X0444500Y0620984D01*
X0444497Y0619386D02*
X0414530Y0619386D01*
X0413890Y0617787D02*
X0444494Y0617787D01*
X0444491Y0616189D02*
X0097624Y0616189D01*
X0098060Y0617787D02*
X0158007Y0617787D01*
X0157913Y0617882D02*
X0158920Y0616874D01*
X0160236Y0616329D01*
X0161661Y0616329D01*
X0162977Y0616874D01*
X0163985Y0617882D01*
X0164530Y0619198D01*
X0164530Y0620623D01*
X0163985Y0621939D01*
X0162977Y0622946D01*
X0161661Y0623491D01*
X0160236Y0623491D01*
X0158920Y0622946D01*
X0157913Y0621939D01*
X0157368Y0620623D01*
X0157368Y0619198D01*
X0157913Y0617882D01*
X0157368Y0619386D02*
X0098045Y0619386D01*
X0097383Y0620984D02*
X0157518Y0620984D01*
X0158557Y0622583D02*
X0095968Y0622583D01*
X0096549Y0614590D02*
X0153894Y0614590D01*
X0160680Y0614590D02*
X0444488Y0614590D01*
X0444486Y0612992D02*
X0161540Y0612992D01*
X0161687Y0611393D02*
X0444483Y0611393D01*
X0444480Y0609795D02*
X0161236Y0609795D01*
X0159945Y0608196D02*
X0215036Y0608196D01*
X0215000Y0608159D02*
X0214454Y0606843D01*
X0214454Y0605418D01*
X0215000Y0604102D01*
X0216007Y0603095D01*
X0217323Y0602550D01*
X0218748Y0602550D01*
X0220064Y0603095D01*
X0221071Y0604102D01*
X0221617Y0605418D01*
X0221617Y0606843D01*
X0221071Y0608159D01*
X0220064Y0609167D01*
X0218748Y0609712D01*
X0217323Y0609712D01*
X0216007Y0609167D01*
X0215000Y0608159D01*
X0214454Y0606598D02*
X0173420Y0606598D01*
X0174321Y0604999D02*
X0214628Y0604999D01*
X0215701Y0603401D02*
X0174352Y0603401D01*
X0173496Y0601802D02*
X0289772Y0601802D01*
X0289704Y0603401D02*
X0220370Y0603401D01*
X0221443Y0604999D02*
X0290087Y0604999D01*
X0291086Y0606598D02*
X0221617Y0606598D01*
X0221034Y0608196D02*
X0293650Y0608196D01*
X0296358Y0608196D02*
X0432737Y0608196D01*
X0432948Y0608283D02*
X0431404Y0607644D01*
X0430223Y0606463D01*
X0429583Y0604919D01*
X0429583Y0603248D01*
X0430223Y0601704D01*
X0431404Y0600523D01*
X0432948Y0599883D01*
X0434619Y0599883D01*
X0436163Y0600523D01*
X0437344Y0601704D01*
X0437983Y0603248D01*
X0437983Y0604919D01*
X0437344Y0606463D01*
X0436163Y0607644D01*
X0434619Y0608283D01*
X0432948Y0608283D01*
X0434830Y0608196D02*
X0444477Y0608196D01*
X0444474Y0606598D02*
X0437209Y0606598D01*
X0437950Y0604999D02*
X0444471Y0604999D01*
X0444468Y0603401D02*
X0437983Y0603401D01*
X0437385Y0601802D02*
X0444465Y0601802D01*
X0444462Y0600204D02*
X0435392Y0600204D01*
X0434619Y0598283D02*
X0432948Y0598283D01*
X0431404Y0597644D01*
X0430223Y0596463D01*
X0429583Y0594919D01*
X0429583Y0593248D01*
X0430223Y0591704D01*
X0431404Y0590523D01*
X0432948Y0589883D01*
X0434619Y0589883D01*
X0436163Y0590523D01*
X0437344Y0591704D01*
X0437983Y0593248D01*
X0437983Y0594919D01*
X0437344Y0596463D01*
X0436163Y0597644D01*
X0434619Y0598283D01*
X0436800Y0597007D02*
X0444457Y0597007D01*
X0444460Y0598605D02*
X0366910Y0598605D01*
X0366741Y0598197D02*
X0367286Y0599513D01*
X0367286Y0600938D01*
X0366741Y0602254D01*
X0365733Y0603261D01*
X0364417Y0603806D01*
X0362992Y0603806D01*
X0361676Y0603261D01*
X0361038Y0602622D01*
X0361380Y0603450D01*
X0361380Y0604875D01*
X0360835Y0606191D01*
X0359828Y0607198D01*
X0358512Y0607743D01*
X0357087Y0607743D01*
X0355771Y0607198D01*
X0354763Y0606191D01*
X0354218Y0604875D01*
X0354218Y0603450D01*
X0354763Y0602134D01*
X0355771Y0601126D01*
X0357087Y0600581D01*
X0358512Y0600581D01*
X0359828Y0601126D01*
X0360466Y0601765D01*
X0360124Y0600938D01*
X0360124Y0599513D01*
X0360669Y0598197D01*
X0361676Y0597189D01*
X0362992Y0596644D01*
X0364417Y0596644D01*
X0365733Y0597189D01*
X0366741Y0598197D01*
X0365292Y0597007D02*
X0430767Y0597007D01*
X0429786Y0595408D02*
X0397179Y0595408D01*
X0397229Y0595387D02*
X0395913Y0595932D01*
X0394488Y0595932D01*
X0393172Y0595387D01*
X0392165Y0594380D01*
X0391620Y0593064D01*
X0391620Y0591639D01*
X0392165Y0590323D01*
X0393172Y0589315D01*
X0394488Y0588770D01*
X0395913Y0588770D01*
X0397229Y0589315D01*
X0398237Y0590323D01*
X0398782Y0591639D01*
X0398782Y0593064D01*
X0398237Y0594380D01*
X0397229Y0595387D01*
X0398473Y0593810D02*
X0429583Y0593810D01*
X0430013Y0592211D02*
X0398782Y0592211D01*
X0398357Y0590613D02*
X0431315Y0590613D01*
X0436252Y0590613D02*
X0444445Y0590613D01*
X0444448Y0592211D02*
X0437554Y0592211D01*
X0437983Y0593810D02*
X0444451Y0593810D01*
X0444454Y0595408D02*
X0437781Y0595408D01*
X0432175Y0600204D02*
X0367286Y0600204D01*
X0366928Y0601802D02*
X0430182Y0601802D01*
X0429583Y0603401D02*
X0365396Y0603401D01*
X0362013Y0603401D02*
X0361360Y0603401D01*
X0361329Y0604999D02*
X0429617Y0604999D01*
X0430358Y0606598D02*
X0360428Y0606598D01*
X0355170Y0606598D02*
X0298922Y0606598D01*
X0299921Y0604999D02*
X0354270Y0604999D01*
X0354238Y0603401D02*
X0300304Y0603401D01*
X0300236Y0601802D02*
X0315662Y0601802D01*
X0315748Y0601838D02*
X0314432Y0601293D01*
X0313425Y0600285D01*
X0312880Y0598969D01*
X0312880Y0597544D01*
X0313425Y0596228D01*
X0314432Y0595221D01*
X0315748Y0594676D01*
X0317173Y0594676D01*
X0318489Y0595221D01*
X0319497Y0596228D01*
X0320042Y0597544D01*
X0320042Y0598969D01*
X0319497Y0600285D01*
X0318489Y0601293D01*
X0317173Y0601838D01*
X0315748Y0601838D01*
X0317259Y0601802D02*
X0355095Y0601802D01*
X0360124Y0600204D02*
X0319530Y0600204D01*
X0320042Y0598605D02*
X0360500Y0598605D01*
X0362117Y0597007D02*
X0319819Y0597007D01*
X0318676Y0595408D02*
X0393223Y0595408D01*
X0391929Y0593810D02*
X0284609Y0593810D01*
X0284453Y0595408D02*
X0314245Y0595408D01*
X0313102Y0597007D02*
X0283405Y0597007D01*
X0283983Y0592211D02*
X0391620Y0592211D01*
X0392045Y0590613D02*
X0368539Y0590613D01*
X0369254Y0589014D02*
X0393899Y0589014D01*
X0396502Y0589014D02*
X0444442Y0589014D01*
X0444439Y0587416D02*
X0369136Y0587416D01*
X0368141Y0585817D02*
X0403673Y0585817D01*
X0406414Y0585817D02*
X0444437Y0585817D01*
X0444434Y0584219D02*
X0408211Y0584219D01*
X0408624Y0582620D02*
X0444431Y0582620D01*
X0444428Y0581021D02*
X0408303Y0581021D01*
X0406952Y0579423D02*
X0444425Y0579423D01*
X0444422Y0577824D02*
X0385047Y0577824D01*
X0386607Y0576226D02*
X0444419Y0576226D01*
X0444416Y0574627D02*
X0386971Y0574627D01*
X0386601Y0573029D02*
X0444413Y0573029D01*
X0444411Y0571430D02*
X0385012Y0571430D01*
X0381768Y0571430D02*
X0369246Y0571430D01*
X0369254Y0571410D02*
X0368709Y0572726D01*
X0367702Y0573734D01*
X0366386Y0574279D01*
X0364961Y0574279D01*
X0363645Y0573734D01*
X0362637Y0572726D01*
X0362092Y0571410D01*
X0362092Y0569985D01*
X0362637Y0568669D01*
X0363645Y0567662D01*
X0364961Y0567117D01*
X0366386Y0567117D01*
X0367702Y0567662D01*
X0368709Y0568669D01*
X0369254Y0569985D01*
X0369254Y0571410D01*
X0369191Y0569832D02*
X0444408Y0569832D01*
X0444405Y0568233D02*
X0368273Y0568233D01*
X0368406Y0573029D02*
X0380179Y0573029D01*
X0379809Y0574627D02*
X0213412Y0574627D01*
X0214594Y0573029D02*
X0321602Y0573029D01*
X0321299Y0572726D02*
X0320754Y0571410D01*
X0320754Y0569985D01*
X0321299Y0568669D01*
X0322306Y0567662D01*
X0323622Y0567117D01*
X0325047Y0567117D01*
X0326363Y0567662D01*
X0327371Y0568669D01*
X0327916Y0569985D01*
X0327916Y0571410D01*
X0327371Y0572726D01*
X0326363Y0573734D01*
X0325047Y0574279D01*
X0323622Y0574279D01*
X0322306Y0573734D01*
X0321299Y0572726D01*
X0320762Y0571430D02*
X0215107Y0571430D01*
X0215107Y0569832D02*
X0320817Y0569832D01*
X0321734Y0568233D02*
X0214507Y0568233D01*
X0213200Y0566635D02*
X0444402Y0566635D01*
X0430771Y0528271D02*
X0360015Y0528271D01*
X0361158Y0526672D02*
X0429788Y0526672D01*
X0393060Y0510687D02*
X0369130Y0510687D01*
X0368126Y0512285D02*
X0391874Y0512285D01*
X0380008Y0494702D02*
X0367993Y0494702D01*
X0369075Y0493103D02*
X0381116Y0493103D01*
X0363353Y0494702D02*
X0326655Y0494702D01*
X0327736Y0493103D02*
X0362272Y0493103D01*
X0362092Y0491505D02*
X0327916Y0491505D01*
X0327348Y0489906D02*
X0362660Y0489906D01*
X0354730Y0523475D02*
X0300304Y0523475D01*
X0300304Y0525074D02*
X0354218Y0525074D01*
X0354441Y0526672D02*
X0299750Y0526672D01*
X0298509Y0528271D02*
X0355583Y0528271D01*
X0363073Y0568233D02*
X0326935Y0568233D01*
X0327852Y0569832D02*
X0362156Y0569832D01*
X0362101Y0571430D02*
X0327907Y0571430D01*
X0327068Y0573029D02*
X0362940Y0573029D01*
X0343664Y0625780D02*
X0444509Y0625780D01*
X0444511Y0627378D02*
X0343312Y0627378D01*
X0341809Y0628977D02*
X0444514Y0628977D01*
X0444517Y0630575D02*
X0054081Y0630575D01*
X0054081Y0628977D02*
X0338356Y0628977D01*
X0336854Y0627378D02*
X0054081Y0627378D01*
X0054081Y0625780D02*
X0336502Y0625780D01*
X0326363Y0646402D02*
X0327371Y0647409D01*
X0327916Y0648725D01*
X0327916Y0650150D01*
X0327371Y0651466D01*
X0326363Y0652474D01*
X0325047Y0653019D01*
X0323622Y0653019D01*
X0322306Y0652474D01*
X0321299Y0651466D01*
X0320754Y0650150D01*
X0320754Y0648725D01*
X0321299Y0647409D01*
X0322306Y0646402D01*
X0323622Y0645857D01*
X0325047Y0645857D01*
X0326363Y0646402D01*
X0326522Y0646560D02*
X0363486Y0646560D01*
X0363645Y0646402D02*
X0364961Y0645857D01*
X0366386Y0645857D01*
X0367702Y0646402D01*
X0368709Y0647409D01*
X0369254Y0648725D01*
X0369254Y0650150D01*
X0368709Y0651466D01*
X0367702Y0652474D01*
X0366386Y0653019D01*
X0364961Y0653019D01*
X0363645Y0652474D01*
X0362637Y0651466D01*
X0362092Y0650150D01*
X0362092Y0648725D01*
X0362637Y0647409D01*
X0363645Y0646402D01*
X0362327Y0648159D02*
X0327681Y0648159D01*
X0327916Y0649757D02*
X0362092Y0649757D01*
X0362592Y0651356D02*
X0327416Y0651356D01*
X0325202Y0652954D02*
X0364805Y0652954D01*
X0366541Y0652954D02*
X0379809Y0652954D01*
X0379809Y0652662D02*
X0380354Y0651346D01*
X0381361Y0650339D01*
X0382677Y0649794D01*
X0384102Y0649794D01*
X0385418Y0650339D01*
X0386426Y0651346D01*
X0386971Y0652662D01*
X0386971Y0654087D01*
X0386426Y0655403D01*
X0385418Y0656411D01*
X0384102Y0656956D01*
X0382677Y0656956D01*
X0381361Y0656411D01*
X0380354Y0655403D01*
X0379809Y0654087D01*
X0379809Y0652662D01*
X0380350Y0651356D02*
X0368755Y0651356D01*
X0369254Y0649757D02*
X0444552Y0649757D01*
X0444549Y0648159D02*
X0369020Y0648159D01*
X0367860Y0646560D02*
X0444546Y0646560D01*
X0444543Y0644962D02*
X0212756Y0644962D01*
X0212809Y0644984D02*
X0214300Y0646475D01*
X0215107Y0648423D01*
X0215107Y0650531D01*
X0214300Y0652479D01*
X0212809Y0653970D01*
X0210861Y0654777D01*
X0208753Y0654777D01*
X0206805Y0653970D01*
X0205314Y0652479D01*
X0204507Y0650531D01*
X0204507Y0648423D01*
X0205314Y0646475D01*
X0206805Y0644984D01*
X0208753Y0644177D01*
X0210861Y0644177D01*
X0212809Y0644984D01*
X0214336Y0646560D02*
X0322148Y0646560D01*
X0320988Y0648159D02*
X0214998Y0648159D01*
X0215107Y0649757D02*
X0320754Y0649757D01*
X0321253Y0651356D02*
X0214766Y0651356D01*
X0213825Y0652954D02*
X0323467Y0652954D01*
X0317173Y0673416D02*
X0318489Y0673961D01*
X0319497Y0674968D01*
X0320042Y0676285D01*
X0320042Y0677709D01*
X0319497Y0679025D01*
X0318489Y0680033D01*
X0317173Y0680578D01*
X0315748Y0680578D01*
X0314432Y0680033D01*
X0313425Y0679025D01*
X0312880Y0677709D01*
X0312880Y0676285D01*
X0313425Y0674968D01*
X0314432Y0673961D01*
X0315748Y0673416D01*
X0317173Y0673416D01*
X0317944Y0673735D02*
X0392780Y0673735D01*
X0393172Y0674127D02*
X0392165Y0673120D01*
X0391620Y0671804D01*
X0391620Y0670379D01*
X0392165Y0669063D01*
X0393172Y0668055D01*
X0394488Y0667510D01*
X0395913Y0667510D01*
X0397229Y0668055D01*
X0398237Y0669063D01*
X0398782Y0670379D01*
X0398782Y0671804D01*
X0398237Y0673120D01*
X0397229Y0674127D01*
X0395913Y0674672D01*
X0394488Y0674672D01*
X0393172Y0674127D01*
X0391758Y0672137D02*
X0284521Y0672137D01*
X0284609Y0672348D02*
X0284063Y0671031D01*
X0283056Y0670024D01*
X0281740Y0669479D01*
X0280315Y0669479D01*
X0278999Y0670024D01*
X0277992Y0671031D01*
X0277446Y0672348D01*
X0277446Y0673772D01*
X0277992Y0675088D01*
X0278999Y0676096D01*
X0280315Y0676641D01*
X0281740Y0676641D01*
X0283056Y0676096D01*
X0284063Y0675088D01*
X0284609Y0673772D01*
X0284609Y0672348D01*
X0284609Y0673735D02*
X0314977Y0673735D01*
X0313273Y0675334D02*
X0283818Y0675334D01*
X0283570Y0670538D02*
X0364485Y0670538D01*
X0364961Y0670735D02*
X0363645Y0670190D01*
X0362637Y0669183D01*
X0362092Y0667867D01*
X0362092Y0666442D01*
X0362637Y0665126D01*
X0363645Y0664118D01*
X0364961Y0663573D01*
X0366386Y0663573D01*
X0367702Y0664118D01*
X0368709Y0665126D01*
X0369254Y0666442D01*
X0369254Y0667867D01*
X0368709Y0669183D01*
X0367702Y0670190D01*
X0366386Y0670735D01*
X0364961Y0670735D01*
X0366862Y0670538D02*
X0391620Y0670538D01*
X0392288Y0668940D02*
X0368810Y0668940D01*
X0369254Y0667341D02*
X0444583Y0667341D01*
X0444581Y0665743D02*
X0368965Y0665743D01*
X0367727Y0664144D02*
X0402874Y0664144D01*
X0403015Y0664285D02*
X0402007Y0663277D01*
X0401462Y0661961D01*
X0401462Y0660536D01*
X0402007Y0659220D01*
X0403015Y0658213D01*
X0404331Y0657668D01*
X0405756Y0657668D01*
X0407072Y0658213D01*
X0408079Y0659220D01*
X0408624Y0660536D01*
X0408624Y0661961D01*
X0408079Y0663277D01*
X0407072Y0664285D01*
X0405756Y0664830D01*
X0404331Y0664830D01*
X0403015Y0664285D01*
X0401704Y0662546D02*
X0300377Y0662546D01*
X0300461Y0662342D02*
X0299655Y0664290D01*
X0298164Y0665781D01*
X0296216Y0666588D01*
X0294107Y0666588D01*
X0292159Y0665781D01*
X0290668Y0664290D01*
X0289861Y0662342D01*
X0289861Y0660234D01*
X0290668Y0658286D01*
X0292159Y0656795D01*
X0294107Y0655988D01*
X0296216Y0655988D01*
X0298164Y0656795D01*
X0299655Y0658286D01*
X0300461Y0660234D01*
X0300461Y0662342D01*
X0300461Y0660947D02*
X0401462Y0660947D01*
X0401954Y0659349D02*
X0300095Y0659349D01*
X0299119Y0657750D02*
X0404132Y0657750D01*
X0405954Y0657750D02*
X0444566Y0657750D01*
X0444563Y0656152D02*
X0385677Y0656152D01*
X0386778Y0654553D02*
X0444560Y0654553D01*
X0444558Y0652954D02*
X0386971Y0652954D01*
X0386430Y0651356D02*
X0444555Y0651356D01*
X0444569Y0659349D02*
X0408132Y0659349D01*
X0408624Y0660947D02*
X0444572Y0660947D01*
X0444575Y0662546D02*
X0408382Y0662546D01*
X0407212Y0664144D02*
X0444578Y0664144D01*
X0444586Y0668940D02*
X0435382Y0668940D01*
X0434619Y0668624D02*
X0436163Y0669263D01*
X0437344Y0670445D01*
X0437983Y0671988D01*
X0437983Y0673659D01*
X0437344Y0675203D01*
X0436163Y0676384D01*
X0434619Y0677024D01*
X0432948Y0677024D01*
X0431404Y0676384D01*
X0430223Y0675203D01*
X0429583Y0673659D01*
X0429583Y0671988D01*
X0430223Y0670445D01*
X0431404Y0669263D01*
X0432948Y0668624D01*
X0434619Y0668624D01*
X0432185Y0668940D02*
X0398113Y0668940D01*
X0398782Y0670538D02*
X0430184Y0670538D01*
X0429583Y0672137D02*
X0398644Y0672137D01*
X0397621Y0673735D02*
X0429615Y0673735D01*
X0430354Y0675334D02*
X0319648Y0675334D01*
X0320042Y0676932D02*
X0360673Y0676932D01*
X0360669Y0676937D02*
X0361676Y0675929D01*
X0362992Y0675384D01*
X0364417Y0675384D01*
X0365733Y0675929D01*
X0366741Y0676937D01*
X0367286Y0678253D01*
X0367286Y0679678D01*
X0366741Y0680994D01*
X0365733Y0682001D01*
X0364417Y0682546D01*
X0362992Y0682546D01*
X0361676Y0682001D01*
X0361038Y0681363D01*
X0361380Y0682190D01*
X0361380Y0683615D01*
X0360835Y0684931D01*
X0359828Y0685938D01*
X0358512Y0686483D01*
X0357087Y0686483D01*
X0355771Y0685938D01*
X0354763Y0684931D01*
X0354218Y0683615D01*
X0354218Y0682190D01*
X0354763Y0680874D01*
X0355771Y0679866D01*
X0357087Y0679321D01*
X0358512Y0679321D01*
X0359828Y0679866D01*
X0360466Y0680505D01*
X0360124Y0679678D01*
X0360124Y0678253D01*
X0360669Y0676937D01*
X0360124Y0678531D02*
X0319701Y0678531D01*
X0318256Y0680129D02*
X0355508Y0680129D01*
X0354410Y0681728D02*
X0300304Y0681728D01*
X0300304Y0680706D02*
X0299497Y0678758D01*
X0298006Y0677268D01*
X0296058Y0676461D01*
X0293950Y0676461D01*
X0292002Y0677268D01*
X0290511Y0678758D01*
X0289704Y0680706D01*
X0289704Y0682815D01*
X0290511Y0684763D01*
X0292002Y0686254D01*
X0293950Y0687061D01*
X0296058Y0687061D01*
X0298006Y0686254D01*
X0299497Y0684763D01*
X0300304Y0682815D01*
X0300304Y0680706D01*
X0300065Y0680129D02*
X0314665Y0680129D01*
X0313220Y0678531D02*
X0299269Y0678531D01*
X0297197Y0676932D02*
X0312880Y0676932D01*
X0300092Y0683326D02*
X0354218Y0683326D01*
X0354761Y0684925D02*
X0299335Y0684925D01*
X0297356Y0686523D02*
X0431740Y0686523D01*
X0431404Y0686384D02*
X0430223Y0685203D01*
X0429583Y0683659D01*
X0429583Y0681988D01*
X0430223Y0680445D01*
X0431404Y0679263D01*
X0432948Y0678624D01*
X0434619Y0678624D01*
X0436163Y0679263D01*
X0437344Y0680445D01*
X0437983Y0681988D01*
X0437983Y0683659D01*
X0437344Y0685203D01*
X0436163Y0686384D01*
X0434619Y0687024D01*
X0432948Y0687024D01*
X0431404Y0686384D01*
X0430108Y0684925D02*
X0360838Y0684925D01*
X0361380Y0683326D02*
X0429583Y0683326D01*
X0429691Y0681728D02*
X0366007Y0681728D01*
X0367099Y0680129D02*
X0430538Y0680129D01*
X0432727Y0676932D02*
X0366736Y0676932D01*
X0367286Y0678531D02*
X0444604Y0678531D01*
X0444607Y0680129D02*
X0437029Y0680129D01*
X0437876Y0681728D02*
X0444609Y0681728D01*
X0444612Y0683326D02*
X0437983Y0683326D01*
X0437459Y0684925D02*
X0444615Y0684925D01*
X0444618Y0686523D02*
X0435827Y0686523D01*
X0444621Y0688122D02*
X0219545Y0688122D01*
X0220064Y0687907D02*
X0218748Y0688452D01*
X0217323Y0688452D01*
X0216007Y0687907D01*
X0215000Y0686899D01*
X0214454Y0685583D01*
X0214454Y0684159D01*
X0215000Y0682842D01*
X0216007Y0681835D01*
X0217323Y0681290D01*
X0218748Y0681290D01*
X0220064Y0681835D01*
X0221071Y0682842D01*
X0221617Y0684159D01*
X0221617Y0685583D01*
X0221071Y0686899D01*
X0220064Y0687907D01*
X0221227Y0686523D02*
X0292652Y0686523D01*
X0290673Y0684925D02*
X0221617Y0684925D01*
X0221272Y0683326D02*
X0289916Y0683326D01*
X0289704Y0681728D02*
X0219805Y0681728D01*
X0216266Y0681728D02*
X0174181Y0681728D01*
X0174372Y0682190D02*
X0173827Y0680874D01*
X0172820Y0679866D01*
X0171504Y0679321D01*
X0170079Y0679321D01*
X0168763Y0679866D01*
X0167755Y0680874D01*
X0167210Y0682190D01*
X0167210Y0683615D01*
X0167755Y0684931D01*
X0168763Y0685938D01*
X0170079Y0686483D01*
X0171504Y0686483D01*
X0172820Y0685938D01*
X0173827Y0684931D01*
X0174372Y0683615D01*
X0174372Y0682190D01*
X0174372Y0683326D02*
X0214799Y0683326D01*
X0214454Y0684925D02*
X0173830Y0684925D01*
X0173083Y0680129D02*
X0289943Y0680129D01*
X0290739Y0678531D02*
X0132222Y0678531D01*
X0131859Y0677656D02*
X0132666Y0679604D01*
X0132666Y0681713D01*
X0131859Y0683660D01*
X0130368Y0685151D01*
X0128420Y0685958D01*
X0126312Y0685958D01*
X0124364Y0685151D01*
X0122873Y0683660D01*
X0122066Y0681713D01*
X0122066Y0679604D01*
X0122873Y0677656D01*
X0124364Y0676165D01*
X0126312Y0675358D01*
X0128420Y0675358D01*
X0130368Y0676165D01*
X0131859Y0677656D01*
X0131135Y0676932D02*
X0292811Y0676932D01*
X0292120Y0665743D02*
X0233428Y0665743D01*
X0233428Y0665898D02*
X0232882Y0667214D01*
X0231875Y0668222D01*
X0230559Y0668767D01*
X0229134Y0668767D01*
X0227818Y0668222D01*
X0226811Y0667214D01*
X0226265Y0665898D01*
X0226265Y0664473D01*
X0226811Y0663157D01*
X0227818Y0662150D01*
X0229134Y0661605D01*
X0230559Y0661605D01*
X0231875Y0662150D01*
X0232882Y0663157D01*
X0233428Y0664473D01*
X0233428Y0665898D01*
X0232756Y0667341D02*
X0362092Y0667341D01*
X0362382Y0665743D02*
X0298202Y0665743D01*
X0299715Y0664144D02*
X0363619Y0664144D01*
X0362537Y0668940D02*
X0189676Y0668940D01*
X0189575Y0669183D02*
X0188568Y0670190D01*
X0187252Y0670735D01*
X0185827Y0670735D01*
X0184511Y0670190D01*
X0183503Y0669183D01*
X0182958Y0667867D01*
X0182958Y0666442D01*
X0183503Y0665126D01*
X0184511Y0664118D01*
X0185827Y0663573D01*
X0187252Y0663573D01*
X0188568Y0664118D01*
X0189575Y0665126D01*
X0190120Y0666442D01*
X0190120Y0667867D01*
X0189575Y0669183D01*
X0190120Y0667341D02*
X0226937Y0667341D01*
X0226265Y0665743D02*
X0189831Y0665743D01*
X0188594Y0664144D02*
X0226402Y0664144D01*
X0227422Y0662546D02*
X0117044Y0662546D01*
X0117286Y0661961D02*
X0116741Y0663277D01*
X0115733Y0664285D01*
X0114417Y0664830D01*
X0112992Y0664830D01*
X0111676Y0664285D01*
X0110669Y0663277D01*
X0110124Y0661961D01*
X0110124Y0660536D01*
X0110669Y0659220D01*
X0111676Y0658213D01*
X0112992Y0657668D01*
X0114417Y0657668D01*
X0115733Y0658213D01*
X0116741Y0659220D01*
X0117286Y0660536D01*
X0117286Y0661961D01*
X0117286Y0660947D02*
X0289861Y0660947D01*
X0289946Y0662546D02*
X0232271Y0662546D01*
X0233291Y0664144D02*
X0290608Y0664144D01*
X0290228Y0659349D02*
X0116794Y0659349D01*
X0114616Y0657750D02*
X0291204Y0657750D01*
X0293713Y0656152D02*
X0087719Y0656152D01*
X0087758Y0656056D02*
X0087213Y0657372D01*
X0086206Y0658379D01*
X0084889Y0658924D01*
X0083465Y0658924D01*
X0082149Y0658379D01*
X0081141Y0657372D01*
X0080596Y0656056D01*
X0080596Y0654631D01*
X0081141Y0653315D01*
X0082149Y0652307D01*
X0083465Y0651762D01*
X0084889Y0651762D01*
X0086206Y0652307D01*
X0087213Y0653315D01*
X0087758Y0654631D01*
X0087758Y0656056D01*
X0087726Y0654553D02*
X0145573Y0654553D01*
X0144795Y0654231D02*
X0143557Y0652993D01*
X0142887Y0651376D01*
X0142887Y0649626D01*
X0143557Y0648008D01*
X0144795Y0646771D01*
X0146412Y0646101D01*
X0148163Y0646101D01*
X0149780Y0646771D01*
X0151018Y0648008D01*
X0151687Y0649626D01*
X0151687Y0651376D01*
X0151018Y0652993D01*
X0149780Y0654231D01*
X0148163Y0654901D01*
X0146412Y0654901D01*
X0144795Y0654231D01*
X0143541Y0652954D02*
X0086853Y0652954D01*
X0086835Y0657750D02*
X0112794Y0657750D01*
X0110616Y0659349D02*
X0054081Y0659349D01*
X0054081Y0660947D02*
X0110124Y0660947D01*
X0110366Y0662546D02*
X0108255Y0662546D01*
X0107859Y0662150D02*
X0108867Y0663157D01*
X0109412Y0664473D01*
X0109412Y0665898D01*
X0108867Y0667214D01*
X0107859Y0668222D01*
X0106543Y0668767D01*
X0105118Y0668767D01*
X0103802Y0668222D01*
X0102795Y0667214D01*
X0102250Y0665898D01*
X0102250Y0664473D01*
X0102795Y0663157D01*
X0103802Y0662150D01*
X0105118Y0661605D01*
X0106543Y0661605D01*
X0107859Y0662150D01*
X0109275Y0664144D02*
X0111536Y0664144D01*
X0109412Y0665743D02*
X0183248Y0665743D01*
X0182958Y0667341D02*
X0108740Y0667341D01*
X0102922Y0667341D02*
X0054081Y0667341D01*
X0054081Y0665743D02*
X0102250Y0665743D01*
X0102386Y0664144D02*
X0054081Y0664144D01*
X0054081Y0662546D02*
X0103407Y0662546D01*
X0115874Y0664144D02*
X0184485Y0664144D01*
X0183403Y0668940D02*
X0054081Y0668940D01*
X0054081Y0670538D02*
X0185351Y0670538D01*
X0187728Y0670538D02*
X0278485Y0670538D01*
X0277534Y0672137D02*
X0054081Y0672137D01*
X0054081Y0673735D02*
X0277446Y0673735D01*
X0278237Y0675334D02*
X0054081Y0675334D01*
X0054081Y0676932D02*
X0098862Y0676932D01*
X0098881Y0676914D02*
X0100197Y0676369D01*
X0101622Y0676369D01*
X0102938Y0676914D01*
X0103945Y0677921D01*
X0104491Y0679237D01*
X0104491Y0680662D01*
X0103945Y0681978D01*
X0102938Y0682986D01*
X0101622Y0683531D01*
X0100197Y0683531D01*
X0098881Y0682986D01*
X0097874Y0681978D01*
X0097328Y0680662D01*
X0097328Y0679237D01*
X0097874Y0677921D01*
X0098881Y0676914D01*
X0097621Y0678531D02*
X0054081Y0678531D01*
X0054081Y0680129D02*
X0097328Y0680129D01*
X0097770Y0681728D02*
X0064293Y0681728D01*
X0064552Y0681835D02*
X0065560Y0682842D01*
X0066105Y0684159D01*
X0066105Y0685583D01*
X0065560Y0686899D01*
X0064552Y0687907D01*
X0063236Y0688452D01*
X0061811Y0688452D01*
X0060495Y0687907D01*
X0059488Y0686899D01*
X0058943Y0685583D01*
X0058943Y0684159D01*
X0059488Y0682842D01*
X0060495Y0681835D01*
X0061811Y0681290D01*
X0063236Y0681290D01*
X0064552Y0681835D01*
X0065760Y0683326D02*
X0099703Y0683326D01*
X0102115Y0683326D02*
X0122735Y0683326D01*
X0122072Y0681728D02*
X0104049Y0681728D01*
X0104491Y0680129D02*
X0122066Y0680129D01*
X0122511Y0678531D02*
X0104198Y0678531D01*
X0102956Y0676932D02*
X0123597Y0676932D01*
X0124137Y0684925D02*
X0066105Y0684925D01*
X0065715Y0686523D02*
X0155392Y0686523D01*
X0154795Y0686771D02*
X0156412Y0686101D01*
X0158163Y0686101D01*
X0159780Y0686771D01*
X0161018Y0688008D01*
X0161687Y0689626D01*
X0161687Y0691376D01*
X0161018Y0692993D01*
X0159780Y0694231D01*
X0158163Y0694901D01*
X0156412Y0694901D01*
X0154795Y0694231D01*
X0153557Y0692993D01*
X0152887Y0691376D01*
X0152887Y0689626D01*
X0153557Y0688008D01*
X0154795Y0686771D01*
X0153510Y0688122D02*
X0064033Y0688122D01*
X0061014Y0688122D02*
X0054081Y0688122D01*
X0054081Y0689720D02*
X0152887Y0689720D01*
X0152887Y0691319D02*
X0054081Y0691319D01*
X0054081Y0692917D02*
X0089383Y0692917D01*
X0089758Y0692543D02*
X0091706Y0691736D01*
X0093814Y0691736D01*
X0095762Y0692543D01*
X0097253Y0694034D01*
X0098060Y0695982D01*
X0098060Y0698090D01*
X0097253Y0700038D01*
X0095762Y0701529D01*
X0093814Y0702336D01*
X0091706Y0702336D01*
X0089758Y0701529D01*
X0088267Y0700038D01*
X0087460Y0698090D01*
X0087460Y0695982D01*
X0088267Y0694034D01*
X0089758Y0692543D01*
X0088067Y0694516D02*
X0054081Y0694516D01*
X0054081Y0696114D02*
X0087460Y0696114D01*
X0087460Y0697713D02*
X0054081Y0697713D01*
X0054081Y0699311D02*
X0087966Y0699311D01*
X0089138Y0700910D02*
X0054081Y0700910D01*
X0054081Y0702508D02*
X0337066Y0702508D01*
X0337047Y0702527D02*
X0338054Y0701520D01*
X0339370Y0700975D01*
X0340795Y0700975D01*
X0342111Y0701520D01*
X0343119Y0702527D01*
X0343664Y0703844D01*
X0343664Y0705268D01*
X0343119Y0706584D01*
X0342111Y0707592D01*
X0340795Y0708137D01*
X0339370Y0708137D01*
X0338054Y0707592D01*
X0337047Y0706584D01*
X0336502Y0705268D01*
X0336502Y0703844D01*
X0337047Y0702527D01*
X0336502Y0704107D02*
X0054081Y0704107D01*
X0054081Y0705705D02*
X0336683Y0705705D01*
X0337766Y0707304D02*
X0054081Y0707304D01*
X0054081Y0708902D02*
X0444658Y0708902D01*
X0444655Y0707304D02*
X0342399Y0707304D01*
X0343483Y0705705D02*
X0444653Y0705705D01*
X0444650Y0704107D02*
X0343664Y0704107D01*
X0343100Y0702508D02*
X0444647Y0702508D01*
X0444644Y0700910D02*
X0413754Y0700910D01*
X0413985Y0700679D02*
X0412977Y0701686D01*
X0411661Y0702231D01*
X0410236Y0702231D01*
X0408920Y0701686D01*
X0407913Y0700679D01*
X0407368Y0699363D01*
X0407368Y0697938D01*
X0407913Y0696622D01*
X0408920Y0695614D01*
X0410236Y0695069D01*
X0411661Y0695069D01*
X0412977Y0695614D01*
X0413985Y0696622D01*
X0414530Y0697938D01*
X0414530Y0699363D01*
X0413985Y0700679D01*
X0414530Y0699311D02*
X0444641Y0699311D01*
X0444638Y0697713D02*
X0414437Y0697713D01*
X0413477Y0696114D02*
X0444635Y0696114D01*
X0444632Y0694516D02*
X0159092Y0694516D01*
X0158920Y0695614D02*
X0160236Y0695069D01*
X0161661Y0695069D01*
X0162977Y0695614D01*
X0163985Y0696622D01*
X0164530Y0697938D01*
X0164530Y0699363D01*
X0163985Y0700679D01*
X0162977Y0701686D01*
X0161661Y0702231D01*
X0160236Y0702231D01*
X0158920Y0701686D01*
X0157913Y0700679D01*
X0157368Y0699363D01*
X0157368Y0697938D01*
X0157913Y0696622D01*
X0158920Y0695614D01*
X0158420Y0696114D02*
X0098060Y0696114D01*
X0098060Y0697713D02*
X0157461Y0697713D01*
X0157368Y0699311D02*
X0097554Y0699311D01*
X0096382Y0700910D02*
X0158144Y0700910D01*
X0163754Y0700910D02*
X0173892Y0700910D01*
X0173661Y0700679D02*
X0173116Y0699363D01*
X0173116Y0697938D01*
X0173661Y0696622D01*
X0174668Y0695614D01*
X0175985Y0695069D01*
X0177409Y0695069D01*
X0178725Y0695614D01*
X0179733Y0696622D01*
X0180278Y0697938D01*
X0180278Y0699363D01*
X0179733Y0700679D01*
X0178725Y0701686D01*
X0177409Y0702231D01*
X0175985Y0702231D01*
X0174668Y0701686D01*
X0173661Y0700679D01*
X0173116Y0699311D02*
X0164530Y0699311D01*
X0164437Y0697713D02*
X0173209Y0697713D01*
X0174169Y0696114D02*
X0163477Y0696114D01*
X0161049Y0692917D02*
X0444630Y0692917D01*
X0444627Y0691319D02*
X0161687Y0691319D01*
X0161687Y0689720D02*
X0444624Y0689720D01*
X0444601Y0676932D02*
X0434840Y0676932D01*
X0437213Y0675334D02*
X0444598Y0675334D01*
X0444595Y0673735D02*
X0437952Y0673735D01*
X0437983Y0672137D02*
X0444592Y0672137D01*
X0444589Y0670538D02*
X0437383Y0670538D01*
X0444540Y0643363D02*
X0054081Y0643363D01*
X0054081Y0641765D02*
X0444537Y0641765D01*
X0444534Y0640166D02*
X0054081Y0640166D01*
X0054081Y0638568D02*
X0444532Y0638568D01*
X0444529Y0636969D02*
X0054081Y0636969D01*
X0054081Y0635371D02*
X0444526Y0635371D01*
X0444523Y0633772D02*
X0054081Y0633772D01*
X0054081Y0632174D02*
X0444520Y0632174D01*
X0408420Y0696114D02*
X0179225Y0696114D01*
X0180185Y0697713D02*
X0407461Y0697713D01*
X0407368Y0699311D02*
X0180278Y0699311D01*
X0179502Y0700910D02*
X0408144Y0700910D01*
X0381102Y0656152D02*
X0296610Y0656152D01*
X0299574Y0600204D02*
X0313391Y0600204D01*
X0312880Y0598605D02*
X0298084Y0598605D01*
X0291348Y0507490D02*
X0233428Y0507490D01*
X0232971Y0505891D02*
X0290288Y0505891D01*
X0277169Y0405422D02*
X0277091Y0405343D01*
X0290290Y0384405D02*
X0356848Y0384405D01*
X0355935Y0382806D02*
X0289145Y0382806D01*
X0290656Y0312472D02*
X0132256Y0312472D01*
X0132666Y0314070D02*
X0168417Y0314070D01*
X0167368Y0315669D02*
X0132626Y0315669D01*
X0131963Y0317267D02*
X0167210Y0317267D01*
X0167832Y0318866D02*
X0130512Y0318866D01*
X0131218Y0310873D02*
X0292612Y0310873D01*
X0297396Y0310873D02*
X0312880Y0310873D01*
X0313239Y0309275D02*
X0283736Y0309275D01*
X0284590Y0307676D02*
X0314778Y0307676D01*
X0313254Y0312472D02*
X0299352Y0312472D01*
X0298058Y0299683D02*
X0362348Y0299683D01*
X0363536Y0298085D02*
X0299681Y0298085D01*
X0300343Y0296486D02*
X0401739Y0296486D01*
X0402007Y0297136D02*
X0401462Y0295819D01*
X0401462Y0294395D01*
X0402007Y0293079D01*
X0403015Y0292071D01*
X0404331Y0291526D01*
X0405756Y0291526D01*
X0407072Y0292071D01*
X0408079Y0293079D01*
X0408624Y0294395D01*
X0408624Y0295819D01*
X0408079Y0297136D01*
X0407072Y0298143D01*
X0405756Y0298688D01*
X0404331Y0298688D01*
X0403015Y0298143D01*
X0402007Y0297136D01*
X0402957Y0298085D02*
X0367810Y0298085D01*
X0368999Y0299683D02*
X0443921Y0299683D01*
X0443918Y0298085D02*
X0407130Y0298085D01*
X0408348Y0296486D02*
X0443915Y0296486D01*
X0443912Y0294888D02*
X0408624Y0294888D01*
X0408167Y0293289D02*
X0443909Y0293289D01*
X0443906Y0291691D02*
X0406154Y0291691D01*
X0403933Y0291691D02*
X0299201Y0291691D01*
X0300129Y0293289D02*
X0401920Y0293289D01*
X0401462Y0294888D02*
X0300461Y0294888D01*
X0321299Y0285325D02*
X0320754Y0284008D01*
X0320754Y0282584D01*
X0321299Y0281268D01*
X0322306Y0280260D01*
X0323622Y0279715D01*
X0325047Y0279715D01*
X0326363Y0280260D01*
X0327371Y0281268D01*
X0327916Y0282584D01*
X0327916Y0284008D01*
X0327371Y0285325D01*
X0326363Y0286332D01*
X0325047Y0286877D01*
X0323622Y0286877D01*
X0322306Y0286332D01*
X0321299Y0285325D01*
X0321287Y0285297D02*
X0214731Y0285297D01*
X0215107Y0283698D02*
X0320754Y0283698D01*
X0320954Y0282100D02*
X0215032Y0282100D01*
X0214370Y0280501D02*
X0322065Y0280501D01*
X0326604Y0280501D02*
X0363403Y0280501D01*
X0363645Y0280260D02*
X0364961Y0279715D01*
X0366386Y0279715D01*
X0367702Y0280260D01*
X0368709Y0281268D01*
X0369254Y0282584D01*
X0369254Y0284008D01*
X0368709Y0285325D01*
X0367702Y0286332D01*
X0366386Y0286877D01*
X0364961Y0286877D01*
X0363645Y0286332D01*
X0362637Y0285325D01*
X0362092Y0284008D01*
X0362092Y0282584D01*
X0362637Y0281268D01*
X0363645Y0280260D01*
X0362293Y0282100D02*
X0327715Y0282100D01*
X0327916Y0283698D02*
X0362092Y0283698D01*
X0362626Y0285297D02*
X0327382Y0285297D01*
X0338054Y0270584D02*
X0337047Y0269577D01*
X0336502Y0268260D01*
X0336502Y0266836D01*
X0337047Y0265520D01*
X0338054Y0264512D01*
X0339370Y0263967D01*
X0340795Y0263967D01*
X0342111Y0264512D01*
X0343119Y0265520D01*
X0343664Y0266836D01*
X0343664Y0268260D01*
X0343119Y0269577D01*
X0342111Y0270584D01*
X0340795Y0271129D01*
X0339370Y0271129D01*
X0338054Y0270584D01*
X0338842Y0270910D02*
X0054081Y0270910D01*
X0054081Y0269312D02*
X0336937Y0269312D01*
X0336502Y0267713D02*
X0054081Y0267713D01*
X0054081Y0266115D02*
X0336800Y0266115D01*
X0338050Y0264516D02*
X0178888Y0264516D01*
X0178725Y0264678D02*
X0177409Y0265224D01*
X0175985Y0265224D01*
X0174668Y0264678D01*
X0173661Y0263671D01*
X0173116Y0262355D01*
X0173116Y0260930D01*
X0173661Y0259614D01*
X0174668Y0258607D01*
X0175985Y0258061D01*
X0177409Y0258061D01*
X0178725Y0258607D01*
X0179733Y0259614D01*
X0180278Y0260930D01*
X0180278Y0262355D01*
X0179733Y0263671D01*
X0178725Y0264678D01*
X0180045Y0262918D02*
X0407601Y0262918D01*
X0407368Y0262355D02*
X0407368Y0260930D01*
X0407913Y0259614D01*
X0408920Y0258607D01*
X0410236Y0258061D01*
X0411661Y0258061D01*
X0412977Y0258607D01*
X0413985Y0259614D01*
X0414530Y0260930D01*
X0414530Y0262355D01*
X0413985Y0263671D01*
X0412977Y0264678D01*
X0411661Y0265224D01*
X0410236Y0265224D01*
X0408920Y0264678D01*
X0407913Y0263671D01*
X0407368Y0262355D01*
X0407368Y0261319D02*
X0180278Y0261319D01*
X0179777Y0259721D02*
X0407869Y0259721D01*
X0410090Y0258122D02*
X0177556Y0258122D01*
X0175838Y0258122D02*
X0161808Y0258122D01*
X0161661Y0258061D02*
X0162977Y0258607D01*
X0163985Y0259614D01*
X0164530Y0260930D01*
X0164530Y0262355D01*
X0163985Y0263671D01*
X0162977Y0264678D01*
X0161661Y0265224D01*
X0160236Y0265224D01*
X0158920Y0264678D01*
X0157913Y0263671D01*
X0157368Y0262355D01*
X0157368Y0260930D01*
X0157913Y0259614D01*
X0158920Y0258607D01*
X0160236Y0258061D01*
X0161661Y0258061D01*
X0160090Y0258122D02*
X0097707Y0258122D01*
X0098060Y0258974D02*
X0097253Y0257026D01*
X0095762Y0255535D01*
X0093814Y0254728D01*
X0091706Y0254728D01*
X0089758Y0255535D01*
X0088267Y0257026D01*
X0087460Y0258974D01*
X0087460Y0261083D01*
X0088267Y0263031D01*
X0089758Y0264521D01*
X0091706Y0265328D01*
X0093814Y0265328D01*
X0095762Y0264521D01*
X0097253Y0263031D01*
X0098060Y0261083D01*
X0098060Y0258974D01*
X0098060Y0259721D02*
X0157869Y0259721D01*
X0157368Y0261319D02*
X0097962Y0261319D01*
X0097300Y0262918D02*
X0157601Y0262918D01*
X0158758Y0264516D02*
X0095767Y0264516D01*
X0089752Y0264516D02*
X0054081Y0264516D01*
X0054081Y0262918D02*
X0088220Y0262918D01*
X0087558Y0261319D02*
X0054081Y0261319D01*
X0054081Y0259721D02*
X0087460Y0259721D01*
X0087813Y0258122D02*
X0054081Y0258122D01*
X0054081Y0256524D02*
X0088769Y0256524D01*
X0091230Y0254925D02*
X0054081Y0254925D01*
X0054081Y0253327D02*
X0152887Y0253327D01*
X0152887Y0252618D02*
X0153557Y0251001D01*
X0154795Y0249763D01*
X0156412Y0249093D01*
X0158163Y0249093D01*
X0159780Y0249763D01*
X0161018Y0251001D01*
X0161687Y0252618D01*
X0161687Y0254368D01*
X0161018Y0255985D01*
X0159780Y0257223D01*
X0158163Y0257893D01*
X0156412Y0257893D01*
X0154795Y0257223D01*
X0153557Y0255985D01*
X0152887Y0254368D01*
X0152887Y0252618D01*
X0153256Y0251728D02*
X0054081Y0251728D01*
X0054081Y0250130D02*
X0059726Y0250130D01*
X0059488Y0249892D02*
X0058943Y0248575D01*
X0058943Y0247151D01*
X0059488Y0245834D01*
X0060495Y0244827D01*
X0061811Y0244282D01*
X0063236Y0244282D01*
X0064552Y0244827D01*
X0065560Y0245834D01*
X0066105Y0247151D01*
X0066105Y0248575D01*
X0065560Y0249892D01*
X0064552Y0250899D01*
X0063236Y0251444D01*
X0061811Y0251444D01*
X0060495Y0250899D01*
X0059488Y0249892D01*
X0058943Y0248531D02*
X0054081Y0248531D01*
X0054081Y0246933D02*
X0059033Y0246933D01*
X0059988Y0245334D02*
X0054081Y0245334D01*
X0054081Y0243736D02*
X0097362Y0243736D01*
X0097328Y0243654D02*
X0097328Y0242229D01*
X0097874Y0240913D01*
X0098881Y0239906D01*
X0100197Y0239361D01*
X0101622Y0239361D01*
X0102938Y0239906D01*
X0103945Y0240913D01*
X0104491Y0242229D01*
X0104491Y0243654D01*
X0103945Y0244970D01*
X0102938Y0245978D01*
X0101622Y0246523D01*
X0100197Y0246523D01*
X0098881Y0245978D01*
X0097874Y0244970D01*
X0097328Y0243654D01*
X0097367Y0242137D02*
X0054081Y0242137D01*
X0054081Y0240539D02*
X0098248Y0240539D01*
X0098237Y0245334D02*
X0065059Y0245334D01*
X0066014Y0246933D02*
X0123153Y0246933D01*
X0122873Y0246653D02*
X0122066Y0244705D01*
X0122066Y0242596D01*
X0122873Y0240648D01*
X0124364Y0239157D01*
X0126312Y0238350D01*
X0128420Y0238350D01*
X0130368Y0239157D01*
X0131859Y0240648D01*
X0132666Y0242596D01*
X0132666Y0244705D01*
X0131859Y0246653D01*
X0130368Y0248144D01*
X0128420Y0248950D01*
X0126312Y0248950D01*
X0124364Y0248144D01*
X0122873Y0246653D01*
X0122327Y0245334D02*
X0103581Y0245334D01*
X0104457Y0243736D02*
X0122066Y0243736D01*
X0122256Y0242137D02*
X0104452Y0242137D01*
X0103571Y0240539D02*
X0122983Y0240539D01*
X0124888Y0238940D02*
X0054081Y0238940D01*
X0054081Y0237342D02*
X0277686Y0237342D01*
X0277446Y0236764D02*
X0277446Y0235340D01*
X0277992Y0234023D01*
X0278999Y0233016D01*
X0280315Y0232471D01*
X0281740Y0232471D01*
X0283056Y0233016D01*
X0284063Y0234023D01*
X0284609Y0235340D01*
X0284609Y0236764D01*
X0284063Y0238080D01*
X0283056Y0239088D01*
X0281740Y0239633D01*
X0280315Y0239633D01*
X0278999Y0239088D01*
X0277992Y0238080D01*
X0277446Y0236764D01*
X0277446Y0235743D02*
X0054081Y0235743D01*
X0054081Y0234145D02*
X0277941Y0234145D01*
X0280134Y0232546D02*
X0189204Y0232546D01*
X0189575Y0232175D02*
X0188568Y0233182D01*
X0187252Y0233728D01*
X0185827Y0233728D01*
X0184511Y0233182D01*
X0183503Y0232175D01*
X0182958Y0230859D01*
X0182958Y0229434D01*
X0183503Y0228118D01*
X0184511Y0227111D01*
X0185827Y0226565D01*
X0187252Y0226565D01*
X0188568Y0227111D01*
X0189575Y0228118D01*
X0190120Y0229434D01*
X0190120Y0230859D01*
X0189575Y0232175D01*
X0190084Y0230948D02*
X0227552Y0230948D01*
X0227818Y0231214D02*
X0226811Y0230206D01*
X0226265Y0228890D01*
X0226265Y0227466D01*
X0226811Y0226149D01*
X0227818Y0225142D01*
X0229134Y0224597D01*
X0230559Y0224597D01*
X0231875Y0225142D01*
X0232882Y0226149D01*
X0233428Y0227466D01*
X0233428Y0228890D01*
X0232882Y0230206D01*
X0231875Y0231214D01*
X0230559Y0231759D01*
X0229134Y0231759D01*
X0227818Y0231214D01*
X0226455Y0229349D02*
X0190085Y0229349D01*
X0189208Y0227750D02*
X0226265Y0227750D01*
X0226809Y0226152D02*
X0116789Y0226152D01*
X0116741Y0226269D02*
X0115733Y0227277D01*
X0114417Y0227822D01*
X0112992Y0227822D01*
X0111676Y0227277D01*
X0110669Y0226269D01*
X0110124Y0224953D01*
X0110124Y0223529D01*
X0110669Y0222212D01*
X0111676Y0221205D01*
X0112992Y0220660D01*
X0114417Y0220660D01*
X0115733Y0221205D01*
X0116741Y0222212D01*
X0117286Y0223529D01*
X0117286Y0224953D01*
X0116741Y0226269D01*
X0117286Y0224553D02*
X0289861Y0224553D01*
X0289861Y0225335D02*
X0289861Y0223226D01*
X0290668Y0221278D01*
X0292159Y0219787D01*
X0294107Y0218980D01*
X0296216Y0218980D01*
X0298164Y0219787D01*
X0299655Y0221278D01*
X0300461Y0223226D01*
X0300461Y0225335D01*
X0299655Y0227283D01*
X0298164Y0228773D01*
X0296216Y0229580D01*
X0294107Y0229580D01*
X0292159Y0228773D01*
X0290668Y0227283D01*
X0289861Y0225335D01*
X0290200Y0226152D02*
X0232883Y0226152D01*
X0233428Y0227750D02*
X0291136Y0227750D01*
X0293549Y0229349D02*
X0233238Y0229349D01*
X0232141Y0230948D02*
X0362129Y0230948D01*
X0362092Y0230859D02*
X0362092Y0229434D01*
X0362637Y0228118D01*
X0363645Y0227111D01*
X0364961Y0226565D01*
X0366386Y0226565D01*
X0367702Y0227111D01*
X0368709Y0228118D01*
X0369254Y0229434D01*
X0369254Y0230859D01*
X0368709Y0232175D01*
X0367702Y0233182D01*
X0366386Y0233728D01*
X0364961Y0233728D01*
X0363645Y0233182D01*
X0362637Y0232175D01*
X0362092Y0230859D01*
X0362127Y0229349D02*
X0296774Y0229349D01*
X0299187Y0227750D02*
X0363005Y0227750D01*
X0363008Y0232546D02*
X0281921Y0232546D01*
X0284114Y0234145D02*
X0391620Y0234145D01*
X0391620Y0234796D02*
X0391620Y0233371D01*
X0392165Y0232055D01*
X0393172Y0231048D01*
X0394488Y0230502D01*
X0395913Y0230502D01*
X0397229Y0231048D01*
X0398237Y0232055D01*
X0398782Y0233371D01*
X0398782Y0234796D01*
X0398237Y0236112D01*
X0397229Y0237119D01*
X0395913Y0237665D01*
X0394488Y0237665D01*
X0393172Y0237119D01*
X0392165Y0236112D01*
X0391620Y0234796D01*
X0392012Y0235743D02*
X0284609Y0235743D01*
X0284370Y0237342D02*
X0314044Y0237342D01*
X0314432Y0236953D02*
X0315748Y0236408D01*
X0317173Y0236408D01*
X0318489Y0236953D01*
X0319497Y0237960D01*
X0320042Y0239277D01*
X0320042Y0240701D01*
X0319497Y0242017D01*
X0318489Y0243025D01*
X0317173Y0243570D01*
X0315748Y0243570D01*
X0314432Y0243025D01*
X0313425Y0242017D01*
X0312880Y0240701D01*
X0312880Y0239277D01*
X0313425Y0237960D01*
X0314432Y0236953D01*
X0313019Y0238940D02*
X0283204Y0238940D01*
X0278851Y0238940D02*
X0129844Y0238940D01*
X0131750Y0240539D02*
X0291723Y0240539D01*
X0292002Y0240260D02*
X0293950Y0239453D01*
X0296058Y0239453D01*
X0298006Y0240260D01*
X0299497Y0241751D01*
X0300304Y0243699D01*
X0300304Y0245807D01*
X0299497Y0247755D01*
X0298006Y0249246D01*
X0296058Y0250053D01*
X0293950Y0250053D01*
X0292002Y0249246D01*
X0290511Y0247755D01*
X0289704Y0245807D01*
X0289704Y0243699D01*
X0290511Y0241751D01*
X0292002Y0240260D01*
X0290351Y0242137D02*
X0132476Y0242137D01*
X0132666Y0243736D02*
X0167886Y0243736D01*
X0167755Y0243866D02*
X0168763Y0242859D01*
X0170079Y0242313D01*
X0171504Y0242313D01*
X0172820Y0242859D01*
X0173827Y0243866D01*
X0174372Y0245182D01*
X0174372Y0246607D01*
X0173827Y0247923D01*
X0172820Y0248930D01*
X0171504Y0249476D01*
X0170079Y0249476D01*
X0168763Y0248930D01*
X0167755Y0247923D01*
X0167210Y0246607D01*
X0167210Y0245182D01*
X0167755Y0243866D01*
X0167210Y0245334D02*
X0132405Y0245334D01*
X0131579Y0246933D02*
X0167345Y0246933D01*
X0168364Y0248531D02*
X0129433Y0248531D01*
X0125300Y0248531D02*
X0066105Y0248531D01*
X0065321Y0250130D02*
X0154428Y0250130D01*
X0153118Y0254925D02*
X0094289Y0254925D01*
X0096751Y0256524D02*
X0154096Y0256524D01*
X0160479Y0256524D02*
X0443843Y0256524D01*
X0443846Y0258122D02*
X0411808Y0258122D01*
X0414029Y0259721D02*
X0443849Y0259721D01*
X0443852Y0261319D02*
X0414530Y0261319D01*
X0414297Y0262918D02*
X0443855Y0262918D01*
X0443857Y0264516D02*
X0413140Y0264516D01*
X0408758Y0264516D02*
X0342115Y0264516D01*
X0343365Y0266115D02*
X0443860Y0266115D01*
X0443863Y0267713D02*
X0343664Y0267713D01*
X0343228Y0269312D02*
X0443866Y0269312D01*
X0443869Y0270910D02*
X0341323Y0270910D01*
X0355771Y0248930D02*
X0354763Y0247923D01*
X0354218Y0246607D01*
X0354218Y0245182D01*
X0354763Y0243866D01*
X0355771Y0242859D01*
X0357087Y0242313D01*
X0358512Y0242313D01*
X0359828Y0242859D01*
X0360466Y0243497D01*
X0360124Y0242670D01*
X0360124Y0241245D01*
X0360669Y0239929D01*
X0361676Y0238922D01*
X0362992Y0238376D01*
X0364417Y0238376D01*
X0365733Y0238922D01*
X0366741Y0239929D01*
X0367286Y0241245D01*
X0367286Y0242670D01*
X0366741Y0243986D01*
X0365733Y0244993D01*
X0364417Y0245539D01*
X0362992Y0245539D01*
X0361676Y0244993D01*
X0361038Y0244355D01*
X0361380Y0245182D01*
X0361380Y0246607D01*
X0360835Y0247923D01*
X0359828Y0248930D01*
X0358512Y0249476D01*
X0357087Y0249476D01*
X0355771Y0248930D01*
X0355371Y0248531D02*
X0298721Y0248531D01*
X0299838Y0246933D02*
X0354353Y0246933D01*
X0354218Y0245334D02*
X0300304Y0245334D01*
X0300304Y0243736D02*
X0354894Y0243736D01*
X0360124Y0242137D02*
X0319377Y0242137D01*
X0320042Y0240539D02*
X0360416Y0240539D01*
X0361658Y0238940D02*
X0319902Y0238940D01*
X0318878Y0237342D02*
X0393709Y0237342D01*
X0396693Y0237342D02*
X0429869Y0237342D01*
X0429583Y0236651D02*
X0429583Y0234980D01*
X0430223Y0233437D01*
X0431404Y0232255D01*
X0432948Y0231616D01*
X0434619Y0231616D01*
X0436163Y0232255D01*
X0437344Y0233437D01*
X0437983Y0234980D01*
X0437983Y0236651D01*
X0437344Y0238195D01*
X0436163Y0239376D01*
X0434619Y0240016D01*
X0432948Y0240016D01*
X0431404Y0239376D01*
X0430223Y0238195D01*
X0429583Y0236651D01*
X0429583Y0235743D02*
X0398390Y0235743D01*
X0398782Y0234145D02*
X0429930Y0234145D01*
X0431113Y0232546D02*
X0398440Y0232546D01*
X0396988Y0230948D02*
X0443797Y0230948D01*
X0443800Y0232546D02*
X0436453Y0232546D01*
X0437637Y0234145D02*
X0443803Y0234145D01*
X0443806Y0235743D02*
X0437983Y0235743D01*
X0437698Y0237342D02*
X0443808Y0237342D01*
X0443811Y0238940D02*
X0436599Y0238940D01*
X0435877Y0242137D02*
X0443817Y0242137D01*
X0443814Y0240539D02*
X0366993Y0240539D01*
X0367286Y0242137D02*
X0431689Y0242137D01*
X0431404Y0242255D02*
X0432948Y0241616D01*
X0434619Y0241616D01*
X0436163Y0242255D01*
X0437344Y0243437D01*
X0437983Y0244980D01*
X0437983Y0246651D01*
X0437344Y0248195D01*
X0436163Y0249376D01*
X0434619Y0250016D01*
X0432948Y0250016D01*
X0431404Y0249376D01*
X0430223Y0248195D01*
X0429583Y0246651D01*
X0429583Y0244980D01*
X0430223Y0243437D01*
X0431404Y0242255D01*
X0430099Y0243736D02*
X0366844Y0243736D01*
X0364911Y0245334D02*
X0429583Y0245334D01*
X0429700Y0246933D02*
X0361245Y0246933D01*
X0361380Y0245334D02*
X0362499Y0245334D01*
X0360227Y0248531D02*
X0430559Y0248531D01*
X0437008Y0248531D02*
X0443829Y0248531D01*
X0443826Y0246933D02*
X0437867Y0246933D01*
X0437983Y0245334D02*
X0443823Y0245334D01*
X0443820Y0243736D02*
X0437468Y0243736D01*
X0430968Y0238940D02*
X0365752Y0238940D01*
X0368338Y0232546D02*
X0391961Y0232546D01*
X0393414Y0230948D02*
X0369218Y0230948D01*
X0369219Y0229349D02*
X0443794Y0229349D01*
X0443791Y0227750D02*
X0405928Y0227750D01*
X0405756Y0227822D02*
X0404331Y0227822D01*
X0403015Y0227277D01*
X0402007Y0226269D01*
X0401462Y0224953D01*
X0401462Y0223529D01*
X0402007Y0222212D01*
X0403015Y0221205D01*
X0404331Y0220660D01*
X0405756Y0220660D01*
X0407072Y0221205D01*
X0408079Y0222212D01*
X0408624Y0223529D01*
X0408624Y0224953D01*
X0408079Y0226269D01*
X0407072Y0227277D01*
X0405756Y0227822D01*
X0404158Y0227750D02*
X0368342Y0227750D01*
X0366386Y0216011D02*
X0364961Y0216011D01*
X0363645Y0215466D01*
X0362637Y0214458D01*
X0362092Y0213142D01*
X0362092Y0211718D01*
X0362637Y0210401D01*
X0363645Y0209394D01*
X0364961Y0208849D01*
X0366386Y0208849D01*
X0367702Y0209394D01*
X0368709Y0210401D01*
X0369254Y0211718D01*
X0369254Y0213142D01*
X0368709Y0214458D01*
X0367702Y0215466D01*
X0366386Y0216011D01*
X0368205Y0214962D02*
X0380095Y0214962D01*
X0380354Y0214338D02*
X0379809Y0215655D01*
X0379809Y0217079D01*
X0380354Y0218395D01*
X0381361Y0219403D01*
X0382677Y0219948D01*
X0384102Y0219948D01*
X0385418Y0219403D01*
X0386426Y0218395D01*
X0386971Y0217079D01*
X0386971Y0215655D01*
X0386426Y0214338D01*
X0385418Y0213331D01*
X0384102Y0212786D01*
X0382677Y0212786D01*
X0381361Y0213331D01*
X0380354Y0214338D01*
X0381328Y0213364D02*
X0369163Y0213364D01*
X0369254Y0211765D02*
X0443762Y0211765D01*
X0443760Y0210167D02*
X0368475Y0210167D01*
X0362872Y0210167D02*
X0327136Y0210167D01*
X0327371Y0210401D02*
X0327916Y0211718D01*
X0327916Y0213142D01*
X0327371Y0214458D01*
X0326363Y0215466D01*
X0325047Y0216011D01*
X0323622Y0216011D01*
X0322306Y0215466D01*
X0321299Y0214458D01*
X0320754Y0213142D01*
X0320754Y0211718D01*
X0321299Y0210401D01*
X0322306Y0209394D01*
X0323622Y0208849D01*
X0325047Y0208849D01*
X0326363Y0209394D01*
X0327371Y0210401D01*
X0327916Y0211765D02*
X0362092Y0211765D01*
X0362184Y0213364D02*
X0327824Y0213364D01*
X0326867Y0214962D02*
X0363141Y0214962D01*
X0379809Y0216561D02*
X0213211Y0216561D01*
X0212809Y0216962D02*
X0210861Y0217769D01*
X0208753Y0217769D01*
X0206805Y0216962D01*
X0205314Y0215471D01*
X0204507Y0213524D01*
X0204507Y0211415D01*
X0205314Y0209467D01*
X0206805Y0207976D01*
X0208753Y0207169D01*
X0210861Y0207169D01*
X0212809Y0207976D01*
X0214300Y0209467D01*
X0215107Y0211415D01*
X0215107Y0213524D01*
X0214300Y0215471D01*
X0212809Y0216962D01*
X0214511Y0214962D02*
X0321803Y0214962D01*
X0320845Y0213364D02*
X0215107Y0213364D01*
X0215107Y0211765D02*
X0320754Y0211765D01*
X0321533Y0210167D02*
X0214590Y0210167D01*
X0213401Y0208568D02*
X0443757Y0208568D01*
X0443754Y0206970D02*
X0054081Y0206970D01*
X0054081Y0208568D02*
X0206213Y0208568D01*
X0205024Y0210167D02*
X0170184Y0210167D01*
X0169780Y0209763D02*
X0171018Y0211001D01*
X0171687Y0212618D01*
X0171687Y0214368D01*
X0171018Y0215985D01*
X0169780Y0217223D01*
X0168163Y0217893D01*
X0166412Y0217893D01*
X0164795Y0217223D01*
X0163557Y0215985D01*
X0162887Y0214368D01*
X0162887Y0212618D01*
X0163557Y0211001D01*
X0164795Y0209763D01*
X0166412Y0209093D01*
X0168163Y0209093D01*
X0169780Y0209763D01*
X0171334Y0211765D02*
X0204507Y0211765D01*
X0204507Y0213364D02*
X0171687Y0213364D01*
X0171441Y0214962D02*
X0205103Y0214962D01*
X0206403Y0216561D02*
X0170442Y0216561D01*
X0164133Y0216561D02*
X0150442Y0216561D01*
X0151018Y0215985D02*
X0149780Y0217223D01*
X0148163Y0217893D01*
X0146412Y0217893D01*
X0144795Y0217223D01*
X0143557Y0215985D01*
X0142887Y0214368D01*
X0142887Y0212618D01*
X0143557Y0211001D01*
X0144795Y0209763D01*
X0146412Y0209093D01*
X0148163Y0209093D01*
X0149780Y0209763D01*
X0151018Y0211001D01*
X0151687Y0212618D01*
X0151687Y0214368D01*
X0151018Y0215985D01*
X0151441Y0214962D02*
X0163134Y0214962D01*
X0162887Y0213364D02*
X0151687Y0213364D01*
X0151334Y0211765D02*
X0163240Y0211765D01*
X0164391Y0210167D02*
X0150184Y0210167D01*
X0144391Y0210167D02*
X0054081Y0210167D01*
X0054081Y0211765D02*
X0143240Y0211765D01*
X0142887Y0213364D02*
X0054081Y0213364D01*
X0054081Y0214962D02*
X0082963Y0214962D01*
X0083465Y0214754D02*
X0082149Y0215300D01*
X0081141Y0216307D01*
X0080596Y0217623D01*
X0080596Y0219048D01*
X0081141Y0220364D01*
X0082149Y0221371D01*
X0083465Y0221917D01*
X0084889Y0221917D01*
X0086206Y0221371D01*
X0087213Y0220364D01*
X0087758Y0219048D01*
X0087758Y0217623D01*
X0087213Y0216307D01*
X0086206Y0215300D01*
X0084889Y0214754D01*
X0083465Y0214754D01*
X0085392Y0214962D02*
X0143134Y0214962D01*
X0144133Y0216561D02*
X0087318Y0216561D01*
X0087758Y0218159D02*
X0380256Y0218159D01*
X0382219Y0219758D02*
X0298093Y0219758D01*
X0299687Y0221356D02*
X0402863Y0221356D01*
X0401700Y0222955D02*
X0300349Y0222955D01*
X0300461Y0224553D02*
X0401462Y0224553D01*
X0401959Y0226152D02*
X0300123Y0226152D01*
X0292230Y0219758D02*
X0087464Y0219758D01*
X0086221Y0221356D02*
X0111525Y0221356D01*
X0110361Y0222955D02*
X0054081Y0222955D01*
X0054081Y0224553D02*
X0110124Y0224553D01*
X0110620Y0226152D02*
X0108868Y0226152D01*
X0108867Y0226149D02*
X0109412Y0227466D01*
X0109412Y0228890D01*
X0108867Y0230206D01*
X0107859Y0231214D01*
X0106543Y0231759D01*
X0105118Y0231759D01*
X0103802Y0231214D01*
X0102795Y0230206D01*
X0102250Y0228890D01*
X0102250Y0227466D01*
X0102795Y0226149D01*
X0103802Y0225142D01*
X0105118Y0224597D01*
X0106543Y0224597D01*
X0107859Y0225142D01*
X0108867Y0226149D01*
X0109412Y0227750D02*
X0112820Y0227750D01*
X0114590Y0227750D02*
X0183871Y0227750D01*
X0182994Y0229349D02*
X0109222Y0229349D01*
X0108126Y0230948D02*
X0182995Y0230948D01*
X0183874Y0232546D02*
X0054081Y0232546D01*
X0054081Y0230948D02*
X0103536Y0230948D01*
X0102440Y0229349D02*
X0054081Y0229349D01*
X0054081Y0227750D02*
X0102250Y0227750D01*
X0102794Y0226152D02*
X0054081Y0226152D01*
X0054081Y0221356D02*
X0082134Y0221356D01*
X0080890Y0219758D02*
X0054081Y0219758D01*
X0054081Y0218159D02*
X0080596Y0218159D01*
X0081036Y0216561D02*
X0054081Y0216561D01*
X0054081Y0205371D02*
X0443751Y0205371D01*
X0443748Y0203773D02*
X0054081Y0203773D01*
X0054081Y0202174D02*
X0443745Y0202174D01*
X0443742Y0200576D02*
X0054081Y0200576D01*
X0054081Y0198977D02*
X0443739Y0198977D01*
X0443736Y0197379D02*
X0054081Y0197379D01*
X0054081Y0195780D02*
X0338054Y0195780D01*
X0338054Y0195781D02*
X0337047Y0194773D01*
X0336502Y0193457D01*
X0336502Y0192033D01*
X0337047Y0190716D01*
X0338054Y0189709D01*
X0339370Y0189164D01*
X0340795Y0189164D01*
X0342111Y0189709D01*
X0343119Y0190716D01*
X0343664Y0192033D01*
X0343664Y0193457D01*
X0343119Y0194773D01*
X0342111Y0195781D01*
X0340795Y0196326D01*
X0339370Y0196326D01*
X0338054Y0195781D01*
X0336802Y0194182D02*
X0054081Y0194182D01*
X0054081Y0192583D02*
X0336502Y0192583D01*
X0336936Y0190985D02*
X0054081Y0190985D01*
X0054081Y0189386D02*
X0089426Y0189386D01*
X0089758Y0189718D02*
X0088267Y0188227D01*
X0087460Y0186279D01*
X0087460Y0184171D01*
X0088267Y0182223D01*
X0089758Y0180732D01*
X0091706Y0179925D01*
X0093814Y0179925D01*
X0095762Y0180732D01*
X0097253Y0182223D01*
X0098060Y0184171D01*
X0098060Y0186279D01*
X0097253Y0188227D01*
X0095762Y0189718D01*
X0093814Y0190525D01*
X0091706Y0190525D01*
X0089758Y0189718D01*
X0088085Y0187788D02*
X0054081Y0187788D01*
X0054081Y0186189D02*
X0087460Y0186189D01*
X0087460Y0184591D02*
X0054081Y0184591D01*
X0054081Y0182992D02*
X0087948Y0182992D01*
X0089096Y0181394D02*
X0054081Y0181394D01*
X0054081Y0179795D02*
X0152983Y0179795D01*
X0152887Y0179565D02*
X0152887Y0177815D01*
X0153557Y0176197D01*
X0154795Y0174960D01*
X0156412Y0174290D01*
X0158163Y0174290D01*
X0159780Y0174960D01*
X0161018Y0176197D01*
X0161687Y0177815D01*
X0161687Y0179565D01*
X0161018Y0181182D01*
X0159780Y0182420D01*
X0158163Y0183090D01*
X0156412Y0183090D01*
X0154795Y0182420D01*
X0153557Y0181182D01*
X0152887Y0179565D01*
X0152887Y0178197D02*
X0054081Y0178197D01*
X0054081Y0176598D02*
X0061708Y0176598D01*
X0061811Y0176641D02*
X0060495Y0176096D01*
X0059488Y0175088D01*
X0058943Y0173772D01*
X0058943Y0172348D01*
X0059488Y0171031D01*
X0060495Y0170024D01*
X0061811Y0169479D01*
X0063236Y0169479D01*
X0064552Y0170024D01*
X0065560Y0171031D01*
X0066105Y0172348D01*
X0066105Y0173772D01*
X0065560Y0175088D01*
X0064552Y0176096D01*
X0063236Y0176641D01*
X0061811Y0176641D01*
X0063339Y0176598D02*
X0153391Y0176598D01*
X0154755Y0175000D02*
X0065596Y0175000D01*
X0066105Y0173401D02*
X0124511Y0173401D01*
X0124364Y0173340D02*
X0122873Y0171849D01*
X0122066Y0169901D01*
X0122066Y0167793D01*
X0122873Y0165845D01*
X0124364Y0164354D01*
X0126312Y0163547D01*
X0128420Y0163547D01*
X0130368Y0164354D01*
X0131859Y0165845D01*
X0132666Y0167793D01*
X0132666Y0169901D01*
X0131859Y0171849D01*
X0130368Y0173340D01*
X0128420Y0174147D01*
X0126312Y0174147D01*
X0124364Y0173340D01*
X0122854Y0171803D02*
X0065879Y0171803D01*
X0064732Y0170204D02*
X0097911Y0170204D01*
X0097874Y0170167D02*
X0097328Y0168851D01*
X0097328Y0167426D01*
X0097874Y0166110D01*
X0098881Y0165103D01*
X0100197Y0164557D01*
X0101622Y0164557D01*
X0102938Y0165103D01*
X0103945Y0166110D01*
X0104491Y0167426D01*
X0104491Y0168851D01*
X0103945Y0170167D01*
X0102938Y0171174D01*
X0101622Y0171720D01*
X0100197Y0171720D01*
X0098881Y0171174D01*
X0097874Y0170167D01*
X0097328Y0168606D02*
X0054081Y0168606D01*
X0054081Y0170204D02*
X0060315Y0170204D01*
X0059168Y0171803D02*
X0054081Y0171803D01*
X0054081Y0173401D02*
X0058943Y0173401D01*
X0059451Y0175000D02*
X0054081Y0175000D01*
X0054081Y0167007D02*
X0097502Y0167007D01*
X0098575Y0165409D02*
X0054081Y0165409D01*
X0054081Y0163810D02*
X0125677Y0163810D01*
X0123310Y0165409D02*
X0103244Y0165409D01*
X0104317Y0167007D02*
X0122392Y0167007D01*
X0122066Y0168606D02*
X0104491Y0168606D01*
X0103908Y0170204D02*
X0122191Y0170204D01*
X0130222Y0173401D02*
X0168037Y0173401D01*
X0167755Y0173120D02*
X0167210Y0171804D01*
X0167210Y0170379D01*
X0167755Y0169063D01*
X0168763Y0168055D01*
X0170079Y0167510D01*
X0171504Y0167510D01*
X0172820Y0168055D01*
X0173827Y0169063D01*
X0174372Y0170379D01*
X0174372Y0171804D01*
X0173827Y0173120D01*
X0172820Y0174127D01*
X0171504Y0174672D01*
X0170079Y0174672D01*
X0168763Y0174127D01*
X0167755Y0173120D01*
X0167210Y0171803D02*
X0131879Y0171803D01*
X0132541Y0170204D02*
X0167283Y0170204D01*
X0168213Y0168606D02*
X0132666Y0168606D01*
X0132341Y0167007D02*
X0290486Y0167007D01*
X0290511Y0166947D02*
X0292002Y0165456D01*
X0293950Y0164650D01*
X0296058Y0164650D01*
X0298006Y0165456D01*
X0299497Y0166947D01*
X0300304Y0168895D01*
X0300304Y0171004D01*
X0299497Y0172952D01*
X0298006Y0174443D01*
X0296058Y0175250D01*
X0293950Y0175250D01*
X0292002Y0174443D01*
X0290511Y0172952D01*
X0289704Y0171004D01*
X0289704Y0168895D01*
X0290511Y0166947D01*
X0289824Y0168606D02*
X0173370Y0168606D01*
X0174300Y0170204D02*
X0215827Y0170204D01*
X0216007Y0170024D02*
X0217323Y0169479D01*
X0218748Y0169479D01*
X0220064Y0170024D01*
X0221071Y0171031D01*
X0221617Y0172348D01*
X0221617Y0173772D01*
X0221071Y0175088D01*
X0220064Y0176096D01*
X0218748Y0176641D01*
X0217323Y0176641D01*
X0216007Y0176096D01*
X0215000Y0175088D01*
X0214454Y0173772D01*
X0214454Y0172348D01*
X0215000Y0171031D01*
X0216007Y0170024D01*
X0214680Y0171803D02*
X0174372Y0171803D01*
X0173546Y0173401D02*
X0214454Y0173401D01*
X0214963Y0175000D02*
X0159820Y0175000D01*
X0161184Y0176598D02*
X0217220Y0176598D01*
X0218851Y0176598D02*
X0443699Y0176598D01*
X0443696Y0175000D02*
X0435133Y0175000D01*
X0434619Y0175213D02*
X0432948Y0175213D01*
X0431404Y0174573D01*
X0430223Y0173392D01*
X0429583Y0171848D01*
X0429583Y0170177D01*
X0430223Y0168633D01*
X0431404Y0167452D01*
X0432948Y0166813D01*
X0434619Y0166813D01*
X0436163Y0167452D01*
X0437344Y0168633D01*
X0437983Y0170177D01*
X0437983Y0171848D01*
X0437344Y0173392D01*
X0436163Y0174573D01*
X0434619Y0175213D01*
X0432434Y0175000D02*
X0296662Y0175000D01*
X0299048Y0173401D02*
X0355045Y0173401D01*
X0354763Y0173120D02*
X0354218Y0171804D01*
X0354218Y0170379D01*
X0354763Y0169063D01*
X0355771Y0168055D01*
X0357087Y0167510D01*
X0358512Y0167510D01*
X0359828Y0168055D01*
X0360466Y0168694D01*
X0360124Y0167867D01*
X0360124Y0166442D01*
X0360669Y0165126D01*
X0361676Y0164118D01*
X0362992Y0163573D01*
X0364417Y0163573D01*
X0365733Y0164118D01*
X0366741Y0165126D01*
X0367286Y0166442D01*
X0367286Y0167867D01*
X0366741Y0169183D01*
X0365733Y0170190D01*
X0364417Y0170735D01*
X0362992Y0170735D01*
X0361676Y0170190D01*
X0361038Y0169552D01*
X0361380Y0170379D01*
X0361380Y0171804D01*
X0360835Y0173120D01*
X0359828Y0174127D01*
X0358512Y0174672D01*
X0357087Y0174672D01*
X0355771Y0174127D01*
X0354763Y0173120D01*
X0354218Y0171803D02*
X0299973Y0171803D01*
X0300304Y0170204D02*
X0354291Y0170204D01*
X0355221Y0168606D02*
X0317563Y0168606D01*
X0317173Y0168767D02*
X0315748Y0168767D01*
X0314432Y0168222D01*
X0313425Y0167214D01*
X0312880Y0165898D01*
X0312880Y0164473D01*
X0313425Y0163157D01*
X0314432Y0162150D01*
X0315748Y0161605D01*
X0317173Y0161605D01*
X0318489Y0162150D01*
X0319497Y0163157D01*
X0320042Y0164473D01*
X0320042Y0165898D01*
X0319497Y0167214D01*
X0318489Y0168222D01*
X0317173Y0168767D01*
X0315359Y0168606D02*
X0300184Y0168606D01*
X0299522Y0167007D02*
X0313339Y0167007D01*
X0312880Y0165409D02*
X0297890Y0165409D01*
X0292117Y0165409D02*
X0131423Y0165409D01*
X0129055Y0163810D02*
X0278524Y0163810D01*
X0278999Y0164285D02*
X0277992Y0163277D01*
X0277446Y0161961D01*
X0277446Y0160536D01*
X0277992Y0159220D01*
X0278999Y0158213D01*
X0280315Y0157668D01*
X0281740Y0157668D01*
X0283056Y0158213D01*
X0284063Y0159220D01*
X0284609Y0160536D01*
X0284609Y0161961D01*
X0284063Y0163277D01*
X0283056Y0164285D01*
X0281740Y0164830D01*
X0280315Y0164830D01*
X0278999Y0164285D01*
X0277550Y0162212D02*
X0054081Y0162212D01*
X0054081Y0160613D02*
X0277446Y0160613D01*
X0278197Y0159014D02*
X0054081Y0159014D01*
X0054081Y0157416D02*
X0183548Y0157416D01*
X0183503Y0157372D02*
X0182958Y0156056D01*
X0182958Y0154631D01*
X0183503Y0153315D01*
X0184511Y0152307D01*
X0185827Y0151762D01*
X0187252Y0151762D01*
X0188568Y0152307D01*
X0189575Y0153315D01*
X0190120Y0154631D01*
X0190120Y0156056D01*
X0189575Y0157372D01*
X0188568Y0158379D01*
X0187252Y0158924D01*
X0185827Y0158924D01*
X0184511Y0158379D01*
X0183503Y0157372D01*
X0182958Y0155817D02*
X0108452Y0155817D01*
X0108867Y0155403D02*
X0107859Y0156411D01*
X0106543Y0156956D01*
X0105118Y0156956D01*
X0103802Y0156411D01*
X0102795Y0155403D01*
X0102250Y0154087D01*
X0102250Y0152662D01*
X0102795Y0151346D01*
X0103802Y0150339D01*
X0105118Y0149794D01*
X0106543Y0149794D01*
X0107859Y0150339D01*
X0108867Y0151346D01*
X0109412Y0152662D01*
X0109412Y0154087D01*
X0108867Y0155403D01*
X0109357Y0154219D02*
X0183129Y0154219D01*
X0184198Y0152620D02*
X0115379Y0152620D01*
X0115733Y0152474D02*
X0114417Y0153019D01*
X0112992Y0153019D01*
X0111676Y0152474D01*
X0110669Y0151466D01*
X0110124Y0150150D01*
X0110124Y0148725D01*
X0110669Y0147409D01*
X0111676Y0146402D01*
X0112992Y0145857D01*
X0114417Y0145857D01*
X0115733Y0146402D01*
X0116741Y0147409D01*
X0117286Y0148725D01*
X0117286Y0150150D01*
X0116741Y0151466D01*
X0115733Y0152474D01*
X0116925Y0151022D02*
X0227135Y0151022D01*
X0226811Y0151346D02*
X0227818Y0150339D01*
X0229134Y0149794D01*
X0230559Y0149794D01*
X0231875Y0150339D01*
X0232882Y0151346D01*
X0233428Y0152662D01*
X0233428Y0154087D01*
X0232882Y0155403D01*
X0231875Y0156411D01*
X0230559Y0156956D01*
X0229134Y0156956D01*
X0227818Y0156411D01*
X0226811Y0155403D01*
X0226265Y0154087D01*
X0226265Y0152662D01*
X0226811Y0151346D01*
X0226283Y0152620D02*
X0188881Y0152620D01*
X0189950Y0154219D02*
X0226320Y0154219D01*
X0227225Y0155817D02*
X0190120Y0155817D01*
X0189531Y0157416D02*
X0362681Y0157416D01*
X0362637Y0157372D02*
X0362092Y0156056D01*
X0362092Y0154631D01*
X0362637Y0153315D01*
X0363645Y0152307D01*
X0364961Y0151762D01*
X0366386Y0151762D01*
X0367702Y0152307D01*
X0368709Y0153315D01*
X0369254Y0154631D01*
X0369254Y0156056D01*
X0368709Y0157372D01*
X0367702Y0158379D01*
X0366386Y0158924D01*
X0364961Y0158924D01*
X0363645Y0158379D01*
X0362637Y0157372D01*
X0362092Y0155817D02*
X0232468Y0155817D01*
X0233373Y0154219D02*
X0292760Y0154219D01*
X0292159Y0153970D02*
X0290668Y0152479D01*
X0289861Y0150531D01*
X0289861Y0148423D01*
X0290668Y0146475D01*
X0292159Y0144984D01*
X0294107Y0144177D01*
X0296216Y0144177D01*
X0298164Y0144984D01*
X0299655Y0146475D01*
X0300461Y0148423D01*
X0300461Y0150531D01*
X0299655Y0152479D01*
X0298164Y0153970D01*
X0296216Y0154777D01*
X0294107Y0154777D01*
X0292159Y0153970D01*
X0290809Y0152620D02*
X0233410Y0152620D01*
X0232558Y0151022D02*
X0290065Y0151022D01*
X0289861Y0149423D02*
X0117286Y0149423D01*
X0116913Y0147825D02*
X0290109Y0147825D01*
X0290917Y0146226D02*
X0115310Y0146226D01*
X0112100Y0146226D02*
X0086547Y0146226D01*
X0086206Y0146568D02*
X0084889Y0147113D01*
X0083465Y0147113D01*
X0082149Y0146568D01*
X0081141Y0145561D01*
X0080596Y0144245D01*
X0080596Y0142820D01*
X0081141Y0141504D01*
X0082149Y0140496D01*
X0083465Y0139951D01*
X0084889Y0139951D01*
X0086206Y0140496D01*
X0087213Y0141504D01*
X0087758Y0142820D01*
X0087758Y0144245D01*
X0087213Y0145561D01*
X0086206Y0146568D01*
X0087599Y0144628D02*
X0293019Y0144628D01*
X0297304Y0144628D02*
X0381429Y0144628D01*
X0381361Y0144600D02*
X0380354Y0143592D01*
X0379809Y0142276D01*
X0379809Y0140851D01*
X0380354Y0139535D01*
X0381361Y0138528D01*
X0382677Y0137983D01*
X0384102Y0137983D01*
X0385418Y0138528D01*
X0386426Y0139535D01*
X0386971Y0140851D01*
X0386971Y0142276D01*
X0386426Y0143592D01*
X0385418Y0144600D01*
X0384102Y0145145D01*
X0382677Y0145145D01*
X0381361Y0144600D01*
X0380121Y0143029D02*
X0168308Y0143029D01*
X0168163Y0143090D02*
X0166412Y0143090D01*
X0164795Y0142420D01*
X0163557Y0141182D01*
X0162887Y0139565D01*
X0162887Y0137815D01*
X0163557Y0136197D01*
X0164795Y0134960D01*
X0166412Y0134290D01*
X0168163Y0134290D01*
X0169780Y0134960D01*
X0171018Y0136197D01*
X0171687Y0137815D01*
X0171687Y0139565D01*
X0171018Y0141182D01*
X0169780Y0142420D01*
X0168163Y0143090D01*
X0166266Y0143029D02*
X0148308Y0143029D01*
X0148163Y0143090D02*
X0146412Y0143090D01*
X0144795Y0142420D01*
X0143557Y0141182D01*
X0142887Y0139565D01*
X0142887Y0137815D01*
X0143557Y0136197D01*
X0144795Y0134960D01*
X0146412Y0134290D01*
X0148163Y0134290D01*
X0149780Y0134960D01*
X0151018Y0136197D01*
X0151687Y0137815D01*
X0151687Y0139565D01*
X0151018Y0141182D01*
X0149780Y0142420D01*
X0148163Y0143090D01*
X0146266Y0143029D02*
X0087758Y0143029D01*
X0087140Y0141431D02*
X0143806Y0141431D01*
X0142998Y0139832D02*
X0054081Y0139832D01*
X0054081Y0138234D02*
X0142887Y0138234D01*
X0143376Y0136635D02*
X0054081Y0136635D01*
X0054081Y0135037D02*
X0144718Y0135037D01*
X0149857Y0135037D02*
X0164718Y0135037D01*
X0163376Y0136635D02*
X0151199Y0136635D01*
X0151687Y0138234D02*
X0162887Y0138234D01*
X0162998Y0139832D02*
X0151577Y0139832D01*
X0150769Y0141431D02*
X0163806Y0141431D01*
X0170769Y0141431D02*
X0206076Y0141431D01*
X0206805Y0142159D02*
X0205314Y0140668D01*
X0204507Y0138720D01*
X0204507Y0136612D01*
X0205314Y0134664D01*
X0206805Y0133173D01*
X0208753Y0132366D01*
X0210861Y0132366D01*
X0212809Y0133173D01*
X0214300Y0134664D01*
X0215107Y0136612D01*
X0215107Y0138720D01*
X0214300Y0140668D01*
X0212809Y0142159D01*
X0210861Y0142966D01*
X0208753Y0142966D01*
X0206805Y0142159D01*
X0204968Y0139832D02*
X0171577Y0139832D01*
X0171687Y0138234D02*
X0204507Y0138234D01*
X0204507Y0136635D02*
X0171199Y0136635D01*
X0169857Y0135037D02*
X0205159Y0135037D01*
X0206540Y0133438D02*
X0054081Y0133438D01*
X0054081Y0131840D02*
X0443618Y0131840D01*
X0443621Y0133438D02*
X0213075Y0133438D01*
X0214455Y0135037D02*
X0321860Y0135037D01*
X0322306Y0134591D02*
X0323622Y0134046D01*
X0325047Y0134046D01*
X0326363Y0134591D01*
X0327371Y0135598D01*
X0327916Y0136914D01*
X0327916Y0138339D01*
X0327371Y0139655D01*
X0326363Y0140663D01*
X0325047Y0141208D01*
X0323622Y0141208D01*
X0322306Y0140663D01*
X0321299Y0139655D01*
X0320754Y0138339D01*
X0320754Y0136914D01*
X0321299Y0135598D01*
X0322306Y0134591D01*
X0320869Y0136635D02*
X0215107Y0136635D01*
X0215107Y0138234D02*
X0320754Y0138234D01*
X0321476Y0139832D02*
X0214646Y0139832D01*
X0213538Y0141431D02*
X0379809Y0141431D01*
X0380231Y0139832D02*
X0368532Y0139832D01*
X0368709Y0139655D02*
X0367702Y0140663D01*
X0366386Y0141208D01*
X0364961Y0141208D01*
X0363645Y0140663D01*
X0362637Y0139655D01*
X0362092Y0138339D01*
X0362092Y0136914D01*
X0362637Y0135598D01*
X0363645Y0134591D01*
X0364961Y0134046D01*
X0366386Y0134046D01*
X0367702Y0134591D01*
X0368709Y0135598D01*
X0369254Y0136914D01*
X0369254Y0138339D01*
X0368709Y0139655D01*
X0369254Y0138234D02*
X0382071Y0138234D01*
X0384708Y0138234D02*
X0443630Y0138234D01*
X0443633Y0139832D02*
X0386549Y0139832D01*
X0386971Y0141431D02*
X0443636Y0141431D01*
X0443639Y0143029D02*
X0386659Y0143029D01*
X0385350Y0144628D02*
X0443641Y0144628D01*
X0443644Y0146226D02*
X0406648Y0146226D01*
X0407072Y0146402D02*
X0408079Y0147409D01*
X0408624Y0148725D01*
X0408624Y0150150D01*
X0408079Y0151466D01*
X0407072Y0152474D01*
X0405756Y0153019D01*
X0404331Y0153019D01*
X0403015Y0152474D01*
X0402007Y0151466D01*
X0401462Y0150150D01*
X0401462Y0148725D01*
X0402007Y0147409D01*
X0403015Y0146402D01*
X0404331Y0145857D01*
X0405756Y0145857D01*
X0407072Y0146402D01*
X0408251Y0147825D02*
X0443647Y0147825D01*
X0443650Y0149423D02*
X0408624Y0149423D01*
X0408263Y0151022D02*
X0443653Y0151022D01*
X0443656Y0152620D02*
X0406718Y0152620D01*
X0403369Y0152620D02*
X0368015Y0152620D01*
X0369084Y0154219D02*
X0443659Y0154219D01*
X0443662Y0155817D02*
X0396199Y0155817D01*
X0395913Y0155699D02*
X0397229Y0156244D01*
X0398237Y0157252D01*
X0398782Y0158568D01*
X0398782Y0159993D01*
X0398237Y0161309D01*
X0397229Y0162316D01*
X0395913Y0162861D01*
X0394488Y0162861D01*
X0393172Y0162316D01*
X0392165Y0161309D01*
X0391620Y0159993D01*
X0391620Y0158568D01*
X0392165Y0157252D01*
X0393172Y0156244D01*
X0394488Y0155699D01*
X0395913Y0155699D01*
X0394203Y0155817D02*
X0369254Y0155817D01*
X0368665Y0157416D02*
X0392097Y0157416D01*
X0391620Y0159014D02*
X0283858Y0159014D01*
X0284609Y0160613D02*
X0391877Y0160613D01*
X0393068Y0162212D02*
X0318551Y0162212D01*
X0319767Y0163810D02*
X0362421Y0163810D01*
X0360552Y0165409D02*
X0320042Y0165409D01*
X0319582Y0167007D02*
X0360124Y0167007D01*
X0360378Y0168606D02*
X0360430Y0168606D01*
X0361308Y0170204D02*
X0361710Y0170204D01*
X0361380Y0171803D02*
X0429583Y0171803D01*
X0429583Y0170204D02*
X0365700Y0170204D01*
X0366980Y0168606D02*
X0430251Y0168606D01*
X0432479Y0167007D02*
X0367286Y0167007D01*
X0366858Y0165409D02*
X0443679Y0165409D01*
X0443682Y0167007D02*
X0435088Y0167007D01*
X0434619Y0165213D02*
X0432948Y0165213D01*
X0431404Y0164573D01*
X0430223Y0163392D01*
X0429583Y0161848D01*
X0429583Y0160177D01*
X0430223Y0158633D01*
X0431404Y0157452D01*
X0432948Y0156813D01*
X0434619Y0156813D01*
X0436163Y0157452D01*
X0437344Y0158633D01*
X0437983Y0160177D01*
X0437983Y0161848D01*
X0437344Y0163392D01*
X0436163Y0164573D01*
X0434619Y0165213D01*
X0436926Y0163810D02*
X0443676Y0163810D01*
X0443673Y0162212D02*
X0437833Y0162212D01*
X0437983Y0160613D02*
X0443670Y0160613D01*
X0443667Y0159014D02*
X0437502Y0159014D01*
X0436076Y0157416D02*
X0443664Y0157416D01*
X0443685Y0168606D02*
X0437316Y0168606D01*
X0437983Y0170204D02*
X0443687Y0170204D01*
X0443690Y0171803D02*
X0437983Y0171803D01*
X0437335Y0173401D02*
X0443693Y0173401D01*
X0443702Y0178197D02*
X0161687Y0178197D01*
X0161592Y0179795D02*
X0443705Y0179795D01*
X0443708Y0181394D02*
X0160806Y0181394D01*
X0160236Y0183258D02*
X0161661Y0183258D01*
X0162977Y0183803D01*
X0163985Y0184811D01*
X0164530Y0186127D01*
X0164530Y0187552D01*
X0163985Y0188868D01*
X0162977Y0189875D01*
X0161661Y0190420D01*
X0160236Y0190420D01*
X0158920Y0189875D01*
X0157913Y0188868D01*
X0157368Y0187552D01*
X0157368Y0186127D01*
X0157913Y0184811D01*
X0158920Y0183803D01*
X0160236Y0183258D01*
X0158398Y0182992D02*
X0443711Y0182992D01*
X0443713Y0184591D02*
X0413765Y0184591D01*
X0413985Y0184811D02*
X0414530Y0186127D01*
X0414530Y0187552D01*
X0413985Y0188868D01*
X0412977Y0189875D01*
X0411661Y0190420D01*
X0410236Y0190420D01*
X0408920Y0189875D01*
X0407913Y0188868D01*
X0407368Y0187552D01*
X0407368Y0186127D01*
X0407913Y0184811D01*
X0408920Y0183803D01*
X0410236Y0183258D01*
X0411661Y0183258D01*
X0412977Y0183803D01*
X0413985Y0184811D01*
X0414530Y0186189D02*
X0443716Y0186189D01*
X0443719Y0187788D02*
X0414432Y0187788D01*
X0413466Y0189386D02*
X0443722Y0189386D01*
X0443725Y0190985D02*
X0343230Y0190985D01*
X0343664Y0192583D02*
X0443728Y0192583D01*
X0443731Y0194182D02*
X0343364Y0194182D01*
X0342112Y0195780D02*
X0443734Y0195780D01*
X0443765Y0213364D02*
X0385451Y0213364D01*
X0386684Y0214962D02*
X0443768Y0214962D01*
X0443771Y0216561D02*
X0386971Y0216561D01*
X0386523Y0218159D02*
X0443774Y0218159D01*
X0443777Y0219758D02*
X0384561Y0219758D01*
X0407223Y0221356D02*
X0443780Y0221356D01*
X0443783Y0222955D02*
X0408387Y0222955D01*
X0408624Y0224553D02*
X0443785Y0224553D01*
X0443788Y0226152D02*
X0408128Y0226152D01*
X0408431Y0189386D02*
X0341332Y0189386D01*
X0338833Y0189386D02*
X0179214Y0189386D01*
X0178725Y0189875D02*
X0177409Y0190420D01*
X0175985Y0190420D01*
X0174668Y0189875D01*
X0173661Y0188868D01*
X0173116Y0187552D01*
X0173116Y0186127D01*
X0173661Y0184811D01*
X0174668Y0183803D01*
X0175985Y0183258D01*
X0177409Y0183258D01*
X0178725Y0183803D01*
X0179733Y0184811D01*
X0180278Y0186127D01*
X0180278Y0187552D01*
X0179733Y0188868D01*
X0178725Y0189875D01*
X0180180Y0187788D02*
X0407465Y0187788D01*
X0407368Y0186189D02*
X0180278Y0186189D01*
X0179513Y0184591D02*
X0408133Y0184591D01*
X0397334Y0162212D02*
X0429734Y0162212D01*
X0429583Y0160613D02*
X0398525Y0160613D01*
X0398782Y0159014D02*
X0430065Y0159014D01*
X0431491Y0157416D02*
X0398305Y0157416D01*
X0401823Y0151022D02*
X0300258Y0151022D01*
X0300461Y0149423D02*
X0401462Y0149423D01*
X0401835Y0147825D02*
X0300214Y0147825D01*
X0299406Y0146226D02*
X0403438Y0146226D01*
X0430232Y0173401D02*
X0360554Y0173401D01*
X0364989Y0163810D02*
X0430641Y0163810D01*
X0443627Y0136635D02*
X0369139Y0136635D01*
X0368148Y0135037D02*
X0443624Y0135037D01*
X0443615Y0130241D02*
X0054081Y0130241D01*
X0054081Y0128643D02*
X0443613Y0128643D01*
X0443610Y0127044D02*
X0054081Y0127044D01*
X0054081Y0125446D02*
X0443607Y0125446D01*
X0363199Y0135037D02*
X0326809Y0135037D01*
X0327800Y0136635D02*
X0362208Y0136635D01*
X0362092Y0138234D02*
X0327916Y0138234D01*
X0327193Y0139832D02*
X0362814Y0139832D01*
X0363332Y0152620D02*
X0299513Y0152620D01*
X0297563Y0154219D02*
X0362263Y0154219D01*
X0314370Y0162212D02*
X0284505Y0162212D01*
X0283531Y0163810D02*
X0313154Y0163810D01*
X0293346Y0175000D02*
X0221108Y0175000D01*
X0221617Y0173401D02*
X0290960Y0173401D01*
X0290035Y0171803D02*
X0221391Y0171803D01*
X0220244Y0170204D02*
X0289704Y0170204D01*
X0290636Y0221356D02*
X0115885Y0221356D01*
X0117048Y0222955D02*
X0289974Y0222955D01*
X0298285Y0240539D02*
X0312880Y0240539D01*
X0313544Y0242137D02*
X0299657Y0242137D01*
X0289704Y0243736D02*
X0173697Y0243736D01*
X0174372Y0245334D02*
X0215500Y0245334D01*
X0215000Y0245834D02*
X0216007Y0244827D01*
X0217323Y0244282D01*
X0218748Y0244282D01*
X0220064Y0244827D01*
X0221071Y0245834D01*
X0221617Y0247151D01*
X0221617Y0248575D01*
X0221071Y0249892D01*
X0220064Y0250899D01*
X0218748Y0251444D01*
X0217323Y0251444D01*
X0216007Y0250899D01*
X0215000Y0249892D01*
X0214454Y0248575D01*
X0214454Y0247151D01*
X0215000Y0245834D01*
X0214545Y0246933D02*
X0174237Y0246933D01*
X0173219Y0248531D02*
X0214454Y0248531D01*
X0215238Y0250130D02*
X0160147Y0250130D01*
X0161319Y0251728D02*
X0443834Y0251728D01*
X0443832Y0250130D02*
X0220833Y0250130D01*
X0221617Y0248531D02*
X0291287Y0248531D01*
X0290170Y0246933D02*
X0221526Y0246933D01*
X0220571Y0245334D02*
X0289704Y0245334D01*
X0339328Y0334851D02*
X0179419Y0334851D01*
X0179733Y0334537D02*
X0178725Y0335545D01*
X0177409Y0336090D01*
X0175985Y0336090D01*
X0174668Y0335545D01*
X0173661Y0334537D01*
X0173116Y0333221D01*
X0173116Y0331796D01*
X0173661Y0330480D01*
X0174668Y0329473D01*
X0175985Y0328928D01*
X0177409Y0328928D01*
X0178725Y0329473D01*
X0179733Y0330480D01*
X0180278Y0331796D01*
X0180278Y0333221D01*
X0179733Y0334537D01*
X0180265Y0333252D02*
X0407381Y0333252D01*
X0407427Y0331654D02*
X0180219Y0331654D01*
X0179308Y0330055D02*
X0408338Y0330055D01*
X0408226Y0334851D02*
X0340838Y0334851D01*
X0363269Y0379609D02*
X0375951Y0379609D01*
X0375410Y0381208D02*
X0363810Y0381208D01*
X0363686Y0382806D02*
X0375535Y0382806D01*
X0376448Y0384405D02*
X0362773Y0384405D01*
X0381827Y0435557D02*
X0444166Y0435557D01*
X0444169Y0437155D02*
X0383060Y0437155D01*
X0383410Y0438754D02*
X0444171Y0438754D01*
X0444174Y0440352D02*
X0383095Y0440352D01*
X0385595Y0290092D02*
X0443904Y0290092D01*
X0443901Y0288494D02*
X0386744Y0288494D01*
X0386971Y0286895D02*
X0443898Y0286895D01*
X0443895Y0285297D02*
X0386464Y0285297D01*
X0384214Y0283698D02*
X0443892Y0283698D01*
X0443889Y0282100D02*
X0369054Y0282100D01*
X0369254Y0283698D02*
X0382565Y0283698D01*
X0380316Y0285297D02*
X0368721Y0285297D01*
X0367943Y0280501D02*
X0443886Y0280501D01*
X0443883Y0278903D02*
X0212870Y0278903D01*
X0206744Y0278903D02*
X0054081Y0278903D01*
X0054081Y0280501D02*
X0145103Y0280501D01*
X0143461Y0282100D02*
X0054081Y0282100D01*
X0054081Y0283698D02*
X0142887Y0283698D01*
X0149472Y0280501D02*
X0165103Y0280501D01*
X0163461Y0282100D02*
X0151114Y0282100D01*
X0151687Y0283698D02*
X0162887Y0283698D01*
X0162913Y0285297D02*
X0151661Y0285297D01*
X0150974Y0286895D02*
X0163601Y0286895D01*
X0170974Y0286895D02*
X0205872Y0286895D01*
X0204883Y0285297D02*
X0171661Y0285297D01*
X0171687Y0283698D02*
X0204507Y0283698D01*
X0204582Y0282100D02*
X0171114Y0282100D01*
X0169472Y0280501D02*
X0205244Y0280501D01*
X0213742Y0286895D02*
X0379809Y0286895D01*
X0443881Y0277304D02*
X0054081Y0277304D01*
X0054081Y0275706D02*
X0443878Y0275706D01*
X0443875Y0274107D02*
X0054081Y0274107D01*
X0054081Y0272509D02*
X0443872Y0272509D01*
X0443840Y0254925D02*
X0161457Y0254925D01*
X0161687Y0253327D02*
X0443837Y0253327D01*
X0206224Y0440776D02*
X0202287Y0440776D01*
X0207074Y0446747D02*
X0054081Y0446747D01*
X0054081Y0448345D02*
X0206580Y0448345D01*
X0206821Y0449944D02*
X0054081Y0449944D01*
X0054081Y0451542D02*
X0207989Y0451542D01*
X0194535Y0427564D02*
X0191300Y0427564D01*
X0191892Y0425966D02*
X0193943Y0425966D01*
X0194019Y0424367D02*
X0191815Y0424367D01*
X0190964Y0422769D02*
X0194871Y0422769D01*
X0184871Y0422769D02*
X0180964Y0422769D01*
X0181815Y0424367D02*
X0184019Y0424367D01*
X0183943Y0425966D02*
X0181892Y0425966D01*
X0181300Y0427564D02*
X0184535Y0427564D01*
X0174535Y0427564D02*
X0171300Y0427564D01*
X0171892Y0425966D02*
X0173943Y0425966D01*
X0174019Y0424367D02*
X0171815Y0424367D01*
X0170964Y0422769D02*
X0174871Y0422769D01*
X0164871Y0422769D02*
X0160964Y0422769D01*
X0161815Y0424367D02*
X0164019Y0424367D01*
X0163943Y0425966D02*
X0161892Y0425966D01*
X0161300Y0427564D02*
X0164535Y0427564D01*
X0154535Y0427564D02*
X0151300Y0427564D01*
X0151892Y0425966D02*
X0153943Y0425966D01*
X0154019Y0424367D02*
X0151815Y0424367D01*
X0150964Y0422769D02*
X0154871Y0422769D01*
X0144871Y0422769D02*
X0140964Y0422769D01*
X0141815Y0424367D02*
X0144019Y0424367D01*
X0143943Y0425966D02*
X0141892Y0425966D01*
X0141300Y0427564D02*
X0144535Y0427564D01*
X0134535Y0427564D02*
X0131300Y0427564D01*
X0131892Y0425966D02*
X0133943Y0425966D01*
X0134019Y0424367D02*
X0131815Y0424367D01*
X0130964Y0422769D02*
X0134871Y0422769D01*
X0124871Y0422769D02*
X0120964Y0422769D01*
X0121815Y0424367D02*
X0124019Y0424367D01*
X0123943Y0425966D02*
X0121892Y0425966D01*
X0121300Y0427564D02*
X0124535Y0427564D01*
X0114535Y0427564D02*
X0111300Y0427564D01*
X0111892Y0425966D02*
X0113943Y0425966D01*
X0114019Y0424367D02*
X0111815Y0424367D01*
X0110964Y0422769D02*
X0114871Y0422769D01*
X0104871Y0422769D02*
X0100964Y0422769D01*
X0101815Y0424367D02*
X0104019Y0424367D01*
X0103943Y0425966D02*
X0101892Y0425966D01*
X0101300Y0427564D02*
X0104535Y0427564D01*
X0094535Y0427564D02*
X0091300Y0427564D01*
X0091892Y0425966D02*
X0093943Y0425966D01*
X0094019Y0424367D02*
X0091815Y0424367D01*
X0090964Y0422769D02*
X0094871Y0422769D01*
X0084871Y0422769D02*
X0080964Y0422769D01*
X0081815Y0424367D02*
X0084019Y0424367D01*
X0083943Y0425966D02*
X0081892Y0425966D01*
X0081300Y0427564D02*
X0084535Y0427564D01*
X0074535Y0427564D02*
X0071300Y0427564D01*
X0071892Y0425966D02*
X0073943Y0425966D01*
X0074019Y0424367D02*
X0071815Y0424367D01*
X0070964Y0422769D02*
X0074871Y0422769D01*
X0064871Y0422769D02*
X0060964Y0422769D01*
X0061815Y0424367D02*
X0064019Y0424367D01*
X0063943Y0425966D02*
X0061892Y0425966D01*
X0061300Y0427564D02*
X0064535Y0427564D01*
X0064712Y0437155D02*
X0054081Y0437155D01*
X0054081Y0438754D02*
X0063849Y0438754D01*
X0063562Y0440352D02*
X0054081Y0440352D01*
X0054081Y0441951D02*
X0063726Y0441951D01*
X0064416Y0443550D02*
X0054081Y0443550D01*
X0054081Y0445148D02*
X0066232Y0445148D01*
X0054081Y0488308D02*
X0206001Y0488308D01*
X0204936Y0489906D02*
X0170396Y0489906D01*
X0169780Y0489290D02*
X0171018Y0490528D01*
X0171687Y0492145D01*
X0171687Y0493896D01*
X0171018Y0495513D01*
X0169780Y0496751D01*
X0168163Y0497420D01*
X0166412Y0497420D01*
X0164795Y0496751D01*
X0163557Y0495513D01*
X0162887Y0493896D01*
X0162887Y0492145D01*
X0163557Y0490528D01*
X0164795Y0489290D01*
X0166412Y0488620D01*
X0168163Y0488620D01*
X0169780Y0489290D01*
X0171422Y0491505D02*
X0204507Y0491505D01*
X0204529Y0493103D02*
X0171687Y0493103D01*
X0171353Y0494702D02*
X0205191Y0494702D01*
X0206615Y0496300D02*
X0170230Y0496300D01*
X0164345Y0496300D02*
X0150230Y0496300D01*
X0149780Y0496751D02*
X0148163Y0497420D01*
X0146412Y0497420D01*
X0144795Y0496751D01*
X0143557Y0495513D01*
X0142887Y0493896D01*
X0142887Y0492145D01*
X0143557Y0490528D01*
X0144795Y0489290D01*
X0146412Y0488620D01*
X0148163Y0488620D01*
X0149780Y0489290D01*
X0151018Y0490528D01*
X0151687Y0492145D01*
X0151687Y0493896D01*
X0151018Y0495513D01*
X0149780Y0496751D01*
X0151353Y0494702D02*
X0163221Y0494702D01*
X0162887Y0493103D02*
X0151687Y0493103D01*
X0151422Y0491505D02*
X0163153Y0491505D01*
X0164179Y0489906D02*
X0150396Y0489906D01*
X0144179Y0489906D02*
X0054081Y0489906D01*
X0054081Y0491505D02*
X0143153Y0491505D01*
X0142887Y0493103D02*
X0054081Y0493103D01*
X0054081Y0494702D02*
X0082451Y0494702D01*
X0080948Y0496300D02*
X0054081Y0496300D01*
X0054081Y0497899D02*
X0080596Y0497899D01*
X0080978Y0499497D02*
X0054081Y0499497D01*
X0054081Y0501096D02*
X0082624Y0501096D01*
X0085730Y0501096D02*
X0111313Y0501096D01*
X0110273Y0502694D02*
X0054081Y0502694D01*
X0054081Y0504293D02*
X0104712Y0504293D01*
X0105118Y0504124D02*
X0106543Y0504124D01*
X0107859Y0504670D01*
X0108867Y0505677D01*
X0109412Y0506993D01*
X0109412Y0508418D01*
X0108867Y0509734D01*
X0107859Y0510741D01*
X0106543Y0511287D01*
X0105118Y0511287D01*
X0103802Y0510741D01*
X0102795Y0509734D01*
X0102250Y0508418D01*
X0102250Y0506993D01*
X0102795Y0505677D01*
X0103802Y0504670D01*
X0105118Y0504124D01*
X0106950Y0504293D02*
X0110124Y0504293D01*
X0110763Y0505891D02*
X0108955Y0505891D01*
X0109412Y0507490D02*
X0183659Y0507490D01*
X0182958Y0509088D02*
X0109134Y0509088D01*
X0107914Y0510687D02*
X0183083Y0510687D01*
X0184086Y0512285D02*
X0054081Y0512285D01*
X0054081Y0510687D02*
X0103748Y0510687D01*
X0102527Y0509088D02*
X0054081Y0509088D01*
X0054081Y0507490D02*
X0102250Y0507490D01*
X0102706Y0505891D02*
X0054081Y0505891D01*
X0085903Y0494702D02*
X0143221Y0494702D01*
X0144345Y0496300D02*
X0087406Y0496300D01*
X0102993Y0584219D02*
X0054081Y0584219D01*
X0054081Y0585817D02*
X0102250Y0585817D01*
X0102356Y0587416D02*
X0054081Y0587416D01*
X0054081Y0589014D02*
X0103335Y0589014D01*
X0145302Y0646560D02*
X0054081Y0646560D01*
X0054081Y0644962D02*
X0206858Y0644962D01*
X0205279Y0646560D02*
X0169272Y0646560D01*
X0169780Y0646771D02*
X0171018Y0648008D01*
X0171687Y0649626D01*
X0171687Y0651376D01*
X0171018Y0652993D01*
X0169780Y0654231D01*
X0168163Y0654901D01*
X0166412Y0654901D01*
X0164795Y0654231D01*
X0163557Y0652993D01*
X0162887Y0651376D01*
X0162887Y0649626D01*
X0163557Y0648008D01*
X0164795Y0646771D01*
X0166412Y0646101D01*
X0168163Y0646101D01*
X0169780Y0646771D01*
X0171080Y0648159D02*
X0204616Y0648159D01*
X0204507Y0649757D02*
X0171687Y0649757D01*
X0171687Y0651356D02*
X0204849Y0651356D01*
X0205789Y0652954D02*
X0171034Y0652954D01*
X0169002Y0654553D02*
X0208212Y0654553D01*
X0211402Y0654553D02*
X0380002Y0654553D01*
X0360311Y0680129D02*
X0360090Y0680129D01*
X0361189Y0681728D02*
X0361403Y0681728D01*
X0444661Y0710501D02*
X0054081Y0710501D01*
X0054081Y0712099D02*
X0444664Y0712099D01*
X0216526Y0688122D02*
X0161064Y0688122D01*
X0159182Y0686523D02*
X0214844Y0686523D01*
X0174305Y0622583D02*
X0163341Y0622583D01*
X0164380Y0620984D02*
X0173266Y0620984D01*
X0173116Y0619386D02*
X0164530Y0619386D01*
X0163890Y0617787D02*
X0173755Y0617787D01*
X0165302Y0646560D02*
X0149272Y0646560D01*
X0151080Y0648159D02*
X0163495Y0648159D01*
X0162887Y0649757D02*
X0151687Y0649757D01*
X0151687Y0651356D02*
X0162887Y0651356D01*
X0163541Y0652954D02*
X0151034Y0652954D01*
X0149002Y0654553D02*
X0165573Y0654553D01*
X0168500Y0680129D02*
X0132666Y0680129D01*
X0132660Y0681728D02*
X0167402Y0681728D01*
X0167210Y0683326D02*
X0131998Y0683326D01*
X0130595Y0684925D02*
X0167753Y0684925D01*
X0155483Y0694516D02*
X0097453Y0694516D01*
X0096136Y0692917D02*
X0153526Y0692917D01*
X0142887Y0651356D02*
X0054081Y0651356D01*
X0054081Y0652954D02*
X0081502Y0652954D01*
X0080628Y0654553D02*
X0054081Y0654553D01*
X0054081Y0656152D02*
X0080636Y0656152D01*
X0081519Y0657750D02*
X0054081Y0657750D01*
X0054081Y0649757D02*
X0142887Y0649757D01*
X0143495Y0648159D02*
X0054081Y0648159D01*
X0054081Y0681728D02*
X0060754Y0681728D01*
X0059287Y0683326D02*
X0054081Y0683326D01*
X0054081Y0684925D02*
X0058943Y0684925D01*
X0059332Y0686523D02*
X0054081Y0686523D01*
X0054081Y0608196D02*
X0059525Y0608196D01*
X0058943Y0606598D02*
X0054081Y0606598D01*
X0054081Y0604999D02*
X0059116Y0604999D01*
X0060189Y0603401D02*
X0054081Y0603401D01*
X0143232Y0399438D02*
X0143232Y0397469D01*
X0166682Y0350836D02*
X0191928Y0350836D01*
X0190943Y0349237D02*
X0166682Y0349237D01*
X0166031Y0347639D02*
X0190832Y0347639D01*
X0191565Y0346040D02*
X0164653Y0346040D01*
X0163671Y0334851D02*
X0173974Y0334851D01*
X0173129Y0333252D02*
X0164517Y0333252D01*
X0164471Y0331654D02*
X0173175Y0331654D01*
X0174086Y0330055D02*
X0163560Y0330055D01*
X0123514Y0310873D02*
X0103039Y0310873D01*
X0104232Y0312472D02*
X0122477Y0312472D01*
X0122066Y0314070D02*
X0104491Y0314070D01*
X0104015Y0315669D02*
X0122107Y0315669D01*
X0111618Y0298085D02*
X0109310Y0298085D01*
X0108338Y0296486D02*
X0110400Y0296486D01*
X0105831Y0348257D02*
X0101894Y0348257D01*
X0107799Y0389595D02*
X0111736Y0389595D01*
X0195500Y0408382D02*
X0196153Y0408382D01*
X0174506Y0264516D02*
X0163140Y0264516D01*
X0164297Y0262918D02*
X0173349Y0262918D01*
X0173116Y0261319D02*
X0164530Y0261319D01*
X0164029Y0259721D02*
X0173617Y0259721D01*
X0174179Y0189386D02*
X0163466Y0189386D01*
X0164432Y0187788D02*
X0173214Y0187788D01*
X0173116Y0186189D02*
X0164530Y0186189D01*
X0163765Y0184591D02*
X0173881Y0184591D01*
X0158133Y0184591D02*
X0098060Y0184591D01*
X0098060Y0186189D02*
X0157368Y0186189D01*
X0157465Y0187788D02*
X0097435Y0187788D01*
X0096094Y0189386D02*
X0158431Y0189386D01*
X0156177Y0182992D02*
X0097572Y0182992D01*
X0096424Y0181394D02*
X0153769Y0181394D01*
X0112030Y0152620D02*
X0109394Y0152620D01*
X0108542Y0151022D02*
X0110485Y0151022D01*
X0110124Y0149423D02*
X0054081Y0149423D01*
X0054081Y0147825D02*
X0110497Y0147825D01*
X0103119Y0151022D02*
X0054081Y0151022D01*
X0054081Y0152620D02*
X0102267Y0152620D01*
X0102304Y0154219D02*
X0054081Y0154219D01*
X0054081Y0155817D02*
X0103209Y0155817D01*
X0081807Y0146226D02*
X0054081Y0146226D01*
X0054081Y0144628D02*
X0080755Y0144628D01*
X0080596Y0143029D02*
X0054081Y0143029D01*
X0054081Y0141431D02*
X0081214Y0141431D01*
D16*
X0084177Y0143532D03*
X0100909Y0168139D03*
X0105831Y0153375D03*
X0113705Y0149438D03*
X0121579Y0160265D03*
X0133390Y0178965D03*
X0127484Y0212430D03*
X0113705Y0224241D03*
X0121579Y0235068D03*
X0105831Y0228178D03*
X0100909Y0242942D03*
X0084177Y0218335D03*
X0062524Y0220304D03*
X0062524Y0247863D03*
X0062524Y0291170D03*
X0062524Y0318729D03*
X0084177Y0289202D03*
X0100909Y0313808D03*
X0105831Y0299044D03*
X0113705Y0295107D03*
X0121579Y0305934D03*
X0133390Y0324635D03*
X0160949Y0332509D03*
X0170791Y0316761D03*
X0176697Y0332509D03*
X0194413Y0348257D03*
X0202287Y0332509D03*
X0218035Y0318729D03*
X0229846Y0330540D03*
X0212130Y0356131D03*
X0184571Y0377784D03*
X0176303Y0390383D03*
X0176697Y0397469D03*
X0178665Y0403375D03*
X0198350Y0411249D03*
X0210161Y0417154D03*
X0214098Y0426997D03*
X0202287Y0440776D03*
X0210161Y0448650D03*
X0229846Y0414202D03*
X0235752Y0423060D03*
X0251500Y0409280D03*
X0277169Y0405422D03*
X0286933Y0385658D03*
X0263311Y0340383D03*
X0253469Y0350225D03*
X0273154Y0322666D03*
X0281028Y0306918D03*
X0316461Y0310855D03*
X0324335Y0283296D03*
X0342051Y0283296D03*
X0340083Y0267548D03*
X0357799Y0245894D03*
X0363705Y0241957D03*
X0365673Y0230146D03*
X0365673Y0212430D03*
X0383390Y0216367D03*
X0395201Y0234083D03*
X0385358Y0238020D03*
X0405043Y0224241D03*
X0420791Y0232115D03*
X0410949Y0253769D03*
X0410949Y0261643D03*
X0405043Y0295107D03*
X0395201Y0304950D03*
X0385358Y0308887D03*
X0383390Y0287233D03*
X0365673Y0283296D03*
X0365673Y0301013D03*
X0363705Y0312824D03*
X0357799Y0316761D03*
X0340083Y0338414D03*
X0316461Y0239989D03*
X0324335Y0212430D03*
X0342051Y0212430D03*
X0340083Y0192745D03*
X0357799Y0171091D03*
X0363705Y0167154D03*
X0365673Y0155343D03*
X0365673Y0137627D03*
X0383390Y0141564D03*
X0395201Y0159280D03*
X0385358Y0163217D03*
X0405043Y0149438D03*
X0420791Y0157312D03*
X0410949Y0178965D03*
X0410949Y0186839D03*
X0342051Y0137627D03*
X0324335Y0137627D03*
X0316461Y0165186D03*
X0281028Y0161249D03*
X0273154Y0176997D03*
X0281028Y0236052D03*
X0273154Y0251800D03*
X0229846Y0259674D03*
X0218035Y0247863D03*
X0202287Y0261643D03*
X0186539Y0230146D03*
X0172760Y0220304D03*
X0170791Y0245894D03*
X0176697Y0261643D03*
X0160949Y0261643D03*
X0172760Y0291170D03*
X0186539Y0301013D03*
X0229846Y0299044D03*
X0229846Y0228178D03*
X0202287Y0186839D03*
X0218035Y0173060D03*
X0229846Y0184871D03*
X0229846Y0153375D03*
X0186539Y0155343D03*
X0172760Y0145501D03*
X0170791Y0171091D03*
X0176697Y0186839D03*
X0160949Y0186839D03*
X0127484Y0137627D03*
X0062524Y0145501D03*
X0062524Y0173060D03*
X0133390Y0253769D03*
X0127484Y0283296D03*
X0090083Y0340383D03*
X0101894Y0348257D03*
X0094020Y0375816D03*
X0111736Y0389595D03*
X0107799Y0413217D03*
X0127484Y0436839D03*
X0143232Y0397469D03*
X0127484Y0491957D03*
X0113705Y0503769D03*
X0121579Y0514595D03*
X0105831Y0507706D03*
X0100909Y0522469D03*
X0084177Y0497863D03*
X0062524Y0499831D03*
X0062524Y0527391D03*
X0084177Y0576603D03*
X0105831Y0586446D03*
X0113705Y0582509D03*
X0121579Y0593335D03*
X0133390Y0612036D03*
X0160949Y0619910D03*
X0170791Y0604162D03*
X0176697Y0619910D03*
X0186539Y0588414D03*
X0172760Y0578572D03*
X0176697Y0541170D03*
X0170791Y0525422D03*
X0160949Y0541170D03*
X0133390Y0533296D03*
X0127484Y0570698D03*
X0100909Y0601209D03*
X0127484Y0649438D03*
X0113705Y0661249D03*
X0121579Y0672076D03*
X0105831Y0665186D03*
X0100909Y0679950D03*
X0084177Y0655343D03*
X0062524Y0657312D03*
X0062524Y0684871D03*
X0062524Y0606131D03*
X0062524Y0578572D03*
X0133390Y0690776D03*
X0160949Y0698650D03*
X0170791Y0682902D03*
X0176697Y0698650D03*
X0186539Y0667154D03*
X0172760Y0657312D03*
X0202287Y0619910D03*
X0218035Y0606131D03*
X0229846Y0617942D03*
X0229846Y0586446D03*
X0202287Y0541170D03*
X0218035Y0527391D03*
X0229846Y0539202D03*
X0229846Y0507706D03*
X0186539Y0509674D03*
X0172760Y0499831D03*
X0273154Y0531328D03*
X0281028Y0515580D03*
X0316461Y0519517D03*
X0324335Y0491957D03*
X0342051Y0491957D03*
X0365673Y0491957D03*
X0365673Y0509674D03*
X0363705Y0521485D03*
X0357799Y0525422D03*
X0340083Y0547076D03*
X0342051Y0570698D03*
X0324335Y0570698D03*
X0316461Y0598257D03*
X0340083Y0625816D03*
X0342051Y0649438D03*
X0324335Y0649438D03*
X0316461Y0676997D03*
X0340083Y0704556D03*
X0357799Y0682902D03*
X0363705Y0678965D03*
X0365673Y0667154D03*
X0365673Y0649438D03*
X0383390Y0653375D03*
X0395201Y0671091D03*
X0385358Y0675028D03*
X0405043Y0661249D03*
X0420791Y0669123D03*
X0410949Y0690776D03*
X0410949Y0698650D03*
X0410949Y0619910D03*
X0410949Y0612036D03*
X0420791Y0590383D03*
X0405043Y0582509D03*
X0395201Y0592351D03*
X0385358Y0596288D03*
X0383390Y0574635D03*
X0365673Y0570698D03*
X0365673Y0588414D03*
X0363705Y0600225D03*
X0357799Y0604162D03*
X0410949Y0541170D03*
X0410949Y0533296D03*
X0420791Y0511643D03*
X0405043Y0503769D03*
X0395201Y0513611D03*
X0385358Y0517548D03*
X0383390Y0495894D03*
X0281028Y0594320D03*
X0273154Y0610068D03*
X0281028Y0673060D03*
X0273154Y0688808D03*
X0229846Y0696682D03*
X0218035Y0684871D03*
X0202287Y0698650D03*
X0229846Y0665186D03*
X0062524Y0385658D03*
X0410949Y0332509D03*
X0410949Y0324635D03*
X0420791Y0302981D03*
D17*
X0422760Y0302981D01*
X0414886Y0324635D02*
X0410949Y0324635D01*
X0410949Y0253769D02*
X0414886Y0253769D01*
X0420791Y0232115D02*
X0422760Y0232115D01*
X0414886Y0178965D02*
X0410949Y0178965D01*
X0420791Y0157312D02*
X0422760Y0157312D01*
X0342051Y0137627D02*
X0340083Y0137627D01*
X0340083Y0212430D02*
X0342051Y0212430D01*
X0342051Y0283296D02*
X0340083Y0283296D01*
X0273154Y0251800D02*
X0269217Y0251800D01*
X0231815Y0257706D02*
X0229846Y0259674D01*
X0206224Y0261643D02*
X0202287Y0261643D01*
X0172760Y0291170D02*
X0170791Y0291170D01*
X0202287Y0332509D02*
X0206224Y0332509D01*
X0229846Y0330540D02*
X0231815Y0328572D01*
X0269217Y0322666D02*
X0273154Y0322666D01*
X0253469Y0409280D02*
X0251500Y0409280D01*
X0172760Y0499831D02*
X0170791Y0499831D01*
X0202287Y0541170D02*
X0206224Y0541170D01*
X0229846Y0539202D02*
X0231815Y0537233D01*
X0269217Y0531328D02*
X0273154Y0531328D01*
X0273154Y0610068D02*
X0269217Y0610068D01*
X0231815Y0615973D02*
X0229846Y0617942D01*
X0206224Y0619910D02*
X0202287Y0619910D01*
X0172760Y0657312D02*
X0170791Y0657312D01*
X0202287Y0698650D02*
X0206224Y0698650D01*
X0229846Y0696682D02*
X0231815Y0694713D01*
X0269217Y0688808D02*
X0273154Y0688808D01*
X0340083Y0649438D02*
X0342051Y0649438D01*
X0342051Y0570698D02*
X0340083Y0570698D01*
X0340083Y0491957D02*
X0342051Y0491957D01*
X0410949Y0533296D02*
X0414886Y0533296D01*
X0420791Y0511643D02*
X0422760Y0511643D01*
X0422760Y0590383D02*
X0420791Y0590383D01*
X0414886Y0612036D02*
X0410949Y0612036D01*
X0420791Y0669123D02*
X0422760Y0669123D01*
X0414886Y0690776D02*
X0410949Y0690776D01*
X0172760Y0578572D02*
X0170791Y0578572D01*
X0131421Y0566761D02*
X0131421Y0564792D01*
X0121579Y0593335D02*
X0120594Y0594320D01*
X0121579Y0594320D01*
X0131421Y0643532D02*
X0131421Y0645501D01*
X0121579Y0672076D02*
X0120594Y0673060D01*
X0121579Y0673060D01*
X0062524Y0657312D02*
X0062524Y0655343D01*
X0062524Y0578572D02*
X0062524Y0576603D01*
X0062524Y0499831D02*
X0062524Y0497863D01*
X0120594Y0515580D02*
X0121579Y0515580D01*
X0121579Y0514595D02*
X0120594Y0515580D01*
X0131421Y0488020D02*
X0131421Y0486052D01*
X0062524Y0385658D02*
X0062524Y0383690D01*
X0062524Y0291170D02*
X0062524Y0289202D01*
X0062524Y0220304D02*
X0062524Y0218335D01*
X0062524Y0145501D02*
X0062524Y0143532D01*
X0120594Y0161249D02*
X0121579Y0161249D01*
X0121579Y0160265D02*
X0120594Y0161249D01*
X0131421Y0133690D02*
X0131421Y0131721D01*
X0170791Y0145501D02*
X0172760Y0145501D01*
X0202287Y0186839D02*
X0206224Y0186839D01*
X0229846Y0184871D02*
X0231815Y0182902D01*
X0269217Y0176997D02*
X0273154Y0176997D01*
X0172760Y0220304D02*
X0170791Y0220304D01*
X0131421Y0208493D02*
X0131421Y0206524D01*
X0121579Y0235068D02*
X0120594Y0236052D01*
X0121579Y0236052D01*
X0131421Y0277391D02*
X0131421Y0279359D01*
X0121579Y0305934D02*
X0120594Y0306918D01*
X0121579Y0306918D01*
D18*
X0127484Y0283296D02*
X0127484Y0279359D01*
X0127484Y0212430D02*
X0127484Y0208493D01*
X0127484Y0137627D02*
X0127484Y0133690D01*
X0127484Y0488020D02*
X0127484Y0491957D01*
X0127484Y0566761D02*
X0127484Y0570698D01*
X0127484Y0645501D02*
X0127484Y0649438D01*
X0385358Y0675028D02*
X0389295Y0675028D01*
X0389295Y0596288D02*
X0385358Y0596288D01*
X0385358Y0517548D02*
X0389295Y0517548D01*
X0389295Y0308887D02*
X0385358Y0308887D01*
X0385358Y0238020D02*
X0389295Y0238020D01*
X0389295Y0163217D02*
X0385358Y0163217D01*
M02*
