G75*
%MOIN*%
%OFA0B0*%
%FSLAX25Y25*%
%IPPOS*%
%LPD*%
%AMOC8*
5,1,8,0,0,1.08239X$1,22.5*
%
%ADD10R,0.04724X0.02165*%
%ADD11R,0.05118X0.05906*%
%ADD12R,0.05906X0.05118*%
%ADD13R,0.05600X0.01200*%
%ADD14R,0.18110X0.03937*%
%ADD15R,0.13386X0.06299*%
%ADD16C,0.06000*%
%ADD17R,0.08661X0.02362*%
%ADD18OC8,0.07000*%
%ADD19OC8,0.08500*%
%ADD20R,0.05800X0.01400*%
%ADD21OC8,0.05600*%
%ADD22R,0.04724X0.04724*%
%ADD23R,0.05118X0.06299*%
%ADD24C,0.05550*%
%ADD25C,0.05550*%
%ADD26C,0.01600*%
%ADD27R,0.04362X0.04362*%
%ADD28C,0.01000*%
%ADD29C,0.01200*%
%ADD30C,0.02400*%
D10*
X0277169Y0392469D03*
X0277169Y0399950D03*
X0287406Y0399950D03*
X0287406Y0396209D03*
X0287406Y0392469D03*
D11*
X0292720Y0413572D03*
X0300201Y0413572D03*
X0318272Y0331328D03*
X0325752Y0331328D03*
X0327012Y0321485D03*
X0319531Y0321485D03*
X0316224Y0303769D03*
X0323705Y0303769D03*
X0335358Y0303178D03*
X0335201Y0291957D03*
X0342681Y0291957D03*
X0342839Y0303178D03*
X0350122Y0283296D03*
X0357602Y0283296D03*
X0345516Y0260265D03*
X0338035Y0260265D03*
X0337957Y0250422D03*
X0345437Y0250422D03*
X0342839Y0232312D03*
X0335358Y0232312D03*
X0335201Y0221091D03*
X0342681Y0221091D03*
X0350122Y0212430D03*
X0357602Y0212430D03*
X0345516Y0185461D03*
X0338035Y0185461D03*
X0337957Y0175619D03*
X0345437Y0175619D03*
X0342839Y0157509D03*
X0335358Y0157509D03*
X0335201Y0146288D03*
X0342681Y0146288D03*
X0350122Y0137627D03*
X0357602Y0137627D03*
X0371382Y0163217D03*
X0378862Y0163217D03*
X0405240Y0157312D03*
X0412720Y0157312D03*
X0411343Y0169910D03*
X0418823Y0169910D03*
X0415043Y0142154D03*
X0407563Y0142154D03*
X0407563Y0216957D03*
X0415043Y0216957D03*
X0412720Y0232115D03*
X0405240Y0232115D03*
X0411343Y0244713D03*
X0418823Y0244713D03*
X0415043Y0287824D03*
X0407563Y0287824D03*
X0405240Y0302981D03*
X0412720Y0302981D03*
X0411343Y0315580D03*
X0418823Y0315580D03*
X0378862Y0308887D03*
X0371382Y0308887D03*
X0345437Y0321288D03*
X0337957Y0321288D03*
X0338035Y0331131D03*
X0345516Y0331131D03*
X0324413Y0291957D03*
X0316933Y0291957D03*
X0318272Y0260461D03*
X0325752Y0260461D03*
X0327012Y0250619D03*
X0319531Y0250619D03*
X0316224Y0232902D03*
X0323705Y0232902D03*
X0324413Y0221091D03*
X0316933Y0221091D03*
X0318272Y0185658D03*
X0325752Y0185658D03*
X0327012Y0175816D03*
X0319531Y0175816D03*
X0316224Y0158099D03*
X0323705Y0158099D03*
X0324413Y0146288D03*
X0316933Y0146288D03*
X0263272Y0185461D03*
X0255791Y0185461D03*
X0246776Y0185461D03*
X0239295Y0185461D03*
X0222602Y0185461D03*
X0215122Y0185461D03*
X0229335Y0210461D03*
X0229020Y0219713D03*
X0236500Y0219713D03*
X0236815Y0210461D03*
X0239295Y0260265D03*
X0246776Y0260265D03*
X0255791Y0260265D03*
X0263272Y0260265D03*
X0236815Y0281328D03*
X0236500Y0290580D03*
X0229020Y0290580D03*
X0229335Y0281328D03*
X0222602Y0260265D03*
X0215122Y0260265D03*
X0193823Y0261052D03*
X0186343Y0261052D03*
X0189295Y0292351D03*
X0181815Y0292351D03*
X0186343Y0331918D03*
X0193823Y0331918D03*
X0215122Y0331131D03*
X0222602Y0331131D03*
X0239295Y0331131D03*
X0246776Y0331131D03*
X0255791Y0331131D03*
X0263272Y0331131D03*
X0192248Y0440776D03*
X0184768Y0440776D03*
X0172563Y0440776D03*
X0165083Y0440776D03*
X0146972Y0438808D03*
X0139492Y0438808D03*
X0109571Y0444713D03*
X0102091Y0444713D03*
X0070949Y0392942D03*
X0063469Y0392942D03*
X0063429Y0348847D03*
X0070909Y0348847D03*
X0085280Y0348847D03*
X0092760Y0348847D03*
X0077878Y0320698D03*
X0070398Y0320698D03*
X0070398Y0249831D03*
X0077878Y0249831D03*
X0077878Y0175028D03*
X0070398Y0175028D03*
X0181815Y0146682D03*
X0189295Y0146682D03*
X0186343Y0186249D03*
X0193823Y0186249D03*
X0189295Y0221485D03*
X0181815Y0221485D03*
X0229020Y0144910D03*
X0229335Y0135658D03*
X0236815Y0135658D03*
X0236500Y0144910D03*
X0371382Y0238020D03*
X0378862Y0238020D03*
X0357602Y0491957D03*
X0350122Y0491957D03*
X0342681Y0500619D03*
X0335201Y0500619D03*
X0324413Y0500619D03*
X0316933Y0500619D03*
X0316224Y0512430D03*
X0323705Y0512430D03*
X0335358Y0511839D03*
X0342839Y0511839D03*
X0345437Y0529950D03*
X0337957Y0529950D03*
X0338035Y0539792D03*
X0345516Y0539792D03*
X0325752Y0539989D03*
X0318272Y0539989D03*
X0319531Y0530146D03*
X0327012Y0530146D03*
X0350122Y0570698D03*
X0342681Y0579359D03*
X0342839Y0590580D03*
X0335358Y0590580D03*
X0335201Y0579359D03*
X0324413Y0579359D03*
X0323705Y0591170D03*
X0316224Y0591170D03*
X0316933Y0579359D03*
X0319531Y0608887D03*
X0327012Y0608887D03*
X0325752Y0618729D03*
X0318272Y0618729D03*
X0338035Y0618532D03*
X0345516Y0618532D03*
X0345437Y0608690D03*
X0337957Y0608690D03*
X0350122Y0649438D03*
X0342681Y0658099D03*
X0335201Y0658099D03*
X0324413Y0658099D03*
X0316933Y0658099D03*
X0316224Y0669910D03*
X0323705Y0669910D03*
X0335358Y0669320D03*
X0342839Y0669320D03*
X0345437Y0687430D03*
X0337957Y0687430D03*
X0338035Y0697272D03*
X0345516Y0697272D03*
X0325752Y0697469D03*
X0318272Y0697469D03*
X0319531Y0687627D03*
X0327012Y0687627D03*
X0357602Y0649438D03*
X0371382Y0675028D03*
X0378862Y0675028D03*
X0405240Y0669123D03*
X0412720Y0669123D03*
X0411343Y0681721D03*
X0418823Y0681721D03*
X0415043Y0653965D03*
X0407563Y0653965D03*
X0411343Y0602981D03*
X0418823Y0602981D03*
X0412720Y0590383D03*
X0405240Y0590383D03*
X0407563Y0575225D03*
X0415043Y0575225D03*
X0378862Y0596288D03*
X0371382Y0596288D03*
X0357602Y0570698D03*
X0371382Y0517548D03*
X0378862Y0517548D03*
X0405240Y0511643D03*
X0412720Y0511643D03*
X0411343Y0524241D03*
X0418823Y0524241D03*
X0415043Y0496485D03*
X0407563Y0496485D03*
X0263272Y0539792D03*
X0255791Y0539792D03*
X0246776Y0539792D03*
X0239295Y0539792D03*
X0222602Y0539792D03*
X0215122Y0539792D03*
X0193823Y0540580D03*
X0186343Y0540580D03*
X0189295Y0579753D03*
X0181815Y0579753D03*
X0186343Y0619320D03*
X0193823Y0619320D03*
X0215122Y0618532D03*
X0222602Y0618532D03*
X0239295Y0618532D03*
X0246776Y0618532D03*
X0255791Y0618532D03*
X0263272Y0618532D03*
X0236815Y0647469D03*
X0236500Y0656721D03*
X0229020Y0656721D03*
X0229335Y0647469D03*
X0222602Y0697272D03*
X0215122Y0697272D03*
X0193823Y0698060D03*
X0186343Y0698060D03*
X0189295Y0658493D03*
X0181815Y0658493D03*
X0239295Y0697272D03*
X0246776Y0697272D03*
X0255791Y0697272D03*
X0263272Y0697272D03*
X0236500Y0577981D03*
X0229020Y0577981D03*
X0229335Y0568729D03*
X0236815Y0568729D03*
X0236500Y0499241D03*
X0236815Y0489989D03*
X0229335Y0489989D03*
X0229020Y0499241D03*
X0189295Y0501013D03*
X0181815Y0501013D03*
X0150909Y0389595D03*
X0143429Y0389595D03*
X0127287Y0389595D03*
X0119807Y0389595D03*
X0077878Y0529359D03*
X0070398Y0529359D03*
X0070398Y0608099D03*
X0077878Y0608099D03*
X0077878Y0686839D03*
X0070398Y0686839D03*
D12*
X0072366Y0675894D03*
X0072366Y0668414D03*
X0062524Y0667981D03*
X0062524Y0675461D03*
X0082799Y0675540D03*
X0082799Y0668060D03*
X0114059Y0692469D03*
X0114059Y0699950D03*
X0125161Y0699320D03*
X0125161Y0691839D03*
X0127839Y0663729D03*
X0127839Y0656249D03*
X0149138Y0669320D03*
X0149138Y0676800D03*
X0114059Y0621209D03*
X0114059Y0613729D03*
X0125161Y0613099D03*
X0125161Y0620580D03*
X0127839Y0584989D03*
X0127839Y0577509D03*
X0149138Y0590580D03*
X0149138Y0598060D03*
X0125161Y0541839D03*
X0125161Y0534359D03*
X0114059Y0534989D03*
X0114059Y0542469D03*
X0127839Y0506249D03*
X0127839Y0498769D03*
X0149138Y0511839D03*
X0149138Y0519320D03*
X0119610Y0444517D03*
X0119610Y0437036D03*
X0127484Y0409083D03*
X0127484Y0401603D03*
X0151106Y0403572D03*
X0151106Y0411052D03*
X0125161Y0333178D03*
X0125161Y0325698D03*
X0114059Y0326328D03*
X0114059Y0333808D03*
X0127839Y0297587D03*
X0127839Y0290107D03*
X0149138Y0303178D03*
X0149138Y0310658D03*
X0125161Y0262312D03*
X0125161Y0254831D03*
X0114059Y0255461D03*
X0114059Y0262942D03*
X0127839Y0226721D03*
X0127839Y0219241D03*
X0149138Y0232312D03*
X0149138Y0239792D03*
X0125161Y0187509D03*
X0125161Y0180028D03*
X0114059Y0180658D03*
X0114059Y0188139D03*
X0127839Y0151918D03*
X0127839Y0144438D03*
X0149138Y0157509D03*
X0149138Y0164989D03*
X0082799Y0163729D03*
X0082799Y0156249D03*
X0072366Y0156603D03*
X0072366Y0164083D03*
X0062524Y0163650D03*
X0062524Y0156170D03*
X0062524Y0230973D03*
X0062524Y0238454D03*
X0072366Y0238887D03*
X0072366Y0231406D03*
X0082799Y0231052D03*
X0082799Y0238532D03*
X0082799Y0301918D03*
X0082799Y0309398D03*
X0072366Y0309753D03*
X0072366Y0302272D03*
X0062524Y0301839D03*
X0062524Y0309320D03*
X0070988Y0402548D03*
X0070988Y0410028D03*
X0062524Y0510501D03*
X0062524Y0517981D03*
X0072366Y0518414D03*
X0072366Y0510934D03*
X0082799Y0510580D03*
X0082799Y0518060D03*
X0082799Y0589320D03*
X0082799Y0596800D03*
X0072366Y0597154D03*
X0072366Y0589674D03*
X0062524Y0589241D03*
X0062524Y0596721D03*
X0229846Y0594989D03*
X0229846Y0602469D03*
X0229846Y0673729D03*
X0229846Y0681209D03*
X0281028Y0681170D03*
X0281028Y0688650D03*
X0281028Y0609910D03*
X0281028Y0602430D03*
X0281028Y0531170D03*
X0281028Y0523690D03*
X0229846Y0523729D03*
X0229846Y0516249D03*
X0303272Y0400619D03*
X0303272Y0393139D03*
X0281028Y0322509D03*
X0281028Y0315028D03*
X0281028Y0251643D03*
X0281028Y0244162D03*
X0281028Y0176839D03*
X0281028Y0169359D03*
X0229846Y0169398D03*
X0229846Y0161918D03*
X0229846Y0236721D03*
X0229846Y0244202D03*
X0229846Y0307587D03*
X0229846Y0315068D03*
X0403075Y0325658D03*
X0403075Y0333139D03*
X0403075Y0262272D03*
X0403075Y0254792D03*
X0403075Y0187469D03*
X0403075Y0179989D03*
X0403075Y0534320D03*
X0403075Y0541800D03*
X0403075Y0613060D03*
X0403075Y0620540D03*
X0403075Y0691800D03*
X0403075Y0699280D03*
D13*
X0113253Y0674007D03*
X0113253Y0672107D03*
X0113253Y0670107D03*
X0113253Y0668107D03*
X0113253Y0666207D03*
X0095653Y0666207D03*
X0095653Y0668107D03*
X0095653Y0670107D03*
X0095653Y0672107D03*
X0095653Y0674007D03*
X0095653Y0595267D03*
X0095653Y0593367D03*
X0095653Y0591367D03*
X0095653Y0589367D03*
X0095653Y0587467D03*
X0113253Y0587467D03*
X0113253Y0589367D03*
X0113253Y0591367D03*
X0113253Y0593367D03*
X0113253Y0595267D03*
X0113253Y0516527D03*
X0113253Y0514627D03*
X0113253Y0512627D03*
X0113253Y0510627D03*
X0113253Y0508727D03*
X0095653Y0508727D03*
X0095653Y0510627D03*
X0095653Y0512627D03*
X0095653Y0514627D03*
X0095653Y0516527D03*
X0095653Y0307865D03*
X0095653Y0305965D03*
X0095653Y0303965D03*
X0095653Y0301965D03*
X0095653Y0300065D03*
X0113253Y0300065D03*
X0113253Y0301965D03*
X0113253Y0303965D03*
X0113253Y0305965D03*
X0113253Y0307865D03*
X0113253Y0236999D03*
X0113253Y0235099D03*
X0113253Y0233099D03*
X0113253Y0231099D03*
X0113253Y0229199D03*
X0095653Y0229199D03*
X0095653Y0231099D03*
X0095653Y0233099D03*
X0095653Y0235099D03*
X0095653Y0236999D03*
X0095653Y0162196D03*
X0095653Y0160296D03*
X0095653Y0158296D03*
X0095653Y0156296D03*
X0095653Y0154396D03*
X0113253Y0154396D03*
X0113253Y0156296D03*
X0113253Y0158296D03*
X0113253Y0160296D03*
X0113253Y0162196D03*
D14*
X0416776Y0378769D03*
X0416776Y0386643D03*
X0416776Y0416761D03*
X0416776Y0424635D03*
D15*
X0437248Y0434083D03*
X0437248Y0407312D03*
X0437248Y0396091D03*
X0437248Y0369320D03*
D16*
X0436783Y0316682D02*
X0430783Y0316682D01*
X0430783Y0306682D02*
X0436783Y0306682D01*
X0436783Y0245816D02*
X0430783Y0245816D01*
X0430783Y0235816D02*
X0436783Y0235816D01*
X0436783Y0171013D02*
X0430783Y0171013D01*
X0430783Y0161013D02*
X0436783Y0161013D01*
X0436783Y0515343D02*
X0430783Y0515343D01*
X0430783Y0525343D02*
X0436783Y0525343D01*
X0436783Y0594083D02*
X0430783Y0594083D01*
X0430783Y0604083D02*
X0436783Y0604083D01*
X0436783Y0672824D02*
X0430783Y0672824D01*
X0430783Y0682824D02*
X0436783Y0682824D01*
D17*
X0394610Y0664615D03*
X0394610Y0659615D03*
X0394610Y0654615D03*
X0394610Y0649615D03*
X0385752Y0621505D03*
X0385752Y0616505D03*
X0385752Y0611505D03*
X0385752Y0606505D03*
X0394610Y0585875D03*
X0394610Y0580875D03*
X0394610Y0575875D03*
X0394610Y0570875D03*
X0374138Y0570875D03*
X0374138Y0575875D03*
X0374138Y0580875D03*
X0374138Y0585875D03*
X0365280Y0606505D03*
X0365280Y0611505D03*
X0365280Y0616505D03*
X0365280Y0621505D03*
X0374138Y0649615D03*
X0374138Y0654615D03*
X0374138Y0659615D03*
X0374138Y0664615D03*
X0365280Y0685245D03*
X0365280Y0690245D03*
X0365280Y0695245D03*
X0365280Y0700245D03*
X0385752Y0700245D03*
X0385752Y0695245D03*
X0385752Y0690245D03*
X0385752Y0685245D03*
X0385752Y0542765D03*
X0385752Y0537765D03*
X0385752Y0532765D03*
X0385752Y0527765D03*
X0394610Y0507135D03*
X0394610Y0502135D03*
X0394610Y0497135D03*
X0394610Y0492135D03*
X0374138Y0492135D03*
X0374138Y0497135D03*
X0374138Y0502135D03*
X0374138Y0507135D03*
X0365280Y0527765D03*
X0365280Y0532765D03*
X0365280Y0537765D03*
X0365280Y0542765D03*
X0263508Y0529182D03*
X0263508Y0524182D03*
X0263508Y0519182D03*
X0263508Y0514182D03*
X0243035Y0514182D03*
X0243035Y0519182D03*
X0243035Y0524182D03*
X0243035Y0529182D03*
X0207996Y0531150D03*
X0207996Y0526150D03*
X0207996Y0521150D03*
X0207996Y0516150D03*
X0187524Y0516150D03*
X0187524Y0521150D03*
X0187524Y0526150D03*
X0187524Y0531150D03*
X0187524Y0594891D03*
X0187524Y0599891D03*
X0187524Y0604891D03*
X0187524Y0609891D03*
X0207996Y0609891D03*
X0207996Y0604891D03*
X0207996Y0599891D03*
X0207996Y0594891D03*
X0243035Y0592922D03*
X0243035Y0597922D03*
X0243035Y0602922D03*
X0243035Y0607922D03*
X0263508Y0607922D03*
X0263508Y0602922D03*
X0263508Y0597922D03*
X0263508Y0592922D03*
X0263508Y0671662D03*
X0263508Y0676662D03*
X0263508Y0681662D03*
X0263508Y0686662D03*
X0243035Y0686662D03*
X0243035Y0681662D03*
X0243035Y0676662D03*
X0243035Y0671662D03*
X0207996Y0673631D03*
X0207996Y0678631D03*
X0207996Y0683631D03*
X0207996Y0688631D03*
X0187524Y0688631D03*
X0187524Y0683631D03*
X0187524Y0678631D03*
X0187524Y0673631D03*
X0365280Y0334103D03*
X0365280Y0329103D03*
X0365280Y0324103D03*
X0365280Y0319103D03*
X0374138Y0298473D03*
X0374138Y0293473D03*
X0374138Y0288473D03*
X0374138Y0283473D03*
X0365280Y0263237D03*
X0365280Y0258237D03*
X0365280Y0253237D03*
X0365280Y0248237D03*
X0374138Y0227607D03*
X0374138Y0222607D03*
X0374138Y0217607D03*
X0374138Y0212607D03*
X0365280Y0188434D03*
X0365280Y0183434D03*
X0365280Y0178434D03*
X0365280Y0173434D03*
X0374138Y0152804D03*
X0374138Y0147804D03*
X0374138Y0142804D03*
X0374138Y0137804D03*
X0394610Y0137804D03*
X0394610Y0142804D03*
X0394610Y0147804D03*
X0394610Y0152804D03*
X0385752Y0173434D03*
X0385752Y0178434D03*
X0385752Y0183434D03*
X0385752Y0188434D03*
X0394610Y0212607D03*
X0394610Y0217607D03*
X0394610Y0222607D03*
X0394610Y0227607D03*
X0385752Y0248237D03*
X0385752Y0253237D03*
X0385752Y0258237D03*
X0385752Y0263237D03*
X0394610Y0283473D03*
X0394610Y0288473D03*
X0394610Y0293473D03*
X0394610Y0298473D03*
X0385752Y0319103D03*
X0385752Y0324103D03*
X0385752Y0329103D03*
X0385752Y0334103D03*
X0263508Y0320520D03*
X0263508Y0315520D03*
X0263508Y0310520D03*
X0263508Y0305520D03*
X0243035Y0305520D03*
X0243035Y0310520D03*
X0243035Y0315520D03*
X0243035Y0320520D03*
X0207996Y0322489D03*
X0207996Y0317489D03*
X0207996Y0312489D03*
X0207996Y0307489D03*
X0187524Y0307489D03*
X0187524Y0312489D03*
X0187524Y0317489D03*
X0187524Y0322489D03*
X0187524Y0251623D03*
X0187524Y0246623D03*
X0187524Y0241623D03*
X0187524Y0236623D03*
X0207996Y0236623D03*
X0207996Y0241623D03*
X0207996Y0246623D03*
X0207996Y0251623D03*
X0243035Y0249654D03*
X0243035Y0244654D03*
X0243035Y0239654D03*
X0243035Y0234654D03*
X0263508Y0234654D03*
X0263508Y0239654D03*
X0263508Y0244654D03*
X0263508Y0249654D03*
X0263508Y0174851D03*
X0263508Y0169851D03*
X0263508Y0164851D03*
X0263508Y0159851D03*
X0243035Y0159851D03*
X0243035Y0164851D03*
X0243035Y0169851D03*
X0243035Y0174851D03*
X0207996Y0176820D03*
X0207996Y0171820D03*
X0207996Y0166820D03*
X0207996Y0161820D03*
X0187524Y0161820D03*
X0187524Y0166820D03*
X0187524Y0171820D03*
X0187524Y0176820D03*
D18*
X0167287Y0213493D03*
X0147287Y0213493D03*
X0157287Y0178690D03*
X0147287Y0138690D03*
X0167287Y0138690D03*
X0157287Y0253493D03*
X0147287Y0284359D03*
X0167287Y0284359D03*
X0157287Y0324359D03*
X0147287Y0493020D03*
X0167287Y0493020D03*
X0157287Y0533020D03*
X0147287Y0571761D03*
X0167287Y0571761D03*
X0157287Y0611761D03*
X0147287Y0650501D03*
X0167287Y0650501D03*
X0157287Y0690501D03*
D19*
X0127366Y0680658D03*
X0092760Y0697036D03*
X0092760Y0618296D03*
X0127366Y0601918D03*
X0092760Y0539556D03*
X0127366Y0523178D03*
X0068862Y0440501D03*
X0092760Y0330894D03*
X0127366Y0314517D03*
X0161382Y0350265D03*
X0209807Y0283335D03*
X0209807Y0212469D03*
X0209807Y0137666D03*
X0127366Y0168847D03*
X0092760Y0185225D03*
X0127366Y0243650D03*
X0092760Y0260028D03*
X0209807Y0491997D03*
X0262917Y0443099D03*
X0284138Y0443099D03*
X0304689Y0443099D03*
X0266972Y0393572D03*
X0295004Y0315619D03*
X0295161Y0295146D03*
X0295004Y0244753D03*
X0295161Y0224280D03*
X0295004Y0169950D03*
X0295161Y0149477D03*
X0295161Y0503808D03*
X0295004Y0524280D03*
X0295161Y0582548D03*
X0295004Y0603020D03*
X0295161Y0661288D03*
X0295004Y0681761D03*
X0209807Y0649477D03*
X0209807Y0570737D03*
D20*
X0222683Y0417042D03*
X0222683Y0414442D03*
X0222683Y0411942D03*
X0222683Y0409342D03*
X0222683Y0406742D03*
X0222683Y0404242D03*
X0222683Y0401642D03*
X0222683Y0399142D03*
X0222683Y0396542D03*
X0222683Y0393942D03*
X0222683Y0391442D03*
X0222683Y0388842D03*
X0244883Y0388842D03*
X0244883Y0391442D03*
X0244883Y0393942D03*
X0244883Y0396542D03*
X0244883Y0399142D03*
X0244883Y0401642D03*
X0244883Y0404242D03*
X0244883Y0406742D03*
X0244883Y0409342D03*
X0244883Y0411942D03*
X0244883Y0414442D03*
X0244883Y0417042D03*
D21*
X0359810Y0415197D03*
X0359810Y0438797D03*
X0379410Y0438797D03*
X0379410Y0415197D03*
X0379410Y0381710D03*
X0379410Y0358110D03*
X0359810Y0358110D03*
X0359810Y0381710D03*
D22*
X0340280Y0358099D03*
X0332012Y0358099D03*
X0333980Y0438808D03*
X0342248Y0438808D03*
D23*
X0339886Y0415186D03*
X0332406Y0415186D03*
X0332406Y0379753D03*
X0339886Y0379753D03*
D24*
X0197917Y0368118D02*
X0197917Y0362569D01*
X0187917Y0362569D02*
X0187917Y0368118D01*
X0177917Y0368118D02*
X0177917Y0362569D01*
X0167917Y0362569D02*
X0167917Y0368118D01*
X0157917Y0368118D02*
X0157917Y0362569D01*
X0147917Y0362569D02*
X0147917Y0368118D01*
X0137917Y0368118D02*
X0137917Y0362569D01*
X0127917Y0362569D02*
X0127917Y0368118D01*
X0117917Y0368118D02*
X0117917Y0362569D01*
X0107917Y0362569D02*
X0107917Y0368118D01*
X0097917Y0368118D02*
X0097917Y0362569D01*
X0087917Y0362569D02*
X0087917Y0368118D01*
X0077917Y0368118D02*
X0077917Y0362569D01*
X0067917Y0362569D02*
X0067917Y0368118D01*
X0057917Y0368118D02*
X0057917Y0362569D01*
X0057917Y0422569D02*
X0057917Y0428118D01*
X0067917Y0428118D02*
X0067917Y0422569D01*
X0077917Y0422569D02*
X0077917Y0428118D01*
X0087917Y0428118D02*
X0087917Y0422569D01*
X0097917Y0422569D02*
X0097917Y0428118D01*
X0107917Y0428118D02*
X0107917Y0422569D01*
X0117917Y0422569D02*
X0117917Y0428118D01*
X0127917Y0428118D02*
X0127917Y0422569D01*
X0137917Y0422569D02*
X0137917Y0428118D01*
X0147917Y0428118D02*
X0147917Y0422569D01*
X0157917Y0422569D02*
X0157917Y0428118D01*
X0167917Y0428118D02*
X0167917Y0422569D01*
X0177917Y0422569D02*
X0177917Y0428118D01*
X0187917Y0428118D02*
X0187917Y0422569D01*
X0197917Y0422569D02*
X0197917Y0428118D01*
D25*
X0192917Y0405343D03*
X0192917Y0395343D03*
X0192917Y0385343D03*
X0202917Y0385343D03*
X0202917Y0395343D03*
X0202917Y0405343D03*
D26*
X0202287Y0440776D02*
X0192248Y0440776D01*
X0170791Y0411249D02*
X0162917Y0403375D01*
X0151303Y0403375D01*
X0151106Y0403572D01*
X0150516Y0402981D02*
X0150909Y0402587D01*
X0150909Y0389595D01*
X0143429Y0389595D02*
X0143232Y0389595D01*
X0143232Y0397469D01*
X0151106Y0411052D02*
X0147917Y0414241D01*
X0147917Y0425343D01*
X0137917Y0425343D02*
X0137917Y0419517D01*
X0127484Y0409083D01*
X0127484Y0401603D02*
X0127484Y0389595D01*
X0127287Y0389595D01*
X0119807Y0389595D02*
X0111736Y0389595D01*
X0127917Y0425343D02*
X0139492Y0436918D01*
X0139492Y0438808D01*
X0157917Y0433611D02*
X0157917Y0425343D01*
X0157917Y0433611D02*
X0165083Y0440776D01*
X0119610Y0444517D02*
X0109768Y0444517D01*
X0109571Y0444713D01*
X0102091Y0444713D02*
X0094020Y0444713D01*
X0088114Y0436839D01*
X0088114Y0425540D01*
X0087917Y0425343D01*
X0070988Y0410028D02*
X0067917Y0413099D01*
X0067917Y0425343D01*
X0057917Y0365343D02*
X0057917Y0348847D01*
X0063429Y0348847D01*
X0071972Y0347784D02*
X0085280Y0347784D01*
X0085280Y0348847D01*
X0092760Y0348847D02*
X0101894Y0348847D01*
X0101894Y0348257D01*
X0266972Y0393572D02*
X0268075Y0392469D01*
X0277169Y0392469D01*
X0280909Y0396209D02*
X0277169Y0399950D01*
X0277169Y0405422D01*
X0284965Y0413217D01*
X0292366Y0413217D01*
X0292720Y0413572D01*
X0287406Y0399950D02*
X0302996Y0399950D01*
X0303272Y0400619D01*
X0303272Y0393139D02*
X0308587Y0393532D01*
X0310555Y0395501D01*
X0310555Y0407312D01*
X0304295Y0413572D01*
X0300201Y0413572D01*
X0303272Y0393139D02*
X0302209Y0392469D01*
X0287406Y0392469D01*
X0286933Y0391997D01*
X0286933Y0385658D01*
X0287406Y0396209D02*
X0280909Y0396209D01*
D27*
X0062524Y0145501D03*
X0062524Y0173060D03*
X0084177Y0143532D03*
X0100909Y0168139D03*
X0105831Y0153375D03*
X0113705Y0149438D03*
X0121579Y0160265D03*
X0133390Y0178965D03*
X0127484Y0212430D03*
X0113705Y0224241D03*
X0121579Y0235068D03*
X0105831Y0228178D03*
X0100909Y0242942D03*
X0084177Y0218335D03*
X0062524Y0220304D03*
X0062524Y0247863D03*
X0062524Y0291170D03*
X0062524Y0318729D03*
X0084177Y0289202D03*
X0100909Y0313808D03*
X0105831Y0299044D03*
X0113705Y0295107D03*
X0121579Y0305934D03*
X0133390Y0324635D03*
X0160949Y0332509D03*
X0170791Y0316761D03*
X0176697Y0332509D03*
X0194413Y0348257D03*
X0202287Y0332509D03*
X0218035Y0318729D03*
X0229846Y0330540D03*
X0212130Y0356131D03*
X0184571Y0377784D03*
X0176303Y0390383D03*
X0176697Y0397469D03*
X0178665Y0403375D03*
X0198350Y0411249D03*
X0210161Y0417154D03*
X0214098Y0426997D03*
X0202287Y0440776D03*
X0210161Y0448650D03*
X0229846Y0414202D03*
X0235752Y0423060D03*
X0251500Y0409280D03*
X0277169Y0405422D03*
X0286933Y0385658D03*
X0263311Y0340383D03*
X0253469Y0350225D03*
X0273154Y0322666D03*
X0281028Y0306918D03*
X0316461Y0310855D03*
X0324335Y0283296D03*
X0342051Y0283296D03*
X0340083Y0267548D03*
X0357799Y0245894D03*
X0363705Y0241957D03*
X0365673Y0230146D03*
X0365673Y0212430D03*
X0383390Y0216367D03*
X0395201Y0234083D03*
X0385358Y0238020D03*
X0405043Y0224241D03*
X0420791Y0232115D03*
X0410949Y0253769D03*
X0410949Y0261643D03*
X0405043Y0295107D03*
X0395201Y0304950D03*
X0385358Y0308887D03*
X0383390Y0287233D03*
X0365673Y0283296D03*
X0365673Y0301013D03*
X0363705Y0312824D03*
X0357799Y0316761D03*
X0340083Y0338414D03*
X0316461Y0239989D03*
X0324335Y0212430D03*
X0342051Y0212430D03*
X0340083Y0192745D03*
X0357799Y0171091D03*
X0363705Y0167154D03*
X0365673Y0155343D03*
X0365673Y0137627D03*
X0383390Y0141564D03*
X0395201Y0159280D03*
X0385358Y0163217D03*
X0405043Y0149438D03*
X0420791Y0157312D03*
X0410949Y0178965D03*
X0410949Y0186839D03*
X0342051Y0137627D03*
X0324335Y0137627D03*
X0316461Y0165186D03*
X0281028Y0161249D03*
X0273154Y0176997D03*
X0281028Y0236052D03*
X0273154Y0251800D03*
X0229846Y0259674D03*
X0218035Y0247863D03*
X0202287Y0261643D03*
X0186539Y0230146D03*
X0172760Y0220304D03*
X0170791Y0245894D03*
X0176697Y0261643D03*
X0160949Y0261643D03*
X0172760Y0291170D03*
X0186539Y0301013D03*
X0229846Y0299044D03*
X0229846Y0228178D03*
X0202287Y0186839D03*
X0218035Y0173060D03*
X0229846Y0184871D03*
X0229846Y0153375D03*
X0186539Y0155343D03*
X0172760Y0145501D03*
X0170791Y0171091D03*
X0176697Y0186839D03*
X0160949Y0186839D03*
X0127484Y0137627D03*
X0133390Y0253769D03*
X0127484Y0283296D03*
X0090083Y0340383D03*
X0101894Y0348257D03*
X0094020Y0375816D03*
X0111736Y0389595D03*
X0107799Y0413217D03*
X0127484Y0436839D03*
X0143232Y0397469D03*
X0127484Y0491957D03*
X0113705Y0503769D03*
X0121579Y0514595D03*
X0105831Y0507706D03*
X0100909Y0522469D03*
X0084177Y0497863D03*
X0062524Y0499831D03*
X0062524Y0527391D03*
X0084177Y0576603D03*
X0105831Y0586446D03*
X0113705Y0582509D03*
X0121579Y0593335D03*
X0133390Y0612036D03*
X0160949Y0619910D03*
X0170791Y0604162D03*
X0176697Y0619910D03*
X0186539Y0588414D03*
X0172760Y0578572D03*
X0176697Y0541170D03*
X0170791Y0525422D03*
X0160949Y0541170D03*
X0133390Y0533296D03*
X0127484Y0570698D03*
X0100909Y0601209D03*
X0127484Y0649438D03*
X0113705Y0661249D03*
X0121579Y0672076D03*
X0105831Y0665186D03*
X0100909Y0679950D03*
X0084177Y0655343D03*
X0062524Y0657312D03*
X0062524Y0684871D03*
X0062524Y0606131D03*
X0062524Y0578572D03*
X0133390Y0690776D03*
X0160949Y0698650D03*
X0170791Y0682902D03*
X0176697Y0698650D03*
X0186539Y0667154D03*
X0172760Y0657312D03*
X0202287Y0619910D03*
X0218035Y0606131D03*
X0229846Y0617942D03*
X0229846Y0586446D03*
X0202287Y0541170D03*
X0218035Y0527391D03*
X0229846Y0539202D03*
X0229846Y0507706D03*
X0186539Y0509674D03*
X0172760Y0499831D03*
X0273154Y0531328D03*
X0281028Y0515580D03*
X0316461Y0519517D03*
X0324335Y0491957D03*
X0342051Y0491957D03*
X0365673Y0491957D03*
X0365673Y0509674D03*
X0363705Y0521485D03*
X0357799Y0525422D03*
X0340083Y0547076D03*
X0342051Y0570698D03*
X0324335Y0570698D03*
X0316461Y0598257D03*
X0340083Y0625816D03*
X0342051Y0649438D03*
X0324335Y0649438D03*
X0316461Y0676997D03*
X0340083Y0704556D03*
X0357799Y0682902D03*
X0363705Y0678965D03*
X0365673Y0667154D03*
X0365673Y0649438D03*
X0383390Y0653375D03*
X0395201Y0671091D03*
X0385358Y0675028D03*
X0405043Y0661249D03*
X0420791Y0669123D03*
X0410949Y0690776D03*
X0410949Y0698650D03*
X0410949Y0619910D03*
X0410949Y0612036D03*
X0420791Y0590383D03*
X0405043Y0582509D03*
X0395201Y0592351D03*
X0385358Y0596288D03*
X0383390Y0574635D03*
X0365673Y0570698D03*
X0365673Y0588414D03*
X0363705Y0600225D03*
X0357799Y0604162D03*
X0410949Y0541170D03*
X0410949Y0533296D03*
X0420791Y0511643D03*
X0405043Y0503769D03*
X0395201Y0513611D03*
X0385358Y0517548D03*
X0383390Y0495894D03*
X0281028Y0594320D03*
X0273154Y0610068D03*
X0281028Y0673060D03*
X0273154Y0688808D03*
X0229846Y0696682D03*
X0218035Y0684871D03*
X0202287Y0698650D03*
X0229846Y0665186D03*
X0062524Y0385658D03*
X0410949Y0332509D03*
X0410949Y0324635D03*
X0420791Y0302981D03*
D28*
X0412720Y0302981D01*
X0418823Y0315580D02*
X0418823Y0332509D01*
X0412917Y0338414D01*
X0347957Y0338414D01*
X0345988Y0336446D01*
X0345988Y0331603D01*
X0345516Y0331131D01*
X0338035Y0331131D02*
X0325949Y0331131D01*
X0325752Y0331328D01*
X0327012Y0321485D02*
X0327209Y0321288D01*
X0337957Y0321288D01*
X0323705Y0303769D02*
X0323902Y0303572D01*
X0324413Y0291957D02*
X0335201Y0291957D01*
X0338114Y0287233D02*
X0332209Y0287233D01*
X0330240Y0285265D01*
X0330240Y0279359D01*
X0332209Y0277391D01*
X0408980Y0277391D01*
X0415043Y0283454D01*
X0415043Y0287824D01*
X0433783Y0306564D01*
X0433783Y0306682D01*
X0410949Y0324635D02*
X0404098Y0324635D01*
X0403075Y0325658D01*
X0365673Y0283296D02*
X0357602Y0283296D01*
X0350122Y0283296D02*
X0342051Y0283296D01*
X0338114Y0287233D02*
X0342681Y0291800D01*
X0342681Y0291957D01*
X0347957Y0267548D02*
X0345988Y0265580D01*
X0345988Y0260737D01*
X0345516Y0260265D01*
X0338035Y0260265D02*
X0325949Y0260265D01*
X0325752Y0260461D01*
X0327012Y0250619D02*
X0327209Y0250422D01*
X0337957Y0250422D01*
X0347957Y0267548D02*
X0412917Y0267548D01*
X0418823Y0261643D01*
X0418823Y0244713D01*
X0410949Y0253769D02*
X0404098Y0253769D01*
X0403075Y0254792D01*
X0412720Y0232115D02*
X0420791Y0232115D01*
X0433783Y0235698D02*
X0415043Y0216957D01*
X0415043Y0212587D01*
X0408980Y0206524D01*
X0332209Y0206524D01*
X0330240Y0208493D01*
X0330240Y0214398D01*
X0332209Y0216367D01*
X0338114Y0216367D01*
X0342681Y0220934D01*
X0342681Y0221091D01*
X0342051Y0212430D02*
X0350122Y0212430D01*
X0357602Y0212430D02*
X0365673Y0212430D01*
X0347957Y0192745D02*
X0345988Y0190776D01*
X0345988Y0185934D01*
X0345516Y0185461D01*
X0338035Y0185461D02*
X0325949Y0185461D01*
X0325752Y0185658D01*
X0327012Y0175816D02*
X0327209Y0175619D01*
X0337957Y0175619D01*
X0347957Y0192745D02*
X0412917Y0192745D01*
X0418823Y0186839D01*
X0418823Y0169910D01*
X0420791Y0157312D02*
X0412720Y0157312D01*
X0415043Y0142154D02*
X0433783Y0160894D01*
X0433783Y0161013D01*
X0415043Y0142154D02*
X0415043Y0137784D01*
X0408980Y0131721D01*
X0332209Y0131721D01*
X0330240Y0133690D01*
X0330240Y0139595D01*
X0332209Y0141564D01*
X0338114Y0141564D01*
X0342681Y0146131D01*
X0342681Y0146288D01*
X0342051Y0137627D02*
X0350122Y0137627D01*
X0357602Y0137627D02*
X0365673Y0137627D01*
X0335201Y0146288D02*
X0324413Y0146288D01*
X0316933Y0146288D02*
X0305083Y0158139D01*
X0303823Y0158139D01*
X0304650Y0158965D01*
X0304650Y0169123D01*
X0311343Y0175816D01*
X0319531Y0175816D01*
X0323705Y0158099D02*
X0323902Y0157902D01*
X0303823Y0158139D02*
X0295161Y0149477D01*
X0280791Y0169123D02*
X0281028Y0169359D01*
X0281028Y0176839D02*
X0280870Y0176997D01*
X0273154Y0176997D01*
X0263508Y0169851D02*
X0263508Y0164851D01*
X0247563Y0137627D02*
X0238783Y0137627D01*
X0236815Y0135658D01*
X0229335Y0135658D02*
X0227327Y0137666D01*
X0209807Y0137666D01*
X0229335Y0135658D02*
X0229335Y0144595D01*
X0229020Y0144910D01*
X0229846Y0153375D02*
X0229846Y0161918D01*
X0229846Y0169398D02*
X0229846Y0184871D01*
X0239689Y0184871D01*
X0239689Y0185068D01*
X0239295Y0185461D01*
X0222602Y0185461D02*
X0221972Y0184831D01*
X0221972Y0178965D01*
X0218035Y0175028D01*
X0218035Y0173060D01*
X0215122Y0185461D02*
X0213744Y0186839D01*
X0202287Y0186839D01*
X0194413Y0186839D01*
X0193823Y0186249D01*
X0186343Y0186249D02*
X0185752Y0186839D01*
X0176697Y0186839D01*
X0178665Y0206524D02*
X0189295Y0217154D01*
X0189295Y0221485D01*
X0181815Y0221485D02*
X0180634Y0220304D01*
X0172760Y0220304D01*
X0178665Y0206524D02*
X0154256Y0206524D01*
X0147287Y0213493D01*
X0160949Y0186839D02*
X0125831Y0186839D01*
X0125161Y0187509D01*
X0114689Y0187509D01*
X0114059Y0188139D01*
X0114059Y0180658D02*
X0097327Y0180658D01*
X0092760Y0185225D01*
X0088114Y0175028D02*
X0095653Y0167490D01*
X0095653Y0162196D01*
X0095653Y0160296D02*
X0098972Y0160296D01*
X0100909Y0162233D01*
X0100909Y0168139D01*
X0095653Y0160296D02*
X0095684Y0160265D01*
X0095653Y0158296D02*
X0090083Y0158296D01*
X0084650Y0163729D01*
X0082799Y0163729D01*
X0082445Y0156603D02*
X0072366Y0156603D01*
X0062957Y0156603D01*
X0062524Y0156170D01*
X0062524Y0145501D01*
X0062524Y0163650D02*
X0062524Y0173060D01*
X0068429Y0173060D01*
X0070398Y0175028D01*
X0072366Y0173060D01*
X0072366Y0164083D01*
X0077878Y0175028D02*
X0088114Y0175028D01*
X0082445Y0156603D02*
X0082799Y0156249D01*
X0082846Y0156296D01*
X0095653Y0156296D01*
X0105831Y0153375D02*
X0108783Y0156328D01*
X0113221Y0156328D01*
X0113253Y0156296D01*
X0113253Y0154396D02*
X0113705Y0153944D01*
X0113705Y0149438D01*
X0119610Y0155343D02*
X0116657Y0158296D01*
X0113253Y0158296D01*
X0113284Y0160265D02*
X0121579Y0160265D01*
X0119610Y0155343D02*
X0124413Y0155343D01*
X0127839Y0151918D01*
X0127839Y0168375D01*
X0127366Y0168847D01*
X0126224Y0178965D02*
X0133390Y0178965D01*
X0126224Y0178965D02*
X0125161Y0180028D01*
X0114059Y0180658D02*
X0113253Y0179852D01*
X0113253Y0162196D01*
X0113253Y0160296D02*
X0113284Y0160265D01*
X0147287Y0138690D02*
X0154256Y0131721D01*
X0178665Y0131721D01*
X0189295Y0142351D01*
X0189295Y0146682D01*
X0181815Y0146682D02*
X0180634Y0145501D01*
X0172760Y0145501D01*
X0209807Y0212469D02*
X0227327Y0212469D01*
X0229335Y0210461D01*
X0229335Y0219398D01*
X0229020Y0219713D01*
X0229846Y0228178D02*
X0229846Y0236721D01*
X0229846Y0244202D02*
X0229846Y0259674D01*
X0239689Y0259674D01*
X0239689Y0259871D01*
X0239295Y0260265D01*
X0222602Y0260265D02*
X0221972Y0259635D01*
X0221972Y0253769D01*
X0218035Y0249831D01*
X0218035Y0247863D01*
X0215122Y0260265D02*
X0213744Y0261643D01*
X0202287Y0261643D01*
X0194413Y0261643D01*
X0193823Y0261052D01*
X0186343Y0261052D02*
X0185752Y0261643D01*
X0176697Y0261643D01*
X0178665Y0277391D02*
X0189295Y0288020D01*
X0189295Y0292351D01*
X0181815Y0292351D02*
X0180634Y0291170D01*
X0172760Y0291170D01*
X0178665Y0277391D02*
X0154256Y0277391D01*
X0147287Y0284359D01*
X0160949Y0261643D02*
X0125831Y0261643D01*
X0125161Y0262312D01*
X0114689Y0262312D01*
X0114059Y0262942D01*
X0114059Y0255461D02*
X0097327Y0255461D01*
X0092760Y0260028D01*
X0088114Y0249831D02*
X0095653Y0242293D01*
X0095653Y0236999D01*
X0095653Y0235099D02*
X0098972Y0235099D01*
X0100909Y0237036D01*
X0100909Y0242942D01*
X0095653Y0235099D02*
X0095684Y0235068D01*
X0095653Y0233099D02*
X0090083Y0233099D01*
X0084650Y0238532D01*
X0082799Y0238532D01*
X0082445Y0231406D02*
X0072366Y0231406D01*
X0062957Y0231406D01*
X0062524Y0230973D01*
X0062524Y0220304D01*
X0062524Y0238454D02*
X0062524Y0247863D01*
X0068429Y0247863D01*
X0070398Y0249831D01*
X0072366Y0247863D01*
X0072366Y0238887D01*
X0077878Y0249831D02*
X0088114Y0249831D01*
X0082445Y0231406D02*
X0082799Y0231052D01*
X0082846Y0231099D01*
X0095653Y0231099D01*
X0108783Y0231131D02*
X0113221Y0231131D01*
X0113253Y0231099D01*
X0113253Y0229199D02*
X0113705Y0228747D01*
X0113705Y0224241D01*
X0119610Y0230146D02*
X0116657Y0233099D01*
X0113253Y0233099D01*
X0113284Y0235068D02*
X0121579Y0235068D01*
X0119610Y0230146D02*
X0124413Y0230146D01*
X0127839Y0226721D01*
X0127839Y0243178D01*
X0127366Y0243650D01*
X0126224Y0253769D02*
X0133390Y0253769D01*
X0126224Y0253769D02*
X0125161Y0254831D01*
X0114059Y0255461D02*
X0113253Y0254655D01*
X0113253Y0236999D01*
X0113253Y0235099D02*
X0113284Y0235068D01*
X0113705Y0295107D02*
X0113705Y0299613D01*
X0113253Y0300065D01*
X0113253Y0301965D02*
X0113221Y0301997D01*
X0108783Y0301997D01*
X0113253Y0303965D02*
X0116657Y0303965D01*
X0119610Y0301013D01*
X0124413Y0301013D01*
X0127839Y0297587D01*
X0127839Y0314044D01*
X0127366Y0314517D01*
X0126224Y0324635D02*
X0133390Y0324635D01*
X0126224Y0324635D02*
X0125161Y0325698D01*
X0125831Y0332509D02*
X0160949Y0332509D01*
X0176697Y0332509D02*
X0185752Y0332509D01*
X0186343Y0331918D01*
X0193823Y0331918D02*
X0194413Y0332509D01*
X0202287Y0332509D01*
X0213744Y0332509D01*
X0215122Y0331131D01*
X0221972Y0324635D02*
X0218035Y0320698D01*
X0218035Y0318729D01*
X0221972Y0324635D02*
X0221972Y0330501D01*
X0222602Y0331131D01*
X0229846Y0330540D02*
X0229846Y0315068D01*
X0229846Y0307587D02*
X0229846Y0299044D01*
X0229020Y0290580D02*
X0229335Y0290265D01*
X0229335Y0281328D01*
X0227327Y0283335D01*
X0209807Y0283335D01*
X0236815Y0281328D02*
X0238783Y0283296D01*
X0247563Y0283296D01*
X0263508Y0310520D02*
X0263508Y0315520D01*
X0273154Y0322666D02*
X0280870Y0322666D01*
X0281028Y0322509D01*
X0281028Y0315028D02*
X0280791Y0314792D01*
X0295161Y0295146D02*
X0303823Y0303808D01*
X0305083Y0303808D01*
X0316933Y0291957D01*
X0304650Y0304635D02*
X0304650Y0314792D01*
X0311343Y0321485D01*
X0319531Y0321485D01*
X0304650Y0304635D02*
X0303823Y0303808D01*
X0280870Y0251800D02*
X0273154Y0251800D01*
X0280870Y0251800D02*
X0281028Y0251643D01*
X0281028Y0244162D02*
X0280791Y0243926D01*
X0295161Y0224280D02*
X0303823Y0232942D01*
X0305083Y0232942D01*
X0316933Y0221091D01*
X0324413Y0221091D02*
X0335201Y0221091D01*
X0323902Y0232706D02*
X0323705Y0232902D01*
X0319531Y0250619D02*
X0311343Y0250619D01*
X0304650Y0243926D01*
X0304650Y0233769D01*
X0303823Y0232942D01*
X0263508Y0239654D02*
X0263508Y0244654D01*
X0247563Y0212430D02*
X0238783Y0212430D01*
X0236815Y0210461D01*
X0239689Y0330540D02*
X0229846Y0330540D01*
X0239295Y0331131D02*
X0239689Y0330737D01*
X0239689Y0330540D01*
X0253469Y0350225D02*
X0253469Y0391564D01*
X0251091Y0393942D01*
X0244883Y0393942D01*
X0244761Y0391564D02*
X0231815Y0391564D01*
X0233783Y0393532D01*
X0233783Y0396485D01*
X0244827Y0396485D01*
X0244883Y0396542D01*
X0244648Y0401406D02*
X0233783Y0401406D01*
X0222919Y0401406D01*
X0222683Y0401642D01*
X0222683Y0399142D02*
X0215771Y0399142D01*
X0207012Y0390383D01*
X0176303Y0390383D01*
X0176697Y0397469D02*
X0182602Y0397469D01*
X0185752Y0400619D01*
X0205437Y0400619D01*
X0209060Y0404242D01*
X0222683Y0404242D01*
X0222683Y0406742D02*
X0233783Y0406742D01*
X0233783Y0401406D01*
X0233783Y0396485D01*
X0222740Y0396485D01*
X0222683Y0396542D01*
X0222683Y0393942D02*
X0214508Y0393942D01*
X0214098Y0393532D01*
X0214098Y0387627D01*
X0204256Y0377784D01*
X0184571Y0377784D01*
X0194413Y0348257D02*
X0222683Y0376527D01*
X0222683Y0388842D01*
X0222683Y0391442D02*
X0222806Y0391564D01*
X0231815Y0391564D01*
X0244761Y0391564D02*
X0244883Y0391442D01*
X0244883Y0388842D02*
X0244841Y0388842D01*
X0212130Y0356131D01*
X0222683Y0409342D02*
X0244883Y0409342D01*
X0244945Y0409280D01*
X0251500Y0409280D01*
X0244883Y0406742D02*
X0233783Y0406742D01*
X0229846Y0414202D02*
X0222924Y0414202D01*
X0222683Y0414442D01*
X0237720Y0417154D02*
X0240433Y0414442D01*
X0244883Y0414442D01*
X0237720Y0417154D02*
X0237720Y0421091D01*
X0235752Y0423060D01*
X0244883Y0401642D02*
X0244648Y0401406D01*
X0236815Y0489989D02*
X0238783Y0491957D01*
X0247563Y0491957D01*
X0229335Y0489989D02*
X0227327Y0491997D01*
X0209807Y0491997D01*
X0229335Y0489989D02*
X0229335Y0498926D01*
X0229020Y0499241D01*
X0229846Y0507706D02*
X0229846Y0516249D01*
X0229846Y0523729D02*
X0229846Y0539202D01*
X0239689Y0539202D01*
X0239689Y0539398D01*
X0239295Y0539792D01*
X0222602Y0539792D02*
X0221972Y0539162D01*
X0221972Y0533296D01*
X0218035Y0529359D01*
X0218035Y0527391D01*
X0215122Y0539792D02*
X0213744Y0541170D01*
X0202287Y0541170D01*
X0194413Y0541170D01*
X0193823Y0540580D01*
X0186343Y0540580D02*
X0185752Y0541170D01*
X0176697Y0541170D01*
X0178665Y0564792D02*
X0189295Y0575422D01*
X0189295Y0579753D01*
X0181815Y0579753D02*
X0180634Y0578572D01*
X0172760Y0578572D01*
X0178665Y0564792D02*
X0154256Y0564792D01*
X0147287Y0571761D01*
X0127839Y0584989D02*
X0127839Y0601446D01*
X0127366Y0601918D01*
X0126224Y0612036D02*
X0133390Y0612036D01*
X0126224Y0612036D02*
X0125161Y0613099D01*
X0125831Y0619910D02*
X0160949Y0619910D01*
X0176697Y0619910D02*
X0185752Y0619910D01*
X0186343Y0619320D01*
X0193823Y0619320D02*
X0194413Y0619910D01*
X0202287Y0619910D01*
X0213744Y0619910D01*
X0215122Y0618532D01*
X0221972Y0612036D02*
X0218035Y0608099D01*
X0218035Y0606131D01*
X0221972Y0612036D02*
X0221972Y0617902D01*
X0222602Y0618532D01*
X0229846Y0617942D02*
X0229846Y0602469D01*
X0229846Y0594989D02*
X0229846Y0586446D01*
X0229020Y0577981D02*
X0229335Y0577666D01*
X0229335Y0568729D01*
X0227327Y0570737D01*
X0209807Y0570737D01*
X0236815Y0568729D02*
X0238783Y0570698D01*
X0247563Y0570698D01*
X0263508Y0597922D02*
X0263508Y0602922D01*
X0273154Y0610068D02*
X0280870Y0610068D01*
X0281028Y0609910D01*
X0281028Y0602430D02*
X0280791Y0602194D01*
X0295161Y0582548D02*
X0303823Y0591209D01*
X0305083Y0591209D01*
X0316933Y0579359D01*
X0324413Y0579359D02*
X0335201Y0579359D01*
X0338114Y0574635D02*
X0332209Y0574635D01*
X0330240Y0572666D01*
X0330240Y0566761D01*
X0332209Y0564792D01*
X0408980Y0564792D01*
X0415043Y0570855D01*
X0415043Y0575225D01*
X0433783Y0593965D01*
X0433783Y0594083D01*
X0420791Y0590383D02*
X0412720Y0590383D01*
X0418823Y0602981D02*
X0418823Y0619910D01*
X0412917Y0625816D01*
X0347957Y0625816D01*
X0345988Y0623847D01*
X0345988Y0619005D01*
X0345516Y0618532D01*
X0338035Y0618532D02*
X0325949Y0618532D01*
X0325752Y0618729D01*
X0327012Y0608887D02*
X0327209Y0608690D01*
X0337957Y0608690D01*
X0323705Y0591170D02*
X0323902Y0590973D01*
X0319531Y0608887D02*
X0311343Y0608887D01*
X0304650Y0602194D01*
X0304650Y0592036D01*
X0303823Y0591209D01*
X0325752Y0539989D02*
X0325949Y0539792D01*
X0338035Y0539792D01*
X0345516Y0539792D02*
X0345988Y0540265D01*
X0345988Y0545107D01*
X0347957Y0547076D01*
X0412917Y0547076D01*
X0418823Y0541170D01*
X0418823Y0524241D01*
X0420791Y0511643D02*
X0412720Y0511643D01*
X0415043Y0496485D02*
X0433783Y0515225D01*
X0433783Y0515343D01*
X0415043Y0496485D02*
X0415043Y0492115D01*
X0408980Y0486052D01*
X0332209Y0486052D01*
X0330240Y0488020D01*
X0330240Y0493926D01*
X0332209Y0495894D01*
X0338114Y0495894D01*
X0342681Y0500461D01*
X0342681Y0500619D01*
X0342051Y0491957D02*
X0350122Y0491957D01*
X0357602Y0491957D02*
X0365673Y0491957D01*
X0337957Y0529950D02*
X0327209Y0529950D01*
X0327012Y0530146D01*
X0319531Y0530146D02*
X0311343Y0530146D01*
X0304650Y0523454D01*
X0304650Y0513296D01*
X0303823Y0512469D01*
X0305083Y0512469D01*
X0316933Y0500619D01*
X0324413Y0500619D02*
X0335201Y0500619D01*
X0323902Y0512233D02*
X0323705Y0512430D01*
X0303823Y0512469D02*
X0295161Y0503808D01*
X0280791Y0523454D02*
X0281028Y0523690D01*
X0281028Y0531170D02*
X0280870Y0531328D01*
X0273154Y0531328D01*
X0263508Y0524182D02*
X0263508Y0519182D01*
X0239689Y0617942D02*
X0229846Y0617942D01*
X0239295Y0618532D02*
X0239689Y0618139D01*
X0239689Y0617942D01*
X0236815Y0647469D02*
X0238783Y0649438D01*
X0247563Y0649438D01*
X0229335Y0647469D02*
X0227327Y0649477D01*
X0209807Y0649477D01*
X0229335Y0647469D02*
X0229335Y0656406D01*
X0229020Y0656721D01*
X0229846Y0665186D02*
X0229846Y0673729D01*
X0229846Y0681209D02*
X0229846Y0696682D01*
X0239689Y0696682D01*
X0239689Y0696879D01*
X0239295Y0697272D01*
X0222602Y0697272D02*
X0221972Y0696643D01*
X0221972Y0690776D01*
X0218035Y0686839D01*
X0218035Y0684871D01*
X0215122Y0697272D02*
X0213744Y0698650D01*
X0202287Y0698650D01*
X0194413Y0698650D01*
X0193823Y0698060D01*
X0186343Y0698060D02*
X0185752Y0698650D01*
X0176697Y0698650D01*
X0160949Y0698650D02*
X0125831Y0698650D01*
X0125161Y0699320D01*
X0114689Y0699320D01*
X0114059Y0699950D01*
X0114059Y0692469D02*
X0097327Y0692469D01*
X0092760Y0697036D01*
X0088114Y0686839D02*
X0095653Y0679301D01*
X0095653Y0674007D01*
X0095653Y0672107D02*
X0098972Y0672107D01*
X0100909Y0674044D01*
X0100909Y0679950D01*
X0095653Y0672107D02*
X0095684Y0672076D01*
X0095653Y0670107D02*
X0090083Y0670107D01*
X0084650Y0675540D01*
X0082799Y0675540D01*
X0082445Y0668414D02*
X0072366Y0668414D01*
X0062957Y0668414D01*
X0062524Y0667981D01*
X0062524Y0657312D01*
X0062524Y0675461D02*
X0062524Y0684871D01*
X0068429Y0684871D01*
X0070398Y0686839D01*
X0072366Y0684871D01*
X0072366Y0675894D01*
X0077878Y0686839D02*
X0088114Y0686839D01*
X0082445Y0668414D02*
X0082799Y0668060D01*
X0082846Y0668107D01*
X0095653Y0668107D01*
X0105831Y0665186D02*
X0108783Y0668139D01*
X0113221Y0668139D01*
X0113253Y0668107D01*
X0113253Y0666207D02*
X0113705Y0665755D01*
X0113705Y0661249D01*
X0119610Y0667154D02*
X0116657Y0670107D01*
X0113253Y0670107D01*
X0113284Y0672076D02*
X0121579Y0672076D01*
X0119610Y0667154D02*
X0124413Y0667154D01*
X0127839Y0663729D01*
X0127839Y0680186D01*
X0127366Y0680658D01*
X0126224Y0690776D02*
X0133390Y0690776D01*
X0126224Y0690776D02*
X0125161Y0691839D01*
X0114059Y0692469D02*
X0113253Y0691663D01*
X0113253Y0674007D01*
X0113253Y0672107D02*
X0113284Y0672076D01*
X0114059Y0621209D02*
X0114689Y0620580D01*
X0125161Y0620580D01*
X0125831Y0619910D01*
X0114059Y0613729D02*
X0097327Y0613729D01*
X0092760Y0618296D01*
X0088114Y0608099D02*
X0095653Y0600561D01*
X0095653Y0595267D01*
X0095653Y0593367D02*
X0098972Y0593367D01*
X0100909Y0595304D01*
X0100909Y0601209D01*
X0095653Y0593367D02*
X0095684Y0593335D01*
X0095653Y0591367D02*
X0090083Y0591367D01*
X0084650Y0596800D01*
X0082799Y0596800D01*
X0082445Y0589674D02*
X0072366Y0589674D01*
X0062957Y0589674D01*
X0062524Y0589241D01*
X0062524Y0578572D01*
X0062524Y0596721D02*
X0062524Y0606131D01*
X0068429Y0606131D01*
X0070398Y0608099D01*
X0072366Y0606131D01*
X0072366Y0597154D01*
X0077878Y0608099D02*
X0088114Y0608099D01*
X0082445Y0589674D02*
X0082799Y0589320D01*
X0082846Y0589367D01*
X0095653Y0589367D01*
X0105831Y0586446D02*
X0108783Y0589398D01*
X0113221Y0589398D01*
X0113253Y0589367D01*
X0113253Y0587467D02*
X0113705Y0587015D01*
X0113705Y0582509D01*
X0119610Y0588414D02*
X0116657Y0591367D01*
X0113253Y0591367D01*
X0113284Y0593335D02*
X0121579Y0593335D01*
X0119610Y0588414D02*
X0124413Y0588414D01*
X0127839Y0584989D01*
X0113284Y0593335D02*
X0113253Y0593367D01*
X0113253Y0595267D02*
X0113253Y0612923D01*
X0114059Y0613729D01*
X0147287Y0650501D02*
X0154256Y0643532D01*
X0178665Y0643532D01*
X0189295Y0654162D01*
X0189295Y0658493D01*
X0181815Y0658493D02*
X0180634Y0657312D01*
X0172760Y0657312D01*
X0160949Y0541170D02*
X0125831Y0541170D01*
X0125161Y0541839D01*
X0114689Y0541839D01*
X0114059Y0542469D01*
X0114059Y0534989D02*
X0097327Y0534989D01*
X0092760Y0539556D01*
X0088114Y0529359D02*
X0095653Y0521820D01*
X0095653Y0516527D01*
X0095653Y0514627D02*
X0098972Y0514627D01*
X0100909Y0516564D01*
X0100909Y0522469D01*
X0095653Y0514627D02*
X0095684Y0514595D01*
X0095653Y0512627D02*
X0090083Y0512627D01*
X0084650Y0518060D01*
X0082799Y0518060D01*
X0082445Y0510934D02*
X0072366Y0510934D01*
X0062957Y0510934D01*
X0062524Y0510501D01*
X0062524Y0499831D01*
X0062524Y0517981D02*
X0062524Y0527391D01*
X0068429Y0527391D01*
X0070398Y0529359D01*
X0072366Y0527391D01*
X0072366Y0518414D01*
X0077878Y0529359D02*
X0088114Y0529359D01*
X0082445Y0510934D02*
X0082799Y0510580D01*
X0082846Y0510627D01*
X0095653Y0510627D01*
X0105831Y0507706D02*
X0108783Y0510658D01*
X0113221Y0510658D01*
X0113253Y0510627D01*
X0113253Y0508727D02*
X0113705Y0508275D01*
X0113705Y0503769D01*
X0119610Y0509674D02*
X0116657Y0512627D01*
X0113253Y0512627D01*
X0113284Y0514595D02*
X0121579Y0514595D01*
X0119610Y0509674D02*
X0124413Y0509674D01*
X0127839Y0506249D01*
X0127839Y0522706D01*
X0127366Y0523178D01*
X0126224Y0533296D02*
X0133390Y0533296D01*
X0126224Y0533296D02*
X0125161Y0534359D01*
X0114059Y0534989D02*
X0113253Y0534183D01*
X0113253Y0516527D01*
X0113253Y0514627D02*
X0113284Y0514595D01*
X0147287Y0493020D02*
X0154256Y0486052D01*
X0178665Y0486052D01*
X0189295Y0496682D01*
X0189295Y0501013D01*
X0181815Y0501013D02*
X0180634Y0499831D01*
X0172760Y0499831D01*
X0172563Y0440776D02*
X0184768Y0440776D01*
X0151106Y0403572D02*
X0150516Y0402981D01*
X0150909Y0389595D02*
X0149138Y0388217D01*
X0127484Y0436839D02*
X0120201Y0436839D01*
X0119610Y0437036D01*
X0119610Y0444517D02*
X0120201Y0444713D01*
X0070988Y0402548D02*
X0070555Y0402115D01*
X0070949Y0392942D01*
X0063469Y0392942D02*
X0062524Y0391603D01*
X0062524Y0385658D01*
X0070909Y0348847D02*
X0071972Y0347784D01*
X0092760Y0330894D02*
X0097327Y0326328D01*
X0114059Y0326328D01*
X0113253Y0325521D01*
X0113253Y0307865D01*
X0113253Y0305965D02*
X0113284Y0305934D01*
X0121579Y0305934D01*
X0125831Y0332509D02*
X0125161Y0333178D01*
X0114689Y0333178D01*
X0114059Y0333808D01*
X0100909Y0313808D02*
X0100909Y0307902D01*
X0098972Y0305965D01*
X0095653Y0305965D01*
X0095684Y0305934D01*
X0095653Y0307865D02*
X0095653Y0313159D01*
X0088114Y0320698D01*
X0077878Y0320698D01*
X0072366Y0318729D02*
X0072366Y0309753D01*
X0072366Y0302272D02*
X0062957Y0302272D01*
X0062524Y0301839D01*
X0062524Y0291170D01*
X0072366Y0302272D02*
X0082445Y0302272D01*
X0082799Y0301918D01*
X0082846Y0301965D01*
X0095653Y0301965D01*
X0095653Y0303965D02*
X0090083Y0303965D01*
X0084650Y0309398D01*
X0082799Y0309398D01*
X0072366Y0318729D02*
X0070398Y0320698D01*
X0068429Y0318729D01*
X0062524Y0318729D01*
X0062524Y0309320D01*
X0295161Y0661288D02*
X0303823Y0669950D01*
X0305083Y0669950D01*
X0316933Y0658099D01*
X0324413Y0658099D02*
X0335201Y0658099D01*
X0338114Y0653375D02*
X0332209Y0653375D01*
X0330240Y0651406D01*
X0330240Y0645501D01*
X0332209Y0643532D01*
X0408980Y0643532D01*
X0415043Y0649595D01*
X0415043Y0653965D01*
X0433783Y0672706D01*
X0433783Y0672824D01*
X0420791Y0669123D02*
X0412720Y0669123D01*
X0418823Y0681721D02*
X0418823Y0698650D01*
X0412917Y0704556D01*
X0347957Y0704556D01*
X0345988Y0702587D01*
X0345988Y0697745D01*
X0345516Y0697272D01*
X0338035Y0697272D02*
X0325949Y0697272D01*
X0325752Y0697469D01*
X0327012Y0687627D02*
X0327209Y0687430D01*
X0337957Y0687430D01*
X0323705Y0669910D02*
X0323902Y0669713D01*
X0319531Y0687627D02*
X0311343Y0687627D01*
X0304650Y0680934D01*
X0304650Y0670776D01*
X0303823Y0669950D01*
X0281028Y0681170D02*
X0280791Y0680934D01*
X0281028Y0688650D02*
X0280870Y0688808D01*
X0273154Y0688808D01*
X0263508Y0681662D02*
X0263508Y0676662D01*
X0338114Y0653375D02*
X0342681Y0657942D01*
X0342681Y0658099D01*
X0342051Y0649438D02*
X0350122Y0649438D01*
X0357602Y0649438D02*
X0365673Y0649438D01*
X0403075Y0613060D02*
X0404098Y0612036D01*
X0410949Y0612036D01*
X0365673Y0570698D02*
X0357602Y0570698D01*
X0350122Y0570698D02*
X0342051Y0570698D01*
X0338114Y0574635D02*
X0342681Y0579202D01*
X0342681Y0579359D01*
X0403075Y0534320D02*
X0404098Y0533296D01*
X0410949Y0533296D01*
X0359810Y0438797D02*
X0342259Y0438797D01*
X0342248Y0438808D01*
X0333980Y0438808D02*
X0332406Y0437233D01*
X0332406Y0415186D01*
X0339886Y0415186D02*
X0339897Y0415197D01*
X0359810Y0415197D01*
X0359810Y0381710D02*
X0341843Y0381710D01*
X0339886Y0379753D01*
X0332406Y0379753D02*
X0332012Y0379359D01*
X0332012Y0358099D01*
X0340280Y0358099D02*
X0340291Y0358110D01*
X0359810Y0358110D01*
X0433783Y0235816D02*
X0433783Y0235698D01*
X0410949Y0178965D02*
X0404098Y0178965D01*
X0403075Y0179989D01*
X0404098Y0690776D02*
X0410949Y0690776D01*
X0404098Y0690776D02*
X0403075Y0691800D01*
D29*
X0403705Y0698650D02*
X0410949Y0698650D01*
X0410812Y0698513D01*
X0403705Y0698650D02*
X0403075Y0699280D01*
X0402110Y0700245D01*
X0385752Y0700245D01*
X0375516Y0696682D02*
X0375516Y0686839D01*
X0380634Y0681721D01*
X0411343Y0681721D01*
X0418823Y0681721D02*
X0432681Y0681721D01*
X0433783Y0682824D01*
X0407012Y0659280D02*
X0407012Y0654517D01*
X0407563Y0653965D01*
X0407012Y0659280D02*
X0405043Y0661249D01*
X0405240Y0669123D02*
X0397169Y0669123D01*
X0395201Y0671091D01*
X0394610Y0670501D01*
X0394610Y0664615D01*
X0385358Y0675028D02*
X0378862Y0675028D01*
X0371382Y0675028D02*
X0367445Y0678965D01*
X0363705Y0678965D01*
X0365280Y0680540D01*
X0365280Y0685245D01*
X0365280Y0690245D02*
X0359236Y0690245D01*
X0357799Y0688808D01*
X0357799Y0682902D01*
X0353862Y0686839D02*
X0353862Y0692745D01*
X0356362Y0695245D01*
X0365280Y0695245D01*
X0365280Y0700245D02*
X0364906Y0700619D01*
X0355831Y0700619D01*
X0349925Y0694713D01*
X0349925Y0690776D01*
X0346579Y0687430D01*
X0345437Y0687430D01*
X0351894Y0684871D02*
X0351894Y0678965D01*
X0349925Y0676997D01*
X0342051Y0676997D01*
X0338114Y0680934D01*
X0338114Y0687272D01*
X0337957Y0687430D01*
X0337327Y0674241D02*
X0336146Y0673060D01*
X0336146Y0670107D01*
X0335358Y0669320D01*
X0334965Y0669713D01*
X0323902Y0669713D01*
X0316224Y0669910D02*
X0316224Y0676761D01*
X0316461Y0676997D01*
X0324413Y0658099D02*
X0324335Y0658020D01*
X0324335Y0649438D01*
X0324335Y0647469D01*
X0340083Y0625816D02*
X0338114Y0623847D01*
X0338114Y0618611D01*
X0338035Y0618532D01*
X0337957Y0608690D02*
X0338114Y0608532D01*
X0338114Y0602194D01*
X0342051Y0598257D01*
X0349925Y0598257D01*
X0351894Y0600225D01*
X0351894Y0606131D01*
X0353862Y0608099D01*
X0353862Y0614005D01*
X0356362Y0616505D01*
X0365280Y0616505D01*
X0365280Y0621505D02*
X0364906Y0621879D01*
X0355831Y0621879D01*
X0349925Y0615973D01*
X0349925Y0612036D01*
X0346579Y0608690D01*
X0345437Y0608690D01*
X0348350Y0595501D02*
X0337327Y0595501D01*
X0336146Y0594320D01*
X0336146Y0591367D01*
X0335358Y0590580D01*
X0334965Y0590973D01*
X0323902Y0590973D01*
X0324413Y0579359D02*
X0324335Y0579280D01*
X0324335Y0570698D01*
X0324335Y0568729D01*
X0316224Y0591170D02*
X0316224Y0598020D01*
X0316461Y0598257D01*
X0318272Y0618729D02*
X0299531Y0618729D01*
X0294807Y0614005D01*
X0294807Y0603217D01*
X0295004Y0603020D01*
X0294807Y0614005D02*
X0284965Y0623847D01*
X0257406Y0623847D01*
X0255791Y0622233D01*
X0255791Y0618532D01*
X0245181Y0607922D01*
X0243035Y0607922D01*
X0243626Y0612036D02*
X0245594Y0614005D01*
X0245594Y0617351D01*
X0246776Y0618532D01*
X0243626Y0612036D02*
X0237720Y0612036D01*
X0235752Y0610068D01*
X0235752Y0600225D01*
X0238055Y0597922D01*
X0243035Y0597922D01*
X0243035Y0592922D02*
X0231913Y0592922D01*
X0229846Y0594989D01*
X0218035Y0608099D02*
X0216244Y0609891D01*
X0207996Y0609891D01*
X0198350Y0608099D02*
X0198350Y0582194D01*
X0209807Y0570737D01*
X0194413Y0584871D02*
X0189295Y0579753D01*
X0194413Y0584871D02*
X0194413Y0604162D01*
X0193685Y0604891D01*
X0187524Y0604891D01*
X0188508Y0600225D02*
X0174728Y0600225D01*
X0170791Y0604162D01*
X0159157Y0609891D02*
X0157287Y0611761D01*
X0156736Y0611761D01*
X0149138Y0604162D01*
X0149138Y0598060D01*
X0149138Y0590580D02*
X0149138Y0580540D01*
X0147169Y0578572D01*
X0147169Y0571879D01*
X0147287Y0571761D01*
X0127484Y0570698D02*
X0127484Y0577154D01*
X0127839Y0577509D01*
X0159157Y0609891D02*
X0187524Y0609891D01*
X0196559Y0609891D01*
X0198350Y0608099D01*
X0188508Y0600225D02*
X0188173Y0599891D01*
X0187524Y0599891D01*
X0187524Y0594891D02*
X0187524Y0589398D01*
X0186539Y0588414D01*
X0157287Y0533020D02*
X0159157Y0531150D01*
X0187524Y0531150D01*
X0196559Y0531150D01*
X0198350Y0529359D01*
X0198350Y0503454D01*
X0209807Y0491997D01*
X0194413Y0506131D02*
X0189295Y0501013D01*
X0194413Y0506131D02*
X0194413Y0525422D01*
X0193685Y0526150D01*
X0187524Y0526150D01*
X0188508Y0521485D02*
X0174728Y0521485D01*
X0170791Y0525422D01*
X0157287Y0533020D02*
X0156736Y0533020D01*
X0149138Y0525422D01*
X0149138Y0519320D01*
X0149138Y0511839D02*
X0149138Y0501800D01*
X0147169Y0499831D01*
X0147169Y0493139D01*
X0147287Y0493020D01*
X0127484Y0491957D02*
X0127484Y0498414D01*
X0127839Y0498769D01*
X0095653Y0505402D02*
X0088114Y0497863D01*
X0084177Y0497863D01*
X0095653Y0505402D02*
X0095653Y0508727D01*
X0124138Y0448650D02*
X0120201Y0444713D01*
X0124138Y0448650D02*
X0210161Y0448650D01*
X0214098Y0426997D02*
X0214098Y0421091D01*
X0218148Y0417042D01*
X0222683Y0417042D01*
X0222683Y0411942D02*
X0215374Y0411942D01*
X0210161Y0417154D01*
X0204256Y0415186D02*
X0210161Y0409280D01*
X0214098Y0409280D01*
X0216637Y0406742D01*
X0222683Y0406742D01*
X0244883Y0425739D02*
X0235752Y0434871D01*
X0186539Y0434871D01*
X0184571Y0436839D01*
X0184571Y0440580D01*
X0184768Y0440776D01*
X0204256Y0415186D02*
X0158980Y0415186D01*
X0153075Y0421091D01*
X0153075Y0432706D01*
X0146972Y0438808D01*
X0170791Y0411249D02*
X0198350Y0411249D01*
X0178665Y0403375D02*
X0170791Y0403375D01*
X0162917Y0395501D01*
X0162917Y0385658D01*
X0157012Y0379753D01*
X0137327Y0379753D01*
X0135358Y0381721D01*
X0135358Y0399438D01*
X0133390Y0401406D01*
X0127681Y0401406D01*
X0127484Y0401603D01*
X0107799Y0413217D02*
X0097130Y0402548D01*
X0070988Y0402548D01*
X0070161Y0403375D01*
X0066461Y0403375D01*
X0062917Y0406918D01*
X0062917Y0433296D01*
X0068862Y0439241D01*
X0068862Y0440501D01*
X0094020Y0375816D02*
X0092839Y0374635D01*
X0092839Y0358887D01*
X0088114Y0354162D01*
X0157484Y0354162D01*
X0161382Y0350265D01*
X0157287Y0324359D02*
X0159157Y0322489D01*
X0187524Y0322489D01*
X0196559Y0322489D01*
X0198350Y0320698D01*
X0198350Y0294792D01*
X0209807Y0283335D01*
X0194413Y0297469D02*
X0189295Y0292351D01*
X0194413Y0297469D02*
X0194413Y0316761D01*
X0193685Y0317489D01*
X0187524Y0317489D01*
X0188508Y0312824D02*
X0174728Y0312824D01*
X0170791Y0316761D01*
X0157287Y0324359D02*
X0156736Y0324359D01*
X0149138Y0316761D01*
X0149138Y0310658D01*
X0149138Y0303178D02*
X0149138Y0293139D01*
X0147169Y0291170D01*
X0147169Y0284477D01*
X0147287Y0284359D01*
X0127484Y0283296D02*
X0127484Y0289753D01*
X0127839Y0290107D01*
X0108783Y0301997D02*
X0105831Y0299044D01*
X0095653Y0300065D02*
X0095653Y0296740D01*
X0088114Y0289202D01*
X0084177Y0289202D01*
X0090083Y0340383D02*
X0263311Y0340383D01*
X0257406Y0336446D02*
X0284965Y0336446D01*
X0294807Y0326603D01*
X0299531Y0331328D01*
X0318272Y0331328D01*
X0316461Y0310855D02*
X0316224Y0310619D01*
X0316224Y0303769D01*
X0323902Y0303572D02*
X0334965Y0303572D01*
X0335358Y0303178D01*
X0336146Y0303965D01*
X0336146Y0306918D01*
X0337327Y0308099D01*
X0348350Y0308099D01*
X0362976Y0293473D01*
X0374138Y0293473D01*
X0374138Y0288473D02*
X0382150Y0288473D01*
X0383390Y0287233D01*
X0374138Y0288473D02*
X0362465Y0288473D01*
X0347957Y0302981D01*
X0343035Y0302981D01*
X0342839Y0303178D01*
X0342051Y0310855D02*
X0338114Y0314792D01*
X0338114Y0321131D01*
X0337957Y0321288D01*
X0345437Y0321288D02*
X0346579Y0321288D01*
X0349925Y0324635D01*
X0349925Y0328572D01*
X0355831Y0334477D01*
X0364906Y0334477D01*
X0365280Y0334103D01*
X0371953Y0334103D01*
X0375516Y0330540D01*
X0375516Y0320698D01*
X0380634Y0315580D01*
X0411343Y0315580D01*
X0418823Y0315580D02*
X0432681Y0315580D01*
X0433783Y0316682D01*
X0410949Y0332509D02*
X0410812Y0332372D01*
X0410949Y0332509D02*
X0403705Y0332509D01*
X0403075Y0333139D01*
X0402110Y0334103D01*
X0385752Y0334103D01*
X0367445Y0312824D02*
X0371382Y0308887D01*
X0367445Y0312824D02*
X0363705Y0312824D01*
X0365280Y0314398D01*
X0365280Y0319103D01*
X0365280Y0324103D02*
X0359236Y0324103D01*
X0357799Y0322666D01*
X0357799Y0316761D01*
X0353862Y0320698D02*
X0351894Y0318729D01*
X0351894Y0312824D01*
X0349925Y0310855D01*
X0342051Y0310855D01*
X0338035Y0331131D02*
X0338114Y0331209D01*
X0338114Y0336446D01*
X0340083Y0338414D01*
X0353862Y0326603D02*
X0353862Y0320698D01*
X0353862Y0326603D02*
X0356362Y0329103D01*
X0365280Y0329103D01*
X0378862Y0308887D02*
X0385358Y0308887D01*
X0394610Y0304359D02*
X0394610Y0298473D01*
X0397169Y0302981D02*
X0395201Y0304950D01*
X0394610Y0304359D01*
X0397169Y0302981D02*
X0405240Y0302981D01*
X0405043Y0295107D02*
X0407012Y0293139D01*
X0407012Y0288375D01*
X0407563Y0287824D01*
X0402110Y0263237D02*
X0403075Y0262272D01*
X0403705Y0261643D01*
X0410949Y0261643D01*
X0410812Y0261506D01*
X0402110Y0263237D02*
X0385752Y0263237D01*
X0375516Y0259674D02*
X0375516Y0249831D01*
X0380634Y0244713D01*
X0411343Y0244713D01*
X0418823Y0244713D02*
X0432681Y0244713D01*
X0433783Y0245816D01*
X0407012Y0222272D02*
X0407012Y0217509D01*
X0407563Y0216957D01*
X0407012Y0222272D02*
X0405043Y0224241D01*
X0405240Y0232115D02*
X0397169Y0232115D01*
X0395201Y0234083D01*
X0394610Y0233493D01*
X0394610Y0227607D01*
X0385358Y0238020D02*
X0378862Y0238020D01*
X0371382Y0238020D02*
X0367445Y0241957D01*
X0363705Y0241957D01*
X0365280Y0243532D01*
X0365280Y0248237D01*
X0365280Y0253237D02*
X0359236Y0253237D01*
X0357799Y0251800D01*
X0357799Y0245894D01*
X0353862Y0249831D02*
X0353862Y0255737D01*
X0356362Y0258237D01*
X0365280Y0258237D01*
X0365280Y0263237D02*
X0364906Y0263611D01*
X0355831Y0263611D01*
X0349925Y0257706D01*
X0349925Y0253769D01*
X0346579Y0250422D01*
X0345437Y0250422D01*
X0351894Y0247863D02*
X0351894Y0241957D01*
X0349925Y0239989D01*
X0342051Y0239989D01*
X0338114Y0243926D01*
X0338114Y0250265D01*
X0337957Y0250422D01*
X0337327Y0237233D02*
X0336146Y0236052D01*
X0336146Y0233099D01*
X0335358Y0232312D01*
X0334965Y0232706D01*
X0323902Y0232706D01*
X0316224Y0232902D02*
X0316224Y0239753D01*
X0316461Y0239989D01*
X0324413Y0221091D02*
X0324335Y0221013D01*
X0324335Y0212430D01*
X0324335Y0210461D01*
X0340083Y0192745D02*
X0338114Y0190776D01*
X0338114Y0185540D01*
X0338035Y0185461D01*
X0337957Y0175619D02*
X0338114Y0175461D01*
X0338114Y0169123D01*
X0342051Y0165186D01*
X0349925Y0165186D01*
X0351894Y0167154D01*
X0351894Y0173060D01*
X0353862Y0175028D01*
X0353862Y0180934D01*
X0356362Y0183434D01*
X0365280Y0183434D01*
X0365280Y0188434D02*
X0364906Y0188808D01*
X0355831Y0188808D01*
X0349925Y0182902D01*
X0349925Y0178965D01*
X0346579Y0175619D01*
X0345437Y0175619D01*
X0348350Y0162430D02*
X0337327Y0162430D01*
X0336146Y0161249D01*
X0336146Y0158296D01*
X0335358Y0157509D01*
X0334965Y0157902D01*
X0323902Y0157902D01*
X0316224Y0158099D02*
X0316224Y0164950D01*
X0316461Y0165186D01*
X0324413Y0146288D02*
X0324335Y0146209D01*
X0324335Y0137627D01*
X0324335Y0135658D01*
X0343035Y0157312D02*
X0342839Y0157509D01*
X0343035Y0157312D02*
X0347957Y0157312D01*
X0362465Y0142804D01*
X0374138Y0142804D01*
X0382150Y0142804D01*
X0383390Y0141564D01*
X0374138Y0137804D02*
X0365850Y0137804D01*
X0365673Y0137627D01*
X0362976Y0147804D02*
X0348350Y0162430D01*
X0357799Y0171091D02*
X0357799Y0176997D01*
X0359236Y0178434D01*
X0365280Y0178434D01*
X0365280Y0173434D02*
X0365280Y0168729D01*
X0363705Y0167154D01*
X0367445Y0167154D01*
X0371382Y0163217D01*
X0365673Y0155343D02*
X0368213Y0152804D01*
X0374138Y0152804D01*
X0374138Y0147804D02*
X0362976Y0147804D01*
X0378862Y0163217D02*
X0385358Y0163217D01*
X0380634Y0169910D02*
X0375516Y0175028D01*
X0375516Y0184871D01*
X0371953Y0188434D01*
X0365280Y0188434D01*
X0365673Y0212430D02*
X0365850Y0212607D01*
X0374138Y0212607D01*
X0374138Y0217607D02*
X0382150Y0217607D01*
X0383390Y0216367D01*
X0374138Y0217607D02*
X0362465Y0217607D01*
X0347957Y0232115D01*
X0343035Y0232115D01*
X0342839Y0232312D01*
X0348350Y0237233D02*
X0337327Y0237233D01*
X0348350Y0237233D02*
X0362976Y0222607D01*
X0374138Y0222607D01*
X0374138Y0227607D02*
X0368213Y0227607D01*
X0365673Y0230146D01*
X0351894Y0247863D02*
X0353862Y0249831D01*
X0365280Y0263237D02*
X0371953Y0263237D01*
X0375516Y0259674D01*
X0374138Y0283473D02*
X0365850Y0283473D01*
X0365673Y0283296D01*
X0368213Y0298473D02*
X0365673Y0301013D01*
X0368213Y0298473D02*
X0374138Y0298473D01*
X0340083Y0267548D02*
X0338114Y0265580D01*
X0338114Y0260343D01*
X0338035Y0260265D01*
X0324335Y0281328D02*
X0324335Y0283296D01*
X0324335Y0291879D01*
X0324413Y0291957D01*
X0318272Y0260461D02*
X0299531Y0260461D01*
X0294807Y0255737D01*
X0294807Y0244950D01*
X0295004Y0244753D01*
X0294807Y0255737D02*
X0284965Y0265580D01*
X0257406Y0265580D01*
X0255791Y0263965D01*
X0255791Y0260265D01*
X0245181Y0249654D01*
X0243035Y0249654D01*
X0243626Y0253769D02*
X0237720Y0253769D01*
X0235752Y0251800D01*
X0235752Y0241957D01*
X0238055Y0239654D01*
X0243035Y0239654D01*
X0243035Y0234654D02*
X0231913Y0234654D01*
X0229846Y0236721D01*
X0218035Y0249831D02*
X0216244Y0251623D01*
X0207996Y0251623D01*
X0198350Y0249831D02*
X0198350Y0223926D01*
X0209807Y0212469D01*
X0194413Y0226603D02*
X0189295Y0221485D01*
X0194413Y0226603D02*
X0194413Y0245894D01*
X0193685Y0246623D01*
X0187524Y0246623D01*
X0188508Y0241957D02*
X0174728Y0241957D01*
X0170791Y0245894D01*
X0159157Y0251623D02*
X0157287Y0253493D01*
X0156736Y0253493D01*
X0149138Y0245894D01*
X0149138Y0239792D01*
X0149138Y0232312D02*
X0149138Y0222272D01*
X0147169Y0220304D01*
X0147169Y0213611D01*
X0147287Y0213493D01*
X0127484Y0212430D02*
X0127484Y0218887D01*
X0127839Y0219241D01*
X0108783Y0231131D02*
X0105831Y0228178D01*
X0095653Y0229199D02*
X0095653Y0225874D01*
X0088114Y0218335D01*
X0084177Y0218335D01*
X0095653Y0154396D02*
X0095653Y0151071D01*
X0088114Y0143532D01*
X0084177Y0143532D01*
X0127484Y0144083D02*
X0127484Y0137627D01*
X0127484Y0144083D02*
X0127839Y0144438D01*
X0147169Y0145501D02*
X0147169Y0138808D01*
X0147287Y0138690D01*
X0147169Y0145501D02*
X0149138Y0147469D01*
X0149138Y0157509D01*
X0149138Y0164989D02*
X0149138Y0171091D01*
X0156736Y0178690D01*
X0157287Y0178690D01*
X0159157Y0176820D01*
X0187524Y0176820D01*
X0196559Y0176820D01*
X0198350Y0175028D01*
X0198350Y0149123D01*
X0209807Y0137666D01*
X0194413Y0151800D02*
X0189295Y0146682D01*
X0194413Y0151800D02*
X0194413Y0171091D01*
X0193685Y0171820D01*
X0187524Y0171820D01*
X0188508Y0167154D02*
X0174728Y0167154D01*
X0170791Y0171091D01*
X0187524Y0166820D02*
X0188173Y0166820D01*
X0188508Y0167154D01*
X0187524Y0161820D02*
X0187524Y0156328D01*
X0186539Y0155343D01*
X0207996Y0176820D02*
X0216244Y0176820D01*
X0218035Y0175028D01*
X0229846Y0161918D02*
X0231913Y0159851D01*
X0243035Y0159851D01*
X0243035Y0164851D02*
X0238055Y0164851D01*
X0235752Y0167154D01*
X0235752Y0176997D01*
X0237720Y0178965D01*
X0243626Y0178965D01*
X0245594Y0180934D01*
X0245594Y0184280D01*
X0246776Y0185461D01*
X0255791Y0185461D02*
X0245181Y0174851D01*
X0243035Y0174851D01*
X0243035Y0169851D02*
X0250260Y0169851D01*
X0251500Y0168611D01*
X0251500Y0157312D01*
X0239098Y0144910D01*
X0236500Y0144910D01*
X0247563Y0137627D02*
X0263508Y0153572D01*
X0263508Y0159851D01*
X0263508Y0164851D02*
X0267583Y0164851D01*
X0281028Y0151406D01*
X0293232Y0151406D01*
X0295161Y0149477D01*
X0295004Y0169950D02*
X0294807Y0170146D01*
X0294807Y0180934D01*
X0299531Y0185658D01*
X0318272Y0185658D01*
X0294807Y0180934D02*
X0284965Y0190776D01*
X0257406Y0190776D01*
X0255791Y0189162D01*
X0255791Y0185461D01*
X0263272Y0185461D02*
X0263311Y0185422D01*
X0263311Y0182902D01*
X0250260Y0169851D01*
X0263508Y0174851D02*
X0267425Y0174851D01*
X0281028Y0161249D01*
X0280791Y0161485D01*
X0280791Y0169123D01*
X0247563Y0212430D02*
X0263508Y0228375D01*
X0263508Y0234654D01*
X0263508Y0239654D02*
X0267583Y0239654D01*
X0281028Y0226209D01*
X0293232Y0226209D01*
X0295161Y0224280D01*
X0281028Y0236052D02*
X0280791Y0236288D01*
X0280791Y0243926D01*
X0281028Y0236052D02*
X0267425Y0249654D01*
X0263508Y0249654D01*
X0263311Y0257706D02*
X0263311Y0260225D01*
X0263272Y0260265D01*
X0263311Y0257706D02*
X0250260Y0244654D01*
X0251500Y0243414D01*
X0251500Y0232115D01*
X0239098Y0219713D01*
X0236500Y0219713D01*
X0243035Y0244654D02*
X0250260Y0244654D01*
X0243626Y0253769D02*
X0245594Y0255737D01*
X0245594Y0259083D01*
X0246776Y0260265D01*
X0247563Y0283296D02*
X0263508Y0299241D01*
X0263508Y0305520D01*
X0263508Y0310520D02*
X0267583Y0310520D01*
X0281028Y0297076D01*
X0293232Y0297076D01*
X0295161Y0295146D01*
X0281028Y0306918D02*
X0280791Y0307154D01*
X0280791Y0314792D01*
X0281028Y0306918D02*
X0267425Y0320520D01*
X0263508Y0320520D01*
X0263311Y0328572D02*
X0263311Y0331091D01*
X0263272Y0331131D01*
X0263311Y0328572D02*
X0250260Y0315520D01*
X0251500Y0314280D01*
X0251500Y0302981D01*
X0239098Y0290580D01*
X0236500Y0290580D01*
X0231913Y0305520D02*
X0229846Y0307587D01*
X0231913Y0305520D02*
X0243035Y0305520D01*
X0243035Y0310520D02*
X0238055Y0310520D01*
X0235752Y0312824D01*
X0235752Y0322666D01*
X0237720Y0324635D01*
X0243626Y0324635D01*
X0245594Y0326603D01*
X0245594Y0329950D01*
X0246776Y0331131D01*
X0255791Y0331131D02*
X0245181Y0320520D01*
X0243035Y0320520D01*
X0243035Y0315520D02*
X0250260Y0315520D01*
X0255791Y0331131D02*
X0255791Y0334831D01*
X0257406Y0336446D01*
X0294807Y0326603D02*
X0294807Y0315816D01*
X0295004Y0315619D01*
X0244883Y0417042D02*
X0244883Y0425739D01*
X0247563Y0491957D02*
X0263508Y0507902D01*
X0263508Y0514182D01*
X0263508Y0519182D02*
X0267583Y0519182D01*
X0281028Y0505737D01*
X0293232Y0505737D01*
X0295161Y0503808D01*
X0295004Y0524280D02*
X0294807Y0524477D01*
X0294807Y0535265D01*
X0299531Y0539989D01*
X0318272Y0539989D01*
X0316461Y0519517D02*
X0316224Y0519280D01*
X0316224Y0512430D01*
X0323902Y0512233D02*
X0334965Y0512233D01*
X0335358Y0511839D01*
X0336146Y0512627D01*
X0336146Y0515580D01*
X0337327Y0516761D01*
X0348350Y0516761D01*
X0362976Y0502135D01*
X0374138Y0502135D01*
X0374138Y0507135D02*
X0368213Y0507135D01*
X0365673Y0509674D01*
X0371382Y0517548D02*
X0367445Y0521485D01*
X0363705Y0521485D01*
X0365280Y0523060D01*
X0365280Y0527765D01*
X0365280Y0532765D02*
X0359236Y0532765D01*
X0357799Y0531328D01*
X0357799Y0525422D01*
X0353862Y0529359D02*
X0353862Y0535265D01*
X0356362Y0537765D01*
X0365280Y0537765D01*
X0365280Y0542765D02*
X0364906Y0543139D01*
X0355831Y0543139D01*
X0349925Y0537233D01*
X0349925Y0533296D01*
X0346579Y0529950D01*
X0345437Y0529950D01*
X0351894Y0527391D02*
X0351894Y0521485D01*
X0349925Y0519517D01*
X0342051Y0519517D01*
X0338114Y0523454D01*
X0338114Y0529792D01*
X0337957Y0529950D01*
X0338035Y0539792D02*
X0338114Y0539871D01*
X0338114Y0545107D01*
X0340083Y0547076D01*
X0353862Y0529359D02*
X0351894Y0527391D01*
X0347957Y0511643D02*
X0343035Y0511643D01*
X0342839Y0511839D01*
X0347957Y0511643D02*
X0362465Y0497135D01*
X0374138Y0497135D01*
X0382150Y0497135D01*
X0383390Y0495894D01*
X0374138Y0492135D02*
X0365850Y0492135D01*
X0365673Y0491957D01*
X0378862Y0517548D02*
X0385358Y0517548D01*
X0380634Y0524241D02*
X0375516Y0529359D01*
X0375516Y0539202D01*
X0371953Y0542765D01*
X0365280Y0542765D01*
X0380634Y0524241D02*
X0411343Y0524241D01*
X0418823Y0524241D02*
X0432681Y0524241D01*
X0433783Y0525343D01*
X0410949Y0541170D02*
X0410812Y0541033D01*
X0410949Y0541170D02*
X0403705Y0541170D01*
X0403075Y0541800D01*
X0402110Y0542765D01*
X0385752Y0542765D01*
X0374138Y0570875D02*
X0365850Y0570875D01*
X0365673Y0570698D01*
X0362465Y0575875D02*
X0347957Y0590383D01*
X0343035Y0590383D01*
X0342839Y0590580D01*
X0348350Y0595501D02*
X0362976Y0580875D01*
X0374138Y0580875D01*
X0374138Y0585875D02*
X0368213Y0585875D01*
X0365673Y0588414D01*
X0371382Y0596288D02*
X0367445Y0600225D01*
X0363705Y0600225D01*
X0365280Y0601800D01*
X0365280Y0606505D01*
X0365280Y0611505D02*
X0359236Y0611505D01*
X0357799Y0610068D01*
X0357799Y0604162D01*
X0375516Y0608099D02*
X0375516Y0617942D01*
X0371953Y0621505D01*
X0365280Y0621505D01*
X0375516Y0608099D02*
X0380634Y0602981D01*
X0411343Y0602981D01*
X0418823Y0602981D02*
X0432681Y0602981D01*
X0433783Y0604083D01*
X0410949Y0619910D02*
X0410812Y0619773D01*
X0410949Y0619910D02*
X0403705Y0619910D01*
X0403075Y0620540D01*
X0402110Y0621505D01*
X0385752Y0621505D01*
X0374138Y0649615D02*
X0365850Y0649615D01*
X0365673Y0649438D01*
X0362465Y0654615D02*
X0347957Y0669123D01*
X0343035Y0669123D01*
X0342839Y0669320D01*
X0348350Y0674241D02*
X0337327Y0674241D01*
X0348350Y0674241D02*
X0362976Y0659615D01*
X0374138Y0659615D01*
X0374138Y0664615D02*
X0368213Y0664615D01*
X0365673Y0667154D01*
X0362465Y0654615D02*
X0374138Y0654615D01*
X0382150Y0654615D01*
X0383390Y0653375D01*
X0375516Y0696682D02*
X0371953Y0700245D01*
X0365280Y0700245D01*
X0353862Y0686839D02*
X0351894Y0684871D01*
X0338114Y0697351D02*
X0338035Y0697272D01*
X0338114Y0697351D02*
X0338114Y0702587D01*
X0340083Y0704556D01*
X0318272Y0697469D02*
X0299531Y0697469D01*
X0294807Y0692745D01*
X0294807Y0681957D01*
X0295004Y0681761D01*
X0294807Y0692745D02*
X0284965Y0702587D01*
X0257406Y0702587D01*
X0255791Y0700973D01*
X0255791Y0697272D01*
X0245181Y0686662D01*
X0243035Y0686662D01*
X0243626Y0690776D02*
X0237720Y0690776D01*
X0235752Y0688808D01*
X0235752Y0678965D01*
X0238055Y0676662D01*
X0243035Y0676662D01*
X0243035Y0671662D02*
X0231913Y0671662D01*
X0229846Y0673729D01*
X0218035Y0686839D02*
X0216244Y0688631D01*
X0207996Y0688631D01*
X0198350Y0686839D02*
X0198350Y0660934D01*
X0209807Y0649477D01*
X0194413Y0663611D02*
X0189295Y0658493D01*
X0194413Y0663611D02*
X0194413Y0682902D01*
X0193685Y0683631D01*
X0187524Y0683631D01*
X0188508Y0678965D02*
X0174728Y0678965D01*
X0170791Y0682902D01*
X0159157Y0688631D02*
X0157287Y0690501D01*
X0156736Y0690501D01*
X0149138Y0682902D01*
X0149138Y0676800D01*
X0149138Y0669320D02*
X0149138Y0659280D01*
X0147169Y0657312D01*
X0147169Y0650619D01*
X0147287Y0650501D01*
X0127484Y0649438D02*
X0127484Y0655894D01*
X0127839Y0656249D01*
X0159157Y0688631D02*
X0187524Y0688631D01*
X0196559Y0688631D01*
X0198350Y0686839D01*
X0188508Y0678965D02*
X0188173Y0678631D01*
X0187524Y0678631D01*
X0187524Y0673631D02*
X0187524Y0668139D01*
X0186539Y0667154D01*
X0236500Y0656721D02*
X0239098Y0656721D01*
X0251500Y0669123D01*
X0251500Y0680422D01*
X0250260Y0681662D01*
X0263311Y0694713D01*
X0263311Y0697233D01*
X0263272Y0697272D01*
X0263508Y0686662D02*
X0267425Y0686662D01*
X0281028Y0673060D01*
X0280791Y0673296D01*
X0280791Y0680934D01*
X0267583Y0676662D02*
X0281028Y0663217D01*
X0293232Y0663217D01*
X0295161Y0661288D01*
X0267583Y0676662D02*
X0263508Y0676662D01*
X0263508Y0671662D02*
X0263508Y0665383D01*
X0247563Y0649438D01*
X0263272Y0618532D02*
X0263311Y0618493D01*
X0263311Y0615973D01*
X0250260Y0602922D01*
X0251500Y0601682D01*
X0251500Y0590383D01*
X0239098Y0577981D01*
X0236500Y0577981D01*
X0247563Y0570698D02*
X0263508Y0586643D01*
X0263508Y0592922D01*
X0263508Y0597922D02*
X0267583Y0597922D01*
X0281028Y0584477D01*
X0293232Y0584477D01*
X0295161Y0582548D01*
X0281028Y0594320D02*
X0280791Y0594556D01*
X0280791Y0602194D01*
X0281028Y0594320D02*
X0267425Y0607922D01*
X0263508Y0607922D01*
X0250260Y0602922D02*
X0243035Y0602922D01*
X0257406Y0545107D02*
X0284965Y0545107D01*
X0294807Y0535265D01*
X0280791Y0523454D02*
X0280791Y0515816D01*
X0281028Y0515580D01*
X0267425Y0529182D01*
X0263508Y0529182D01*
X0263311Y0537233D02*
X0263311Y0539753D01*
X0263272Y0539792D01*
X0263311Y0537233D02*
X0250260Y0524182D01*
X0251500Y0522942D01*
X0251500Y0511643D01*
X0239098Y0499241D01*
X0236500Y0499241D01*
X0231913Y0514182D02*
X0229846Y0516249D01*
X0231913Y0514182D02*
X0243035Y0514182D01*
X0243035Y0519182D02*
X0238055Y0519182D01*
X0235752Y0521485D01*
X0235752Y0531328D01*
X0237720Y0533296D01*
X0243626Y0533296D01*
X0245594Y0535265D01*
X0245594Y0538611D01*
X0246776Y0539792D01*
X0255791Y0539792D02*
X0245181Y0529182D01*
X0243035Y0529182D01*
X0243035Y0524182D02*
X0250260Y0524182D01*
X0255791Y0539792D02*
X0255791Y0543493D01*
X0257406Y0545107D01*
X0218035Y0529359D02*
X0216244Y0531150D01*
X0207996Y0531150D01*
X0188508Y0521485D02*
X0188173Y0521150D01*
X0187524Y0521150D01*
X0187524Y0516150D02*
X0187524Y0510658D01*
X0186539Y0509674D01*
X0095653Y0584142D02*
X0088114Y0576603D01*
X0084177Y0576603D01*
X0095653Y0584142D02*
X0095653Y0587467D01*
X0088114Y0655343D02*
X0084177Y0655343D01*
X0088114Y0655343D02*
X0095653Y0662882D01*
X0095653Y0666207D01*
X0243035Y0681662D02*
X0250260Y0681662D01*
X0243626Y0690776D02*
X0245594Y0692745D01*
X0245594Y0696091D01*
X0246776Y0697272D01*
X0362465Y0575875D02*
X0374138Y0575875D01*
X0382150Y0575875D01*
X0383390Y0574635D01*
X0394610Y0585875D02*
X0394610Y0591761D01*
X0395201Y0592351D01*
X0397169Y0590383D01*
X0405240Y0590383D01*
X0405043Y0582509D02*
X0407012Y0580540D01*
X0407012Y0575776D01*
X0407563Y0575225D01*
X0385358Y0596288D02*
X0378862Y0596288D01*
X0395201Y0513611D02*
X0397169Y0511643D01*
X0405240Y0511643D01*
X0405043Y0503769D02*
X0407012Y0501800D01*
X0407012Y0497036D01*
X0407563Y0496485D01*
X0394610Y0507135D02*
X0394610Y0513020D01*
X0395201Y0513611D01*
X0324413Y0500619D02*
X0324335Y0500540D01*
X0324335Y0491957D01*
X0324335Y0489989D01*
X0216244Y0322489D02*
X0218035Y0320698D01*
X0216244Y0322489D02*
X0207996Y0322489D01*
X0188508Y0312824D02*
X0188173Y0312489D01*
X0187524Y0312489D01*
X0187524Y0307489D02*
X0187524Y0301997D01*
X0186539Y0301013D01*
X0187524Y0251623D02*
X0159157Y0251623D01*
X0187524Y0251623D02*
X0196559Y0251623D01*
X0198350Y0249831D01*
X0188508Y0241957D02*
X0188173Y0241623D01*
X0187524Y0241623D01*
X0187524Y0236623D02*
X0187524Y0231131D01*
X0186539Y0230146D01*
X0085280Y0351328D02*
X0088114Y0354162D01*
X0085280Y0351328D02*
X0085280Y0348847D01*
X0380634Y0169910D02*
X0411343Y0169910D01*
X0418823Y0169910D02*
X0432681Y0169910D01*
X0433783Y0171013D01*
X0410949Y0186839D02*
X0410812Y0186702D01*
X0410949Y0186839D02*
X0403705Y0186839D01*
X0403075Y0187469D01*
X0402110Y0188434D01*
X0385752Y0188434D01*
X0395201Y0159280D02*
X0397169Y0157312D01*
X0405240Y0157312D01*
X0405043Y0149438D02*
X0407012Y0147469D01*
X0407012Y0142706D01*
X0407563Y0142154D01*
X0394610Y0152804D02*
X0394610Y0158690D01*
X0395201Y0159280D01*
D30*
X0379410Y0358110D02*
X0400069Y0378769D01*
X0416776Y0378769D01*
X0416776Y0386643D02*
X0384343Y0386643D01*
X0379410Y0381710D01*
X0379410Y0415197D02*
X0380974Y0416761D01*
X0416776Y0416761D01*
X0416776Y0424635D02*
X0393572Y0424635D01*
X0379410Y0438797D01*
M02*
