G75*
%MOIN*%
%OFA0B0*%
%FSLAX25Y25*%
%IPPOS*%
%LPD*%
%AMOC8*
5,1,8,0,0,1.08239X$1,22.5*
%
%ADD10C,0.06000*%
%ADD11C,0.05600*%
%ADD12C,0.05200*%
%ADD13OC8,0.07000*%
%ADD14OC8,0.08500*%
%ADD15R,0.01400X0.05800*%
%ADD16OC8,0.06000*%
%ADD17C,0.20000*%
%ADD18C,0.05000*%
%ADD19C,0.01200*%
%ADD20C,0.04362*%
%ADD21C,0.02400*%
%ADD22C,0.01600*%
D10*
X0311300Y0019294D02*
X0317300Y0019294D01*
X0317300Y0029294D02*
X0311300Y0029294D01*
X0311300Y0126794D02*
X0317300Y0126794D01*
X0317300Y0136794D02*
X0311300Y0136794D01*
D11*
X0311500Y0084294D02*
X0317100Y0084294D01*
X0317100Y0074294D02*
X0311500Y0074294D01*
D12*
X0299400Y0074294D02*
X0294200Y0074294D01*
X0294200Y0064294D02*
X0299400Y0064294D01*
X0299400Y0054294D02*
X0294200Y0054294D01*
X0294200Y0044294D02*
X0299400Y0044294D01*
X0269400Y0044294D02*
X0264200Y0044294D01*
X0264200Y0054294D02*
X0269400Y0054294D01*
X0269400Y0064294D02*
X0264200Y0064294D01*
X0264200Y0074294D02*
X0269400Y0074294D01*
X0239400Y0074294D02*
X0234200Y0074294D01*
X0234200Y0064294D02*
X0239400Y0064294D01*
X0239400Y0054294D02*
X0234200Y0054294D01*
X0234200Y0044294D02*
X0239400Y0044294D01*
X0209400Y0044294D02*
X0204200Y0044294D01*
X0204200Y0054294D02*
X0209400Y0054294D01*
X0209400Y0064294D02*
X0204200Y0064294D01*
X0204200Y0074294D02*
X0209400Y0074294D01*
X0211800Y0094194D02*
X0211800Y0099394D01*
X0221800Y0099394D02*
X0221800Y0094194D01*
X0231800Y0094194D02*
X0231800Y0099394D01*
X0241800Y0099394D02*
X0241800Y0094194D01*
X0241800Y0124194D02*
X0241800Y0129394D01*
X0231800Y0129394D02*
X0231800Y0124194D01*
X0221800Y0124194D02*
X0221800Y0129394D01*
X0211800Y0129394D02*
X0211800Y0124194D01*
D13*
X0251800Y0131794D03*
X0251800Y0111794D03*
X0291800Y0121794D03*
D14*
X0308316Y0113310D03*
X0308670Y0098329D03*
X0196800Y0136794D03*
X0186800Y0136794D03*
X0176800Y0136794D03*
X0166800Y0136794D03*
X0156800Y0136794D03*
X0146800Y0136794D03*
X0129300Y0114294D03*
X0119300Y0114294D03*
X0109300Y0114294D03*
X0099300Y0114294D03*
X0099300Y0131794D03*
X0136800Y0096794D03*
X0129300Y0036794D03*
X0119300Y0036794D03*
X0109300Y0036794D03*
X0099300Y0036794D03*
X0146800Y0016794D03*
X0156800Y0016794D03*
X0166800Y0016794D03*
X0176800Y0016794D03*
X0186800Y0016794D03*
X0196800Y0016794D03*
X0264300Y0026794D03*
X0276800Y0026794D03*
D15*
X0128400Y0066225D03*
X0125800Y0066225D03*
X0123300Y0066225D03*
X0120700Y0066225D03*
X0118100Y0066225D03*
X0115600Y0066225D03*
X0113000Y0066225D03*
X0110500Y0066225D03*
X0107900Y0066225D03*
X0105300Y0066225D03*
X0102800Y0066225D03*
X0100200Y0066225D03*
X0100200Y0088425D03*
X0102800Y0088425D03*
X0105300Y0088425D03*
X0107900Y0088425D03*
X0110500Y0088425D03*
X0113000Y0088425D03*
X0115600Y0088425D03*
X0118100Y0088425D03*
X0120700Y0088425D03*
X0123300Y0088425D03*
X0125800Y0088425D03*
X0128400Y0088425D03*
D16*
X0076800Y0085094D03*
X0066800Y0090494D03*
X0076800Y0095894D03*
X0066800Y0079694D03*
X0076800Y0074294D03*
X0066800Y0068894D03*
X0076800Y0063494D03*
X0066800Y0058094D03*
X0076800Y0052694D03*
D17*
X0071800Y0024994D03*
X0071800Y0123594D03*
D18*
X0196800Y0136794D02*
X0196800Y0016794D01*
D19*
X0196800Y0017394D02*
X0196800Y0136194D01*
X0197400Y0136194D01*
X0197400Y0137394D01*
X0202650Y0137394D01*
X0202650Y0139217D01*
X0200384Y0141483D01*
X0319991Y0142175D01*
X0319991Y0140308D01*
X0319785Y0140513D01*
X0318173Y0141181D01*
X0310427Y0141181D01*
X0308815Y0140513D01*
X0307581Y0139279D01*
X0306913Y0137666D01*
X0306913Y0135921D01*
X0307581Y0134309D01*
X0308815Y0133074D01*
X0310427Y0132406D01*
X0318173Y0132406D01*
X0319785Y0133074D01*
X0319991Y0133280D01*
X0319991Y0130525D01*
X0319711Y0130728D01*
X0319066Y0131057D01*
X0318377Y0131280D01*
X0317662Y0131394D01*
X0314700Y0131394D01*
X0314700Y0127194D01*
X0313900Y0127194D01*
X0313900Y0131394D01*
X0310938Y0131394D01*
X0310223Y0131280D01*
X0309534Y0131057D01*
X0308889Y0130728D01*
X0308303Y0130302D01*
X0307791Y0129790D01*
X0307366Y0129205D01*
X0307037Y0128560D01*
X0306813Y0127871D01*
X0306706Y0127194D01*
X0313900Y0127194D01*
X0313900Y0126394D01*
X0306706Y0126394D01*
X0306813Y0125717D01*
X0307037Y0125028D01*
X0307366Y0124383D01*
X0307791Y0123797D01*
X0308303Y0123285D01*
X0308889Y0122859D01*
X0309534Y0122531D01*
X0310223Y0122307D01*
X0310938Y0122194D01*
X0313900Y0122194D01*
X0313900Y0126394D01*
X0314700Y0126394D01*
X0314700Y0122194D01*
X0317662Y0122194D01*
X0318377Y0122307D01*
X0319066Y0122531D01*
X0319711Y0122859D01*
X0319991Y0123063D01*
X0319991Y0087325D01*
X0319472Y0087844D01*
X0317933Y0088481D01*
X0310667Y0088481D01*
X0309128Y0087844D01*
X0307950Y0086666D01*
X0307313Y0085127D01*
X0307313Y0083461D01*
X0307950Y0081922D01*
X0309128Y0080744D01*
X0310667Y0080106D01*
X0317933Y0080106D01*
X0319472Y0080744D01*
X0319991Y0081262D01*
X0319991Y0077325D01*
X0319472Y0077844D01*
X0317933Y0078481D01*
X0310667Y0078481D01*
X0309128Y0077844D01*
X0307950Y0076666D01*
X0307313Y0075127D01*
X0307313Y0073461D01*
X0307950Y0071922D01*
X0309128Y0070744D01*
X0310667Y0070106D01*
X0317933Y0070106D01*
X0319472Y0070744D01*
X0319991Y0071262D01*
X0319991Y0033025D01*
X0319711Y0033228D01*
X0319066Y0033557D01*
X0318377Y0033780D01*
X0317662Y0033894D01*
X0314700Y0033894D01*
X0314700Y0029694D01*
X0313900Y0029694D01*
X0313900Y0033894D01*
X0310938Y0033894D01*
X0310223Y0033780D01*
X0309534Y0033557D01*
X0308889Y0033228D01*
X0308303Y0032802D01*
X0307791Y0032290D01*
X0307366Y0031705D01*
X0307037Y0031060D01*
X0306813Y0030371D01*
X0306706Y0029694D01*
X0313900Y0029694D01*
X0313900Y0028894D01*
X0306706Y0028894D01*
X0306813Y0028217D01*
X0307037Y0027528D01*
X0307366Y0026883D01*
X0307791Y0026297D01*
X0308303Y0025785D01*
X0308889Y0025359D01*
X0309534Y0025031D01*
X0310223Y0024807D01*
X0310938Y0024694D01*
X0313900Y0024694D01*
X0313900Y0028894D01*
X0314700Y0028894D01*
X0314700Y0024694D01*
X0317662Y0024694D01*
X0318377Y0024807D01*
X0319066Y0025031D01*
X0319711Y0025359D01*
X0319991Y0025563D01*
X0319991Y0022808D01*
X0319785Y0023013D01*
X0318173Y0023681D01*
X0310427Y0023681D01*
X0308815Y0023013D01*
X0308603Y0022801D01*
X0298787Y0032617D01*
X0298787Y0040306D01*
X0300193Y0040306D01*
X0301659Y0040913D01*
X0302780Y0042035D01*
X0303387Y0043501D01*
X0303387Y0045087D01*
X0302780Y0046552D01*
X0301659Y0047674D01*
X0300193Y0048281D01*
X0293407Y0048281D01*
X0291941Y0047674D01*
X0290820Y0046552D01*
X0290213Y0045087D01*
X0290213Y0043501D01*
X0290820Y0042035D01*
X0291941Y0040913D01*
X0293407Y0040306D01*
X0294813Y0040306D01*
X0294813Y0030971D01*
X0295977Y0029806D01*
X0306913Y0018871D01*
X0306913Y0018421D01*
X0307581Y0016809D01*
X0308815Y0015574D01*
X0310427Y0014906D01*
X0318173Y0014906D01*
X0319785Y0015574D01*
X0319991Y0015780D01*
X0319991Y0009194D01*
X0196800Y0009194D01*
X0196800Y0016194D01*
X0197400Y0016194D01*
X0197400Y0017394D01*
X0196800Y0017394D01*
X0196800Y0017580D02*
X0197400Y0017580D01*
X0197400Y0017394D02*
X0197400Y0022644D01*
X0199223Y0022644D01*
X0202650Y0019217D01*
X0202650Y0017394D01*
X0197400Y0017394D01*
X0197400Y0016382D02*
X0224665Y0016382D01*
X0224779Y0016269D02*
X0226090Y0015725D01*
X0227510Y0015725D01*
X0228821Y0016269D01*
X0229825Y0017272D01*
X0230368Y0018584D01*
X0230368Y0020004D01*
X0229825Y0021315D01*
X0228821Y0022319D01*
X0228787Y0022333D01*
X0228787Y0038471D01*
X0231586Y0041269D01*
X0231941Y0040913D01*
X0233407Y0040306D01*
X0240193Y0040306D01*
X0241659Y0040913D01*
X0242780Y0042035D01*
X0243387Y0043501D01*
X0243387Y0045087D01*
X0242780Y0046552D01*
X0242204Y0047129D01*
X0247089Y0047129D01*
X0246275Y0046315D01*
X0245731Y0045004D01*
X0245731Y0043584D01*
X0245746Y0043550D01*
X0240977Y0038781D01*
X0239813Y0037617D01*
X0239813Y0027333D01*
X0239779Y0027319D01*
X0238775Y0026315D01*
X0238231Y0025004D01*
X0238231Y0023584D01*
X0238775Y0022272D01*
X0239779Y0021269D01*
X0241090Y0020725D01*
X0242510Y0020725D01*
X0243821Y0021269D01*
X0244825Y0022272D01*
X0245368Y0023584D01*
X0245368Y0025004D01*
X0244825Y0026315D01*
X0243821Y0027319D01*
X0243787Y0027333D01*
X0243787Y0035971D01*
X0248556Y0040739D01*
X0248590Y0040725D01*
X0250010Y0040725D01*
X0251321Y0041269D01*
X0252325Y0042272D01*
X0252672Y0043111D01*
X0259813Y0035971D01*
X0260977Y0034806D01*
X0270977Y0034806D01*
X0273908Y0031875D01*
X0271163Y0029129D01*
X0271163Y0024459D01*
X0274465Y0021156D01*
X0279135Y0021156D01*
X0282437Y0024459D01*
X0282437Y0029129D01*
X0279135Y0032431D01*
X0278787Y0032431D01*
X0278787Y0055725D01*
X0280010Y0055725D01*
X0281321Y0056269D01*
X0282325Y0057272D01*
X0282868Y0058584D01*
X0282868Y0060004D01*
X0282325Y0061315D01*
X0281321Y0062319D01*
X0280010Y0062862D01*
X0278590Y0062862D01*
X0277279Y0062319D01*
X0276275Y0061315D01*
X0275731Y0060004D01*
X0275731Y0058584D01*
X0275746Y0058550D01*
X0274813Y0057617D01*
X0274813Y0036592D01*
X0272623Y0038781D01*
X0262623Y0038781D01*
X0256465Y0044940D01*
X0256465Y0046987D01*
X0253512Y0049940D01*
X0252348Y0051104D01*
X0241849Y0051104D01*
X0242780Y0052035D01*
X0243387Y0053501D01*
X0243387Y0055087D01*
X0242780Y0056552D01*
X0241659Y0057674D01*
X0240193Y0058281D01*
X0233407Y0058281D01*
X0231941Y0057674D01*
X0230820Y0056552D01*
X0230213Y0055087D01*
X0230213Y0053501D01*
X0230820Y0052035D01*
X0231751Y0051104D01*
X0223804Y0051104D01*
X0218627Y0056281D01*
X0212893Y0056281D01*
X0212780Y0056552D01*
X0211659Y0057674D01*
X0210193Y0058281D01*
X0203407Y0058281D01*
X0201941Y0057674D01*
X0200820Y0056552D01*
X0200213Y0055087D01*
X0200213Y0053501D01*
X0200820Y0052035D01*
X0201941Y0050913D01*
X0203407Y0050306D01*
X0210193Y0050306D01*
X0211659Y0050913D01*
X0212780Y0052035D01*
X0212893Y0052306D01*
X0216981Y0052306D01*
X0222158Y0047129D01*
X0231396Y0047129D01*
X0230820Y0046552D01*
X0230517Y0045821D01*
X0229813Y0045117D01*
X0225977Y0041281D01*
X0224813Y0040117D01*
X0224813Y0022333D01*
X0224779Y0022319D01*
X0223775Y0021315D01*
X0223231Y0020004D01*
X0223231Y0018584D01*
X0223775Y0017272D01*
X0224779Y0016269D01*
X0223647Y0017580D02*
X0202650Y0017580D01*
X0202650Y0018779D02*
X0223231Y0018779D01*
X0223231Y0019977D02*
X0201890Y0019977D01*
X0200691Y0021176D02*
X0223717Y0021176D01*
X0224813Y0022374D02*
X0199492Y0022374D01*
X0197400Y0022374D02*
X0196800Y0022374D01*
X0196800Y0021176D02*
X0197400Y0021176D01*
X0197400Y0019977D02*
X0196800Y0019977D01*
X0196800Y0018779D02*
X0197400Y0018779D01*
X0197400Y0016194D02*
X0202650Y0016194D01*
X0202650Y0014371D01*
X0199223Y0010944D01*
X0197400Y0010944D01*
X0197400Y0016194D01*
X0197400Y0015183D02*
X0196800Y0015183D01*
X0196800Y0013985D02*
X0197400Y0013985D01*
X0197400Y0012786D02*
X0196800Y0012786D01*
X0196800Y0011588D02*
X0197400Y0011588D01*
X0196800Y0010389D02*
X0319991Y0010389D01*
X0319991Y0011588D02*
X0199867Y0011588D01*
X0201066Y0012786D02*
X0319991Y0012786D01*
X0319991Y0013985D02*
X0202264Y0013985D01*
X0202650Y0015183D02*
X0309759Y0015183D01*
X0308007Y0016382D02*
X0228935Y0016382D01*
X0229953Y0017580D02*
X0307261Y0017580D01*
X0306913Y0018779D02*
X0230368Y0018779D01*
X0230368Y0019977D02*
X0305806Y0019977D01*
X0304607Y0021176D02*
X0279155Y0021176D01*
X0280353Y0022374D02*
X0303409Y0022374D01*
X0302210Y0023573D02*
X0281552Y0023573D01*
X0282437Y0024771D02*
X0301012Y0024771D01*
X0299813Y0025970D02*
X0282437Y0025970D01*
X0282437Y0027168D02*
X0298615Y0027168D01*
X0297416Y0028367D02*
X0282437Y0028367D01*
X0282001Y0029565D02*
X0296218Y0029565D01*
X0295019Y0030764D02*
X0280802Y0030764D01*
X0279604Y0031963D02*
X0294813Y0031963D01*
X0294813Y0033161D02*
X0278787Y0033161D01*
X0278787Y0034360D02*
X0294813Y0034360D01*
X0294813Y0035558D02*
X0278787Y0035558D01*
X0278787Y0036757D02*
X0294813Y0036757D01*
X0294813Y0037955D02*
X0278787Y0037955D01*
X0278787Y0039154D02*
X0294813Y0039154D01*
X0293296Y0040352D02*
X0278787Y0040352D01*
X0278787Y0041551D02*
X0291304Y0041551D01*
X0290524Y0042749D02*
X0278787Y0042749D01*
X0278787Y0043948D02*
X0290213Y0043948D01*
X0290237Y0045146D02*
X0278787Y0045146D01*
X0278787Y0046345D02*
X0290734Y0046345D01*
X0291810Y0047543D02*
X0278787Y0047543D01*
X0278787Y0048742D02*
X0319991Y0048742D01*
X0319991Y0049940D02*
X0278787Y0049940D01*
X0278787Y0051139D02*
X0291716Y0051139D01*
X0291941Y0050913D02*
X0293407Y0050306D01*
X0300193Y0050306D01*
X0301659Y0050913D01*
X0302780Y0052035D01*
X0303387Y0053501D01*
X0303387Y0055087D01*
X0302780Y0056552D01*
X0301659Y0057674D01*
X0300193Y0058281D01*
X0293407Y0058281D01*
X0291941Y0057674D01*
X0290820Y0056552D01*
X0290213Y0055087D01*
X0290213Y0053501D01*
X0290820Y0052035D01*
X0291941Y0050913D01*
X0290695Y0052337D02*
X0278787Y0052337D01*
X0278787Y0053536D02*
X0290213Y0053536D01*
X0290213Y0054734D02*
X0278787Y0054734D01*
X0280511Y0055933D02*
X0290563Y0055933D01*
X0291398Y0057131D02*
X0282184Y0057131D01*
X0282763Y0058330D02*
X0319991Y0058330D01*
X0319991Y0059528D02*
X0282868Y0059528D01*
X0282569Y0060727D02*
X0292392Y0060727D01*
X0291941Y0060913D02*
X0293407Y0060306D01*
X0300193Y0060306D01*
X0301659Y0060913D01*
X0302780Y0062035D01*
X0303387Y0063501D01*
X0303387Y0065087D01*
X0302780Y0066552D01*
X0301659Y0067674D01*
X0300193Y0068281D01*
X0293407Y0068281D01*
X0291941Y0067674D01*
X0290820Y0066552D01*
X0290213Y0065087D01*
X0290213Y0063501D01*
X0290820Y0062035D01*
X0291941Y0060913D01*
X0290929Y0061925D02*
X0281715Y0061925D01*
X0279300Y0059294D02*
X0276800Y0056794D01*
X0276800Y0031794D01*
X0276800Y0029294D01*
X0276800Y0026794D01*
X0271163Y0027168D02*
X0269937Y0027168D01*
X0269937Y0025970D02*
X0271163Y0025970D01*
X0271163Y0024771D02*
X0269937Y0024771D01*
X0269937Y0024459D02*
X0266635Y0021156D01*
X0261965Y0021156D01*
X0258663Y0024459D01*
X0258663Y0029129D01*
X0261965Y0032431D01*
X0266635Y0032431D01*
X0269937Y0029129D01*
X0269937Y0024459D01*
X0269052Y0023573D02*
X0272048Y0023573D01*
X0273247Y0022374D02*
X0267853Y0022374D01*
X0266655Y0021176D02*
X0274445Y0021176D01*
X0271163Y0028367D02*
X0269937Y0028367D01*
X0269501Y0029565D02*
X0271599Y0029565D01*
X0272798Y0030764D02*
X0268302Y0030764D01*
X0267104Y0031963D02*
X0273821Y0031963D01*
X0272622Y0033161D02*
X0243787Y0033161D01*
X0243787Y0031963D02*
X0261496Y0031963D01*
X0260298Y0030764D02*
X0243787Y0030764D01*
X0243787Y0029565D02*
X0259099Y0029565D01*
X0258663Y0028367D02*
X0243787Y0028367D01*
X0243972Y0027168D02*
X0258663Y0027168D01*
X0258663Y0025970D02*
X0244968Y0025970D01*
X0245368Y0024771D02*
X0258663Y0024771D01*
X0259548Y0023573D02*
X0245364Y0023573D01*
X0244867Y0022374D02*
X0260747Y0022374D01*
X0261945Y0021176D02*
X0243598Y0021176D01*
X0240002Y0021176D02*
X0229883Y0021176D01*
X0228787Y0022374D02*
X0238732Y0022374D01*
X0238236Y0023573D02*
X0228787Y0023573D01*
X0228787Y0024771D02*
X0238231Y0024771D01*
X0238632Y0025970D02*
X0228787Y0025970D01*
X0228787Y0027168D02*
X0239628Y0027168D01*
X0239813Y0028367D02*
X0228787Y0028367D01*
X0228787Y0029565D02*
X0239813Y0029565D01*
X0239813Y0030764D02*
X0228787Y0030764D01*
X0228787Y0031963D02*
X0239813Y0031963D01*
X0239813Y0033161D02*
X0228787Y0033161D01*
X0228787Y0034360D02*
X0239813Y0034360D01*
X0239813Y0035558D02*
X0228787Y0035558D01*
X0228787Y0036757D02*
X0239813Y0036757D01*
X0240151Y0037955D02*
X0228787Y0037955D01*
X0229470Y0039154D02*
X0241349Y0039154D01*
X0240304Y0040352D02*
X0242548Y0040352D01*
X0242296Y0041551D02*
X0243746Y0041551D01*
X0243076Y0042749D02*
X0244945Y0042749D01*
X0245731Y0043948D02*
X0243387Y0043948D01*
X0243363Y0045146D02*
X0245791Y0045146D01*
X0246304Y0046345D02*
X0242866Y0046345D01*
X0236800Y0044294D02*
X0231800Y0044294D01*
X0226800Y0039294D01*
X0226800Y0019294D01*
X0224813Y0023573D02*
X0196800Y0023573D01*
X0196800Y0024771D02*
X0224813Y0024771D01*
X0224813Y0025970D02*
X0196800Y0025970D01*
X0196800Y0027168D02*
X0224813Y0027168D01*
X0224813Y0028367D02*
X0196800Y0028367D01*
X0196800Y0029565D02*
X0224813Y0029565D01*
X0224813Y0030764D02*
X0196800Y0030764D01*
X0196800Y0031963D02*
X0224813Y0031963D01*
X0224813Y0033161D02*
X0196800Y0033161D01*
X0196800Y0034360D02*
X0224813Y0034360D01*
X0224813Y0035558D02*
X0196800Y0035558D01*
X0196800Y0036757D02*
X0224813Y0036757D01*
X0224813Y0037955D02*
X0196800Y0037955D01*
X0196800Y0039154D02*
X0224813Y0039154D01*
X0225048Y0040352D02*
X0210304Y0040352D01*
X0210193Y0040306D02*
X0211659Y0040913D01*
X0212780Y0042035D01*
X0213387Y0043501D01*
X0213387Y0045087D01*
X0212780Y0046552D01*
X0211659Y0047674D01*
X0210193Y0048281D01*
X0203407Y0048281D01*
X0201941Y0047674D01*
X0200820Y0046552D01*
X0200213Y0045087D01*
X0200213Y0043501D01*
X0200820Y0042035D01*
X0201941Y0040913D01*
X0203407Y0040306D01*
X0210193Y0040306D01*
X0212296Y0041551D02*
X0226246Y0041551D01*
X0227445Y0042749D02*
X0213076Y0042749D01*
X0213387Y0043948D02*
X0228643Y0043948D01*
X0229842Y0045146D02*
X0213363Y0045146D01*
X0212866Y0046345D02*
X0230734Y0046345D01*
X0231716Y0051139D02*
X0223770Y0051139D01*
X0222571Y0052337D02*
X0230695Y0052337D01*
X0230213Y0053536D02*
X0221373Y0053536D01*
X0220174Y0054734D02*
X0230213Y0054734D01*
X0230563Y0055933D02*
X0218976Y0055933D01*
X0217804Y0054294D02*
X0222981Y0049117D01*
X0251524Y0049117D01*
X0254477Y0046164D01*
X0254477Y0044117D01*
X0261800Y0036794D01*
X0271800Y0036794D01*
X0276800Y0031794D01*
X0271424Y0034360D02*
X0243787Y0034360D01*
X0243787Y0035558D02*
X0260225Y0035558D01*
X0259027Y0036757D02*
X0244573Y0036757D01*
X0245772Y0037955D02*
X0257828Y0037955D01*
X0256630Y0039154D02*
X0246970Y0039154D01*
X0248169Y0040352D02*
X0255431Y0040352D01*
X0254233Y0041551D02*
X0251603Y0041551D01*
X0252523Y0042749D02*
X0253034Y0042749D01*
X0249300Y0044294D02*
X0241800Y0036794D01*
X0241800Y0024294D01*
X0219300Y0034294D02*
X0216800Y0034294D01*
X0203296Y0040352D02*
X0196800Y0040352D01*
X0196800Y0041551D02*
X0201304Y0041551D01*
X0200524Y0042749D02*
X0196800Y0042749D01*
X0196800Y0043948D02*
X0200213Y0043948D01*
X0200237Y0045146D02*
X0196800Y0045146D01*
X0196800Y0046345D02*
X0200734Y0046345D01*
X0201810Y0047543D02*
X0196800Y0047543D01*
X0196800Y0048742D02*
X0220545Y0048742D01*
X0219347Y0049940D02*
X0196800Y0049940D01*
X0196800Y0051139D02*
X0201716Y0051139D01*
X0200695Y0052337D02*
X0196800Y0052337D01*
X0196800Y0053536D02*
X0200213Y0053536D01*
X0200213Y0054734D02*
X0196800Y0054734D01*
X0196800Y0055933D02*
X0200563Y0055933D01*
X0201398Y0057131D02*
X0196800Y0057131D01*
X0196800Y0058330D02*
X0275525Y0058330D01*
X0275731Y0059528D02*
X0196800Y0059528D01*
X0196800Y0060727D02*
X0202392Y0060727D01*
X0201941Y0060913D02*
X0203407Y0060306D01*
X0210193Y0060306D01*
X0211659Y0060913D01*
X0212780Y0062035D01*
X0213387Y0063501D01*
X0213387Y0065087D01*
X0212780Y0066552D01*
X0211659Y0067674D01*
X0210193Y0068281D01*
X0203407Y0068281D01*
X0201941Y0067674D01*
X0200820Y0066552D01*
X0200213Y0065087D01*
X0200213Y0063501D01*
X0200820Y0062035D01*
X0201941Y0060913D01*
X0200929Y0061925D02*
X0196800Y0061925D01*
X0196800Y0063124D02*
X0200369Y0063124D01*
X0200213Y0064322D02*
X0196800Y0064322D01*
X0196800Y0065521D02*
X0200392Y0065521D01*
X0200987Y0066719D02*
X0196800Y0066719D01*
X0196800Y0067918D02*
X0202530Y0067918D01*
X0203407Y0070306D02*
X0201941Y0070913D01*
X0200820Y0072035D01*
X0200213Y0073501D01*
X0200213Y0075087D01*
X0200820Y0076552D01*
X0201941Y0077674D01*
X0203407Y0078281D01*
X0210193Y0078281D01*
X0211659Y0077674D01*
X0212780Y0076552D01*
X0213387Y0075087D01*
X0213387Y0073501D01*
X0212780Y0072035D01*
X0211659Y0070913D01*
X0210193Y0070306D01*
X0203407Y0070306D01*
X0203386Y0070315D02*
X0196800Y0070315D01*
X0196800Y0071513D02*
X0201341Y0071513D01*
X0200539Y0072712D02*
X0196800Y0072712D01*
X0196800Y0073910D02*
X0200213Y0073910D01*
X0200222Y0075109D02*
X0196800Y0075109D01*
X0196800Y0076307D02*
X0200718Y0076307D01*
X0201773Y0077506D02*
X0196800Y0077506D01*
X0196800Y0078704D02*
X0319991Y0078704D01*
X0319991Y0077506D02*
X0319810Y0077506D01*
X0319991Y0079903D02*
X0196800Y0079903D01*
X0196800Y0081101D02*
X0308770Y0081101D01*
X0307793Y0082300D02*
X0196800Y0082300D01*
X0196800Y0083498D02*
X0307313Y0083498D01*
X0307313Y0084697D02*
X0196800Y0084697D01*
X0196800Y0085896D02*
X0307631Y0085896D01*
X0308378Y0087094D02*
X0196800Y0087094D01*
X0196800Y0088293D02*
X0310212Y0088293D01*
X0311093Y0092479D02*
X0314520Y0095906D01*
X0314520Y0097729D01*
X0309270Y0097729D01*
X0309270Y0092479D01*
X0311093Y0092479D01*
X0311701Y0093087D02*
X0319991Y0093087D01*
X0319991Y0094285D02*
X0312899Y0094285D01*
X0314098Y0095484D02*
X0319991Y0095484D01*
X0319991Y0096682D02*
X0314520Y0096682D01*
X0314520Y0098929D02*
X0309270Y0098929D01*
X0309270Y0097729D01*
X0308070Y0097729D01*
X0308070Y0092479D01*
X0306247Y0092479D01*
X0302820Y0095906D01*
X0302820Y0097729D01*
X0308070Y0097729D01*
X0308070Y0098929D01*
X0302820Y0098929D01*
X0302820Y0100752D01*
X0306247Y0104179D01*
X0308070Y0104179D01*
X0308070Y0098929D01*
X0309270Y0098929D01*
X0309270Y0104179D01*
X0311093Y0104179D01*
X0314520Y0100752D01*
X0314520Y0098929D01*
X0314520Y0099079D02*
X0319991Y0099079D01*
X0319991Y0097881D02*
X0309270Y0097881D01*
X0309270Y0099079D02*
X0308070Y0099079D01*
X0308070Y0097881D02*
X0245787Y0097881D01*
X0245787Y0099079D02*
X0302820Y0099079D01*
X0302820Y0100278D02*
X0245750Y0100278D01*
X0245787Y0100187D02*
X0245180Y0101652D01*
X0244059Y0102774D01*
X0242593Y0103381D01*
X0241007Y0103381D01*
X0239541Y0102774D01*
X0238420Y0101652D01*
X0237813Y0100187D01*
X0237813Y0093401D01*
X0238420Y0091935D01*
X0239541Y0090813D01*
X0241007Y0090206D01*
X0242593Y0090206D01*
X0244059Y0090813D01*
X0245180Y0091935D01*
X0245787Y0093401D01*
X0245787Y0100187D01*
X0245253Y0101476D02*
X0303544Y0101476D01*
X0304742Y0102675D02*
X0244158Y0102675D01*
X0239442Y0102675D02*
X0234158Y0102675D01*
X0234059Y0102774D02*
X0232593Y0103381D01*
X0231007Y0103381D01*
X0229541Y0102774D01*
X0228420Y0101652D01*
X0227813Y0100187D01*
X0227813Y0093401D01*
X0228420Y0091935D01*
X0229541Y0090813D01*
X0231007Y0090206D01*
X0232593Y0090206D01*
X0234059Y0090813D01*
X0235180Y0091935D01*
X0235787Y0093401D01*
X0235787Y0100187D01*
X0235180Y0101652D01*
X0234059Y0102774D01*
X0235253Y0101476D02*
X0238347Y0101476D01*
X0237850Y0100278D02*
X0235750Y0100278D01*
X0235787Y0099079D02*
X0237813Y0099079D01*
X0237813Y0097881D02*
X0235787Y0097881D01*
X0235787Y0096682D02*
X0237813Y0096682D01*
X0237813Y0095484D02*
X0235787Y0095484D01*
X0235787Y0094285D02*
X0237813Y0094285D01*
X0237943Y0093087D02*
X0235657Y0093087D01*
X0235133Y0091888D02*
X0238467Y0091888D01*
X0239840Y0090690D02*
X0233760Y0090690D01*
X0229840Y0090690D02*
X0223760Y0090690D01*
X0224059Y0090813D02*
X0225180Y0091935D01*
X0225787Y0093401D01*
X0225787Y0100187D01*
X0225180Y0101652D01*
X0224059Y0102774D01*
X0222593Y0103381D01*
X0221007Y0103381D01*
X0219541Y0102774D01*
X0218420Y0101652D01*
X0217813Y0100187D01*
X0217813Y0093401D01*
X0218420Y0091935D01*
X0219541Y0090813D01*
X0221007Y0090206D01*
X0222593Y0090206D01*
X0224059Y0090813D01*
X0225133Y0091888D02*
X0228467Y0091888D01*
X0227943Y0093087D02*
X0225657Y0093087D01*
X0225787Y0094285D02*
X0227813Y0094285D01*
X0227813Y0095484D02*
X0225787Y0095484D01*
X0225787Y0096682D02*
X0227813Y0096682D01*
X0227813Y0097881D02*
X0225787Y0097881D01*
X0225787Y0099079D02*
X0227813Y0099079D01*
X0227850Y0100278D02*
X0225750Y0100278D01*
X0225253Y0101476D02*
X0228347Y0101476D01*
X0229442Y0102675D02*
X0224158Y0102675D01*
X0219442Y0102675D02*
X0214158Y0102675D01*
X0214059Y0102774D02*
X0212593Y0103381D01*
X0211007Y0103381D01*
X0209541Y0102774D01*
X0208420Y0101652D01*
X0207813Y0100187D01*
X0207813Y0093401D01*
X0208420Y0091935D01*
X0209541Y0090813D01*
X0211007Y0090206D01*
X0212593Y0090206D01*
X0214059Y0090813D01*
X0215180Y0091935D01*
X0215787Y0093401D01*
X0215787Y0100187D01*
X0215180Y0101652D01*
X0214059Y0102774D01*
X0215253Y0101476D02*
X0218347Y0101476D01*
X0217850Y0100278D02*
X0215750Y0100278D01*
X0215787Y0099079D02*
X0217813Y0099079D01*
X0217813Y0097881D02*
X0215787Y0097881D01*
X0215787Y0096682D02*
X0217813Y0096682D01*
X0217813Y0095484D02*
X0215787Y0095484D01*
X0215787Y0094285D02*
X0217813Y0094285D01*
X0217943Y0093087D02*
X0215657Y0093087D01*
X0215133Y0091888D02*
X0218467Y0091888D01*
X0219840Y0090690D02*
X0213760Y0090690D01*
X0209840Y0090690D02*
X0196800Y0090690D01*
X0196800Y0091888D02*
X0208467Y0091888D01*
X0207943Y0093087D02*
X0196800Y0093087D01*
X0196800Y0094285D02*
X0207813Y0094285D01*
X0207813Y0095484D02*
X0196800Y0095484D01*
X0196800Y0096682D02*
X0207813Y0096682D01*
X0207813Y0097881D02*
X0196800Y0097881D01*
X0196800Y0099079D02*
X0207813Y0099079D01*
X0207850Y0100278D02*
X0196800Y0100278D01*
X0196800Y0101476D02*
X0208347Y0101476D01*
X0209442Y0102675D02*
X0196800Y0102675D01*
X0196800Y0103873D02*
X0305941Y0103873D01*
X0308070Y0103873D02*
X0309270Y0103873D01*
X0309270Y0102675D02*
X0308070Y0102675D01*
X0308070Y0101476D02*
X0309270Y0101476D01*
X0309270Y0100278D02*
X0308070Y0100278D01*
X0312598Y0102675D02*
X0319991Y0102675D01*
X0319991Y0103873D02*
X0311399Y0103873D01*
X0313796Y0101476D02*
X0319991Y0101476D01*
X0319991Y0100278D02*
X0314520Y0100278D01*
X0309270Y0096682D02*
X0308070Y0096682D01*
X0308070Y0095484D02*
X0309270Y0095484D01*
X0309270Y0094285D02*
X0308070Y0094285D01*
X0308070Y0093087D02*
X0309270Y0093087D01*
X0305640Y0093087D02*
X0245657Y0093087D01*
X0245787Y0094285D02*
X0304441Y0094285D01*
X0303243Y0095484D02*
X0245787Y0095484D01*
X0245787Y0096682D02*
X0302820Y0096682D01*
X0318388Y0088293D02*
X0319991Y0088293D01*
X0319991Y0089491D02*
X0196800Y0089491D01*
X0199300Y0086794D02*
X0199300Y0081794D01*
X0211827Y0077506D02*
X0231773Y0077506D01*
X0231941Y0077674D02*
X0230820Y0076552D01*
X0230213Y0075087D01*
X0230213Y0073501D01*
X0230820Y0072035D01*
X0231941Y0070913D01*
X0233407Y0070306D01*
X0240193Y0070306D01*
X0241659Y0070913D01*
X0242780Y0072035D01*
X0243387Y0073501D01*
X0243387Y0075087D01*
X0242780Y0076552D01*
X0241659Y0077674D01*
X0240193Y0078281D01*
X0233407Y0078281D01*
X0231941Y0077674D01*
X0230718Y0076307D02*
X0212882Y0076307D01*
X0213378Y0075109D02*
X0230222Y0075109D01*
X0230213Y0073910D02*
X0213387Y0073910D01*
X0213061Y0072712D02*
X0230539Y0072712D01*
X0231341Y0071513D02*
X0212259Y0071513D01*
X0210214Y0070315D02*
X0233386Y0070315D01*
X0233407Y0068281D02*
X0231941Y0067674D01*
X0230820Y0066552D01*
X0230213Y0065087D01*
X0230213Y0063501D01*
X0230820Y0062035D01*
X0231941Y0060913D01*
X0233407Y0060306D01*
X0240193Y0060306D01*
X0241659Y0060913D01*
X0242780Y0062035D01*
X0243387Y0063501D01*
X0243387Y0065087D01*
X0242780Y0066552D01*
X0241659Y0067674D01*
X0240193Y0068281D01*
X0233407Y0068281D01*
X0232530Y0067918D02*
X0211070Y0067918D01*
X0212613Y0066719D02*
X0230987Y0066719D01*
X0230392Y0065521D02*
X0213208Y0065521D01*
X0213387Y0064322D02*
X0230213Y0064322D01*
X0230369Y0063124D02*
X0213231Y0063124D01*
X0212671Y0061925D02*
X0230929Y0061925D01*
X0232392Y0060727D02*
X0211208Y0060727D01*
X0212202Y0057131D02*
X0231398Y0057131D01*
X0221800Y0056794D02*
X0221800Y0059294D01*
X0217804Y0054294D02*
X0206800Y0054294D01*
X0211884Y0051139D02*
X0218148Y0051139D01*
X0221744Y0047543D02*
X0211790Y0047543D01*
X0230669Y0040352D02*
X0233296Y0040352D01*
X0241884Y0051139D02*
X0261716Y0051139D01*
X0261941Y0050913D02*
X0263407Y0050306D01*
X0270193Y0050306D01*
X0271659Y0050913D01*
X0272780Y0052035D01*
X0273387Y0053501D01*
X0273387Y0055087D01*
X0272780Y0056552D01*
X0271659Y0057674D01*
X0270193Y0058281D01*
X0263407Y0058281D01*
X0261941Y0057674D01*
X0260820Y0056552D01*
X0260213Y0055087D01*
X0260213Y0053501D01*
X0260820Y0052035D01*
X0261941Y0050913D01*
X0260695Y0052337D02*
X0242905Y0052337D01*
X0243387Y0053536D02*
X0260213Y0053536D01*
X0260213Y0054734D02*
X0243387Y0054734D01*
X0243037Y0055933D02*
X0260563Y0055933D01*
X0261398Y0057131D02*
X0242202Y0057131D01*
X0241208Y0060727D02*
X0262392Y0060727D01*
X0261941Y0060913D02*
X0263407Y0060306D01*
X0270193Y0060306D01*
X0271659Y0060913D01*
X0272780Y0062035D01*
X0273387Y0063501D01*
X0273387Y0065087D01*
X0272780Y0066552D01*
X0271659Y0067674D01*
X0270193Y0068281D01*
X0263407Y0068281D01*
X0261941Y0067674D01*
X0260820Y0066552D01*
X0260213Y0065087D01*
X0260213Y0063501D01*
X0260820Y0062035D01*
X0261941Y0060913D01*
X0260929Y0061925D02*
X0242671Y0061925D01*
X0243231Y0063124D02*
X0260369Y0063124D01*
X0260213Y0064322D02*
X0243387Y0064322D01*
X0243208Y0065521D02*
X0260392Y0065521D01*
X0260987Y0066719D02*
X0242613Y0066719D01*
X0241070Y0067918D02*
X0262530Y0067918D01*
X0263407Y0070306D02*
X0261941Y0070913D01*
X0260820Y0072035D01*
X0260213Y0073501D01*
X0260213Y0075087D01*
X0260820Y0076552D01*
X0261941Y0077674D01*
X0263407Y0078281D01*
X0270193Y0078281D01*
X0271659Y0077674D01*
X0272780Y0076552D01*
X0273387Y0075087D01*
X0273387Y0073501D01*
X0272780Y0072035D01*
X0271659Y0070913D01*
X0270193Y0070306D01*
X0263407Y0070306D01*
X0263386Y0070315D02*
X0240214Y0070315D01*
X0242259Y0071513D02*
X0261341Y0071513D01*
X0260539Y0072712D02*
X0243061Y0072712D01*
X0243387Y0073910D02*
X0260213Y0073910D01*
X0260222Y0075109D02*
X0243378Y0075109D01*
X0242882Y0076307D02*
X0260718Y0076307D01*
X0261773Y0077506D02*
X0241827Y0077506D01*
X0249300Y0081794D02*
X0251800Y0069294D01*
X0270214Y0070315D02*
X0293386Y0070315D01*
X0293407Y0070306D02*
X0291941Y0070913D01*
X0290820Y0072035D01*
X0290213Y0073501D01*
X0290213Y0075087D01*
X0290820Y0076552D01*
X0291941Y0077674D01*
X0293407Y0078281D01*
X0300193Y0078281D01*
X0301659Y0077674D01*
X0302780Y0076552D01*
X0303387Y0075087D01*
X0303387Y0073501D01*
X0302780Y0072035D01*
X0301659Y0070913D01*
X0300193Y0070306D01*
X0293407Y0070306D01*
X0291341Y0071513D02*
X0272259Y0071513D01*
X0273061Y0072712D02*
X0290539Y0072712D01*
X0290213Y0073910D02*
X0273387Y0073910D01*
X0273378Y0075109D02*
X0290222Y0075109D01*
X0290718Y0076307D02*
X0272882Y0076307D01*
X0271827Y0077506D02*
X0291773Y0077506D01*
X0301827Y0077506D02*
X0308790Y0077506D01*
X0307802Y0076307D02*
X0302882Y0076307D01*
X0303378Y0075109D02*
X0307313Y0075109D01*
X0307313Y0073910D02*
X0303387Y0073910D01*
X0303061Y0072712D02*
X0307623Y0072712D01*
X0308359Y0071513D02*
X0302259Y0071513D01*
X0300214Y0070315D02*
X0310164Y0070315D01*
X0302613Y0066719D02*
X0319991Y0066719D01*
X0319991Y0065521D02*
X0303208Y0065521D01*
X0303387Y0064322D02*
X0319991Y0064322D01*
X0319991Y0063124D02*
X0303231Y0063124D01*
X0302671Y0061925D02*
X0319991Y0061925D01*
X0319991Y0060727D02*
X0301208Y0060727D01*
X0302202Y0057131D02*
X0319991Y0057131D01*
X0319991Y0055933D02*
X0303037Y0055933D01*
X0303387Y0054734D02*
X0319991Y0054734D01*
X0319991Y0053536D02*
X0303387Y0053536D01*
X0302905Y0052337D02*
X0319991Y0052337D01*
X0319991Y0051139D02*
X0301884Y0051139D01*
X0301790Y0047543D02*
X0319991Y0047543D01*
X0319991Y0046345D02*
X0302866Y0046345D01*
X0303363Y0045146D02*
X0319991Y0045146D01*
X0319991Y0043948D02*
X0303387Y0043948D01*
X0303076Y0042749D02*
X0319991Y0042749D01*
X0319991Y0041551D02*
X0302296Y0041551D01*
X0300304Y0040352D02*
X0319991Y0040352D01*
X0319991Y0039154D02*
X0298787Y0039154D01*
X0298787Y0037955D02*
X0319991Y0037955D01*
X0319991Y0036757D02*
X0298787Y0036757D01*
X0298787Y0035558D02*
X0319991Y0035558D01*
X0319991Y0034360D02*
X0298787Y0034360D01*
X0298787Y0033161D02*
X0308797Y0033161D01*
X0307553Y0031963D02*
X0299442Y0031963D01*
X0300640Y0030764D02*
X0306941Y0030764D01*
X0301839Y0029565D02*
X0313900Y0029565D01*
X0313900Y0028367D02*
X0314700Y0028367D01*
X0314700Y0027168D02*
X0313900Y0027168D01*
X0313900Y0025970D02*
X0314700Y0025970D01*
X0314700Y0024771D02*
X0313900Y0024771D01*
X0310448Y0024771D02*
X0306633Y0024771D01*
X0307831Y0023573D02*
X0310166Y0023573D01*
X0308118Y0025970D02*
X0305434Y0025970D01*
X0304236Y0027168D02*
X0307220Y0027168D01*
X0306789Y0028367D02*
X0303037Y0028367D01*
X0296800Y0031794D02*
X0296800Y0044294D01*
X0313900Y0033161D02*
X0314700Y0033161D01*
X0314700Y0031963D02*
X0313900Y0031963D01*
X0313900Y0030764D02*
X0314700Y0030764D01*
X0319803Y0033161D02*
X0319991Y0033161D01*
X0319991Y0024771D02*
X0318152Y0024771D01*
X0318434Y0023573D02*
X0319991Y0023573D01*
X0314300Y0019294D02*
X0309300Y0019294D01*
X0296800Y0031794D01*
X0287942Y0023979D02*
X0287942Y0023526D01*
X0274813Y0036757D02*
X0274648Y0036757D01*
X0274813Y0037955D02*
X0273449Y0037955D01*
X0274813Y0039154D02*
X0262251Y0039154D01*
X0263296Y0040352D02*
X0261052Y0040352D01*
X0261941Y0040913D02*
X0263407Y0040306D01*
X0270193Y0040306D01*
X0271659Y0040913D01*
X0272780Y0042035D01*
X0273387Y0043501D01*
X0273387Y0045087D01*
X0272780Y0046552D01*
X0271659Y0047674D01*
X0270193Y0048281D01*
X0263407Y0048281D01*
X0261941Y0047674D01*
X0260820Y0046552D01*
X0260213Y0045087D01*
X0260213Y0043501D01*
X0260820Y0042035D01*
X0261941Y0040913D01*
X0261304Y0041551D02*
X0259854Y0041551D01*
X0260524Y0042749D02*
X0258655Y0042749D01*
X0257457Y0043948D02*
X0260213Y0043948D01*
X0260237Y0045146D02*
X0256465Y0045146D01*
X0256465Y0046345D02*
X0260734Y0046345D01*
X0261810Y0047543D02*
X0255908Y0047543D01*
X0254710Y0048742D02*
X0274813Y0048742D01*
X0274813Y0049940D02*
X0253511Y0049940D01*
X0271884Y0051139D02*
X0274813Y0051139D01*
X0274813Y0052337D02*
X0272905Y0052337D01*
X0273387Y0053536D02*
X0274813Y0053536D01*
X0274813Y0054734D02*
X0273387Y0054734D01*
X0273037Y0055933D02*
X0274813Y0055933D01*
X0274813Y0057131D02*
X0272202Y0057131D01*
X0271208Y0060727D02*
X0276031Y0060727D01*
X0276885Y0061925D02*
X0272671Y0061925D01*
X0273231Y0063124D02*
X0290369Y0063124D01*
X0290213Y0064322D02*
X0273387Y0064322D01*
X0273208Y0065521D02*
X0290392Y0065521D01*
X0290987Y0066719D02*
X0272613Y0066719D01*
X0271070Y0067918D02*
X0292530Y0067918D01*
X0301070Y0067918D02*
X0319991Y0067918D01*
X0319991Y0069116D02*
X0196800Y0069116D01*
X0224300Y0084294D02*
X0231800Y0084294D01*
X0243760Y0090690D02*
X0319991Y0090690D01*
X0319991Y0091888D02*
X0245133Y0091888D01*
X0249776Y0106906D02*
X0253824Y0106906D01*
X0256687Y0109769D01*
X0256687Y0113818D01*
X0253824Y0116681D01*
X0249776Y0116681D01*
X0246913Y0113818D01*
X0246913Y0109769D01*
X0249776Y0106906D01*
X0249213Y0107469D02*
X0196800Y0107469D01*
X0196800Y0108667D02*
X0248015Y0108667D01*
X0246913Y0109866D02*
X0196800Y0109866D01*
X0196800Y0111064D02*
X0246913Y0111064D01*
X0246913Y0112263D02*
X0196800Y0112263D01*
X0196800Y0113461D02*
X0246913Y0113461D01*
X0247754Y0114660D02*
X0196800Y0114660D01*
X0196800Y0115858D02*
X0248953Y0115858D01*
X0254647Y0115858D02*
X0302892Y0115858D01*
X0302678Y0115645D02*
X0302678Y0110974D01*
X0305981Y0107672D01*
X0310651Y0107672D01*
X0313953Y0110974D01*
X0313953Y0115645D01*
X0310651Y0118947D01*
X0305981Y0118947D01*
X0302678Y0115645D01*
X0302678Y0114660D02*
X0255846Y0114660D01*
X0256687Y0113461D02*
X0302678Y0113461D01*
X0302678Y0112263D02*
X0256687Y0112263D01*
X0256687Y0111064D02*
X0302678Y0111064D01*
X0303787Y0109866D02*
X0256687Y0109866D01*
X0255585Y0108667D02*
X0304986Y0108667D01*
X0311646Y0108667D02*
X0319991Y0108667D01*
X0319991Y0107469D02*
X0254387Y0107469D01*
X0244059Y0120813D02*
X0242593Y0120206D01*
X0241007Y0120206D01*
X0239541Y0120813D01*
X0238420Y0121935D01*
X0237813Y0123401D01*
X0237813Y0130187D01*
X0238420Y0131652D01*
X0239541Y0132774D01*
X0241007Y0133381D01*
X0242593Y0133381D01*
X0244059Y0132774D01*
X0245180Y0131652D01*
X0245787Y0130187D01*
X0245787Y0123401D01*
X0245180Y0121935D01*
X0244059Y0120813D01*
X0243670Y0120652D02*
X0286913Y0120652D01*
X0286913Y0119769D02*
X0289776Y0116906D01*
X0293824Y0116906D01*
X0296687Y0119769D01*
X0296687Y0123818D01*
X0293824Y0126681D01*
X0289776Y0126681D01*
X0286913Y0123818D01*
X0286913Y0119769D01*
X0287228Y0119454D02*
X0196800Y0119454D01*
X0196800Y0120652D02*
X0209930Y0120652D01*
X0209541Y0120813D02*
X0211007Y0120206D01*
X0212593Y0120206D01*
X0214059Y0120813D01*
X0215180Y0121935D01*
X0215787Y0123401D01*
X0215787Y0130187D01*
X0215180Y0131652D01*
X0214059Y0132774D01*
X0212593Y0133381D01*
X0211007Y0133381D01*
X0209541Y0132774D01*
X0208420Y0131652D01*
X0207813Y0130187D01*
X0207813Y0123401D01*
X0208420Y0121935D01*
X0209541Y0120813D01*
X0208504Y0121851D02*
X0196800Y0121851D01*
X0196800Y0123049D02*
X0207958Y0123049D01*
X0207813Y0124248D02*
X0196800Y0124248D01*
X0196800Y0125446D02*
X0207813Y0125446D01*
X0207813Y0126645D02*
X0196800Y0126645D01*
X0196800Y0127843D02*
X0207813Y0127843D01*
X0207813Y0129042D02*
X0196800Y0129042D01*
X0196800Y0130240D02*
X0207835Y0130240D01*
X0208331Y0131439D02*
X0199718Y0131439D01*
X0199223Y0130944D02*
X0197400Y0130944D01*
X0197400Y0136194D01*
X0202650Y0136194D01*
X0202650Y0134371D01*
X0199223Y0130944D01*
X0197400Y0131439D02*
X0196800Y0131439D01*
X0196800Y0132637D02*
X0197400Y0132637D01*
X0197400Y0133836D02*
X0196800Y0133836D01*
X0196800Y0135034D02*
X0197400Y0135034D01*
X0197400Y0136233D02*
X0249327Y0136233D01*
X0249776Y0136681D02*
X0246913Y0133818D01*
X0246913Y0129769D01*
X0249776Y0126906D01*
X0253824Y0126906D01*
X0256687Y0129769D01*
X0256687Y0133818D01*
X0253824Y0136681D01*
X0249776Y0136681D01*
X0248129Y0135034D02*
X0202650Y0135034D01*
X0202115Y0133836D02*
X0246930Y0133836D01*
X0246913Y0132637D02*
X0244195Y0132637D01*
X0245269Y0131439D02*
X0246913Y0131439D01*
X0246913Y0130240D02*
X0245765Y0130240D01*
X0245787Y0129042D02*
X0247640Y0129042D01*
X0248839Y0127843D02*
X0245787Y0127843D01*
X0245787Y0126645D02*
X0289739Y0126645D01*
X0288541Y0125446D02*
X0245787Y0125446D01*
X0245787Y0124248D02*
X0287342Y0124248D01*
X0286913Y0123049D02*
X0245642Y0123049D01*
X0245096Y0121851D02*
X0286913Y0121851D01*
X0288427Y0118255D02*
X0196800Y0118255D01*
X0196800Y0117057D02*
X0289625Y0117057D01*
X0293975Y0117057D02*
X0304091Y0117057D01*
X0305289Y0118255D02*
X0295173Y0118255D01*
X0296372Y0119454D02*
X0319991Y0119454D01*
X0319991Y0120652D02*
X0296687Y0120652D01*
X0296687Y0121851D02*
X0319991Y0121851D01*
X0319972Y0123049D02*
X0319991Y0123049D01*
X0319991Y0118255D02*
X0311342Y0118255D01*
X0312541Y0117057D02*
X0319991Y0117057D01*
X0319991Y0115858D02*
X0313739Y0115858D01*
X0313953Y0114660D02*
X0319991Y0114660D01*
X0319991Y0113461D02*
X0313953Y0113461D01*
X0313953Y0112263D02*
X0319991Y0112263D01*
X0319991Y0111064D02*
X0313953Y0111064D01*
X0312844Y0109866D02*
X0319991Y0109866D01*
X0319991Y0106270D02*
X0196800Y0106270D01*
X0196800Y0105072D02*
X0319991Y0105072D01*
X0314700Y0123049D02*
X0313900Y0123049D01*
X0313900Y0124248D02*
X0314700Y0124248D01*
X0314700Y0125446D02*
X0313900Y0125446D01*
X0313900Y0126645D02*
X0293861Y0126645D01*
X0295059Y0125446D02*
X0306901Y0125446D01*
X0307464Y0124248D02*
X0296258Y0124248D01*
X0296687Y0123049D02*
X0308628Y0123049D01*
X0306809Y0127843D02*
X0254761Y0127843D01*
X0255960Y0129042D02*
X0307283Y0129042D01*
X0308241Y0130240D02*
X0256687Y0130240D01*
X0256687Y0131439D02*
X0319991Y0131439D01*
X0319991Y0132637D02*
X0318731Y0132637D01*
X0314700Y0130240D02*
X0313900Y0130240D01*
X0313900Y0129042D02*
X0314700Y0129042D01*
X0314700Y0127843D02*
X0313900Y0127843D01*
X0309869Y0132637D02*
X0256687Y0132637D01*
X0256670Y0133836D02*
X0308053Y0133836D01*
X0307280Y0135034D02*
X0255471Y0135034D01*
X0254273Y0136233D02*
X0306913Y0136233D01*
X0306913Y0137432D02*
X0202650Y0137432D01*
X0202650Y0138630D02*
X0307312Y0138630D01*
X0308130Y0139829D02*
X0202038Y0139829D01*
X0200840Y0141027D02*
X0310055Y0141027D01*
X0318545Y0141027D02*
X0319991Y0141027D01*
X0239930Y0120652D02*
X0233670Y0120652D01*
X0234059Y0120813D02*
X0235180Y0121935D01*
X0235787Y0123401D01*
X0235787Y0130187D01*
X0235180Y0131652D01*
X0234059Y0132774D01*
X0232593Y0133381D01*
X0231007Y0133381D01*
X0229541Y0132774D01*
X0228420Y0131652D01*
X0227813Y0130187D01*
X0227813Y0123401D01*
X0228420Y0121935D01*
X0229541Y0120813D01*
X0231007Y0120206D01*
X0232593Y0120206D01*
X0234059Y0120813D01*
X0235096Y0121851D02*
X0238504Y0121851D01*
X0237958Y0123049D02*
X0235642Y0123049D01*
X0235787Y0124248D02*
X0237813Y0124248D01*
X0237813Y0125446D02*
X0235787Y0125446D01*
X0235787Y0126645D02*
X0237813Y0126645D01*
X0237813Y0127843D02*
X0235787Y0127843D01*
X0235787Y0129042D02*
X0237813Y0129042D01*
X0237835Y0130240D02*
X0235765Y0130240D01*
X0235269Y0131439D02*
X0238331Y0131439D01*
X0239405Y0132637D02*
X0234195Y0132637D01*
X0229405Y0132637D02*
X0224195Y0132637D01*
X0224059Y0132774D02*
X0222593Y0133381D01*
X0221007Y0133381D01*
X0219541Y0132774D01*
X0218420Y0131652D01*
X0217813Y0130187D01*
X0217813Y0123401D01*
X0218420Y0121935D01*
X0219541Y0120813D01*
X0221007Y0120206D01*
X0222593Y0120206D01*
X0224059Y0120813D01*
X0225180Y0121935D01*
X0225787Y0123401D01*
X0225787Y0130187D01*
X0225180Y0131652D01*
X0224059Y0132774D01*
X0225269Y0131439D02*
X0228331Y0131439D01*
X0227835Y0130240D02*
X0225765Y0130240D01*
X0225787Y0129042D02*
X0227813Y0129042D01*
X0227813Y0127843D02*
X0225787Y0127843D01*
X0225787Y0126645D02*
X0227813Y0126645D01*
X0227813Y0125446D02*
X0225787Y0125446D01*
X0225787Y0124248D02*
X0227813Y0124248D01*
X0227958Y0123049D02*
X0225642Y0123049D01*
X0225096Y0121851D02*
X0228504Y0121851D01*
X0229930Y0120652D02*
X0223670Y0120652D01*
X0219930Y0120652D02*
X0213670Y0120652D01*
X0215096Y0121851D02*
X0218504Y0121851D01*
X0217958Y0123049D02*
X0215642Y0123049D01*
X0215787Y0124248D02*
X0217813Y0124248D01*
X0217813Y0125446D02*
X0215787Y0125446D01*
X0215787Y0126645D02*
X0217813Y0126645D01*
X0217813Y0127843D02*
X0215787Y0127843D01*
X0215787Y0129042D02*
X0217813Y0129042D01*
X0217835Y0130240D02*
X0215765Y0130240D01*
X0215269Y0131439D02*
X0218331Y0131439D01*
X0219405Y0132637D02*
X0214195Y0132637D01*
X0209405Y0132637D02*
X0200917Y0132637D01*
X0221800Y0116794D02*
X0226800Y0115278D01*
X0226800Y0106794D02*
X0224300Y0106794D01*
X0156800Y0084294D02*
X0151800Y0084294D01*
X0146800Y0086794D02*
X0139300Y0086794D01*
X0128400Y0088425D02*
X0128400Y0113394D01*
X0129300Y0114294D01*
X0123300Y0110294D02*
X0123300Y0088425D01*
X0125800Y0088425D02*
X0125800Y0066225D01*
X0125540Y0066485D01*
X0125540Y0076676D01*
X0125422Y0076794D01*
X0120619Y0076794D01*
X0120619Y0066306D01*
X0120700Y0066225D01*
X0120700Y0088425D01*
X0118100Y0088425D02*
X0118100Y0105494D01*
X0109300Y0114294D01*
X0099300Y0114294D02*
X0113000Y0100594D01*
X0113000Y0088425D01*
X0110500Y0088425D02*
X0110500Y0076794D01*
X0115698Y0076794D01*
X0115698Y0088328D01*
X0115600Y0088425D01*
X0115600Y0066225D01*
X0118100Y0066225D02*
X0118100Y0045594D01*
X0109300Y0036794D01*
X0099300Y0036794D02*
X0113000Y0050494D01*
X0113000Y0066225D01*
X0110500Y0066225D02*
X0110500Y0076794D01*
X0115698Y0076794D02*
X0120619Y0076794D01*
X0123300Y0066225D02*
X0123300Y0040794D01*
X0119300Y0036794D01*
X0128400Y0037694D02*
X0128400Y0066225D01*
X0107900Y0066225D02*
X0107824Y0066149D01*
X0107824Y0058959D01*
X0088139Y0039274D01*
X0084300Y0041794D02*
X0086800Y0044294D01*
X0089300Y0044294D01*
X0105300Y0060294D01*
X0105300Y0066225D01*
X0102800Y0066225D02*
X0102800Y0063778D01*
X0102902Y0063676D01*
X0102902Y0061912D01*
X0087784Y0046794D01*
X0066800Y0046794D01*
X0056800Y0041794D02*
X0084300Y0041794D01*
X0076800Y0052694D02*
X0090331Y0066225D01*
X0100200Y0066225D01*
X0107900Y0066225D02*
X0107900Y0088425D01*
X0110500Y0088425D02*
X0110500Y0093094D01*
X0104300Y0099294D01*
X0093040Y0099294D01*
X0084202Y0090455D01*
X0066839Y0090455D01*
X0066800Y0090494D01*
X0075900Y0096794D02*
X0056800Y0096794D01*
X0051800Y0091794D01*
X0051800Y0046794D01*
X0056800Y0041794D01*
X0066800Y0068894D02*
X0067200Y0069294D01*
X0079300Y0069294D01*
X0098431Y0088425D01*
X0100200Y0088425D01*
X0102800Y0088425D02*
X0102800Y0093294D01*
X0101800Y0094294D01*
X0094300Y0094294D01*
X0079300Y0079294D01*
X0067200Y0079294D01*
X0066800Y0079694D01*
X0076800Y0095894D02*
X0075900Y0096794D01*
X0119300Y0114294D02*
X0123300Y0110294D01*
X0128400Y0037694D02*
X0129300Y0036794D01*
X0095028Y0010731D02*
X0093965Y0011794D01*
X0089300Y0011794D01*
X0095028Y0010731D02*
X0173237Y0010731D01*
X0176800Y0014294D01*
X0176800Y0016794D01*
X0270304Y0040352D02*
X0274813Y0040352D01*
X0274813Y0041551D02*
X0272296Y0041551D01*
X0273076Y0042749D02*
X0274813Y0042749D01*
X0274813Y0043948D02*
X0273387Y0043948D01*
X0273363Y0045146D02*
X0274813Y0045146D01*
X0274813Y0046345D02*
X0272866Y0046345D01*
X0271790Y0047543D02*
X0274813Y0047543D01*
X0318436Y0070315D02*
X0319991Y0070315D01*
X0319991Y0081101D02*
X0319830Y0081101D01*
X0319991Y0015183D02*
X0318841Y0015183D01*
D20*
X0287942Y0023979D03*
X0249300Y0044294D03*
X0219300Y0034294D03*
X0241800Y0024294D03*
X0226800Y0019294D03*
X0279300Y0059294D03*
X0249300Y0081794D03*
X0224300Y0084294D03*
X0199300Y0086794D03*
X0186800Y0096794D03*
X0166800Y0084294D03*
X0176800Y0081794D03*
X0151800Y0084294D03*
X0139300Y0086794D03*
X0176800Y0114294D03*
X0224300Y0106794D03*
X0088139Y0039274D03*
X0066800Y0046794D03*
X0089300Y0011794D03*
D21*
X0146800Y0016794D02*
X0146800Y0086794D01*
X0146800Y0136794D01*
X0156800Y0136794D02*
X0156800Y0084294D01*
X0156800Y0016794D01*
X0166800Y0016794D02*
X0166800Y0084294D01*
X0166800Y0136794D01*
X0176800Y0136794D02*
X0176800Y0114294D01*
X0176800Y0081794D01*
X0176800Y0014294D01*
X0186800Y0016794D02*
X0186800Y0096794D01*
X0186800Y0136794D01*
D22*
X0186800Y0016794D02*
X0186800Y0015416D01*
M02*
