G75*
%MOIN*%
%OFA0B0*%
%FSLAX25Y25*%
%IPPOS*%
%LPD*%
%AMOC8*
5,1,8,0,0,1.08239X$1,22.5*
%
%ADD10C,0.06000*%
%ADD11C,0.05600*%
%ADD12C,0.05200*%
%ADD13OC8,0.07000*%
%ADD14OC8,0.08500*%
%ADD15R,0.01400X0.05800*%
%ADD16OC8,0.06000*%
%ADD17C,0.20000*%
%ADD18C,0.04362*%
D10*
X0311300Y0019294D02*
X0317300Y0019294D01*
X0317300Y0029294D02*
X0311300Y0029294D01*
X0311300Y0126794D02*
X0317300Y0126794D01*
X0317300Y0136794D02*
X0311300Y0136794D01*
D11*
X0311500Y0084294D02*
X0317100Y0084294D01*
X0317100Y0074294D02*
X0311500Y0074294D01*
D12*
X0299400Y0074294D02*
X0294200Y0074294D01*
X0294200Y0064294D02*
X0299400Y0064294D01*
X0299400Y0054294D02*
X0294200Y0054294D01*
X0294200Y0044294D02*
X0299400Y0044294D01*
X0269400Y0044294D02*
X0264200Y0044294D01*
X0264200Y0054294D02*
X0269400Y0054294D01*
X0269400Y0064294D02*
X0264200Y0064294D01*
X0264200Y0074294D02*
X0269400Y0074294D01*
X0239400Y0074294D02*
X0234200Y0074294D01*
X0234200Y0064294D02*
X0239400Y0064294D01*
X0239400Y0054294D02*
X0234200Y0054294D01*
X0234200Y0044294D02*
X0239400Y0044294D01*
X0209400Y0044294D02*
X0204200Y0044294D01*
X0204200Y0054294D02*
X0209400Y0054294D01*
X0209400Y0064294D02*
X0204200Y0064294D01*
X0204200Y0074294D02*
X0209400Y0074294D01*
X0211800Y0094194D02*
X0211800Y0099394D01*
X0221800Y0099394D02*
X0221800Y0094194D01*
X0231800Y0094194D02*
X0231800Y0099394D01*
X0241800Y0099394D02*
X0241800Y0094194D01*
X0241800Y0124194D02*
X0241800Y0129394D01*
X0231800Y0129394D02*
X0231800Y0124194D01*
X0221800Y0124194D02*
X0221800Y0129394D01*
X0211800Y0129394D02*
X0211800Y0124194D01*
D13*
X0251800Y0131794D03*
X0251800Y0111794D03*
X0291800Y0121794D03*
D14*
X0308316Y0113310D03*
X0308670Y0098329D03*
X0196800Y0136794D03*
X0186800Y0136794D03*
X0176800Y0136794D03*
X0166800Y0136794D03*
X0156800Y0136794D03*
X0146800Y0136794D03*
X0129300Y0114294D03*
X0119300Y0114294D03*
X0109300Y0114294D03*
X0099300Y0114294D03*
X0099300Y0131794D03*
X0136800Y0096794D03*
X0129300Y0036794D03*
X0119300Y0036794D03*
X0109300Y0036794D03*
X0099300Y0036794D03*
X0146800Y0016794D03*
X0156800Y0016794D03*
X0166800Y0016794D03*
X0176800Y0016794D03*
X0186800Y0016794D03*
X0196800Y0016794D03*
X0264300Y0026794D03*
X0276800Y0026794D03*
D15*
X0128400Y0066225D03*
X0125800Y0066225D03*
X0123300Y0066225D03*
X0120700Y0066225D03*
X0118100Y0066225D03*
X0115600Y0066225D03*
X0113000Y0066225D03*
X0110500Y0066225D03*
X0107900Y0066225D03*
X0105300Y0066225D03*
X0102800Y0066225D03*
X0100200Y0066225D03*
X0100200Y0088425D03*
X0102800Y0088425D03*
X0105300Y0088425D03*
X0107900Y0088425D03*
X0110500Y0088425D03*
X0113000Y0088425D03*
X0115600Y0088425D03*
X0118100Y0088425D03*
X0120700Y0088425D03*
X0123300Y0088425D03*
X0125800Y0088425D03*
X0128400Y0088425D03*
D16*
X0076800Y0085094D03*
X0066800Y0090494D03*
X0076800Y0095894D03*
X0066800Y0079694D03*
X0076800Y0074294D03*
X0066800Y0068894D03*
X0076800Y0063494D03*
X0066800Y0058094D03*
X0076800Y0052694D03*
D17*
X0071800Y0024994D03*
X0071800Y0123594D03*
D18*
X0139300Y0086794D03*
X0151800Y0084294D03*
X0166800Y0084294D03*
X0176800Y0081794D03*
X0199300Y0086794D03*
X0186800Y0096794D03*
X0176800Y0114294D03*
X0224300Y0106794D03*
X0224300Y0084294D03*
X0249300Y0081794D03*
X0279300Y0059294D03*
X0249300Y0044294D03*
X0219300Y0034294D03*
X0241800Y0024294D03*
X0226800Y0019294D03*
X0287942Y0023979D03*
X0089300Y0011794D03*
X0088139Y0039274D03*
X0066800Y0046794D03*
M02*
