G75*
%MOIN*%
%OFA0B0*%
%FSLAX25Y25*%
%IPPOS*%
%LPD*%
%AMOC8*
5,1,8,0,0,1.08239X$1,22.5*
%
%ADD10R,0.04724X0.02165*%
%ADD11R,0.05118X0.05906*%
%ADD12R,0.05906X0.05118*%
%ADD13R,0.05600X0.01200*%
%ADD14C,0.06000*%
%ADD15C,0.05600*%
%ADD16C,0.05200*%
%ADD17OC8,0.07000*%
%ADD18R,0.03937X0.04331*%
%ADD19OC8,0.08500*%
%ADD20OC8,0.06000*%
%ADD21C,0.20000*%
%ADD22R,0.04331X0.03937*%
%ADD23C,0.04362*%
D10*
X0149182Y0030554D03*
X0149182Y0038034D03*
X0159418Y0038034D03*
X0159418Y0034294D03*
X0159418Y0030554D03*
D11*
X0150540Y0046794D03*
X0143060Y0046794D03*
X0153060Y0066794D03*
X0160540Y0066794D03*
X0160540Y0076794D03*
X0153060Y0076794D03*
X0208060Y0084294D03*
X0215540Y0084294D03*
X0250560Y0091794D03*
X0258040Y0091794D03*
X0275560Y0091794D03*
X0283040Y0091794D03*
X0293060Y0084294D03*
X0300540Y0084294D03*
X0265540Y0081794D03*
X0258060Y0081794D03*
X0240540Y0113310D03*
X0233060Y0113310D03*
X0218040Y0113310D03*
X0210560Y0113310D03*
X0148040Y0126794D03*
X0140560Y0126794D03*
X0065540Y0104294D03*
X0058060Y0104294D03*
X0228060Y0034294D03*
X0235540Y0034294D03*
X0288060Y0031794D03*
X0295540Y0031794D03*
D12*
X0286800Y0043054D03*
X0276800Y0043054D03*
X0276800Y0050534D03*
X0286800Y0050534D03*
X0279300Y0068054D03*
X0279300Y0075534D03*
X0254300Y0065534D03*
X0254300Y0058054D03*
X0226800Y0053034D03*
X0216800Y0055554D03*
X0216800Y0063034D03*
X0226800Y0068054D03*
X0226800Y0075534D03*
X0199300Y0093054D03*
X0199300Y0100534D03*
X0164300Y0110554D03*
X0164300Y0118034D03*
X0149300Y0113034D03*
X0149300Y0105554D03*
X0086800Y0065534D03*
X0086800Y0058054D03*
X0194300Y0055554D03*
X0194300Y0063034D03*
X0226800Y0045554D03*
X0254300Y0035534D03*
X0254300Y0028054D03*
D13*
X0165600Y0090394D03*
X0165600Y0092294D03*
X0165600Y0094294D03*
X0165600Y0096294D03*
X0165600Y0098194D03*
X0148000Y0098194D03*
X0148000Y0096294D03*
X0148000Y0094294D03*
X0148000Y0092294D03*
X0148000Y0090394D03*
D14*
X0311300Y0126794D02*
X0317300Y0126794D01*
X0317300Y0136794D02*
X0311300Y0136794D01*
X0311300Y0029294D02*
X0317300Y0029294D01*
X0317300Y0019294D02*
X0311300Y0019294D01*
D15*
X0311500Y0074294D02*
X0317100Y0074294D01*
X0317100Y0084294D02*
X0311500Y0084294D01*
D16*
X0299400Y0074294D02*
X0294200Y0074294D01*
X0294200Y0064294D02*
X0299400Y0064294D01*
X0299400Y0054294D02*
X0294200Y0054294D01*
X0294200Y0044294D02*
X0299400Y0044294D01*
X0269400Y0044294D02*
X0264200Y0044294D01*
X0264200Y0054294D02*
X0269400Y0054294D01*
X0269400Y0064294D02*
X0264200Y0064294D01*
X0264200Y0074294D02*
X0269400Y0074294D01*
X0239400Y0074294D02*
X0234200Y0074294D01*
X0234200Y0064294D02*
X0239400Y0064294D01*
X0239400Y0054294D02*
X0234200Y0054294D01*
X0234200Y0044294D02*
X0239400Y0044294D01*
X0209400Y0044294D02*
X0204200Y0044294D01*
X0204200Y0054294D02*
X0209400Y0054294D01*
X0209400Y0064294D02*
X0204200Y0064294D01*
X0204200Y0074294D02*
X0209400Y0074294D01*
X0211800Y0094194D02*
X0211800Y0099394D01*
X0221800Y0099394D02*
X0221800Y0094194D01*
X0231800Y0094194D02*
X0231800Y0099394D01*
X0241800Y0099394D02*
X0241800Y0094194D01*
X0241800Y0124194D02*
X0241800Y0129394D01*
X0231800Y0129394D02*
X0231800Y0124194D01*
X0221800Y0124194D02*
X0221800Y0129394D01*
X0211800Y0129394D02*
X0211800Y0124194D01*
D17*
X0251800Y0131794D03*
X0251800Y0111794D03*
X0291800Y0121794D03*
D18*
X0165146Y0046794D03*
X0158454Y0046794D03*
X0095146Y0046794D03*
X0088454Y0046794D03*
D19*
X0099300Y0036794D03*
X0109300Y0036794D03*
X0119300Y0036794D03*
X0129300Y0036794D03*
X0146800Y0016794D03*
X0156800Y0016794D03*
X0166800Y0016794D03*
X0176800Y0016794D03*
X0186800Y0016794D03*
X0196800Y0016794D03*
X0264300Y0026794D03*
X0276800Y0026794D03*
X0308670Y0098329D03*
X0308316Y0113310D03*
X0196800Y0136794D03*
X0186800Y0136794D03*
X0176800Y0136794D03*
X0166800Y0136794D03*
X0156800Y0136794D03*
X0146800Y0136794D03*
X0129300Y0114294D03*
X0119300Y0114294D03*
X0109300Y0114294D03*
X0099300Y0114294D03*
X0099300Y0131794D03*
X0136800Y0096794D03*
D20*
X0076800Y0095894D03*
X0066800Y0090494D03*
X0076800Y0085094D03*
X0066800Y0079694D03*
X0076800Y0074294D03*
X0066800Y0068894D03*
X0076800Y0063494D03*
X0066800Y0058094D03*
X0076800Y0052694D03*
D21*
X0071800Y0024994D03*
X0071800Y0123594D03*
D22*
X0056800Y0085140D03*
X0056800Y0078447D03*
D23*
X0066800Y0046794D03*
X0088139Y0039274D03*
X0089300Y0011794D03*
X0176800Y0081794D03*
X0166800Y0084294D03*
X0151800Y0084294D03*
X0139300Y0086794D03*
X0186800Y0096794D03*
X0199300Y0086794D03*
X0224300Y0084294D03*
X0249300Y0081794D03*
X0279300Y0059294D03*
X0249300Y0044294D03*
X0219300Y0034294D03*
X0241800Y0024294D03*
X0226800Y0019294D03*
X0287942Y0023979D03*
X0224300Y0106794D03*
X0176800Y0114294D03*
M02*
