%
M48
M72
T01C0.02362
T02C0.03200
T03C0.03600
T04C0.04000
T05C0.05200
T06C0.13000
%
T01
X66800Y46794
X88139Y39274
X89300Y11794
X176800Y81794
X166800Y84294
X151800Y84294
X139300Y86794
X186800Y96794
X199300Y86794
X224300Y84294
X249300Y81794
X279300Y59294
X249300Y44294
X219300Y34294
X241800Y24294
X226800Y19294
X287942Y23979
X224300Y106794
X176800Y114294
T02
X211800Y126794
X221800Y126794
X231800Y126794
X241800Y126794
X241800Y96794
X231800Y96794
X221800Y96794
X211800Y96794
X206800Y74294
X206800Y64294
X206800Y54294
X206800Y44294
X236800Y44294
X236800Y54294
X236800Y64294
X236800Y74294
X266800Y74294
X266800Y64294
X266800Y54294
X266800Y44294
X296800Y44294
X296800Y54294
X296800Y64294
X296800Y74294
T03
X314300Y74294
X314300Y84294
T04
X251800Y111794
X251800Y131794
X291800Y121794
X314300Y126794
X314300Y136794
X314300Y29294
X314300Y19294
X76800Y52694
X66800Y58094
X76800Y63494
X66800Y68894
X76800Y74294
X66800Y79694
X76800Y85094
X66800Y90494
X76800Y95894
T05
X99300Y114294
X109300Y114294
X119300Y114294
X129300Y114294
X99300Y131794
X146800Y136794
X156800Y136794
X166800Y136794
X176800Y136794
X186800Y136794
X196800Y136794
X136800Y96794
X129300Y36794
X119300Y36794
X109300Y36794
X99300Y36794
X146800Y16794
X156800Y16794
X166800Y16794
X176800Y16794
X186800Y16794
X196800Y16794
X264300Y26794
X276800Y26794
X308670Y98329
X308316Y113310
T06
X71800Y24994
X71800Y123594
M30
