%
M48
M72
T01C0.02362
T02C0.03200
T03C0.03600
T04C0.04000
T05C0.05200
T06C0.13000
%
T01
X62524Y157312
X62524Y184871
X89098Y177981
X95988Y159280
X105831Y165186
X113705Y161249
X121579Y172076
X133390Y190776
X137327Y155343
X172760Y157312
X184571Y200619
X172760Y228178
X184571Y271485
X172760Y299044
X172760Y336446
X184571Y342351
X176697Y371879
X184571Y393532
X184571Y421091
X198350Y426997
X206224Y430934
X192445Y444713
X198350Y468335
X184571Y472272
X166854Y472272
X184571Y493926
X198350Y495894
X172760Y519517
X184571Y562824
X172760Y590383
X184571Y633690
X172760Y661249
X184571Y704556
X210161Y704556
X247563Y684871
X247563Y659280
X247563Y614005
X247563Y588414
X247563Y543139
X247563Y517548
X281028Y560855
X316461Y584477
X281028Y631721
X316461Y655343
X281028Y702587
X210161Y633690
X210161Y562824
X137327Y588414
X121579Y605146
X113705Y594320
X105831Y598257
X95988Y592351
X89098Y611052
X62524Y617942
X62524Y590383
X62524Y547076
X62524Y519517
X89098Y540186
X95988Y521485
X105831Y527391
X113705Y523454
X121579Y534280
X133390Y552981
X137327Y517548
X113705Y489989
X113705Y478178
X105831Y476209
X105831Y501800
X137327Y452587
X141264Y442745
X141264Y425028
X139295Y401406
X141264Y385658
X155043Y369910
X147169Y348257
X133390Y332509
X121579Y313808
X113705Y302981
X105831Y306918
X95988Y301013
X89098Y319713
X105831Y354162
X113705Y354162
X113705Y365973
X105831Y365973
X121579Y401406
X166854Y415186
X212130Y407312
X223941Y393532
X223941Y377784
X235752Y369910
X235752Y352194
X247563Y322666
X247563Y297076
X247563Y251800
X247563Y226209
X247563Y180934
X247563Y155343
X281028Y198650
X316461Y222272
X281028Y269517
X316461Y293139
X281028Y340383
X241657Y401406
X249531Y436839
X233783Y450619
X227878Y441761
X275201Y432981
X284965Y413217
X316461Y513611
X367642Y566761
X379453Y537233
X408980Y511643
X408980Y582509
X379453Y608099
X367642Y637627
X379453Y678965
X367642Y708493
X408980Y653375
X367642Y346288
X379453Y316761
X367642Y275422
X379453Y245894
X408980Y220304
X379453Y175028
X367642Y204556
X408980Y149438
X316461Y151406
X408980Y291170
X210161Y271485
X210161Y200619
X137327Y226209
X121579Y242942
X113705Y232115
X105831Y236052
X95988Y230146
X89098Y248847
X62524Y255737
X62524Y228178
X62524Y299044
X62524Y326603
X133390Y261643
X137327Y297076
X210161Y342351
X133390Y623847
X137327Y659280
X121579Y676013
X113705Y665186
X105831Y669123
X95988Y663217
X89098Y681918
X62524Y688808
X62524Y661249
X133390Y694713
T02
X202051Y689044
X202051Y679044
X202051Y669044
X202051Y659044
X232051Y659044
X232051Y669044
X232051Y679044
X232051Y689044
X274886Y689831
X274886Y679831
X274886Y669831
X274886Y659831
X304886Y659831
X304886Y669831
X304886Y679831
X304886Y689831
X304886Y618965
X304886Y608965
X304886Y598965
X304886Y588965
X304886Y548099
X304886Y538099
X304886Y528099
X304886Y518099
X274886Y518099
X274886Y528099
X274886Y538099
X274886Y548099
X274886Y588965
X274886Y598965
X274886Y608965
X274886Y618965
X232051Y618178
X232051Y608178
X232051Y598178
X232051Y588178
X232051Y547312
X232051Y537312
X232051Y527312
X232051Y517312
X202051Y517312
X202051Y527312
X202051Y537312
X202051Y547312
X202051Y588178
X202051Y598178
X202051Y608178
X202051Y618178
X363469Y621328
X363469Y611328
X363469Y601328
X363469Y591328
X363469Y550461
X363469Y540461
X363469Y530461
X363469Y520461
X393469Y520461
X393469Y530461
X393469Y540461
X393469Y550461
X393469Y591328
X393469Y601328
X393469Y611328
X393469Y621328
X393469Y662194
X393469Y672194
X393469Y682194
X393469Y692194
X363469Y692194
X363469Y682194
X363469Y672194
X363469Y662194
X363469Y329989
X363469Y319989
X363469Y309989
X363469Y299989
X363469Y259123
X363469Y249123
X363469Y239123
X363469Y229123
X363469Y188257
X363469Y178257
X363469Y168257
X363469Y158257
X393469Y158257
X393469Y168257
X393469Y178257
X393469Y188257
X393469Y229123
X393469Y239123
X393469Y249123
X393469Y259123
X393469Y299989
X393469Y309989
X393469Y319989
X393469Y329989
X304886Y327627
X304886Y317627
X304886Y307627
X304886Y297627
X274886Y297627
X274886Y307627
X274886Y317627
X274886Y327627
X232051Y326839
X232051Y316839
X232051Y306839
X232051Y296839
X202051Y296839
X202051Y306839
X202051Y316839
X202051Y326839
X202051Y255973
X202051Y245973
X202051Y235973
X202051Y225973
X202051Y185107
X202051Y175107
X202051Y165107
X202051Y155107
X232051Y155107
X232051Y165107
X232051Y175107
X232051Y185107
X232051Y225973
X232051Y235973
X232051Y245973
X232051Y255973
X274886Y256761
X274886Y246761
X274886Y236761
X274886Y226761
X274886Y185894
X274886Y175894
X274886Y165894
X274886Y155894
X304886Y155894
X304886Y165894
X304886Y175894
X304886Y185894
X304886Y226761
X304886Y236761
X304886Y246761
X304886Y256761
T03
X433783Y253690
X433783Y243690
X433783Y182824
X433783Y172824
X433783Y314556
X433783Y324556
X433783Y535028
X433783Y545028
X433783Y605894
X433783Y615894
X433783Y676761
X433783Y686761
T04
X435831Y442233
X435831Y432233
X435280Y401485
X435280Y391485
X167287Y292233
X147287Y292233
X157287Y261367
X147287Y221367
X167287Y221367
X157287Y190501
X147287Y150501
X167287Y150501
X157287Y332233
X90673Y400633
X90673Y411433
X90673Y422233
X90673Y433033
X90673Y443833
X80673Y438433
X80673Y427633
X80673Y416833
X80673Y406033
X147287Y512706
X167287Y512706
X157287Y552706
X147287Y583572
X167287Y583572
X157287Y623572
X147287Y654438
X167287Y654438
X157287Y694438
T05
X127366Y684595
X127366Y613729
X127366Y542863
X77012Y563178
X77012Y634044
X77012Y704910
X239335Y639635
X239335Y568769
X239335Y497902
X265004Y421131
X309571Y503808
X316815Y523493
X309571Y574674
X316815Y594359
X309571Y645540
X316815Y665225
X386933Y447036
X386500Y417509
X387366Y389950
X316815Y303020
X309571Y283335
X316815Y232154
X309571Y212469
X316815Y161288
X309571Y141603
X239335Y135698
X239335Y206564
X239335Y277430
X148587Y409989
X105280Y416209
X77012Y342706
X77012Y271839
X77012Y200973
X127366Y180658
X127366Y251524
X127366Y322391
T06
X85673Y372933
X85673Y471533
M30
