G75*
%MOIN*%
%OFA0B0*%
%FSLAX25Y25*%
%IPPOS*%
%LPD*%
%AMOC8*
5,1,8,0,0,1.08239X$1,22.5*
%
%ADD10R,0.04724X0.02165*%
%ADD11R,0.05118X0.05906*%
%ADD12R,0.05906X0.05118*%
%ADD13R,0.05600X0.01200*%
%ADD14C,0.06400*%
%ADD15C,0.06000*%
%ADD16C,0.05600*%
%ADD17R,0.04331X0.03937*%
%ADD18OC8,0.07000*%
%ADD19OC8,0.08500*%
%ADD20R,0.05800X0.01400*%
%ADD21OC8,0.06400*%
%ADD22C,0.20000*%
%ADD23R,0.03937X0.04331*%
%ADD24R,0.04362X0.04362*%
D10*
X0275201Y0420028D03*
X0275201Y0427509D03*
X0285437Y0427509D03*
X0285437Y0423769D03*
X0285437Y0420028D03*
D11*
X0290752Y0441131D03*
X0298232Y0441131D03*
X0260437Y0495894D03*
X0260122Y0505146D03*
X0262642Y0517548D03*
X0255161Y0517548D03*
X0252642Y0505146D03*
X0252957Y0495894D03*
X0230476Y0561446D03*
X0222996Y0561446D03*
X0201697Y0562233D03*
X0194217Y0562233D03*
X0189295Y0591564D03*
X0181815Y0591564D03*
X0194217Y0633099D03*
X0201697Y0633099D03*
X0222996Y0632312D03*
X0230476Y0632312D03*
X0252957Y0637627D03*
X0252642Y0646879D03*
X0260122Y0646879D03*
X0260437Y0637627D03*
X0262642Y0659280D03*
X0255161Y0659280D03*
X0230476Y0703178D03*
X0222996Y0703178D03*
X0201697Y0703965D03*
X0194217Y0703965D03*
X0189295Y0662430D03*
X0181815Y0662430D03*
X0252642Y0576013D03*
X0252957Y0566761D03*
X0260437Y0566761D03*
X0260122Y0576013D03*
X0262642Y0588414D03*
X0255161Y0588414D03*
X0289059Y0560855D03*
X0296539Y0560855D03*
X0322209Y0547863D03*
X0329689Y0547863D03*
X0330949Y0536052D03*
X0323469Y0536052D03*
X0328744Y0524241D03*
X0336224Y0524241D03*
X0341894Y0535855D03*
X0349374Y0535855D03*
X0349531Y0548257D03*
X0349453Y0561446D03*
X0341972Y0561446D03*
X0342051Y0548257D03*
X0329610Y0575422D03*
X0322130Y0575422D03*
X0328744Y0595107D03*
X0336224Y0595107D03*
X0341894Y0606721D03*
X0342051Y0619123D03*
X0349531Y0619123D03*
X0349374Y0606721D03*
X0349453Y0632312D03*
X0341972Y0632312D03*
X0329689Y0618729D03*
X0330949Y0606918D03*
X0323469Y0606918D03*
X0322209Y0618729D03*
X0322130Y0646288D03*
X0329610Y0646288D03*
X0328744Y0665973D03*
X0336224Y0665973D03*
X0341894Y0677587D03*
X0349374Y0677587D03*
X0349531Y0689989D03*
X0342051Y0689989D03*
X0329689Y0689595D03*
X0322209Y0689595D03*
X0323469Y0677784D03*
X0330949Y0677784D03*
X0341972Y0703178D03*
X0349453Y0703178D03*
X0296539Y0702587D03*
X0289059Y0702587D03*
X0289059Y0631721D03*
X0296539Y0631721D03*
X0322130Y0504556D03*
X0329610Y0504556D03*
X0407563Y0551603D03*
X0415043Y0551603D03*
X0415043Y0622469D03*
X0407563Y0622469D03*
X0407563Y0693335D03*
X0415043Y0693335D03*
X0189295Y0520698D03*
X0181815Y0520698D03*
X0158783Y0432902D03*
X0151303Y0432902D03*
X0122406Y0409871D03*
X0114925Y0409871D03*
X0114610Y0423650D03*
X0122091Y0423650D03*
X0115476Y0440776D03*
X0107996Y0440776D03*
X0109965Y0460461D03*
X0117445Y0460461D03*
X0115870Y0391564D03*
X0123350Y0391564D03*
X0121776Y0369910D03*
X0129256Y0369910D03*
X0077878Y0328572D03*
X0070398Y0328572D03*
X0070398Y0257706D03*
X0077878Y0257706D03*
X0077878Y0186839D03*
X0070398Y0186839D03*
X0181815Y0158493D03*
X0189295Y0158493D03*
X0194217Y0200028D03*
X0201697Y0200028D03*
X0222996Y0199241D03*
X0230476Y0199241D03*
X0252957Y0204556D03*
X0252642Y0213808D03*
X0260122Y0213808D03*
X0260437Y0204556D03*
X0262642Y0226209D03*
X0255161Y0226209D03*
X0230476Y0270107D03*
X0222996Y0270107D03*
X0201697Y0270894D03*
X0194217Y0270894D03*
X0189295Y0300225D03*
X0181815Y0300225D03*
X0194217Y0341761D03*
X0201697Y0341761D03*
X0222996Y0340973D03*
X0230476Y0340973D03*
X0255161Y0297076D03*
X0262642Y0297076D03*
X0260122Y0284674D03*
X0260437Y0275422D03*
X0252957Y0275422D03*
X0252642Y0284674D03*
X0289059Y0269517D03*
X0296539Y0269517D03*
X0322209Y0256524D03*
X0323469Y0244713D03*
X0330949Y0244713D03*
X0329689Y0256524D03*
X0342051Y0256918D03*
X0341894Y0244517D03*
X0349374Y0244517D03*
X0349531Y0256918D03*
X0349453Y0270107D03*
X0341972Y0270107D03*
X0329610Y0284083D03*
X0322130Y0284083D03*
X0328744Y0303769D03*
X0336224Y0303769D03*
X0341894Y0315383D03*
X0349374Y0315383D03*
X0349531Y0327784D03*
X0342051Y0327784D03*
X0329689Y0327391D03*
X0322209Y0327391D03*
X0323469Y0315580D03*
X0330949Y0315580D03*
X0341972Y0340973D03*
X0349453Y0340973D03*
X0296539Y0340383D03*
X0289059Y0340383D03*
X0328744Y0232902D03*
X0336224Y0232902D03*
X0329610Y0213217D03*
X0322130Y0213217D03*
X0322209Y0185658D03*
X0329689Y0185658D03*
X0330949Y0173847D03*
X0323469Y0173847D03*
X0328744Y0162036D03*
X0336224Y0162036D03*
X0341894Y0173650D03*
X0349374Y0173650D03*
X0349531Y0186052D03*
X0349453Y0199241D03*
X0341972Y0199241D03*
X0342051Y0186052D03*
X0329610Y0142351D03*
X0322130Y0142351D03*
X0296539Y0198650D03*
X0289059Y0198650D03*
X0262642Y0155343D03*
X0255161Y0155343D03*
X0252642Y0142942D03*
X0252957Y0133690D03*
X0260437Y0133690D03*
X0260122Y0142942D03*
X0189295Y0229359D03*
X0181815Y0229359D03*
X0077878Y0549044D03*
X0070398Y0549044D03*
X0070398Y0619910D03*
X0077878Y0619910D03*
X0077878Y0690776D03*
X0070398Y0690776D03*
X0407563Y0331131D03*
X0415043Y0331131D03*
X0415043Y0260265D03*
X0407563Y0260265D03*
X0407563Y0189398D03*
X0415043Y0189398D03*
D12*
X0407602Y0177784D03*
X0407602Y0170304D03*
X0417642Y0164635D03*
X0417642Y0157154D03*
X0379453Y0157115D03*
X0379453Y0164595D03*
X0379453Y0183926D03*
X0379453Y0191406D03*
X0379453Y0227981D03*
X0379453Y0235461D03*
X0379453Y0254792D03*
X0379453Y0262272D03*
X0379453Y0298847D03*
X0379453Y0306328D03*
X0379453Y0325658D03*
X0379453Y0333139D03*
X0407602Y0319517D03*
X0407602Y0312036D03*
X0417642Y0306367D03*
X0417642Y0298887D03*
X0407602Y0248650D03*
X0407602Y0241170D03*
X0417642Y0235501D03*
X0417642Y0228020D03*
X0261933Y0247902D03*
X0261933Y0255383D03*
X0246972Y0244320D03*
X0246972Y0236839D03*
X0261933Y0184517D03*
X0261933Y0177036D03*
X0246972Y0173454D03*
X0246972Y0165973D03*
X0246972Y0307706D03*
X0246972Y0315186D03*
X0261933Y0318769D03*
X0261933Y0326249D03*
X0379453Y0519320D03*
X0379453Y0526800D03*
X0379453Y0546131D03*
X0379453Y0553611D03*
X0379453Y0590186D03*
X0379453Y0597666D03*
X0379453Y0616997D03*
X0379453Y0624477D03*
X0379453Y0661052D03*
X0379453Y0668532D03*
X0379453Y0687863D03*
X0379453Y0695343D03*
X0407602Y0681721D03*
X0407602Y0674241D03*
X0417642Y0668572D03*
X0417642Y0661091D03*
X0407602Y0610855D03*
X0407602Y0603375D03*
X0417642Y0597706D03*
X0417642Y0590225D03*
X0407602Y0539989D03*
X0407602Y0532509D03*
X0417642Y0526839D03*
X0417642Y0519359D03*
X0261933Y0539241D03*
X0261933Y0546721D03*
X0246972Y0535658D03*
X0246972Y0528178D03*
X0246972Y0599044D03*
X0246972Y0606524D03*
X0261933Y0610107D03*
X0261933Y0617587D03*
X0246972Y0669910D03*
X0246972Y0677391D03*
X0261933Y0680973D03*
X0261933Y0688454D03*
X0127839Y0667666D03*
X0127839Y0660186D03*
X0125161Y0632391D03*
X0125161Y0624910D03*
X0114059Y0625540D03*
X0114059Y0633020D03*
X0127839Y0596800D03*
X0127839Y0589320D03*
X0114059Y0562154D03*
X0114059Y0554674D03*
X0125161Y0554044D03*
X0125161Y0561524D03*
X0127839Y0525934D03*
X0127839Y0518454D03*
X0082799Y0530265D03*
X0082799Y0537745D03*
X0072366Y0538099D03*
X0072366Y0530619D03*
X0062524Y0530186D03*
X0062524Y0537666D03*
X0062524Y0601052D03*
X0062524Y0608532D03*
X0072366Y0608965D03*
X0072366Y0601485D03*
X0082799Y0601131D03*
X0082799Y0608611D03*
X0082799Y0671997D03*
X0082799Y0679477D03*
X0072366Y0679831D03*
X0072366Y0672351D03*
X0062524Y0671918D03*
X0062524Y0679398D03*
X0114059Y0696406D03*
X0114059Y0703887D03*
X0125161Y0703257D03*
X0125161Y0695776D03*
X0114059Y0341682D03*
X0114059Y0334202D03*
X0125161Y0333572D03*
X0125161Y0341052D03*
X0127839Y0305461D03*
X0127839Y0297981D03*
X0125161Y0270186D03*
X0125161Y0262706D03*
X0114059Y0263335D03*
X0114059Y0270816D03*
X0127839Y0234595D03*
X0127839Y0227115D03*
X0114059Y0199950D03*
X0114059Y0192469D03*
X0125161Y0191839D03*
X0125161Y0199320D03*
X0127839Y0163729D03*
X0127839Y0156249D03*
X0082799Y0168060D03*
X0082799Y0175540D03*
X0072366Y0175894D03*
X0072366Y0168414D03*
X0062524Y0167981D03*
X0062524Y0175461D03*
X0062524Y0238847D03*
X0062524Y0246328D03*
X0072366Y0246761D03*
X0072366Y0239280D03*
X0082799Y0238926D03*
X0082799Y0246406D03*
X0082799Y0309792D03*
X0082799Y0317272D03*
X0072366Y0317627D03*
X0072366Y0310146D03*
X0062524Y0309713D03*
X0062524Y0317194D03*
D13*
X0095653Y0315739D03*
X0095653Y0313839D03*
X0095653Y0311839D03*
X0095653Y0309839D03*
X0095653Y0307939D03*
X0113253Y0307939D03*
X0113253Y0309839D03*
X0113253Y0311839D03*
X0113253Y0313839D03*
X0113253Y0315739D03*
X0113253Y0244873D03*
X0113253Y0242973D03*
X0113253Y0240973D03*
X0113253Y0238973D03*
X0113253Y0237073D03*
X0095653Y0237073D03*
X0095653Y0238973D03*
X0095653Y0240973D03*
X0095653Y0242973D03*
X0095653Y0244873D03*
X0095653Y0174007D03*
X0095653Y0172107D03*
X0095653Y0170107D03*
X0095653Y0168107D03*
X0095653Y0166207D03*
X0113253Y0166207D03*
X0113253Y0168107D03*
X0113253Y0170107D03*
X0113253Y0172107D03*
X0113253Y0174007D03*
X0113253Y0528412D03*
X0113253Y0530312D03*
X0113253Y0532312D03*
X0113253Y0534312D03*
X0113253Y0536212D03*
X0095653Y0536212D03*
X0095653Y0534312D03*
X0095653Y0532312D03*
X0095653Y0530312D03*
X0095653Y0528412D03*
X0095653Y0599278D03*
X0095653Y0601178D03*
X0095653Y0603178D03*
X0095653Y0605178D03*
X0095653Y0607078D03*
X0113253Y0607078D03*
X0113253Y0605178D03*
X0113253Y0603178D03*
X0113253Y0601178D03*
X0113253Y0599278D03*
X0113253Y0670144D03*
X0113253Y0672044D03*
X0113253Y0674044D03*
X0113253Y0676044D03*
X0113253Y0677944D03*
X0095653Y0677944D03*
X0095653Y0676044D03*
X0095653Y0674044D03*
X0095653Y0672044D03*
X0095653Y0670144D03*
D14*
X0432631Y0442233D02*
X0439031Y0442233D01*
X0439031Y0432233D02*
X0432631Y0432233D01*
X0432080Y0401485D02*
X0438480Y0401485D01*
X0438480Y0391485D02*
X0432080Y0391485D01*
D15*
X0430783Y0324556D02*
X0436783Y0324556D01*
X0436783Y0314556D02*
X0430783Y0314556D01*
X0430783Y0253690D02*
X0436783Y0253690D01*
X0436783Y0243690D02*
X0430783Y0243690D01*
X0430783Y0182824D02*
X0436783Y0182824D01*
X0436783Y0172824D02*
X0430783Y0172824D01*
X0430783Y0535028D02*
X0436783Y0535028D01*
X0436783Y0545028D02*
X0430783Y0545028D01*
X0430783Y0605894D02*
X0436783Y0605894D01*
X0436783Y0615894D02*
X0430783Y0615894D01*
X0430783Y0676761D02*
X0436783Y0676761D01*
X0436783Y0686761D02*
X0430783Y0686761D01*
D16*
X0396269Y0682194D02*
X0390669Y0682194D01*
X0390669Y0692194D02*
X0396269Y0692194D01*
X0396269Y0672194D02*
X0390669Y0672194D01*
X0390669Y0662194D02*
X0396269Y0662194D01*
X0396269Y0621328D02*
X0390669Y0621328D01*
X0390669Y0611328D02*
X0396269Y0611328D01*
X0396269Y0601328D02*
X0390669Y0601328D01*
X0390669Y0591328D02*
X0396269Y0591328D01*
X0396269Y0550461D02*
X0390669Y0550461D01*
X0390669Y0540461D02*
X0396269Y0540461D01*
X0396269Y0530461D02*
X0390669Y0530461D01*
X0390669Y0520461D02*
X0396269Y0520461D01*
X0366269Y0520461D02*
X0360669Y0520461D01*
X0360669Y0530461D02*
X0366269Y0530461D01*
X0366269Y0540461D02*
X0360669Y0540461D01*
X0360669Y0550461D02*
X0366269Y0550461D01*
X0366269Y0591328D02*
X0360669Y0591328D01*
X0360669Y0601328D02*
X0366269Y0601328D01*
X0366269Y0611328D02*
X0360669Y0611328D01*
X0360669Y0621328D02*
X0366269Y0621328D01*
X0366269Y0662194D02*
X0360669Y0662194D01*
X0360669Y0672194D02*
X0366269Y0672194D01*
X0366269Y0682194D02*
X0360669Y0682194D01*
X0360669Y0692194D02*
X0366269Y0692194D01*
X0307686Y0689831D02*
X0302086Y0689831D01*
X0302086Y0679831D02*
X0307686Y0679831D01*
X0307686Y0669831D02*
X0302086Y0669831D01*
X0302086Y0659831D02*
X0307686Y0659831D01*
X0277686Y0659831D02*
X0272086Y0659831D01*
X0272086Y0669831D02*
X0277686Y0669831D01*
X0277686Y0679831D02*
X0272086Y0679831D01*
X0272086Y0689831D02*
X0277686Y0689831D01*
X0234851Y0689044D02*
X0229251Y0689044D01*
X0229251Y0679044D02*
X0234851Y0679044D01*
X0234851Y0669044D02*
X0229251Y0669044D01*
X0229251Y0659044D02*
X0234851Y0659044D01*
X0234851Y0618178D02*
X0229251Y0618178D01*
X0229251Y0608178D02*
X0234851Y0608178D01*
X0234851Y0598178D02*
X0229251Y0598178D01*
X0229251Y0588178D02*
X0234851Y0588178D01*
X0234851Y0547312D02*
X0229251Y0547312D01*
X0229251Y0537312D02*
X0234851Y0537312D01*
X0234851Y0527312D02*
X0229251Y0527312D01*
X0229251Y0517312D02*
X0234851Y0517312D01*
X0204851Y0517312D02*
X0199251Y0517312D01*
X0199251Y0527312D02*
X0204851Y0527312D01*
X0204851Y0537312D02*
X0199251Y0537312D01*
X0199251Y0547312D02*
X0204851Y0547312D01*
X0204851Y0588178D02*
X0199251Y0588178D01*
X0199251Y0598178D02*
X0204851Y0598178D01*
X0204851Y0608178D02*
X0199251Y0608178D01*
X0199251Y0618178D02*
X0204851Y0618178D01*
X0204851Y0659044D02*
X0199251Y0659044D01*
X0199251Y0669044D02*
X0204851Y0669044D01*
X0204851Y0679044D02*
X0199251Y0679044D01*
X0199251Y0689044D02*
X0204851Y0689044D01*
X0272086Y0618965D02*
X0277686Y0618965D01*
X0277686Y0608965D02*
X0272086Y0608965D01*
X0272086Y0598965D02*
X0277686Y0598965D01*
X0277686Y0588965D02*
X0272086Y0588965D01*
X0272086Y0548099D02*
X0277686Y0548099D01*
X0277686Y0538099D02*
X0272086Y0538099D01*
X0272086Y0528099D02*
X0277686Y0528099D01*
X0277686Y0518099D02*
X0272086Y0518099D01*
X0302086Y0518099D02*
X0307686Y0518099D01*
X0307686Y0528099D02*
X0302086Y0528099D01*
X0302086Y0538099D02*
X0307686Y0538099D01*
X0307686Y0548099D02*
X0302086Y0548099D01*
X0302086Y0588965D02*
X0307686Y0588965D01*
X0307686Y0598965D02*
X0302086Y0598965D01*
X0302086Y0608965D02*
X0307686Y0608965D01*
X0307686Y0618965D02*
X0302086Y0618965D01*
X0302086Y0327627D02*
X0307686Y0327627D01*
X0307686Y0317627D02*
X0302086Y0317627D01*
X0302086Y0307627D02*
X0307686Y0307627D01*
X0307686Y0297627D02*
X0302086Y0297627D01*
X0277686Y0297627D02*
X0272086Y0297627D01*
X0272086Y0307627D02*
X0277686Y0307627D01*
X0277686Y0317627D02*
X0272086Y0317627D01*
X0272086Y0327627D02*
X0277686Y0327627D01*
X0234851Y0326839D02*
X0229251Y0326839D01*
X0229251Y0316839D02*
X0234851Y0316839D01*
X0234851Y0306839D02*
X0229251Y0306839D01*
X0229251Y0296839D02*
X0234851Y0296839D01*
X0234851Y0255973D02*
X0229251Y0255973D01*
X0229251Y0245973D02*
X0234851Y0245973D01*
X0234851Y0235973D02*
X0229251Y0235973D01*
X0229251Y0225973D02*
X0234851Y0225973D01*
X0234851Y0185107D02*
X0229251Y0185107D01*
X0229251Y0175107D02*
X0234851Y0175107D01*
X0234851Y0165107D02*
X0229251Y0165107D01*
X0229251Y0155107D02*
X0234851Y0155107D01*
X0204851Y0155107D02*
X0199251Y0155107D01*
X0199251Y0165107D02*
X0204851Y0165107D01*
X0204851Y0175107D02*
X0199251Y0175107D01*
X0199251Y0185107D02*
X0204851Y0185107D01*
X0204851Y0225973D02*
X0199251Y0225973D01*
X0199251Y0235973D02*
X0204851Y0235973D01*
X0204851Y0245973D02*
X0199251Y0245973D01*
X0199251Y0255973D02*
X0204851Y0255973D01*
X0204851Y0296839D02*
X0199251Y0296839D01*
X0199251Y0306839D02*
X0204851Y0306839D01*
X0204851Y0316839D02*
X0199251Y0316839D01*
X0199251Y0326839D02*
X0204851Y0326839D01*
X0272086Y0256761D02*
X0277686Y0256761D01*
X0277686Y0246761D02*
X0272086Y0246761D01*
X0272086Y0236761D02*
X0277686Y0236761D01*
X0277686Y0226761D02*
X0272086Y0226761D01*
X0272086Y0185894D02*
X0277686Y0185894D01*
X0277686Y0175894D02*
X0272086Y0175894D01*
X0272086Y0165894D02*
X0277686Y0165894D01*
X0277686Y0155894D02*
X0272086Y0155894D01*
X0302086Y0155894D02*
X0307686Y0155894D01*
X0307686Y0165894D02*
X0302086Y0165894D01*
X0302086Y0175894D02*
X0307686Y0175894D01*
X0307686Y0185894D02*
X0302086Y0185894D01*
X0302086Y0226761D02*
X0307686Y0226761D01*
X0307686Y0236761D02*
X0302086Y0236761D01*
X0302086Y0246761D02*
X0307686Y0246761D01*
X0307686Y0256761D02*
X0302086Y0256761D01*
X0360669Y0259123D02*
X0366269Y0259123D01*
X0366269Y0249123D02*
X0360669Y0249123D01*
X0360669Y0239123D02*
X0366269Y0239123D01*
X0366269Y0229123D02*
X0360669Y0229123D01*
X0360669Y0188257D02*
X0366269Y0188257D01*
X0366269Y0178257D02*
X0360669Y0178257D01*
X0360669Y0168257D02*
X0366269Y0168257D01*
X0366269Y0158257D02*
X0360669Y0158257D01*
X0390669Y0158257D02*
X0396269Y0158257D01*
X0396269Y0168257D02*
X0390669Y0168257D01*
X0390669Y0178257D02*
X0396269Y0178257D01*
X0396269Y0188257D02*
X0390669Y0188257D01*
X0390669Y0229123D02*
X0396269Y0229123D01*
X0396269Y0239123D02*
X0390669Y0239123D01*
X0390669Y0249123D02*
X0396269Y0249123D01*
X0396269Y0259123D02*
X0390669Y0259123D01*
X0390669Y0299989D02*
X0396269Y0299989D01*
X0396269Y0309989D02*
X0390669Y0309989D01*
X0390669Y0319989D02*
X0396269Y0319989D01*
X0396269Y0329989D02*
X0390669Y0329989D01*
X0366269Y0329989D02*
X0360669Y0329989D01*
X0360669Y0319989D02*
X0366269Y0319989D01*
X0366269Y0309989D02*
X0360669Y0309989D01*
X0360669Y0299989D02*
X0366269Y0299989D01*
D17*
X0301303Y0421091D03*
X0301303Y0427784D03*
X0172760Y0425619D03*
X0172760Y0432312D03*
X0132799Y0425343D03*
X0132799Y0418650D03*
X0132012Y0409438D03*
X0132012Y0402745D03*
X0133390Y0392942D03*
X0133390Y0386249D03*
X0129453Y0453178D03*
X0129453Y0459871D03*
D18*
X0147287Y0512706D03*
X0167287Y0512706D03*
X0157287Y0552706D03*
X0147287Y0583572D03*
X0167287Y0583572D03*
X0157287Y0623572D03*
X0147287Y0654438D03*
X0167287Y0654438D03*
X0157287Y0694438D03*
X0157287Y0332233D03*
X0147287Y0292233D03*
X0167287Y0292233D03*
X0157287Y0261367D03*
X0147287Y0221367D03*
X0167287Y0221367D03*
X0157287Y0190501D03*
X0147287Y0150501D03*
X0167287Y0150501D03*
D19*
X0127366Y0180658D03*
X0127366Y0251524D03*
X0127366Y0322391D03*
X0077012Y0342706D03*
X0077012Y0271839D03*
X0077012Y0200973D03*
X0148587Y0409989D03*
X0105280Y0416209D03*
X0127366Y0542863D03*
X0127366Y0613729D03*
X0127366Y0684595D03*
X0077012Y0704910D03*
X0077012Y0634044D03*
X0077012Y0563178D03*
X0239335Y0568769D03*
X0239335Y0497902D03*
X0265004Y0421131D03*
X0309571Y0503808D03*
X0316815Y0523493D03*
X0309571Y0574674D03*
X0316815Y0594359D03*
X0309571Y0645540D03*
X0316815Y0665225D03*
X0239335Y0639635D03*
X0386933Y0447036D03*
X0386500Y0417509D03*
X0387366Y0389950D03*
X0316815Y0303020D03*
X0309571Y0283335D03*
X0316815Y0232154D03*
X0309571Y0212469D03*
X0316815Y0161288D03*
X0309571Y0141603D03*
X0239335Y0135698D03*
X0239335Y0206564D03*
X0239335Y0277430D03*
D20*
X0242915Y0416401D03*
X0242915Y0419001D03*
X0242915Y0421501D03*
X0242915Y0424101D03*
X0242915Y0426701D03*
X0242915Y0429201D03*
X0242915Y0431801D03*
X0242915Y0434301D03*
X0242915Y0436901D03*
X0242915Y0439501D03*
X0242915Y0442001D03*
X0242915Y0444601D03*
X0220715Y0444601D03*
X0220715Y0442001D03*
X0220715Y0439501D03*
X0220715Y0436901D03*
X0220715Y0434301D03*
X0220715Y0431801D03*
X0220715Y0429201D03*
X0220715Y0426701D03*
X0220715Y0424101D03*
X0220715Y0421501D03*
X0220715Y0419001D03*
X0220715Y0416401D03*
D21*
X0090673Y0411433D03*
X0090673Y0400633D03*
X0080673Y0406033D03*
X0080673Y0416833D03*
X0080673Y0427633D03*
X0080673Y0438433D03*
X0090673Y0433033D03*
X0090673Y0422233D03*
X0090673Y0443833D03*
D22*
X0085673Y0471533D03*
X0085673Y0372933D03*
D23*
X0128075Y0442745D03*
X0134768Y0442745D03*
X0141854Y0369910D03*
X0148547Y0369910D03*
D24*
X0062524Y0157312D03*
X0062524Y0184871D03*
X0089098Y0177981D03*
X0095988Y0159280D03*
X0105831Y0165186D03*
X0113705Y0161249D03*
X0121579Y0172076D03*
X0133390Y0190776D03*
X0137327Y0155343D03*
X0172760Y0157312D03*
X0184571Y0200619D03*
X0172760Y0228178D03*
X0184571Y0271485D03*
X0172760Y0299044D03*
X0172760Y0336446D03*
X0184571Y0342351D03*
X0176697Y0371879D03*
X0184571Y0393532D03*
X0184571Y0421091D03*
X0198350Y0426997D03*
X0206224Y0430934D03*
X0192445Y0444713D03*
X0198350Y0468335D03*
X0184571Y0472272D03*
X0166854Y0472272D03*
X0184571Y0493926D03*
X0198350Y0495894D03*
X0172760Y0519517D03*
X0184571Y0562824D03*
X0172760Y0590383D03*
X0184571Y0633690D03*
X0172760Y0661249D03*
X0184571Y0704556D03*
X0210161Y0704556D03*
X0247563Y0684871D03*
X0247563Y0659280D03*
X0247563Y0614005D03*
X0247563Y0588414D03*
X0247563Y0543139D03*
X0247563Y0517548D03*
X0281028Y0560855D03*
X0316461Y0584477D03*
X0281028Y0631721D03*
X0316461Y0655343D03*
X0281028Y0702587D03*
X0210161Y0633690D03*
X0210161Y0562824D03*
X0137327Y0588414D03*
X0121579Y0605146D03*
X0113705Y0594320D03*
X0105831Y0598257D03*
X0095988Y0592351D03*
X0089098Y0611052D03*
X0062524Y0617942D03*
X0062524Y0590383D03*
X0062524Y0547076D03*
X0062524Y0519517D03*
X0089098Y0540186D03*
X0095988Y0521485D03*
X0105831Y0527391D03*
X0113705Y0523454D03*
X0121579Y0534280D03*
X0133390Y0552981D03*
X0137327Y0517548D03*
X0113705Y0489989D03*
X0113705Y0478178D03*
X0105831Y0476209D03*
X0105831Y0501800D03*
X0137327Y0452587D03*
X0141264Y0442745D03*
X0141264Y0425028D03*
X0139295Y0401406D03*
X0141264Y0385658D03*
X0155043Y0369910D03*
X0147169Y0348257D03*
X0133390Y0332509D03*
X0121579Y0313808D03*
X0113705Y0302981D03*
X0105831Y0306918D03*
X0095988Y0301013D03*
X0089098Y0319713D03*
X0105831Y0354162D03*
X0113705Y0354162D03*
X0113705Y0365973D03*
X0105831Y0365973D03*
X0121579Y0401406D03*
X0166854Y0415186D03*
X0212130Y0407312D03*
X0223941Y0393532D03*
X0223941Y0377784D03*
X0235752Y0369910D03*
X0235752Y0352194D03*
X0247563Y0322666D03*
X0247563Y0297076D03*
X0247563Y0251800D03*
X0247563Y0226209D03*
X0247563Y0180934D03*
X0247563Y0155343D03*
X0281028Y0198650D03*
X0316461Y0222272D03*
X0281028Y0269517D03*
X0316461Y0293139D03*
X0281028Y0340383D03*
X0241657Y0401406D03*
X0249531Y0436839D03*
X0233783Y0450619D03*
X0227878Y0441761D03*
X0275201Y0432981D03*
X0284965Y0413217D03*
X0316461Y0513611D03*
X0367642Y0566761D03*
X0379453Y0537233D03*
X0408980Y0511643D03*
X0408980Y0582509D03*
X0379453Y0608099D03*
X0367642Y0637627D03*
X0379453Y0678965D03*
X0367642Y0708493D03*
X0408980Y0653375D03*
X0367642Y0346288D03*
X0379453Y0316761D03*
X0367642Y0275422D03*
X0379453Y0245894D03*
X0408980Y0220304D03*
X0379453Y0175028D03*
X0367642Y0204556D03*
X0408980Y0149438D03*
X0316461Y0151406D03*
X0408980Y0291170D03*
X0210161Y0271485D03*
X0210161Y0200619D03*
X0137327Y0226209D03*
X0121579Y0242942D03*
X0113705Y0232115D03*
X0105831Y0236052D03*
X0095988Y0230146D03*
X0089098Y0248847D03*
X0062524Y0255737D03*
X0062524Y0228178D03*
X0062524Y0299044D03*
X0062524Y0326603D03*
X0133390Y0261643D03*
X0137327Y0297076D03*
X0210161Y0342351D03*
X0133390Y0623847D03*
X0137327Y0659280D03*
X0121579Y0676013D03*
X0113705Y0665186D03*
X0105831Y0669123D03*
X0095988Y0663217D03*
X0089098Y0681918D03*
X0062524Y0688808D03*
X0062524Y0661249D03*
X0133390Y0694713D03*
M02*
