%
M48
M72
T01C0.02362
T02C0.03200
T03C0.04000
T04C0.13000
%
T01
X41757Y322269
X44906Y322269
X48056Y322269
X51206Y322269
X54355Y322269
X57505Y322269
X60654Y322269
X63804Y322269
X66954Y322269
X70103Y322269
X73253Y322269
X76402Y322269
X79552Y322269
X82702Y322269
X85851Y322269
X89001Y322269
X92150Y322269
X95300Y322269
X98450Y322269
X101599Y322269
X104749Y322269
X107898Y322269
X111048Y322269
X114198Y322269
X117347Y322269
X120497Y322269
X123646Y322269
X126796Y322269
X129946Y322269
X133095Y322269
X136245Y322269
X139394Y322269
X142544Y322269
X145694Y322269
X148843Y322269
X151993Y322269
X155143Y322269
X158292Y322269
X161442Y322269
X164591Y322269
X167741Y322269
X170891Y322269
X174040Y322269
X177190Y322269
X180339Y322269
X183489Y322269
X186639Y322269
X189788Y322269
X192938Y322269
X196087Y322269
X199237Y322269
X202387Y322269
X205536Y322269
X208686Y322269
X211835Y322269
X214985Y322269
X218135Y322269
X221284Y322269
X224434Y322269
X227583Y322269
X230733Y322269
X233883Y322269
X237032Y322269
X240182Y322269
X243331Y322269
X246481Y322269
X249631Y322269
X252780Y322269
X255930Y322269
X259080Y322269
X262229Y322269
X265379Y322269
X268528Y322269
X271678Y322269
X274828Y322269
X277977Y322269
X281127Y322269
X284276Y322269
X287426Y322269
X290576Y322269
X293725Y322269
X296875Y322269
X300024Y322269
X303174Y322269
X306324Y322269
X309473Y322269
X312623Y322269
X315772Y322269
X318922Y322269
X322072Y322269
X325221Y322269
X328371Y322269
X331520Y322269
X334670Y322269
X337820Y322269
X340969Y322269
X344119Y322269
X347269Y322269
X350418Y322269
X353568Y322269
X356717Y322269
X359867Y322269
X363017Y322269
X366166Y322269
X369316Y322269
X372465Y322269
X375615Y322269
X378765Y322269
X381914Y322269
X385064Y322269
X388213Y322269
X391363Y322269
X394513Y322269
X397662Y322269
X400812Y322269
X403961Y322269
X407111Y322269
X410261Y322269
X413410Y322269
X416560Y322269
X419709Y322269
X422859Y322269
X426009Y322269
X429158Y322269
X350418Y326206
X350418Y329355
X350418Y332505
X350418Y335654
X350418Y338804
X350418Y341954
X350418Y345103
X350418Y348253
X350418Y351402
X350418Y354552
X350418Y357702
X350418Y360851
X350418Y364001
X350418Y367150
X350418Y370300
X350418Y373450
X350418Y376599
X350418Y379749
X350418Y382898
X350418Y386048
X350418Y389198
X350418Y392347
X350418Y395497
X350418Y398646
X350418Y401796
X350418Y404946
X350418Y408095
X350418Y411245
X350418Y414394
X350418Y417544
X350418Y420694
X350418Y423843
X350418Y426993
X350418Y430143
X350418Y433292
X350418Y436442
X292741Y417741
X295694Y355733
X192938Y354552
X192938Y357702
X192938Y360851
X192938Y364001
X192938Y367150
X192938Y370300
X192938Y373450
X192938Y376599
X192938Y379749
X192938Y382898
X192938Y386048
X192938Y389198
X192938Y392347
X192938Y395497
X192938Y398646
X192938Y401796
X192938Y404946
X192938Y408095
X192938Y411245
X192938Y414394
X192938Y417544
X192938Y420694
X192938Y423843
X192938Y426993
X192938Y430143
X192938Y433292
X192938Y436442
X135261Y417741
X138213Y355733
X192938Y351402
X192938Y348253
X192938Y345103
X192938Y341954
X192938Y338804
X192938Y335654
X192938Y332505
X192938Y329355
X192938Y326206
T02
X255657Y341965
X275257Y341965
X275257Y365565
X255657Y365565
X255657Y400075
X275257Y400075
X275257Y423675
X255657Y423675
X117777Y423675
X98177Y423675
X98177Y400075
X117777Y400075
X117777Y365565
X98177Y365565
X98177Y341965
X117777Y341965
T03
X75300Y280305
X75300Y269505
X65300Y274905
X65300Y264005
X65300Y253205
X75300Y258605
X75300Y247705
X65300Y242305
X65300Y231405
X75300Y226005
X75300Y236905
X65300Y220505
X65300Y209705
X65300Y198805
X75300Y204205
X75300Y215105
X75300Y193405
X75300Y182505
X65300Y187905
X65300Y177105
X75300Y171605
X75300Y160805
X65300Y166205
X65300Y155305
X75300Y149905
X75300Y139005
X75300Y128205
X65300Y133605
X65300Y144505
X65300Y122705
X65300Y111905
X75300Y117305
X75300Y106405
X65300Y101005
X65300Y90105
X75300Y84705
X75300Y95605
X139823Y75300
X150623Y75300
X161523Y75300
X172423Y75300
X183223Y75300
X194123Y75300
X205023Y75300
X215923Y75300
X226723Y75300
X237623Y75300
X248523Y75300
X259323Y75300
X270223Y75300
X281123Y75300
X291923Y75300
X302823Y75300
X313723Y75300
X324523Y75300
X335423Y75300
X330023Y65300
X319123Y65300
X308223Y65300
X297423Y65300
X286523Y65300
X275623Y65300
X264823Y65300
X253923Y65300
X243023Y65300
X232223Y65300
X221323Y65300
X210423Y65300
X199623Y65300
X188723Y65300
X177823Y65300
X166923Y65300
X156123Y65300
X145223Y65300
X396009Y85689
X396009Y96489
X406009Y91089
X406009Y101989
X406009Y112789
X396009Y107389
X396009Y118289
X406009Y123689
X406009Y134589
X406009Y145389
X396009Y139989
X396009Y129089
X396009Y150889
X396009Y161789
X406009Y167189
X406009Y156289
X396009Y172589
X396009Y183489
X406009Y188889
X406009Y178089
X396009Y194389
X396009Y205189
X396009Y216089
X406009Y221489
X406009Y232389
X396009Y237789
X396009Y226989
X406009Y243289
X406009Y254089
X396009Y248689
X396009Y259589
X406009Y264989
X406009Y275889
X396009Y281289
X396009Y270389
X406009Y210689
X406009Y199789
T04
X70300Y57505
X112623Y70300
X362623Y70300
X401009Y58489
X401009Y308489
X70300Y307505
M30
