G75*
%MOIN*%
%OFA0B0*%
%FSLAX25Y25*%
%IPPOS*%
%LPD*%
%AMOC8*
5,1,8,0,0,1.08239X$1,22.5*
%
%ADD10OC8,0.05200*%
%ADD11OC8,0.06000*%
%ADD12C,0.20000*%
%ADD13C,0.03200*%
%ADD14R,0.04362X0.04362*%
%ADD15C,0.01600*%
D10*
X0098177Y0341965D03*
X0117777Y0341965D03*
X0117777Y0365565D03*
X0098177Y0365565D03*
X0098177Y0400075D03*
X0117777Y0400075D03*
X0117777Y0423675D03*
X0098177Y0423675D03*
X0255657Y0423675D03*
X0275257Y0423675D03*
X0275257Y0400075D03*
X0255657Y0400075D03*
X0255657Y0365565D03*
X0275257Y0365565D03*
X0275257Y0341965D03*
X0255657Y0341965D03*
D11*
X0396009Y0281289D03*
X0396009Y0270389D03*
X0406009Y0264989D03*
X0406009Y0275889D03*
X0396009Y0259589D03*
X0396009Y0248689D03*
X0406009Y0254089D03*
X0406009Y0243289D03*
X0396009Y0237789D03*
X0396009Y0226989D03*
X0406009Y0232389D03*
X0406009Y0221489D03*
X0396009Y0216089D03*
X0396009Y0205189D03*
X0396009Y0194389D03*
X0406009Y0199789D03*
X0406009Y0210689D03*
X0406009Y0188889D03*
X0406009Y0178089D03*
X0396009Y0183489D03*
X0396009Y0172589D03*
X0406009Y0167189D03*
X0406009Y0156289D03*
X0396009Y0150889D03*
X0396009Y0161789D03*
X0406009Y0145389D03*
X0406009Y0134589D03*
X0406009Y0123689D03*
X0396009Y0129089D03*
X0396009Y0139989D03*
X0396009Y0118289D03*
X0396009Y0107389D03*
X0406009Y0112789D03*
X0406009Y0101989D03*
X0396009Y0096489D03*
X0396009Y0085689D03*
X0406009Y0091089D03*
X0335423Y0075300D03*
X0324523Y0075300D03*
X0313723Y0075300D03*
X0302823Y0075300D03*
X0291923Y0075300D03*
X0281123Y0075300D03*
X0270223Y0075300D03*
X0259323Y0075300D03*
X0248523Y0075300D03*
X0237623Y0075300D03*
X0226723Y0075300D03*
X0215923Y0075300D03*
X0205023Y0075300D03*
X0194123Y0075300D03*
X0183223Y0075300D03*
X0172423Y0075300D03*
X0161523Y0075300D03*
X0150623Y0075300D03*
X0139823Y0075300D03*
X0145223Y0065300D03*
X0156123Y0065300D03*
X0166923Y0065300D03*
X0177823Y0065300D03*
X0188723Y0065300D03*
X0199623Y0065300D03*
X0210423Y0065300D03*
X0221323Y0065300D03*
X0232223Y0065300D03*
X0243023Y0065300D03*
X0253923Y0065300D03*
X0264823Y0065300D03*
X0275623Y0065300D03*
X0286523Y0065300D03*
X0297423Y0065300D03*
X0308223Y0065300D03*
X0319123Y0065300D03*
X0330023Y0065300D03*
X0075300Y0084705D03*
X0075300Y0095605D03*
X0065300Y0101005D03*
X0065300Y0090105D03*
X0075300Y0106405D03*
X0075300Y0117305D03*
X0065300Y0122705D03*
X0065300Y0111905D03*
X0075300Y0128205D03*
X0075300Y0139005D03*
X0075300Y0149905D03*
X0065300Y0155305D03*
X0065300Y0166205D03*
X0075300Y0171605D03*
X0075300Y0160805D03*
X0065300Y0177105D03*
X0065300Y0187905D03*
X0075300Y0182505D03*
X0075300Y0193405D03*
X0065300Y0198805D03*
X0065300Y0209705D03*
X0065300Y0220505D03*
X0075300Y0215105D03*
X0075300Y0204205D03*
X0075300Y0226005D03*
X0075300Y0236905D03*
X0065300Y0242305D03*
X0065300Y0231405D03*
X0075300Y0247705D03*
X0075300Y0258605D03*
X0065300Y0264005D03*
X0065300Y0253205D03*
X0075300Y0269505D03*
X0075300Y0280305D03*
X0065300Y0274905D03*
X0065300Y0144505D03*
X0065300Y0133605D03*
D12*
X0070300Y0057505D03*
X0112623Y0070300D03*
X0362623Y0070300D03*
X0401009Y0058489D03*
X0401009Y0308489D03*
X0070300Y0307505D03*
D13*
X0117777Y0341965D02*
X0117777Y0342187D01*
X0131324Y0355733D01*
X0138213Y0355733D01*
X0117777Y0400075D02*
X0117777Y0400257D01*
X0135261Y0417741D01*
X0275257Y0400257D02*
X0292741Y0417741D01*
X0275257Y0400257D02*
X0275257Y0400075D01*
X0288804Y0355733D02*
X0295694Y0355733D01*
X0288804Y0355733D02*
X0275257Y0342187D01*
X0275257Y0341965D01*
D14*
X0295694Y0355733D03*
X0292741Y0417741D03*
X0138213Y0355733D03*
X0135261Y0417741D03*
D15*
X0145462Y0281289D02*
X0396009Y0281289D01*
X0396009Y0270389D02*
X0157200Y0270389D01*
X0151009Y0264198D01*
X0151009Y0075686D01*
X0150623Y0075300D01*
X0139823Y0075300D02*
X0139198Y0075925D01*
X0139198Y0275024D01*
X0145462Y0281289D01*
X0151873Y0275889D02*
X0406009Y0275889D01*
X0406009Y0264989D02*
X0161643Y0264989D01*
X0155930Y0259276D01*
X0155930Y0065493D01*
X0156123Y0065300D01*
X0166757Y0065466D02*
X0166757Y0250418D01*
X0170428Y0254089D01*
X0406009Y0254089D01*
X0406009Y0243289D02*
X0184234Y0243289D01*
X0177583Y0236639D01*
X0177583Y0065539D01*
X0177823Y0065300D01*
X0188410Y0065613D02*
X0188410Y0222859D01*
X0197940Y0232389D01*
X0406009Y0232389D01*
X0406009Y0221489D02*
X0403974Y0221489D01*
X0403968Y0221483D01*
X0206719Y0221483D01*
X0199237Y0214001D01*
X0199237Y0065686D01*
X0199623Y0065300D01*
X0210423Y0065300D02*
X0211048Y0065925D01*
X0211048Y0204158D01*
X0217579Y0210689D01*
X0406009Y0210689D01*
X0406009Y0199789D02*
X0230301Y0199789D01*
X0220891Y0190379D01*
X0220891Y0065732D01*
X0221323Y0065300D01*
X0232223Y0065300D02*
X0232702Y0065779D01*
X0232702Y0181520D01*
X0240070Y0188889D01*
X0406009Y0188889D01*
X0406009Y0178089D02*
X0250924Y0178089D01*
X0242544Y0169709D01*
X0242544Y0065779D01*
X0243023Y0065300D01*
X0253923Y0065300D02*
X0254355Y0065732D01*
X0254355Y0158883D01*
X0262661Y0167189D01*
X0406009Y0167189D01*
X0406009Y0156289D02*
X0270462Y0156289D01*
X0265182Y0151009D01*
X0265182Y0065659D01*
X0264823Y0065300D01*
X0275623Y0065300D02*
X0276009Y0065686D01*
X0276009Y0140182D01*
X0281216Y0145389D01*
X0406009Y0145389D01*
X0406009Y0134589D02*
X0292069Y0134589D01*
X0286835Y0129355D01*
X0286835Y0065613D01*
X0286523Y0065300D01*
X0297423Y0065300D02*
X0297662Y0065539D01*
X0297662Y0118528D01*
X0302823Y0123689D01*
X0406009Y0123689D01*
X0396009Y0129089D02*
X0298380Y0129089D01*
X0292741Y0123450D01*
X0292741Y0076118D01*
X0291923Y0075300D01*
X0281123Y0075300D02*
X0280930Y0075493D01*
X0280930Y0133292D01*
X0287627Y0139989D01*
X0396009Y0139989D01*
X0396009Y0150889D02*
X0275889Y0150889D01*
X0270103Y0145103D01*
X0270103Y0075420D01*
X0270223Y0075300D01*
X0259323Y0075300D02*
X0259276Y0075346D01*
X0259276Y0154946D01*
X0266120Y0161789D01*
X0396009Y0161789D01*
X0396009Y0172589D02*
X0259203Y0172589D01*
X0248450Y0161835D01*
X0248450Y0075373D01*
X0248523Y0075300D01*
X0237623Y0075300D02*
X0237623Y0174631D01*
X0246481Y0183489D01*
X0396009Y0183489D01*
X0396009Y0194389D02*
X0234743Y0194389D01*
X0226796Y0186442D01*
X0226796Y0075373D01*
X0226723Y0075300D01*
X0215969Y0075346D02*
X0215969Y0198253D01*
X0222906Y0205189D01*
X0396009Y0205189D01*
X0396009Y0216089D02*
X0212152Y0216089D01*
X0205143Y0209080D01*
X0205143Y0075420D01*
X0205023Y0075300D01*
X0194316Y0075493D02*
X0194316Y0219906D01*
X0201398Y0226989D01*
X0396009Y0226989D01*
X0396009Y0237789D02*
X0191529Y0237789D01*
X0183489Y0229749D01*
X0183489Y0075566D01*
X0183223Y0075300D01*
X0172662Y0075539D02*
X0172662Y0241560D01*
X0179791Y0248689D01*
X0396009Y0248689D01*
X0396009Y0259589D02*
X0165101Y0259589D01*
X0161835Y0256324D01*
X0161835Y0075613D01*
X0161523Y0075300D01*
X0172423Y0075300D02*
X0172662Y0075539D01*
X0166757Y0065466D02*
X0166923Y0065300D01*
X0188410Y0065613D02*
X0188723Y0065300D01*
X0194123Y0075300D02*
X0194316Y0075493D01*
X0215923Y0075300D02*
X0215969Y0075346D01*
X0145223Y0065300D02*
X0145103Y0065420D01*
X0145103Y0269119D01*
X0151873Y0275889D01*
X0308250Y0118289D02*
X0396009Y0118289D01*
X0396009Y0107389D02*
X0319003Y0107389D01*
X0314394Y0102780D01*
X0314394Y0075972D01*
X0313723Y0075300D01*
X0303568Y0076045D02*
X0303568Y0113607D01*
X0308250Y0118289D01*
X0315545Y0112789D02*
X0406009Y0112789D01*
X0406009Y0101989D02*
X0324430Y0101989D01*
X0319316Y0096875D01*
X0319316Y0065493D01*
X0319123Y0065300D01*
X0308489Y0065566D02*
X0308489Y0105733D01*
X0315545Y0112789D01*
X0329757Y0096489D02*
X0396009Y0096489D01*
X0403964Y0091083D02*
X0403970Y0091089D01*
X0406009Y0091089D01*
X0403964Y0091083D02*
X0338130Y0091083D01*
X0330143Y0083095D01*
X0330143Y0065420D01*
X0330023Y0065300D01*
X0335423Y0075300D02*
X0345812Y0085689D01*
X0396009Y0085689D01*
X0329757Y0096489D02*
X0325221Y0091954D01*
X0325221Y0075998D01*
X0324523Y0075300D01*
X0308489Y0065566D02*
X0308223Y0065300D01*
X0302823Y0075300D02*
X0303568Y0076045D01*
M02*
