G75*
%MOIN*%
%OFA0B0*%
%FSLAX25Y25*%
%IPPOS*%
%LPD*%
%AMOC8*
5,1,8,0,0,1.08239X$1,22.5*
%
%ADD10C,0.08268*%
%ADD11C,0.06000*%
%ADD12C,0.17000*%
%ADD13C,0.05200*%
%ADD14C,0.03575*%
%ADD15C,0.00787*%
D10*
X0183595Y0070933D03*
X0215595Y0070933D03*
X0247095Y0070933D03*
X0257595Y0122433D03*
X0307595Y0122433D03*
X0357595Y0122433D03*
X0407595Y0122433D03*
X0457595Y0122433D03*
X0507595Y0122433D03*
X0557095Y0122433D03*
X0557595Y0172433D03*
X0507595Y0172433D03*
X0457595Y0172433D03*
X0407595Y0172433D03*
X0357595Y0172433D03*
X0307595Y0172433D03*
X0257595Y0172433D03*
X0207595Y0172433D03*
X0207595Y0122433D03*
X0207595Y0222433D03*
X0257595Y0222433D03*
X0307595Y0222433D03*
X0357595Y0222433D03*
X0407595Y0222433D03*
X0457595Y0222433D03*
X0507595Y0222433D03*
X0557595Y0222433D03*
X0557595Y0272433D03*
X0507595Y0272433D03*
X0457595Y0272433D03*
X0407595Y0272433D03*
X0357595Y0272433D03*
X0307595Y0272433D03*
X0257595Y0272433D03*
X0207595Y0272433D03*
D11*
X0145095Y0269433D03*
X0135095Y0274833D03*
X0135095Y0263933D03*
X0145095Y0258533D03*
X0135095Y0253133D03*
X0145095Y0247633D03*
X0135095Y0242233D03*
X0145095Y0236833D03*
X0135095Y0231333D03*
X0145095Y0225933D03*
X0135095Y0220533D03*
X0145095Y0215033D03*
X0135095Y0209633D03*
X0145095Y0204133D03*
X0135095Y0198733D03*
X0145095Y0193333D03*
X0135095Y0187833D03*
X0145095Y0182433D03*
X0135095Y0177033D03*
X0145095Y0171533D03*
X0135095Y0166133D03*
X0145095Y0160733D03*
X0135095Y0155233D03*
X0145095Y0149833D03*
X0135095Y0144433D03*
X0145095Y0138933D03*
X0135095Y0133533D03*
X0145095Y0128133D03*
X0135095Y0122633D03*
X0145095Y0117233D03*
X0135095Y0111833D03*
X0145095Y0106333D03*
X0135095Y0100933D03*
X0145095Y0095533D03*
X0135095Y0090033D03*
X0145095Y0084633D03*
X0371095Y0062933D03*
X0381095Y0062933D03*
X0437595Y0068433D03*
X0437595Y0078433D03*
X0798595Y0083133D03*
X0808595Y0088533D03*
X0798595Y0093933D03*
X0808595Y0099433D03*
X0808595Y0110233D03*
X0798595Y0104833D03*
X0798595Y0115733D03*
X0808595Y0121133D03*
X0798595Y0126533D03*
X0798595Y0137433D03*
X0808595Y0132033D03*
X0808595Y0142933D03*
X0798595Y0148333D03*
X0808595Y0153733D03*
X0798595Y0159233D03*
X0808595Y0164633D03*
X0808595Y0175533D03*
X0798595Y0180933D03*
X0808595Y0186333D03*
X0798595Y0191833D03*
X0808595Y0197233D03*
X0798595Y0202633D03*
X0798595Y0213533D03*
X0808595Y0208133D03*
X0808595Y0218933D03*
X0798595Y0224433D03*
X0808595Y0229833D03*
X0798595Y0235233D03*
X0808595Y0240733D03*
X0808595Y0251533D03*
X0798595Y0246133D03*
X0798595Y0257033D03*
X0808595Y0262433D03*
X0798595Y0267833D03*
X0798595Y0278733D03*
X0808595Y0273333D03*
X0798595Y0170033D03*
X0145095Y0280233D03*
D12*
X0140095Y0057433D03*
X0140095Y0307433D03*
X0803595Y0305933D03*
X0803595Y0055933D03*
D13*
X0485395Y0052633D03*
X0465795Y0052633D03*
X0465795Y0076233D03*
X0485395Y0076233D03*
D14*
X0515595Y0086933D03*
X0517595Y0081433D03*
X0566595Y0074433D03*
X0579595Y0083433D03*
X0573095Y0085933D03*
X0596595Y0085933D03*
X0596595Y0080933D03*
X0596095Y0070433D03*
X0600595Y0070433D03*
X0605095Y0070433D03*
X0609595Y0070433D03*
X0614095Y0070433D03*
X0626595Y0069933D03*
X0644095Y0083433D03*
X0660595Y0080933D03*
X0660595Y0085933D03*
X0660095Y0097433D03*
X0664595Y0097433D03*
X0669095Y0097433D03*
X0673595Y0097433D03*
X0678095Y0097433D03*
X0693595Y0100433D03*
X0672095Y0107933D03*
X0666095Y0113933D03*
X0660595Y0113433D03*
X0660595Y0108433D03*
X0649595Y0117933D03*
X0669095Y0124433D03*
X0669095Y0140433D03*
X0649595Y0145933D03*
X0660595Y0150933D03*
X0660595Y0155933D03*
X0668095Y0156433D03*
X0666595Y0150433D03*
X0664595Y0166433D03*
X0660095Y0166433D03*
X0669095Y0166433D03*
X0673595Y0166433D03*
X0678095Y0166433D03*
X0691095Y0166433D03*
X0703595Y0166433D03*
X0724095Y0166433D03*
X0728595Y0166433D03*
X0733095Y0166433D03*
X0737595Y0166433D03*
X0742095Y0166433D03*
X0755095Y0165433D03*
X0732095Y0156433D03*
X0730595Y0150433D03*
X0724595Y0151433D03*
X0724595Y0156433D03*
X0713595Y0146433D03*
X0721095Y0140433D03*
X0733095Y0140433D03*
X0765595Y0124433D03*
X0752095Y0120933D03*
X0778595Y0135433D03*
X0777595Y0140933D03*
X0771595Y0140933D03*
X0771595Y0145433D03*
X0778595Y0178433D03*
X0780095Y0188933D03*
X0785095Y0188933D03*
X0780095Y0196933D03*
X0780095Y0201433D03*
X0775595Y0207433D03*
X0777095Y0212933D03*
X0770595Y0226933D03*
X0766595Y0231433D03*
X0752095Y0230433D03*
X0742095Y0228433D03*
X0733095Y0220433D03*
X0716095Y0227433D03*
X0718595Y0231433D03*
X0725095Y0234433D03*
X0724595Y0239933D03*
X0732595Y0236433D03*
X0713095Y0242433D03*
X0724095Y0247433D03*
X0730095Y0246433D03*
X0731595Y0252433D03*
X0724095Y0252433D03*
X0723595Y0262433D03*
X0728095Y0262433D03*
X0732595Y0262433D03*
X0737095Y0262433D03*
X0741595Y0262433D03*
X0754595Y0260933D03*
X0789095Y0273933D03*
X0790095Y0289433D03*
X0757095Y0291933D03*
X0741595Y0289433D03*
X0737095Y0289433D03*
X0732595Y0289433D03*
X0728095Y0289433D03*
X0723595Y0289433D03*
X0724095Y0278433D03*
X0724095Y0273433D03*
X0707595Y0275933D03*
X0677595Y0289433D03*
X0673095Y0289433D03*
X0668595Y0289433D03*
X0664095Y0289433D03*
X0659595Y0289433D03*
X0659595Y0300933D03*
X0671595Y0299933D03*
X0665595Y0305933D03*
X0659595Y0305933D03*
X0648595Y0310433D03*
X0660095Y0314933D03*
X0668595Y0316433D03*
X0713095Y0309933D03*
X0718595Y0319433D03*
X0732595Y0316433D03*
X0729595Y0305933D03*
X0724095Y0305433D03*
X0724095Y0300433D03*
X0735595Y0299933D03*
X0693095Y0292433D03*
X0660095Y0277933D03*
X0660095Y0272933D03*
X0643095Y0275433D03*
X0635595Y0289433D03*
X0629095Y0292433D03*
X0613595Y0289433D03*
X0609095Y0289433D03*
X0604595Y0289433D03*
X0600095Y0289433D03*
X0595595Y0289433D03*
X0596095Y0278433D03*
X0596095Y0272933D03*
X0579095Y0275433D03*
X0595595Y0262433D03*
X0600095Y0262433D03*
X0604595Y0262433D03*
X0609095Y0262433D03*
X0613595Y0262433D03*
X0626595Y0261433D03*
X0603595Y0252433D03*
X0596095Y0251933D03*
X0596095Y0246933D03*
X0602095Y0246433D03*
X0585095Y0242433D03*
X0604595Y0236433D03*
X0605095Y0220433D03*
X0602095Y0209933D03*
X0596595Y0209433D03*
X0596595Y0204933D03*
X0608095Y0203933D03*
X0629595Y0196433D03*
X0614095Y0193433D03*
X0609595Y0193433D03*
X0605095Y0193433D03*
X0600595Y0193433D03*
X0596095Y0193433D03*
X0581595Y0192433D03*
X0578095Y0196433D03*
X0575595Y0206433D03*
X0585595Y0214433D03*
X0643095Y0239933D03*
X0649095Y0242433D03*
X0660095Y0246933D03*
X0660095Y0251933D03*
X0667595Y0252433D03*
X0666095Y0246433D03*
X0668595Y0236433D03*
X0669095Y0220433D03*
X0649595Y0213933D03*
X0660595Y0209433D03*
X0660595Y0204433D03*
X0666095Y0209933D03*
X0672095Y0203933D03*
X0673595Y0193433D03*
X0669095Y0193433D03*
X0664595Y0193433D03*
X0660095Y0193433D03*
X0678095Y0193433D03*
X0693595Y0196433D03*
X0700095Y0193433D03*
X0707595Y0179933D03*
X0724595Y0177433D03*
X0724595Y0182433D03*
X0724095Y0193433D03*
X0728595Y0193433D03*
X0733095Y0193433D03*
X0737595Y0193433D03*
X0742095Y0193433D03*
X0757595Y0196433D03*
X0736095Y0203933D03*
X0730095Y0209933D03*
X0724595Y0209433D03*
X0724595Y0204433D03*
X0713595Y0214433D03*
X0660595Y0182433D03*
X0660595Y0177433D03*
X0643595Y0179933D03*
X0627095Y0165433D03*
X0635095Y0162433D03*
X0614095Y0166433D03*
X0609595Y0166433D03*
X0605095Y0166433D03*
X0600595Y0166433D03*
X0596095Y0166433D03*
X0596595Y0155933D03*
X0596595Y0150933D03*
X0602595Y0150433D03*
X0604095Y0156433D03*
X0585095Y0146433D03*
X0605095Y0140433D03*
X0605095Y0124433D03*
X0589095Y0124933D03*
X0585595Y0118433D03*
X0596595Y0113433D03*
X0596095Y0108433D03*
X0602095Y0113933D03*
X0608095Y0107933D03*
X0629595Y0100433D03*
X0614095Y0097433D03*
X0609595Y0097433D03*
X0605095Y0097433D03*
X0600595Y0097433D03*
X0596095Y0097433D03*
X0567095Y0109433D03*
X0518095Y0110433D03*
X0492595Y0106933D03*
X0466095Y0106433D03*
X0445595Y0102433D03*
X0415095Y0102433D03*
X0404095Y0086433D03*
X0416595Y0081933D03*
X0414595Y0076933D03*
X0419095Y0066933D03*
X0413595Y0062933D03*
X0395595Y0054933D03*
X0413595Y0045933D03*
X0429095Y0044433D03*
X0440595Y0040433D03*
X0456595Y0051433D03*
X0450595Y0058433D03*
X0361095Y0098433D03*
X0353595Y0090933D03*
X0323595Y0083933D03*
X0314595Y0089433D03*
X0306495Y0095033D03*
X0315595Y0067933D03*
X0326595Y0067933D03*
X0324095Y0053933D03*
X0314095Y0047933D03*
X0354595Y0039933D03*
X0354595Y0067933D03*
X0442095Y0160433D03*
X0406595Y0188933D03*
X0401095Y0191933D03*
X0361095Y0185933D03*
X0175595Y0209933D03*
X0172595Y0216433D03*
X0159595Y0208933D03*
X0163095Y0200933D03*
X0166595Y0194933D03*
X0156095Y0217933D03*
X0152595Y0225933D03*
X0169595Y0226933D03*
X0564095Y0059933D03*
X0580095Y0057433D03*
X0596595Y0054933D03*
X0596595Y0059933D03*
X0604095Y0060433D03*
X0602595Y0054433D03*
X0605095Y0044433D03*
X0638095Y0044933D03*
X0649595Y0050433D03*
X0660595Y0054933D03*
X0660595Y0059933D03*
X0668095Y0060433D03*
X0666595Y0054433D03*
X0669095Y0044433D03*
X0677595Y0045433D03*
X0659595Y0044933D03*
X0700595Y0040933D03*
X0691095Y0068433D03*
X0678095Y0070433D03*
X0673595Y0070433D03*
X0669095Y0070433D03*
X0664595Y0070433D03*
X0660095Y0070433D03*
X0574595Y0041933D03*
X0846095Y0039933D03*
X0596595Y0176933D03*
X0596595Y0181933D03*
X0579595Y0179433D03*
X0649095Y0262433D03*
X0659595Y0262433D03*
X0664095Y0262433D03*
X0668595Y0262433D03*
X0673095Y0262433D03*
X0677595Y0262433D03*
X0690595Y0260433D03*
X0701095Y0260433D03*
X0607595Y0299933D03*
X0596095Y0300933D03*
X0596095Y0305933D03*
X0601595Y0305933D03*
X0604595Y0316433D03*
X0585095Y0310433D03*
X0571095Y0322433D03*
X0773095Y0319433D03*
X0846595Y0322433D03*
D15*
X0848201Y0322595D02*
X0569595Y0322595D01*
X0569595Y0321809D02*
X0716773Y0321809D01*
X0716914Y0321950D02*
X0716079Y0321115D01*
X0715627Y0320024D01*
X0715627Y0318843D01*
X0716079Y0317752D01*
X0716914Y0316916D01*
X0718005Y0316465D01*
X0719186Y0316465D01*
X0720277Y0316916D01*
X0721112Y0317752D01*
X0721564Y0318843D01*
X0721564Y0320024D01*
X0721112Y0321115D01*
X0720277Y0321950D01*
X0719186Y0322402D01*
X0718005Y0322402D01*
X0716914Y0321950D01*
X0716041Y0321023D02*
X0569595Y0321023D01*
X0569595Y0320238D02*
X0715715Y0320238D01*
X0715627Y0319452D02*
X0569595Y0319452D01*
X0569595Y0318666D02*
X0602630Y0318666D01*
X0602914Y0318950D02*
X0602079Y0318115D01*
X0601627Y0317024D01*
X0601627Y0315843D01*
X0602079Y0314752D01*
X0602914Y0313916D01*
X0604005Y0313465D01*
X0605186Y0313465D01*
X0606277Y0313916D01*
X0607112Y0314752D01*
X0607564Y0315843D01*
X0607564Y0317024D01*
X0607112Y0318115D01*
X0606277Y0318950D01*
X0605186Y0319402D01*
X0604005Y0319402D01*
X0602914Y0318950D01*
X0601981Y0317880D02*
X0569595Y0317880D01*
X0569595Y0317094D02*
X0601656Y0317094D01*
X0601627Y0316308D02*
X0569595Y0316308D01*
X0569595Y0315522D02*
X0601759Y0315522D01*
X0602094Y0314736D02*
X0569595Y0314736D01*
X0569595Y0313950D02*
X0602880Y0313950D01*
X0606310Y0313950D02*
X0657289Y0313950D01*
X0657127Y0314343D02*
X0657579Y0313252D01*
X0658414Y0312416D01*
X0659505Y0311965D01*
X0660686Y0311965D01*
X0661777Y0312416D01*
X0662612Y0313252D01*
X0663064Y0314343D01*
X0663064Y0315524D01*
X0662612Y0316615D01*
X0661777Y0317450D01*
X0660686Y0317902D01*
X0659505Y0317902D01*
X0658414Y0317450D01*
X0657579Y0316615D01*
X0657127Y0315524D01*
X0657127Y0314343D01*
X0657127Y0314736D02*
X0607096Y0314736D01*
X0607431Y0315522D02*
X0657127Y0315522D01*
X0657452Y0316308D02*
X0607564Y0316308D01*
X0607534Y0317094D02*
X0658058Y0317094D01*
X0659452Y0317880D02*
X0607209Y0317880D01*
X0606561Y0318666D02*
X0666630Y0318666D01*
X0666914Y0318950D02*
X0666079Y0318115D01*
X0665627Y0317024D01*
X0665627Y0315843D01*
X0666079Y0314752D01*
X0666914Y0313916D01*
X0668005Y0313465D01*
X0669186Y0313465D01*
X0670277Y0313916D01*
X0671112Y0314752D01*
X0671564Y0315843D01*
X0671564Y0317024D01*
X0671112Y0318115D01*
X0670277Y0318950D01*
X0669186Y0319402D01*
X0668005Y0319402D01*
X0666914Y0318950D01*
X0665981Y0317880D02*
X0660738Y0317880D01*
X0662132Y0317094D02*
X0665656Y0317094D01*
X0665627Y0316308D02*
X0662739Y0316308D01*
X0663064Y0315522D02*
X0665759Y0315522D01*
X0666094Y0314736D02*
X0663064Y0314736D01*
X0662901Y0313950D02*
X0666880Y0313950D01*
X0670310Y0313950D02*
X0730880Y0313950D01*
X0730914Y0313916D02*
X0732005Y0313465D01*
X0733186Y0313465D01*
X0734277Y0313916D01*
X0735112Y0314752D01*
X0735564Y0315843D01*
X0735564Y0317024D01*
X0735112Y0318115D01*
X0734277Y0318950D01*
X0733186Y0319402D01*
X0732005Y0319402D01*
X0730914Y0318950D01*
X0730079Y0318115D01*
X0729627Y0317024D01*
X0729627Y0315843D01*
X0730079Y0314752D01*
X0730914Y0313916D01*
X0730094Y0314736D02*
X0671096Y0314736D01*
X0671431Y0315522D02*
X0729759Y0315522D01*
X0729627Y0316308D02*
X0671564Y0316308D01*
X0671534Y0317094D02*
X0716736Y0317094D01*
X0716025Y0317880D02*
X0671209Y0317880D01*
X0670561Y0318666D02*
X0715700Y0318666D01*
X0720454Y0317094D02*
X0729656Y0317094D01*
X0729981Y0317880D02*
X0721165Y0317880D01*
X0721490Y0318666D02*
X0730630Y0318666D01*
X0734561Y0318666D02*
X0770200Y0318666D01*
X0770127Y0318843D02*
X0770579Y0317752D01*
X0771414Y0316916D01*
X0772505Y0316465D01*
X0773686Y0316465D01*
X0774777Y0316916D01*
X0775612Y0317752D01*
X0776064Y0318843D01*
X0776064Y0320024D01*
X0775612Y0321115D01*
X0774777Y0321950D01*
X0773686Y0322402D01*
X0772505Y0322402D01*
X0771414Y0321950D01*
X0770579Y0321115D01*
X0770127Y0320024D01*
X0770127Y0318843D01*
X0770127Y0319452D02*
X0721564Y0319452D01*
X0721475Y0320238D02*
X0770215Y0320238D01*
X0770541Y0321023D02*
X0721149Y0321023D01*
X0720417Y0321809D02*
X0771273Y0321809D01*
X0774917Y0321809D02*
X0848201Y0321809D01*
X0848201Y0321023D02*
X0775649Y0321023D01*
X0775975Y0320238D02*
X0848201Y0320238D01*
X0848201Y0319452D02*
X0776064Y0319452D01*
X0775990Y0318666D02*
X0848201Y0318666D01*
X0848201Y0317880D02*
X0775665Y0317880D01*
X0774954Y0317094D02*
X0848201Y0317094D01*
X0848201Y0316308D02*
X0735564Y0316308D01*
X0735534Y0317094D02*
X0771236Y0317094D01*
X0770525Y0317880D02*
X0735209Y0317880D01*
X0735431Y0315522D02*
X0801447Y0315522D01*
X0801669Y0315614D02*
X0798111Y0314140D01*
X0795388Y0311417D01*
X0793914Y0307859D01*
X0793914Y0304007D01*
X0795388Y0300449D01*
X0798111Y0297726D01*
X0801669Y0296252D01*
X0805521Y0296252D01*
X0809079Y0297726D01*
X0811802Y0300449D01*
X0813276Y0304007D01*
X0813276Y0307859D01*
X0811802Y0311417D01*
X0809079Y0314140D01*
X0805521Y0315614D01*
X0801669Y0315614D01*
X0799550Y0314736D02*
X0735096Y0314736D01*
X0734310Y0313950D02*
X0797921Y0313950D01*
X0797135Y0313164D02*
X0662524Y0313164D01*
X0661685Y0312378D02*
X0796349Y0312378D01*
X0795563Y0311592D02*
X0569595Y0311592D01*
X0569595Y0310807D02*
X0795135Y0310807D01*
X0794810Y0310021D02*
X0569595Y0310021D01*
X0569595Y0309235D02*
X0794484Y0309235D01*
X0794158Y0308449D02*
X0731277Y0308449D01*
X0731277Y0308450D02*
X0730186Y0308902D01*
X0729005Y0308902D01*
X0727914Y0308450D01*
X0727079Y0307615D01*
X0726742Y0306801D01*
X0726612Y0307115D01*
X0725777Y0307950D01*
X0724686Y0308402D01*
X0723505Y0308402D01*
X0722414Y0307950D01*
X0721579Y0307115D01*
X0721127Y0306024D01*
X0721127Y0304843D01*
X0721579Y0303752D01*
X0722397Y0302933D01*
X0721579Y0302115D01*
X0721127Y0301024D01*
X0721127Y0299843D01*
X0721579Y0298752D01*
X0722414Y0297916D01*
X0723505Y0297465D01*
X0724686Y0297465D01*
X0725777Y0297916D01*
X0726612Y0298752D01*
X0727064Y0299843D01*
X0727064Y0301024D01*
X0726612Y0302115D01*
X0725793Y0302933D01*
X0726612Y0303752D01*
X0726949Y0304565D01*
X0727079Y0304252D01*
X0727914Y0303416D01*
X0729005Y0302965D01*
X0730186Y0302965D01*
X0731277Y0303416D01*
X0732112Y0304252D01*
X0732564Y0305343D01*
X0732564Y0306524D01*
X0732112Y0307615D01*
X0731277Y0308450D01*
X0732063Y0307663D02*
X0793914Y0307663D01*
X0793914Y0306877D02*
X0732417Y0306877D01*
X0732564Y0306091D02*
X0793914Y0306091D01*
X0793914Y0305305D02*
X0732548Y0305305D01*
X0732223Y0304519D02*
X0793914Y0304519D01*
X0794028Y0303733D02*
X0731594Y0303733D01*
X0733626Y0302162D02*
X0726565Y0302162D01*
X0726918Y0301376D02*
X0732980Y0301376D01*
X0733079Y0301615D02*
X0732627Y0300524D01*
X0732627Y0299343D01*
X0733079Y0298252D01*
X0733914Y0297416D01*
X0735005Y0296965D01*
X0736186Y0296965D01*
X0737277Y0297416D01*
X0738112Y0298252D01*
X0738564Y0299343D01*
X0738564Y0300524D01*
X0738112Y0301615D01*
X0737277Y0302450D01*
X0736186Y0302902D01*
X0735005Y0302902D01*
X0733914Y0302450D01*
X0733079Y0301615D01*
X0732654Y0300590D02*
X0727064Y0300590D01*
X0727048Y0299804D02*
X0732627Y0299804D01*
X0732761Y0299018D02*
X0726722Y0299018D01*
X0726092Y0298232D02*
X0733098Y0298232D01*
X0733884Y0297446D02*
X0673306Y0297446D01*
X0673277Y0297416D02*
X0674112Y0298252D01*
X0674564Y0299343D01*
X0674564Y0300524D01*
X0674112Y0301615D01*
X0673277Y0302450D01*
X0672186Y0302902D01*
X0671005Y0302902D01*
X0669914Y0302450D01*
X0669079Y0301615D01*
X0668627Y0300524D01*
X0668627Y0299343D01*
X0669079Y0298252D01*
X0669914Y0297416D01*
X0671005Y0296965D01*
X0672186Y0296965D01*
X0673277Y0297416D01*
X0674092Y0298232D02*
X0722098Y0298232D01*
X0721468Y0299018D02*
X0674429Y0299018D01*
X0674564Y0299804D02*
X0721143Y0299804D01*
X0721127Y0300590D02*
X0674536Y0300590D01*
X0674211Y0301376D02*
X0721272Y0301376D01*
X0721626Y0302162D02*
X0673565Y0302162D01*
X0669626Y0302162D02*
X0662299Y0302162D01*
X0662112Y0302615D02*
X0661293Y0303433D01*
X0662112Y0304252D01*
X0662564Y0305343D01*
X0662564Y0306524D01*
X0662112Y0307615D01*
X0661277Y0308450D01*
X0660186Y0308902D01*
X0659005Y0308902D01*
X0657914Y0308450D01*
X0657079Y0307615D01*
X0656627Y0306524D01*
X0656627Y0305343D01*
X0657079Y0304252D01*
X0657897Y0303433D01*
X0657079Y0302615D01*
X0656627Y0301524D01*
X0656627Y0300343D01*
X0657079Y0299252D01*
X0657914Y0298416D01*
X0659005Y0297965D01*
X0660186Y0297965D01*
X0661277Y0298416D01*
X0662112Y0299252D01*
X0662564Y0300343D01*
X0662564Y0301524D01*
X0662112Y0302615D01*
X0661779Y0302947D02*
X0722383Y0302947D01*
X0721597Y0303733D02*
X0667594Y0303733D01*
X0667277Y0303416D02*
X0668112Y0304252D01*
X0668564Y0305343D01*
X0668564Y0306524D01*
X0668112Y0307615D01*
X0667277Y0308450D01*
X0666186Y0308902D01*
X0665005Y0308902D01*
X0663914Y0308450D01*
X0663079Y0307615D01*
X0662627Y0306524D01*
X0662627Y0305343D01*
X0663079Y0304252D01*
X0663914Y0303416D01*
X0665005Y0302965D01*
X0666186Y0302965D01*
X0667277Y0303416D01*
X0668223Y0304519D02*
X0721261Y0304519D01*
X0721127Y0305305D02*
X0668548Y0305305D01*
X0668564Y0306091D02*
X0721155Y0306091D01*
X0721480Y0306877D02*
X0668417Y0306877D01*
X0668063Y0307663D02*
X0722127Y0307663D01*
X0726063Y0307663D02*
X0727127Y0307663D01*
X0726773Y0306877D02*
X0726710Y0306877D01*
X0727913Y0308449D02*
X0667277Y0308449D01*
X0663913Y0308449D02*
X0661277Y0308449D01*
X0662063Y0307663D02*
X0663127Y0307663D01*
X0662773Y0306877D02*
X0662417Y0306877D01*
X0662564Y0306091D02*
X0662627Y0306091D01*
X0662642Y0305305D02*
X0662548Y0305305D01*
X0662223Y0304519D02*
X0662968Y0304519D01*
X0663597Y0303733D02*
X0661594Y0303733D01*
X0662564Y0301376D02*
X0668980Y0301376D01*
X0668654Y0300590D02*
X0662564Y0300590D01*
X0662340Y0299804D02*
X0668627Y0299804D01*
X0668761Y0299018D02*
X0661878Y0299018D01*
X0660831Y0298232D02*
X0669098Y0298232D01*
X0669884Y0297446D02*
X0609306Y0297446D01*
X0609277Y0297416D02*
X0610112Y0298252D01*
X0610564Y0299343D01*
X0610564Y0300524D01*
X0610112Y0301615D01*
X0609277Y0302450D01*
X0608186Y0302902D01*
X0607005Y0302902D01*
X0605914Y0302450D01*
X0605079Y0301615D01*
X0604627Y0300524D01*
X0604627Y0299343D01*
X0605079Y0298252D01*
X0605914Y0297416D01*
X0607005Y0296965D01*
X0608186Y0296965D01*
X0609277Y0297416D01*
X0610092Y0298232D02*
X0658359Y0298232D01*
X0657312Y0299018D02*
X0610429Y0299018D01*
X0610564Y0299804D02*
X0656850Y0299804D01*
X0656627Y0300590D02*
X0610536Y0300590D01*
X0610211Y0301376D02*
X0656627Y0301376D01*
X0656891Y0302162D02*
X0609565Y0302162D01*
X0605626Y0302162D02*
X0598799Y0302162D01*
X0598612Y0302615D02*
X0597793Y0303433D01*
X0598612Y0304252D01*
X0598845Y0304815D01*
X0599079Y0304252D01*
X0599914Y0303416D01*
X0601005Y0302965D01*
X0602186Y0302965D01*
X0603277Y0303416D01*
X0604112Y0304252D01*
X0604564Y0305343D01*
X0604564Y0306524D01*
X0604112Y0307615D01*
X0603277Y0308450D01*
X0602186Y0308902D01*
X0601005Y0308902D01*
X0599914Y0308450D01*
X0599079Y0307615D01*
X0598845Y0307051D01*
X0598612Y0307615D01*
X0597777Y0308450D01*
X0596686Y0308902D01*
X0595505Y0308902D01*
X0594414Y0308450D01*
X0593579Y0307615D01*
X0593127Y0306524D01*
X0593127Y0305343D01*
X0593579Y0304252D01*
X0594397Y0303433D01*
X0593579Y0302615D01*
X0593127Y0301524D01*
X0593127Y0300343D01*
X0593579Y0299252D01*
X0594414Y0298416D01*
X0595505Y0297965D01*
X0596686Y0297965D01*
X0597777Y0298416D01*
X0598612Y0299252D01*
X0599064Y0300343D01*
X0599064Y0301524D01*
X0598612Y0302615D01*
X0598279Y0302947D02*
X0657411Y0302947D01*
X0657597Y0303733D02*
X0603594Y0303733D01*
X0604223Y0304519D02*
X0656968Y0304519D01*
X0656642Y0305305D02*
X0604548Y0305305D01*
X0604564Y0306091D02*
X0656627Y0306091D01*
X0656773Y0306877D02*
X0604417Y0306877D01*
X0604063Y0307663D02*
X0657127Y0307663D01*
X0657913Y0308449D02*
X0603277Y0308449D01*
X0599913Y0308449D02*
X0597777Y0308449D01*
X0598563Y0307663D02*
X0599127Y0307663D01*
X0598968Y0304519D02*
X0598723Y0304519D01*
X0598094Y0303733D02*
X0599597Y0303733D01*
X0599064Y0301376D02*
X0604980Y0301376D01*
X0604654Y0300590D02*
X0599064Y0300590D01*
X0598840Y0299804D02*
X0604627Y0299804D01*
X0604761Y0299018D02*
X0598378Y0299018D01*
X0597331Y0298232D02*
X0605098Y0298232D01*
X0605884Y0297446D02*
X0569595Y0297446D01*
X0569595Y0296660D02*
X0800684Y0296660D01*
X0798787Y0297446D02*
X0737306Y0297446D01*
X0738092Y0298232D02*
X0797605Y0298232D01*
X0796819Y0299018D02*
X0738429Y0299018D01*
X0738564Y0299804D02*
X0796033Y0299804D01*
X0795330Y0300590D02*
X0738536Y0300590D01*
X0738211Y0301376D02*
X0795004Y0301376D01*
X0794679Y0302162D02*
X0737565Y0302162D01*
X0727597Y0303733D02*
X0726594Y0303733D01*
X0726930Y0304519D02*
X0726968Y0304519D01*
X0725808Y0302947D02*
X0794353Y0302947D01*
X0806506Y0296660D02*
X0848201Y0296660D01*
X0848201Y0295874D02*
X0569595Y0295874D01*
X0569595Y0295088D02*
X0848201Y0295088D01*
X0848201Y0294302D02*
X0569595Y0294302D01*
X0569595Y0293516D02*
X0848201Y0293516D01*
X0848201Y0292731D02*
X0569595Y0292731D01*
X0569595Y0291945D02*
X0593909Y0291945D01*
X0593914Y0291950D02*
X0593079Y0291115D01*
X0592627Y0290024D01*
X0592627Y0288843D01*
X0593079Y0287752D01*
X0593914Y0286916D01*
X0595005Y0286465D01*
X0596186Y0286465D01*
X0597277Y0286916D01*
X0597845Y0287485D01*
X0598414Y0286916D01*
X0599505Y0286465D01*
X0600686Y0286465D01*
X0601777Y0286916D01*
X0602345Y0287485D01*
X0602914Y0286916D01*
X0604005Y0286465D01*
X0605186Y0286465D01*
X0606277Y0286916D01*
X0606845Y0287485D01*
X0607414Y0286916D01*
X0608505Y0286465D01*
X0609686Y0286465D01*
X0610777Y0286916D01*
X0611345Y0287485D01*
X0611914Y0286916D01*
X0613005Y0286465D01*
X0614186Y0286465D01*
X0615277Y0286916D01*
X0616112Y0287752D01*
X0616564Y0288843D01*
X0616564Y0290024D01*
X0616112Y0291115D01*
X0615277Y0291950D01*
X0614186Y0292402D01*
X0613005Y0292402D01*
X0611914Y0291950D01*
X0611345Y0291381D01*
X0610777Y0291950D01*
X0609686Y0292402D01*
X0608505Y0292402D01*
X0607414Y0291950D01*
X0606845Y0291381D01*
X0606277Y0291950D01*
X0605186Y0292402D01*
X0604005Y0292402D01*
X0602914Y0291950D01*
X0602345Y0291381D01*
X0601777Y0291950D01*
X0600686Y0292402D01*
X0599505Y0292402D01*
X0598414Y0291950D01*
X0597845Y0291381D01*
X0597277Y0291950D01*
X0596186Y0292402D01*
X0595005Y0292402D01*
X0593914Y0291950D01*
X0593123Y0291159D02*
X0569595Y0291159D01*
X0569595Y0290373D02*
X0592771Y0290373D01*
X0592627Y0289587D02*
X0569595Y0289587D01*
X0569595Y0288801D02*
X0592644Y0288801D01*
X0592969Y0288015D02*
X0569595Y0288015D01*
X0569595Y0287229D02*
X0593601Y0287229D01*
X0597589Y0287229D02*
X0598101Y0287229D01*
X0602089Y0287229D02*
X0602601Y0287229D01*
X0606589Y0287229D02*
X0607101Y0287229D01*
X0611089Y0287229D02*
X0611601Y0287229D01*
X0615589Y0287229D02*
X0633601Y0287229D01*
X0633914Y0286916D02*
X0635005Y0286465D01*
X0636186Y0286465D01*
X0637277Y0286916D01*
X0638112Y0287752D01*
X0638564Y0288843D01*
X0638564Y0290024D01*
X0638112Y0291115D01*
X0637277Y0291950D01*
X0636186Y0292402D01*
X0635005Y0292402D01*
X0633914Y0291950D01*
X0633079Y0291115D01*
X0632627Y0290024D01*
X0632627Y0288843D01*
X0633079Y0287752D01*
X0633914Y0286916D01*
X0632969Y0288015D02*
X0616221Y0288015D01*
X0616546Y0288801D02*
X0632644Y0288801D01*
X0632627Y0289587D02*
X0616564Y0289587D01*
X0616419Y0290373D02*
X0632771Y0290373D01*
X0633123Y0291159D02*
X0616068Y0291159D01*
X0615282Y0291945D02*
X0633909Y0291945D01*
X0637282Y0291945D02*
X0657909Y0291945D01*
X0657914Y0291950D02*
X0657079Y0291115D01*
X0656627Y0290024D01*
X0656627Y0288843D01*
X0657079Y0287752D01*
X0657914Y0286916D01*
X0659005Y0286465D01*
X0660186Y0286465D01*
X0661277Y0286916D01*
X0661845Y0287485D01*
X0662414Y0286916D01*
X0663505Y0286465D01*
X0664686Y0286465D01*
X0665777Y0286916D01*
X0666345Y0287485D01*
X0666914Y0286916D01*
X0668005Y0286465D01*
X0669186Y0286465D01*
X0670277Y0286916D01*
X0670845Y0287485D01*
X0671414Y0286916D01*
X0672505Y0286465D01*
X0673686Y0286465D01*
X0674777Y0286916D01*
X0675345Y0287485D01*
X0675914Y0286916D01*
X0677005Y0286465D01*
X0678186Y0286465D01*
X0679277Y0286916D01*
X0680112Y0287752D01*
X0680564Y0288843D01*
X0680564Y0290024D01*
X0680112Y0291115D01*
X0679277Y0291950D01*
X0678186Y0292402D01*
X0677005Y0292402D01*
X0675914Y0291950D01*
X0675345Y0291381D01*
X0674777Y0291950D01*
X0673686Y0292402D01*
X0672505Y0292402D01*
X0671414Y0291950D01*
X0670845Y0291381D01*
X0670277Y0291950D01*
X0669186Y0292402D01*
X0668005Y0292402D01*
X0666914Y0291950D01*
X0666345Y0291381D01*
X0665777Y0291950D01*
X0664686Y0292402D01*
X0663505Y0292402D01*
X0662414Y0291950D01*
X0661845Y0291381D01*
X0661277Y0291950D01*
X0660186Y0292402D01*
X0659005Y0292402D01*
X0657914Y0291950D01*
X0657123Y0291159D02*
X0638068Y0291159D01*
X0638419Y0290373D02*
X0656771Y0290373D01*
X0656627Y0289587D02*
X0638564Y0289587D01*
X0638546Y0288801D02*
X0656644Y0288801D01*
X0656969Y0288015D02*
X0638221Y0288015D01*
X0637589Y0287229D02*
X0657601Y0287229D01*
X0661589Y0287229D02*
X0662101Y0287229D01*
X0666089Y0287229D02*
X0666601Y0287229D01*
X0670589Y0287229D02*
X0671101Y0287229D01*
X0675089Y0287229D02*
X0675601Y0287229D01*
X0679589Y0287229D02*
X0721601Y0287229D01*
X0721914Y0286916D02*
X0723005Y0286465D01*
X0724186Y0286465D01*
X0725277Y0286916D01*
X0725845Y0287485D01*
X0726414Y0286916D01*
X0727505Y0286465D01*
X0728686Y0286465D01*
X0729777Y0286916D01*
X0730345Y0287485D01*
X0730914Y0286916D01*
X0732005Y0286465D01*
X0733186Y0286465D01*
X0734277Y0286916D01*
X0734845Y0287485D01*
X0735414Y0286916D01*
X0736505Y0286465D01*
X0737686Y0286465D01*
X0738777Y0286916D01*
X0739345Y0287485D01*
X0739914Y0286916D01*
X0741005Y0286465D01*
X0742186Y0286465D01*
X0743277Y0286916D01*
X0744112Y0287752D01*
X0744564Y0288843D01*
X0744564Y0290024D01*
X0744112Y0291115D01*
X0743277Y0291950D01*
X0742186Y0292402D01*
X0741005Y0292402D01*
X0739914Y0291950D01*
X0739345Y0291381D01*
X0738777Y0291950D01*
X0737686Y0292402D01*
X0736505Y0292402D01*
X0735414Y0291950D01*
X0734845Y0291381D01*
X0734277Y0291950D01*
X0733186Y0292402D01*
X0732005Y0292402D01*
X0730914Y0291950D01*
X0730345Y0291381D01*
X0729777Y0291950D01*
X0728686Y0292402D01*
X0727505Y0292402D01*
X0726414Y0291950D01*
X0725845Y0291381D01*
X0725277Y0291950D01*
X0724186Y0292402D01*
X0723005Y0292402D01*
X0721914Y0291950D01*
X0721079Y0291115D01*
X0720627Y0290024D01*
X0720627Y0288843D01*
X0721079Y0287752D01*
X0721914Y0286916D01*
X0720969Y0288015D02*
X0680221Y0288015D01*
X0680546Y0288801D02*
X0720644Y0288801D01*
X0720627Y0289587D02*
X0680564Y0289587D01*
X0680419Y0290373D02*
X0720771Y0290373D01*
X0721123Y0291159D02*
X0680068Y0291159D01*
X0679282Y0291945D02*
X0721909Y0291945D01*
X0725282Y0291945D02*
X0726409Y0291945D01*
X0729782Y0291945D02*
X0730909Y0291945D01*
X0734282Y0291945D02*
X0735409Y0291945D01*
X0738782Y0291945D02*
X0739909Y0291945D01*
X0743282Y0291945D02*
X0788409Y0291945D01*
X0788414Y0291950D02*
X0787579Y0291115D01*
X0787127Y0290024D01*
X0787127Y0288843D01*
X0787579Y0287752D01*
X0788414Y0286916D01*
X0789505Y0286465D01*
X0790686Y0286465D01*
X0791777Y0286916D01*
X0792612Y0287752D01*
X0793064Y0288843D01*
X0793064Y0290024D01*
X0792612Y0291115D01*
X0791777Y0291950D01*
X0790686Y0292402D01*
X0789505Y0292402D01*
X0788414Y0291950D01*
X0787623Y0291159D02*
X0744068Y0291159D01*
X0744419Y0290373D02*
X0787271Y0290373D01*
X0787127Y0289587D02*
X0744564Y0289587D01*
X0744546Y0288801D02*
X0787144Y0288801D01*
X0787469Y0288015D02*
X0744221Y0288015D01*
X0743589Y0287229D02*
X0788101Y0287229D01*
X0792089Y0287229D02*
X0848201Y0287229D01*
X0848201Y0286443D02*
X0569595Y0286443D01*
X0569595Y0285657D02*
X0848201Y0285657D01*
X0848201Y0284871D02*
X0569595Y0284871D01*
X0569595Y0284086D02*
X0848201Y0284086D01*
X0848201Y0283300D02*
X0569595Y0283300D01*
X0569595Y0282514D02*
X0796797Y0282514D01*
X0796227Y0282278D02*
X0795051Y0281101D01*
X0794414Y0279565D01*
X0794414Y0277901D01*
X0795051Y0276365D01*
X0796227Y0275188D01*
X0797763Y0274552D01*
X0799427Y0274552D01*
X0800964Y0275188D01*
X0802140Y0276365D01*
X0802776Y0277901D01*
X0802776Y0279565D01*
X0802140Y0281101D01*
X0800964Y0282278D01*
X0799427Y0282914D01*
X0797763Y0282914D01*
X0796227Y0282278D01*
X0795677Y0281728D02*
X0569595Y0281728D01*
X0569595Y0280942D02*
X0594406Y0280942D01*
X0594414Y0280950D02*
X0593579Y0280115D01*
X0593127Y0279024D01*
X0593127Y0277843D01*
X0593579Y0276752D01*
X0594414Y0275916D01*
X0594977Y0275683D01*
X0594414Y0275450D01*
X0593579Y0274615D01*
X0593127Y0273524D01*
X0593127Y0272343D01*
X0593579Y0271252D01*
X0594414Y0270416D01*
X0595505Y0269965D01*
X0596686Y0269965D01*
X0597777Y0270416D01*
X0598612Y0271252D01*
X0599064Y0272343D01*
X0599064Y0273524D01*
X0598612Y0274615D01*
X0597777Y0275450D01*
X0597213Y0275683D01*
X0597777Y0275916D01*
X0598612Y0276752D01*
X0599064Y0277843D01*
X0599064Y0279024D01*
X0598612Y0280115D01*
X0597777Y0280950D01*
X0596686Y0281402D01*
X0595505Y0281402D01*
X0594414Y0280950D01*
X0593620Y0280156D02*
X0569595Y0280156D01*
X0569595Y0279370D02*
X0593270Y0279370D01*
X0593127Y0278584D02*
X0569595Y0278584D01*
X0569595Y0277798D02*
X0593145Y0277798D01*
X0593471Y0277012D02*
X0569595Y0277012D01*
X0569595Y0276226D02*
X0594104Y0276226D01*
X0594404Y0275440D02*
X0569595Y0275440D01*
X0569595Y0274655D02*
X0593619Y0274655D01*
X0593270Y0273869D02*
X0569595Y0273869D01*
X0569595Y0273083D02*
X0593127Y0273083D01*
X0593146Y0272297D02*
X0569595Y0272297D01*
X0569595Y0271511D02*
X0593471Y0271511D01*
X0594105Y0270725D02*
X0569595Y0270725D01*
X0569595Y0269939D02*
X0794942Y0269939D01*
X0795051Y0270201D02*
X0794414Y0268665D01*
X0794414Y0267001D01*
X0795051Y0265465D01*
X0796227Y0264288D01*
X0797763Y0263652D01*
X0799427Y0263652D01*
X0800964Y0264288D01*
X0802140Y0265465D01*
X0802776Y0267001D01*
X0802776Y0268665D01*
X0802140Y0270201D01*
X0800964Y0271378D01*
X0799427Y0272014D01*
X0797763Y0272014D01*
X0796227Y0271378D01*
X0795051Y0270201D01*
X0795574Y0270725D02*
X0725314Y0270725D01*
X0725777Y0270916D02*
X0726612Y0271752D01*
X0727064Y0272843D01*
X0727064Y0274024D01*
X0726612Y0275115D01*
X0725793Y0275933D01*
X0726612Y0276752D01*
X0727064Y0277843D01*
X0727064Y0279024D01*
X0726612Y0280115D01*
X0725777Y0280950D01*
X0724686Y0281402D01*
X0723505Y0281402D01*
X0722414Y0280950D01*
X0721579Y0280115D01*
X0721127Y0279024D01*
X0721127Y0277843D01*
X0721579Y0276752D01*
X0722397Y0275933D01*
X0721579Y0275115D01*
X0721127Y0274024D01*
X0721127Y0272843D01*
X0721579Y0271752D01*
X0722414Y0270916D01*
X0723505Y0270465D01*
X0724686Y0270465D01*
X0725777Y0270916D01*
X0726371Y0271511D02*
X0796549Y0271511D01*
X0794616Y0269153D02*
X0569595Y0269153D01*
X0569595Y0268367D02*
X0794414Y0268367D01*
X0794414Y0267581D02*
X0569595Y0267581D01*
X0569595Y0266795D02*
X0794499Y0266795D01*
X0794825Y0266010D02*
X0569595Y0266010D01*
X0569595Y0265224D02*
X0594575Y0265224D01*
X0595005Y0265402D02*
X0593914Y0264950D01*
X0593079Y0264115D01*
X0592627Y0263024D01*
X0592627Y0261843D01*
X0593079Y0260752D01*
X0593914Y0259916D01*
X0595005Y0259465D01*
X0596186Y0259465D01*
X0597277Y0259916D01*
X0597845Y0260485D01*
X0598414Y0259916D01*
X0599505Y0259465D01*
X0600686Y0259465D01*
X0601777Y0259916D01*
X0602345Y0260485D01*
X0602914Y0259916D01*
X0604005Y0259465D01*
X0605186Y0259465D01*
X0606277Y0259916D01*
X0606845Y0260485D01*
X0607414Y0259916D01*
X0608505Y0259465D01*
X0609686Y0259465D01*
X0610777Y0259916D01*
X0611345Y0260485D01*
X0611914Y0259916D01*
X0613005Y0259465D01*
X0614186Y0259465D01*
X0615277Y0259916D01*
X0616112Y0260752D01*
X0616564Y0261843D01*
X0616564Y0263024D01*
X0616112Y0264115D01*
X0615277Y0264950D01*
X0614186Y0265402D01*
X0613005Y0265402D01*
X0611914Y0264950D01*
X0611345Y0264381D01*
X0610777Y0264950D01*
X0609686Y0265402D01*
X0608505Y0265402D01*
X0607414Y0264950D01*
X0606845Y0264381D01*
X0606277Y0264950D01*
X0605186Y0265402D01*
X0604005Y0265402D01*
X0602914Y0264950D01*
X0602345Y0264381D01*
X0601777Y0264950D01*
X0600686Y0265402D01*
X0599505Y0265402D01*
X0598414Y0264950D01*
X0597845Y0264381D01*
X0597277Y0264950D01*
X0596186Y0265402D01*
X0595005Y0265402D01*
X0596615Y0265224D02*
X0599075Y0265224D01*
X0597902Y0264438D02*
X0597789Y0264438D01*
X0601115Y0265224D02*
X0603575Y0265224D01*
X0602402Y0264438D02*
X0602289Y0264438D01*
X0605615Y0265224D02*
X0608075Y0265224D01*
X0606902Y0264438D02*
X0606789Y0264438D01*
X0610115Y0265224D02*
X0612575Y0265224D01*
X0611402Y0264438D02*
X0611289Y0264438D01*
X0614615Y0265224D02*
X0648075Y0265224D01*
X0648505Y0265402D02*
X0647414Y0264950D01*
X0646579Y0264115D01*
X0646127Y0263024D01*
X0646127Y0261843D01*
X0646579Y0260752D01*
X0647414Y0259916D01*
X0648505Y0259465D01*
X0649686Y0259465D01*
X0650777Y0259916D01*
X0651612Y0260752D01*
X0652064Y0261843D01*
X0652064Y0263024D01*
X0651612Y0264115D01*
X0650777Y0264950D01*
X0649686Y0265402D01*
X0648505Y0265402D01*
X0650115Y0265224D02*
X0658575Y0265224D01*
X0659005Y0265402D02*
X0657914Y0264950D01*
X0657079Y0264115D01*
X0656627Y0263024D01*
X0656627Y0261843D01*
X0657079Y0260752D01*
X0657914Y0259916D01*
X0659005Y0259465D01*
X0660186Y0259465D01*
X0661277Y0259916D01*
X0661845Y0260485D01*
X0662414Y0259916D01*
X0663505Y0259465D01*
X0664686Y0259465D01*
X0665777Y0259916D01*
X0666345Y0260485D01*
X0666914Y0259916D01*
X0668005Y0259465D01*
X0669186Y0259465D01*
X0670277Y0259916D01*
X0670845Y0260485D01*
X0671414Y0259916D01*
X0672505Y0259465D01*
X0673686Y0259465D01*
X0674777Y0259916D01*
X0675345Y0260485D01*
X0675914Y0259916D01*
X0677005Y0259465D01*
X0678186Y0259465D01*
X0679277Y0259916D01*
X0680112Y0260752D01*
X0680564Y0261843D01*
X0680564Y0263024D01*
X0680112Y0264115D01*
X0679277Y0264950D01*
X0678186Y0265402D01*
X0677005Y0265402D01*
X0675914Y0264950D01*
X0675345Y0264381D01*
X0674777Y0264950D01*
X0673686Y0265402D01*
X0672505Y0265402D01*
X0671414Y0264950D01*
X0670845Y0264381D01*
X0670277Y0264950D01*
X0669186Y0265402D01*
X0668005Y0265402D01*
X0666914Y0264950D01*
X0666345Y0264381D01*
X0665777Y0264950D01*
X0664686Y0265402D01*
X0663505Y0265402D01*
X0662414Y0264950D01*
X0661845Y0264381D01*
X0661277Y0264950D01*
X0660186Y0265402D01*
X0659005Y0265402D01*
X0660615Y0265224D02*
X0663075Y0265224D01*
X0661902Y0264438D02*
X0661789Y0264438D01*
X0665115Y0265224D02*
X0667575Y0265224D01*
X0666402Y0264438D02*
X0666289Y0264438D01*
X0669615Y0265224D02*
X0672075Y0265224D01*
X0670902Y0264438D02*
X0670789Y0264438D01*
X0674115Y0265224D02*
X0676575Y0265224D01*
X0675402Y0264438D02*
X0675289Y0264438D01*
X0678615Y0265224D02*
X0722575Y0265224D01*
X0723005Y0265402D02*
X0721914Y0264950D01*
X0721079Y0264115D01*
X0720627Y0263024D01*
X0720627Y0261843D01*
X0721079Y0260752D01*
X0721914Y0259916D01*
X0723005Y0259465D01*
X0724186Y0259465D01*
X0725277Y0259916D01*
X0725845Y0260485D01*
X0726414Y0259916D01*
X0727505Y0259465D01*
X0728686Y0259465D01*
X0729777Y0259916D01*
X0730345Y0260485D01*
X0730914Y0259916D01*
X0732005Y0259465D01*
X0733186Y0259465D01*
X0734277Y0259916D01*
X0734845Y0260485D01*
X0735414Y0259916D01*
X0736505Y0259465D01*
X0737686Y0259465D01*
X0738777Y0259916D01*
X0739345Y0260485D01*
X0739914Y0259916D01*
X0741005Y0259465D01*
X0742186Y0259465D01*
X0743277Y0259916D01*
X0744112Y0260752D01*
X0744564Y0261843D01*
X0744564Y0263024D01*
X0744112Y0264115D01*
X0743277Y0264950D01*
X0742186Y0265402D01*
X0741005Y0265402D01*
X0739914Y0264950D01*
X0739345Y0264381D01*
X0738777Y0264950D01*
X0737686Y0265402D01*
X0736505Y0265402D01*
X0735414Y0264950D01*
X0734845Y0264381D01*
X0734277Y0264950D01*
X0733186Y0265402D01*
X0732005Y0265402D01*
X0730914Y0264950D01*
X0730345Y0264381D01*
X0729777Y0264950D01*
X0728686Y0265402D01*
X0727505Y0265402D01*
X0726414Y0264950D01*
X0725845Y0264381D01*
X0725277Y0264950D01*
X0724186Y0265402D01*
X0723005Y0265402D01*
X0724615Y0265224D02*
X0727075Y0265224D01*
X0725902Y0264438D02*
X0725789Y0264438D01*
X0729115Y0265224D02*
X0731575Y0265224D01*
X0730402Y0264438D02*
X0730289Y0264438D01*
X0733615Y0265224D02*
X0736075Y0265224D01*
X0734902Y0264438D02*
X0734789Y0264438D01*
X0738115Y0265224D02*
X0740575Y0265224D01*
X0739402Y0264438D02*
X0739289Y0264438D01*
X0742615Y0265224D02*
X0795292Y0265224D01*
X0796078Y0264438D02*
X0743789Y0264438D01*
X0744303Y0263652D02*
X0804574Y0263652D01*
X0804414Y0263265D02*
X0805051Y0264801D01*
X0806227Y0265978D01*
X0807763Y0266614D01*
X0809427Y0266614D01*
X0810964Y0265978D01*
X0812140Y0264801D01*
X0812776Y0263265D01*
X0812776Y0261601D01*
X0812140Y0260065D01*
X0810964Y0258888D01*
X0809427Y0258252D01*
X0807763Y0258252D01*
X0806227Y0258888D01*
X0805051Y0260065D01*
X0804414Y0261601D01*
X0804414Y0263265D01*
X0804414Y0262866D02*
X0744564Y0262866D01*
X0744564Y0262080D02*
X0804414Y0262080D01*
X0804541Y0261294D02*
X0744336Y0261294D01*
X0743868Y0260508D02*
X0796157Y0260508D01*
X0796227Y0260578D02*
X0795051Y0259401D01*
X0794414Y0257865D01*
X0794414Y0256201D01*
X0795051Y0254665D01*
X0796227Y0253488D01*
X0797763Y0252852D01*
X0799427Y0252852D01*
X0800964Y0253488D01*
X0802140Y0254665D01*
X0802776Y0256201D01*
X0802776Y0257865D01*
X0802140Y0259401D01*
X0800964Y0260578D01*
X0799427Y0261214D01*
X0797763Y0261214D01*
X0796227Y0260578D01*
X0795371Y0259722D02*
X0742808Y0259722D01*
X0740383Y0259722D02*
X0738308Y0259722D01*
X0735883Y0259722D02*
X0733808Y0259722D01*
X0731383Y0259722D02*
X0729308Y0259722D01*
X0726883Y0259722D02*
X0724808Y0259722D01*
X0722383Y0259722D02*
X0704014Y0259722D01*
X0704064Y0259843D02*
X0703612Y0258752D01*
X0702777Y0257916D01*
X0701686Y0257465D01*
X0700505Y0257465D01*
X0699414Y0257916D01*
X0698579Y0258752D01*
X0698127Y0259843D01*
X0698127Y0261024D01*
X0698579Y0262115D01*
X0699414Y0262950D01*
X0700505Y0263402D01*
X0701686Y0263402D01*
X0702777Y0262950D01*
X0703612Y0262115D01*
X0704064Y0261024D01*
X0704064Y0259843D01*
X0704064Y0260508D02*
X0721322Y0260508D01*
X0720854Y0261294D02*
X0703952Y0261294D01*
X0703626Y0262080D02*
X0720627Y0262080D01*
X0720627Y0262866D02*
X0702860Y0262866D01*
X0699330Y0262866D02*
X0680564Y0262866D01*
X0680564Y0262080D02*
X0698564Y0262080D01*
X0698239Y0261294D02*
X0680336Y0261294D01*
X0679868Y0260508D02*
X0698127Y0260508D01*
X0698176Y0259722D02*
X0678808Y0259722D01*
X0676383Y0259722D02*
X0674308Y0259722D01*
X0671883Y0259722D02*
X0669808Y0259722D01*
X0667383Y0259722D02*
X0665308Y0259722D01*
X0662883Y0259722D02*
X0660808Y0259722D01*
X0658383Y0259722D02*
X0650308Y0259722D01*
X0651368Y0260508D02*
X0657322Y0260508D01*
X0656854Y0261294D02*
X0651836Y0261294D01*
X0652064Y0262080D02*
X0656627Y0262080D01*
X0656627Y0262866D02*
X0652064Y0262866D01*
X0651803Y0263652D02*
X0656887Y0263652D01*
X0657402Y0264438D02*
X0651289Y0264438D01*
X0646902Y0264438D02*
X0615789Y0264438D01*
X0616303Y0263652D02*
X0646387Y0263652D01*
X0646127Y0262866D02*
X0616564Y0262866D01*
X0616564Y0262080D02*
X0646127Y0262080D01*
X0646354Y0261294D02*
X0616336Y0261294D01*
X0615868Y0260508D02*
X0646822Y0260508D01*
X0647883Y0259722D02*
X0614808Y0259722D01*
X0612383Y0259722D02*
X0610308Y0259722D01*
X0607883Y0259722D02*
X0605808Y0259722D01*
X0603383Y0259722D02*
X0601308Y0259722D01*
X0598883Y0259722D02*
X0596808Y0259722D01*
X0594383Y0259722D02*
X0569595Y0259722D01*
X0569595Y0258936D02*
X0698502Y0258936D01*
X0699180Y0258150D02*
X0569595Y0258150D01*
X0569595Y0257364D02*
X0794414Y0257364D01*
X0794414Y0256579D02*
X0569595Y0256579D01*
X0569595Y0255793D02*
X0794583Y0255793D01*
X0794909Y0255007D02*
X0733139Y0255007D01*
X0733277Y0254950D02*
X0732186Y0255402D01*
X0731005Y0255402D01*
X0729914Y0254950D01*
X0729079Y0254115D01*
X0728627Y0253024D01*
X0728627Y0251843D01*
X0729079Y0250752D01*
X0729914Y0249916D01*
X0731005Y0249465D01*
X0732186Y0249465D01*
X0733277Y0249916D01*
X0734112Y0250752D01*
X0734564Y0251843D01*
X0734564Y0253024D01*
X0734112Y0254115D01*
X0733277Y0254950D01*
X0734005Y0254221D02*
X0795494Y0254221D01*
X0796356Y0253435D02*
X0734393Y0253435D01*
X0734564Y0252649D02*
X0804532Y0252649D01*
X0804414Y0252365D02*
X0804414Y0250701D01*
X0805051Y0249165D01*
X0806227Y0247988D01*
X0807763Y0247352D01*
X0809427Y0247352D01*
X0810964Y0247988D01*
X0812140Y0249165D01*
X0812776Y0250701D01*
X0812776Y0252365D01*
X0812140Y0253901D01*
X0810964Y0255078D01*
X0809427Y0255714D01*
X0807763Y0255714D01*
X0806227Y0255078D01*
X0805051Y0253901D01*
X0804414Y0252365D01*
X0804414Y0251863D02*
X0734564Y0251863D01*
X0734247Y0251077D02*
X0804414Y0251077D01*
X0804584Y0250291D02*
X0799482Y0250291D01*
X0799427Y0250314D02*
X0797763Y0250314D01*
X0796227Y0249678D01*
X0795051Y0248501D01*
X0794414Y0246965D01*
X0794414Y0245301D01*
X0795051Y0243765D01*
X0796227Y0242588D01*
X0797763Y0241952D01*
X0799427Y0241952D01*
X0800964Y0242588D01*
X0802140Y0243765D01*
X0802776Y0245301D01*
X0802776Y0246965D01*
X0802140Y0248501D01*
X0800964Y0249678D01*
X0799427Y0250314D01*
X0797708Y0250291D02*
X0733651Y0250291D01*
X0732284Y0249505D02*
X0796054Y0249505D01*
X0795269Y0248719D02*
X0732007Y0248719D01*
X0731777Y0248950D02*
X0730686Y0249402D01*
X0729505Y0249402D01*
X0728414Y0248950D01*
X0727579Y0248115D01*
X0727127Y0247024D01*
X0727127Y0245843D01*
X0727579Y0244752D01*
X0728414Y0243916D01*
X0729505Y0243465D01*
X0730686Y0243465D01*
X0731777Y0243916D01*
X0732612Y0244752D01*
X0733064Y0245843D01*
X0733064Y0247024D01*
X0732612Y0248115D01*
X0731777Y0248950D01*
X0730906Y0249505D02*
X0726221Y0249505D01*
X0726612Y0249115D02*
X0725793Y0249933D01*
X0726612Y0250752D01*
X0727064Y0251843D01*
X0727064Y0253024D01*
X0726612Y0254115D01*
X0725777Y0254950D01*
X0724686Y0255402D01*
X0723505Y0255402D01*
X0722414Y0254950D01*
X0721579Y0254115D01*
X0721127Y0253024D01*
X0721127Y0251843D01*
X0721579Y0250752D01*
X0722397Y0249933D01*
X0721579Y0249115D01*
X0721127Y0248024D01*
X0721127Y0246843D01*
X0721579Y0245752D01*
X0722414Y0244916D01*
X0723505Y0244465D01*
X0724686Y0244465D01*
X0725777Y0244916D01*
X0726612Y0245752D01*
X0727064Y0246843D01*
X0727064Y0248024D01*
X0726612Y0249115D01*
X0726775Y0248719D02*
X0728183Y0248719D01*
X0727504Y0247934D02*
X0727064Y0247934D01*
X0727064Y0247148D02*
X0727178Y0247148D01*
X0727127Y0246362D02*
X0726864Y0246362D01*
X0727237Y0245576D02*
X0726436Y0245576D01*
X0725471Y0244790D02*
X0727563Y0244790D01*
X0728326Y0244004D02*
X0667864Y0244004D01*
X0667777Y0243916D02*
X0668612Y0244752D01*
X0669064Y0245843D01*
X0669064Y0247024D01*
X0668612Y0248115D01*
X0667777Y0248950D01*
X0666686Y0249402D01*
X0665505Y0249402D01*
X0664414Y0248950D01*
X0663579Y0248115D01*
X0663127Y0247024D01*
X0663127Y0245843D01*
X0663579Y0244752D01*
X0664414Y0243916D01*
X0665505Y0243465D01*
X0666686Y0243465D01*
X0667777Y0243916D01*
X0668628Y0244790D02*
X0722719Y0244790D01*
X0721754Y0245576D02*
X0668953Y0245576D01*
X0669064Y0246362D02*
X0721326Y0246362D01*
X0721127Y0247148D02*
X0669012Y0247148D01*
X0668687Y0247934D02*
X0721127Y0247934D01*
X0721415Y0248719D02*
X0668007Y0248719D01*
X0668186Y0249465D02*
X0669277Y0249916D01*
X0670112Y0250752D01*
X0670564Y0251843D01*
X0670564Y0253024D01*
X0670112Y0254115D01*
X0669277Y0254950D01*
X0668186Y0255402D01*
X0667005Y0255402D01*
X0665914Y0254950D01*
X0665079Y0254115D01*
X0664627Y0253024D01*
X0664627Y0251843D01*
X0665079Y0250752D01*
X0665914Y0249916D01*
X0667005Y0249465D01*
X0668186Y0249465D01*
X0668284Y0249505D02*
X0721969Y0249505D01*
X0722039Y0250291D02*
X0669651Y0250291D01*
X0670247Y0251077D02*
X0721444Y0251077D01*
X0721127Y0251863D02*
X0670564Y0251863D01*
X0670564Y0252649D02*
X0721127Y0252649D01*
X0721297Y0253435D02*
X0670393Y0253435D01*
X0670005Y0254221D02*
X0721685Y0254221D01*
X0722552Y0255007D02*
X0669139Y0255007D01*
X0666052Y0255007D02*
X0605139Y0255007D01*
X0605277Y0254950D02*
X0604186Y0255402D01*
X0603005Y0255402D01*
X0601914Y0254950D01*
X0601079Y0254115D01*
X0600627Y0253024D01*
X0600627Y0251843D01*
X0601079Y0250752D01*
X0601914Y0249916D01*
X0603005Y0249465D01*
X0604186Y0249465D01*
X0605277Y0249916D01*
X0606112Y0250752D01*
X0606564Y0251843D01*
X0606564Y0253024D01*
X0606112Y0254115D01*
X0605277Y0254950D01*
X0606005Y0254221D02*
X0658185Y0254221D01*
X0658414Y0254450D02*
X0657579Y0253615D01*
X0657127Y0252524D01*
X0657127Y0251343D01*
X0657579Y0250252D01*
X0658397Y0249433D01*
X0657579Y0248615D01*
X0657127Y0247524D01*
X0657127Y0246343D01*
X0657579Y0245252D01*
X0658414Y0244416D01*
X0659505Y0243965D01*
X0660686Y0243965D01*
X0661777Y0244416D01*
X0662612Y0245252D01*
X0663064Y0246343D01*
X0663064Y0247524D01*
X0662612Y0248615D01*
X0661793Y0249433D01*
X0662612Y0250252D01*
X0663064Y0251343D01*
X0663064Y0252524D01*
X0662612Y0253615D01*
X0661777Y0254450D01*
X0660686Y0254902D01*
X0659505Y0254902D01*
X0658414Y0254450D01*
X0657504Y0253435D02*
X0606393Y0253435D01*
X0606564Y0252649D02*
X0657179Y0252649D01*
X0657127Y0251863D02*
X0606564Y0251863D01*
X0606247Y0251077D02*
X0657237Y0251077D01*
X0657562Y0250291D02*
X0605651Y0250291D01*
X0604284Y0249505D02*
X0658325Y0249505D01*
X0657683Y0248719D02*
X0604007Y0248719D01*
X0603777Y0248950D02*
X0602686Y0249402D01*
X0601505Y0249402D01*
X0600414Y0248950D01*
X0599579Y0248115D01*
X0599127Y0247024D01*
X0599127Y0245843D01*
X0599579Y0244752D01*
X0600414Y0243916D01*
X0601505Y0243465D01*
X0602686Y0243465D01*
X0603777Y0243916D01*
X0604612Y0244752D01*
X0605064Y0245843D01*
X0605064Y0247024D01*
X0604612Y0248115D01*
X0603777Y0248950D01*
X0602906Y0249505D02*
X0597866Y0249505D01*
X0597793Y0249433D02*
X0598612Y0250252D01*
X0599064Y0251343D01*
X0599064Y0252524D01*
X0598612Y0253615D01*
X0597777Y0254450D01*
X0596686Y0254902D01*
X0595505Y0254902D01*
X0594414Y0254450D01*
X0593579Y0253615D01*
X0593127Y0252524D01*
X0593127Y0251343D01*
X0593579Y0250252D01*
X0594397Y0249433D01*
X0593579Y0248615D01*
X0593127Y0247524D01*
X0593127Y0246343D01*
X0593579Y0245252D01*
X0594414Y0244416D01*
X0595505Y0243965D01*
X0596686Y0243965D01*
X0597777Y0244416D01*
X0598612Y0245252D01*
X0599064Y0246343D01*
X0599064Y0247524D01*
X0598612Y0248615D01*
X0597793Y0249433D01*
X0598507Y0248719D02*
X0600183Y0248719D01*
X0599504Y0247934D02*
X0598894Y0247934D01*
X0599064Y0247148D02*
X0599178Y0247148D01*
X0599127Y0246362D02*
X0599064Y0246362D01*
X0599237Y0245576D02*
X0598746Y0245576D01*
X0598150Y0244790D02*
X0599563Y0244790D01*
X0600326Y0244004D02*
X0596781Y0244004D01*
X0595410Y0244004D02*
X0569595Y0244004D01*
X0569595Y0244790D02*
X0594040Y0244790D01*
X0593444Y0245576D02*
X0569595Y0245576D01*
X0569595Y0246362D02*
X0593127Y0246362D01*
X0593127Y0247148D02*
X0569595Y0247148D01*
X0569595Y0247934D02*
X0593296Y0247934D01*
X0593683Y0248719D02*
X0569595Y0248719D01*
X0569595Y0249505D02*
X0594325Y0249505D01*
X0593562Y0250291D02*
X0569595Y0250291D01*
X0569595Y0251077D02*
X0593237Y0251077D01*
X0593127Y0251863D02*
X0569595Y0251863D01*
X0569595Y0252649D02*
X0593179Y0252649D01*
X0593504Y0253435D02*
X0569595Y0253435D01*
X0569595Y0254221D02*
X0594185Y0254221D01*
X0598005Y0254221D02*
X0601185Y0254221D01*
X0600797Y0253435D02*
X0598686Y0253435D01*
X0599012Y0252649D02*
X0600627Y0252649D01*
X0600627Y0251863D02*
X0599064Y0251863D01*
X0598954Y0251077D02*
X0600944Y0251077D01*
X0601539Y0250291D02*
X0598628Y0250291D01*
X0602052Y0255007D02*
X0569595Y0255007D01*
X0569595Y0260508D02*
X0593322Y0260508D01*
X0592854Y0261294D02*
X0569595Y0261294D01*
X0569595Y0262080D02*
X0592627Y0262080D01*
X0592627Y0262866D02*
X0569595Y0262866D01*
X0569595Y0263652D02*
X0592887Y0263652D01*
X0593402Y0264438D02*
X0569595Y0264438D01*
X0598085Y0270725D02*
X0658105Y0270725D01*
X0658414Y0270416D02*
X0659505Y0269965D01*
X0660686Y0269965D01*
X0661777Y0270416D01*
X0662612Y0271252D01*
X0663064Y0272343D01*
X0663064Y0273524D01*
X0662612Y0274615D01*
X0661793Y0275433D01*
X0662612Y0276252D01*
X0663064Y0277343D01*
X0663064Y0278524D01*
X0662612Y0279615D01*
X0661777Y0280450D01*
X0660686Y0280902D01*
X0659505Y0280902D01*
X0658414Y0280450D01*
X0657579Y0279615D01*
X0657127Y0278524D01*
X0657127Y0277343D01*
X0657579Y0276252D01*
X0658397Y0275433D01*
X0657579Y0274615D01*
X0657127Y0273524D01*
X0657127Y0272343D01*
X0657579Y0271252D01*
X0658414Y0270416D01*
X0657471Y0271511D02*
X0598719Y0271511D01*
X0599045Y0272297D02*
X0657146Y0272297D01*
X0657127Y0273083D02*
X0599064Y0273083D01*
X0598921Y0273869D02*
X0657270Y0273869D01*
X0657619Y0274655D02*
X0598572Y0274655D01*
X0597786Y0275440D02*
X0658390Y0275440D01*
X0657604Y0276226D02*
X0598087Y0276226D01*
X0598720Y0277012D02*
X0657263Y0277012D01*
X0657127Y0277798D02*
X0599045Y0277798D01*
X0599064Y0278584D02*
X0657152Y0278584D01*
X0657477Y0279370D02*
X0598920Y0279370D01*
X0598570Y0280156D02*
X0658120Y0280156D01*
X0662070Y0280156D02*
X0721620Y0280156D01*
X0721270Y0279370D02*
X0662713Y0279370D01*
X0663039Y0278584D02*
X0721127Y0278584D01*
X0721145Y0277798D02*
X0663064Y0277798D01*
X0662927Y0277012D02*
X0721471Y0277012D01*
X0722104Y0276226D02*
X0662587Y0276226D01*
X0661801Y0275440D02*
X0721904Y0275440D01*
X0721388Y0274655D02*
X0662572Y0274655D01*
X0662921Y0273869D02*
X0721127Y0273869D01*
X0721127Y0273083D02*
X0663064Y0273083D01*
X0663045Y0272297D02*
X0721353Y0272297D01*
X0721819Y0271511D02*
X0662719Y0271511D01*
X0662085Y0270725D02*
X0722876Y0270725D01*
X0726838Y0272297D02*
X0804499Y0272297D01*
X0804414Y0272501D02*
X0805051Y0270965D01*
X0806227Y0269788D01*
X0807763Y0269152D01*
X0809427Y0269152D01*
X0810964Y0269788D01*
X0812140Y0270965D01*
X0812776Y0272501D01*
X0812776Y0274165D01*
X0812140Y0275701D01*
X0810964Y0276878D01*
X0809427Y0277514D01*
X0807763Y0277514D01*
X0806227Y0276878D01*
X0805051Y0275701D01*
X0804414Y0274165D01*
X0804414Y0272501D01*
X0804414Y0273083D02*
X0727064Y0273083D01*
X0727064Y0273869D02*
X0804414Y0273869D01*
X0804617Y0274655D02*
X0799675Y0274655D01*
X0801216Y0275440D02*
X0804942Y0275440D01*
X0805576Y0276226D02*
X0802001Y0276226D01*
X0802408Y0277012D02*
X0806552Y0277012D01*
X0802733Y0277798D02*
X0848201Y0277798D01*
X0848201Y0277012D02*
X0810638Y0277012D01*
X0811615Y0276226D02*
X0848201Y0276226D01*
X0848201Y0275440D02*
X0812248Y0275440D01*
X0812573Y0274655D02*
X0848201Y0274655D01*
X0848201Y0273869D02*
X0812776Y0273869D01*
X0812776Y0273083D02*
X0848201Y0273083D01*
X0848201Y0272297D02*
X0812691Y0272297D01*
X0812366Y0271511D02*
X0848201Y0271511D01*
X0848201Y0270725D02*
X0811900Y0270725D01*
X0811114Y0269939D02*
X0848201Y0269939D01*
X0848201Y0269153D02*
X0809430Y0269153D01*
X0807761Y0269153D02*
X0802574Y0269153D01*
X0802776Y0268367D02*
X0848201Y0268367D01*
X0848201Y0267581D02*
X0802776Y0267581D01*
X0802691Y0266795D02*
X0848201Y0266795D01*
X0848201Y0266010D02*
X0810887Y0266010D01*
X0811718Y0265224D02*
X0848201Y0265224D01*
X0848201Y0264438D02*
X0812290Y0264438D01*
X0812616Y0263652D02*
X0848201Y0263652D01*
X0848201Y0262866D02*
X0812776Y0262866D01*
X0812776Y0262080D02*
X0848201Y0262080D01*
X0848201Y0261294D02*
X0812649Y0261294D01*
X0812323Y0260508D02*
X0848201Y0260508D01*
X0848201Y0259722D02*
X0811797Y0259722D01*
X0811011Y0258936D02*
X0848201Y0258936D01*
X0848201Y0258150D02*
X0802658Y0258150D01*
X0802776Y0257364D02*
X0848201Y0257364D01*
X0848201Y0256579D02*
X0802776Y0256579D01*
X0802607Y0255793D02*
X0848201Y0255793D01*
X0848201Y0255007D02*
X0811034Y0255007D01*
X0811820Y0254221D02*
X0848201Y0254221D01*
X0848201Y0253435D02*
X0812333Y0253435D01*
X0812658Y0252649D02*
X0848201Y0252649D01*
X0848201Y0251863D02*
X0812776Y0251863D01*
X0812776Y0251077D02*
X0848201Y0251077D01*
X0848201Y0250291D02*
X0812606Y0250291D01*
X0812281Y0249505D02*
X0848201Y0249505D01*
X0848201Y0248719D02*
X0811694Y0248719D01*
X0810831Y0247934D02*
X0848201Y0247934D01*
X0848201Y0247148D02*
X0802700Y0247148D01*
X0802776Y0246362D02*
X0848201Y0246362D01*
X0848201Y0245576D02*
X0802776Y0245576D01*
X0802564Y0244790D02*
X0807463Y0244790D01*
X0807763Y0244914D02*
X0806227Y0244278D01*
X0805051Y0243101D01*
X0804414Y0241565D01*
X0804414Y0239901D01*
X0805051Y0238365D01*
X0806227Y0237188D01*
X0807763Y0236552D01*
X0809427Y0236552D01*
X0810964Y0237188D01*
X0812140Y0238365D01*
X0812776Y0239901D01*
X0812776Y0241565D01*
X0812140Y0243101D01*
X0810964Y0244278D01*
X0809427Y0244914D01*
X0807763Y0244914D01*
X0809727Y0244790D02*
X0848201Y0244790D01*
X0848201Y0244004D02*
X0811237Y0244004D01*
X0812023Y0243218D02*
X0848201Y0243218D01*
X0848201Y0242432D02*
X0812417Y0242432D01*
X0812742Y0241646D02*
X0848201Y0241646D01*
X0848201Y0240860D02*
X0812776Y0240860D01*
X0812776Y0240074D02*
X0848201Y0240074D01*
X0848201Y0239288D02*
X0812522Y0239288D01*
X0812197Y0238503D02*
X0848201Y0238503D01*
X0848201Y0237717D02*
X0811492Y0237717D01*
X0810341Y0236931D02*
X0848201Y0236931D01*
X0848201Y0236145D02*
X0802743Y0236145D01*
X0802776Y0236065D02*
X0802140Y0237601D01*
X0800964Y0238778D01*
X0799427Y0239414D01*
X0797763Y0239414D01*
X0796227Y0238778D01*
X0795051Y0237601D01*
X0794414Y0236065D01*
X0794414Y0234401D01*
X0795051Y0232865D01*
X0796227Y0231688D01*
X0797763Y0231052D01*
X0799427Y0231052D01*
X0800964Y0231688D01*
X0802140Y0232865D01*
X0802776Y0234401D01*
X0802776Y0236065D01*
X0802776Y0235359D02*
X0848201Y0235359D01*
X0848201Y0234573D02*
X0802776Y0234573D01*
X0802522Y0233787D02*
X0807215Y0233787D01*
X0807763Y0234014D02*
X0806227Y0233378D01*
X0805051Y0232201D01*
X0804414Y0230665D01*
X0804414Y0229001D01*
X0805051Y0227465D01*
X0806227Y0226288D01*
X0807763Y0225652D01*
X0809427Y0225652D01*
X0810964Y0226288D01*
X0812140Y0227465D01*
X0812776Y0229001D01*
X0812776Y0230665D01*
X0812140Y0232201D01*
X0810964Y0233378D01*
X0809427Y0234014D01*
X0807763Y0234014D01*
X0805850Y0233001D02*
X0802196Y0233001D01*
X0801490Y0232215D02*
X0805064Y0232215D01*
X0804731Y0231429D02*
X0800338Y0231429D01*
X0799427Y0228614D02*
X0797763Y0228614D01*
X0796227Y0227978D01*
X0795051Y0226801D01*
X0794414Y0225265D01*
X0794414Y0223601D01*
X0795051Y0222065D01*
X0796227Y0220888D01*
X0797763Y0220252D01*
X0799427Y0220252D01*
X0800964Y0220888D01*
X0802140Y0222065D01*
X0802776Y0223601D01*
X0802776Y0225265D01*
X0802140Y0226801D01*
X0800964Y0227978D01*
X0799427Y0228614D01*
X0800220Y0228286D02*
X0804710Y0228286D01*
X0804414Y0229072D02*
X0772655Y0229072D01*
X0772277Y0229450D02*
X0773112Y0228615D01*
X0773564Y0227524D01*
X0773564Y0226343D01*
X0773112Y0225252D01*
X0772277Y0224416D01*
X0771186Y0223965D01*
X0770005Y0223965D01*
X0768914Y0224416D01*
X0768079Y0225252D01*
X0767627Y0226343D01*
X0767627Y0227524D01*
X0768079Y0228615D01*
X0768914Y0229450D01*
X0770005Y0229902D01*
X0771186Y0229902D01*
X0772277Y0229450D01*
X0771292Y0229858D02*
X0804414Y0229858D01*
X0804414Y0230643D02*
X0769481Y0230643D01*
X0769564Y0230843D02*
X0769112Y0229752D01*
X0768277Y0228916D01*
X0767186Y0228465D01*
X0766005Y0228465D01*
X0764914Y0228916D01*
X0764079Y0229752D01*
X0763627Y0230843D01*
X0763627Y0232024D01*
X0764079Y0233115D01*
X0764914Y0233950D01*
X0766005Y0234402D01*
X0767186Y0234402D01*
X0768277Y0233950D01*
X0769112Y0233115D01*
X0769564Y0232024D01*
X0769564Y0230843D01*
X0769564Y0231429D02*
X0796852Y0231429D01*
X0795700Y0232215D02*
X0769484Y0232215D01*
X0769159Y0233001D02*
X0794994Y0233001D01*
X0794668Y0233787D02*
X0768439Y0233787D01*
X0764751Y0233787D02*
X0733964Y0233787D01*
X0734277Y0233916D02*
X0735112Y0234752D01*
X0735564Y0235843D01*
X0735564Y0237024D01*
X0735112Y0238115D01*
X0734277Y0238950D01*
X0733186Y0239402D01*
X0732005Y0239402D01*
X0730914Y0238950D01*
X0730079Y0238115D01*
X0729627Y0237024D01*
X0729627Y0235843D01*
X0730079Y0234752D01*
X0730914Y0233916D01*
X0732005Y0233465D01*
X0733186Y0233465D01*
X0734277Y0233916D01*
X0734933Y0234573D02*
X0794414Y0234573D01*
X0794414Y0235359D02*
X0735363Y0235359D01*
X0735564Y0236145D02*
X0794447Y0236145D01*
X0794773Y0236931D02*
X0735564Y0236931D01*
X0735277Y0237717D02*
X0795166Y0237717D01*
X0795952Y0238503D02*
X0734724Y0238503D01*
X0733459Y0239288D02*
X0797460Y0239288D01*
X0799730Y0239288D02*
X0804668Y0239288D01*
X0804414Y0240074D02*
X0727564Y0240074D01*
X0727564Y0240524D02*
X0727112Y0241615D01*
X0726277Y0242450D01*
X0725186Y0242902D01*
X0724005Y0242902D01*
X0722914Y0242450D01*
X0722079Y0241615D01*
X0721627Y0240524D01*
X0721627Y0239343D01*
X0722079Y0238252D01*
X0722914Y0237416D01*
X0723727Y0237080D01*
X0723414Y0236950D01*
X0722579Y0236115D01*
X0722127Y0235024D01*
X0722127Y0233843D01*
X0722579Y0232752D01*
X0723414Y0231916D01*
X0724505Y0231465D01*
X0725686Y0231465D01*
X0726777Y0231916D01*
X0727612Y0232752D01*
X0728064Y0233843D01*
X0728064Y0235024D01*
X0727612Y0236115D01*
X0726777Y0236950D01*
X0725963Y0237287D01*
X0726277Y0237416D01*
X0727112Y0238252D01*
X0727564Y0239343D01*
X0727564Y0240524D01*
X0727424Y0240860D02*
X0804414Y0240860D01*
X0804448Y0241646D02*
X0727080Y0241646D01*
X0726294Y0242432D02*
X0796604Y0242432D01*
X0795597Y0243218D02*
X0569595Y0243218D01*
X0569595Y0242432D02*
X0641396Y0242432D01*
X0641414Y0242450D02*
X0640579Y0241615D01*
X0640127Y0240524D01*
X0640127Y0239343D01*
X0640579Y0238252D01*
X0641414Y0237416D01*
X0642505Y0236965D01*
X0643686Y0236965D01*
X0644777Y0237416D01*
X0645612Y0238252D01*
X0646064Y0239343D01*
X0646064Y0240524D01*
X0645612Y0241615D01*
X0644777Y0242450D01*
X0643686Y0242902D01*
X0642505Y0242902D01*
X0641414Y0242450D01*
X0640610Y0241646D02*
X0569595Y0241646D01*
X0569595Y0240860D02*
X0640266Y0240860D01*
X0640127Y0240074D02*
X0569595Y0240074D01*
X0569595Y0239288D02*
X0603732Y0239288D01*
X0604005Y0239402D02*
X0602914Y0238950D01*
X0602079Y0238115D01*
X0601627Y0237024D01*
X0601627Y0235843D01*
X0602079Y0234752D01*
X0602914Y0233916D01*
X0604005Y0233465D01*
X0605186Y0233465D01*
X0606277Y0233916D01*
X0607112Y0234752D01*
X0607564Y0235843D01*
X0607564Y0237024D01*
X0607112Y0238115D01*
X0606277Y0238950D01*
X0605186Y0239402D01*
X0604005Y0239402D01*
X0605459Y0239288D02*
X0640149Y0239288D01*
X0640475Y0238503D02*
X0606724Y0238503D01*
X0607277Y0237717D02*
X0641113Y0237717D01*
X0645077Y0237717D02*
X0665914Y0237717D01*
X0666079Y0238115D02*
X0665627Y0237024D01*
X0665627Y0235843D01*
X0666079Y0234752D01*
X0666914Y0233916D01*
X0668005Y0233465D01*
X0669186Y0233465D01*
X0670277Y0233916D01*
X0671112Y0234752D01*
X0671564Y0235843D01*
X0671564Y0237024D01*
X0671112Y0238115D01*
X0670277Y0238950D01*
X0669186Y0239402D01*
X0668005Y0239402D01*
X0666914Y0238950D01*
X0666079Y0238115D01*
X0666467Y0238503D02*
X0645716Y0238503D01*
X0646041Y0239288D02*
X0667732Y0239288D01*
X0669459Y0239288D02*
X0721649Y0239288D01*
X0721627Y0240074D02*
X0646064Y0240074D01*
X0645924Y0240860D02*
X0721766Y0240860D01*
X0722110Y0241646D02*
X0645580Y0241646D01*
X0644794Y0242432D02*
X0722896Y0242432D01*
X0721975Y0238503D02*
X0670724Y0238503D01*
X0671277Y0237717D02*
X0722613Y0237717D01*
X0723395Y0236931D02*
X0671564Y0236931D01*
X0671564Y0236145D02*
X0722609Y0236145D01*
X0722266Y0235359D02*
X0671363Y0235359D01*
X0670933Y0234573D02*
X0722127Y0234573D01*
X0722150Y0233787D02*
X0720439Y0233787D01*
X0720277Y0233950D02*
X0719186Y0234402D01*
X0718005Y0234402D01*
X0716914Y0233950D01*
X0716079Y0233115D01*
X0715627Y0232024D01*
X0715627Y0230843D01*
X0715809Y0230402D01*
X0715505Y0230402D01*
X0714414Y0229950D01*
X0713579Y0229115D01*
X0713127Y0228024D01*
X0713127Y0226843D01*
X0713579Y0225752D01*
X0714414Y0224916D01*
X0715505Y0224465D01*
X0716686Y0224465D01*
X0717777Y0224916D01*
X0718612Y0225752D01*
X0719064Y0226843D01*
X0719064Y0228024D01*
X0718881Y0228465D01*
X0719186Y0228465D01*
X0720277Y0228916D01*
X0721112Y0229752D01*
X0721564Y0230843D01*
X0721564Y0232024D01*
X0721112Y0233115D01*
X0720277Y0233950D01*
X0721159Y0233001D02*
X0722475Y0233001D01*
X0723115Y0232215D02*
X0721484Y0232215D01*
X0721564Y0231429D02*
X0749295Y0231429D01*
X0749127Y0231024D02*
X0749127Y0229843D01*
X0749579Y0228752D01*
X0750414Y0227916D01*
X0751505Y0227465D01*
X0752686Y0227465D01*
X0753777Y0227916D01*
X0754612Y0228752D01*
X0755064Y0229843D01*
X0755064Y0231024D01*
X0754612Y0232115D01*
X0753777Y0232950D01*
X0752686Y0233402D01*
X0751505Y0233402D01*
X0750414Y0232950D01*
X0749579Y0232115D01*
X0749127Y0231024D01*
X0749127Y0230643D02*
X0744083Y0230643D01*
X0743777Y0230950D02*
X0742686Y0231402D01*
X0741505Y0231402D01*
X0740414Y0230950D01*
X0739579Y0230115D01*
X0739127Y0229024D01*
X0739127Y0227843D01*
X0739579Y0226752D01*
X0740414Y0225916D01*
X0741505Y0225465D01*
X0742686Y0225465D01*
X0743777Y0225916D01*
X0744612Y0226752D01*
X0745064Y0227843D01*
X0745064Y0229024D01*
X0744612Y0230115D01*
X0743777Y0230950D01*
X0744718Y0229858D02*
X0749127Y0229858D01*
X0749446Y0229072D02*
X0745044Y0229072D01*
X0745064Y0228286D02*
X0750044Y0228286D01*
X0751420Y0227500D02*
X0744922Y0227500D01*
X0744574Y0226714D02*
X0767627Y0226714D01*
X0767627Y0227500D02*
X0752771Y0227500D01*
X0754146Y0228286D02*
X0767942Y0228286D01*
X0768432Y0229072D02*
X0768536Y0229072D01*
X0769156Y0229858D02*
X0769898Y0229858D01*
X0773248Y0228286D02*
X0796971Y0228286D01*
X0795749Y0227500D02*
X0773564Y0227500D01*
X0773564Y0226714D02*
X0795014Y0226714D01*
X0794689Y0225928D02*
X0773392Y0225928D01*
X0773002Y0225142D02*
X0794414Y0225142D01*
X0794414Y0224356D02*
X0772131Y0224356D01*
X0769059Y0224356D02*
X0569595Y0224356D01*
X0569595Y0223570D02*
X0794427Y0223570D01*
X0794752Y0222784D02*
X0734942Y0222784D01*
X0734777Y0222950D02*
X0733686Y0223402D01*
X0732505Y0223402D01*
X0731414Y0222950D01*
X0730579Y0222115D01*
X0730127Y0221024D01*
X0730127Y0219843D01*
X0730579Y0218752D01*
X0731414Y0217916D01*
X0732505Y0217465D01*
X0733686Y0217465D01*
X0734777Y0217916D01*
X0735612Y0218752D01*
X0736064Y0219843D01*
X0736064Y0221024D01*
X0735612Y0222115D01*
X0734777Y0222950D01*
X0735660Y0221998D02*
X0795117Y0221998D01*
X0795903Y0221212D02*
X0735985Y0221212D01*
X0736064Y0220427D02*
X0797342Y0220427D01*
X0799848Y0220427D02*
X0804688Y0220427D01*
X0804414Y0219765D02*
X0804414Y0218101D01*
X0805051Y0216565D01*
X0806227Y0215388D01*
X0807763Y0214752D01*
X0809427Y0214752D01*
X0810964Y0215388D01*
X0812140Y0216565D01*
X0812776Y0218101D01*
X0812776Y0219765D01*
X0812140Y0221301D01*
X0810964Y0222478D01*
X0809427Y0223114D01*
X0807763Y0223114D01*
X0806227Y0222478D01*
X0805051Y0221301D01*
X0804414Y0219765D01*
X0804414Y0219641D02*
X0735980Y0219641D01*
X0735654Y0218855D02*
X0804414Y0218855D01*
X0804428Y0218069D02*
X0734929Y0218069D01*
X0731261Y0218069D02*
X0670929Y0218069D01*
X0670777Y0217916D02*
X0671612Y0218752D01*
X0672064Y0219843D01*
X0672064Y0221024D01*
X0671612Y0222115D01*
X0670777Y0222950D01*
X0669686Y0223402D01*
X0668505Y0223402D01*
X0667414Y0222950D01*
X0666579Y0222115D01*
X0666127Y0221024D01*
X0666127Y0219843D01*
X0666579Y0218752D01*
X0667414Y0217916D01*
X0668505Y0217465D01*
X0669686Y0217465D01*
X0670777Y0217916D01*
X0671654Y0218855D02*
X0730536Y0218855D01*
X0730210Y0219641D02*
X0671980Y0219641D01*
X0672064Y0220427D02*
X0730127Y0220427D01*
X0730205Y0221212D02*
X0671985Y0221212D01*
X0671660Y0221998D02*
X0730530Y0221998D01*
X0731248Y0222784D02*
X0670942Y0222784D01*
X0667248Y0222784D02*
X0606942Y0222784D01*
X0606777Y0222950D02*
X0605686Y0223402D01*
X0604505Y0223402D01*
X0603414Y0222950D01*
X0602579Y0222115D01*
X0602127Y0221024D01*
X0602127Y0219843D01*
X0602579Y0218752D01*
X0603414Y0217916D01*
X0604505Y0217465D01*
X0605686Y0217465D01*
X0606777Y0217916D01*
X0607612Y0218752D01*
X0608064Y0219843D01*
X0608064Y0221024D01*
X0607612Y0222115D01*
X0606777Y0222950D01*
X0607660Y0221998D02*
X0666530Y0221998D01*
X0666205Y0221212D02*
X0607985Y0221212D01*
X0608064Y0220427D02*
X0666127Y0220427D01*
X0666210Y0219641D02*
X0607980Y0219641D01*
X0607654Y0218855D02*
X0666536Y0218855D01*
X0667261Y0218069D02*
X0606929Y0218069D01*
X0603261Y0218069D02*
X0569595Y0218069D01*
X0569595Y0218855D02*
X0602536Y0218855D01*
X0602210Y0219641D02*
X0569595Y0219641D01*
X0569595Y0220427D02*
X0602127Y0220427D01*
X0602205Y0221212D02*
X0569595Y0221212D01*
X0569595Y0221998D02*
X0602530Y0221998D01*
X0603248Y0222784D02*
X0569595Y0222784D01*
X0569595Y0225142D02*
X0714188Y0225142D01*
X0713505Y0225928D02*
X0569595Y0225928D01*
X0569595Y0226714D02*
X0713180Y0226714D01*
X0713127Y0227500D02*
X0569595Y0227500D01*
X0569595Y0228286D02*
X0713235Y0228286D01*
X0713561Y0229072D02*
X0569595Y0229072D01*
X0569595Y0229858D02*
X0714322Y0229858D01*
X0715709Y0230643D02*
X0569595Y0230643D01*
X0569595Y0231429D02*
X0715627Y0231429D01*
X0715706Y0232215D02*
X0569595Y0232215D01*
X0569595Y0233001D02*
X0716032Y0233001D01*
X0716751Y0233787D02*
X0669964Y0233787D01*
X0667226Y0233787D02*
X0605964Y0233787D01*
X0606933Y0234573D02*
X0666257Y0234573D01*
X0665827Y0235359D02*
X0607363Y0235359D01*
X0607564Y0236145D02*
X0665627Y0236145D01*
X0665627Y0236931D02*
X0607564Y0236931D01*
X0602467Y0238503D02*
X0569595Y0238503D01*
X0569595Y0237717D02*
X0601914Y0237717D01*
X0601627Y0236931D02*
X0569595Y0236931D01*
X0569595Y0236145D02*
X0601627Y0236145D01*
X0601827Y0235359D02*
X0569595Y0235359D01*
X0569595Y0234573D02*
X0602257Y0234573D01*
X0603226Y0233787D02*
X0569595Y0233787D01*
X0557595Y0222433D02*
X0535095Y0244933D01*
X0518095Y0244933D01*
X0445595Y0244933D01*
X0164095Y0244933D01*
X0153595Y0244933D01*
X0147795Y0244933D01*
X0145095Y0247633D01*
X0153595Y0242933D02*
X0147595Y0236933D01*
X0145195Y0236933D01*
X0145095Y0236833D01*
X0152595Y0229933D02*
X0152595Y0225933D01*
X0152595Y0229933D02*
X0161595Y0238933D01*
X0387595Y0238933D01*
X0391095Y0238933D01*
X0407595Y0222433D01*
X0424095Y0240933D02*
X0439095Y0240933D01*
X0457595Y0222433D01*
X0483595Y0242933D02*
X0487095Y0242933D01*
X0507595Y0222433D01*
X0483595Y0242933D02*
X0153595Y0242933D01*
X0160095Y0240933D02*
X0161095Y0240933D01*
X0165095Y0240933D01*
X0353095Y0240933D01*
X0424095Y0240933D01*
X0357595Y0222433D02*
X0343095Y0236933D01*
X0332595Y0236933D01*
X0167595Y0236933D01*
X0162595Y0236933D01*
X0156095Y0230433D01*
X0156095Y0217933D01*
X0154095Y0215533D02*
X0152145Y0217483D01*
X0149645Y0219983D01*
X0149095Y0220533D01*
X0135095Y0220533D01*
X0149645Y0219983D02*
X0150095Y0219533D01*
X0152145Y0217483D02*
X0154095Y0215533D01*
X0154095Y0210433D01*
X0154095Y0191433D01*
X0156595Y0188933D01*
X0158095Y0187433D01*
X0158095Y0169933D01*
X0165595Y0162433D01*
X0169595Y0158433D01*
X0182095Y0145933D01*
X0203095Y0145933D01*
X0519595Y0145933D01*
X0533595Y0145933D01*
X0557095Y0122433D01*
X0569595Y0122187D02*
X0587967Y0122187D01*
X0588505Y0121965D02*
X0589686Y0121965D01*
X0590777Y0122416D01*
X0591612Y0123252D01*
X0592064Y0124343D01*
X0592064Y0125524D01*
X0591612Y0126615D01*
X0590777Y0127450D01*
X0589686Y0127902D01*
X0588505Y0127902D01*
X0587414Y0127450D01*
X0586579Y0126615D01*
X0586127Y0125524D01*
X0586127Y0124343D01*
X0586579Y0123252D01*
X0587414Y0122416D01*
X0588505Y0121965D01*
X0590224Y0122187D02*
X0603143Y0122187D01*
X0603414Y0121916D02*
X0604505Y0121465D01*
X0605686Y0121465D01*
X0606777Y0121916D01*
X0607612Y0122752D01*
X0608064Y0123843D01*
X0608064Y0125024D01*
X0607612Y0126115D01*
X0606777Y0126950D01*
X0605686Y0127402D01*
X0604505Y0127402D01*
X0603414Y0126950D01*
X0602579Y0126115D01*
X0602127Y0125024D01*
X0602127Y0123843D01*
X0602579Y0122752D01*
X0603414Y0121916D01*
X0602487Y0122973D02*
X0591334Y0122973D01*
X0591822Y0123759D02*
X0602161Y0123759D01*
X0602127Y0124545D02*
X0592064Y0124545D01*
X0592064Y0125331D02*
X0602254Y0125331D01*
X0602581Y0126117D02*
X0591818Y0126117D01*
X0591323Y0126903D02*
X0603367Y0126903D01*
X0606823Y0126903D02*
X0667367Y0126903D01*
X0667414Y0126950D02*
X0666579Y0126115D01*
X0666127Y0125024D01*
X0666127Y0123843D01*
X0666579Y0122752D01*
X0667414Y0121916D01*
X0668505Y0121465D01*
X0669686Y0121465D01*
X0670777Y0121916D01*
X0671612Y0122752D01*
X0672064Y0123843D01*
X0672064Y0125024D01*
X0671612Y0126115D01*
X0670777Y0126950D01*
X0669686Y0127402D01*
X0668505Y0127402D01*
X0667414Y0126950D01*
X0666581Y0126117D02*
X0607609Y0126117D01*
X0607936Y0125331D02*
X0666254Y0125331D01*
X0666127Y0124545D02*
X0608064Y0124545D01*
X0608029Y0123759D02*
X0666161Y0123759D01*
X0666487Y0122973D02*
X0607704Y0122973D01*
X0607048Y0122187D02*
X0667143Y0122187D01*
X0671048Y0122187D02*
X0749402Y0122187D01*
X0749579Y0122615D02*
X0749127Y0121524D01*
X0749127Y0120343D01*
X0749579Y0119252D01*
X0750414Y0118416D01*
X0751505Y0117965D01*
X0752686Y0117965D01*
X0753777Y0118416D01*
X0754612Y0119252D01*
X0755064Y0120343D01*
X0755064Y0121524D01*
X0754612Y0122615D01*
X0753777Y0123450D01*
X0752686Y0123902D01*
X0751505Y0123902D01*
X0750414Y0123450D01*
X0749579Y0122615D01*
X0749937Y0122973D02*
X0671704Y0122973D01*
X0672029Y0123759D02*
X0751161Y0123759D01*
X0753029Y0123759D02*
X0762661Y0123759D01*
X0762627Y0123843D02*
X0763079Y0122752D01*
X0763914Y0121916D01*
X0765005Y0121465D01*
X0766186Y0121465D01*
X0767277Y0121916D01*
X0768112Y0122752D01*
X0768564Y0123843D01*
X0768564Y0125024D01*
X0768112Y0126115D01*
X0767277Y0126950D01*
X0766186Y0127402D01*
X0765005Y0127402D01*
X0763914Y0126950D01*
X0763079Y0126115D01*
X0762627Y0125024D01*
X0762627Y0123843D01*
X0762627Y0124545D02*
X0672064Y0124545D01*
X0671936Y0125331D02*
X0762754Y0125331D01*
X0763081Y0126117D02*
X0671609Y0126117D01*
X0670823Y0126903D02*
X0763867Y0126903D01*
X0767323Y0126903D02*
X0794414Y0126903D01*
X0794414Y0127365D02*
X0794414Y0125701D01*
X0795051Y0124165D01*
X0796227Y0122988D01*
X0797763Y0122352D01*
X0799427Y0122352D01*
X0800964Y0122988D01*
X0802140Y0124165D01*
X0802776Y0125701D01*
X0802776Y0127365D01*
X0802140Y0128901D01*
X0800964Y0130078D01*
X0799427Y0130714D01*
X0797763Y0130714D01*
X0796227Y0130078D01*
X0795051Y0128901D01*
X0794414Y0127365D01*
X0794548Y0127689D02*
X0590199Y0127689D01*
X0587991Y0127689D02*
X0569595Y0127689D01*
X0569595Y0128475D02*
X0794874Y0128475D01*
X0795410Y0129261D02*
X0569595Y0129261D01*
X0569595Y0130047D02*
X0796196Y0130047D01*
X0797763Y0133252D02*
X0799427Y0133252D01*
X0800964Y0133888D01*
X0802140Y0135065D01*
X0802776Y0136601D01*
X0802776Y0138265D01*
X0802140Y0139801D01*
X0800964Y0140978D01*
X0799427Y0141614D01*
X0797763Y0141614D01*
X0796227Y0140978D01*
X0795051Y0139801D01*
X0794414Y0138265D01*
X0794414Y0136601D01*
X0795051Y0135065D01*
X0796227Y0133888D01*
X0797763Y0133252D01*
X0796139Y0133976D02*
X0781205Y0133976D01*
X0781112Y0133752D02*
X0781564Y0134843D01*
X0781564Y0136024D01*
X0781112Y0137115D01*
X0780277Y0137950D01*
X0779213Y0138390D01*
X0779277Y0138416D01*
X0780112Y0139252D01*
X0780564Y0140343D01*
X0780564Y0141524D01*
X0780112Y0142615D01*
X0779277Y0143450D01*
X0778186Y0143902D01*
X0777005Y0143902D01*
X0775914Y0143450D01*
X0775079Y0142615D01*
X0774627Y0141524D01*
X0774627Y0140343D01*
X0775079Y0139252D01*
X0775914Y0138416D01*
X0776977Y0137976D01*
X0776914Y0137950D01*
X0776079Y0137115D01*
X0775627Y0136024D01*
X0775627Y0134843D01*
X0776079Y0133752D01*
X0776914Y0132916D01*
X0778005Y0132465D01*
X0779186Y0132465D01*
X0780277Y0132916D01*
X0781112Y0133752D01*
X0780550Y0133190D02*
X0804549Y0133190D01*
X0804414Y0132865D02*
X0804414Y0131201D01*
X0805051Y0129665D01*
X0806227Y0128488D01*
X0807763Y0127852D01*
X0809427Y0127852D01*
X0810964Y0128488D01*
X0812140Y0129665D01*
X0812776Y0131201D01*
X0812776Y0132865D01*
X0812140Y0134401D01*
X0810964Y0135578D01*
X0809427Y0136214D01*
X0807763Y0136214D01*
X0806227Y0135578D01*
X0805051Y0134401D01*
X0804414Y0132865D01*
X0804414Y0132404D02*
X0569595Y0132404D01*
X0569595Y0131618D02*
X0804414Y0131618D01*
X0804567Y0130833D02*
X0569595Y0130833D01*
X0569595Y0133190D02*
X0776640Y0133190D01*
X0775986Y0133976D02*
X0569595Y0133976D01*
X0569595Y0134762D02*
X0775660Y0134762D01*
X0775627Y0135548D02*
X0569595Y0135548D01*
X0569595Y0136334D02*
X0775755Y0136334D01*
X0776084Y0137120D02*
X0569595Y0137120D01*
X0569595Y0137906D02*
X0603440Y0137906D01*
X0603414Y0137916D02*
X0604505Y0137465D01*
X0605686Y0137465D01*
X0606777Y0137916D01*
X0607612Y0138752D01*
X0608064Y0139843D01*
X0608064Y0141024D01*
X0607612Y0142115D01*
X0606777Y0142950D01*
X0605686Y0143402D01*
X0604505Y0143402D01*
X0603414Y0142950D01*
X0602579Y0142115D01*
X0602127Y0141024D01*
X0602127Y0139843D01*
X0602579Y0138752D01*
X0603414Y0137916D01*
X0602638Y0138692D02*
X0569595Y0138692D01*
X0569595Y0139478D02*
X0602278Y0139478D01*
X0602127Y0140263D02*
X0569595Y0140263D01*
X0569595Y0141049D02*
X0602137Y0141049D01*
X0602463Y0141835D02*
X0569595Y0141835D01*
X0569595Y0142621D02*
X0603085Y0142621D01*
X0607105Y0142621D02*
X0667085Y0142621D01*
X0667414Y0142950D02*
X0666579Y0142115D01*
X0666127Y0141024D01*
X0666127Y0139843D01*
X0666579Y0138752D01*
X0667414Y0137916D01*
X0668505Y0137465D01*
X0669686Y0137465D01*
X0670777Y0137916D01*
X0671612Y0138752D01*
X0672064Y0139843D01*
X0672064Y0141024D01*
X0671612Y0142115D01*
X0670777Y0142950D01*
X0669686Y0143402D01*
X0668505Y0143402D01*
X0667414Y0142950D01*
X0666463Y0141835D02*
X0607727Y0141835D01*
X0608053Y0141049D02*
X0666137Y0141049D01*
X0666127Y0140263D02*
X0608064Y0140263D01*
X0607912Y0139478D02*
X0666278Y0139478D01*
X0666638Y0138692D02*
X0607552Y0138692D01*
X0606751Y0137906D02*
X0667440Y0137906D01*
X0670751Y0137906D02*
X0719440Y0137906D01*
X0719414Y0137916D02*
X0720505Y0137465D01*
X0721686Y0137465D01*
X0722777Y0137916D01*
X0723612Y0138752D01*
X0724064Y0139843D01*
X0724064Y0141024D01*
X0723612Y0142115D01*
X0722777Y0142950D01*
X0721686Y0143402D01*
X0720505Y0143402D01*
X0719414Y0142950D01*
X0718579Y0142115D01*
X0718127Y0141024D01*
X0718127Y0139843D01*
X0718579Y0138752D01*
X0719414Y0137916D01*
X0718638Y0138692D02*
X0671552Y0138692D01*
X0671912Y0139478D02*
X0718278Y0139478D01*
X0718127Y0140263D02*
X0672064Y0140263D01*
X0672053Y0141049D02*
X0718137Y0141049D01*
X0718463Y0141835D02*
X0671727Y0141835D01*
X0671105Y0142621D02*
X0719085Y0142621D01*
X0723105Y0142621D02*
X0731085Y0142621D01*
X0731414Y0142950D02*
X0730579Y0142115D01*
X0730127Y0141024D01*
X0730127Y0139843D01*
X0730579Y0138752D01*
X0731414Y0137916D01*
X0732505Y0137465D01*
X0733686Y0137465D01*
X0734777Y0137916D01*
X0735612Y0138752D01*
X0736064Y0139843D01*
X0736064Y0141024D01*
X0735612Y0142115D01*
X0734777Y0142950D01*
X0733686Y0143402D01*
X0732505Y0143402D01*
X0731414Y0142950D01*
X0730463Y0141835D02*
X0723727Y0141835D01*
X0724053Y0141049D02*
X0730137Y0141049D01*
X0730127Y0140263D02*
X0724064Y0140263D01*
X0723912Y0139478D02*
X0730278Y0139478D01*
X0730638Y0138692D02*
X0723552Y0138692D01*
X0722751Y0137906D02*
X0731440Y0137906D01*
X0734751Y0137906D02*
X0776870Y0137906D01*
X0775638Y0138692D02*
X0773552Y0138692D01*
X0773277Y0138416D02*
X0774112Y0139252D01*
X0774564Y0140343D01*
X0774564Y0141524D01*
X0774112Y0142615D01*
X0773543Y0143183D01*
X0774112Y0143752D01*
X0774564Y0144843D01*
X0774564Y0146024D01*
X0774112Y0147115D01*
X0773277Y0147950D01*
X0772186Y0148402D01*
X0771005Y0148402D01*
X0769914Y0147950D01*
X0769079Y0147115D01*
X0768627Y0146024D01*
X0768627Y0144843D01*
X0769079Y0143752D01*
X0769647Y0143183D01*
X0769079Y0142615D01*
X0768627Y0141524D01*
X0768627Y0140343D01*
X0769079Y0139252D01*
X0769914Y0138416D01*
X0771005Y0137965D01*
X0772186Y0137965D01*
X0773277Y0138416D01*
X0774205Y0139478D02*
X0774985Y0139478D01*
X0774659Y0140263D02*
X0774531Y0140263D01*
X0774564Y0141049D02*
X0774627Y0141049D01*
X0774756Y0141835D02*
X0774434Y0141835D01*
X0774105Y0142621D02*
X0775085Y0142621D01*
X0775871Y0143407D02*
X0773767Y0143407D01*
X0774295Y0144193D02*
X0797664Y0144193D01*
X0797763Y0144152D02*
X0799427Y0144152D01*
X0800964Y0144788D01*
X0802140Y0145965D01*
X0802776Y0147501D01*
X0802776Y0149165D01*
X0802140Y0150701D01*
X0800964Y0151878D01*
X0799427Y0152514D01*
X0797763Y0152514D01*
X0796227Y0151878D01*
X0795051Y0150701D01*
X0794414Y0149165D01*
X0794414Y0147501D01*
X0795051Y0145965D01*
X0796227Y0144788D01*
X0797763Y0144152D01*
X0799526Y0144193D02*
X0804591Y0144193D01*
X0804414Y0143765D02*
X0804414Y0142101D01*
X0805051Y0140565D01*
X0806227Y0139388D01*
X0807763Y0138752D01*
X0809427Y0138752D01*
X0810964Y0139388D01*
X0812140Y0140565D01*
X0812776Y0142101D01*
X0812776Y0143765D01*
X0812140Y0145301D01*
X0810964Y0146478D01*
X0809427Y0147114D01*
X0807763Y0147114D01*
X0806227Y0146478D01*
X0805051Y0145301D01*
X0804414Y0143765D01*
X0804414Y0143407D02*
X0779319Y0143407D01*
X0780105Y0142621D02*
X0804414Y0142621D01*
X0804524Y0141835D02*
X0780434Y0141835D01*
X0780564Y0141049D02*
X0796400Y0141049D01*
X0795513Y0140263D02*
X0780531Y0140263D01*
X0780205Y0139478D02*
X0794916Y0139478D01*
X0794591Y0138692D02*
X0779552Y0138692D01*
X0780321Y0137906D02*
X0794414Y0137906D01*
X0794414Y0137120D02*
X0781106Y0137120D01*
X0781435Y0136334D02*
X0794525Y0136334D01*
X0794850Y0135548D02*
X0781564Y0135548D01*
X0781530Y0134762D02*
X0795353Y0134762D01*
X0801051Y0133976D02*
X0804874Y0133976D01*
X0805411Y0134762D02*
X0801837Y0134762D01*
X0802340Y0135548D02*
X0806197Y0135548D01*
X0802665Y0136334D02*
X0848201Y0136334D01*
X0848201Y0137120D02*
X0802776Y0137120D01*
X0802776Y0137906D02*
X0848201Y0137906D01*
X0848201Y0138692D02*
X0802599Y0138692D01*
X0802274Y0139478D02*
X0806138Y0139478D01*
X0805352Y0140263D02*
X0801678Y0140263D01*
X0800790Y0141049D02*
X0804850Y0141049D01*
X0804917Y0144979D02*
X0801154Y0144979D01*
X0801940Y0145765D02*
X0805514Y0145765D01*
X0806403Y0146551D02*
X0802382Y0146551D01*
X0802708Y0147337D02*
X0848201Y0147337D01*
X0848201Y0148123D02*
X0802776Y0148123D01*
X0802776Y0148909D02*
X0848201Y0148909D01*
X0848201Y0149694D02*
X0809771Y0149694D01*
X0809427Y0149552D02*
X0810964Y0150188D01*
X0812140Y0151365D01*
X0812776Y0152901D01*
X0812776Y0154565D01*
X0812140Y0156101D01*
X0810964Y0157278D01*
X0809427Y0157914D01*
X0807763Y0157914D01*
X0806227Y0157278D01*
X0805051Y0156101D01*
X0804414Y0154565D01*
X0804414Y0152901D01*
X0805051Y0151365D01*
X0806227Y0150188D01*
X0807763Y0149552D01*
X0809427Y0149552D01*
X0807420Y0149694D02*
X0802557Y0149694D01*
X0802231Y0150480D02*
X0805935Y0150480D01*
X0805149Y0151266D02*
X0801575Y0151266D01*
X0800542Y0152052D02*
X0804766Y0152052D01*
X0804440Y0152838D02*
X0732388Y0152838D01*
X0732277Y0152950D02*
X0731186Y0153402D01*
X0730005Y0153402D01*
X0728914Y0152950D01*
X0728079Y0152115D01*
X0727627Y0151024D01*
X0727627Y0149843D01*
X0728079Y0148752D01*
X0728914Y0147916D01*
X0730005Y0147465D01*
X0731186Y0147465D01*
X0732277Y0147916D01*
X0733112Y0148752D01*
X0733564Y0149843D01*
X0733564Y0151024D01*
X0733112Y0152115D01*
X0732277Y0152950D01*
X0732686Y0153465D02*
X0733777Y0153916D01*
X0734612Y0154752D01*
X0735064Y0155843D01*
X0735064Y0157024D01*
X0734612Y0158115D01*
X0733777Y0158950D01*
X0732686Y0159402D01*
X0731505Y0159402D01*
X0730414Y0158950D01*
X0729579Y0158115D01*
X0729127Y0157024D01*
X0729127Y0155843D01*
X0729579Y0154752D01*
X0730414Y0153916D01*
X0731505Y0153465D01*
X0732686Y0153465D01*
X0733070Y0153624D02*
X0804414Y0153624D01*
X0804414Y0154410D02*
X0734270Y0154410D01*
X0734796Y0155196D02*
X0797416Y0155196D01*
X0797763Y0155052D02*
X0799427Y0155052D01*
X0800964Y0155688D01*
X0802140Y0156865D01*
X0802776Y0158401D01*
X0802776Y0160065D01*
X0802140Y0161601D01*
X0800964Y0162778D01*
X0799427Y0163414D01*
X0797763Y0163414D01*
X0796227Y0162778D01*
X0795051Y0161601D01*
X0794414Y0160065D01*
X0794414Y0158401D01*
X0795051Y0156865D01*
X0796227Y0155688D01*
X0797763Y0155052D01*
X0799774Y0155196D02*
X0804675Y0155196D01*
X0805001Y0155982D02*
X0801257Y0155982D01*
X0802043Y0156768D02*
X0805717Y0156768D01*
X0806893Y0157554D02*
X0802425Y0157554D01*
X0802751Y0158339D02*
X0848201Y0158339D01*
X0848201Y0157554D02*
X0810297Y0157554D01*
X0811474Y0156768D02*
X0848201Y0156768D01*
X0848201Y0155982D02*
X0812189Y0155982D01*
X0812515Y0155196D02*
X0848201Y0155196D01*
X0848201Y0154410D02*
X0812776Y0154410D01*
X0812776Y0153624D02*
X0848201Y0153624D01*
X0848201Y0152838D02*
X0812750Y0152838D01*
X0812424Y0152052D02*
X0848201Y0152052D01*
X0848201Y0151266D02*
X0812041Y0151266D01*
X0811255Y0150480D02*
X0848201Y0150480D01*
X0848201Y0146551D02*
X0810787Y0146551D01*
X0811676Y0145765D02*
X0848201Y0145765D01*
X0848201Y0144979D02*
X0812273Y0144979D01*
X0812599Y0144193D02*
X0848201Y0144193D01*
X0848201Y0143407D02*
X0812776Y0143407D01*
X0812776Y0142621D02*
X0848201Y0142621D01*
X0848201Y0141835D02*
X0812666Y0141835D01*
X0812340Y0141049D02*
X0848201Y0141049D01*
X0848201Y0140263D02*
X0811839Y0140263D01*
X0811053Y0139478D02*
X0848201Y0139478D01*
X0848201Y0135548D02*
X0810993Y0135548D01*
X0811779Y0134762D02*
X0848201Y0134762D01*
X0848201Y0133976D02*
X0812316Y0133976D01*
X0812641Y0133190D02*
X0848201Y0133190D01*
X0848201Y0132404D02*
X0812776Y0132404D01*
X0812776Y0131618D02*
X0848201Y0131618D01*
X0848201Y0130833D02*
X0812623Y0130833D01*
X0812298Y0130047D02*
X0848201Y0130047D01*
X0848201Y0129261D02*
X0811736Y0129261D01*
X0810930Y0128475D02*
X0848201Y0128475D01*
X0848201Y0127689D02*
X0802642Y0127689D01*
X0802776Y0126903D02*
X0848201Y0126903D01*
X0848201Y0126117D02*
X0802776Y0126117D01*
X0802623Y0125331D02*
X0848201Y0125331D01*
X0848201Y0124545D02*
X0811096Y0124545D01*
X0810964Y0124678D02*
X0809427Y0125314D01*
X0807763Y0125314D01*
X0806227Y0124678D01*
X0805051Y0123501D01*
X0804414Y0121965D01*
X0804414Y0120301D01*
X0805051Y0118765D01*
X0806227Y0117588D01*
X0807763Y0116952D01*
X0809427Y0116952D01*
X0810964Y0117588D01*
X0812140Y0118765D01*
X0812776Y0120301D01*
X0812776Y0121965D01*
X0812140Y0123501D01*
X0810964Y0124678D01*
X0811882Y0123759D02*
X0848201Y0123759D01*
X0848201Y0122973D02*
X0812358Y0122973D01*
X0812684Y0122187D02*
X0848201Y0122187D01*
X0848201Y0121402D02*
X0812776Y0121402D01*
X0812776Y0120616D02*
X0848201Y0120616D01*
X0848201Y0119830D02*
X0812581Y0119830D01*
X0812255Y0119044D02*
X0848201Y0119044D01*
X0848201Y0118258D02*
X0811633Y0118258D01*
X0810682Y0117472D02*
X0848201Y0117472D01*
X0848201Y0116686D02*
X0802726Y0116686D01*
X0802776Y0116565D02*
X0802140Y0118101D01*
X0800964Y0119278D01*
X0799427Y0119914D01*
X0797763Y0119914D01*
X0796227Y0119278D01*
X0795051Y0118101D01*
X0794414Y0116565D01*
X0794414Y0114901D01*
X0795051Y0113365D01*
X0796227Y0112188D01*
X0797763Y0111552D01*
X0799427Y0111552D01*
X0800964Y0112188D01*
X0802140Y0113365D01*
X0802776Y0114901D01*
X0802776Y0116565D01*
X0802776Y0115900D02*
X0848201Y0115900D01*
X0848201Y0115114D02*
X0802776Y0115114D01*
X0802539Y0114328D02*
X0807556Y0114328D01*
X0807763Y0114414D02*
X0806227Y0113778D01*
X0805051Y0112601D01*
X0804414Y0111065D01*
X0804414Y0109401D01*
X0805051Y0107865D01*
X0806227Y0106688D01*
X0807763Y0106052D01*
X0809427Y0106052D01*
X0810964Y0106688D01*
X0812140Y0107865D01*
X0812776Y0109401D01*
X0812776Y0111065D01*
X0812140Y0112601D01*
X0810964Y0113778D01*
X0809427Y0114414D01*
X0807763Y0114414D01*
X0809634Y0114328D02*
X0848201Y0114328D01*
X0848201Y0113542D02*
X0811199Y0113542D01*
X0811985Y0112757D02*
X0848201Y0112757D01*
X0848201Y0111971D02*
X0812401Y0111971D01*
X0812727Y0111185D02*
X0848201Y0111185D01*
X0848201Y0110399D02*
X0812776Y0110399D01*
X0812776Y0109613D02*
X0848201Y0109613D01*
X0848201Y0108827D02*
X0812538Y0108827D01*
X0812213Y0108041D02*
X0848201Y0108041D01*
X0848201Y0107255D02*
X0811530Y0107255D01*
X0810434Y0106469D02*
X0848201Y0106469D01*
X0848201Y0105683D02*
X0802769Y0105683D01*
X0802776Y0105665D02*
X0802140Y0107201D01*
X0800964Y0108378D01*
X0799427Y0109014D01*
X0797763Y0109014D01*
X0796227Y0108378D01*
X0795051Y0107201D01*
X0794414Y0105665D01*
X0794414Y0104001D01*
X0795051Y0102465D01*
X0796227Y0101288D01*
X0797763Y0100652D01*
X0799427Y0100652D01*
X0800964Y0101288D01*
X0802140Y0102465D01*
X0802776Y0104001D01*
X0802776Y0105665D01*
X0802776Y0104897D02*
X0848201Y0104897D01*
X0848201Y0104111D02*
X0802776Y0104111D01*
X0802496Y0103326D02*
X0807067Y0103326D01*
X0807763Y0103614D02*
X0806227Y0102978D01*
X0805051Y0101801D01*
X0804414Y0100265D01*
X0804414Y0098601D01*
X0805051Y0097065D01*
X0806227Y0095888D01*
X0807763Y0095252D01*
X0809427Y0095252D01*
X0810964Y0095888D01*
X0812140Y0097065D01*
X0812776Y0098601D01*
X0812776Y0100265D01*
X0812140Y0101801D01*
X0810964Y0102978D01*
X0809427Y0103614D01*
X0807763Y0103614D01*
X0805789Y0102540D02*
X0802171Y0102540D01*
X0801429Y0101754D02*
X0805031Y0101754D01*
X0804705Y0100968D02*
X0800189Y0100968D01*
X0799427Y0098114D02*
X0797763Y0098114D01*
X0796227Y0097478D01*
X0795051Y0096301D01*
X0794414Y0094765D01*
X0794414Y0093101D01*
X0795051Y0091565D01*
X0796227Y0090388D01*
X0797763Y0089752D01*
X0799427Y0089752D01*
X0800964Y0090388D01*
X0802140Y0091565D01*
X0802776Y0093101D01*
X0802776Y0094765D01*
X0802140Y0096301D01*
X0800964Y0097478D01*
X0799427Y0098114D01*
X0800127Y0097824D02*
X0804736Y0097824D01*
X0804414Y0098610D02*
X0680821Y0098610D01*
X0680612Y0099115D02*
X0679777Y0099950D01*
X0678686Y0100402D01*
X0677505Y0100402D01*
X0676414Y0099950D01*
X0675845Y0099381D01*
X0675277Y0099950D01*
X0674186Y0100402D01*
X0673005Y0100402D01*
X0671914Y0099950D01*
X0671345Y0099381D01*
X0670777Y0099950D01*
X0669686Y0100402D01*
X0668505Y0100402D01*
X0667414Y0099950D01*
X0666845Y0099381D01*
X0666277Y0099950D01*
X0665186Y0100402D01*
X0664005Y0100402D01*
X0662914Y0099950D01*
X0662345Y0099381D01*
X0661777Y0099950D01*
X0660686Y0100402D01*
X0659505Y0100402D01*
X0658414Y0099950D01*
X0657579Y0099115D01*
X0657127Y0098024D01*
X0657127Y0096843D01*
X0657579Y0095752D01*
X0658414Y0094916D01*
X0659505Y0094465D01*
X0660686Y0094465D01*
X0661777Y0094916D01*
X0662345Y0095485D01*
X0662914Y0094916D01*
X0664005Y0094465D01*
X0665186Y0094465D01*
X0666277Y0094916D01*
X0666845Y0095485D01*
X0667414Y0094916D01*
X0668505Y0094465D01*
X0669686Y0094465D01*
X0670777Y0094916D01*
X0671345Y0095485D01*
X0671914Y0094916D01*
X0673005Y0094465D01*
X0674186Y0094465D01*
X0675277Y0094916D01*
X0675845Y0095485D01*
X0676414Y0094916D01*
X0677505Y0094465D01*
X0678686Y0094465D01*
X0679777Y0094916D01*
X0680612Y0095752D01*
X0681064Y0096843D01*
X0681064Y0098024D01*
X0680612Y0099115D01*
X0680330Y0099396D02*
X0804414Y0099396D01*
X0804414Y0100182D02*
X0679216Y0100182D01*
X0676974Y0100182D02*
X0674716Y0100182D01*
X0675830Y0099396D02*
X0675860Y0099396D01*
X0672474Y0100182D02*
X0670216Y0100182D01*
X0671330Y0099396D02*
X0671360Y0099396D01*
X0667974Y0100182D02*
X0665716Y0100182D01*
X0666830Y0099396D02*
X0666860Y0099396D01*
X0663474Y0100182D02*
X0661216Y0100182D01*
X0662330Y0099396D02*
X0662360Y0099396D01*
X0658974Y0100182D02*
X0615216Y0100182D01*
X0614686Y0100402D02*
X0613505Y0100402D01*
X0612414Y0099950D01*
X0611845Y0099381D01*
X0611277Y0099950D01*
X0610186Y0100402D01*
X0609005Y0100402D01*
X0607914Y0099950D01*
X0607345Y0099381D01*
X0606777Y0099950D01*
X0605686Y0100402D01*
X0604505Y0100402D01*
X0603414Y0099950D01*
X0602845Y0099381D01*
X0602277Y0099950D01*
X0601186Y0100402D01*
X0600005Y0100402D01*
X0598914Y0099950D01*
X0598345Y0099381D01*
X0597777Y0099950D01*
X0596686Y0100402D01*
X0595505Y0100402D01*
X0594414Y0099950D01*
X0593579Y0099115D01*
X0593127Y0098024D01*
X0593127Y0096843D01*
X0593579Y0095752D01*
X0594414Y0094916D01*
X0595505Y0094465D01*
X0596686Y0094465D01*
X0597777Y0094916D01*
X0598345Y0095485D01*
X0598914Y0094916D01*
X0600005Y0094465D01*
X0601186Y0094465D01*
X0602277Y0094916D01*
X0602845Y0095485D01*
X0603414Y0094916D01*
X0604505Y0094465D01*
X0605686Y0094465D01*
X0606777Y0094916D01*
X0607345Y0095485D01*
X0607914Y0094916D01*
X0609005Y0094465D01*
X0610186Y0094465D01*
X0611277Y0094916D01*
X0611845Y0095485D01*
X0612414Y0094916D01*
X0613505Y0094465D01*
X0614686Y0094465D01*
X0615777Y0094916D01*
X0616612Y0095752D01*
X0617064Y0096843D01*
X0617064Y0098024D01*
X0616612Y0099115D01*
X0615777Y0099950D01*
X0614686Y0100402D01*
X0612974Y0100182D02*
X0610716Y0100182D01*
X0611830Y0099396D02*
X0611860Y0099396D01*
X0608474Y0100182D02*
X0606216Y0100182D01*
X0607330Y0099396D02*
X0607360Y0099396D01*
X0603974Y0100182D02*
X0601716Y0100182D01*
X0602830Y0099396D02*
X0602860Y0099396D01*
X0599474Y0100182D02*
X0597216Y0100182D01*
X0598330Y0099396D02*
X0598360Y0099396D01*
X0594974Y0100182D02*
X0569595Y0100182D01*
X0569595Y0100968D02*
X0797001Y0100968D01*
X0795761Y0101754D02*
X0569595Y0101754D01*
X0569595Y0102540D02*
X0795020Y0102540D01*
X0794694Y0103326D02*
X0569595Y0103326D01*
X0569595Y0104111D02*
X0794414Y0104111D01*
X0794414Y0104897D02*
X0569595Y0104897D01*
X0569595Y0105683D02*
X0594977Y0105683D01*
X0595505Y0105465D02*
X0596686Y0105465D01*
X0597777Y0105916D01*
X0598612Y0106752D01*
X0599064Y0107843D01*
X0599064Y0109024D01*
X0598612Y0110115D01*
X0597947Y0110780D01*
X0598277Y0110916D01*
X0599112Y0111752D01*
X0599449Y0112565D01*
X0599579Y0112252D01*
X0600414Y0111416D01*
X0601505Y0110965D01*
X0602686Y0110965D01*
X0603777Y0111416D01*
X0604612Y0112252D01*
X0605064Y0113343D01*
X0605064Y0114524D01*
X0604612Y0115615D01*
X0603777Y0116450D01*
X0602686Y0116902D01*
X0601505Y0116902D01*
X0600414Y0116450D01*
X0599579Y0115615D01*
X0599242Y0114801D01*
X0599112Y0115115D01*
X0598277Y0115950D01*
X0597186Y0116402D01*
X0596005Y0116402D01*
X0594914Y0115950D01*
X0594079Y0115115D01*
X0593627Y0114024D01*
X0593627Y0112843D01*
X0594079Y0111752D01*
X0594744Y0111086D01*
X0594414Y0110950D01*
X0593579Y0110115D01*
X0593127Y0109024D01*
X0593127Y0107843D01*
X0593579Y0106752D01*
X0594414Y0105916D01*
X0595505Y0105465D01*
X0597214Y0105683D02*
X0606147Y0105683D01*
X0606414Y0105416D02*
X0607505Y0104965D01*
X0608686Y0104965D01*
X0609777Y0105416D01*
X0610612Y0106252D01*
X0611064Y0107343D01*
X0611064Y0108524D01*
X0610612Y0109615D01*
X0609777Y0110450D01*
X0608686Y0110902D01*
X0607505Y0110902D01*
X0606414Y0110450D01*
X0605579Y0109615D01*
X0605127Y0108524D01*
X0605127Y0107343D01*
X0605579Y0106252D01*
X0606414Y0105416D01*
X0605488Y0106469D02*
X0598329Y0106469D01*
X0598820Y0107255D02*
X0605163Y0107255D01*
X0605127Y0108041D02*
X0599064Y0108041D01*
X0599064Y0108827D02*
X0605252Y0108827D01*
X0605578Y0109613D02*
X0598820Y0109613D01*
X0598328Y0110399D02*
X0606363Y0110399D01*
X0604331Y0111971D02*
X0657988Y0111971D01*
X0658079Y0111752D02*
X0658897Y0110933D01*
X0658079Y0110115D01*
X0657627Y0109024D01*
X0657627Y0107843D01*
X0658079Y0106752D01*
X0658914Y0105916D01*
X0660005Y0105465D01*
X0661186Y0105465D01*
X0662277Y0105916D01*
X0663112Y0106752D01*
X0663564Y0107843D01*
X0663564Y0109024D01*
X0663112Y0110115D01*
X0662293Y0110933D01*
X0663112Y0111752D01*
X0663449Y0112565D01*
X0663579Y0112252D01*
X0664414Y0111416D01*
X0665505Y0110965D01*
X0666686Y0110965D01*
X0667777Y0111416D01*
X0668612Y0112252D01*
X0669064Y0113343D01*
X0669064Y0114524D01*
X0668612Y0115615D01*
X0667777Y0116450D01*
X0666686Y0116902D01*
X0665505Y0116902D01*
X0664414Y0116450D01*
X0663579Y0115615D01*
X0663242Y0114801D01*
X0663112Y0115115D01*
X0662277Y0115950D01*
X0661186Y0116402D01*
X0660005Y0116402D01*
X0658914Y0115950D01*
X0658079Y0115115D01*
X0657627Y0114024D01*
X0657627Y0112843D01*
X0658079Y0111752D01*
X0658645Y0111185D02*
X0603217Y0111185D01*
X0600973Y0111185D02*
X0598545Y0111185D01*
X0599202Y0111971D02*
X0599859Y0111971D01*
X0599371Y0115114D02*
X0599112Y0115114D01*
X0599864Y0115900D02*
X0598326Y0115900D01*
X0600984Y0116686D02*
X0569595Y0116686D01*
X0569595Y0115900D02*
X0594864Y0115900D01*
X0594078Y0115114D02*
X0569595Y0115114D01*
X0569595Y0114328D02*
X0593753Y0114328D01*
X0593627Y0113542D02*
X0569595Y0113542D01*
X0569595Y0112757D02*
X0593662Y0112757D01*
X0593988Y0111971D02*
X0569595Y0111971D01*
X0569595Y0111185D02*
X0594645Y0111185D01*
X0593863Y0110399D02*
X0569908Y0110399D01*
X0570064Y0110024D02*
X0569612Y0111115D01*
X0569595Y0111131D01*
X0569595Y0324039D01*
X0848201Y0324039D01*
X0848201Y0038327D01*
X0569595Y0038327D01*
X0569595Y0107735D01*
X0569612Y0107752D01*
X0570064Y0108843D01*
X0570064Y0110024D01*
X0570064Y0109613D02*
X0593371Y0109613D01*
X0593127Y0108827D02*
X0570057Y0108827D01*
X0569732Y0108041D02*
X0593127Y0108041D01*
X0593370Y0107255D02*
X0569595Y0107255D01*
X0569595Y0106469D02*
X0593861Y0106469D01*
X0593860Y0099396D02*
X0569595Y0099396D01*
X0569595Y0098610D02*
X0593370Y0098610D01*
X0593127Y0097824D02*
X0569595Y0097824D01*
X0569595Y0097038D02*
X0593127Y0097038D01*
X0593371Y0096252D02*
X0569595Y0096252D01*
X0569595Y0095466D02*
X0593864Y0095466D01*
X0594983Y0094681D02*
X0569595Y0094681D01*
X0569595Y0093895D02*
X0794414Y0093895D01*
X0794414Y0094681D02*
X0679207Y0094681D01*
X0680327Y0095466D02*
X0794705Y0095466D01*
X0795030Y0096252D02*
X0680819Y0096252D01*
X0681064Y0097038D02*
X0795787Y0097038D01*
X0797063Y0097824D02*
X0681064Y0097824D01*
X0676983Y0094681D02*
X0674707Y0094681D01*
X0675827Y0095466D02*
X0675864Y0095466D01*
X0672483Y0094681D02*
X0670207Y0094681D01*
X0671327Y0095466D02*
X0671364Y0095466D01*
X0667983Y0094681D02*
X0665707Y0094681D01*
X0666827Y0095466D02*
X0666864Y0095466D01*
X0663483Y0094681D02*
X0661207Y0094681D01*
X0662327Y0095466D02*
X0662364Y0095466D01*
X0658983Y0094681D02*
X0615207Y0094681D01*
X0616327Y0095466D02*
X0657864Y0095466D01*
X0657371Y0096252D02*
X0616819Y0096252D01*
X0617064Y0097038D02*
X0657127Y0097038D01*
X0657127Y0097824D02*
X0617064Y0097824D01*
X0616821Y0098610D02*
X0657370Y0098610D01*
X0657860Y0099396D02*
X0616330Y0099396D01*
X0610043Y0105683D02*
X0659477Y0105683D01*
X0658361Y0106469D02*
X0610702Y0106469D01*
X0611027Y0107255D02*
X0657870Y0107255D01*
X0657627Y0108041D02*
X0611064Y0108041D01*
X0610938Y0108827D02*
X0657627Y0108827D01*
X0657871Y0109613D02*
X0610612Y0109613D01*
X0609828Y0110399D02*
X0658363Y0110399D01*
X0657662Y0112757D02*
X0604821Y0112757D01*
X0605064Y0113542D02*
X0657627Y0113542D01*
X0657753Y0114328D02*
X0605064Y0114328D01*
X0604819Y0115114D02*
X0658078Y0115114D01*
X0658864Y0115900D02*
X0604326Y0115900D01*
X0603206Y0116686D02*
X0664984Y0116686D01*
X0663864Y0115900D02*
X0662326Y0115900D01*
X0663112Y0115114D02*
X0663371Y0115114D01*
X0663202Y0111971D02*
X0663859Y0111971D01*
X0664973Y0111185D02*
X0662545Y0111185D01*
X0662828Y0110399D02*
X0670363Y0110399D01*
X0670414Y0110450D02*
X0669579Y0109615D01*
X0669127Y0108524D01*
X0669127Y0107343D01*
X0669579Y0106252D01*
X0670414Y0105416D01*
X0671505Y0104965D01*
X0672686Y0104965D01*
X0673777Y0105416D01*
X0674612Y0106252D01*
X0675064Y0107343D01*
X0675064Y0108524D01*
X0674612Y0109615D01*
X0673777Y0110450D01*
X0672686Y0110902D01*
X0671505Y0110902D01*
X0670414Y0110450D01*
X0669578Y0109613D02*
X0663320Y0109613D01*
X0663564Y0108827D02*
X0669252Y0108827D01*
X0669127Y0108041D02*
X0663564Y0108041D01*
X0663320Y0107255D02*
X0669163Y0107255D01*
X0669488Y0106469D02*
X0662829Y0106469D01*
X0661714Y0105683D02*
X0670147Y0105683D01*
X0674043Y0105683D02*
X0794422Y0105683D01*
X0794747Y0106469D02*
X0674702Y0106469D01*
X0675027Y0107255D02*
X0795104Y0107255D01*
X0795890Y0108041D02*
X0675064Y0108041D01*
X0674938Y0108827D02*
X0797312Y0108827D01*
X0799879Y0108827D02*
X0804652Y0108827D01*
X0804414Y0109613D02*
X0674612Y0109613D01*
X0673828Y0110399D02*
X0804414Y0110399D01*
X0804464Y0111185D02*
X0667217Y0111185D01*
X0668331Y0111971D02*
X0796753Y0111971D01*
X0795659Y0112757D02*
X0668821Y0112757D01*
X0669064Y0113542D02*
X0794977Y0113542D01*
X0794651Y0114328D02*
X0669064Y0114328D01*
X0668819Y0115114D02*
X0794414Y0115114D01*
X0794414Y0115900D02*
X0668326Y0115900D01*
X0667206Y0116686D02*
X0794464Y0116686D01*
X0794790Y0117472D02*
X0569595Y0117472D01*
X0569595Y0118258D02*
X0750796Y0118258D01*
X0749786Y0119044D02*
X0569595Y0119044D01*
X0569595Y0119830D02*
X0749339Y0119830D01*
X0749127Y0120616D02*
X0569595Y0120616D01*
X0569595Y0121402D02*
X0749127Y0121402D01*
X0753394Y0118258D02*
X0795207Y0118258D01*
X0795993Y0119044D02*
X0754404Y0119044D01*
X0754851Y0119830D02*
X0797560Y0119830D01*
X0799631Y0119830D02*
X0804609Y0119830D01*
X0804414Y0120616D02*
X0755064Y0120616D01*
X0755064Y0121402D02*
X0804414Y0121402D01*
X0804506Y0122187D02*
X0767548Y0122187D01*
X0768204Y0122973D02*
X0796263Y0122973D01*
X0795456Y0123759D02*
X0768529Y0123759D01*
X0768564Y0124545D02*
X0794893Y0124545D01*
X0794567Y0125331D02*
X0768436Y0125331D01*
X0768109Y0126117D02*
X0794414Y0126117D01*
X0800927Y0122973D02*
X0804832Y0122973D01*
X0805308Y0123759D02*
X0801734Y0123759D01*
X0802297Y0124545D02*
X0806094Y0124545D01*
X0806260Y0128475D02*
X0802316Y0128475D01*
X0801780Y0129261D02*
X0805455Y0129261D01*
X0804892Y0130047D02*
X0800995Y0130047D01*
X0801197Y0119044D02*
X0804935Y0119044D01*
X0805557Y0118258D02*
X0801983Y0118258D01*
X0802400Y0117472D02*
X0806508Y0117472D01*
X0805992Y0113542D02*
X0802213Y0113542D01*
X0801532Y0112757D02*
X0805206Y0112757D01*
X0804789Y0111971D02*
X0800437Y0111971D01*
X0801300Y0108041D02*
X0804977Y0108041D01*
X0805660Y0107255D02*
X0802086Y0107255D01*
X0802443Y0106469D02*
X0806756Y0106469D01*
X0810124Y0103326D02*
X0848201Y0103326D01*
X0848201Y0102540D02*
X0811402Y0102540D01*
X0812159Y0101754D02*
X0848201Y0101754D01*
X0848201Y0100968D02*
X0812485Y0100968D01*
X0812776Y0100182D02*
X0848201Y0100182D01*
X0848201Y0099396D02*
X0812776Y0099396D01*
X0812776Y0098610D02*
X0848201Y0098610D01*
X0848201Y0097824D02*
X0812454Y0097824D01*
X0812113Y0097038D02*
X0848201Y0097038D01*
X0848201Y0096252D02*
X0811327Y0096252D01*
X0809945Y0095466D02*
X0848201Y0095466D01*
X0848201Y0094681D02*
X0802776Y0094681D01*
X0802776Y0093895D02*
X0848201Y0093895D01*
X0848201Y0093109D02*
X0802776Y0093109D01*
X0802454Y0092323D02*
X0806819Y0092323D01*
X0806227Y0092078D02*
X0805051Y0090901D01*
X0804414Y0089365D01*
X0804414Y0087701D01*
X0805051Y0086165D01*
X0806227Y0084988D01*
X0807763Y0084352D01*
X0809427Y0084352D01*
X0810964Y0084988D01*
X0812140Y0086165D01*
X0812776Y0087701D01*
X0812776Y0089365D01*
X0812140Y0090901D01*
X0810964Y0092078D01*
X0809427Y0092714D01*
X0807763Y0092714D01*
X0806227Y0092078D01*
X0805686Y0091537D02*
X0802112Y0091537D01*
X0801326Y0090751D02*
X0804988Y0090751D01*
X0804663Y0089965D02*
X0799941Y0089965D01*
X0797249Y0089965D02*
X0569595Y0089965D01*
X0569595Y0089179D02*
X0804414Y0089179D01*
X0804414Y0088393D02*
X0662333Y0088393D01*
X0662277Y0088450D02*
X0661186Y0088902D01*
X0660005Y0088902D01*
X0658914Y0088450D01*
X0658079Y0087615D01*
X0657627Y0086524D01*
X0657627Y0085343D01*
X0658079Y0084252D01*
X0658897Y0083433D01*
X0658079Y0082615D01*
X0657627Y0081524D01*
X0657627Y0080343D01*
X0658079Y0079252D01*
X0658914Y0078416D01*
X0660005Y0077965D01*
X0661186Y0077965D01*
X0662277Y0078416D01*
X0663112Y0079252D01*
X0663564Y0080343D01*
X0663564Y0081524D01*
X0663112Y0082615D01*
X0662293Y0083433D01*
X0663112Y0084252D01*
X0663564Y0085343D01*
X0663564Y0086524D01*
X0663112Y0087615D01*
X0662277Y0088450D01*
X0663115Y0087607D02*
X0804453Y0087607D01*
X0804779Y0086821D02*
X0800616Y0086821D01*
X0800964Y0086678D02*
X0799427Y0087314D01*
X0797763Y0087314D01*
X0796227Y0086678D01*
X0795051Y0085501D01*
X0794414Y0083965D01*
X0794414Y0082301D01*
X0795051Y0080765D01*
X0796227Y0079588D01*
X0797763Y0078952D01*
X0799427Y0078952D01*
X0800964Y0079588D01*
X0802140Y0080765D01*
X0802776Y0082301D01*
X0802776Y0083965D01*
X0802140Y0085501D01*
X0800964Y0086678D01*
X0801606Y0086035D02*
X0805180Y0086035D01*
X0805966Y0085250D02*
X0802244Y0085250D01*
X0802570Y0084464D02*
X0807494Y0084464D01*
X0809696Y0084464D02*
X0848201Y0084464D01*
X0848201Y0085250D02*
X0811225Y0085250D01*
X0812011Y0086035D02*
X0848201Y0086035D01*
X0848201Y0086821D02*
X0812412Y0086821D01*
X0812737Y0087607D02*
X0848201Y0087607D01*
X0848201Y0088393D02*
X0812776Y0088393D01*
X0812776Y0089179D02*
X0848201Y0089179D01*
X0848201Y0089965D02*
X0812528Y0089965D01*
X0812202Y0090751D02*
X0848201Y0090751D01*
X0848201Y0091537D02*
X0811504Y0091537D01*
X0810372Y0092323D02*
X0848201Y0092323D01*
X0848201Y0083678D02*
X0802776Y0083678D01*
X0802776Y0082892D02*
X0848201Y0082892D01*
X0848201Y0082106D02*
X0802695Y0082106D01*
X0802370Y0081320D02*
X0848201Y0081320D01*
X0848201Y0080534D02*
X0801909Y0080534D01*
X0801123Y0079748D02*
X0848201Y0079748D01*
X0848201Y0078962D02*
X0799452Y0078962D01*
X0797739Y0078962D02*
X0662822Y0078962D01*
X0663317Y0079748D02*
X0796067Y0079748D01*
X0795281Y0080534D02*
X0663564Y0080534D01*
X0663564Y0081320D02*
X0794821Y0081320D01*
X0794495Y0082106D02*
X0663322Y0082106D01*
X0662834Y0082892D02*
X0794414Y0082892D01*
X0794414Y0083678D02*
X0662538Y0083678D01*
X0663200Y0084464D02*
X0794621Y0084464D01*
X0794946Y0085250D02*
X0663525Y0085250D01*
X0663564Y0086035D02*
X0795585Y0086035D01*
X0796574Y0086821D02*
X0663440Y0086821D01*
X0658857Y0088393D02*
X0598333Y0088393D01*
X0598277Y0088450D02*
X0597186Y0088902D01*
X0596005Y0088902D01*
X0594914Y0088450D01*
X0594079Y0087615D01*
X0593627Y0086524D01*
X0593627Y0085343D01*
X0594079Y0084252D01*
X0594897Y0083433D01*
X0594079Y0082615D01*
X0593627Y0081524D01*
X0593627Y0080343D01*
X0594079Y0079252D01*
X0594914Y0078416D01*
X0596005Y0077965D01*
X0597186Y0077965D01*
X0598277Y0078416D01*
X0599112Y0079252D01*
X0599564Y0080343D01*
X0599564Y0081524D01*
X0599112Y0082615D01*
X0598293Y0083433D01*
X0599112Y0084252D01*
X0599564Y0085343D01*
X0599564Y0086524D01*
X0599112Y0087615D01*
X0598277Y0088450D01*
X0599115Y0087607D02*
X0658076Y0087607D01*
X0657750Y0086821D02*
X0599440Y0086821D01*
X0599564Y0086035D02*
X0657627Y0086035D01*
X0657665Y0085250D02*
X0599525Y0085250D01*
X0599200Y0084464D02*
X0657991Y0084464D01*
X0658652Y0083678D02*
X0598538Y0083678D01*
X0598834Y0082892D02*
X0658356Y0082892D01*
X0657868Y0082106D02*
X0599322Y0082106D01*
X0599564Y0081320D02*
X0657627Y0081320D01*
X0657627Y0080534D02*
X0599564Y0080534D01*
X0599317Y0079748D02*
X0657873Y0079748D01*
X0658368Y0078962D02*
X0598822Y0078962D01*
X0597697Y0078176D02*
X0659493Y0078176D01*
X0661697Y0078176D02*
X0848201Y0078176D01*
X0848201Y0077390D02*
X0569595Y0077390D01*
X0569595Y0076605D02*
X0848201Y0076605D01*
X0848201Y0075819D02*
X0569595Y0075819D01*
X0569234Y0075819D02*
X0577095Y0075819D01*
X0577095Y0076605D02*
X0568622Y0076605D01*
X0568277Y0076950D02*
X0567186Y0077402D01*
X0566005Y0077402D01*
X0564914Y0076950D01*
X0564079Y0076115D01*
X0563627Y0075024D01*
X0563627Y0073843D01*
X0564079Y0072752D01*
X0564914Y0071916D01*
X0566005Y0071465D01*
X0567186Y0071465D01*
X0568277Y0071916D01*
X0569112Y0072752D01*
X0569564Y0073843D01*
X0569564Y0075024D01*
X0569112Y0076115D01*
X0568277Y0076950D01*
X0567212Y0077390D02*
X0577095Y0077390D01*
X0577095Y0078176D02*
X0488683Y0078176D01*
X0488601Y0078375D02*
X0487537Y0079439D01*
X0486147Y0080014D01*
X0484643Y0080014D01*
X0483253Y0079439D01*
X0482190Y0078375D01*
X0481614Y0076985D01*
X0481614Y0075481D01*
X0482190Y0074091D01*
X0483253Y0073028D01*
X0484643Y0072452D01*
X0486147Y0072452D01*
X0487537Y0073028D01*
X0488601Y0074091D01*
X0489176Y0075481D01*
X0489176Y0076985D01*
X0488601Y0078375D01*
X0488013Y0078962D02*
X0515868Y0078962D01*
X0515914Y0078916D02*
X0517005Y0078465D01*
X0518186Y0078465D01*
X0519277Y0078916D01*
X0520112Y0079752D01*
X0520564Y0080843D01*
X0520564Y0082024D01*
X0520112Y0083115D01*
X0519277Y0083950D01*
X0518186Y0084402D01*
X0517005Y0084402D01*
X0515914Y0083950D01*
X0515079Y0083115D01*
X0514627Y0082024D01*
X0514627Y0080843D01*
X0515079Y0079752D01*
X0515914Y0078916D01*
X0515082Y0079748D02*
X0486789Y0079748D01*
X0484001Y0079748D02*
X0467189Y0079748D01*
X0466547Y0080014D02*
X0465043Y0080014D01*
X0463653Y0079439D01*
X0462590Y0078375D01*
X0462014Y0076985D01*
X0462014Y0075481D01*
X0462590Y0074091D01*
X0463653Y0073028D01*
X0465043Y0072452D01*
X0466547Y0072452D01*
X0467937Y0073028D01*
X0469001Y0074091D01*
X0469576Y0075481D01*
X0469576Y0076985D01*
X0469001Y0078375D01*
X0467937Y0079439D01*
X0466547Y0080014D01*
X0468413Y0078962D02*
X0482777Y0078962D01*
X0482107Y0078176D02*
X0469083Y0078176D01*
X0469408Y0077390D02*
X0481782Y0077390D01*
X0481614Y0076605D02*
X0469576Y0076605D01*
X0469576Y0075819D02*
X0481614Y0075819D01*
X0481800Y0075033D02*
X0469391Y0075033D01*
X0469065Y0074247D02*
X0482125Y0074247D01*
X0482820Y0073461D02*
X0468370Y0073461D01*
X0467086Y0072675D02*
X0484105Y0072675D01*
X0486686Y0072675D02*
X0564155Y0072675D01*
X0563785Y0073461D02*
X0487970Y0073461D01*
X0488665Y0074247D02*
X0563627Y0074247D01*
X0563630Y0075033D02*
X0488991Y0075033D01*
X0489176Y0075819D02*
X0563956Y0075819D01*
X0564569Y0076605D02*
X0489176Y0076605D01*
X0489008Y0077390D02*
X0565978Y0077390D01*
X0569595Y0078176D02*
X0595493Y0078176D01*
X0594368Y0078962D02*
X0569595Y0078962D01*
X0569595Y0079748D02*
X0593873Y0079748D01*
X0593627Y0080534D02*
X0569595Y0080534D01*
X0569595Y0081320D02*
X0593627Y0081320D01*
X0593868Y0082106D02*
X0569595Y0082106D01*
X0569595Y0082892D02*
X0594356Y0082892D01*
X0594652Y0083678D02*
X0575038Y0083678D01*
X0577095Y0083678D01*
X0577095Y0084464D02*
X0575700Y0084464D01*
X0593991Y0084464D01*
X0593665Y0085250D02*
X0576025Y0085250D01*
X0577095Y0085250D01*
X0577095Y0086035D02*
X0576064Y0086035D01*
X0593627Y0086035D01*
X0593750Y0086821D02*
X0575940Y0086821D01*
X0577095Y0086821D01*
X0577095Y0087607D02*
X0575615Y0087607D01*
X0594076Y0087607D01*
X0594857Y0088393D02*
X0574833Y0088393D01*
X0577095Y0088393D01*
X0577095Y0089179D02*
X0405223Y0089179D01*
X0404686Y0089402D02*
X0403505Y0089402D01*
X0402414Y0088950D01*
X0401579Y0088115D01*
X0401127Y0087024D01*
X0401127Y0085843D01*
X0401579Y0084752D01*
X0402414Y0083916D01*
X0403505Y0083465D01*
X0404686Y0083465D01*
X0405777Y0083916D01*
X0406612Y0084752D01*
X0407064Y0085843D01*
X0407064Y0087024D01*
X0406612Y0088115D01*
X0405777Y0088950D01*
X0404686Y0089402D01*
X0402968Y0089179D02*
X0352595Y0089179D01*
X0352595Y0088393D02*
X0401857Y0088393D01*
X0401368Y0087607D02*
X0352595Y0087607D01*
X0352595Y0086821D02*
X0401127Y0086821D01*
X0401127Y0086035D02*
X0352595Y0086035D01*
X0352595Y0085250D02*
X0401372Y0085250D01*
X0401866Y0084464D02*
X0352595Y0084464D01*
X0352595Y0083678D02*
X0402990Y0083678D01*
X0405200Y0083678D02*
X0414142Y0083678D01*
X0414079Y0083615D02*
X0413627Y0082524D01*
X0413627Y0081343D01*
X0414079Y0080252D01*
X0414914Y0079416D01*
X0416005Y0078965D01*
X0417186Y0078965D01*
X0418277Y0079416D01*
X0419112Y0080252D01*
X0419564Y0081343D01*
X0419564Y0082524D01*
X0419112Y0083615D01*
X0418277Y0084450D01*
X0417186Y0084902D01*
X0416005Y0084902D01*
X0414914Y0084450D01*
X0414079Y0083615D01*
X0413779Y0082892D02*
X0352595Y0082892D01*
X0352595Y0082106D02*
X0413627Y0082106D01*
X0413636Y0081320D02*
X0352595Y0081320D01*
X0352595Y0080534D02*
X0413962Y0080534D01*
X0414582Y0079748D02*
X0352595Y0079748D01*
X0352595Y0078962D02*
X0433230Y0078962D01*
X0433209Y0078827D02*
X0437201Y0078827D01*
X0437201Y0078039D01*
X0437989Y0078039D01*
X0437989Y0074047D01*
X0438624Y0074148D01*
X0439282Y0074361D01*
X0439898Y0074675D01*
X0440457Y0075082D01*
X0440946Y0075571D01*
X0441353Y0076130D01*
X0441667Y0076746D01*
X0441881Y0077404D01*
X0441981Y0078039D01*
X0437989Y0078039D01*
X0437989Y0078827D01*
X0437201Y0078827D01*
X0437201Y0082819D01*
X0436566Y0082719D01*
X0435909Y0082505D01*
X0435292Y0082191D01*
X0434733Y0081784D01*
X0434244Y0081295D01*
X0433837Y0080736D01*
X0433523Y0080120D01*
X0433310Y0079462D01*
X0433209Y0078827D01*
X0433209Y0078039D02*
X0433310Y0077404D01*
X0433523Y0076746D01*
X0433837Y0076130D01*
X0434244Y0075571D01*
X0434733Y0075082D01*
X0435292Y0074675D01*
X0435909Y0074361D01*
X0436566Y0074148D01*
X0437201Y0074047D01*
X0437201Y0078039D01*
X0433209Y0078039D01*
X0433314Y0077390D02*
X0352595Y0077390D01*
X0352595Y0076605D02*
X0433596Y0076605D01*
X0434064Y0075819D02*
X0352595Y0075819D01*
X0352595Y0075033D02*
X0434800Y0075033D01*
X0436261Y0074247D02*
X0352595Y0074247D01*
X0352595Y0073461D02*
X0463220Y0073461D01*
X0462525Y0074247D02*
X0438929Y0074247D01*
X0437989Y0074247D02*
X0437201Y0074247D01*
X0437201Y0075033D02*
X0437989Y0075033D01*
X0437989Y0075819D02*
X0437201Y0075819D01*
X0437201Y0076605D02*
X0437989Y0076605D01*
X0437989Y0077390D02*
X0437201Y0077390D01*
X0437201Y0078176D02*
X0352595Y0078176D01*
X0352595Y0072675D02*
X0464505Y0072675D01*
X0462200Y0075033D02*
X0440390Y0075033D01*
X0441127Y0075819D02*
X0462014Y0075819D01*
X0462014Y0076605D02*
X0441595Y0076605D01*
X0441876Y0077390D02*
X0462182Y0077390D01*
X0462507Y0078176D02*
X0437989Y0078176D01*
X0437989Y0078827D02*
X0441981Y0078827D01*
X0441881Y0079462D01*
X0441667Y0080120D01*
X0441353Y0080736D01*
X0440946Y0081295D01*
X0440457Y0081784D01*
X0439898Y0082191D01*
X0439282Y0082505D01*
X0438624Y0082719D01*
X0437989Y0082819D01*
X0437989Y0078827D01*
X0437989Y0078962D02*
X0437201Y0078962D01*
X0437201Y0079748D02*
X0437989Y0079748D01*
X0437989Y0080534D02*
X0437201Y0080534D01*
X0437201Y0081320D02*
X0437989Y0081320D01*
X0437989Y0082106D02*
X0437201Y0082106D01*
X0435175Y0082106D02*
X0419564Y0082106D01*
X0419554Y0081320D02*
X0434268Y0081320D01*
X0433734Y0080534D02*
X0419229Y0080534D01*
X0418608Y0079748D02*
X0433403Y0079748D01*
X0440015Y0082106D02*
X0514661Y0082106D01*
X0514627Y0081320D02*
X0440922Y0081320D01*
X0441456Y0080534D02*
X0514754Y0080534D01*
X0514986Y0082892D02*
X0419411Y0082892D01*
X0419049Y0083678D02*
X0515642Y0083678D01*
X0515595Y0086933D02*
X0487595Y0058933D01*
X0463595Y0058933D01*
X0456595Y0051933D01*
X0456595Y0051433D01*
X0436095Y0051433D01*
X0429095Y0044433D01*
X0415095Y0044433D01*
X0413595Y0045933D01*
X0413595Y0062933D01*
X0414595Y0063933D01*
X0414595Y0076933D01*
X0414947Y0084464D02*
X0406324Y0084464D01*
X0406818Y0085250D02*
X0570165Y0085250D01*
X0569595Y0085250D01*
X0570127Y0085343D02*
X0570579Y0084252D01*
X0571414Y0083416D01*
X0572505Y0082965D01*
X0573686Y0082965D01*
X0574777Y0083416D01*
X0575612Y0084252D01*
X0576064Y0085343D01*
X0576064Y0086524D01*
X0575612Y0087615D01*
X0574777Y0088450D01*
X0573686Y0088902D01*
X0572505Y0088902D01*
X0571414Y0088450D01*
X0570579Y0087615D01*
X0570127Y0086524D01*
X0570127Y0085343D01*
X0570579Y0084252D01*
X0571414Y0083416D01*
X0572505Y0082965D01*
X0573686Y0082965D01*
X0574777Y0083416D01*
X0575612Y0084252D01*
X0576064Y0085343D01*
X0576064Y0086524D01*
X0575612Y0087615D01*
X0574777Y0088450D01*
X0573686Y0088902D01*
X0572505Y0088902D01*
X0571414Y0088450D01*
X0570579Y0087615D01*
X0570127Y0086524D01*
X0570127Y0085343D01*
X0570127Y0086035D02*
X0569595Y0086035D01*
X0570127Y0086035D02*
X0407064Y0086035D01*
X0407064Y0086821D02*
X0570250Y0086821D01*
X0569595Y0086821D01*
X0569595Y0087607D02*
X0570576Y0087607D01*
X0406822Y0087607D01*
X0406333Y0088393D02*
X0571357Y0088393D01*
X0569595Y0088393D01*
X0569595Y0090751D02*
X0795864Y0090751D01*
X0795078Y0091537D02*
X0569595Y0091537D01*
X0569595Y0092323D02*
X0794737Y0092323D01*
X0794414Y0093109D02*
X0569595Y0093109D01*
X0577095Y0091933D02*
X0352595Y0091933D01*
X0352595Y0038327D01*
X0438503Y0038327D01*
X0438079Y0038752D01*
X0437627Y0039843D01*
X0437627Y0041024D01*
X0438079Y0042115D01*
X0438914Y0042950D01*
X0440005Y0043402D01*
X0441186Y0043402D01*
X0442277Y0042950D01*
X0443112Y0042115D01*
X0443564Y0041024D01*
X0443564Y0039843D01*
X0443112Y0038752D01*
X0442687Y0038327D01*
X0577095Y0038327D01*
X0577095Y0091933D01*
X0577095Y0091537D02*
X0352595Y0091537D01*
X0352595Y0090751D02*
X0577095Y0090751D01*
X0577095Y0089965D02*
X0352595Y0089965D01*
X0353595Y0090933D02*
X0354595Y0089933D01*
X0354595Y0067933D01*
X0356095Y0067933D01*
X0366095Y0057933D01*
X0376095Y0057933D01*
X0381095Y0062933D01*
X0380701Y0063244D02*
X0375276Y0063244D01*
X0375276Y0063765D02*
X0374640Y0065301D01*
X0373464Y0066478D01*
X0371927Y0067114D01*
X0370263Y0067114D01*
X0368727Y0066478D01*
X0367551Y0065301D01*
X0366914Y0063765D01*
X0366914Y0062101D01*
X0367551Y0060565D01*
X0368727Y0059388D01*
X0370263Y0058752D01*
X0371927Y0058752D01*
X0373464Y0059388D01*
X0374640Y0060565D01*
X0375276Y0062101D01*
X0375276Y0063765D01*
X0375166Y0064030D02*
X0376832Y0064030D01*
X0376810Y0063962D02*
X0376709Y0063327D01*
X0380701Y0063327D01*
X0380701Y0062539D01*
X0376709Y0062539D01*
X0376810Y0061904D01*
X0377023Y0061246D01*
X0377337Y0060630D01*
X0377744Y0060071D01*
X0378233Y0059582D01*
X0378792Y0059175D01*
X0379409Y0058861D01*
X0380066Y0058648D01*
X0380701Y0058547D01*
X0380701Y0062539D01*
X0381489Y0062539D01*
X0381489Y0058547D01*
X0382124Y0058648D01*
X0382782Y0058861D01*
X0383398Y0059175D01*
X0383957Y0059582D01*
X0384446Y0060071D01*
X0384853Y0060630D01*
X0385167Y0061246D01*
X0385381Y0061904D01*
X0385481Y0062539D01*
X0381489Y0062539D01*
X0381489Y0063327D01*
X0380701Y0063327D01*
X0380701Y0067319D01*
X0380066Y0067219D01*
X0379409Y0067005D01*
X0378792Y0066691D01*
X0378233Y0066284D01*
X0377744Y0065795D01*
X0377337Y0065236D01*
X0377023Y0064620D01*
X0376810Y0063962D01*
X0377123Y0064816D02*
X0374841Y0064816D01*
X0374339Y0065602D02*
X0377603Y0065602D01*
X0378375Y0066388D02*
X0373554Y0066388D01*
X0375276Y0062458D02*
X0376722Y0062458D01*
X0376885Y0061672D02*
X0375098Y0061672D01*
X0374773Y0060886D02*
X0377207Y0060886D01*
X0377722Y0060100D02*
X0374175Y0060100D01*
X0373285Y0059314D02*
X0378601Y0059314D01*
X0380701Y0059314D02*
X0381489Y0059314D01*
X0381489Y0060100D02*
X0380701Y0060100D01*
X0380701Y0060886D02*
X0381489Y0060886D01*
X0381489Y0061672D02*
X0380701Y0061672D01*
X0380701Y0062458D02*
X0381489Y0062458D01*
X0381489Y0063244D02*
X0577095Y0063244D01*
X0577095Y0062458D02*
X0385468Y0062458D01*
X0385305Y0061672D02*
X0577095Y0061672D01*
X0577095Y0060886D02*
X0452340Y0060886D01*
X0452277Y0060950D02*
X0451186Y0061402D01*
X0450005Y0061402D01*
X0448914Y0060950D01*
X0448079Y0060115D01*
X0447627Y0059024D01*
X0447627Y0057843D01*
X0448079Y0056752D01*
X0448914Y0055916D01*
X0450005Y0055465D01*
X0451186Y0055465D01*
X0452277Y0055916D01*
X0453112Y0056752D01*
X0453564Y0057843D01*
X0453564Y0059024D01*
X0453112Y0060115D01*
X0452277Y0060950D01*
X0453118Y0060100D02*
X0577095Y0060100D01*
X0577595Y0059933D02*
X0580095Y0057433D01*
X0580095Y0047433D01*
X0574595Y0041933D01*
X0577095Y0042024D02*
X0443149Y0042024D01*
X0443475Y0041238D02*
X0577095Y0041238D01*
X0577095Y0040453D02*
X0443564Y0040453D01*
X0443491Y0039667D02*
X0577095Y0039667D01*
X0577095Y0038881D02*
X0443165Y0038881D01*
X0442416Y0042810D02*
X0577095Y0042810D01*
X0577095Y0043596D02*
X0352595Y0043596D01*
X0352595Y0042810D02*
X0438774Y0042810D01*
X0438041Y0042024D02*
X0352595Y0042024D01*
X0352595Y0041238D02*
X0437716Y0041238D01*
X0437627Y0040453D02*
X0352595Y0040453D01*
X0352595Y0039667D02*
X0437700Y0039667D01*
X0438025Y0038881D02*
X0352595Y0038881D01*
X0354595Y0039933D02*
X0354595Y0067933D01*
X0353595Y0067933D01*
X0326595Y0067933D01*
X0314095Y0055433D01*
X0314095Y0047933D01*
X0352595Y0048312D02*
X0577095Y0048312D01*
X0577095Y0049098D02*
X0486740Y0049098D01*
X0486147Y0048852D02*
X0487537Y0049428D01*
X0488601Y0050491D01*
X0489176Y0051881D01*
X0489176Y0053385D01*
X0488601Y0054775D01*
X0487537Y0055839D01*
X0486147Y0056414D01*
X0484643Y0056414D01*
X0483253Y0055839D01*
X0482190Y0054775D01*
X0481614Y0053385D01*
X0481614Y0051881D01*
X0482190Y0050491D01*
X0483253Y0049428D01*
X0484643Y0048852D01*
X0486147Y0048852D01*
X0484050Y0049098D02*
X0467140Y0049098D01*
X0466547Y0048852D02*
X0467937Y0049428D01*
X0469001Y0050491D01*
X0469576Y0051881D01*
X0469576Y0053385D01*
X0469001Y0054775D01*
X0467937Y0055839D01*
X0466547Y0056414D01*
X0465043Y0056414D01*
X0463653Y0055839D01*
X0462590Y0054775D01*
X0462014Y0053385D01*
X0462014Y0051881D01*
X0462590Y0050491D01*
X0463653Y0049428D01*
X0465043Y0048852D01*
X0466547Y0048852D01*
X0464450Y0049098D02*
X0352595Y0049098D01*
X0352595Y0049883D02*
X0463197Y0049883D01*
X0462516Y0050669D02*
X0352595Y0050669D01*
X0352595Y0051455D02*
X0462190Y0051455D01*
X0462014Y0052241D02*
X0396854Y0052241D01*
X0397277Y0052416D02*
X0398112Y0053252D01*
X0398564Y0054343D01*
X0398564Y0055524D01*
X0398112Y0056615D01*
X0397277Y0057450D01*
X0396186Y0057902D01*
X0395005Y0057902D01*
X0393914Y0057450D01*
X0393079Y0056615D01*
X0392627Y0055524D01*
X0392627Y0054343D01*
X0393079Y0053252D01*
X0393914Y0052416D01*
X0395005Y0051965D01*
X0396186Y0051965D01*
X0397277Y0052416D01*
X0397887Y0053027D02*
X0462014Y0053027D01*
X0462191Y0053813D02*
X0398344Y0053813D01*
X0398564Y0054599D02*
X0462517Y0054599D01*
X0463200Y0055385D02*
X0398564Y0055385D01*
X0398296Y0056171D02*
X0448659Y0056171D01*
X0447994Y0056957D02*
X0397770Y0056957D01*
X0396569Y0057743D02*
X0447668Y0057743D01*
X0447627Y0058529D02*
X0352595Y0058529D01*
X0352595Y0059314D02*
X0368906Y0059314D01*
X0368015Y0060100D02*
X0352595Y0060100D01*
X0352595Y0060886D02*
X0367417Y0060886D01*
X0367092Y0061672D02*
X0352595Y0061672D01*
X0352595Y0062458D02*
X0366914Y0062458D01*
X0366914Y0063244D02*
X0352595Y0063244D01*
X0352595Y0064030D02*
X0367024Y0064030D01*
X0367349Y0064816D02*
X0352595Y0064816D01*
X0352595Y0065602D02*
X0367851Y0065602D01*
X0368637Y0066388D02*
X0352595Y0066388D01*
X0352595Y0067174D02*
X0379928Y0067174D01*
X0380701Y0067174D02*
X0381489Y0067174D01*
X0381489Y0067319D02*
X0381489Y0063327D01*
X0385481Y0063327D01*
X0385381Y0063962D01*
X0385167Y0064620D01*
X0384853Y0065236D01*
X0384446Y0065795D01*
X0383957Y0066284D01*
X0383398Y0066691D01*
X0382782Y0067005D01*
X0382124Y0067219D01*
X0381489Y0067319D01*
X0382263Y0067174D02*
X0416127Y0067174D01*
X0416127Y0067524D02*
X0416127Y0066343D01*
X0416579Y0065252D01*
X0417414Y0064416D01*
X0418505Y0063965D01*
X0419686Y0063965D01*
X0420777Y0064416D01*
X0421612Y0065252D01*
X0422064Y0066343D01*
X0422064Y0067524D01*
X0421612Y0068615D01*
X0420777Y0069450D01*
X0419686Y0069902D01*
X0418505Y0069902D01*
X0417414Y0069450D01*
X0416579Y0068615D01*
X0416127Y0067524D01*
X0416307Y0067959D02*
X0352595Y0067959D01*
X0352595Y0068745D02*
X0416709Y0068745D01*
X0417611Y0069531D02*
X0352595Y0069531D01*
X0352595Y0070317D02*
X0433850Y0070317D01*
X0434051Y0070801D02*
X0433414Y0069265D01*
X0433414Y0067601D01*
X0434051Y0066065D01*
X0435227Y0064888D01*
X0436763Y0064252D01*
X0438427Y0064252D01*
X0439964Y0064888D01*
X0441140Y0066065D01*
X0441776Y0067601D01*
X0441776Y0069265D01*
X0441140Y0070801D01*
X0439964Y0071978D01*
X0438427Y0072614D01*
X0436763Y0072614D01*
X0435227Y0071978D01*
X0434051Y0070801D01*
X0434352Y0071103D02*
X0352595Y0071103D01*
X0352595Y0071889D02*
X0435138Y0071889D01*
X0433524Y0069531D02*
X0420579Y0069531D01*
X0421481Y0068745D02*
X0433414Y0068745D01*
X0433414Y0067959D02*
X0421883Y0067959D01*
X0422064Y0067174D02*
X0433591Y0067174D01*
X0433917Y0066388D02*
X0422064Y0066388D01*
X0421757Y0065602D02*
X0434513Y0065602D01*
X0435402Y0064816D02*
X0421176Y0064816D01*
X0419843Y0064030D02*
X0577095Y0064030D01*
X0577095Y0064816D02*
X0439788Y0064816D01*
X0440677Y0065602D02*
X0577095Y0065602D01*
X0577095Y0066388D02*
X0441273Y0066388D01*
X0441599Y0067174D02*
X0577095Y0067174D01*
X0577095Y0067959D02*
X0441776Y0067959D01*
X0441776Y0068745D02*
X0577095Y0068745D01*
X0577095Y0069531D02*
X0441666Y0069531D01*
X0441340Y0070317D02*
X0577095Y0070317D01*
X0577095Y0071103D02*
X0440838Y0071103D01*
X0440052Y0071889D02*
X0564980Y0071889D01*
X0568210Y0071889D02*
X0577095Y0071889D01*
X0577095Y0072675D02*
X0569035Y0072675D01*
X0569595Y0072675D02*
X0594139Y0072675D01*
X0594414Y0072950D02*
X0593579Y0072115D01*
X0593127Y0071024D01*
X0593127Y0069843D01*
X0593579Y0068752D01*
X0594414Y0067916D01*
X0595505Y0067465D01*
X0596686Y0067465D01*
X0597777Y0067916D01*
X0598345Y0068485D01*
X0598914Y0067916D01*
X0600005Y0067465D01*
X0601186Y0067465D01*
X0602277Y0067916D01*
X0602845Y0068485D01*
X0603414Y0067916D01*
X0604505Y0067465D01*
X0605686Y0067465D01*
X0606777Y0067916D01*
X0607345Y0068485D01*
X0607914Y0067916D01*
X0609005Y0067465D01*
X0610186Y0067465D01*
X0611277Y0067916D01*
X0611845Y0068485D01*
X0612414Y0067916D01*
X0613505Y0067465D01*
X0614686Y0067465D01*
X0615777Y0067916D01*
X0616612Y0068752D01*
X0617064Y0069843D01*
X0617064Y0071024D01*
X0616612Y0072115D01*
X0615777Y0072950D01*
X0614686Y0073402D01*
X0613505Y0073402D01*
X0612414Y0072950D01*
X0611845Y0072381D01*
X0611277Y0072950D01*
X0610186Y0073402D01*
X0609005Y0073402D01*
X0607914Y0072950D01*
X0607345Y0072381D01*
X0606777Y0072950D01*
X0605686Y0073402D01*
X0604505Y0073402D01*
X0603414Y0072950D01*
X0602845Y0072381D01*
X0602277Y0072950D01*
X0601186Y0073402D01*
X0600005Y0073402D01*
X0598914Y0072950D01*
X0598345Y0072381D01*
X0597777Y0072950D01*
X0596686Y0073402D01*
X0595505Y0073402D01*
X0594414Y0072950D01*
X0593485Y0071889D02*
X0569595Y0071889D01*
X0569595Y0071103D02*
X0593160Y0071103D01*
X0593127Y0070317D02*
X0569595Y0070317D01*
X0569595Y0069531D02*
X0593256Y0069531D01*
X0593585Y0068745D02*
X0569595Y0068745D01*
X0569595Y0067959D02*
X0594371Y0067959D01*
X0597820Y0067959D02*
X0598871Y0067959D01*
X0602320Y0067959D02*
X0603371Y0067959D01*
X0606820Y0067959D02*
X0607871Y0067959D01*
X0611320Y0067959D02*
X0612371Y0067959D01*
X0615820Y0067959D02*
X0658371Y0067959D01*
X0658414Y0067916D02*
X0659505Y0067465D01*
X0660686Y0067465D01*
X0661777Y0067916D01*
X0662345Y0068485D01*
X0662914Y0067916D01*
X0664005Y0067465D01*
X0665186Y0067465D01*
X0666277Y0067916D01*
X0666845Y0068485D01*
X0667414Y0067916D01*
X0668505Y0067465D01*
X0669686Y0067465D01*
X0670777Y0067916D01*
X0671345Y0068485D01*
X0671914Y0067916D01*
X0673005Y0067465D01*
X0674186Y0067465D01*
X0675277Y0067916D01*
X0675845Y0068485D01*
X0676414Y0067916D01*
X0677505Y0067465D01*
X0678686Y0067465D01*
X0679777Y0067916D01*
X0680612Y0068752D01*
X0681064Y0069843D01*
X0681064Y0071024D01*
X0680612Y0072115D01*
X0679777Y0072950D01*
X0678686Y0073402D01*
X0677505Y0073402D01*
X0676414Y0072950D01*
X0675845Y0072381D01*
X0675277Y0072950D01*
X0674186Y0073402D01*
X0673005Y0073402D01*
X0671914Y0072950D01*
X0671345Y0072381D01*
X0670777Y0072950D01*
X0669686Y0073402D01*
X0668505Y0073402D01*
X0667414Y0072950D01*
X0666845Y0072381D01*
X0666277Y0072950D01*
X0665186Y0073402D01*
X0664005Y0073402D01*
X0662914Y0072950D01*
X0662345Y0072381D01*
X0661777Y0072950D01*
X0660686Y0073402D01*
X0659505Y0073402D01*
X0658414Y0072950D01*
X0657579Y0072115D01*
X0657127Y0071024D01*
X0657127Y0069843D01*
X0657579Y0068752D01*
X0658414Y0067916D01*
X0657585Y0068745D02*
X0616606Y0068745D01*
X0616935Y0069531D02*
X0657256Y0069531D01*
X0657127Y0070317D02*
X0617064Y0070317D01*
X0617031Y0071103D02*
X0657160Y0071103D01*
X0657485Y0071889D02*
X0616705Y0071889D01*
X0616051Y0072675D02*
X0658139Y0072675D01*
X0662051Y0072675D02*
X0662639Y0072675D01*
X0666551Y0072675D02*
X0667139Y0072675D01*
X0671051Y0072675D02*
X0671639Y0072675D01*
X0675551Y0072675D02*
X0676139Y0072675D01*
X0680051Y0072675D02*
X0848201Y0072675D01*
X0848201Y0073461D02*
X0569595Y0073461D01*
X0569406Y0073461D02*
X0577095Y0073461D01*
X0577095Y0074247D02*
X0569564Y0074247D01*
X0569595Y0074247D02*
X0848201Y0074247D01*
X0848201Y0075033D02*
X0569595Y0075033D01*
X0569560Y0075033D02*
X0577095Y0075033D01*
X0577095Y0078962D02*
X0519322Y0078962D01*
X0520108Y0079748D02*
X0577095Y0079748D01*
X0577095Y0080534D02*
X0520436Y0080534D01*
X0520564Y0081320D02*
X0577095Y0081320D01*
X0577095Y0082106D02*
X0520530Y0082106D01*
X0520204Y0082892D02*
X0577095Y0082892D01*
X0571152Y0083678D02*
X0569595Y0083678D01*
X0569595Y0084464D02*
X0570491Y0084464D01*
X0418243Y0084464D01*
X0441788Y0079748D02*
X0464401Y0079748D01*
X0463177Y0078962D02*
X0441960Y0078962D01*
X0416127Y0066388D02*
X0383815Y0066388D01*
X0384587Y0065602D02*
X0416434Y0065602D01*
X0417014Y0064816D02*
X0385067Y0064816D01*
X0385359Y0064030D02*
X0418347Y0064030D01*
X0394621Y0057743D02*
X0352595Y0057743D01*
X0352595Y0056957D02*
X0393421Y0056957D01*
X0392895Y0056171D02*
X0352595Y0056171D01*
X0352595Y0055385D02*
X0392627Y0055385D01*
X0392627Y0054599D02*
X0352595Y0054599D01*
X0352595Y0053813D02*
X0392846Y0053813D01*
X0393303Y0053027D02*
X0352595Y0053027D01*
X0352595Y0052241D02*
X0394337Y0052241D01*
X0384468Y0060100D02*
X0448073Y0060100D01*
X0447747Y0059314D02*
X0383590Y0059314D01*
X0384983Y0060886D02*
X0448850Y0060886D01*
X0453443Y0059314D02*
X0577095Y0059314D01*
X0577095Y0058529D02*
X0453564Y0058529D01*
X0453522Y0057743D02*
X0577095Y0057743D01*
X0577095Y0056957D02*
X0453197Y0056957D01*
X0452531Y0056171D02*
X0464455Y0056171D01*
X0467135Y0056171D02*
X0484055Y0056171D01*
X0482800Y0055385D02*
X0468391Y0055385D01*
X0469073Y0054599D02*
X0482117Y0054599D01*
X0481791Y0053813D02*
X0469399Y0053813D01*
X0469576Y0053027D02*
X0481614Y0053027D01*
X0481614Y0052241D02*
X0469576Y0052241D01*
X0469400Y0051455D02*
X0481790Y0051455D01*
X0482116Y0050669D02*
X0469074Y0050669D01*
X0468393Y0049883D02*
X0482797Y0049883D01*
X0487993Y0049883D02*
X0577095Y0049883D01*
X0577095Y0050669D02*
X0488674Y0050669D01*
X0489000Y0051455D02*
X0577095Y0051455D01*
X0577095Y0052241D02*
X0489176Y0052241D01*
X0489176Y0053027D02*
X0577095Y0053027D01*
X0577095Y0053813D02*
X0488999Y0053813D01*
X0488673Y0054599D02*
X0577095Y0054599D01*
X0577095Y0055385D02*
X0487991Y0055385D01*
X0486735Y0056171D02*
X0577095Y0056171D01*
X0577595Y0059933D02*
X0564095Y0059933D01*
X0537095Y0086933D01*
X0515595Y0086933D01*
X0519549Y0083678D02*
X0571152Y0083678D01*
X0597207Y0094681D02*
X0599483Y0094681D01*
X0598364Y0095466D02*
X0598327Y0095466D01*
X0601707Y0094681D02*
X0603983Y0094681D01*
X0602864Y0095466D02*
X0602827Y0095466D01*
X0606207Y0094681D02*
X0608483Y0094681D01*
X0607364Y0095466D02*
X0607327Y0095466D01*
X0610707Y0094681D02*
X0612983Y0094681D01*
X0611864Y0095466D02*
X0611827Y0095466D01*
X0611551Y0072675D02*
X0612139Y0072675D01*
X0607639Y0072675D02*
X0607051Y0072675D01*
X0603139Y0072675D02*
X0602551Y0072675D01*
X0598639Y0072675D02*
X0598051Y0072675D01*
X0597186Y0062902D02*
X0596005Y0062902D01*
X0594914Y0062450D01*
X0594079Y0061615D01*
X0593627Y0060524D01*
X0593627Y0059343D01*
X0594079Y0058252D01*
X0594897Y0057433D01*
X0594079Y0056615D01*
X0593627Y0055524D01*
X0593627Y0054343D01*
X0594079Y0053252D01*
X0594914Y0052416D01*
X0596005Y0051965D01*
X0597186Y0051965D01*
X0598277Y0052416D01*
X0599112Y0053252D01*
X0599564Y0054343D01*
X0599564Y0055524D01*
X0599112Y0056615D01*
X0598293Y0057433D01*
X0599112Y0058252D01*
X0599564Y0059343D01*
X0599564Y0060524D01*
X0599112Y0061615D01*
X0598277Y0062450D01*
X0597186Y0062902D01*
X0598256Y0062458D02*
X0601922Y0062458D01*
X0601579Y0062115D02*
X0601127Y0061024D01*
X0601127Y0059843D01*
X0601579Y0058752D01*
X0602414Y0057916D01*
X0603505Y0057465D01*
X0604686Y0057465D01*
X0605777Y0057916D01*
X0606612Y0058752D01*
X0607064Y0059843D01*
X0607064Y0061024D01*
X0606612Y0062115D01*
X0605777Y0062950D01*
X0604686Y0063402D01*
X0603505Y0063402D01*
X0602414Y0062950D01*
X0601579Y0062115D01*
X0601395Y0061672D02*
X0599054Y0061672D01*
X0599413Y0060886D02*
X0601127Y0060886D01*
X0601127Y0060100D02*
X0599564Y0060100D01*
X0599552Y0059314D02*
X0601345Y0059314D01*
X0601802Y0058529D02*
X0599226Y0058529D01*
X0598603Y0057743D02*
X0602833Y0057743D01*
X0603186Y0057402D02*
X0602005Y0057402D01*
X0600914Y0056950D01*
X0600079Y0056115D01*
X0599627Y0055024D01*
X0599627Y0053843D01*
X0600079Y0052752D01*
X0600914Y0051916D01*
X0602005Y0051465D01*
X0603186Y0051465D01*
X0604277Y0051916D01*
X0605112Y0052752D01*
X0605564Y0053843D01*
X0605564Y0055024D01*
X0605112Y0056115D01*
X0604277Y0056950D01*
X0603186Y0057402D01*
X0604260Y0056957D02*
X0658421Y0056957D01*
X0658079Y0056615D02*
X0657627Y0055524D01*
X0657627Y0054343D01*
X0658079Y0053252D01*
X0658914Y0052416D01*
X0660005Y0051965D01*
X0661186Y0051965D01*
X0662277Y0052416D01*
X0663112Y0053252D01*
X0663564Y0054343D01*
X0663564Y0055524D01*
X0663112Y0056615D01*
X0662293Y0057433D01*
X0663112Y0058252D01*
X0663564Y0059343D01*
X0663564Y0060524D01*
X0663112Y0061615D01*
X0662277Y0062450D01*
X0661186Y0062902D01*
X0660005Y0062902D01*
X0658914Y0062450D01*
X0658079Y0061615D01*
X0657627Y0060524D01*
X0657627Y0059343D01*
X0658079Y0058252D01*
X0658897Y0057433D01*
X0658079Y0056615D01*
X0657895Y0056171D02*
X0605055Y0056171D01*
X0605414Y0055385D02*
X0657627Y0055385D01*
X0657627Y0054599D02*
X0605564Y0054599D01*
X0605551Y0053813D02*
X0657846Y0053813D01*
X0658303Y0053027D02*
X0605226Y0053027D01*
X0604601Y0052241D02*
X0659337Y0052241D01*
X0661854Y0052241D02*
X0664589Y0052241D01*
X0664914Y0051916D02*
X0666005Y0051465D01*
X0667186Y0051465D01*
X0668277Y0051916D01*
X0669112Y0052752D01*
X0669564Y0053843D01*
X0669564Y0055024D01*
X0669112Y0056115D01*
X0668277Y0056950D01*
X0667186Y0057402D01*
X0666005Y0057402D01*
X0664914Y0056950D01*
X0664079Y0056115D01*
X0663627Y0055024D01*
X0663627Y0053843D01*
X0664079Y0052752D01*
X0664914Y0051916D01*
X0663964Y0053027D02*
X0662887Y0053027D01*
X0663344Y0053813D02*
X0663639Y0053813D01*
X0663627Y0054599D02*
X0663564Y0054599D01*
X0663564Y0055385D02*
X0663776Y0055385D01*
X0664135Y0056171D02*
X0663296Y0056171D01*
X0662770Y0056957D02*
X0664931Y0056957D01*
X0666414Y0057916D02*
X0667505Y0057465D01*
X0668686Y0057465D01*
X0669777Y0057916D01*
X0670612Y0058752D01*
X0671064Y0059843D01*
X0671064Y0061024D01*
X0670612Y0062115D01*
X0669777Y0062950D01*
X0668686Y0063402D01*
X0667505Y0063402D01*
X0666414Y0062950D01*
X0665579Y0062115D01*
X0665127Y0061024D01*
X0665127Y0059843D01*
X0665579Y0058752D01*
X0666414Y0057916D01*
X0666833Y0057743D02*
X0662603Y0057743D01*
X0663226Y0058529D02*
X0665802Y0058529D01*
X0665345Y0059314D02*
X0663552Y0059314D01*
X0663564Y0060100D02*
X0665127Y0060100D01*
X0665127Y0060886D02*
X0663413Y0060886D01*
X0663054Y0061672D02*
X0665395Y0061672D01*
X0665922Y0062458D02*
X0662256Y0062458D01*
X0658934Y0062458D02*
X0606268Y0062458D01*
X0606795Y0061672D02*
X0658136Y0061672D01*
X0657777Y0060886D02*
X0607064Y0060886D01*
X0607064Y0060100D02*
X0657627Y0060100D01*
X0657638Y0059314D02*
X0606845Y0059314D01*
X0606389Y0058529D02*
X0657964Y0058529D01*
X0658587Y0057743D02*
X0605357Y0057743D01*
X0600931Y0056957D02*
X0598770Y0056957D01*
X0599296Y0056171D02*
X0600135Y0056171D01*
X0599776Y0055385D02*
X0599564Y0055385D01*
X0599564Y0054599D02*
X0599627Y0054599D01*
X0599639Y0053813D02*
X0599344Y0053813D01*
X0598887Y0053027D02*
X0599964Y0053027D01*
X0600589Y0052241D02*
X0597854Y0052241D01*
X0595337Y0052241D02*
X0569595Y0052241D01*
X0569595Y0051455D02*
X0772381Y0051455D01*
X0772695Y0052213D02*
X0771583Y0049531D01*
X0771583Y0046627D01*
X0772695Y0043944D01*
X0774748Y0041891D01*
X0777431Y0040780D01*
X0780334Y0040780D01*
X0783017Y0041891D01*
X0785071Y0043944D01*
X0786182Y0046627D01*
X0786182Y0049531D01*
X0785071Y0052213D01*
X0783017Y0054267D01*
X0780334Y0055378D01*
X0777431Y0055378D01*
X0774748Y0054267D01*
X0772695Y0052213D01*
X0772722Y0052241D02*
X0668601Y0052241D01*
X0669226Y0053027D02*
X0773508Y0053027D01*
X0774294Y0053813D02*
X0669551Y0053813D01*
X0669564Y0054599D02*
X0775550Y0054599D01*
X0772055Y0050669D02*
X0569595Y0050669D01*
X0569595Y0049883D02*
X0771729Y0049883D01*
X0771583Y0049098D02*
X0569595Y0049098D01*
X0569595Y0048312D02*
X0676788Y0048312D01*
X0677005Y0048402D02*
X0675914Y0047950D01*
X0675079Y0047115D01*
X0674627Y0046024D01*
X0674627Y0044843D01*
X0675079Y0043752D01*
X0675914Y0042916D01*
X0677005Y0042465D01*
X0678186Y0042465D01*
X0679277Y0042916D01*
X0680112Y0043752D01*
X0680564Y0044843D01*
X0680564Y0046024D01*
X0680112Y0047115D01*
X0679277Y0047950D01*
X0678186Y0048402D01*
X0677005Y0048402D01*
X0678403Y0048312D02*
X0771583Y0048312D01*
X0771583Y0047526D02*
X0679701Y0047526D01*
X0680267Y0046740D02*
X0771583Y0046740D01*
X0771862Y0045954D02*
X0680564Y0045954D01*
X0680564Y0045168D02*
X0772188Y0045168D01*
X0772513Y0044382D02*
X0680373Y0044382D01*
X0679956Y0043596D02*
X0773042Y0043596D01*
X0773828Y0042810D02*
X0679020Y0042810D01*
X0676170Y0042810D02*
X0671636Y0042810D01*
X0671612Y0042752D02*
X0672064Y0043843D01*
X0672064Y0045024D01*
X0671612Y0046115D01*
X0670777Y0046950D01*
X0669686Y0047402D01*
X0668505Y0047402D01*
X0667414Y0046950D01*
X0666579Y0046115D01*
X0666127Y0045024D01*
X0666127Y0043843D01*
X0666579Y0042752D01*
X0667414Y0041916D01*
X0668505Y0041465D01*
X0669686Y0041465D01*
X0670777Y0041916D01*
X0671612Y0042752D01*
X0671962Y0043596D02*
X0675234Y0043596D01*
X0674817Y0044382D02*
X0672064Y0044382D01*
X0672004Y0045168D02*
X0674627Y0045168D01*
X0674627Y0045954D02*
X0671678Y0045954D01*
X0670986Y0046740D02*
X0674923Y0046740D01*
X0675490Y0047526D02*
X0661093Y0047526D01*
X0661277Y0047450D02*
X0660186Y0047902D01*
X0659005Y0047902D01*
X0657914Y0047450D01*
X0657079Y0046615D01*
X0656627Y0045524D01*
X0656627Y0044343D01*
X0657079Y0043252D01*
X0657914Y0042416D01*
X0659005Y0041965D01*
X0660186Y0041965D01*
X0661277Y0042416D01*
X0662112Y0043252D01*
X0662564Y0044343D01*
X0662564Y0045524D01*
X0662112Y0046615D01*
X0661277Y0047450D01*
X0661986Y0046740D02*
X0667204Y0046740D01*
X0666512Y0045954D02*
X0662385Y0045954D01*
X0662564Y0045168D02*
X0666186Y0045168D01*
X0666127Y0044382D02*
X0662564Y0044382D01*
X0662254Y0043596D02*
X0666229Y0043596D01*
X0666554Y0042810D02*
X0661670Y0042810D01*
X0660330Y0042024D02*
X0667306Y0042024D01*
X0670885Y0042024D02*
X0774614Y0042024D01*
X0776323Y0041238D02*
X0569595Y0041238D01*
X0569595Y0040453D02*
X0848201Y0040453D01*
X0848201Y0041238D02*
X0781442Y0041238D01*
X0783151Y0042024D02*
X0848201Y0042024D01*
X0848201Y0042810D02*
X0783937Y0042810D01*
X0784723Y0043596D02*
X0848201Y0043596D01*
X0848201Y0044382D02*
X0785252Y0044382D01*
X0785577Y0045168D02*
X0848201Y0045168D01*
X0848201Y0045954D02*
X0785903Y0045954D01*
X0786182Y0046740D02*
X0800492Y0046740D01*
X0801669Y0046252D02*
X0805521Y0046252D01*
X0809079Y0047726D01*
X0811802Y0050449D01*
X0813276Y0054007D01*
X0813276Y0057859D01*
X0811802Y0061417D01*
X0809079Y0064140D01*
X0805521Y0065614D01*
X0801669Y0065614D01*
X0798111Y0064140D01*
X0795388Y0061417D01*
X0793914Y0057859D01*
X0793914Y0054007D01*
X0795388Y0050449D01*
X0798111Y0047726D01*
X0801669Y0046252D01*
X0798594Y0047526D02*
X0786182Y0047526D01*
X0786182Y0048312D02*
X0797525Y0048312D01*
X0796739Y0049098D02*
X0786182Y0049098D01*
X0786036Y0049883D02*
X0795954Y0049883D01*
X0795297Y0050669D02*
X0785710Y0050669D01*
X0785385Y0051455D02*
X0794971Y0051455D01*
X0794646Y0052241D02*
X0785043Y0052241D01*
X0784257Y0053027D02*
X0794320Y0053027D01*
X0793995Y0053813D02*
X0783471Y0053813D01*
X0782215Y0054599D02*
X0793914Y0054599D01*
X0793914Y0055385D02*
X0669414Y0055385D01*
X0669055Y0056171D02*
X0793914Y0056171D01*
X0793914Y0056957D02*
X0668260Y0056957D01*
X0669357Y0057743D02*
X0793914Y0057743D01*
X0794191Y0058529D02*
X0670389Y0058529D01*
X0670845Y0059314D02*
X0794517Y0059314D01*
X0794843Y0060100D02*
X0671064Y0060100D01*
X0671064Y0060886D02*
X0795168Y0060886D01*
X0795643Y0061672D02*
X0670795Y0061672D01*
X0670268Y0062458D02*
X0796429Y0062458D01*
X0797215Y0063244D02*
X0669066Y0063244D01*
X0667124Y0063244D02*
X0605066Y0063244D01*
X0603124Y0063244D02*
X0569595Y0063244D01*
X0569595Y0062458D02*
X0594934Y0062458D01*
X0594136Y0061672D02*
X0569595Y0061672D01*
X0569595Y0060886D02*
X0593777Y0060886D01*
X0593627Y0060100D02*
X0569595Y0060100D01*
X0569595Y0059314D02*
X0593638Y0059314D01*
X0593964Y0058529D02*
X0569595Y0058529D01*
X0569595Y0057743D02*
X0594587Y0057743D01*
X0594421Y0056957D02*
X0569595Y0056957D01*
X0569595Y0056171D02*
X0593895Y0056171D01*
X0593627Y0055385D02*
X0569595Y0055385D01*
X0569595Y0054599D02*
X0593627Y0054599D01*
X0593846Y0053813D02*
X0569595Y0053813D01*
X0569595Y0053027D02*
X0594303Y0053027D01*
X0602579Y0046115D02*
X0602127Y0045024D01*
X0602127Y0043843D01*
X0602579Y0042752D01*
X0603414Y0041916D01*
X0604505Y0041465D01*
X0605686Y0041465D01*
X0606777Y0041916D01*
X0607612Y0042752D01*
X0608064Y0043843D01*
X0608064Y0045024D01*
X0607612Y0046115D01*
X0606777Y0046950D01*
X0605686Y0047402D01*
X0604505Y0047402D01*
X0603414Y0046950D01*
X0602579Y0046115D01*
X0602512Y0045954D02*
X0569595Y0045954D01*
X0569595Y0046740D02*
X0603204Y0046740D01*
X0602186Y0045168D02*
X0569595Y0045168D01*
X0569595Y0044382D02*
X0602127Y0044382D01*
X0602229Y0043596D02*
X0569595Y0043596D01*
X0569595Y0042810D02*
X0602554Y0042810D01*
X0603306Y0042024D02*
X0569595Y0042024D01*
X0569595Y0039667D02*
X0848201Y0039667D01*
X0848201Y0038881D02*
X0569595Y0038881D01*
X0577095Y0044382D02*
X0352595Y0044382D01*
X0352595Y0045168D02*
X0577095Y0045168D01*
X0577095Y0045954D02*
X0352595Y0045954D01*
X0352595Y0046740D02*
X0577095Y0046740D01*
X0577095Y0047526D02*
X0352595Y0047526D01*
X0380701Y0064030D02*
X0381489Y0064030D01*
X0381489Y0064816D02*
X0380701Y0064816D01*
X0380701Y0065602D02*
X0381489Y0065602D01*
X0381489Y0066388D02*
X0380701Y0066388D01*
X0326595Y0067933D02*
X0314595Y0079933D01*
X0314595Y0089433D01*
X0306495Y0095033D02*
X0306395Y0094933D01*
X0152095Y0094933D01*
X0147195Y0090033D01*
X0135095Y0090033D01*
X0149595Y0100933D02*
X0152095Y0098433D01*
X0158095Y0098433D01*
X0332095Y0098433D01*
X0361095Y0098433D01*
X0385095Y0102433D02*
X0411095Y0102433D01*
X0415095Y0102433D01*
X0411095Y0102433D01*
X0385095Y0102433D02*
X0173595Y0102433D01*
X0158595Y0102433D01*
X0149195Y0111833D01*
X0148195Y0111833D01*
X0135095Y0111833D01*
X0135095Y0122633D02*
X0150395Y0122633D01*
X0166595Y0106433D01*
X0174095Y0106433D01*
X0445595Y0106433D01*
X0466095Y0106433D01*
X0457595Y0122433D02*
X0438095Y0141933D01*
X0202095Y0141933D01*
X0180095Y0141933D01*
X0167595Y0154433D01*
X0161595Y0160433D01*
X0154095Y0167933D01*
X0154095Y0169433D01*
X0154095Y0184933D01*
X0152095Y0186933D01*
X0150095Y0188933D01*
X0150095Y0197233D01*
X0148595Y0198733D01*
X0135095Y0198733D01*
X0135095Y0209633D02*
X0150895Y0209633D01*
X0152095Y0208433D01*
X0152095Y0198933D01*
X0152095Y0189933D01*
X0154095Y0187933D01*
X0156095Y0185933D01*
X0156095Y0169433D01*
X0156095Y0168933D01*
X0163595Y0161433D01*
X0168595Y0156433D01*
X0181095Y0143933D01*
X0202595Y0143933D01*
X0486095Y0143933D01*
X0507595Y0122433D01*
X0518095Y0110433D02*
X0193095Y0110433D01*
X0174095Y0110433D01*
X0150995Y0133533D01*
X0135095Y0133533D01*
X0135095Y0144433D02*
X0155595Y0144433D01*
X0177595Y0122433D01*
X0207595Y0122433D01*
X0177595Y0135933D02*
X0155595Y0157933D01*
X0147395Y0166133D01*
X0135095Y0166133D01*
X0150095Y0166433D02*
X0150095Y0172433D01*
X0150095Y0173433D01*
X0146495Y0177033D01*
X0135095Y0177033D01*
X0147595Y0187833D02*
X0148295Y0187133D01*
X0152095Y0183333D01*
X0152095Y0169433D01*
X0152095Y0167433D01*
X0159595Y0159933D01*
X0167095Y0152433D01*
X0179595Y0139933D01*
X0201595Y0139933D01*
X0390095Y0139933D01*
X0407595Y0122433D01*
X0357595Y0122433D02*
X0342095Y0137933D01*
X0178595Y0137933D01*
X0157595Y0158933D01*
X0150095Y0166433D01*
X0155295Y0155233D02*
X0135095Y0155233D01*
X0155295Y0155233D02*
X0176595Y0133933D01*
X0246095Y0133933D01*
X0257595Y0122433D01*
X0294095Y0135933D02*
X0177595Y0135933D01*
X0174095Y0106433D02*
X0171595Y0106433D01*
X0166595Y0106433D01*
X0162595Y0102433D02*
X0158595Y0102433D01*
X0162595Y0102433D02*
X0173595Y0102433D01*
X0149595Y0100933D02*
X0135095Y0100933D01*
X0294095Y0135933D02*
X0307595Y0122433D01*
X0307595Y0172433D02*
X0297095Y0182933D01*
X0229595Y0182933D01*
X0184595Y0182933D01*
X0175595Y0191933D01*
X0175595Y0196933D01*
X0175595Y0209933D01*
X0172595Y0216433D02*
X0172595Y0191433D01*
X0183095Y0180933D01*
X0186095Y0180933D01*
X0249095Y0180933D01*
X0257595Y0172433D01*
X0207595Y0172433D02*
X0188095Y0172433D01*
X0169595Y0190933D01*
X0169595Y0191433D01*
X0169595Y0217433D01*
X0169595Y0226933D01*
X0166595Y0228933D02*
X0168595Y0230933D01*
X0199095Y0230933D01*
X0207595Y0222433D01*
X0243095Y0232933D02*
X0247095Y0232933D01*
X0257595Y0222433D01*
X0243095Y0232933D02*
X0165595Y0232933D01*
X0163095Y0230433D01*
X0163095Y0200933D01*
X0166595Y0194933D02*
X0166595Y0228933D01*
X0164095Y0234933D02*
X0159595Y0230433D01*
X0159595Y0208933D01*
X0145095Y0225933D02*
X0160095Y0240933D01*
X0162095Y0244933D02*
X0164095Y0244933D01*
X0164095Y0234933D02*
X0171595Y0234933D01*
X0169595Y0234933D01*
X0171595Y0234933D02*
X0283095Y0234933D01*
X0295095Y0234933D01*
X0307595Y0222433D01*
X0150095Y0185333D02*
X0148295Y0187133D01*
X0147595Y0187833D02*
X0135095Y0187833D01*
X0569595Y0188204D02*
X0777184Y0188204D01*
X0777127Y0188343D02*
X0777579Y0187252D01*
X0778414Y0186416D01*
X0779505Y0185965D01*
X0780686Y0185965D01*
X0781777Y0186416D01*
X0782595Y0187235D01*
X0783414Y0186416D01*
X0784505Y0185965D01*
X0785686Y0185965D01*
X0786777Y0186416D01*
X0787612Y0187252D01*
X0788064Y0188343D01*
X0788064Y0189524D01*
X0787612Y0190615D01*
X0786777Y0191450D01*
X0785686Y0191902D01*
X0784505Y0191902D01*
X0783414Y0191450D01*
X0782595Y0190631D01*
X0781777Y0191450D01*
X0780686Y0191902D01*
X0779505Y0191902D01*
X0778414Y0191450D01*
X0777579Y0190615D01*
X0777127Y0189524D01*
X0777127Y0188343D01*
X0777127Y0188990D02*
X0569595Y0188990D01*
X0569595Y0189776D02*
X0580253Y0189776D01*
X0579914Y0189916D02*
X0581005Y0189465D01*
X0582186Y0189465D01*
X0583277Y0189916D01*
X0584112Y0190752D01*
X0584564Y0191843D01*
X0584564Y0193024D01*
X0584112Y0194115D01*
X0583277Y0194950D01*
X0582186Y0195402D01*
X0581005Y0195402D01*
X0580855Y0195340D01*
X0581064Y0195843D01*
X0581064Y0197024D01*
X0580612Y0198115D01*
X0579777Y0198950D01*
X0578686Y0199402D01*
X0577505Y0199402D01*
X0576414Y0198950D01*
X0575579Y0198115D01*
X0575127Y0197024D01*
X0575127Y0195843D01*
X0575579Y0194752D01*
X0576414Y0193916D01*
X0577505Y0193465D01*
X0578686Y0193465D01*
X0578835Y0193526D01*
X0578627Y0193024D01*
X0578627Y0191843D01*
X0579079Y0190752D01*
X0579914Y0189916D01*
X0579268Y0190562D02*
X0569595Y0190562D01*
X0569595Y0191348D02*
X0578832Y0191348D01*
X0578627Y0192134D02*
X0569595Y0192134D01*
X0569595Y0192920D02*
X0578627Y0192920D01*
X0576923Y0193706D02*
X0569595Y0193706D01*
X0569595Y0194491D02*
X0575839Y0194491D01*
X0575361Y0195277D02*
X0569595Y0195277D01*
X0569595Y0196063D02*
X0575127Y0196063D01*
X0575127Y0196849D02*
X0569595Y0196849D01*
X0569595Y0197635D02*
X0575380Y0197635D01*
X0575885Y0198421D02*
X0569595Y0198421D01*
X0569595Y0199207D02*
X0577035Y0199207D01*
X0579155Y0199207D02*
X0778123Y0199207D01*
X0778147Y0199183D02*
X0777579Y0198615D01*
X0777127Y0197524D01*
X0777127Y0196343D01*
X0777579Y0195252D01*
X0778414Y0194416D01*
X0779505Y0193965D01*
X0780686Y0193965D01*
X0781777Y0194416D01*
X0782612Y0195252D01*
X0783064Y0196343D01*
X0783064Y0197524D01*
X0782612Y0198615D01*
X0782043Y0199183D01*
X0782612Y0199752D01*
X0783064Y0200843D01*
X0783064Y0202024D01*
X0782612Y0203115D01*
X0781777Y0203950D01*
X0780686Y0204402D01*
X0779505Y0204402D01*
X0778414Y0203950D01*
X0777579Y0203115D01*
X0777127Y0202024D01*
X0777127Y0200843D01*
X0777579Y0199752D01*
X0778147Y0199183D01*
X0777498Y0198421D02*
X0580305Y0198421D01*
X0580810Y0197635D02*
X0777173Y0197635D01*
X0777127Y0196849D02*
X0581064Y0196849D01*
X0581064Y0196063D02*
X0594688Y0196063D01*
X0594414Y0195950D02*
X0595505Y0196402D01*
X0596686Y0196402D01*
X0597777Y0195950D01*
X0598345Y0195381D01*
X0598914Y0195950D01*
X0600005Y0196402D01*
X0601186Y0196402D01*
X0602277Y0195950D01*
X0602845Y0195381D01*
X0603414Y0195950D01*
X0604505Y0196402D01*
X0605686Y0196402D01*
X0606777Y0195950D01*
X0607345Y0195381D01*
X0607914Y0195950D01*
X0609005Y0196402D01*
X0610186Y0196402D01*
X0611277Y0195950D01*
X0611845Y0195381D01*
X0612414Y0195950D01*
X0613505Y0196402D01*
X0614686Y0196402D01*
X0615777Y0195950D01*
X0616612Y0195115D01*
X0617064Y0194024D01*
X0617064Y0192843D01*
X0616612Y0191752D01*
X0615777Y0190916D01*
X0614686Y0190465D01*
X0613505Y0190465D01*
X0612414Y0190916D01*
X0611845Y0191485D01*
X0611277Y0190916D01*
X0610186Y0190465D01*
X0609005Y0190465D01*
X0607914Y0190916D01*
X0607345Y0191485D01*
X0606777Y0190916D01*
X0605686Y0190465D01*
X0604505Y0190465D01*
X0603414Y0190916D01*
X0602845Y0191485D01*
X0602277Y0190916D01*
X0601186Y0190465D01*
X0600005Y0190465D01*
X0598914Y0190916D01*
X0598345Y0191485D01*
X0597777Y0190916D01*
X0596686Y0190465D01*
X0595505Y0190465D01*
X0594414Y0190916D01*
X0593579Y0191752D01*
X0593127Y0192843D01*
X0593127Y0194024D01*
X0593579Y0195115D01*
X0594414Y0195950D01*
X0593741Y0195277D02*
X0582485Y0195277D01*
X0583735Y0194491D02*
X0593320Y0194491D01*
X0593127Y0193706D02*
X0584281Y0193706D01*
X0584564Y0192920D02*
X0593127Y0192920D01*
X0593420Y0192134D02*
X0584564Y0192134D01*
X0584359Y0191348D02*
X0593982Y0191348D01*
X0595270Y0190562D02*
X0583922Y0190562D01*
X0582937Y0189776D02*
X0777231Y0189776D01*
X0777557Y0190562D02*
X0742921Y0190562D01*
X0742686Y0190465D02*
X0743777Y0190916D01*
X0744612Y0191752D01*
X0745064Y0192843D01*
X0745064Y0194024D01*
X0744612Y0195115D01*
X0743777Y0195950D01*
X0742686Y0196402D01*
X0741505Y0196402D01*
X0740414Y0195950D01*
X0739845Y0195381D01*
X0739277Y0195950D01*
X0738186Y0196402D01*
X0737005Y0196402D01*
X0735914Y0195950D01*
X0735345Y0195381D01*
X0734777Y0195950D01*
X0733686Y0196402D01*
X0732505Y0196402D01*
X0731414Y0195950D01*
X0730845Y0195381D01*
X0730277Y0195950D01*
X0729186Y0196402D01*
X0728005Y0196402D01*
X0726914Y0195950D01*
X0726345Y0195381D01*
X0725777Y0195950D01*
X0724686Y0196402D01*
X0723505Y0196402D01*
X0722414Y0195950D01*
X0721579Y0195115D01*
X0721127Y0194024D01*
X0721127Y0192843D01*
X0721579Y0191752D01*
X0722414Y0190916D01*
X0723505Y0190465D01*
X0724686Y0190465D01*
X0725777Y0190916D01*
X0726345Y0191485D01*
X0726914Y0190916D01*
X0728005Y0190465D01*
X0729186Y0190465D01*
X0730277Y0190916D01*
X0730845Y0191485D01*
X0731414Y0190916D01*
X0732505Y0190465D01*
X0733686Y0190465D01*
X0734777Y0190916D01*
X0735345Y0191485D01*
X0735914Y0190916D01*
X0737005Y0190465D01*
X0738186Y0190465D01*
X0739277Y0190916D01*
X0739845Y0191485D01*
X0740414Y0190916D01*
X0741505Y0190465D01*
X0742686Y0190465D01*
X0741270Y0190562D02*
X0738421Y0190562D01*
X0739708Y0191348D02*
X0739982Y0191348D01*
X0736770Y0190562D02*
X0733921Y0190562D01*
X0735208Y0191348D02*
X0735482Y0191348D01*
X0732270Y0190562D02*
X0729421Y0190562D01*
X0730708Y0191348D02*
X0730982Y0191348D01*
X0727770Y0190562D02*
X0724921Y0190562D01*
X0726208Y0191348D02*
X0726482Y0191348D01*
X0723270Y0190562D02*
X0700921Y0190562D01*
X0700686Y0190465D02*
X0701777Y0190916D01*
X0702612Y0191752D01*
X0703064Y0192843D01*
X0703064Y0194024D01*
X0702612Y0195115D01*
X0701777Y0195950D01*
X0700686Y0196402D01*
X0699505Y0196402D01*
X0698414Y0195950D01*
X0697579Y0195115D01*
X0697127Y0194024D01*
X0697127Y0192843D01*
X0697579Y0191752D01*
X0698414Y0190916D01*
X0699505Y0190465D01*
X0700686Y0190465D01*
X0699270Y0190562D02*
X0678921Y0190562D01*
X0678686Y0190465D02*
X0679777Y0190916D01*
X0680612Y0191752D01*
X0681064Y0192843D01*
X0681064Y0194024D01*
X0680612Y0195115D01*
X0679777Y0195950D01*
X0678686Y0196402D01*
X0677505Y0196402D01*
X0676414Y0195950D01*
X0675845Y0195381D01*
X0675277Y0195950D01*
X0674186Y0196402D01*
X0673005Y0196402D01*
X0671914Y0195950D01*
X0671345Y0195381D01*
X0670777Y0195950D01*
X0669686Y0196402D01*
X0668505Y0196402D01*
X0667414Y0195950D01*
X0666845Y0195381D01*
X0666277Y0195950D01*
X0665186Y0196402D01*
X0664005Y0196402D01*
X0662914Y0195950D01*
X0662345Y0195381D01*
X0661777Y0195950D01*
X0660686Y0196402D01*
X0659505Y0196402D01*
X0658414Y0195950D01*
X0657579Y0195115D01*
X0657127Y0194024D01*
X0657127Y0192843D01*
X0657579Y0191752D01*
X0658414Y0190916D01*
X0659505Y0190465D01*
X0660686Y0190465D01*
X0661777Y0190916D01*
X0662345Y0191485D01*
X0662914Y0190916D01*
X0664005Y0190465D01*
X0665186Y0190465D01*
X0666277Y0190916D01*
X0666845Y0191485D01*
X0667414Y0190916D01*
X0668505Y0190465D01*
X0669686Y0190465D01*
X0670777Y0190916D01*
X0671345Y0191485D01*
X0671914Y0190916D01*
X0673005Y0190465D01*
X0674186Y0190465D01*
X0675277Y0190916D01*
X0675845Y0191485D01*
X0676414Y0190916D01*
X0677505Y0190465D01*
X0678686Y0190465D01*
X0677270Y0190562D02*
X0674421Y0190562D01*
X0675708Y0191348D02*
X0675982Y0191348D01*
X0672770Y0190562D02*
X0669921Y0190562D01*
X0671208Y0191348D02*
X0671482Y0191348D01*
X0668270Y0190562D02*
X0665421Y0190562D01*
X0666708Y0191348D02*
X0666982Y0191348D01*
X0663770Y0190562D02*
X0660921Y0190562D01*
X0662208Y0191348D02*
X0662482Y0191348D01*
X0659270Y0190562D02*
X0614921Y0190562D01*
X0616208Y0191348D02*
X0657982Y0191348D01*
X0657420Y0192134D02*
X0616770Y0192134D01*
X0617064Y0192920D02*
X0657127Y0192920D01*
X0657127Y0193706D02*
X0617064Y0193706D01*
X0616870Y0194491D02*
X0657320Y0194491D01*
X0657741Y0195277D02*
X0616449Y0195277D01*
X0615502Y0196063D02*
X0658688Y0196063D01*
X0661502Y0196063D02*
X0663188Y0196063D01*
X0666002Y0196063D02*
X0667688Y0196063D01*
X0670502Y0196063D02*
X0672188Y0196063D01*
X0675002Y0196063D02*
X0676688Y0196063D01*
X0679502Y0196063D02*
X0698688Y0196063D01*
X0697741Y0195277D02*
X0680449Y0195277D01*
X0680870Y0194491D02*
X0697320Y0194491D01*
X0697127Y0193706D02*
X0681064Y0193706D01*
X0681064Y0192920D02*
X0697127Y0192920D01*
X0697420Y0192134D02*
X0680770Y0192134D01*
X0680208Y0191348D02*
X0697982Y0191348D01*
X0702208Y0191348D02*
X0721982Y0191348D01*
X0721420Y0192134D02*
X0702770Y0192134D01*
X0703064Y0192920D02*
X0721127Y0192920D01*
X0721127Y0193706D02*
X0703064Y0193706D01*
X0702870Y0194491D02*
X0721320Y0194491D01*
X0721741Y0195277D02*
X0702449Y0195277D01*
X0701502Y0196063D02*
X0722688Y0196063D01*
X0725502Y0196063D02*
X0727188Y0196063D01*
X0730002Y0196063D02*
X0731688Y0196063D01*
X0734502Y0196063D02*
X0736188Y0196063D01*
X0739002Y0196063D02*
X0740688Y0196063D01*
X0743502Y0196063D02*
X0777242Y0196063D01*
X0777568Y0195277D02*
X0744449Y0195277D01*
X0744870Y0194491D02*
X0778339Y0194491D01*
X0778312Y0191348D02*
X0744208Y0191348D01*
X0744770Y0192134D02*
X0794414Y0192134D01*
X0794414Y0192665D02*
X0794414Y0191001D01*
X0795051Y0189465D01*
X0796227Y0188288D01*
X0797763Y0187652D01*
X0799427Y0187652D01*
X0800964Y0188288D01*
X0802140Y0189465D01*
X0802776Y0191001D01*
X0802776Y0192665D01*
X0802140Y0194201D01*
X0800964Y0195378D01*
X0799427Y0196014D01*
X0797763Y0196014D01*
X0796227Y0195378D01*
X0795051Y0194201D01*
X0794414Y0192665D01*
X0794520Y0192920D02*
X0745064Y0192920D01*
X0745064Y0193706D02*
X0794845Y0193706D01*
X0795341Y0194491D02*
X0781852Y0194491D01*
X0782622Y0195277D02*
X0796126Y0195277D01*
X0797763Y0198452D02*
X0799427Y0198452D01*
X0800964Y0199088D01*
X0802140Y0200265D01*
X0802776Y0201801D01*
X0802776Y0203465D01*
X0802140Y0205001D01*
X0800964Y0206178D01*
X0799427Y0206814D01*
X0797763Y0206814D01*
X0796227Y0206178D01*
X0795051Y0205001D01*
X0794414Y0203465D01*
X0794414Y0201801D01*
X0795051Y0200265D01*
X0796227Y0199088D01*
X0797763Y0198452D01*
X0796108Y0199207D02*
X0782067Y0199207D01*
X0782692Y0198421D02*
X0804562Y0198421D01*
X0804414Y0198065D02*
X0804414Y0196401D01*
X0805051Y0194865D01*
X0806227Y0193688D01*
X0807763Y0193052D01*
X0809427Y0193052D01*
X0810964Y0193688D01*
X0812140Y0194865D01*
X0812776Y0196401D01*
X0812776Y0198065D01*
X0812140Y0199601D01*
X0810964Y0200778D01*
X0809427Y0201414D01*
X0807763Y0201414D01*
X0806227Y0200778D01*
X0805051Y0199601D01*
X0804414Y0198065D01*
X0804414Y0197635D02*
X0783017Y0197635D01*
X0783064Y0196849D02*
X0804414Y0196849D01*
X0804554Y0196063D02*
X0782948Y0196063D01*
X0782712Y0199993D02*
X0795322Y0199993D01*
X0794838Y0200779D02*
X0783037Y0200779D01*
X0783064Y0201565D02*
X0794512Y0201565D01*
X0794414Y0202351D02*
X0782928Y0202351D01*
X0782590Y0203137D02*
X0794414Y0203137D01*
X0794604Y0203922D02*
X0781804Y0203922D01*
X0778386Y0203922D02*
X0739064Y0203922D01*
X0739064Y0203343D02*
X0738612Y0202252D01*
X0737777Y0201416D01*
X0736686Y0200965D01*
X0735505Y0200965D01*
X0734414Y0201416D01*
X0733579Y0202252D01*
X0733127Y0203343D01*
X0733127Y0204524D01*
X0733579Y0205615D01*
X0734414Y0206450D01*
X0735505Y0206902D01*
X0736686Y0206902D01*
X0737777Y0206450D01*
X0738612Y0205615D01*
X0739064Y0204524D01*
X0739064Y0203343D01*
X0738978Y0203137D02*
X0777600Y0203137D01*
X0777262Y0202351D02*
X0738653Y0202351D01*
X0737925Y0201565D02*
X0777127Y0201565D01*
X0777153Y0200779D02*
X0569595Y0200779D01*
X0569595Y0201565D02*
X0606265Y0201565D01*
X0606414Y0201416D02*
X0607505Y0200965D01*
X0608686Y0200965D01*
X0609777Y0201416D01*
X0610612Y0202252D01*
X0611064Y0203343D01*
X0611064Y0204524D01*
X0610612Y0205615D01*
X0609777Y0206450D01*
X0608686Y0206902D01*
X0607505Y0206902D01*
X0606414Y0206450D01*
X0605579Y0205615D01*
X0605127Y0204524D01*
X0605127Y0203343D01*
X0605579Y0202252D01*
X0606414Y0201416D01*
X0605538Y0202351D02*
X0598118Y0202351D01*
X0598277Y0202416D02*
X0599112Y0203252D01*
X0599564Y0204343D01*
X0599564Y0205524D01*
X0599112Y0206615D01*
X0598543Y0207183D01*
X0599112Y0207752D01*
X0599449Y0208565D01*
X0599579Y0208252D01*
X0600414Y0207416D01*
X0601505Y0206965D01*
X0602686Y0206965D01*
X0603777Y0207416D01*
X0604612Y0208252D01*
X0605064Y0209343D01*
X0605064Y0210524D01*
X0604612Y0211615D01*
X0603777Y0212450D01*
X0602686Y0212902D01*
X0601505Y0212902D01*
X0600414Y0212450D01*
X0599579Y0211615D01*
X0599242Y0210801D01*
X0599112Y0211115D01*
X0598277Y0211950D01*
X0597186Y0212402D01*
X0596005Y0212402D01*
X0594914Y0211950D01*
X0594079Y0211115D01*
X0593627Y0210024D01*
X0593627Y0208843D01*
X0594079Y0207752D01*
X0594647Y0207183D01*
X0594079Y0206615D01*
X0593627Y0205524D01*
X0593627Y0204343D01*
X0594079Y0203252D01*
X0594914Y0202416D01*
X0596005Y0201965D01*
X0597186Y0201965D01*
X0598277Y0202416D01*
X0598997Y0203137D02*
X0605212Y0203137D01*
X0605127Y0203922D02*
X0599390Y0203922D01*
X0599564Y0204708D02*
X0605203Y0204708D01*
X0605529Y0205494D02*
X0599564Y0205494D01*
X0599250Y0206280D02*
X0606244Y0206280D01*
X0604212Y0207852D02*
X0658037Y0207852D01*
X0658079Y0207752D02*
X0658897Y0206933D01*
X0658079Y0206115D01*
X0657627Y0205024D01*
X0657627Y0203843D01*
X0658079Y0202752D01*
X0658914Y0201916D01*
X0660005Y0201465D01*
X0661186Y0201465D01*
X0662277Y0201916D01*
X0663112Y0202752D01*
X0663564Y0203843D01*
X0663564Y0205024D01*
X0663112Y0206115D01*
X0662293Y0206933D01*
X0663112Y0207752D01*
X0663449Y0208565D01*
X0663579Y0208252D01*
X0664414Y0207416D01*
X0665505Y0206965D01*
X0666686Y0206965D01*
X0667777Y0207416D01*
X0668612Y0208252D01*
X0669064Y0209343D01*
X0669064Y0210524D01*
X0668612Y0211615D01*
X0667777Y0212450D01*
X0666686Y0212902D01*
X0665505Y0212902D01*
X0664414Y0212450D01*
X0663579Y0211615D01*
X0663242Y0210801D01*
X0663112Y0211115D01*
X0662277Y0211950D01*
X0661186Y0212402D01*
X0660005Y0212402D01*
X0658914Y0211950D01*
X0658079Y0211115D01*
X0657627Y0210024D01*
X0657627Y0208843D01*
X0658079Y0207752D01*
X0657711Y0208638D02*
X0604772Y0208638D01*
X0605064Y0209424D02*
X0657627Y0209424D01*
X0657704Y0210210D02*
X0605064Y0210210D01*
X0604868Y0210996D02*
X0658029Y0210996D01*
X0658746Y0211782D02*
X0604445Y0211782D01*
X0603492Y0212567D02*
X0664698Y0212567D01*
X0663746Y0211782D02*
X0662445Y0211782D01*
X0663161Y0210996D02*
X0663322Y0210996D01*
X0663153Y0207852D02*
X0663978Y0207852D01*
X0665260Y0207066D02*
X0662426Y0207066D01*
X0662946Y0206280D02*
X0670244Y0206280D01*
X0670414Y0206450D02*
X0669579Y0205615D01*
X0669127Y0204524D01*
X0669127Y0203343D01*
X0669579Y0202252D01*
X0670414Y0201416D01*
X0671505Y0200965D01*
X0672686Y0200965D01*
X0673777Y0201416D01*
X0674612Y0202252D01*
X0675064Y0203343D01*
X0675064Y0204524D01*
X0674612Y0205615D01*
X0673777Y0206450D01*
X0672686Y0206902D01*
X0671505Y0206902D01*
X0670414Y0206450D01*
X0669529Y0205494D02*
X0663369Y0205494D01*
X0663564Y0204708D02*
X0669203Y0204708D01*
X0669127Y0203922D02*
X0663564Y0203922D01*
X0663271Y0203137D02*
X0669212Y0203137D01*
X0669538Y0202351D02*
X0662711Y0202351D01*
X0661427Y0201565D02*
X0670265Y0201565D01*
X0673925Y0201565D02*
X0723763Y0201565D01*
X0724005Y0201465D02*
X0725186Y0201465D01*
X0726277Y0201916D01*
X0727112Y0202752D01*
X0727564Y0203843D01*
X0727564Y0205024D01*
X0727112Y0206115D01*
X0726293Y0206933D01*
X0727112Y0207752D01*
X0727449Y0208565D01*
X0727579Y0208252D01*
X0728414Y0207416D01*
X0729505Y0206965D01*
X0730686Y0206965D01*
X0731777Y0207416D01*
X0732612Y0208252D01*
X0733064Y0209343D01*
X0733064Y0210524D01*
X0732612Y0211615D01*
X0731777Y0212450D01*
X0730686Y0212902D01*
X0729505Y0212902D01*
X0728414Y0212450D01*
X0727579Y0211615D01*
X0727242Y0210801D01*
X0727112Y0211115D01*
X0726277Y0211950D01*
X0725186Y0212402D01*
X0724005Y0212402D01*
X0722914Y0211950D01*
X0722079Y0211115D01*
X0721627Y0210024D01*
X0721627Y0208843D01*
X0722079Y0207752D01*
X0722897Y0206933D01*
X0722079Y0206115D01*
X0721627Y0205024D01*
X0721627Y0203843D01*
X0722079Y0202752D01*
X0722914Y0201916D01*
X0724005Y0201465D01*
X0725427Y0201565D02*
X0734265Y0201565D01*
X0733538Y0202351D02*
X0726711Y0202351D01*
X0727271Y0203137D02*
X0733212Y0203137D01*
X0733127Y0203922D02*
X0727564Y0203922D01*
X0727564Y0204708D02*
X0733203Y0204708D01*
X0733529Y0205494D02*
X0727369Y0205494D01*
X0726946Y0206280D02*
X0734244Y0206280D01*
X0732212Y0207852D02*
X0772627Y0207852D01*
X0772627Y0208024D02*
X0772627Y0206843D01*
X0773079Y0205752D01*
X0773914Y0204916D01*
X0775005Y0204465D01*
X0776186Y0204465D01*
X0777277Y0204916D01*
X0778112Y0205752D01*
X0778564Y0206843D01*
X0778564Y0208024D01*
X0778112Y0209115D01*
X0777277Y0209950D01*
X0777241Y0209965D01*
X0777686Y0209965D01*
X0778777Y0210416D01*
X0779612Y0211252D01*
X0780064Y0212343D01*
X0780064Y0213524D01*
X0779612Y0214615D01*
X0778777Y0215450D01*
X0777686Y0215902D01*
X0776505Y0215902D01*
X0775414Y0215450D01*
X0774579Y0214615D01*
X0774127Y0213524D01*
X0774127Y0212343D01*
X0774579Y0211252D01*
X0775414Y0210416D01*
X0775450Y0210402D01*
X0775005Y0210402D01*
X0773914Y0209950D01*
X0773079Y0209115D01*
X0772627Y0208024D01*
X0772881Y0208638D02*
X0732772Y0208638D01*
X0733064Y0209424D02*
X0773388Y0209424D01*
X0774542Y0210210D02*
X0733064Y0210210D01*
X0732868Y0210996D02*
X0774834Y0210996D01*
X0774359Y0211782D02*
X0732445Y0211782D01*
X0731492Y0212567D02*
X0774127Y0212567D01*
X0774127Y0213353D02*
X0569595Y0213353D01*
X0569595Y0212567D02*
X0600698Y0212567D01*
X0599746Y0211782D02*
X0598445Y0211782D01*
X0599161Y0210996D02*
X0599322Y0210996D01*
X0599153Y0207852D02*
X0599978Y0207852D01*
X0601260Y0207066D02*
X0598660Y0207066D01*
X0594530Y0207066D02*
X0578546Y0207066D01*
X0578564Y0207024D02*
X0578112Y0208115D01*
X0577277Y0208950D01*
X0576186Y0209402D01*
X0575005Y0209402D01*
X0573914Y0208950D01*
X0573079Y0208115D01*
X0572627Y0207024D01*
X0572627Y0205843D01*
X0573079Y0204752D01*
X0573914Y0203916D01*
X0575005Y0203465D01*
X0576186Y0203465D01*
X0577277Y0203916D01*
X0578112Y0204752D01*
X0578564Y0205843D01*
X0578564Y0207024D01*
X0578564Y0206280D02*
X0593940Y0206280D01*
X0593627Y0205494D02*
X0578419Y0205494D01*
X0578068Y0204708D02*
X0593627Y0204708D01*
X0593801Y0203922D02*
X0577283Y0203922D01*
X0573908Y0203922D02*
X0569595Y0203922D01*
X0569595Y0203137D02*
X0594194Y0203137D01*
X0595073Y0202351D02*
X0569595Y0202351D01*
X0569595Y0204708D02*
X0573122Y0204708D01*
X0572771Y0205494D02*
X0569595Y0205494D01*
X0569595Y0206280D02*
X0572627Y0206280D01*
X0572644Y0207066D02*
X0569595Y0207066D01*
X0569595Y0207852D02*
X0572970Y0207852D01*
X0573602Y0208638D02*
X0569595Y0208638D01*
X0569595Y0209424D02*
X0593627Y0209424D01*
X0593704Y0210210D02*
X0569595Y0210210D01*
X0569595Y0210996D02*
X0594029Y0210996D01*
X0594746Y0211782D02*
X0569595Y0211782D01*
X0569595Y0214139D02*
X0774382Y0214139D01*
X0774889Y0214925D02*
X0569595Y0214925D01*
X0569595Y0215711D02*
X0776045Y0215711D01*
X0778145Y0215711D02*
X0794972Y0215711D01*
X0795051Y0215901D02*
X0794414Y0214365D01*
X0794414Y0212701D01*
X0795051Y0211165D01*
X0796227Y0209988D01*
X0797763Y0209352D01*
X0799427Y0209352D01*
X0800964Y0209988D01*
X0802140Y0211165D01*
X0802776Y0212701D01*
X0802776Y0214365D01*
X0802140Y0215901D01*
X0800964Y0217078D01*
X0799427Y0217714D01*
X0797763Y0217714D01*
X0796227Y0217078D01*
X0795051Y0215901D01*
X0795646Y0216497D02*
X0569595Y0216497D01*
X0569595Y0217283D02*
X0796722Y0217283D01*
X0794646Y0214925D02*
X0779301Y0214925D01*
X0779809Y0214139D02*
X0794414Y0214139D01*
X0794414Y0213353D02*
X0780064Y0213353D01*
X0780064Y0212567D02*
X0794470Y0212567D01*
X0794795Y0211782D02*
X0779831Y0211782D01*
X0779356Y0210996D02*
X0795220Y0210996D01*
X0796006Y0210210D02*
X0778277Y0210210D01*
X0777802Y0209424D02*
X0797590Y0209424D01*
X0799600Y0209424D02*
X0804604Y0209424D01*
X0804414Y0208965D02*
X0804414Y0207301D01*
X0805051Y0205765D01*
X0806227Y0204588D01*
X0807763Y0203952D01*
X0809427Y0203952D01*
X0810964Y0204588D01*
X0812140Y0205765D01*
X0812776Y0207301D01*
X0812776Y0208965D01*
X0812140Y0210501D01*
X0810964Y0211678D01*
X0809427Y0212314D01*
X0807763Y0212314D01*
X0806227Y0211678D01*
X0805051Y0210501D01*
X0804414Y0208965D01*
X0804414Y0208638D02*
X0778309Y0208638D01*
X0778564Y0207852D02*
X0804414Y0207852D01*
X0804512Y0207066D02*
X0778564Y0207066D01*
X0778331Y0206280D02*
X0796474Y0206280D01*
X0795543Y0205494D02*
X0777854Y0205494D01*
X0776774Y0204708D02*
X0794929Y0204708D01*
X0800716Y0206280D02*
X0804837Y0206280D01*
X0805321Y0205494D02*
X0801647Y0205494D01*
X0802261Y0204708D02*
X0806107Y0204708D01*
X0802587Y0203922D02*
X0848201Y0203922D01*
X0848201Y0203137D02*
X0802776Y0203137D01*
X0802776Y0202351D02*
X0848201Y0202351D01*
X0848201Y0201565D02*
X0802678Y0201565D01*
X0802353Y0200779D02*
X0806229Y0200779D01*
X0805442Y0199993D02*
X0801868Y0199993D01*
X0801082Y0199207D02*
X0804887Y0199207D01*
X0804880Y0195277D02*
X0801064Y0195277D01*
X0801850Y0194491D02*
X0805424Y0194491D01*
X0806210Y0193706D02*
X0802345Y0193706D01*
X0802671Y0192920D02*
X0848201Y0192920D01*
X0848201Y0193706D02*
X0810981Y0193706D01*
X0811766Y0194491D02*
X0848201Y0194491D01*
X0848201Y0195277D02*
X0812311Y0195277D01*
X0812636Y0196063D02*
X0848201Y0196063D01*
X0848201Y0196849D02*
X0812776Y0196849D01*
X0812776Y0197635D02*
X0848201Y0197635D01*
X0848201Y0198421D02*
X0812629Y0198421D01*
X0812303Y0199207D02*
X0848201Y0199207D01*
X0848201Y0199993D02*
X0811748Y0199993D01*
X0810961Y0200779D02*
X0848201Y0200779D01*
X0848201Y0204708D02*
X0811083Y0204708D01*
X0811869Y0205494D02*
X0848201Y0205494D01*
X0848201Y0206280D02*
X0812353Y0206280D01*
X0812679Y0207066D02*
X0848201Y0207066D01*
X0848201Y0207852D02*
X0812776Y0207852D01*
X0812776Y0208638D02*
X0848201Y0208638D01*
X0848201Y0209424D02*
X0812586Y0209424D01*
X0812261Y0210210D02*
X0848201Y0210210D01*
X0848201Y0210996D02*
X0811646Y0210996D01*
X0810713Y0211782D02*
X0848201Y0211782D01*
X0848201Y0212567D02*
X0802721Y0212567D01*
X0802776Y0213353D02*
X0848201Y0213353D01*
X0848201Y0214139D02*
X0802776Y0214139D01*
X0802544Y0214925D02*
X0807345Y0214925D01*
X0805904Y0215711D02*
X0802219Y0215711D01*
X0801544Y0216497D02*
X0805118Y0216497D01*
X0804753Y0217283D02*
X0800468Y0217283D01*
X0801288Y0221212D02*
X0805014Y0221212D01*
X0805748Y0221998D02*
X0802073Y0221998D01*
X0802438Y0222784D02*
X0806967Y0222784D01*
X0807097Y0225928D02*
X0802502Y0225928D01*
X0802776Y0225142D02*
X0848201Y0225142D01*
X0848201Y0224356D02*
X0802776Y0224356D01*
X0802763Y0223570D02*
X0848201Y0223570D01*
X0848201Y0222784D02*
X0810223Y0222784D01*
X0811443Y0221998D02*
X0848201Y0221998D01*
X0848201Y0221212D02*
X0812177Y0221212D01*
X0812502Y0220427D02*
X0848201Y0220427D01*
X0848201Y0219641D02*
X0812776Y0219641D01*
X0812776Y0218855D02*
X0848201Y0218855D01*
X0848201Y0218069D02*
X0812763Y0218069D01*
X0812437Y0217283D02*
X0848201Y0217283D01*
X0848201Y0216497D02*
X0812072Y0216497D01*
X0811286Y0215711D02*
X0848201Y0215711D01*
X0848201Y0214925D02*
X0809845Y0214925D01*
X0806478Y0211782D02*
X0802395Y0211782D01*
X0801971Y0210996D02*
X0805545Y0210996D01*
X0804930Y0210210D02*
X0801185Y0210210D01*
X0777479Y0199993D02*
X0569595Y0199993D01*
X0578220Y0207852D02*
X0594037Y0207852D01*
X0593711Y0208638D02*
X0577588Y0208638D01*
X0602931Y0207066D02*
X0658764Y0207066D01*
X0658244Y0206280D02*
X0609946Y0206280D01*
X0610662Y0205494D02*
X0657822Y0205494D01*
X0657627Y0204708D02*
X0610987Y0204708D01*
X0611064Y0203922D02*
X0657627Y0203922D01*
X0657919Y0203137D02*
X0610978Y0203137D01*
X0610653Y0202351D02*
X0658480Y0202351D01*
X0659763Y0201565D02*
X0609925Y0201565D01*
X0611002Y0196063D02*
X0612688Y0196063D01*
X0608188Y0196063D02*
X0606502Y0196063D01*
X0603688Y0196063D02*
X0602002Y0196063D01*
X0599188Y0196063D02*
X0597502Y0196063D01*
X0598208Y0191348D02*
X0598482Y0191348D01*
X0599770Y0190562D02*
X0596921Y0190562D01*
X0601421Y0190562D02*
X0604270Y0190562D01*
X0602982Y0191348D02*
X0602708Y0191348D01*
X0605921Y0190562D02*
X0608770Y0190562D01*
X0607482Y0191348D02*
X0607208Y0191348D01*
X0610421Y0190562D02*
X0613270Y0190562D01*
X0611982Y0191348D02*
X0611708Y0191348D01*
X0599112Y0183615D02*
X0598277Y0184450D01*
X0597186Y0184902D01*
X0596005Y0184902D01*
X0594914Y0184450D01*
X0594079Y0183615D01*
X0593627Y0182524D01*
X0593627Y0181343D01*
X0594079Y0180252D01*
X0594897Y0179433D01*
X0594079Y0178615D01*
X0593627Y0177524D01*
X0593627Y0176343D01*
X0594079Y0175252D01*
X0594914Y0174416D01*
X0596005Y0173965D01*
X0597186Y0173965D01*
X0598277Y0174416D01*
X0599112Y0175252D01*
X0599564Y0176343D01*
X0599564Y0177524D01*
X0599112Y0178615D01*
X0598293Y0179433D01*
X0599112Y0180252D01*
X0599564Y0181343D01*
X0599564Y0182524D01*
X0599112Y0183615D01*
X0599164Y0183489D02*
X0657819Y0183489D01*
X0657627Y0183024D02*
X0658079Y0184115D01*
X0658914Y0184950D01*
X0660005Y0185402D01*
X0661186Y0185402D01*
X0662277Y0184950D01*
X0663112Y0184115D01*
X0663564Y0183024D01*
X0663564Y0181843D01*
X0663112Y0180752D01*
X0662293Y0179933D01*
X0663112Y0179115D01*
X0663564Y0178024D01*
X0663564Y0176843D01*
X0663112Y0175752D01*
X0662277Y0174916D01*
X0661186Y0174465D01*
X0660005Y0174465D01*
X0658914Y0174916D01*
X0658079Y0175752D01*
X0657627Y0176843D01*
X0657627Y0178024D01*
X0658079Y0179115D01*
X0658897Y0179933D01*
X0658079Y0180752D01*
X0657627Y0181843D01*
X0657627Y0183024D01*
X0657627Y0182703D02*
X0599489Y0182703D01*
X0599564Y0181917D02*
X0657627Y0181917D01*
X0657921Y0181131D02*
X0599476Y0181131D01*
X0599150Y0180345D02*
X0658485Y0180345D01*
X0658523Y0179559D02*
X0598419Y0179559D01*
X0598953Y0178773D02*
X0657937Y0178773D01*
X0657627Y0177987D02*
X0599372Y0177987D01*
X0599564Y0177201D02*
X0657627Y0177201D01*
X0657804Y0176415D02*
X0599564Y0176415D01*
X0599268Y0175630D02*
X0658201Y0175630D01*
X0659089Y0174844D02*
X0598704Y0174844D01*
X0597411Y0174058D02*
X0797386Y0174058D01*
X0797763Y0174214D02*
X0796227Y0173578D01*
X0795051Y0172401D01*
X0794414Y0170865D01*
X0794414Y0169201D01*
X0795051Y0167665D01*
X0796227Y0166488D01*
X0797763Y0165852D01*
X0799427Y0165852D01*
X0800964Y0166488D01*
X0802140Y0167665D01*
X0802776Y0169201D01*
X0802776Y0170865D01*
X0802140Y0172401D01*
X0800964Y0173578D01*
X0799427Y0174214D01*
X0797763Y0174214D01*
X0799804Y0174058D02*
X0804681Y0174058D01*
X0804414Y0174701D02*
X0805051Y0173165D01*
X0806227Y0171988D01*
X0807763Y0171352D01*
X0809427Y0171352D01*
X0810964Y0171988D01*
X0812140Y0173165D01*
X0812776Y0174701D01*
X0812776Y0176365D01*
X0812140Y0177901D01*
X0810964Y0179078D01*
X0809427Y0179714D01*
X0807763Y0179714D01*
X0806227Y0179078D01*
X0805051Y0177901D01*
X0804414Y0176365D01*
X0804414Y0174701D01*
X0804414Y0174844D02*
X0726101Y0174844D01*
X0726277Y0174916D02*
X0727112Y0175752D01*
X0727564Y0176843D01*
X0727564Y0178024D01*
X0727112Y0179115D01*
X0726293Y0179933D01*
X0727112Y0180752D01*
X0727564Y0181843D01*
X0727564Y0183024D01*
X0727112Y0184115D01*
X0726277Y0184950D01*
X0725186Y0185402D01*
X0724005Y0185402D01*
X0722914Y0184950D01*
X0722079Y0184115D01*
X0721627Y0183024D01*
X0721627Y0181843D01*
X0722079Y0180752D01*
X0722897Y0179933D01*
X0722079Y0179115D01*
X0721627Y0178024D01*
X0721627Y0176843D01*
X0722079Y0175752D01*
X0722914Y0174916D01*
X0724005Y0174465D01*
X0725186Y0174465D01*
X0726277Y0174916D01*
X0726990Y0175630D02*
X0804414Y0175630D01*
X0804435Y0176415D02*
X0727387Y0176415D01*
X0727564Y0177201D02*
X0796678Y0177201D01*
X0796227Y0177388D02*
X0797763Y0176752D01*
X0799427Y0176752D01*
X0800964Y0177388D01*
X0802140Y0178565D01*
X0802776Y0180101D01*
X0802776Y0181765D01*
X0802140Y0183301D01*
X0800964Y0184478D01*
X0799427Y0185114D01*
X0797763Y0185114D01*
X0796227Y0184478D01*
X0795051Y0183301D01*
X0794414Y0181765D01*
X0794414Y0180101D01*
X0795051Y0178565D01*
X0796227Y0177388D01*
X0795628Y0177987D02*
X0727564Y0177987D01*
X0727253Y0178773D02*
X0794964Y0178773D01*
X0794639Y0179559D02*
X0726667Y0179559D01*
X0726705Y0180345D02*
X0794414Y0180345D01*
X0794414Y0181131D02*
X0727269Y0181131D01*
X0727564Y0181917D02*
X0794477Y0181917D01*
X0794803Y0182703D02*
X0727564Y0182703D01*
X0727371Y0183489D02*
X0795238Y0183489D01*
X0796024Y0184275D02*
X0726952Y0184275D01*
X0726009Y0185061D02*
X0797634Y0185061D01*
X0799556Y0185061D02*
X0804597Y0185061D01*
X0804414Y0185501D02*
X0805051Y0183965D01*
X0806227Y0182788D01*
X0807763Y0182152D01*
X0809427Y0182152D01*
X0810964Y0182788D01*
X0812140Y0183965D01*
X0812776Y0185501D01*
X0812776Y0187165D01*
X0812140Y0188701D01*
X0810964Y0189878D01*
X0809427Y0190514D01*
X0807763Y0190514D01*
X0806227Y0189878D01*
X0805051Y0188701D01*
X0804414Y0187165D01*
X0804414Y0185501D01*
X0804414Y0185846D02*
X0569595Y0185846D01*
X0569595Y0185061D02*
X0659181Y0185061D01*
X0658239Y0184275D02*
X0598452Y0184275D01*
X0594739Y0184275D02*
X0569595Y0184275D01*
X0569595Y0183489D02*
X0594026Y0183489D01*
X0593701Y0182703D02*
X0569595Y0182703D01*
X0569595Y0181917D02*
X0593627Y0181917D01*
X0593714Y0181131D02*
X0569595Y0181131D01*
X0569595Y0180345D02*
X0594040Y0180345D01*
X0594771Y0179559D02*
X0569595Y0179559D01*
X0569595Y0178773D02*
X0594237Y0178773D01*
X0593819Y0177987D02*
X0569595Y0177987D01*
X0569595Y0177201D02*
X0593627Y0177201D01*
X0593627Y0176415D02*
X0569595Y0176415D01*
X0569595Y0175630D02*
X0593922Y0175630D01*
X0594486Y0174844D02*
X0569595Y0174844D01*
X0569595Y0174058D02*
X0595780Y0174058D01*
X0595505Y0169402D02*
X0594414Y0168950D01*
X0593579Y0168115D01*
X0593127Y0167024D01*
X0593127Y0165843D01*
X0593579Y0164752D01*
X0594414Y0163916D01*
X0595505Y0163465D01*
X0596686Y0163465D01*
X0597777Y0163916D01*
X0598345Y0164485D01*
X0598914Y0163916D01*
X0600005Y0163465D01*
X0601186Y0163465D01*
X0602277Y0163916D01*
X0602845Y0164485D01*
X0603414Y0163916D01*
X0604505Y0163465D01*
X0605686Y0163465D01*
X0606777Y0163916D01*
X0607345Y0164485D01*
X0607914Y0163916D01*
X0609005Y0163465D01*
X0610186Y0163465D01*
X0611277Y0163916D01*
X0611845Y0164485D01*
X0612414Y0163916D01*
X0613505Y0163465D01*
X0614686Y0163465D01*
X0615777Y0163916D01*
X0616612Y0164752D01*
X0617064Y0165843D01*
X0617064Y0167024D01*
X0616612Y0168115D01*
X0615777Y0168950D01*
X0614686Y0169402D01*
X0613505Y0169402D01*
X0612414Y0168950D01*
X0611845Y0168381D01*
X0611277Y0168950D01*
X0610186Y0169402D01*
X0609005Y0169402D01*
X0607914Y0168950D01*
X0607345Y0168381D01*
X0606777Y0168950D01*
X0605686Y0169402D01*
X0604505Y0169402D01*
X0603414Y0168950D01*
X0602845Y0168381D01*
X0602277Y0168950D01*
X0601186Y0169402D01*
X0600005Y0169402D01*
X0598914Y0168950D01*
X0598345Y0168381D01*
X0597777Y0168950D01*
X0596686Y0169402D01*
X0595505Y0169402D01*
X0595361Y0169342D02*
X0569595Y0169342D01*
X0569595Y0168556D02*
X0594020Y0168556D01*
X0593436Y0167770D02*
X0569595Y0167770D01*
X0569595Y0166985D02*
X0593127Y0166985D01*
X0593127Y0166199D02*
X0569595Y0166199D01*
X0569595Y0165413D02*
X0593305Y0165413D01*
X0593703Y0164627D02*
X0569595Y0164627D01*
X0569595Y0163841D02*
X0594596Y0163841D01*
X0597594Y0163841D02*
X0599096Y0163841D01*
X0602094Y0163841D02*
X0603596Y0163841D01*
X0606594Y0163841D02*
X0608096Y0163841D01*
X0611094Y0163841D02*
X0612596Y0163841D01*
X0615594Y0163841D02*
X0632465Y0163841D01*
X0632579Y0164115D02*
X0632127Y0163024D01*
X0632127Y0161843D01*
X0632579Y0160752D01*
X0633414Y0159916D01*
X0634505Y0159465D01*
X0635686Y0159465D01*
X0636777Y0159916D01*
X0637612Y0160752D01*
X0638064Y0161843D01*
X0638064Y0163024D01*
X0637612Y0164115D01*
X0636777Y0164950D01*
X0635686Y0165402D01*
X0634505Y0165402D01*
X0633414Y0164950D01*
X0632579Y0164115D01*
X0633091Y0164627D02*
X0616487Y0164627D01*
X0616886Y0165413D02*
X0657305Y0165413D01*
X0657127Y0165843D02*
X0657579Y0164752D01*
X0658414Y0163916D01*
X0659505Y0163465D01*
X0660686Y0163465D01*
X0661777Y0163916D01*
X0662345Y0164485D01*
X0662914Y0163916D01*
X0664005Y0163465D01*
X0665186Y0163465D01*
X0666277Y0163916D01*
X0666845Y0164485D01*
X0667414Y0163916D01*
X0668505Y0163465D01*
X0669686Y0163465D01*
X0670777Y0163916D01*
X0671345Y0164485D01*
X0671914Y0163916D01*
X0673005Y0163465D01*
X0674186Y0163465D01*
X0675277Y0163916D01*
X0675845Y0164485D01*
X0676414Y0163916D01*
X0677505Y0163465D01*
X0678686Y0163465D01*
X0679777Y0163916D01*
X0680612Y0164752D01*
X0681064Y0165843D01*
X0681064Y0167024D01*
X0680612Y0168115D01*
X0679777Y0168950D01*
X0678686Y0169402D01*
X0677505Y0169402D01*
X0676414Y0168950D01*
X0675845Y0168381D01*
X0675277Y0168950D01*
X0674186Y0169402D01*
X0673005Y0169402D01*
X0671914Y0168950D01*
X0671345Y0168381D01*
X0670777Y0168950D01*
X0669686Y0169402D01*
X0668505Y0169402D01*
X0667414Y0168950D01*
X0666845Y0168381D01*
X0666277Y0168950D01*
X0665186Y0169402D01*
X0664005Y0169402D01*
X0662914Y0168950D01*
X0662345Y0168381D01*
X0661777Y0168950D01*
X0660686Y0169402D01*
X0659505Y0169402D01*
X0658414Y0168950D01*
X0657579Y0168115D01*
X0657127Y0167024D01*
X0657127Y0165843D01*
X0657127Y0166199D02*
X0617064Y0166199D01*
X0617064Y0166985D02*
X0657127Y0166985D01*
X0657436Y0167770D02*
X0616754Y0167770D01*
X0616170Y0168556D02*
X0658020Y0168556D01*
X0659361Y0169342D02*
X0614829Y0169342D01*
X0613361Y0169342D02*
X0610329Y0169342D01*
X0608861Y0169342D02*
X0605829Y0169342D01*
X0604361Y0169342D02*
X0601329Y0169342D01*
X0599861Y0169342D02*
X0596829Y0169342D01*
X0598170Y0168556D02*
X0598520Y0168556D01*
X0602670Y0168556D02*
X0603020Y0168556D01*
X0607170Y0168556D02*
X0607520Y0168556D01*
X0611670Y0168556D02*
X0612020Y0168556D01*
X0605777Y0158950D02*
X0604686Y0159402D01*
X0603505Y0159402D01*
X0602414Y0158950D01*
X0601579Y0158115D01*
X0601127Y0157024D01*
X0601127Y0155843D01*
X0601579Y0154752D01*
X0602414Y0153916D01*
X0603505Y0153465D01*
X0604686Y0153465D01*
X0605777Y0153916D01*
X0606612Y0154752D01*
X0607064Y0155843D01*
X0607064Y0157024D01*
X0606612Y0158115D01*
X0605777Y0158950D01*
X0605352Y0159125D02*
X0666838Y0159125D01*
X0666414Y0158950D02*
X0665579Y0158115D01*
X0665127Y0157024D01*
X0665127Y0155843D01*
X0665579Y0154752D01*
X0666414Y0153916D01*
X0667505Y0153465D01*
X0668686Y0153465D01*
X0669777Y0153916D01*
X0670612Y0154752D01*
X0671064Y0155843D01*
X0671064Y0157024D01*
X0670612Y0158115D01*
X0669777Y0158950D01*
X0668686Y0159402D01*
X0667505Y0159402D01*
X0666414Y0158950D01*
X0665803Y0158339D02*
X0662387Y0158339D01*
X0662277Y0158450D02*
X0661186Y0158902D01*
X0660005Y0158902D01*
X0658914Y0158450D01*
X0658079Y0157615D01*
X0657627Y0156524D01*
X0657627Y0155343D01*
X0658079Y0154252D01*
X0658897Y0153433D01*
X0658079Y0152615D01*
X0657627Y0151524D01*
X0657627Y0150343D01*
X0658079Y0149252D01*
X0658914Y0148416D01*
X0660005Y0147965D01*
X0661186Y0147965D01*
X0662277Y0148416D01*
X0663112Y0149252D01*
X0663564Y0150343D01*
X0663564Y0151524D01*
X0663112Y0152615D01*
X0662293Y0153433D01*
X0663112Y0154252D01*
X0663564Y0155343D01*
X0663564Y0156524D01*
X0663112Y0157615D01*
X0662277Y0158450D01*
X0663137Y0157554D02*
X0665346Y0157554D01*
X0665127Y0156768D02*
X0663463Y0156768D01*
X0663564Y0155982D02*
X0665127Y0155982D01*
X0665395Y0155196D02*
X0663503Y0155196D01*
X0663177Y0154410D02*
X0665920Y0154410D01*
X0666005Y0153402D02*
X0664914Y0152950D01*
X0664079Y0152115D01*
X0663627Y0151024D01*
X0663627Y0149843D01*
X0664079Y0148752D01*
X0664914Y0147916D01*
X0666005Y0147465D01*
X0667186Y0147465D01*
X0668277Y0147916D01*
X0669112Y0148752D01*
X0669564Y0149843D01*
X0669564Y0151024D01*
X0669112Y0152115D01*
X0668277Y0152950D01*
X0667186Y0153402D01*
X0666005Y0153402D01*
X0667120Y0153624D02*
X0662484Y0153624D01*
X0662888Y0152838D02*
X0664802Y0152838D01*
X0664053Y0152052D02*
X0663345Y0152052D01*
X0663564Y0151266D02*
X0663727Y0151266D01*
X0663627Y0150480D02*
X0663564Y0150480D01*
X0663688Y0149694D02*
X0663295Y0149694D01*
X0662769Y0148909D02*
X0664014Y0148909D01*
X0664708Y0148123D02*
X0661567Y0148123D01*
X0659623Y0148123D02*
X0604483Y0148123D01*
X0604277Y0147916D02*
X0605112Y0148752D01*
X0605564Y0149843D01*
X0605564Y0151024D01*
X0605112Y0152115D01*
X0604277Y0152950D01*
X0603186Y0153402D01*
X0602005Y0153402D01*
X0600914Y0152950D01*
X0600079Y0152115D01*
X0599627Y0151024D01*
X0599627Y0149843D01*
X0600079Y0148752D01*
X0600914Y0147916D01*
X0602005Y0147465D01*
X0603186Y0147465D01*
X0604277Y0147916D01*
X0605177Y0148909D02*
X0658422Y0148909D01*
X0657895Y0149694D02*
X0605502Y0149694D01*
X0605564Y0150480D02*
X0657627Y0150480D01*
X0657627Y0151266D02*
X0605463Y0151266D01*
X0605138Y0152052D02*
X0657846Y0152052D01*
X0658302Y0152838D02*
X0604388Y0152838D01*
X0605070Y0153624D02*
X0658706Y0153624D01*
X0658013Y0154410D02*
X0606270Y0154410D01*
X0606796Y0155196D02*
X0657687Y0155196D01*
X0657627Y0155982D02*
X0607064Y0155982D01*
X0607064Y0156768D02*
X0657728Y0156768D01*
X0658053Y0157554D02*
X0606844Y0157554D01*
X0606387Y0158339D02*
X0658803Y0158339D01*
X0658596Y0163841D02*
X0637725Y0163841D01*
X0638051Y0163055D02*
X0796896Y0163055D01*
X0795718Y0162269D02*
X0638064Y0162269D01*
X0637915Y0161483D02*
X0795002Y0161483D01*
X0794676Y0160697D02*
X0637557Y0160697D01*
X0636764Y0159911D02*
X0794414Y0159911D01*
X0794414Y0159125D02*
X0733352Y0159125D01*
X0734387Y0158339D02*
X0794440Y0158339D01*
X0794765Y0157554D02*
X0734844Y0157554D01*
X0735064Y0156768D02*
X0795148Y0156768D01*
X0795934Y0155982D02*
X0735064Y0155982D01*
X0733138Y0152052D02*
X0796648Y0152052D01*
X0795615Y0151266D02*
X0733463Y0151266D01*
X0733564Y0150480D02*
X0794959Y0150480D01*
X0794633Y0149694D02*
X0733502Y0149694D01*
X0733177Y0148909D02*
X0794414Y0148909D01*
X0794414Y0148123D02*
X0772859Y0148123D01*
X0773890Y0147337D02*
X0794482Y0147337D01*
X0794808Y0146551D02*
X0774345Y0146551D01*
X0774564Y0145765D02*
X0795250Y0145765D01*
X0796036Y0144979D02*
X0774564Y0144979D01*
X0770331Y0148123D02*
X0732483Y0148123D01*
X0728708Y0148123D02*
X0668483Y0148123D01*
X0669177Y0148909D02*
X0722933Y0148909D01*
X0722914Y0148916D02*
X0724005Y0148465D01*
X0725186Y0148465D01*
X0726277Y0148916D01*
X0727112Y0149752D01*
X0727564Y0150843D01*
X0727564Y0152024D01*
X0727112Y0153115D01*
X0726293Y0153933D01*
X0727112Y0154752D01*
X0727564Y0155843D01*
X0727564Y0157024D01*
X0727112Y0158115D01*
X0726277Y0158950D01*
X0725186Y0159402D01*
X0724005Y0159402D01*
X0722914Y0158950D01*
X0722079Y0158115D01*
X0721627Y0157024D01*
X0721627Y0155843D01*
X0722079Y0154752D01*
X0722897Y0153933D01*
X0722079Y0153115D01*
X0721627Y0152024D01*
X0721627Y0150843D01*
X0722079Y0149752D01*
X0722914Y0148916D01*
X0722136Y0149694D02*
X0669502Y0149694D01*
X0669564Y0150480D02*
X0721777Y0150480D01*
X0721627Y0151266D02*
X0669463Y0151266D01*
X0669138Y0152052D02*
X0721638Y0152052D01*
X0721964Y0152838D02*
X0668388Y0152838D01*
X0669070Y0153624D02*
X0722588Y0153624D01*
X0722420Y0154410D02*
X0670270Y0154410D01*
X0670796Y0155196D02*
X0721895Y0155196D01*
X0721627Y0155982D02*
X0671064Y0155982D01*
X0671064Y0156768D02*
X0721627Y0156768D01*
X0721846Y0157554D02*
X0670844Y0157554D01*
X0670387Y0158339D02*
X0722303Y0158339D01*
X0723338Y0159125D02*
X0669352Y0159125D01*
X0670594Y0163841D02*
X0672096Y0163841D01*
X0675094Y0163841D02*
X0676596Y0163841D01*
X0679594Y0163841D02*
X0702096Y0163841D01*
X0701914Y0163916D02*
X0703005Y0163465D01*
X0704186Y0163465D01*
X0705277Y0163916D01*
X0706112Y0164752D01*
X0706564Y0165843D01*
X0706564Y0167024D01*
X0706112Y0168115D01*
X0705277Y0168950D01*
X0704186Y0169402D01*
X0703005Y0169402D01*
X0701914Y0168950D01*
X0701079Y0168115D01*
X0700627Y0167024D01*
X0700627Y0165843D01*
X0701079Y0164752D01*
X0701914Y0163916D01*
X0701203Y0164627D02*
X0680487Y0164627D01*
X0680886Y0165413D02*
X0700805Y0165413D01*
X0700627Y0166199D02*
X0681064Y0166199D01*
X0681064Y0166985D02*
X0700627Y0166985D01*
X0700936Y0167770D02*
X0680754Y0167770D01*
X0680170Y0168556D02*
X0701520Y0168556D01*
X0702861Y0169342D02*
X0678829Y0169342D01*
X0677361Y0169342D02*
X0674329Y0169342D01*
X0672861Y0169342D02*
X0669829Y0169342D01*
X0668361Y0169342D02*
X0665329Y0169342D01*
X0663861Y0169342D02*
X0660829Y0169342D01*
X0662170Y0168556D02*
X0662520Y0168556D01*
X0666670Y0168556D02*
X0667020Y0168556D01*
X0671170Y0168556D02*
X0671520Y0168556D01*
X0675670Y0168556D02*
X0676020Y0168556D01*
X0667596Y0163841D02*
X0666094Y0163841D01*
X0663096Y0163841D02*
X0661594Y0163841D01*
X0657703Y0164627D02*
X0637100Y0164627D01*
X0632140Y0163055D02*
X0569595Y0163055D01*
X0569595Y0162269D02*
X0632127Y0162269D01*
X0632276Y0161483D02*
X0569595Y0161483D01*
X0569595Y0160697D02*
X0632633Y0160697D01*
X0633426Y0159911D02*
X0569595Y0159911D01*
X0569595Y0159125D02*
X0602838Y0159125D01*
X0601803Y0158339D02*
X0598387Y0158339D01*
X0598277Y0158450D02*
X0597186Y0158902D01*
X0596005Y0158902D01*
X0594914Y0158450D01*
X0594079Y0157615D01*
X0593627Y0156524D01*
X0593627Y0155343D01*
X0594079Y0154252D01*
X0594897Y0153433D01*
X0594079Y0152615D01*
X0593627Y0151524D01*
X0593627Y0150343D01*
X0594079Y0149252D01*
X0594914Y0148416D01*
X0596005Y0147965D01*
X0597186Y0147965D01*
X0598277Y0148416D01*
X0599112Y0149252D01*
X0599564Y0150343D01*
X0599564Y0151524D01*
X0599112Y0152615D01*
X0598293Y0153433D01*
X0599112Y0154252D01*
X0599564Y0155343D01*
X0599564Y0156524D01*
X0599112Y0157615D01*
X0598277Y0158450D01*
X0599137Y0157554D02*
X0601346Y0157554D01*
X0601127Y0156768D02*
X0599463Y0156768D01*
X0599564Y0155982D02*
X0601127Y0155982D01*
X0601395Y0155196D02*
X0599503Y0155196D01*
X0599177Y0154410D02*
X0601920Y0154410D01*
X0603120Y0153624D02*
X0598484Y0153624D01*
X0598888Y0152838D02*
X0600802Y0152838D01*
X0600053Y0152052D02*
X0599345Y0152052D01*
X0599564Y0151266D02*
X0599727Y0151266D01*
X0599627Y0150480D02*
X0599564Y0150480D01*
X0599688Y0149694D02*
X0599295Y0149694D01*
X0598769Y0148909D02*
X0600014Y0148909D01*
X0600708Y0148123D02*
X0597567Y0148123D01*
X0595623Y0148123D02*
X0569595Y0148123D01*
X0569595Y0148909D02*
X0594422Y0148909D01*
X0593895Y0149694D02*
X0569595Y0149694D01*
X0569595Y0150480D02*
X0593627Y0150480D01*
X0593627Y0151266D02*
X0569595Y0151266D01*
X0569595Y0152052D02*
X0593846Y0152052D01*
X0594302Y0152838D02*
X0569595Y0152838D01*
X0569595Y0153624D02*
X0594706Y0153624D01*
X0594013Y0154410D02*
X0569595Y0154410D01*
X0569595Y0155196D02*
X0593687Y0155196D01*
X0593627Y0155982D02*
X0569595Y0155982D01*
X0569595Y0156768D02*
X0593728Y0156768D01*
X0594053Y0157554D02*
X0569595Y0157554D01*
X0569595Y0158339D02*
X0594803Y0158339D01*
X0569595Y0147337D02*
X0769301Y0147337D01*
X0768845Y0146551D02*
X0569595Y0146551D01*
X0569595Y0145765D02*
X0768627Y0145765D01*
X0768627Y0144979D02*
X0569595Y0144979D01*
X0569595Y0144193D02*
X0768896Y0144193D01*
X0769423Y0143407D02*
X0569595Y0143407D01*
X0569595Y0126903D02*
X0586867Y0126903D01*
X0586372Y0126117D02*
X0569595Y0126117D01*
X0569595Y0125331D02*
X0586127Y0125331D01*
X0586127Y0124545D02*
X0569595Y0124545D01*
X0569595Y0123759D02*
X0586368Y0123759D01*
X0586857Y0122973D02*
X0569595Y0122973D01*
X0569595Y0170128D02*
X0794414Y0170128D01*
X0794414Y0169342D02*
X0742829Y0169342D01*
X0742686Y0169402D02*
X0741505Y0169402D01*
X0740414Y0168950D01*
X0739845Y0168381D01*
X0739277Y0168950D01*
X0738186Y0169402D01*
X0737005Y0169402D01*
X0735914Y0168950D01*
X0735345Y0168381D01*
X0734777Y0168950D01*
X0733686Y0169402D01*
X0732505Y0169402D01*
X0731414Y0168950D01*
X0730845Y0168381D01*
X0730277Y0168950D01*
X0729186Y0169402D01*
X0728005Y0169402D01*
X0726914Y0168950D01*
X0726345Y0168381D01*
X0725777Y0168950D01*
X0724686Y0169402D01*
X0723505Y0169402D01*
X0722414Y0168950D01*
X0721579Y0168115D01*
X0721127Y0167024D01*
X0721127Y0165843D01*
X0721579Y0164752D01*
X0722414Y0163916D01*
X0723505Y0163465D01*
X0724686Y0163465D01*
X0725777Y0163916D01*
X0726345Y0164485D01*
X0726914Y0163916D01*
X0728005Y0163465D01*
X0729186Y0163465D01*
X0730277Y0163916D01*
X0730845Y0164485D01*
X0731414Y0163916D01*
X0732505Y0163465D01*
X0733686Y0163465D01*
X0734777Y0163916D01*
X0735345Y0164485D01*
X0735914Y0163916D01*
X0737005Y0163465D01*
X0738186Y0163465D01*
X0739277Y0163916D01*
X0739845Y0164485D01*
X0740414Y0163916D01*
X0741505Y0163465D01*
X0742686Y0163465D01*
X0743777Y0163916D01*
X0744612Y0164752D01*
X0745064Y0165843D01*
X0745064Y0167024D01*
X0744612Y0168115D01*
X0743777Y0168950D01*
X0742686Y0169402D01*
X0741361Y0169342D02*
X0738329Y0169342D01*
X0736861Y0169342D02*
X0733829Y0169342D01*
X0732361Y0169342D02*
X0729329Y0169342D01*
X0727861Y0169342D02*
X0724829Y0169342D01*
X0723361Y0169342D02*
X0704329Y0169342D01*
X0705670Y0168556D02*
X0722020Y0168556D01*
X0721436Y0167770D02*
X0706254Y0167770D01*
X0706564Y0166985D02*
X0721127Y0166985D01*
X0721127Y0166199D02*
X0706564Y0166199D01*
X0706386Y0165413D02*
X0721305Y0165413D01*
X0721703Y0164627D02*
X0705987Y0164627D01*
X0705094Y0163841D02*
X0722596Y0163841D01*
X0725594Y0163841D02*
X0727096Y0163841D01*
X0730094Y0163841D02*
X0731596Y0163841D01*
X0734594Y0163841D02*
X0736096Y0163841D01*
X0739094Y0163841D02*
X0740596Y0163841D01*
X0743594Y0163841D02*
X0804414Y0163841D01*
X0804414Y0163801D02*
X0805051Y0162265D01*
X0806227Y0161088D01*
X0807763Y0160452D01*
X0809427Y0160452D01*
X0810964Y0161088D01*
X0812140Y0162265D01*
X0812776Y0163801D01*
X0812776Y0165465D01*
X0812140Y0167001D01*
X0810964Y0168178D01*
X0809427Y0168814D01*
X0807763Y0168814D01*
X0806227Y0168178D01*
X0805051Y0167001D01*
X0804414Y0165465D01*
X0804414Y0163801D01*
X0804723Y0163055D02*
X0800294Y0163055D01*
X0801472Y0162269D02*
X0805049Y0162269D01*
X0805832Y0161483D02*
X0802189Y0161483D01*
X0802514Y0160697D02*
X0807171Y0160697D01*
X0810019Y0160697D02*
X0848201Y0160697D01*
X0848201Y0159911D02*
X0802776Y0159911D01*
X0802776Y0159125D02*
X0848201Y0159125D01*
X0848201Y0161483D02*
X0811358Y0161483D01*
X0812142Y0162269D02*
X0848201Y0162269D01*
X0848201Y0163055D02*
X0812467Y0163055D01*
X0812776Y0163841D02*
X0848201Y0163841D01*
X0848201Y0164627D02*
X0812776Y0164627D01*
X0812776Y0165413D02*
X0848201Y0165413D01*
X0848201Y0166199D02*
X0812472Y0166199D01*
X0812147Y0166985D02*
X0848201Y0166985D01*
X0848201Y0167770D02*
X0811371Y0167770D01*
X0810049Y0168556D02*
X0848201Y0168556D01*
X0848201Y0169342D02*
X0802776Y0169342D01*
X0802776Y0170128D02*
X0848201Y0170128D01*
X0848201Y0170914D02*
X0802756Y0170914D01*
X0802430Y0171700D02*
X0806923Y0171700D01*
X0805729Y0172486D02*
X0802055Y0172486D01*
X0801269Y0173272D02*
X0805006Y0173272D01*
X0804761Y0177201D02*
X0800512Y0177201D01*
X0801562Y0177987D02*
X0805136Y0177987D01*
X0805922Y0178773D02*
X0802226Y0178773D01*
X0802552Y0179559D02*
X0807389Y0179559D01*
X0809801Y0179559D02*
X0848201Y0179559D01*
X0848201Y0178773D02*
X0811268Y0178773D01*
X0812054Y0177987D02*
X0848201Y0177987D01*
X0848201Y0177201D02*
X0812430Y0177201D01*
X0812755Y0176415D02*
X0848201Y0176415D01*
X0848201Y0175630D02*
X0812776Y0175630D01*
X0812776Y0174844D02*
X0848201Y0174844D01*
X0848201Y0174058D02*
X0812510Y0174058D01*
X0812184Y0173272D02*
X0848201Y0173272D01*
X0848201Y0172486D02*
X0811461Y0172486D01*
X0810267Y0171700D02*
X0848201Y0171700D01*
X0848201Y0180345D02*
X0802776Y0180345D01*
X0802776Y0181131D02*
X0848201Y0181131D01*
X0848201Y0181917D02*
X0802713Y0181917D01*
X0802388Y0182703D02*
X0806434Y0182703D01*
X0805527Y0183489D02*
X0801952Y0183489D01*
X0801167Y0184275D02*
X0804922Y0184275D01*
X0804414Y0186632D02*
X0786992Y0186632D01*
X0787681Y0187418D02*
X0804519Y0187418D01*
X0804845Y0188204D02*
X0800760Y0188204D01*
X0801665Y0188990D02*
X0805339Y0188990D01*
X0806125Y0189776D02*
X0802269Y0189776D01*
X0802594Y0190562D02*
X0848201Y0190562D01*
X0848201Y0191348D02*
X0802776Y0191348D01*
X0802776Y0192134D02*
X0848201Y0192134D01*
X0848201Y0189776D02*
X0811065Y0189776D01*
X0811851Y0188990D02*
X0848201Y0188990D01*
X0848201Y0188204D02*
X0812346Y0188204D01*
X0812671Y0187418D02*
X0848201Y0187418D01*
X0848201Y0186632D02*
X0812776Y0186632D01*
X0812776Y0185846D02*
X0848201Y0185846D01*
X0848201Y0185061D02*
X0812594Y0185061D01*
X0812268Y0184275D02*
X0848201Y0184275D01*
X0848201Y0183489D02*
X0811664Y0183489D01*
X0810757Y0182703D02*
X0848201Y0182703D01*
X0807141Y0168556D02*
X0802509Y0168556D01*
X0802184Y0167770D02*
X0805820Y0167770D01*
X0805044Y0166985D02*
X0801460Y0166985D01*
X0800264Y0166199D02*
X0804718Y0166199D01*
X0804414Y0165413D02*
X0744886Y0165413D01*
X0745064Y0166199D02*
X0796927Y0166199D01*
X0795731Y0166985D02*
X0745064Y0166985D01*
X0744754Y0167770D02*
X0795007Y0167770D01*
X0794681Y0168556D02*
X0744170Y0168556D01*
X0744487Y0164627D02*
X0804414Y0164627D01*
X0794434Y0170914D02*
X0569595Y0170914D01*
X0569595Y0171700D02*
X0794760Y0171700D01*
X0795135Y0172486D02*
X0569595Y0172486D01*
X0569595Y0173272D02*
X0795921Y0173272D01*
X0783198Y0186632D02*
X0781992Y0186632D01*
X0778198Y0186632D02*
X0569595Y0186632D01*
X0569595Y0187418D02*
X0777510Y0187418D01*
X0781878Y0191348D02*
X0783312Y0191348D01*
X0786878Y0191348D02*
X0794414Y0191348D01*
X0794596Y0190562D02*
X0787634Y0190562D01*
X0787959Y0189776D02*
X0794922Y0189776D01*
X0795525Y0188990D02*
X0788064Y0188990D01*
X0788006Y0188204D02*
X0796430Y0188204D01*
X0774416Y0204708D02*
X0738987Y0204708D01*
X0738662Y0205494D02*
X0773336Y0205494D01*
X0772860Y0206280D02*
X0737946Y0206280D01*
X0730931Y0207066D02*
X0772627Y0207066D01*
X0768188Y0225142D02*
X0718002Y0225142D01*
X0718685Y0225928D02*
X0740402Y0225928D01*
X0739616Y0226714D02*
X0719010Y0226714D01*
X0719064Y0227500D02*
X0739269Y0227500D01*
X0739127Y0228286D02*
X0718955Y0228286D01*
X0720432Y0229072D02*
X0739147Y0229072D01*
X0739472Y0229858D02*
X0721156Y0229858D01*
X0721481Y0230643D02*
X0740107Y0230643D01*
X0743788Y0225928D02*
X0767798Y0225928D01*
X0764758Y0229072D02*
X0754744Y0229072D01*
X0755064Y0229858D02*
X0764035Y0229858D01*
X0763709Y0230643D02*
X0755064Y0230643D01*
X0754896Y0231429D02*
X0763627Y0231429D01*
X0763706Y0232215D02*
X0754511Y0232215D01*
X0753652Y0233001D02*
X0764032Y0233001D01*
X0750538Y0233001D02*
X0727715Y0233001D01*
X0728041Y0233787D02*
X0731226Y0233787D01*
X0730257Y0234573D02*
X0728064Y0234573D01*
X0727925Y0235359D02*
X0729827Y0235359D01*
X0729627Y0236145D02*
X0727581Y0236145D01*
X0726796Y0236931D02*
X0729627Y0236931D01*
X0729914Y0237717D02*
X0726577Y0237717D01*
X0727216Y0238503D02*
X0730467Y0238503D01*
X0731732Y0239288D02*
X0727541Y0239288D01*
X0731864Y0244004D02*
X0794951Y0244004D01*
X0794626Y0244790D02*
X0732628Y0244790D01*
X0732953Y0245576D02*
X0794414Y0245576D01*
X0794414Y0246362D02*
X0733064Y0246362D01*
X0733012Y0247148D02*
X0794490Y0247148D01*
X0794815Y0247934D02*
X0732687Y0247934D01*
X0729539Y0250291D02*
X0726151Y0250291D01*
X0726747Y0251077D02*
X0728944Y0251077D01*
X0728627Y0251863D02*
X0727064Y0251863D01*
X0727064Y0252649D02*
X0728627Y0252649D01*
X0728797Y0253435D02*
X0726893Y0253435D01*
X0726505Y0254221D02*
X0729185Y0254221D01*
X0730052Y0255007D02*
X0725639Y0255007D01*
X0703688Y0258936D02*
X0794858Y0258936D01*
X0794532Y0258150D02*
X0703011Y0258150D01*
X0720887Y0263652D02*
X0680303Y0263652D01*
X0679789Y0264438D02*
X0721402Y0264438D01*
X0726802Y0274655D02*
X0797516Y0274655D01*
X0795975Y0275440D02*
X0726286Y0275440D01*
X0726087Y0276226D02*
X0795189Y0276226D01*
X0794782Y0277012D02*
X0726720Y0277012D01*
X0727045Y0277798D02*
X0794457Y0277798D01*
X0794414Y0278584D02*
X0727064Y0278584D01*
X0726920Y0279370D02*
X0794414Y0279370D01*
X0794659Y0280156D02*
X0726570Y0280156D01*
X0725784Y0280942D02*
X0794984Y0280942D01*
X0800394Y0282514D02*
X0848201Y0282514D01*
X0848201Y0281728D02*
X0801513Y0281728D01*
X0802206Y0280942D02*
X0848201Y0280942D01*
X0848201Y0280156D02*
X0802531Y0280156D01*
X0802776Y0279370D02*
X0848201Y0279370D01*
X0848201Y0278584D02*
X0802776Y0278584D01*
X0804824Y0271511D02*
X0800642Y0271511D01*
X0801616Y0270725D02*
X0805290Y0270725D01*
X0806076Y0269939D02*
X0802248Y0269939D01*
X0802365Y0266010D02*
X0806304Y0266010D01*
X0805473Y0265224D02*
X0801899Y0265224D01*
X0801113Y0264438D02*
X0804900Y0264438D01*
X0804867Y0260508D02*
X0801033Y0260508D01*
X0801819Y0259722D02*
X0805393Y0259722D01*
X0806179Y0258936D02*
X0802332Y0258936D01*
X0802281Y0255007D02*
X0806156Y0255007D01*
X0805370Y0254221D02*
X0801696Y0254221D01*
X0800834Y0253435D02*
X0804857Y0253435D01*
X0804909Y0249505D02*
X0801136Y0249505D01*
X0801922Y0248719D02*
X0805496Y0248719D01*
X0806359Y0247934D02*
X0802375Y0247934D01*
X0802239Y0244004D02*
X0805953Y0244004D01*
X0805167Y0243218D02*
X0801593Y0243218D01*
X0800586Y0242432D02*
X0804773Y0242432D01*
X0804993Y0238503D02*
X0801239Y0238503D01*
X0802024Y0237717D02*
X0805699Y0237717D01*
X0806849Y0236931D02*
X0802418Y0236931D01*
X0809975Y0233787D02*
X0848201Y0233787D01*
X0848201Y0233001D02*
X0811340Y0233001D01*
X0812126Y0232215D02*
X0848201Y0232215D01*
X0848201Y0231429D02*
X0812460Y0231429D01*
X0812776Y0230643D02*
X0848201Y0230643D01*
X0848201Y0229858D02*
X0812776Y0229858D01*
X0812776Y0229072D02*
X0848201Y0229072D01*
X0848201Y0228286D02*
X0812480Y0228286D01*
X0812154Y0227500D02*
X0848201Y0227500D01*
X0848201Y0226714D02*
X0811389Y0226714D01*
X0810093Y0225928D02*
X0848201Y0225928D01*
X0805801Y0226714D02*
X0802176Y0226714D01*
X0801441Y0227500D02*
X0805036Y0227500D01*
X0749679Y0232215D02*
X0727075Y0232215D01*
X0728698Y0212567D02*
X0667492Y0212567D01*
X0668445Y0211782D02*
X0722746Y0211782D01*
X0722029Y0210996D02*
X0668868Y0210996D01*
X0669064Y0210210D02*
X0721704Y0210210D01*
X0721627Y0209424D02*
X0669064Y0209424D01*
X0668772Y0208638D02*
X0721711Y0208638D01*
X0722037Y0207852D02*
X0668212Y0207852D01*
X0666931Y0207066D02*
X0722764Y0207066D01*
X0722244Y0206280D02*
X0673946Y0206280D01*
X0674662Y0205494D02*
X0721822Y0205494D01*
X0721627Y0204708D02*
X0674987Y0204708D01*
X0675064Y0203922D02*
X0721627Y0203922D01*
X0721919Y0203137D02*
X0674978Y0203137D01*
X0674653Y0202351D02*
X0722480Y0202351D01*
X0726426Y0207066D02*
X0729260Y0207066D01*
X0727978Y0207852D02*
X0727153Y0207852D01*
X0727161Y0210996D02*
X0727322Y0210996D01*
X0727746Y0211782D02*
X0726445Y0211782D01*
X0723181Y0185061D02*
X0662009Y0185061D01*
X0662952Y0184275D02*
X0722239Y0184275D01*
X0721819Y0183489D02*
X0663371Y0183489D01*
X0663564Y0182703D02*
X0721627Y0182703D01*
X0721627Y0181917D02*
X0663564Y0181917D01*
X0663269Y0181131D02*
X0721921Y0181131D01*
X0722485Y0180345D02*
X0662705Y0180345D01*
X0662667Y0179559D02*
X0722523Y0179559D01*
X0721937Y0178773D02*
X0663253Y0178773D01*
X0663564Y0177987D02*
X0721627Y0177987D01*
X0721627Y0177201D02*
X0663564Y0177201D01*
X0663387Y0176415D02*
X0721804Y0176415D01*
X0722201Y0175630D02*
X0662990Y0175630D01*
X0662101Y0174844D02*
X0723089Y0174844D01*
X0726170Y0168556D02*
X0726520Y0168556D01*
X0730670Y0168556D02*
X0731020Y0168556D01*
X0735170Y0168556D02*
X0735520Y0168556D01*
X0739670Y0168556D02*
X0740020Y0168556D01*
X0730838Y0159125D02*
X0725852Y0159125D01*
X0726887Y0158339D02*
X0729803Y0158339D01*
X0729346Y0157554D02*
X0727344Y0157554D01*
X0727564Y0156768D02*
X0729127Y0156768D01*
X0729127Y0155982D02*
X0727564Y0155982D01*
X0727296Y0155196D02*
X0729395Y0155196D01*
X0729920Y0154410D02*
X0726770Y0154410D01*
X0726602Y0153624D02*
X0731120Y0153624D01*
X0728802Y0152838D02*
X0727226Y0152838D01*
X0727552Y0152052D02*
X0728053Y0152052D01*
X0727727Y0151266D02*
X0727564Y0151266D01*
X0727627Y0150480D02*
X0727414Y0150480D01*
X0727688Y0149694D02*
X0727055Y0149694D01*
X0726257Y0148909D02*
X0728014Y0148909D01*
X0735105Y0142621D02*
X0769085Y0142621D01*
X0768756Y0141835D02*
X0735727Y0141835D01*
X0736053Y0141049D02*
X0768627Y0141049D01*
X0768659Y0140263D02*
X0736064Y0140263D01*
X0735912Y0139478D02*
X0768985Y0139478D01*
X0769638Y0138692D02*
X0735552Y0138692D01*
X0754253Y0122973D02*
X0762987Y0122973D01*
X0763643Y0122187D02*
X0754789Y0122187D01*
X0801403Y0097038D02*
X0805077Y0097038D01*
X0805863Y0096252D02*
X0802160Y0096252D01*
X0802486Y0095466D02*
X0807246Y0095466D01*
X0848201Y0071889D02*
X0680705Y0071889D01*
X0681031Y0071103D02*
X0848201Y0071103D01*
X0848201Y0070317D02*
X0681064Y0070317D01*
X0680935Y0069531D02*
X0848201Y0069531D01*
X0848201Y0068745D02*
X0680606Y0068745D01*
X0679820Y0067959D02*
X0848201Y0067959D01*
X0848201Y0067174D02*
X0569595Y0067174D01*
X0569595Y0066388D02*
X0848201Y0066388D01*
X0848201Y0065602D02*
X0805551Y0065602D01*
X0807448Y0064816D02*
X0848201Y0064816D01*
X0848201Y0064030D02*
X0809189Y0064030D01*
X0809975Y0063244D02*
X0848201Y0063244D01*
X0848201Y0062458D02*
X0810761Y0062458D01*
X0811547Y0061672D02*
X0848201Y0061672D01*
X0848201Y0060886D02*
X0812022Y0060886D01*
X0812348Y0060100D02*
X0848201Y0060100D01*
X0848201Y0059314D02*
X0812673Y0059314D01*
X0812999Y0058529D02*
X0848201Y0058529D01*
X0848201Y0057743D02*
X0813276Y0057743D01*
X0813276Y0056957D02*
X0848201Y0056957D01*
X0848201Y0056171D02*
X0813276Y0056171D01*
X0813276Y0055385D02*
X0848201Y0055385D01*
X0848201Y0054599D02*
X0813276Y0054599D01*
X0813196Y0053813D02*
X0848201Y0053813D01*
X0848201Y0053027D02*
X0812870Y0053027D01*
X0812545Y0052241D02*
X0848201Y0052241D01*
X0848201Y0051455D02*
X0812219Y0051455D01*
X0811894Y0050669D02*
X0848201Y0050669D01*
X0848201Y0049883D02*
X0811237Y0049883D01*
X0810451Y0049098D02*
X0848201Y0049098D01*
X0848201Y0048312D02*
X0809665Y0048312D01*
X0808596Y0047526D02*
X0848201Y0047526D01*
X0848201Y0046740D02*
X0806699Y0046740D01*
X0798001Y0064030D02*
X0569595Y0064030D01*
X0569595Y0064816D02*
X0799742Y0064816D01*
X0801639Y0065602D02*
X0569595Y0065602D01*
X0569595Y0047526D02*
X0636597Y0047526D01*
X0636414Y0047450D02*
X0635579Y0046615D01*
X0635127Y0045524D01*
X0635127Y0044343D01*
X0635579Y0043252D01*
X0636414Y0042416D01*
X0637505Y0041965D01*
X0638686Y0041965D01*
X0639777Y0042416D01*
X0640612Y0043252D01*
X0641064Y0044343D01*
X0641064Y0045524D01*
X0640612Y0046615D01*
X0639777Y0047450D01*
X0638686Y0047902D01*
X0637505Y0047902D01*
X0636414Y0047450D01*
X0635704Y0046740D02*
X0606986Y0046740D01*
X0607678Y0045954D02*
X0635305Y0045954D01*
X0635127Y0045168D02*
X0608004Y0045168D01*
X0608064Y0044382D02*
X0635127Y0044382D01*
X0635436Y0043596D02*
X0607962Y0043596D01*
X0607636Y0042810D02*
X0636020Y0042810D01*
X0637360Y0042024D02*
X0606885Y0042024D01*
X0638830Y0042024D02*
X0658860Y0042024D01*
X0657520Y0042810D02*
X0640170Y0042810D01*
X0640754Y0043596D02*
X0656936Y0043596D01*
X0656627Y0044382D02*
X0641064Y0044382D01*
X0641064Y0045168D02*
X0656627Y0045168D01*
X0656805Y0045954D02*
X0640885Y0045954D01*
X0640486Y0046740D02*
X0657204Y0046740D01*
X0658097Y0047526D02*
X0639593Y0047526D01*
X0661820Y0067959D02*
X0662871Y0067959D01*
X0666320Y0067959D02*
X0667371Y0067959D01*
X0670820Y0067959D02*
X0671871Y0067959D01*
X0675320Y0067959D02*
X0676371Y0067959D01*
X0664326Y0244004D02*
X0660781Y0244004D01*
X0659410Y0244004D02*
X0603864Y0244004D01*
X0604628Y0244790D02*
X0658040Y0244790D01*
X0657444Y0245576D02*
X0604953Y0245576D01*
X0605064Y0246362D02*
X0657127Y0246362D01*
X0657127Y0247148D02*
X0605012Y0247148D01*
X0604687Y0247934D02*
X0657296Y0247934D01*
X0661866Y0249505D02*
X0666906Y0249505D01*
X0665539Y0250291D02*
X0662628Y0250291D01*
X0662954Y0251077D02*
X0664944Y0251077D01*
X0664627Y0251863D02*
X0663064Y0251863D01*
X0663012Y0252649D02*
X0664627Y0252649D01*
X0664797Y0253435D02*
X0662686Y0253435D01*
X0662005Y0254221D02*
X0665185Y0254221D01*
X0664183Y0248719D02*
X0662507Y0248719D01*
X0662894Y0247934D02*
X0663504Y0247934D01*
X0663178Y0247148D02*
X0663064Y0247148D01*
X0663064Y0246362D02*
X0663127Y0246362D01*
X0663237Y0245576D02*
X0662746Y0245576D01*
X0662150Y0244790D02*
X0663563Y0244790D01*
X0722406Y0280942D02*
X0597784Y0280942D01*
X0597282Y0291945D02*
X0598409Y0291945D01*
X0601782Y0291945D02*
X0602909Y0291945D01*
X0606282Y0291945D02*
X0607409Y0291945D01*
X0610782Y0291945D02*
X0611909Y0291945D01*
X0594859Y0298232D02*
X0569595Y0298232D01*
X0569595Y0299018D02*
X0593812Y0299018D01*
X0593350Y0299804D02*
X0569595Y0299804D01*
X0569595Y0300590D02*
X0593127Y0300590D01*
X0593127Y0301376D02*
X0569595Y0301376D01*
X0569595Y0302162D02*
X0593391Y0302162D01*
X0593911Y0302947D02*
X0569595Y0302947D01*
X0569595Y0303733D02*
X0594097Y0303733D01*
X0593468Y0304519D02*
X0569595Y0304519D01*
X0569595Y0305305D02*
X0593142Y0305305D01*
X0593127Y0306091D02*
X0569595Y0306091D01*
X0569595Y0306877D02*
X0593273Y0306877D01*
X0593627Y0307663D02*
X0569595Y0307663D01*
X0569595Y0308449D02*
X0594413Y0308449D01*
X0569595Y0312378D02*
X0658506Y0312378D01*
X0657666Y0313164D02*
X0569595Y0313164D01*
X0569595Y0323381D02*
X0848201Y0323381D01*
X0848201Y0315522D02*
X0805743Y0315522D01*
X0807641Y0314736D02*
X0848201Y0314736D01*
X0848201Y0313950D02*
X0809269Y0313950D01*
X0810055Y0313164D02*
X0848201Y0313164D01*
X0848201Y0312378D02*
X0810841Y0312378D01*
X0811627Y0311592D02*
X0848201Y0311592D01*
X0848201Y0310807D02*
X0812055Y0310807D01*
X0812381Y0310021D02*
X0848201Y0310021D01*
X0848201Y0309235D02*
X0812706Y0309235D01*
X0813032Y0308449D02*
X0848201Y0308449D01*
X0848201Y0307663D02*
X0813276Y0307663D01*
X0813276Y0306877D02*
X0848201Y0306877D01*
X0848201Y0306091D02*
X0813276Y0306091D01*
X0813276Y0305305D02*
X0848201Y0305305D01*
X0848201Y0304519D02*
X0813276Y0304519D01*
X0813163Y0303733D02*
X0848201Y0303733D01*
X0848201Y0302947D02*
X0812837Y0302947D01*
X0812512Y0302162D02*
X0848201Y0302162D01*
X0848201Y0301376D02*
X0812186Y0301376D01*
X0811861Y0300590D02*
X0848201Y0300590D01*
X0848201Y0299804D02*
X0811157Y0299804D01*
X0810371Y0299018D02*
X0848201Y0299018D01*
X0848201Y0298232D02*
X0809585Y0298232D01*
X0808404Y0297446D02*
X0848201Y0297446D01*
X0848201Y0291945D02*
X0791782Y0291945D01*
X0792568Y0291159D02*
X0848201Y0291159D01*
X0848201Y0290373D02*
X0792919Y0290373D01*
X0793064Y0289587D02*
X0848201Y0289587D01*
X0848201Y0288801D02*
X0793046Y0288801D01*
X0792721Y0288015D02*
X0848201Y0288015D01*
X0739601Y0287229D02*
X0739089Y0287229D01*
X0735101Y0287229D02*
X0734589Y0287229D01*
X0730601Y0287229D02*
X0730089Y0287229D01*
X0726101Y0287229D02*
X0725589Y0287229D01*
X0675909Y0291945D02*
X0674782Y0291945D01*
X0671409Y0291945D02*
X0670282Y0291945D01*
X0666909Y0291945D02*
X0665782Y0291945D01*
X0662409Y0291945D02*
X0661282Y0291945D01*
M02*
