G75*
%MOIN*%
%OFA0B0*%
%FSLAX25Y25*%
%IPPOS*%
%LPD*%
%AMOC8*
5,1,8,0,0,1.08239X$1,22.5*
%
%ADD10R,0.06890X0.06102*%
%ADD11C,0.06984*%
%ADD12C,0.20669*%
%ADD13R,0.01575X0.04331*%
%ADD14OC8,0.06984*%
%ADD15C,0.20984*%
%ADD16R,0.06102X0.06890*%
%ADD17C,0.04559*%
%ADD18C,0.12795*%
%ADD19C,0.13252*%
%ADD20C,0.13646*%
%ADD21C,0.14039*%
%ADD22C,0.14433*%
%ADD23C,0.14827*%
%ADD24C,0.15220*%
%ADD25C,0.15614*%
%ADD26C,0.16008*%
D10*
X0561300Y0054760D03*
X0561300Y0062240D03*
X0571300Y0062240D03*
X0571300Y0054760D03*
X0573800Y0107760D03*
X0564300Y0107760D03*
X0564300Y0115240D03*
X0573800Y0115240D03*
X0571300Y0143260D03*
X0561300Y0143260D03*
X0561300Y0150740D03*
X0571300Y0150740D03*
X0573800Y0196260D03*
X0564300Y0196260D03*
X0564300Y0203740D03*
X0573800Y0203740D03*
X0570800Y0232260D03*
X0570800Y0239740D03*
X0560800Y0239740D03*
X0560800Y0232260D03*
X0563800Y0285260D03*
X0573300Y0285260D03*
X0573300Y0292740D03*
X0563800Y0292740D03*
D11*
X0507300Y0048000D02*
X0507300Y0042000D01*
X0497300Y0042000D02*
X0497300Y0048000D01*
X0479300Y0048000D02*
X0479300Y0042000D01*
X0469300Y0042000D02*
X0469300Y0048000D01*
D12*
X0451800Y0109500D03*
X0501300Y0109500D03*
X0401800Y0109500D03*
X0351800Y0109500D03*
X0301800Y0109500D03*
X0251800Y0109500D03*
X0201800Y0109500D03*
X0151800Y0109500D03*
X0151800Y0159500D03*
X0201800Y0159500D03*
X0251800Y0159500D03*
X0301800Y0159500D03*
X0351800Y0159500D03*
X0401800Y0159500D03*
X0451800Y0159500D03*
X0501300Y0159500D03*
X0501300Y0209500D03*
X0451800Y0209500D03*
X0401800Y0209500D03*
X0351800Y0209500D03*
X0301800Y0209500D03*
X0251800Y0209500D03*
X0201800Y0209500D03*
X0151800Y0209500D03*
X0151800Y0259500D03*
X0201800Y0259500D03*
X0251800Y0259500D03*
X0301800Y0259500D03*
X0351800Y0259500D03*
X0401800Y0259500D03*
X0451800Y0259500D03*
X0501800Y0259500D03*
D13*
X0544863Y0243571D03*
X0546831Y0243571D03*
X0548800Y0243571D03*
X0550769Y0243571D03*
X0552737Y0243571D03*
X0552737Y0227429D03*
X0550769Y0227429D03*
X0548800Y0227429D03*
X0546831Y0227429D03*
X0544863Y0227429D03*
X0545363Y0208071D03*
X0547331Y0208071D03*
X0549300Y0208071D03*
X0551269Y0208071D03*
X0553237Y0208071D03*
X0553237Y0191929D03*
X0551269Y0191929D03*
X0549300Y0191929D03*
X0547331Y0191929D03*
X0545363Y0191929D03*
X0545363Y0154571D03*
X0547331Y0154571D03*
X0549300Y0154571D03*
X0551269Y0154571D03*
X0553237Y0154571D03*
X0553237Y0138429D03*
X0551269Y0138429D03*
X0549300Y0138429D03*
X0547331Y0138429D03*
X0545363Y0138429D03*
X0545363Y0119571D03*
X0547331Y0119571D03*
X0549300Y0119571D03*
X0551269Y0119571D03*
X0553237Y0119571D03*
X0553237Y0103429D03*
X0551269Y0103429D03*
X0549300Y0103429D03*
X0547331Y0103429D03*
X0545363Y0103429D03*
X0545363Y0066071D03*
X0547331Y0066071D03*
X0549300Y0066071D03*
X0551269Y0066071D03*
X0553237Y0066071D03*
X0553237Y0049929D03*
X0551269Y0049929D03*
X0549300Y0049929D03*
X0547331Y0049929D03*
X0545363Y0049929D03*
X0544863Y0280929D03*
X0546831Y0280929D03*
X0548800Y0280929D03*
X0550769Y0280929D03*
X0552737Y0280929D03*
X0552737Y0297071D03*
X0550769Y0297071D03*
X0548800Y0297071D03*
X0546831Y0297071D03*
X0544863Y0297071D03*
D14*
X0602300Y0267300D03*
X0612300Y0261900D03*
X0602300Y0256400D03*
X0612300Y0251000D03*
X0602300Y0245600D03*
X0612300Y0240100D03*
X0602300Y0234700D03*
X0612300Y0229300D03*
X0602300Y0223800D03*
X0612300Y0218400D03*
X0602300Y0213000D03*
X0612300Y0207500D03*
X0602300Y0202100D03*
X0612300Y0196700D03*
X0602300Y0191200D03*
X0612300Y0185800D03*
X0602300Y0180400D03*
X0612300Y0174900D03*
X0602300Y0169500D03*
X0612300Y0164100D03*
X0602300Y0158600D03*
X0612300Y0153200D03*
X0602300Y0147800D03*
X0612300Y0142300D03*
X0602300Y0136900D03*
X0612300Y0131500D03*
X0602300Y0126000D03*
X0612300Y0120600D03*
X0602300Y0115100D03*
X0612300Y0109700D03*
X0602300Y0104300D03*
X0612300Y0098800D03*
X0602300Y0093400D03*
X0612300Y0088000D03*
X0602300Y0082500D03*
X0612300Y0077100D03*
X0602300Y0071700D03*
X0076800Y0071700D03*
X0066800Y0077100D03*
X0076800Y0082600D03*
X0066800Y0088000D03*
X0076800Y0093400D03*
X0066800Y0098900D03*
X0076800Y0104300D03*
X0066800Y0109700D03*
X0076800Y0115200D03*
X0066800Y0120600D03*
X0076800Y0126000D03*
X0066800Y0131500D03*
X0076800Y0136900D03*
X0066800Y0142300D03*
X0076800Y0147800D03*
X0066800Y0153200D03*
X0076800Y0158600D03*
X0066800Y0164100D03*
X0076800Y0169500D03*
X0066800Y0174900D03*
X0076800Y0180400D03*
X0066800Y0185800D03*
X0076800Y0191200D03*
X0066800Y0196700D03*
X0076800Y0202100D03*
X0066800Y0207600D03*
X0076800Y0213000D03*
X0066800Y0218400D03*
X0076800Y0223900D03*
X0066800Y0229300D03*
X0076800Y0234700D03*
X0066800Y0240200D03*
X0076800Y0245600D03*
X0066800Y0251000D03*
X0076800Y0256500D03*
X0066800Y0261900D03*
X0076800Y0267300D03*
D15*
X0071800Y0044500D03*
X0607300Y0044500D03*
X0607300Y0294500D03*
X0071800Y0294500D03*
D16*
X0526560Y0297500D03*
X0534040Y0297500D03*
X0534040Y0287000D03*
X0526560Y0287000D03*
X0527060Y0239500D03*
X0534540Y0239500D03*
X0534540Y0230000D03*
X0527060Y0230000D03*
X0527060Y0208500D03*
X0534540Y0208500D03*
X0534540Y0198000D03*
X0527060Y0198000D03*
X0527560Y0150500D03*
X0535040Y0150500D03*
X0535040Y0141000D03*
X0527560Y0141000D03*
X0527060Y0120000D03*
X0534540Y0120000D03*
X0534540Y0109500D03*
X0527060Y0109500D03*
X0506040Y0074500D03*
X0498560Y0074500D03*
X0498560Y0066000D03*
X0506040Y0066000D03*
X0506040Y0057500D03*
X0498560Y0057500D03*
X0478040Y0057000D03*
X0470560Y0057000D03*
X0470560Y0065500D03*
X0478040Y0065500D03*
X0478040Y0074000D03*
X0470560Y0074000D03*
X0527560Y0062000D03*
X0535040Y0062000D03*
X0535040Y0052500D03*
X0527560Y0052500D03*
D17*
X0540300Y0052000D03*
X0546800Y0055000D03*
X0548300Y0061000D03*
X0540800Y0062000D03*
X0544800Y0071000D03*
X0549300Y0071000D03*
X0553800Y0071000D03*
X0558300Y0071000D03*
X0538300Y0072000D03*
X0540300Y0080000D03*
X0540300Y0089000D03*
X0521800Y0094500D03*
X0539300Y0098000D03*
X0544800Y0098000D03*
X0549300Y0098000D03*
X0553800Y0098000D03*
X0558300Y0098000D03*
X0552300Y0108500D03*
X0546300Y0114500D03*
X0540300Y0109500D03*
X0540800Y0120500D03*
X0549300Y0125000D03*
X0549300Y0133500D03*
X0540300Y0140500D03*
X0546800Y0143500D03*
X0548300Y0149500D03*
X0540800Y0150500D03*
X0544800Y0159500D03*
X0549300Y0159500D03*
X0553800Y0159500D03*
X0558300Y0159500D03*
X0558300Y0171500D03*
X0540300Y0168500D03*
X0538300Y0160500D03*
X0540300Y0177500D03*
X0539300Y0186500D03*
X0544800Y0186500D03*
X0549300Y0186500D03*
X0553800Y0186500D03*
X0558300Y0186500D03*
X0552300Y0197000D03*
X0546300Y0203000D03*
X0540300Y0198000D03*
X0540800Y0209000D03*
X0549300Y0213500D03*
X0548800Y0222500D03*
X0539800Y0229500D03*
X0546300Y0232500D03*
X0547800Y0238500D03*
X0540300Y0239500D03*
X0544300Y0248500D03*
X0548800Y0248500D03*
X0553300Y0248500D03*
X0559800Y0248500D03*
X0539800Y0257500D03*
X0537800Y0249500D03*
X0558300Y0261500D03*
X0539800Y0266500D03*
X0521800Y0272500D03*
X0538800Y0275500D03*
X0544300Y0275500D03*
X0548800Y0275500D03*
X0553300Y0275500D03*
X0557800Y0275500D03*
X0564300Y0276500D03*
X0551800Y0286000D03*
X0545800Y0292000D03*
X0539800Y0287000D03*
X0540300Y0298000D03*
X0548800Y0302500D03*
X0518300Y0307500D03*
X0595300Y0279500D03*
X0648800Y0307500D03*
X0584800Y0219500D03*
X0527300Y0220500D03*
X0521300Y0181500D03*
X0583800Y0150500D03*
X0587300Y0153500D03*
X0590300Y0142000D03*
X0594800Y0141500D03*
X0521300Y0133000D03*
X0462800Y0093000D03*
X0410300Y0088500D03*
X0359300Y0084500D03*
X0305300Y0080500D03*
X0250700Y0077100D03*
X0118800Y0171000D03*
X0102300Y0172500D03*
X0107800Y0180500D03*
X0115300Y0181000D03*
X0096800Y0215000D03*
X0165800Y0231500D03*
X0217300Y0233000D03*
X0226800Y0241000D03*
X0559800Y0083500D03*
X0576800Y0048500D03*
X0578800Y0044000D03*
X0549300Y0045000D03*
X0529300Y0043500D03*
X0518800Y0031500D03*
X0647800Y0030500D03*
D18*
X0130800Y0047500D03*
D19*
X0147800Y0047500D03*
D20*
X0165800Y0047500D03*
D21*
X0183800Y0047000D03*
D22*
X0201300Y0047000D03*
D23*
X0218800Y0047500D03*
D24*
X0236800Y0047500D03*
D25*
X0253800Y0046500D03*
D26*
X0273800Y0047000D03*
M02*
