G75*
%MOIN*%
%OFA0B0*%
%FSLAX25Y25*%
%IPPOS*%
%LPD*%
%AMOC8*
5,1,8,0,0,1.08239X$1,22.5*
%
%ADD10C,0.06000*%
%ADD11C,0.14236*%
%ADD12C,0.17000*%
%ADD13C,0.03575*%
%ADD14C,0.00787*%
D10*
X0126095Y0055150D03*
X0136095Y0049750D03*
X0136095Y0060650D03*
X0126095Y0066050D03*
X0136095Y0071450D03*
X0126095Y0076950D03*
X0136095Y0082350D03*
X0126095Y0087750D03*
X0136095Y0093250D03*
X0126095Y0098650D03*
X0136095Y0104050D03*
X0126095Y0109550D03*
X0136095Y0114950D03*
X0126095Y0120350D03*
X0136095Y0125850D03*
X0126095Y0131250D03*
X0136095Y0136650D03*
X0126095Y0142150D03*
X0136095Y0147550D03*
X0126095Y0152950D03*
X0136095Y0158450D03*
X0126095Y0163850D03*
X0136095Y0169250D03*
X0126095Y0174750D03*
X0136095Y0180150D03*
X0126095Y0185650D03*
X0136095Y0191050D03*
X0126095Y0196450D03*
X0136095Y0201950D03*
X0126095Y0207350D03*
X0136095Y0212750D03*
X0126095Y0218250D03*
X0136095Y0223650D03*
X0126095Y0229050D03*
X0136095Y0234550D03*
X0126095Y0239950D03*
X0136095Y0245350D03*
X0510595Y0042050D03*
X0522595Y0042050D03*
X0532595Y0042050D03*
X0532595Y0032050D03*
X0522595Y0032050D03*
X0510595Y0032050D03*
X0407595Y0031550D03*
X0397595Y0031550D03*
X0397595Y0041550D03*
X0407595Y0041550D03*
X0386095Y0041550D03*
X0386095Y0031550D03*
X0789595Y0048250D03*
X0799595Y0053650D03*
X0789595Y0059050D03*
X0799595Y0064550D03*
X0789595Y0069950D03*
X0799595Y0075350D03*
X0789595Y0080850D03*
X0799595Y0086250D03*
X0789595Y0091650D03*
X0799595Y0097150D03*
X0789595Y0102550D03*
X0799595Y0108050D03*
X0789595Y0113450D03*
X0799595Y0118850D03*
X0789595Y0124350D03*
X0799595Y0129750D03*
X0789595Y0135150D03*
X0799595Y0140650D03*
X0789595Y0146050D03*
X0799595Y0151450D03*
X0789595Y0156950D03*
X0799595Y0162350D03*
X0789595Y0167750D03*
X0799595Y0173250D03*
X0789595Y0178650D03*
X0799595Y0184050D03*
X0789595Y0189550D03*
X0799595Y0194950D03*
X0789595Y0200350D03*
X0799595Y0205850D03*
X0789595Y0211250D03*
X0799595Y0216650D03*
X0789595Y0222150D03*
X0799595Y0227550D03*
X0789595Y0232950D03*
X0799595Y0238450D03*
X0789595Y0243850D03*
D11*
X0548595Y0237550D03*
X0498595Y0237550D03*
X0448595Y0237550D03*
X0398595Y0237550D03*
X0348595Y0237550D03*
X0298595Y0237550D03*
X0248595Y0237550D03*
X0198595Y0237550D03*
X0198595Y0187550D03*
X0248595Y0187550D03*
X0298595Y0187550D03*
X0348595Y0187550D03*
X0398595Y0187550D03*
X0448595Y0187550D03*
X0498595Y0187550D03*
X0548595Y0187550D03*
X0548595Y0137550D03*
X0498595Y0137550D03*
X0448595Y0137550D03*
X0398595Y0137550D03*
X0348595Y0137550D03*
X0298595Y0137550D03*
X0248595Y0137550D03*
X0198595Y0137550D03*
X0198595Y0087550D03*
X0248595Y0087550D03*
X0298595Y0087550D03*
X0348595Y0087550D03*
X0398595Y0087550D03*
X0448595Y0087550D03*
X0498595Y0087550D03*
X0548095Y0087550D03*
D12*
X0131095Y0022550D03*
X0131095Y0272550D03*
X0794595Y0271050D03*
X0794595Y0021050D03*
D13*
X0837095Y0005050D03*
X0691595Y0006050D03*
X0668595Y0010550D03*
X0660095Y0009550D03*
X0650595Y0010050D03*
X0640595Y0015550D03*
X0651595Y0020050D03*
X0657595Y0019550D03*
X0659095Y0025550D03*
X0651595Y0025050D03*
X0651095Y0035550D03*
X0655595Y0035550D03*
X0660095Y0035550D03*
X0664595Y0035550D03*
X0669095Y0035550D03*
X0682095Y0033550D03*
X0651595Y0046050D03*
X0651595Y0051050D03*
X0635095Y0048550D03*
X0617595Y0035050D03*
X0605095Y0035550D03*
X0600595Y0035550D03*
X0596095Y0035550D03*
X0591595Y0035550D03*
X0587095Y0035550D03*
X0587595Y0025050D03*
X0595095Y0025550D03*
X0593595Y0019550D03*
X0587595Y0020050D03*
X0571095Y0022550D03*
X0565595Y0007050D03*
X0596095Y0009550D03*
X0629095Y0010050D03*
X0557595Y0039550D03*
X0570595Y0048550D03*
X0564095Y0051050D03*
X0551095Y0053050D03*
X0587595Y0051050D03*
X0587595Y0046050D03*
X0587095Y0062550D03*
X0591595Y0062550D03*
X0596095Y0062550D03*
X0600595Y0062550D03*
X0605095Y0062550D03*
X0620595Y0065550D03*
X0599095Y0073050D03*
X0593095Y0079050D03*
X0587595Y0078550D03*
X0587095Y0073550D03*
X0576595Y0083550D03*
X0580095Y0090050D03*
X0596095Y0089550D03*
X0558095Y0074550D03*
X0509095Y0075550D03*
X0483595Y0072050D03*
X0457095Y0071550D03*
X0436595Y0067550D03*
X0406095Y0067550D03*
X0352095Y0063550D03*
X0344595Y0056050D03*
X0297495Y0060150D03*
X0346095Y0007550D03*
X0433095Y0033550D03*
X0596095Y0105550D03*
X0576095Y0111550D03*
X0587595Y0116050D03*
X0587595Y0121050D03*
X0595095Y0121550D03*
X0593595Y0115550D03*
X0591595Y0131550D03*
X0587095Y0131550D03*
X0596095Y0131550D03*
X0600595Y0131550D03*
X0605095Y0131550D03*
X0618095Y0130550D03*
X0626095Y0127550D03*
X0651095Y0131550D03*
X0655595Y0131550D03*
X0660095Y0131550D03*
X0664595Y0131550D03*
X0669095Y0131550D03*
X0682095Y0131550D03*
X0694595Y0131550D03*
X0715095Y0131550D03*
X0719595Y0131550D03*
X0724095Y0131550D03*
X0728595Y0131550D03*
X0733095Y0131550D03*
X0746095Y0130550D03*
X0723095Y0121550D03*
X0715595Y0121550D03*
X0715595Y0116550D03*
X0721595Y0115550D03*
X0704595Y0111550D03*
X0712095Y0105550D03*
X0724095Y0105550D03*
X0762595Y0106050D03*
X0762595Y0110550D03*
X0768595Y0106050D03*
X0769595Y0100550D03*
X0756595Y0089550D03*
X0743095Y0086050D03*
X0684595Y0065550D03*
X0669095Y0062550D03*
X0664595Y0062550D03*
X0660095Y0062550D03*
X0655595Y0062550D03*
X0651095Y0062550D03*
X0651595Y0073550D03*
X0651595Y0078550D03*
X0657095Y0079050D03*
X0663095Y0073050D03*
X0640595Y0083050D03*
X0660095Y0089550D03*
X0660095Y0105550D03*
X0657595Y0115550D03*
X0651595Y0116050D03*
X0651595Y0121050D03*
X0659095Y0121550D03*
X0640595Y0111050D03*
X0587595Y0142050D03*
X0587595Y0147050D03*
X0570595Y0144550D03*
X0572595Y0157550D03*
X0569095Y0161550D03*
X0587095Y0158550D03*
X0591595Y0158550D03*
X0596095Y0158550D03*
X0600595Y0158550D03*
X0605095Y0158550D03*
X0620595Y0161550D03*
X0599095Y0169050D03*
X0593095Y0175050D03*
X0587595Y0174550D03*
X0576595Y0179550D03*
X0566595Y0171550D03*
X0587595Y0170050D03*
X0596095Y0185550D03*
X0595595Y0201550D03*
X0593095Y0211550D03*
X0587095Y0212050D03*
X0587095Y0217050D03*
X0594595Y0217550D03*
X0595595Y0227550D03*
X0591095Y0227550D03*
X0586595Y0227550D03*
X0600095Y0227550D03*
X0604595Y0227550D03*
X0617595Y0226550D03*
X0640095Y0227550D03*
X0650595Y0227550D03*
X0655095Y0227550D03*
X0659595Y0227550D03*
X0664095Y0227550D03*
X0668595Y0227550D03*
X0681595Y0225550D03*
X0692095Y0225550D03*
X0714595Y0227550D03*
X0719095Y0227550D03*
X0723595Y0227550D03*
X0728095Y0227550D03*
X0732595Y0227550D03*
X0745595Y0226050D03*
X0722595Y0217550D03*
X0715095Y0217550D03*
X0715095Y0212550D03*
X0721095Y0211550D03*
X0715595Y0205050D03*
X0723595Y0201550D03*
X0716095Y0199550D03*
X0709595Y0196550D03*
X0707095Y0192550D03*
X0724095Y0185550D03*
X0733095Y0193550D03*
X0743095Y0195550D03*
X0757595Y0196550D03*
X0761595Y0192050D03*
X0768095Y0178050D03*
X0766595Y0172550D03*
X0771095Y0166550D03*
X0771095Y0162050D03*
X0771095Y0154050D03*
X0776095Y0154050D03*
X0769595Y0143550D03*
X0733095Y0158550D03*
X0728595Y0158550D03*
X0724095Y0158550D03*
X0719595Y0158550D03*
X0715095Y0158550D03*
X0715595Y0147550D03*
X0715595Y0142550D03*
X0698595Y0145050D03*
X0691095Y0158550D03*
X0684595Y0161550D03*
X0669095Y0158550D03*
X0664595Y0158550D03*
X0660095Y0158550D03*
X0655595Y0158550D03*
X0651095Y0158550D03*
X0651595Y0147550D03*
X0651595Y0142550D03*
X0634595Y0145050D03*
X0651595Y0169550D03*
X0663095Y0169050D03*
X0657095Y0175050D03*
X0651595Y0174550D03*
X0640595Y0179050D03*
X0660095Y0185550D03*
X0659595Y0201550D03*
X0657095Y0211550D03*
X0651095Y0212050D03*
X0651095Y0217050D03*
X0658595Y0217550D03*
X0640095Y0207550D03*
X0634095Y0205050D03*
X0576095Y0207550D03*
X0587095Y0238050D03*
X0587095Y0243550D03*
X0570095Y0240550D03*
X0586595Y0254550D03*
X0591095Y0254550D03*
X0595595Y0254550D03*
X0600095Y0254550D03*
X0604595Y0254550D03*
X0620095Y0257550D03*
X0626595Y0254550D03*
X0650595Y0254550D03*
X0655095Y0254550D03*
X0659595Y0254550D03*
X0664095Y0254550D03*
X0668595Y0254550D03*
X0684095Y0257550D03*
X0662595Y0265050D03*
X0650595Y0266050D03*
X0650595Y0271050D03*
X0656595Y0271050D03*
X0651095Y0280050D03*
X0659595Y0281550D03*
X0639595Y0275550D03*
X0598595Y0265050D03*
X0592595Y0271050D03*
X0587095Y0271050D03*
X0576095Y0275550D03*
X0595595Y0281550D03*
X0562095Y0287550D03*
X0587095Y0266050D03*
X0634095Y0240550D03*
X0651095Y0238050D03*
X0651095Y0243050D03*
X0698595Y0241050D03*
X0715095Y0238550D03*
X0715095Y0243550D03*
X0714595Y0254550D03*
X0719095Y0254550D03*
X0723595Y0254550D03*
X0728095Y0254550D03*
X0732595Y0254550D03*
X0748095Y0257050D03*
X0726595Y0265050D03*
X0715095Y0265550D03*
X0715095Y0270550D03*
X0720595Y0271050D03*
X0704095Y0275050D03*
X0709595Y0284550D03*
X0723595Y0281550D03*
X0764095Y0284550D03*
X0781095Y0254550D03*
X0780095Y0239050D03*
X0704095Y0207550D03*
X0704595Y0179550D03*
X0715595Y0174550D03*
X0721095Y0175050D03*
X0715595Y0169550D03*
X0727095Y0169050D03*
X0748595Y0161550D03*
X0837595Y0287550D03*
X0433095Y0125550D03*
X0397595Y0154050D03*
X0392095Y0157050D03*
X0352095Y0151050D03*
X0166595Y0175050D03*
X0150595Y0174050D03*
X0147095Y0183050D03*
X0163595Y0181550D03*
X0160595Y0192050D03*
X0143595Y0191050D03*
X0154095Y0166050D03*
X0157595Y0160050D03*
D14*
X0157595Y0194050D01*
X0159595Y0196050D01*
X0190095Y0196050D01*
X0198595Y0187550D01*
X0166595Y0175050D02*
X0166595Y0162050D01*
X0166595Y0157050D01*
X0175595Y0148050D01*
X0220595Y0148050D01*
X0288095Y0148050D01*
X0298595Y0137550D01*
X0248595Y0137550D02*
X0240095Y0146050D01*
X0177095Y0146050D01*
X0174095Y0146050D01*
X0163595Y0156550D01*
X0163595Y0181550D01*
X0160595Y0182550D02*
X0160595Y0192050D01*
X0156595Y0198050D02*
X0154095Y0195550D01*
X0154095Y0166050D01*
X0143095Y0164050D02*
X0143095Y0173550D01*
X0141895Y0174750D01*
X0126095Y0174750D01*
X0140645Y0185100D02*
X0143145Y0182600D01*
X0145095Y0180650D01*
X0145095Y0175550D01*
X0145095Y0156550D01*
X0147595Y0154050D01*
X0149095Y0152550D01*
X0149095Y0135050D01*
X0156595Y0127550D01*
X0160595Y0123550D01*
X0173095Y0111050D01*
X0194095Y0111050D01*
X0510595Y0111050D01*
X0524595Y0111050D01*
X0548095Y0087550D01*
X0560595Y0087304D02*
X0578967Y0087304D01*
X0579505Y0087081D02*
X0580686Y0087081D01*
X0581777Y0087533D01*
X0582612Y0088368D01*
X0583064Y0089460D01*
X0583064Y0090640D01*
X0582612Y0091732D01*
X0581777Y0092567D01*
X0580686Y0093018D01*
X0579505Y0093018D01*
X0578414Y0092567D01*
X0577579Y0091732D01*
X0577127Y0090640D01*
X0577127Y0089460D01*
X0577579Y0088368D01*
X0578414Y0087533D01*
X0579505Y0087081D01*
X0581224Y0087304D02*
X0594143Y0087304D01*
X0594414Y0087033D02*
X0595505Y0086581D01*
X0596686Y0086581D01*
X0597777Y0087033D01*
X0598612Y0087868D01*
X0599064Y0088960D01*
X0599064Y0090140D01*
X0598612Y0091232D01*
X0597777Y0092067D01*
X0596686Y0092518D01*
X0595505Y0092518D01*
X0594414Y0092067D01*
X0593579Y0091232D01*
X0593127Y0090140D01*
X0593127Y0088960D01*
X0593579Y0087868D01*
X0594414Y0087033D01*
X0593487Y0088090D02*
X0582334Y0088090D01*
X0582822Y0088876D02*
X0593161Y0088876D01*
X0593127Y0089662D02*
X0583064Y0089662D01*
X0583064Y0090448D02*
X0593254Y0090448D01*
X0593581Y0091234D02*
X0582818Y0091234D01*
X0582323Y0092020D02*
X0594367Y0092020D01*
X0597823Y0092020D02*
X0658367Y0092020D01*
X0658414Y0092067D02*
X0657579Y0091232D01*
X0657127Y0090140D01*
X0657127Y0088960D01*
X0657579Y0087868D01*
X0658414Y0087033D01*
X0659505Y0086581D01*
X0660686Y0086581D01*
X0661777Y0087033D01*
X0662612Y0087868D01*
X0663064Y0088960D01*
X0663064Y0090140D01*
X0662612Y0091232D01*
X0661777Y0092067D01*
X0660686Y0092518D01*
X0659505Y0092518D01*
X0658414Y0092067D01*
X0657581Y0091234D02*
X0598609Y0091234D01*
X0598936Y0090448D02*
X0657254Y0090448D01*
X0657127Y0089662D02*
X0599064Y0089662D01*
X0599029Y0088876D02*
X0657161Y0088876D01*
X0657487Y0088090D02*
X0598704Y0088090D01*
X0598048Y0087304D02*
X0658143Y0087304D01*
X0662048Y0087304D02*
X0740402Y0087304D01*
X0740579Y0087732D02*
X0740127Y0086640D01*
X0740127Y0085460D01*
X0740579Y0084368D01*
X0741414Y0083533D01*
X0742505Y0083081D01*
X0743686Y0083081D01*
X0744777Y0083533D01*
X0745612Y0084368D01*
X0746064Y0085460D01*
X0746064Y0086640D01*
X0745612Y0087732D01*
X0744777Y0088567D01*
X0743686Y0089018D01*
X0742505Y0089018D01*
X0741414Y0088567D01*
X0740579Y0087732D01*
X0740937Y0088090D02*
X0662704Y0088090D01*
X0663029Y0088876D02*
X0742161Y0088876D01*
X0744029Y0088876D02*
X0753661Y0088876D01*
X0753627Y0088960D02*
X0754079Y0087868D01*
X0754914Y0087033D01*
X0756005Y0086581D01*
X0757186Y0086581D01*
X0758277Y0087033D01*
X0759112Y0087868D01*
X0759564Y0088960D01*
X0759564Y0090140D01*
X0759112Y0091232D01*
X0758277Y0092067D01*
X0757186Y0092518D01*
X0756005Y0092518D01*
X0754914Y0092067D01*
X0754079Y0091232D01*
X0753627Y0090140D01*
X0753627Y0088960D01*
X0753627Y0089662D02*
X0663064Y0089662D01*
X0662936Y0090448D02*
X0753754Y0090448D01*
X0754081Y0091234D02*
X0662609Y0091234D01*
X0661823Y0092020D02*
X0754867Y0092020D01*
X0758323Y0092020D02*
X0785414Y0092020D01*
X0785414Y0092482D02*
X0785414Y0090818D01*
X0786051Y0089282D01*
X0787227Y0088105D01*
X0788763Y0087469D01*
X0790427Y0087469D01*
X0791964Y0088105D01*
X0793140Y0089282D01*
X0793776Y0090818D01*
X0793776Y0092482D01*
X0793140Y0094018D01*
X0791964Y0095195D01*
X0790427Y0095831D01*
X0788763Y0095831D01*
X0787227Y0095195D01*
X0786051Y0094018D01*
X0785414Y0092482D01*
X0785548Y0092806D02*
X0581199Y0092806D01*
X0578991Y0092806D02*
X0560595Y0092806D01*
X0560595Y0093592D02*
X0785874Y0093592D01*
X0786410Y0094378D02*
X0560595Y0094378D01*
X0560595Y0095164D02*
X0787196Y0095164D01*
X0788763Y0098369D02*
X0790427Y0098369D01*
X0791964Y0099005D01*
X0793140Y0100182D01*
X0793776Y0101718D01*
X0793776Y0103382D01*
X0793140Y0104918D01*
X0791964Y0106095D01*
X0790427Y0106731D01*
X0788763Y0106731D01*
X0787227Y0106095D01*
X0786051Y0104918D01*
X0785414Y0103382D01*
X0785414Y0101718D01*
X0786051Y0100182D01*
X0787227Y0099005D01*
X0788763Y0098369D01*
X0787139Y0099093D02*
X0772205Y0099093D01*
X0772112Y0098868D02*
X0772564Y0099960D01*
X0772564Y0101140D01*
X0772112Y0102232D01*
X0771277Y0103067D01*
X0770213Y0103507D01*
X0770277Y0103533D01*
X0771112Y0104368D01*
X0771564Y0105460D01*
X0771564Y0106640D01*
X0771112Y0107732D01*
X0770277Y0108567D01*
X0769186Y0109018D01*
X0768005Y0109018D01*
X0766914Y0108567D01*
X0766079Y0107732D01*
X0765627Y0106640D01*
X0765627Y0105460D01*
X0766079Y0104368D01*
X0766914Y0103533D01*
X0767977Y0103093D01*
X0767914Y0103067D01*
X0767079Y0102232D01*
X0766627Y0101140D01*
X0766627Y0099960D01*
X0767079Y0098868D01*
X0767914Y0098033D01*
X0769005Y0097581D01*
X0770186Y0097581D01*
X0771277Y0098033D01*
X0772112Y0098868D01*
X0771550Y0098307D02*
X0795549Y0098307D01*
X0795414Y0097982D02*
X0795414Y0096318D01*
X0796051Y0094782D01*
X0797227Y0093605D01*
X0798763Y0092969D01*
X0800427Y0092969D01*
X0801964Y0093605D01*
X0803140Y0094782D01*
X0803776Y0096318D01*
X0803776Y0097982D01*
X0803140Y0099518D01*
X0801964Y0100695D01*
X0800427Y0101331D01*
X0798763Y0101331D01*
X0797227Y0100695D01*
X0796051Y0099518D01*
X0795414Y0097982D01*
X0795414Y0097521D02*
X0560595Y0097521D01*
X0560595Y0096735D02*
X0795414Y0096735D01*
X0795567Y0095949D02*
X0560595Y0095949D01*
X0560595Y0098307D02*
X0767640Y0098307D01*
X0766986Y0099093D02*
X0560595Y0099093D01*
X0560595Y0099879D02*
X0766660Y0099879D01*
X0766627Y0100665D02*
X0560595Y0100665D01*
X0560595Y0101451D02*
X0766755Y0101451D01*
X0767084Y0102237D02*
X0560595Y0102237D01*
X0560595Y0103023D02*
X0594440Y0103023D01*
X0594414Y0103033D02*
X0595505Y0102581D01*
X0596686Y0102581D01*
X0597777Y0103033D01*
X0598612Y0103868D01*
X0599064Y0104960D01*
X0599064Y0106140D01*
X0598612Y0107232D01*
X0597777Y0108067D01*
X0596686Y0108518D01*
X0595505Y0108518D01*
X0594414Y0108067D01*
X0593579Y0107232D01*
X0593127Y0106140D01*
X0593127Y0104960D01*
X0593579Y0103868D01*
X0594414Y0103033D01*
X0593638Y0103809D02*
X0560595Y0103809D01*
X0560595Y0104594D02*
X0593278Y0104594D01*
X0593127Y0105380D02*
X0560595Y0105380D01*
X0560595Y0106166D02*
X0593137Y0106166D01*
X0593463Y0106952D02*
X0560595Y0106952D01*
X0560595Y0107738D02*
X0594085Y0107738D01*
X0598105Y0107738D02*
X0658085Y0107738D01*
X0658414Y0108067D02*
X0657579Y0107232D01*
X0657127Y0106140D01*
X0657127Y0104960D01*
X0657579Y0103868D01*
X0658414Y0103033D01*
X0659505Y0102581D01*
X0660686Y0102581D01*
X0661777Y0103033D01*
X0662612Y0103868D01*
X0663064Y0104960D01*
X0663064Y0106140D01*
X0662612Y0107232D01*
X0661777Y0108067D01*
X0660686Y0108518D01*
X0659505Y0108518D01*
X0658414Y0108067D01*
X0657463Y0106952D02*
X0598727Y0106952D01*
X0599053Y0106166D02*
X0657137Y0106166D01*
X0657127Y0105380D02*
X0599064Y0105380D01*
X0598912Y0104594D02*
X0657278Y0104594D01*
X0657638Y0103809D02*
X0598552Y0103809D01*
X0597751Y0103023D02*
X0658440Y0103023D01*
X0661751Y0103023D02*
X0710440Y0103023D01*
X0710414Y0103033D02*
X0711505Y0102581D01*
X0712686Y0102581D01*
X0713777Y0103033D01*
X0714612Y0103868D01*
X0715064Y0104960D01*
X0715064Y0106140D01*
X0714612Y0107232D01*
X0713777Y0108067D01*
X0712686Y0108518D01*
X0711505Y0108518D01*
X0710414Y0108067D01*
X0709579Y0107232D01*
X0709127Y0106140D01*
X0709127Y0104960D01*
X0709579Y0103868D01*
X0710414Y0103033D01*
X0709638Y0103809D02*
X0662552Y0103809D01*
X0662912Y0104594D02*
X0709278Y0104594D01*
X0709127Y0105380D02*
X0663064Y0105380D01*
X0663053Y0106166D02*
X0709137Y0106166D01*
X0709463Y0106952D02*
X0662727Y0106952D01*
X0662105Y0107738D02*
X0710085Y0107738D01*
X0714105Y0107738D02*
X0722085Y0107738D01*
X0722414Y0108067D02*
X0721579Y0107232D01*
X0721127Y0106140D01*
X0721127Y0104960D01*
X0721579Y0103868D01*
X0722414Y0103033D01*
X0723505Y0102581D01*
X0724686Y0102581D01*
X0725777Y0103033D01*
X0726612Y0103868D01*
X0727064Y0104960D01*
X0727064Y0106140D01*
X0726612Y0107232D01*
X0725777Y0108067D01*
X0724686Y0108518D01*
X0723505Y0108518D01*
X0722414Y0108067D01*
X0721463Y0106952D02*
X0714727Y0106952D01*
X0715053Y0106166D02*
X0721137Y0106166D01*
X0721127Y0105380D02*
X0715064Y0105380D01*
X0714912Y0104594D02*
X0721278Y0104594D01*
X0721638Y0103809D02*
X0714552Y0103809D01*
X0713751Y0103023D02*
X0722440Y0103023D01*
X0725751Y0103023D02*
X0767870Y0103023D01*
X0766638Y0103809D02*
X0764552Y0103809D01*
X0764277Y0103533D02*
X0765112Y0104368D01*
X0765564Y0105460D01*
X0765564Y0106640D01*
X0765112Y0107732D01*
X0764543Y0108300D01*
X0765112Y0108868D01*
X0765564Y0109960D01*
X0765564Y0111140D01*
X0765112Y0112232D01*
X0764277Y0113067D01*
X0763186Y0113518D01*
X0762005Y0113518D01*
X0760914Y0113067D01*
X0760079Y0112232D01*
X0759627Y0111140D01*
X0759627Y0109960D01*
X0760079Y0108868D01*
X0760647Y0108300D01*
X0760079Y0107732D01*
X0759627Y0106640D01*
X0759627Y0105460D01*
X0760079Y0104368D01*
X0760914Y0103533D01*
X0762005Y0103081D01*
X0763186Y0103081D01*
X0764277Y0103533D01*
X0765205Y0104594D02*
X0765985Y0104594D01*
X0765659Y0105380D02*
X0765531Y0105380D01*
X0765564Y0106166D02*
X0765627Y0106166D01*
X0765756Y0106952D02*
X0765434Y0106952D01*
X0765105Y0107738D02*
X0766085Y0107738D01*
X0766871Y0108524D02*
X0764767Y0108524D01*
X0765295Y0109310D02*
X0788664Y0109310D01*
X0788763Y0109269D02*
X0790427Y0109269D01*
X0791964Y0109905D01*
X0793140Y0111082D01*
X0793776Y0112618D01*
X0793776Y0114282D01*
X0793140Y0115818D01*
X0791964Y0116995D01*
X0790427Y0117631D01*
X0788763Y0117631D01*
X0787227Y0116995D01*
X0786051Y0115818D01*
X0785414Y0114282D01*
X0785414Y0112618D01*
X0786051Y0111082D01*
X0787227Y0109905D01*
X0788763Y0109269D01*
X0790526Y0109310D02*
X0795591Y0109310D01*
X0795414Y0108882D02*
X0795414Y0107218D01*
X0796051Y0105682D01*
X0797227Y0104505D01*
X0798763Y0103869D01*
X0800427Y0103869D01*
X0801964Y0104505D01*
X0803140Y0105682D01*
X0803776Y0107218D01*
X0803776Y0108882D01*
X0803140Y0110418D01*
X0801964Y0111595D01*
X0800427Y0112231D01*
X0798763Y0112231D01*
X0797227Y0111595D01*
X0796051Y0110418D01*
X0795414Y0108882D01*
X0795414Y0108524D02*
X0770319Y0108524D01*
X0771105Y0107738D02*
X0795414Y0107738D01*
X0795524Y0106952D02*
X0771434Y0106952D01*
X0771564Y0106166D02*
X0787400Y0106166D01*
X0786513Y0105380D02*
X0771531Y0105380D01*
X0771205Y0104594D02*
X0785916Y0104594D01*
X0785591Y0103809D02*
X0770552Y0103809D01*
X0771321Y0103023D02*
X0785414Y0103023D01*
X0785414Y0102237D02*
X0772106Y0102237D01*
X0772435Y0101451D02*
X0785525Y0101451D01*
X0785850Y0100665D02*
X0772564Y0100665D01*
X0772530Y0099879D02*
X0786353Y0099879D01*
X0792051Y0099093D02*
X0795874Y0099093D01*
X0796411Y0099879D02*
X0792837Y0099879D01*
X0793340Y0100665D02*
X0797197Y0100665D01*
X0793665Y0101451D02*
X0839201Y0101451D01*
X0839201Y0102237D02*
X0793776Y0102237D01*
X0793776Y0103023D02*
X0839201Y0103023D01*
X0839201Y0103809D02*
X0793599Y0103809D01*
X0793274Y0104594D02*
X0797138Y0104594D01*
X0796352Y0105380D02*
X0792678Y0105380D01*
X0791790Y0106166D02*
X0795850Y0106166D01*
X0795917Y0110096D02*
X0792154Y0110096D01*
X0792940Y0110882D02*
X0796514Y0110882D01*
X0797403Y0111668D02*
X0793382Y0111668D01*
X0793708Y0112454D02*
X0839201Y0112454D01*
X0839201Y0113240D02*
X0793776Y0113240D01*
X0793776Y0114025D02*
X0839201Y0114025D01*
X0839201Y0114811D02*
X0800771Y0114811D01*
X0800427Y0114669D02*
X0801964Y0115305D01*
X0803140Y0116482D01*
X0803776Y0118018D01*
X0803776Y0119682D01*
X0803140Y0121218D01*
X0801964Y0122395D01*
X0800427Y0123031D01*
X0798763Y0123031D01*
X0797227Y0122395D01*
X0796051Y0121218D01*
X0795414Y0119682D01*
X0795414Y0118018D01*
X0796051Y0116482D01*
X0797227Y0115305D01*
X0798763Y0114669D01*
X0800427Y0114669D01*
X0798420Y0114811D02*
X0793557Y0114811D01*
X0793231Y0115597D02*
X0796935Y0115597D01*
X0796149Y0116383D02*
X0792575Y0116383D01*
X0791542Y0117169D02*
X0795766Y0117169D01*
X0795440Y0117955D02*
X0723388Y0117955D01*
X0723277Y0118067D02*
X0724112Y0117232D01*
X0724564Y0116140D01*
X0724564Y0114960D01*
X0724112Y0113868D01*
X0723277Y0113033D01*
X0722186Y0112581D01*
X0721005Y0112581D01*
X0719914Y0113033D01*
X0719079Y0113868D01*
X0718627Y0114960D01*
X0718627Y0116140D01*
X0719079Y0117232D01*
X0719914Y0118067D01*
X0721005Y0118518D01*
X0722186Y0118518D01*
X0723277Y0118067D01*
X0723686Y0118581D02*
X0724777Y0119033D01*
X0725612Y0119868D01*
X0726064Y0120960D01*
X0726064Y0122140D01*
X0725612Y0123232D01*
X0724777Y0124067D01*
X0723686Y0124518D01*
X0722505Y0124518D01*
X0721414Y0124067D01*
X0720579Y0123232D01*
X0720127Y0122140D01*
X0720127Y0120960D01*
X0720579Y0119868D01*
X0721414Y0119033D01*
X0722505Y0118581D01*
X0723686Y0118581D01*
X0724070Y0118741D02*
X0795414Y0118741D01*
X0795414Y0119527D02*
X0725270Y0119527D01*
X0725796Y0120313D02*
X0788416Y0120313D01*
X0788763Y0120169D02*
X0790427Y0120169D01*
X0791964Y0120805D01*
X0793140Y0121982D01*
X0793776Y0123518D01*
X0793776Y0125182D01*
X0793140Y0126718D01*
X0791964Y0127895D01*
X0790427Y0128531D01*
X0788763Y0128531D01*
X0787227Y0127895D01*
X0786051Y0126718D01*
X0785414Y0125182D01*
X0785414Y0123518D01*
X0786051Y0121982D01*
X0787227Y0120805D01*
X0788763Y0120169D01*
X0790774Y0120313D02*
X0795675Y0120313D01*
X0796001Y0121099D02*
X0792257Y0121099D01*
X0793043Y0121885D02*
X0796717Y0121885D01*
X0797893Y0122670D02*
X0793425Y0122670D01*
X0793751Y0123456D02*
X0839201Y0123456D01*
X0839201Y0122670D02*
X0801297Y0122670D01*
X0802474Y0121885D02*
X0839201Y0121885D01*
X0839201Y0121099D02*
X0803189Y0121099D01*
X0803515Y0120313D02*
X0839201Y0120313D01*
X0839201Y0119527D02*
X0803776Y0119527D01*
X0803776Y0118741D02*
X0839201Y0118741D01*
X0839201Y0117955D02*
X0803750Y0117955D01*
X0803424Y0117169D02*
X0839201Y0117169D01*
X0839201Y0116383D02*
X0803041Y0116383D01*
X0802255Y0115597D02*
X0839201Y0115597D01*
X0839201Y0111668D02*
X0801787Y0111668D01*
X0802676Y0110882D02*
X0839201Y0110882D01*
X0839201Y0110096D02*
X0803273Y0110096D01*
X0803599Y0109310D02*
X0839201Y0109310D01*
X0839201Y0108524D02*
X0803776Y0108524D01*
X0803776Y0107738D02*
X0839201Y0107738D01*
X0839201Y0106952D02*
X0803666Y0106952D01*
X0803340Y0106166D02*
X0839201Y0106166D01*
X0839201Y0105380D02*
X0802839Y0105380D01*
X0802053Y0104594D02*
X0839201Y0104594D01*
X0839201Y0100665D02*
X0801993Y0100665D01*
X0802779Y0099879D02*
X0839201Y0099879D01*
X0839201Y0099093D02*
X0803316Y0099093D01*
X0803641Y0098307D02*
X0839201Y0098307D01*
X0839201Y0097521D02*
X0803776Y0097521D01*
X0803776Y0096735D02*
X0839201Y0096735D01*
X0839201Y0095949D02*
X0803623Y0095949D01*
X0803298Y0095164D02*
X0839201Y0095164D01*
X0839201Y0094378D02*
X0802736Y0094378D01*
X0801930Y0093592D02*
X0839201Y0093592D01*
X0839201Y0092806D02*
X0793642Y0092806D01*
X0793776Y0092020D02*
X0839201Y0092020D01*
X0839201Y0091234D02*
X0793776Y0091234D01*
X0793623Y0090448D02*
X0839201Y0090448D01*
X0839201Y0089662D02*
X0802096Y0089662D01*
X0801964Y0089795D02*
X0800427Y0090431D01*
X0798763Y0090431D01*
X0797227Y0089795D01*
X0796051Y0088618D01*
X0795414Y0087082D01*
X0795414Y0085418D01*
X0796051Y0083882D01*
X0797227Y0082705D01*
X0798763Y0082069D01*
X0800427Y0082069D01*
X0801964Y0082705D01*
X0803140Y0083882D01*
X0803776Y0085418D01*
X0803776Y0087082D01*
X0803140Y0088618D01*
X0801964Y0089795D01*
X0802882Y0088876D02*
X0839201Y0088876D01*
X0839201Y0088090D02*
X0803358Y0088090D01*
X0803684Y0087304D02*
X0839201Y0087304D01*
X0839201Y0086518D02*
X0803776Y0086518D01*
X0803776Y0085733D02*
X0839201Y0085733D01*
X0839201Y0084947D02*
X0803581Y0084947D01*
X0803255Y0084161D02*
X0839201Y0084161D01*
X0839201Y0083375D02*
X0802633Y0083375D01*
X0801682Y0082589D02*
X0839201Y0082589D01*
X0839201Y0081803D02*
X0793726Y0081803D01*
X0793776Y0081682D02*
X0793140Y0083218D01*
X0791964Y0084395D01*
X0790427Y0085031D01*
X0788763Y0085031D01*
X0787227Y0084395D01*
X0786051Y0083218D01*
X0785414Y0081682D01*
X0785414Y0080018D01*
X0786051Y0078482D01*
X0787227Y0077305D01*
X0788763Y0076669D01*
X0790427Y0076669D01*
X0791964Y0077305D01*
X0793140Y0078482D01*
X0793776Y0080018D01*
X0793776Y0081682D01*
X0793776Y0081017D02*
X0839201Y0081017D01*
X0839201Y0080231D02*
X0793776Y0080231D01*
X0793539Y0079445D02*
X0798556Y0079445D01*
X0798763Y0079531D02*
X0797227Y0078895D01*
X0796051Y0077718D01*
X0795414Y0076182D01*
X0795414Y0074518D01*
X0796051Y0072982D01*
X0797227Y0071805D01*
X0798763Y0071169D01*
X0800427Y0071169D01*
X0801964Y0071805D01*
X0803140Y0072982D01*
X0803776Y0074518D01*
X0803776Y0076182D01*
X0803140Y0077718D01*
X0801964Y0078895D01*
X0800427Y0079531D01*
X0798763Y0079531D01*
X0800634Y0079445D02*
X0839201Y0079445D01*
X0839201Y0078659D02*
X0802199Y0078659D01*
X0802985Y0077873D02*
X0839201Y0077873D01*
X0839201Y0077088D02*
X0803401Y0077088D01*
X0803727Y0076302D02*
X0839201Y0076302D01*
X0839201Y0075516D02*
X0803776Y0075516D01*
X0803776Y0074730D02*
X0839201Y0074730D01*
X0839201Y0073944D02*
X0803538Y0073944D01*
X0803213Y0073158D02*
X0839201Y0073158D01*
X0839201Y0072372D02*
X0802530Y0072372D01*
X0801434Y0071586D02*
X0839201Y0071586D01*
X0839201Y0070800D02*
X0793769Y0070800D01*
X0793776Y0070782D02*
X0793140Y0072318D01*
X0791964Y0073495D01*
X0790427Y0074131D01*
X0788763Y0074131D01*
X0787227Y0073495D01*
X0786051Y0072318D01*
X0785414Y0070782D01*
X0785414Y0069118D01*
X0786051Y0067582D01*
X0787227Y0066405D01*
X0788763Y0065769D01*
X0790427Y0065769D01*
X0791964Y0066405D01*
X0793140Y0067582D01*
X0793776Y0069118D01*
X0793776Y0070782D01*
X0793776Y0070014D02*
X0839201Y0070014D01*
X0839201Y0069228D02*
X0793776Y0069228D01*
X0793496Y0068442D02*
X0798067Y0068442D01*
X0798763Y0068731D02*
X0797227Y0068095D01*
X0796051Y0066918D01*
X0795414Y0065382D01*
X0795414Y0063718D01*
X0796051Y0062182D01*
X0797227Y0061005D01*
X0798763Y0060369D01*
X0800427Y0060369D01*
X0801964Y0061005D01*
X0803140Y0062182D01*
X0803776Y0063718D01*
X0803776Y0065382D01*
X0803140Y0066918D01*
X0801964Y0068095D01*
X0800427Y0068731D01*
X0798763Y0068731D01*
X0796789Y0067657D02*
X0793171Y0067657D01*
X0792429Y0066871D02*
X0796031Y0066871D01*
X0795705Y0066085D02*
X0791189Y0066085D01*
X0790427Y0063231D02*
X0788763Y0063231D01*
X0787227Y0062595D01*
X0786051Y0061418D01*
X0785414Y0059882D01*
X0785414Y0058218D01*
X0786051Y0056682D01*
X0787227Y0055505D01*
X0788763Y0054869D01*
X0790427Y0054869D01*
X0791964Y0055505D01*
X0793140Y0056682D01*
X0793776Y0058218D01*
X0793776Y0059882D01*
X0793140Y0061418D01*
X0791964Y0062595D01*
X0790427Y0063231D01*
X0791127Y0062941D02*
X0795736Y0062941D01*
X0795414Y0063727D02*
X0671821Y0063727D01*
X0671612Y0064232D02*
X0670777Y0065067D01*
X0669686Y0065518D01*
X0668505Y0065518D01*
X0667414Y0065067D01*
X0666845Y0064498D01*
X0666277Y0065067D01*
X0665186Y0065518D01*
X0664005Y0065518D01*
X0662914Y0065067D01*
X0662345Y0064498D01*
X0661777Y0065067D01*
X0660686Y0065518D01*
X0659505Y0065518D01*
X0658414Y0065067D01*
X0657845Y0064498D01*
X0657277Y0065067D01*
X0656186Y0065518D01*
X0655005Y0065518D01*
X0653914Y0065067D01*
X0653345Y0064498D01*
X0652777Y0065067D01*
X0651686Y0065518D01*
X0650505Y0065518D01*
X0649414Y0065067D01*
X0648579Y0064232D01*
X0648127Y0063140D01*
X0648127Y0061960D01*
X0648579Y0060868D01*
X0649414Y0060033D01*
X0650505Y0059581D01*
X0651686Y0059581D01*
X0652777Y0060033D01*
X0653345Y0060602D01*
X0653914Y0060033D01*
X0655005Y0059581D01*
X0656186Y0059581D01*
X0657277Y0060033D01*
X0657845Y0060602D01*
X0658414Y0060033D01*
X0659505Y0059581D01*
X0660686Y0059581D01*
X0661777Y0060033D01*
X0662345Y0060602D01*
X0662914Y0060033D01*
X0664005Y0059581D01*
X0665186Y0059581D01*
X0666277Y0060033D01*
X0666845Y0060602D01*
X0667414Y0060033D01*
X0668505Y0059581D01*
X0669686Y0059581D01*
X0670777Y0060033D01*
X0671612Y0060868D01*
X0672064Y0061960D01*
X0672064Y0063140D01*
X0671612Y0064232D01*
X0671330Y0064513D02*
X0795414Y0064513D01*
X0795414Y0065299D02*
X0670216Y0065299D01*
X0667974Y0065299D02*
X0665716Y0065299D01*
X0666830Y0064513D02*
X0666860Y0064513D01*
X0663474Y0065299D02*
X0661216Y0065299D01*
X0662330Y0064513D02*
X0662360Y0064513D01*
X0658974Y0065299D02*
X0656716Y0065299D01*
X0657830Y0064513D02*
X0657860Y0064513D01*
X0654474Y0065299D02*
X0652216Y0065299D01*
X0653330Y0064513D02*
X0653360Y0064513D01*
X0649974Y0065299D02*
X0606216Y0065299D01*
X0605686Y0065518D02*
X0606777Y0065067D01*
X0607612Y0064232D01*
X0608064Y0063140D01*
X0608064Y0061960D01*
X0607612Y0060868D01*
X0606777Y0060033D01*
X0605686Y0059581D01*
X0604505Y0059581D01*
X0603414Y0060033D01*
X0602845Y0060602D01*
X0602277Y0060033D01*
X0601186Y0059581D01*
X0600005Y0059581D01*
X0598914Y0060033D01*
X0598345Y0060602D01*
X0597777Y0060033D01*
X0596686Y0059581D01*
X0595505Y0059581D01*
X0594414Y0060033D01*
X0593845Y0060602D01*
X0593277Y0060033D01*
X0592186Y0059581D01*
X0591005Y0059581D01*
X0589914Y0060033D01*
X0589345Y0060602D01*
X0588777Y0060033D01*
X0587686Y0059581D01*
X0586505Y0059581D01*
X0585414Y0060033D01*
X0584579Y0060868D01*
X0584127Y0061960D01*
X0584127Y0063140D01*
X0584579Y0064232D01*
X0585414Y0065067D01*
X0586505Y0065518D01*
X0587686Y0065518D01*
X0588777Y0065067D01*
X0589345Y0064498D01*
X0589914Y0065067D01*
X0591005Y0065518D01*
X0592186Y0065518D01*
X0593277Y0065067D01*
X0593845Y0064498D01*
X0594414Y0065067D01*
X0595505Y0065518D01*
X0596686Y0065518D01*
X0597777Y0065067D01*
X0598345Y0064498D01*
X0598914Y0065067D01*
X0600005Y0065518D01*
X0601186Y0065518D01*
X0602277Y0065067D01*
X0602845Y0064498D01*
X0603414Y0065067D01*
X0604505Y0065518D01*
X0605686Y0065518D01*
X0603974Y0065299D02*
X0601716Y0065299D01*
X0602830Y0064513D02*
X0602860Y0064513D01*
X0599474Y0065299D02*
X0597216Y0065299D01*
X0598330Y0064513D02*
X0598360Y0064513D01*
X0594974Y0065299D02*
X0592716Y0065299D01*
X0593830Y0064513D02*
X0593860Y0064513D01*
X0590474Y0065299D02*
X0588216Y0065299D01*
X0589330Y0064513D02*
X0589360Y0064513D01*
X0585974Y0065299D02*
X0560595Y0065299D01*
X0560595Y0066085D02*
X0788001Y0066085D01*
X0786761Y0066871D02*
X0560595Y0066871D01*
X0560595Y0067657D02*
X0786020Y0067657D01*
X0785694Y0068442D02*
X0560595Y0068442D01*
X0560595Y0069228D02*
X0785414Y0069228D01*
X0785414Y0070014D02*
X0560595Y0070014D01*
X0560595Y0070800D02*
X0585977Y0070800D01*
X0586505Y0070581D02*
X0587686Y0070581D01*
X0588777Y0071033D01*
X0589612Y0071868D01*
X0590064Y0072960D01*
X0590064Y0074140D01*
X0589612Y0075232D01*
X0588947Y0075897D01*
X0589277Y0076033D01*
X0590112Y0076868D01*
X0590449Y0077682D01*
X0590579Y0077368D01*
X0591414Y0076533D01*
X0592505Y0076081D01*
X0593686Y0076081D01*
X0594777Y0076533D01*
X0595612Y0077368D01*
X0596064Y0078460D01*
X0596064Y0079640D01*
X0595612Y0080732D01*
X0594777Y0081567D01*
X0593686Y0082018D01*
X0592505Y0082018D01*
X0591414Y0081567D01*
X0590579Y0080732D01*
X0590242Y0079918D01*
X0590112Y0080232D01*
X0589277Y0081067D01*
X0588186Y0081518D01*
X0587005Y0081518D01*
X0585914Y0081067D01*
X0585079Y0080232D01*
X0584627Y0079140D01*
X0584627Y0077960D01*
X0585079Y0076868D01*
X0585744Y0076203D01*
X0585414Y0076067D01*
X0584579Y0075232D01*
X0584127Y0074140D01*
X0584127Y0072960D01*
X0584579Y0071868D01*
X0585414Y0071033D01*
X0586505Y0070581D01*
X0588214Y0070800D02*
X0597147Y0070800D01*
X0597414Y0070533D02*
X0596579Y0071368D01*
X0596127Y0072460D01*
X0596127Y0073640D01*
X0596579Y0074732D01*
X0597414Y0075567D01*
X0598505Y0076018D01*
X0599686Y0076018D01*
X0600777Y0075567D01*
X0601612Y0074732D01*
X0602064Y0073640D01*
X0602064Y0072460D01*
X0601612Y0071368D01*
X0600777Y0070533D01*
X0599686Y0070081D01*
X0598505Y0070081D01*
X0597414Y0070533D01*
X0596488Y0071586D02*
X0589329Y0071586D01*
X0589820Y0072372D02*
X0596163Y0072372D01*
X0596127Y0073158D02*
X0590064Y0073158D01*
X0590064Y0073944D02*
X0596252Y0073944D01*
X0596578Y0074730D02*
X0589820Y0074730D01*
X0589328Y0075516D02*
X0597363Y0075516D01*
X0595331Y0077088D02*
X0648988Y0077088D01*
X0649079Y0076868D02*
X0649897Y0076050D01*
X0649079Y0075232D01*
X0648627Y0074140D01*
X0648627Y0072960D01*
X0649079Y0071868D01*
X0649914Y0071033D01*
X0651005Y0070581D01*
X0652186Y0070581D01*
X0653277Y0071033D01*
X0654112Y0071868D01*
X0654564Y0072960D01*
X0654564Y0074140D01*
X0654112Y0075232D01*
X0653293Y0076050D01*
X0654112Y0076868D01*
X0654449Y0077682D01*
X0654579Y0077368D01*
X0655414Y0076533D01*
X0656505Y0076081D01*
X0657686Y0076081D01*
X0658777Y0076533D01*
X0659612Y0077368D01*
X0660064Y0078460D01*
X0660064Y0079640D01*
X0659612Y0080732D01*
X0658777Y0081567D01*
X0657686Y0082018D01*
X0656505Y0082018D01*
X0655414Y0081567D01*
X0654579Y0080732D01*
X0654242Y0079918D01*
X0654112Y0080232D01*
X0653277Y0081067D01*
X0652186Y0081518D01*
X0651005Y0081518D01*
X0649914Y0081067D01*
X0649079Y0080232D01*
X0648627Y0079140D01*
X0648627Y0077960D01*
X0649079Y0076868D01*
X0649645Y0076302D02*
X0594217Y0076302D01*
X0591973Y0076302D02*
X0589545Y0076302D01*
X0590202Y0077088D02*
X0590859Y0077088D01*
X0590371Y0080231D02*
X0590112Y0080231D01*
X0590864Y0081017D02*
X0589326Y0081017D01*
X0591984Y0081803D02*
X0560595Y0081803D01*
X0560595Y0081017D02*
X0585864Y0081017D01*
X0585078Y0080231D02*
X0560595Y0080231D01*
X0560595Y0079445D02*
X0584753Y0079445D01*
X0584627Y0078659D02*
X0560595Y0078659D01*
X0560595Y0077873D02*
X0584662Y0077873D01*
X0584988Y0077088D02*
X0560595Y0077088D01*
X0560595Y0076302D02*
X0585645Y0076302D01*
X0584863Y0075516D02*
X0560908Y0075516D01*
X0561064Y0075140D02*
X0560612Y0076232D01*
X0560595Y0076248D01*
X0560595Y0289156D01*
X0839201Y0289156D01*
X0839201Y0003444D01*
X0560595Y0003444D01*
X0560595Y0072852D01*
X0560612Y0072868D01*
X0561064Y0073960D01*
X0561064Y0075140D01*
X0561064Y0074730D02*
X0584371Y0074730D01*
X0584127Y0073944D02*
X0561057Y0073944D01*
X0560732Y0073158D02*
X0584127Y0073158D01*
X0584370Y0072372D02*
X0560595Y0072372D01*
X0560595Y0071586D02*
X0584861Y0071586D01*
X0584860Y0064513D02*
X0560595Y0064513D01*
X0560595Y0063727D02*
X0584370Y0063727D01*
X0584127Y0062941D02*
X0560595Y0062941D01*
X0560595Y0062155D02*
X0584127Y0062155D01*
X0584371Y0061369D02*
X0560595Y0061369D01*
X0560595Y0060583D02*
X0584864Y0060583D01*
X0585983Y0059797D02*
X0560595Y0059797D01*
X0560595Y0059012D02*
X0785414Y0059012D01*
X0785414Y0059797D02*
X0670207Y0059797D01*
X0671327Y0060583D02*
X0785705Y0060583D01*
X0786030Y0061369D02*
X0671819Y0061369D01*
X0672064Y0062155D02*
X0786787Y0062155D01*
X0788063Y0062941D02*
X0672064Y0062941D01*
X0667983Y0059797D02*
X0665707Y0059797D01*
X0666827Y0060583D02*
X0666864Y0060583D01*
X0663483Y0059797D02*
X0661207Y0059797D01*
X0662327Y0060583D02*
X0662364Y0060583D01*
X0658983Y0059797D02*
X0656707Y0059797D01*
X0657827Y0060583D02*
X0657864Y0060583D01*
X0654483Y0059797D02*
X0652207Y0059797D01*
X0653327Y0060583D02*
X0653364Y0060583D01*
X0649983Y0059797D02*
X0606207Y0059797D01*
X0607327Y0060583D02*
X0648864Y0060583D01*
X0648371Y0061369D02*
X0607819Y0061369D01*
X0608064Y0062155D02*
X0648127Y0062155D01*
X0648127Y0062941D02*
X0608064Y0062941D01*
X0607821Y0063727D02*
X0648370Y0063727D01*
X0648860Y0064513D02*
X0607330Y0064513D01*
X0603983Y0059797D02*
X0601707Y0059797D01*
X0602827Y0060583D02*
X0602864Y0060583D01*
X0599483Y0059797D02*
X0597207Y0059797D01*
X0598327Y0060583D02*
X0598364Y0060583D01*
X0594983Y0059797D02*
X0592707Y0059797D01*
X0593827Y0060583D02*
X0593864Y0060583D01*
X0590483Y0059797D02*
X0588207Y0059797D01*
X0589327Y0060583D02*
X0589364Y0060583D01*
X0588186Y0054018D02*
X0587005Y0054018D01*
X0585914Y0053567D01*
X0585079Y0052732D01*
X0584627Y0051640D01*
X0584627Y0050460D01*
X0585079Y0049368D01*
X0585897Y0048550D01*
X0585079Y0047732D01*
X0584627Y0046640D01*
X0584627Y0045460D01*
X0585079Y0044368D01*
X0585914Y0043533D01*
X0587005Y0043081D01*
X0588186Y0043081D01*
X0589277Y0043533D01*
X0590112Y0044368D01*
X0590564Y0045460D01*
X0590564Y0046640D01*
X0590112Y0047732D01*
X0589293Y0048550D01*
X0590112Y0049368D01*
X0590564Y0050460D01*
X0590564Y0051640D01*
X0590112Y0052732D01*
X0589277Y0053567D01*
X0588186Y0054018D01*
X0589333Y0053510D02*
X0649857Y0053510D01*
X0649914Y0053567D02*
X0649079Y0052732D01*
X0648627Y0051640D01*
X0648627Y0050460D01*
X0649079Y0049368D01*
X0649897Y0048550D01*
X0649079Y0047732D01*
X0648627Y0046640D01*
X0648627Y0045460D01*
X0649079Y0044368D01*
X0649914Y0043533D01*
X0651005Y0043081D01*
X0652186Y0043081D01*
X0653277Y0043533D01*
X0654112Y0044368D01*
X0654564Y0045460D01*
X0654564Y0046640D01*
X0654112Y0047732D01*
X0653293Y0048550D01*
X0654112Y0049368D01*
X0654564Y0050460D01*
X0654564Y0051640D01*
X0654112Y0052732D01*
X0653277Y0053567D01*
X0652186Y0054018D01*
X0651005Y0054018D01*
X0649914Y0053567D01*
X0649076Y0052724D02*
X0590115Y0052724D01*
X0590440Y0051938D02*
X0648750Y0051938D01*
X0648627Y0051152D02*
X0590564Y0051152D01*
X0590525Y0050366D02*
X0648665Y0050366D01*
X0648991Y0049581D02*
X0590200Y0049581D01*
X0589538Y0048795D02*
X0649652Y0048795D01*
X0649356Y0048009D02*
X0589834Y0048009D01*
X0590322Y0047223D02*
X0648868Y0047223D01*
X0648627Y0046437D02*
X0590564Y0046437D01*
X0590564Y0045651D02*
X0648627Y0045651D01*
X0648873Y0044865D02*
X0590317Y0044865D01*
X0589822Y0044079D02*
X0649368Y0044079D01*
X0650493Y0043293D02*
X0588697Y0043293D01*
X0586493Y0043293D02*
X0560595Y0043293D01*
X0560595Y0042507D02*
X0839201Y0042507D01*
X0839201Y0041721D02*
X0560595Y0041721D01*
X0560112Y0041232D02*
X0559277Y0042067D01*
X0558186Y0042518D01*
X0557005Y0042518D01*
X0555914Y0042067D01*
X0555079Y0041232D01*
X0554627Y0040140D01*
X0554627Y0038960D01*
X0555079Y0037868D01*
X0555914Y0037033D01*
X0557005Y0036581D01*
X0558186Y0036581D01*
X0559277Y0037033D01*
X0560112Y0037868D01*
X0560564Y0038960D01*
X0560564Y0040140D01*
X0560112Y0041232D01*
X0560234Y0040936D02*
X0568095Y0040936D01*
X0568095Y0041721D02*
X0559622Y0041721D01*
X0560595Y0040936D02*
X0839201Y0040936D01*
X0839201Y0040150D02*
X0560595Y0040150D01*
X0560560Y0040150D02*
X0568095Y0040150D01*
X0568095Y0039364D02*
X0560564Y0039364D01*
X0560595Y0039364D02*
X0839201Y0039364D01*
X0839201Y0038578D02*
X0560595Y0038578D01*
X0560406Y0038578D02*
X0568095Y0038578D01*
X0568095Y0037792D02*
X0560035Y0037792D01*
X0560595Y0037792D02*
X0585139Y0037792D01*
X0585414Y0038067D02*
X0584579Y0037232D01*
X0584127Y0036140D01*
X0584127Y0034960D01*
X0584579Y0033868D01*
X0585414Y0033033D01*
X0586505Y0032581D01*
X0587686Y0032581D01*
X0588777Y0033033D01*
X0589345Y0033602D01*
X0589914Y0033033D01*
X0591005Y0032581D01*
X0592186Y0032581D01*
X0593277Y0033033D01*
X0593845Y0033602D01*
X0594414Y0033033D01*
X0595505Y0032581D01*
X0596686Y0032581D01*
X0597777Y0033033D01*
X0598345Y0033602D01*
X0598914Y0033033D01*
X0600005Y0032581D01*
X0601186Y0032581D01*
X0602277Y0033033D01*
X0602845Y0033602D01*
X0603414Y0033033D01*
X0604505Y0032581D01*
X0605686Y0032581D01*
X0606777Y0033033D01*
X0607612Y0033868D01*
X0608064Y0034960D01*
X0608064Y0036140D01*
X0607612Y0037232D01*
X0606777Y0038067D01*
X0605686Y0038518D01*
X0604505Y0038518D01*
X0603414Y0038067D01*
X0602845Y0037498D01*
X0602277Y0038067D01*
X0601186Y0038518D01*
X0600005Y0038518D01*
X0598914Y0038067D01*
X0598345Y0037498D01*
X0597777Y0038067D01*
X0596686Y0038518D01*
X0595505Y0038518D01*
X0594414Y0038067D01*
X0593845Y0037498D01*
X0593277Y0038067D01*
X0592186Y0038518D01*
X0591005Y0038518D01*
X0589914Y0038067D01*
X0589345Y0037498D01*
X0588777Y0038067D01*
X0587686Y0038518D01*
X0586505Y0038518D01*
X0585414Y0038067D01*
X0584485Y0037006D02*
X0560595Y0037006D01*
X0560595Y0036220D02*
X0584160Y0036220D01*
X0584127Y0035434D02*
X0560595Y0035434D01*
X0560595Y0034648D02*
X0584256Y0034648D01*
X0584585Y0033862D02*
X0560595Y0033862D01*
X0560595Y0033076D02*
X0585371Y0033076D01*
X0588820Y0033076D02*
X0589871Y0033076D01*
X0593320Y0033076D02*
X0594371Y0033076D01*
X0597820Y0033076D02*
X0598871Y0033076D01*
X0602320Y0033076D02*
X0603371Y0033076D01*
X0606820Y0033076D02*
X0649371Y0033076D01*
X0649414Y0033033D02*
X0650505Y0032581D01*
X0651686Y0032581D01*
X0652777Y0033033D01*
X0653345Y0033602D01*
X0653914Y0033033D01*
X0655005Y0032581D01*
X0656186Y0032581D01*
X0657277Y0033033D01*
X0657845Y0033602D01*
X0658414Y0033033D01*
X0659505Y0032581D01*
X0660686Y0032581D01*
X0661777Y0033033D01*
X0662345Y0033602D01*
X0662914Y0033033D01*
X0664005Y0032581D01*
X0665186Y0032581D01*
X0666277Y0033033D01*
X0666845Y0033602D01*
X0667414Y0033033D01*
X0668505Y0032581D01*
X0669686Y0032581D01*
X0670777Y0033033D01*
X0671612Y0033868D01*
X0672064Y0034960D01*
X0672064Y0036140D01*
X0671612Y0037232D01*
X0670777Y0038067D01*
X0669686Y0038518D01*
X0668505Y0038518D01*
X0667414Y0038067D01*
X0666845Y0037498D01*
X0666277Y0038067D01*
X0665186Y0038518D01*
X0664005Y0038518D01*
X0662914Y0038067D01*
X0662345Y0037498D01*
X0661777Y0038067D01*
X0660686Y0038518D01*
X0659505Y0038518D01*
X0658414Y0038067D01*
X0657845Y0037498D01*
X0657277Y0038067D01*
X0656186Y0038518D01*
X0655005Y0038518D01*
X0653914Y0038067D01*
X0653345Y0037498D01*
X0652777Y0038067D01*
X0651686Y0038518D01*
X0650505Y0038518D01*
X0649414Y0038067D01*
X0648579Y0037232D01*
X0648127Y0036140D01*
X0648127Y0034960D01*
X0648579Y0033868D01*
X0649414Y0033033D01*
X0648585Y0033862D02*
X0607606Y0033862D01*
X0607935Y0034648D02*
X0648256Y0034648D01*
X0648127Y0035434D02*
X0608064Y0035434D01*
X0608031Y0036220D02*
X0648160Y0036220D01*
X0648485Y0037006D02*
X0607705Y0037006D01*
X0607051Y0037792D02*
X0649139Y0037792D01*
X0653051Y0037792D02*
X0653639Y0037792D01*
X0657551Y0037792D02*
X0658139Y0037792D01*
X0662051Y0037792D02*
X0662639Y0037792D01*
X0666551Y0037792D02*
X0667139Y0037792D01*
X0671051Y0037792D02*
X0839201Y0037792D01*
X0839201Y0037006D02*
X0671705Y0037006D01*
X0672031Y0036220D02*
X0839201Y0036220D01*
X0839201Y0035434D02*
X0672064Y0035434D01*
X0671935Y0034648D02*
X0839201Y0034648D01*
X0839201Y0033862D02*
X0671606Y0033862D01*
X0670820Y0033076D02*
X0839201Y0033076D01*
X0839201Y0032291D02*
X0560595Y0032291D01*
X0560595Y0031505D02*
X0839201Y0031505D01*
X0839201Y0030719D02*
X0796551Y0030719D01*
X0796521Y0030731D02*
X0792669Y0030731D01*
X0789111Y0029257D01*
X0786388Y0026534D01*
X0784914Y0022976D01*
X0784914Y0019124D01*
X0786388Y0015566D01*
X0789111Y0012843D01*
X0792669Y0011369D01*
X0796521Y0011369D01*
X0800079Y0012843D01*
X0802802Y0015566D01*
X0804276Y0019124D01*
X0804276Y0022976D01*
X0802802Y0026534D01*
X0800079Y0029257D01*
X0796521Y0030731D01*
X0798448Y0029933D02*
X0839201Y0029933D01*
X0839201Y0029147D02*
X0800189Y0029147D01*
X0800975Y0028361D02*
X0839201Y0028361D01*
X0839201Y0027575D02*
X0801761Y0027575D01*
X0802547Y0026789D02*
X0839201Y0026789D01*
X0839201Y0026003D02*
X0803022Y0026003D01*
X0803348Y0025217D02*
X0839201Y0025217D01*
X0839201Y0024431D02*
X0803673Y0024431D01*
X0803999Y0023645D02*
X0839201Y0023645D01*
X0839201Y0022860D02*
X0804276Y0022860D01*
X0804276Y0022074D02*
X0839201Y0022074D01*
X0839201Y0021288D02*
X0804276Y0021288D01*
X0804276Y0020502D02*
X0839201Y0020502D01*
X0839201Y0019716D02*
X0804276Y0019716D01*
X0804196Y0018930D02*
X0839201Y0018930D01*
X0839201Y0018144D02*
X0803870Y0018144D01*
X0803545Y0017358D02*
X0839201Y0017358D01*
X0839201Y0016572D02*
X0803219Y0016572D01*
X0802894Y0015786D02*
X0839201Y0015786D01*
X0839201Y0015000D02*
X0802237Y0015000D01*
X0801451Y0014215D02*
X0839201Y0014215D01*
X0839201Y0013429D02*
X0800665Y0013429D01*
X0799596Y0012643D02*
X0839201Y0012643D01*
X0839201Y0011857D02*
X0797699Y0011857D01*
X0791492Y0011857D02*
X0671267Y0011857D01*
X0671112Y0012232D02*
X0670277Y0013067D01*
X0669186Y0013518D01*
X0668005Y0013518D01*
X0666914Y0013067D01*
X0666079Y0012232D01*
X0665627Y0011140D01*
X0665627Y0009960D01*
X0666079Y0008868D01*
X0666914Y0008033D01*
X0668005Y0007581D01*
X0669186Y0007581D01*
X0670277Y0008033D01*
X0671112Y0008868D01*
X0671564Y0009960D01*
X0671564Y0011140D01*
X0671112Y0012232D01*
X0670701Y0012643D02*
X0789594Y0012643D01*
X0788525Y0013429D02*
X0669403Y0013429D01*
X0667788Y0013429D02*
X0560595Y0013429D01*
X0560595Y0014215D02*
X0787739Y0014215D01*
X0786954Y0015000D02*
X0560595Y0015000D01*
X0560595Y0015786D02*
X0786297Y0015786D01*
X0785971Y0016572D02*
X0560595Y0016572D01*
X0560595Y0017358D02*
X0586337Y0017358D01*
X0585914Y0017533D02*
X0587005Y0017081D01*
X0588186Y0017081D01*
X0589277Y0017533D01*
X0590112Y0018368D01*
X0590564Y0019460D01*
X0590564Y0020640D01*
X0590112Y0021732D01*
X0589293Y0022550D01*
X0590112Y0023368D01*
X0590564Y0024460D01*
X0590564Y0025640D01*
X0590112Y0026732D01*
X0589277Y0027567D01*
X0588186Y0028018D01*
X0587005Y0028018D01*
X0585914Y0027567D01*
X0585079Y0026732D01*
X0584627Y0025640D01*
X0584627Y0024460D01*
X0585079Y0023368D01*
X0585897Y0022550D01*
X0585079Y0021732D01*
X0584627Y0020640D01*
X0584627Y0019460D01*
X0585079Y0018368D01*
X0585914Y0017533D01*
X0585303Y0018144D02*
X0560595Y0018144D01*
X0560595Y0018930D02*
X0584846Y0018930D01*
X0584627Y0019716D02*
X0560595Y0019716D01*
X0560595Y0020502D02*
X0584627Y0020502D01*
X0584895Y0021288D02*
X0560595Y0021288D01*
X0560595Y0022074D02*
X0585421Y0022074D01*
X0585587Y0022860D02*
X0560595Y0022860D01*
X0560595Y0023645D02*
X0584964Y0023645D01*
X0584638Y0024431D02*
X0560595Y0024431D01*
X0560595Y0025217D02*
X0584627Y0025217D01*
X0584777Y0026003D02*
X0560595Y0026003D01*
X0560595Y0026789D02*
X0585136Y0026789D01*
X0585934Y0027575D02*
X0560595Y0027575D01*
X0560595Y0028361D02*
X0594124Y0028361D01*
X0594505Y0028518D02*
X0593414Y0028067D01*
X0592579Y0027232D01*
X0592127Y0026140D01*
X0592127Y0024960D01*
X0592579Y0023868D01*
X0593414Y0023033D01*
X0594505Y0022581D01*
X0595686Y0022581D01*
X0596777Y0023033D01*
X0597612Y0023868D01*
X0598064Y0024960D01*
X0598064Y0026140D01*
X0597612Y0027232D01*
X0596777Y0028067D01*
X0595686Y0028518D01*
X0594505Y0028518D01*
X0596066Y0028361D02*
X0658124Y0028361D01*
X0658505Y0028518D02*
X0657414Y0028067D01*
X0656579Y0027232D01*
X0656127Y0026140D01*
X0656127Y0024960D01*
X0656579Y0023868D01*
X0657414Y0023033D01*
X0658505Y0022581D01*
X0659686Y0022581D01*
X0660777Y0023033D01*
X0661612Y0023868D01*
X0662064Y0024960D01*
X0662064Y0026140D01*
X0661612Y0027232D01*
X0660777Y0028067D01*
X0659686Y0028518D01*
X0658505Y0028518D01*
X0660066Y0028361D02*
X0788215Y0028361D01*
X0789001Y0029147D02*
X0560595Y0029147D01*
X0560595Y0029933D02*
X0790742Y0029933D01*
X0792639Y0030719D02*
X0560595Y0030719D01*
X0568095Y0030719D02*
X0536782Y0030719D01*
X0536881Y0031021D02*
X0536981Y0031656D01*
X0532989Y0031656D01*
X0532989Y0027664D01*
X0533624Y0027764D01*
X0534282Y0027978D01*
X0534898Y0028292D01*
X0535457Y0028699D01*
X0535946Y0029188D01*
X0536353Y0029747D01*
X0536667Y0030363D01*
X0536881Y0031021D01*
X0536957Y0031505D02*
X0568095Y0031505D01*
X0568095Y0032291D02*
X0532989Y0032291D01*
X0532989Y0032444D02*
X0536981Y0032444D01*
X0536881Y0033079D01*
X0536667Y0033737D01*
X0536353Y0034353D01*
X0535946Y0034912D01*
X0535457Y0035401D01*
X0534898Y0035808D01*
X0534282Y0036122D01*
X0533624Y0036336D01*
X0532989Y0036436D01*
X0532989Y0032444D01*
X0532201Y0032444D01*
X0532201Y0031656D01*
X0528209Y0031656D01*
X0528310Y0031021D01*
X0528523Y0030363D01*
X0528837Y0029747D01*
X0529244Y0029188D01*
X0529733Y0028699D01*
X0530292Y0028292D01*
X0530909Y0027978D01*
X0531566Y0027764D01*
X0532201Y0027664D01*
X0532201Y0031656D01*
X0532989Y0031656D01*
X0532989Y0032444D01*
X0532989Y0033076D02*
X0532201Y0033076D01*
X0532201Y0032444D02*
X0532201Y0036436D01*
X0531566Y0036336D01*
X0530909Y0036122D01*
X0530292Y0035808D01*
X0529733Y0035401D01*
X0529244Y0034912D01*
X0528837Y0034353D01*
X0528523Y0033737D01*
X0528310Y0033079D01*
X0528209Y0032444D01*
X0532201Y0032444D01*
X0532201Y0032291D02*
X0526776Y0032291D01*
X0526776Y0032882D02*
X0526140Y0034418D01*
X0524964Y0035595D01*
X0523427Y0036231D01*
X0521763Y0036231D01*
X0520227Y0035595D01*
X0519051Y0034418D01*
X0518414Y0032882D01*
X0518414Y0031218D01*
X0519051Y0029682D01*
X0520227Y0028505D01*
X0521763Y0027869D01*
X0523427Y0027869D01*
X0524964Y0028505D01*
X0526140Y0029682D01*
X0526776Y0031218D01*
X0526776Y0032882D01*
X0526696Y0033076D02*
X0528309Y0033076D01*
X0528587Y0033862D02*
X0526370Y0033862D01*
X0525910Y0034648D02*
X0529052Y0034648D01*
X0529778Y0035434D02*
X0525124Y0035434D01*
X0523453Y0036220D02*
X0531211Y0036220D01*
X0532201Y0036220D02*
X0532989Y0036220D01*
X0532989Y0035434D02*
X0532201Y0035434D01*
X0532201Y0034648D02*
X0532989Y0034648D01*
X0532989Y0033862D02*
X0532201Y0033862D01*
X0532201Y0031505D02*
X0532989Y0031505D01*
X0532989Y0030719D02*
X0532201Y0030719D01*
X0532201Y0029933D02*
X0532989Y0029933D01*
X0532989Y0029147D02*
X0532201Y0029147D01*
X0532201Y0028361D02*
X0532989Y0028361D01*
X0534993Y0028361D02*
X0568095Y0028361D01*
X0568095Y0029147D02*
X0535906Y0029147D01*
X0536448Y0029933D02*
X0568095Y0029933D01*
X0568095Y0027575D02*
X0408924Y0027575D01*
X0408427Y0027369D02*
X0409964Y0028005D01*
X0411140Y0029182D01*
X0411776Y0030718D01*
X0411776Y0032382D01*
X0411140Y0033918D01*
X0409964Y0035095D01*
X0408427Y0035731D01*
X0406763Y0035731D01*
X0405227Y0035095D01*
X0404051Y0033918D01*
X0403414Y0032382D01*
X0403414Y0030718D01*
X0404051Y0029182D01*
X0405227Y0028005D01*
X0406763Y0027369D01*
X0408427Y0027369D01*
X0410319Y0028361D02*
X0508576Y0028361D01*
X0508227Y0028505D02*
X0509763Y0027869D01*
X0511427Y0027869D01*
X0512964Y0028505D01*
X0514140Y0029682D01*
X0514776Y0031218D01*
X0514776Y0032882D01*
X0514140Y0034418D01*
X0512964Y0035595D01*
X0511427Y0036231D01*
X0509763Y0036231D01*
X0508227Y0035595D01*
X0507051Y0034418D01*
X0506414Y0032882D01*
X0506414Y0031218D01*
X0507051Y0029682D01*
X0508227Y0028505D01*
X0507585Y0029147D02*
X0411105Y0029147D01*
X0411451Y0029933D02*
X0506947Y0029933D01*
X0506621Y0030719D02*
X0434017Y0030719D01*
X0433686Y0030581D02*
X0434777Y0031033D01*
X0435612Y0031868D01*
X0436064Y0032960D01*
X0436064Y0034140D01*
X0435612Y0035232D01*
X0434777Y0036067D01*
X0433686Y0036518D01*
X0432505Y0036518D01*
X0431414Y0036067D01*
X0430579Y0035232D01*
X0430127Y0034140D01*
X0430127Y0032960D01*
X0430579Y0031868D01*
X0431414Y0031033D01*
X0432505Y0030581D01*
X0433686Y0030581D01*
X0432173Y0030719D02*
X0411776Y0030719D01*
X0411776Y0031505D02*
X0430942Y0031505D01*
X0430404Y0032291D02*
X0411776Y0032291D01*
X0411488Y0033076D02*
X0430127Y0033076D01*
X0430127Y0033862D02*
X0411163Y0033862D01*
X0410410Y0034648D02*
X0430337Y0034648D01*
X0430781Y0035434D02*
X0409144Y0035434D01*
X0408624Y0037264D02*
X0409282Y0037478D01*
X0409898Y0037792D01*
X0410457Y0038199D01*
X0410946Y0038688D01*
X0411353Y0039247D01*
X0411667Y0039863D01*
X0411881Y0040521D01*
X0411981Y0041156D01*
X0407989Y0041156D01*
X0407989Y0037164D01*
X0408624Y0037264D01*
X0407989Y0037792D02*
X0407201Y0037792D01*
X0407201Y0037164D02*
X0407201Y0041156D01*
X0403209Y0041156D01*
X0403310Y0040521D01*
X0403523Y0039863D01*
X0403837Y0039247D01*
X0404244Y0038688D01*
X0404733Y0038199D01*
X0405292Y0037792D01*
X0405909Y0037478D01*
X0406566Y0037264D01*
X0407201Y0037164D01*
X0407201Y0038578D02*
X0407989Y0038578D01*
X0407989Y0039364D02*
X0407201Y0039364D01*
X0407201Y0040150D02*
X0407989Y0040150D01*
X0407989Y0040936D02*
X0407201Y0040936D01*
X0407201Y0041156D02*
X0407989Y0041156D01*
X0407989Y0041944D01*
X0407201Y0041944D01*
X0407201Y0041156D01*
X0407201Y0041721D02*
X0401776Y0041721D01*
X0401776Y0042382D02*
X0401140Y0043918D01*
X0399964Y0045095D01*
X0398427Y0045731D01*
X0396763Y0045731D01*
X0395227Y0045095D01*
X0394051Y0043918D01*
X0393414Y0042382D01*
X0393414Y0040718D01*
X0394051Y0039182D01*
X0395227Y0038005D01*
X0396763Y0037369D01*
X0398427Y0037369D01*
X0399964Y0038005D01*
X0401140Y0039182D01*
X0401776Y0040718D01*
X0401776Y0042382D01*
X0401724Y0042507D02*
X0403298Y0042507D01*
X0403310Y0042579D02*
X0403209Y0041944D01*
X0407201Y0041944D01*
X0407201Y0045936D01*
X0406566Y0045836D01*
X0405909Y0045622D01*
X0405292Y0045308D01*
X0404733Y0044901D01*
X0404244Y0044412D01*
X0403837Y0043853D01*
X0403523Y0043237D01*
X0403310Y0042579D01*
X0403552Y0043293D02*
X0401399Y0043293D01*
X0400979Y0044079D02*
X0404002Y0044079D01*
X0404697Y0044865D02*
X0400193Y0044865D01*
X0398620Y0045651D02*
X0405999Y0045651D01*
X0407201Y0045651D02*
X0407989Y0045651D01*
X0407989Y0045936D02*
X0407989Y0041944D01*
X0411981Y0041944D01*
X0411881Y0042579D01*
X0411667Y0043237D01*
X0411353Y0043853D01*
X0410946Y0044412D01*
X0410457Y0044901D01*
X0409898Y0045308D01*
X0409282Y0045622D01*
X0408624Y0045836D01*
X0407989Y0045936D01*
X0407989Y0044865D02*
X0407201Y0044865D01*
X0407201Y0044079D02*
X0407989Y0044079D01*
X0407989Y0043293D02*
X0407201Y0043293D01*
X0407201Y0042507D02*
X0407989Y0042507D01*
X0407989Y0041721D02*
X0506414Y0041721D01*
X0506414Y0041218D02*
X0506414Y0042882D01*
X0507051Y0044418D01*
X0508227Y0045595D01*
X0509763Y0046231D01*
X0511427Y0046231D01*
X0512964Y0045595D01*
X0514140Y0044418D01*
X0514776Y0042882D01*
X0514776Y0041218D01*
X0514140Y0039682D01*
X0512964Y0038505D01*
X0511427Y0037869D01*
X0509763Y0037869D01*
X0508227Y0038505D01*
X0507051Y0039682D01*
X0506414Y0041218D01*
X0506531Y0040936D02*
X0411946Y0040936D01*
X0411760Y0040150D02*
X0506857Y0040150D01*
X0507368Y0039364D02*
X0411412Y0039364D01*
X0410837Y0038578D02*
X0508154Y0038578D01*
X0509737Y0036220D02*
X0434406Y0036220D01*
X0435409Y0035434D02*
X0508066Y0035434D01*
X0507280Y0034648D02*
X0435853Y0034648D01*
X0436064Y0033862D02*
X0506820Y0033862D01*
X0506495Y0033076D02*
X0436064Y0033076D01*
X0435787Y0032291D02*
X0506414Y0032291D01*
X0506414Y0031505D02*
X0435248Y0031505D01*
X0431784Y0036220D02*
X0343595Y0036220D01*
X0343595Y0035434D02*
X0384547Y0035434D01*
X0385263Y0035731D02*
X0383727Y0035095D01*
X0382551Y0033918D01*
X0381914Y0032382D01*
X0381914Y0030718D01*
X0382551Y0029182D01*
X0383727Y0028005D01*
X0385263Y0027369D01*
X0386927Y0027369D01*
X0388464Y0028005D01*
X0389640Y0029182D01*
X0390276Y0030718D01*
X0390276Y0032382D01*
X0389640Y0033918D01*
X0388464Y0035095D01*
X0386927Y0035731D01*
X0385263Y0035731D01*
X0385263Y0037369D02*
X0386927Y0037369D01*
X0388464Y0038005D01*
X0389640Y0039182D01*
X0390276Y0040718D01*
X0390276Y0042382D01*
X0389640Y0043918D01*
X0388464Y0045095D01*
X0386927Y0045731D01*
X0385263Y0045731D01*
X0383727Y0045095D01*
X0382551Y0043918D01*
X0381914Y0042382D01*
X0381914Y0040718D01*
X0382551Y0039182D01*
X0383727Y0038005D01*
X0385263Y0037369D01*
X0384242Y0037792D02*
X0343595Y0037792D01*
X0343595Y0038578D02*
X0383154Y0038578D01*
X0382475Y0039364D02*
X0343595Y0039364D01*
X0343595Y0040150D02*
X0382150Y0040150D01*
X0381914Y0040936D02*
X0343595Y0040936D01*
X0343595Y0041721D02*
X0381914Y0041721D01*
X0381966Y0042507D02*
X0343595Y0042507D01*
X0343595Y0043293D02*
X0382292Y0043293D01*
X0382711Y0044079D02*
X0343595Y0044079D01*
X0343595Y0044865D02*
X0383497Y0044865D01*
X0385070Y0045651D02*
X0343595Y0045651D01*
X0343595Y0046437D02*
X0568095Y0046437D01*
X0568095Y0047223D02*
X0343595Y0047223D01*
X0343595Y0048009D02*
X0568095Y0048009D01*
X0568095Y0048795D02*
X0566038Y0048795D01*
X0585652Y0048795D01*
X0585356Y0048009D02*
X0560595Y0048009D01*
X0560595Y0048795D02*
X0562152Y0048795D01*
X0343595Y0048795D01*
X0343595Y0049581D02*
X0561491Y0049581D01*
X0560595Y0049581D01*
X0560595Y0050366D02*
X0561165Y0050366D01*
X0343595Y0050366D01*
X0343595Y0051152D02*
X0561127Y0051152D01*
X0560595Y0051152D01*
X0561127Y0051640D02*
X0561127Y0050460D01*
X0561579Y0049368D01*
X0562414Y0048533D01*
X0563505Y0048081D01*
X0564686Y0048081D01*
X0565777Y0048533D01*
X0566612Y0049368D01*
X0567064Y0050460D01*
X0567064Y0051640D01*
X0566612Y0052732D01*
X0565777Y0053567D01*
X0564686Y0054018D01*
X0563505Y0054018D01*
X0562414Y0053567D01*
X0561579Y0052732D01*
X0561127Y0051640D01*
X0561127Y0050460D01*
X0561579Y0049368D01*
X0562414Y0048533D01*
X0563505Y0048081D01*
X0564686Y0048081D01*
X0565777Y0048533D01*
X0566612Y0049368D01*
X0567064Y0050460D01*
X0567064Y0051640D01*
X0566612Y0052732D01*
X0565777Y0053567D01*
X0564686Y0054018D01*
X0563505Y0054018D01*
X0562414Y0053567D01*
X0561579Y0052732D01*
X0561127Y0051640D01*
X0561250Y0051938D02*
X0560595Y0051938D01*
X0561250Y0051938D02*
X0343595Y0051938D01*
X0343595Y0052724D02*
X0561576Y0052724D01*
X0560595Y0052724D01*
X0560595Y0053510D02*
X0562357Y0053510D01*
X0343595Y0053510D01*
X0343595Y0054296D02*
X0568095Y0054296D01*
X0568095Y0053510D02*
X0565833Y0053510D01*
X0585857Y0053510D01*
X0585076Y0052724D02*
X0566615Y0052724D01*
X0568095Y0052724D01*
X0568095Y0051938D02*
X0566940Y0051938D01*
X0584750Y0051938D01*
X0584627Y0051152D02*
X0567064Y0051152D01*
X0568095Y0051152D01*
X0568095Y0050366D02*
X0567025Y0050366D01*
X0584665Y0050366D01*
X0584991Y0049581D02*
X0566700Y0049581D01*
X0568095Y0049581D01*
X0568095Y0045651D02*
X0534827Y0045651D01*
X0534964Y0045595D02*
X0533427Y0046231D01*
X0531763Y0046231D01*
X0530227Y0045595D01*
X0529051Y0044418D01*
X0528414Y0042882D01*
X0528414Y0041218D01*
X0529051Y0039682D01*
X0530227Y0038505D01*
X0531763Y0037869D01*
X0533427Y0037869D01*
X0534964Y0038505D01*
X0536140Y0039682D01*
X0536776Y0041218D01*
X0536776Y0042882D01*
X0536140Y0044418D01*
X0534964Y0045595D01*
X0535693Y0044865D02*
X0568095Y0044865D01*
X0568095Y0044079D02*
X0536280Y0044079D01*
X0536606Y0043293D02*
X0568095Y0043293D01*
X0568095Y0042507D02*
X0558212Y0042507D01*
X0556978Y0042507D02*
X0536776Y0042507D01*
X0536776Y0041721D02*
X0555569Y0041721D01*
X0554956Y0040936D02*
X0536659Y0040936D01*
X0536334Y0040150D02*
X0554630Y0040150D01*
X0554627Y0039364D02*
X0535822Y0039364D01*
X0535036Y0038578D02*
X0554785Y0038578D01*
X0555155Y0037792D02*
X0409897Y0037792D01*
X0406047Y0035434D02*
X0399144Y0035434D01*
X0398427Y0035731D02*
X0396763Y0035731D01*
X0395227Y0035095D01*
X0394051Y0033918D01*
X0393414Y0032382D01*
X0393414Y0030718D01*
X0394051Y0029182D01*
X0395227Y0028005D01*
X0396763Y0027369D01*
X0398427Y0027369D01*
X0399964Y0028005D01*
X0401140Y0029182D01*
X0401776Y0030718D01*
X0401776Y0032382D01*
X0401140Y0033918D01*
X0399964Y0035095D01*
X0398427Y0035731D01*
X0400410Y0034648D02*
X0404780Y0034648D01*
X0404027Y0033862D02*
X0401163Y0033862D01*
X0401488Y0033076D02*
X0403702Y0033076D01*
X0403414Y0032291D02*
X0401776Y0032291D01*
X0401776Y0031505D02*
X0403414Y0031505D01*
X0403414Y0030719D02*
X0401776Y0030719D01*
X0401451Y0029933D02*
X0403739Y0029933D01*
X0404085Y0029147D02*
X0401105Y0029147D01*
X0400319Y0028361D02*
X0404871Y0028361D01*
X0406266Y0027575D02*
X0398924Y0027575D01*
X0396266Y0027575D02*
X0387424Y0027575D01*
X0388819Y0028361D02*
X0394871Y0028361D01*
X0394085Y0029147D02*
X0389605Y0029147D01*
X0389951Y0029933D02*
X0393739Y0029933D01*
X0393414Y0030719D02*
X0390276Y0030719D01*
X0390276Y0031505D02*
X0393414Y0031505D01*
X0393414Y0032291D02*
X0390276Y0032291D01*
X0389988Y0033076D02*
X0393702Y0033076D01*
X0394027Y0033862D02*
X0389663Y0033862D01*
X0388910Y0034648D02*
X0394780Y0034648D01*
X0396047Y0035434D02*
X0387644Y0035434D01*
X0387948Y0037792D02*
X0395742Y0037792D01*
X0394654Y0038578D02*
X0389036Y0038578D01*
X0389715Y0039364D02*
X0393975Y0039364D01*
X0393650Y0040150D02*
X0390041Y0040150D01*
X0390276Y0040936D02*
X0393414Y0040936D01*
X0393414Y0041721D02*
X0390276Y0041721D01*
X0390224Y0042507D02*
X0393466Y0042507D01*
X0393792Y0043293D02*
X0389899Y0043293D01*
X0389479Y0044079D02*
X0394211Y0044079D01*
X0394997Y0044865D02*
X0388693Y0044865D01*
X0387120Y0045651D02*
X0396570Y0045651D01*
X0409192Y0045651D02*
X0508363Y0045651D01*
X0507497Y0044865D02*
X0410494Y0044865D01*
X0411188Y0044079D02*
X0506910Y0044079D01*
X0506585Y0043293D02*
X0411638Y0043293D01*
X0411892Y0042507D02*
X0506414Y0042507D01*
X0512827Y0045651D02*
X0520363Y0045651D01*
X0520227Y0045595D02*
X0519051Y0044418D01*
X0518414Y0042882D01*
X0518414Y0041218D01*
X0519051Y0039682D01*
X0520227Y0038505D01*
X0521763Y0037869D01*
X0523427Y0037869D01*
X0524964Y0038505D01*
X0526140Y0039682D01*
X0526776Y0041218D01*
X0526776Y0042882D01*
X0526140Y0044418D01*
X0524964Y0045595D01*
X0523427Y0046231D01*
X0521763Y0046231D01*
X0520227Y0045595D01*
X0519497Y0044865D02*
X0513693Y0044865D01*
X0514280Y0044079D02*
X0518910Y0044079D01*
X0518585Y0043293D02*
X0514606Y0043293D01*
X0514776Y0042507D02*
X0518414Y0042507D01*
X0518414Y0041721D02*
X0514776Y0041721D01*
X0514659Y0040936D02*
X0518531Y0040936D01*
X0518857Y0040150D02*
X0514334Y0040150D01*
X0513822Y0039364D02*
X0519368Y0039364D01*
X0520154Y0038578D02*
X0513036Y0038578D01*
X0511453Y0036220D02*
X0521737Y0036220D01*
X0520066Y0035434D02*
X0513124Y0035434D01*
X0513910Y0034648D02*
X0519280Y0034648D01*
X0518820Y0033862D02*
X0514370Y0033862D01*
X0514696Y0033076D02*
X0518495Y0033076D01*
X0518414Y0032291D02*
X0514776Y0032291D01*
X0514776Y0031505D02*
X0518414Y0031505D01*
X0518621Y0030719D02*
X0514569Y0030719D01*
X0514244Y0029933D02*
X0518947Y0029933D01*
X0519585Y0029147D02*
X0513605Y0029147D01*
X0512615Y0028361D02*
X0520576Y0028361D01*
X0524615Y0028361D02*
X0530198Y0028361D01*
X0529285Y0029147D02*
X0525605Y0029147D01*
X0526244Y0029933D02*
X0528743Y0029933D01*
X0528408Y0030719D02*
X0526569Y0030719D01*
X0526776Y0031505D02*
X0528233Y0031505D01*
X0533979Y0036220D02*
X0568095Y0036220D01*
X0568095Y0035434D02*
X0535412Y0035434D01*
X0536138Y0034648D02*
X0568095Y0034648D01*
X0568095Y0033862D02*
X0536603Y0033862D01*
X0536881Y0033076D02*
X0568095Y0033076D01*
X0568095Y0037006D02*
X0559210Y0037006D01*
X0555980Y0037006D02*
X0343595Y0037006D01*
X0343595Y0034648D02*
X0383280Y0034648D01*
X0382527Y0033862D02*
X0343595Y0033862D01*
X0343595Y0033076D02*
X0382202Y0033076D01*
X0381914Y0032291D02*
X0343595Y0032291D01*
X0343595Y0031505D02*
X0381914Y0031505D01*
X0381914Y0030719D02*
X0343595Y0030719D01*
X0343595Y0029933D02*
X0382239Y0029933D01*
X0382585Y0029147D02*
X0343595Y0029147D01*
X0343595Y0028361D02*
X0383371Y0028361D01*
X0384766Y0027575D02*
X0343595Y0027575D01*
X0343595Y0026789D02*
X0568095Y0026789D01*
X0568095Y0026003D02*
X0343595Y0026003D01*
X0343595Y0025217D02*
X0568095Y0025217D01*
X0568095Y0024431D02*
X0343595Y0024431D01*
X0343595Y0023645D02*
X0568095Y0023645D01*
X0568095Y0022860D02*
X0343595Y0022860D01*
X0343595Y0022074D02*
X0568095Y0022074D01*
X0568095Y0021288D02*
X0343595Y0021288D01*
X0343595Y0020502D02*
X0568095Y0020502D01*
X0568095Y0019716D02*
X0343595Y0019716D01*
X0343595Y0018930D02*
X0568095Y0018930D01*
X0568095Y0018144D02*
X0343595Y0018144D01*
X0343595Y0017358D02*
X0568095Y0017358D01*
X0568095Y0016572D02*
X0343595Y0016572D01*
X0343595Y0015786D02*
X0568095Y0015786D01*
X0568095Y0015000D02*
X0343595Y0015000D01*
X0343595Y0014215D02*
X0568095Y0014215D01*
X0568095Y0013429D02*
X0343595Y0013429D01*
X0343595Y0012643D02*
X0568095Y0012643D01*
X0568095Y0011857D02*
X0343595Y0011857D01*
X0343595Y0011071D02*
X0568095Y0011071D01*
X0568095Y0010285D02*
X0343595Y0010285D01*
X0343595Y0009499D02*
X0568095Y0009499D01*
X0568095Y0008713D02*
X0343595Y0008713D01*
X0343595Y0007927D02*
X0568095Y0007927D01*
X0568095Y0007141D02*
X0343595Y0007141D01*
X0343595Y0006355D02*
X0568095Y0006355D01*
X0568095Y0005569D02*
X0343595Y0005569D01*
X0343595Y0004784D02*
X0568095Y0004784D01*
X0568095Y0003998D02*
X0343595Y0003998D01*
X0343595Y0003444D02*
X0343595Y0057050D01*
X0568095Y0057050D01*
X0568095Y0003444D01*
X0343595Y0003444D01*
X0399448Y0037792D02*
X0405293Y0037792D01*
X0404354Y0038578D02*
X0400536Y0038578D01*
X0401215Y0039364D02*
X0403778Y0039364D01*
X0403430Y0040150D02*
X0401541Y0040150D01*
X0401776Y0040936D02*
X0403244Y0040936D01*
X0343595Y0055082D02*
X0568095Y0055082D01*
X0568095Y0055868D02*
X0343595Y0055868D01*
X0343595Y0056654D02*
X0568095Y0056654D01*
X0560595Y0056654D02*
X0786078Y0056654D01*
X0785737Y0057440D02*
X0560595Y0057440D01*
X0560595Y0058226D02*
X0785414Y0058226D01*
X0786864Y0055868D02*
X0560595Y0055868D01*
X0560595Y0055082D02*
X0788249Y0055082D01*
X0790941Y0055082D02*
X0795663Y0055082D01*
X0795414Y0054482D02*
X0795414Y0052818D01*
X0796051Y0051282D01*
X0797227Y0050105D01*
X0798763Y0049469D01*
X0800427Y0049469D01*
X0801964Y0050105D01*
X0803140Y0051282D01*
X0803776Y0052818D01*
X0803776Y0054482D01*
X0803140Y0056018D01*
X0801964Y0057195D01*
X0800427Y0057831D01*
X0798763Y0057831D01*
X0797227Y0057195D01*
X0796051Y0056018D01*
X0795414Y0054482D01*
X0795414Y0054296D02*
X0560595Y0054296D01*
X0560595Y0047223D02*
X0584868Y0047223D01*
X0584627Y0046437D02*
X0560595Y0046437D01*
X0560595Y0045651D02*
X0584627Y0045651D01*
X0584873Y0044865D02*
X0560595Y0044865D01*
X0560595Y0044079D02*
X0585368Y0044079D01*
X0589051Y0037792D02*
X0589639Y0037792D01*
X0593551Y0037792D02*
X0594139Y0037792D01*
X0598051Y0037792D02*
X0598639Y0037792D01*
X0602551Y0037792D02*
X0603139Y0037792D01*
X0597268Y0027575D02*
X0649934Y0027575D01*
X0649914Y0027567D02*
X0649079Y0026732D01*
X0648627Y0025640D01*
X0648627Y0024460D01*
X0649079Y0023368D01*
X0649897Y0022550D01*
X0649079Y0021732D01*
X0648627Y0020640D01*
X0648627Y0019460D01*
X0649079Y0018368D01*
X0649914Y0017533D01*
X0651005Y0017081D01*
X0652186Y0017081D01*
X0653277Y0017533D01*
X0654112Y0018368D01*
X0654564Y0019460D01*
X0654564Y0020640D01*
X0654112Y0021732D01*
X0653293Y0022550D01*
X0654112Y0023368D01*
X0654564Y0024460D01*
X0654564Y0025640D01*
X0654112Y0026732D01*
X0653277Y0027567D01*
X0652186Y0028018D01*
X0651005Y0028018D01*
X0649914Y0027567D01*
X0649136Y0026789D02*
X0597795Y0026789D01*
X0598064Y0026003D02*
X0648777Y0026003D01*
X0648627Y0025217D02*
X0598064Y0025217D01*
X0597845Y0024431D02*
X0648638Y0024431D01*
X0648964Y0023645D02*
X0597389Y0023645D01*
X0596357Y0022860D02*
X0649587Y0022860D01*
X0649421Y0022074D02*
X0595260Y0022074D01*
X0595277Y0022067D02*
X0594186Y0022518D01*
X0593005Y0022518D01*
X0591914Y0022067D01*
X0591079Y0021232D01*
X0590627Y0020140D01*
X0590627Y0018960D01*
X0591079Y0017868D01*
X0591914Y0017033D01*
X0593005Y0016581D01*
X0594186Y0016581D01*
X0595277Y0017033D01*
X0596112Y0017868D01*
X0596564Y0018960D01*
X0596564Y0020140D01*
X0596112Y0021232D01*
X0595277Y0022067D01*
X0596055Y0021288D02*
X0648895Y0021288D01*
X0648627Y0020502D02*
X0596414Y0020502D01*
X0596564Y0019716D02*
X0648627Y0019716D01*
X0648846Y0018930D02*
X0596551Y0018930D01*
X0596226Y0018144D02*
X0649303Y0018144D01*
X0650337Y0017358D02*
X0595601Y0017358D01*
X0591589Y0017358D02*
X0588854Y0017358D01*
X0589887Y0018144D02*
X0590964Y0018144D01*
X0590639Y0018930D02*
X0590344Y0018930D01*
X0590564Y0019716D02*
X0590627Y0019716D01*
X0590564Y0020502D02*
X0590776Y0020502D01*
X0591135Y0021288D02*
X0590296Y0021288D01*
X0589770Y0022074D02*
X0591931Y0022074D01*
X0592802Y0023645D02*
X0590226Y0023645D01*
X0590552Y0024431D02*
X0592345Y0024431D01*
X0592127Y0025217D02*
X0590564Y0025217D01*
X0590413Y0026003D02*
X0592127Y0026003D01*
X0592395Y0026789D02*
X0590054Y0026789D01*
X0589256Y0027575D02*
X0592922Y0027575D01*
X0593833Y0022860D02*
X0589603Y0022860D01*
X0594414Y0012067D02*
X0593579Y0011232D01*
X0593127Y0010140D01*
X0593127Y0008960D01*
X0593579Y0007868D01*
X0594414Y0007033D01*
X0595505Y0006581D01*
X0596686Y0006581D01*
X0597777Y0007033D01*
X0598612Y0007868D01*
X0599064Y0008960D01*
X0599064Y0010140D01*
X0598612Y0011232D01*
X0597777Y0012067D01*
X0596686Y0012518D01*
X0595505Y0012518D01*
X0594414Y0012067D01*
X0594204Y0011857D02*
X0560595Y0011857D01*
X0560595Y0012643D02*
X0627597Y0012643D01*
X0627414Y0012567D02*
X0626579Y0011732D01*
X0626127Y0010640D01*
X0626127Y0009460D01*
X0626579Y0008368D01*
X0627414Y0007533D01*
X0628505Y0007081D01*
X0629686Y0007081D01*
X0630777Y0007533D01*
X0631612Y0008368D01*
X0632064Y0009460D01*
X0632064Y0010640D01*
X0631612Y0011732D01*
X0630777Y0012567D01*
X0629686Y0013018D01*
X0628505Y0013018D01*
X0627414Y0012567D01*
X0626704Y0011857D02*
X0597986Y0011857D01*
X0598678Y0011071D02*
X0626305Y0011071D01*
X0626127Y0010285D02*
X0599004Y0010285D01*
X0599064Y0009499D02*
X0626127Y0009499D01*
X0626436Y0008713D02*
X0598962Y0008713D01*
X0598636Y0007927D02*
X0627020Y0007927D01*
X0628360Y0007141D02*
X0597885Y0007141D01*
X0594306Y0007141D02*
X0560595Y0007141D01*
X0560595Y0006355D02*
X0839201Y0006355D01*
X0839201Y0005569D02*
X0560595Y0005569D01*
X0560595Y0004784D02*
X0839201Y0004784D01*
X0839201Y0003998D02*
X0560595Y0003998D01*
X0560595Y0007927D02*
X0593554Y0007927D01*
X0593229Y0008713D02*
X0560595Y0008713D01*
X0560595Y0009499D02*
X0593127Y0009499D01*
X0593186Y0010285D02*
X0560595Y0010285D01*
X0560595Y0011071D02*
X0593512Y0011071D01*
X0629830Y0007141D02*
X0649860Y0007141D01*
X0650005Y0007081D02*
X0651186Y0007081D01*
X0652277Y0007533D01*
X0653112Y0008368D01*
X0653564Y0009460D01*
X0653564Y0010640D01*
X0653112Y0011732D01*
X0652277Y0012567D01*
X0651186Y0013018D01*
X0650005Y0013018D01*
X0648914Y0012567D01*
X0648079Y0011732D01*
X0647627Y0010640D01*
X0647627Y0009460D01*
X0648079Y0008368D01*
X0648914Y0007533D01*
X0650005Y0007081D01*
X0651330Y0007141D02*
X0658306Y0007141D01*
X0658414Y0007033D02*
X0659505Y0006581D01*
X0660686Y0006581D01*
X0661777Y0007033D01*
X0662612Y0007868D01*
X0663064Y0008960D01*
X0663064Y0010140D01*
X0662612Y0011232D01*
X0661777Y0012067D01*
X0660686Y0012518D01*
X0659505Y0012518D01*
X0658414Y0012067D01*
X0657579Y0011232D01*
X0657127Y0010140D01*
X0657127Y0008960D01*
X0657579Y0007868D01*
X0658414Y0007033D01*
X0657554Y0007927D02*
X0652670Y0007927D01*
X0653254Y0008713D02*
X0657229Y0008713D01*
X0657127Y0009499D02*
X0653564Y0009499D01*
X0653564Y0010285D02*
X0657186Y0010285D01*
X0657512Y0011071D02*
X0653385Y0011071D01*
X0652986Y0011857D02*
X0658204Y0011857D01*
X0661986Y0011857D02*
X0665923Y0011857D01*
X0665627Y0011071D02*
X0662678Y0011071D01*
X0663004Y0010285D02*
X0665627Y0010285D01*
X0665817Y0009499D02*
X0663064Y0009499D01*
X0662962Y0008713D02*
X0666234Y0008713D01*
X0667170Y0007927D02*
X0662636Y0007927D01*
X0661885Y0007141D02*
X0839201Y0007141D01*
X0839201Y0007927D02*
X0670020Y0007927D01*
X0670956Y0008713D02*
X0839201Y0008713D01*
X0839201Y0009499D02*
X0671373Y0009499D01*
X0671564Y0010285D02*
X0839201Y0010285D01*
X0839201Y0011071D02*
X0671564Y0011071D01*
X0666490Y0012643D02*
X0652093Y0012643D01*
X0649097Y0012643D02*
X0630593Y0012643D01*
X0631486Y0011857D02*
X0648204Y0011857D01*
X0647805Y0011071D02*
X0631885Y0011071D01*
X0632064Y0010285D02*
X0647627Y0010285D01*
X0647627Y0009499D02*
X0632064Y0009499D01*
X0631754Y0008713D02*
X0647936Y0008713D01*
X0648520Y0007927D02*
X0631170Y0007927D01*
X0652854Y0017358D02*
X0655589Y0017358D01*
X0655914Y0017033D02*
X0655079Y0017868D01*
X0654627Y0018960D01*
X0654627Y0020140D01*
X0655079Y0021232D01*
X0655914Y0022067D01*
X0657005Y0022518D01*
X0658186Y0022518D01*
X0659277Y0022067D01*
X0660112Y0021232D01*
X0660564Y0020140D01*
X0660564Y0018960D01*
X0660112Y0017868D01*
X0659277Y0017033D01*
X0658186Y0016581D01*
X0657005Y0016581D01*
X0655914Y0017033D01*
X0654964Y0018144D02*
X0653887Y0018144D01*
X0654344Y0018930D02*
X0654639Y0018930D01*
X0654627Y0019716D02*
X0654564Y0019716D01*
X0654564Y0020502D02*
X0654776Y0020502D01*
X0655135Y0021288D02*
X0654296Y0021288D01*
X0653770Y0022074D02*
X0655931Y0022074D01*
X0656802Y0023645D02*
X0654226Y0023645D01*
X0654552Y0024431D02*
X0656345Y0024431D01*
X0656127Y0025217D02*
X0654564Y0025217D01*
X0654413Y0026003D02*
X0656127Y0026003D01*
X0656395Y0026789D02*
X0654054Y0026789D01*
X0653256Y0027575D02*
X0656922Y0027575D01*
X0661268Y0027575D02*
X0787429Y0027575D01*
X0786643Y0026789D02*
X0661795Y0026789D01*
X0662064Y0026003D02*
X0786168Y0026003D01*
X0785843Y0025217D02*
X0662064Y0025217D01*
X0661845Y0024431D02*
X0785517Y0024431D01*
X0785191Y0023645D02*
X0661389Y0023645D01*
X0660357Y0022860D02*
X0784914Y0022860D01*
X0784914Y0022074D02*
X0659260Y0022074D01*
X0660055Y0021288D02*
X0784914Y0021288D01*
X0784914Y0020502D02*
X0660414Y0020502D01*
X0660564Y0019716D02*
X0784914Y0019716D01*
X0784995Y0018930D02*
X0660551Y0018930D01*
X0660226Y0018144D02*
X0785320Y0018144D01*
X0785646Y0017358D02*
X0659601Y0017358D01*
X0657833Y0022860D02*
X0653603Y0022860D01*
X0653871Y0033076D02*
X0652820Y0033076D01*
X0657320Y0033076D02*
X0658371Y0033076D01*
X0661820Y0033076D02*
X0662871Y0033076D01*
X0666320Y0033076D02*
X0667371Y0033076D01*
X0653822Y0044079D02*
X0788739Y0044079D01*
X0788763Y0044069D02*
X0790427Y0044069D01*
X0791964Y0044705D01*
X0793140Y0045882D01*
X0793776Y0047418D01*
X0793776Y0049082D01*
X0793140Y0050618D01*
X0791964Y0051795D01*
X0790427Y0052431D01*
X0788763Y0052431D01*
X0787227Y0051795D01*
X0786051Y0050618D01*
X0785414Y0049082D01*
X0785414Y0047418D01*
X0786051Y0045882D01*
X0787227Y0044705D01*
X0788763Y0044069D01*
X0790452Y0044079D02*
X0839201Y0044079D01*
X0839201Y0043293D02*
X0652697Y0043293D01*
X0654317Y0044865D02*
X0787067Y0044865D01*
X0786281Y0045651D02*
X0654564Y0045651D01*
X0654564Y0046437D02*
X0785821Y0046437D01*
X0785495Y0047223D02*
X0654322Y0047223D01*
X0653834Y0048009D02*
X0785414Y0048009D01*
X0785414Y0048795D02*
X0653538Y0048795D01*
X0654200Y0049581D02*
X0785621Y0049581D01*
X0785946Y0050366D02*
X0654525Y0050366D01*
X0654564Y0051152D02*
X0786585Y0051152D01*
X0787574Y0051938D02*
X0654440Y0051938D01*
X0654115Y0052724D02*
X0795453Y0052724D01*
X0795414Y0053510D02*
X0653333Y0053510D01*
X0652714Y0070800D02*
X0661147Y0070800D01*
X0661414Y0070533D02*
X0662505Y0070081D01*
X0663686Y0070081D01*
X0664777Y0070533D01*
X0665612Y0071368D01*
X0666064Y0072460D01*
X0666064Y0073640D01*
X0665612Y0074732D01*
X0664777Y0075567D01*
X0663686Y0076018D01*
X0662505Y0076018D01*
X0661414Y0075567D01*
X0660579Y0074732D01*
X0660127Y0073640D01*
X0660127Y0072460D01*
X0660579Y0071368D01*
X0661414Y0070533D01*
X0660488Y0071586D02*
X0653829Y0071586D01*
X0654320Y0072372D02*
X0660163Y0072372D01*
X0660127Y0073158D02*
X0654564Y0073158D01*
X0654564Y0073944D02*
X0660252Y0073944D01*
X0660578Y0074730D02*
X0654320Y0074730D01*
X0653828Y0075516D02*
X0661363Y0075516D01*
X0659331Y0077088D02*
X0787753Y0077088D01*
X0786659Y0077873D02*
X0659821Y0077873D01*
X0660064Y0078659D02*
X0785977Y0078659D01*
X0785651Y0079445D02*
X0660064Y0079445D01*
X0659819Y0080231D02*
X0785414Y0080231D01*
X0785414Y0081017D02*
X0659326Y0081017D01*
X0658206Y0081803D02*
X0785464Y0081803D01*
X0785790Y0082589D02*
X0560595Y0082589D01*
X0560595Y0083375D02*
X0741796Y0083375D01*
X0740786Y0084161D02*
X0560595Y0084161D01*
X0560595Y0084947D02*
X0740339Y0084947D01*
X0740127Y0085733D02*
X0560595Y0085733D01*
X0560595Y0086518D02*
X0740127Y0086518D01*
X0744394Y0083375D02*
X0786207Y0083375D01*
X0786993Y0084161D02*
X0745404Y0084161D01*
X0745851Y0084947D02*
X0788560Y0084947D01*
X0790631Y0084947D02*
X0795609Y0084947D01*
X0795414Y0085733D02*
X0746064Y0085733D01*
X0746064Y0086518D02*
X0795414Y0086518D01*
X0795506Y0087304D02*
X0758548Y0087304D01*
X0759204Y0088090D02*
X0787263Y0088090D01*
X0786456Y0088876D02*
X0759529Y0088876D01*
X0759564Y0089662D02*
X0785893Y0089662D01*
X0785567Y0090448D02*
X0759436Y0090448D01*
X0759109Y0091234D02*
X0785414Y0091234D01*
X0791927Y0088090D02*
X0795832Y0088090D01*
X0796308Y0088876D02*
X0792734Y0088876D01*
X0793297Y0089662D02*
X0797094Y0089662D01*
X0797260Y0093592D02*
X0793316Y0093592D01*
X0792780Y0094378D02*
X0796455Y0094378D01*
X0795892Y0095164D02*
X0791995Y0095164D01*
X0792197Y0084161D02*
X0795935Y0084161D01*
X0796557Y0083375D02*
X0792983Y0083375D01*
X0793400Y0082589D02*
X0797508Y0082589D01*
X0796992Y0078659D02*
X0793213Y0078659D01*
X0792532Y0077873D02*
X0796206Y0077873D01*
X0795789Y0077088D02*
X0791437Y0077088D01*
X0790879Y0073944D02*
X0795652Y0073944D01*
X0795414Y0074730D02*
X0665612Y0074730D01*
X0665938Y0073944D02*
X0788312Y0073944D01*
X0786890Y0073158D02*
X0666064Y0073158D01*
X0666027Y0072372D02*
X0786104Y0072372D01*
X0785747Y0071586D02*
X0665702Y0071586D01*
X0665043Y0070800D02*
X0785422Y0070800D01*
X0792300Y0073158D02*
X0795977Y0073158D01*
X0796660Y0072372D02*
X0793086Y0072372D01*
X0793443Y0071586D02*
X0797756Y0071586D01*
X0795414Y0075516D02*
X0664828Y0075516D01*
X0658217Y0076302D02*
X0795464Y0076302D01*
X0801124Y0068442D02*
X0839201Y0068442D01*
X0839201Y0067657D02*
X0802402Y0067657D01*
X0803159Y0066871D02*
X0839201Y0066871D01*
X0839201Y0066085D02*
X0803485Y0066085D01*
X0803776Y0065299D02*
X0839201Y0065299D01*
X0839201Y0064513D02*
X0803776Y0064513D01*
X0803776Y0063727D02*
X0839201Y0063727D01*
X0839201Y0062941D02*
X0803454Y0062941D01*
X0803113Y0062155D02*
X0839201Y0062155D01*
X0839201Y0061369D02*
X0802327Y0061369D01*
X0800945Y0060583D02*
X0839201Y0060583D01*
X0839201Y0059797D02*
X0793776Y0059797D01*
X0793776Y0059012D02*
X0839201Y0059012D01*
X0839201Y0058226D02*
X0793776Y0058226D01*
X0793454Y0057440D02*
X0797819Y0057440D01*
X0796686Y0056654D02*
X0793112Y0056654D01*
X0792326Y0055868D02*
X0795988Y0055868D01*
X0798246Y0060583D02*
X0793486Y0060583D01*
X0793160Y0061369D02*
X0796863Y0061369D01*
X0796077Y0062155D02*
X0792403Y0062155D01*
X0801372Y0057440D02*
X0839201Y0057440D01*
X0839201Y0056654D02*
X0802504Y0056654D01*
X0803202Y0055868D02*
X0839201Y0055868D01*
X0839201Y0055082D02*
X0803528Y0055082D01*
X0803776Y0054296D02*
X0839201Y0054296D01*
X0839201Y0053510D02*
X0803776Y0053510D01*
X0803737Y0052724D02*
X0839201Y0052724D01*
X0839201Y0051938D02*
X0803412Y0051938D01*
X0803011Y0051152D02*
X0839201Y0051152D01*
X0839201Y0050366D02*
X0802225Y0050366D01*
X0800696Y0049581D02*
X0839201Y0049581D01*
X0839201Y0048795D02*
X0793776Y0048795D01*
X0793776Y0048009D02*
X0839201Y0048009D01*
X0839201Y0047223D02*
X0793695Y0047223D01*
X0793370Y0046437D02*
X0839201Y0046437D01*
X0839201Y0045651D02*
X0792909Y0045651D01*
X0792123Y0044865D02*
X0839201Y0044865D01*
X0798494Y0049581D02*
X0793570Y0049581D01*
X0793244Y0050366D02*
X0796966Y0050366D01*
X0796180Y0051152D02*
X0792606Y0051152D01*
X0791616Y0051938D02*
X0795779Y0051938D01*
X0754643Y0087304D02*
X0745789Y0087304D01*
X0745253Y0088090D02*
X0753987Y0088090D01*
X0760638Y0103809D02*
X0726552Y0103809D01*
X0726912Y0104594D02*
X0759985Y0104594D01*
X0759659Y0105380D02*
X0727064Y0105380D01*
X0727053Y0106166D02*
X0759627Y0106166D01*
X0759756Y0106952D02*
X0726727Y0106952D01*
X0726105Y0107738D02*
X0760085Y0107738D01*
X0760423Y0108524D02*
X0560595Y0108524D01*
X0560595Y0109310D02*
X0759896Y0109310D01*
X0759627Y0110096D02*
X0560595Y0110096D01*
X0560595Y0110882D02*
X0759627Y0110882D01*
X0759845Y0111668D02*
X0560595Y0111668D01*
X0560595Y0112454D02*
X0760301Y0112454D01*
X0761331Y0113240D02*
X0723483Y0113240D01*
X0724177Y0114025D02*
X0785414Y0114025D01*
X0785414Y0113240D02*
X0763859Y0113240D01*
X0764890Y0112454D02*
X0785482Y0112454D01*
X0785808Y0111668D02*
X0765345Y0111668D01*
X0765564Y0110882D02*
X0786250Y0110882D01*
X0787036Y0110096D02*
X0765564Y0110096D01*
X0785633Y0114811D02*
X0724502Y0114811D01*
X0724564Y0115597D02*
X0785959Y0115597D01*
X0786615Y0116383D02*
X0724463Y0116383D01*
X0724138Y0117169D02*
X0787648Y0117169D01*
X0786934Y0121099D02*
X0726064Y0121099D01*
X0726064Y0121885D02*
X0786148Y0121885D01*
X0785765Y0122670D02*
X0725844Y0122670D01*
X0725387Y0123456D02*
X0785440Y0123456D01*
X0785414Y0124242D02*
X0724352Y0124242D01*
X0721838Y0124242D02*
X0716852Y0124242D01*
X0717277Y0124067D02*
X0716186Y0124518D01*
X0715005Y0124518D01*
X0713914Y0124067D01*
X0713079Y0123232D01*
X0712627Y0122140D01*
X0712627Y0120960D01*
X0713079Y0119868D01*
X0713897Y0119050D01*
X0713079Y0118232D01*
X0712627Y0117140D01*
X0712627Y0115960D01*
X0713079Y0114868D01*
X0713914Y0114033D01*
X0715005Y0113581D01*
X0716186Y0113581D01*
X0717277Y0114033D01*
X0718112Y0114868D01*
X0718564Y0115960D01*
X0718564Y0117140D01*
X0718112Y0118232D01*
X0717293Y0119050D01*
X0718112Y0119868D01*
X0718564Y0120960D01*
X0718564Y0122140D01*
X0718112Y0123232D01*
X0717277Y0124067D01*
X0717887Y0123456D02*
X0720803Y0123456D01*
X0720346Y0122670D02*
X0718344Y0122670D01*
X0718564Y0121885D02*
X0720127Y0121885D01*
X0720127Y0121099D02*
X0718564Y0121099D01*
X0718296Y0120313D02*
X0720395Y0120313D01*
X0720920Y0119527D02*
X0717770Y0119527D01*
X0717602Y0118741D02*
X0722120Y0118741D01*
X0719802Y0117955D02*
X0718226Y0117955D01*
X0718552Y0117169D02*
X0719053Y0117169D01*
X0718727Y0116383D02*
X0718564Y0116383D01*
X0718627Y0115597D02*
X0718414Y0115597D01*
X0718688Y0114811D02*
X0718055Y0114811D01*
X0717257Y0114025D02*
X0719014Y0114025D01*
X0719708Y0113240D02*
X0659483Y0113240D01*
X0659277Y0113033D02*
X0660112Y0113868D01*
X0660564Y0114960D01*
X0660564Y0116140D01*
X0660112Y0117232D01*
X0659277Y0118067D01*
X0658186Y0118518D01*
X0657005Y0118518D01*
X0655914Y0118067D01*
X0655079Y0117232D01*
X0654627Y0116140D01*
X0654627Y0114960D01*
X0655079Y0113868D01*
X0655914Y0113033D01*
X0657005Y0112581D01*
X0658186Y0112581D01*
X0659277Y0113033D01*
X0660177Y0114025D02*
X0713933Y0114025D01*
X0713136Y0114811D02*
X0660502Y0114811D01*
X0660564Y0115597D02*
X0712777Y0115597D01*
X0712627Y0116383D02*
X0660463Y0116383D01*
X0660138Y0117169D02*
X0712638Y0117169D01*
X0712964Y0117955D02*
X0659388Y0117955D01*
X0659686Y0118581D02*
X0658505Y0118581D01*
X0657414Y0119033D01*
X0656579Y0119868D01*
X0656127Y0120960D01*
X0656127Y0122140D01*
X0656579Y0123232D01*
X0657414Y0124067D01*
X0658505Y0124518D01*
X0659686Y0124518D01*
X0660777Y0124067D01*
X0661612Y0123232D01*
X0662064Y0122140D01*
X0662064Y0120960D01*
X0661612Y0119868D01*
X0660777Y0119033D01*
X0659686Y0118581D01*
X0660070Y0118741D02*
X0713588Y0118741D01*
X0713420Y0119527D02*
X0661270Y0119527D01*
X0661796Y0120313D02*
X0712895Y0120313D01*
X0712627Y0121099D02*
X0662064Y0121099D01*
X0662064Y0121885D02*
X0712627Y0121885D01*
X0712846Y0122670D02*
X0661844Y0122670D01*
X0661387Y0123456D02*
X0713303Y0123456D01*
X0714338Y0124242D02*
X0660352Y0124242D01*
X0657838Y0124242D02*
X0596352Y0124242D01*
X0596777Y0124067D02*
X0595686Y0124518D01*
X0594505Y0124518D01*
X0593414Y0124067D01*
X0592579Y0123232D01*
X0592127Y0122140D01*
X0592127Y0120960D01*
X0592579Y0119868D01*
X0593414Y0119033D01*
X0594505Y0118581D01*
X0595686Y0118581D01*
X0596777Y0119033D01*
X0597612Y0119868D01*
X0598064Y0120960D01*
X0598064Y0122140D01*
X0597612Y0123232D01*
X0596777Y0124067D01*
X0597387Y0123456D02*
X0649803Y0123456D01*
X0649914Y0123567D02*
X0649079Y0122732D01*
X0648627Y0121640D01*
X0648627Y0120460D01*
X0649079Y0119368D01*
X0649897Y0118550D01*
X0649079Y0117732D01*
X0648627Y0116640D01*
X0648627Y0115460D01*
X0649079Y0114368D01*
X0649914Y0113533D01*
X0651005Y0113081D01*
X0652186Y0113081D01*
X0653277Y0113533D01*
X0654112Y0114368D01*
X0654564Y0115460D01*
X0654564Y0116640D01*
X0654112Y0117732D01*
X0653293Y0118550D01*
X0654112Y0119368D01*
X0654564Y0120460D01*
X0654564Y0121640D01*
X0654112Y0122732D01*
X0653277Y0123567D01*
X0652186Y0124018D01*
X0651005Y0124018D01*
X0649914Y0123567D01*
X0649053Y0122670D02*
X0597844Y0122670D01*
X0598064Y0121885D02*
X0648728Y0121885D01*
X0648627Y0121099D02*
X0598064Y0121099D01*
X0597796Y0120313D02*
X0648687Y0120313D01*
X0649013Y0119527D02*
X0597270Y0119527D01*
X0596070Y0118741D02*
X0649706Y0118741D01*
X0649302Y0117955D02*
X0595388Y0117955D01*
X0595277Y0118067D02*
X0596112Y0117232D01*
X0596564Y0116140D01*
X0596564Y0114960D01*
X0596112Y0113868D01*
X0595277Y0113033D01*
X0594186Y0112581D01*
X0593005Y0112581D01*
X0591914Y0113033D01*
X0591079Y0113868D01*
X0590627Y0114960D01*
X0590627Y0116140D01*
X0591079Y0117232D01*
X0591914Y0118067D01*
X0593005Y0118518D01*
X0594186Y0118518D01*
X0595277Y0118067D01*
X0596138Y0117169D02*
X0648846Y0117169D01*
X0648627Y0116383D02*
X0596463Y0116383D01*
X0596564Y0115597D02*
X0648627Y0115597D01*
X0648895Y0114811D02*
X0596502Y0114811D01*
X0596177Y0114025D02*
X0649422Y0114025D01*
X0650623Y0113240D02*
X0595483Y0113240D01*
X0591708Y0113240D02*
X0588567Y0113240D01*
X0588186Y0113081D02*
X0589277Y0113533D01*
X0590112Y0114368D01*
X0590564Y0115460D01*
X0590564Y0116640D01*
X0590112Y0117732D01*
X0589293Y0118550D01*
X0590112Y0119368D01*
X0590564Y0120460D01*
X0590564Y0121640D01*
X0590112Y0122732D01*
X0589277Y0123567D01*
X0588186Y0124018D01*
X0587005Y0124018D01*
X0585914Y0123567D01*
X0585079Y0122732D01*
X0584627Y0121640D01*
X0584627Y0120460D01*
X0585079Y0119368D01*
X0585897Y0118550D01*
X0585079Y0117732D01*
X0584627Y0116640D01*
X0584627Y0115460D01*
X0585079Y0114368D01*
X0585914Y0113533D01*
X0587005Y0113081D01*
X0588186Y0113081D01*
X0586623Y0113240D02*
X0560595Y0113240D01*
X0560595Y0114025D02*
X0585422Y0114025D01*
X0584895Y0114811D02*
X0560595Y0114811D01*
X0560595Y0115597D02*
X0584627Y0115597D01*
X0584627Y0116383D02*
X0560595Y0116383D01*
X0560595Y0117169D02*
X0584846Y0117169D01*
X0585302Y0117955D02*
X0560595Y0117955D01*
X0560595Y0118741D02*
X0585706Y0118741D01*
X0585013Y0119527D02*
X0560595Y0119527D01*
X0560595Y0120313D02*
X0584687Y0120313D01*
X0584627Y0121099D02*
X0560595Y0121099D01*
X0560595Y0121885D02*
X0584728Y0121885D01*
X0585053Y0122670D02*
X0560595Y0122670D01*
X0560595Y0123456D02*
X0585803Y0123456D01*
X0589387Y0123456D02*
X0592803Y0123456D01*
X0592346Y0122670D02*
X0590137Y0122670D01*
X0590463Y0121885D02*
X0592127Y0121885D01*
X0592127Y0121099D02*
X0590564Y0121099D01*
X0590503Y0120313D02*
X0592395Y0120313D01*
X0592920Y0119527D02*
X0590177Y0119527D01*
X0589484Y0118741D02*
X0594120Y0118741D01*
X0591802Y0117955D02*
X0589888Y0117955D01*
X0590345Y0117169D02*
X0591053Y0117169D01*
X0590727Y0116383D02*
X0590564Y0116383D01*
X0590564Y0115597D02*
X0590627Y0115597D01*
X0590688Y0114811D02*
X0590295Y0114811D01*
X0589769Y0114025D02*
X0591014Y0114025D01*
X0593838Y0124242D02*
X0560595Y0124242D01*
X0560595Y0125028D02*
X0624426Y0125028D01*
X0624414Y0125033D02*
X0625505Y0124581D01*
X0626686Y0124581D01*
X0627777Y0125033D01*
X0628612Y0125868D01*
X0629064Y0126960D01*
X0629064Y0128140D01*
X0628612Y0129232D01*
X0627777Y0130067D01*
X0626686Y0130518D01*
X0625505Y0130518D01*
X0624414Y0130067D01*
X0623579Y0129232D01*
X0623127Y0128140D01*
X0623127Y0126960D01*
X0623579Y0125868D01*
X0624414Y0125033D01*
X0623633Y0125814D02*
X0560595Y0125814D01*
X0560595Y0126600D02*
X0623276Y0126600D01*
X0623127Y0127386D02*
X0560595Y0127386D01*
X0560595Y0128172D02*
X0623140Y0128172D01*
X0623465Y0128958D02*
X0606594Y0128958D01*
X0606777Y0129033D02*
X0607612Y0129868D01*
X0608064Y0130960D01*
X0608064Y0132140D01*
X0607612Y0133232D01*
X0606777Y0134067D01*
X0605686Y0134518D01*
X0604505Y0134518D01*
X0603414Y0134067D01*
X0602845Y0133498D01*
X0602277Y0134067D01*
X0601186Y0134518D01*
X0600005Y0134518D01*
X0598914Y0134067D01*
X0598345Y0133498D01*
X0597777Y0134067D01*
X0596686Y0134518D01*
X0595505Y0134518D01*
X0594414Y0134067D01*
X0593845Y0133498D01*
X0593277Y0134067D01*
X0592186Y0134518D01*
X0591005Y0134518D01*
X0589914Y0134067D01*
X0589345Y0133498D01*
X0588777Y0134067D01*
X0587686Y0134518D01*
X0586505Y0134518D01*
X0585414Y0134067D01*
X0584579Y0133232D01*
X0584127Y0132140D01*
X0584127Y0130960D01*
X0584579Y0129868D01*
X0585414Y0129033D01*
X0586505Y0128581D01*
X0587686Y0128581D01*
X0588777Y0129033D01*
X0589345Y0129602D01*
X0589914Y0129033D01*
X0591005Y0128581D01*
X0592186Y0128581D01*
X0593277Y0129033D01*
X0593845Y0129602D01*
X0594414Y0129033D01*
X0595505Y0128581D01*
X0596686Y0128581D01*
X0597777Y0129033D01*
X0598345Y0129602D01*
X0598914Y0129033D01*
X0600005Y0128581D01*
X0601186Y0128581D01*
X0602277Y0129033D01*
X0602845Y0129602D01*
X0603414Y0129033D01*
X0604505Y0128581D01*
X0605686Y0128581D01*
X0606777Y0129033D01*
X0607487Y0129744D02*
X0624091Y0129744D01*
X0628100Y0129744D02*
X0648703Y0129744D01*
X0648579Y0129868D02*
X0649414Y0129033D01*
X0650505Y0128581D01*
X0651686Y0128581D01*
X0652777Y0129033D01*
X0653345Y0129602D01*
X0653914Y0129033D01*
X0655005Y0128581D01*
X0656186Y0128581D01*
X0657277Y0129033D01*
X0657845Y0129602D01*
X0658414Y0129033D01*
X0659505Y0128581D01*
X0660686Y0128581D01*
X0661777Y0129033D01*
X0662345Y0129602D01*
X0662914Y0129033D01*
X0664005Y0128581D01*
X0665186Y0128581D01*
X0666277Y0129033D01*
X0666845Y0129602D01*
X0667414Y0129033D01*
X0668505Y0128581D01*
X0669686Y0128581D01*
X0670777Y0129033D01*
X0671612Y0129868D01*
X0672064Y0130960D01*
X0672064Y0132140D01*
X0671612Y0133232D01*
X0670777Y0134067D01*
X0669686Y0134518D01*
X0668505Y0134518D01*
X0667414Y0134067D01*
X0666845Y0133498D01*
X0666277Y0134067D01*
X0665186Y0134518D01*
X0664005Y0134518D01*
X0662914Y0134067D01*
X0662345Y0133498D01*
X0661777Y0134067D01*
X0660686Y0134518D01*
X0659505Y0134518D01*
X0658414Y0134067D01*
X0657845Y0133498D01*
X0657277Y0134067D01*
X0656186Y0134518D01*
X0655005Y0134518D01*
X0653914Y0134067D01*
X0653345Y0133498D01*
X0652777Y0134067D01*
X0651686Y0134518D01*
X0650505Y0134518D01*
X0649414Y0134067D01*
X0648579Y0133232D01*
X0648127Y0132140D01*
X0648127Y0130960D01*
X0648579Y0129868D01*
X0648305Y0130530D02*
X0607886Y0130530D01*
X0608064Y0131316D02*
X0648127Y0131316D01*
X0648127Y0132101D02*
X0608064Y0132101D01*
X0607754Y0132887D02*
X0648436Y0132887D01*
X0649020Y0133673D02*
X0607170Y0133673D01*
X0605829Y0134459D02*
X0650361Y0134459D01*
X0651829Y0134459D02*
X0654861Y0134459D01*
X0656329Y0134459D02*
X0659361Y0134459D01*
X0660829Y0134459D02*
X0663861Y0134459D01*
X0665329Y0134459D02*
X0668361Y0134459D01*
X0669829Y0134459D02*
X0693861Y0134459D01*
X0694005Y0134518D02*
X0692914Y0134067D01*
X0692079Y0133232D01*
X0691627Y0132140D01*
X0691627Y0130960D01*
X0692079Y0129868D01*
X0692914Y0129033D01*
X0694005Y0128581D01*
X0695186Y0128581D01*
X0696277Y0129033D01*
X0697112Y0129868D01*
X0697564Y0130960D01*
X0697564Y0132140D01*
X0697112Y0133232D01*
X0696277Y0134067D01*
X0695186Y0134518D01*
X0694005Y0134518D01*
X0695329Y0134459D02*
X0714361Y0134459D01*
X0714505Y0134518D02*
X0713414Y0134067D01*
X0712579Y0133232D01*
X0712127Y0132140D01*
X0712127Y0130960D01*
X0712579Y0129868D01*
X0713414Y0129033D01*
X0714505Y0128581D01*
X0715686Y0128581D01*
X0716777Y0129033D01*
X0717345Y0129602D01*
X0717914Y0129033D01*
X0719005Y0128581D01*
X0720186Y0128581D01*
X0721277Y0129033D01*
X0721845Y0129602D01*
X0722414Y0129033D01*
X0723505Y0128581D01*
X0724686Y0128581D01*
X0725777Y0129033D01*
X0726345Y0129602D01*
X0726914Y0129033D01*
X0728005Y0128581D01*
X0729186Y0128581D01*
X0730277Y0129033D01*
X0730845Y0129602D01*
X0731414Y0129033D01*
X0732505Y0128581D01*
X0733686Y0128581D01*
X0734777Y0129033D01*
X0735612Y0129868D01*
X0736064Y0130960D01*
X0736064Y0132140D01*
X0735612Y0133232D01*
X0734777Y0134067D01*
X0733686Y0134518D01*
X0732505Y0134518D01*
X0731414Y0134067D01*
X0730845Y0133498D01*
X0730277Y0134067D01*
X0729186Y0134518D01*
X0728005Y0134518D01*
X0726914Y0134067D01*
X0726345Y0133498D01*
X0725777Y0134067D01*
X0724686Y0134518D01*
X0723505Y0134518D01*
X0722414Y0134067D01*
X0721845Y0133498D01*
X0721277Y0134067D01*
X0720186Y0134518D01*
X0719005Y0134518D01*
X0717914Y0134067D01*
X0717345Y0133498D01*
X0716777Y0134067D01*
X0715686Y0134518D01*
X0714505Y0134518D01*
X0715829Y0134459D02*
X0718861Y0134459D01*
X0720329Y0134459D02*
X0723361Y0134459D01*
X0724829Y0134459D02*
X0727861Y0134459D01*
X0729329Y0134459D02*
X0732361Y0134459D01*
X0733829Y0134459D02*
X0785414Y0134459D01*
X0785414Y0134318D02*
X0786051Y0132782D01*
X0787227Y0131605D01*
X0788763Y0130969D01*
X0790427Y0130969D01*
X0791964Y0131605D01*
X0793140Y0132782D01*
X0793776Y0134318D01*
X0793776Y0135982D01*
X0793140Y0137518D01*
X0791964Y0138695D01*
X0790427Y0139331D01*
X0788763Y0139331D01*
X0787227Y0138695D01*
X0786051Y0137518D01*
X0785414Y0135982D01*
X0785414Y0134318D01*
X0785681Y0133673D02*
X0735170Y0133673D01*
X0735754Y0132887D02*
X0786007Y0132887D01*
X0786731Y0132101D02*
X0736064Y0132101D01*
X0736064Y0131316D02*
X0787927Y0131316D01*
X0787896Y0128172D02*
X0629051Y0128172D01*
X0629064Y0127386D02*
X0786718Y0127386D01*
X0786002Y0126600D02*
X0628915Y0126600D01*
X0628557Y0125814D02*
X0785676Y0125814D01*
X0785414Y0125028D02*
X0627764Y0125028D01*
X0628725Y0128958D02*
X0649596Y0128958D01*
X0652594Y0128958D02*
X0654096Y0128958D01*
X0657094Y0128958D02*
X0658596Y0128958D01*
X0661594Y0128958D02*
X0663096Y0128958D01*
X0666094Y0128958D02*
X0667596Y0128958D01*
X0670594Y0128958D02*
X0693096Y0128958D01*
X0692203Y0129744D02*
X0671487Y0129744D01*
X0671886Y0130530D02*
X0691805Y0130530D01*
X0691627Y0131316D02*
X0672064Y0131316D01*
X0672064Y0132101D02*
X0691627Y0132101D01*
X0691936Y0132887D02*
X0671754Y0132887D01*
X0671170Y0133673D02*
X0692520Y0133673D01*
X0696670Y0133673D02*
X0713020Y0133673D01*
X0712436Y0132887D02*
X0697254Y0132887D01*
X0697564Y0132101D02*
X0712127Y0132101D01*
X0712127Y0131316D02*
X0697564Y0131316D01*
X0697386Y0130530D02*
X0712305Y0130530D01*
X0712703Y0129744D02*
X0696987Y0129744D01*
X0696094Y0128958D02*
X0713596Y0128958D01*
X0716594Y0128958D02*
X0718096Y0128958D01*
X0721094Y0128958D02*
X0722596Y0128958D01*
X0725594Y0128958D02*
X0727096Y0128958D01*
X0730094Y0128958D02*
X0731596Y0128958D01*
X0734594Y0128958D02*
X0795414Y0128958D01*
X0795414Y0128918D02*
X0796051Y0127382D01*
X0797227Y0126205D01*
X0798763Y0125569D01*
X0800427Y0125569D01*
X0801964Y0126205D01*
X0803140Y0127382D01*
X0803776Y0128918D01*
X0803776Y0130582D01*
X0803140Y0132118D01*
X0801964Y0133295D01*
X0800427Y0133931D01*
X0798763Y0133931D01*
X0797227Y0133295D01*
X0796051Y0132118D01*
X0795414Y0130582D01*
X0795414Y0128918D01*
X0795723Y0128172D02*
X0791294Y0128172D01*
X0792472Y0127386D02*
X0796049Y0127386D01*
X0796832Y0126600D02*
X0793189Y0126600D01*
X0793514Y0125814D02*
X0798171Y0125814D01*
X0801019Y0125814D02*
X0839201Y0125814D01*
X0839201Y0125028D02*
X0793776Y0125028D01*
X0793776Y0124242D02*
X0839201Y0124242D01*
X0839201Y0126600D02*
X0802358Y0126600D01*
X0803142Y0127386D02*
X0839201Y0127386D01*
X0839201Y0128172D02*
X0803467Y0128172D01*
X0803776Y0128958D02*
X0839201Y0128958D01*
X0839201Y0129744D02*
X0803776Y0129744D01*
X0803776Y0130530D02*
X0839201Y0130530D01*
X0839201Y0131316D02*
X0803472Y0131316D01*
X0803147Y0132101D02*
X0839201Y0132101D01*
X0839201Y0132887D02*
X0802371Y0132887D01*
X0801049Y0133673D02*
X0839201Y0133673D01*
X0839201Y0134459D02*
X0793776Y0134459D01*
X0793776Y0135245D02*
X0839201Y0135245D01*
X0839201Y0136031D02*
X0793756Y0136031D01*
X0793430Y0136817D02*
X0797923Y0136817D01*
X0797227Y0137105D02*
X0798763Y0136469D01*
X0800427Y0136469D01*
X0801964Y0137105D01*
X0803140Y0138282D01*
X0803776Y0139818D01*
X0803776Y0141482D01*
X0803140Y0143018D01*
X0801964Y0144195D01*
X0800427Y0144831D01*
X0798763Y0144831D01*
X0797227Y0144195D01*
X0796051Y0143018D01*
X0795414Y0141482D01*
X0795414Y0139818D01*
X0796051Y0138282D01*
X0797227Y0137105D01*
X0796729Y0137603D02*
X0793055Y0137603D01*
X0792269Y0138389D02*
X0796006Y0138389D01*
X0795681Y0139175D02*
X0790804Y0139175D01*
X0788386Y0139175D02*
X0588411Y0139175D01*
X0588186Y0139081D02*
X0589277Y0139533D01*
X0590112Y0140368D01*
X0590564Y0141460D01*
X0590564Y0142640D01*
X0590112Y0143732D01*
X0589293Y0144550D01*
X0590112Y0145368D01*
X0590564Y0146460D01*
X0590564Y0147640D01*
X0590112Y0148732D01*
X0589277Y0149567D01*
X0588186Y0150018D01*
X0587005Y0150018D01*
X0585914Y0149567D01*
X0585079Y0148732D01*
X0584627Y0147640D01*
X0584627Y0146460D01*
X0585079Y0145368D01*
X0585897Y0144550D01*
X0585079Y0143732D01*
X0584627Y0142640D01*
X0584627Y0141460D01*
X0585079Y0140368D01*
X0585914Y0139533D01*
X0587005Y0139081D01*
X0588186Y0139081D01*
X0586780Y0139175D02*
X0560595Y0139175D01*
X0560595Y0139961D02*
X0585486Y0139961D01*
X0584922Y0140746D02*
X0560595Y0140746D01*
X0560595Y0141532D02*
X0584627Y0141532D01*
X0584627Y0142318D02*
X0560595Y0142318D01*
X0560595Y0143104D02*
X0584819Y0143104D01*
X0585237Y0143890D02*
X0560595Y0143890D01*
X0560595Y0144676D02*
X0585771Y0144676D01*
X0585040Y0145462D02*
X0560595Y0145462D01*
X0560595Y0146248D02*
X0584714Y0146248D01*
X0584627Y0147034D02*
X0560595Y0147034D01*
X0560595Y0147820D02*
X0584701Y0147820D01*
X0585026Y0148606D02*
X0560595Y0148606D01*
X0560595Y0149392D02*
X0585739Y0149392D01*
X0589452Y0149392D02*
X0649239Y0149392D01*
X0649079Y0149232D02*
X0649914Y0150067D01*
X0651005Y0150518D01*
X0652186Y0150518D01*
X0653277Y0150067D01*
X0654112Y0149232D01*
X0654564Y0148140D01*
X0654564Y0146960D01*
X0654112Y0145868D01*
X0653293Y0145050D01*
X0654112Y0144232D01*
X0654564Y0143140D01*
X0654564Y0141960D01*
X0654112Y0140868D01*
X0653277Y0140033D01*
X0652186Y0139581D01*
X0651005Y0139581D01*
X0649914Y0140033D01*
X0649079Y0140868D01*
X0648627Y0141960D01*
X0648627Y0143140D01*
X0649079Y0144232D01*
X0649897Y0145050D01*
X0649079Y0145868D01*
X0648627Y0146960D01*
X0648627Y0148140D01*
X0649079Y0149232D01*
X0648819Y0148606D02*
X0590164Y0148606D01*
X0590489Y0147820D02*
X0648627Y0147820D01*
X0648627Y0147034D02*
X0590564Y0147034D01*
X0590476Y0146248D02*
X0648921Y0146248D01*
X0649485Y0145462D02*
X0590150Y0145462D01*
X0589419Y0144676D02*
X0649523Y0144676D01*
X0648937Y0143890D02*
X0589953Y0143890D01*
X0590372Y0143104D02*
X0648627Y0143104D01*
X0648627Y0142318D02*
X0590564Y0142318D01*
X0590564Y0141532D02*
X0648804Y0141532D01*
X0649201Y0140746D02*
X0590268Y0140746D01*
X0589704Y0139961D02*
X0650089Y0139961D01*
X0653101Y0139961D02*
X0714089Y0139961D01*
X0713914Y0140033D02*
X0715005Y0139581D01*
X0716186Y0139581D01*
X0717277Y0140033D01*
X0718112Y0140868D01*
X0718564Y0141960D01*
X0718564Y0143140D01*
X0718112Y0144232D01*
X0717293Y0145050D01*
X0718112Y0145868D01*
X0718564Y0146960D01*
X0718564Y0148140D01*
X0718112Y0149232D01*
X0717277Y0150067D01*
X0716186Y0150518D01*
X0715005Y0150518D01*
X0713914Y0150067D01*
X0713079Y0149232D01*
X0712627Y0148140D01*
X0712627Y0146960D01*
X0713079Y0145868D01*
X0713897Y0145050D01*
X0713079Y0144232D01*
X0712627Y0143140D01*
X0712627Y0141960D01*
X0713079Y0140868D01*
X0713914Y0140033D01*
X0713201Y0140746D02*
X0653990Y0140746D01*
X0654387Y0141532D02*
X0712804Y0141532D01*
X0712627Y0142318D02*
X0654564Y0142318D01*
X0654564Y0143104D02*
X0712627Y0143104D01*
X0712937Y0143890D02*
X0654253Y0143890D01*
X0653667Y0144676D02*
X0713523Y0144676D01*
X0713485Y0145462D02*
X0653705Y0145462D01*
X0654269Y0146248D02*
X0712921Y0146248D01*
X0712627Y0147034D02*
X0654564Y0147034D01*
X0654564Y0147820D02*
X0712627Y0147820D01*
X0712819Y0148606D02*
X0654371Y0148606D01*
X0653952Y0149392D02*
X0713239Y0149392D01*
X0714181Y0150177D02*
X0653009Y0150177D01*
X0650181Y0150177D02*
X0560595Y0150177D01*
X0560595Y0150963D02*
X0795414Y0150963D01*
X0795414Y0150618D02*
X0796051Y0149082D01*
X0797227Y0147905D01*
X0798763Y0147269D01*
X0800427Y0147269D01*
X0801964Y0147905D01*
X0803140Y0149082D01*
X0803776Y0150618D01*
X0803776Y0152282D01*
X0803140Y0153818D01*
X0801964Y0154995D01*
X0800427Y0155631D01*
X0798763Y0155631D01*
X0797227Y0154995D01*
X0796051Y0153818D01*
X0795414Y0152282D01*
X0795414Y0150618D01*
X0795597Y0150177D02*
X0790556Y0150177D01*
X0790427Y0150231D02*
X0788763Y0150231D01*
X0787227Y0149595D01*
X0786051Y0148418D01*
X0785414Y0146882D01*
X0785414Y0145218D01*
X0786051Y0143682D01*
X0787227Y0142505D01*
X0788763Y0141869D01*
X0790427Y0141869D01*
X0791964Y0142505D01*
X0793140Y0143682D01*
X0793776Y0145218D01*
X0793776Y0146882D01*
X0793140Y0148418D01*
X0791964Y0149595D01*
X0790427Y0150231D01*
X0788634Y0150177D02*
X0717009Y0150177D01*
X0717952Y0149392D02*
X0787024Y0149392D01*
X0786238Y0148606D02*
X0718371Y0148606D01*
X0718564Y0147820D02*
X0785803Y0147820D01*
X0785477Y0147034D02*
X0718564Y0147034D01*
X0718269Y0146248D02*
X0785414Y0146248D01*
X0785414Y0145462D02*
X0717705Y0145462D01*
X0717667Y0144676D02*
X0785639Y0144676D01*
X0785964Y0143890D02*
X0718253Y0143890D01*
X0718564Y0143104D02*
X0786628Y0143104D01*
X0787678Y0142318D02*
X0718564Y0142318D01*
X0718387Y0141532D02*
X0795435Y0141532D01*
X0795414Y0140746D02*
X0717990Y0140746D01*
X0717101Y0139961D02*
X0795414Y0139961D01*
X0795761Y0142318D02*
X0791512Y0142318D01*
X0792562Y0143104D02*
X0796136Y0143104D01*
X0796922Y0143890D02*
X0793226Y0143890D01*
X0793552Y0144676D02*
X0798389Y0144676D01*
X0800801Y0144676D02*
X0839201Y0144676D01*
X0839201Y0143890D02*
X0802268Y0143890D01*
X0803054Y0143104D02*
X0839201Y0143104D01*
X0839201Y0142318D02*
X0803430Y0142318D01*
X0803755Y0141532D02*
X0839201Y0141532D01*
X0839201Y0140746D02*
X0803776Y0140746D01*
X0803776Y0139961D02*
X0839201Y0139961D01*
X0839201Y0139175D02*
X0803510Y0139175D01*
X0803184Y0138389D02*
X0839201Y0138389D01*
X0839201Y0137603D02*
X0802461Y0137603D01*
X0801267Y0136817D02*
X0839201Y0136817D01*
X0839201Y0145462D02*
X0793776Y0145462D01*
X0793776Y0146248D02*
X0839201Y0146248D01*
X0839201Y0147034D02*
X0793713Y0147034D01*
X0793388Y0147820D02*
X0797434Y0147820D01*
X0796527Y0148606D02*
X0792952Y0148606D01*
X0792167Y0149392D02*
X0795922Y0149392D01*
X0795414Y0151749D02*
X0777992Y0151749D01*
X0777777Y0151533D02*
X0778612Y0152368D01*
X0779064Y0153460D01*
X0779064Y0154640D01*
X0778612Y0155732D01*
X0777777Y0156567D01*
X0776686Y0157018D01*
X0775505Y0157018D01*
X0774414Y0156567D01*
X0773595Y0155748D01*
X0772777Y0156567D01*
X0771686Y0157018D01*
X0770505Y0157018D01*
X0769414Y0156567D01*
X0768579Y0155732D01*
X0768127Y0154640D01*
X0768127Y0153460D01*
X0768579Y0152368D01*
X0769414Y0151533D01*
X0770505Y0151081D01*
X0771686Y0151081D01*
X0772777Y0151533D01*
X0773595Y0152352D01*
X0774414Y0151533D01*
X0775505Y0151081D01*
X0776686Y0151081D01*
X0777777Y0151533D01*
X0778681Y0152535D02*
X0795519Y0152535D01*
X0795845Y0153321D02*
X0791760Y0153321D01*
X0791964Y0153405D02*
X0793140Y0154582D01*
X0793776Y0156118D01*
X0793776Y0157782D01*
X0793140Y0159318D01*
X0791964Y0160495D01*
X0790427Y0161131D01*
X0788763Y0161131D01*
X0787227Y0160495D01*
X0786051Y0159318D01*
X0785414Y0157782D01*
X0785414Y0156118D01*
X0786051Y0154582D01*
X0787227Y0153405D01*
X0788763Y0152769D01*
X0790427Y0152769D01*
X0791964Y0153405D01*
X0792665Y0154107D02*
X0796339Y0154107D01*
X0797125Y0154893D02*
X0793269Y0154893D01*
X0793594Y0155679D02*
X0839201Y0155679D01*
X0839201Y0156465D02*
X0793776Y0156465D01*
X0793776Y0157251D02*
X0839201Y0157251D01*
X0839201Y0158037D02*
X0793671Y0158037D01*
X0793345Y0158822D02*
X0797210Y0158822D01*
X0797227Y0158805D02*
X0798763Y0158169D01*
X0800427Y0158169D01*
X0801964Y0158805D01*
X0803140Y0159982D01*
X0803776Y0161518D01*
X0803776Y0163182D01*
X0803140Y0164718D01*
X0801964Y0165895D01*
X0800427Y0166531D01*
X0798763Y0166531D01*
X0797227Y0165895D01*
X0796051Y0164718D01*
X0795414Y0163182D01*
X0795414Y0161518D01*
X0796051Y0159982D01*
X0797227Y0158805D01*
X0796424Y0159608D02*
X0792850Y0159608D01*
X0792064Y0160394D02*
X0795880Y0160394D01*
X0795554Y0161180D02*
X0773948Y0161180D01*
X0774064Y0161460D02*
X0773612Y0160368D01*
X0772777Y0159533D01*
X0771686Y0159081D01*
X0770505Y0159081D01*
X0769414Y0159533D01*
X0768579Y0160368D01*
X0768127Y0161460D01*
X0768127Y0162640D01*
X0768579Y0163732D01*
X0769147Y0164300D01*
X0768579Y0164868D01*
X0768127Y0165960D01*
X0768127Y0167140D01*
X0768579Y0168232D01*
X0769414Y0169067D01*
X0770505Y0169518D01*
X0771686Y0169518D01*
X0772777Y0169067D01*
X0773612Y0168232D01*
X0774064Y0167140D01*
X0774064Y0165960D01*
X0773612Y0164868D01*
X0773043Y0164300D01*
X0773612Y0163732D01*
X0774064Y0162640D01*
X0774064Y0161460D01*
X0774064Y0161966D02*
X0795414Y0161966D01*
X0795414Y0162752D02*
X0774017Y0162752D01*
X0773692Y0163538D02*
X0795562Y0163538D01*
X0795887Y0164324D02*
X0792082Y0164324D01*
X0791964Y0164205D02*
X0793140Y0165382D01*
X0793776Y0166918D01*
X0793776Y0168582D01*
X0793140Y0170118D01*
X0791964Y0171295D01*
X0790427Y0171931D01*
X0788763Y0171931D01*
X0787227Y0171295D01*
X0786051Y0170118D01*
X0785414Y0168582D01*
X0785414Y0166918D01*
X0786051Y0165382D01*
X0787227Y0164205D01*
X0788763Y0163569D01*
X0790427Y0163569D01*
X0791964Y0164205D01*
X0792868Y0165110D02*
X0796442Y0165110D01*
X0797229Y0165896D02*
X0793353Y0165896D01*
X0793678Y0166682D02*
X0839201Y0166682D01*
X0839201Y0167468D02*
X0793776Y0167468D01*
X0793776Y0168253D02*
X0839201Y0168253D01*
X0839201Y0169039D02*
X0793587Y0169039D01*
X0793261Y0169825D02*
X0797107Y0169825D01*
X0797227Y0169705D02*
X0798763Y0169069D01*
X0800427Y0169069D01*
X0801964Y0169705D01*
X0803140Y0170882D01*
X0803776Y0172418D01*
X0803776Y0174082D01*
X0803140Y0175618D01*
X0801964Y0176795D01*
X0800427Y0177431D01*
X0798763Y0177431D01*
X0797227Y0176795D01*
X0796051Y0175618D01*
X0795414Y0174082D01*
X0795414Y0172418D01*
X0796051Y0170882D01*
X0797227Y0169705D01*
X0796321Y0170611D02*
X0792647Y0170611D01*
X0791716Y0171397D02*
X0795837Y0171397D01*
X0795512Y0172183D02*
X0769564Y0172183D01*
X0769564Y0171960D02*
X0769112Y0170868D01*
X0768277Y0170033D01*
X0767186Y0169581D01*
X0766005Y0169581D01*
X0764914Y0170033D01*
X0764079Y0170868D01*
X0763627Y0171960D01*
X0763627Y0173140D01*
X0764079Y0174232D01*
X0764914Y0175067D01*
X0766005Y0175518D01*
X0766450Y0175518D01*
X0766414Y0175533D01*
X0765579Y0176368D01*
X0765127Y0177460D01*
X0765127Y0178640D01*
X0765579Y0179732D01*
X0766414Y0180567D01*
X0767505Y0181018D01*
X0768686Y0181018D01*
X0769777Y0180567D01*
X0770612Y0179732D01*
X0771064Y0178640D01*
X0771064Y0177460D01*
X0770612Y0176368D01*
X0769777Y0175533D01*
X0768686Y0175081D01*
X0768241Y0175081D01*
X0768277Y0175067D01*
X0769112Y0174232D01*
X0769564Y0173140D01*
X0769564Y0171960D01*
X0769331Y0171397D02*
X0787474Y0171397D01*
X0786543Y0170611D02*
X0768854Y0170611D01*
X0767774Y0169825D02*
X0785929Y0169825D01*
X0785604Y0169039D02*
X0772804Y0169039D01*
X0773590Y0168253D02*
X0785414Y0168253D01*
X0785414Y0167468D02*
X0773928Y0167468D01*
X0774064Y0166682D02*
X0785512Y0166682D01*
X0785838Y0165896D02*
X0774037Y0165896D01*
X0773712Y0165110D02*
X0786322Y0165110D01*
X0787108Y0164324D02*
X0773067Y0164324D01*
X0769123Y0164324D02*
X0570155Y0164324D01*
X0569686Y0164518D02*
X0568505Y0164518D01*
X0567414Y0164067D01*
X0566579Y0163232D01*
X0566127Y0162140D01*
X0566127Y0160960D01*
X0566579Y0159868D01*
X0567414Y0159033D01*
X0568505Y0158581D01*
X0569686Y0158581D01*
X0569835Y0158643D01*
X0569627Y0158140D01*
X0569627Y0156960D01*
X0570079Y0155868D01*
X0570914Y0155033D01*
X0572005Y0154581D01*
X0573186Y0154581D01*
X0574277Y0155033D01*
X0575112Y0155868D01*
X0575564Y0156960D01*
X0575564Y0158140D01*
X0575112Y0159232D01*
X0574277Y0160067D01*
X0573186Y0160518D01*
X0572005Y0160518D01*
X0571855Y0160457D01*
X0572064Y0160960D01*
X0572064Y0162140D01*
X0571612Y0163232D01*
X0570777Y0164067D01*
X0569686Y0164518D01*
X0568035Y0164324D02*
X0560595Y0164324D01*
X0560595Y0165110D02*
X0768479Y0165110D01*
X0768153Y0165896D02*
X0560595Y0165896D01*
X0560595Y0166682D02*
X0597265Y0166682D01*
X0597414Y0166533D02*
X0596579Y0167368D01*
X0596127Y0168460D01*
X0596127Y0169640D01*
X0596579Y0170732D01*
X0597414Y0171567D01*
X0598505Y0172018D01*
X0599686Y0172018D01*
X0600777Y0171567D01*
X0601612Y0170732D01*
X0602064Y0169640D01*
X0602064Y0168460D01*
X0601612Y0167368D01*
X0600777Y0166533D01*
X0599686Y0166081D01*
X0598505Y0166081D01*
X0597414Y0166533D01*
X0596538Y0167468D02*
X0589118Y0167468D01*
X0589277Y0167533D02*
X0590112Y0168368D01*
X0590564Y0169460D01*
X0590564Y0170640D01*
X0590112Y0171732D01*
X0589543Y0172300D01*
X0590112Y0172868D01*
X0590449Y0173682D01*
X0590579Y0173368D01*
X0591414Y0172533D01*
X0592505Y0172081D01*
X0593686Y0172081D01*
X0594777Y0172533D01*
X0595612Y0173368D01*
X0596064Y0174460D01*
X0596064Y0175640D01*
X0595612Y0176732D01*
X0594777Y0177567D01*
X0593686Y0178018D01*
X0592505Y0178018D01*
X0591414Y0177567D01*
X0590579Y0176732D01*
X0590242Y0175918D01*
X0590112Y0176232D01*
X0589277Y0177067D01*
X0588186Y0177518D01*
X0587005Y0177518D01*
X0585914Y0177067D01*
X0585079Y0176232D01*
X0584627Y0175140D01*
X0584627Y0173960D01*
X0585079Y0172868D01*
X0585647Y0172300D01*
X0585079Y0171732D01*
X0584627Y0170640D01*
X0584627Y0169460D01*
X0585079Y0168368D01*
X0585914Y0167533D01*
X0587005Y0167081D01*
X0588186Y0167081D01*
X0589277Y0167533D01*
X0589997Y0168253D02*
X0596212Y0168253D01*
X0596127Y0169039D02*
X0590390Y0169039D01*
X0590564Y0169825D02*
X0596203Y0169825D01*
X0596529Y0170611D02*
X0590564Y0170611D01*
X0590250Y0171397D02*
X0597244Y0171397D01*
X0595212Y0172969D02*
X0649037Y0172969D01*
X0649079Y0172868D02*
X0649897Y0172050D01*
X0649079Y0171232D01*
X0648627Y0170140D01*
X0648627Y0168960D01*
X0649079Y0167868D01*
X0649914Y0167033D01*
X0651005Y0166581D01*
X0652186Y0166581D01*
X0653277Y0167033D01*
X0654112Y0167868D01*
X0654564Y0168960D01*
X0654564Y0170140D01*
X0654112Y0171232D01*
X0653293Y0172050D01*
X0654112Y0172868D01*
X0654449Y0173682D01*
X0654579Y0173368D01*
X0655414Y0172533D01*
X0656505Y0172081D01*
X0657686Y0172081D01*
X0658777Y0172533D01*
X0659612Y0173368D01*
X0660064Y0174460D01*
X0660064Y0175640D01*
X0659612Y0176732D01*
X0658777Y0177567D01*
X0657686Y0178018D01*
X0656505Y0178018D01*
X0655414Y0177567D01*
X0654579Y0176732D01*
X0654242Y0175918D01*
X0654112Y0176232D01*
X0653277Y0177067D01*
X0652186Y0177518D01*
X0651005Y0177518D01*
X0649914Y0177067D01*
X0649079Y0176232D01*
X0648627Y0175140D01*
X0648627Y0173960D01*
X0649079Y0172868D01*
X0648711Y0173755D02*
X0595772Y0173755D01*
X0596064Y0174541D02*
X0648627Y0174541D01*
X0648704Y0175327D02*
X0596064Y0175327D01*
X0595868Y0176113D02*
X0649029Y0176113D01*
X0649746Y0176898D02*
X0595445Y0176898D01*
X0594492Y0177684D02*
X0655698Y0177684D01*
X0654746Y0176898D02*
X0653445Y0176898D01*
X0654161Y0176113D02*
X0654322Y0176113D01*
X0654153Y0172969D02*
X0654978Y0172969D01*
X0656260Y0172183D02*
X0653426Y0172183D01*
X0653946Y0171397D02*
X0661244Y0171397D01*
X0661414Y0171567D02*
X0660579Y0170732D01*
X0660127Y0169640D01*
X0660127Y0168460D01*
X0660579Y0167368D01*
X0661414Y0166533D01*
X0662505Y0166081D01*
X0663686Y0166081D01*
X0664777Y0166533D01*
X0665612Y0167368D01*
X0666064Y0168460D01*
X0666064Y0169640D01*
X0665612Y0170732D01*
X0664777Y0171567D01*
X0663686Y0172018D01*
X0662505Y0172018D01*
X0661414Y0171567D01*
X0660529Y0170611D02*
X0654369Y0170611D01*
X0654564Y0169825D02*
X0660203Y0169825D01*
X0660127Y0169039D02*
X0654564Y0169039D01*
X0654271Y0168253D02*
X0660212Y0168253D01*
X0660538Y0167468D02*
X0653711Y0167468D01*
X0652427Y0166682D02*
X0661265Y0166682D01*
X0664925Y0166682D02*
X0714763Y0166682D01*
X0715005Y0166581D02*
X0713914Y0167033D01*
X0713079Y0167868D01*
X0712627Y0168960D01*
X0712627Y0170140D01*
X0713079Y0171232D01*
X0713897Y0172050D01*
X0713079Y0172868D01*
X0712627Y0173960D01*
X0712627Y0175140D01*
X0713079Y0176232D01*
X0713914Y0177067D01*
X0715005Y0177518D01*
X0716186Y0177518D01*
X0717277Y0177067D01*
X0718112Y0176232D01*
X0718242Y0175918D01*
X0718579Y0176732D01*
X0719414Y0177567D01*
X0720505Y0178018D01*
X0721686Y0178018D01*
X0722777Y0177567D01*
X0723612Y0176732D01*
X0724064Y0175640D01*
X0724064Y0174460D01*
X0723612Y0173368D01*
X0722777Y0172533D01*
X0721686Y0172081D01*
X0720505Y0172081D01*
X0719414Y0172533D01*
X0718579Y0173368D01*
X0718449Y0173682D01*
X0718112Y0172868D01*
X0717293Y0172050D01*
X0718112Y0171232D01*
X0718564Y0170140D01*
X0718564Y0168960D01*
X0718112Y0167868D01*
X0717277Y0167033D01*
X0716186Y0166581D01*
X0715005Y0166581D01*
X0716427Y0166682D02*
X0725265Y0166682D01*
X0725414Y0166533D02*
X0724579Y0167368D01*
X0724127Y0168460D01*
X0724127Y0169640D01*
X0724579Y0170732D01*
X0725414Y0171567D01*
X0726505Y0172018D01*
X0727686Y0172018D01*
X0728777Y0171567D01*
X0729612Y0170732D01*
X0730064Y0169640D01*
X0730064Y0168460D01*
X0729612Y0167368D01*
X0728777Y0166533D01*
X0727686Y0166081D01*
X0726505Y0166081D01*
X0725414Y0166533D01*
X0724538Y0167468D02*
X0717711Y0167468D01*
X0718271Y0168253D02*
X0724212Y0168253D01*
X0724127Y0169039D02*
X0718564Y0169039D01*
X0718564Y0169825D02*
X0724203Y0169825D01*
X0724529Y0170611D02*
X0718369Y0170611D01*
X0717946Y0171397D02*
X0725244Y0171397D01*
X0723212Y0172969D02*
X0763627Y0172969D01*
X0763627Y0172183D02*
X0721931Y0172183D01*
X0720260Y0172183D02*
X0717426Y0172183D01*
X0718153Y0172969D02*
X0718978Y0172969D01*
X0718322Y0176113D02*
X0718161Y0176113D01*
X0718746Y0176898D02*
X0717445Y0176898D01*
X0719698Y0177684D02*
X0658492Y0177684D01*
X0659445Y0176898D02*
X0713746Y0176898D01*
X0713029Y0176113D02*
X0659868Y0176113D01*
X0660064Y0175327D02*
X0712704Y0175327D01*
X0712627Y0174541D02*
X0660064Y0174541D01*
X0659772Y0173755D02*
X0712711Y0173755D01*
X0713037Y0172969D02*
X0659212Y0172969D01*
X0657931Y0172183D02*
X0713764Y0172183D01*
X0713244Y0171397D02*
X0664946Y0171397D01*
X0665662Y0170611D02*
X0712822Y0170611D01*
X0712627Y0169825D02*
X0665987Y0169825D01*
X0666064Y0169039D02*
X0712627Y0169039D01*
X0712919Y0168253D02*
X0665978Y0168253D01*
X0665653Y0167468D02*
X0713480Y0167468D01*
X0728925Y0166682D02*
X0768127Y0166682D01*
X0768262Y0167468D02*
X0729653Y0167468D01*
X0729978Y0168253D02*
X0768600Y0168253D01*
X0769386Y0169039D02*
X0730064Y0169039D01*
X0729987Y0169825D02*
X0765416Y0169825D01*
X0764336Y0170611D02*
X0729662Y0170611D01*
X0728946Y0171397D02*
X0763860Y0171397D01*
X0763881Y0173755D02*
X0723772Y0173755D01*
X0724064Y0174541D02*
X0764388Y0174541D01*
X0765542Y0175327D02*
X0724064Y0175327D01*
X0723868Y0176113D02*
X0765834Y0176113D01*
X0765359Y0176898D02*
X0723445Y0176898D01*
X0722492Y0177684D02*
X0765127Y0177684D01*
X0765127Y0178470D02*
X0560595Y0178470D01*
X0560595Y0177684D02*
X0591698Y0177684D01*
X0590746Y0176898D02*
X0589445Y0176898D01*
X0590161Y0176113D02*
X0590322Y0176113D01*
X0590153Y0172969D02*
X0590978Y0172969D01*
X0592260Y0172183D02*
X0589660Y0172183D01*
X0585530Y0172183D02*
X0569546Y0172183D01*
X0569564Y0172140D02*
X0569112Y0173232D01*
X0568277Y0174067D01*
X0567186Y0174518D01*
X0566005Y0174518D01*
X0564914Y0174067D01*
X0564079Y0173232D01*
X0563627Y0172140D01*
X0563627Y0170960D01*
X0564079Y0169868D01*
X0564914Y0169033D01*
X0566005Y0168581D01*
X0567186Y0168581D01*
X0568277Y0169033D01*
X0569112Y0169868D01*
X0569564Y0170960D01*
X0569564Y0172140D01*
X0569564Y0171397D02*
X0584940Y0171397D01*
X0584627Y0170611D02*
X0569419Y0170611D01*
X0569068Y0169825D02*
X0584627Y0169825D01*
X0584801Y0169039D02*
X0568283Y0169039D01*
X0564908Y0169039D02*
X0560595Y0169039D01*
X0560595Y0168253D02*
X0585194Y0168253D01*
X0586073Y0167468D02*
X0560595Y0167468D01*
X0560595Y0169825D02*
X0564122Y0169825D01*
X0563771Y0170611D02*
X0560595Y0170611D01*
X0560595Y0171397D02*
X0563627Y0171397D01*
X0563644Y0172183D02*
X0560595Y0172183D01*
X0560595Y0172969D02*
X0563970Y0172969D01*
X0564602Y0173755D02*
X0560595Y0173755D01*
X0560595Y0174541D02*
X0584627Y0174541D01*
X0584704Y0175327D02*
X0560595Y0175327D01*
X0560595Y0176113D02*
X0585029Y0176113D01*
X0585746Y0176898D02*
X0560595Y0176898D01*
X0560595Y0179256D02*
X0765382Y0179256D01*
X0765889Y0180042D02*
X0560595Y0180042D01*
X0560595Y0180828D02*
X0767045Y0180828D01*
X0769145Y0180828D02*
X0785972Y0180828D01*
X0786051Y0181018D02*
X0785414Y0179482D01*
X0785414Y0177818D01*
X0786051Y0176282D01*
X0787227Y0175105D01*
X0788763Y0174469D01*
X0790427Y0174469D01*
X0791964Y0175105D01*
X0793140Y0176282D01*
X0793776Y0177818D01*
X0793776Y0179482D01*
X0793140Y0181018D01*
X0791964Y0182195D01*
X0790427Y0182831D01*
X0788763Y0182831D01*
X0787227Y0182195D01*
X0786051Y0181018D01*
X0786646Y0181614D02*
X0560595Y0181614D01*
X0560595Y0182400D02*
X0787722Y0182400D01*
X0785646Y0180042D02*
X0770301Y0180042D01*
X0770809Y0179256D02*
X0785414Y0179256D01*
X0785414Y0178470D02*
X0771064Y0178470D01*
X0771064Y0177684D02*
X0785470Y0177684D01*
X0785795Y0176898D02*
X0770831Y0176898D01*
X0770356Y0176113D02*
X0786220Y0176113D01*
X0787006Y0175327D02*
X0769277Y0175327D01*
X0768802Y0174541D02*
X0788590Y0174541D01*
X0790600Y0174541D02*
X0795604Y0174541D01*
X0795414Y0173755D02*
X0769309Y0173755D01*
X0769564Y0172969D02*
X0795414Y0172969D01*
X0795930Y0175327D02*
X0792185Y0175327D01*
X0792971Y0176113D02*
X0796545Y0176113D01*
X0797478Y0176898D02*
X0793395Y0176898D01*
X0793721Y0177684D02*
X0839201Y0177684D01*
X0839201Y0176898D02*
X0801713Y0176898D01*
X0802646Y0176113D02*
X0839201Y0176113D01*
X0839201Y0175327D02*
X0803261Y0175327D01*
X0803586Y0174541D02*
X0839201Y0174541D01*
X0839201Y0173755D02*
X0803776Y0173755D01*
X0803776Y0172969D02*
X0839201Y0172969D01*
X0839201Y0172183D02*
X0803679Y0172183D01*
X0803353Y0171397D02*
X0839201Y0171397D01*
X0839201Y0170611D02*
X0802869Y0170611D01*
X0802083Y0169825D02*
X0839201Y0169825D01*
X0839201Y0165896D02*
X0801961Y0165896D01*
X0802748Y0165110D02*
X0839201Y0165110D01*
X0839201Y0164324D02*
X0803303Y0164324D01*
X0803629Y0163538D02*
X0839201Y0163538D01*
X0839201Y0162752D02*
X0803776Y0162752D01*
X0803776Y0161966D02*
X0839201Y0161966D01*
X0839201Y0161180D02*
X0803636Y0161180D01*
X0803311Y0160394D02*
X0839201Y0160394D01*
X0839201Y0159608D02*
X0802766Y0159608D01*
X0801981Y0158822D02*
X0839201Y0158822D01*
X0839201Y0154893D02*
X0802065Y0154893D01*
X0802851Y0154107D02*
X0839201Y0154107D01*
X0839201Y0153321D02*
X0803346Y0153321D01*
X0803671Y0152535D02*
X0839201Y0152535D01*
X0839201Y0151749D02*
X0803776Y0151749D01*
X0803776Y0150963D02*
X0839201Y0150963D01*
X0839201Y0150177D02*
X0803594Y0150177D01*
X0803268Y0149392D02*
X0839201Y0149392D01*
X0839201Y0148606D02*
X0802664Y0148606D01*
X0801757Y0147820D02*
X0839201Y0147820D01*
X0798141Y0133673D02*
X0793509Y0133673D01*
X0793184Y0132887D02*
X0796820Y0132887D01*
X0796044Y0132101D02*
X0792460Y0132101D01*
X0791264Y0131316D02*
X0795718Y0131316D01*
X0795414Y0130530D02*
X0735886Y0130530D01*
X0735487Y0129744D02*
X0795414Y0129744D01*
X0785414Y0135245D02*
X0560595Y0135245D01*
X0560595Y0134459D02*
X0586361Y0134459D01*
X0587829Y0134459D02*
X0590861Y0134459D01*
X0592329Y0134459D02*
X0595361Y0134459D01*
X0596829Y0134459D02*
X0599861Y0134459D01*
X0601329Y0134459D02*
X0604361Y0134459D01*
X0603020Y0133673D02*
X0602670Y0133673D01*
X0598520Y0133673D02*
X0598170Y0133673D01*
X0594020Y0133673D02*
X0593670Y0133673D01*
X0589520Y0133673D02*
X0589170Y0133673D01*
X0585020Y0133673D02*
X0560595Y0133673D01*
X0560595Y0132887D02*
X0584436Y0132887D01*
X0584127Y0132101D02*
X0560595Y0132101D01*
X0560595Y0131316D02*
X0584127Y0131316D01*
X0584305Y0130530D02*
X0560595Y0130530D01*
X0560595Y0129744D02*
X0584703Y0129744D01*
X0585596Y0128958D02*
X0560595Y0128958D01*
X0560595Y0136031D02*
X0785434Y0136031D01*
X0785760Y0136817D02*
X0560595Y0136817D01*
X0560595Y0137603D02*
X0786135Y0137603D01*
X0786921Y0138389D02*
X0560595Y0138389D01*
X0560595Y0151749D02*
X0769198Y0151749D01*
X0768510Y0152535D02*
X0560595Y0152535D01*
X0560595Y0153321D02*
X0768184Y0153321D01*
X0768127Y0154107D02*
X0560595Y0154107D01*
X0560595Y0154893D02*
X0571253Y0154893D01*
X0570268Y0155679D02*
X0560595Y0155679D01*
X0560595Y0156465D02*
X0569832Y0156465D01*
X0569627Y0157251D02*
X0560595Y0157251D01*
X0560595Y0158037D02*
X0569627Y0158037D01*
X0567923Y0158822D02*
X0560595Y0158822D01*
X0560595Y0159608D02*
X0566839Y0159608D01*
X0566361Y0160394D02*
X0560595Y0160394D01*
X0560595Y0161180D02*
X0566127Y0161180D01*
X0566127Y0161966D02*
X0560595Y0161966D01*
X0560595Y0162752D02*
X0566380Y0162752D01*
X0566885Y0163538D02*
X0560595Y0163538D01*
X0571305Y0163538D02*
X0768498Y0163538D01*
X0768173Y0162752D02*
X0571810Y0162752D01*
X0572064Y0161966D02*
X0768127Y0161966D01*
X0768242Y0161180D02*
X0734502Y0161180D01*
X0734777Y0161067D02*
X0733686Y0161518D01*
X0732505Y0161518D01*
X0731414Y0161067D01*
X0730845Y0160498D01*
X0730277Y0161067D01*
X0729186Y0161518D01*
X0728005Y0161518D01*
X0726914Y0161067D01*
X0726345Y0160498D01*
X0725777Y0161067D01*
X0724686Y0161518D01*
X0723505Y0161518D01*
X0722414Y0161067D01*
X0721845Y0160498D01*
X0721277Y0161067D01*
X0720186Y0161518D01*
X0719005Y0161518D01*
X0717914Y0161067D01*
X0717345Y0160498D01*
X0716777Y0161067D01*
X0715686Y0161518D01*
X0714505Y0161518D01*
X0713414Y0161067D01*
X0712579Y0160232D01*
X0712127Y0159140D01*
X0712127Y0157960D01*
X0712579Y0156868D01*
X0713414Y0156033D01*
X0714505Y0155581D01*
X0715686Y0155581D01*
X0716777Y0156033D01*
X0717345Y0156602D01*
X0717914Y0156033D01*
X0719005Y0155581D01*
X0720186Y0155581D01*
X0721277Y0156033D01*
X0721845Y0156602D01*
X0722414Y0156033D01*
X0723505Y0155581D01*
X0724686Y0155581D01*
X0725777Y0156033D01*
X0726345Y0156602D01*
X0726914Y0156033D01*
X0728005Y0155581D01*
X0729186Y0155581D01*
X0730277Y0156033D01*
X0730845Y0156602D01*
X0731414Y0156033D01*
X0732505Y0155581D01*
X0733686Y0155581D01*
X0734777Y0156033D01*
X0735612Y0156868D01*
X0736064Y0157960D01*
X0736064Y0159140D01*
X0735612Y0160232D01*
X0734777Y0161067D01*
X0735449Y0160394D02*
X0768568Y0160394D01*
X0769339Y0159608D02*
X0735870Y0159608D01*
X0736064Y0158822D02*
X0785845Y0158822D01*
X0785520Y0158037D02*
X0736064Y0158037D01*
X0735770Y0157251D02*
X0785414Y0157251D01*
X0785414Y0156465D02*
X0777878Y0156465D01*
X0778634Y0155679D02*
X0785596Y0155679D01*
X0785922Y0154893D02*
X0778959Y0154893D01*
X0779064Y0154107D02*
X0786525Y0154107D01*
X0787430Y0153321D02*
X0779006Y0153321D01*
X0774198Y0151749D02*
X0772992Y0151749D01*
X0768231Y0154893D02*
X0573937Y0154893D01*
X0574922Y0155679D02*
X0586270Y0155679D01*
X0586505Y0155581D02*
X0587686Y0155581D01*
X0588777Y0156033D01*
X0589345Y0156602D01*
X0589914Y0156033D01*
X0591005Y0155581D01*
X0592186Y0155581D01*
X0593277Y0156033D01*
X0593845Y0156602D01*
X0594414Y0156033D01*
X0595505Y0155581D01*
X0596686Y0155581D01*
X0597777Y0156033D01*
X0598345Y0156602D01*
X0598914Y0156033D01*
X0600005Y0155581D01*
X0601186Y0155581D01*
X0602277Y0156033D01*
X0602845Y0156602D01*
X0603414Y0156033D01*
X0604505Y0155581D01*
X0605686Y0155581D01*
X0606777Y0156033D01*
X0607612Y0156868D01*
X0608064Y0157960D01*
X0608064Y0159140D01*
X0607612Y0160232D01*
X0606777Y0161067D01*
X0605686Y0161518D01*
X0604505Y0161518D01*
X0603414Y0161067D01*
X0602845Y0160498D01*
X0602277Y0161067D01*
X0601186Y0161518D01*
X0600005Y0161518D01*
X0598914Y0161067D01*
X0598345Y0160498D01*
X0597777Y0161067D01*
X0596686Y0161518D01*
X0595505Y0161518D01*
X0594414Y0161067D01*
X0593845Y0160498D01*
X0593277Y0161067D01*
X0592186Y0161518D01*
X0591005Y0161518D01*
X0589914Y0161067D01*
X0589345Y0160498D01*
X0588777Y0161067D01*
X0587686Y0161518D01*
X0586505Y0161518D01*
X0585414Y0161067D01*
X0584579Y0160232D01*
X0584127Y0159140D01*
X0584127Y0157960D01*
X0584579Y0156868D01*
X0585414Y0156033D01*
X0586505Y0155581D01*
X0587921Y0155679D02*
X0590770Y0155679D01*
X0589482Y0156465D02*
X0589208Y0156465D01*
X0592421Y0155679D02*
X0595270Y0155679D01*
X0593982Y0156465D02*
X0593708Y0156465D01*
X0596921Y0155679D02*
X0599770Y0155679D01*
X0598482Y0156465D02*
X0598208Y0156465D01*
X0601421Y0155679D02*
X0604270Y0155679D01*
X0602982Y0156465D02*
X0602708Y0156465D01*
X0605921Y0155679D02*
X0650270Y0155679D01*
X0650505Y0155581D02*
X0651686Y0155581D01*
X0652777Y0156033D01*
X0653345Y0156602D01*
X0653914Y0156033D01*
X0655005Y0155581D01*
X0656186Y0155581D01*
X0657277Y0156033D01*
X0657845Y0156602D01*
X0658414Y0156033D01*
X0659505Y0155581D01*
X0660686Y0155581D01*
X0661777Y0156033D01*
X0662345Y0156602D01*
X0662914Y0156033D01*
X0664005Y0155581D01*
X0665186Y0155581D01*
X0666277Y0156033D01*
X0666845Y0156602D01*
X0667414Y0156033D01*
X0668505Y0155581D01*
X0669686Y0155581D01*
X0670777Y0156033D01*
X0671612Y0156868D01*
X0672064Y0157960D01*
X0672064Y0159140D01*
X0671612Y0160232D01*
X0670777Y0161067D01*
X0669686Y0161518D01*
X0668505Y0161518D01*
X0667414Y0161067D01*
X0666845Y0160498D01*
X0666277Y0161067D01*
X0665186Y0161518D01*
X0664005Y0161518D01*
X0662914Y0161067D01*
X0662345Y0160498D01*
X0661777Y0161067D01*
X0660686Y0161518D01*
X0659505Y0161518D01*
X0658414Y0161067D01*
X0657845Y0160498D01*
X0657277Y0161067D01*
X0656186Y0161518D01*
X0655005Y0161518D01*
X0653914Y0161067D01*
X0653345Y0160498D01*
X0652777Y0161067D01*
X0651686Y0161518D01*
X0650505Y0161518D01*
X0649414Y0161067D01*
X0648579Y0160232D01*
X0648127Y0159140D01*
X0648127Y0157960D01*
X0648579Y0156868D01*
X0649414Y0156033D01*
X0650505Y0155581D01*
X0651921Y0155679D02*
X0654770Y0155679D01*
X0653482Y0156465D02*
X0653208Y0156465D01*
X0656421Y0155679D02*
X0659270Y0155679D01*
X0657982Y0156465D02*
X0657708Y0156465D01*
X0660921Y0155679D02*
X0663770Y0155679D01*
X0662482Y0156465D02*
X0662208Y0156465D01*
X0665421Y0155679D02*
X0668270Y0155679D01*
X0666982Y0156465D02*
X0666708Y0156465D01*
X0669921Y0155679D02*
X0690270Y0155679D01*
X0690505Y0155581D02*
X0691686Y0155581D01*
X0692777Y0156033D01*
X0693612Y0156868D01*
X0694064Y0157960D01*
X0694064Y0159140D01*
X0693612Y0160232D01*
X0692777Y0161067D01*
X0691686Y0161518D01*
X0690505Y0161518D01*
X0689414Y0161067D01*
X0688579Y0160232D01*
X0688127Y0159140D01*
X0688127Y0157960D01*
X0688579Y0156868D01*
X0689414Y0156033D01*
X0690505Y0155581D01*
X0691921Y0155679D02*
X0714270Y0155679D01*
X0712982Y0156465D02*
X0693208Y0156465D01*
X0693770Y0157251D02*
X0712420Y0157251D01*
X0712127Y0158037D02*
X0694064Y0158037D01*
X0694064Y0158822D02*
X0712127Y0158822D01*
X0712320Y0159608D02*
X0693870Y0159608D01*
X0693449Y0160394D02*
X0712741Y0160394D01*
X0713688Y0161180D02*
X0692502Y0161180D01*
X0689688Y0161180D02*
X0670502Y0161180D01*
X0671449Y0160394D02*
X0688741Y0160394D01*
X0688320Y0159608D02*
X0671870Y0159608D01*
X0672064Y0158822D02*
X0688127Y0158822D01*
X0688127Y0158037D02*
X0672064Y0158037D01*
X0671770Y0157251D02*
X0688420Y0157251D01*
X0688982Y0156465D02*
X0671208Y0156465D01*
X0667688Y0161180D02*
X0666002Y0161180D01*
X0663188Y0161180D02*
X0661502Y0161180D01*
X0658688Y0161180D02*
X0657002Y0161180D01*
X0654188Y0161180D02*
X0652502Y0161180D01*
X0649688Y0161180D02*
X0606502Y0161180D01*
X0607449Y0160394D02*
X0648741Y0160394D01*
X0648320Y0159608D02*
X0607870Y0159608D01*
X0608064Y0158822D02*
X0648127Y0158822D01*
X0648127Y0158037D02*
X0608064Y0158037D01*
X0607770Y0157251D02*
X0648420Y0157251D01*
X0648982Y0156465D02*
X0607208Y0156465D01*
X0603688Y0161180D02*
X0602002Y0161180D01*
X0599188Y0161180D02*
X0597502Y0161180D01*
X0594688Y0161180D02*
X0593002Y0161180D01*
X0590188Y0161180D02*
X0588502Y0161180D01*
X0585688Y0161180D02*
X0572064Y0161180D01*
X0573485Y0160394D02*
X0584741Y0160394D01*
X0584320Y0159608D02*
X0574735Y0159608D01*
X0575281Y0158822D02*
X0584127Y0158822D01*
X0584127Y0158037D02*
X0575564Y0158037D01*
X0575564Y0157251D02*
X0584420Y0157251D01*
X0584982Y0156465D02*
X0575359Y0156465D01*
X0600925Y0166682D02*
X0650763Y0166682D01*
X0649480Y0167468D02*
X0601653Y0167468D01*
X0601978Y0168253D02*
X0648919Y0168253D01*
X0648627Y0169039D02*
X0602064Y0169039D01*
X0601987Y0169825D02*
X0648627Y0169825D01*
X0648822Y0170611D02*
X0601662Y0170611D01*
X0600946Y0171397D02*
X0649244Y0171397D01*
X0649764Y0172183D02*
X0593931Y0172183D01*
X0585037Y0172969D02*
X0569220Y0172969D01*
X0568588Y0173755D02*
X0584711Y0173755D01*
X0594261Y0183186D02*
X0560595Y0183186D01*
X0560595Y0183972D02*
X0593536Y0183972D01*
X0593579Y0183868D02*
X0594414Y0183033D01*
X0595505Y0182581D01*
X0596686Y0182581D01*
X0597777Y0183033D01*
X0598612Y0183868D01*
X0599064Y0184960D01*
X0599064Y0186140D01*
X0598612Y0187232D01*
X0597777Y0188067D01*
X0596686Y0188518D01*
X0595505Y0188518D01*
X0594414Y0188067D01*
X0593579Y0187232D01*
X0593127Y0186140D01*
X0593127Y0184960D01*
X0593579Y0183868D01*
X0593210Y0184758D02*
X0560595Y0184758D01*
X0560595Y0185544D02*
X0593127Y0185544D01*
X0593205Y0186329D02*
X0560595Y0186329D01*
X0560595Y0187115D02*
X0593530Y0187115D01*
X0594248Y0187901D02*
X0560595Y0187901D01*
X0560595Y0188687D02*
X0785427Y0188687D01*
X0785414Y0188718D02*
X0786051Y0187182D01*
X0787227Y0186005D01*
X0788763Y0185369D01*
X0790427Y0185369D01*
X0791964Y0186005D01*
X0793140Y0187182D01*
X0793776Y0188718D01*
X0793776Y0190382D01*
X0793140Y0191918D01*
X0791964Y0193095D01*
X0790427Y0193731D01*
X0788763Y0193731D01*
X0787227Y0193095D01*
X0786051Y0191918D01*
X0785414Y0190382D01*
X0785414Y0188718D01*
X0785414Y0189473D02*
X0763131Y0189473D01*
X0763277Y0189533D02*
X0764112Y0190368D01*
X0764564Y0191460D01*
X0764564Y0192640D01*
X0764112Y0193732D01*
X0763277Y0194567D01*
X0762186Y0195018D01*
X0761005Y0195018D01*
X0759914Y0194567D01*
X0759079Y0193732D01*
X0758627Y0192640D01*
X0758627Y0191460D01*
X0759079Y0190368D01*
X0759914Y0189533D01*
X0761005Y0189081D01*
X0762186Y0189081D01*
X0763277Y0189533D01*
X0764002Y0190259D02*
X0785414Y0190259D01*
X0785689Y0191045D02*
X0764392Y0191045D01*
X0764564Y0191831D02*
X0786014Y0191831D01*
X0786749Y0192617D02*
X0764564Y0192617D01*
X0764248Y0193403D02*
X0787971Y0193403D01*
X0788763Y0196169D02*
X0790427Y0196169D01*
X0791964Y0196805D01*
X0793140Y0197982D01*
X0793776Y0199518D01*
X0793776Y0201182D01*
X0793140Y0202718D01*
X0791964Y0203895D01*
X0790427Y0204531D01*
X0788763Y0204531D01*
X0787227Y0203895D01*
X0786051Y0202718D01*
X0785414Y0201182D01*
X0785414Y0199518D01*
X0786051Y0197982D01*
X0787227Y0196805D01*
X0788763Y0196169D01*
X0787852Y0196546D02*
X0760564Y0196546D01*
X0760564Y0195960D02*
X0760112Y0194868D01*
X0759277Y0194033D01*
X0758186Y0193581D01*
X0757005Y0193581D01*
X0755914Y0194033D01*
X0755079Y0194868D01*
X0754627Y0195960D01*
X0754627Y0197140D01*
X0755079Y0198232D01*
X0755914Y0199067D01*
X0757005Y0199518D01*
X0758186Y0199518D01*
X0759277Y0199067D01*
X0760112Y0198232D01*
X0760564Y0197140D01*
X0760564Y0195960D01*
X0760481Y0195760D02*
X0795414Y0195760D01*
X0795414Y0195782D02*
X0795414Y0194118D01*
X0796051Y0192582D01*
X0797227Y0191405D01*
X0798763Y0190769D01*
X0800427Y0190769D01*
X0801964Y0191405D01*
X0803140Y0192582D01*
X0803776Y0194118D01*
X0803776Y0195782D01*
X0803140Y0197318D01*
X0801964Y0198495D01*
X0800427Y0199131D01*
X0798763Y0199131D01*
X0797227Y0198495D01*
X0796051Y0197318D01*
X0795414Y0195782D01*
X0795414Y0194974D02*
X0762292Y0194974D01*
X0760898Y0194974D02*
X0760156Y0194974D01*
X0759536Y0194189D02*
X0759432Y0194189D01*
X0758942Y0193403D02*
X0745146Y0193403D01*
X0744777Y0193033D02*
X0745612Y0193868D01*
X0746064Y0194960D01*
X0746064Y0196140D01*
X0745612Y0197232D01*
X0744777Y0198067D01*
X0743686Y0198518D01*
X0742505Y0198518D01*
X0741414Y0198067D01*
X0740579Y0197232D01*
X0740127Y0196140D01*
X0740127Y0194960D01*
X0740579Y0193868D01*
X0741414Y0193033D01*
X0742505Y0192581D01*
X0743686Y0192581D01*
X0744777Y0193033D01*
X0743771Y0192617D02*
X0758627Y0192617D01*
X0758627Y0191831D02*
X0735574Y0191831D01*
X0735612Y0191868D02*
X0736064Y0192960D01*
X0736064Y0194140D01*
X0735612Y0195232D01*
X0734777Y0196067D01*
X0733686Y0196518D01*
X0732505Y0196518D01*
X0731414Y0196067D01*
X0730579Y0195232D01*
X0730127Y0194140D01*
X0730127Y0192960D01*
X0730579Y0191868D01*
X0731414Y0191033D01*
X0732505Y0190581D01*
X0733686Y0190581D01*
X0734777Y0191033D01*
X0735612Y0191868D01*
X0735922Y0192617D02*
X0742420Y0192617D01*
X0741044Y0193403D02*
X0736064Y0193403D01*
X0736044Y0194189D02*
X0740446Y0194189D01*
X0740127Y0194974D02*
X0735718Y0194974D01*
X0735083Y0195760D02*
X0740127Y0195760D01*
X0740295Y0196546D02*
X0712564Y0196546D01*
X0712564Y0195960D02*
X0712564Y0197140D01*
X0712112Y0198232D01*
X0711277Y0199067D01*
X0710186Y0199518D01*
X0709005Y0199518D01*
X0707914Y0199067D01*
X0707079Y0198232D01*
X0706627Y0197140D01*
X0706627Y0195960D01*
X0706809Y0195518D01*
X0706505Y0195518D01*
X0705414Y0195067D01*
X0704579Y0194232D01*
X0704127Y0193140D01*
X0704127Y0191960D01*
X0704579Y0190868D01*
X0705414Y0190033D01*
X0706505Y0189581D01*
X0707686Y0189581D01*
X0708777Y0190033D01*
X0709612Y0190868D01*
X0710064Y0191960D01*
X0710064Y0193140D01*
X0709881Y0193581D01*
X0710186Y0193581D01*
X0711277Y0194033D01*
X0712112Y0194868D01*
X0712564Y0195960D01*
X0712481Y0195760D02*
X0731107Y0195760D01*
X0730472Y0194974D02*
X0712156Y0194974D01*
X0711432Y0194189D02*
X0730147Y0194189D01*
X0730127Y0193403D02*
X0709955Y0193403D01*
X0710064Y0192617D02*
X0730269Y0192617D01*
X0730616Y0191831D02*
X0710010Y0191831D01*
X0709685Y0191045D02*
X0731402Y0191045D01*
X0734788Y0191045D02*
X0758798Y0191045D01*
X0759188Y0190259D02*
X0709002Y0190259D01*
X0705188Y0190259D02*
X0560595Y0190259D01*
X0560595Y0191045D02*
X0704505Y0191045D01*
X0704180Y0191831D02*
X0560595Y0191831D01*
X0560595Y0192617D02*
X0704127Y0192617D01*
X0704235Y0193403D02*
X0560595Y0193403D01*
X0560595Y0194189D02*
X0704561Y0194189D01*
X0705322Y0194974D02*
X0560595Y0194974D01*
X0560595Y0195760D02*
X0706709Y0195760D01*
X0706627Y0196546D02*
X0560595Y0196546D01*
X0560595Y0197332D02*
X0706706Y0197332D01*
X0707032Y0198118D02*
X0560595Y0198118D01*
X0560595Y0198904D02*
X0594226Y0198904D01*
X0593914Y0199033D02*
X0595005Y0198581D01*
X0596186Y0198581D01*
X0597277Y0199033D01*
X0598112Y0199868D01*
X0598564Y0200960D01*
X0598564Y0202140D01*
X0598112Y0203232D01*
X0597277Y0204067D01*
X0596186Y0204518D01*
X0595005Y0204518D01*
X0593914Y0204067D01*
X0593079Y0203232D01*
X0592627Y0202140D01*
X0592627Y0200960D01*
X0593079Y0199868D01*
X0593914Y0199033D01*
X0593257Y0199690D02*
X0560595Y0199690D01*
X0560595Y0200476D02*
X0592827Y0200476D01*
X0592627Y0201262D02*
X0560595Y0201262D01*
X0560595Y0202048D02*
X0592627Y0202048D01*
X0592914Y0202834D02*
X0560595Y0202834D01*
X0560595Y0203620D02*
X0593467Y0203620D01*
X0594732Y0204405D02*
X0560595Y0204405D01*
X0560595Y0205191D02*
X0631127Y0205191D01*
X0631127Y0205640D02*
X0631127Y0204460D01*
X0631579Y0203368D01*
X0632414Y0202533D01*
X0633505Y0202081D01*
X0634686Y0202081D01*
X0635777Y0202533D01*
X0636612Y0203368D01*
X0637064Y0204460D01*
X0637064Y0205640D01*
X0636612Y0206732D01*
X0635777Y0207567D01*
X0634686Y0208018D01*
X0633505Y0208018D01*
X0632414Y0207567D01*
X0631579Y0206732D01*
X0631127Y0205640D01*
X0631266Y0205977D02*
X0560595Y0205977D01*
X0560595Y0206763D02*
X0631610Y0206763D01*
X0632396Y0207549D02*
X0560595Y0207549D01*
X0560595Y0208335D02*
X0786597Y0208335D01*
X0786051Y0208882D02*
X0787227Y0207705D01*
X0788763Y0207069D01*
X0790427Y0207069D01*
X0791964Y0207705D01*
X0793140Y0208882D01*
X0793776Y0210418D01*
X0793776Y0212082D01*
X0793140Y0213618D01*
X0791964Y0214795D01*
X0790427Y0215431D01*
X0788763Y0215431D01*
X0787227Y0214795D01*
X0786051Y0213618D01*
X0785414Y0212082D01*
X0785414Y0210418D01*
X0786051Y0208882D01*
X0785951Y0209121D02*
X0722864Y0209121D01*
X0722777Y0209033D02*
X0723612Y0209868D01*
X0724064Y0210960D01*
X0724064Y0212140D01*
X0723612Y0213232D01*
X0722777Y0214067D01*
X0721686Y0214518D01*
X0720505Y0214518D01*
X0719414Y0214067D01*
X0718579Y0213232D01*
X0718127Y0212140D01*
X0718127Y0210960D01*
X0718579Y0209868D01*
X0719414Y0209033D01*
X0720505Y0208581D01*
X0721686Y0208581D01*
X0722777Y0209033D01*
X0723628Y0209907D02*
X0785626Y0209907D01*
X0785414Y0210693D02*
X0723953Y0210693D01*
X0724064Y0211479D02*
X0785414Y0211479D01*
X0785490Y0212265D02*
X0724012Y0212265D01*
X0723687Y0213050D02*
X0785815Y0213050D01*
X0786269Y0213836D02*
X0723007Y0213836D01*
X0723186Y0214581D02*
X0724277Y0215033D01*
X0725112Y0215868D01*
X0725564Y0216960D01*
X0725564Y0218140D01*
X0725112Y0219232D01*
X0724277Y0220067D01*
X0723186Y0220518D01*
X0722005Y0220518D01*
X0720914Y0220067D01*
X0720079Y0219232D01*
X0719627Y0218140D01*
X0719627Y0216960D01*
X0720079Y0215868D01*
X0720914Y0215033D01*
X0722005Y0214581D01*
X0723186Y0214581D01*
X0723284Y0214622D02*
X0787054Y0214622D01*
X0788708Y0215408D02*
X0724651Y0215408D01*
X0725247Y0216194D02*
X0795414Y0216194D01*
X0795414Y0215818D02*
X0796051Y0214282D01*
X0797227Y0213105D01*
X0798763Y0212469D01*
X0800427Y0212469D01*
X0801964Y0213105D01*
X0803140Y0214282D01*
X0803776Y0215818D01*
X0803776Y0217482D01*
X0803140Y0219018D01*
X0801964Y0220195D01*
X0800427Y0220831D01*
X0798763Y0220831D01*
X0797227Y0220195D01*
X0796051Y0219018D01*
X0795414Y0217482D01*
X0795414Y0215818D01*
X0795584Y0215408D02*
X0790482Y0215408D01*
X0792136Y0214622D02*
X0795909Y0214622D01*
X0796496Y0213836D02*
X0792922Y0213836D01*
X0793375Y0213050D02*
X0797359Y0213050D01*
X0798763Y0210031D02*
X0797227Y0209395D01*
X0796051Y0208218D01*
X0795414Y0206682D01*
X0795414Y0205018D01*
X0796051Y0203482D01*
X0797227Y0202305D01*
X0798763Y0201669D01*
X0800427Y0201669D01*
X0801964Y0202305D01*
X0803140Y0203482D01*
X0803776Y0205018D01*
X0803776Y0206682D01*
X0803140Y0208218D01*
X0801964Y0209395D01*
X0800427Y0210031D01*
X0798763Y0210031D01*
X0798463Y0209907D02*
X0793564Y0209907D01*
X0793776Y0210693D02*
X0839201Y0210693D01*
X0839201Y0211479D02*
X0793776Y0211479D01*
X0793700Y0212265D02*
X0839201Y0212265D01*
X0839201Y0213050D02*
X0801831Y0213050D01*
X0802694Y0213836D02*
X0839201Y0213836D01*
X0839201Y0214622D02*
X0803281Y0214622D01*
X0803606Y0215408D02*
X0839201Y0215408D01*
X0839201Y0216194D02*
X0803776Y0216194D01*
X0803776Y0216980D02*
X0839201Y0216980D01*
X0839201Y0217766D02*
X0803658Y0217766D01*
X0803333Y0218552D02*
X0839201Y0218552D01*
X0839201Y0219338D02*
X0802820Y0219338D01*
X0802034Y0220124D02*
X0839201Y0220124D01*
X0839201Y0220910D02*
X0793607Y0220910D01*
X0793776Y0221318D02*
X0793140Y0219782D01*
X0791964Y0218605D01*
X0790427Y0217969D01*
X0788763Y0217969D01*
X0787227Y0218605D01*
X0786051Y0219782D01*
X0785414Y0221318D01*
X0785414Y0222982D01*
X0786051Y0224518D01*
X0787227Y0225695D01*
X0788763Y0226331D01*
X0790427Y0226331D01*
X0791964Y0225695D01*
X0793140Y0224518D01*
X0793776Y0222982D01*
X0793776Y0221318D01*
X0793776Y0221696D02*
X0839201Y0221696D01*
X0839201Y0222481D02*
X0793776Y0222481D01*
X0793658Y0223267D02*
X0839201Y0223267D01*
X0839201Y0224053D02*
X0802011Y0224053D01*
X0801964Y0224005D02*
X0803140Y0225182D01*
X0803776Y0226718D01*
X0803776Y0228382D01*
X0803140Y0229918D01*
X0801964Y0231095D01*
X0800427Y0231731D01*
X0798763Y0231731D01*
X0797227Y0231095D01*
X0796051Y0229918D01*
X0795414Y0228382D01*
X0795414Y0226718D01*
X0796051Y0225182D01*
X0797227Y0224005D01*
X0798763Y0223369D01*
X0800427Y0223369D01*
X0801964Y0224005D01*
X0802797Y0224839D02*
X0839201Y0224839D01*
X0839201Y0225625D02*
X0803323Y0225625D01*
X0803649Y0226411D02*
X0839201Y0226411D01*
X0839201Y0227197D02*
X0803776Y0227197D01*
X0803776Y0227983D02*
X0839201Y0227983D01*
X0839201Y0228769D02*
X0803616Y0228769D01*
X0803290Y0229555D02*
X0839201Y0229555D01*
X0839201Y0230341D02*
X0802718Y0230341D01*
X0801887Y0231126D02*
X0839201Y0231126D01*
X0839201Y0231912D02*
X0793691Y0231912D01*
X0793776Y0232118D02*
X0793140Y0230582D01*
X0791964Y0229405D01*
X0790427Y0228769D01*
X0788763Y0228769D01*
X0787227Y0229405D01*
X0786051Y0230582D01*
X0785414Y0232118D01*
X0785414Y0233782D01*
X0786051Y0235318D01*
X0787227Y0236495D01*
X0788763Y0237131D01*
X0790427Y0237131D01*
X0791964Y0236495D01*
X0793140Y0235318D01*
X0793776Y0233782D01*
X0793776Y0232118D01*
X0793776Y0232698D02*
X0839201Y0232698D01*
X0839201Y0233484D02*
X0793776Y0233484D01*
X0793574Y0234270D02*
X0798761Y0234270D01*
X0798763Y0234269D02*
X0800427Y0234269D01*
X0801964Y0234905D01*
X0803140Y0236082D01*
X0803776Y0237618D01*
X0803776Y0239282D01*
X0803140Y0240818D01*
X0801964Y0241995D01*
X0800427Y0242631D01*
X0798763Y0242631D01*
X0797227Y0241995D01*
X0796051Y0240818D01*
X0795414Y0239282D01*
X0795414Y0237618D01*
X0796051Y0236082D01*
X0797227Y0234905D01*
X0798763Y0234269D01*
X0800430Y0234270D02*
X0839201Y0234270D01*
X0839201Y0235056D02*
X0802114Y0235056D01*
X0802900Y0235842D02*
X0839201Y0235842D01*
X0839201Y0236628D02*
X0803366Y0236628D01*
X0803691Y0237414D02*
X0839201Y0237414D01*
X0839201Y0238200D02*
X0803776Y0238200D01*
X0803776Y0238986D02*
X0839201Y0238986D01*
X0839201Y0239772D02*
X0803573Y0239772D01*
X0803248Y0240557D02*
X0839201Y0240557D01*
X0839201Y0241343D02*
X0802615Y0241343D01*
X0801638Y0242129D02*
X0839201Y0242129D01*
X0839201Y0242915D02*
X0793733Y0242915D01*
X0793776Y0243018D02*
X0793140Y0241482D01*
X0791964Y0240305D01*
X0790427Y0239669D01*
X0788763Y0239669D01*
X0787227Y0240305D01*
X0786051Y0241482D01*
X0785414Y0243018D01*
X0785414Y0244682D01*
X0786051Y0246218D01*
X0787227Y0247395D01*
X0788763Y0248031D01*
X0790427Y0248031D01*
X0791964Y0247395D01*
X0793140Y0246218D01*
X0793776Y0244682D01*
X0793776Y0243018D01*
X0793776Y0243701D02*
X0839201Y0243701D01*
X0839201Y0244487D02*
X0793776Y0244487D01*
X0793531Y0245273D02*
X0839201Y0245273D01*
X0839201Y0246059D02*
X0793206Y0246059D01*
X0792513Y0246845D02*
X0839201Y0246845D01*
X0839201Y0247631D02*
X0791394Y0247631D01*
X0787797Y0247631D02*
X0560595Y0247631D01*
X0560595Y0248417D02*
X0839201Y0248417D01*
X0839201Y0249202D02*
X0560595Y0249202D01*
X0560595Y0249988D02*
X0839201Y0249988D01*
X0839201Y0250774D02*
X0560595Y0250774D01*
X0560595Y0251560D02*
X0839201Y0251560D01*
X0839201Y0252346D02*
X0783089Y0252346D01*
X0782777Y0252033D02*
X0783612Y0252868D01*
X0784064Y0253960D01*
X0784064Y0255140D01*
X0783612Y0256232D01*
X0782777Y0257067D01*
X0781686Y0257518D01*
X0780505Y0257518D01*
X0779414Y0257067D01*
X0778579Y0256232D01*
X0778127Y0255140D01*
X0778127Y0253960D01*
X0778579Y0252868D01*
X0779414Y0252033D01*
X0780505Y0251581D01*
X0781686Y0251581D01*
X0782777Y0252033D01*
X0783721Y0253132D02*
X0839201Y0253132D01*
X0839201Y0253918D02*
X0784046Y0253918D01*
X0784064Y0254704D02*
X0839201Y0254704D01*
X0839201Y0255490D02*
X0783919Y0255490D01*
X0783568Y0256276D02*
X0839201Y0256276D01*
X0839201Y0257062D02*
X0782782Y0257062D01*
X0779409Y0257062D02*
X0734282Y0257062D01*
X0734277Y0257067D02*
X0733186Y0257518D01*
X0732005Y0257518D01*
X0730914Y0257067D01*
X0730345Y0256498D01*
X0729777Y0257067D01*
X0728686Y0257518D01*
X0727505Y0257518D01*
X0726414Y0257067D01*
X0725845Y0256498D01*
X0725277Y0257067D01*
X0724186Y0257518D01*
X0723005Y0257518D01*
X0721914Y0257067D01*
X0721345Y0256498D01*
X0720777Y0257067D01*
X0719686Y0257518D01*
X0718505Y0257518D01*
X0717414Y0257067D01*
X0716845Y0256498D01*
X0716277Y0257067D01*
X0715186Y0257518D01*
X0714005Y0257518D01*
X0712914Y0257067D01*
X0712079Y0256232D01*
X0711627Y0255140D01*
X0711627Y0253960D01*
X0712079Y0252868D01*
X0712914Y0252033D01*
X0714005Y0251581D01*
X0715186Y0251581D01*
X0716277Y0252033D01*
X0716845Y0252602D01*
X0717414Y0252033D01*
X0718505Y0251581D01*
X0719686Y0251581D01*
X0720777Y0252033D01*
X0721345Y0252602D01*
X0721914Y0252033D01*
X0723005Y0251581D01*
X0724186Y0251581D01*
X0725277Y0252033D01*
X0725845Y0252602D01*
X0726414Y0252033D01*
X0727505Y0251581D01*
X0728686Y0251581D01*
X0729777Y0252033D01*
X0730345Y0252602D01*
X0730914Y0252033D01*
X0732005Y0251581D01*
X0733186Y0251581D01*
X0734277Y0252033D01*
X0735112Y0252868D01*
X0735564Y0253960D01*
X0735564Y0255140D01*
X0735112Y0256232D01*
X0734277Y0257067D01*
X0735068Y0256276D02*
X0778623Y0256276D01*
X0778271Y0255490D02*
X0735419Y0255490D01*
X0735564Y0254704D02*
X0778127Y0254704D01*
X0778144Y0253918D02*
X0735546Y0253918D01*
X0735221Y0253132D02*
X0778469Y0253132D01*
X0779101Y0252346D02*
X0734589Y0252346D01*
X0730601Y0252346D02*
X0730089Y0252346D01*
X0726101Y0252346D02*
X0725589Y0252346D01*
X0721601Y0252346D02*
X0721089Y0252346D01*
X0717101Y0252346D02*
X0716589Y0252346D01*
X0712601Y0252346D02*
X0670589Y0252346D01*
X0670277Y0252033D02*
X0671112Y0252868D01*
X0671564Y0253960D01*
X0671564Y0255140D01*
X0671112Y0256232D01*
X0670277Y0257067D01*
X0669186Y0257518D01*
X0668005Y0257518D01*
X0666914Y0257067D01*
X0666345Y0256498D01*
X0665777Y0257067D01*
X0664686Y0257518D01*
X0663505Y0257518D01*
X0662414Y0257067D01*
X0661845Y0256498D01*
X0661277Y0257067D01*
X0660186Y0257518D01*
X0659005Y0257518D01*
X0657914Y0257067D01*
X0657345Y0256498D01*
X0656777Y0257067D01*
X0655686Y0257518D01*
X0654505Y0257518D01*
X0653414Y0257067D01*
X0652845Y0256498D01*
X0652277Y0257067D01*
X0651186Y0257518D01*
X0650005Y0257518D01*
X0648914Y0257067D01*
X0648079Y0256232D01*
X0647627Y0255140D01*
X0647627Y0253960D01*
X0648079Y0252868D01*
X0648914Y0252033D01*
X0650005Y0251581D01*
X0651186Y0251581D01*
X0652277Y0252033D01*
X0652845Y0252602D01*
X0653414Y0252033D01*
X0654505Y0251581D01*
X0655686Y0251581D01*
X0656777Y0252033D01*
X0657345Y0252602D01*
X0657914Y0252033D01*
X0659005Y0251581D01*
X0660186Y0251581D01*
X0661277Y0252033D01*
X0661845Y0252602D01*
X0662414Y0252033D01*
X0663505Y0251581D01*
X0664686Y0251581D01*
X0665777Y0252033D01*
X0666345Y0252602D01*
X0666914Y0252033D01*
X0668005Y0251581D01*
X0669186Y0251581D01*
X0670277Y0252033D01*
X0671221Y0253132D02*
X0711969Y0253132D01*
X0711644Y0253918D02*
X0671546Y0253918D01*
X0671564Y0254704D02*
X0711627Y0254704D01*
X0711771Y0255490D02*
X0671419Y0255490D01*
X0671068Y0256276D02*
X0712123Y0256276D01*
X0712909Y0257062D02*
X0670282Y0257062D01*
X0666909Y0257062D02*
X0665782Y0257062D01*
X0662409Y0257062D02*
X0661282Y0257062D01*
X0657909Y0257062D02*
X0656782Y0257062D01*
X0653409Y0257062D02*
X0652282Y0257062D01*
X0648909Y0257062D02*
X0628282Y0257062D01*
X0628277Y0257067D02*
X0627186Y0257518D01*
X0626005Y0257518D01*
X0624914Y0257067D01*
X0624079Y0256232D01*
X0623627Y0255140D01*
X0623627Y0253960D01*
X0624079Y0252868D01*
X0624914Y0252033D01*
X0626005Y0251581D01*
X0627186Y0251581D01*
X0628277Y0252033D01*
X0629112Y0252868D01*
X0629564Y0253960D01*
X0629564Y0255140D01*
X0629112Y0256232D01*
X0628277Y0257067D01*
X0629068Y0256276D02*
X0648123Y0256276D01*
X0647771Y0255490D02*
X0629419Y0255490D01*
X0629564Y0254704D02*
X0647627Y0254704D01*
X0647644Y0253918D02*
X0629546Y0253918D01*
X0629221Y0253132D02*
X0647969Y0253132D01*
X0648601Y0252346D02*
X0628589Y0252346D01*
X0624601Y0252346D02*
X0606589Y0252346D01*
X0606277Y0252033D02*
X0607112Y0252868D01*
X0607564Y0253960D01*
X0607564Y0255140D01*
X0607112Y0256232D01*
X0606277Y0257067D01*
X0605186Y0257518D01*
X0604005Y0257518D01*
X0602914Y0257067D01*
X0602345Y0256498D01*
X0601777Y0257067D01*
X0600686Y0257518D01*
X0599505Y0257518D01*
X0598414Y0257067D01*
X0597845Y0256498D01*
X0597277Y0257067D01*
X0596186Y0257518D01*
X0595005Y0257518D01*
X0593914Y0257067D01*
X0593345Y0256498D01*
X0592777Y0257067D01*
X0591686Y0257518D01*
X0590505Y0257518D01*
X0589414Y0257067D01*
X0588845Y0256498D01*
X0588277Y0257067D01*
X0587186Y0257518D01*
X0586005Y0257518D01*
X0584914Y0257067D01*
X0584079Y0256232D01*
X0583627Y0255140D01*
X0583627Y0253960D01*
X0584079Y0252868D01*
X0584914Y0252033D01*
X0586005Y0251581D01*
X0587186Y0251581D01*
X0588277Y0252033D01*
X0588845Y0252602D01*
X0589414Y0252033D01*
X0590505Y0251581D01*
X0591686Y0251581D01*
X0592777Y0252033D01*
X0593345Y0252602D01*
X0593914Y0252033D01*
X0595005Y0251581D01*
X0596186Y0251581D01*
X0597277Y0252033D01*
X0597845Y0252602D01*
X0598414Y0252033D01*
X0599505Y0251581D01*
X0600686Y0251581D01*
X0601777Y0252033D01*
X0602345Y0252602D01*
X0602914Y0252033D01*
X0604005Y0251581D01*
X0605186Y0251581D01*
X0606277Y0252033D01*
X0607221Y0253132D02*
X0623969Y0253132D01*
X0623644Y0253918D02*
X0607546Y0253918D01*
X0607564Y0254704D02*
X0623627Y0254704D01*
X0623771Y0255490D02*
X0607419Y0255490D01*
X0607068Y0256276D02*
X0624123Y0256276D01*
X0624909Y0257062D02*
X0606282Y0257062D01*
X0602909Y0257062D02*
X0601782Y0257062D01*
X0598409Y0257062D02*
X0597282Y0257062D01*
X0593909Y0257062D02*
X0592782Y0257062D01*
X0589409Y0257062D02*
X0588282Y0257062D01*
X0584909Y0257062D02*
X0560595Y0257062D01*
X0560595Y0257848D02*
X0839201Y0257848D01*
X0839201Y0258633D02*
X0560595Y0258633D01*
X0560595Y0259419D02*
X0839201Y0259419D01*
X0839201Y0260205D02*
X0560595Y0260205D01*
X0560595Y0260991D02*
X0839201Y0260991D01*
X0839201Y0261777D02*
X0797506Y0261777D01*
X0796521Y0261369D02*
X0800079Y0262843D01*
X0802802Y0265566D01*
X0804276Y0269124D01*
X0804276Y0272976D01*
X0802802Y0276534D01*
X0800079Y0279257D01*
X0796521Y0280731D01*
X0792669Y0280731D01*
X0789111Y0279257D01*
X0786388Y0276534D01*
X0784914Y0272976D01*
X0784914Y0269124D01*
X0786388Y0265566D01*
X0789111Y0262843D01*
X0792669Y0261369D01*
X0796521Y0261369D01*
X0799404Y0262563D02*
X0839201Y0262563D01*
X0839201Y0263349D02*
X0800585Y0263349D01*
X0801371Y0264135D02*
X0839201Y0264135D01*
X0839201Y0264921D02*
X0802157Y0264921D01*
X0802861Y0265707D02*
X0839201Y0265707D01*
X0839201Y0266493D02*
X0803186Y0266493D01*
X0803512Y0267278D02*
X0839201Y0267278D01*
X0839201Y0268064D02*
X0803837Y0268064D01*
X0804163Y0268850D02*
X0839201Y0268850D01*
X0839201Y0269636D02*
X0804276Y0269636D01*
X0804276Y0270422D02*
X0839201Y0270422D01*
X0839201Y0271208D02*
X0804276Y0271208D01*
X0804276Y0271994D02*
X0839201Y0271994D01*
X0839201Y0272780D02*
X0804276Y0272780D01*
X0804032Y0273566D02*
X0839201Y0273566D01*
X0839201Y0274352D02*
X0803706Y0274352D01*
X0803381Y0275138D02*
X0839201Y0275138D01*
X0839201Y0275923D02*
X0803055Y0275923D01*
X0802627Y0276709D02*
X0839201Y0276709D01*
X0839201Y0277495D02*
X0801841Y0277495D01*
X0801055Y0278281D02*
X0839201Y0278281D01*
X0839201Y0279067D02*
X0800269Y0279067D01*
X0798641Y0279853D02*
X0839201Y0279853D01*
X0839201Y0280639D02*
X0796743Y0280639D01*
X0792447Y0280639D02*
X0726431Y0280639D01*
X0726564Y0280960D02*
X0726112Y0279868D01*
X0725277Y0279033D01*
X0724186Y0278581D01*
X0723005Y0278581D01*
X0721914Y0279033D01*
X0721079Y0279868D01*
X0720627Y0280960D01*
X0720627Y0282140D01*
X0721079Y0283232D01*
X0721914Y0284067D01*
X0723005Y0284518D01*
X0724186Y0284518D01*
X0725277Y0284067D01*
X0726112Y0283232D01*
X0726564Y0282140D01*
X0726564Y0280960D01*
X0726564Y0281425D02*
X0839201Y0281425D01*
X0839201Y0282211D02*
X0765954Y0282211D01*
X0765777Y0282033D02*
X0766612Y0282868D01*
X0767064Y0283960D01*
X0767064Y0285140D01*
X0766612Y0286232D01*
X0765777Y0287067D01*
X0764686Y0287518D01*
X0763505Y0287518D01*
X0762414Y0287067D01*
X0761579Y0286232D01*
X0761127Y0285140D01*
X0761127Y0283960D01*
X0761579Y0282868D01*
X0762414Y0282033D01*
X0763505Y0281581D01*
X0764686Y0281581D01*
X0765777Y0282033D01*
X0766665Y0282997D02*
X0839201Y0282997D01*
X0839201Y0283783D02*
X0766990Y0283783D01*
X0767064Y0284569D02*
X0839201Y0284569D01*
X0839201Y0285354D02*
X0766975Y0285354D01*
X0766649Y0286140D02*
X0839201Y0286140D01*
X0839201Y0286926D02*
X0765917Y0286926D01*
X0762273Y0286926D02*
X0711417Y0286926D01*
X0711277Y0287067D02*
X0710186Y0287518D01*
X0709005Y0287518D01*
X0707914Y0287067D01*
X0707079Y0286232D01*
X0706627Y0285140D01*
X0706627Y0283960D01*
X0707079Y0282868D01*
X0707914Y0282033D01*
X0709005Y0281581D01*
X0710186Y0281581D01*
X0711277Y0282033D01*
X0712112Y0282868D01*
X0712564Y0283960D01*
X0712564Y0285140D01*
X0712112Y0286232D01*
X0711277Y0287067D01*
X0712149Y0286140D02*
X0761541Y0286140D01*
X0761215Y0285354D02*
X0712475Y0285354D01*
X0712564Y0284569D02*
X0761127Y0284569D01*
X0761200Y0283783D02*
X0725561Y0283783D01*
X0726209Y0282997D02*
X0761525Y0282997D01*
X0762236Y0282211D02*
X0726534Y0282211D01*
X0726096Y0279853D02*
X0790550Y0279853D01*
X0788921Y0279067D02*
X0725310Y0279067D01*
X0721880Y0279067D02*
X0661310Y0279067D01*
X0661277Y0279033D02*
X0662112Y0279868D01*
X0662564Y0280960D01*
X0662564Y0282140D01*
X0662112Y0283232D01*
X0661277Y0284067D01*
X0660186Y0284518D01*
X0659005Y0284518D01*
X0657914Y0284067D01*
X0657079Y0283232D01*
X0656627Y0282140D01*
X0656627Y0280960D01*
X0657079Y0279868D01*
X0657914Y0279033D01*
X0659005Y0278581D01*
X0660186Y0278581D01*
X0661277Y0279033D01*
X0662096Y0279853D02*
X0721094Y0279853D01*
X0720759Y0280639D02*
X0662431Y0280639D01*
X0662564Y0281425D02*
X0720627Y0281425D01*
X0720656Y0282211D02*
X0711454Y0282211D01*
X0712165Y0282997D02*
X0720981Y0282997D01*
X0721630Y0283783D02*
X0712490Y0283783D01*
X0707736Y0282211D02*
X0662534Y0282211D01*
X0662209Y0282997D02*
X0707025Y0282997D01*
X0706700Y0283783D02*
X0661561Y0283783D01*
X0657630Y0283783D02*
X0597561Y0283783D01*
X0597277Y0284067D02*
X0598112Y0283232D01*
X0598564Y0282140D01*
X0598564Y0280960D01*
X0598112Y0279868D01*
X0597277Y0279033D01*
X0596186Y0278581D01*
X0595005Y0278581D01*
X0593914Y0279033D01*
X0593079Y0279868D01*
X0592627Y0280960D01*
X0592627Y0282140D01*
X0593079Y0283232D01*
X0593914Y0284067D01*
X0595005Y0284518D01*
X0596186Y0284518D01*
X0597277Y0284067D01*
X0598209Y0282997D02*
X0650452Y0282997D01*
X0650505Y0283018D02*
X0649414Y0282567D01*
X0648579Y0281732D01*
X0648127Y0280640D01*
X0648127Y0279460D01*
X0648579Y0278368D01*
X0649414Y0277533D01*
X0650505Y0277081D01*
X0651686Y0277081D01*
X0652777Y0277533D01*
X0653612Y0278368D01*
X0654064Y0279460D01*
X0654064Y0280640D01*
X0653612Y0281732D01*
X0652777Y0282567D01*
X0651686Y0283018D01*
X0650505Y0283018D01*
X0651738Y0282997D02*
X0656981Y0282997D01*
X0656656Y0282211D02*
X0653132Y0282211D01*
X0653739Y0281425D02*
X0656627Y0281425D01*
X0656759Y0280639D02*
X0654064Y0280639D01*
X0654064Y0279853D02*
X0657094Y0279853D01*
X0657880Y0279067D02*
X0653901Y0279067D01*
X0653524Y0278281D02*
X0788135Y0278281D01*
X0787349Y0277495D02*
X0652685Y0277495D01*
X0649506Y0277495D02*
X0560595Y0277495D01*
X0560595Y0276709D02*
X0786563Y0276709D01*
X0786135Y0275923D02*
X0560595Y0275923D01*
X0560595Y0275138D02*
X0785810Y0275138D01*
X0785484Y0274352D02*
X0560595Y0274352D01*
X0560595Y0273566D02*
X0585413Y0273566D01*
X0585414Y0273567D02*
X0584579Y0272732D01*
X0584127Y0271640D01*
X0584127Y0270460D01*
X0584579Y0269368D01*
X0585397Y0268550D01*
X0584579Y0267732D01*
X0584127Y0266640D01*
X0584127Y0265460D01*
X0584579Y0264368D01*
X0585414Y0263533D01*
X0586505Y0263081D01*
X0587686Y0263081D01*
X0588777Y0263533D01*
X0589612Y0264368D01*
X0590064Y0265460D01*
X0590064Y0266640D01*
X0589612Y0267732D01*
X0588793Y0268550D01*
X0589612Y0269368D01*
X0589845Y0269932D01*
X0590079Y0269368D01*
X0590914Y0268533D01*
X0592005Y0268081D01*
X0593186Y0268081D01*
X0594277Y0268533D01*
X0595112Y0269368D01*
X0595564Y0270460D01*
X0595564Y0271640D01*
X0595112Y0272732D01*
X0594277Y0273567D01*
X0593186Y0274018D01*
X0592005Y0274018D01*
X0590914Y0273567D01*
X0590079Y0272732D01*
X0589845Y0272168D01*
X0589612Y0272732D01*
X0588777Y0273567D01*
X0587686Y0274018D01*
X0586505Y0274018D01*
X0585414Y0273567D01*
X0584627Y0272780D02*
X0560595Y0272780D01*
X0560595Y0271994D02*
X0584273Y0271994D01*
X0584127Y0271208D02*
X0560595Y0271208D01*
X0560595Y0270422D02*
X0584142Y0270422D01*
X0584468Y0269636D02*
X0560595Y0269636D01*
X0560595Y0268850D02*
X0585097Y0268850D01*
X0584911Y0268064D02*
X0560595Y0268064D01*
X0560595Y0267278D02*
X0584391Y0267278D01*
X0584127Y0266493D02*
X0560595Y0266493D01*
X0560595Y0265707D02*
X0584127Y0265707D01*
X0584350Y0264921D02*
X0560595Y0264921D01*
X0560595Y0264135D02*
X0584812Y0264135D01*
X0585859Y0263349D02*
X0560595Y0263349D01*
X0560595Y0262563D02*
X0596884Y0262563D01*
X0596914Y0262533D02*
X0598005Y0262081D01*
X0599186Y0262081D01*
X0600277Y0262533D01*
X0601112Y0263368D01*
X0601564Y0264460D01*
X0601564Y0265640D01*
X0601112Y0266732D01*
X0600277Y0267567D01*
X0599186Y0268018D01*
X0598005Y0268018D01*
X0596914Y0267567D01*
X0596079Y0266732D01*
X0595627Y0265640D01*
X0595627Y0264460D01*
X0596079Y0263368D01*
X0596914Y0262533D01*
X0596098Y0263349D02*
X0588331Y0263349D01*
X0589378Y0264135D02*
X0595761Y0264135D01*
X0595627Y0264921D02*
X0589840Y0264921D01*
X0590064Y0265707D02*
X0595654Y0265707D01*
X0595980Y0266493D02*
X0590064Y0266493D01*
X0589799Y0267278D02*
X0596626Y0267278D01*
X0594594Y0268850D02*
X0648597Y0268850D01*
X0648897Y0268550D02*
X0648079Y0267732D01*
X0647627Y0266640D01*
X0647627Y0265460D01*
X0648079Y0264368D01*
X0648914Y0263533D01*
X0650005Y0263081D01*
X0651186Y0263081D01*
X0652277Y0263533D01*
X0653112Y0264368D01*
X0653564Y0265460D01*
X0653564Y0266640D01*
X0653112Y0267732D01*
X0652293Y0268550D01*
X0653112Y0269368D01*
X0653564Y0270460D01*
X0653564Y0271640D01*
X0653112Y0272732D01*
X0652277Y0273567D01*
X0651186Y0274018D01*
X0650005Y0274018D01*
X0648914Y0273567D01*
X0648079Y0272732D01*
X0647627Y0271640D01*
X0647627Y0270460D01*
X0648079Y0269368D01*
X0648897Y0268550D01*
X0648411Y0268064D02*
X0589279Y0268064D01*
X0589094Y0268850D02*
X0590597Y0268850D01*
X0589968Y0269636D02*
X0589723Y0269636D01*
X0589563Y0272780D02*
X0590127Y0272780D01*
X0590913Y0273566D02*
X0588777Y0273566D01*
X0594277Y0273566D02*
X0648913Y0273566D01*
X0648127Y0272780D02*
X0595063Y0272780D01*
X0595417Y0271994D02*
X0647773Y0271994D01*
X0647627Y0271208D02*
X0595564Y0271208D01*
X0595548Y0270422D02*
X0647642Y0270422D01*
X0647968Y0269636D02*
X0595223Y0269636D01*
X0600565Y0267278D02*
X0647891Y0267278D01*
X0647627Y0266493D02*
X0601211Y0266493D01*
X0601536Y0265707D02*
X0647627Y0265707D01*
X0647850Y0264921D02*
X0601564Y0264921D01*
X0601429Y0264135D02*
X0648312Y0264135D01*
X0649359Y0263349D02*
X0601092Y0263349D01*
X0600306Y0262563D02*
X0660884Y0262563D01*
X0660914Y0262533D02*
X0662005Y0262081D01*
X0663186Y0262081D01*
X0664277Y0262533D01*
X0665112Y0263368D01*
X0665564Y0264460D01*
X0665564Y0265640D01*
X0665112Y0266732D01*
X0664277Y0267567D01*
X0663186Y0268018D01*
X0662005Y0268018D01*
X0660914Y0267567D01*
X0660079Y0266732D01*
X0659627Y0265640D01*
X0659627Y0264460D01*
X0660079Y0263368D01*
X0660914Y0262533D01*
X0660098Y0263349D02*
X0651831Y0263349D01*
X0652878Y0264135D02*
X0659761Y0264135D01*
X0659627Y0264921D02*
X0653340Y0264921D01*
X0653564Y0265707D02*
X0659654Y0265707D01*
X0659980Y0266493D02*
X0653564Y0266493D01*
X0653299Y0267278D02*
X0660626Y0267278D01*
X0658594Y0268850D02*
X0712597Y0268850D01*
X0712579Y0268868D02*
X0713397Y0268050D01*
X0712579Y0267232D01*
X0712127Y0266140D01*
X0712127Y0264960D01*
X0712579Y0263868D01*
X0713414Y0263033D01*
X0714505Y0262581D01*
X0715686Y0262581D01*
X0716777Y0263033D01*
X0717612Y0263868D01*
X0718064Y0264960D01*
X0718064Y0266140D01*
X0717612Y0267232D01*
X0716793Y0268050D01*
X0717612Y0268868D01*
X0717949Y0269682D01*
X0718079Y0269368D01*
X0718914Y0268533D01*
X0720005Y0268081D01*
X0721186Y0268081D01*
X0722277Y0268533D01*
X0723112Y0269368D01*
X0723564Y0270460D01*
X0723564Y0271640D01*
X0723112Y0272732D01*
X0722277Y0273567D01*
X0721186Y0274018D01*
X0720005Y0274018D01*
X0718914Y0273567D01*
X0718079Y0272732D01*
X0717742Y0271918D01*
X0717612Y0272232D01*
X0716777Y0273067D01*
X0715686Y0273518D01*
X0714505Y0273518D01*
X0713414Y0273067D01*
X0712579Y0272232D01*
X0712127Y0271140D01*
X0712127Y0269960D01*
X0712579Y0268868D01*
X0712261Y0269636D02*
X0659223Y0269636D01*
X0659112Y0269368D02*
X0659564Y0270460D01*
X0659564Y0271640D01*
X0659112Y0272732D01*
X0658277Y0273567D01*
X0657186Y0274018D01*
X0656005Y0274018D01*
X0654914Y0273567D01*
X0654079Y0272732D01*
X0653627Y0271640D01*
X0653627Y0270460D01*
X0654079Y0269368D01*
X0654914Y0268533D01*
X0656005Y0268081D01*
X0657186Y0268081D01*
X0658277Y0268533D01*
X0659112Y0269368D01*
X0659548Y0270422D02*
X0712127Y0270422D01*
X0712155Y0271208D02*
X0659564Y0271208D01*
X0659417Y0271994D02*
X0712480Y0271994D01*
X0713127Y0272780D02*
X0659063Y0272780D01*
X0658277Y0273566D02*
X0718913Y0273566D01*
X0718127Y0272780D02*
X0717063Y0272780D01*
X0717710Y0271994D02*
X0717773Y0271994D01*
X0717930Y0269636D02*
X0717968Y0269636D01*
X0717594Y0268850D02*
X0718597Y0268850D01*
X0717565Y0267278D02*
X0724626Y0267278D01*
X0724914Y0267567D02*
X0724079Y0266732D01*
X0723627Y0265640D01*
X0723627Y0264460D01*
X0724079Y0263368D01*
X0724914Y0262533D01*
X0726005Y0262081D01*
X0727186Y0262081D01*
X0728277Y0262533D01*
X0729112Y0263368D01*
X0729564Y0264460D01*
X0729564Y0265640D01*
X0729112Y0266732D01*
X0728277Y0267567D01*
X0727186Y0268018D01*
X0726005Y0268018D01*
X0724914Y0267567D01*
X0723980Y0266493D02*
X0717918Y0266493D01*
X0718064Y0265707D02*
X0723654Y0265707D01*
X0723627Y0264921D02*
X0718048Y0264921D01*
X0717722Y0264135D02*
X0723761Y0264135D01*
X0724098Y0263349D02*
X0717092Y0263349D01*
X0713098Y0263349D02*
X0665092Y0263349D01*
X0665429Y0264135D02*
X0712468Y0264135D01*
X0712143Y0264921D02*
X0665564Y0264921D01*
X0665536Y0265707D02*
X0712127Y0265707D01*
X0712272Y0266493D02*
X0665211Y0266493D01*
X0664565Y0267278D02*
X0712626Y0267278D01*
X0713383Y0268064D02*
X0652779Y0268064D01*
X0652594Y0268850D02*
X0654597Y0268850D01*
X0653968Y0269636D02*
X0653223Y0269636D01*
X0653548Y0270422D02*
X0653642Y0270422D01*
X0653627Y0271208D02*
X0653564Y0271208D01*
X0653417Y0271994D02*
X0653773Y0271994D01*
X0654127Y0272780D02*
X0653063Y0272780D01*
X0652277Y0273566D02*
X0654913Y0273566D01*
X0648666Y0278281D02*
X0560595Y0278281D01*
X0560595Y0279067D02*
X0593880Y0279067D01*
X0593094Y0279853D02*
X0560595Y0279853D01*
X0560595Y0280639D02*
X0592759Y0280639D01*
X0592627Y0281425D02*
X0560595Y0281425D01*
X0560595Y0282211D02*
X0592656Y0282211D01*
X0592981Y0282997D02*
X0560595Y0282997D01*
X0560595Y0283783D02*
X0593630Y0283783D01*
X0598534Y0282211D02*
X0649058Y0282211D01*
X0648452Y0281425D02*
X0598564Y0281425D01*
X0598431Y0280639D02*
X0648127Y0280639D01*
X0648127Y0279853D02*
X0598096Y0279853D01*
X0597310Y0279067D02*
X0648289Y0279067D01*
X0664306Y0262563D02*
X0724884Y0262563D01*
X0728306Y0262563D02*
X0789787Y0262563D01*
X0788605Y0263349D02*
X0729092Y0263349D01*
X0729429Y0264135D02*
X0787819Y0264135D01*
X0787033Y0264921D02*
X0729564Y0264921D01*
X0729536Y0265707D02*
X0786330Y0265707D01*
X0786004Y0266493D02*
X0729211Y0266493D01*
X0728565Y0267278D02*
X0785679Y0267278D01*
X0785353Y0268064D02*
X0716808Y0268064D01*
X0722594Y0268850D02*
X0785028Y0268850D01*
X0784914Y0269636D02*
X0723223Y0269636D01*
X0723548Y0270422D02*
X0784914Y0270422D01*
X0784914Y0271208D02*
X0723564Y0271208D01*
X0723417Y0271994D02*
X0784914Y0271994D01*
X0784914Y0272780D02*
X0723063Y0272780D01*
X0722277Y0273566D02*
X0785158Y0273566D01*
X0791684Y0261777D02*
X0560595Y0261777D01*
X0560595Y0256276D02*
X0584123Y0256276D01*
X0583771Y0255490D02*
X0560595Y0255490D01*
X0560595Y0254704D02*
X0583627Y0254704D01*
X0583644Y0253918D02*
X0560595Y0253918D01*
X0560595Y0253132D02*
X0583969Y0253132D01*
X0584601Y0252346D02*
X0560595Y0252346D01*
X0560595Y0246845D02*
X0786677Y0246845D01*
X0785984Y0246059D02*
X0716784Y0246059D01*
X0716777Y0246067D02*
X0715686Y0246518D01*
X0714505Y0246518D01*
X0713414Y0246067D01*
X0712579Y0245232D01*
X0712127Y0244140D01*
X0712127Y0242960D01*
X0712579Y0241868D01*
X0713397Y0241050D01*
X0712579Y0240232D01*
X0712127Y0239140D01*
X0712127Y0237960D01*
X0712579Y0236868D01*
X0713414Y0236033D01*
X0714505Y0235581D01*
X0715686Y0235581D01*
X0716777Y0236033D01*
X0717612Y0236868D01*
X0718064Y0237960D01*
X0718064Y0239140D01*
X0717612Y0240232D01*
X0716793Y0241050D01*
X0717612Y0241868D01*
X0718064Y0242960D01*
X0718064Y0244140D01*
X0717612Y0245232D01*
X0716777Y0246067D01*
X0717570Y0245273D02*
X0785659Y0245273D01*
X0785414Y0244487D02*
X0717920Y0244487D01*
X0718064Y0243701D02*
X0785414Y0243701D01*
X0785457Y0242915D02*
X0718045Y0242915D01*
X0717720Y0242129D02*
X0785782Y0242129D01*
X0786189Y0241343D02*
X0717087Y0241343D01*
X0717286Y0240557D02*
X0786975Y0240557D01*
X0788516Y0239772D02*
X0717802Y0239772D01*
X0718064Y0238986D02*
X0795414Y0238986D01*
X0795414Y0238200D02*
X0718064Y0238200D01*
X0717838Y0237414D02*
X0795499Y0237414D01*
X0795824Y0236628D02*
X0791642Y0236628D01*
X0792616Y0235842D02*
X0796290Y0235842D01*
X0797076Y0235056D02*
X0793248Y0235056D01*
X0793365Y0231126D02*
X0797304Y0231126D01*
X0796473Y0230341D02*
X0792899Y0230341D01*
X0792113Y0229555D02*
X0795900Y0229555D01*
X0795574Y0228769D02*
X0735303Y0228769D01*
X0735112Y0229232D02*
X0735564Y0228140D01*
X0735564Y0226960D01*
X0735112Y0225868D01*
X0734277Y0225033D01*
X0733186Y0224581D01*
X0732005Y0224581D01*
X0730914Y0225033D01*
X0730345Y0225602D01*
X0729777Y0225033D01*
X0728686Y0224581D01*
X0727505Y0224581D01*
X0726414Y0225033D01*
X0725845Y0225602D01*
X0725277Y0225033D01*
X0724186Y0224581D01*
X0723005Y0224581D01*
X0721914Y0225033D01*
X0721345Y0225602D01*
X0720777Y0225033D01*
X0719686Y0224581D01*
X0718505Y0224581D01*
X0717414Y0225033D01*
X0716845Y0225602D01*
X0716277Y0225033D01*
X0715186Y0224581D01*
X0714005Y0224581D01*
X0712914Y0225033D01*
X0712079Y0225868D01*
X0711627Y0226960D01*
X0711627Y0228140D01*
X0712079Y0229232D01*
X0712914Y0230067D01*
X0714005Y0230518D01*
X0715186Y0230518D01*
X0716277Y0230067D01*
X0716845Y0229498D01*
X0717414Y0230067D01*
X0718505Y0230518D01*
X0719686Y0230518D01*
X0720777Y0230067D01*
X0721345Y0229498D01*
X0721914Y0230067D01*
X0723005Y0230518D01*
X0724186Y0230518D01*
X0725277Y0230067D01*
X0725845Y0229498D01*
X0726414Y0230067D01*
X0727505Y0230518D01*
X0728686Y0230518D01*
X0729777Y0230067D01*
X0730345Y0229498D01*
X0730914Y0230067D01*
X0732005Y0230518D01*
X0733186Y0230518D01*
X0734277Y0230067D01*
X0735112Y0229232D01*
X0734789Y0229555D02*
X0787078Y0229555D01*
X0786292Y0230341D02*
X0733615Y0230341D01*
X0731575Y0230341D02*
X0729115Y0230341D01*
X0730289Y0229555D02*
X0730402Y0229555D01*
X0727075Y0230341D02*
X0724615Y0230341D01*
X0725789Y0229555D02*
X0725902Y0229555D01*
X0722575Y0230341D02*
X0720115Y0230341D01*
X0721289Y0229555D02*
X0721402Y0229555D01*
X0718075Y0230341D02*
X0715615Y0230341D01*
X0716789Y0229555D02*
X0716902Y0229555D01*
X0713575Y0230341D02*
X0669615Y0230341D01*
X0669186Y0230518D02*
X0668005Y0230518D01*
X0666914Y0230067D01*
X0666345Y0229498D01*
X0665777Y0230067D01*
X0664686Y0230518D01*
X0663505Y0230518D01*
X0662414Y0230067D01*
X0661845Y0229498D01*
X0661277Y0230067D01*
X0660186Y0230518D01*
X0659005Y0230518D01*
X0657914Y0230067D01*
X0657345Y0229498D01*
X0656777Y0230067D01*
X0655686Y0230518D01*
X0654505Y0230518D01*
X0653414Y0230067D01*
X0652845Y0229498D01*
X0652277Y0230067D01*
X0651186Y0230518D01*
X0650005Y0230518D01*
X0648914Y0230067D01*
X0648079Y0229232D01*
X0647627Y0228140D01*
X0647627Y0226960D01*
X0648079Y0225868D01*
X0648914Y0225033D01*
X0650005Y0224581D01*
X0651186Y0224581D01*
X0652277Y0225033D01*
X0652845Y0225602D01*
X0653414Y0225033D01*
X0654505Y0224581D01*
X0655686Y0224581D01*
X0656777Y0225033D01*
X0657345Y0225602D01*
X0657914Y0225033D01*
X0659005Y0224581D01*
X0660186Y0224581D01*
X0661277Y0225033D01*
X0661845Y0225602D01*
X0662414Y0225033D01*
X0663505Y0224581D01*
X0664686Y0224581D01*
X0665777Y0225033D01*
X0666345Y0225602D01*
X0666914Y0225033D01*
X0668005Y0224581D01*
X0669186Y0224581D01*
X0670277Y0225033D01*
X0671112Y0225868D01*
X0671564Y0226960D01*
X0671564Y0228140D01*
X0671112Y0229232D01*
X0670277Y0230067D01*
X0669186Y0230518D01*
X0667575Y0230341D02*
X0665115Y0230341D01*
X0666289Y0229555D02*
X0666402Y0229555D01*
X0663075Y0230341D02*
X0660615Y0230341D01*
X0661789Y0229555D02*
X0661902Y0229555D01*
X0658575Y0230341D02*
X0656115Y0230341D01*
X0657289Y0229555D02*
X0657402Y0229555D01*
X0654075Y0230341D02*
X0651615Y0230341D01*
X0652789Y0229555D02*
X0652902Y0229555D01*
X0649575Y0230341D02*
X0641115Y0230341D01*
X0640686Y0230518D02*
X0639505Y0230518D01*
X0638414Y0230067D01*
X0637579Y0229232D01*
X0637127Y0228140D01*
X0637127Y0226960D01*
X0637579Y0225868D01*
X0638414Y0225033D01*
X0639505Y0224581D01*
X0640686Y0224581D01*
X0641777Y0225033D01*
X0642612Y0225868D01*
X0643064Y0226960D01*
X0643064Y0228140D01*
X0642612Y0229232D01*
X0641777Y0230067D01*
X0640686Y0230518D01*
X0639075Y0230341D02*
X0605615Y0230341D01*
X0605186Y0230518D02*
X0604005Y0230518D01*
X0602914Y0230067D01*
X0602345Y0229498D01*
X0601777Y0230067D01*
X0600686Y0230518D01*
X0599505Y0230518D01*
X0598414Y0230067D01*
X0597845Y0229498D01*
X0597277Y0230067D01*
X0596186Y0230518D01*
X0595005Y0230518D01*
X0593914Y0230067D01*
X0593345Y0229498D01*
X0592777Y0230067D01*
X0591686Y0230518D01*
X0590505Y0230518D01*
X0589414Y0230067D01*
X0588845Y0229498D01*
X0588277Y0230067D01*
X0587186Y0230518D01*
X0586005Y0230518D01*
X0584914Y0230067D01*
X0584079Y0229232D01*
X0583627Y0228140D01*
X0583627Y0226960D01*
X0584079Y0225868D01*
X0584914Y0225033D01*
X0586005Y0224581D01*
X0587186Y0224581D01*
X0588277Y0225033D01*
X0588845Y0225602D01*
X0589414Y0225033D01*
X0590505Y0224581D01*
X0591686Y0224581D01*
X0592777Y0225033D01*
X0593345Y0225602D01*
X0593914Y0225033D01*
X0595005Y0224581D01*
X0596186Y0224581D01*
X0597277Y0225033D01*
X0597845Y0225602D01*
X0598414Y0225033D01*
X0599505Y0224581D01*
X0600686Y0224581D01*
X0601777Y0225033D01*
X0602345Y0225602D01*
X0602914Y0225033D01*
X0604005Y0224581D01*
X0605186Y0224581D01*
X0606277Y0225033D01*
X0607112Y0225868D01*
X0607564Y0226960D01*
X0607564Y0228140D01*
X0607112Y0229232D01*
X0606277Y0230067D01*
X0605186Y0230518D01*
X0603575Y0230341D02*
X0601115Y0230341D01*
X0602289Y0229555D02*
X0602402Y0229555D01*
X0599075Y0230341D02*
X0596615Y0230341D01*
X0597789Y0229555D02*
X0597902Y0229555D01*
X0594575Y0230341D02*
X0592115Y0230341D01*
X0593289Y0229555D02*
X0593402Y0229555D01*
X0590075Y0230341D02*
X0587615Y0230341D01*
X0588789Y0229555D02*
X0588902Y0229555D01*
X0585575Y0230341D02*
X0560595Y0230341D01*
X0560595Y0231126D02*
X0785825Y0231126D01*
X0785499Y0231912D02*
X0560595Y0231912D01*
X0560595Y0232698D02*
X0785414Y0232698D01*
X0785414Y0233484D02*
X0560595Y0233484D01*
X0560595Y0234270D02*
X0785616Y0234270D01*
X0785942Y0235056D02*
X0560595Y0235056D01*
X0560595Y0235842D02*
X0585105Y0235842D01*
X0585414Y0235533D02*
X0586505Y0235081D01*
X0587686Y0235081D01*
X0588777Y0235533D01*
X0589612Y0236368D01*
X0590064Y0237460D01*
X0590064Y0238640D01*
X0589612Y0239732D01*
X0588777Y0240567D01*
X0588213Y0240800D01*
X0588777Y0241033D01*
X0589612Y0241868D01*
X0590064Y0242960D01*
X0590064Y0244140D01*
X0589612Y0245232D01*
X0588777Y0246067D01*
X0587686Y0246518D01*
X0586505Y0246518D01*
X0585414Y0246067D01*
X0584579Y0245232D01*
X0584127Y0244140D01*
X0584127Y0242960D01*
X0584579Y0241868D01*
X0585414Y0241033D01*
X0585977Y0240800D01*
X0585414Y0240567D01*
X0584579Y0239732D01*
X0584127Y0238640D01*
X0584127Y0237460D01*
X0584579Y0236368D01*
X0585414Y0235533D01*
X0584471Y0236628D02*
X0560595Y0236628D01*
X0560595Y0237414D02*
X0584146Y0237414D01*
X0584127Y0238200D02*
X0560595Y0238200D01*
X0560595Y0238986D02*
X0584270Y0238986D01*
X0584619Y0239772D02*
X0560595Y0239772D01*
X0560595Y0240557D02*
X0585404Y0240557D01*
X0585104Y0241343D02*
X0560595Y0241343D01*
X0560595Y0242129D02*
X0584471Y0242129D01*
X0584145Y0242915D02*
X0560595Y0242915D01*
X0560595Y0243701D02*
X0584127Y0243701D01*
X0584270Y0244487D02*
X0560595Y0244487D01*
X0560595Y0245273D02*
X0584620Y0245273D01*
X0585406Y0246059D02*
X0560595Y0246059D01*
X0560595Y0229555D02*
X0584402Y0229555D01*
X0583887Y0228769D02*
X0560595Y0228769D01*
X0560595Y0227983D02*
X0583627Y0227983D01*
X0583627Y0227197D02*
X0560595Y0227197D01*
X0560595Y0226411D02*
X0583854Y0226411D01*
X0584322Y0225625D02*
X0560595Y0225625D01*
X0560595Y0224839D02*
X0585383Y0224839D01*
X0587808Y0224839D02*
X0589883Y0224839D01*
X0592308Y0224839D02*
X0594383Y0224839D01*
X0596808Y0224839D02*
X0598883Y0224839D01*
X0601308Y0224839D02*
X0603383Y0224839D01*
X0605808Y0224839D02*
X0638883Y0224839D01*
X0637822Y0225625D02*
X0606868Y0225625D01*
X0607336Y0226411D02*
X0637354Y0226411D01*
X0637127Y0227197D02*
X0607564Y0227197D01*
X0607564Y0227983D02*
X0637127Y0227983D01*
X0637387Y0228769D02*
X0607303Y0228769D01*
X0606789Y0229555D02*
X0637902Y0229555D01*
X0642289Y0229555D02*
X0648402Y0229555D01*
X0647887Y0228769D02*
X0642803Y0228769D01*
X0643064Y0227983D02*
X0647627Y0227983D01*
X0647627Y0227197D02*
X0643064Y0227197D01*
X0642836Y0226411D02*
X0647854Y0226411D01*
X0648322Y0225625D02*
X0642368Y0225625D01*
X0641308Y0224839D02*
X0649383Y0224839D01*
X0651808Y0224839D02*
X0653883Y0224839D01*
X0656308Y0224839D02*
X0658383Y0224839D01*
X0660808Y0224839D02*
X0662883Y0224839D01*
X0665308Y0224839D02*
X0667383Y0224839D01*
X0669808Y0224839D02*
X0689176Y0224839D01*
X0689127Y0224960D02*
X0689579Y0223868D01*
X0690414Y0223033D01*
X0691505Y0222581D01*
X0692686Y0222581D01*
X0693777Y0223033D01*
X0694612Y0223868D01*
X0695064Y0224960D01*
X0695064Y0226140D01*
X0694612Y0227232D01*
X0693777Y0228067D01*
X0692686Y0228518D01*
X0691505Y0228518D01*
X0690414Y0228067D01*
X0689579Y0227232D01*
X0689127Y0226140D01*
X0689127Y0224960D01*
X0689127Y0225625D02*
X0670868Y0225625D01*
X0671336Y0226411D02*
X0689239Y0226411D01*
X0689564Y0227197D02*
X0671564Y0227197D01*
X0671564Y0227983D02*
X0690330Y0227983D01*
X0693860Y0227983D02*
X0711627Y0227983D01*
X0711627Y0227197D02*
X0694626Y0227197D01*
X0694952Y0226411D02*
X0711854Y0226411D01*
X0712322Y0225625D02*
X0695064Y0225625D01*
X0695014Y0224839D02*
X0713383Y0224839D01*
X0715808Y0224839D02*
X0717883Y0224839D01*
X0720308Y0224839D02*
X0722383Y0224839D01*
X0724808Y0224839D02*
X0726883Y0224839D01*
X0729308Y0224839D02*
X0731383Y0224839D01*
X0733808Y0224839D02*
X0786371Y0224839D01*
X0785858Y0224053D02*
X0694688Y0224053D01*
X0694011Y0223267D02*
X0785532Y0223267D01*
X0785414Y0222481D02*
X0560595Y0222481D01*
X0560595Y0221696D02*
X0785414Y0221696D01*
X0785583Y0220910D02*
X0560595Y0220910D01*
X0560595Y0220124D02*
X0593052Y0220124D01*
X0592914Y0220067D02*
X0592079Y0219232D01*
X0591627Y0218140D01*
X0591627Y0216960D01*
X0592079Y0215868D01*
X0592914Y0215033D01*
X0594005Y0214581D01*
X0595186Y0214581D01*
X0596277Y0215033D01*
X0597112Y0215868D01*
X0597564Y0216960D01*
X0597564Y0218140D01*
X0597112Y0219232D01*
X0596277Y0220067D01*
X0595186Y0220518D01*
X0594005Y0220518D01*
X0592914Y0220067D01*
X0592185Y0219338D02*
X0589005Y0219338D01*
X0588777Y0219567D02*
X0587686Y0220018D01*
X0586505Y0220018D01*
X0585414Y0219567D01*
X0584579Y0218732D01*
X0584127Y0217640D01*
X0584127Y0216460D01*
X0584579Y0215368D01*
X0585397Y0214550D01*
X0584579Y0213732D01*
X0584127Y0212640D01*
X0584127Y0211460D01*
X0584579Y0210368D01*
X0585414Y0209533D01*
X0586505Y0209081D01*
X0587686Y0209081D01*
X0588777Y0209533D01*
X0589612Y0210368D01*
X0590064Y0211460D01*
X0590064Y0212640D01*
X0589612Y0213732D01*
X0588793Y0214550D01*
X0589612Y0215368D01*
X0590064Y0216460D01*
X0590064Y0217640D01*
X0589612Y0218732D01*
X0588777Y0219567D01*
X0589686Y0218552D02*
X0591797Y0218552D01*
X0591627Y0217766D02*
X0590012Y0217766D01*
X0590064Y0216980D02*
X0591627Y0216980D01*
X0591944Y0216194D02*
X0589954Y0216194D01*
X0589628Y0215408D02*
X0592539Y0215408D01*
X0592505Y0214518D02*
X0591414Y0214067D01*
X0590579Y0213232D01*
X0590127Y0212140D01*
X0590127Y0210960D01*
X0590579Y0209868D01*
X0591414Y0209033D01*
X0592505Y0208581D01*
X0593686Y0208581D01*
X0594777Y0209033D01*
X0595612Y0209868D01*
X0596064Y0210960D01*
X0596064Y0212140D01*
X0595612Y0213232D01*
X0594777Y0214067D01*
X0593686Y0214518D01*
X0592505Y0214518D01*
X0593906Y0214622D02*
X0588866Y0214622D01*
X0589507Y0213836D02*
X0591183Y0213836D01*
X0590504Y0213050D02*
X0589894Y0213050D01*
X0590064Y0212265D02*
X0590178Y0212265D01*
X0590127Y0211479D02*
X0590064Y0211479D01*
X0590237Y0210693D02*
X0589746Y0210693D01*
X0589150Y0209907D02*
X0590563Y0209907D01*
X0591326Y0209121D02*
X0587781Y0209121D01*
X0586410Y0209121D02*
X0560595Y0209121D01*
X0560595Y0209907D02*
X0585040Y0209907D01*
X0584444Y0210693D02*
X0560595Y0210693D01*
X0560595Y0211479D02*
X0584127Y0211479D01*
X0584127Y0212265D02*
X0560595Y0212265D01*
X0560595Y0213050D02*
X0584296Y0213050D01*
X0584683Y0213836D02*
X0560595Y0213836D01*
X0560595Y0214622D02*
X0585325Y0214622D01*
X0584562Y0215408D02*
X0560595Y0215408D01*
X0560595Y0216194D02*
X0584237Y0216194D01*
X0584127Y0216980D02*
X0560595Y0216980D01*
X0560595Y0217766D02*
X0584179Y0217766D01*
X0584504Y0218552D02*
X0560595Y0218552D01*
X0560595Y0219338D02*
X0585185Y0219338D01*
X0596139Y0220124D02*
X0657052Y0220124D01*
X0656914Y0220067D02*
X0656079Y0219232D01*
X0655627Y0218140D01*
X0655627Y0216960D01*
X0656079Y0215868D01*
X0656914Y0215033D01*
X0658005Y0214581D01*
X0659186Y0214581D01*
X0660277Y0215033D01*
X0661112Y0215868D01*
X0661564Y0216960D01*
X0661564Y0218140D01*
X0661112Y0219232D01*
X0660277Y0220067D01*
X0659186Y0220518D01*
X0658005Y0220518D01*
X0656914Y0220067D01*
X0656185Y0219338D02*
X0653005Y0219338D01*
X0652777Y0219567D02*
X0651686Y0220018D01*
X0650505Y0220018D01*
X0649414Y0219567D01*
X0648579Y0218732D01*
X0648127Y0217640D01*
X0648127Y0216460D01*
X0648579Y0215368D01*
X0649397Y0214550D01*
X0648579Y0213732D01*
X0648127Y0212640D01*
X0648127Y0211460D01*
X0648579Y0210368D01*
X0649414Y0209533D01*
X0650505Y0209081D01*
X0651686Y0209081D01*
X0652777Y0209533D01*
X0653612Y0210368D01*
X0654064Y0211460D01*
X0654064Y0212640D01*
X0653612Y0213732D01*
X0652793Y0214550D01*
X0653612Y0215368D01*
X0654064Y0216460D01*
X0654064Y0217640D01*
X0653612Y0218732D01*
X0652777Y0219567D01*
X0653686Y0218552D02*
X0655797Y0218552D01*
X0655627Y0217766D02*
X0654012Y0217766D01*
X0654064Y0216980D02*
X0655627Y0216980D01*
X0655944Y0216194D02*
X0653954Y0216194D01*
X0653628Y0215408D02*
X0656539Y0215408D01*
X0656505Y0214518D02*
X0655414Y0214067D01*
X0654579Y0213232D01*
X0654127Y0212140D01*
X0654127Y0210960D01*
X0654579Y0209868D01*
X0655414Y0209033D01*
X0656505Y0208581D01*
X0657686Y0208581D01*
X0658777Y0209033D01*
X0659612Y0209868D01*
X0660064Y0210960D01*
X0660064Y0212140D01*
X0659612Y0213232D01*
X0658777Y0214067D01*
X0657686Y0214518D01*
X0656505Y0214518D01*
X0657906Y0214622D02*
X0652866Y0214622D01*
X0653507Y0213836D02*
X0655183Y0213836D01*
X0654504Y0213050D02*
X0653894Y0213050D01*
X0654064Y0212265D02*
X0654178Y0212265D01*
X0654127Y0211479D02*
X0654064Y0211479D01*
X0654237Y0210693D02*
X0653746Y0210693D01*
X0653150Y0209907D02*
X0654563Y0209907D01*
X0655326Y0209121D02*
X0651781Y0209121D01*
X0650410Y0209121D02*
X0594864Y0209121D01*
X0595628Y0209907D02*
X0649040Y0209907D01*
X0648444Y0210693D02*
X0595953Y0210693D01*
X0596064Y0211479D02*
X0648127Y0211479D01*
X0648127Y0212265D02*
X0596012Y0212265D01*
X0595687Y0213050D02*
X0648296Y0213050D01*
X0648683Y0213836D02*
X0595007Y0213836D01*
X0595284Y0214622D02*
X0649325Y0214622D01*
X0648562Y0215408D02*
X0596651Y0215408D01*
X0597247Y0216194D02*
X0648237Y0216194D01*
X0648127Y0216980D02*
X0597564Y0216980D01*
X0597564Y0217766D02*
X0648179Y0217766D01*
X0648504Y0218552D02*
X0597393Y0218552D01*
X0597005Y0219338D02*
X0649185Y0219338D01*
X0660139Y0220124D02*
X0713552Y0220124D01*
X0713414Y0220067D02*
X0712579Y0219232D01*
X0712127Y0218140D01*
X0712127Y0216960D01*
X0712579Y0215868D01*
X0713397Y0215050D01*
X0712579Y0214232D01*
X0712127Y0213140D01*
X0712127Y0211960D01*
X0712579Y0210868D01*
X0713414Y0210033D01*
X0714505Y0209581D01*
X0715686Y0209581D01*
X0716777Y0210033D01*
X0717612Y0210868D01*
X0718064Y0211960D01*
X0718064Y0213140D01*
X0717612Y0214232D01*
X0716793Y0215050D01*
X0717612Y0215868D01*
X0718064Y0216960D01*
X0718064Y0218140D01*
X0717612Y0219232D01*
X0716777Y0220067D01*
X0715686Y0220518D01*
X0714505Y0220518D01*
X0713414Y0220067D01*
X0712685Y0219338D02*
X0661005Y0219338D01*
X0661393Y0218552D02*
X0712297Y0218552D01*
X0712127Y0217766D02*
X0661564Y0217766D01*
X0661564Y0216980D02*
X0712127Y0216980D01*
X0712444Y0216194D02*
X0661247Y0216194D01*
X0660651Y0215408D02*
X0713039Y0215408D01*
X0712969Y0214622D02*
X0659284Y0214622D01*
X0659007Y0213836D02*
X0712415Y0213836D01*
X0712127Y0213050D02*
X0659687Y0213050D01*
X0660012Y0212265D02*
X0712127Y0212265D01*
X0712326Y0211479D02*
X0660064Y0211479D01*
X0659953Y0210693D02*
X0712754Y0210693D01*
X0713719Y0209907D02*
X0659628Y0209907D01*
X0658864Y0209121D02*
X0719326Y0209121D01*
X0718563Y0209907D02*
X0716471Y0209907D01*
X0717436Y0210693D02*
X0718237Y0210693D01*
X0718127Y0211479D02*
X0717864Y0211479D01*
X0718064Y0212265D02*
X0718178Y0212265D01*
X0718064Y0213050D02*
X0718504Y0213050D01*
X0719183Y0213836D02*
X0717775Y0213836D01*
X0717221Y0214622D02*
X0721906Y0214622D01*
X0720539Y0215408D02*
X0717151Y0215408D01*
X0717747Y0216194D02*
X0719944Y0216194D01*
X0719627Y0216980D02*
X0718064Y0216980D01*
X0718064Y0217766D02*
X0719627Y0217766D01*
X0719797Y0218552D02*
X0717893Y0218552D01*
X0717505Y0219338D02*
X0720185Y0219338D01*
X0721052Y0220124D02*
X0716639Y0220124D01*
X0724139Y0220124D02*
X0785909Y0220124D01*
X0786494Y0219338D02*
X0725005Y0219338D01*
X0725393Y0218552D02*
X0787356Y0218552D01*
X0791834Y0218552D02*
X0795857Y0218552D01*
X0795532Y0217766D02*
X0725564Y0217766D01*
X0725564Y0216980D02*
X0795414Y0216980D01*
X0796370Y0219338D02*
X0792696Y0219338D01*
X0793281Y0220124D02*
X0797156Y0220124D01*
X0797179Y0224053D02*
X0793332Y0224053D01*
X0792819Y0224839D02*
X0796393Y0224839D01*
X0795867Y0225625D02*
X0792033Y0225625D01*
X0795541Y0226411D02*
X0735336Y0226411D01*
X0735564Y0227197D02*
X0795414Y0227197D01*
X0795414Y0227983D02*
X0735564Y0227983D01*
X0734868Y0225625D02*
X0787157Y0225625D01*
X0786574Y0235842D02*
X0716314Y0235842D01*
X0717371Y0236628D02*
X0787549Y0236628D01*
X0790675Y0239772D02*
X0795617Y0239772D01*
X0795942Y0240557D02*
X0792216Y0240557D01*
X0793001Y0241343D02*
X0796576Y0241343D01*
X0797552Y0242129D02*
X0793408Y0242129D01*
X0730909Y0257062D02*
X0729782Y0257062D01*
X0726409Y0257062D02*
X0725282Y0257062D01*
X0721909Y0257062D02*
X0720782Y0257062D01*
X0717409Y0257062D02*
X0716282Y0257062D01*
X0713406Y0246059D02*
X0588784Y0246059D01*
X0589570Y0245273D02*
X0649120Y0245273D01*
X0649414Y0245567D02*
X0648579Y0244732D01*
X0648127Y0243640D01*
X0648127Y0242460D01*
X0648579Y0241368D01*
X0649397Y0240550D01*
X0648579Y0239732D01*
X0648127Y0238640D01*
X0648127Y0237460D01*
X0648579Y0236368D01*
X0649414Y0235533D01*
X0650505Y0235081D01*
X0651686Y0235081D01*
X0652777Y0235533D01*
X0653612Y0236368D01*
X0654064Y0237460D01*
X0654064Y0238640D01*
X0653612Y0239732D01*
X0652793Y0240550D01*
X0653612Y0241368D01*
X0654064Y0242460D01*
X0654064Y0243640D01*
X0653612Y0244732D01*
X0652777Y0245567D01*
X0651686Y0246018D01*
X0650505Y0246018D01*
X0649414Y0245567D01*
X0648477Y0244487D02*
X0589920Y0244487D01*
X0590064Y0243701D02*
X0648152Y0243701D01*
X0648127Y0242915D02*
X0590045Y0242915D01*
X0589720Y0242129D02*
X0648263Y0242129D01*
X0648604Y0241343D02*
X0589087Y0241343D01*
X0588786Y0240557D02*
X0649390Y0240557D01*
X0648619Y0239772D02*
X0589572Y0239772D01*
X0589921Y0238986D02*
X0648270Y0238986D01*
X0648127Y0238200D02*
X0590064Y0238200D01*
X0590045Y0237414D02*
X0648146Y0237414D01*
X0648471Y0236628D02*
X0589719Y0236628D01*
X0589085Y0235842D02*
X0649105Y0235842D01*
X0653085Y0235842D02*
X0713876Y0235842D01*
X0712819Y0236628D02*
X0653719Y0236628D01*
X0654045Y0237414D02*
X0712353Y0237414D01*
X0712127Y0238200D02*
X0654064Y0238200D01*
X0653921Y0238986D02*
X0712127Y0238986D01*
X0712388Y0239772D02*
X0653572Y0239772D01*
X0652801Y0240557D02*
X0712904Y0240557D01*
X0713104Y0241343D02*
X0653587Y0241343D01*
X0653927Y0242129D02*
X0712471Y0242129D01*
X0712145Y0242915D02*
X0654064Y0242915D01*
X0654039Y0243701D02*
X0712127Y0243701D01*
X0712270Y0244487D02*
X0653713Y0244487D01*
X0653070Y0245273D02*
X0712620Y0245273D01*
X0712402Y0229555D02*
X0670789Y0229555D01*
X0671303Y0228769D02*
X0711887Y0228769D01*
X0690180Y0223267D02*
X0560595Y0223267D01*
X0560595Y0224053D02*
X0689502Y0224053D01*
X0713079Y0206732D02*
X0712627Y0205640D01*
X0712627Y0204460D01*
X0713079Y0203368D01*
X0713914Y0202533D01*
X0714727Y0202196D01*
X0714414Y0202067D01*
X0713579Y0201232D01*
X0713127Y0200140D01*
X0713127Y0198960D01*
X0713579Y0197868D01*
X0714414Y0197033D01*
X0715505Y0196581D01*
X0716686Y0196581D01*
X0717777Y0197033D01*
X0718612Y0197868D01*
X0719064Y0198960D01*
X0719064Y0200140D01*
X0718612Y0201232D01*
X0717777Y0202067D01*
X0716963Y0202404D01*
X0717277Y0202533D01*
X0718112Y0203368D01*
X0718564Y0204460D01*
X0718564Y0205640D01*
X0718112Y0206732D01*
X0717277Y0207567D01*
X0716186Y0208018D01*
X0715005Y0208018D01*
X0713914Y0207567D01*
X0713079Y0206732D01*
X0713110Y0206763D02*
X0636580Y0206763D01*
X0636924Y0205977D02*
X0712766Y0205977D01*
X0712627Y0205191D02*
X0637064Y0205191D01*
X0637041Y0204405D02*
X0658732Y0204405D01*
X0659005Y0204518D02*
X0657914Y0204067D01*
X0657079Y0203232D01*
X0656627Y0202140D01*
X0656627Y0200960D01*
X0657079Y0199868D01*
X0657914Y0199033D01*
X0659005Y0198581D01*
X0660186Y0198581D01*
X0661277Y0199033D01*
X0662112Y0199868D01*
X0662564Y0200960D01*
X0662564Y0202140D01*
X0662112Y0203232D01*
X0661277Y0204067D01*
X0660186Y0204518D01*
X0659005Y0204518D01*
X0660459Y0204405D02*
X0712649Y0204405D01*
X0712975Y0203620D02*
X0661724Y0203620D01*
X0662277Y0202834D02*
X0713613Y0202834D01*
X0714395Y0202048D02*
X0662564Y0202048D01*
X0662564Y0201262D02*
X0713609Y0201262D01*
X0713266Y0200476D02*
X0662363Y0200476D01*
X0661933Y0199690D02*
X0713127Y0199690D01*
X0713150Y0198904D02*
X0711439Y0198904D01*
X0712159Y0198118D02*
X0713475Y0198118D01*
X0714115Y0197332D02*
X0712484Y0197332D01*
X0707751Y0198904D02*
X0660964Y0198904D01*
X0658226Y0198904D02*
X0596964Y0198904D01*
X0597933Y0199690D02*
X0657257Y0199690D01*
X0656827Y0200476D02*
X0598363Y0200476D01*
X0598564Y0201262D02*
X0656627Y0201262D01*
X0656627Y0202048D02*
X0598564Y0202048D01*
X0598277Y0202834D02*
X0632113Y0202834D01*
X0631475Y0203620D02*
X0597724Y0203620D01*
X0596459Y0204405D02*
X0631149Y0204405D01*
X0636077Y0202834D02*
X0656914Y0202834D01*
X0657467Y0203620D02*
X0636716Y0203620D01*
X0635794Y0207549D02*
X0713896Y0207549D01*
X0717294Y0207549D02*
X0787604Y0207549D01*
X0788460Y0204405D02*
X0724459Y0204405D01*
X0724186Y0204518D02*
X0723005Y0204518D01*
X0721914Y0204067D01*
X0721079Y0203232D01*
X0720627Y0202140D01*
X0720627Y0200960D01*
X0721079Y0199868D01*
X0721914Y0199033D01*
X0723005Y0198581D01*
X0724186Y0198581D01*
X0725277Y0199033D01*
X0726112Y0199868D01*
X0726564Y0200960D01*
X0726564Y0202140D01*
X0726112Y0203232D01*
X0725277Y0204067D01*
X0724186Y0204518D01*
X0722732Y0204405D02*
X0718541Y0204405D01*
X0718564Y0205191D02*
X0795414Y0205191D01*
X0795414Y0205977D02*
X0718424Y0205977D01*
X0718080Y0206763D02*
X0795448Y0206763D01*
X0795773Y0207549D02*
X0791586Y0207549D01*
X0792593Y0208335D02*
X0796167Y0208335D01*
X0796953Y0209121D02*
X0793239Y0209121D01*
X0800727Y0209907D02*
X0839201Y0209907D01*
X0839201Y0209121D02*
X0802237Y0209121D01*
X0803023Y0208335D02*
X0839201Y0208335D01*
X0839201Y0207549D02*
X0803417Y0207549D01*
X0803742Y0206763D02*
X0839201Y0206763D01*
X0839201Y0205977D02*
X0803776Y0205977D01*
X0803776Y0205191D02*
X0839201Y0205191D01*
X0839201Y0204405D02*
X0803522Y0204405D01*
X0803197Y0203620D02*
X0839201Y0203620D01*
X0839201Y0202834D02*
X0802492Y0202834D01*
X0801341Y0202048D02*
X0839201Y0202048D01*
X0839201Y0201262D02*
X0793743Y0201262D01*
X0793776Y0200476D02*
X0839201Y0200476D01*
X0839201Y0199690D02*
X0793776Y0199690D01*
X0793522Y0198904D02*
X0798215Y0198904D01*
X0796850Y0198118D02*
X0793196Y0198118D01*
X0792490Y0197332D02*
X0796064Y0197332D01*
X0795731Y0196546D02*
X0791338Y0196546D01*
X0791220Y0193403D02*
X0795710Y0193403D01*
X0795414Y0194189D02*
X0763655Y0194189D01*
X0760484Y0197332D02*
X0786700Y0197332D01*
X0785994Y0198118D02*
X0760159Y0198118D01*
X0759439Y0198904D02*
X0785668Y0198904D01*
X0785414Y0199690D02*
X0725933Y0199690D01*
X0726363Y0200476D02*
X0785414Y0200476D01*
X0785447Y0201262D02*
X0726564Y0201262D01*
X0726564Y0202048D02*
X0785773Y0202048D01*
X0786166Y0202834D02*
X0726277Y0202834D01*
X0725724Y0203620D02*
X0786952Y0203620D01*
X0790730Y0204405D02*
X0795668Y0204405D01*
X0795993Y0203620D02*
X0792239Y0203620D01*
X0793024Y0202834D02*
X0796699Y0202834D01*
X0797849Y0202048D02*
X0793418Y0202048D01*
X0800975Y0198904D02*
X0839201Y0198904D01*
X0839201Y0198118D02*
X0802340Y0198118D01*
X0803126Y0197332D02*
X0839201Y0197332D01*
X0839201Y0196546D02*
X0803460Y0196546D01*
X0803776Y0195760D02*
X0839201Y0195760D01*
X0839201Y0194974D02*
X0803776Y0194974D01*
X0803776Y0194189D02*
X0839201Y0194189D01*
X0839201Y0193403D02*
X0803480Y0193403D01*
X0803154Y0192617D02*
X0839201Y0192617D01*
X0839201Y0191831D02*
X0802389Y0191831D01*
X0801093Y0191045D02*
X0839201Y0191045D01*
X0839201Y0190259D02*
X0793776Y0190259D01*
X0793776Y0189473D02*
X0839201Y0189473D01*
X0839201Y0188687D02*
X0793763Y0188687D01*
X0793438Y0187901D02*
X0797967Y0187901D01*
X0797227Y0187595D02*
X0796051Y0186418D01*
X0795414Y0184882D01*
X0795414Y0183218D01*
X0796051Y0181682D01*
X0797227Y0180505D01*
X0798763Y0179869D01*
X0800427Y0179869D01*
X0801964Y0180505D01*
X0803140Y0181682D01*
X0803776Y0183218D01*
X0803776Y0184882D01*
X0803140Y0186418D01*
X0801964Y0187595D01*
X0800427Y0188231D01*
X0798763Y0188231D01*
X0797227Y0187595D01*
X0796748Y0187115D02*
X0793073Y0187115D01*
X0792288Y0186329D02*
X0796014Y0186329D01*
X0795688Y0185544D02*
X0790848Y0185544D01*
X0788342Y0185544D02*
X0727064Y0185544D01*
X0727064Y0184960D02*
X0726612Y0183868D01*
X0725777Y0183033D01*
X0724686Y0182581D01*
X0723505Y0182581D01*
X0722414Y0183033D01*
X0721579Y0183868D01*
X0721127Y0184960D01*
X0721127Y0186140D01*
X0721579Y0187232D01*
X0722414Y0188067D01*
X0723505Y0188518D01*
X0724686Y0188518D01*
X0725777Y0188067D01*
X0726612Y0187232D01*
X0727064Y0186140D01*
X0727064Y0184960D01*
X0726980Y0184758D02*
X0795414Y0184758D01*
X0795414Y0183972D02*
X0726654Y0183972D01*
X0725929Y0183186D02*
X0795428Y0183186D01*
X0795753Y0182400D02*
X0791468Y0182400D01*
X0792544Y0181614D02*
X0796118Y0181614D01*
X0796904Y0180828D02*
X0793219Y0180828D01*
X0793544Y0180042D02*
X0798345Y0180042D01*
X0800845Y0180042D02*
X0839201Y0180042D01*
X0839201Y0179256D02*
X0793776Y0179256D01*
X0793776Y0178470D02*
X0839201Y0178470D01*
X0839201Y0180828D02*
X0802286Y0180828D01*
X0803072Y0181614D02*
X0839201Y0181614D01*
X0839201Y0182400D02*
X0803437Y0182400D01*
X0803763Y0183186D02*
X0839201Y0183186D01*
X0839201Y0183972D02*
X0803776Y0183972D01*
X0803776Y0184758D02*
X0839201Y0184758D01*
X0839201Y0185544D02*
X0803502Y0185544D01*
X0803177Y0186329D02*
X0839201Y0186329D01*
X0839201Y0187115D02*
X0802443Y0187115D01*
X0801223Y0187901D02*
X0839201Y0187901D01*
X0798097Y0191045D02*
X0793502Y0191045D01*
X0793176Y0191831D02*
X0796801Y0191831D01*
X0796036Y0192617D02*
X0792441Y0192617D01*
X0785752Y0187901D02*
X0725942Y0187901D01*
X0726660Y0187115D02*
X0786117Y0187115D01*
X0786903Y0186329D02*
X0726985Y0186329D01*
X0722248Y0187901D02*
X0661942Y0187901D01*
X0661777Y0188067D02*
X0660686Y0188518D01*
X0659505Y0188518D01*
X0658414Y0188067D01*
X0657579Y0187232D01*
X0657127Y0186140D01*
X0657127Y0184960D01*
X0657579Y0183868D01*
X0658414Y0183033D01*
X0659505Y0182581D01*
X0660686Y0182581D01*
X0661777Y0183033D01*
X0662612Y0183868D01*
X0663064Y0184960D01*
X0663064Y0186140D01*
X0662612Y0187232D01*
X0661777Y0188067D01*
X0662660Y0187115D02*
X0721530Y0187115D01*
X0721205Y0186329D02*
X0662985Y0186329D01*
X0663064Y0185544D02*
X0721127Y0185544D01*
X0721210Y0184758D02*
X0662980Y0184758D01*
X0662654Y0183972D02*
X0721536Y0183972D01*
X0722261Y0183186D02*
X0661929Y0183186D01*
X0658261Y0183186D02*
X0597929Y0183186D01*
X0598654Y0183972D02*
X0657536Y0183972D01*
X0657210Y0184758D02*
X0598980Y0184758D01*
X0599064Y0185544D02*
X0657127Y0185544D01*
X0657205Y0186329D02*
X0598985Y0186329D01*
X0598660Y0187115D02*
X0657530Y0187115D01*
X0658248Y0187901D02*
X0597942Y0187901D01*
X0560595Y0189473D02*
X0760059Y0189473D01*
X0755758Y0194189D02*
X0745744Y0194189D01*
X0746064Y0194974D02*
X0755035Y0194974D01*
X0754709Y0195760D02*
X0746064Y0195760D01*
X0745896Y0196546D02*
X0754627Y0196546D01*
X0754706Y0197332D02*
X0745511Y0197332D01*
X0744652Y0198118D02*
X0755032Y0198118D01*
X0755751Y0198904D02*
X0724964Y0198904D01*
X0722226Y0198904D02*
X0719041Y0198904D01*
X0719064Y0199690D02*
X0721257Y0199690D01*
X0720827Y0200476D02*
X0718925Y0200476D01*
X0718581Y0201262D02*
X0720627Y0201262D01*
X0720627Y0202048D02*
X0717796Y0202048D01*
X0717577Y0202834D02*
X0720914Y0202834D01*
X0721467Y0203620D02*
X0718216Y0203620D01*
X0718715Y0198118D02*
X0741538Y0198118D01*
X0740679Y0197332D02*
X0718075Y0197332D01*
X0718188Y0161180D02*
X0716502Y0161180D01*
X0721002Y0161180D02*
X0722688Y0161180D01*
X0725502Y0161180D02*
X0727188Y0161180D01*
X0730002Y0161180D02*
X0731688Y0161180D01*
X0730982Y0156465D02*
X0730708Y0156465D01*
X0729421Y0155679D02*
X0732270Y0155679D01*
X0733921Y0155679D02*
X0768557Y0155679D01*
X0769312Y0156465D02*
X0735208Y0156465D01*
X0727770Y0155679D02*
X0724921Y0155679D01*
X0726208Y0156465D02*
X0726482Y0156465D01*
X0723270Y0155679D02*
X0720421Y0155679D01*
X0721708Y0156465D02*
X0721982Y0156465D01*
X0718770Y0155679D02*
X0715921Y0155679D01*
X0717208Y0156465D02*
X0717482Y0156465D01*
X0772878Y0156465D02*
X0774312Y0156465D01*
X0772852Y0159608D02*
X0786341Y0159608D01*
X0787126Y0160394D02*
X0773622Y0160394D01*
X0731020Y0133673D02*
X0730670Y0133673D01*
X0726520Y0133673D02*
X0726170Y0133673D01*
X0722020Y0133673D02*
X0721670Y0133673D01*
X0717520Y0133673D02*
X0717170Y0133673D01*
X0667020Y0133673D02*
X0666670Y0133673D01*
X0662520Y0133673D02*
X0662170Y0133673D01*
X0658020Y0133673D02*
X0657670Y0133673D01*
X0653520Y0133673D02*
X0653170Y0133673D01*
X0653387Y0123456D02*
X0656803Y0123456D01*
X0656346Y0122670D02*
X0654137Y0122670D01*
X0654463Y0121885D02*
X0656127Y0121885D01*
X0656127Y0121099D02*
X0654564Y0121099D01*
X0654503Y0120313D02*
X0656395Y0120313D01*
X0656920Y0119527D02*
X0654177Y0119527D01*
X0653484Y0118741D02*
X0658120Y0118741D01*
X0655802Y0117955D02*
X0653888Y0117955D01*
X0654345Y0117169D02*
X0655053Y0117169D01*
X0654727Y0116383D02*
X0654564Y0116383D01*
X0654564Y0115597D02*
X0654627Y0115597D01*
X0654688Y0114811D02*
X0654295Y0114811D01*
X0653769Y0114025D02*
X0655014Y0114025D01*
X0655708Y0113240D02*
X0652567Y0113240D01*
X0603596Y0128958D02*
X0602094Y0128958D01*
X0599096Y0128958D02*
X0597594Y0128958D01*
X0594596Y0128958D02*
X0593094Y0128958D01*
X0590096Y0128958D02*
X0588594Y0128958D01*
X0577867Y0092020D02*
X0560595Y0092020D01*
X0560595Y0091234D02*
X0577372Y0091234D01*
X0577127Y0090448D02*
X0560595Y0090448D01*
X0560595Y0089662D02*
X0577127Y0089662D01*
X0577368Y0088876D02*
X0560595Y0088876D01*
X0560595Y0088090D02*
X0577857Y0088090D01*
X0594206Y0081803D02*
X0655984Y0081803D01*
X0654864Y0081017D02*
X0653326Y0081017D01*
X0654112Y0080231D02*
X0654371Y0080231D01*
X0654202Y0077088D02*
X0654859Y0077088D01*
X0655973Y0076302D02*
X0653545Y0076302D01*
X0649363Y0075516D02*
X0600828Y0075516D01*
X0601612Y0074730D02*
X0648871Y0074730D01*
X0648627Y0073944D02*
X0601938Y0073944D01*
X0602064Y0073158D02*
X0648627Y0073158D01*
X0648870Y0072372D02*
X0602027Y0072372D01*
X0601702Y0071586D02*
X0649361Y0071586D01*
X0650477Y0070800D02*
X0601043Y0070800D01*
X0595821Y0077873D02*
X0648662Y0077873D01*
X0648627Y0078659D02*
X0596064Y0078659D01*
X0596064Y0079445D02*
X0648753Y0079445D01*
X0649078Y0080231D02*
X0595819Y0080231D01*
X0595326Y0081017D02*
X0649864Y0081017D01*
X0530363Y0045651D02*
X0524827Y0045651D01*
X0525693Y0044865D02*
X0529497Y0044865D01*
X0528910Y0044079D02*
X0526280Y0044079D01*
X0526606Y0043293D02*
X0528585Y0043293D01*
X0528414Y0042507D02*
X0526776Y0042507D01*
X0526776Y0041721D02*
X0528414Y0041721D01*
X0528531Y0040936D02*
X0526659Y0040936D01*
X0526334Y0040150D02*
X0528857Y0040150D01*
X0529368Y0039364D02*
X0525822Y0039364D01*
X0525036Y0038578D02*
X0530154Y0038578D01*
X0457095Y0071550D02*
X0436595Y0071550D01*
X0165095Y0071550D01*
X0157595Y0071550D01*
X0141395Y0087750D01*
X0126095Y0087750D01*
X0126095Y0076950D02*
X0139195Y0076950D01*
X0140195Y0076950D01*
X0149595Y0067550D01*
X0164595Y0067550D01*
X0376095Y0067550D01*
X0402095Y0067550D01*
X0406095Y0067550D01*
X0402095Y0067550D01*
X0352095Y0063550D02*
X0323095Y0063550D01*
X0149095Y0063550D01*
X0143095Y0063550D01*
X0140595Y0066050D01*
X0126095Y0066050D01*
X0138195Y0055150D02*
X0143095Y0060050D01*
X0297395Y0060050D01*
X0297495Y0060150D01*
X0298595Y0087550D02*
X0285095Y0101050D01*
X0168595Y0101050D01*
X0146595Y0123050D01*
X0138395Y0131250D01*
X0126095Y0131250D01*
X0141095Y0131550D02*
X0148595Y0124050D01*
X0169595Y0103050D01*
X0333095Y0103050D01*
X0348595Y0087550D01*
X0381095Y0105050D02*
X0192595Y0105050D01*
X0170595Y0105050D01*
X0158095Y0117550D01*
X0150595Y0125050D01*
X0143095Y0132550D01*
X0143095Y0134550D01*
X0143095Y0148450D01*
X0139295Y0152250D01*
X0138595Y0152950D01*
X0126095Y0152950D01*
X0139295Y0152250D02*
X0141095Y0150450D01*
X0143095Y0152050D02*
X0145095Y0150050D01*
X0145095Y0134550D01*
X0145095Y0133050D01*
X0152595Y0125550D01*
X0158595Y0119550D01*
X0171095Y0107050D01*
X0193095Y0107050D01*
X0429095Y0107050D01*
X0448595Y0087550D01*
X0477095Y0109050D02*
X0498595Y0087550D01*
X0509095Y0075550D02*
X0184095Y0075550D01*
X0165095Y0075550D01*
X0141995Y0098650D01*
X0126095Y0098650D01*
X0126095Y0109550D02*
X0146595Y0109550D01*
X0168595Y0087550D01*
X0198595Y0087550D01*
X0167595Y0099050D02*
X0146295Y0120350D01*
X0126095Y0120350D01*
X0141095Y0131550D02*
X0141095Y0137550D01*
X0141095Y0138550D01*
X0137495Y0142150D01*
X0126095Y0142150D01*
X0147095Y0134550D02*
X0147095Y0151050D01*
X0145095Y0153050D01*
X0143095Y0155050D01*
X0143095Y0164050D01*
X0141095Y0162350D02*
X0139595Y0163850D01*
X0126095Y0163850D01*
X0141095Y0162350D02*
X0141095Y0154050D01*
X0143095Y0152050D01*
X0160595Y0156050D02*
X0160595Y0156550D01*
X0160595Y0182550D01*
X0150595Y0174050D02*
X0150595Y0195550D01*
X0155095Y0200050D01*
X0162595Y0200050D01*
X0160595Y0200050D01*
X0162595Y0200050D02*
X0274095Y0200050D01*
X0286095Y0200050D01*
X0298595Y0187550D01*
X0323595Y0202050D02*
X0334095Y0202050D01*
X0348595Y0187550D01*
X0323595Y0202050D02*
X0158595Y0202050D01*
X0153595Y0202050D01*
X0147095Y0195550D01*
X0147095Y0183050D01*
X0145095Y0180650D02*
X0143145Y0182600D01*
X0141095Y0184650D02*
X0140645Y0185100D01*
X0140095Y0185650D01*
X0126095Y0185650D01*
X0136095Y0191050D02*
X0151095Y0206050D01*
X0152095Y0206050D01*
X0156095Y0206050D01*
X0344095Y0206050D01*
X0415095Y0206050D01*
X0430095Y0206050D01*
X0448595Y0187550D01*
X0474595Y0208050D02*
X0478095Y0208050D01*
X0498595Y0187550D01*
X0474595Y0208050D02*
X0144595Y0208050D01*
X0138595Y0202050D01*
X0136195Y0202050D01*
X0136095Y0201950D01*
X0138795Y0210050D02*
X0144595Y0210050D01*
X0155095Y0210050D01*
X0153095Y0210050D01*
X0155095Y0210050D02*
X0436595Y0210050D01*
X0509095Y0210050D01*
X0526095Y0210050D01*
X0548595Y0187550D01*
X0398595Y0187550D02*
X0382095Y0204050D01*
X0378595Y0204050D01*
X0152595Y0204050D01*
X0143595Y0195050D01*
X0143595Y0191050D01*
X0156595Y0198050D02*
X0234095Y0198050D01*
X0238095Y0198050D01*
X0248595Y0187550D01*
X0179095Y0137550D02*
X0160595Y0156050D01*
X0179095Y0137550D02*
X0198595Y0137550D01*
X0172095Y0109050D02*
X0159595Y0121550D01*
X0154595Y0126550D01*
X0147095Y0134050D01*
X0147095Y0134550D01*
X0172095Y0109050D02*
X0193595Y0109050D01*
X0477095Y0109050D01*
X0398595Y0087550D02*
X0381095Y0105050D01*
X0248595Y0087550D02*
X0237095Y0099050D01*
X0167595Y0099050D01*
X0165095Y0071550D02*
X0162595Y0071550D01*
X0157595Y0071550D01*
X0153595Y0067550D02*
X0149595Y0067550D01*
X0153595Y0067550D02*
X0164595Y0067550D01*
X0138195Y0055150D02*
X0126095Y0055150D01*
X0138795Y0210050D02*
X0136095Y0212750D01*
X0560595Y0284569D02*
X0706627Y0284569D01*
X0706715Y0285354D02*
X0560595Y0285354D01*
X0560595Y0286140D02*
X0707041Y0286140D01*
X0707773Y0286926D02*
X0560595Y0286926D01*
X0560595Y0287712D02*
X0839201Y0287712D01*
X0839201Y0288498D02*
X0560595Y0288498D01*
X0588589Y0252346D02*
X0589101Y0252346D01*
X0593089Y0252346D02*
X0593601Y0252346D01*
X0597589Y0252346D02*
X0598101Y0252346D01*
X0602089Y0252346D02*
X0602601Y0252346D01*
X0652589Y0252346D02*
X0653101Y0252346D01*
X0657089Y0252346D02*
X0657601Y0252346D01*
X0661589Y0252346D02*
X0662101Y0252346D01*
X0666089Y0252346D02*
X0666601Y0252346D01*
M02*
