G75*
%MOIN*%
%OFA0B0*%
%FSLAX25Y25*%
%IPPOS*%
%LPD*%
%AMOC8*
5,1,8,0,0,1.08239X$1,22.5*
%
%ADD10C,0.00700*%
%ADD11C,0.00900*%
%ADD12C,0.00400*%
%ADD13C,0.00800*%
%ADD14C,0.01575*%
%ADD15R,0.01181X0.03839*%
%ADD16C,0.00600*%
%ADD17R,0.05709X0.02953*%
%ADD18C,0.00300*%
%ADD19R,0.05512X0.02559*%
%ADD20R,0.01181X0.02362*%
%ADD21R,0.02362X0.01181*%
%ADD22C,0.00500*%
%ADD23C,0.01000*%
%ADD24C,0.00787*%
%ADD25R,0.03346X0.02953*%
%ADD26R,0.05315X0.03543*%
D10*
X0150145Y0082705D02*
X0150145Y0085974D01*
X0150145Y0084340D02*
X0155049Y0084340D01*
X0153415Y0082705D01*
X0154232Y0093705D02*
X0155049Y0094522D01*
X0155049Y0096157D01*
X0154232Y0096974D01*
X0153415Y0096974D01*
X0150145Y0093705D01*
X0150145Y0096974D01*
X0150963Y0104705D02*
X0150145Y0105522D01*
X0150145Y0107157D01*
X0150963Y0107974D01*
X0151780Y0107974D01*
X0152597Y0107157D01*
X0152597Y0106340D01*
X0152597Y0107157D02*
X0153415Y0107974D01*
X0154232Y0107974D01*
X0155049Y0107157D01*
X0155049Y0105522D01*
X0154232Y0104705D01*
X0152597Y0115705D02*
X0152597Y0118974D01*
X0150145Y0118157D02*
X0155049Y0118157D01*
X0152597Y0115705D01*
X0152597Y0126205D02*
X0153415Y0127840D01*
X0153415Y0128657D01*
X0152597Y0129474D01*
X0150963Y0129474D01*
X0150145Y0128657D01*
X0150145Y0127022D01*
X0150963Y0126205D01*
X0152597Y0126205D02*
X0155049Y0126205D01*
X0155049Y0129474D01*
X0152597Y0137205D02*
X0152597Y0139657D01*
X0151780Y0140474D01*
X0150963Y0140474D01*
X0150145Y0139657D01*
X0150145Y0138022D01*
X0150963Y0137205D01*
X0152597Y0137205D01*
X0154232Y0138840D01*
X0155049Y0140474D01*
X0155549Y0147705D02*
X0155549Y0150974D01*
X0154732Y0150974D01*
X0151463Y0147705D01*
X0150645Y0147705D01*
X0128402Y0145570D02*
X0127584Y0146387D01*
X0125949Y0146387D01*
X0125132Y0145570D01*
X0125132Y0144753D01*
X0128402Y0141483D01*
X0125132Y0141483D01*
X0123245Y0142300D02*
X0122428Y0141483D01*
X0120793Y0141483D01*
X0119976Y0142300D01*
X0119976Y0143935D01*
X0120793Y0144753D01*
X0121610Y0144753D01*
X0123245Y0143935D01*
X0123245Y0146387D01*
X0119976Y0146387D01*
X0120793Y0152483D02*
X0119976Y0153300D01*
X0119976Y0154118D01*
X0120793Y0154935D01*
X0123245Y0154935D01*
X0123245Y0153300D01*
X0122428Y0152483D01*
X0120793Y0152483D01*
X0123245Y0154935D02*
X0121610Y0156570D01*
X0119976Y0157387D01*
X0125132Y0156570D02*
X0125949Y0157387D01*
X0127584Y0157387D01*
X0128402Y0156570D01*
X0125132Y0156570D02*
X0125132Y0155753D01*
X0128402Y0152483D01*
X0125132Y0152483D01*
X0150145Y0159522D02*
X0150963Y0158705D01*
X0151780Y0158705D01*
X0152597Y0159522D01*
X0152597Y0161157D01*
X0151780Y0161974D01*
X0150963Y0161974D01*
X0150145Y0161157D01*
X0150145Y0159522D01*
X0152597Y0159522D02*
X0153415Y0158705D01*
X0154232Y0158705D01*
X0155049Y0159522D01*
X0155049Y0161157D01*
X0154232Y0161974D01*
X0153415Y0161974D01*
X0152597Y0161157D01*
X0153415Y0169705D02*
X0152597Y0170522D01*
X0152597Y0172974D01*
X0150963Y0172974D02*
X0154232Y0172974D01*
X0155049Y0172157D01*
X0155049Y0170522D01*
X0154232Y0169705D01*
X0153415Y0169705D01*
X0150963Y0169705D02*
X0150145Y0170522D01*
X0150145Y0172157D01*
X0150963Y0172974D01*
X0151293Y0179983D02*
X0150476Y0180800D01*
X0150476Y0184070D01*
X0153745Y0180800D01*
X0152928Y0179983D01*
X0151293Y0179983D01*
X0153745Y0180800D02*
X0153745Y0184070D01*
X0152928Y0184887D01*
X0151293Y0184887D01*
X0150476Y0184070D01*
X0155632Y0179983D02*
X0158902Y0179983D01*
X0157267Y0179983D02*
X0157267Y0184887D01*
X0158902Y0183253D01*
X0158902Y0190983D02*
X0155632Y0190983D01*
X0157267Y0190983D02*
X0157267Y0195887D01*
X0158902Y0194253D01*
X0153745Y0194253D02*
X0152110Y0195887D01*
X0152110Y0190983D01*
X0150476Y0190983D02*
X0153745Y0190983D01*
X0153745Y0201483D02*
X0150476Y0201483D01*
X0153745Y0201483D02*
X0150476Y0204753D01*
X0150476Y0205570D01*
X0151293Y0206387D01*
X0152928Y0206387D01*
X0153745Y0205570D01*
X0157267Y0206387D02*
X0158902Y0204753D01*
X0157267Y0206387D02*
X0157267Y0201483D01*
X0158902Y0201483D02*
X0155632Y0201483D01*
X0155632Y0210983D02*
X0158902Y0210983D01*
X0157267Y0210983D02*
X0157267Y0215887D01*
X0158902Y0214253D01*
X0153745Y0215070D02*
X0152928Y0215887D01*
X0151293Y0215887D01*
X0150476Y0215070D01*
X0150476Y0214253D01*
X0151293Y0213435D01*
X0150476Y0212618D01*
X0150476Y0211800D01*
X0151293Y0210983D01*
X0152928Y0210983D01*
X0153745Y0211800D01*
X0152110Y0213435D02*
X0151293Y0213435D01*
X0156293Y0222983D02*
X0156293Y0227887D01*
X0158745Y0225435D01*
X0155476Y0225435D01*
X0160632Y0222983D02*
X0163902Y0222983D01*
X0162267Y0222983D02*
X0162267Y0227887D01*
X0163902Y0226253D01*
X0158902Y0233983D02*
X0155632Y0233983D01*
X0157267Y0233983D02*
X0157267Y0238887D01*
X0158902Y0237253D01*
X0153745Y0236435D02*
X0152110Y0237253D01*
X0151293Y0237253D01*
X0150476Y0236435D01*
X0150476Y0234800D01*
X0151293Y0233983D01*
X0152928Y0233983D01*
X0153745Y0234800D01*
X0153745Y0236435D02*
X0153745Y0238887D01*
X0150476Y0238887D01*
X0151293Y0244983D02*
X0150476Y0245800D01*
X0150476Y0246618D01*
X0151293Y0247435D01*
X0153745Y0247435D01*
X0153745Y0245800D01*
X0152928Y0244983D01*
X0151293Y0244983D01*
X0153745Y0247435D02*
X0152110Y0249070D01*
X0150476Y0249887D01*
X0153745Y0255483D02*
X0153745Y0256300D01*
X0150476Y0259570D01*
X0150476Y0260387D01*
X0153745Y0260387D01*
X0157267Y0260387D02*
X0157267Y0255483D01*
X0158902Y0255483D02*
X0155632Y0255483D01*
X0158902Y0258753D02*
X0157267Y0260387D01*
X0157267Y0266483D02*
X0157267Y0271387D01*
X0158902Y0269753D01*
X0158902Y0266483D02*
X0155632Y0266483D01*
X0153745Y0267300D02*
X0153745Y0268118D01*
X0152928Y0268935D01*
X0151293Y0268935D01*
X0150476Y0268118D01*
X0150476Y0267300D01*
X0151293Y0266483D01*
X0152928Y0266483D01*
X0153745Y0267300D01*
X0152928Y0268935D02*
X0153745Y0269753D01*
X0153745Y0270570D01*
X0152928Y0271387D01*
X0151293Y0271387D01*
X0150476Y0270570D01*
X0150476Y0269753D01*
X0151293Y0268935D01*
X0151293Y0277983D02*
X0150476Y0278800D01*
X0150476Y0282070D01*
X0151293Y0282887D01*
X0152928Y0282887D01*
X0153745Y0282070D01*
X0153745Y0281253D01*
X0152928Y0280435D01*
X0150476Y0280435D01*
X0151293Y0277983D02*
X0152928Y0277983D01*
X0153745Y0278800D01*
X0155632Y0277983D02*
X0158902Y0277983D01*
X0157267Y0277983D02*
X0157267Y0282887D01*
X0158902Y0281253D01*
X0128902Y0275570D02*
X0128084Y0276387D01*
X0126449Y0276387D01*
X0125632Y0275570D01*
X0125632Y0274753D01*
X0126449Y0273935D01*
X0125632Y0273118D01*
X0125632Y0272300D01*
X0126449Y0271483D01*
X0128084Y0271483D01*
X0128902Y0272300D01*
X0127267Y0273935D02*
X0126449Y0273935D01*
X0123745Y0272300D02*
X0120476Y0275570D01*
X0120476Y0276387D01*
X0123745Y0276387D01*
X0123745Y0272300D02*
X0123745Y0271483D01*
X0126449Y0266887D02*
X0125632Y0266070D01*
X0125632Y0265253D01*
X0126449Y0264435D01*
X0125632Y0263618D01*
X0125632Y0262800D01*
X0126449Y0261983D01*
X0128084Y0261983D01*
X0128902Y0262800D01*
X0127267Y0264435D02*
X0126449Y0264435D01*
X0126449Y0266887D02*
X0128084Y0266887D01*
X0128902Y0266070D01*
X0123745Y0264435D02*
X0123745Y0262800D01*
X0122928Y0261983D01*
X0121293Y0261983D01*
X0120476Y0262800D01*
X0120476Y0263618D01*
X0121293Y0264435D01*
X0123745Y0264435D01*
X0122110Y0266070D01*
X0120476Y0266887D01*
X0120476Y0254887D02*
X0123745Y0254887D01*
X0123745Y0252435D01*
X0122110Y0253253D01*
X0121293Y0253253D01*
X0120476Y0252435D01*
X0120476Y0250800D01*
X0121293Y0249983D01*
X0122928Y0249983D01*
X0123745Y0250800D01*
X0125632Y0250800D02*
X0126449Y0249983D01*
X0128084Y0249983D01*
X0128902Y0250800D01*
X0127267Y0252435D02*
X0126449Y0252435D01*
X0125632Y0251618D01*
X0125632Y0250800D01*
X0126449Y0252435D02*
X0125632Y0253253D01*
X0125632Y0254070D01*
X0126449Y0254887D01*
X0128084Y0254887D01*
X0128902Y0254070D01*
X0128084Y0243887D02*
X0126449Y0243887D01*
X0125632Y0243070D01*
X0125632Y0242253D01*
X0126449Y0241435D01*
X0125632Y0240618D01*
X0125632Y0239800D01*
X0126449Y0238983D01*
X0128084Y0238983D01*
X0128902Y0239800D01*
X0127267Y0241435D02*
X0126449Y0241435D01*
X0123745Y0241435D02*
X0120476Y0241435D01*
X0121293Y0238983D02*
X0121293Y0243887D01*
X0123745Y0241435D01*
X0128084Y0243887D02*
X0128902Y0243070D01*
X0128084Y0233387D02*
X0126449Y0233387D01*
X0125632Y0232570D01*
X0125632Y0231753D01*
X0126449Y0230935D01*
X0125632Y0230118D01*
X0125632Y0229300D01*
X0126449Y0228483D01*
X0128084Y0228483D01*
X0128902Y0229300D01*
X0127267Y0230935D02*
X0126449Y0230935D01*
X0128902Y0232570D02*
X0128084Y0233387D01*
X0123745Y0232570D02*
X0122928Y0233387D01*
X0121293Y0233387D01*
X0120476Y0232570D01*
X0120476Y0231753D01*
X0121293Y0230935D01*
X0120476Y0230118D01*
X0120476Y0229300D01*
X0121293Y0228483D01*
X0122928Y0228483D01*
X0123745Y0229300D01*
X0122110Y0230935D02*
X0121293Y0230935D01*
X0155632Y0244983D02*
X0158902Y0244983D01*
X0157267Y0244983D02*
X0157267Y0249887D01*
X0158902Y0248253D01*
X0128084Y0212387D02*
X0126449Y0212387D01*
X0125632Y0211570D01*
X0125632Y0210753D01*
X0126449Y0209935D01*
X0125632Y0209118D01*
X0125632Y0208300D01*
X0126449Y0207483D01*
X0128084Y0207483D01*
X0128902Y0208300D01*
X0127267Y0209935D02*
X0126449Y0209935D01*
X0123745Y0210753D02*
X0122110Y0212387D01*
X0122110Y0207483D01*
X0120476Y0207483D02*
X0123745Y0207483D01*
X0128084Y0212387D02*
X0128902Y0211570D01*
X0128084Y0200887D02*
X0126449Y0200887D01*
X0125632Y0200070D01*
X0125632Y0199253D01*
X0126449Y0198435D01*
X0125632Y0197618D01*
X0125632Y0196800D01*
X0126449Y0195983D01*
X0128084Y0195983D01*
X0128902Y0196800D01*
X0127267Y0198435D02*
X0126449Y0198435D01*
X0128902Y0200070D02*
X0128084Y0200887D01*
X0123745Y0200070D02*
X0123745Y0196800D01*
X0120476Y0200070D01*
X0120476Y0196800D01*
X0121293Y0195983D01*
X0122928Y0195983D01*
X0123745Y0196800D01*
X0123745Y0200070D02*
X0122928Y0200887D01*
X0121293Y0200887D01*
X0120476Y0200070D01*
X0115049Y0192006D02*
X0115049Y0188736D01*
X0115049Y0190371D02*
X0110145Y0190371D01*
X0110145Y0186934D02*
X0110145Y0185299D01*
X0110145Y0186116D02*
X0115049Y0186116D01*
X0115049Y0185299D02*
X0115049Y0186934D01*
X0115049Y0183412D02*
X0115049Y0180142D01*
X0110145Y0180142D01*
X0110145Y0183412D01*
X0112597Y0181777D02*
X0112597Y0180142D01*
X0119976Y0178570D02*
X0119976Y0177753D01*
X0120793Y0176935D01*
X0122428Y0176935D01*
X0123245Y0177753D01*
X0123245Y0178570D01*
X0122428Y0179387D01*
X0120793Y0179387D01*
X0119976Y0178570D01*
X0120793Y0176935D02*
X0119976Y0176118D01*
X0119976Y0175300D01*
X0120793Y0174483D01*
X0122428Y0174483D01*
X0123245Y0175300D01*
X0123245Y0176118D01*
X0122428Y0176935D01*
X0125132Y0177753D02*
X0128402Y0174483D01*
X0125132Y0174483D01*
X0125132Y0177753D02*
X0125132Y0178570D01*
X0125949Y0179387D01*
X0127584Y0179387D01*
X0128402Y0178570D01*
X0128902Y0184983D02*
X0125632Y0188253D01*
X0125632Y0189070D01*
X0126449Y0189887D01*
X0128084Y0189887D01*
X0128902Y0189070D01*
X0128902Y0184983D02*
X0125632Y0184983D01*
X0123745Y0185800D02*
X0122928Y0184983D01*
X0121293Y0184983D01*
X0120476Y0185800D01*
X0120476Y0189070D01*
X0121293Y0189887D01*
X0122928Y0189887D01*
X0123745Y0189070D01*
X0123745Y0188253D01*
X0122928Y0187435D01*
X0120476Y0187435D01*
X0114232Y0173099D02*
X0115049Y0172282D01*
X0115049Y0170647D01*
X0114232Y0169830D01*
X0110962Y0169830D01*
X0110145Y0170647D01*
X0110145Y0172282D01*
X0110962Y0173099D01*
X0114232Y0173099D01*
X0115049Y0167943D02*
X0115049Y0164673D01*
X0115049Y0166308D02*
X0110145Y0166308D01*
X0119976Y0167070D02*
X0123245Y0163800D01*
X0123245Y0162983D01*
X0125132Y0162983D02*
X0128402Y0162983D01*
X0125132Y0166253D01*
X0125132Y0167070D01*
X0125949Y0167887D01*
X0127584Y0167887D01*
X0128402Y0167070D01*
X0123245Y0167887D02*
X0119976Y0167887D01*
X0119976Y0167070D01*
X0120793Y0135387D02*
X0123245Y0132935D01*
X0119976Y0132935D01*
X0120793Y0130483D02*
X0120793Y0135387D01*
X0125132Y0134570D02*
X0125949Y0135387D01*
X0127584Y0135387D01*
X0128402Y0134570D01*
X0125132Y0134570D02*
X0125132Y0133753D01*
X0128402Y0130483D01*
X0125132Y0130483D01*
X0125949Y0124387D02*
X0127584Y0124387D01*
X0128402Y0123570D01*
X0125949Y0124387D02*
X0125132Y0123570D01*
X0125132Y0122753D01*
X0128402Y0119483D01*
X0125132Y0119483D01*
X0123245Y0120300D02*
X0122428Y0119483D01*
X0120793Y0119483D01*
X0119976Y0120300D01*
X0119976Y0121118D01*
X0120793Y0121935D01*
X0121610Y0121935D01*
X0120793Y0121935D02*
X0119976Y0122753D01*
X0119976Y0123570D01*
X0120793Y0124387D01*
X0122428Y0124387D01*
X0123245Y0123570D01*
X0122428Y0113887D02*
X0123245Y0113070D01*
X0122428Y0113887D02*
X0120793Y0113887D01*
X0119976Y0113070D01*
X0119976Y0112253D01*
X0123245Y0108983D01*
X0119976Y0108983D01*
X0125132Y0108983D02*
X0128402Y0108983D01*
X0125132Y0112253D01*
X0125132Y0113070D01*
X0125949Y0113887D01*
X0127584Y0113887D01*
X0128402Y0113070D01*
X0127584Y0103387D02*
X0128402Y0102570D01*
X0127584Y0103387D02*
X0125949Y0103387D01*
X0125132Y0102570D01*
X0125132Y0101753D01*
X0128402Y0098483D01*
X0125132Y0098483D01*
X0123245Y0098483D02*
X0119976Y0098483D01*
X0121610Y0098483D02*
X0121610Y0103387D01*
X0123245Y0101753D01*
X0122428Y0091887D02*
X0120793Y0091887D01*
X0119976Y0091070D01*
X0123245Y0087800D01*
X0122428Y0086983D01*
X0120793Y0086983D01*
X0119976Y0087800D01*
X0119976Y0091070D01*
X0122428Y0091887D02*
X0123245Y0091070D01*
X0123245Y0087800D01*
X0125132Y0086983D02*
X0128402Y0086983D01*
X0125132Y0090253D01*
X0125132Y0091070D01*
X0125949Y0091887D01*
X0127584Y0091887D01*
X0128402Y0091070D01*
X0787645Y0091705D02*
X0790915Y0094974D01*
X0791732Y0094974D01*
X0792549Y0094157D01*
X0792549Y0092522D01*
X0791732Y0091705D01*
X0787645Y0091705D02*
X0787645Y0094974D01*
X0788462Y0102705D02*
X0787645Y0103522D01*
X0787645Y0105157D01*
X0788462Y0105974D01*
X0789280Y0105974D01*
X0790097Y0105157D01*
X0790097Y0104340D01*
X0790097Y0105157D02*
X0790915Y0105974D01*
X0791732Y0105974D01*
X0792549Y0105157D01*
X0792549Y0103522D01*
X0791732Y0102705D01*
X0813476Y0097983D02*
X0816745Y0097983D01*
X0815110Y0097983D02*
X0815110Y0102887D01*
X0816745Y0101253D01*
X0818632Y0101253D02*
X0818632Y0102070D01*
X0819449Y0102887D01*
X0821084Y0102887D01*
X0821902Y0102070D01*
X0818632Y0101253D02*
X0821902Y0097983D01*
X0818632Y0097983D01*
X0819449Y0091387D02*
X0821084Y0091387D01*
X0821902Y0090570D01*
X0819449Y0091387D02*
X0818632Y0090570D01*
X0818632Y0089753D01*
X0821902Y0086483D01*
X0818632Y0086483D01*
X0816745Y0087300D02*
X0813476Y0090570D01*
X0813476Y0087300D01*
X0814293Y0086483D01*
X0815928Y0086483D01*
X0816745Y0087300D01*
X0816745Y0090570D01*
X0815928Y0091387D01*
X0814293Y0091387D01*
X0813476Y0090570D01*
X0792549Y0082340D02*
X0787645Y0082340D01*
X0787645Y0083974D02*
X0787645Y0080705D01*
X0790915Y0080705D02*
X0792549Y0082340D01*
X0813476Y0108483D02*
X0816745Y0108483D01*
X0813476Y0111753D01*
X0813476Y0112570D01*
X0814293Y0113387D01*
X0815928Y0113387D01*
X0816745Y0112570D01*
X0818632Y0112570D02*
X0819449Y0113387D01*
X0821084Y0113387D01*
X0821902Y0112570D01*
X0818632Y0112570D02*
X0818632Y0111753D01*
X0821902Y0108483D01*
X0818632Y0108483D01*
X0818632Y0118983D02*
X0821902Y0118983D01*
X0818632Y0122253D01*
X0818632Y0123070D01*
X0819449Y0123887D01*
X0821084Y0123887D01*
X0821902Y0123070D01*
X0816745Y0123070D02*
X0815928Y0123887D01*
X0814293Y0123887D01*
X0813476Y0123070D01*
X0813476Y0122253D01*
X0814293Y0121435D01*
X0813476Y0120618D01*
X0813476Y0119800D01*
X0814293Y0118983D01*
X0815928Y0118983D01*
X0816745Y0119800D01*
X0815110Y0121435D02*
X0814293Y0121435D01*
X0792549Y0124205D02*
X0792549Y0127474D01*
X0790915Y0126657D02*
X0790097Y0127474D01*
X0788462Y0127474D01*
X0787645Y0126657D01*
X0787645Y0125022D01*
X0788462Y0124205D01*
X0790097Y0124205D02*
X0790915Y0125840D01*
X0790915Y0126657D01*
X0790097Y0124205D02*
X0792549Y0124205D01*
X0790097Y0116974D02*
X0790097Y0113705D01*
X0792549Y0116157D01*
X0787645Y0116157D01*
X0814293Y0129983D02*
X0814293Y0134887D01*
X0816745Y0132435D01*
X0813476Y0132435D01*
X0818632Y0133253D02*
X0818632Y0134070D01*
X0819449Y0134887D01*
X0821084Y0134887D01*
X0821902Y0134070D01*
X0818632Y0133253D02*
X0821902Y0129983D01*
X0818632Y0129983D01*
X0818632Y0140983D02*
X0821902Y0140983D01*
X0818632Y0144253D01*
X0818632Y0145070D01*
X0819449Y0145887D01*
X0821084Y0145887D01*
X0821902Y0145070D01*
X0816745Y0145887D02*
X0816745Y0143435D01*
X0815110Y0144253D01*
X0814293Y0144253D01*
X0813476Y0143435D01*
X0813476Y0141800D01*
X0814293Y0140983D01*
X0815928Y0140983D01*
X0816745Y0141800D01*
X0816745Y0145887D02*
X0813476Y0145887D01*
X0814293Y0151983D02*
X0813476Y0152800D01*
X0813476Y0153618D01*
X0814293Y0154435D01*
X0816745Y0154435D01*
X0816745Y0152800D01*
X0815928Y0151983D01*
X0814293Y0151983D01*
X0816745Y0154435D02*
X0815110Y0156070D01*
X0813476Y0156887D01*
X0818632Y0156070D02*
X0819449Y0156887D01*
X0821084Y0156887D01*
X0821902Y0156070D01*
X0818632Y0156070D02*
X0818632Y0155253D01*
X0821902Y0151983D01*
X0818632Y0151983D01*
X0818632Y0162483D02*
X0821902Y0162483D01*
X0818632Y0165753D01*
X0818632Y0166570D01*
X0819449Y0167387D01*
X0821084Y0167387D01*
X0821902Y0166570D01*
X0816745Y0167387D02*
X0813476Y0167387D01*
X0813476Y0166570D01*
X0816745Y0163300D01*
X0816745Y0162483D01*
X0827145Y0167449D02*
X0832049Y0167449D01*
X0832049Y0169083D02*
X0832049Y0165814D01*
X0831232Y0170970D02*
X0827962Y0170970D01*
X0827145Y0171788D01*
X0827145Y0173422D01*
X0827962Y0174240D01*
X0831232Y0174240D01*
X0832049Y0173422D01*
X0832049Y0171788D01*
X0831232Y0170970D01*
X0821902Y0173983D02*
X0818632Y0177253D01*
X0818632Y0178070D01*
X0819449Y0178887D01*
X0821084Y0178887D01*
X0821902Y0178070D01*
X0821902Y0173983D02*
X0818632Y0173983D01*
X0816745Y0174800D02*
X0816745Y0175618D01*
X0815928Y0176435D01*
X0814293Y0176435D01*
X0813476Y0175618D01*
X0813476Y0174800D01*
X0814293Y0173983D01*
X0815928Y0173983D01*
X0816745Y0174800D01*
X0815928Y0176435D02*
X0816745Y0177253D01*
X0816745Y0178070D01*
X0815928Y0178887D01*
X0814293Y0178887D01*
X0813476Y0178070D01*
X0813476Y0177253D01*
X0814293Y0176435D01*
X0814793Y0184483D02*
X0813976Y0185300D01*
X0813976Y0188570D01*
X0814793Y0189387D01*
X0816428Y0189387D01*
X0817245Y0188570D01*
X0817245Y0187753D01*
X0816428Y0186935D01*
X0813976Y0186935D01*
X0814793Y0184483D02*
X0816428Y0184483D01*
X0817245Y0185300D01*
X0819132Y0184483D02*
X0822402Y0184483D01*
X0819132Y0187753D01*
X0819132Y0188570D01*
X0819949Y0189387D01*
X0821584Y0189387D01*
X0822402Y0188570D01*
X0827145Y0189709D02*
X0827145Y0186439D01*
X0832049Y0186439D01*
X0832049Y0189709D01*
X0831232Y0191596D02*
X0827962Y0191596D01*
X0827145Y0192413D01*
X0827145Y0194048D01*
X0827962Y0194865D01*
X0829597Y0194865D01*
X0829597Y0193231D01*
X0831232Y0194865D02*
X0832049Y0194048D01*
X0832049Y0192413D01*
X0831232Y0191596D01*
X0829597Y0188074D02*
X0829597Y0186439D01*
X0827145Y0184552D02*
X0827145Y0181283D01*
X0832049Y0181283D01*
X0832049Y0184552D01*
X0829597Y0182918D02*
X0829597Y0181283D01*
X0821584Y0195483D02*
X0822402Y0196300D01*
X0821584Y0195483D02*
X0819949Y0195483D01*
X0819132Y0196300D01*
X0819132Y0197118D01*
X0819949Y0197935D01*
X0820767Y0197935D01*
X0819949Y0197935D02*
X0819132Y0198753D01*
X0819132Y0199570D01*
X0819949Y0200387D01*
X0821584Y0200387D01*
X0822402Y0199570D01*
X0817245Y0199570D02*
X0816428Y0200387D01*
X0814793Y0200387D01*
X0813976Y0199570D01*
X0817245Y0196300D01*
X0816428Y0195483D01*
X0814793Y0195483D01*
X0813976Y0196300D01*
X0813976Y0199570D01*
X0817245Y0199570D02*
X0817245Y0196300D01*
X0817245Y0206983D02*
X0813976Y0206983D01*
X0815610Y0206983D02*
X0815610Y0211887D01*
X0817245Y0210253D01*
X0819132Y0210253D02*
X0819949Y0209435D01*
X0819132Y0208618D01*
X0819132Y0207800D01*
X0819949Y0206983D01*
X0821584Y0206983D01*
X0822402Y0207800D01*
X0820767Y0209435D02*
X0819949Y0209435D01*
X0819132Y0210253D02*
X0819132Y0211070D01*
X0819949Y0211887D01*
X0821584Y0211887D01*
X0822402Y0211070D01*
X0793402Y0211983D02*
X0790132Y0211983D01*
X0791767Y0211983D02*
X0791767Y0216887D01*
X0793402Y0215253D01*
X0788245Y0216070D02*
X0787428Y0216887D01*
X0785793Y0216887D01*
X0784976Y0216070D01*
X0784976Y0215253D01*
X0785793Y0214435D01*
X0784976Y0213618D01*
X0784976Y0212800D01*
X0785793Y0211983D01*
X0787428Y0211983D01*
X0788245Y0212800D01*
X0786610Y0214435D02*
X0785793Y0214435D01*
X0785793Y0222483D02*
X0785793Y0227387D01*
X0788245Y0224935D01*
X0784976Y0224935D01*
X0790132Y0222483D02*
X0793402Y0222483D01*
X0791767Y0222483D02*
X0791767Y0227387D01*
X0793402Y0225753D01*
X0793402Y0233483D02*
X0790132Y0233483D01*
X0791767Y0233483D02*
X0791767Y0238387D01*
X0793402Y0236753D01*
X0788245Y0235935D02*
X0788245Y0238387D01*
X0784976Y0238387D01*
X0785793Y0236753D02*
X0784976Y0235935D01*
X0784976Y0234300D01*
X0785793Y0233483D01*
X0787428Y0233483D01*
X0788245Y0234300D01*
X0788245Y0235935D02*
X0786610Y0236753D01*
X0785793Y0236753D01*
X0785793Y0244483D02*
X0784976Y0245300D01*
X0784976Y0246118D01*
X0785793Y0246935D01*
X0788245Y0246935D01*
X0788245Y0245300D01*
X0787428Y0244483D01*
X0785793Y0244483D01*
X0788245Y0246935D02*
X0786610Y0248570D01*
X0784976Y0249387D01*
X0788245Y0254983D02*
X0788245Y0255800D01*
X0784976Y0259070D01*
X0784976Y0259887D01*
X0788245Y0259887D01*
X0791767Y0259887D02*
X0793402Y0258253D01*
X0791767Y0259887D02*
X0791767Y0254983D01*
X0793402Y0254983D02*
X0790132Y0254983D01*
X0791767Y0249387D02*
X0791767Y0244483D01*
X0793402Y0244483D02*
X0790132Y0244483D01*
X0793402Y0247753D02*
X0791767Y0249387D01*
X0813976Y0250300D02*
X0814793Y0249483D01*
X0816428Y0249483D01*
X0817245Y0250300D01*
X0817245Y0251935D02*
X0815610Y0252753D01*
X0814793Y0252753D01*
X0813976Y0251935D01*
X0813976Y0250300D01*
X0817245Y0251935D02*
X0817245Y0254387D01*
X0813976Y0254387D01*
X0819132Y0253570D02*
X0819132Y0252753D01*
X0819949Y0251935D01*
X0819132Y0251118D01*
X0819132Y0250300D01*
X0819949Y0249483D01*
X0821584Y0249483D01*
X0822402Y0250300D01*
X0820767Y0251935D02*
X0819949Y0251935D01*
X0819132Y0253570D02*
X0819949Y0254387D01*
X0821584Y0254387D01*
X0822402Y0253570D01*
X0821584Y0261483D02*
X0822402Y0262300D01*
X0821584Y0261483D02*
X0819949Y0261483D01*
X0819132Y0262300D01*
X0819132Y0263118D01*
X0819949Y0263935D01*
X0820767Y0263935D01*
X0819949Y0263935D02*
X0819132Y0264753D01*
X0819132Y0265570D01*
X0819949Y0266387D01*
X0821584Y0266387D01*
X0822402Y0265570D01*
X0817245Y0263935D02*
X0814793Y0263935D01*
X0813976Y0263118D01*
X0813976Y0262300D01*
X0814793Y0261483D01*
X0816428Y0261483D01*
X0817245Y0262300D01*
X0817245Y0263935D01*
X0815610Y0265570D01*
X0813976Y0266387D01*
X0817245Y0270983D02*
X0817245Y0271800D01*
X0813976Y0275070D01*
X0813976Y0275887D01*
X0817245Y0275887D01*
X0819132Y0275070D02*
X0819132Y0274253D01*
X0819949Y0273435D01*
X0819132Y0272618D01*
X0819132Y0271800D01*
X0819949Y0270983D01*
X0821584Y0270983D01*
X0822402Y0271800D01*
X0820767Y0273435D02*
X0819949Y0273435D01*
X0819132Y0275070D02*
X0819949Y0275887D01*
X0821584Y0275887D01*
X0822402Y0275070D01*
X0793402Y0277483D02*
X0790132Y0277483D01*
X0791767Y0277483D02*
X0791767Y0282387D01*
X0793402Y0280753D01*
X0788245Y0280753D02*
X0787428Y0279935D01*
X0784976Y0279935D01*
X0784976Y0278300D02*
X0784976Y0281570D01*
X0785793Y0282387D01*
X0787428Y0282387D01*
X0788245Y0281570D01*
X0788245Y0280753D01*
X0788245Y0278300D02*
X0787428Y0277483D01*
X0785793Y0277483D01*
X0784976Y0278300D01*
X0785793Y0270887D02*
X0784976Y0270070D01*
X0784976Y0269253D01*
X0785793Y0268435D01*
X0787428Y0268435D01*
X0788245Y0269253D01*
X0788245Y0270070D01*
X0787428Y0270887D01*
X0785793Y0270887D01*
X0785793Y0268435D02*
X0784976Y0267618D01*
X0784976Y0266800D01*
X0785793Y0265983D01*
X0787428Y0265983D01*
X0788245Y0266800D01*
X0788245Y0267618D01*
X0787428Y0268435D01*
X0790132Y0265983D02*
X0793402Y0265983D01*
X0791767Y0265983D02*
X0791767Y0270887D01*
X0793402Y0269253D01*
X0814793Y0243387D02*
X0817245Y0240935D01*
X0813976Y0240935D01*
X0814793Y0238483D02*
X0814793Y0243387D01*
X0819132Y0242570D02*
X0819132Y0241753D01*
X0819949Y0240935D01*
X0819132Y0240118D01*
X0819132Y0239300D01*
X0819949Y0238483D01*
X0821584Y0238483D01*
X0822402Y0239300D01*
X0820767Y0240935D02*
X0819949Y0240935D01*
X0819132Y0242570D02*
X0819949Y0243387D01*
X0821584Y0243387D01*
X0822402Y0242570D01*
X0821584Y0232887D02*
X0819949Y0232887D01*
X0819132Y0232070D01*
X0819132Y0231253D01*
X0819949Y0230435D01*
X0819132Y0229618D01*
X0819132Y0228800D01*
X0819949Y0227983D01*
X0821584Y0227983D01*
X0822402Y0228800D01*
X0820767Y0230435D02*
X0819949Y0230435D01*
X0822402Y0232070D02*
X0821584Y0232887D01*
X0817245Y0232070D02*
X0816428Y0232887D01*
X0814793Y0232887D01*
X0813976Y0232070D01*
X0813976Y0231253D01*
X0814793Y0230435D01*
X0813976Y0229618D01*
X0813976Y0228800D01*
X0814793Y0227983D01*
X0816428Y0227983D01*
X0817245Y0228800D01*
X0815610Y0230435D02*
X0814793Y0230435D01*
X0791767Y0205887D02*
X0791767Y0200983D01*
X0793402Y0200983D02*
X0790132Y0200983D01*
X0788245Y0200983D02*
X0784976Y0204253D01*
X0784976Y0205070D01*
X0785793Y0205887D01*
X0787428Y0205887D01*
X0788245Y0205070D01*
X0791767Y0205887D02*
X0793402Y0204253D01*
X0788245Y0200983D02*
X0784976Y0200983D01*
X0786610Y0195387D02*
X0786610Y0190483D01*
X0784976Y0190483D02*
X0788245Y0190483D01*
X0790132Y0190483D02*
X0793402Y0190483D01*
X0791767Y0190483D02*
X0791767Y0195387D01*
X0793402Y0193753D01*
X0788245Y0193753D02*
X0786610Y0195387D01*
X0785793Y0184387D02*
X0784976Y0183570D01*
X0788245Y0180300D01*
X0787428Y0179483D01*
X0785793Y0179483D01*
X0784976Y0180300D01*
X0784976Y0183570D01*
X0785793Y0184387D02*
X0787428Y0184387D01*
X0788245Y0183570D01*
X0788245Y0180300D01*
X0790132Y0179483D02*
X0793402Y0179483D01*
X0791767Y0179483D02*
X0791767Y0184387D01*
X0793402Y0182753D01*
X0791732Y0170974D02*
X0788462Y0170974D01*
X0787645Y0170157D01*
X0787645Y0168522D01*
X0788462Y0167705D01*
X0790097Y0168522D02*
X0790097Y0170974D01*
X0791732Y0170974D02*
X0792549Y0170157D01*
X0792549Y0168522D01*
X0791732Y0167705D01*
X0790915Y0167705D01*
X0790097Y0168522D01*
X0789280Y0159974D02*
X0788462Y0159974D01*
X0787645Y0159157D01*
X0787645Y0157522D01*
X0788462Y0156705D01*
X0789280Y0156705D01*
X0790097Y0157522D01*
X0790097Y0159157D01*
X0789280Y0159974D01*
X0790097Y0159157D02*
X0790915Y0159974D01*
X0791732Y0159974D01*
X0792549Y0159157D01*
X0792549Y0157522D01*
X0791732Y0156705D01*
X0790915Y0156705D01*
X0790097Y0157522D01*
X0792232Y0148974D02*
X0788962Y0145705D01*
X0788145Y0145705D01*
X0793049Y0145705D02*
X0793049Y0148974D01*
X0792232Y0148974D01*
X0792549Y0138474D02*
X0791732Y0136840D01*
X0790097Y0135205D01*
X0790097Y0137657D01*
X0789280Y0138474D01*
X0788462Y0138474D01*
X0787645Y0137657D01*
X0787645Y0136022D01*
X0788462Y0135205D01*
X0790097Y0135205D01*
D11*
X0813175Y0216583D02*
X0817645Y0216583D01*
X0813175Y0221054D01*
X0813175Y0222171D01*
X0814292Y0223289D01*
X0816528Y0223289D01*
X0817645Y0222171D01*
X0820173Y0222171D02*
X0820173Y0221054D01*
X0821290Y0219936D01*
X0820173Y0218818D01*
X0820173Y0217701D01*
X0821290Y0216583D01*
X0823526Y0216583D01*
X0824643Y0217701D01*
X0822408Y0219936D02*
X0821290Y0219936D01*
X0820173Y0222171D02*
X0821290Y0223289D01*
X0823526Y0223289D01*
X0824643Y0222171D01*
X0563643Y0234583D02*
X0559173Y0234583D01*
X0561408Y0234583D02*
X0561408Y0241289D01*
X0563643Y0239054D01*
X0556645Y0237936D02*
X0556645Y0235701D01*
X0555528Y0234583D01*
X0553292Y0234583D01*
X0552175Y0235701D01*
X0552175Y0236818D01*
X0553292Y0237936D01*
X0556645Y0237936D01*
X0554410Y0240171D01*
X0552175Y0241289D01*
X0514643Y0239054D02*
X0512408Y0241289D01*
X0512408Y0234583D01*
X0514643Y0234583D02*
X0510173Y0234583D01*
X0507645Y0235701D02*
X0506528Y0234583D01*
X0504292Y0234583D01*
X0503175Y0235701D01*
X0503175Y0237936D01*
X0504292Y0239054D01*
X0505410Y0239054D01*
X0507645Y0237936D01*
X0507645Y0241289D01*
X0503175Y0241289D01*
X0463643Y0239054D02*
X0461408Y0241289D01*
X0461408Y0234583D01*
X0463643Y0234583D02*
X0459173Y0234583D01*
X0456645Y0237936D02*
X0452175Y0237936D01*
X0453292Y0234583D02*
X0453292Y0241289D01*
X0456645Y0237936D01*
X0414143Y0239054D02*
X0411908Y0241289D01*
X0411908Y0234583D01*
X0414143Y0234583D02*
X0409673Y0234583D01*
X0407145Y0235701D02*
X0406028Y0234583D01*
X0403792Y0234583D01*
X0402675Y0235701D01*
X0402675Y0236818D01*
X0403792Y0237936D01*
X0404910Y0237936D01*
X0403792Y0237936D02*
X0402675Y0239054D01*
X0402675Y0240171D01*
X0403792Y0241289D01*
X0406028Y0241289D01*
X0407145Y0240171D01*
X0363643Y0239054D02*
X0361408Y0241289D01*
X0361408Y0234583D01*
X0363643Y0234583D02*
X0359173Y0234583D01*
X0356645Y0234583D02*
X0352175Y0239054D01*
X0352175Y0240171D01*
X0353292Y0241289D01*
X0355528Y0241289D01*
X0356645Y0240171D01*
X0356645Y0234583D02*
X0352175Y0234583D01*
X0313143Y0234583D02*
X0308673Y0234583D01*
X0310908Y0234583D02*
X0310908Y0241289D01*
X0313143Y0239054D01*
X0306145Y0239054D02*
X0303910Y0241289D01*
X0303910Y0234583D01*
X0306145Y0234583D02*
X0301675Y0234583D01*
X0262643Y0234583D02*
X0258173Y0234583D01*
X0260408Y0234583D02*
X0260408Y0241289D01*
X0262643Y0239054D01*
X0255645Y0240171D02*
X0255645Y0235701D01*
X0251175Y0240171D01*
X0251175Y0235701D01*
X0252292Y0234583D01*
X0254528Y0234583D01*
X0255645Y0235701D01*
X0255645Y0240171D02*
X0254528Y0241289D01*
X0252292Y0241289D01*
X0251175Y0240171D01*
X0210144Y0240171D02*
X0210144Y0239054D01*
X0209027Y0237936D01*
X0205674Y0237936D01*
X0205674Y0240171D02*
X0206791Y0241289D01*
X0209027Y0241289D01*
X0210144Y0240171D01*
X0210144Y0235701D02*
X0209027Y0234583D01*
X0206791Y0234583D01*
X0205674Y0235701D01*
X0205674Y0240171D01*
X0131143Y0222671D02*
X0130026Y0223789D01*
X0127790Y0223789D01*
X0126673Y0222671D01*
X0126673Y0221554D01*
X0127790Y0220436D01*
X0126673Y0219318D01*
X0126673Y0218201D01*
X0127790Y0217083D01*
X0130026Y0217083D01*
X0131143Y0218201D01*
X0128908Y0220436D02*
X0127790Y0220436D01*
X0124145Y0222671D02*
X0123028Y0223789D01*
X0120792Y0223789D01*
X0119675Y0222671D01*
X0119675Y0221554D01*
X0124145Y0217083D01*
X0119675Y0217083D01*
X0201675Y0191289D02*
X0201675Y0190171D01*
X0206145Y0185701D01*
X0206145Y0184583D01*
X0208673Y0184583D02*
X0213143Y0184583D01*
X0210908Y0184583D02*
X0210908Y0191289D01*
X0213143Y0189054D01*
X0206145Y0191289D02*
X0201675Y0191289D01*
X0252675Y0190671D02*
X0252675Y0189554D01*
X0253792Y0188436D01*
X0256028Y0188436D01*
X0257145Y0189554D01*
X0257145Y0190671D01*
X0256028Y0191789D01*
X0253792Y0191789D01*
X0252675Y0190671D01*
X0253792Y0188436D02*
X0252675Y0187318D01*
X0252675Y0186201D01*
X0253792Y0185083D01*
X0256028Y0185083D01*
X0257145Y0186201D01*
X0257145Y0187318D01*
X0256028Y0188436D01*
X0259673Y0185083D02*
X0264143Y0185083D01*
X0261908Y0185083D02*
X0261908Y0191789D01*
X0264143Y0189554D01*
X0302175Y0190171D02*
X0302175Y0185701D01*
X0303292Y0184583D01*
X0305528Y0184583D01*
X0306645Y0185701D01*
X0305528Y0187936D02*
X0302175Y0187936D01*
X0302175Y0190171D02*
X0303292Y0191289D01*
X0305528Y0191289D01*
X0306645Y0190171D01*
X0306645Y0189054D01*
X0305528Y0187936D01*
X0309173Y0184583D02*
X0313643Y0184583D01*
X0311408Y0184583D02*
X0311408Y0191289D01*
X0313643Y0189054D01*
X0348675Y0190671D02*
X0353145Y0186201D01*
X0352028Y0185083D01*
X0349792Y0185083D01*
X0348675Y0186201D01*
X0348675Y0190671D01*
X0349792Y0191789D01*
X0352028Y0191789D01*
X0353145Y0190671D01*
X0353145Y0186201D01*
X0355673Y0185083D02*
X0360143Y0185083D01*
X0355673Y0189554D01*
X0355673Y0190671D01*
X0356790Y0191789D01*
X0359026Y0191789D01*
X0360143Y0190671D01*
X0409675Y0184583D02*
X0414145Y0184583D01*
X0411910Y0184583D02*
X0411910Y0191289D01*
X0414145Y0189054D01*
X0416673Y0189054D02*
X0416673Y0190171D01*
X0417790Y0191289D01*
X0420026Y0191289D01*
X0421143Y0190171D01*
X0416673Y0189054D02*
X0421143Y0184583D01*
X0416673Y0184583D01*
X0452675Y0185083D02*
X0457145Y0185083D01*
X0452675Y0189554D01*
X0452675Y0190671D01*
X0453792Y0191789D01*
X0456028Y0191789D01*
X0457145Y0190671D01*
X0459673Y0190671D02*
X0460790Y0191789D01*
X0463026Y0191789D01*
X0464143Y0190671D01*
X0459673Y0190671D02*
X0459673Y0189554D01*
X0464143Y0185083D01*
X0459673Y0185083D01*
X0502175Y0185701D02*
X0503292Y0184583D01*
X0505528Y0184583D01*
X0506645Y0185701D01*
X0509173Y0184583D02*
X0513643Y0184583D01*
X0509173Y0189054D01*
X0509173Y0190171D01*
X0510290Y0191289D01*
X0512526Y0191289D01*
X0513643Y0190171D01*
X0506645Y0190171D02*
X0505528Y0191289D01*
X0503292Y0191289D01*
X0502175Y0190171D01*
X0502175Y0189054D01*
X0503292Y0187936D01*
X0502175Y0186818D01*
X0502175Y0185701D01*
X0503292Y0187936D02*
X0504410Y0187936D01*
X0552175Y0187936D02*
X0556645Y0187936D01*
X0553292Y0191289D01*
X0553292Y0184583D01*
X0559173Y0184583D02*
X0563643Y0184583D01*
X0559173Y0189054D01*
X0559173Y0190171D01*
X0560290Y0191289D01*
X0562526Y0191289D01*
X0563643Y0190171D01*
X0513143Y0140671D02*
X0512026Y0141789D01*
X0509790Y0141789D01*
X0508673Y0140671D01*
X0508673Y0139554D01*
X0509790Y0138436D01*
X0508673Y0137318D01*
X0508673Y0136201D01*
X0509790Y0135083D01*
X0512026Y0135083D01*
X0513143Y0136201D01*
X0510908Y0138436D02*
X0509790Y0138436D01*
X0506145Y0139554D02*
X0503910Y0141789D01*
X0503910Y0135083D01*
X0506145Y0135083D02*
X0501675Y0135083D01*
X0463643Y0135701D02*
X0462526Y0134583D01*
X0460290Y0134583D01*
X0459173Y0135701D01*
X0459173Y0136818D01*
X0460290Y0137936D01*
X0461408Y0137936D01*
X0460290Y0137936D02*
X0459173Y0139054D01*
X0459173Y0140171D01*
X0460290Y0141289D01*
X0462526Y0141289D01*
X0463643Y0140171D01*
X0456645Y0140171D02*
X0456645Y0135701D01*
X0452175Y0140171D01*
X0452175Y0135701D01*
X0453292Y0134583D01*
X0455528Y0134583D01*
X0456645Y0135701D01*
X0456645Y0140171D02*
X0455528Y0141289D01*
X0453292Y0141289D01*
X0452175Y0140171D01*
X0413643Y0140171D02*
X0412526Y0141289D01*
X0410290Y0141289D01*
X0409173Y0140171D01*
X0409173Y0139054D01*
X0413643Y0134583D01*
X0409173Y0134583D01*
X0406645Y0135701D02*
X0405528Y0134583D01*
X0403292Y0134583D01*
X0402175Y0135701D01*
X0402175Y0140171D01*
X0403292Y0141289D01*
X0405528Y0141289D01*
X0406645Y0140171D01*
X0406645Y0139054D01*
X0405528Y0137936D01*
X0402175Y0137936D01*
X0363143Y0135583D02*
X0358673Y0140054D01*
X0358673Y0141171D01*
X0359790Y0142289D01*
X0362026Y0142289D01*
X0363143Y0141171D01*
X0363143Y0135583D02*
X0358673Y0135583D01*
X0356145Y0136701D02*
X0356145Y0137818D01*
X0355028Y0138936D01*
X0352792Y0138936D01*
X0351675Y0137818D01*
X0351675Y0136701D01*
X0352792Y0135583D01*
X0355028Y0135583D01*
X0356145Y0136701D01*
X0355028Y0138936D02*
X0356145Y0140054D01*
X0356145Y0141171D01*
X0355028Y0142289D01*
X0352792Y0142289D01*
X0351675Y0141171D01*
X0351675Y0140054D01*
X0352792Y0138936D01*
X0313143Y0141171D02*
X0312026Y0142289D01*
X0309790Y0142289D01*
X0308673Y0141171D01*
X0308673Y0140054D01*
X0313143Y0135583D01*
X0308673Y0135583D01*
X0306145Y0135583D02*
X0306145Y0136701D01*
X0301675Y0141171D01*
X0301675Y0142289D01*
X0306145Y0142289D01*
X0264143Y0141171D02*
X0263026Y0142289D01*
X0260790Y0142289D01*
X0259673Y0141171D01*
X0259673Y0140054D01*
X0264143Y0135583D01*
X0259673Y0135583D01*
X0257145Y0136701D02*
X0257145Y0138936D01*
X0253792Y0138936D01*
X0252675Y0137818D01*
X0252675Y0136701D01*
X0253792Y0135583D01*
X0256028Y0135583D01*
X0257145Y0136701D01*
X0257145Y0138936D02*
X0254910Y0141171D01*
X0252675Y0142289D01*
X0214143Y0140671D02*
X0213026Y0141789D01*
X0210790Y0141789D01*
X0209673Y0140671D01*
X0209673Y0139554D01*
X0214143Y0135083D01*
X0209673Y0135083D01*
X0207145Y0136201D02*
X0206028Y0135083D01*
X0203792Y0135083D01*
X0202675Y0136201D01*
X0202675Y0138436D01*
X0203792Y0139554D01*
X0204910Y0139554D01*
X0207145Y0138436D01*
X0207145Y0141789D01*
X0202675Y0141789D01*
X0205174Y0284583D02*
X0209644Y0284583D01*
X0207409Y0284583D02*
X0207409Y0291289D01*
X0209644Y0289054D01*
X0255674Y0289054D02*
X0255674Y0290171D01*
X0256791Y0291289D01*
X0259027Y0291289D01*
X0260144Y0290171D01*
X0255674Y0289054D02*
X0260144Y0284583D01*
X0255674Y0284583D01*
X0305674Y0285701D02*
X0306791Y0284583D01*
X0309027Y0284583D01*
X0310144Y0285701D01*
X0307909Y0287936D02*
X0306791Y0287936D01*
X0305674Y0286818D01*
X0305674Y0285701D01*
X0306791Y0287936D02*
X0305674Y0289054D01*
X0305674Y0290171D01*
X0306791Y0291289D01*
X0309027Y0291289D01*
X0310144Y0290171D01*
X0356174Y0287936D02*
X0360644Y0287936D01*
X0357291Y0291289D01*
X0357291Y0284583D01*
X0405674Y0285701D02*
X0406791Y0284583D01*
X0409027Y0284583D01*
X0410144Y0285701D01*
X0410144Y0287936D02*
X0407909Y0289054D01*
X0406791Y0289054D01*
X0405674Y0287936D01*
X0405674Y0285701D01*
X0410144Y0287936D02*
X0410144Y0291289D01*
X0405674Y0291289D01*
X0456174Y0291289D02*
X0458409Y0290171D01*
X0460644Y0287936D01*
X0457291Y0287936D01*
X0456174Y0286818D01*
X0456174Y0285701D01*
X0457291Y0284583D01*
X0459527Y0284583D01*
X0460644Y0285701D01*
X0460644Y0287936D01*
X0506174Y0289171D02*
X0510644Y0284701D01*
X0510644Y0283583D01*
X0510644Y0290289D02*
X0506174Y0290289D01*
X0506174Y0289171D01*
X0555674Y0289054D02*
X0556791Y0287936D01*
X0559027Y0287936D01*
X0560144Y0289054D01*
X0560144Y0290171D01*
X0559027Y0291289D01*
X0556791Y0291289D01*
X0555674Y0290171D01*
X0555674Y0289054D01*
X0556791Y0287936D02*
X0555674Y0286818D01*
X0555674Y0285701D01*
X0556791Y0284583D01*
X0559027Y0284583D01*
X0560144Y0285701D01*
X0560144Y0286818D01*
X0559027Y0287936D01*
X0559790Y0141289D02*
X0558673Y0140171D01*
X0558673Y0139054D01*
X0559790Y0137936D01*
X0558673Y0136818D01*
X0558673Y0135701D01*
X0559790Y0134583D01*
X0562026Y0134583D01*
X0563143Y0135701D01*
X0560908Y0137936D02*
X0559790Y0137936D01*
X0559790Y0141289D02*
X0562026Y0141289D01*
X0563143Y0140171D01*
X0556145Y0140171D02*
X0555028Y0141289D01*
X0552792Y0141289D01*
X0551675Y0140171D01*
X0551675Y0139054D01*
X0556145Y0134583D01*
X0551675Y0134583D01*
D12*
X0614497Y0152433D02*
X0614497Y0155433D01*
X0619694Y0155335D02*
X0619694Y0152433D01*
X0678497Y0152433D02*
X0678497Y0155433D01*
X0683694Y0155335D02*
X0683694Y0152433D01*
X0742497Y0152433D02*
X0742497Y0155433D01*
X0747694Y0155335D02*
X0747694Y0152433D01*
X0686694Y0112433D02*
X0686694Y0109433D01*
X0681497Y0109531D02*
X0681497Y0112433D01*
X0622694Y0112433D02*
X0622694Y0109433D01*
X0617497Y0109531D02*
X0617497Y0112433D01*
X0566603Y0076737D02*
X0566603Y0073668D01*
X0565068Y0072133D01*
X0563534Y0073668D01*
X0563534Y0076737D01*
X0561999Y0074435D02*
X0558930Y0074435D01*
X0614497Y0059433D02*
X0614497Y0056433D01*
X0619694Y0056433D02*
X0619694Y0059335D01*
X0678497Y0059433D02*
X0678497Y0056433D01*
X0683694Y0056433D02*
X0683694Y0059335D01*
X0482395Y0075668D02*
X0480861Y0074133D01*
X0479326Y0075668D01*
X0479326Y0078737D01*
X0477791Y0076435D02*
X0474722Y0076435D01*
X0476257Y0077970D02*
X0476257Y0074900D01*
X0482395Y0075668D02*
X0482395Y0078737D01*
X0467846Y0070737D02*
X0467846Y0067668D01*
X0466311Y0066133D01*
X0464776Y0067668D01*
X0464776Y0070737D01*
X0463242Y0070737D02*
X0460940Y0070737D01*
X0460172Y0069970D01*
X0460172Y0069202D01*
X0460940Y0068435D01*
X0463242Y0068435D01*
X0463242Y0066133D02*
X0460940Y0066133D01*
X0460172Y0066900D01*
X0460172Y0067668D01*
X0460940Y0068435D01*
X0458638Y0066900D02*
X0457870Y0067668D01*
X0455568Y0067668D01*
X0455568Y0068435D02*
X0455568Y0066133D01*
X0457870Y0066133D01*
X0458638Y0066900D01*
X0457870Y0069202D02*
X0456336Y0069202D01*
X0455568Y0068435D01*
X0454034Y0069202D02*
X0452499Y0069202D01*
X0453266Y0069970D02*
X0453266Y0066900D01*
X0452499Y0066133D01*
X0450197Y0066900D02*
X0449430Y0066133D01*
X0450197Y0066900D02*
X0450197Y0069970D01*
X0450964Y0069202D02*
X0449430Y0069202D01*
X0449930Y0076633D02*
X0452232Y0076633D01*
X0452999Y0077400D01*
X0452999Y0078935D01*
X0452232Y0079702D01*
X0449930Y0079702D01*
X0449930Y0081237D02*
X0449930Y0076633D01*
X0454534Y0076633D02*
X0454534Y0078935D01*
X0455301Y0079702D01*
X0457603Y0079702D01*
X0457603Y0076633D01*
X0459138Y0077400D02*
X0459138Y0078935D01*
X0460672Y0078935D01*
X0459138Y0077400D02*
X0459905Y0076633D01*
X0461440Y0076633D01*
X0462207Y0077400D01*
X0462207Y0080470D01*
X0461440Y0081237D01*
X0459905Y0081237D01*
X0459138Y0080470D01*
X0443255Y0082440D02*
X0439651Y0082440D01*
X0439651Y0081239D02*
X0439651Y0083641D01*
X0442053Y0081239D02*
X0443255Y0082440D01*
X0463242Y0070737D02*
X0463242Y0066133D01*
X0451395Y0043237D02*
X0451395Y0040168D01*
X0449861Y0038633D01*
X0448326Y0040168D01*
X0448326Y0043237D01*
X0446791Y0040935D02*
X0443722Y0040935D01*
X0445257Y0042470D02*
X0445257Y0039400D01*
X0384899Y0069400D02*
X0384132Y0068633D01*
X0381062Y0068633D01*
X0380295Y0069400D01*
X0380295Y0070935D01*
X0381062Y0071702D01*
X0382597Y0071702D01*
X0382597Y0070168D01*
X0384132Y0071702D02*
X0384899Y0070935D01*
X0384899Y0069400D01*
X0383364Y0073237D02*
X0380295Y0073237D01*
X0380295Y0076306D02*
X0382597Y0076306D01*
X0383364Y0075539D01*
X0383364Y0073237D01*
X0382597Y0077841D02*
X0381062Y0077841D01*
X0380295Y0078608D01*
X0380295Y0080910D01*
X0384899Y0080910D01*
X0383364Y0080910D02*
X0383364Y0078608D01*
X0382597Y0077841D01*
X0374166Y0078108D02*
X0373399Y0078108D01*
X0371864Y0078108D02*
X0368795Y0078108D01*
X0368795Y0077341D02*
X0368795Y0078876D01*
X0368795Y0080410D02*
X0371864Y0080410D01*
X0371864Y0082712D01*
X0371097Y0083479D01*
X0368795Y0083479D01*
X0371864Y0078108D02*
X0371864Y0077341D01*
X0370330Y0075806D02*
X0373399Y0075806D01*
X0373399Y0072737D02*
X0370330Y0072737D01*
X0368795Y0074272D01*
X0370330Y0075806D01*
X0371097Y0071202D02*
X0369562Y0071202D01*
X0368795Y0070435D01*
X0368795Y0068900D01*
X0369562Y0068133D01*
X0371097Y0068133D02*
X0371864Y0069668D01*
X0371864Y0070435D01*
X0371097Y0071202D01*
X0373399Y0071202D02*
X0373399Y0068133D01*
X0371097Y0068133D01*
X0335395Y0056237D02*
X0335395Y0053168D01*
X0333861Y0051633D01*
X0332326Y0053168D01*
X0332326Y0056237D01*
X0330791Y0053935D02*
X0327722Y0053935D01*
X0329257Y0055470D02*
X0329257Y0052400D01*
X0333568Y0081133D02*
X0332034Y0082668D01*
X0332034Y0085737D01*
X0330499Y0083435D02*
X0327430Y0083435D01*
X0333568Y0081133D02*
X0335103Y0082668D01*
X0335103Y0085737D01*
X0617497Y0205531D02*
X0617497Y0208433D01*
X0622694Y0208433D02*
X0622694Y0205433D01*
X0681497Y0205531D02*
X0681497Y0208433D01*
X0686694Y0208433D02*
X0686694Y0205433D01*
X0745497Y0205531D02*
X0745497Y0208433D01*
X0750694Y0208433D02*
X0750694Y0205433D01*
X0747194Y0248433D02*
X0747194Y0251335D01*
X0741997Y0251433D02*
X0741997Y0248433D01*
X0683194Y0248433D02*
X0683194Y0251335D01*
X0677997Y0251433D02*
X0677997Y0248433D01*
X0619194Y0248433D02*
X0619194Y0251335D01*
X0613997Y0251433D02*
X0613997Y0248433D01*
X0616997Y0301531D02*
X0616997Y0304433D01*
X0622194Y0304433D02*
X0622194Y0301433D01*
X0680997Y0301531D02*
X0680997Y0304433D01*
X0686194Y0304433D02*
X0686194Y0301433D01*
X0744997Y0301531D02*
X0744997Y0304433D01*
X0750194Y0304433D02*
X0750194Y0301433D01*
D13*
X0738205Y0280945D02*
X0726985Y0280945D01*
X0726985Y0269921D01*
X0738205Y0269921D01*
X0738205Y0280945D01*
X0674205Y0280945D02*
X0674205Y0269921D01*
X0662985Y0269921D01*
X0662985Y0280945D01*
X0674205Y0280945D01*
X0610205Y0280945D02*
X0610205Y0269921D01*
X0598985Y0269921D01*
X0598985Y0280945D01*
X0610205Y0280945D01*
X0610705Y0184945D02*
X0599485Y0184945D01*
X0599485Y0173921D01*
X0610705Y0173921D01*
X0610705Y0184945D01*
X0663485Y0184945D02*
X0663485Y0173921D01*
X0674705Y0173921D01*
X0674705Y0184945D01*
X0663485Y0184945D01*
X0727485Y0184945D02*
X0727485Y0173921D01*
X0738705Y0173921D01*
X0738705Y0184945D01*
X0727485Y0184945D01*
X0674705Y0088945D02*
X0663485Y0088945D01*
X0663485Y0077921D01*
X0674705Y0077921D01*
X0674705Y0088945D01*
X0610705Y0088945D02*
X0610705Y0077921D01*
X0599485Y0077921D01*
X0599485Y0088945D01*
X0610705Y0088945D01*
X0321205Y0073445D02*
X0321205Y0062421D01*
X0309985Y0062421D01*
X0309985Y0073445D01*
X0321205Y0073445D01*
D14*
X0321501Y0060846D03*
X0599190Y0090520D03*
X0663190Y0090520D03*
X0663190Y0186520D03*
X0727190Y0186520D03*
X0599190Y0186520D03*
X0598690Y0282520D03*
X0662690Y0282520D03*
X0726690Y0282520D03*
D15*
X0728658Y0283159D03*
X0730627Y0283159D03*
X0732595Y0283159D03*
X0734564Y0283159D03*
X0736532Y0283159D03*
X0736532Y0267707D03*
X0734564Y0267707D03*
X0732595Y0267707D03*
X0730627Y0267707D03*
X0728658Y0267707D03*
X0672532Y0267707D03*
X0670564Y0267707D03*
X0668595Y0267707D03*
X0666627Y0267707D03*
X0664658Y0267707D03*
X0664658Y0283159D03*
X0666627Y0283159D03*
X0668595Y0283159D03*
X0670564Y0283159D03*
X0672532Y0283159D03*
X0608532Y0283159D03*
X0606564Y0283159D03*
X0604595Y0283159D03*
X0602627Y0283159D03*
X0600658Y0283159D03*
X0600658Y0267707D03*
X0602627Y0267707D03*
X0604595Y0267707D03*
X0606564Y0267707D03*
X0608532Y0267707D03*
X0609032Y0187159D03*
X0607064Y0187159D03*
X0605095Y0187159D03*
X0603127Y0187159D03*
X0601158Y0187159D03*
X0601158Y0171707D03*
X0603127Y0171707D03*
X0605095Y0171707D03*
X0607064Y0171707D03*
X0609032Y0171707D03*
X0665158Y0171707D03*
X0667127Y0171707D03*
X0669095Y0171707D03*
X0671064Y0171707D03*
X0673032Y0171707D03*
X0673032Y0187159D03*
X0671064Y0187159D03*
X0669095Y0187159D03*
X0667127Y0187159D03*
X0665158Y0187159D03*
X0729158Y0187159D03*
X0731127Y0187159D03*
X0733095Y0187159D03*
X0735064Y0187159D03*
X0737032Y0187159D03*
X0737032Y0171707D03*
X0735064Y0171707D03*
X0733095Y0171707D03*
X0731127Y0171707D03*
X0729158Y0171707D03*
X0673032Y0091159D03*
X0671064Y0091159D03*
X0669095Y0091159D03*
X0667127Y0091159D03*
X0665158Y0091159D03*
X0665158Y0075707D03*
X0667127Y0075707D03*
X0669095Y0075707D03*
X0671064Y0075707D03*
X0673032Y0075707D03*
X0609032Y0075707D03*
X0607064Y0075707D03*
X0605095Y0075707D03*
X0603127Y0075707D03*
X0601158Y0075707D03*
X0601158Y0091159D03*
X0603127Y0091159D03*
X0605095Y0091159D03*
X0607064Y0091159D03*
X0609032Y0091159D03*
X0319532Y0075659D03*
X0317564Y0075659D03*
X0315595Y0075659D03*
X0313627Y0075659D03*
X0311658Y0075659D03*
X0311658Y0060207D03*
X0313627Y0060207D03*
X0315595Y0060207D03*
X0317564Y0060207D03*
X0319532Y0060207D03*
D16*
X0314060Y0054815D02*
X0312131Y0054815D01*
X0312131Y0053051D02*
X0314060Y0053051D01*
X0314560Y0082551D02*
X0312631Y0082551D01*
X0312631Y0084315D02*
X0314560Y0084315D01*
X0587131Y0085051D02*
X0589060Y0085051D01*
X0589060Y0086815D02*
X0587131Y0086815D01*
X0587131Y0081815D02*
X0589060Y0081815D01*
X0589060Y0080051D02*
X0587131Y0080051D01*
X0589713Y0073398D02*
X0589713Y0071469D01*
X0591477Y0071469D02*
X0591477Y0073398D01*
X0611695Y0081220D02*
X0611695Y0082088D01*
X0612129Y0082521D01*
X0614297Y0082521D01*
X0614297Y0080787D02*
X0612129Y0080787D01*
X0611695Y0081220D01*
X0612996Y0083733D02*
X0612996Y0085468D01*
X0611695Y0085034D02*
X0614297Y0085034D01*
X0612996Y0083733D01*
X0591477Y0093469D02*
X0591477Y0095398D01*
X0589713Y0095398D02*
X0589713Y0093469D01*
X0627095Y0109319D02*
X0627095Y0112547D01*
X0632095Y0112547D02*
X0632095Y0109319D01*
X0654713Y0095898D02*
X0654713Y0093969D01*
X0656477Y0093969D02*
X0656477Y0095898D01*
X0653060Y0086815D02*
X0651131Y0086815D01*
X0651131Y0085051D02*
X0653060Y0085051D01*
X0653060Y0081815D02*
X0651131Y0081815D01*
X0651131Y0080051D02*
X0653060Y0080051D01*
X0654713Y0073398D02*
X0654713Y0071469D01*
X0656477Y0071469D02*
X0656477Y0073398D01*
X0675695Y0079747D02*
X0675695Y0080614D01*
X0676129Y0081048D01*
X0678297Y0081048D01*
X0677430Y0082260D02*
X0678297Y0083127D01*
X0675695Y0083127D01*
X0675695Y0082260D02*
X0675695Y0083995D01*
X0676129Y0085206D02*
X0675695Y0085640D01*
X0675695Y0086507D01*
X0676129Y0086941D01*
X0676563Y0086941D01*
X0676996Y0086507D01*
X0676996Y0086074D01*
X0676996Y0086507D02*
X0677430Y0086941D01*
X0677864Y0086941D01*
X0678297Y0086507D01*
X0678297Y0085640D01*
X0677864Y0085206D01*
X0675695Y0079747D02*
X0676129Y0079313D01*
X0678297Y0079313D01*
X0688595Y0059547D02*
X0688595Y0056319D01*
X0693595Y0056319D02*
X0693595Y0059547D01*
X0629595Y0059547D02*
X0629595Y0056319D01*
X0624595Y0056319D02*
X0624595Y0059547D01*
X0691095Y0109319D02*
X0691095Y0112547D01*
X0696095Y0112547D02*
X0696095Y0109319D01*
X0693595Y0152319D02*
X0693595Y0155547D01*
X0688595Y0155547D02*
X0688595Y0152319D01*
X0718713Y0167469D02*
X0718713Y0169398D01*
X0720477Y0169398D02*
X0720477Y0167469D01*
X0740195Y0175747D02*
X0740629Y0175313D01*
X0742797Y0175313D01*
X0742797Y0177048D02*
X0740629Y0177048D01*
X0740195Y0176614D01*
X0740195Y0175747D01*
X0740195Y0178260D02*
X0741930Y0179995D01*
X0742364Y0179995D01*
X0742797Y0179561D01*
X0742797Y0178694D01*
X0742364Y0178260D01*
X0740195Y0178260D02*
X0740195Y0179995D01*
X0740629Y0181206D02*
X0742364Y0182941D01*
X0740629Y0182941D01*
X0740195Y0182507D01*
X0740195Y0181640D01*
X0740629Y0181206D01*
X0742364Y0181206D01*
X0742797Y0181640D01*
X0742797Y0182507D01*
X0742364Y0182941D01*
X0720477Y0189969D02*
X0720477Y0191898D01*
X0718713Y0191898D02*
X0718713Y0189969D01*
X0717060Y0183315D02*
X0715131Y0183315D01*
X0715131Y0181551D02*
X0717060Y0181551D01*
X0717060Y0178315D02*
X0715131Y0178315D01*
X0715131Y0176551D02*
X0717060Y0176551D01*
X0678797Y0175813D02*
X0676629Y0175813D01*
X0676195Y0176247D01*
X0676195Y0177114D01*
X0676629Y0177548D01*
X0678797Y0177548D01*
X0677930Y0178760D02*
X0678797Y0179627D01*
X0676195Y0179627D01*
X0676195Y0178760D02*
X0676195Y0180495D01*
X0676195Y0181706D02*
X0676195Y0183441D01*
X0676195Y0182574D02*
X0678797Y0182574D01*
X0677930Y0181706D01*
X0656477Y0189969D02*
X0656477Y0191898D01*
X0654713Y0191898D02*
X0654713Y0189969D01*
X0653060Y0183315D02*
X0651131Y0183315D01*
X0651131Y0181551D02*
X0653060Y0181551D01*
X0653060Y0178315D02*
X0651131Y0178315D01*
X0651131Y0176551D02*
X0653060Y0176551D01*
X0654713Y0169398D02*
X0654713Y0167469D01*
X0656477Y0167469D02*
X0656477Y0169398D01*
X0629595Y0155547D02*
X0629595Y0152319D01*
X0624595Y0152319D02*
X0624595Y0155547D01*
X0590477Y0167469D02*
X0590477Y0169398D01*
X0588713Y0169398D02*
X0588713Y0167469D01*
X0589060Y0176051D02*
X0587131Y0176051D01*
X0587131Y0177815D02*
X0589060Y0177815D01*
X0589060Y0181051D02*
X0587131Y0181051D01*
X0587131Y0182815D02*
X0589060Y0182815D01*
X0589713Y0189969D02*
X0589713Y0191898D01*
X0591477Y0191898D02*
X0591477Y0189969D01*
X0611695Y0181468D02*
X0611695Y0179733D01*
X0613430Y0181468D01*
X0613864Y0181468D01*
X0614297Y0181034D01*
X0614297Y0180167D01*
X0613864Y0179733D01*
X0614297Y0178521D02*
X0612129Y0178521D01*
X0611695Y0178088D01*
X0611695Y0177220D01*
X0612129Y0176787D01*
X0614297Y0176787D01*
X0627095Y0205319D02*
X0627095Y0208547D01*
X0632095Y0208547D02*
X0632095Y0205319D01*
X0691095Y0205319D02*
X0691095Y0208547D01*
X0696095Y0208547D02*
X0696095Y0205319D01*
X0755095Y0205319D02*
X0755095Y0208547D01*
X0760095Y0208547D02*
X0760095Y0205319D01*
X0757095Y0248319D02*
X0757095Y0251547D01*
X0752095Y0251547D02*
X0752095Y0248319D01*
X0719977Y0263969D02*
X0719977Y0265898D01*
X0718213Y0265898D02*
X0718213Y0263969D01*
X0716560Y0272551D02*
X0714631Y0272551D01*
X0714631Y0274315D02*
X0716560Y0274315D01*
X0716560Y0277551D02*
X0714631Y0277551D01*
X0714631Y0279315D02*
X0716560Y0279315D01*
X0718213Y0285969D02*
X0718213Y0287898D01*
X0719977Y0287898D02*
X0719977Y0285969D01*
X0739195Y0278941D02*
X0739195Y0277206D01*
X0740930Y0278941D01*
X0741364Y0278941D01*
X0741797Y0278507D01*
X0741797Y0277640D01*
X0741364Y0277206D01*
X0741364Y0275995D02*
X0741797Y0275561D01*
X0741797Y0274694D01*
X0741364Y0274260D01*
X0741797Y0273048D02*
X0739629Y0273048D01*
X0739195Y0272614D01*
X0739195Y0271747D01*
X0739629Y0271313D01*
X0741797Y0271313D01*
X0739195Y0274260D02*
X0740930Y0275995D01*
X0741364Y0275995D01*
X0739195Y0275995D02*
X0739195Y0274260D01*
X0693095Y0251547D02*
X0693095Y0248319D01*
X0688095Y0248319D02*
X0688095Y0251547D01*
X0655977Y0263469D02*
X0655977Y0265398D01*
X0654213Y0265398D02*
X0654213Y0263469D01*
X0652560Y0272051D02*
X0650631Y0272051D01*
X0650631Y0273815D02*
X0652560Y0273815D01*
X0652560Y0277051D02*
X0650631Y0277051D01*
X0650631Y0278815D02*
X0652560Y0278815D01*
X0654213Y0285969D02*
X0654213Y0287898D01*
X0655977Y0287898D02*
X0655977Y0285969D01*
X0675695Y0278507D02*
X0675695Y0277640D01*
X0676129Y0277206D01*
X0676996Y0277206D02*
X0677430Y0278074D01*
X0677430Y0278507D01*
X0676996Y0278941D01*
X0676129Y0278941D01*
X0675695Y0278507D01*
X0676996Y0277206D02*
X0678297Y0277206D01*
X0678297Y0278941D01*
X0678297Y0275127D02*
X0675695Y0275127D01*
X0675695Y0274260D02*
X0675695Y0275995D01*
X0677430Y0274260D02*
X0678297Y0275127D01*
X0678297Y0273048D02*
X0676129Y0273048D01*
X0675695Y0272614D01*
X0675695Y0271747D01*
X0676129Y0271313D01*
X0678297Y0271313D01*
X0629095Y0251547D02*
X0629095Y0248319D01*
X0624095Y0248319D02*
X0624095Y0251547D01*
X0591977Y0263469D02*
X0591977Y0265398D01*
X0590213Y0265398D02*
X0590213Y0263469D01*
X0588560Y0272051D02*
X0586631Y0272051D01*
X0586631Y0273815D02*
X0588560Y0273815D01*
X0588560Y0277551D02*
X0586631Y0277551D01*
X0586631Y0279315D02*
X0588560Y0279315D01*
X0590213Y0286469D02*
X0590213Y0288398D01*
X0591977Y0288398D02*
X0591977Y0286469D01*
X0611195Y0277034D02*
X0611629Y0277468D01*
X0612063Y0277468D01*
X0612496Y0277034D01*
X0612496Y0275733D01*
X0611629Y0275733D01*
X0611195Y0276167D01*
X0611195Y0277034D01*
X0612496Y0275733D02*
X0613364Y0276600D01*
X0613797Y0277468D01*
X0613797Y0274521D02*
X0611629Y0274521D01*
X0611195Y0274088D01*
X0611195Y0273220D01*
X0611629Y0272787D01*
X0613797Y0272787D01*
X0626595Y0301319D02*
X0626595Y0304547D01*
X0631595Y0304547D02*
X0631595Y0301319D01*
X0690595Y0301319D02*
X0690595Y0304547D01*
X0695595Y0304547D02*
X0695595Y0301319D01*
X0754595Y0301319D02*
X0754595Y0304547D01*
X0759595Y0304547D02*
X0759595Y0301319D01*
X0757595Y0155547D02*
X0757595Y0152319D01*
X0752595Y0152319D02*
X0752595Y0155547D01*
D17*
X0745091Y0156756D03*
X0745091Y0151056D03*
X0681091Y0151056D03*
X0681091Y0156756D03*
X0617091Y0156756D03*
X0617091Y0151056D03*
X0620100Y0113810D03*
X0620100Y0108110D03*
X0684100Y0108110D03*
X0684100Y0113810D03*
X0681091Y0060756D03*
X0681091Y0055056D03*
X0617091Y0055056D03*
X0617091Y0060756D03*
X0620100Y0204110D03*
X0620100Y0209810D03*
X0684100Y0209810D03*
X0684100Y0204110D03*
X0748100Y0204110D03*
X0748100Y0209810D03*
X0744591Y0247056D03*
X0744591Y0252756D03*
X0680591Y0252756D03*
X0680591Y0247056D03*
X0616591Y0247056D03*
X0616591Y0252756D03*
X0619600Y0300110D03*
X0619600Y0305810D03*
X0683600Y0305810D03*
X0683600Y0300110D03*
X0747600Y0300110D03*
X0747600Y0305810D03*
D18*
X0746729Y0311083D02*
X0746245Y0311567D01*
X0746245Y0312534D01*
X0746729Y0313018D01*
X0746729Y0314030D02*
X0746245Y0314030D01*
X0746729Y0314030D02*
X0748664Y0315965D01*
X0749148Y0315965D01*
X0749148Y0314030D01*
X0748664Y0313018D02*
X0749148Y0312534D01*
X0749148Y0311567D01*
X0748664Y0311083D01*
X0746729Y0311083D01*
X0747696Y0316976D02*
X0747696Y0318911D01*
X0746245Y0318427D02*
X0749148Y0318427D01*
X0747696Y0316976D01*
X0755245Y0317460D02*
X0755729Y0316976D01*
X0756213Y0316976D01*
X0756696Y0317460D01*
X0756696Y0318427D01*
X0756213Y0318911D01*
X0755729Y0318911D01*
X0755245Y0318427D01*
X0755245Y0317460D01*
X0756696Y0317460D02*
X0757180Y0316976D01*
X0757664Y0316976D01*
X0758148Y0317460D01*
X0758148Y0318427D01*
X0757664Y0318911D01*
X0757180Y0318911D01*
X0756696Y0318427D01*
X0756696Y0315965D02*
X0755729Y0315965D01*
X0755245Y0315481D01*
X0755245Y0314513D01*
X0755729Y0314030D01*
X0756696Y0314030D02*
X0757180Y0314997D01*
X0757180Y0315481D01*
X0756696Y0315965D01*
X0758148Y0315965D02*
X0758148Y0314030D01*
X0756696Y0314030D01*
X0756696Y0313018D02*
X0756213Y0312534D01*
X0756213Y0311083D01*
X0756213Y0312051D02*
X0755245Y0313018D01*
X0756696Y0313018D02*
X0757664Y0313018D01*
X0758148Y0312534D01*
X0758148Y0311083D01*
X0755245Y0311083D01*
X0715648Y0287965D02*
X0715164Y0287965D01*
X0713229Y0286030D01*
X0712745Y0286030D01*
X0712745Y0285018D02*
X0713713Y0284051D01*
X0713713Y0284534D02*
X0713713Y0283083D01*
X0712745Y0283083D02*
X0715648Y0283083D01*
X0715648Y0284534D01*
X0715164Y0285018D01*
X0714196Y0285018D01*
X0713713Y0284534D01*
X0715648Y0286030D02*
X0715648Y0287965D01*
X0708961Y0281486D02*
X0709445Y0281002D01*
X0709445Y0279067D01*
X0708961Y0278583D01*
X0707994Y0278583D01*
X0707510Y0279067D01*
X0706499Y0279067D02*
X0706015Y0278583D01*
X0705047Y0278583D01*
X0704564Y0279067D01*
X0704564Y0279551D01*
X0705047Y0280034D01*
X0706499Y0280034D01*
X0706499Y0279067D01*
X0706499Y0280034D02*
X0705531Y0281002D01*
X0704564Y0281486D01*
X0703552Y0281002D02*
X0703552Y0280518D01*
X0703068Y0280034D01*
X0702101Y0280034D01*
X0701617Y0279551D01*
X0701617Y0279067D01*
X0702101Y0278583D01*
X0703068Y0278583D01*
X0703552Y0279067D01*
X0703552Y0279551D01*
X0703068Y0280034D01*
X0702101Y0280034D02*
X0701617Y0280518D01*
X0701617Y0281002D01*
X0702101Y0281486D01*
X0703068Y0281486D01*
X0703552Y0281002D01*
X0707510Y0281002D02*
X0707994Y0281486D01*
X0708961Y0281486D01*
X0708961Y0272486D02*
X0709445Y0272002D01*
X0709445Y0270067D01*
X0708961Y0269583D01*
X0707994Y0269583D01*
X0707510Y0270067D01*
X0706499Y0270067D02*
X0706015Y0269583D01*
X0705047Y0269583D01*
X0704564Y0270067D01*
X0704564Y0270551D01*
X0705047Y0271034D01*
X0706499Y0271034D01*
X0706499Y0270067D01*
X0706499Y0271034D02*
X0705531Y0272002D01*
X0704564Y0272486D01*
X0703552Y0271034D02*
X0702101Y0272486D01*
X0702101Y0269583D01*
X0701617Y0271034D02*
X0703552Y0271034D01*
X0707510Y0272002D02*
X0707994Y0272486D01*
X0708961Y0272486D01*
X0713045Y0268588D02*
X0713045Y0267620D01*
X0713529Y0267137D01*
X0713045Y0266125D02*
X0713045Y0264190D01*
X0714980Y0266125D01*
X0715464Y0266125D01*
X0715948Y0265641D01*
X0715948Y0264674D01*
X0715464Y0264190D01*
X0715464Y0263178D02*
X0714496Y0263178D01*
X0714013Y0262695D01*
X0714013Y0261244D01*
X0714013Y0262211D02*
X0713045Y0263178D01*
X0713045Y0261244D02*
X0715948Y0261244D01*
X0715948Y0262695D01*
X0715464Y0263178D01*
X0715464Y0267137D02*
X0715948Y0267620D01*
X0715948Y0268588D01*
X0715464Y0269072D01*
X0714980Y0269072D01*
X0714496Y0268588D01*
X0714013Y0269072D01*
X0713529Y0269072D01*
X0713045Y0268588D01*
X0714496Y0268588D02*
X0714496Y0268104D01*
X0651148Y0284583D02*
X0651148Y0286034D01*
X0650664Y0286518D01*
X0649696Y0286518D01*
X0649213Y0286034D01*
X0649213Y0284583D01*
X0649213Y0285551D02*
X0648245Y0286518D01*
X0649696Y0287530D02*
X0649696Y0289465D01*
X0648245Y0288981D02*
X0651148Y0288981D01*
X0649696Y0287530D01*
X0648245Y0284583D02*
X0651148Y0284583D01*
X0644945Y0281002D02*
X0644945Y0279067D01*
X0644461Y0278583D01*
X0643494Y0278583D01*
X0643010Y0279067D01*
X0641999Y0280034D02*
X0640064Y0280034D01*
X0639052Y0281002D02*
X0638568Y0281486D01*
X0637601Y0281486D01*
X0637117Y0281002D01*
X0637117Y0280518D01*
X0639052Y0278583D01*
X0637117Y0278583D01*
X0640547Y0278583D02*
X0640547Y0281486D01*
X0641999Y0280034D01*
X0643010Y0281002D02*
X0643494Y0281486D01*
X0644461Y0281486D01*
X0644945Y0281002D01*
X0644461Y0272486D02*
X0644945Y0272002D01*
X0644945Y0270067D01*
X0644461Y0269583D01*
X0643494Y0269583D01*
X0643010Y0270067D01*
X0641999Y0270067D02*
X0641515Y0269583D01*
X0640547Y0269583D01*
X0640064Y0270067D01*
X0640064Y0270551D01*
X0640547Y0271034D01*
X0641031Y0271034D01*
X0640547Y0271034D02*
X0640064Y0271518D01*
X0640064Y0272002D01*
X0640547Y0272486D01*
X0641515Y0272486D01*
X0641999Y0272002D01*
X0643010Y0272002D02*
X0643494Y0272486D01*
X0644461Y0272486D01*
X0644029Y0267572D02*
X0643545Y0267088D01*
X0643545Y0266120D01*
X0644029Y0265637D01*
X0645964Y0267572D01*
X0644029Y0267572D01*
X0645964Y0267572D02*
X0646448Y0267088D01*
X0646448Y0266120D01*
X0645964Y0265637D01*
X0644029Y0265637D01*
X0643545Y0264625D02*
X0643545Y0262690D01*
X0645480Y0264625D01*
X0645964Y0264625D01*
X0646448Y0264141D01*
X0646448Y0263174D01*
X0645964Y0262690D01*
X0645964Y0261678D02*
X0644996Y0261678D01*
X0644513Y0261195D01*
X0644513Y0259744D01*
X0644513Y0260711D02*
X0643545Y0261678D01*
X0643545Y0259744D02*
X0646448Y0259744D01*
X0646448Y0261195D01*
X0645964Y0261678D01*
X0638568Y0269583D02*
X0637601Y0269583D01*
X0637117Y0270067D01*
X0637117Y0270551D01*
X0637601Y0271034D01*
X0639052Y0271034D01*
X0639052Y0270067D01*
X0638568Y0269583D01*
X0639052Y0271034D02*
X0638085Y0272002D01*
X0637117Y0272486D01*
X0588448Y0268572D02*
X0588448Y0266637D01*
X0588448Y0268572D02*
X0587964Y0268572D01*
X0586029Y0266637D01*
X0585545Y0266637D01*
X0585545Y0265625D02*
X0585545Y0263690D01*
X0585545Y0264658D02*
X0588448Y0264658D01*
X0587480Y0263690D01*
X0586996Y0262678D02*
X0586513Y0262195D01*
X0586513Y0260744D01*
X0586513Y0261711D02*
X0585545Y0262678D01*
X0586996Y0262678D02*
X0587964Y0262678D01*
X0588448Y0262195D01*
X0588448Y0260744D01*
X0585545Y0260744D01*
X0580961Y0268583D02*
X0579994Y0268583D01*
X0579510Y0269067D01*
X0578499Y0269067D02*
X0578015Y0268583D01*
X0577047Y0268583D01*
X0576564Y0269067D01*
X0576564Y0269551D01*
X0577047Y0270034D01*
X0578499Y0270034D01*
X0578499Y0269067D01*
X0578499Y0270034D02*
X0577531Y0271002D01*
X0576564Y0271486D01*
X0579510Y0271002D02*
X0579994Y0271486D01*
X0580961Y0271486D01*
X0581445Y0271002D01*
X0581445Y0269067D01*
X0580961Y0268583D01*
X0580961Y0278583D02*
X0579994Y0278583D01*
X0579510Y0279067D01*
X0578499Y0278583D02*
X0576564Y0278583D01*
X0577531Y0278583D02*
X0577531Y0281486D01*
X0578499Y0280518D01*
X0579510Y0281002D02*
X0579994Y0281486D01*
X0580961Y0281486D01*
X0581445Y0281002D01*
X0581445Y0279067D01*
X0580961Y0278583D01*
X0575552Y0278583D02*
X0573617Y0280518D01*
X0573617Y0281002D01*
X0574101Y0281486D01*
X0575068Y0281486D01*
X0575552Y0281002D01*
X0575552Y0278583D02*
X0573617Y0278583D01*
X0584745Y0284583D02*
X0587648Y0284583D01*
X0587648Y0286034D01*
X0587164Y0286518D01*
X0586196Y0286518D01*
X0585713Y0286034D01*
X0585713Y0284583D01*
X0585713Y0285551D02*
X0584745Y0286518D01*
X0584745Y0287530D02*
X0584745Y0289465D01*
X0584745Y0288497D02*
X0587648Y0288497D01*
X0586680Y0287530D01*
X0618245Y0312067D02*
X0618245Y0313034D01*
X0618729Y0313518D01*
X0618245Y0314530D02*
X0620180Y0316465D01*
X0620664Y0316465D01*
X0621148Y0315981D01*
X0621148Y0315013D01*
X0620664Y0314530D01*
X0620664Y0313518D02*
X0621148Y0313034D01*
X0621148Y0312067D01*
X0620664Y0311583D01*
X0618729Y0311583D01*
X0618245Y0312067D01*
X0618245Y0314530D02*
X0618245Y0316465D01*
X0618729Y0317476D02*
X0620664Y0319411D01*
X0618729Y0319411D01*
X0618245Y0318927D01*
X0618245Y0317960D01*
X0618729Y0317476D01*
X0620664Y0317476D01*
X0621148Y0317960D01*
X0621148Y0318927D01*
X0620664Y0319411D01*
X0627245Y0318927D02*
X0630148Y0318927D01*
X0628696Y0317476D01*
X0628696Y0319411D01*
X0628213Y0316465D02*
X0627729Y0316465D01*
X0627245Y0315981D01*
X0627245Y0315013D01*
X0627729Y0314530D01*
X0627245Y0313518D02*
X0628213Y0312551D01*
X0628213Y0313034D02*
X0628213Y0311583D01*
X0627245Y0311583D02*
X0630148Y0311583D01*
X0630148Y0313034D01*
X0629664Y0313518D01*
X0628696Y0313518D01*
X0628213Y0313034D01*
X0629664Y0314530D02*
X0630148Y0315013D01*
X0630148Y0315981D01*
X0629664Y0316465D01*
X0629180Y0316465D01*
X0628696Y0315981D01*
X0628213Y0316465D01*
X0628696Y0315981D02*
X0628696Y0315497D01*
X0682745Y0315013D02*
X0683229Y0314530D01*
X0682745Y0315013D02*
X0682745Y0315981D01*
X0683229Y0316465D01*
X0684196Y0316465D01*
X0684680Y0315981D01*
X0684680Y0315497D01*
X0684196Y0314530D01*
X0685648Y0314530D01*
X0685648Y0316465D01*
X0685164Y0317476D02*
X0683229Y0317476D01*
X0685164Y0319411D01*
X0683229Y0319411D01*
X0682745Y0318927D01*
X0682745Y0317960D01*
X0683229Y0317476D01*
X0685164Y0317476D02*
X0685648Y0317960D01*
X0685648Y0318927D01*
X0685164Y0319411D01*
X0685164Y0313518D02*
X0685648Y0313034D01*
X0685648Y0312067D01*
X0685164Y0311583D01*
X0683229Y0311583D01*
X0682745Y0312067D01*
X0682745Y0313034D01*
X0683229Y0313518D01*
X0691245Y0313518D02*
X0692213Y0312551D01*
X0692213Y0313034D02*
X0692213Y0311583D01*
X0691245Y0311583D02*
X0694148Y0311583D01*
X0694148Y0313034D01*
X0693664Y0313518D01*
X0692696Y0313518D01*
X0692213Y0313034D01*
X0692696Y0314530D02*
X0692696Y0316465D01*
X0692696Y0317476D02*
X0691729Y0317476D01*
X0691245Y0317960D01*
X0691245Y0318927D01*
X0691729Y0319411D01*
X0692213Y0319411D01*
X0692696Y0318927D01*
X0692696Y0317476D01*
X0693664Y0318444D01*
X0694148Y0319411D01*
X0694148Y0315981D02*
X0691245Y0315981D01*
X0692696Y0314530D02*
X0694148Y0315981D01*
X0691948Y0240572D02*
X0691464Y0240572D01*
X0689529Y0238637D01*
X0689045Y0238637D01*
X0689045Y0237141D02*
X0691948Y0237141D01*
X0690496Y0235690D01*
X0690496Y0237625D01*
X0691948Y0238637D02*
X0691948Y0240572D01*
X0691464Y0234678D02*
X0690496Y0234678D01*
X0690013Y0234195D01*
X0690013Y0232744D01*
X0690013Y0233711D02*
X0689045Y0234678D01*
X0689045Y0232744D02*
X0691948Y0232744D01*
X0691948Y0234195D01*
X0691464Y0234678D01*
X0681948Y0234195D02*
X0681948Y0233227D01*
X0681464Y0232744D01*
X0679529Y0232744D01*
X0679045Y0233227D01*
X0679045Y0234195D01*
X0679529Y0234678D01*
X0679529Y0235690D02*
X0679045Y0236174D01*
X0679045Y0237141D01*
X0679529Y0237625D01*
X0680496Y0237625D01*
X0680980Y0237141D01*
X0680980Y0236658D01*
X0680496Y0235690D01*
X0681948Y0235690D01*
X0681948Y0237625D01*
X0680980Y0238637D02*
X0681948Y0239604D01*
X0679045Y0239604D01*
X0679045Y0238637D02*
X0679045Y0240572D01*
X0681464Y0234678D02*
X0681948Y0234195D01*
X0684196Y0223411D02*
X0684196Y0221476D01*
X0685648Y0222927D01*
X0682745Y0222927D01*
X0683229Y0220465D02*
X0682745Y0219981D01*
X0682745Y0219013D01*
X0683229Y0218530D01*
X0684196Y0218530D02*
X0684680Y0219497D01*
X0684680Y0219981D01*
X0684196Y0220465D01*
X0683229Y0220465D01*
X0684196Y0218530D02*
X0685648Y0218530D01*
X0685648Y0220465D01*
X0685164Y0217518D02*
X0685648Y0217034D01*
X0685648Y0216067D01*
X0685164Y0215583D01*
X0683229Y0215583D01*
X0682745Y0216067D01*
X0682745Y0217034D01*
X0683229Y0217518D01*
X0692245Y0217518D02*
X0693213Y0216551D01*
X0693213Y0217034D02*
X0693213Y0215583D01*
X0692245Y0215583D02*
X0695148Y0215583D01*
X0695148Y0217034D01*
X0694664Y0217518D01*
X0693696Y0217518D01*
X0693213Y0217034D01*
X0693696Y0218530D02*
X0694180Y0219497D01*
X0694180Y0219981D01*
X0693696Y0220465D01*
X0692729Y0220465D01*
X0692245Y0219981D01*
X0692245Y0219013D01*
X0692729Y0218530D01*
X0693696Y0218530D02*
X0695148Y0218530D01*
X0695148Y0220465D01*
X0694664Y0221476D02*
X0695148Y0221960D01*
X0695148Y0222927D01*
X0694664Y0223411D01*
X0692729Y0221476D01*
X0692245Y0221960D01*
X0692245Y0222927D01*
X0692729Y0223411D01*
X0694664Y0223411D01*
X0694664Y0221476D02*
X0692729Y0221476D01*
X0743545Y0233227D02*
X0744029Y0232744D01*
X0745964Y0232744D01*
X0746448Y0233227D01*
X0746448Y0234195D01*
X0745964Y0234678D01*
X0746448Y0235690D02*
X0746448Y0237625D01*
X0745964Y0237625D01*
X0744029Y0235690D01*
X0743545Y0235690D01*
X0744029Y0234678D02*
X0743545Y0234195D01*
X0743545Y0233227D01*
X0744029Y0238637D02*
X0743545Y0239120D01*
X0743545Y0240088D01*
X0744029Y0240572D01*
X0744996Y0240572D01*
X0745480Y0240088D01*
X0745480Y0239604D01*
X0744996Y0238637D01*
X0746448Y0238637D01*
X0746448Y0240572D01*
X0754545Y0240088D02*
X0755029Y0240572D01*
X0756964Y0240572D01*
X0757448Y0240088D01*
X0757448Y0239120D01*
X0756964Y0238637D01*
X0756480Y0238637D01*
X0755996Y0239120D01*
X0755996Y0240572D01*
X0754545Y0240088D02*
X0754545Y0239120D01*
X0755029Y0238637D01*
X0755029Y0237625D02*
X0754545Y0237141D01*
X0754545Y0236174D01*
X0755029Y0235690D01*
X0755996Y0235690D02*
X0756480Y0236658D01*
X0756480Y0237141D01*
X0755996Y0237625D01*
X0755029Y0237625D01*
X0755996Y0235690D02*
X0757448Y0235690D01*
X0757448Y0237625D01*
X0756964Y0234678D02*
X0755996Y0234678D01*
X0755513Y0234195D01*
X0755513Y0232744D01*
X0755513Y0233711D02*
X0754545Y0234678D01*
X0754545Y0232744D02*
X0757448Y0232744D01*
X0757448Y0234195D01*
X0756964Y0234678D01*
X0756245Y0223411D02*
X0756245Y0221476D01*
X0758180Y0223411D01*
X0758664Y0223411D01*
X0759148Y0222927D01*
X0759148Y0221960D01*
X0758664Y0221476D01*
X0759148Y0220465D02*
X0758664Y0219497D01*
X0757696Y0218530D01*
X0757696Y0219981D01*
X0757213Y0220465D01*
X0756729Y0220465D01*
X0756245Y0219981D01*
X0756245Y0219013D01*
X0756729Y0218530D01*
X0757696Y0218530D01*
X0757696Y0217518D02*
X0757213Y0217034D01*
X0757213Y0215583D01*
X0757213Y0216551D02*
X0756245Y0217518D01*
X0757696Y0217518D02*
X0758664Y0217518D01*
X0759148Y0217034D01*
X0759148Y0215583D01*
X0756245Y0215583D01*
X0750148Y0216067D02*
X0749664Y0215583D01*
X0747729Y0215583D01*
X0747245Y0216067D01*
X0747245Y0217034D01*
X0747729Y0217518D01*
X0747729Y0218530D02*
X0747245Y0218530D01*
X0747729Y0218530D02*
X0749664Y0220465D01*
X0750148Y0220465D01*
X0750148Y0218530D01*
X0749664Y0217518D02*
X0750148Y0217034D01*
X0750148Y0216067D01*
X0749664Y0221476D02*
X0749180Y0221476D01*
X0748696Y0221960D01*
X0748696Y0222927D01*
X0748213Y0223411D01*
X0747729Y0223411D01*
X0747245Y0222927D01*
X0747245Y0221960D01*
X0747729Y0221476D01*
X0748213Y0221476D01*
X0748696Y0221960D01*
X0748696Y0222927D02*
X0749180Y0223411D01*
X0749664Y0223411D01*
X0750148Y0222927D01*
X0750148Y0221960D01*
X0749664Y0221476D01*
X0716148Y0191981D02*
X0715664Y0192465D01*
X0715180Y0192465D01*
X0714696Y0191981D01*
X0714696Y0191013D01*
X0715180Y0190530D01*
X0715664Y0190530D01*
X0716148Y0191013D01*
X0716148Y0191981D01*
X0714696Y0191981D02*
X0714213Y0192465D01*
X0713729Y0192465D01*
X0713245Y0191981D01*
X0713245Y0191013D01*
X0713729Y0190530D01*
X0714213Y0190530D01*
X0714696Y0191013D01*
X0714696Y0189518D02*
X0714213Y0189034D01*
X0714213Y0187583D01*
X0714213Y0188551D02*
X0713245Y0189518D01*
X0714696Y0189518D02*
X0715664Y0189518D01*
X0716148Y0189034D01*
X0716148Y0187583D01*
X0713245Y0187583D01*
X0709445Y0185502D02*
X0709445Y0183567D01*
X0708961Y0183083D01*
X0707994Y0183083D01*
X0707510Y0183567D01*
X0706499Y0183567D02*
X0706015Y0183083D01*
X0705047Y0183083D01*
X0704564Y0183567D01*
X0704564Y0184051D01*
X0705047Y0184534D01*
X0706499Y0184534D01*
X0706499Y0183567D01*
X0706499Y0184534D02*
X0705531Y0185502D01*
X0704564Y0185986D01*
X0703552Y0184534D02*
X0702101Y0184534D01*
X0701617Y0184051D01*
X0701617Y0183567D01*
X0702101Y0183083D01*
X0703068Y0183083D01*
X0703552Y0183567D01*
X0703552Y0184534D01*
X0702585Y0185502D01*
X0701617Y0185986D01*
X0707510Y0185502D02*
X0707994Y0185986D01*
X0708961Y0185986D01*
X0709445Y0185502D01*
X0708961Y0176486D02*
X0709445Y0176002D01*
X0709445Y0174067D01*
X0708961Y0173583D01*
X0707994Y0173583D01*
X0707510Y0174067D01*
X0706499Y0174067D02*
X0706015Y0173583D01*
X0705047Y0173583D01*
X0704564Y0174067D01*
X0704564Y0174551D01*
X0705047Y0175034D01*
X0706499Y0175034D01*
X0706499Y0174067D01*
X0706499Y0175034D02*
X0705531Y0176002D01*
X0704564Y0176486D01*
X0703552Y0176002D02*
X0703068Y0176486D01*
X0702101Y0176486D01*
X0701617Y0176002D01*
X0701617Y0175518D01*
X0703552Y0173583D01*
X0701617Y0173583D01*
X0707510Y0176002D02*
X0707994Y0176486D01*
X0708961Y0176486D01*
X0712545Y0171088D02*
X0715448Y0171088D01*
X0713996Y0169637D01*
X0713996Y0171572D01*
X0714480Y0168625D02*
X0714964Y0168625D01*
X0715448Y0168141D01*
X0715448Y0167174D01*
X0714964Y0166690D01*
X0714964Y0165678D02*
X0713996Y0165678D01*
X0713513Y0165195D01*
X0713513Y0163744D01*
X0713513Y0164711D02*
X0712545Y0165678D01*
X0712545Y0166690D02*
X0714480Y0168625D01*
X0712545Y0168625D02*
X0712545Y0166690D01*
X0714964Y0165678D02*
X0715448Y0165195D01*
X0715448Y0163744D01*
X0712545Y0163744D01*
X0692448Y0144104D02*
X0689545Y0144104D01*
X0689545Y0143137D02*
X0689545Y0145072D01*
X0691480Y0143137D02*
X0692448Y0144104D01*
X0692448Y0142125D02*
X0692448Y0140190D01*
X0690996Y0140190D01*
X0691480Y0141158D01*
X0691480Y0141641D01*
X0690996Y0142125D01*
X0690029Y0142125D01*
X0689545Y0141641D01*
X0689545Y0140674D01*
X0690029Y0140190D01*
X0689545Y0139178D02*
X0690513Y0138211D01*
X0690513Y0138695D02*
X0690513Y0137244D01*
X0689545Y0137244D02*
X0692448Y0137244D01*
X0692448Y0138695D01*
X0691964Y0139178D01*
X0690996Y0139178D01*
X0690513Y0138695D01*
X0682448Y0138195D02*
X0682448Y0137227D01*
X0681964Y0136744D01*
X0680029Y0136744D01*
X0679545Y0137227D01*
X0679545Y0138195D01*
X0680029Y0138678D01*
X0680029Y0139690D02*
X0679545Y0140174D01*
X0679545Y0141141D01*
X0680029Y0141625D01*
X0680996Y0141625D01*
X0681480Y0141141D01*
X0681480Y0140658D01*
X0680996Y0139690D01*
X0682448Y0139690D01*
X0682448Y0141625D01*
X0682448Y0142637D02*
X0680996Y0142637D01*
X0681480Y0143604D01*
X0681480Y0144088D01*
X0680996Y0144572D01*
X0680029Y0144572D01*
X0679545Y0144088D01*
X0679545Y0143120D01*
X0680029Y0142637D01*
X0682448Y0142637D02*
X0682448Y0144572D01*
X0681964Y0138678D02*
X0682448Y0138195D01*
X0682729Y0127411D02*
X0682245Y0126927D01*
X0682245Y0125960D01*
X0682729Y0125476D01*
X0683213Y0125476D01*
X0683696Y0125960D01*
X0683696Y0126927D01*
X0683213Y0127411D01*
X0682729Y0127411D01*
X0683696Y0126927D02*
X0684180Y0127411D01*
X0684664Y0127411D01*
X0685148Y0126927D01*
X0685148Y0125960D01*
X0684664Y0125476D01*
X0684180Y0125476D01*
X0683696Y0125960D01*
X0683696Y0124465D02*
X0682729Y0124465D01*
X0682245Y0123981D01*
X0682245Y0123013D01*
X0682729Y0122530D01*
X0683696Y0122530D02*
X0684180Y0123497D01*
X0684180Y0123981D01*
X0683696Y0124465D01*
X0685148Y0124465D02*
X0685148Y0122530D01*
X0683696Y0122530D01*
X0682729Y0121518D02*
X0682245Y0121034D01*
X0682245Y0120067D01*
X0682729Y0119583D01*
X0684664Y0119583D01*
X0685148Y0120067D01*
X0685148Y0121034D01*
X0684664Y0121518D01*
X0691745Y0121518D02*
X0692713Y0120551D01*
X0692713Y0121034D02*
X0692713Y0119583D01*
X0691745Y0119583D02*
X0694648Y0119583D01*
X0694648Y0121034D01*
X0694164Y0121518D01*
X0693196Y0121518D01*
X0692713Y0121034D01*
X0693196Y0122530D02*
X0693680Y0123497D01*
X0693680Y0123981D01*
X0693196Y0124465D01*
X0692229Y0124465D01*
X0691745Y0123981D01*
X0691745Y0123013D01*
X0692229Y0122530D01*
X0693196Y0122530D02*
X0694648Y0122530D01*
X0694648Y0124465D01*
X0693196Y0125476D02*
X0693196Y0127411D01*
X0691745Y0126927D02*
X0694648Y0126927D01*
X0693196Y0125476D01*
X0744045Y0137227D02*
X0744045Y0138195D01*
X0744529Y0138678D01*
X0744529Y0139690D02*
X0744045Y0139690D01*
X0744529Y0139690D02*
X0746464Y0141625D01*
X0746948Y0141625D01*
X0746948Y0139690D01*
X0746464Y0138678D02*
X0746948Y0138195D01*
X0746948Y0137227D01*
X0746464Y0136744D01*
X0744529Y0136744D01*
X0744045Y0137227D01*
X0753545Y0136744D02*
X0756448Y0136744D01*
X0756448Y0138195D01*
X0755964Y0138678D01*
X0754996Y0138678D01*
X0754513Y0138195D01*
X0754513Y0136744D01*
X0754513Y0137711D02*
X0753545Y0138678D01*
X0754029Y0139690D02*
X0753545Y0140174D01*
X0753545Y0141141D01*
X0754029Y0141625D01*
X0754513Y0141625D01*
X0754996Y0141141D01*
X0754996Y0139690D01*
X0754029Y0139690D01*
X0754996Y0139690D02*
X0755964Y0140658D01*
X0756448Y0141625D01*
X0755964Y0142637D02*
X0756448Y0143120D01*
X0756448Y0144088D01*
X0755964Y0144572D01*
X0755480Y0144572D01*
X0754996Y0144088D01*
X0754513Y0144572D01*
X0754029Y0144572D01*
X0753545Y0144088D01*
X0753545Y0143120D01*
X0754029Y0142637D01*
X0754996Y0143604D02*
X0754996Y0144088D01*
X0746948Y0144088D02*
X0746948Y0143120D01*
X0746464Y0142637D01*
X0745980Y0142637D01*
X0745496Y0143120D01*
X0745496Y0144572D01*
X0744529Y0144572D02*
X0746464Y0144572D01*
X0746948Y0144088D01*
X0744529Y0144572D02*
X0744045Y0144088D01*
X0744045Y0143120D01*
X0744529Y0142637D01*
X0652948Y0164744D02*
X0652948Y0166195D01*
X0652464Y0166678D01*
X0651496Y0166678D01*
X0651013Y0166195D01*
X0651013Y0164744D01*
X0651013Y0165711D02*
X0650045Y0166678D01*
X0650045Y0167690D02*
X0651980Y0169625D01*
X0652464Y0169625D01*
X0652948Y0169141D01*
X0652948Y0168174D01*
X0652464Y0167690D01*
X0650045Y0167690D02*
X0650045Y0169625D01*
X0650045Y0170637D02*
X0650045Y0172572D01*
X0650045Y0171604D02*
X0652948Y0171604D01*
X0651980Y0170637D01*
X0652948Y0164744D02*
X0650045Y0164744D01*
X0644961Y0173583D02*
X0643994Y0173583D01*
X0643510Y0174067D01*
X0642499Y0174067D02*
X0642015Y0173583D01*
X0641047Y0173583D01*
X0640564Y0174067D01*
X0640564Y0174551D01*
X0641047Y0175034D01*
X0641531Y0175034D01*
X0641047Y0175034D02*
X0640564Y0175518D01*
X0640564Y0176002D01*
X0641047Y0176486D01*
X0642015Y0176486D01*
X0642499Y0176002D01*
X0643510Y0176002D02*
X0643994Y0176486D01*
X0644961Y0176486D01*
X0645445Y0176002D01*
X0645445Y0174067D01*
X0644961Y0173583D01*
X0639552Y0174067D02*
X0639068Y0173583D01*
X0638101Y0173583D01*
X0637617Y0174067D01*
X0637617Y0174551D01*
X0638101Y0175034D01*
X0638585Y0175034D01*
X0638101Y0175034D02*
X0637617Y0175518D01*
X0637617Y0176002D01*
X0638101Y0176486D01*
X0639068Y0176486D01*
X0639552Y0176002D01*
X0639068Y0182583D02*
X0638101Y0182583D01*
X0637617Y0183067D01*
X0637617Y0183551D01*
X0638101Y0184034D01*
X0639068Y0184034D01*
X0639552Y0184518D01*
X0639552Y0185002D01*
X0639068Y0185486D01*
X0638101Y0185486D01*
X0637617Y0185002D01*
X0637617Y0184518D01*
X0638101Y0184034D01*
X0639068Y0184034D02*
X0639552Y0183551D01*
X0639552Y0183067D01*
X0639068Y0182583D01*
X0640564Y0183067D02*
X0641047Y0182583D01*
X0642015Y0182583D01*
X0642499Y0183067D01*
X0643510Y0183067D02*
X0643994Y0182583D01*
X0644961Y0182583D01*
X0645445Y0183067D01*
X0645445Y0185002D01*
X0644961Y0185486D01*
X0643994Y0185486D01*
X0643510Y0185002D01*
X0642499Y0185002D02*
X0642015Y0185486D01*
X0641047Y0185486D01*
X0640564Y0185002D01*
X0640564Y0184518D01*
X0641047Y0184034D01*
X0640564Y0183551D01*
X0640564Y0183067D01*
X0641047Y0184034D02*
X0641531Y0184034D01*
X0649245Y0187583D02*
X0652148Y0187583D01*
X0652148Y0189034D01*
X0651664Y0189518D01*
X0650696Y0189518D01*
X0650213Y0189034D01*
X0650213Y0187583D01*
X0650213Y0188551D02*
X0649245Y0189518D01*
X0649729Y0190530D02*
X0649245Y0191013D01*
X0649245Y0191981D01*
X0649729Y0192465D01*
X0650696Y0192465D01*
X0651180Y0191981D01*
X0651180Y0191497D01*
X0650696Y0190530D01*
X0652148Y0190530D01*
X0652148Y0192465D01*
X0630648Y0215583D02*
X0627745Y0215583D01*
X0628713Y0215583D02*
X0628713Y0217034D01*
X0629196Y0217518D01*
X0630164Y0217518D01*
X0630648Y0217034D01*
X0630648Y0215583D01*
X0628713Y0216551D02*
X0627745Y0217518D01*
X0628229Y0218530D02*
X0627745Y0219013D01*
X0627745Y0219981D01*
X0628229Y0220465D01*
X0628713Y0220465D01*
X0629196Y0219981D01*
X0629196Y0219497D01*
X0629196Y0219981D02*
X0629680Y0220465D01*
X0630164Y0220465D01*
X0630648Y0219981D01*
X0630648Y0219013D01*
X0630164Y0218530D01*
X0630164Y0221476D02*
X0629680Y0221476D01*
X0629196Y0221960D01*
X0629196Y0222927D01*
X0628713Y0223411D01*
X0628229Y0223411D01*
X0627745Y0222927D01*
X0627745Y0221960D01*
X0628229Y0221476D01*
X0628713Y0221476D01*
X0629196Y0221960D01*
X0629196Y0222927D02*
X0629680Y0223411D01*
X0630164Y0223411D01*
X0630648Y0222927D01*
X0630648Y0221960D01*
X0630164Y0221476D01*
X0621648Y0222927D02*
X0620196Y0221476D01*
X0620196Y0223411D01*
X0618745Y0222927D02*
X0621648Y0222927D01*
X0621164Y0220465D02*
X0621648Y0219981D01*
X0621648Y0219013D01*
X0621164Y0218530D01*
X0621164Y0217518D02*
X0621648Y0217034D01*
X0621648Y0216067D01*
X0621164Y0215583D01*
X0619229Y0215583D01*
X0618745Y0216067D01*
X0618745Y0217034D01*
X0619229Y0217518D01*
X0618745Y0218530D02*
X0620680Y0220465D01*
X0621164Y0220465D01*
X0618745Y0220465D02*
X0618745Y0218530D01*
X0617964Y0232744D02*
X0616029Y0232744D01*
X0615545Y0233227D01*
X0615545Y0234195D01*
X0616029Y0234678D01*
X0615545Y0235690D02*
X0617480Y0237625D01*
X0617964Y0237625D01*
X0618448Y0237141D01*
X0618448Y0236174D01*
X0617964Y0235690D01*
X0617964Y0234678D02*
X0618448Y0234195D01*
X0618448Y0233227D01*
X0617964Y0232744D01*
X0615545Y0235690D02*
X0615545Y0237625D01*
X0615545Y0238637D02*
X0615545Y0240572D01*
X0615545Y0239604D02*
X0618448Y0239604D01*
X0617480Y0238637D01*
X0625045Y0239120D02*
X0625529Y0238637D01*
X0625045Y0239120D02*
X0625045Y0240088D01*
X0625529Y0240572D01*
X0626496Y0240572D01*
X0626980Y0240088D01*
X0626980Y0239604D01*
X0626496Y0238637D01*
X0627948Y0238637D01*
X0627948Y0240572D01*
X0627464Y0237625D02*
X0626980Y0237625D01*
X0626496Y0237141D01*
X0626013Y0237625D01*
X0625529Y0237625D01*
X0625045Y0237141D01*
X0625045Y0236174D01*
X0625529Y0235690D01*
X0625045Y0234678D02*
X0626013Y0233711D01*
X0626013Y0234195D02*
X0626013Y0232744D01*
X0625045Y0232744D02*
X0627948Y0232744D01*
X0627948Y0234195D01*
X0627464Y0234678D01*
X0626496Y0234678D01*
X0626013Y0234195D01*
X0627464Y0235690D02*
X0627948Y0236174D01*
X0627948Y0237141D01*
X0627464Y0237625D01*
X0626496Y0237141D02*
X0626496Y0236658D01*
X0586664Y0191965D02*
X0587148Y0191481D01*
X0587148Y0190513D01*
X0586664Y0190030D01*
X0586664Y0189018D02*
X0585696Y0189018D01*
X0585213Y0188534D01*
X0585213Y0187083D01*
X0585213Y0188051D02*
X0584245Y0189018D01*
X0584245Y0190030D02*
X0586180Y0191965D01*
X0586664Y0191965D01*
X0584245Y0191965D02*
X0584245Y0190030D01*
X0586664Y0189018D02*
X0587148Y0188534D01*
X0587148Y0187083D01*
X0584245Y0187083D01*
X0581445Y0184502D02*
X0581445Y0182567D01*
X0580961Y0182083D01*
X0579994Y0182083D01*
X0579510Y0182567D01*
X0578499Y0182567D02*
X0578499Y0183051D01*
X0578015Y0183534D01*
X0577047Y0183534D01*
X0576564Y0183051D01*
X0576564Y0182567D01*
X0577047Y0182083D01*
X0578015Y0182083D01*
X0578499Y0182567D01*
X0578015Y0183534D02*
X0578499Y0184018D01*
X0578499Y0184502D01*
X0578015Y0184986D01*
X0577047Y0184986D01*
X0576564Y0184502D01*
X0576564Y0184018D01*
X0577047Y0183534D01*
X0579510Y0184502D02*
X0579994Y0184986D01*
X0580961Y0184986D01*
X0581445Y0184502D01*
X0580961Y0175986D02*
X0581445Y0175502D01*
X0581445Y0173567D01*
X0580961Y0173083D01*
X0579994Y0173083D01*
X0579510Y0173567D01*
X0578499Y0173567D02*
X0578015Y0173083D01*
X0577047Y0173083D01*
X0576564Y0173567D01*
X0576564Y0174051D01*
X0577047Y0174534D01*
X0577531Y0174534D01*
X0577047Y0174534D02*
X0576564Y0175018D01*
X0576564Y0175502D01*
X0577047Y0175986D01*
X0578015Y0175986D01*
X0578499Y0175502D01*
X0579510Y0175502D02*
X0579994Y0175986D01*
X0580961Y0175986D01*
X0584029Y0173072D02*
X0583545Y0172588D01*
X0583545Y0171620D01*
X0584029Y0171137D01*
X0584513Y0171137D01*
X0584996Y0171620D01*
X0584996Y0172588D01*
X0584513Y0173072D01*
X0584029Y0173072D01*
X0584996Y0172588D02*
X0585480Y0173072D01*
X0585964Y0173072D01*
X0586448Y0172588D01*
X0586448Y0171620D01*
X0585964Y0171137D01*
X0585480Y0171137D01*
X0584996Y0171620D01*
X0583545Y0170125D02*
X0583545Y0168190D01*
X0583545Y0169158D02*
X0586448Y0169158D01*
X0585480Y0168190D01*
X0584996Y0167178D02*
X0584513Y0166695D01*
X0584513Y0165244D01*
X0584513Y0166211D02*
X0583545Y0167178D01*
X0584996Y0167178D02*
X0585964Y0167178D01*
X0586448Y0166695D01*
X0586448Y0165244D01*
X0583545Y0165244D01*
X0615545Y0144088D02*
X0615545Y0143120D01*
X0616029Y0142637D01*
X0616996Y0142637D02*
X0617480Y0143604D01*
X0617480Y0144088D01*
X0616996Y0144572D01*
X0616029Y0144572D01*
X0615545Y0144088D01*
X0616996Y0142637D02*
X0618448Y0142637D01*
X0618448Y0144572D01*
X0617964Y0141625D02*
X0618448Y0141141D01*
X0618448Y0140174D01*
X0617964Y0139690D01*
X0617964Y0138678D02*
X0618448Y0138195D01*
X0618448Y0137227D01*
X0617964Y0136744D01*
X0616029Y0136744D01*
X0615545Y0137227D01*
X0615545Y0138195D01*
X0616029Y0138678D01*
X0615545Y0139690D02*
X0617480Y0141625D01*
X0617964Y0141625D01*
X0615545Y0141625D02*
X0615545Y0139690D01*
X0625545Y0140174D02*
X0626029Y0139690D01*
X0625545Y0140174D02*
X0625545Y0141141D01*
X0626029Y0141625D01*
X0626513Y0141625D01*
X0626996Y0141141D01*
X0626996Y0140658D01*
X0626996Y0141141D02*
X0627480Y0141625D01*
X0627964Y0141625D01*
X0628448Y0141141D01*
X0628448Y0140174D01*
X0627964Y0139690D01*
X0627964Y0138678D02*
X0626996Y0138678D01*
X0626513Y0138195D01*
X0626513Y0136744D01*
X0626513Y0137711D02*
X0625545Y0138678D01*
X0625545Y0136744D02*
X0628448Y0136744D01*
X0628448Y0138195D01*
X0627964Y0138678D01*
X0627964Y0142637D02*
X0627480Y0142637D01*
X0626996Y0143120D01*
X0626996Y0144572D01*
X0626029Y0144572D02*
X0627964Y0144572D01*
X0628448Y0144088D01*
X0628448Y0143120D01*
X0627964Y0142637D01*
X0626029Y0142637D02*
X0625545Y0143120D01*
X0625545Y0144088D01*
X0626029Y0144572D01*
X0628245Y0127411D02*
X0628245Y0125476D01*
X0630180Y0127411D01*
X0630664Y0127411D01*
X0631148Y0126927D01*
X0631148Y0125960D01*
X0630664Y0125476D01*
X0629696Y0124465D02*
X0629696Y0122530D01*
X0631148Y0123981D01*
X0628245Y0123981D01*
X0628245Y0121518D02*
X0629213Y0120551D01*
X0629213Y0121034D02*
X0629213Y0119583D01*
X0628245Y0119583D02*
X0631148Y0119583D01*
X0631148Y0121034D01*
X0630664Y0121518D01*
X0629696Y0121518D01*
X0629213Y0121034D01*
X0622148Y0121034D02*
X0622148Y0120067D01*
X0621664Y0119583D01*
X0619729Y0119583D01*
X0619245Y0120067D01*
X0619245Y0121034D01*
X0619729Y0121518D01*
X0619245Y0122530D02*
X0621180Y0124465D01*
X0621664Y0124465D01*
X0622148Y0123981D01*
X0622148Y0123013D01*
X0621664Y0122530D01*
X0621664Y0121518D02*
X0622148Y0121034D01*
X0619245Y0122530D02*
X0619245Y0124465D01*
X0619729Y0125476D02*
X0620213Y0125476D01*
X0620696Y0125960D01*
X0620696Y0126927D01*
X0620213Y0127411D01*
X0619729Y0127411D01*
X0619245Y0126927D01*
X0619245Y0125960D01*
X0619729Y0125476D01*
X0620696Y0125960D02*
X0621180Y0125476D01*
X0621664Y0125476D01*
X0622148Y0125960D01*
X0622148Y0126927D01*
X0621664Y0127411D01*
X0621180Y0127411D01*
X0620696Y0126927D01*
X0649729Y0096465D02*
X0650213Y0096465D01*
X0650696Y0095981D01*
X0650696Y0094530D01*
X0649729Y0094530D01*
X0649245Y0095013D01*
X0649245Y0095981D01*
X0649729Y0096465D01*
X0651664Y0095497D02*
X0652148Y0096465D01*
X0651664Y0095497D02*
X0650696Y0094530D01*
X0650696Y0093518D02*
X0650213Y0093034D01*
X0650213Y0091583D01*
X0650213Y0092551D02*
X0649245Y0093518D01*
X0650696Y0093518D02*
X0651664Y0093518D01*
X0652148Y0093034D01*
X0652148Y0091583D01*
X0649245Y0091583D01*
X0645445Y0088502D02*
X0645445Y0086567D01*
X0644961Y0086083D01*
X0643994Y0086083D01*
X0643510Y0086567D01*
X0642499Y0087534D02*
X0640564Y0087534D01*
X0639552Y0086567D02*
X0637617Y0088502D01*
X0637617Y0086567D01*
X0638101Y0086083D01*
X0639068Y0086083D01*
X0639552Y0086567D01*
X0639552Y0088502D01*
X0639068Y0088986D01*
X0638101Y0088986D01*
X0637617Y0088502D01*
X0641047Y0088986D02*
X0642499Y0087534D01*
X0643510Y0088502D02*
X0643994Y0088986D01*
X0644961Y0088986D01*
X0645445Y0088502D01*
X0641047Y0088986D02*
X0641047Y0086083D01*
X0641047Y0079986D02*
X0640564Y0079502D01*
X0640564Y0079018D01*
X0641047Y0078534D01*
X0640564Y0078051D01*
X0640564Y0077567D01*
X0641047Y0077083D01*
X0642015Y0077083D01*
X0642499Y0077567D01*
X0643510Y0077567D02*
X0643994Y0077083D01*
X0644961Y0077083D01*
X0645445Y0077567D01*
X0645445Y0079502D01*
X0644961Y0079986D01*
X0643994Y0079986D01*
X0643510Y0079502D01*
X0642499Y0079502D02*
X0642015Y0079986D01*
X0641047Y0079986D01*
X0641047Y0078534D02*
X0641531Y0078534D01*
X0639552Y0078534D02*
X0637617Y0078534D01*
X0638101Y0077083D02*
X0638101Y0079986D01*
X0639552Y0078534D01*
X0650045Y0076072D02*
X0650045Y0074137D01*
X0651980Y0076072D01*
X0652464Y0076072D01*
X0652948Y0075588D01*
X0652948Y0074620D01*
X0652464Y0074137D01*
X0652464Y0073125D02*
X0652948Y0072641D01*
X0652948Y0071674D01*
X0652464Y0071190D01*
X0652464Y0070178D02*
X0651496Y0070178D01*
X0651013Y0069695D01*
X0651013Y0068244D01*
X0651013Y0069211D02*
X0650045Y0070178D01*
X0650045Y0071190D02*
X0651980Y0073125D01*
X0652464Y0073125D01*
X0650045Y0073125D02*
X0650045Y0071190D01*
X0652464Y0070178D02*
X0652948Y0069695D01*
X0652948Y0068244D01*
X0650045Y0068244D01*
X0628448Y0048088D02*
X0627964Y0048572D01*
X0627480Y0048572D01*
X0626996Y0048088D01*
X0626513Y0048572D01*
X0626029Y0048572D01*
X0625545Y0048088D01*
X0625545Y0047120D01*
X0626029Y0046637D01*
X0626996Y0047604D02*
X0626996Y0048088D01*
X0628448Y0048088D02*
X0628448Y0047120D01*
X0627964Y0046637D01*
X0626996Y0045625D02*
X0626996Y0043690D01*
X0628448Y0045141D01*
X0625545Y0045141D01*
X0625545Y0042678D02*
X0626513Y0041711D01*
X0626513Y0042195D02*
X0626513Y0040744D01*
X0625545Y0040744D02*
X0628448Y0040744D01*
X0628448Y0042195D01*
X0627964Y0042678D01*
X0626996Y0042678D01*
X0626513Y0042195D01*
X0618448Y0042195D02*
X0618448Y0041227D01*
X0617964Y0040744D01*
X0616029Y0040744D01*
X0615545Y0041227D01*
X0615545Y0042195D01*
X0616029Y0042678D01*
X0615545Y0043690D02*
X0617480Y0045625D01*
X0617964Y0045625D01*
X0618448Y0045141D01*
X0618448Y0044174D01*
X0617964Y0043690D01*
X0617964Y0042678D02*
X0618448Y0042195D01*
X0615545Y0043690D02*
X0615545Y0045625D01*
X0616029Y0046637D02*
X0615545Y0047120D01*
X0615545Y0048088D01*
X0616029Y0048572D01*
X0617964Y0048572D01*
X0618448Y0048088D01*
X0618448Y0047120D01*
X0617964Y0046637D01*
X0617480Y0046637D01*
X0616996Y0047120D01*
X0616996Y0048572D01*
X0587948Y0068244D02*
X0585045Y0068244D01*
X0586013Y0068244D02*
X0586013Y0069695D01*
X0586496Y0070178D01*
X0587464Y0070178D01*
X0587948Y0069695D01*
X0587948Y0068244D01*
X0586013Y0069211D02*
X0585045Y0070178D01*
X0585045Y0071190D02*
X0585045Y0073125D01*
X0585045Y0072158D02*
X0587948Y0072158D01*
X0586980Y0071190D01*
X0586980Y0074137D02*
X0586496Y0074620D01*
X0586496Y0076072D01*
X0585529Y0076072D02*
X0587464Y0076072D01*
X0587948Y0075588D01*
X0587948Y0074620D01*
X0587464Y0074137D01*
X0586980Y0074137D01*
X0585529Y0074137D02*
X0585045Y0074620D01*
X0585045Y0075588D01*
X0585529Y0076072D01*
X0581445Y0078067D02*
X0580961Y0077583D01*
X0579994Y0077583D01*
X0579510Y0078067D01*
X0578499Y0079034D02*
X0576564Y0079034D01*
X0577047Y0077583D02*
X0577047Y0080486D01*
X0578499Y0079034D01*
X0579510Y0080002D02*
X0579994Y0080486D01*
X0580961Y0080486D01*
X0581445Y0080002D01*
X0581445Y0078067D01*
X0580961Y0088083D02*
X0579994Y0088083D01*
X0579510Y0088567D01*
X0578499Y0088083D02*
X0576564Y0088083D01*
X0577531Y0088083D02*
X0577531Y0090986D01*
X0578499Y0090018D01*
X0579510Y0090502D02*
X0579994Y0090986D01*
X0580961Y0090986D01*
X0581445Y0090502D01*
X0581445Y0088567D01*
X0580961Y0088083D01*
X0584245Y0091583D02*
X0587148Y0091583D01*
X0587148Y0093034D01*
X0586664Y0093518D01*
X0585696Y0093518D01*
X0585213Y0093034D01*
X0585213Y0091583D01*
X0585213Y0092551D02*
X0584245Y0093518D01*
X0584729Y0094530D02*
X0584245Y0095013D01*
X0584245Y0095981D01*
X0584729Y0096465D01*
X0585213Y0096465D01*
X0585696Y0095981D01*
X0585696Y0095497D01*
X0585696Y0095981D02*
X0586180Y0096465D01*
X0586664Y0096465D01*
X0587148Y0095981D01*
X0587148Y0095013D01*
X0586664Y0094530D01*
X0575552Y0090502D02*
X0575068Y0090986D01*
X0574101Y0090986D01*
X0573617Y0090502D01*
X0575552Y0088567D01*
X0575068Y0088083D01*
X0574101Y0088083D01*
X0573617Y0088567D01*
X0573617Y0090502D01*
X0575552Y0090502D02*
X0575552Y0088567D01*
X0681045Y0048088D02*
X0681529Y0048572D01*
X0683464Y0048572D01*
X0683948Y0048088D01*
X0683948Y0047120D01*
X0683464Y0046637D01*
X0682980Y0046637D01*
X0682496Y0047120D01*
X0682496Y0048572D01*
X0681045Y0048088D02*
X0681045Y0047120D01*
X0681529Y0046637D01*
X0681529Y0045625D02*
X0681045Y0045141D01*
X0681045Y0044174D01*
X0681529Y0043690D01*
X0682496Y0043690D02*
X0682980Y0044658D01*
X0682980Y0045141D01*
X0682496Y0045625D01*
X0681529Y0045625D01*
X0682496Y0043690D02*
X0683948Y0043690D01*
X0683948Y0045625D01*
X0683464Y0042678D02*
X0683948Y0042195D01*
X0683948Y0041227D01*
X0683464Y0040744D01*
X0681529Y0040744D01*
X0681045Y0041227D01*
X0681045Y0042195D01*
X0681529Y0042678D01*
X0690045Y0042678D02*
X0691013Y0041711D01*
X0691013Y0042195D02*
X0691013Y0040744D01*
X0690045Y0040744D02*
X0692948Y0040744D01*
X0692948Y0042195D01*
X0692464Y0042678D01*
X0691496Y0042678D01*
X0691013Y0042195D01*
X0691496Y0043690D02*
X0691980Y0044658D01*
X0691980Y0045141D01*
X0691496Y0045625D01*
X0690529Y0045625D01*
X0690045Y0045141D01*
X0690045Y0044174D01*
X0690529Y0043690D01*
X0691496Y0043690D02*
X0692948Y0043690D01*
X0692948Y0045625D01*
X0692948Y0046637D02*
X0691496Y0046637D01*
X0691980Y0047604D01*
X0691980Y0048088D01*
X0691496Y0048572D01*
X0690529Y0048572D01*
X0690045Y0048088D01*
X0690045Y0047120D01*
X0690529Y0046637D01*
X0692948Y0046637D02*
X0692948Y0048572D01*
X0445477Y0090335D02*
X0443542Y0093238D01*
X0442530Y0093238D02*
X0440595Y0093238D01*
X0440595Y0092754D01*
X0442530Y0090819D01*
X0442530Y0090335D01*
X0443542Y0090335D02*
X0445477Y0093238D01*
X0421085Y0074650D02*
X0421085Y0073683D01*
X0420601Y0073199D01*
X0420601Y0072187D02*
X0421085Y0071704D01*
X0421085Y0070252D01*
X0418182Y0070252D01*
X0418182Y0071704D01*
X0418666Y0072187D01*
X0420601Y0072187D01*
X0421085Y0074650D02*
X0420601Y0075134D01*
X0420117Y0075134D01*
X0418182Y0073199D01*
X0418182Y0075134D01*
X0310945Y0087067D02*
X0310461Y0086583D01*
X0309494Y0086583D01*
X0309010Y0087067D01*
X0307999Y0087067D02*
X0307515Y0086583D01*
X0306547Y0086583D01*
X0306064Y0087067D01*
X0306064Y0089002D01*
X0306547Y0089486D01*
X0307515Y0089486D01*
X0307999Y0089002D01*
X0307999Y0088518D01*
X0307515Y0088034D01*
X0306064Y0088034D01*
X0305052Y0087067D02*
X0303117Y0089002D01*
X0303117Y0087067D01*
X0303601Y0086583D01*
X0304568Y0086583D01*
X0305052Y0087067D01*
X0305052Y0089002D01*
X0304568Y0089486D01*
X0303601Y0089486D01*
X0303117Y0089002D01*
X0309010Y0089002D02*
X0309494Y0089486D01*
X0310461Y0089486D01*
X0310945Y0089002D01*
X0310945Y0087067D01*
X0308961Y0059486D02*
X0309445Y0059002D01*
X0309445Y0057067D01*
X0308961Y0056583D01*
X0307994Y0056583D01*
X0307510Y0057067D01*
X0306499Y0057067D02*
X0306499Y0057551D01*
X0306015Y0058034D01*
X0305047Y0058034D01*
X0304564Y0057551D01*
X0304564Y0057067D01*
X0305047Y0056583D01*
X0306015Y0056583D01*
X0306499Y0057067D01*
X0306015Y0058034D02*
X0306499Y0058518D01*
X0306499Y0059002D01*
X0306015Y0059486D01*
X0305047Y0059486D01*
X0304564Y0059002D01*
X0304564Y0058518D01*
X0305047Y0058034D01*
X0303552Y0058518D02*
X0303068Y0058034D01*
X0301617Y0058034D01*
X0301617Y0057067D02*
X0301617Y0059002D01*
X0302101Y0059486D01*
X0303068Y0059486D01*
X0303552Y0059002D01*
X0303552Y0058518D01*
X0303552Y0057067D02*
X0303068Y0056583D01*
X0302101Y0056583D01*
X0301617Y0057067D01*
X0307510Y0059002D02*
X0307994Y0059486D01*
X0308961Y0059486D01*
D19*
X0627089Y0060854D03*
X0627089Y0055054D03*
X0691089Y0055054D03*
X0691089Y0060854D03*
X0693601Y0108013D03*
X0693601Y0113813D03*
X0629601Y0113813D03*
X0629601Y0108013D03*
X0627089Y0151054D03*
X0627089Y0156854D03*
X0691089Y0156854D03*
X0691089Y0151054D03*
X0755089Y0151054D03*
X0755089Y0156854D03*
X0757601Y0204013D03*
X0757601Y0209813D03*
X0693601Y0209813D03*
X0693601Y0204013D03*
X0629601Y0204013D03*
X0629601Y0209813D03*
X0626589Y0247054D03*
X0626589Y0252854D03*
X0690589Y0252854D03*
X0690589Y0247054D03*
X0754589Y0247054D03*
X0754589Y0252854D03*
X0757101Y0300013D03*
X0757101Y0305813D03*
X0693101Y0305813D03*
X0693101Y0300013D03*
X0629101Y0300013D03*
X0629101Y0305813D03*
D20*
X0649986Y0277914D03*
X0653186Y0277914D03*
X0653186Y0272914D03*
X0649986Y0272914D03*
X0589186Y0272914D03*
X0585986Y0272914D03*
X0585986Y0278414D03*
X0589186Y0278414D03*
X0713986Y0278414D03*
X0717186Y0278414D03*
X0717186Y0273414D03*
X0713986Y0273414D03*
X0714486Y0182414D03*
X0717686Y0182414D03*
X0717686Y0177414D03*
X0714486Y0177414D03*
X0653686Y0177414D03*
X0650486Y0177414D03*
X0650486Y0182414D03*
X0653686Y0182414D03*
X0589686Y0181914D03*
X0586486Y0181914D03*
X0586486Y0176914D03*
X0589686Y0176914D03*
X0589686Y0085914D03*
X0586486Y0085914D03*
X0586486Y0080914D03*
X0589686Y0080914D03*
X0650486Y0080914D03*
X0653686Y0080914D03*
X0653686Y0085914D03*
X0650486Y0085914D03*
X0315186Y0083414D03*
X0311986Y0083414D03*
X0311486Y0053914D03*
X0314686Y0053914D03*
D21*
X0590614Y0070824D03*
X0590614Y0074024D03*
X0590576Y0092843D03*
X0590576Y0096043D03*
X0655576Y0096543D03*
X0655576Y0093343D03*
X0655614Y0074024D03*
X0655614Y0070824D03*
X0655614Y0166824D03*
X0655614Y0170024D03*
X0655576Y0189343D03*
X0655576Y0192543D03*
X0590576Y0192543D03*
X0590576Y0189343D03*
X0589614Y0170024D03*
X0589614Y0166824D03*
X0719614Y0166824D03*
X0719614Y0170024D03*
X0719576Y0189343D03*
X0719576Y0192543D03*
X0719114Y0263324D03*
X0719114Y0266524D03*
X0719076Y0285343D03*
X0719076Y0288543D03*
X0655076Y0288543D03*
X0655076Y0285343D03*
X0655114Y0266024D03*
X0655114Y0262824D03*
X0591114Y0262824D03*
X0591114Y0266024D03*
X0591076Y0285843D03*
X0591076Y0289043D03*
D22*
X0324247Y0070556D02*
X0323930Y0069922D01*
X0323296Y0069288D01*
X0323296Y0070239D01*
X0322979Y0070556D01*
X0322662Y0070556D01*
X0322345Y0070239D01*
X0322345Y0069605D01*
X0322662Y0069288D01*
X0323296Y0069288D01*
X0323613Y0068346D02*
X0323930Y0068346D01*
X0324247Y0068029D01*
X0324247Y0067395D01*
X0323930Y0067078D01*
X0324247Y0066136D02*
X0322662Y0066136D01*
X0322345Y0065819D01*
X0322345Y0065185D01*
X0322662Y0064868D01*
X0324247Y0064868D01*
X0322345Y0067078D02*
X0323613Y0068346D01*
X0322345Y0068346D02*
X0322345Y0067078D01*
D23*
X0422839Y0068102D02*
X0428351Y0068102D01*
X0428351Y0076764D01*
X0422839Y0076764D01*
X0422839Y0068102D01*
X0424239Y0058866D02*
X0424239Y0088000D01*
X0446877Y0088000D01*
X0446877Y0058866D01*
X0424239Y0058866D01*
D24*
X0444682Y0068315D02*
X0444682Y0078551D01*
X0446650Y0078551D01*
X0446650Y0068315D02*
X0444682Y0068315D01*
D25*
X0425497Y0066232D03*
X0425497Y0078634D03*
D26*
X0425694Y0070071D03*
M02*
