G75*
%MOIN*%
%OFA0B0*%
%FSLAX25Y25*%
%IPPOS*%
%LPD*%
%AMOC8*
5,1,8,0,0,1.08239X$1,22.5*
%
%ADD10C,0.06000*%
%ADD11C,0.13843*%
%ADD12C,0.17000*%
%ADD13C,0.03575*%
%ADD14C,0.00787*%
%ADD15C,0.11811*%
%ADD16C,0.12268*%
%ADD17C,0.12661*%
%ADD18C,0.13055*%
%ADD19C,0.13449*%
%ADD20C,0.14236*%
%ADD21C,0.14630*%
%ADD22C,0.15024*%
D10*
X0076800Y0071700D03*
X0066800Y0077100D03*
X0076800Y0082600D03*
X0066800Y0088000D03*
X0076800Y0093400D03*
X0066800Y0098900D03*
X0076800Y0104300D03*
X0066800Y0109700D03*
X0076800Y0115200D03*
X0066800Y0120600D03*
X0076800Y0126000D03*
X0066800Y0131500D03*
X0076800Y0136900D03*
X0066800Y0142300D03*
X0076800Y0147800D03*
X0066800Y0153200D03*
X0076800Y0158600D03*
X0066800Y0164100D03*
X0076800Y0169500D03*
X0066800Y0174900D03*
X0076800Y0180400D03*
X0066800Y0185800D03*
X0076800Y0191200D03*
X0066800Y0196700D03*
X0076800Y0202100D03*
X0066800Y0207600D03*
X0076800Y0213000D03*
X0066800Y0218400D03*
X0076800Y0223900D03*
X0066800Y0229300D03*
X0076800Y0234700D03*
X0066800Y0240200D03*
X0076800Y0245600D03*
X0066800Y0251000D03*
X0076800Y0256500D03*
X0066800Y0261900D03*
X0076800Y0267300D03*
X0469300Y0045000D03*
X0479300Y0045000D03*
X0497300Y0045000D03*
X0507300Y0045000D03*
X0602300Y0071700D03*
X0612300Y0077100D03*
X0602300Y0082500D03*
X0612300Y0088000D03*
X0602300Y0093400D03*
X0612300Y0098800D03*
X0602300Y0104300D03*
X0612300Y0109700D03*
X0602300Y0115100D03*
X0612300Y0120600D03*
X0602300Y0126000D03*
X0612300Y0131500D03*
X0602300Y0136900D03*
X0612300Y0142300D03*
X0602300Y0147800D03*
X0612300Y0153200D03*
X0602300Y0158600D03*
X0612300Y0164100D03*
X0602300Y0169500D03*
X0612300Y0174900D03*
X0602300Y0180400D03*
X0612300Y0185800D03*
X0602300Y0191200D03*
X0612300Y0196700D03*
X0602300Y0202100D03*
X0612300Y0207500D03*
X0602300Y0213000D03*
X0612300Y0218400D03*
X0602300Y0223800D03*
X0612300Y0229300D03*
X0602300Y0234700D03*
X0612300Y0240100D03*
X0602300Y0245600D03*
X0612300Y0251000D03*
X0602300Y0256400D03*
X0612300Y0261900D03*
X0602300Y0267300D03*
D11*
X0501800Y0259500D03*
X0451800Y0259500D03*
X0401800Y0259500D03*
X0351800Y0259500D03*
X0301800Y0259500D03*
X0251800Y0259500D03*
X0201800Y0259500D03*
X0151800Y0259500D03*
X0151800Y0209500D03*
X0201800Y0209500D03*
X0251800Y0209500D03*
X0301800Y0209500D03*
X0351800Y0209500D03*
X0401800Y0209500D03*
X0451800Y0209500D03*
X0501300Y0209500D03*
X0501300Y0159500D03*
X0451800Y0159500D03*
X0401800Y0159500D03*
X0351800Y0159500D03*
X0301800Y0159500D03*
X0251800Y0159500D03*
X0201800Y0159500D03*
X0151800Y0159500D03*
X0151800Y0109500D03*
X0201800Y0109500D03*
X0251800Y0109500D03*
X0301800Y0109500D03*
X0351800Y0109500D03*
X0401800Y0109500D03*
X0451800Y0109500D03*
X0501300Y0109500D03*
X0218800Y0047500D03*
D12*
X0071800Y0044500D03*
X0607300Y0044500D03*
X0607300Y0294500D03*
X0071800Y0294500D03*
D13*
X0165800Y0231500D03*
X0217300Y0233000D03*
X0226800Y0241000D03*
X0096800Y0215000D03*
X0107800Y0180500D03*
X0115300Y0181000D03*
X0102300Y0172500D03*
X0118800Y0171000D03*
X0305300Y0080500D03*
X0359300Y0084500D03*
X0410300Y0088500D03*
X0462800Y0093000D03*
X0521800Y0094500D03*
X0539300Y0098000D03*
X0544800Y0098000D03*
X0549300Y0098000D03*
X0553800Y0098000D03*
X0558300Y0098000D03*
X0552300Y0108500D03*
X0546300Y0114500D03*
X0540300Y0109500D03*
X0540800Y0120500D03*
X0549300Y0125000D03*
X0549300Y0133500D03*
X0540300Y0140500D03*
X0546800Y0143500D03*
X0548300Y0149500D03*
X0540800Y0150500D03*
X0544800Y0159500D03*
X0549300Y0159500D03*
X0553800Y0159500D03*
X0558300Y0159500D03*
X0558300Y0171500D03*
X0540300Y0168500D03*
X0538300Y0160500D03*
X0540300Y0177500D03*
X0539300Y0186500D03*
X0544800Y0186500D03*
X0549300Y0186500D03*
X0553800Y0186500D03*
X0558300Y0186500D03*
X0552300Y0197000D03*
X0546300Y0203000D03*
X0540300Y0198000D03*
X0540800Y0209000D03*
X0549300Y0213500D03*
X0548800Y0222500D03*
X0539800Y0229500D03*
X0546300Y0232500D03*
X0547800Y0238500D03*
X0540300Y0239500D03*
X0544300Y0248500D03*
X0548800Y0248500D03*
X0553300Y0248500D03*
X0559800Y0248500D03*
X0539800Y0257500D03*
X0537800Y0249500D03*
X0558300Y0261500D03*
X0539800Y0266500D03*
X0521800Y0272500D03*
X0538800Y0275500D03*
X0544300Y0275500D03*
X0548800Y0275500D03*
X0553300Y0275500D03*
X0557800Y0275500D03*
X0564300Y0276500D03*
X0551800Y0286000D03*
X0545800Y0292000D03*
X0539800Y0287000D03*
X0540300Y0298000D03*
X0548800Y0302500D03*
X0518300Y0307500D03*
X0595300Y0279500D03*
X0648800Y0307500D03*
X0584800Y0219500D03*
X0527300Y0220500D03*
X0521300Y0181500D03*
X0583800Y0150500D03*
X0587300Y0153500D03*
X0590300Y0142000D03*
X0594800Y0141500D03*
X0521300Y0133000D03*
X0540300Y0089000D03*
X0540300Y0080000D03*
X0538300Y0072000D03*
X0544800Y0071000D03*
X0549300Y0071000D03*
X0553800Y0071000D03*
X0558300Y0071000D03*
X0548300Y0061000D03*
X0540800Y0062000D03*
X0546800Y0055000D03*
X0540300Y0052000D03*
X0549300Y0045000D03*
X0529300Y0043500D03*
X0518800Y0031500D03*
X0576800Y0048500D03*
X0578800Y0044000D03*
X0647800Y0030500D03*
X0559800Y0083500D03*
X0250700Y0077100D03*
D14*
X0066800Y0077100D01*
X0066800Y0088000D02*
X0080300Y0088000D01*
X0082300Y0088000D01*
X0089800Y0080500D01*
X0276300Y0080500D01*
X0305300Y0080500D01*
X0329300Y0084500D02*
X0355300Y0084500D01*
X0359300Y0084500D01*
X0355300Y0084500D01*
X0329300Y0084500D02*
X0094300Y0084500D01*
X0079900Y0098900D01*
X0066800Y0098900D01*
X0066800Y0109700D02*
X0082100Y0109700D01*
X0103300Y0088500D01*
X0389800Y0088500D01*
X0410300Y0088500D01*
X0401800Y0109500D02*
X0382300Y0129000D01*
X0146300Y0129000D01*
X0133800Y0141500D01*
X0099300Y0141500D01*
X0093300Y0147500D01*
X0093300Y0177000D01*
X0084500Y0185800D01*
X0066800Y0185800D01*
X0066800Y0196700D02*
X0085600Y0196700D01*
X0095300Y0187000D01*
X0095300Y0148500D01*
X0100300Y0143500D01*
X0134300Y0143500D01*
X0146800Y0131000D01*
X0430300Y0131000D01*
X0451800Y0109500D01*
X0462800Y0093000D02*
X0109300Y0093000D01*
X0081700Y0120600D01*
X0066800Y0120600D01*
X0066800Y0131500D02*
X0129800Y0131500D01*
X0151800Y0109500D01*
X0145300Y0121000D02*
X0143800Y0121000D01*
X0131300Y0133500D01*
X0119300Y0133500D01*
X0091300Y0133500D01*
X0082500Y0142300D01*
X0066800Y0142300D01*
X0066800Y0153200D02*
X0079100Y0153200D01*
X0096800Y0135500D01*
X0132300Y0135500D01*
X0144800Y0123000D01*
X0238300Y0123000D01*
X0251800Y0109500D01*
X0286300Y0125000D02*
X0301800Y0109500D01*
X0286300Y0125000D02*
X0145300Y0125000D01*
X0132800Y0137500D01*
X0097800Y0137500D01*
X0097300Y0138000D01*
X0089300Y0146000D01*
X0089300Y0155500D01*
X0080700Y0164100D01*
X0066800Y0164100D01*
X0066800Y0174900D02*
X0081900Y0174900D01*
X0091300Y0165500D01*
X0091300Y0147000D01*
X0098800Y0139500D01*
X0133300Y0139500D01*
X0145800Y0127000D01*
X0334300Y0127000D01*
X0351800Y0109500D01*
X0462300Y0079500D02*
X0520800Y0079500D01*
X0520800Y0028394D01*
X0462300Y0028394D01*
X0462300Y0079500D01*
X0462300Y0079390D02*
X0520800Y0079390D01*
X0520800Y0078604D02*
X0462300Y0078604D01*
X0462300Y0077818D02*
X0520800Y0077818D01*
X0520800Y0077032D02*
X0462300Y0077032D01*
X0462300Y0076246D02*
X0520800Y0076246D01*
X0520800Y0075460D02*
X0462300Y0075460D01*
X0462300Y0074674D02*
X0520800Y0074674D01*
X0520800Y0073888D02*
X0462300Y0073888D01*
X0462300Y0073102D02*
X0520800Y0073102D01*
X0520800Y0072316D02*
X0462300Y0072316D01*
X0462300Y0071531D02*
X0520800Y0071531D01*
X0520800Y0070745D02*
X0462300Y0070745D01*
X0462300Y0069959D02*
X0520800Y0069959D01*
X0520800Y0069173D02*
X0462300Y0069173D01*
X0462300Y0068387D02*
X0520800Y0068387D01*
X0520800Y0067601D02*
X0462300Y0067601D01*
X0462300Y0066815D02*
X0520800Y0066815D01*
X0520800Y0066029D02*
X0462300Y0066029D01*
X0462300Y0065243D02*
X0520800Y0065243D01*
X0520800Y0064457D02*
X0462300Y0064457D01*
X0462300Y0063671D02*
X0520800Y0063671D01*
X0520800Y0062886D02*
X0462300Y0062886D01*
X0462300Y0062100D02*
X0520800Y0062100D01*
X0520800Y0061314D02*
X0462300Y0061314D01*
X0462300Y0060528D02*
X0520800Y0060528D01*
X0520800Y0059742D02*
X0462300Y0059742D01*
X0462300Y0058956D02*
X0520800Y0058956D01*
X0520800Y0058170D02*
X0462300Y0058170D01*
X0462300Y0057384D02*
X0520800Y0057384D01*
X0520800Y0056598D02*
X0462300Y0056598D01*
X0462300Y0055812D02*
X0520800Y0055812D01*
X0520800Y0055026D02*
X0462300Y0055026D01*
X0462300Y0054241D02*
X0520800Y0054241D01*
X0520800Y0053455D02*
X0462300Y0053455D01*
X0462300Y0052669D02*
X0520800Y0052669D01*
X0520800Y0051883D02*
X0462300Y0051883D01*
X0462300Y0051097D02*
X0520800Y0051097D01*
X0520800Y0050311D02*
X0462300Y0050311D01*
X0462300Y0049525D02*
X0520800Y0049525D01*
X0520800Y0048739D02*
X0509199Y0048739D01*
X0509668Y0048545D02*
X0508132Y0049181D01*
X0506468Y0049181D01*
X0504932Y0048545D01*
X0503755Y0047368D01*
X0503119Y0045832D01*
X0503119Y0044168D01*
X0503755Y0042632D01*
X0504932Y0041455D01*
X0506468Y0040819D01*
X0508132Y0040819D01*
X0509668Y0041455D01*
X0510845Y0042632D01*
X0511481Y0044168D01*
X0511481Y0045832D01*
X0510845Y0047368D01*
X0509668Y0048545D01*
X0510260Y0047953D02*
X0520800Y0047953D01*
X0520300Y0047500D02*
X0524300Y0043500D01*
X0529300Y0043500D01*
X0520800Y0043238D02*
X0511096Y0043238D01*
X0511421Y0044024D02*
X0520800Y0044024D01*
X0520800Y0044810D02*
X0511481Y0044810D01*
X0511481Y0045595D02*
X0520800Y0045595D01*
X0520800Y0046381D02*
X0511253Y0046381D01*
X0510928Y0047167D02*
X0520800Y0047167D01*
X0520300Y0047500D02*
X0520300Y0086000D01*
X0521800Y0084500D01*
X0546800Y0084500D01*
X0547800Y0083500D01*
X0559800Y0083500D01*
X0543268Y0080590D02*
X0542817Y0081682D01*
X0541982Y0082517D01*
X0540890Y0082968D01*
X0539710Y0082968D01*
X0538618Y0082517D01*
X0537783Y0081682D01*
X0537331Y0080590D01*
X0537331Y0079410D01*
X0537783Y0078318D01*
X0538618Y0077483D01*
X0539710Y0077031D01*
X0540890Y0077031D01*
X0541982Y0077483D01*
X0542817Y0078318D01*
X0543268Y0079410D01*
X0543268Y0080590D01*
X0543115Y0080962D02*
X0598412Y0080962D01*
X0598119Y0081668D02*
X0598755Y0080132D01*
X0599932Y0078955D01*
X0601468Y0078319D01*
X0603132Y0078319D01*
X0604668Y0078955D01*
X0605845Y0080132D01*
X0606481Y0081668D01*
X0606481Y0083332D01*
X0605845Y0084868D01*
X0604668Y0086045D01*
X0603132Y0086681D01*
X0601468Y0086681D01*
X0599932Y0086045D01*
X0598755Y0084868D01*
X0598119Y0083332D01*
X0598119Y0081668D01*
X0598119Y0081747D02*
X0542751Y0081747D01*
X0541941Y0082533D02*
X0598119Y0082533D01*
X0598119Y0083319D02*
X0516300Y0083319D01*
X0516300Y0082533D02*
X0538659Y0082533D01*
X0537849Y0081747D02*
X0516300Y0081747D01*
X0516300Y0080962D02*
X0537485Y0080962D01*
X0537331Y0080176D02*
X0516300Y0080176D01*
X0516300Y0079390D02*
X0537340Y0079390D01*
X0537665Y0078604D02*
X0516300Y0078604D01*
X0516300Y0077818D02*
X0538284Y0077818D01*
X0539708Y0077032D02*
X0516300Y0077032D01*
X0516300Y0076246D02*
X0608128Y0076246D01*
X0608119Y0076268D02*
X0608755Y0074732D01*
X0609932Y0073555D01*
X0611468Y0072919D01*
X0613132Y0072919D01*
X0614668Y0073555D01*
X0615845Y0074732D01*
X0616481Y0076268D01*
X0616481Y0077932D01*
X0615845Y0079468D01*
X0614668Y0080645D01*
X0613132Y0081281D01*
X0611468Y0081281D01*
X0609932Y0080645D01*
X0608755Y0079468D01*
X0608119Y0077932D01*
X0608119Y0076268D01*
X0608119Y0077032D02*
X0540892Y0077032D01*
X0542316Y0077818D02*
X0608119Y0077818D01*
X0608397Y0078604D02*
X0603819Y0078604D01*
X0605103Y0079390D02*
X0608723Y0079390D01*
X0609463Y0080176D02*
X0605863Y0080176D01*
X0606188Y0080962D02*
X0610697Y0080962D01*
X0611468Y0083819D02*
X0613132Y0083819D01*
X0614668Y0084455D01*
X0615845Y0085632D01*
X0616481Y0087168D01*
X0616481Y0088832D01*
X0615845Y0090368D01*
X0614668Y0091545D01*
X0613132Y0092181D01*
X0611468Y0092181D01*
X0609932Y0091545D01*
X0608755Y0090368D01*
X0608119Y0088832D01*
X0608119Y0087168D01*
X0608755Y0085632D01*
X0609932Y0084455D01*
X0611468Y0083819D01*
X0610777Y0084105D02*
X0606161Y0084105D01*
X0606481Y0083319D02*
X0649800Y0083319D01*
X0649800Y0082533D02*
X0606481Y0082533D01*
X0606481Y0081747D02*
X0649800Y0081747D01*
X0649800Y0080962D02*
X0613903Y0080962D01*
X0615137Y0080176D02*
X0649800Y0080176D01*
X0649800Y0079390D02*
X0615877Y0079390D01*
X0616203Y0078604D02*
X0649800Y0078604D01*
X0649800Y0077818D02*
X0616481Y0077818D01*
X0616481Y0077032D02*
X0649800Y0077032D01*
X0649800Y0076246D02*
X0616472Y0076246D01*
X0616146Y0075460D02*
X0649800Y0075460D01*
X0649800Y0074674D02*
X0615787Y0074674D01*
X0615001Y0073888D02*
X0649800Y0073888D01*
X0649800Y0073102D02*
X0613575Y0073102D01*
X0611025Y0073102D02*
X0606245Y0073102D01*
X0606481Y0072532D02*
X0605845Y0074068D01*
X0604668Y0075245D01*
X0603132Y0075881D01*
X0601468Y0075881D01*
X0599932Y0075245D01*
X0598755Y0074068D01*
X0598119Y0072532D01*
X0598119Y0070868D01*
X0598755Y0069332D01*
X0599932Y0068155D01*
X0601468Y0067519D01*
X0603132Y0067519D01*
X0604668Y0068155D01*
X0605845Y0069332D01*
X0606481Y0070868D01*
X0606481Y0072532D01*
X0606481Y0072316D02*
X0649800Y0072316D01*
X0649800Y0071531D02*
X0606481Y0071531D01*
X0606430Y0070745D02*
X0649800Y0070745D01*
X0649800Y0069959D02*
X0606104Y0069959D01*
X0605686Y0069173D02*
X0649800Y0069173D01*
X0649800Y0068387D02*
X0604900Y0068387D01*
X0603330Y0067601D02*
X0649800Y0067601D01*
X0649800Y0066815D02*
X0516300Y0066815D01*
X0516300Y0066029D02*
X0649800Y0066029D01*
X0649800Y0065243D02*
X0516300Y0065243D01*
X0516300Y0064457D02*
X0539059Y0064457D01*
X0539118Y0064517D02*
X0538283Y0063682D01*
X0537831Y0062590D01*
X0537831Y0061410D01*
X0538283Y0060318D01*
X0539118Y0059483D01*
X0540210Y0059031D01*
X0541390Y0059031D01*
X0542482Y0059483D01*
X0543317Y0060318D01*
X0543768Y0061410D01*
X0543768Y0062590D01*
X0543317Y0063682D01*
X0542482Y0064517D01*
X0541390Y0064968D01*
X0540210Y0064968D01*
X0539118Y0064517D01*
X0538279Y0063671D02*
X0516300Y0063671D01*
X0516300Y0062886D02*
X0537954Y0062886D01*
X0537831Y0062100D02*
X0516300Y0062100D01*
X0516300Y0061314D02*
X0537871Y0061314D01*
X0538197Y0060528D02*
X0516300Y0060528D01*
X0516300Y0059742D02*
X0538860Y0059742D01*
X0542740Y0059742D02*
X0545608Y0059742D01*
X0545783Y0059318D02*
X0545331Y0060410D01*
X0545331Y0061590D01*
X0545783Y0062682D01*
X0546618Y0063517D01*
X0547710Y0063968D01*
X0548890Y0063968D01*
X0549982Y0063517D01*
X0550817Y0062682D01*
X0551268Y0061590D01*
X0551268Y0060410D01*
X0550817Y0059318D01*
X0549982Y0058483D01*
X0548890Y0058031D01*
X0547710Y0058031D01*
X0546618Y0058483D01*
X0545783Y0059318D01*
X0546146Y0058956D02*
X0516300Y0058956D01*
X0516300Y0058170D02*
X0547375Y0058170D01*
X0547390Y0057968D02*
X0546210Y0057968D01*
X0545118Y0057517D01*
X0544283Y0056682D01*
X0543831Y0055590D01*
X0543831Y0054410D01*
X0544283Y0053318D01*
X0545118Y0052483D01*
X0546210Y0052031D01*
X0547390Y0052031D01*
X0548482Y0052483D01*
X0549317Y0053318D01*
X0549768Y0054410D01*
X0549768Y0055590D01*
X0549317Y0056682D01*
X0548482Y0057517D01*
X0547390Y0057968D01*
X0548614Y0057384D02*
X0649800Y0057384D01*
X0649800Y0056598D02*
X0549351Y0056598D01*
X0549677Y0055812D02*
X0649800Y0055812D01*
X0649800Y0055026D02*
X0549768Y0055026D01*
X0549698Y0054241D02*
X0649800Y0054241D01*
X0649800Y0053455D02*
X0610980Y0053455D01*
X0609226Y0054181D02*
X0612784Y0052707D01*
X0615507Y0049984D01*
X0616981Y0046426D01*
X0616981Y0042574D01*
X0615507Y0039016D01*
X0612784Y0036293D01*
X0609226Y0034819D01*
X0605374Y0034819D01*
X0601816Y0036293D01*
X0599093Y0039016D01*
X0597619Y0042574D01*
X0597619Y0046426D01*
X0599093Y0049984D01*
X0601816Y0052707D01*
X0605374Y0054181D01*
X0609226Y0054181D01*
X0612822Y0052669D02*
X0649800Y0052669D01*
X0649800Y0051883D02*
X0613608Y0051883D01*
X0614394Y0051097D02*
X0649800Y0051097D01*
X0649800Y0050311D02*
X0615180Y0050311D01*
X0615697Y0049525D02*
X0649800Y0049525D01*
X0649800Y0048739D02*
X0616023Y0048739D01*
X0616348Y0047953D02*
X0649800Y0047953D01*
X0649800Y0047167D02*
X0616674Y0047167D01*
X0616981Y0046381D02*
X0649800Y0046381D01*
X0649800Y0045595D02*
X0616981Y0045595D01*
X0616981Y0044810D02*
X0649800Y0044810D01*
X0649800Y0044024D02*
X0616981Y0044024D01*
X0616981Y0043238D02*
X0649800Y0043238D01*
X0649800Y0042452D02*
X0616930Y0042452D01*
X0616605Y0041666D02*
X0649800Y0041666D01*
X0649800Y0040880D02*
X0616279Y0040880D01*
X0615954Y0040094D02*
X0649800Y0040094D01*
X0649800Y0039308D02*
X0615628Y0039308D01*
X0615013Y0038522D02*
X0649800Y0038522D01*
X0649800Y0037736D02*
X0614227Y0037736D01*
X0613442Y0036950D02*
X0649800Y0036950D01*
X0649800Y0036165D02*
X0612474Y0036165D01*
X0610577Y0035379D02*
X0649800Y0035379D01*
X0649800Y0034593D02*
X0516300Y0034593D01*
X0516300Y0035379D02*
X0604023Y0035379D01*
X0602126Y0036165D02*
X0516300Y0036165D01*
X0516300Y0036950D02*
X0601158Y0036950D01*
X0600373Y0037736D02*
X0516300Y0037736D01*
X0516300Y0038522D02*
X0599587Y0038522D01*
X0598972Y0039308D02*
X0516300Y0039308D01*
X0516300Y0040094D02*
X0598646Y0040094D01*
X0598321Y0040880D02*
X0516300Y0040880D01*
X0516300Y0041666D02*
X0576936Y0041666D01*
X0577118Y0041483D02*
X0578210Y0041031D01*
X0579390Y0041031D01*
X0580482Y0041483D01*
X0581317Y0042318D01*
X0581768Y0043410D01*
X0581768Y0044590D01*
X0581317Y0045682D01*
X0580482Y0046517D01*
X0579390Y0046968D01*
X0579379Y0046968D01*
X0579768Y0047910D01*
X0579768Y0049090D01*
X0579317Y0050182D01*
X0578482Y0051017D01*
X0577390Y0051468D01*
X0576210Y0051468D01*
X0575118Y0051017D01*
X0574283Y0050182D01*
X0573831Y0049090D01*
X0573831Y0047910D01*
X0574283Y0046818D01*
X0575118Y0045983D01*
X0576210Y0045531D01*
X0576221Y0045531D01*
X0575831Y0044590D01*
X0575831Y0043410D01*
X0576283Y0042318D01*
X0577118Y0041483D01*
X0576228Y0042452D02*
X0550905Y0042452D01*
X0550982Y0042483D02*
X0551817Y0043318D01*
X0552268Y0044410D01*
X0552268Y0045590D01*
X0551817Y0046682D01*
X0550982Y0047517D01*
X0549890Y0047968D01*
X0548710Y0047968D01*
X0547618Y0047517D01*
X0546783Y0046682D01*
X0546331Y0045590D01*
X0546331Y0044410D01*
X0546783Y0043318D01*
X0547618Y0042483D01*
X0548710Y0042031D01*
X0549890Y0042031D01*
X0550982Y0042483D01*
X0551736Y0043238D02*
X0575903Y0043238D01*
X0575831Y0044024D02*
X0552109Y0044024D01*
X0552268Y0044810D02*
X0575922Y0044810D01*
X0576055Y0045595D02*
X0552266Y0045595D01*
X0551941Y0046381D02*
X0574721Y0046381D01*
X0574139Y0047167D02*
X0551331Y0047167D01*
X0549927Y0047953D02*
X0573831Y0047953D01*
X0573831Y0048739D02*
X0516300Y0048739D01*
X0516300Y0047953D02*
X0548673Y0047953D01*
X0547269Y0047167D02*
X0516300Y0047167D01*
X0516300Y0046381D02*
X0546659Y0046381D01*
X0546334Y0045595D02*
X0516300Y0045595D01*
X0516300Y0044810D02*
X0546331Y0044810D01*
X0546491Y0044024D02*
X0516300Y0044024D01*
X0516300Y0043238D02*
X0546864Y0043238D01*
X0547695Y0042452D02*
X0516300Y0042452D01*
X0520800Y0042452D02*
X0510665Y0042452D01*
X0509879Y0041666D02*
X0520800Y0041666D01*
X0520800Y0040880D02*
X0508279Y0040880D01*
X0506321Y0040880D02*
X0498838Y0040880D01*
X0498987Y0040928D02*
X0499603Y0041242D01*
X0500162Y0041649D01*
X0500651Y0042138D01*
X0501058Y0042697D01*
X0501372Y0043313D01*
X0501586Y0043971D01*
X0501686Y0044606D01*
X0497694Y0044606D01*
X0497694Y0045394D01*
X0496906Y0045394D01*
X0496906Y0049386D01*
X0496271Y0049286D01*
X0495613Y0049072D01*
X0494997Y0048758D01*
X0494438Y0048351D01*
X0493949Y0047862D01*
X0493542Y0047303D01*
X0493228Y0046687D01*
X0493014Y0046029D01*
X0492914Y0045394D01*
X0496906Y0045394D01*
X0496906Y0044606D01*
X0492914Y0044606D01*
X0493014Y0043971D01*
X0493228Y0043313D01*
X0493542Y0042697D01*
X0493949Y0042138D01*
X0494438Y0041649D01*
X0494997Y0041242D01*
X0495613Y0040928D01*
X0496271Y0040714D01*
X0496906Y0040614D01*
X0496906Y0044606D01*
X0497694Y0044606D01*
X0497694Y0040614D01*
X0498329Y0040714D01*
X0498987Y0040928D01*
X0497694Y0040880D02*
X0496906Y0040880D01*
X0496906Y0041666D02*
X0497694Y0041666D01*
X0497694Y0042452D02*
X0496906Y0042452D01*
X0496906Y0043238D02*
X0497694Y0043238D01*
X0497694Y0044024D02*
X0496906Y0044024D01*
X0496906Y0044810D02*
X0483481Y0044810D01*
X0483481Y0044168D02*
X0482845Y0042632D01*
X0481668Y0041455D01*
X0480132Y0040819D01*
X0478468Y0040819D01*
X0476932Y0041455D01*
X0475755Y0042632D01*
X0475119Y0044168D01*
X0475119Y0045832D01*
X0475755Y0047368D01*
X0476932Y0048545D01*
X0478468Y0049181D01*
X0480132Y0049181D01*
X0481668Y0048545D01*
X0482845Y0047368D01*
X0483481Y0045832D01*
X0483481Y0044168D01*
X0483421Y0044024D02*
X0493006Y0044024D01*
X0493267Y0043238D02*
X0483096Y0043238D01*
X0482665Y0042452D02*
X0493720Y0042452D01*
X0494420Y0041666D02*
X0481879Y0041666D01*
X0480279Y0040880D02*
X0495762Y0040880D01*
X0497694Y0044810D02*
X0503119Y0044810D01*
X0503119Y0045595D02*
X0501654Y0045595D01*
X0501686Y0045394D02*
X0501586Y0046029D01*
X0501372Y0046687D01*
X0501058Y0047303D01*
X0500651Y0047862D01*
X0500162Y0048351D01*
X0499603Y0048758D01*
X0498987Y0049072D01*
X0498329Y0049286D01*
X0497694Y0049386D01*
X0497694Y0045394D01*
X0501686Y0045394D01*
X0501471Y0046381D02*
X0503347Y0046381D01*
X0503672Y0047167D02*
X0501127Y0047167D01*
X0500560Y0047953D02*
X0504340Y0047953D01*
X0505401Y0048739D02*
X0499629Y0048739D01*
X0497694Y0048739D02*
X0496906Y0048739D01*
X0496906Y0047953D02*
X0497694Y0047953D01*
X0497694Y0047167D02*
X0496906Y0047167D01*
X0496906Y0046381D02*
X0497694Y0046381D01*
X0497694Y0045595D02*
X0496906Y0045595D01*
X0494971Y0048739D02*
X0481199Y0048739D01*
X0482260Y0047953D02*
X0494040Y0047953D01*
X0493473Y0047167D02*
X0482928Y0047167D01*
X0483253Y0046381D02*
X0493129Y0046381D01*
X0492946Y0045595D02*
X0483481Y0045595D01*
X0477401Y0048739D02*
X0471629Y0048739D01*
X0471603Y0048758D02*
X0470987Y0049072D01*
X0470329Y0049286D01*
X0469694Y0049386D01*
X0469694Y0045394D01*
X0468906Y0045394D01*
X0468906Y0049386D01*
X0468271Y0049286D01*
X0467613Y0049072D01*
X0466997Y0048758D01*
X0466438Y0048351D01*
X0465949Y0047862D01*
X0465542Y0047303D01*
X0465228Y0046687D01*
X0465014Y0046029D01*
X0464914Y0045394D01*
X0468906Y0045394D01*
X0468906Y0044606D01*
X0464914Y0044606D01*
X0465014Y0043971D01*
X0465228Y0043313D01*
X0465542Y0042697D01*
X0465949Y0042138D01*
X0466438Y0041649D01*
X0466997Y0041242D01*
X0467613Y0040928D01*
X0468271Y0040714D01*
X0468906Y0040614D01*
X0468906Y0044606D01*
X0469694Y0044606D01*
X0469694Y0045394D01*
X0473686Y0045394D01*
X0473586Y0046029D01*
X0473372Y0046687D01*
X0473058Y0047303D01*
X0472651Y0047862D01*
X0472162Y0048351D01*
X0471603Y0048758D01*
X0472560Y0047953D02*
X0476340Y0047953D01*
X0475672Y0047167D02*
X0473127Y0047167D01*
X0473471Y0046381D02*
X0475347Y0046381D01*
X0475119Y0045595D02*
X0473654Y0045595D01*
X0473686Y0044606D02*
X0469694Y0044606D01*
X0469694Y0040614D01*
X0470329Y0040714D01*
X0470987Y0040928D01*
X0471603Y0041242D01*
X0472162Y0041649D01*
X0472651Y0042138D01*
X0473058Y0042697D01*
X0473372Y0043313D01*
X0473586Y0043971D01*
X0473686Y0044606D01*
X0473594Y0044024D02*
X0475179Y0044024D01*
X0475119Y0044810D02*
X0469694Y0044810D01*
X0469694Y0045595D02*
X0468906Y0045595D01*
X0468906Y0044810D02*
X0462300Y0044810D01*
X0462300Y0045595D02*
X0464946Y0045595D01*
X0465129Y0046381D02*
X0462300Y0046381D01*
X0462300Y0047167D02*
X0465473Y0047167D01*
X0466040Y0047953D02*
X0462300Y0047953D01*
X0462300Y0048739D02*
X0466971Y0048739D01*
X0468906Y0048739D02*
X0469694Y0048739D01*
X0469694Y0047953D02*
X0468906Y0047953D01*
X0468906Y0047167D02*
X0469694Y0047167D01*
X0469694Y0046381D02*
X0468906Y0046381D01*
X0468906Y0044024D02*
X0469694Y0044024D01*
X0469694Y0043238D02*
X0468906Y0043238D01*
X0468906Y0042452D02*
X0469694Y0042452D01*
X0469694Y0041666D02*
X0468906Y0041666D01*
X0468906Y0040880D02*
X0469694Y0040880D01*
X0470838Y0040880D02*
X0478321Y0040880D01*
X0476721Y0041666D02*
X0472180Y0041666D01*
X0472880Y0042452D02*
X0475935Y0042452D01*
X0475504Y0043238D02*
X0473333Y0043238D01*
X0467762Y0040880D02*
X0462300Y0040880D01*
X0462300Y0041666D02*
X0466420Y0041666D01*
X0465720Y0042452D02*
X0462300Y0042452D01*
X0462300Y0043238D02*
X0465267Y0043238D01*
X0465006Y0044024D02*
X0462300Y0044024D01*
X0462300Y0040094D02*
X0520800Y0040094D01*
X0520800Y0039308D02*
X0462300Y0039308D01*
X0462300Y0038522D02*
X0520800Y0038522D01*
X0520800Y0037736D02*
X0462300Y0037736D01*
X0462300Y0036950D02*
X0520800Y0036950D01*
X0520800Y0036165D02*
X0462300Y0036165D01*
X0462300Y0035379D02*
X0520800Y0035379D01*
X0520800Y0034593D02*
X0462300Y0034593D01*
X0462300Y0033807D02*
X0520800Y0033807D01*
X0520800Y0033021D02*
X0462300Y0033021D01*
X0462300Y0032235D02*
X0520800Y0032235D01*
X0520800Y0031449D02*
X0462300Y0031449D01*
X0462300Y0030663D02*
X0520800Y0030663D01*
X0520800Y0029877D02*
X0462300Y0029877D01*
X0462300Y0029091D02*
X0520800Y0029091D01*
X0519800Y0030500D02*
X0518800Y0031500D01*
X0519800Y0030500D02*
X0647800Y0030500D01*
X0649800Y0030663D02*
X0516300Y0030663D01*
X0516300Y0029877D02*
X0649800Y0029877D01*
X0649800Y0029091D02*
X0516300Y0029091D01*
X0516300Y0029000D02*
X0516300Y0309000D01*
X0650834Y0309000D01*
X0650841Y0307000D01*
X0649800Y0307000D01*
X0649800Y0029000D01*
X0516300Y0029000D01*
X0516300Y0031449D02*
X0649800Y0031449D01*
X0649800Y0032235D02*
X0516300Y0032235D01*
X0516300Y0033021D02*
X0649800Y0033021D01*
X0649800Y0033807D02*
X0516300Y0033807D01*
X0504721Y0041666D02*
X0500180Y0041666D01*
X0500880Y0042452D02*
X0503935Y0042452D01*
X0503504Y0043238D02*
X0501333Y0043238D01*
X0501594Y0044024D02*
X0503179Y0044024D01*
X0516300Y0049525D02*
X0538577Y0049525D01*
X0538618Y0049483D02*
X0539710Y0049031D01*
X0540890Y0049031D01*
X0541982Y0049483D01*
X0542817Y0050318D01*
X0543268Y0051410D01*
X0543268Y0052590D01*
X0542817Y0053682D01*
X0541982Y0054517D01*
X0540890Y0054968D01*
X0539710Y0054968D01*
X0538618Y0054517D01*
X0537783Y0053682D01*
X0537331Y0052590D01*
X0537331Y0051410D01*
X0537783Y0050318D01*
X0538618Y0049483D01*
X0537791Y0050311D02*
X0516300Y0050311D01*
X0516300Y0051097D02*
X0537461Y0051097D01*
X0537331Y0051883D02*
X0516300Y0051883D01*
X0516300Y0052669D02*
X0537364Y0052669D01*
X0537689Y0053455D02*
X0516300Y0053455D01*
X0516300Y0054241D02*
X0538342Y0054241D01*
X0542258Y0054241D02*
X0543902Y0054241D01*
X0543831Y0055026D02*
X0516300Y0055026D01*
X0516300Y0055812D02*
X0543923Y0055812D01*
X0544249Y0056598D02*
X0516300Y0056598D01*
X0516300Y0057384D02*
X0544986Y0057384D01*
X0545331Y0060528D02*
X0543403Y0060528D01*
X0543729Y0061314D02*
X0545331Y0061314D01*
X0545542Y0062100D02*
X0543768Y0062100D01*
X0543646Y0062886D02*
X0545987Y0062886D01*
X0546992Y0063671D02*
X0543321Y0063671D01*
X0542541Y0064457D02*
X0649800Y0064457D01*
X0649800Y0063671D02*
X0549608Y0063671D01*
X0550613Y0062886D02*
X0649800Y0062886D01*
X0649800Y0062100D02*
X0551058Y0062100D01*
X0551268Y0061314D02*
X0649800Y0061314D01*
X0649800Y0060528D02*
X0551268Y0060528D01*
X0550992Y0059742D02*
X0649800Y0059742D01*
X0649800Y0058956D02*
X0550454Y0058956D01*
X0549225Y0058170D02*
X0649800Y0058170D01*
X0609599Y0073888D02*
X0605919Y0073888D01*
X0605239Y0074674D02*
X0608813Y0074674D01*
X0608454Y0075460D02*
X0604148Y0075460D01*
X0600452Y0075460D02*
X0516300Y0075460D01*
X0516300Y0074674D02*
X0536999Y0074674D01*
X0536618Y0074517D02*
X0535783Y0073682D01*
X0535331Y0072590D01*
X0535331Y0071410D01*
X0535783Y0070318D01*
X0536618Y0069483D01*
X0537710Y0069031D01*
X0538890Y0069031D01*
X0539982Y0069483D01*
X0540817Y0070318D01*
X0541268Y0071410D01*
X0541268Y0072590D01*
X0540817Y0073682D01*
X0539982Y0074517D01*
X0538890Y0074968D01*
X0537710Y0074968D01*
X0536618Y0074517D01*
X0535990Y0073888D02*
X0516300Y0073888D01*
X0516300Y0073102D02*
X0535544Y0073102D01*
X0535331Y0072316D02*
X0516300Y0072316D01*
X0516300Y0071531D02*
X0535331Y0071531D01*
X0535607Y0070745D02*
X0516300Y0070745D01*
X0516300Y0069959D02*
X0536143Y0069959D01*
X0537368Y0069173D02*
X0516300Y0069173D01*
X0516300Y0068387D02*
X0543351Y0068387D01*
X0543118Y0068483D02*
X0544210Y0068031D01*
X0545390Y0068031D01*
X0546482Y0068483D01*
X0547050Y0069052D01*
X0547618Y0068483D01*
X0548710Y0068031D01*
X0549890Y0068031D01*
X0550982Y0068483D01*
X0551550Y0069052D01*
X0552118Y0068483D01*
X0553210Y0068031D01*
X0554390Y0068031D01*
X0555482Y0068483D01*
X0556050Y0069052D01*
X0556618Y0068483D01*
X0557710Y0068031D01*
X0558890Y0068031D01*
X0559982Y0068483D01*
X0560817Y0069318D01*
X0561268Y0070410D01*
X0561268Y0071590D01*
X0560817Y0072682D01*
X0559982Y0073517D01*
X0558890Y0073968D01*
X0557710Y0073968D01*
X0556618Y0073517D01*
X0556050Y0072948D01*
X0555482Y0073517D01*
X0554390Y0073968D01*
X0553210Y0073968D01*
X0552118Y0073517D01*
X0551550Y0072948D01*
X0550982Y0073517D01*
X0549890Y0073968D01*
X0548710Y0073968D01*
X0547618Y0073517D01*
X0547050Y0072948D01*
X0546482Y0073517D01*
X0545390Y0073968D01*
X0544210Y0073968D01*
X0543118Y0073517D01*
X0542283Y0072682D01*
X0541831Y0071590D01*
X0541831Y0070410D01*
X0542283Y0069318D01*
X0543118Y0068483D01*
X0542429Y0069173D02*
X0539232Y0069173D01*
X0540457Y0069959D02*
X0542018Y0069959D01*
X0541831Y0070745D02*
X0540993Y0070745D01*
X0541268Y0071531D02*
X0541831Y0071531D01*
X0542132Y0072316D02*
X0541268Y0072316D01*
X0541056Y0073102D02*
X0542704Y0073102D01*
X0544016Y0073888D02*
X0540610Y0073888D01*
X0539601Y0074674D02*
X0599361Y0074674D01*
X0598681Y0073888D02*
X0559084Y0073888D01*
X0560396Y0073102D02*
X0598355Y0073102D01*
X0598119Y0072316D02*
X0560968Y0072316D01*
X0561268Y0071531D02*
X0598119Y0071531D01*
X0598170Y0070745D02*
X0561268Y0070745D01*
X0561082Y0069959D02*
X0598496Y0069959D01*
X0598914Y0069173D02*
X0560671Y0069173D01*
X0559749Y0068387D02*
X0599700Y0068387D01*
X0601270Y0067601D02*
X0516300Y0067601D01*
X0542935Y0078604D02*
X0600780Y0078604D01*
X0599497Y0079390D02*
X0543260Y0079390D01*
X0543268Y0080176D02*
X0598737Y0080176D01*
X0598439Y0084105D02*
X0516300Y0084105D01*
X0516300Y0084891D02*
X0598778Y0084891D01*
X0599564Y0085677D02*
X0516300Y0085677D01*
X0516300Y0086463D02*
X0538668Y0086463D01*
X0538618Y0086483D02*
X0539710Y0086031D01*
X0540890Y0086031D01*
X0541982Y0086483D01*
X0542817Y0087318D01*
X0543268Y0088410D01*
X0543268Y0089590D01*
X0542817Y0090682D01*
X0541982Y0091517D01*
X0540890Y0091968D01*
X0539710Y0091968D01*
X0538618Y0091517D01*
X0537783Y0090682D01*
X0537331Y0089590D01*
X0537331Y0088410D01*
X0537783Y0087318D01*
X0538618Y0086483D01*
X0537853Y0087249D02*
X0516300Y0087249D01*
X0516300Y0088035D02*
X0537487Y0088035D01*
X0537331Y0088821D02*
X0516300Y0088821D01*
X0516300Y0089607D02*
X0537338Y0089607D01*
X0537664Y0090392D02*
X0516300Y0090392D01*
X0516300Y0091178D02*
X0538280Y0091178D01*
X0539699Y0091964D02*
X0516300Y0091964D01*
X0516300Y0092750D02*
X0598119Y0092750D01*
X0598119Y0092568D02*
X0598755Y0091032D01*
X0599932Y0089855D01*
X0601468Y0089219D01*
X0603132Y0089219D01*
X0604668Y0089855D01*
X0605845Y0091032D01*
X0606481Y0092568D01*
X0606481Y0094232D01*
X0605845Y0095768D01*
X0604668Y0096945D01*
X0603132Y0097581D01*
X0601468Y0097581D01*
X0599932Y0096945D01*
X0598755Y0095768D01*
X0598119Y0094232D01*
X0598119Y0092568D01*
X0598369Y0091964D02*
X0540901Y0091964D01*
X0542320Y0091178D02*
X0598695Y0091178D01*
X0599395Y0090392D02*
X0542936Y0090392D01*
X0543262Y0089607D02*
X0600532Y0089607D01*
X0600942Y0086463D02*
X0541932Y0086463D01*
X0542747Y0087249D02*
X0608119Y0087249D01*
X0608119Y0088035D02*
X0543113Y0088035D01*
X0543268Y0088821D02*
X0608119Y0088821D01*
X0608440Y0089607D02*
X0604068Y0089607D01*
X0605205Y0090392D02*
X0608780Y0090392D01*
X0609565Y0091178D02*
X0605905Y0091178D01*
X0606231Y0091964D02*
X0610945Y0091964D01*
X0611468Y0094619D02*
X0613132Y0094619D01*
X0614668Y0095255D01*
X0615845Y0096432D01*
X0616481Y0097968D01*
X0616481Y0099632D01*
X0615845Y0101168D01*
X0614668Y0102345D01*
X0613132Y0102981D01*
X0611468Y0102981D01*
X0609932Y0102345D01*
X0608755Y0101168D01*
X0608119Y0099632D01*
X0608119Y0097968D01*
X0608755Y0096432D01*
X0609932Y0095255D01*
X0611468Y0094619D01*
X0610288Y0095108D02*
X0606118Y0095108D01*
X0606444Y0094322D02*
X0649800Y0094322D01*
X0649800Y0093536D02*
X0606481Y0093536D01*
X0606481Y0092750D02*
X0649800Y0092750D01*
X0649800Y0091964D02*
X0613655Y0091964D01*
X0615035Y0091178D02*
X0649800Y0091178D01*
X0649800Y0090392D02*
X0615820Y0090392D01*
X0616160Y0089607D02*
X0649800Y0089607D01*
X0649800Y0088821D02*
X0616481Y0088821D01*
X0616481Y0088035D02*
X0649800Y0088035D01*
X0649800Y0087249D02*
X0616481Y0087249D01*
X0616189Y0086463D02*
X0649800Y0086463D01*
X0649800Y0085677D02*
X0615863Y0085677D01*
X0615104Y0084891D02*
X0649800Y0084891D01*
X0649800Y0084105D02*
X0613823Y0084105D01*
X0609496Y0084891D02*
X0605822Y0084891D01*
X0605036Y0085677D02*
X0608737Y0085677D01*
X0608411Y0086463D02*
X0603658Y0086463D01*
X0598119Y0093536D02*
X0516300Y0093536D01*
X0516300Y0094322D02*
X0598156Y0094322D01*
X0598482Y0095108D02*
X0559075Y0095108D01*
X0558890Y0095031D02*
X0559982Y0095483D01*
X0560817Y0096318D01*
X0561268Y0097410D01*
X0561268Y0098590D01*
X0560817Y0099682D01*
X0559982Y0100517D01*
X0558890Y0100968D01*
X0557710Y0100968D01*
X0556618Y0100517D01*
X0556050Y0099948D01*
X0555482Y0100517D01*
X0554390Y0100968D01*
X0553210Y0100968D01*
X0552118Y0100517D01*
X0551550Y0099948D01*
X0550982Y0100517D01*
X0549890Y0100968D01*
X0548710Y0100968D01*
X0547618Y0100517D01*
X0547050Y0099948D01*
X0546482Y0100517D01*
X0545390Y0100968D01*
X0544210Y0100968D01*
X0543118Y0100517D01*
X0542283Y0099682D01*
X0542050Y0099118D01*
X0541817Y0099682D01*
X0540982Y0100517D01*
X0539890Y0100968D01*
X0538710Y0100968D01*
X0537618Y0100517D01*
X0536783Y0099682D01*
X0536331Y0098590D01*
X0536331Y0097410D01*
X0536783Y0096318D01*
X0537618Y0095483D01*
X0538710Y0095031D01*
X0539890Y0095031D01*
X0540982Y0095483D01*
X0541817Y0096318D01*
X0542050Y0096882D01*
X0542283Y0096318D01*
X0543118Y0095483D01*
X0544210Y0095031D01*
X0545390Y0095031D01*
X0546482Y0095483D01*
X0547050Y0096052D01*
X0547618Y0095483D01*
X0548710Y0095031D01*
X0549890Y0095031D01*
X0550982Y0095483D01*
X0551550Y0096052D01*
X0552118Y0095483D01*
X0553210Y0095031D01*
X0554390Y0095031D01*
X0555482Y0095483D01*
X0556050Y0096052D01*
X0556618Y0095483D01*
X0557710Y0095031D01*
X0558890Y0095031D01*
X0557525Y0095108D02*
X0554575Y0095108D01*
X0555892Y0095894D02*
X0556208Y0095894D01*
X0553025Y0095108D02*
X0550075Y0095108D01*
X0551392Y0095894D02*
X0551708Y0095894D01*
X0548525Y0095108D02*
X0545575Y0095108D01*
X0546892Y0095894D02*
X0547208Y0095894D01*
X0544025Y0095108D02*
X0540075Y0095108D01*
X0541392Y0095894D02*
X0542708Y0095894D01*
X0542134Y0096680D02*
X0541966Y0096680D01*
X0541675Y0099823D02*
X0542425Y0099823D01*
X0543343Y0100609D02*
X0540757Y0100609D01*
X0537843Y0100609D02*
X0516300Y0100609D01*
X0516300Y0099823D02*
X0536925Y0099823D01*
X0536517Y0099038D02*
X0516300Y0099038D01*
X0516300Y0098252D02*
X0536331Y0098252D01*
X0536331Y0097466D02*
X0516300Y0097466D01*
X0516300Y0096680D02*
X0536634Y0096680D01*
X0537208Y0095894D02*
X0516300Y0095894D01*
X0516300Y0095108D02*
X0538525Y0095108D01*
X0546257Y0100609D02*
X0547843Y0100609D01*
X0550757Y0100609D02*
X0552343Y0100609D01*
X0555257Y0100609D02*
X0556843Y0100609D01*
X0559757Y0100609D02*
X0600284Y0100609D01*
X0599932Y0100755D02*
X0601468Y0100119D01*
X0603132Y0100119D01*
X0604668Y0100755D01*
X0605845Y0101932D01*
X0606481Y0103468D01*
X0606481Y0105132D01*
X0605845Y0106668D01*
X0604668Y0107845D01*
X0603132Y0108481D01*
X0601468Y0108481D01*
X0599932Y0107845D01*
X0598755Y0106668D01*
X0598119Y0105132D01*
X0598119Y0103468D01*
X0598755Y0101932D01*
X0599932Y0100755D01*
X0599292Y0101395D02*
X0516300Y0101395D01*
X0516300Y0102181D02*
X0598652Y0102181D01*
X0598327Y0102967D02*
X0516300Y0102967D01*
X0516300Y0103753D02*
X0598119Y0103753D01*
X0598119Y0104539D02*
X0516300Y0104539D01*
X0516300Y0105325D02*
X0598199Y0105325D01*
X0598524Y0106111D02*
X0554109Y0106111D01*
X0553982Y0105983D02*
X0554817Y0106818D01*
X0555268Y0107910D01*
X0555268Y0109090D01*
X0554817Y0110182D01*
X0553982Y0111017D01*
X0552890Y0111468D01*
X0551710Y0111468D01*
X0550618Y0111017D01*
X0549783Y0110182D01*
X0549331Y0109090D01*
X0549331Y0107910D01*
X0549783Y0106818D01*
X0550618Y0105983D01*
X0551710Y0105531D01*
X0552890Y0105531D01*
X0553982Y0105983D01*
X0554849Y0106897D02*
X0598984Y0106897D01*
X0599770Y0107683D02*
X0555174Y0107683D01*
X0555268Y0108468D02*
X0601438Y0108468D01*
X0603162Y0108468D02*
X0608285Y0108468D01*
X0608119Y0108868D02*
X0608755Y0107332D01*
X0609932Y0106155D01*
X0611468Y0105519D01*
X0613132Y0105519D01*
X0614668Y0106155D01*
X0615845Y0107332D01*
X0616481Y0108868D01*
X0616481Y0110532D01*
X0615845Y0112068D01*
X0614668Y0113245D01*
X0613132Y0113881D01*
X0611468Y0113881D01*
X0609932Y0113245D01*
X0608755Y0112068D01*
X0608119Y0110532D01*
X0608119Y0108868D01*
X0608119Y0109254D02*
X0555201Y0109254D01*
X0554875Y0110040D02*
X0608119Y0110040D01*
X0608241Y0110826D02*
X0554172Y0110826D01*
X0550428Y0110826D02*
X0542964Y0110826D01*
X0542817Y0111182D02*
X0541982Y0112017D01*
X0540890Y0112468D01*
X0539710Y0112468D01*
X0538618Y0112017D01*
X0537783Y0111182D01*
X0537331Y0110090D01*
X0537331Y0108910D01*
X0537783Y0107818D01*
X0538618Y0106983D01*
X0539710Y0106531D01*
X0540890Y0106531D01*
X0541982Y0106983D01*
X0542817Y0107818D01*
X0543268Y0108910D01*
X0543268Y0110090D01*
X0542817Y0111182D01*
X0542386Y0111612D02*
X0545515Y0111612D01*
X0545710Y0111531D02*
X0546890Y0111531D01*
X0547982Y0111983D01*
X0548817Y0112818D01*
X0549268Y0113910D01*
X0549268Y0115090D01*
X0548817Y0116182D01*
X0547982Y0117017D01*
X0546890Y0117468D01*
X0545710Y0117468D01*
X0544618Y0117017D01*
X0543783Y0116182D01*
X0543331Y0115090D01*
X0543331Y0113910D01*
X0543783Y0112818D01*
X0544618Y0111983D01*
X0545710Y0111531D01*
X0547085Y0111612D02*
X0599875Y0111612D01*
X0599932Y0111555D02*
X0601468Y0110919D01*
X0603132Y0110919D01*
X0604668Y0111555D01*
X0605845Y0112732D01*
X0606481Y0114268D01*
X0606481Y0115932D01*
X0605845Y0117468D01*
X0604668Y0118645D01*
X0603132Y0119281D01*
X0601468Y0119281D01*
X0599932Y0118645D01*
X0598755Y0117468D01*
X0598119Y0115932D01*
X0598119Y0114268D01*
X0598755Y0112732D01*
X0599932Y0111555D01*
X0599089Y0112398D02*
X0548396Y0112398D01*
X0548968Y0113184D02*
X0598568Y0113184D01*
X0598243Y0113970D02*
X0549268Y0113970D01*
X0549268Y0114756D02*
X0598119Y0114756D01*
X0598119Y0115542D02*
X0549082Y0115542D01*
X0548670Y0116328D02*
X0598283Y0116328D01*
X0598608Y0117114D02*
X0547747Y0117114D01*
X0544853Y0117114D02*
X0516300Y0117114D01*
X0516300Y0117899D02*
X0539321Y0117899D01*
X0539118Y0117983D02*
X0540210Y0117531D01*
X0541390Y0117531D01*
X0542482Y0117983D01*
X0543317Y0118818D01*
X0543768Y0119910D01*
X0543768Y0121090D01*
X0543317Y0122182D01*
X0542482Y0123017D01*
X0541390Y0123468D01*
X0540210Y0123468D01*
X0539118Y0123017D01*
X0538283Y0122182D01*
X0537831Y0121090D01*
X0537831Y0119910D01*
X0538283Y0118818D01*
X0539118Y0117983D01*
X0538417Y0118685D02*
X0516300Y0118685D01*
X0516300Y0119471D02*
X0538013Y0119471D01*
X0537831Y0120257D02*
X0516300Y0120257D01*
X0516300Y0121043D02*
X0537831Y0121043D01*
X0538137Y0121829D02*
X0516300Y0121829D01*
X0516300Y0122615D02*
X0538717Y0122615D01*
X0540046Y0123401D02*
X0516300Y0123401D01*
X0516300Y0124187D02*
X0546424Y0124187D01*
X0546331Y0124410D02*
X0546783Y0123318D01*
X0547618Y0122483D01*
X0548710Y0122031D01*
X0549890Y0122031D01*
X0550982Y0122483D01*
X0551817Y0123318D01*
X0552268Y0124410D01*
X0552268Y0125590D01*
X0551817Y0126682D01*
X0550982Y0127517D01*
X0549890Y0127968D01*
X0548710Y0127968D01*
X0547618Y0127517D01*
X0546783Y0126682D01*
X0546331Y0125590D01*
X0546331Y0124410D01*
X0546331Y0124973D02*
X0516300Y0124973D01*
X0516300Y0125759D02*
X0546401Y0125759D01*
X0546727Y0126544D02*
X0516300Y0126544D01*
X0516300Y0127330D02*
X0547432Y0127330D01*
X0548710Y0130531D02*
X0549890Y0130531D01*
X0550982Y0130983D01*
X0551817Y0131818D01*
X0552268Y0132910D01*
X0552268Y0134090D01*
X0551817Y0135182D01*
X0550982Y0136017D01*
X0549890Y0136468D01*
X0548710Y0136468D01*
X0547618Y0136017D01*
X0546783Y0135182D01*
X0546331Y0134090D01*
X0546331Y0132910D01*
X0546783Y0131818D01*
X0547618Y0130983D01*
X0548710Y0130531D01*
X0547342Y0131260D02*
X0516300Y0131260D01*
X0516300Y0132046D02*
X0546689Y0132046D01*
X0546364Y0132832D02*
X0516300Y0132832D01*
X0516300Y0133618D02*
X0546331Y0133618D01*
X0546461Y0134404D02*
X0516300Y0134404D01*
X0516300Y0135190D02*
X0546791Y0135190D01*
X0547577Y0135975D02*
X0516300Y0135975D01*
X0516300Y0136761D02*
X0598119Y0136761D01*
X0598119Y0136068D02*
X0598755Y0134532D01*
X0599932Y0133355D01*
X0601468Y0132719D01*
X0603132Y0132719D01*
X0604668Y0133355D01*
X0605845Y0134532D01*
X0606481Y0136068D01*
X0606481Y0137732D01*
X0605845Y0139268D01*
X0604668Y0140445D01*
X0603132Y0141081D01*
X0601468Y0141081D01*
X0599932Y0140445D01*
X0598755Y0139268D01*
X0598119Y0137732D01*
X0598119Y0136068D01*
X0598157Y0135975D02*
X0551023Y0135975D01*
X0551809Y0135190D02*
X0598483Y0135190D01*
X0598883Y0134404D02*
X0552139Y0134404D01*
X0552268Y0133618D02*
X0599669Y0133618D01*
X0601196Y0132832D02*
X0552236Y0132832D01*
X0551911Y0132046D02*
X0608119Y0132046D01*
X0608119Y0132332D02*
X0608119Y0130668D01*
X0608755Y0129132D01*
X0609932Y0127955D01*
X0611468Y0127319D01*
X0613132Y0127319D01*
X0614668Y0127955D01*
X0615845Y0129132D01*
X0616481Y0130668D01*
X0616481Y0132332D01*
X0615845Y0133868D01*
X0614668Y0135045D01*
X0613132Y0135681D01*
X0611468Y0135681D01*
X0609932Y0135045D01*
X0608755Y0133868D01*
X0608119Y0132332D01*
X0608326Y0132832D02*
X0603404Y0132832D01*
X0604931Y0133618D02*
X0608652Y0133618D01*
X0609291Y0134404D02*
X0605717Y0134404D01*
X0606117Y0135190D02*
X0610282Y0135190D01*
X0611468Y0138119D02*
X0613132Y0138119D01*
X0614668Y0138755D01*
X0615845Y0139932D01*
X0616481Y0141468D01*
X0616481Y0143132D01*
X0615845Y0144668D01*
X0614668Y0145845D01*
X0613132Y0146481D01*
X0611468Y0146481D01*
X0609932Y0145845D01*
X0608755Y0144668D01*
X0608119Y0143132D01*
X0608119Y0141468D01*
X0608755Y0139932D01*
X0609932Y0138755D01*
X0611468Y0138119D01*
X0610951Y0138333D02*
X0606232Y0138333D01*
X0606481Y0137547D02*
X0649800Y0137547D01*
X0649800Y0136761D02*
X0606481Y0136761D01*
X0606443Y0135975D02*
X0649800Y0135975D01*
X0649800Y0135190D02*
X0614318Y0135190D01*
X0615309Y0134404D02*
X0649800Y0134404D01*
X0649800Y0133618D02*
X0615948Y0133618D01*
X0616274Y0132832D02*
X0649800Y0132832D01*
X0649800Y0132046D02*
X0616481Y0132046D01*
X0616481Y0131260D02*
X0649800Y0131260D01*
X0649800Y0130474D02*
X0616401Y0130474D01*
X0616075Y0129688D02*
X0649800Y0129688D01*
X0649800Y0128902D02*
X0615615Y0128902D01*
X0614829Y0128116D02*
X0649800Y0128116D01*
X0649800Y0127330D02*
X0613159Y0127330D01*
X0611441Y0127330D02*
X0606275Y0127330D01*
X0606481Y0126832D02*
X0605845Y0128368D01*
X0604668Y0129545D01*
X0603132Y0130181D01*
X0601468Y0130181D01*
X0599932Y0129545D01*
X0598755Y0128368D01*
X0598119Y0126832D01*
X0598119Y0125168D01*
X0598755Y0123632D01*
X0599932Y0122455D01*
X0601468Y0121819D01*
X0603132Y0121819D01*
X0604668Y0122455D01*
X0605845Y0123632D01*
X0606481Y0125168D01*
X0606481Y0126832D01*
X0606481Y0126544D02*
X0649800Y0126544D01*
X0649800Y0125759D02*
X0606481Y0125759D01*
X0606400Y0124973D02*
X0649800Y0124973D01*
X0649800Y0124187D02*
X0614567Y0124187D01*
X0614668Y0124145D02*
X0613132Y0124781D01*
X0611468Y0124781D01*
X0609932Y0124145D01*
X0608755Y0122968D01*
X0608119Y0121432D01*
X0608119Y0119768D01*
X0608755Y0118232D01*
X0609932Y0117055D01*
X0611468Y0116419D01*
X0613132Y0116419D01*
X0614668Y0117055D01*
X0615845Y0118232D01*
X0616481Y0119768D01*
X0616481Y0121432D01*
X0615845Y0122968D01*
X0614668Y0124145D01*
X0615412Y0123401D02*
X0649800Y0123401D01*
X0649800Y0122615D02*
X0615991Y0122615D01*
X0616317Y0121829D02*
X0649800Y0121829D01*
X0649800Y0121043D02*
X0616481Y0121043D01*
X0616481Y0120257D02*
X0649800Y0120257D01*
X0649800Y0119471D02*
X0616358Y0119471D01*
X0616033Y0118685D02*
X0649800Y0118685D01*
X0649800Y0117899D02*
X0615512Y0117899D01*
X0614727Y0117114D02*
X0649800Y0117114D01*
X0649800Y0116328D02*
X0606317Y0116328D01*
X0606481Y0115542D02*
X0649800Y0115542D01*
X0649800Y0114756D02*
X0606481Y0114756D01*
X0606357Y0113970D02*
X0649800Y0113970D01*
X0649800Y0113184D02*
X0614729Y0113184D01*
X0615515Y0112398D02*
X0649800Y0112398D01*
X0649800Y0111612D02*
X0616034Y0111612D01*
X0616359Y0110826D02*
X0649800Y0110826D01*
X0649800Y0110040D02*
X0616481Y0110040D01*
X0616481Y0109254D02*
X0649800Y0109254D01*
X0649800Y0108468D02*
X0616315Y0108468D01*
X0615990Y0107683D02*
X0649800Y0107683D01*
X0649800Y0106897D02*
X0615410Y0106897D01*
X0614561Y0106111D02*
X0649800Y0106111D01*
X0649800Y0105325D02*
X0606401Y0105325D01*
X0606481Y0104539D02*
X0649800Y0104539D01*
X0649800Y0103753D02*
X0606481Y0103753D01*
X0606273Y0102967D02*
X0611435Y0102967D01*
X0613165Y0102967D02*
X0649800Y0102967D01*
X0649800Y0102181D02*
X0614832Y0102181D01*
X0615618Y0101395D02*
X0649800Y0101395D01*
X0649800Y0100609D02*
X0616076Y0100609D01*
X0616402Y0099823D02*
X0649800Y0099823D01*
X0649800Y0099038D02*
X0616481Y0099038D01*
X0616481Y0098252D02*
X0649800Y0098252D01*
X0649800Y0097466D02*
X0616273Y0097466D01*
X0615947Y0096680D02*
X0649800Y0096680D01*
X0649800Y0095894D02*
X0615307Y0095894D01*
X0614312Y0095108D02*
X0649800Y0095108D01*
X0610039Y0106111D02*
X0606076Y0106111D01*
X0605616Y0106897D02*
X0609190Y0106897D01*
X0608610Y0107683D02*
X0604830Y0107683D01*
X0604725Y0111612D02*
X0608566Y0111612D01*
X0609085Y0112398D02*
X0605511Y0112398D01*
X0606032Y0113184D02*
X0609871Y0113184D01*
X0609873Y0117114D02*
X0605992Y0117114D01*
X0605414Y0117899D02*
X0609088Y0117899D01*
X0608567Y0118685D02*
X0604570Y0118685D01*
X0603156Y0121829D02*
X0608283Y0121829D01*
X0608119Y0121043D02*
X0543768Y0121043D01*
X0543768Y0120257D02*
X0608119Y0120257D01*
X0608242Y0119471D02*
X0543587Y0119471D01*
X0543183Y0118685D02*
X0600030Y0118685D01*
X0599186Y0117899D02*
X0542279Y0117899D01*
X0543930Y0116328D02*
X0516300Y0116328D01*
X0516300Y0115542D02*
X0543518Y0115542D01*
X0543331Y0114756D02*
X0516300Y0114756D01*
X0516300Y0113970D02*
X0543331Y0113970D01*
X0543632Y0113184D02*
X0516300Y0113184D01*
X0516300Y0112398D02*
X0539539Y0112398D01*
X0541061Y0112398D02*
X0544204Y0112398D01*
X0543268Y0110040D02*
X0549725Y0110040D01*
X0549399Y0109254D02*
X0543268Y0109254D01*
X0543086Y0108468D02*
X0549331Y0108468D01*
X0549425Y0107683D02*
X0542681Y0107683D01*
X0541772Y0106897D02*
X0549751Y0106897D01*
X0550491Y0106111D02*
X0516300Y0106111D01*
X0516300Y0106897D02*
X0538828Y0106897D01*
X0537919Y0107683D02*
X0516300Y0107683D01*
X0516300Y0108468D02*
X0537514Y0108468D01*
X0537331Y0109254D02*
X0516300Y0109254D01*
X0516300Y0110040D02*
X0537331Y0110040D01*
X0537636Y0110826D02*
X0516300Y0110826D01*
X0516300Y0111612D02*
X0538214Y0111612D01*
X0543463Y0121829D02*
X0601444Y0121829D01*
X0599772Y0122615D02*
X0551113Y0122615D01*
X0551851Y0123401D02*
X0598986Y0123401D01*
X0598525Y0124187D02*
X0552176Y0124187D01*
X0552268Y0124973D02*
X0598200Y0124973D01*
X0598119Y0125759D02*
X0552199Y0125759D01*
X0551873Y0126544D02*
X0598119Y0126544D01*
X0598325Y0127330D02*
X0551168Y0127330D01*
X0551258Y0131260D02*
X0608119Y0131260D01*
X0608199Y0130474D02*
X0516300Y0130474D01*
X0516300Y0129688D02*
X0600278Y0129688D01*
X0599289Y0128902D02*
X0516300Y0128902D01*
X0516300Y0128116D02*
X0598651Y0128116D01*
X0604322Y0129688D02*
X0608525Y0129688D01*
X0608985Y0128902D02*
X0605311Y0128902D01*
X0605949Y0128116D02*
X0609771Y0128116D01*
X0610033Y0124187D02*
X0606075Y0124187D01*
X0605614Y0123401D02*
X0609188Y0123401D01*
X0608609Y0122615D02*
X0604828Y0122615D01*
X0598119Y0137547D02*
X0540929Y0137547D01*
X0540890Y0137531D02*
X0541982Y0137983D01*
X0542817Y0138818D01*
X0543268Y0139910D01*
X0543268Y0141090D01*
X0542817Y0142182D01*
X0541982Y0143017D01*
X0540890Y0143468D01*
X0539710Y0143468D01*
X0538618Y0143017D01*
X0537783Y0142182D01*
X0537331Y0141090D01*
X0537331Y0139910D01*
X0537783Y0138818D01*
X0538618Y0137983D01*
X0539710Y0137531D01*
X0540890Y0137531D01*
X0539671Y0137547D02*
X0516300Y0137547D01*
X0516300Y0138333D02*
X0538269Y0138333D01*
X0537659Y0139119D02*
X0516300Y0139119D01*
X0516300Y0139905D02*
X0537333Y0139905D01*
X0537331Y0140691D02*
X0516300Y0140691D01*
X0516300Y0141477D02*
X0537492Y0141477D01*
X0537865Y0142263D02*
X0516300Y0142263D01*
X0516300Y0143049D02*
X0538696Y0143049D01*
X0541904Y0143049D02*
X0543831Y0143049D01*
X0543831Y0142910D02*
X0544283Y0141818D01*
X0545118Y0140983D01*
X0546210Y0140531D01*
X0547390Y0140531D01*
X0548482Y0140983D01*
X0549317Y0141818D01*
X0549768Y0142910D01*
X0549768Y0144090D01*
X0549317Y0145182D01*
X0548482Y0146017D01*
X0547390Y0146468D01*
X0546210Y0146468D01*
X0545118Y0146017D01*
X0544283Y0145182D01*
X0543831Y0144090D01*
X0543831Y0142910D01*
X0544099Y0142263D02*
X0542735Y0142263D01*
X0543108Y0141477D02*
X0544625Y0141477D01*
X0545825Y0140691D02*
X0543268Y0140691D01*
X0543267Y0139905D02*
X0588197Y0139905D01*
X0587783Y0140318D02*
X0588618Y0139483D01*
X0589710Y0139031D01*
X0590890Y0139031D01*
X0591982Y0139483D01*
X0592300Y0139802D01*
X0593118Y0138983D01*
X0594210Y0138531D01*
X0595390Y0138531D01*
X0596482Y0138983D01*
X0597317Y0139818D01*
X0597768Y0140910D01*
X0597768Y0142090D01*
X0597317Y0143182D01*
X0596482Y0144017D01*
X0595390Y0144468D01*
X0594210Y0144468D01*
X0593118Y0144017D01*
X0592800Y0143698D01*
X0591982Y0144517D01*
X0590890Y0144968D01*
X0589710Y0144968D01*
X0588618Y0144517D01*
X0587783Y0143682D01*
X0587331Y0142590D01*
X0587331Y0141410D01*
X0587783Y0140318D01*
X0587629Y0140691D02*
X0547775Y0140691D01*
X0548975Y0141477D02*
X0587331Y0141477D01*
X0587331Y0142263D02*
X0549501Y0142263D01*
X0549768Y0143049D02*
X0587521Y0143049D01*
X0587936Y0143835D02*
X0549768Y0143835D01*
X0549549Y0144620D02*
X0588869Y0144620D01*
X0591731Y0144620D02*
X0599567Y0144620D01*
X0599932Y0144255D02*
X0601468Y0143619D01*
X0603132Y0143619D01*
X0604668Y0144255D01*
X0605845Y0145432D01*
X0606481Y0146968D01*
X0606481Y0148632D01*
X0605845Y0150168D01*
X0604668Y0151345D01*
X0603132Y0151981D01*
X0601468Y0151981D01*
X0599932Y0151345D01*
X0598755Y0150168D01*
X0598119Y0148632D01*
X0598119Y0146968D01*
X0598755Y0145432D01*
X0599932Y0144255D01*
X0600948Y0143835D02*
X0596664Y0143835D01*
X0597372Y0143049D02*
X0608119Y0143049D01*
X0608119Y0142263D02*
X0597697Y0142263D01*
X0597768Y0141477D02*
X0608119Y0141477D01*
X0608441Y0140691D02*
X0604074Y0140691D01*
X0605208Y0139905D02*
X0608782Y0139905D01*
X0609568Y0139119D02*
X0605906Y0139119D01*
X0600526Y0140691D02*
X0597678Y0140691D01*
X0597352Y0139905D02*
X0599392Y0139905D01*
X0598694Y0139119D02*
X0596617Y0139119D01*
X0598368Y0138333D02*
X0542331Y0138333D01*
X0542941Y0139119D02*
X0589498Y0139119D01*
X0591102Y0139119D02*
X0592983Y0139119D01*
X0592936Y0143835D02*
X0592664Y0143835D01*
X0598440Y0146192D02*
X0548057Y0146192D01*
X0547710Y0146531D02*
X0548890Y0146531D01*
X0549982Y0146983D01*
X0550817Y0147818D01*
X0551268Y0148910D01*
X0551268Y0150090D01*
X0550817Y0151182D01*
X0549982Y0152017D01*
X0548890Y0152468D01*
X0547710Y0152468D01*
X0546618Y0152017D01*
X0545783Y0151182D01*
X0545331Y0150090D01*
X0545331Y0148910D01*
X0545783Y0147818D01*
X0546618Y0146983D01*
X0547710Y0146531D01*
X0546631Y0146978D02*
X0516300Y0146978D01*
X0516300Y0146192D02*
X0545543Y0146192D01*
X0544508Y0145406D02*
X0516300Y0145406D01*
X0516300Y0144620D02*
X0544051Y0144620D01*
X0543831Y0143835D02*
X0516300Y0143835D01*
X0516300Y0147764D02*
X0539648Y0147764D01*
X0539118Y0147983D02*
X0540210Y0147531D01*
X0541390Y0147531D01*
X0542482Y0147983D01*
X0543317Y0148818D01*
X0543768Y0149910D01*
X0543768Y0151090D01*
X0543317Y0152182D01*
X0542482Y0153017D01*
X0541390Y0153468D01*
X0540210Y0153468D01*
X0539118Y0153017D01*
X0538283Y0152182D01*
X0537831Y0151090D01*
X0537831Y0149910D01*
X0538283Y0148818D01*
X0539118Y0147983D01*
X0538552Y0148550D02*
X0516300Y0148550D01*
X0516300Y0149336D02*
X0538069Y0149336D01*
X0537831Y0150122D02*
X0516300Y0150122D01*
X0516300Y0150908D02*
X0537831Y0150908D01*
X0538081Y0151694D02*
X0516300Y0151694D01*
X0516300Y0152480D02*
X0538582Y0152480D01*
X0539720Y0153266D02*
X0516300Y0153266D01*
X0516300Y0154051D02*
X0584331Y0154051D01*
X0584331Y0154090D02*
X0584331Y0153468D01*
X0583210Y0153468D01*
X0582118Y0153017D01*
X0581283Y0152182D01*
X0580831Y0151090D01*
X0580831Y0149910D01*
X0581283Y0148818D01*
X0582118Y0147983D01*
X0583210Y0147531D01*
X0584390Y0147531D01*
X0585482Y0147983D01*
X0586317Y0148818D01*
X0586768Y0149910D01*
X0586768Y0150531D01*
X0587890Y0150531D01*
X0588982Y0150983D01*
X0589817Y0151818D01*
X0590268Y0152910D01*
X0590268Y0154090D01*
X0589817Y0155182D01*
X0588982Y0156017D01*
X0587890Y0156468D01*
X0586710Y0156468D01*
X0585618Y0156017D01*
X0584783Y0155182D01*
X0584331Y0154090D01*
X0584641Y0154837D02*
X0516300Y0154837D01*
X0516300Y0155623D02*
X0585225Y0155623D01*
X0586566Y0156409D02*
X0516300Y0156409D01*
X0516300Y0157195D02*
X0542907Y0157195D01*
X0543118Y0156983D02*
X0544210Y0156531D01*
X0545390Y0156531D01*
X0546482Y0156983D01*
X0547050Y0157552D01*
X0547618Y0156983D01*
X0548710Y0156531D01*
X0549890Y0156531D01*
X0550982Y0156983D01*
X0551550Y0157552D01*
X0552118Y0156983D01*
X0553210Y0156531D01*
X0554390Y0156531D01*
X0555482Y0156983D01*
X0556050Y0157552D01*
X0556618Y0156983D01*
X0557710Y0156531D01*
X0558890Y0156531D01*
X0559982Y0156983D01*
X0560817Y0157818D01*
X0561268Y0158910D01*
X0561268Y0160090D01*
X0560817Y0161182D01*
X0559982Y0162017D01*
X0558890Y0162468D01*
X0557710Y0162468D01*
X0556618Y0162017D01*
X0556050Y0161448D01*
X0555482Y0162017D01*
X0554390Y0162468D01*
X0553210Y0162468D01*
X0552118Y0162017D01*
X0551550Y0161448D01*
X0550982Y0162017D01*
X0549890Y0162468D01*
X0548710Y0162468D01*
X0547618Y0162017D01*
X0547050Y0161448D01*
X0546482Y0162017D01*
X0545390Y0162468D01*
X0544210Y0162468D01*
X0543118Y0162017D01*
X0542283Y0161182D01*
X0541831Y0160090D01*
X0541831Y0158910D01*
X0542283Y0157818D01*
X0543118Y0156983D01*
X0542216Y0157981D02*
X0539976Y0157981D01*
X0539982Y0157983D02*
X0540817Y0158818D01*
X0541268Y0159910D01*
X0541268Y0161090D01*
X0540817Y0162182D01*
X0539982Y0163017D01*
X0538890Y0163468D01*
X0537710Y0163468D01*
X0536618Y0163017D01*
X0535783Y0162182D01*
X0535331Y0161090D01*
X0535331Y0159910D01*
X0535783Y0158818D01*
X0536618Y0157983D01*
X0537710Y0157531D01*
X0538890Y0157531D01*
X0539982Y0157983D01*
X0540765Y0158767D02*
X0541891Y0158767D01*
X0541831Y0159553D02*
X0541121Y0159553D01*
X0541268Y0160339D02*
X0541934Y0160339D01*
X0542260Y0161125D02*
X0541254Y0161125D01*
X0540929Y0161911D02*
X0543012Y0161911D01*
X0540302Y0162696D02*
X0601264Y0162696D01*
X0601468Y0162781D02*
X0599932Y0162145D01*
X0598755Y0160968D01*
X0598119Y0159432D01*
X0598119Y0157768D01*
X0598755Y0156232D01*
X0599932Y0155055D01*
X0601468Y0154419D01*
X0603132Y0154419D01*
X0604668Y0155055D01*
X0605845Y0156232D01*
X0606481Y0157768D01*
X0606481Y0159432D01*
X0605845Y0160968D01*
X0604668Y0162145D01*
X0603132Y0162781D01*
X0601468Y0162781D01*
X0603336Y0162696D02*
X0608356Y0162696D01*
X0608119Y0163268D02*
X0608755Y0161732D01*
X0609932Y0160555D01*
X0611468Y0159919D01*
X0613132Y0159919D01*
X0614668Y0160555D01*
X0615845Y0161732D01*
X0616481Y0163268D01*
X0616481Y0164932D01*
X0615845Y0166468D01*
X0614668Y0167645D01*
X0613132Y0168281D01*
X0611468Y0168281D01*
X0609932Y0167645D01*
X0608755Y0166468D01*
X0608119Y0164932D01*
X0608119Y0163268D01*
X0608119Y0163482D02*
X0516300Y0163482D01*
X0516300Y0162696D02*
X0536298Y0162696D01*
X0535671Y0161911D02*
X0516300Y0161911D01*
X0516300Y0161125D02*
X0535346Y0161125D01*
X0535331Y0160339D02*
X0516300Y0160339D01*
X0516300Y0159553D02*
X0535479Y0159553D01*
X0535835Y0158767D02*
X0516300Y0158767D01*
X0516300Y0157981D02*
X0536624Y0157981D01*
X0541880Y0153266D02*
X0582720Y0153266D01*
X0581582Y0152480D02*
X0543018Y0152480D01*
X0543519Y0151694D02*
X0546296Y0151694D01*
X0545670Y0150908D02*
X0543768Y0150908D01*
X0543768Y0150122D02*
X0545345Y0150122D01*
X0545331Y0149336D02*
X0543531Y0149336D01*
X0543048Y0148550D02*
X0545480Y0148550D01*
X0545838Y0147764D02*
X0541952Y0147764D01*
X0549092Y0145406D02*
X0598781Y0145406D01*
X0598119Y0146978D02*
X0549969Y0146978D01*
X0550762Y0147764D02*
X0582648Y0147764D01*
X0581552Y0148550D02*
X0551120Y0148550D01*
X0551268Y0149336D02*
X0581069Y0149336D01*
X0580831Y0150122D02*
X0551255Y0150122D01*
X0550930Y0150908D02*
X0580831Y0150908D01*
X0581081Y0151694D02*
X0550304Y0151694D01*
X0551193Y0157195D02*
X0551907Y0157195D01*
X0555693Y0157195D02*
X0556407Y0157195D01*
X0560193Y0157195D02*
X0598356Y0157195D01*
X0598119Y0157981D02*
X0560884Y0157981D01*
X0561209Y0158767D02*
X0598119Y0158767D01*
X0598169Y0159553D02*
X0561268Y0159553D01*
X0561166Y0160339D02*
X0598495Y0160339D01*
X0598912Y0161125D02*
X0560840Y0161125D01*
X0560088Y0161911D02*
X0599698Y0161911D01*
X0601468Y0165319D02*
X0603132Y0165319D01*
X0604668Y0165955D01*
X0605845Y0167132D01*
X0606481Y0168668D01*
X0606481Y0170332D01*
X0605845Y0171868D01*
X0604668Y0173045D01*
X0603132Y0173681D01*
X0601468Y0173681D01*
X0599932Y0173045D01*
X0598755Y0171868D01*
X0598119Y0170332D01*
X0598119Y0168668D01*
X0598755Y0167132D01*
X0599932Y0165955D01*
X0601468Y0165319D01*
X0600210Y0165840D02*
X0541636Y0165840D01*
X0541982Y0165983D02*
X0542817Y0166818D01*
X0543268Y0167910D01*
X0543268Y0169090D01*
X0542817Y0170182D01*
X0541982Y0171017D01*
X0540890Y0171468D01*
X0539710Y0171468D01*
X0538618Y0171017D01*
X0537783Y0170182D01*
X0537331Y0169090D01*
X0537331Y0167910D01*
X0537783Y0166818D01*
X0538618Y0165983D01*
X0539710Y0165531D01*
X0540890Y0165531D01*
X0541982Y0165983D01*
X0542624Y0166626D02*
X0599261Y0166626D01*
X0598639Y0167412D02*
X0543062Y0167412D01*
X0543268Y0168198D02*
X0598314Y0168198D01*
X0598119Y0168984D02*
X0543268Y0168984D01*
X0542987Y0169770D02*
X0598119Y0169770D01*
X0598212Y0170556D02*
X0542442Y0170556D01*
X0541197Y0171342D02*
X0598537Y0171342D01*
X0599014Y0172127D02*
X0516300Y0172127D01*
X0516300Y0171342D02*
X0539403Y0171342D01*
X0538158Y0170556D02*
X0516300Y0170556D01*
X0516300Y0169770D02*
X0537613Y0169770D01*
X0537331Y0168984D02*
X0516300Y0168984D01*
X0516300Y0168198D02*
X0537331Y0168198D01*
X0537538Y0167412D02*
X0516300Y0167412D01*
X0516300Y0166626D02*
X0537976Y0166626D01*
X0538964Y0165840D02*
X0516300Y0165840D01*
X0516300Y0165054D02*
X0608170Y0165054D01*
X0608119Y0164268D02*
X0516300Y0164268D01*
X0516300Y0172913D02*
X0599800Y0172913D01*
X0601468Y0176219D02*
X0603132Y0176219D01*
X0604668Y0176855D01*
X0605845Y0178032D01*
X0606481Y0179568D01*
X0606481Y0181232D01*
X0605845Y0182768D01*
X0604668Y0183945D01*
X0603132Y0184581D01*
X0601468Y0184581D01*
X0599932Y0183945D01*
X0598755Y0182768D01*
X0598119Y0181232D01*
X0598119Y0179568D01*
X0598755Y0178032D01*
X0599932Y0176855D01*
X0601468Y0176219D01*
X0599962Y0176843D02*
X0543241Y0176843D01*
X0543268Y0176910D02*
X0542817Y0175818D01*
X0541982Y0174983D01*
X0540890Y0174531D01*
X0539710Y0174531D01*
X0538618Y0174983D01*
X0537783Y0175818D01*
X0537331Y0176910D01*
X0537331Y0178090D01*
X0537783Y0179182D01*
X0538618Y0180017D01*
X0539710Y0180468D01*
X0540890Y0180468D01*
X0541982Y0180017D01*
X0542817Y0179182D01*
X0543268Y0178090D01*
X0543268Y0176910D01*
X0543268Y0177629D02*
X0599158Y0177629D01*
X0598597Y0178415D02*
X0543134Y0178415D01*
X0542797Y0179201D02*
X0598271Y0179201D01*
X0598119Y0179987D02*
X0542012Y0179987D01*
X0538588Y0179987D02*
X0516300Y0179987D01*
X0516300Y0180772D02*
X0598119Y0180772D01*
X0598254Y0181558D02*
X0516300Y0181558D01*
X0516300Y0182344D02*
X0598580Y0182344D01*
X0599117Y0183130D02*
X0516300Y0183130D01*
X0516300Y0183916D02*
X0537781Y0183916D01*
X0537618Y0183983D02*
X0538710Y0183531D01*
X0539890Y0183531D01*
X0540982Y0183983D01*
X0541817Y0184818D01*
X0542050Y0185382D01*
X0542283Y0184818D01*
X0543118Y0183983D01*
X0544210Y0183531D01*
X0545390Y0183531D01*
X0546482Y0183983D01*
X0547050Y0184552D01*
X0547618Y0183983D01*
X0548710Y0183531D01*
X0549890Y0183531D01*
X0550982Y0183983D01*
X0551550Y0184552D01*
X0552118Y0183983D01*
X0553210Y0183531D01*
X0554390Y0183531D01*
X0555482Y0183983D01*
X0556050Y0184552D01*
X0556618Y0183983D01*
X0557710Y0183531D01*
X0558890Y0183531D01*
X0559982Y0183983D01*
X0560817Y0184818D01*
X0561268Y0185910D01*
X0561268Y0187090D01*
X0560817Y0188182D01*
X0559982Y0189017D01*
X0558890Y0189468D01*
X0557710Y0189468D01*
X0556618Y0189017D01*
X0556050Y0188448D01*
X0555482Y0189017D01*
X0554390Y0189468D01*
X0553210Y0189468D01*
X0552118Y0189017D01*
X0551550Y0188448D01*
X0550982Y0189017D01*
X0549890Y0189468D01*
X0548710Y0189468D01*
X0547618Y0189017D01*
X0547050Y0188448D01*
X0546482Y0189017D01*
X0545390Y0189468D01*
X0544210Y0189468D01*
X0543118Y0189017D01*
X0542283Y0188182D01*
X0542050Y0187618D01*
X0541817Y0188182D01*
X0540982Y0189017D01*
X0539890Y0189468D01*
X0538710Y0189468D01*
X0537618Y0189017D01*
X0536783Y0188182D01*
X0536331Y0187090D01*
X0536331Y0185910D01*
X0536783Y0184818D01*
X0537618Y0183983D01*
X0536900Y0184702D02*
X0516300Y0184702D01*
X0516300Y0185488D02*
X0536506Y0185488D01*
X0536331Y0186274D02*
X0516300Y0186274D01*
X0516300Y0187060D02*
X0536331Y0187060D01*
X0536644Y0187846D02*
X0516300Y0187846D01*
X0516300Y0188632D02*
X0537234Y0188632D01*
X0538586Y0189418D02*
X0516300Y0189418D01*
X0516300Y0190203D02*
X0598187Y0190203D01*
X0598119Y0190368D02*
X0598755Y0188832D01*
X0599932Y0187655D01*
X0601468Y0187019D01*
X0603132Y0187019D01*
X0604668Y0187655D01*
X0605845Y0188832D01*
X0606481Y0190368D01*
X0606481Y0192032D01*
X0605845Y0193568D01*
X0604668Y0194745D01*
X0603132Y0195381D01*
X0601468Y0195381D01*
X0599932Y0194745D01*
X0598755Y0193568D01*
X0598119Y0192032D01*
X0598119Y0190368D01*
X0598119Y0190989D02*
X0516300Y0190989D01*
X0516300Y0191775D02*
X0598119Y0191775D01*
X0598338Y0192561D02*
X0516300Y0192561D01*
X0516300Y0193347D02*
X0598664Y0193347D01*
X0599320Y0194133D02*
X0553136Y0194133D01*
X0552890Y0194031D02*
X0553982Y0194483D01*
X0554817Y0195318D01*
X0555268Y0196410D01*
X0555268Y0197590D01*
X0554817Y0198682D01*
X0553982Y0199517D01*
X0552890Y0199968D01*
X0551710Y0199968D01*
X0550618Y0199517D01*
X0549783Y0198682D01*
X0549331Y0197590D01*
X0549331Y0196410D01*
X0549783Y0195318D01*
X0550618Y0194483D01*
X0551710Y0194031D01*
X0552890Y0194031D01*
X0551464Y0194133D02*
X0516300Y0194133D01*
X0516300Y0194919D02*
X0550183Y0194919D01*
X0549623Y0195705D02*
X0542203Y0195705D01*
X0541982Y0195483D02*
X0542817Y0196318D01*
X0543268Y0197410D01*
X0543268Y0198590D01*
X0542817Y0199682D01*
X0541982Y0200517D01*
X0540890Y0200968D01*
X0539710Y0200968D01*
X0538618Y0200517D01*
X0537783Y0199682D01*
X0537331Y0198590D01*
X0537331Y0197410D01*
X0537783Y0196318D01*
X0538618Y0195483D01*
X0539710Y0195031D01*
X0540890Y0195031D01*
X0541982Y0195483D01*
X0542888Y0196491D02*
X0549331Y0196491D01*
X0549331Y0197277D02*
X0543213Y0197277D01*
X0543268Y0198063D02*
X0549527Y0198063D01*
X0549950Y0198848D02*
X0543162Y0198848D01*
X0542836Y0199634D02*
X0550903Y0199634D01*
X0548817Y0201318D02*
X0549268Y0202410D01*
X0549268Y0203590D01*
X0548817Y0204682D01*
X0547982Y0205517D01*
X0546890Y0205968D01*
X0545710Y0205968D01*
X0544618Y0205517D01*
X0543783Y0204682D01*
X0543331Y0203590D01*
X0543331Y0202410D01*
X0543783Y0201318D01*
X0544618Y0200483D01*
X0545710Y0200031D01*
X0546890Y0200031D01*
X0547982Y0200483D01*
X0548817Y0201318D01*
X0548704Y0201206D02*
X0598145Y0201206D01*
X0598119Y0201268D02*
X0598755Y0199732D01*
X0599932Y0198555D01*
X0601468Y0197919D01*
X0603132Y0197919D01*
X0604668Y0198555D01*
X0605845Y0199732D01*
X0606481Y0201268D01*
X0606481Y0202932D01*
X0605845Y0204468D01*
X0604668Y0205645D01*
X0603132Y0206281D01*
X0601468Y0206281D01*
X0599932Y0205645D01*
X0598755Y0204468D01*
X0598119Y0202932D01*
X0598119Y0201268D01*
X0598119Y0201992D02*
X0549096Y0201992D01*
X0549268Y0202778D02*
X0598119Y0202778D01*
X0598381Y0203564D02*
X0549268Y0203564D01*
X0548954Y0204350D02*
X0598706Y0204350D01*
X0599423Y0205136D02*
X0548362Y0205136D01*
X0547003Y0205922D02*
X0600601Y0205922D01*
X0601468Y0208819D02*
X0603132Y0208819D01*
X0604668Y0209455D01*
X0605845Y0210632D01*
X0606481Y0212168D01*
X0606481Y0213832D01*
X0605845Y0215368D01*
X0604668Y0216545D01*
X0603132Y0217181D01*
X0601468Y0217181D01*
X0599932Y0216545D01*
X0598755Y0215368D01*
X0598119Y0213832D01*
X0598119Y0212168D01*
X0598755Y0210632D01*
X0599932Y0209455D01*
X0601468Y0208819D01*
X0600873Y0209065D02*
X0543768Y0209065D01*
X0543768Y0209590D02*
X0543768Y0208410D01*
X0543317Y0207318D01*
X0542482Y0206483D01*
X0541390Y0206031D01*
X0540210Y0206031D01*
X0539118Y0206483D01*
X0538283Y0207318D01*
X0537831Y0208410D01*
X0537831Y0209590D01*
X0538283Y0210682D01*
X0539118Y0211517D01*
X0540210Y0211968D01*
X0541390Y0211968D01*
X0542482Y0211517D01*
X0543317Y0210682D01*
X0543768Y0209590D01*
X0543660Y0209851D02*
X0599536Y0209851D01*
X0598753Y0210637D02*
X0550146Y0210637D01*
X0549890Y0210531D02*
X0550982Y0210983D01*
X0551817Y0211818D01*
X0552268Y0212910D01*
X0552268Y0214090D01*
X0551817Y0215182D01*
X0550982Y0216017D01*
X0549890Y0216468D01*
X0548710Y0216468D01*
X0547618Y0216017D01*
X0546783Y0215182D01*
X0546331Y0214090D01*
X0546331Y0212910D01*
X0546783Y0211818D01*
X0547618Y0210983D01*
X0548710Y0210531D01*
X0549890Y0210531D01*
X0548454Y0210637D02*
X0543335Y0210637D01*
X0542575Y0211423D02*
X0547179Y0211423D01*
X0546622Y0212209D02*
X0516300Y0212209D01*
X0516300Y0212995D02*
X0546331Y0212995D01*
X0546331Y0213781D02*
X0516300Y0213781D01*
X0516300Y0214567D02*
X0546529Y0214567D01*
X0546955Y0215353D02*
X0516300Y0215353D01*
X0516300Y0216139D02*
X0547913Y0216139D01*
X0550687Y0216139D02*
X0599526Y0216139D01*
X0598749Y0215353D02*
X0551645Y0215353D01*
X0552071Y0214567D02*
X0598423Y0214567D01*
X0598119Y0213781D02*
X0552268Y0213781D01*
X0552268Y0212995D02*
X0598119Y0212995D01*
X0598119Y0212209D02*
X0551978Y0212209D01*
X0551421Y0211423D02*
X0598428Y0211423D01*
X0603727Y0209065D02*
X0608423Y0209065D01*
X0608119Y0208332D02*
X0608119Y0206668D01*
X0608755Y0205132D01*
X0609932Y0203955D01*
X0611468Y0203319D01*
X0613132Y0203319D01*
X0614668Y0203955D01*
X0615845Y0205132D01*
X0616481Y0206668D01*
X0616481Y0208332D01*
X0615845Y0209868D01*
X0614668Y0211045D01*
X0613132Y0211681D01*
X0611468Y0211681D01*
X0609932Y0211045D01*
X0608755Y0209868D01*
X0608119Y0208332D01*
X0608119Y0208279D02*
X0543715Y0208279D01*
X0543389Y0207494D02*
X0608119Y0207494D01*
X0608119Y0206708D02*
X0542706Y0206708D01*
X0544238Y0205136D02*
X0516300Y0205136D01*
X0516300Y0205922D02*
X0545597Y0205922D01*
X0543646Y0204350D02*
X0516300Y0204350D01*
X0516300Y0203564D02*
X0543331Y0203564D01*
X0543331Y0202778D02*
X0516300Y0202778D01*
X0516300Y0201992D02*
X0543504Y0201992D01*
X0543896Y0201206D02*
X0516300Y0201206D01*
X0516300Y0200420D02*
X0538522Y0200420D01*
X0537764Y0199634D02*
X0516300Y0199634D01*
X0516300Y0198848D02*
X0537438Y0198848D01*
X0537331Y0198063D02*
X0516300Y0198063D01*
X0516300Y0197277D02*
X0537387Y0197277D01*
X0537712Y0196491D02*
X0516300Y0196491D01*
X0516300Y0195705D02*
X0538397Y0195705D01*
X0542078Y0200420D02*
X0544771Y0200420D01*
X0547829Y0200420D02*
X0598470Y0200420D01*
X0598853Y0199634D02*
X0553697Y0199634D01*
X0554650Y0198848D02*
X0599639Y0198848D01*
X0601121Y0198063D02*
X0555073Y0198063D01*
X0555268Y0197277D02*
X0608119Y0197277D01*
X0608119Y0197532D02*
X0608119Y0195868D01*
X0608755Y0194332D01*
X0609932Y0193155D01*
X0611468Y0192519D01*
X0613132Y0192519D01*
X0614668Y0193155D01*
X0615845Y0194332D01*
X0616481Y0195868D01*
X0616481Y0197532D01*
X0615845Y0199068D01*
X0614668Y0200245D01*
X0613132Y0200881D01*
X0611468Y0200881D01*
X0609932Y0200245D01*
X0608755Y0199068D01*
X0608119Y0197532D01*
X0608339Y0198063D02*
X0603478Y0198063D01*
X0604961Y0198848D02*
X0608664Y0198848D01*
X0609321Y0199634D02*
X0605747Y0199634D01*
X0606130Y0200420D02*
X0610356Y0200420D01*
X0610877Y0203564D02*
X0606219Y0203564D01*
X0606481Y0202778D02*
X0649800Y0202778D01*
X0649800Y0201992D02*
X0606481Y0201992D01*
X0606455Y0201206D02*
X0649800Y0201206D01*
X0649800Y0200420D02*
X0614244Y0200420D01*
X0615279Y0199634D02*
X0649800Y0199634D01*
X0649800Y0198848D02*
X0615936Y0198848D01*
X0616261Y0198063D02*
X0649800Y0198063D01*
X0649800Y0197277D02*
X0616481Y0197277D01*
X0616481Y0196491D02*
X0649800Y0196491D01*
X0649800Y0195705D02*
X0616413Y0195705D01*
X0616088Y0194919D02*
X0649800Y0194919D01*
X0649800Y0194133D02*
X0615646Y0194133D01*
X0614860Y0193347D02*
X0649800Y0193347D01*
X0649800Y0192561D02*
X0613234Y0192561D01*
X0611366Y0192561D02*
X0606262Y0192561D01*
X0606481Y0191775D02*
X0649800Y0191775D01*
X0649800Y0190989D02*
X0606481Y0190989D01*
X0606413Y0190203D02*
X0649800Y0190203D01*
X0649800Y0189418D02*
X0614492Y0189418D01*
X0614668Y0189345D02*
X0613132Y0189981D01*
X0611468Y0189981D01*
X0609932Y0189345D01*
X0608755Y0188168D01*
X0608119Y0186632D01*
X0608119Y0184968D01*
X0608755Y0183432D01*
X0609932Y0182255D01*
X0611468Y0181619D01*
X0613132Y0181619D01*
X0614668Y0182255D01*
X0615845Y0183432D01*
X0616481Y0184968D01*
X0616481Y0186632D01*
X0615845Y0188168D01*
X0614668Y0189345D01*
X0615381Y0188632D02*
X0649800Y0188632D01*
X0649800Y0187846D02*
X0615978Y0187846D01*
X0616304Y0187060D02*
X0649800Y0187060D01*
X0649800Y0186274D02*
X0616481Y0186274D01*
X0616481Y0185488D02*
X0649800Y0185488D01*
X0649800Y0184702D02*
X0616371Y0184702D01*
X0616045Y0183916D02*
X0649800Y0183916D01*
X0649800Y0183130D02*
X0615543Y0183130D01*
X0614757Y0182344D02*
X0649800Y0182344D01*
X0649800Y0181558D02*
X0606346Y0181558D01*
X0606481Y0180772D02*
X0649800Y0180772D01*
X0649800Y0179987D02*
X0606481Y0179987D01*
X0606329Y0179201D02*
X0649800Y0179201D01*
X0649800Y0178415D02*
X0614698Y0178415D01*
X0614668Y0178445D02*
X0613132Y0179081D01*
X0611468Y0179081D01*
X0609932Y0178445D01*
X0608755Y0177268D01*
X0608119Y0175732D01*
X0608119Y0174068D01*
X0608755Y0172532D01*
X0609932Y0171355D01*
X0611468Y0170719D01*
X0613132Y0170719D01*
X0614668Y0171355D01*
X0615845Y0172532D01*
X0616481Y0174068D01*
X0616481Y0175732D01*
X0615845Y0177268D01*
X0614668Y0178445D01*
X0615484Y0177629D02*
X0649800Y0177629D01*
X0649800Y0176843D02*
X0616021Y0176843D01*
X0616346Y0176057D02*
X0649800Y0176057D01*
X0649800Y0175271D02*
X0616481Y0175271D01*
X0616481Y0174485D02*
X0649800Y0174485D01*
X0649800Y0173699D02*
X0616328Y0173699D01*
X0616003Y0172913D02*
X0649800Y0172913D01*
X0649800Y0172127D02*
X0615440Y0172127D01*
X0614635Y0171342D02*
X0649800Y0171342D01*
X0649800Y0170556D02*
X0606388Y0170556D01*
X0606481Y0169770D02*
X0649800Y0169770D01*
X0649800Y0168984D02*
X0606481Y0168984D01*
X0606286Y0168198D02*
X0611267Y0168198D01*
X0609699Y0167412D02*
X0605961Y0167412D01*
X0605339Y0166626D02*
X0608913Y0166626D01*
X0608495Y0165840D02*
X0604390Y0165840D01*
X0606063Y0171342D02*
X0609965Y0171342D01*
X0609160Y0172127D02*
X0605586Y0172127D01*
X0604800Y0172913D02*
X0608597Y0172913D01*
X0608272Y0173699D02*
X0516300Y0173699D01*
X0516300Y0174485D02*
X0608119Y0174485D01*
X0608119Y0175271D02*
X0542269Y0175271D01*
X0542915Y0176057D02*
X0608254Y0176057D01*
X0608579Y0176843D02*
X0604638Y0176843D01*
X0605442Y0177629D02*
X0609116Y0177629D01*
X0609902Y0178415D02*
X0606003Y0178415D01*
X0606020Y0182344D02*
X0609843Y0182344D01*
X0609057Y0183130D02*
X0605483Y0183130D01*
X0604697Y0183916D02*
X0608555Y0183916D01*
X0608229Y0184702D02*
X0560700Y0184702D01*
X0561094Y0185488D02*
X0608119Y0185488D01*
X0608119Y0186274D02*
X0561268Y0186274D01*
X0561268Y0187060D02*
X0601370Y0187060D01*
X0599741Y0187846D02*
X0560956Y0187846D01*
X0560366Y0188632D02*
X0598955Y0188632D01*
X0598513Y0189418D02*
X0559014Y0189418D01*
X0557586Y0189418D02*
X0554514Y0189418D01*
X0553086Y0189418D02*
X0550014Y0189418D01*
X0548586Y0189418D02*
X0545514Y0189418D01*
X0544086Y0189418D02*
X0540014Y0189418D01*
X0541366Y0188632D02*
X0542734Y0188632D01*
X0542144Y0187846D02*
X0541956Y0187846D01*
X0541700Y0184702D02*
X0542400Y0184702D01*
X0543281Y0183916D02*
X0540819Y0183916D01*
X0546319Y0183916D02*
X0547781Y0183916D01*
X0550819Y0183916D02*
X0552281Y0183916D01*
X0555319Y0183916D02*
X0556781Y0183916D01*
X0559819Y0183916D02*
X0599903Y0183916D01*
X0603230Y0187060D02*
X0608296Y0187060D01*
X0608622Y0187846D02*
X0604859Y0187846D01*
X0605645Y0188632D02*
X0609219Y0188632D01*
X0610108Y0189418D02*
X0606087Y0189418D01*
X0605936Y0193347D02*
X0609740Y0193347D01*
X0608954Y0194133D02*
X0605280Y0194133D01*
X0604247Y0194919D02*
X0608512Y0194919D01*
X0608187Y0195705D02*
X0554977Y0195705D01*
X0555268Y0196491D02*
X0608119Y0196491D01*
X0600353Y0194919D02*
X0554417Y0194919D01*
X0555866Y0188632D02*
X0556234Y0188632D01*
X0551734Y0188632D02*
X0551366Y0188632D01*
X0547234Y0188632D02*
X0546866Y0188632D01*
X0537803Y0179201D02*
X0516300Y0179201D01*
X0516300Y0178415D02*
X0537466Y0178415D01*
X0537331Y0177629D02*
X0516300Y0177629D01*
X0516300Y0176843D02*
X0537359Y0176843D01*
X0537685Y0176057D02*
X0516300Y0176057D01*
X0516300Y0175271D02*
X0538331Y0175271D01*
X0549300Y0172500D02*
X0550300Y0171500D01*
X0558300Y0171500D01*
X0549300Y0172500D02*
X0523300Y0172500D01*
X0521300Y0174500D01*
X0521300Y0133000D01*
X0521300Y0095000D01*
X0521800Y0094500D01*
X0520300Y0093500D01*
X0520300Y0086000D01*
X0545584Y0073888D02*
X0548516Y0073888D01*
X0547204Y0073102D02*
X0546896Y0073102D01*
X0550084Y0073888D02*
X0553016Y0073888D01*
X0551704Y0073102D02*
X0551396Y0073102D01*
X0554584Y0073888D02*
X0557516Y0073888D01*
X0556204Y0073102D02*
X0555896Y0073102D01*
X0555249Y0068387D02*
X0556851Y0068387D01*
X0552351Y0068387D02*
X0550749Y0068387D01*
X0547851Y0068387D02*
X0546249Y0068387D01*
X0544227Y0053455D02*
X0542911Y0053455D01*
X0543236Y0052669D02*
X0544933Y0052669D01*
X0543268Y0051883D02*
X0600992Y0051883D01*
X0601778Y0052669D02*
X0548667Y0052669D01*
X0549373Y0053455D02*
X0603620Y0053455D01*
X0600206Y0051097D02*
X0578288Y0051097D01*
X0579187Y0050311D02*
X0599420Y0050311D01*
X0598903Y0049525D02*
X0579588Y0049525D01*
X0579768Y0048739D02*
X0598577Y0048739D01*
X0598252Y0047953D02*
X0579768Y0047953D01*
X0579461Y0047167D02*
X0597926Y0047167D01*
X0597619Y0046381D02*
X0580617Y0046381D01*
X0581352Y0045595D02*
X0597619Y0045595D01*
X0597619Y0044810D02*
X0581678Y0044810D01*
X0581768Y0044024D02*
X0597619Y0044024D01*
X0597619Y0043238D02*
X0581697Y0043238D01*
X0581372Y0042452D02*
X0597670Y0042452D01*
X0597995Y0041666D02*
X0580664Y0041666D01*
X0574012Y0049525D02*
X0542023Y0049525D01*
X0542809Y0050311D02*
X0574413Y0050311D01*
X0575312Y0051097D02*
X0543139Y0051097D01*
X0560392Y0095894D02*
X0598881Y0095894D01*
X0599667Y0096680D02*
X0560966Y0096680D01*
X0561268Y0097466D02*
X0601190Y0097466D01*
X0603410Y0097466D02*
X0608327Y0097466D01*
X0608119Y0098252D02*
X0561268Y0098252D01*
X0561083Y0099038D02*
X0608119Y0099038D01*
X0608198Y0099823D02*
X0560675Y0099823D01*
X0604316Y0100609D02*
X0608524Y0100609D01*
X0608982Y0101395D02*
X0605308Y0101395D01*
X0605948Y0102181D02*
X0609768Y0102181D01*
X0608653Y0096680D02*
X0604933Y0096680D01*
X0605719Y0095894D02*
X0609293Y0095894D01*
X0547487Y0122615D02*
X0542883Y0122615D01*
X0541554Y0123401D02*
X0546749Y0123401D01*
X0501300Y0109500D02*
X0478300Y0133000D01*
X0147300Y0133000D01*
X0134800Y0145500D01*
X0101300Y0145500D01*
X0097300Y0149500D01*
X0097300Y0199500D01*
X0089200Y0207600D01*
X0066800Y0207600D01*
X0076800Y0213000D02*
X0084800Y0213000D01*
X0090300Y0218500D01*
X0092800Y0221000D01*
X0297300Y0221000D01*
X0390300Y0221000D01*
X0401800Y0209500D01*
X0389800Y0223000D02*
X0077700Y0223000D01*
X0076800Y0223900D01*
X0084100Y0234700D02*
X0092300Y0226500D01*
X0093800Y0225000D01*
X0389800Y0225000D01*
X0486300Y0225000D01*
X0487800Y0223500D01*
X0501300Y0209500D01*
X0516300Y0209851D02*
X0537940Y0209851D01*
X0537831Y0209065D02*
X0516300Y0209065D01*
X0516300Y0208279D02*
X0537885Y0208279D01*
X0538211Y0207494D02*
X0516300Y0207494D01*
X0516300Y0206708D02*
X0538894Y0206708D01*
X0538265Y0210637D02*
X0516300Y0210637D01*
X0516300Y0211423D02*
X0539025Y0211423D01*
X0547118Y0219983D02*
X0548210Y0219531D01*
X0549390Y0219531D01*
X0550482Y0219983D01*
X0551317Y0220818D01*
X0551768Y0221910D01*
X0551768Y0223090D01*
X0551317Y0224182D01*
X0550482Y0225017D01*
X0549390Y0225468D01*
X0548210Y0225468D01*
X0547118Y0225017D01*
X0546283Y0224182D01*
X0545831Y0223090D01*
X0545831Y0221910D01*
X0546283Y0220818D01*
X0547118Y0219983D01*
X0547034Y0220068D02*
X0516300Y0220068D01*
X0516300Y0219282D02*
X0581831Y0219282D01*
X0581831Y0218910D02*
X0582283Y0217818D01*
X0583118Y0216983D01*
X0584210Y0216531D01*
X0585390Y0216531D01*
X0586482Y0216983D01*
X0587317Y0217818D01*
X0587768Y0218910D01*
X0587768Y0220090D01*
X0587317Y0221182D01*
X0586482Y0222017D01*
X0585390Y0222468D01*
X0584210Y0222468D01*
X0583118Y0222017D01*
X0582283Y0221182D01*
X0581831Y0220090D01*
X0581831Y0218910D01*
X0582003Y0218496D02*
X0516300Y0218496D01*
X0516300Y0217710D02*
X0582392Y0217710D01*
X0583261Y0216924D02*
X0516300Y0216924D01*
X0516300Y0220854D02*
X0546269Y0220854D01*
X0545943Y0221640D02*
X0516300Y0221640D01*
X0516300Y0222426D02*
X0545831Y0222426D01*
X0545882Y0223212D02*
X0516300Y0223212D01*
X0516300Y0223998D02*
X0546207Y0223998D01*
X0546886Y0224784D02*
X0516300Y0224784D01*
X0516300Y0225570D02*
X0598507Y0225570D01*
X0598755Y0226168D02*
X0598119Y0224632D01*
X0598119Y0222968D01*
X0598755Y0221432D01*
X0599932Y0220255D01*
X0601468Y0219619D01*
X0603132Y0219619D01*
X0604668Y0220255D01*
X0605845Y0221432D01*
X0606481Y0222968D01*
X0606481Y0224632D01*
X0605845Y0226168D01*
X0604668Y0227345D01*
X0603132Y0227981D01*
X0601468Y0227981D01*
X0599932Y0227345D01*
X0598755Y0226168D01*
X0598942Y0226355D02*
X0516300Y0226355D01*
X0516300Y0227141D02*
X0537961Y0227141D01*
X0538118Y0226983D02*
X0539210Y0226531D01*
X0540390Y0226531D01*
X0541482Y0226983D01*
X0542317Y0227818D01*
X0542768Y0228910D01*
X0542768Y0230090D01*
X0542317Y0231182D01*
X0541482Y0232017D01*
X0540390Y0232468D01*
X0539210Y0232468D01*
X0538118Y0232017D01*
X0537283Y0231182D01*
X0536831Y0230090D01*
X0536831Y0228910D01*
X0537283Y0227818D01*
X0538118Y0226983D01*
X0537238Y0227927D02*
X0516300Y0227927D01*
X0516300Y0228713D02*
X0536913Y0228713D01*
X0536831Y0229499D02*
X0516300Y0229499D01*
X0516300Y0230285D02*
X0536912Y0230285D01*
X0537238Y0231071D02*
X0516300Y0231071D01*
X0516300Y0231857D02*
X0537959Y0231857D01*
X0541641Y0231857D02*
X0543353Y0231857D01*
X0543331Y0231910D02*
X0543783Y0230818D01*
X0544618Y0229983D01*
X0545710Y0229531D01*
X0546890Y0229531D01*
X0547982Y0229983D01*
X0548817Y0230818D01*
X0549268Y0231910D01*
X0549268Y0233090D01*
X0548817Y0234182D01*
X0547982Y0235017D01*
X0546890Y0235468D01*
X0545710Y0235468D01*
X0544618Y0235017D01*
X0543783Y0234182D01*
X0543331Y0233090D01*
X0543331Y0231910D01*
X0543331Y0232643D02*
X0516300Y0232643D01*
X0516300Y0233429D02*
X0543472Y0233429D01*
X0543816Y0234215D02*
X0516300Y0234215D01*
X0516300Y0235000D02*
X0544602Y0235000D01*
X0546118Y0235983D02*
X0547210Y0235531D01*
X0548390Y0235531D01*
X0549482Y0235983D01*
X0550317Y0236818D01*
X0550768Y0237910D01*
X0550768Y0239090D01*
X0550317Y0240182D01*
X0549482Y0241017D01*
X0548390Y0241468D01*
X0547210Y0241468D01*
X0546118Y0241017D01*
X0545283Y0240182D01*
X0544831Y0239090D01*
X0544831Y0237910D01*
X0545283Y0236818D01*
X0546118Y0235983D01*
X0546594Y0235786D02*
X0516300Y0235786D01*
X0516300Y0236572D02*
X0539611Y0236572D01*
X0539710Y0236531D02*
X0540890Y0236531D01*
X0541982Y0236983D01*
X0542817Y0237818D01*
X0543268Y0238910D01*
X0543268Y0240090D01*
X0542817Y0241182D01*
X0541982Y0242017D01*
X0540890Y0242468D01*
X0539710Y0242468D01*
X0538618Y0242017D01*
X0537783Y0241182D01*
X0537331Y0240090D01*
X0537331Y0238910D01*
X0537783Y0237818D01*
X0538618Y0236983D01*
X0539710Y0236531D01*
X0540989Y0236572D02*
X0545530Y0236572D01*
X0545060Y0237358D02*
X0542356Y0237358D01*
X0542951Y0238144D02*
X0544831Y0238144D01*
X0544831Y0238930D02*
X0543268Y0238930D01*
X0543268Y0239716D02*
X0545091Y0239716D01*
X0545604Y0240502D02*
X0543098Y0240502D01*
X0542710Y0241288D02*
X0546773Y0241288D01*
X0548827Y0241288D02*
X0608266Y0241288D01*
X0608119Y0240932D02*
X0608119Y0239268D01*
X0608755Y0237732D01*
X0609932Y0236555D01*
X0611468Y0235919D01*
X0613132Y0235919D01*
X0614668Y0236555D01*
X0615845Y0237732D01*
X0616481Y0239268D01*
X0616481Y0240932D01*
X0615845Y0242468D01*
X0614668Y0243645D01*
X0613132Y0244281D01*
X0611468Y0244281D01*
X0609932Y0243645D01*
X0608755Y0242468D01*
X0608119Y0240932D01*
X0608119Y0240502D02*
X0549996Y0240502D01*
X0550509Y0239716D02*
X0608119Y0239716D01*
X0608259Y0238930D02*
X0550768Y0238930D01*
X0550768Y0238144D02*
X0599831Y0238144D01*
X0599932Y0238245D02*
X0598755Y0237068D01*
X0598119Y0235532D01*
X0598119Y0233868D01*
X0598755Y0232332D01*
X0599932Y0231155D01*
X0601468Y0230519D01*
X0603132Y0230519D01*
X0604668Y0231155D01*
X0605845Y0232332D01*
X0606481Y0233868D01*
X0606481Y0235532D01*
X0605845Y0237068D01*
X0604668Y0238245D01*
X0603132Y0238881D01*
X0601468Y0238881D01*
X0599932Y0238245D01*
X0599045Y0237358D02*
X0550540Y0237358D01*
X0550070Y0236572D02*
X0598550Y0236572D01*
X0598224Y0235786D02*
X0549006Y0235786D01*
X0547998Y0235000D02*
X0598119Y0235000D01*
X0598119Y0234215D02*
X0548784Y0234215D01*
X0549128Y0233429D02*
X0598301Y0233429D01*
X0598627Y0232643D02*
X0549268Y0232643D01*
X0549247Y0231857D02*
X0599230Y0231857D01*
X0600136Y0231071D02*
X0548921Y0231071D01*
X0548283Y0230285D02*
X0608182Y0230285D01*
X0608119Y0230132D02*
X0608119Y0228468D01*
X0608755Y0226932D01*
X0609932Y0225755D01*
X0611468Y0225119D01*
X0613132Y0225119D01*
X0614668Y0225755D01*
X0615845Y0226932D01*
X0616481Y0228468D01*
X0616481Y0230132D01*
X0615845Y0231668D01*
X0614668Y0232845D01*
X0613132Y0233481D01*
X0611468Y0233481D01*
X0609932Y0232845D01*
X0608755Y0231668D01*
X0608119Y0230132D01*
X0608119Y0229499D02*
X0542768Y0229499D01*
X0542687Y0228713D02*
X0608119Y0228713D01*
X0608343Y0227927D02*
X0603262Y0227927D01*
X0604872Y0227141D02*
X0608669Y0227141D01*
X0609332Y0226355D02*
X0605658Y0226355D01*
X0606093Y0225570D02*
X0610380Y0225570D01*
X0611468Y0222581D02*
X0609932Y0221945D01*
X0608755Y0220768D01*
X0608119Y0219232D01*
X0608119Y0217568D01*
X0608755Y0216032D01*
X0609932Y0214855D01*
X0611468Y0214219D01*
X0613132Y0214219D01*
X0614668Y0214855D01*
X0615845Y0216032D01*
X0616481Y0217568D01*
X0616481Y0219232D01*
X0615845Y0220768D01*
X0614668Y0221945D01*
X0613132Y0222581D01*
X0611468Y0222581D01*
X0611094Y0222426D02*
X0606256Y0222426D01*
X0606481Y0223212D02*
X0649800Y0223212D01*
X0649800Y0223998D02*
X0606481Y0223998D01*
X0606418Y0224784D02*
X0649800Y0224784D01*
X0649800Y0225570D02*
X0614220Y0225570D01*
X0615268Y0226355D02*
X0649800Y0226355D01*
X0649800Y0227141D02*
X0615931Y0227141D01*
X0616257Y0227927D02*
X0649800Y0227927D01*
X0649800Y0228713D02*
X0616481Y0228713D01*
X0616481Y0229499D02*
X0649800Y0229499D01*
X0649800Y0230285D02*
X0616418Y0230285D01*
X0616092Y0231071D02*
X0649800Y0231071D01*
X0649800Y0231857D02*
X0615656Y0231857D01*
X0614870Y0232643D02*
X0649800Y0232643D01*
X0649800Y0233429D02*
X0613258Y0233429D01*
X0611342Y0233429D02*
X0606299Y0233429D01*
X0606481Y0234215D02*
X0649800Y0234215D01*
X0649800Y0235000D02*
X0606481Y0235000D01*
X0606376Y0235786D02*
X0649800Y0235786D01*
X0649800Y0236572D02*
X0614685Y0236572D01*
X0615471Y0237358D02*
X0649800Y0237358D01*
X0649800Y0238144D02*
X0616015Y0238144D01*
X0616341Y0238930D02*
X0649800Y0238930D01*
X0649800Y0239716D02*
X0616481Y0239716D01*
X0616481Y0240502D02*
X0649800Y0240502D01*
X0649800Y0241288D02*
X0616334Y0241288D01*
X0616008Y0242074D02*
X0649800Y0242074D01*
X0649800Y0242860D02*
X0615453Y0242860D01*
X0614666Y0243646D02*
X0649800Y0243646D01*
X0649800Y0244431D02*
X0606342Y0244431D01*
X0606481Y0244768D02*
X0605845Y0243232D01*
X0604668Y0242055D01*
X0603132Y0241419D01*
X0601468Y0241419D01*
X0599932Y0242055D01*
X0598755Y0243232D01*
X0598119Y0244768D01*
X0598119Y0246432D01*
X0598755Y0247968D01*
X0599932Y0249145D01*
X0601468Y0249781D01*
X0603132Y0249781D01*
X0604668Y0249145D01*
X0605845Y0247968D01*
X0606481Y0246432D01*
X0606481Y0244768D01*
X0606481Y0245217D02*
X0649800Y0245217D01*
X0649800Y0246003D02*
X0606481Y0246003D01*
X0606333Y0246789D02*
X0649800Y0246789D01*
X0649800Y0247575D02*
X0614788Y0247575D01*
X0614668Y0247455D02*
X0615845Y0248632D01*
X0616481Y0250168D01*
X0616481Y0251832D01*
X0615845Y0253368D01*
X0614668Y0254545D01*
X0613132Y0255181D01*
X0611468Y0255181D01*
X0609932Y0254545D01*
X0608755Y0253368D01*
X0608119Y0251832D01*
X0608119Y0250168D01*
X0608755Y0248632D01*
X0609932Y0247455D01*
X0611468Y0246819D01*
X0613132Y0246819D01*
X0614668Y0247455D01*
X0615574Y0248361D02*
X0649800Y0248361D01*
X0649800Y0249147D02*
X0616058Y0249147D01*
X0616384Y0249933D02*
X0649800Y0249933D01*
X0649800Y0250719D02*
X0616481Y0250719D01*
X0616481Y0251505D02*
X0649800Y0251505D01*
X0649800Y0252291D02*
X0616291Y0252291D01*
X0615965Y0253076D02*
X0649800Y0253076D01*
X0649800Y0253862D02*
X0615351Y0253862D01*
X0614418Y0254648D02*
X0649800Y0254648D01*
X0649800Y0255434D02*
X0606426Y0255434D01*
X0606481Y0255568D02*
X0605845Y0254032D01*
X0604668Y0252855D01*
X0603132Y0252219D01*
X0601468Y0252219D01*
X0599932Y0252855D01*
X0598755Y0254032D01*
X0598119Y0255568D01*
X0598119Y0257232D01*
X0598755Y0258768D01*
X0599932Y0259945D01*
X0601468Y0260581D01*
X0603132Y0260581D01*
X0604668Y0259945D01*
X0605845Y0258768D01*
X0606481Y0257232D01*
X0606481Y0255568D01*
X0606481Y0256220D02*
X0649800Y0256220D01*
X0649800Y0257006D02*
X0606481Y0257006D01*
X0606249Y0257792D02*
X0611292Y0257792D01*
X0611468Y0257719D02*
X0613132Y0257719D01*
X0614668Y0258355D01*
X0615845Y0259532D01*
X0616481Y0261068D01*
X0616481Y0262732D01*
X0615845Y0264268D01*
X0614668Y0265445D01*
X0613132Y0266081D01*
X0611468Y0266081D01*
X0609932Y0265445D01*
X0608755Y0264268D01*
X0608119Y0262732D01*
X0608119Y0261068D01*
X0608755Y0259532D01*
X0609932Y0258355D01*
X0611468Y0257719D01*
X0613308Y0257792D02*
X0649800Y0257792D01*
X0649800Y0258578D02*
X0614891Y0258578D01*
X0615677Y0259364D02*
X0649800Y0259364D01*
X0649800Y0260150D02*
X0616101Y0260150D01*
X0616426Y0260936D02*
X0649800Y0260936D01*
X0649800Y0261722D02*
X0616481Y0261722D01*
X0616481Y0262507D02*
X0649800Y0262507D01*
X0649800Y0263293D02*
X0616248Y0263293D01*
X0615923Y0264079D02*
X0649800Y0264079D01*
X0649800Y0264865D02*
X0615248Y0264865D01*
X0614170Y0265651D02*
X0649800Y0265651D01*
X0649800Y0266437D02*
X0606468Y0266437D01*
X0606481Y0266468D02*
X0605845Y0264932D01*
X0604668Y0263755D01*
X0603132Y0263119D01*
X0601468Y0263119D01*
X0599932Y0263755D01*
X0598755Y0264932D01*
X0598119Y0266468D01*
X0598119Y0268132D01*
X0598755Y0269668D01*
X0599932Y0270845D01*
X0601468Y0271481D01*
X0603132Y0271481D01*
X0604668Y0270845D01*
X0605845Y0269668D01*
X0606481Y0268132D01*
X0606481Y0266468D01*
X0606481Y0267223D02*
X0649800Y0267223D01*
X0649800Y0268009D02*
X0606481Y0268009D01*
X0606206Y0268795D02*
X0649800Y0268795D01*
X0649800Y0269581D02*
X0605881Y0269581D01*
X0605146Y0270367D02*
X0649800Y0270367D01*
X0649800Y0271152D02*
X0603925Y0271152D01*
X0600675Y0271152D02*
X0516300Y0271152D01*
X0516300Y0270367D02*
X0599454Y0270367D01*
X0598719Y0269581D02*
X0516300Y0269581D01*
X0516300Y0268795D02*
X0537897Y0268795D01*
X0538118Y0269017D02*
X0537283Y0268182D01*
X0536831Y0267090D01*
X0536831Y0265910D01*
X0537283Y0264818D01*
X0538118Y0263983D01*
X0539210Y0263531D01*
X0540390Y0263531D01*
X0541482Y0263983D01*
X0542317Y0264818D01*
X0542768Y0265910D01*
X0542768Y0267090D01*
X0542317Y0268182D01*
X0541482Y0269017D01*
X0540390Y0269468D01*
X0539210Y0269468D01*
X0538118Y0269017D01*
X0537212Y0268009D02*
X0516300Y0268009D01*
X0516300Y0267223D02*
X0536886Y0267223D01*
X0536831Y0266437D02*
X0516300Y0266437D01*
X0516300Y0265651D02*
X0536939Y0265651D01*
X0537264Y0264865D02*
X0516300Y0264865D01*
X0516300Y0264079D02*
X0538023Y0264079D01*
X0541577Y0264079D02*
X0599608Y0264079D01*
X0598822Y0264865D02*
X0542336Y0264865D01*
X0542661Y0265651D02*
X0598457Y0265651D01*
X0598132Y0266437D02*
X0542768Y0266437D01*
X0542714Y0267223D02*
X0598119Y0267223D01*
X0598119Y0268009D02*
X0542388Y0268009D01*
X0541703Y0268795D02*
X0598394Y0268795D01*
X0601047Y0263293D02*
X0516300Y0263293D01*
X0516300Y0262507D02*
X0608119Y0262507D01*
X0608119Y0261722D02*
X0516300Y0261722D01*
X0516300Y0260936D02*
X0608174Y0260936D01*
X0608499Y0260150D02*
X0604173Y0260150D01*
X0605249Y0259364D02*
X0608923Y0259364D01*
X0609709Y0258578D02*
X0605923Y0258578D01*
X0606100Y0254648D02*
X0610182Y0254648D01*
X0609249Y0253862D02*
X0605675Y0253862D01*
X0604889Y0253076D02*
X0608635Y0253076D01*
X0608309Y0252291D02*
X0603305Y0252291D01*
X0601295Y0252291D02*
X0538820Y0252291D01*
X0538390Y0252468D02*
X0537210Y0252468D01*
X0536118Y0252017D01*
X0535283Y0251182D01*
X0534831Y0250090D01*
X0534831Y0248910D01*
X0535283Y0247818D01*
X0536118Y0246983D01*
X0537210Y0246531D01*
X0538390Y0246531D01*
X0539482Y0246983D01*
X0540317Y0247818D01*
X0540768Y0248910D01*
X0540768Y0250090D01*
X0540317Y0251182D01*
X0539482Y0252017D01*
X0538390Y0252468D01*
X0536780Y0252291D02*
X0516300Y0252291D01*
X0516300Y0253076D02*
X0599711Y0253076D01*
X0598925Y0253862D02*
X0516300Y0253862D01*
X0516300Y0254648D02*
X0538928Y0254648D01*
X0539210Y0254531D02*
X0540390Y0254531D01*
X0541482Y0254983D01*
X0542317Y0255818D01*
X0542768Y0256910D01*
X0542768Y0258090D01*
X0542317Y0259182D01*
X0541482Y0260017D01*
X0540390Y0260468D01*
X0539210Y0260468D01*
X0538118Y0260017D01*
X0537283Y0259182D01*
X0536831Y0258090D01*
X0536831Y0256910D01*
X0537283Y0255818D01*
X0538118Y0254983D01*
X0539210Y0254531D01*
X0540672Y0254648D02*
X0598500Y0254648D01*
X0598174Y0255434D02*
X0541932Y0255434D01*
X0542483Y0256220D02*
X0598119Y0256220D01*
X0598119Y0257006D02*
X0542768Y0257006D01*
X0542768Y0257792D02*
X0598351Y0257792D01*
X0598677Y0258578D02*
X0542567Y0258578D01*
X0542134Y0259364D02*
X0599351Y0259364D01*
X0600427Y0260150D02*
X0541160Y0260150D01*
X0538440Y0260150D02*
X0516300Y0260150D01*
X0516300Y0259364D02*
X0537466Y0259364D01*
X0537033Y0258578D02*
X0516300Y0258578D01*
X0516300Y0257792D02*
X0536831Y0257792D01*
X0536831Y0257006D02*
X0516300Y0257006D01*
X0516300Y0256220D02*
X0537117Y0256220D01*
X0537668Y0255434D02*
X0516300Y0255434D01*
X0516300Y0251505D02*
X0535607Y0251505D01*
X0535092Y0250719D02*
X0516300Y0250719D01*
X0516300Y0249933D02*
X0534831Y0249933D01*
X0534831Y0249147D02*
X0516300Y0249147D01*
X0516300Y0248361D02*
X0535059Y0248361D01*
X0535527Y0247575D02*
X0516300Y0247575D01*
X0516300Y0246789D02*
X0536587Y0246789D01*
X0539013Y0246789D02*
X0541813Y0246789D01*
X0541783Y0246818D02*
X0542618Y0245983D01*
X0543710Y0245531D01*
X0544890Y0245531D01*
X0545982Y0245983D01*
X0546550Y0246552D01*
X0547118Y0245983D01*
X0548210Y0245531D01*
X0549390Y0245531D01*
X0550482Y0245983D01*
X0551050Y0246552D01*
X0551618Y0245983D01*
X0552710Y0245531D01*
X0553890Y0245531D01*
X0554982Y0245983D01*
X0555817Y0246818D01*
X0556268Y0247910D01*
X0556268Y0249090D01*
X0555817Y0250182D01*
X0554982Y0251017D01*
X0553890Y0251468D01*
X0552710Y0251468D01*
X0551618Y0251017D01*
X0551050Y0250448D01*
X0550482Y0251017D01*
X0549390Y0251468D01*
X0548210Y0251468D01*
X0547118Y0251017D01*
X0546550Y0250448D01*
X0545982Y0251017D01*
X0544890Y0251468D01*
X0543710Y0251468D01*
X0542618Y0251017D01*
X0541783Y0250182D01*
X0541331Y0249090D01*
X0541331Y0247910D01*
X0541783Y0246818D01*
X0541470Y0247575D02*
X0540073Y0247575D01*
X0540541Y0248361D02*
X0541331Y0248361D01*
X0541355Y0249147D02*
X0540768Y0249147D01*
X0540768Y0249933D02*
X0541680Y0249933D01*
X0542321Y0250719D02*
X0540508Y0250719D01*
X0539993Y0251505D02*
X0608119Y0251505D01*
X0608119Y0250719D02*
X0561779Y0250719D01*
X0561482Y0251017D02*
X0560390Y0251468D01*
X0559210Y0251468D01*
X0558118Y0251017D01*
X0557283Y0250182D01*
X0556831Y0249090D01*
X0556831Y0247910D01*
X0557283Y0246818D01*
X0558118Y0245983D01*
X0559210Y0245531D01*
X0560390Y0245531D01*
X0561482Y0245983D01*
X0562317Y0246818D01*
X0562768Y0247910D01*
X0562768Y0249090D01*
X0562317Y0250182D01*
X0561482Y0251017D01*
X0562420Y0249933D02*
X0608216Y0249933D01*
X0608542Y0249147D02*
X0604663Y0249147D01*
X0605452Y0248361D02*
X0609026Y0248361D01*
X0609812Y0247575D02*
X0606007Y0247575D01*
X0599937Y0249147D02*
X0562745Y0249147D01*
X0562768Y0248361D02*
X0599148Y0248361D01*
X0598593Y0247575D02*
X0562630Y0247575D01*
X0562287Y0246789D02*
X0598267Y0246789D01*
X0598119Y0246003D02*
X0561501Y0246003D01*
X0558099Y0246003D02*
X0555001Y0246003D01*
X0555787Y0246789D02*
X0557313Y0246789D01*
X0556970Y0247575D02*
X0556130Y0247575D01*
X0556268Y0248361D02*
X0556831Y0248361D01*
X0556855Y0249147D02*
X0556245Y0249147D01*
X0555920Y0249933D02*
X0557180Y0249933D01*
X0557821Y0250719D02*
X0555279Y0250719D01*
X0551321Y0250719D02*
X0550779Y0250719D01*
X0546821Y0250719D02*
X0546279Y0250719D01*
X0546001Y0246003D02*
X0547099Y0246003D01*
X0550501Y0246003D02*
X0551599Y0246003D01*
X0542599Y0246003D02*
X0516300Y0246003D01*
X0516300Y0245217D02*
X0598119Y0245217D01*
X0598258Y0244431D02*
X0516300Y0244431D01*
X0516300Y0243646D02*
X0598584Y0243646D01*
X0599127Y0242860D02*
X0516300Y0242860D01*
X0516300Y0242074D02*
X0538756Y0242074D01*
X0537890Y0241288D02*
X0516300Y0241288D01*
X0516300Y0240502D02*
X0537502Y0240502D01*
X0537331Y0239716D02*
X0516300Y0239716D01*
X0516300Y0238930D02*
X0537331Y0238930D01*
X0537649Y0238144D02*
X0516300Y0238144D01*
X0516300Y0237358D02*
X0538244Y0237358D01*
X0541844Y0242074D02*
X0599913Y0242074D01*
X0604687Y0242074D02*
X0608592Y0242074D01*
X0609147Y0242860D02*
X0605473Y0242860D01*
X0606016Y0243646D02*
X0609934Y0243646D01*
X0608585Y0238144D02*
X0604769Y0238144D01*
X0605555Y0237358D02*
X0609129Y0237358D01*
X0609915Y0236572D02*
X0606050Y0236572D01*
X0605973Y0232643D02*
X0609730Y0232643D01*
X0608944Y0231857D02*
X0605370Y0231857D01*
X0604464Y0231071D02*
X0608508Y0231071D01*
X0601338Y0227927D02*
X0542362Y0227927D01*
X0541639Y0227141D02*
X0599728Y0227141D01*
X0598182Y0224784D02*
X0550714Y0224784D01*
X0551393Y0223998D02*
X0598119Y0223998D01*
X0598119Y0223212D02*
X0551718Y0223212D01*
X0551768Y0222426D02*
X0584107Y0222426D01*
X0585493Y0222426D02*
X0598344Y0222426D01*
X0598669Y0221640D02*
X0586858Y0221640D01*
X0587452Y0220854D02*
X0599333Y0220854D01*
X0600384Y0220068D02*
X0587768Y0220068D01*
X0587768Y0219282D02*
X0608140Y0219282D01*
X0608119Y0218496D02*
X0587597Y0218496D01*
X0587208Y0217710D02*
X0608119Y0217710D01*
X0608386Y0216924D02*
X0603751Y0216924D01*
X0605074Y0216139D02*
X0608711Y0216139D01*
X0609434Y0215353D02*
X0605851Y0215353D01*
X0606177Y0214567D02*
X0610629Y0214567D01*
X0610845Y0211423D02*
X0606172Y0211423D01*
X0606481Y0212209D02*
X0649800Y0212209D01*
X0649800Y0212995D02*
X0606481Y0212995D01*
X0606481Y0213781D02*
X0649800Y0213781D01*
X0649800Y0214567D02*
X0613971Y0214567D01*
X0615166Y0215353D02*
X0649800Y0215353D01*
X0649800Y0216139D02*
X0615889Y0216139D01*
X0616214Y0216924D02*
X0649800Y0216924D01*
X0649800Y0217710D02*
X0616481Y0217710D01*
X0616481Y0218496D02*
X0649800Y0218496D01*
X0649800Y0219282D02*
X0616460Y0219282D01*
X0616135Y0220068D02*
X0649800Y0220068D01*
X0649800Y0220854D02*
X0615759Y0220854D01*
X0614973Y0221640D02*
X0649800Y0221640D01*
X0649800Y0222426D02*
X0613506Y0222426D01*
X0609627Y0221640D02*
X0605931Y0221640D01*
X0605267Y0220854D02*
X0608841Y0220854D01*
X0608465Y0220068D02*
X0604216Y0220068D01*
X0600849Y0216924D02*
X0586339Y0216924D01*
X0581831Y0220068D02*
X0550566Y0220068D01*
X0551331Y0220854D02*
X0582148Y0220854D01*
X0582742Y0221640D02*
X0551657Y0221640D01*
X0544317Y0230285D02*
X0542688Y0230285D01*
X0542362Y0231071D02*
X0543679Y0231071D01*
X0527300Y0220500D02*
X0521300Y0214500D01*
X0521300Y0181500D01*
X0521300Y0180000D01*
X0521300Y0174500D01*
X0546588Y0161911D02*
X0547512Y0161911D01*
X0551088Y0161911D02*
X0552012Y0161911D01*
X0555588Y0161911D02*
X0556512Y0161911D01*
X0547407Y0157195D02*
X0546693Y0157195D01*
X0584952Y0147764D02*
X0598119Y0147764D01*
X0598119Y0148550D02*
X0586048Y0148550D01*
X0586531Y0149336D02*
X0598411Y0149336D01*
X0598736Y0150122D02*
X0586768Y0150122D01*
X0588799Y0150908D02*
X0599495Y0150908D01*
X0600775Y0151694D02*
X0589692Y0151694D01*
X0590090Y0152480D02*
X0608119Y0152480D01*
X0608119Y0152368D02*
X0608755Y0150832D01*
X0609932Y0149655D01*
X0611468Y0149019D01*
X0613132Y0149019D01*
X0614668Y0149655D01*
X0615845Y0150832D01*
X0616481Y0152368D01*
X0616481Y0154032D01*
X0615845Y0155568D01*
X0614668Y0156745D01*
X0613132Y0157381D01*
X0611468Y0157381D01*
X0609932Y0156745D01*
X0608755Y0155568D01*
X0608119Y0154032D01*
X0608119Y0152368D01*
X0608398Y0151694D02*
X0603825Y0151694D01*
X0605105Y0150908D02*
X0608724Y0150908D01*
X0609465Y0150122D02*
X0605864Y0150122D01*
X0606189Y0149336D02*
X0610703Y0149336D01*
X0610771Y0146192D02*
X0606160Y0146192D01*
X0606481Y0146978D02*
X0649800Y0146978D01*
X0649800Y0146192D02*
X0613829Y0146192D01*
X0615107Y0145406D02*
X0649800Y0145406D01*
X0649800Y0144620D02*
X0615864Y0144620D01*
X0616190Y0143835D02*
X0649800Y0143835D01*
X0649800Y0143049D02*
X0616481Y0143049D01*
X0616481Y0142263D02*
X0649800Y0142263D01*
X0649800Y0141477D02*
X0616481Y0141477D01*
X0616159Y0140691D02*
X0649800Y0140691D01*
X0649800Y0139905D02*
X0615818Y0139905D01*
X0615032Y0139119D02*
X0649800Y0139119D01*
X0649800Y0138333D02*
X0613649Y0138333D01*
X0608410Y0143835D02*
X0603652Y0143835D01*
X0605033Y0144620D02*
X0608736Y0144620D01*
X0609493Y0145406D02*
X0605819Y0145406D01*
X0606481Y0147764D02*
X0649800Y0147764D01*
X0649800Y0148550D02*
X0606481Y0148550D01*
X0613897Y0149336D02*
X0649800Y0149336D01*
X0649800Y0150122D02*
X0615135Y0150122D01*
X0615876Y0150908D02*
X0649800Y0150908D01*
X0649800Y0151694D02*
X0616202Y0151694D01*
X0616481Y0152480D02*
X0649800Y0152480D01*
X0649800Y0153266D02*
X0616481Y0153266D01*
X0616473Y0154051D02*
X0649800Y0154051D01*
X0649800Y0154837D02*
X0616147Y0154837D01*
X0615790Y0155623D02*
X0649800Y0155623D01*
X0649800Y0156409D02*
X0615004Y0156409D01*
X0613581Y0157195D02*
X0649800Y0157195D01*
X0649800Y0157981D02*
X0606481Y0157981D01*
X0606481Y0158767D02*
X0649800Y0158767D01*
X0649800Y0159553D02*
X0606431Y0159553D01*
X0606105Y0160339D02*
X0610455Y0160339D01*
X0609362Y0161125D02*
X0605688Y0161125D01*
X0604902Y0161911D02*
X0608681Y0161911D01*
X0611019Y0157195D02*
X0606244Y0157195D01*
X0605918Y0156409D02*
X0609596Y0156409D01*
X0608810Y0155623D02*
X0605236Y0155623D01*
X0604142Y0154837D02*
X0608453Y0154837D01*
X0608127Y0154051D02*
X0590268Y0154051D01*
X0590268Y0153266D02*
X0608119Y0153266D01*
X0600458Y0154837D02*
X0589959Y0154837D01*
X0589375Y0155623D02*
X0599364Y0155623D01*
X0598682Y0156409D02*
X0588034Y0156409D01*
X0614145Y0160339D02*
X0649800Y0160339D01*
X0649800Y0161125D02*
X0615238Y0161125D01*
X0615919Y0161911D02*
X0649800Y0161911D01*
X0649800Y0162696D02*
X0616244Y0162696D01*
X0616481Y0163482D02*
X0649800Y0163482D01*
X0649800Y0164268D02*
X0616481Y0164268D01*
X0616430Y0165054D02*
X0649800Y0165054D01*
X0649800Y0165840D02*
X0616105Y0165840D01*
X0615687Y0166626D02*
X0649800Y0166626D01*
X0649800Y0167412D02*
X0614901Y0167412D01*
X0613333Y0168198D02*
X0649800Y0168198D01*
X0649800Y0203564D02*
X0613723Y0203564D01*
X0615063Y0204350D02*
X0649800Y0204350D01*
X0649800Y0205136D02*
X0615846Y0205136D01*
X0616172Y0205922D02*
X0649800Y0205922D01*
X0649800Y0206708D02*
X0616481Y0206708D01*
X0616481Y0207494D02*
X0649800Y0207494D01*
X0649800Y0208279D02*
X0616481Y0208279D01*
X0616177Y0209065D02*
X0649800Y0209065D01*
X0649800Y0209851D02*
X0615852Y0209851D01*
X0615076Y0210637D02*
X0649800Y0210637D01*
X0649800Y0211423D02*
X0613755Y0211423D01*
X0609524Y0210637D02*
X0605847Y0210637D01*
X0605064Y0209851D02*
X0608748Y0209851D01*
X0608428Y0205922D02*
X0603999Y0205922D01*
X0605177Y0205136D02*
X0608754Y0205136D01*
X0609537Y0204350D02*
X0605894Y0204350D01*
X0527300Y0220500D02*
X0520050Y0227750D01*
X0520050Y0270750D01*
X0521800Y0272500D01*
X0521800Y0292000D01*
X0518300Y0295500D01*
X0518300Y0307500D01*
X0648300Y0308000D01*
X0648800Y0307500D01*
X0649800Y0306519D02*
X0516300Y0306519D01*
X0516300Y0307304D02*
X0650840Y0307304D01*
X0650837Y0308090D02*
X0516300Y0308090D01*
X0516300Y0308876D02*
X0650834Y0308876D01*
X0649800Y0305733D02*
X0516300Y0305733D01*
X0516300Y0304947D02*
X0547049Y0304947D01*
X0547118Y0305017D02*
X0546283Y0304182D01*
X0545831Y0303090D01*
X0545831Y0301910D01*
X0546283Y0300818D01*
X0547118Y0299983D01*
X0548210Y0299531D01*
X0549390Y0299531D01*
X0550482Y0299983D01*
X0551317Y0300818D01*
X0551768Y0301910D01*
X0551768Y0303090D01*
X0551317Y0304182D01*
X0550482Y0305017D01*
X0549390Y0305468D01*
X0548210Y0305468D01*
X0547118Y0305017D01*
X0546275Y0304161D02*
X0516300Y0304161D01*
X0516300Y0303375D02*
X0545949Y0303375D01*
X0545831Y0302589D02*
X0516300Y0302589D01*
X0516300Y0301803D02*
X0545876Y0301803D01*
X0546201Y0301017D02*
X0516300Y0301017D01*
X0516300Y0300231D02*
X0538333Y0300231D01*
X0538618Y0300517D02*
X0537783Y0299682D01*
X0537331Y0298590D01*
X0537331Y0297410D01*
X0537783Y0296318D01*
X0538618Y0295483D01*
X0539710Y0295031D01*
X0540890Y0295031D01*
X0541982Y0295483D01*
X0542817Y0296318D01*
X0543268Y0297410D01*
X0543268Y0298590D01*
X0542817Y0299682D01*
X0541982Y0300517D01*
X0540890Y0300968D01*
X0539710Y0300968D01*
X0538618Y0300517D01*
X0537686Y0299445D02*
X0516300Y0299445D01*
X0516300Y0298659D02*
X0537360Y0298659D01*
X0537331Y0297873D02*
X0516300Y0297873D01*
X0516300Y0297088D02*
X0537465Y0297088D01*
X0537800Y0296302D02*
X0516300Y0296302D01*
X0516300Y0295516D02*
X0538586Y0295516D01*
X0542014Y0295516D02*
X0597619Y0295516D01*
X0597619Y0296302D02*
X0542800Y0296302D01*
X0543135Y0297088D02*
X0597893Y0297088D01*
X0597619Y0296426D02*
X0599093Y0299984D01*
X0601816Y0302707D01*
X0605374Y0304181D01*
X0609226Y0304181D01*
X0612784Y0302707D01*
X0615507Y0299984D01*
X0616981Y0296426D01*
X0616981Y0292574D01*
X0615507Y0289016D01*
X0612784Y0286293D01*
X0609226Y0284819D01*
X0605374Y0284819D01*
X0601816Y0286293D01*
X0599093Y0289016D01*
X0597619Y0292574D01*
X0597619Y0296426D01*
X0598219Y0297873D02*
X0543268Y0297873D01*
X0543240Y0298659D02*
X0598544Y0298659D01*
X0598870Y0299445D02*
X0542914Y0299445D01*
X0542267Y0300231D02*
X0546871Y0300231D01*
X0550729Y0300231D02*
X0599340Y0300231D01*
X0600126Y0301017D02*
X0551399Y0301017D01*
X0551724Y0301803D02*
X0600912Y0301803D01*
X0601698Y0302589D02*
X0551768Y0302589D01*
X0551651Y0303375D02*
X0603428Y0303375D01*
X0605325Y0304161D02*
X0551325Y0304161D01*
X0550551Y0304947D02*
X0649800Y0304947D01*
X0649800Y0304161D02*
X0609275Y0304161D01*
X0611172Y0303375D02*
X0649800Y0303375D01*
X0649800Y0302589D02*
X0612902Y0302589D01*
X0613688Y0301803D02*
X0649800Y0301803D01*
X0649800Y0301017D02*
X0614474Y0301017D01*
X0615260Y0300231D02*
X0649800Y0300231D01*
X0649800Y0299445D02*
X0615730Y0299445D01*
X0616056Y0298659D02*
X0649800Y0298659D01*
X0649800Y0297873D02*
X0616381Y0297873D01*
X0616707Y0297088D02*
X0649800Y0297088D01*
X0649800Y0296302D02*
X0616981Y0296302D01*
X0616981Y0295516D02*
X0649800Y0295516D01*
X0649800Y0294730D02*
X0616981Y0294730D01*
X0616981Y0293944D02*
X0649800Y0293944D01*
X0649800Y0293158D02*
X0616981Y0293158D01*
X0616897Y0292372D02*
X0649800Y0292372D01*
X0649800Y0291586D02*
X0616572Y0291586D01*
X0616246Y0290800D02*
X0649800Y0290800D01*
X0649800Y0290014D02*
X0615921Y0290014D01*
X0615595Y0289228D02*
X0649800Y0289228D01*
X0649800Y0288443D02*
X0614934Y0288443D01*
X0614148Y0287657D02*
X0649800Y0287657D01*
X0649800Y0286871D02*
X0613362Y0286871D01*
X0612282Y0286085D02*
X0649800Y0286085D01*
X0649800Y0285299D02*
X0610384Y0285299D01*
X0604215Y0285299D02*
X0554723Y0285299D01*
X0554768Y0285410D02*
X0554317Y0284318D01*
X0553482Y0283483D01*
X0552390Y0283031D01*
X0551210Y0283031D01*
X0550118Y0283483D01*
X0549283Y0284318D01*
X0548831Y0285410D01*
X0548831Y0286590D01*
X0549283Y0287682D01*
X0550118Y0288517D01*
X0551210Y0288968D01*
X0552390Y0288968D01*
X0553482Y0288517D01*
X0554317Y0287682D01*
X0554768Y0286590D01*
X0554768Y0285410D01*
X0554768Y0286085D02*
X0602318Y0286085D01*
X0601238Y0286871D02*
X0554652Y0286871D01*
X0554327Y0287657D02*
X0600452Y0287657D01*
X0599666Y0288443D02*
X0553556Y0288443D01*
X0550044Y0288443D02*
X0542416Y0288443D01*
X0542317Y0288682D02*
X0541482Y0289517D01*
X0540390Y0289968D01*
X0539210Y0289968D01*
X0538118Y0289517D01*
X0537283Y0288682D01*
X0536831Y0287590D01*
X0536831Y0286410D01*
X0537283Y0285318D01*
X0538118Y0284483D01*
X0539210Y0284031D01*
X0540390Y0284031D01*
X0541482Y0284483D01*
X0542317Y0285318D01*
X0542768Y0286410D01*
X0542768Y0287590D01*
X0542317Y0288682D01*
X0541770Y0289228D02*
X0544734Y0289228D01*
X0545210Y0289031D02*
X0546390Y0289031D01*
X0547482Y0289483D01*
X0548317Y0290318D01*
X0548768Y0291410D01*
X0548768Y0292590D01*
X0548317Y0293682D01*
X0547482Y0294517D01*
X0546390Y0294968D01*
X0545210Y0294968D01*
X0544118Y0294517D01*
X0543283Y0293682D01*
X0542831Y0292590D01*
X0542831Y0291410D01*
X0543283Y0290318D01*
X0544118Y0289483D01*
X0545210Y0289031D01*
X0546866Y0289228D02*
X0599005Y0289228D01*
X0598679Y0290014D02*
X0548012Y0290014D01*
X0548516Y0290800D02*
X0598354Y0290800D01*
X0598028Y0291586D02*
X0548768Y0291586D01*
X0548768Y0292372D02*
X0597703Y0292372D01*
X0597619Y0293158D02*
X0548533Y0293158D01*
X0548054Y0293944D02*
X0597619Y0293944D01*
X0597619Y0294730D02*
X0546967Y0294730D01*
X0544633Y0294730D02*
X0516300Y0294730D01*
X0516300Y0293944D02*
X0543546Y0293944D01*
X0543067Y0293158D02*
X0516300Y0293158D01*
X0516300Y0292372D02*
X0542831Y0292372D01*
X0542831Y0291586D02*
X0516300Y0291586D01*
X0516300Y0290800D02*
X0543084Y0290800D01*
X0543588Y0290014D02*
X0516300Y0290014D01*
X0516300Y0289228D02*
X0537830Y0289228D01*
X0537184Y0288443D02*
X0516300Y0288443D01*
X0516300Y0287657D02*
X0536859Y0287657D01*
X0536831Y0286871D02*
X0516300Y0286871D01*
X0516300Y0286085D02*
X0536966Y0286085D01*
X0537303Y0285299D02*
X0516300Y0285299D01*
X0516300Y0284513D02*
X0538089Y0284513D01*
X0541511Y0284513D02*
X0549203Y0284513D01*
X0548877Y0285299D02*
X0542297Y0285299D01*
X0542634Y0286085D02*
X0548831Y0286085D01*
X0548948Y0286871D02*
X0542768Y0286871D01*
X0542741Y0287657D02*
X0549273Y0287657D01*
X0554397Y0284513D02*
X0649800Y0284513D01*
X0649800Y0283727D02*
X0553725Y0283727D01*
X0549875Y0283727D02*
X0516300Y0283727D01*
X0516300Y0282941D02*
X0649800Y0282941D01*
X0649800Y0282155D02*
X0596647Y0282155D01*
X0596982Y0282017D02*
X0595890Y0282468D01*
X0594710Y0282468D01*
X0593618Y0282017D01*
X0592783Y0281182D01*
X0592331Y0280090D01*
X0592331Y0278910D01*
X0592783Y0277818D01*
X0593618Y0276983D01*
X0594710Y0276531D01*
X0595890Y0276531D01*
X0596982Y0276983D01*
X0597817Y0277818D01*
X0598268Y0278910D01*
X0598268Y0280090D01*
X0597817Y0281182D01*
X0596982Y0282017D01*
X0597629Y0281369D02*
X0649800Y0281369D01*
X0649800Y0280583D02*
X0598064Y0280583D01*
X0598268Y0279798D02*
X0649800Y0279798D01*
X0649800Y0279012D02*
X0598268Y0279012D01*
X0597985Y0278226D02*
X0649800Y0278226D01*
X0649800Y0277440D02*
X0597438Y0277440D01*
X0596186Y0276654D02*
X0649800Y0276654D01*
X0649800Y0275868D02*
X0560768Y0275868D01*
X0560768Y0276090D02*
X0560317Y0277182D01*
X0559482Y0278017D01*
X0558390Y0278468D01*
X0557210Y0278468D01*
X0556118Y0278017D01*
X0555550Y0277448D01*
X0554982Y0278017D01*
X0553890Y0278468D01*
X0552710Y0278468D01*
X0551618Y0278017D01*
X0551050Y0277448D01*
X0550482Y0278017D01*
X0549390Y0278468D01*
X0548210Y0278468D01*
X0547118Y0278017D01*
X0546550Y0277448D01*
X0545982Y0278017D01*
X0544890Y0278468D01*
X0543710Y0278468D01*
X0542618Y0278017D01*
X0541783Y0277182D01*
X0541550Y0276618D01*
X0541317Y0277182D01*
X0540482Y0278017D01*
X0539390Y0278468D01*
X0538210Y0278468D01*
X0537118Y0278017D01*
X0536283Y0277182D01*
X0535831Y0276090D01*
X0535831Y0274910D01*
X0536283Y0273818D01*
X0537118Y0272983D01*
X0538210Y0272531D01*
X0539390Y0272531D01*
X0540482Y0272983D01*
X0541317Y0273818D01*
X0541550Y0274382D01*
X0541783Y0273818D01*
X0542618Y0272983D01*
X0543710Y0272531D01*
X0544890Y0272531D01*
X0545982Y0272983D01*
X0546550Y0273552D01*
X0547118Y0272983D01*
X0548210Y0272531D01*
X0549390Y0272531D01*
X0550482Y0272983D01*
X0551050Y0273552D01*
X0551618Y0272983D01*
X0552710Y0272531D01*
X0553890Y0272531D01*
X0554982Y0272983D01*
X0555550Y0273552D01*
X0556118Y0272983D01*
X0557210Y0272531D01*
X0558390Y0272531D01*
X0559482Y0272983D01*
X0560317Y0273818D01*
X0560768Y0274910D01*
X0560768Y0276090D01*
X0560535Y0276654D02*
X0594414Y0276654D01*
X0593162Y0277440D02*
X0560058Y0277440D01*
X0558977Y0278226D02*
X0592615Y0278226D01*
X0592331Y0279012D02*
X0516300Y0279012D01*
X0516300Y0279798D02*
X0592331Y0279798D01*
X0592536Y0280583D02*
X0516300Y0280583D01*
X0516300Y0281369D02*
X0592971Y0281369D01*
X0593953Y0282155D02*
X0516300Y0282155D01*
X0516300Y0278226D02*
X0537623Y0278226D01*
X0536542Y0277440D02*
X0516300Y0277440D01*
X0516300Y0276654D02*
X0536065Y0276654D01*
X0535831Y0275868D02*
X0516300Y0275868D01*
X0516300Y0275082D02*
X0535831Y0275082D01*
X0536086Y0274296D02*
X0516300Y0274296D01*
X0516300Y0273510D02*
X0536592Y0273510D01*
X0537744Y0272724D02*
X0516300Y0272724D01*
X0516300Y0271938D02*
X0649800Y0271938D01*
X0649800Y0272724D02*
X0558856Y0272724D01*
X0560008Y0273510D02*
X0649800Y0273510D01*
X0649800Y0274296D02*
X0560514Y0274296D01*
X0560768Y0275082D02*
X0649800Y0275082D01*
X0610430Y0265651D02*
X0606143Y0265651D01*
X0605778Y0264865D02*
X0609352Y0264865D01*
X0608677Y0264079D02*
X0604992Y0264079D01*
X0603553Y0263293D02*
X0608352Y0263293D01*
X0564300Y0267500D02*
X0558300Y0261500D01*
X0532800Y0261500D01*
X0521800Y0272500D01*
X0539856Y0272724D02*
X0543244Y0272724D01*
X0542092Y0273510D02*
X0541008Y0273510D01*
X0541514Y0274296D02*
X0541586Y0274296D01*
X0541535Y0276654D02*
X0541565Y0276654D01*
X0542042Y0277440D02*
X0541058Y0277440D01*
X0539977Y0278226D02*
X0543123Y0278226D01*
X0545477Y0278226D02*
X0547623Y0278226D01*
X0549977Y0278226D02*
X0552123Y0278226D01*
X0554477Y0278226D02*
X0556623Y0278226D01*
X0564300Y0276500D02*
X0564300Y0267500D01*
X0556744Y0272724D02*
X0554356Y0272724D01*
X0555508Y0273510D02*
X0555592Y0273510D01*
X0552244Y0272724D02*
X0549856Y0272724D01*
X0551008Y0273510D02*
X0551092Y0273510D01*
X0547744Y0272724D02*
X0545356Y0272724D01*
X0546508Y0273510D02*
X0546592Y0273510D01*
X0451800Y0209500D02*
X0438300Y0223000D01*
X0389800Y0223000D01*
X0351800Y0209500D02*
X0334300Y0192000D01*
X0230800Y0192000D01*
X0215300Y0176500D01*
X0149800Y0176500D01*
X0144300Y0171000D01*
X0118800Y0171000D01*
X0102300Y0172500D02*
X0102300Y0191000D01*
X0107300Y0196000D01*
X0157300Y0196000D01*
X0170800Y0209500D01*
X0201800Y0209500D01*
X0205300Y0193000D02*
X0221800Y0209500D01*
X0251800Y0209500D01*
X0222300Y0196500D02*
X0288800Y0196500D01*
X0301800Y0209500D01*
X0226800Y0241000D02*
X0225800Y0242000D01*
X0146300Y0242000D01*
X0121000Y0267300D01*
X0076800Y0267300D01*
X0076800Y0256500D02*
X0127300Y0256500D01*
X0145800Y0238000D01*
X0212300Y0238000D01*
X0217300Y0233000D01*
X0165800Y0231500D02*
X0163300Y0234000D01*
X0144300Y0234000D01*
X0132700Y0245600D01*
X0076800Y0245600D01*
X0076800Y0234700D02*
X0084100Y0234700D01*
X0092300Y0226500D02*
X0092800Y0226000D01*
X0099800Y0218000D02*
X0096800Y0215000D01*
X0099800Y0218000D02*
X0117300Y0218000D01*
X0125800Y0209500D01*
X0151800Y0209500D01*
X0109300Y0193000D02*
X0107800Y0191500D01*
X0107800Y0180500D01*
X0115300Y0181000D02*
X0206800Y0181000D01*
X0222300Y0196500D01*
X0205300Y0193000D02*
X0109300Y0193000D01*
X0145300Y0121000D02*
X0190300Y0121000D01*
X0201800Y0109500D01*
D15*
X0130800Y0047500D03*
D16*
X0147800Y0047500D03*
D17*
X0165800Y0047500D03*
D18*
X0183800Y0047000D03*
D19*
X0201300Y0047000D03*
D20*
X0236800Y0047500D03*
D21*
X0253800Y0046500D03*
D22*
X0273800Y0047000D03*
M02*
