%
M48
M72
T01C0.0157
T02C0.0400
T03C0.0787
T04C0.0827
T05C0.0866
T06C0.0906
T07C0.0945
T08C0.0984
T09C0.1024
T10C0.1063
T11C0.1102
T12C0.1300
%
T01
X25070Y7710
X30530Y8050
X35930Y8450
X41030Y8850
X46280Y9300
X52180Y9450
X53930Y9800
X54480Y9800
X54930Y9800
X55380Y9800
X55830Y9800
X55230Y10850
X54630Y11450
X54030Y10950
X54080Y12050
X54930Y12500
X54930Y13350
X54030Y14050
X54680Y14350
X54830Y14950
X54080Y15050
X54480Y15950
X54930Y15950
X55380Y15950
X55830Y15950
X55830Y17150
X54030Y16850
X53830Y16050
X54030Y17750
X53930Y18650
X54480Y18650
X54930Y18650
X55380Y18650
X55830Y18650
X55230Y19700
X54630Y20300
X54030Y19800
X54080Y20900
X54930Y21350
X54880Y22250
X53980Y22950
X54630Y23250
X54780Y23850
X54030Y23950
X54430Y24850
X54880Y24850
X55330Y24850
X55980Y24850
X53980Y25750
X53780Y24950
X55830Y26150
X53980Y26650
X52180Y27250
X53880Y27550
X54430Y27550
X54880Y27550
X55330Y27550
X55780Y27550
X56430Y27650
X55180Y28600
X54580Y29200
X53980Y28700
X54030Y29800
X54880Y30250
X51830Y30750
X59530Y27950
X64880Y30750
X58480Y21950
X52730Y22050
X52130Y18150
X58380Y15050
X58730Y15350
X59030Y14200
X59480Y14150
X52130Y13300
X54030Y8900
X54030Y8000
X53830Y7200
X54480Y7100
X54930Y7100
X55380Y7100
X55830Y7100
X54830Y6100
X54080Y6200
X54680Y5500
X54030Y5200
X54930Y4500
X52930Y4350
X51880Y3150
X57680Y4850
X57880Y4400
X64780Y3050
X55980Y8350
X21730Y23300
X22680Y24100
X16580Y23150
X9680Y21500
X10780Y18050
X11530Y18100
X10230Y17250
X11880Y17100
T02
X7680Y16950
X6680Y16410
X7680Y15860
X6680Y15320
X7680Y14780
X6680Y14230
X7680Y13690
X6680Y13150
X7680Y12600
X6680Y12060
X7680Y11520
X6680Y10970
X7680Y10430
X6680Y9890
X7680Y9340
X6680Y8800
X7680Y8260
X6680Y7710
X7680Y7170
X6680Y17490
X7680Y18040
X6680Y18580
X7680Y19120
X6680Y19670
X7680Y20210
X6680Y20760
X7680Y21300
X6680Y21840
X7680Y22390
X6680Y22930
X7680Y23470
X6680Y24020
X7680Y24560
X6680Y25100
X7680Y25650
X6680Y26190
X7680Y26730
X46930Y4500
X47930Y4500
X49730Y4500
X50730Y4500
X60230Y7170
X61230Y7710
X60230Y8250
X61230Y8800
X60230Y9340
X61230Y9880
X60230Y10430
X61230Y10970
X60230Y11510
X61230Y12060
X60230Y12600
X61230Y13150
X60230Y13690
X61230Y14230
X60230Y14780
X61230Y15320
X60230Y15860
X61230Y16410
X60230Y16950
X61230Y17490
X60230Y18040
X61230Y18580
X60230Y19120
X61230Y19670
X60230Y20210
X61230Y20750
X60230Y21300
X61230Y21840
X60230Y22380
X61230Y22930
X60230Y23470
X61230Y24010
X60230Y24560
X61230Y25100
X60230Y25640
X61230Y26190
X60230Y26730
T03
X13080Y4750
T04
X14780Y4750
T05
X16580Y4750
T06
X18380Y4700
T07
X20130Y4700
T08
X21880Y4750
X20180Y10950
X15180Y10950
X25180Y10950
X30180Y10950
X35180Y10950
X40180Y10950
X45180Y10950
X50130Y10950
X50130Y15950
X45180Y15950
X40180Y15950
X35180Y15950
X30180Y15950
X25180Y15950
X20180Y15950
X15180Y15950
X15180Y20950
X20180Y20950
X25180Y20950
X30180Y20950
X35180Y20950
X40180Y20950
X45180Y20950
X50130Y20950
X50180Y25950
X45180Y25950
X40180Y25950
X35180Y25950
X30180Y25950
X25180Y25950
X20180Y25950
X15180Y25950
T09
X23680Y4750
T10
X25380Y4650
T11
X27380Y4700
T12
X7180Y4450
X60730Y4450
X60730Y29450
X7180Y29450
M30
