G75*
%MOIN*%
%OFA0B0*%
%FSLAX25Y25*%
%IPPOS*%
%LPD*%
%AMOC8*
5,1,8,0,0,1.08239X$1,22.5*
%
%ADD10R,0.05906X0.05118*%
%ADD11R,0.00984X0.03445*%
%ADD12R,0.02756X0.03543*%
%ADD13R,0.03543X0.02756*%
%ADD14R,0.05118X0.05906*%
%ADD15R,0.04724X0.04724*%
%ADD16R,0.04724X0.02165*%
%ADD17R,0.01772X0.05433*%
%ADD18R,0.05807X0.08268*%
%ADD19R,0.09350X0.07480*%
%ADD20R,0.04626X0.07480*%
%ADD21R,0.05512X0.05512*%
%ADD22R,0.02100X0.07800*%
D10*
X0391595Y0073193D03*
X0391595Y0080673D03*
X0538595Y0072673D03*
X0547095Y0072673D03*
X0547095Y0065193D03*
X0538595Y0065193D03*
X0617095Y0061673D03*
X0627095Y0061673D03*
X0627095Y0054193D03*
X0617095Y0054193D03*
X0681095Y0054193D03*
X0691095Y0054193D03*
X0691095Y0061673D03*
X0681095Y0061673D03*
X0684095Y0107193D03*
X0693595Y0107193D03*
X0693595Y0114673D03*
X0684095Y0114673D03*
X0629595Y0114673D03*
X0620095Y0114673D03*
X0620095Y0107193D03*
X0629595Y0107193D03*
X0627095Y0150193D03*
X0617095Y0150193D03*
X0617095Y0157673D03*
X0627095Y0157673D03*
X0681095Y0157673D03*
X0691095Y0157673D03*
X0691095Y0150193D03*
X0681095Y0150193D03*
X0745095Y0150193D03*
X0745095Y0157673D03*
X0755095Y0157673D03*
X0755095Y0150193D03*
X0757595Y0203193D03*
X0748095Y0203193D03*
X0748095Y0210673D03*
X0757595Y0210673D03*
X0693595Y0210673D03*
X0684095Y0210673D03*
X0684095Y0203193D03*
X0693595Y0203193D03*
X0629595Y0203193D03*
X0620095Y0203193D03*
X0620095Y0210673D03*
X0629595Y0210673D03*
X0626595Y0246193D03*
X0616595Y0246193D03*
X0616595Y0253673D03*
X0626595Y0253673D03*
X0680595Y0253673D03*
X0690595Y0253673D03*
X0690595Y0246193D03*
X0680595Y0246193D03*
X0744595Y0246193D03*
X0744595Y0253673D03*
X0754595Y0253673D03*
X0754595Y0246193D03*
X0757095Y0299193D03*
X0747595Y0299193D03*
X0747595Y0306673D03*
X0757095Y0306673D03*
X0693095Y0306673D03*
X0683595Y0306673D03*
X0683595Y0299193D03*
X0693095Y0299193D03*
X0629095Y0299193D03*
X0619595Y0299193D03*
X0619595Y0306673D03*
X0629095Y0306673D03*
D11*
X0608532Y0311053D03*
X0606564Y0311053D03*
X0604595Y0311053D03*
X0602627Y0311053D03*
X0600658Y0311053D03*
X0600658Y0294813D03*
X0602627Y0294813D03*
X0604595Y0294813D03*
X0606564Y0294813D03*
X0608532Y0294813D03*
X0664658Y0294813D03*
X0666627Y0294813D03*
X0668595Y0294813D03*
X0670564Y0294813D03*
X0672532Y0294813D03*
X0672532Y0311053D03*
X0670564Y0311053D03*
X0668595Y0311053D03*
X0666627Y0311053D03*
X0664658Y0311053D03*
X0728658Y0311053D03*
X0730627Y0311053D03*
X0732595Y0311053D03*
X0734564Y0311053D03*
X0736532Y0311053D03*
X0736532Y0294813D03*
X0734564Y0294813D03*
X0732595Y0294813D03*
X0730627Y0294813D03*
X0728658Y0294813D03*
X0728658Y0257553D03*
X0730627Y0257553D03*
X0732595Y0257553D03*
X0734564Y0257553D03*
X0736532Y0257553D03*
X0736532Y0241313D03*
X0734564Y0241313D03*
X0732595Y0241313D03*
X0730627Y0241313D03*
X0728658Y0241313D03*
X0729158Y0215053D03*
X0731127Y0215053D03*
X0733095Y0215053D03*
X0735064Y0215053D03*
X0737032Y0215053D03*
X0737032Y0198813D03*
X0735064Y0198813D03*
X0733095Y0198813D03*
X0731127Y0198813D03*
X0729158Y0198813D03*
X0673032Y0198813D03*
X0671064Y0198813D03*
X0669095Y0198813D03*
X0667127Y0198813D03*
X0665158Y0198813D03*
X0665158Y0215053D03*
X0667127Y0215053D03*
X0669095Y0215053D03*
X0671064Y0215053D03*
X0673032Y0215053D03*
X0672532Y0241313D03*
X0670564Y0241313D03*
X0668595Y0241313D03*
X0666627Y0241313D03*
X0664658Y0241313D03*
X0664658Y0257553D03*
X0666627Y0257553D03*
X0668595Y0257553D03*
X0670564Y0257553D03*
X0672532Y0257553D03*
X0608532Y0257553D03*
X0606564Y0257553D03*
X0604595Y0257553D03*
X0602627Y0257553D03*
X0600658Y0257553D03*
X0600658Y0241313D03*
X0602627Y0241313D03*
X0604595Y0241313D03*
X0606564Y0241313D03*
X0608532Y0241313D03*
X0609032Y0215053D03*
X0607064Y0215053D03*
X0605095Y0215053D03*
X0603127Y0215053D03*
X0601158Y0215053D03*
X0601158Y0198813D03*
X0603127Y0198813D03*
X0605095Y0198813D03*
X0607064Y0198813D03*
X0609032Y0198813D03*
X0609032Y0161553D03*
X0607064Y0161553D03*
X0605095Y0161553D03*
X0603127Y0161553D03*
X0601158Y0161553D03*
X0601158Y0145313D03*
X0603127Y0145313D03*
X0605095Y0145313D03*
X0607064Y0145313D03*
X0609032Y0145313D03*
X0665158Y0145313D03*
X0667127Y0145313D03*
X0669095Y0145313D03*
X0671064Y0145313D03*
X0673032Y0145313D03*
X0673032Y0161553D03*
X0671064Y0161553D03*
X0669095Y0161553D03*
X0667127Y0161553D03*
X0665158Y0161553D03*
X0729158Y0161553D03*
X0731127Y0161553D03*
X0733095Y0161553D03*
X0735064Y0161553D03*
X0737032Y0161553D03*
X0737032Y0145313D03*
X0735064Y0145313D03*
X0733095Y0145313D03*
X0731127Y0145313D03*
X0729158Y0145313D03*
X0673032Y0119053D03*
X0671064Y0119053D03*
X0669095Y0119053D03*
X0667127Y0119053D03*
X0665158Y0119053D03*
X0665158Y0102813D03*
X0667127Y0102813D03*
X0669095Y0102813D03*
X0671064Y0102813D03*
X0673032Y0102813D03*
X0609032Y0102813D03*
X0607064Y0102813D03*
X0605095Y0102813D03*
X0603127Y0102813D03*
X0601158Y0102813D03*
X0601158Y0119053D03*
X0603127Y0119053D03*
X0605095Y0119053D03*
X0607064Y0119053D03*
X0609032Y0119053D03*
X0609032Y0065553D03*
X0607064Y0065553D03*
X0605095Y0065553D03*
X0603127Y0065553D03*
X0601158Y0065553D03*
X0601158Y0049313D03*
X0603127Y0049313D03*
X0605095Y0049313D03*
X0607064Y0049313D03*
X0609032Y0049313D03*
X0665158Y0049313D03*
X0667127Y0049313D03*
X0669095Y0049313D03*
X0671064Y0049313D03*
X0673032Y0049313D03*
X0673032Y0065553D03*
X0671064Y0065553D03*
X0669095Y0065553D03*
X0667127Y0065553D03*
X0665158Y0065553D03*
X0319532Y0059813D03*
X0317564Y0059813D03*
X0315595Y0059813D03*
X0313627Y0059813D03*
X0311658Y0059813D03*
X0311658Y0076053D03*
X0313627Y0076053D03*
X0315595Y0076053D03*
X0317564Y0076053D03*
X0319532Y0076053D03*
D12*
X0310536Y0053933D03*
X0315654Y0053933D03*
X0316154Y0082933D03*
X0311036Y0082933D03*
X0400536Y0062933D03*
X0405654Y0062933D03*
X0502036Y0069433D03*
X0502036Y0074433D03*
X0507154Y0074433D03*
X0507154Y0069433D03*
X0585536Y0059933D03*
X0585536Y0054933D03*
X0590654Y0054933D03*
X0590654Y0059933D03*
X0649536Y0059933D03*
X0649536Y0054933D03*
X0654654Y0054933D03*
X0654654Y0059933D03*
X0654654Y0108433D03*
X0654654Y0113433D03*
X0649536Y0113433D03*
X0649536Y0108433D03*
X0590654Y0108433D03*
X0590654Y0113433D03*
X0585536Y0113433D03*
X0585536Y0108433D03*
X0585536Y0150933D03*
X0585536Y0155933D03*
X0590654Y0155933D03*
X0590654Y0150933D03*
X0649536Y0150933D03*
X0649536Y0155933D03*
X0654654Y0155933D03*
X0654654Y0150933D03*
X0713536Y0151433D03*
X0713536Y0156433D03*
X0718654Y0156433D03*
X0718654Y0151433D03*
X0718654Y0204433D03*
X0718654Y0209433D03*
X0713536Y0209433D03*
X0713536Y0204433D03*
X0654654Y0204433D03*
X0654654Y0209433D03*
X0649536Y0209433D03*
X0649536Y0204433D03*
X0590654Y0204933D03*
X0590654Y0209433D03*
X0585536Y0209433D03*
X0585536Y0204933D03*
X0585036Y0246933D03*
X0585036Y0251933D03*
X0590154Y0251933D03*
X0590154Y0246933D03*
X0649036Y0246933D03*
X0649036Y0251933D03*
X0654154Y0251933D03*
X0654154Y0246933D03*
X0713036Y0247433D03*
X0718154Y0247433D03*
X0718154Y0252433D03*
X0713036Y0252433D03*
X0713036Y0300433D03*
X0713036Y0305433D03*
X0718154Y0305433D03*
X0718154Y0300433D03*
X0653654Y0300933D03*
X0648536Y0300933D03*
X0648536Y0305933D03*
X0653654Y0305933D03*
X0590154Y0305933D03*
X0585036Y0305933D03*
X0585036Y0300933D03*
X0590154Y0300933D03*
D13*
X0618095Y0289492D03*
X0618095Y0284374D03*
X0618095Y0267492D03*
X0618095Y0262374D03*
X0682095Y0262874D03*
X0682095Y0267992D03*
X0682095Y0284374D03*
X0682095Y0289492D03*
X0746095Y0288992D03*
X0746095Y0283874D03*
X0746095Y0267492D03*
X0746095Y0262374D03*
X0746595Y0192992D03*
X0746595Y0187874D03*
X0746595Y0171492D03*
X0746595Y0166374D03*
X0682595Y0166374D03*
X0682595Y0171492D03*
X0682595Y0187874D03*
X0682595Y0192992D03*
X0618595Y0193492D03*
X0618595Y0188374D03*
X0618595Y0171492D03*
X0618595Y0166374D03*
X0618595Y0097492D03*
X0618595Y0092374D03*
X0618595Y0075992D03*
X0618595Y0070874D03*
X0558095Y0072492D03*
X0553595Y0072492D03*
X0553595Y0067374D03*
X0558095Y0067374D03*
X0452095Y0050992D03*
X0452095Y0045874D03*
X0433595Y0047374D03*
X0433595Y0052492D03*
X0422595Y0049992D03*
X0418095Y0049992D03*
X0418095Y0044874D03*
X0422595Y0044874D03*
X0683095Y0070374D03*
X0683095Y0075492D03*
X0682595Y0091874D03*
X0682595Y0096992D03*
D14*
X0529835Y0042933D03*
X0522355Y0042933D03*
X0508335Y0081433D03*
X0500855Y0081433D03*
D15*
X0446595Y0053067D03*
X0439095Y0053067D03*
X0439095Y0044799D03*
X0446595Y0044799D03*
X0408595Y0041799D03*
X0399595Y0041799D03*
X0399595Y0050067D03*
X0408595Y0050067D03*
D16*
X0409214Y0073193D03*
X0409214Y0076933D03*
X0409214Y0080673D03*
X0398977Y0080673D03*
X0398977Y0073193D03*
D17*
X0381213Y0053433D03*
X0378654Y0053433D03*
X0376095Y0053433D03*
X0373536Y0053433D03*
X0370977Y0053433D03*
D18*
X0366400Y0052016D03*
X0385790Y0052016D03*
D19*
X0387562Y0042961D03*
X0364629Y0042961D03*
D20*
X0372867Y0042961D03*
X0379442Y0042961D03*
D21*
X0384075Y0073433D03*
X0369115Y0073433D03*
D22*
X0516095Y0072633D03*
X0521095Y0072633D03*
X0526095Y0072633D03*
X0531095Y0072633D03*
X0531095Y0053233D03*
X0526095Y0053233D03*
X0521095Y0053233D03*
X0516095Y0053233D03*
M02*
