G75*
%MOIN*%
%OFA0B0*%
%FSLAX25Y25*%
%IPPOS*%
%LPD*%
%AMOC8*
5,1,8,0,0,1.08239X$1,22.5*
%
%ADD10R,0.05906X0.05118*%
%ADD11C,0.06000*%
%ADD12C,0.19685*%
%ADD13R,0.01181X0.03937*%
%ADD14OC8,0.06000*%
%ADD15C,0.20000*%
%ADD16R,0.05118X0.05906*%
%ADD17C,0.00787*%
%ADD18C,0.03575*%
%ADD19C,0.01600*%
%ADD20C,0.11811*%
%ADD21C,0.12268*%
%ADD22C,0.12661*%
%ADD23C,0.13055*%
%ADD24C,0.13449*%
%ADD25C,0.13843*%
%ADD26C,0.14236*%
%ADD27C,0.14630*%
%ADD28C,0.15024*%
D10*
X0561300Y0054760D03*
X0561300Y0062240D03*
X0571300Y0062240D03*
X0571300Y0054760D03*
X0573800Y0107760D03*
X0564300Y0107760D03*
X0564300Y0115240D03*
X0573800Y0115240D03*
X0571300Y0143260D03*
X0561300Y0143260D03*
X0561300Y0150740D03*
X0571300Y0150740D03*
X0573800Y0196260D03*
X0564300Y0196260D03*
X0564300Y0203740D03*
X0573800Y0203740D03*
X0570800Y0232260D03*
X0570800Y0239740D03*
X0560800Y0239740D03*
X0560800Y0232260D03*
X0563800Y0285260D03*
X0573300Y0285260D03*
X0573300Y0292740D03*
X0563800Y0292740D03*
D11*
X0507300Y0048000D02*
X0507300Y0042000D01*
X0497300Y0042000D02*
X0497300Y0048000D01*
X0479300Y0048000D02*
X0479300Y0042000D01*
X0469300Y0042000D02*
X0469300Y0048000D01*
D12*
X0451800Y0109500D03*
X0501300Y0109500D03*
X0401800Y0109500D03*
X0351800Y0109500D03*
X0301800Y0109500D03*
X0251800Y0109500D03*
X0201800Y0109500D03*
X0151800Y0109500D03*
X0151800Y0159500D03*
X0201800Y0159500D03*
X0251800Y0159500D03*
X0301800Y0159500D03*
X0351800Y0159500D03*
X0401800Y0159500D03*
X0451800Y0159500D03*
X0501300Y0159500D03*
X0501300Y0209500D03*
X0451800Y0209500D03*
X0401800Y0209500D03*
X0351800Y0209500D03*
X0301800Y0209500D03*
X0251800Y0209500D03*
X0201800Y0209500D03*
X0151800Y0209500D03*
X0151800Y0259500D03*
X0201800Y0259500D03*
X0251800Y0259500D03*
X0301800Y0259500D03*
X0351800Y0259500D03*
X0401800Y0259500D03*
X0451800Y0259500D03*
X0501800Y0259500D03*
D13*
X0544863Y0243571D03*
X0546831Y0243571D03*
X0548800Y0243571D03*
X0550769Y0243571D03*
X0552737Y0243571D03*
X0552737Y0227429D03*
X0550769Y0227429D03*
X0548800Y0227429D03*
X0546831Y0227429D03*
X0544863Y0227429D03*
X0545363Y0208071D03*
X0547331Y0208071D03*
X0549300Y0208071D03*
X0551269Y0208071D03*
X0553237Y0208071D03*
X0553237Y0191929D03*
X0551269Y0191929D03*
X0549300Y0191929D03*
X0547331Y0191929D03*
X0545363Y0191929D03*
X0545363Y0154571D03*
X0547331Y0154571D03*
X0549300Y0154571D03*
X0551269Y0154571D03*
X0553237Y0154571D03*
X0553237Y0138429D03*
X0551269Y0138429D03*
X0549300Y0138429D03*
X0547331Y0138429D03*
X0545363Y0138429D03*
X0545363Y0119571D03*
X0547331Y0119571D03*
X0549300Y0119571D03*
X0551269Y0119571D03*
X0553237Y0119571D03*
X0553237Y0103429D03*
X0551269Y0103429D03*
X0549300Y0103429D03*
X0547331Y0103429D03*
X0545363Y0103429D03*
X0545363Y0066071D03*
X0547331Y0066071D03*
X0549300Y0066071D03*
X0551269Y0066071D03*
X0553237Y0066071D03*
X0553237Y0049929D03*
X0551269Y0049929D03*
X0549300Y0049929D03*
X0547331Y0049929D03*
X0545363Y0049929D03*
X0544863Y0280929D03*
X0546831Y0280929D03*
X0548800Y0280929D03*
X0550769Y0280929D03*
X0552737Y0280929D03*
X0552737Y0297071D03*
X0550769Y0297071D03*
X0548800Y0297071D03*
X0546831Y0297071D03*
X0544863Y0297071D03*
D14*
X0602300Y0267300D03*
X0612300Y0261900D03*
X0602300Y0256400D03*
X0612300Y0251000D03*
X0602300Y0245600D03*
X0612300Y0240100D03*
X0602300Y0234700D03*
X0612300Y0229300D03*
X0602300Y0223800D03*
X0612300Y0218400D03*
X0602300Y0213000D03*
X0612300Y0207500D03*
X0602300Y0202100D03*
X0612300Y0196700D03*
X0602300Y0191200D03*
X0612300Y0185800D03*
X0602300Y0180400D03*
X0612300Y0174900D03*
X0602300Y0169500D03*
X0612300Y0164100D03*
X0602300Y0158600D03*
X0612300Y0153200D03*
X0602300Y0147800D03*
X0612300Y0142300D03*
X0602300Y0136900D03*
X0612300Y0131500D03*
X0602300Y0126000D03*
X0612300Y0120600D03*
X0602300Y0115100D03*
X0612300Y0109700D03*
X0602300Y0104300D03*
X0612300Y0098800D03*
X0602300Y0093400D03*
X0612300Y0088000D03*
X0602300Y0082500D03*
X0612300Y0077100D03*
X0602300Y0071700D03*
X0076800Y0071700D03*
X0066800Y0077100D03*
X0076800Y0082600D03*
X0066800Y0088000D03*
X0076800Y0093400D03*
X0066800Y0098900D03*
X0076800Y0104300D03*
X0066800Y0109700D03*
X0076800Y0115200D03*
X0066800Y0120600D03*
X0076800Y0126000D03*
X0066800Y0131500D03*
X0076800Y0136900D03*
X0066800Y0142300D03*
X0076800Y0147800D03*
X0066800Y0153200D03*
X0076800Y0158600D03*
X0066800Y0164100D03*
X0076800Y0169500D03*
X0066800Y0174900D03*
X0076800Y0180400D03*
X0066800Y0185800D03*
X0076800Y0191200D03*
X0066800Y0196700D03*
X0076800Y0202100D03*
X0066800Y0207600D03*
X0076800Y0213000D03*
X0066800Y0218400D03*
X0076800Y0223900D03*
X0066800Y0229300D03*
X0076800Y0234700D03*
X0066800Y0240200D03*
X0076800Y0245600D03*
X0066800Y0251000D03*
X0076800Y0256500D03*
X0066800Y0261900D03*
X0076800Y0267300D03*
D15*
X0071800Y0044500D03*
X0607300Y0044500D03*
X0607300Y0294500D03*
X0071800Y0294500D03*
D16*
X0526560Y0297500D03*
X0534040Y0297500D03*
X0534040Y0287000D03*
X0526560Y0287000D03*
X0527060Y0239500D03*
X0534540Y0239500D03*
X0534540Y0230000D03*
X0527060Y0230000D03*
X0527060Y0208500D03*
X0534540Y0208500D03*
X0534540Y0198000D03*
X0527060Y0198000D03*
X0527560Y0150500D03*
X0535040Y0150500D03*
X0535040Y0141000D03*
X0527560Y0141000D03*
X0527060Y0120000D03*
X0534540Y0120000D03*
X0534540Y0109500D03*
X0527060Y0109500D03*
X0506040Y0074500D03*
X0498560Y0074500D03*
X0498560Y0066000D03*
X0506040Y0066000D03*
X0506040Y0057500D03*
X0498560Y0057500D03*
X0478040Y0057000D03*
X0470560Y0057000D03*
X0470560Y0065500D03*
X0478040Y0065500D03*
X0478040Y0074000D03*
X0470560Y0074000D03*
X0527560Y0062000D03*
X0535040Y0062000D03*
X0535040Y0052500D03*
X0527560Y0052500D03*
D17*
X0527560Y0062000D01*
X0527300Y0061740D01*
X0527166Y0061606D02*
X0527954Y0061606D01*
X0527954Y0057654D01*
X0530302Y0057654D01*
X0530657Y0057749D01*
X0530975Y0057932D01*
X0531234Y0058191D01*
X0531392Y0058466D01*
X0531992Y0057866D01*
X0538088Y0057866D01*
X0538780Y0058558D01*
X0538780Y0059822D01*
X0539118Y0059483D01*
X0540210Y0059031D01*
X0541390Y0059031D01*
X0542482Y0059483D01*
X0543317Y0060318D01*
X0543768Y0061410D01*
X0543768Y0062590D01*
X0543317Y0063682D01*
X0542502Y0064496D01*
X0542616Y0064496D01*
X0543149Y0064419D01*
X0543252Y0064496D01*
X0543591Y0064496D01*
X0543591Y0063613D01*
X0544283Y0062921D01*
X0545757Y0062921D01*
X0545757Y0062617D01*
X0545331Y0061590D01*
X0545331Y0060410D01*
X0545783Y0059318D01*
X0546618Y0058483D01*
X0547710Y0058031D01*
X0548890Y0058031D01*
X0549982Y0058483D01*
X0550817Y0059318D01*
X0551268Y0060410D01*
X0551268Y0061304D01*
X0551908Y0060665D01*
X0557166Y0060665D01*
X0557166Y0059192D01*
X0557858Y0058500D01*
X0557166Y0057808D01*
X0557166Y0052853D01*
X0555817Y0051504D01*
X0555009Y0051504D01*
X0555009Y0052387D01*
X0554317Y0053079D01*
X0549077Y0053079D01*
X0549317Y0053318D01*
X0549768Y0054410D01*
X0549768Y0055590D01*
X0549317Y0056682D01*
X0548482Y0057517D01*
X0547390Y0057968D01*
X0546210Y0057968D01*
X0545118Y0057517D01*
X0544283Y0056682D01*
X0543831Y0055590D01*
X0543831Y0054410D01*
X0543876Y0054303D01*
X0543788Y0054215D01*
X0543788Y0052584D01*
X0543591Y0052387D01*
X0543591Y0047471D01*
X0544283Y0046780D01*
X0544352Y0046780D01*
X0544225Y0046652D01*
X0544225Y0042348D01*
X0546148Y0040425D01*
X0553952Y0040425D01*
X0554952Y0041425D01*
X0577259Y0041425D01*
X0578210Y0041031D01*
X0579390Y0041031D01*
X0580482Y0041483D01*
X0581317Y0042318D01*
X0581768Y0043410D01*
X0581768Y0044590D01*
X0581317Y0045682D01*
X0580482Y0046517D01*
X0579390Y0046968D01*
X0579379Y0046968D01*
X0579768Y0047910D01*
X0579768Y0049090D01*
X0579317Y0050182D01*
X0578482Y0051017D01*
X0577390Y0051468D01*
X0576210Y0051468D01*
X0575118Y0051017D01*
X0574283Y0050182D01*
X0573831Y0049090D01*
X0573831Y0047910D01*
X0573876Y0047803D01*
X0573148Y0047075D01*
X0554612Y0047075D01*
X0555009Y0047471D01*
X0555009Y0048354D01*
X0557122Y0048354D01*
X0559787Y0051020D01*
X0564742Y0051020D01*
X0565434Y0051712D01*
X0565434Y0053185D01*
X0567166Y0053185D01*
X0567166Y0051712D01*
X0567858Y0051020D01*
X0574742Y0051020D01*
X0575434Y0051712D01*
X0575434Y0057808D01*
X0574834Y0058408D01*
X0575109Y0058566D01*
X0575368Y0058825D01*
X0575551Y0059143D01*
X0575646Y0059498D01*
X0575646Y0061846D01*
X0571694Y0061846D01*
X0571694Y0062634D01*
X0575646Y0062634D01*
X0575646Y0064983D01*
X0575551Y0065337D01*
X0575368Y0065655D01*
X0575109Y0065914D01*
X0574791Y0066098D01*
X0574436Y0066193D01*
X0571694Y0066193D01*
X0571694Y0062634D01*
X0570906Y0062634D01*
X0570906Y0061846D01*
X0566954Y0061846D01*
X0566954Y0059498D01*
X0567049Y0059143D01*
X0567232Y0058825D01*
X0567491Y0058566D01*
X0567766Y0058408D01*
X0567166Y0057808D01*
X0567166Y0056335D01*
X0565434Y0056335D01*
X0565434Y0057808D01*
X0564742Y0058500D01*
X0557858Y0058500D01*
X0564742Y0058500D01*
X0565434Y0059192D01*
X0565434Y0065288D01*
X0564742Y0065980D01*
X0558007Y0065980D01*
X0558952Y0066925D01*
X0559875Y0067848D01*
X0559875Y0068439D01*
X0559982Y0068483D01*
X0560817Y0069318D01*
X0561268Y0070410D01*
X0561268Y0071590D01*
X0560817Y0072682D01*
X0559982Y0073517D01*
X0558890Y0073968D01*
X0557710Y0073968D01*
X0556618Y0073517D01*
X0556050Y0072948D01*
X0555482Y0073517D01*
X0554390Y0073968D01*
X0553210Y0073968D01*
X0552118Y0073517D01*
X0551550Y0072948D01*
X0550982Y0073517D01*
X0549890Y0073968D01*
X0548710Y0073968D01*
X0547618Y0073517D01*
X0547050Y0072948D01*
X0546482Y0073517D01*
X0545390Y0073968D01*
X0544210Y0073968D01*
X0543118Y0073517D01*
X0542283Y0072682D01*
X0541831Y0071590D01*
X0541831Y0070410D01*
X0542283Y0069318D01*
X0543118Y0068483D01*
X0543591Y0068288D01*
X0543591Y0067646D01*
X0543518Y0067646D01*
X0541068Y0070926D01*
X0541268Y0071410D01*
X0541268Y0072590D01*
X0540817Y0073682D01*
X0539982Y0074517D01*
X0538890Y0074968D01*
X0537710Y0074968D01*
X0536618Y0074517D01*
X0535783Y0073682D01*
X0535739Y0073575D01*
X0520452Y0073575D01*
X0515800Y0078227D01*
X0515800Y0100773D01*
X0520148Y0096425D01*
X0536739Y0096425D01*
X0536783Y0096318D01*
X0537618Y0095483D01*
X0538710Y0095031D01*
X0539890Y0095031D01*
X0540982Y0095483D01*
X0541817Y0096318D01*
X0542050Y0096882D01*
X0542283Y0096318D01*
X0543118Y0095483D01*
X0544210Y0095031D01*
X0545390Y0095031D01*
X0546482Y0095483D01*
X0547050Y0096052D01*
X0547618Y0095483D01*
X0548710Y0095031D01*
X0549890Y0095031D01*
X0550982Y0095483D01*
X0551550Y0096052D01*
X0552118Y0095483D01*
X0553210Y0095031D01*
X0554390Y0095031D01*
X0555482Y0095483D01*
X0556050Y0096052D01*
X0556618Y0095483D01*
X0557710Y0095031D01*
X0558890Y0095031D01*
X0559982Y0095483D01*
X0560817Y0096318D01*
X0561268Y0097410D01*
X0561268Y0098590D01*
X0560817Y0099682D01*
X0559982Y0100517D01*
X0559875Y0100561D01*
X0559875Y0103152D01*
X0558952Y0104075D01*
X0558023Y0105004D01*
X0555009Y0105004D01*
X0555009Y0105887D01*
X0554447Y0106449D01*
X0554817Y0106818D01*
X0555268Y0107910D01*
X0555268Y0109090D01*
X0554923Y0109925D01*
X0555148Y0109925D01*
X0558225Y0106848D01*
X0559148Y0105925D01*
X0560166Y0105925D01*
X0560166Y0104712D01*
X0560858Y0104020D01*
X0567742Y0104020D01*
X0568434Y0104712D01*
X0568434Y0110808D01*
X0567742Y0111500D01*
X0568434Y0112192D01*
X0568434Y0113665D01*
X0569666Y0113665D01*
X0569666Y0112192D01*
X0570266Y0111592D01*
X0569991Y0111434D01*
X0569732Y0111175D01*
X0569549Y0110857D01*
X0569454Y0110502D01*
X0569454Y0108154D01*
X0573406Y0108154D01*
X0573406Y0107366D01*
X0569454Y0107366D01*
X0569454Y0105017D01*
X0569549Y0104663D01*
X0569732Y0104345D01*
X0569991Y0104086D01*
X0570309Y0103902D01*
X0570664Y0103807D01*
X0573406Y0103807D01*
X0573406Y0107366D01*
X0574194Y0107366D01*
X0574194Y0108154D01*
X0578146Y0108154D01*
X0578146Y0110502D01*
X0578051Y0110857D01*
X0577868Y0111175D01*
X0577609Y0111434D01*
X0577334Y0111592D01*
X0577934Y0112192D01*
X0577934Y0118288D01*
X0577242Y0118980D01*
X0570358Y0118980D01*
X0569666Y0118288D01*
X0569666Y0116815D01*
X0568434Y0116815D01*
X0568434Y0118288D01*
X0567742Y0118980D01*
X0562787Y0118980D01*
X0560622Y0121146D01*
X0555009Y0121146D01*
X0555009Y0122029D01*
X0554317Y0122720D01*
X0553875Y0122720D01*
X0553875Y0123848D01*
X0556452Y0126425D01*
X0576952Y0126425D01*
X0578375Y0127848D01*
X0582952Y0132425D01*
X0586251Y0132425D01*
X0586853Y0132388D01*
X0586895Y0132425D01*
X0586952Y0132425D01*
X0587379Y0132852D01*
X0593942Y0138642D01*
X0594210Y0138531D01*
X0595390Y0138531D01*
X0596482Y0138983D01*
X0597317Y0139818D01*
X0597768Y0140910D01*
X0597768Y0142090D01*
X0597317Y0143182D01*
X0596573Y0143925D01*
X0596648Y0143925D01*
X0598225Y0142348D01*
X0598225Y0138748D01*
X0598230Y0138743D01*
X0598119Y0138632D01*
X0598119Y0135168D01*
X0600568Y0132719D01*
X0604032Y0132719D01*
X0605725Y0134412D01*
X0605725Y0128488D01*
X0604032Y0130181D01*
X0600568Y0130181D01*
X0598119Y0127732D01*
X0598119Y0124268D01*
X0600568Y0121819D01*
X0604032Y0121819D01*
X0605725Y0123512D01*
X0605725Y0117588D01*
X0604032Y0119281D01*
X0600568Y0119281D01*
X0598119Y0116832D01*
X0598119Y0113368D01*
X0600568Y0110919D01*
X0604032Y0110919D01*
X0605725Y0112612D01*
X0605725Y0109652D01*
X0604293Y0108220D01*
X0604032Y0108481D01*
X0600568Y0108481D01*
X0598119Y0106032D01*
X0598119Y0102568D01*
X0600568Y0100119D01*
X0604032Y0100119D01*
X0606481Y0102568D01*
X0606481Y0105954D01*
X0607952Y0107425D01*
X0608307Y0107780D01*
X0610568Y0105519D01*
X0614032Y0105519D01*
X0616481Y0107968D01*
X0616481Y0111432D01*
X0614032Y0113881D01*
X0610568Y0113881D01*
X0608875Y0112188D01*
X0608875Y0118112D01*
X0610568Y0116419D01*
X0614032Y0116419D01*
X0616481Y0118868D01*
X0616481Y0122332D01*
X0614032Y0124781D01*
X0610568Y0124781D01*
X0608875Y0123088D01*
X0608875Y0129012D01*
X0610568Y0127319D01*
X0614032Y0127319D01*
X0616481Y0129768D01*
X0616481Y0133232D01*
X0614032Y0135681D01*
X0610568Y0135681D01*
X0608875Y0133988D01*
X0608875Y0139812D01*
X0610568Y0138119D01*
X0614032Y0138119D01*
X0616481Y0140568D01*
X0616481Y0144032D01*
X0614032Y0146481D01*
X0610568Y0146481D01*
X0608875Y0144788D01*
X0608875Y0150712D01*
X0610568Y0149019D01*
X0614032Y0149019D01*
X0616481Y0151468D01*
X0616481Y0154932D01*
X0614032Y0157381D01*
X0610568Y0157381D01*
X0608875Y0155688D01*
X0608875Y0161612D01*
X0610568Y0159919D01*
X0614032Y0159919D01*
X0616481Y0162368D01*
X0616481Y0165832D01*
X0614032Y0168281D01*
X0610568Y0168281D01*
X0608875Y0166588D01*
X0608875Y0172412D01*
X0610568Y0170719D01*
X0614032Y0170719D01*
X0616481Y0173168D01*
X0616481Y0176632D01*
X0614032Y0179081D01*
X0610568Y0179081D01*
X0608875Y0177388D01*
X0608875Y0183312D01*
X0610568Y0181619D01*
X0614032Y0181619D01*
X0616481Y0184068D01*
X0616481Y0187532D01*
X0614032Y0189981D01*
X0610568Y0189981D01*
X0608875Y0188288D01*
X0608875Y0194212D01*
X0610568Y0192519D01*
X0614032Y0192519D01*
X0616481Y0194968D01*
X0616481Y0198432D01*
X0614032Y0200881D01*
X0610568Y0200881D01*
X0608875Y0199188D01*
X0608875Y0205012D01*
X0610568Y0203319D01*
X0614032Y0203319D01*
X0616481Y0205768D01*
X0616481Y0209232D01*
X0614032Y0211681D01*
X0610568Y0211681D01*
X0608875Y0209988D01*
X0608875Y0215912D01*
X0610568Y0214219D01*
X0614032Y0214219D01*
X0616481Y0216668D01*
X0616481Y0220132D01*
X0614032Y0222581D01*
X0610568Y0222581D01*
X0608119Y0220132D01*
X0608119Y0217908D01*
X0606375Y0219652D01*
X0605452Y0220575D01*
X0604988Y0220575D01*
X0606481Y0222068D01*
X0606481Y0225532D01*
X0604032Y0227981D01*
X0600568Y0227981D01*
X0598119Y0225532D01*
X0598119Y0222068D01*
X0599612Y0220575D01*
X0594952Y0220575D01*
X0591875Y0223652D01*
X0590952Y0224575D01*
X0554112Y0224575D01*
X0554509Y0224971D01*
X0554509Y0225854D01*
X0556622Y0225854D01*
X0559287Y0228520D01*
X0564242Y0228520D01*
X0564934Y0229212D01*
X0564934Y0230685D01*
X0566666Y0230685D01*
X0566666Y0229212D01*
X0567358Y0228520D01*
X0574242Y0228520D01*
X0574934Y0229212D01*
X0574934Y0235308D01*
X0574334Y0235908D01*
X0574609Y0236066D01*
X0574868Y0236325D01*
X0575051Y0236643D01*
X0575146Y0236998D01*
X0575146Y0239346D01*
X0571194Y0239346D01*
X0571194Y0240134D01*
X0575146Y0240134D01*
X0575146Y0242483D01*
X0575051Y0242837D01*
X0574868Y0243155D01*
X0574609Y0243414D01*
X0574291Y0243598D01*
X0573936Y0243693D01*
X0571194Y0243693D01*
X0571194Y0240134D01*
X0570406Y0240134D01*
X0570406Y0239346D01*
X0566454Y0239346D01*
X0566454Y0236998D01*
X0566549Y0236643D01*
X0566732Y0236325D01*
X0566991Y0236066D01*
X0567266Y0235908D01*
X0566666Y0235308D01*
X0566666Y0233835D01*
X0564934Y0233835D01*
X0564934Y0235308D01*
X0564242Y0236000D01*
X0557358Y0236000D01*
X0556666Y0235308D01*
X0556666Y0230353D01*
X0555317Y0229004D01*
X0554509Y0229004D01*
X0554509Y0229887D01*
X0553817Y0230579D01*
X0548577Y0230579D01*
X0548817Y0230818D01*
X0549268Y0231910D01*
X0549268Y0233090D01*
X0548817Y0234182D01*
X0547982Y0235017D01*
X0546890Y0235468D01*
X0545710Y0235468D01*
X0544618Y0235017D01*
X0543783Y0234182D01*
X0543331Y0233090D01*
X0543331Y0231910D01*
X0543376Y0231803D01*
X0543288Y0231715D01*
X0543288Y0230084D01*
X0543091Y0229887D01*
X0543091Y0224971D01*
X0543783Y0224280D01*
X0543852Y0224280D01*
X0543725Y0224152D01*
X0543725Y0219848D01*
X0544725Y0218848D01*
X0545648Y0217925D01*
X0546998Y0217925D01*
X0546225Y0217152D01*
X0544725Y0215652D01*
X0544725Y0211348D01*
X0544852Y0211220D01*
X0544283Y0211220D01*
X0543591Y0210529D01*
X0543591Y0210018D01*
X0543317Y0210682D01*
X0542482Y0211517D01*
X0541390Y0211968D01*
X0540210Y0211968D01*
X0539118Y0211517D01*
X0538283Y0210682D01*
X0538280Y0210674D01*
X0538280Y0211942D01*
X0537588Y0212634D01*
X0531492Y0212634D01*
X0530892Y0212034D01*
X0530734Y0212309D01*
X0530475Y0212568D01*
X0530157Y0212751D01*
X0529802Y0212846D01*
X0527454Y0212846D01*
X0527454Y0208894D01*
X0526666Y0208894D01*
X0526666Y0212846D01*
X0524317Y0212846D01*
X0523963Y0212751D01*
X0523645Y0212568D01*
X0523386Y0212309D01*
X0523202Y0211991D01*
X0523107Y0211636D01*
X0523107Y0208894D01*
X0526666Y0208894D01*
X0526666Y0208106D01*
X0527454Y0208106D01*
X0527454Y0204154D01*
X0529802Y0204154D01*
X0530157Y0204249D01*
X0530475Y0204432D01*
X0530734Y0204691D01*
X0530892Y0204966D01*
X0531492Y0204366D01*
X0537588Y0204366D01*
X0538280Y0205058D01*
X0538280Y0207326D01*
X0538283Y0207318D01*
X0539118Y0206483D01*
X0540210Y0206031D01*
X0541390Y0206031D01*
X0542482Y0206483D01*
X0543317Y0207318D01*
X0543591Y0207982D01*
X0543591Y0205613D01*
X0543788Y0205416D01*
X0543788Y0204686D01*
X0543783Y0204682D01*
X0543331Y0203590D01*
X0543331Y0202410D01*
X0543783Y0201318D01*
X0544618Y0200483D01*
X0545710Y0200031D01*
X0546890Y0200031D01*
X0547982Y0200483D01*
X0548817Y0201318D01*
X0549268Y0202410D01*
X0549268Y0203590D01*
X0548817Y0204682D01*
X0548577Y0204921D01*
X0554317Y0204921D01*
X0555009Y0205613D01*
X0555009Y0206496D01*
X0559317Y0206496D01*
X0560166Y0205647D01*
X0560166Y0200692D01*
X0560858Y0200000D01*
X0567742Y0200000D01*
X0568434Y0200692D01*
X0568434Y0202165D01*
X0569666Y0202165D01*
X0569666Y0200692D01*
X0570266Y0200092D01*
X0569991Y0199934D01*
X0569732Y0199675D01*
X0569549Y0199357D01*
X0569454Y0199002D01*
X0569454Y0196654D01*
X0573406Y0196654D01*
X0573406Y0195866D01*
X0569454Y0195866D01*
X0569454Y0193517D01*
X0569549Y0193163D01*
X0569732Y0192845D01*
X0569991Y0192586D01*
X0570309Y0192402D01*
X0570664Y0192307D01*
X0573406Y0192307D01*
X0573406Y0195866D01*
X0574194Y0195866D01*
X0574194Y0196654D01*
X0578146Y0196654D01*
X0578146Y0199002D01*
X0578051Y0199357D01*
X0577868Y0199675D01*
X0577609Y0199934D01*
X0577334Y0200092D01*
X0577934Y0200692D01*
X0577934Y0206788D01*
X0577242Y0207480D01*
X0570358Y0207480D01*
X0569666Y0206788D01*
X0569666Y0205315D01*
X0568434Y0205315D01*
X0568434Y0206788D01*
X0567742Y0207480D01*
X0562787Y0207480D01*
X0560622Y0209646D01*
X0555009Y0209646D01*
X0555009Y0209925D01*
X0579148Y0209925D01*
X0581225Y0207848D01*
X0581225Y0152041D01*
X0580831Y0151090D01*
X0580831Y0149910D01*
X0581177Y0149075D01*
X0578148Y0149075D01*
X0577225Y0148152D01*
X0575725Y0146652D01*
X0575725Y0139152D01*
X0572148Y0135575D01*
X0554612Y0135575D01*
X0555009Y0135971D01*
X0555009Y0136854D01*
X0557122Y0136854D01*
X0559787Y0139520D01*
X0564742Y0139520D01*
X0565434Y0140212D01*
X0565434Y0141685D01*
X0567166Y0141685D01*
X0567166Y0140212D01*
X0567858Y0139520D01*
X0574742Y0139520D01*
X0575434Y0140212D01*
X0575434Y0146308D01*
X0574834Y0146908D01*
X0575109Y0147066D01*
X0575368Y0147325D01*
X0575551Y0147643D01*
X0575646Y0147998D01*
X0575646Y0150346D01*
X0571694Y0150346D01*
X0571694Y0151134D01*
X0575646Y0151134D01*
X0575646Y0153483D01*
X0575551Y0153837D01*
X0575368Y0154155D01*
X0575109Y0154414D01*
X0574791Y0154598D01*
X0574436Y0154693D01*
X0571694Y0154693D01*
X0571694Y0151134D01*
X0570906Y0151134D01*
X0570906Y0150346D01*
X0566954Y0150346D01*
X0566954Y0147998D01*
X0567049Y0147643D01*
X0567232Y0147325D01*
X0567491Y0147066D01*
X0567766Y0146908D01*
X0567166Y0146308D01*
X0567166Y0144835D01*
X0565434Y0144835D01*
X0565434Y0146308D01*
X0564742Y0147000D01*
X0557858Y0147000D01*
X0557166Y0146308D01*
X0557166Y0141353D01*
X0555817Y0140004D01*
X0555009Y0140004D01*
X0555009Y0140887D01*
X0554317Y0141579D01*
X0549077Y0141579D01*
X0549317Y0141818D01*
X0549768Y0142910D01*
X0549768Y0144090D01*
X0549317Y0145182D01*
X0548482Y0146017D01*
X0547390Y0146468D01*
X0546210Y0146468D01*
X0545118Y0146017D01*
X0544283Y0145182D01*
X0543831Y0144090D01*
X0543831Y0142910D01*
X0543876Y0142803D01*
X0543788Y0142715D01*
X0543788Y0141084D01*
X0543591Y0140887D01*
X0543591Y0135971D01*
X0544283Y0135280D01*
X0544352Y0135280D01*
X0544225Y0135152D01*
X0544225Y0130848D01*
X0545225Y0129848D01*
X0546148Y0128925D01*
X0546498Y0128925D01*
X0546225Y0128652D01*
X0544725Y0127152D01*
X0544725Y0122848D01*
X0544852Y0122720D01*
X0544283Y0122720D01*
X0543591Y0122029D01*
X0543591Y0121518D01*
X0543317Y0122182D01*
X0542482Y0123017D01*
X0541390Y0123468D01*
X0540210Y0123468D01*
X0539118Y0123017D01*
X0538283Y0122182D01*
X0538280Y0122174D01*
X0538280Y0123442D01*
X0537588Y0124134D01*
X0531492Y0124134D01*
X0530892Y0123534D01*
X0530734Y0123809D01*
X0530475Y0124068D01*
X0530157Y0124251D01*
X0529802Y0124346D01*
X0527454Y0124346D01*
X0527454Y0120394D01*
X0526666Y0120394D01*
X0526666Y0124346D01*
X0524317Y0124346D01*
X0523963Y0124251D01*
X0523645Y0124068D01*
X0523386Y0123809D01*
X0523202Y0123491D01*
X0523107Y0123136D01*
X0523107Y0120394D01*
X0526666Y0120394D01*
X0526666Y0119606D01*
X0527454Y0119606D01*
X0527454Y0115654D01*
X0529802Y0115654D01*
X0530157Y0115749D01*
X0530475Y0115932D01*
X0530734Y0116191D01*
X0530892Y0116466D01*
X0531492Y0115866D01*
X0537588Y0115866D01*
X0538280Y0116558D01*
X0538280Y0118826D01*
X0538283Y0118818D01*
X0539118Y0117983D01*
X0540210Y0117531D01*
X0541390Y0117531D01*
X0542482Y0117983D01*
X0543317Y0118818D01*
X0543591Y0119482D01*
X0543591Y0117113D01*
X0543788Y0116916D01*
X0543788Y0116186D01*
X0543783Y0116182D01*
X0543331Y0115090D01*
X0543331Y0113910D01*
X0543783Y0112818D01*
X0544618Y0111983D01*
X0545710Y0111531D01*
X0546890Y0111531D01*
X0547982Y0111983D01*
X0548817Y0112818D01*
X0549268Y0113910D01*
X0549268Y0115090D01*
X0548817Y0116182D01*
X0548577Y0116421D01*
X0554317Y0116421D01*
X0555009Y0117113D01*
X0555009Y0117996D01*
X0559317Y0117996D01*
X0560166Y0117147D01*
X0560166Y0112192D01*
X0560858Y0111500D01*
X0567742Y0111500D01*
X0560858Y0111500D01*
X0560166Y0110808D01*
X0560166Y0109361D01*
X0556452Y0113075D01*
X0549648Y0113075D01*
X0548725Y0112152D01*
X0545757Y0109184D01*
X0545757Y0106579D01*
X0544283Y0106579D01*
X0543591Y0105887D01*
X0543591Y0105075D01*
X0542648Y0105075D01*
X0541725Y0104152D01*
X0538423Y0100850D01*
X0537618Y0100517D01*
X0536783Y0099682D01*
X0536739Y0099575D01*
X0521452Y0099575D01*
X0516375Y0104652D01*
X0516375Y0167198D01*
X0516898Y0166675D01*
X0519725Y0163848D01*
X0523725Y0159848D01*
X0524648Y0158925D01*
X0535739Y0158925D01*
X0535783Y0158818D01*
X0536618Y0157983D01*
X0537710Y0157531D01*
X0538552Y0157531D01*
X0541154Y0154048D01*
X0541154Y0153919D01*
X0541535Y0153538D01*
X0541675Y0153351D01*
X0541390Y0153468D01*
X0540210Y0153468D01*
X0539118Y0153017D01*
X0538780Y0152678D01*
X0538780Y0153942D01*
X0538088Y0154634D01*
X0531992Y0154634D01*
X0531392Y0154034D01*
X0531234Y0154309D01*
X0530975Y0154568D01*
X0530657Y0154751D01*
X0530302Y0154846D01*
X0527954Y0154846D01*
X0527954Y0150894D01*
X0527166Y0150894D01*
X0527166Y0154846D01*
X0524817Y0154846D01*
X0524463Y0154751D01*
X0524145Y0154568D01*
X0523886Y0154309D01*
X0523702Y0153991D01*
X0523607Y0153636D01*
X0523607Y0150894D01*
X0527166Y0150894D01*
X0527166Y0150106D01*
X0527954Y0150106D01*
X0527954Y0146154D01*
X0530302Y0146154D01*
X0530657Y0146249D01*
X0530975Y0146432D01*
X0531234Y0146691D01*
X0531392Y0146966D01*
X0531992Y0146366D01*
X0538088Y0146366D01*
X0538780Y0147058D01*
X0538780Y0148322D01*
X0539118Y0147983D01*
X0540210Y0147531D01*
X0541390Y0147531D01*
X0542482Y0147983D01*
X0543317Y0148818D01*
X0543768Y0149910D01*
X0543768Y0151090D01*
X0543317Y0152182D01*
X0542502Y0152996D01*
X0542616Y0152996D01*
X0543149Y0152919D01*
X0543252Y0152996D01*
X0543591Y0152996D01*
X0543591Y0152113D01*
X0544283Y0151421D01*
X0545757Y0151421D01*
X0545757Y0151117D01*
X0545331Y0150090D01*
X0545331Y0148910D01*
X0545783Y0147818D01*
X0546618Y0146983D01*
X0547710Y0146531D01*
X0548890Y0146531D01*
X0549982Y0146983D01*
X0550817Y0147818D01*
X0551268Y0148910D01*
X0551268Y0149804D01*
X0551908Y0149165D01*
X0557166Y0149165D01*
X0557166Y0147692D01*
X0557858Y0147000D01*
X0564742Y0147000D01*
X0565434Y0147692D01*
X0565434Y0153788D01*
X0564742Y0154480D01*
X0558007Y0154480D01*
X0558952Y0155425D01*
X0559875Y0156348D01*
X0559875Y0156939D01*
X0559982Y0156983D01*
X0560817Y0157818D01*
X0561268Y0158910D01*
X0561268Y0160090D01*
X0560817Y0161182D01*
X0559982Y0162017D01*
X0558890Y0162468D01*
X0557710Y0162468D01*
X0556618Y0162017D01*
X0556050Y0161448D01*
X0555482Y0162017D01*
X0554390Y0162468D01*
X0553210Y0162468D01*
X0552118Y0162017D01*
X0551550Y0161448D01*
X0550982Y0162017D01*
X0549890Y0162468D01*
X0548710Y0162468D01*
X0547618Y0162017D01*
X0547050Y0161448D01*
X0546482Y0162017D01*
X0545390Y0162468D01*
X0544210Y0162468D01*
X0543118Y0162017D01*
X0542283Y0161182D01*
X0541831Y0160090D01*
X0541831Y0158910D01*
X0542283Y0157818D01*
X0543118Y0156983D01*
X0543591Y0156788D01*
X0543591Y0156146D01*
X0543518Y0156146D01*
X0541068Y0159426D01*
X0541268Y0159910D01*
X0541268Y0161090D01*
X0540817Y0162182D01*
X0539982Y0163017D01*
X0538890Y0163468D01*
X0537710Y0163468D01*
X0536618Y0163017D01*
X0535783Y0162182D01*
X0535739Y0162075D01*
X0525952Y0162075D01*
X0521952Y0166075D01*
X0519125Y0168902D01*
X0518375Y0169652D01*
X0518375Y0188698D01*
X0521225Y0185848D01*
X0522148Y0184925D01*
X0536739Y0184925D01*
X0536783Y0184818D01*
X0537618Y0183983D01*
X0538710Y0183531D01*
X0539890Y0183531D01*
X0540982Y0183983D01*
X0541817Y0184818D01*
X0542050Y0185382D01*
X0542283Y0184818D01*
X0543118Y0183983D01*
X0544210Y0183531D01*
X0545390Y0183531D01*
X0546482Y0183983D01*
X0547050Y0184552D01*
X0547618Y0183983D01*
X0548710Y0183531D01*
X0549890Y0183531D01*
X0550982Y0183983D01*
X0551550Y0184552D01*
X0552118Y0183983D01*
X0553210Y0183531D01*
X0554390Y0183531D01*
X0555482Y0183983D01*
X0556050Y0184552D01*
X0556618Y0183983D01*
X0557710Y0183531D01*
X0558890Y0183531D01*
X0559982Y0183983D01*
X0560817Y0184818D01*
X0561268Y0185910D01*
X0561268Y0187090D01*
X0560817Y0188182D01*
X0559982Y0189017D01*
X0559875Y0189061D01*
X0559875Y0191652D01*
X0558952Y0192575D01*
X0558023Y0193504D01*
X0555009Y0193504D01*
X0555009Y0194387D01*
X0554447Y0194949D01*
X0554817Y0195318D01*
X0555268Y0196410D01*
X0555268Y0197590D01*
X0554923Y0198425D01*
X0555148Y0198425D01*
X0558225Y0195348D01*
X0559148Y0194425D01*
X0560166Y0194425D01*
X0560166Y0193212D01*
X0560858Y0192520D01*
X0567742Y0192520D01*
X0568434Y0193212D01*
X0568434Y0199308D01*
X0567742Y0200000D01*
X0560858Y0200000D01*
X0560166Y0199308D01*
X0560166Y0197861D01*
X0556452Y0201575D01*
X0549648Y0201575D01*
X0548725Y0200652D01*
X0545757Y0197684D01*
X0545757Y0195079D01*
X0544283Y0195079D01*
X0543591Y0194387D01*
X0543591Y0193575D01*
X0542648Y0193575D01*
X0541725Y0192652D01*
X0538423Y0189350D01*
X0537618Y0189017D01*
X0536783Y0188182D01*
X0536739Y0188075D01*
X0523452Y0188075D01*
X0520375Y0191152D01*
X0520375Y0251698D01*
X0523225Y0248848D01*
X0524148Y0247925D01*
X0535239Y0247925D01*
X0535283Y0247818D01*
X0536118Y0246983D01*
X0537210Y0246531D01*
X0538052Y0246531D01*
X0540654Y0243048D01*
X0540654Y0242919D01*
X0541035Y0242538D01*
X0541175Y0242351D01*
X0540890Y0242468D01*
X0539710Y0242468D01*
X0538618Y0242017D01*
X0538280Y0241678D01*
X0538280Y0242942D01*
X0537588Y0243634D01*
X0531492Y0243634D01*
X0530892Y0243034D01*
X0530734Y0243309D01*
X0530475Y0243568D01*
X0530157Y0243751D01*
X0529802Y0243846D01*
X0527454Y0243846D01*
X0527454Y0239894D01*
X0526666Y0239894D01*
X0526666Y0243846D01*
X0524317Y0243846D01*
X0523963Y0243751D01*
X0523645Y0243568D01*
X0523386Y0243309D01*
X0523202Y0242991D01*
X0523107Y0242636D01*
X0523107Y0239894D01*
X0526666Y0239894D01*
X0526666Y0239106D01*
X0527454Y0239106D01*
X0527454Y0235154D01*
X0529802Y0235154D01*
X0530157Y0235249D01*
X0530475Y0235432D01*
X0530734Y0235691D01*
X0530892Y0235966D01*
X0531492Y0235366D01*
X0537588Y0235366D01*
X0538280Y0236058D01*
X0538280Y0237322D01*
X0538618Y0236983D01*
X0539710Y0236531D01*
X0540890Y0236531D01*
X0541982Y0236983D01*
X0542817Y0237818D01*
X0543268Y0238910D01*
X0543268Y0240090D01*
X0542817Y0241182D01*
X0542002Y0241996D01*
X0542116Y0241996D01*
X0542649Y0241919D01*
X0542752Y0241996D01*
X0543091Y0241996D01*
X0543091Y0241113D01*
X0543783Y0240421D01*
X0545257Y0240421D01*
X0545257Y0240117D01*
X0544831Y0239090D01*
X0544831Y0237910D01*
X0545283Y0236818D01*
X0546118Y0235983D01*
X0547210Y0235531D01*
X0548390Y0235531D01*
X0549482Y0235983D01*
X0550317Y0236818D01*
X0550768Y0237910D01*
X0550768Y0238804D01*
X0551408Y0238165D01*
X0556666Y0238165D01*
X0556666Y0236692D01*
X0557358Y0236000D01*
X0564242Y0236000D01*
X0564934Y0236692D01*
X0564934Y0242788D01*
X0564242Y0243480D01*
X0557358Y0243480D01*
X0556666Y0242788D01*
X0556666Y0241315D01*
X0554509Y0241315D01*
X0554509Y0241996D01*
X0555523Y0241996D01*
X0559103Y0245576D01*
X0559210Y0245531D01*
X0560390Y0245531D01*
X0561482Y0245983D01*
X0562317Y0246818D01*
X0562768Y0247910D01*
X0562768Y0249090D01*
X0562317Y0250182D01*
X0561482Y0251017D01*
X0560390Y0251468D01*
X0559210Y0251468D01*
X0558118Y0251017D01*
X0557283Y0250182D01*
X0556831Y0249090D01*
X0556831Y0247910D01*
X0556876Y0247803D01*
X0554509Y0245436D01*
X0554509Y0245788D01*
X0554982Y0245983D01*
X0555817Y0246818D01*
X0556268Y0247910D01*
X0556268Y0249090D01*
X0555817Y0250182D01*
X0554982Y0251017D01*
X0553890Y0251468D01*
X0552710Y0251468D01*
X0551618Y0251017D01*
X0551050Y0250448D01*
X0550482Y0251017D01*
X0549390Y0251468D01*
X0548210Y0251468D01*
X0547118Y0251017D01*
X0546550Y0250448D01*
X0545982Y0251017D01*
X0544890Y0251468D01*
X0543710Y0251468D01*
X0542618Y0251017D01*
X0541783Y0250182D01*
X0541331Y0249090D01*
X0541331Y0247910D01*
X0541783Y0246818D01*
X0542618Y0245983D01*
X0543091Y0245788D01*
X0543091Y0245146D01*
X0543018Y0245146D01*
X0540568Y0248426D01*
X0540768Y0248910D01*
X0540768Y0250090D01*
X0540317Y0251182D01*
X0539482Y0252017D01*
X0538390Y0252468D01*
X0537210Y0252468D01*
X0536118Y0252017D01*
X0535283Y0251182D01*
X0535239Y0251075D01*
X0525452Y0251075D01*
X0522375Y0254152D01*
X0522375Y0265652D01*
X0521452Y0266575D01*
X0515800Y0272227D01*
X0515800Y0275425D01*
X0517648Y0275425D01*
X0519148Y0273925D01*
X0536239Y0273925D01*
X0536283Y0273818D01*
X0537118Y0272983D01*
X0538210Y0272531D01*
X0539390Y0272531D01*
X0540482Y0272983D01*
X0541317Y0273818D01*
X0541550Y0274382D01*
X0541783Y0273818D01*
X0542618Y0272983D01*
X0543710Y0272531D01*
X0544890Y0272531D01*
X0545982Y0272983D01*
X0546550Y0273552D01*
X0547118Y0272983D01*
X0548210Y0272531D01*
X0549390Y0272531D01*
X0550482Y0272983D01*
X0551050Y0273552D01*
X0551618Y0272983D01*
X0552710Y0272531D01*
X0553890Y0272531D01*
X0554982Y0272983D01*
X0555550Y0273552D01*
X0556118Y0272983D01*
X0557210Y0272531D01*
X0558390Y0272531D01*
X0559482Y0272983D01*
X0560317Y0273818D01*
X0560768Y0274910D01*
X0560768Y0276090D01*
X0560317Y0277182D01*
X0559482Y0278017D01*
X0559375Y0278061D01*
X0559375Y0280652D01*
X0558452Y0281575D01*
X0557523Y0282504D01*
X0554509Y0282504D01*
X0554509Y0283387D01*
X0553947Y0283949D01*
X0554317Y0284318D01*
X0554768Y0285410D01*
X0554768Y0286590D01*
X0554423Y0287425D01*
X0554648Y0287425D01*
X0557725Y0284348D01*
X0558648Y0283425D01*
X0559666Y0283425D01*
X0559666Y0282212D01*
X0560358Y0281520D01*
X0567242Y0281520D01*
X0567934Y0282212D01*
X0567934Y0288308D01*
X0567242Y0289000D01*
X0567934Y0289692D01*
X0567934Y0291165D01*
X0569166Y0291165D01*
X0569166Y0289692D01*
X0569766Y0289092D01*
X0569491Y0288934D01*
X0569232Y0288675D01*
X0569049Y0288357D01*
X0568954Y0288002D01*
X0568954Y0285654D01*
X0572906Y0285654D01*
X0572906Y0284866D01*
X0568954Y0284866D01*
X0568954Y0282517D01*
X0569049Y0282163D01*
X0569232Y0281845D01*
X0569491Y0281586D01*
X0569809Y0281402D01*
X0570164Y0281307D01*
X0572906Y0281307D01*
X0572906Y0284866D01*
X0573694Y0284866D01*
X0573694Y0285654D01*
X0577646Y0285654D01*
X0577646Y0288002D01*
X0577551Y0288357D01*
X0577368Y0288675D01*
X0577109Y0288934D01*
X0576834Y0289092D01*
X0577434Y0289692D01*
X0577434Y0295788D01*
X0576742Y0296480D01*
X0569858Y0296480D01*
X0569166Y0295788D01*
X0569166Y0294315D01*
X0567934Y0294315D01*
X0567934Y0295788D01*
X0567242Y0296480D01*
X0562287Y0296480D01*
X0560122Y0298646D01*
X0554509Y0298646D01*
X0554509Y0298925D01*
X0590648Y0298925D01*
X0591725Y0297848D01*
X0591725Y0280848D01*
X0592376Y0280197D01*
X0592331Y0280090D01*
X0592331Y0278910D01*
X0592783Y0277818D01*
X0593618Y0276983D01*
X0594710Y0276531D01*
X0595890Y0276531D01*
X0596982Y0276983D01*
X0597817Y0277818D01*
X0598268Y0278910D01*
X0598268Y0280090D01*
X0597817Y0281182D01*
X0596982Y0282017D01*
X0595890Y0282468D01*
X0594875Y0282468D01*
X0594875Y0299152D01*
X0593952Y0300075D01*
X0593102Y0300925D01*
X0598099Y0300925D01*
X0596881Y0298816D01*
X0596119Y0295972D01*
X0596119Y0293028D01*
X0596881Y0290184D01*
X0598353Y0287635D01*
X0600435Y0285553D01*
X0602984Y0284081D01*
X0605828Y0283319D01*
X0608772Y0283319D01*
X0611616Y0284081D01*
X0614165Y0285553D01*
X0616247Y0287635D01*
X0617719Y0290184D01*
X0618481Y0293028D01*
X0618481Y0295972D01*
X0617719Y0298816D01*
X0616984Y0300089D01*
X0644225Y0272848D01*
X0644225Y0098652D01*
X0629648Y0084075D01*
X0614288Y0084075D01*
X0616481Y0086268D01*
X0616481Y0089732D01*
X0614032Y0092181D01*
X0610568Y0092181D01*
X0608119Y0089732D01*
X0608119Y0086268D01*
X0610312Y0084075D01*
X0606481Y0084075D01*
X0606481Y0084232D01*
X0604032Y0086681D01*
X0600568Y0086681D01*
X0598119Y0084232D01*
X0598119Y0080768D01*
X0600568Y0078319D01*
X0604032Y0078319D01*
X0606481Y0080768D01*
X0606481Y0080925D01*
X0610212Y0080925D01*
X0608119Y0078832D01*
X0608119Y0075368D01*
X0610568Y0072919D01*
X0614032Y0072919D01*
X0616481Y0075368D01*
X0616481Y0078832D01*
X0614388Y0080925D01*
X0630952Y0080925D01*
X0631875Y0081848D01*
X0647375Y0097348D01*
X0647375Y0274152D01*
X0646452Y0275075D01*
X0613452Y0308075D01*
X0601148Y0308075D01*
X0600225Y0307152D01*
X0597148Y0304075D01*
X0553952Y0304075D01*
X0552452Y0305575D01*
X0550952Y0307075D01*
X0546648Y0307075D01*
X0545725Y0306152D01*
X0544225Y0304652D01*
X0544225Y0300348D01*
X0544352Y0300220D01*
X0543783Y0300220D01*
X0543091Y0299529D01*
X0543091Y0299018D01*
X0542817Y0299682D01*
X0541982Y0300517D01*
X0540890Y0300968D01*
X0539710Y0300968D01*
X0538618Y0300517D01*
X0537783Y0299682D01*
X0537780Y0299674D01*
X0537780Y0300942D01*
X0537088Y0301634D01*
X0530992Y0301634D01*
X0530392Y0301034D01*
X0530234Y0301309D01*
X0529975Y0301568D01*
X0529657Y0301751D01*
X0529302Y0301846D01*
X0526954Y0301846D01*
X0526954Y0297894D01*
X0526166Y0297894D01*
X0526166Y0301846D01*
X0523817Y0301846D01*
X0523463Y0301751D01*
X0523145Y0301568D01*
X0522886Y0301309D01*
X0522702Y0300991D01*
X0522607Y0300636D01*
X0522607Y0297894D01*
X0526166Y0297894D01*
X0526166Y0297106D01*
X0526954Y0297106D01*
X0526954Y0293154D01*
X0529302Y0293154D01*
X0529657Y0293249D01*
X0529975Y0293432D01*
X0530234Y0293691D01*
X0530392Y0293966D01*
X0530992Y0293366D01*
X0537088Y0293366D01*
X0537780Y0294058D01*
X0537780Y0296326D01*
X0537783Y0296318D01*
X0538618Y0295483D01*
X0539710Y0295031D01*
X0540890Y0295031D01*
X0541982Y0295483D01*
X0542817Y0296318D01*
X0543091Y0296982D01*
X0543091Y0294613D01*
X0543288Y0294416D01*
X0543288Y0293686D01*
X0543283Y0293682D01*
X0542831Y0292590D01*
X0542831Y0291410D01*
X0543283Y0290318D01*
X0544118Y0289483D01*
X0545210Y0289031D01*
X0546390Y0289031D01*
X0547482Y0289483D01*
X0548317Y0290318D01*
X0548768Y0291410D01*
X0548768Y0292590D01*
X0548317Y0293682D01*
X0548077Y0293921D01*
X0553817Y0293921D01*
X0554509Y0294613D01*
X0554509Y0295496D01*
X0558817Y0295496D01*
X0559666Y0294647D01*
X0559666Y0289692D01*
X0560358Y0289000D01*
X0567242Y0289000D01*
X0560358Y0289000D01*
X0559666Y0288308D01*
X0559666Y0286861D01*
X0555952Y0290575D01*
X0549148Y0290575D01*
X0548225Y0289652D01*
X0545257Y0286684D01*
X0545257Y0284079D01*
X0543783Y0284079D01*
X0543091Y0283387D01*
X0543091Y0282575D01*
X0542148Y0282575D01*
X0541225Y0281652D01*
X0537923Y0278350D01*
X0537118Y0278017D01*
X0536283Y0277182D01*
X0536239Y0277075D01*
X0520452Y0277075D01*
X0518952Y0278575D01*
X0515800Y0278575D01*
X0515800Y0309307D01*
X0650800Y0309307D01*
X0650800Y0028394D01*
X0515800Y0028394D01*
X0515800Y0073773D01*
X0518225Y0071348D01*
X0519148Y0070425D01*
X0535739Y0070425D01*
X0535783Y0070318D01*
X0536618Y0069483D01*
X0537710Y0069031D01*
X0538552Y0069031D01*
X0541154Y0065548D01*
X0541154Y0065419D01*
X0541535Y0065038D01*
X0541675Y0064851D01*
X0541390Y0064968D01*
X0540210Y0064968D01*
X0539118Y0064517D01*
X0538780Y0064178D01*
X0538780Y0065442D01*
X0538088Y0066134D01*
X0531992Y0066134D01*
X0531392Y0065534D01*
X0531234Y0065809D01*
X0530975Y0066068D01*
X0530657Y0066251D01*
X0530302Y0066346D01*
X0527954Y0066346D01*
X0527954Y0062394D01*
X0527166Y0062394D01*
X0527166Y0066346D01*
X0524817Y0066346D01*
X0524463Y0066251D01*
X0524145Y0066068D01*
X0523886Y0065809D01*
X0523702Y0065491D01*
X0523607Y0065136D01*
X0523607Y0062394D01*
X0527166Y0062394D01*
X0527166Y0061606D01*
X0527166Y0057654D01*
X0524817Y0057654D01*
X0524463Y0057749D01*
X0524145Y0057932D01*
X0523886Y0058191D01*
X0523702Y0058509D01*
X0523607Y0058864D01*
X0523607Y0061606D01*
X0527166Y0061606D01*
X0527166Y0061314D02*
X0527954Y0061314D01*
X0527954Y0060528D02*
X0527166Y0060528D01*
X0527166Y0059742D02*
X0527954Y0059742D01*
X0527954Y0058956D02*
X0527166Y0058956D01*
X0527166Y0058170D02*
X0527954Y0058170D01*
X0527954Y0056846D02*
X0527954Y0052894D01*
X0527166Y0052894D01*
X0527166Y0056846D01*
X0524817Y0056846D01*
X0524463Y0056751D01*
X0524145Y0056568D01*
X0523886Y0056309D01*
X0523702Y0055991D01*
X0523607Y0055636D01*
X0523607Y0052894D01*
X0527166Y0052894D01*
X0527166Y0052106D01*
X0527954Y0052106D01*
X0527954Y0048154D01*
X0530302Y0048154D01*
X0530657Y0048249D01*
X0530975Y0048432D01*
X0531234Y0048691D01*
X0531392Y0048966D01*
X0531992Y0048366D01*
X0538088Y0048366D01*
X0538780Y0049058D01*
X0538780Y0049416D01*
X0539710Y0049031D01*
X0540890Y0049031D01*
X0541982Y0049483D01*
X0542817Y0050318D01*
X0543268Y0051410D01*
X0543268Y0052590D01*
X0542817Y0053682D01*
X0541982Y0054517D01*
X0540890Y0054968D01*
X0539710Y0054968D01*
X0538780Y0054584D01*
X0538780Y0055942D01*
X0538088Y0056634D01*
X0531992Y0056634D01*
X0531392Y0056034D01*
X0531234Y0056309D01*
X0530975Y0056568D01*
X0530657Y0056751D01*
X0530302Y0056846D01*
X0527954Y0056846D01*
X0527954Y0056598D02*
X0527166Y0056598D01*
X0527166Y0055812D02*
X0527954Y0055812D01*
X0527954Y0055026D02*
X0527166Y0055026D01*
X0527166Y0054241D02*
X0527954Y0054241D01*
X0527954Y0053455D02*
X0527166Y0053455D01*
X0527166Y0052669D02*
X0515800Y0052669D01*
X0515800Y0053455D02*
X0523607Y0053455D01*
X0523607Y0054241D02*
X0515800Y0054241D01*
X0515800Y0055026D02*
X0523607Y0055026D01*
X0523654Y0055812D02*
X0515800Y0055812D01*
X0515800Y0056598D02*
X0524197Y0056598D01*
X0523907Y0058170D02*
X0515800Y0058170D01*
X0515800Y0057384D02*
X0544986Y0057384D01*
X0544249Y0056598D02*
X0538124Y0056598D01*
X0538780Y0055812D02*
X0543923Y0055812D01*
X0543831Y0055026D02*
X0538780Y0055026D01*
X0538392Y0058170D02*
X0547375Y0058170D01*
X0546146Y0058956D02*
X0538780Y0058956D01*
X0538780Y0059742D02*
X0538860Y0059742D01*
X0540800Y0062000D02*
X0535040Y0062000D01*
X0538780Y0064457D02*
X0539059Y0064457D01*
X0538780Y0065243D02*
X0541330Y0065243D01*
X0540795Y0066029D02*
X0538193Y0066029D01*
X0539620Y0067601D02*
X0515800Y0067601D01*
X0515800Y0066815D02*
X0540207Y0066815D01*
X0539033Y0068387D02*
X0515800Y0068387D01*
X0515800Y0069173D02*
X0537368Y0069173D01*
X0536143Y0069959D02*
X0515800Y0069959D01*
X0515800Y0070745D02*
X0518828Y0070745D01*
X0518042Y0071531D02*
X0515800Y0071531D01*
X0515800Y0072316D02*
X0517256Y0072316D01*
X0516470Y0073102D02*
X0515800Y0073102D01*
X0518567Y0075460D02*
X0600147Y0075460D01*
X0600568Y0075881D02*
X0598119Y0073432D01*
X0598119Y0069968D01*
X0600568Y0067519D01*
X0604032Y0067519D01*
X0606481Y0069968D01*
X0606481Y0073432D01*
X0604032Y0075881D01*
X0600568Y0075881D01*
X0599361Y0074674D02*
X0539601Y0074674D01*
X0540610Y0073888D02*
X0544016Y0073888D01*
X0542704Y0073102D02*
X0541056Y0073102D01*
X0541268Y0072316D02*
X0542132Y0072316D01*
X0541831Y0071531D02*
X0541268Y0071531D01*
X0541203Y0070745D02*
X0541831Y0070745D01*
X0541791Y0069959D02*
X0542018Y0069959D01*
X0542378Y0069173D02*
X0542429Y0069173D01*
X0542965Y0068387D02*
X0543351Y0068387D01*
X0542729Y0066071D02*
X0538300Y0072000D01*
X0521300Y0072000D01*
X0519800Y0072000D01*
X0512800Y0079000D01*
X0512800Y0216500D01*
X0507800Y0221500D01*
X0503800Y0221500D01*
X0263800Y0221500D01*
X0251800Y0209500D01*
X0165800Y0223500D02*
X0151800Y0209500D01*
X0165800Y0223500D02*
X0508300Y0223500D01*
X0514800Y0217000D01*
X0514800Y0105000D01*
X0514800Y0104000D01*
X0520800Y0098000D01*
X0539300Y0098000D01*
X0539300Y0099500D01*
X0543300Y0103500D01*
X0545292Y0103500D01*
X0545363Y0103429D01*
X0545300Y0103429D01*
X0545300Y0102560D01*
X0547331Y0103429D02*
X0547331Y0101531D01*
X0547331Y0100531D01*
X0544800Y0098000D01*
X0545560Y0097240D01*
X0546892Y0095894D02*
X0547208Y0095894D01*
X0548525Y0095108D02*
X0545575Y0095108D01*
X0544025Y0095108D02*
X0540075Y0095108D01*
X0541392Y0095894D02*
X0542708Y0095894D01*
X0542134Y0096680D02*
X0541966Y0096680D01*
X0538525Y0095108D02*
X0515800Y0095108D01*
X0515800Y0095894D02*
X0537208Y0095894D01*
X0536925Y0099823D02*
X0521204Y0099823D01*
X0520418Y0100609D02*
X0537843Y0100609D01*
X0538968Y0101395D02*
X0519632Y0101395D01*
X0518846Y0102181D02*
X0539754Y0102181D01*
X0540540Y0102967D02*
X0518060Y0102967D01*
X0517274Y0103753D02*
X0541326Y0103753D01*
X0542112Y0104539D02*
X0516488Y0104539D01*
X0516375Y0105325D02*
X0523831Y0105325D01*
X0523963Y0105249D02*
X0524317Y0105154D01*
X0526666Y0105154D01*
X0526666Y0109106D01*
X0527454Y0109106D01*
X0527454Y0105154D01*
X0529802Y0105154D01*
X0530157Y0105249D01*
X0530475Y0105432D01*
X0530734Y0105691D01*
X0530892Y0105966D01*
X0531492Y0105366D01*
X0537588Y0105366D01*
X0538280Y0106058D01*
X0538280Y0107322D01*
X0538618Y0106983D01*
X0539710Y0106531D01*
X0540890Y0106531D01*
X0541982Y0106983D01*
X0542817Y0107818D01*
X0543268Y0108910D01*
X0543268Y0110090D01*
X0542817Y0111182D01*
X0541982Y0112017D01*
X0540890Y0112468D01*
X0539710Y0112468D01*
X0538618Y0112017D01*
X0538280Y0111678D01*
X0538280Y0112942D01*
X0537588Y0113634D01*
X0531492Y0113634D01*
X0530892Y0113034D01*
X0530734Y0113309D01*
X0530475Y0113568D01*
X0530157Y0113751D01*
X0529802Y0113846D01*
X0527454Y0113846D01*
X0527454Y0109894D01*
X0526666Y0109894D01*
X0526666Y0113846D01*
X0524317Y0113846D01*
X0523963Y0113751D01*
X0523645Y0113568D01*
X0523386Y0113309D01*
X0523202Y0112991D01*
X0523107Y0112636D01*
X0523107Y0109894D01*
X0526666Y0109894D01*
X0526666Y0109106D01*
X0523107Y0109106D01*
X0523107Y0106364D01*
X0523202Y0106009D01*
X0523386Y0105691D01*
X0523645Y0105432D01*
X0523963Y0105249D01*
X0523175Y0106111D02*
X0516375Y0106111D01*
X0516375Y0106897D02*
X0523107Y0106897D01*
X0523107Y0107683D02*
X0516375Y0107683D01*
X0516375Y0108468D02*
X0523107Y0108468D01*
X0523107Y0110040D02*
X0516375Y0110040D01*
X0516375Y0109254D02*
X0526666Y0109254D01*
X0527060Y0109500D02*
X0527060Y0120000D01*
X0527060Y0127240D01*
X0521300Y0133000D01*
X0527560Y0139260D01*
X0527560Y0141000D01*
X0527560Y0150500D01*
X0527166Y0150122D02*
X0516375Y0150122D01*
X0516375Y0150908D02*
X0523607Y0150908D01*
X0523607Y0151694D02*
X0516375Y0151694D01*
X0516375Y0152480D02*
X0523607Y0152480D01*
X0523607Y0153266D02*
X0516375Y0153266D01*
X0516375Y0154051D02*
X0523737Y0154051D01*
X0524783Y0154837D02*
X0516375Y0154837D01*
X0516375Y0155623D02*
X0539977Y0155623D01*
X0540564Y0154837D02*
X0530336Y0154837D01*
X0531383Y0154051D02*
X0531409Y0154051D01*
X0527954Y0154051D02*
X0527166Y0154051D01*
X0527166Y0153266D02*
X0527954Y0153266D01*
X0527954Y0152480D02*
X0527166Y0152480D01*
X0527166Y0151694D02*
X0527954Y0151694D01*
X0527954Y0150908D02*
X0527166Y0150908D01*
X0527166Y0150106D02*
X0523607Y0150106D01*
X0523607Y0147364D01*
X0523702Y0147009D01*
X0523886Y0146691D01*
X0524145Y0146432D01*
X0524463Y0146249D01*
X0524817Y0146154D01*
X0527166Y0146154D01*
X0527166Y0150106D01*
X0527166Y0149336D02*
X0527954Y0149336D01*
X0527954Y0148550D02*
X0527166Y0148550D01*
X0527166Y0147764D02*
X0527954Y0147764D01*
X0527954Y0146978D02*
X0527166Y0146978D01*
X0527166Y0146192D02*
X0527954Y0146192D01*
X0527954Y0145346D02*
X0527954Y0141394D01*
X0527166Y0141394D01*
X0527166Y0145346D01*
X0524817Y0145346D01*
X0524463Y0145251D01*
X0524145Y0145068D01*
X0523886Y0144809D01*
X0523702Y0144491D01*
X0523607Y0144136D01*
X0523607Y0141394D01*
X0527166Y0141394D01*
X0527166Y0140606D01*
X0527954Y0140606D01*
X0527954Y0136654D01*
X0530302Y0136654D01*
X0530657Y0136749D01*
X0530975Y0136932D01*
X0531234Y0137191D01*
X0531392Y0137466D01*
X0531992Y0136866D01*
X0538088Y0136866D01*
X0538780Y0137558D01*
X0538780Y0137916D01*
X0539710Y0137531D01*
X0540890Y0137531D01*
X0541982Y0137983D01*
X0542817Y0138818D01*
X0543268Y0139910D01*
X0543268Y0141090D01*
X0542817Y0142182D01*
X0541982Y0143017D01*
X0540890Y0143468D01*
X0539710Y0143468D01*
X0538780Y0143084D01*
X0538780Y0144442D01*
X0538088Y0145134D01*
X0531992Y0145134D01*
X0531392Y0144534D01*
X0531234Y0144809D01*
X0530975Y0145068D01*
X0530657Y0145251D01*
X0530302Y0145346D01*
X0527954Y0145346D01*
X0527954Y0144620D02*
X0527166Y0144620D01*
X0527166Y0143835D02*
X0527954Y0143835D01*
X0527954Y0143049D02*
X0527166Y0143049D01*
X0527166Y0142263D02*
X0527954Y0142263D01*
X0527954Y0141477D02*
X0527166Y0141477D01*
X0527166Y0140691D02*
X0516375Y0140691D01*
X0516375Y0141477D02*
X0523607Y0141477D01*
X0523607Y0142263D02*
X0516375Y0142263D01*
X0516375Y0143049D02*
X0523607Y0143049D01*
X0523607Y0143835D02*
X0516375Y0143835D01*
X0516375Y0144620D02*
X0523777Y0144620D01*
X0524673Y0146192D02*
X0516375Y0146192D01*
X0516375Y0145406D02*
X0544508Y0145406D01*
X0544051Y0144620D02*
X0538602Y0144620D01*
X0538780Y0143835D02*
X0543831Y0143835D01*
X0543831Y0143049D02*
X0541904Y0143049D01*
X0542735Y0142263D02*
X0543788Y0142263D01*
X0543788Y0141477D02*
X0543108Y0141477D01*
X0543268Y0140691D02*
X0543591Y0140691D01*
X0543591Y0139905D02*
X0543267Y0139905D01*
X0542941Y0139119D02*
X0543591Y0139119D01*
X0543591Y0138333D02*
X0542331Y0138333D01*
X0543591Y0137547D02*
X0540929Y0137547D01*
X0539671Y0137547D02*
X0538770Y0137547D01*
X0540300Y0140500D02*
X0535540Y0140500D01*
X0535040Y0141000D01*
X0531479Y0144620D02*
X0531343Y0144620D01*
X0530447Y0146192D02*
X0545543Y0146192D01*
X0546631Y0146978D02*
X0538701Y0146978D01*
X0538780Y0147764D02*
X0539648Y0147764D01*
X0541952Y0147764D02*
X0545838Y0147764D01*
X0545480Y0148550D02*
X0543048Y0148550D01*
X0543531Y0149336D02*
X0545331Y0149336D01*
X0545345Y0150122D02*
X0543768Y0150122D01*
X0543768Y0150908D02*
X0545670Y0150908D01*
X0547331Y0150469D02*
X0548300Y0149500D01*
X0547331Y0150469D02*
X0547331Y0154571D01*
X0547331Y0156969D01*
X0544800Y0159500D01*
X0541831Y0159553D02*
X0541121Y0159553D01*
X0541268Y0160339D02*
X0541934Y0160339D01*
X0542260Y0161125D02*
X0541254Y0161125D01*
X0540929Y0161911D02*
X0543012Y0161911D01*
X0540302Y0162696D02*
X0581225Y0162696D01*
X0581225Y0161911D02*
X0560088Y0161911D01*
X0560840Y0161125D02*
X0581225Y0161125D01*
X0581225Y0160339D02*
X0561166Y0160339D01*
X0561268Y0159553D02*
X0581225Y0159553D01*
X0581225Y0158767D02*
X0561209Y0158767D01*
X0560884Y0157981D02*
X0581225Y0157981D01*
X0581225Y0157195D02*
X0560193Y0157195D01*
X0559875Y0156409D02*
X0581225Y0156409D01*
X0581225Y0155623D02*
X0559150Y0155623D01*
X0558952Y0155425D02*
X0558952Y0155425D01*
X0558364Y0154837D02*
X0581225Y0154837D01*
X0581225Y0154051D02*
X0575428Y0154051D01*
X0575646Y0153266D02*
X0581225Y0153266D01*
X0581225Y0152480D02*
X0575646Y0152480D01*
X0575646Y0151694D02*
X0581081Y0151694D01*
X0580831Y0150908D02*
X0571694Y0150908D01*
X0571300Y0150740D02*
X0571300Y0156000D01*
X0569300Y0158000D01*
X0565800Y0158000D01*
X0558300Y0165500D01*
X0558300Y0171500D01*
X0558300Y0178000D01*
X0562300Y0182000D01*
X0562300Y0188500D01*
X0564300Y0190500D01*
X0572800Y0190500D01*
X0573800Y0191500D01*
X0573800Y0196260D01*
X0574194Y0196491D02*
X0581225Y0196491D01*
X0581225Y0197277D02*
X0578146Y0197277D01*
X0578146Y0198063D02*
X0581225Y0198063D01*
X0581225Y0198848D02*
X0578146Y0198848D01*
X0577891Y0199634D02*
X0581225Y0199634D01*
X0581225Y0200420D02*
X0577662Y0200420D01*
X0577934Y0201206D02*
X0581225Y0201206D01*
X0581225Y0201992D02*
X0577934Y0201992D01*
X0577934Y0202778D02*
X0581225Y0202778D01*
X0581225Y0203564D02*
X0577934Y0203564D01*
X0577934Y0204350D02*
X0581225Y0204350D01*
X0581225Y0205136D02*
X0577934Y0205136D01*
X0577934Y0205922D02*
X0581225Y0205922D01*
X0581225Y0206708D02*
X0577934Y0206708D01*
X0580008Y0209065D02*
X0561202Y0209065D01*
X0561988Y0208279D02*
X0580793Y0208279D01*
X0581225Y0207494D02*
X0562774Y0207494D01*
X0559969Y0208071D02*
X0564300Y0203740D01*
X0573800Y0203740D01*
X0569666Y0201992D02*
X0568434Y0201992D01*
X0568434Y0201206D02*
X0569666Y0201206D01*
X0569938Y0200420D02*
X0568162Y0200420D01*
X0568108Y0199634D02*
X0569709Y0199634D01*
X0569454Y0198848D02*
X0568434Y0198848D01*
X0568434Y0198063D02*
X0569454Y0198063D01*
X0569454Y0197277D02*
X0568434Y0197277D01*
X0568434Y0196491D02*
X0573406Y0196491D01*
X0573406Y0195705D02*
X0574194Y0195705D01*
X0574194Y0195866D02*
X0574194Y0192307D01*
X0576936Y0192307D01*
X0577291Y0192402D01*
X0577609Y0192586D01*
X0577868Y0192845D01*
X0578051Y0193163D01*
X0578146Y0193517D01*
X0578146Y0195866D01*
X0574194Y0195866D01*
X0574194Y0194919D02*
X0573406Y0194919D01*
X0573406Y0194133D02*
X0574194Y0194133D01*
X0574194Y0193347D02*
X0573406Y0193347D01*
X0573406Y0192561D02*
X0574194Y0192561D01*
X0577566Y0192561D02*
X0581225Y0192561D01*
X0581225Y0191775D02*
X0559752Y0191775D01*
X0559875Y0190989D02*
X0581225Y0190989D01*
X0581225Y0190203D02*
X0559875Y0190203D01*
X0559875Y0189418D02*
X0581225Y0189418D01*
X0581225Y0188632D02*
X0560366Y0188632D01*
X0560956Y0187846D02*
X0581225Y0187846D01*
X0581225Y0187060D02*
X0561268Y0187060D01*
X0561268Y0186274D02*
X0581225Y0186274D01*
X0581225Y0185488D02*
X0561094Y0185488D01*
X0560700Y0184702D02*
X0581225Y0184702D01*
X0581225Y0183916D02*
X0559819Y0183916D01*
X0558300Y0186500D02*
X0558300Y0191000D01*
X0557371Y0191929D01*
X0553237Y0191929D01*
X0551300Y0191898D02*
X0551300Y0189000D01*
X0553800Y0186500D01*
X0555319Y0183916D02*
X0556781Y0183916D01*
X0552281Y0183916D02*
X0550819Y0183916D01*
X0549300Y0186500D02*
X0549300Y0191929D01*
X0551269Y0191929D02*
X0551269Y0195969D01*
X0552300Y0197000D01*
X0555073Y0198063D02*
X0555510Y0198063D01*
X0555268Y0197277D02*
X0556296Y0197277D01*
X0557082Y0196491D02*
X0555268Y0196491D01*
X0554977Y0195705D02*
X0557868Y0195705D01*
X0558654Y0194919D02*
X0554477Y0194919D01*
X0555009Y0194133D02*
X0560166Y0194133D01*
X0560166Y0193347D02*
X0558180Y0193347D01*
X0558966Y0192561D02*
X0560817Y0192561D01*
X0559800Y0196000D02*
X0564040Y0196000D01*
X0564300Y0196260D01*
X0564040Y0196000D01*
X0559800Y0196000D02*
X0555800Y0200000D01*
X0550300Y0200000D01*
X0547331Y0197031D01*
X0547331Y0194531D01*
X0547331Y0191929D01*
X0547331Y0190031D01*
X0547331Y0189031D01*
X0544800Y0186500D01*
X0545560Y0185740D01*
X0546319Y0183916D02*
X0547781Y0183916D01*
X0543281Y0183916D02*
X0540819Y0183916D01*
X0541700Y0184702D02*
X0542400Y0184702D01*
X0539300Y0186500D02*
X0539300Y0188000D01*
X0543300Y0192000D01*
X0545292Y0192000D01*
X0545363Y0191929D01*
X0545300Y0191929D01*
X0545300Y0191060D01*
X0543591Y0194133D02*
X0537855Y0194133D01*
X0537588Y0193866D02*
X0538280Y0194558D01*
X0538280Y0195822D01*
X0538618Y0195483D01*
X0539710Y0195031D01*
X0540890Y0195031D01*
X0541982Y0195483D01*
X0542817Y0196318D01*
X0543268Y0197410D01*
X0543268Y0198590D01*
X0542817Y0199682D01*
X0541982Y0200517D01*
X0540890Y0200968D01*
X0539710Y0200968D01*
X0538618Y0200517D01*
X0538280Y0200178D01*
X0538280Y0201442D01*
X0537588Y0202134D01*
X0531492Y0202134D01*
X0530892Y0201534D01*
X0530734Y0201809D01*
X0530475Y0202068D01*
X0530157Y0202251D01*
X0529802Y0202346D01*
X0527454Y0202346D01*
X0527454Y0198394D01*
X0526666Y0198394D01*
X0526666Y0202346D01*
X0524317Y0202346D01*
X0523963Y0202251D01*
X0523645Y0202068D01*
X0523386Y0201809D01*
X0523202Y0201491D01*
X0523107Y0201136D01*
X0523107Y0198394D01*
X0526666Y0198394D01*
X0526666Y0197606D01*
X0527454Y0197606D01*
X0527454Y0193654D01*
X0529802Y0193654D01*
X0530157Y0193749D01*
X0530475Y0193932D01*
X0530734Y0194191D01*
X0530892Y0194466D01*
X0531492Y0193866D01*
X0537588Y0193866D01*
X0538280Y0194919D02*
X0544123Y0194919D01*
X0545757Y0195705D02*
X0542203Y0195705D01*
X0542888Y0196491D02*
X0545757Y0196491D01*
X0545757Y0197277D02*
X0543213Y0197277D01*
X0543268Y0198063D02*
X0546135Y0198063D01*
X0546921Y0198848D02*
X0543162Y0198848D01*
X0542836Y0199634D02*
X0547707Y0199634D01*
X0547829Y0200420D02*
X0548493Y0200420D01*
X0548704Y0201206D02*
X0549279Y0201206D01*
X0549096Y0201992D02*
X0560166Y0201992D01*
X0560166Y0201206D02*
X0556821Y0201206D01*
X0557607Y0200420D02*
X0560438Y0200420D01*
X0560492Y0199634D02*
X0558393Y0199634D01*
X0559179Y0198848D02*
X0560166Y0198848D01*
X0560166Y0198063D02*
X0559965Y0198063D01*
X0560166Y0202778D02*
X0549268Y0202778D01*
X0549268Y0203564D02*
X0560166Y0203564D01*
X0560166Y0204350D02*
X0548954Y0204350D01*
X0546300Y0203000D02*
X0545363Y0203937D01*
X0545363Y0208071D01*
X0543591Y0207494D02*
X0543389Y0207494D01*
X0543591Y0206708D02*
X0542706Y0206708D01*
X0543591Y0205922D02*
X0538280Y0205922D01*
X0538280Y0206708D02*
X0538894Y0206708D01*
X0538280Y0205136D02*
X0543788Y0205136D01*
X0543646Y0204350D02*
X0530332Y0204350D01*
X0530551Y0201992D02*
X0531350Y0201992D01*
X0527454Y0201992D02*
X0526666Y0201992D01*
X0526666Y0201206D02*
X0527454Y0201206D01*
X0527454Y0200420D02*
X0526666Y0200420D01*
X0526666Y0199634D02*
X0527454Y0199634D01*
X0527454Y0198848D02*
X0526666Y0198848D01*
X0526666Y0198063D02*
X0520375Y0198063D01*
X0520375Y0198848D02*
X0523107Y0198848D01*
X0523107Y0199634D02*
X0520375Y0199634D01*
X0520375Y0200420D02*
X0523107Y0200420D01*
X0523126Y0201206D02*
X0520375Y0201206D01*
X0520375Y0201992D02*
X0523569Y0201992D01*
X0524317Y0204154D02*
X0526666Y0204154D01*
X0526666Y0208106D01*
X0523107Y0208106D01*
X0523107Y0205364D01*
X0523202Y0205009D01*
X0523386Y0204691D01*
X0523645Y0204432D01*
X0523963Y0204249D01*
X0524317Y0204154D01*
X0523787Y0204350D02*
X0520375Y0204350D01*
X0520375Y0205136D02*
X0523168Y0205136D01*
X0523107Y0205922D02*
X0520375Y0205922D01*
X0520375Y0206708D02*
X0523107Y0206708D01*
X0523107Y0207494D02*
X0520375Y0207494D01*
X0520375Y0208279D02*
X0526666Y0208279D01*
X0527060Y0208500D02*
X0527300Y0208740D01*
X0527300Y0220500D01*
X0527300Y0229760D01*
X0527060Y0230000D01*
X0527060Y0239500D01*
X0526666Y0239716D02*
X0520375Y0239716D01*
X0520375Y0240502D02*
X0523107Y0240502D01*
X0523107Y0241288D02*
X0520375Y0241288D01*
X0520375Y0242074D02*
X0523107Y0242074D01*
X0523167Y0242860D02*
X0520375Y0242860D01*
X0520375Y0243646D02*
X0523779Y0243646D01*
X0526666Y0243646D02*
X0527454Y0243646D01*
X0527454Y0242860D02*
X0526666Y0242860D01*
X0526666Y0242074D02*
X0527454Y0242074D01*
X0527454Y0241288D02*
X0526666Y0241288D01*
X0526666Y0240502D02*
X0527454Y0240502D01*
X0527454Y0238930D02*
X0526666Y0238930D01*
X0526666Y0239106D02*
X0526666Y0235154D01*
X0524317Y0235154D01*
X0523963Y0235249D01*
X0523645Y0235432D01*
X0523386Y0235691D01*
X0523202Y0236009D01*
X0523107Y0236364D01*
X0523107Y0239106D01*
X0526666Y0239106D01*
X0526666Y0238144D02*
X0527454Y0238144D01*
X0527454Y0237358D02*
X0526666Y0237358D01*
X0526666Y0236572D02*
X0527454Y0236572D01*
X0527454Y0235786D02*
X0526666Y0235786D01*
X0526666Y0234346D02*
X0524317Y0234346D01*
X0523963Y0234251D01*
X0523645Y0234068D01*
X0523386Y0233809D01*
X0523202Y0233491D01*
X0523107Y0233136D01*
X0523107Y0230394D01*
X0526666Y0230394D01*
X0526666Y0234346D01*
X0526666Y0234215D02*
X0527454Y0234215D01*
X0527454Y0234346D02*
X0527454Y0230394D01*
X0526666Y0230394D01*
X0526666Y0229606D01*
X0527454Y0229606D01*
X0527454Y0225654D01*
X0529802Y0225654D01*
X0530157Y0225749D01*
X0530475Y0225932D01*
X0530734Y0226191D01*
X0530892Y0226466D01*
X0531492Y0225866D01*
X0537588Y0225866D01*
X0538280Y0226558D01*
X0538280Y0226916D01*
X0539210Y0226531D01*
X0540390Y0226531D01*
X0541482Y0226983D01*
X0542317Y0227818D01*
X0542768Y0228910D01*
X0542768Y0230090D01*
X0542317Y0231182D01*
X0541482Y0232017D01*
X0540390Y0232468D01*
X0539210Y0232468D01*
X0538280Y0232084D01*
X0538280Y0233442D01*
X0537588Y0234134D01*
X0531492Y0234134D01*
X0530892Y0233534D01*
X0530734Y0233809D01*
X0530475Y0234068D01*
X0530157Y0234251D01*
X0529802Y0234346D01*
X0527454Y0234346D01*
X0527454Y0233429D02*
X0526666Y0233429D01*
X0526666Y0232643D02*
X0527454Y0232643D01*
X0527454Y0231857D02*
X0526666Y0231857D01*
X0526666Y0231071D02*
X0527454Y0231071D01*
X0526666Y0230285D02*
X0520375Y0230285D01*
X0520375Y0231071D02*
X0523107Y0231071D01*
X0523107Y0231857D02*
X0520375Y0231857D01*
X0520375Y0232643D02*
X0523107Y0232643D01*
X0523185Y0233429D02*
X0520375Y0233429D01*
X0520375Y0234215D02*
X0523899Y0234215D01*
X0523331Y0235786D02*
X0520375Y0235786D01*
X0520375Y0235000D02*
X0544602Y0235000D01*
X0543816Y0234215D02*
X0530221Y0234215D01*
X0530789Y0235786D02*
X0531072Y0235786D01*
X0534540Y0239500D02*
X0540300Y0239500D01*
X0542356Y0237358D02*
X0545060Y0237358D01*
X0544831Y0238144D02*
X0542951Y0238144D01*
X0543268Y0238930D02*
X0544831Y0238930D01*
X0545091Y0239716D02*
X0543268Y0239716D01*
X0543098Y0240502D02*
X0543703Y0240502D01*
X0543091Y0241288D02*
X0542710Y0241288D01*
X0542229Y0243571D02*
X0537800Y0249500D01*
X0524800Y0249500D01*
X0520800Y0253500D01*
X0520800Y0265000D01*
X0511300Y0274500D01*
X0510800Y0275000D01*
X0500800Y0275000D01*
X0267300Y0275000D01*
X0251800Y0259500D01*
X0265300Y0273000D01*
X0351800Y0259500D02*
X0354300Y0262000D01*
X0365300Y0273000D01*
X0504800Y0273000D01*
X0509800Y0273000D01*
X0510800Y0272000D01*
X0518800Y0264000D01*
X0518800Y0195500D01*
X0518800Y0190500D01*
X0522800Y0186500D01*
X0539300Y0186500D01*
X0537234Y0188632D02*
X0522895Y0188632D01*
X0522110Y0189418D02*
X0538490Y0189418D01*
X0539276Y0190203D02*
X0521324Y0190203D01*
X0520538Y0190989D02*
X0540062Y0190989D01*
X0540848Y0191775D02*
X0520375Y0191775D01*
X0520375Y0192561D02*
X0541634Y0192561D01*
X0542420Y0193347D02*
X0520375Y0193347D01*
X0520375Y0194133D02*
X0523444Y0194133D01*
X0523386Y0194191D02*
X0523645Y0193932D01*
X0523963Y0193749D01*
X0524317Y0193654D01*
X0526666Y0193654D01*
X0526666Y0197606D01*
X0523107Y0197606D01*
X0523107Y0194864D01*
X0523202Y0194509D01*
X0523386Y0194191D01*
X0523107Y0194919D02*
X0520375Y0194919D01*
X0520375Y0195705D02*
X0523107Y0195705D01*
X0523107Y0196491D02*
X0520375Y0196491D01*
X0520375Y0197277D02*
X0523107Y0197277D01*
X0526666Y0197277D02*
X0527454Y0197277D01*
X0527454Y0196491D02*
X0526666Y0196491D01*
X0526666Y0195705D02*
X0527454Y0195705D01*
X0527454Y0194919D02*
X0526666Y0194919D01*
X0526666Y0194133D02*
X0527454Y0194133D01*
X0530676Y0194133D02*
X0531225Y0194133D01*
X0534540Y0198000D02*
X0540300Y0198000D01*
X0538397Y0195705D02*
X0538280Y0195705D01*
X0538280Y0200420D02*
X0538522Y0200420D01*
X0538280Y0201206D02*
X0543896Y0201206D01*
X0543504Y0201992D02*
X0537730Y0201992D01*
X0542078Y0200420D02*
X0544771Y0200420D01*
X0543331Y0202778D02*
X0520375Y0202778D01*
X0520375Y0203564D02*
X0543331Y0203564D01*
X0547300Y0208039D02*
X0547331Y0208071D01*
X0547331Y0210469D01*
X0547331Y0210969D01*
X0546300Y0212000D01*
X0546300Y0215000D01*
X0547800Y0216500D01*
X0550800Y0216500D01*
X0552300Y0215000D01*
X0553800Y0213500D01*
X0580300Y0213500D01*
X0585300Y0208500D01*
X0585300Y0155500D01*
X0587300Y0153500D01*
X0583800Y0150500D02*
X0582800Y0151500D01*
X0582800Y0208500D01*
X0579800Y0211500D01*
X0552300Y0211500D01*
X0551269Y0210469D01*
X0551269Y0208071D01*
X0553237Y0208071D02*
X0559969Y0208071D01*
X0559891Y0205922D02*
X0555009Y0205922D01*
X0554531Y0205136D02*
X0560166Y0205136D01*
X0568434Y0205922D02*
X0569666Y0205922D01*
X0569666Y0206708D02*
X0568434Y0206708D01*
X0579222Y0209851D02*
X0555009Y0209851D01*
X0549300Y0208071D02*
X0549300Y0213500D01*
X0544725Y0213781D02*
X0520375Y0213781D01*
X0520375Y0214567D02*
X0544725Y0214567D01*
X0544725Y0215353D02*
X0520375Y0215353D01*
X0520375Y0216139D02*
X0545211Y0216139D01*
X0545997Y0216924D02*
X0520375Y0216924D01*
X0520375Y0217710D02*
X0546783Y0217710D01*
X0546300Y0219500D02*
X0552800Y0219500D01*
X0553800Y0220500D01*
X0583800Y0220500D01*
X0584800Y0219500D01*
X0584300Y0223000D02*
X0582800Y0223000D01*
X0590300Y0223000D01*
X0594300Y0219000D01*
X0604800Y0219000D01*
X0607300Y0216500D01*
X0607300Y0109000D01*
X0602600Y0104300D01*
X0602300Y0104300D01*
X0599292Y0101395D02*
X0559875Y0101395D01*
X0559875Y0100609D02*
X0600078Y0100609D01*
X0598506Y0102181D02*
X0559875Y0102181D01*
X0559875Y0102967D02*
X0598119Y0102967D01*
X0598119Y0103753D02*
X0559274Y0103753D01*
X0558488Y0104539D02*
X0560339Y0104539D01*
X0560166Y0105325D02*
X0555009Y0105325D01*
X0554785Y0106111D02*
X0558962Y0106111D01*
X0558176Y0106897D02*
X0554849Y0106897D01*
X0555174Y0107683D02*
X0557390Y0107683D01*
X0556604Y0108468D02*
X0555268Y0108468D01*
X0555201Y0109254D02*
X0555818Y0109254D01*
X0555800Y0111500D02*
X0559800Y0107500D01*
X0564040Y0107500D01*
X0564300Y0107760D01*
X0564040Y0107500D01*
X0568434Y0107683D02*
X0573406Y0107683D01*
X0573800Y0107760D02*
X0572300Y0106260D01*
X0572300Y0102500D01*
X0571800Y0102000D01*
X0563300Y0102000D01*
X0561800Y0100500D01*
X0561800Y0094500D01*
X0559800Y0092500D01*
X0559800Y0083500D01*
X0559800Y0077000D01*
X0563300Y0073500D01*
X0563300Y0070000D01*
X0571060Y0062240D01*
X0571300Y0062240D01*
X0571694Y0062100D02*
X0650800Y0062100D01*
X0650800Y0062886D02*
X0575646Y0062886D01*
X0575646Y0063671D02*
X0650800Y0063671D01*
X0650800Y0064457D02*
X0575646Y0064457D01*
X0575577Y0065243D02*
X0650800Y0065243D01*
X0650800Y0066029D02*
X0574910Y0066029D01*
X0571694Y0066029D02*
X0570906Y0066029D01*
X0570906Y0066193D02*
X0568164Y0066193D01*
X0567809Y0066098D01*
X0567491Y0065914D01*
X0567232Y0065655D01*
X0567049Y0065337D01*
X0566954Y0064983D01*
X0566954Y0062634D01*
X0570906Y0062634D01*
X0570906Y0066193D01*
X0570906Y0065243D02*
X0571694Y0065243D01*
X0571694Y0064457D02*
X0570906Y0064457D01*
X0570906Y0063671D02*
X0571694Y0063671D01*
X0571694Y0062886D02*
X0570906Y0062886D01*
X0570906Y0062100D02*
X0565434Y0062100D01*
X0565434Y0062886D02*
X0566954Y0062886D01*
X0566954Y0063671D02*
X0565434Y0063671D01*
X0565434Y0064457D02*
X0566954Y0064457D01*
X0567023Y0065243D02*
X0565434Y0065243D01*
X0567690Y0066029D02*
X0558056Y0066029D01*
X0558842Y0066815D02*
X0650800Y0066815D01*
X0650800Y0067601D02*
X0604114Y0067601D01*
X0604900Y0068387D02*
X0650800Y0068387D01*
X0650800Y0069173D02*
X0605686Y0069173D01*
X0606472Y0069959D02*
X0650800Y0069959D01*
X0650800Y0070745D02*
X0606481Y0070745D01*
X0606481Y0071531D02*
X0650800Y0071531D01*
X0650800Y0072316D02*
X0606481Y0072316D01*
X0606481Y0073102D02*
X0610385Y0073102D01*
X0609599Y0073888D02*
X0606025Y0073888D01*
X0605239Y0074674D02*
X0608813Y0074674D01*
X0608119Y0075460D02*
X0604453Y0075460D01*
X0604317Y0078604D02*
X0608119Y0078604D01*
X0608119Y0077818D02*
X0542316Y0077818D01*
X0541982Y0077483D02*
X0542817Y0078318D01*
X0543268Y0079410D01*
X0543268Y0080590D01*
X0542817Y0081682D01*
X0541982Y0082517D01*
X0540890Y0082968D01*
X0539710Y0082968D01*
X0538618Y0082517D01*
X0537783Y0081682D01*
X0537331Y0080590D01*
X0537331Y0079410D01*
X0537783Y0078318D01*
X0538618Y0077483D01*
X0539710Y0077031D01*
X0540890Y0077031D01*
X0541982Y0077483D01*
X0540892Y0077032D02*
X0608119Y0077032D01*
X0608119Y0076246D02*
X0517781Y0076246D01*
X0516995Y0077032D02*
X0539708Y0077032D01*
X0538284Y0077818D02*
X0516209Y0077818D01*
X0515800Y0078604D02*
X0537665Y0078604D01*
X0537340Y0079390D02*
X0515800Y0079390D01*
X0515800Y0080176D02*
X0537331Y0080176D01*
X0537485Y0080962D02*
X0515800Y0080962D01*
X0515800Y0081747D02*
X0537849Y0081747D01*
X0538659Y0082533D02*
X0515800Y0082533D01*
X0515800Y0083319D02*
X0598119Y0083319D01*
X0598119Y0082533D02*
X0541941Y0082533D01*
X0542751Y0081747D02*
X0598119Y0081747D01*
X0598119Y0080962D02*
X0543115Y0080962D01*
X0543268Y0080176D02*
X0598711Y0080176D01*
X0599497Y0079390D02*
X0543260Y0079390D01*
X0542935Y0078604D02*
X0600283Y0078604D01*
X0602300Y0082500D02*
X0630300Y0082500D01*
X0645800Y0098000D01*
X0645800Y0272000D01*
X0645800Y0273500D01*
X0612800Y0306500D01*
X0601800Y0306500D01*
X0597800Y0302500D01*
X0579800Y0302500D01*
X0553300Y0302500D01*
X0551800Y0304000D01*
X0550300Y0305500D01*
X0547300Y0305500D01*
X0545800Y0304000D01*
X0545800Y0301000D01*
X0546831Y0299969D01*
X0546831Y0299469D01*
X0546831Y0297071D01*
X0546800Y0297039D01*
X0544863Y0297071D02*
X0544863Y0292937D01*
X0545800Y0292000D01*
X0548533Y0293158D02*
X0559666Y0293158D01*
X0559666Y0292372D02*
X0548768Y0292372D01*
X0548768Y0291586D02*
X0559666Y0291586D01*
X0559666Y0290800D02*
X0548516Y0290800D01*
X0548587Y0290014D02*
X0548012Y0290014D01*
X0547801Y0289228D02*
X0546866Y0289228D01*
X0547015Y0288443D02*
X0542416Y0288443D01*
X0542317Y0288682D02*
X0541482Y0289517D01*
X0540390Y0289968D01*
X0539210Y0289968D01*
X0538118Y0289517D01*
X0537780Y0289178D01*
X0537780Y0290442D01*
X0537088Y0291134D01*
X0530992Y0291134D01*
X0530392Y0290534D01*
X0530234Y0290809D01*
X0529975Y0291068D01*
X0529657Y0291251D01*
X0529302Y0291346D01*
X0526954Y0291346D01*
X0526954Y0287394D01*
X0526166Y0287394D01*
X0526166Y0291346D01*
X0523817Y0291346D01*
X0523463Y0291251D01*
X0523145Y0291068D01*
X0522886Y0290809D01*
X0522702Y0290491D01*
X0522607Y0290136D01*
X0522607Y0287394D01*
X0526166Y0287394D01*
X0526166Y0286606D01*
X0526954Y0286606D01*
X0526954Y0282654D01*
X0529302Y0282654D01*
X0529657Y0282749D01*
X0529975Y0282932D01*
X0530234Y0283191D01*
X0530392Y0283466D01*
X0530992Y0282866D01*
X0537088Y0282866D01*
X0537780Y0283558D01*
X0537780Y0284822D01*
X0538118Y0284483D01*
X0539210Y0284031D01*
X0540390Y0284031D01*
X0541482Y0284483D01*
X0542317Y0285318D01*
X0542768Y0286410D01*
X0542768Y0287590D01*
X0542317Y0288682D01*
X0541770Y0289228D02*
X0544734Y0289228D01*
X0543588Y0290014D02*
X0537780Y0290014D01*
X0537780Y0289228D02*
X0537830Y0289228D01*
X0537422Y0290800D02*
X0543084Y0290800D01*
X0542831Y0291586D02*
X0515800Y0291586D01*
X0515800Y0290800D02*
X0522881Y0290800D01*
X0522607Y0290014D02*
X0515800Y0290014D01*
X0515800Y0289228D02*
X0522607Y0289228D01*
X0522607Y0288443D02*
X0515800Y0288443D01*
X0515800Y0287657D02*
X0522607Y0287657D01*
X0522607Y0286606D02*
X0522607Y0283864D01*
X0522702Y0283509D01*
X0522886Y0283191D01*
X0523145Y0282932D01*
X0523463Y0282749D01*
X0523817Y0282654D01*
X0526166Y0282654D01*
X0526166Y0286606D01*
X0522607Y0286606D01*
X0522607Y0286085D02*
X0515800Y0286085D01*
X0515800Y0286871D02*
X0526166Y0286871D01*
X0526300Y0287000D02*
X0526560Y0287260D01*
X0526560Y0297500D01*
X0526560Y0299740D01*
X0518300Y0307500D01*
X0515800Y0307304D02*
X0600377Y0307304D01*
X0599591Y0306519D02*
X0551509Y0306519D01*
X0552294Y0305733D02*
X0598806Y0305733D01*
X0598020Y0304947D02*
X0553080Y0304947D01*
X0553866Y0304161D02*
X0597234Y0304161D01*
X0597698Y0300231D02*
X0593796Y0300231D01*
X0594582Y0299445D02*
X0597244Y0299445D01*
X0596839Y0298659D02*
X0594875Y0298659D01*
X0594875Y0297873D02*
X0596628Y0297873D01*
X0596418Y0297088D02*
X0594875Y0297088D01*
X0594875Y0296302D02*
X0596207Y0296302D01*
X0596119Y0295516D02*
X0594875Y0295516D01*
X0594875Y0294730D02*
X0596119Y0294730D01*
X0596119Y0293944D02*
X0594875Y0293944D01*
X0594875Y0293158D02*
X0596119Y0293158D01*
X0596295Y0292372D02*
X0594875Y0292372D01*
X0594875Y0291586D02*
X0596505Y0291586D01*
X0596716Y0290800D02*
X0594875Y0290800D01*
X0594875Y0290014D02*
X0596979Y0290014D01*
X0597433Y0289228D02*
X0594875Y0289228D01*
X0594875Y0288443D02*
X0597886Y0288443D01*
X0598340Y0287657D02*
X0594875Y0287657D01*
X0594875Y0286871D02*
X0599117Y0286871D01*
X0599903Y0286085D02*
X0594875Y0286085D01*
X0594875Y0285299D02*
X0600875Y0285299D01*
X0602236Y0284513D02*
X0594875Y0284513D01*
X0594875Y0283727D02*
X0604305Y0283727D01*
X0610295Y0283727D02*
X0633346Y0283727D01*
X0634132Y0282941D02*
X0594875Y0282941D01*
X0596647Y0282155D02*
X0634918Y0282155D01*
X0635704Y0281369D02*
X0597629Y0281369D01*
X0598064Y0280583D02*
X0636489Y0280583D01*
X0637275Y0279798D02*
X0598268Y0279798D01*
X0598268Y0279012D02*
X0638061Y0279012D01*
X0638847Y0278226D02*
X0597985Y0278226D01*
X0597438Y0277440D02*
X0639633Y0277440D01*
X0640419Y0276654D02*
X0596186Y0276654D01*
X0594414Y0276654D02*
X0560535Y0276654D01*
X0560768Y0275868D02*
X0641205Y0275868D01*
X0641991Y0275082D02*
X0560768Y0275082D01*
X0560514Y0274296D02*
X0642777Y0274296D01*
X0643563Y0273510D02*
X0560008Y0273510D01*
X0558856Y0272724D02*
X0644225Y0272724D01*
X0644225Y0271938D02*
X0516089Y0271938D01*
X0515800Y0272724D02*
X0537744Y0272724D01*
X0536592Y0273510D02*
X0515800Y0273510D01*
X0515800Y0274296D02*
X0518777Y0274296D01*
X0517991Y0275082D02*
X0515800Y0275082D01*
X0518300Y0277000D02*
X0519800Y0275500D01*
X0520300Y0275500D01*
X0538800Y0275500D01*
X0538800Y0277000D01*
X0542800Y0281000D01*
X0544792Y0281000D01*
X0544863Y0280929D01*
X0544800Y0280929D01*
X0544800Y0280060D01*
X0546831Y0280929D02*
X0546831Y0283531D01*
X0546831Y0286031D01*
X0549800Y0289000D01*
X0555300Y0289000D01*
X0559300Y0285000D01*
X0563540Y0285000D01*
X0563800Y0285260D01*
X0563540Y0285000D01*
X0559666Y0286871D02*
X0559656Y0286871D01*
X0559666Y0287657D02*
X0558870Y0287657D01*
X0558085Y0288443D02*
X0559801Y0288443D01*
X0560130Y0289228D02*
X0557299Y0289228D01*
X0556513Y0290014D02*
X0559666Y0290014D01*
X0563800Y0292740D02*
X0573300Y0292740D01*
X0577434Y0292372D02*
X0591725Y0292372D01*
X0591725Y0291586D02*
X0577434Y0291586D01*
X0577434Y0290800D02*
X0591725Y0290800D01*
X0591725Y0290014D02*
X0577434Y0290014D01*
X0576970Y0289228D02*
X0591725Y0289228D01*
X0591725Y0288443D02*
X0577502Y0288443D01*
X0577646Y0287657D02*
X0591725Y0287657D01*
X0591725Y0286871D02*
X0577646Y0286871D01*
X0577646Y0286085D02*
X0591725Y0286085D01*
X0591725Y0285299D02*
X0573694Y0285299D01*
X0573300Y0285260D02*
X0573300Y0281000D01*
X0570800Y0278500D01*
X0566300Y0278500D01*
X0564300Y0276500D01*
X0560058Y0277440D02*
X0593162Y0277440D01*
X0592615Y0278226D02*
X0559375Y0278226D01*
X0559375Y0279012D02*
X0592331Y0279012D01*
X0592331Y0279798D02*
X0559375Y0279798D01*
X0559375Y0280583D02*
X0591989Y0280583D01*
X0591725Y0281369D02*
X0576669Y0281369D01*
X0576791Y0281402D02*
X0577109Y0281586D01*
X0577368Y0281845D01*
X0577551Y0282163D01*
X0577646Y0282517D01*
X0577646Y0284866D01*
X0573694Y0284866D01*
X0573694Y0281307D01*
X0576436Y0281307D01*
X0576791Y0281402D01*
X0577547Y0282155D02*
X0591725Y0282155D01*
X0591725Y0282941D02*
X0577646Y0282941D01*
X0577646Y0283727D02*
X0591725Y0283727D01*
X0591725Y0284513D02*
X0577646Y0284513D01*
X0573694Y0284513D02*
X0572906Y0284513D01*
X0572906Y0285299D02*
X0567934Y0285299D01*
X0567934Y0286085D02*
X0568954Y0286085D01*
X0568954Y0286871D02*
X0567934Y0286871D01*
X0567934Y0287657D02*
X0568954Y0287657D01*
X0569098Y0288443D02*
X0567799Y0288443D01*
X0567470Y0289228D02*
X0569630Y0289228D01*
X0569166Y0290014D02*
X0567934Y0290014D01*
X0567934Y0290800D02*
X0569166Y0290800D01*
X0569166Y0294730D02*
X0567934Y0294730D01*
X0567934Y0295516D02*
X0569166Y0295516D01*
X0569679Y0296302D02*
X0567421Y0296302D01*
X0563800Y0292740D02*
X0559469Y0297071D01*
X0552737Y0297071D01*
X0550769Y0297071D02*
X0550769Y0299469D01*
X0551800Y0300500D01*
X0579300Y0300500D01*
X0591300Y0300500D01*
X0593300Y0298500D01*
X0593300Y0281500D01*
X0595300Y0279500D01*
X0600568Y0271481D02*
X0598119Y0269032D01*
X0598119Y0265568D01*
X0600568Y0263119D01*
X0604032Y0263119D01*
X0606481Y0265568D01*
X0606481Y0269032D01*
X0604032Y0271481D01*
X0600568Y0271481D01*
X0600240Y0271152D02*
X0516875Y0271152D01*
X0517661Y0270367D02*
X0599454Y0270367D01*
X0598668Y0269581D02*
X0518446Y0269581D01*
X0519232Y0268795D02*
X0537897Y0268795D01*
X0538118Y0269017D02*
X0537283Y0268182D01*
X0536831Y0267090D01*
X0536831Y0265910D01*
X0537283Y0264818D01*
X0538118Y0263983D01*
X0539210Y0263531D01*
X0540390Y0263531D01*
X0541482Y0263983D01*
X0542317Y0264818D01*
X0542768Y0265910D01*
X0542768Y0267090D01*
X0542317Y0268182D01*
X0541482Y0269017D01*
X0540390Y0269468D01*
X0539210Y0269468D01*
X0538118Y0269017D01*
X0537212Y0268009D02*
X0520018Y0268009D01*
X0520804Y0267223D02*
X0536886Y0267223D01*
X0536831Y0266437D02*
X0521590Y0266437D01*
X0522375Y0265651D02*
X0536939Y0265651D01*
X0537264Y0264865D02*
X0522375Y0264865D01*
X0522375Y0264079D02*
X0538023Y0264079D01*
X0541577Y0264079D02*
X0599608Y0264079D01*
X0600394Y0263293D02*
X0522375Y0263293D01*
X0522375Y0262507D02*
X0608119Y0262507D01*
X0608119Y0261722D02*
X0522375Y0261722D01*
X0522375Y0260936D02*
X0608119Y0260936D01*
X0608119Y0260168D02*
X0610568Y0257719D01*
X0614032Y0257719D01*
X0616481Y0260168D01*
X0616481Y0263632D01*
X0614032Y0266081D01*
X0610568Y0266081D01*
X0608119Y0263632D01*
X0608119Y0260168D01*
X0608137Y0260150D02*
X0604463Y0260150D01*
X0604032Y0260581D02*
X0600568Y0260581D01*
X0598119Y0258132D01*
X0598119Y0254668D01*
X0600568Y0252219D01*
X0604032Y0252219D01*
X0606481Y0254668D01*
X0606481Y0258132D01*
X0604032Y0260581D01*
X0605249Y0259364D02*
X0608923Y0259364D01*
X0609709Y0258578D02*
X0606035Y0258578D01*
X0606481Y0257792D02*
X0610495Y0257792D01*
X0610568Y0255181D02*
X0608119Y0252732D01*
X0608119Y0249268D01*
X0610568Y0246819D01*
X0614032Y0246819D01*
X0616481Y0249268D01*
X0616481Y0252732D01*
X0614032Y0255181D01*
X0610568Y0255181D01*
X0610035Y0254648D02*
X0606461Y0254648D01*
X0606481Y0255434D02*
X0644225Y0255434D01*
X0644225Y0254648D02*
X0614565Y0254648D01*
X0615351Y0253862D02*
X0644225Y0253862D01*
X0644225Y0253076D02*
X0616136Y0253076D01*
X0616481Y0252291D02*
X0644225Y0252291D01*
X0644225Y0251505D02*
X0616481Y0251505D01*
X0616481Y0250719D02*
X0644225Y0250719D01*
X0644225Y0249933D02*
X0616481Y0249933D01*
X0616360Y0249147D02*
X0644225Y0249147D01*
X0644225Y0248361D02*
X0615574Y0248361D01*
X0614788Y0247575D02*
X0644225Y0247575D01*
X0644225Y0246789D02*
X0606481Y0246789D01*
X0606481Y0247332D02*
X0606481Y0243868D01*
X0604032Y0241419D01*
X0600568Y0241419D01*
X0598119Y0243868D01*
X0598119Y0247332D01*
X0600568Y0249781D01*
X0604032Y0249781D01*
X0606481Y0247332D01*
X0606238Y0247575D02*
X0609812Y0247575D01*
X0609026Y0248361D02*
X0605452Y0248361D01*
X0604666Y0249147D02*
X0608240Y0249147D01*
X0608119Y0249933D02*
X0562420Y0249933D01*
X0562745Y0249147D02*
X0599934Y0249147D01*
X0599148Y0248361D02*
X0562768Y0248361D01*
X0562630Y0247575D02*
X0598362Y0247575D01*
X0598119Y0246789D02*
X0562287Y0246789D01*
X0561501Y0246003D02*
X0598119Y0246003D01*
X0598119Y0245217D02*
X0558744Y0245217D01*
X0557959Y0244431D02*
X0598119Y0244431D01*
X0598342Y0243646D02*
X0574113Y0243646D01*
X0575039Y0242860D02*
X0599127Y0242860D01*
X0599913Y0242074D02*
X0575146Y0242074D01*
X0575146Y0241288D02*
X0608119Y0241288D01*
X0608119Y0241832D02*
X0608119Y0238368D01*
X0610568Y0235919D01*
X0614032Y0235919D01*
X0616481Y0238368D01*
X0616481Y0241832D01*
X0614032Y0244281D01*
X0610568Y0244281D01*
X0608119Y0241832D01*
X0608361Y0242074D02*
X0604687Y0242074D01*
X0605473Y0242860D02*
X0609147Y0242860D01*
X0609933Y0243646D02*
X0606258Y0243646D01*
X0606481Y0244431D02*
X0644225Y0244431D01*
X0644225Y0243646D02*
X0614667Y0243646D01*
X0615453Y0242860D02*
X0644225Y0242860D01*
X0644225Y0242074D02*
X0616239Y0242074D01*
X0616481Y0241288D02*
X0644225Y0241288D01*
X0644225Y0240502D02*
X0616481Y0240502D01*
X0616481Y0239716D02*
X0644225Y0239716D01*
X0644225Y0238930D02*
X0616481Y0238930D01*
X0616257Y0238144D02*
X0644225Y0238144D01*
X0644225Y0237358D02*
X0615471Y0237358D01*
X0614685Y0236572D02*
X0644225Y0236572D01*
X0644225Y0235786D02*
X0606481Y0235786D01*
X0606481Y0236432D02*
X0604032Y0238881D01*
X0600568Y0238881D01*
X0598119Y0236432D01*
X0598119Y0232968D01*
X0600568Y0230519D01*
X0604032Y0230519D01*
X0606481Y0232968D01*
X0606481Y0236432D01*
X0606341Y0236572D02*
X0609915Y0236572D01*
X0609129Y0237358D02*
X0605555Y0237358D01*
X0604769Y0238144D02*
X0608343Y0238144D01*
X0608119Y0238930D02*
X0575146Y0238930D01*
X0575146Y0238144D02*
X0599831Y0238144D01*
X0599045Y0237358D02*
X0575146Y0237358D01*
X0575011Y0236572D02*
X0598259Y0236572D01*
X0598119Y0235786D02*
X0574456Y0235786D01*
X0574934Y0235000D02*
X0598119Y0235000D01*
X0598119Y0234215D02*
X0574934Y0234215D01*
X0574934Y0233429D02*
X0598119Y0233429D01*
X0598444Y0232643D02*
X0574934Y0232643D01*
X0574934Y0231857D02*
X0599230Y0231857D01*
X0600016Y0231071D02*
X0574934Y0231071D01*
X0574934Y0230285D02*
X0608119Y0230285D01*
X0608119Y0231032D02*
X0608119Y0227568D01*
X0610568Y0225119D01*
X0614032Y0225119D01*
X0616481Y0227568D01*
X0616481Y0231032D01*
X0614032Y0233481D01*
X0610568Y0233481D01*
X0608119Y0231032D01*
X0608158Y0231071D02*
X0604584Y0231071D01*
X0605370Y0231857D02*
X0608944Y0231857D01*
X0609730Y0232643D02*
X0606156Y0232643D01*
X0606481Y0233429D02*
X0610516Y0233429D01*
X0614084Y0233429D02*
X0644225Y0233429D01*
X0644225Y0234215D02*
X0606481Y0234215D01*
X0606481Y0235000D02*
X0644225Y0235000D01*
X0644225Y0232643D02*
X0614870Y0232643D01*
X0615656Y0231857D02*
X0644225Y0231857D01*
X0644225Y0231071D02*
X0616442Y0231071D01*
X0616481Y0230285D02*
X0644225Y0230285D01*
X0644225Y0229499D02*
X0616481Y0229499D01*
X0616481Y0228713D02*
X0644225Y0228713D01*
X0644225Y0227927D02*
X0616481Y0227927D01*
X0616054Y0227141D02*
X0644225Y0227141D01*
X0644225Y0226355D02*
X0615268Y0226355D01*
X0614482Y0225570D02*
X0644225Y0225570D01*
X0644225Y0224784D02*
X0606481Y0224784D01*
X0606481Y0223998D02*
X0644225Y0223998D01*
X0644225Y0223212D02*
X0606481Y0223212D01*
X0606481Y0222426D02*
X0610413Y0222426D01*
X0609627Y0221640D02*
X0606053Y0221640D01*
X0605267Y0220854D02*
X0608841Y0220854D01*
X0608119Y0220068D02*
X0605959Y0220068D01*
X0606745Y0219282D02*
X0608119Y0219282D01*
X0608119Y0218496D02*
X0607531Y0218496D01*
X0608875Y0215353D02*
X0609434Y0215353D01*
X0608875Y0214567D02*
X0610220Y0214567D01*
X0608875Y0213781D02*
X0644225Y0213781D01*
X0644225Y0214567D02*
X0614380Y0214567D01*
X0615166Y0215353D02*
X0644225Y0215353D01*
X0644225Y0216139D02*
X0615952Y0216139D01*
X0616481Y0216924D02*
X0644225Y0216924D01*
X0644225Y0217710D02*
X0616481Y0217710D01*
X0616481Y0218496D02*
X0644225Y0218496D01*
X0644225Y0219282D02*
X0616481Y0219282D01*
X0616481Y0220068D02*
X0644225Y0220068D01*
X0644225Y0220854D02*
X0615759Y0220854D01*
X0614973Y0221640D02*
X0644225Y0221640D01*
X0644225Y0222426D02*
X0614187Y0222426D01*
X0610118Y0225570D02*
X0606443Y0225570D01*
X0605658Y0226355D02*
X0609332Y0226355D01*
X0608546Y0227141D02*
X0604872Y0227141D01*
X0604086Y0227927D02*
X0608119Y0227927D01*
X0608119Y0228713D02*
X0574435Y0228713D01*
X0574934Y0229499D02*
X0608119Y0229499D01*
X0600514Y0227927D02*
X0558695Y0227927D01*
X0557909Y0227141D02*
X0599728Y0227141D01*
X0598942Y0226355D02*
X0557123Y0226355D01*
X0555969Y0227429D02*
X0560800Y0232260D01*
X0570800Y0232260D01*
X0566666Y0234215D02*
X0564934Y0234215D01*
X0564934Y0235000D02*
X0566666Y0235000D01*
X0567144Y0235786D02*
X0564456Y0235786D01*
X0564814Y0236572D02*
X0566589Y0236572D01*
X0566454Y0237358D02*
X0564934Y0237358D01*
X0564934Y0238144D02*
X0566454Y0238144D01*
X0566454Y0238930D02*
X0564934Y0238930D01*
X0564934Y0239716D02*
X0570406Y0239716D01*
X0570800Y0239740D02*
X0570800Y0250000D01*
X0568800Y0252000D01*
X0561800Y0252000D01*
X0558300Y0255500D01*
X0558300Y0261500D01*
X0542768Y0258090D02*
X0542317Y0259182D01*
X0541482Y0260017D01*
X0540390Y0260468D01*
X0539210Y0260468D01*
X0538118Y0260017D01*
X0537283Y0259182D01*
X0536831Y0258090D01*
X0536831Y0256910D01*
X0537283Y0255818D01*
X0538118Y0254983D01*
X0539210Y0254531D01*
X0540390Y0254531D01*
X0541482Y0254983D01*
X0542317Y0255818D01*
X0542768Y0256910D01*
X0542768Y0258090D01*
X0542768Y0257792D02*
X0598119Y0257792D01*
X0598119Y0257006D02*
X0542768Y0257006D01*
X0542483Y0256220D02*
X0598119Y0256220D01*
X0598119Y0255434D02*
X0541932Y0255434D01*
X0540672Y0254648D02*
X0598139Y0254648D01*
X0598925Y0253862D02*
X0522665Y0253862D01*
X0522375Y0254648D02*
X0538928Y0254648D01*
X0537668Y0255434D02*
X0522375Y0255434D01*
X0522375Y0256220D02*
X0537117Y0256220D01*
X0536831Y0257006D02*
X0522375Y0257006D01*
X0522375Y0257792D02*
X0536831Y0257792D01*
X0537033Y0258578D02*
X0522375Y0258578D01*
X0522375Y0259364D02*
X0537466Y0259364D01*
X0538440Y0260150D02*
X0522375Y0260150D01*
X0516800Y0262500D02*
X0516800Y0251000D01*
X0516800Y0169000D01*
X0517550Y0168250D01*
X0521300Y0164500D01*
X0525300Y0160500D01*
X0538300Y0160500D01*
X0542729Y0154571D01*
X0545363Y0154571D01*
X0543591Y0156409D02*
X0543322Y0156409D01*
X0542907Y0157195D02*
X0542734Y0157195D01*
X0542216Y0157981D02*
X0542147Y0157981D01*
X0541891Y0158767D02*
X0541560Y0158767D01*
X0538803Y0157195D02*
X0516375Y0157195D01*
X0516375Y0156409D02*
X0539390Y0156409D01*
X0538671Y0154051D02*
X0541151Y0154051D01*
X0539720Y0153266D02*
X0538780Y0153266D01*
X0540800Y0150500D02*
X0535040Y0150500D01*
X0527954Y0154837D02*
X0527166Y0154837D01*
X0535835Y0158767D02*
X0516375Y0158767D01*
X0516375Y0159553D02*
X0524020Y0159553D01*
X0523234Y0160339D02*
X0516375Y0160339D01*
X0516375Y0161125D02*
X0522448Y0161125D01*
X0521662Y0161911D02*
X0516375Y0161911D01*
X0516375Y0162696D02*
X0520876Y0162696D01*
X0520090Y0163482D02*
X0516375Y0163482D01*
X0516375Y0164268D02*
X0519305Y0164268D01*
X0518519Y0165054D02*
X0516375Y0165054D01*
X0516375Y0165840D02*
X0517733Y0165840D01*
X0516947Y0166626D02*
X0516375Y0166626D01*
X0519043Y0168984D02*
X0537331Y0168984D01*
X0537331Y0169090D02*
X0537331Y0167910D01*
X0537783Y0166818D01*
X0538618Y0165983D01*
X0539710Y0165531D01*
X0540890Y0165531D01*
X0541982Y0165983D01*
X0542817Y0166818D01*
X0543268Y0167910D01*
X0543268Y0169090D01*
X0542817Y0170182D01*
X0541982Y0171017D01*
X0540890Y0171468D01*
X0539710Y0171468D01*
X0538618Y0171017D01*
X0537783Y0170182D01*
X0537331Y0169090D01*
X0537613Y0169770D02*
X0518375Y0169770D01*
X0518375Y0170556D02*
X0538158Y0170556D01*
X0539403Y0171342D02*
X0518375Y0171342D01*
X0518375Y0172127D02*
X0581225Y0172127D01*
X0581225Y0171342D02*
X0541197Y0171342D01*
X0542442Y0170556D02*
X0581225Y0170556D01*
X0581225Y0169770D02*
X0542987Y0169770D01*
X0543268Y0168984D02*
X0581225Y0168984D01*
X0581225Y0168198D02*
X0543268Y0168198D01*
X0543062Y0167412D02*
X0581225Y0167412D01*
X0581225Y0166626D02*
X0542624Y0166626D01*
X0541636Y0165840D02*
X0581225Y0165840D01*
X0581225Y0165054D02*
X0522973Y0165054D01*
X0523759Y0164268D02*
X0581225Y0164268D01*
X0581225Y0163482D02*
X0524545Y0163482D01*
X0525331Y0162696D02*
X0536298Y0162696D01*
X0538964Y0165840D02*
X0522187Y0165840D01*
X0521401Y0166626D02*
X0537976Y0166626D01*
X0537538Y0167412D02*
X0520615Y0167412D01*
X0519829Y0168198D02*
X0537331Y0168198D01*
X0539710Y0174531D02*
X0540890Y0174531D01*
X0541982Y0174983D01*
X0542817Y0175818D01*
X0543268Y0176910D01*
X0543268Y0178090D01*
X0542817Y0179182D01*
X0541982Y0180017D01*
X0540890Y0180468D01*
X0539710Y0180468D01*
X0538618Y0180017D01*
X0537783Y0179182D01*
X0537331Y0178090D01*
X0537331Y0176910D01*
X0537783Y0175818D01*
X0538618Y0174983D01*
X0539710Y0174531D01*
X0538331Y0175271D02*
X0518375Y0175271D01*
X0518375Y0174485D02*
X0581225Y0174485D01*
X0581225Y0173699D02*
X0518375Y0173699D01*
X0518375Y0172913D02*
X0581225Y0172913D01*
X0581225Y0175271D02*
X0542269Y0175271D01*
X0542915Y0176057D02*
X0581225Y0176057D01*
X0581225Y0176843D02*
X0543241Y0176843D01*
X0543268Y0177629D02*
X0581225Y0177629D01*
X0581225Y0178415D02*
X0543134Y0178415D01*
X0542797Y0179201D02*
X0581225Y0179201D01*
X0581225Y0179987D02*
X0542012Y0179987D01*
X0538588Y0179987D02*
X0518375Y0179987D01*
X0518375Y0180772D02*
X0581225Y0180772D01*
X0581225Y0181558D02*
X0518375Y0181558D01*
X0518375Y0182344D02*
X0581225Y0182344D01*
X0581225Y0183130D02*
X0518375Y0183130D01*
X0518375Y0183916D02*
X0537781Y0183916D01*
X0536900Y0184702D02*
X0518375Y0184702D01*
X0518375Y0185488D02*
X0521585Y0185488D01*
X0520799Y0186274D02*
X0518375Y0186274D01*
X0518375Y0187060D02*
X0520013Y0187060D01*
X0519227Y0187846D02*
X0518375Y0187846D01*
X0518375Y0188632D02*
X0518441Y0188632D01*
X0518375Y0179201D02*
X0537803Y0179201D01*
X0537466Y0178415D02*
X0518375Y0178415D01*
X0518375Y0177629D02*
X0537331Y0177629D01*
X0537359Y0176843D02*
X0518375Y0176843D01*
X0518375Y0176057D02*
X0537685Y0176057D01*
X0546588Y0161911D02*
X0547512Y0161911D01*
X0549300Y0159500D02*
X0549300Y0154571D01*
X0551269Y0154571D02*
X0551269Y0156469D01*
X0551300Y0156500D01*
X0551300Y0157000D01*
X0553800Y0159500D01*
X0555588Y0161911D02*
X0556512Y0161911D01*
X0558300Y0159500D02*
X0558300Y0157000D01*
X0555871Y0154571D01*
X0553237Y0154571D01*
X0551300Y0154539D02*
X0551269Y0154571D01*
X0551300Y0154539D02*
X0551300Y0152000D01*
X0552560Y0150740D01*
X0561300Y0150740D01*
X0565434Y0150908D02*
X0570906Y0150908D01*
X0570906Y0151134D02*
X0566954Y0151134D01*
X0566954Y0153483D01*
X0567049Y0153837D01*
X0567232Y0154155D01*
X0567491Y0154414D01*
X0567809Y0154598D01*
X0568164Y0154693D01*
X0570906Y0154693D01*
X0570906Y0151134D01*
X0570906Y0151694D02*
X0571694Y0151694D01*
X0571694Y0152480D02*
X0570906Y0152480D01*
X0570906Y0153266D02*
X0571694Y0153266D01*
X0571694Y0154051D02*
X0570906Y0154051D01*
X0567172Y0154051D02*
X0565171Y0154051D01*
X0565434Y0153266D02*
X0566954Y0153266D01*
X0566954Y0152480D02*
X0565434Y0152480D01*
X0565434Y0151694D02*
X0566954Y0151694D01*
X0566954Y0150122D02*
X0565434Y0150122D01*
X0565434Y0149336D02*
X0566954Y0149336D01*
X0566954Y0148550D02*
X0565434Y0148550D01*
X0565434Y0147764D02*
X0567016Y0147764D01*
X0567643Y0146978D02*
X0564764Y0146978D01*
X0565434Y0146192D02*
X0567166Y0146192D01*
X0567166Y0145406D02*
X0565434Y0145406D01*
X0565434Y0141477D02*
X0567166Y0141477D01*
X0567166Y0140691D02*
X0565434Y0140691D01*
X0565127Y0139905D02*
X0567473Y0139905D01*
X0571300Y0143260D02*
X0561300Y0143260D01*
X0556469Y0138429D01*
X0553237Y0138429D01*
X0551269Y0138429D02*
X0551269Y0136531D01*
X0551269Y0136031D01*
X0551300Y0136000D01*
X0553300Y0134000D01*
X0553800Y0134000D01*
X0572800Y0134000D01*
X0577300Y0138500D01*
X0577300Y0146000D01*
X0578800Y0147500D01*
X0580800Y0147500D01*
X0592800Y0147500D01*
X0602000Y0147500D01*
X0602300Y0147800D01*
X0599800Y0143000D02*
X0597300Y0145500D01*
X0596800Y0145500D01*
X0580800Y0145500D01*
X0579300Y0144000D01*
X0579300Y0137000D01*
X0575300Y0133000D01*
X0574300Y0132000D01*
X0554800Y0132000D01*
X0554300Y0131500D01*
X0553300Y0130500D01*
X0546800Y0130500D01*
X0545800Y0131500D01*
X0545800Y0134500D01*
X0547331Y0136031D01*
X0547331Y0138429D01*
X0545363Y0138429D02*
X0545363Y0142063D01*
X0546800Y0143500D01*
X0549549Y0144620D02*
X0557166Y0144620D01*
X0557166Y0143835D02*
X0549768Y0143835D01*
X0549768Y0143049D02*
X0557166Y0143049D01*
X0557166Y0142263D02*
X0549501Y0142263D01*
X0549092Y0145406D02*
X0557166Y0145406D01*
X0557166Y0146192D02*
X0548057Y0146192D01*
X0549969Y0146978D02*
X0557836Y0146978D01*
X0557166Y0147764D02*
X0550762Y0147764D01*
X0551120Y0148550D02*
X0557166Y0148550D01*
X0551737Y0149336D02*
X0551268Y0149336D01*
X0544011Y0151694D02*
X0543519Y0151694D01*
X0543591Y0152480D02*
X0543018Y0152480D01*
X0536624Y0157981D02*
X0516375Y0157981D01*
X0516375Y0149336D02*
X0523607Y0149336D01*
X0523607Y0148550D02*
X0516375Y0148550D01*
X0516375Y0147764D02*
X0523607Y0147764D01*
X0523720Y0146978D02*
X0516375Y0146978D01*
X0516375Y0139905D02*
X0523607Y0139905D01*
X0523607Y0140606D02*
X0523607Y0137864D01*
X0523702Y0137509D01*
X0523886Y0137191D01*
X0524145Y0136932D01*
X0524463Y0136749D01*
X0524817Y0136654D01*
X0527166Y0136654D01*
X0527166Y0140606D01*
X0523607Y0140606D01*
X0523607Y0139119D02*
X0516375Y0139119D01*
X0516375Y0138333D02*
X0523607Y0138333D01*
X0523692Y0137547D02*
X0516375Y0137547D01*
X0516375Y0136761D02*
X0524441Y0136761D01*
X0527166Y0136761D02*
X0527954Y0136761D01*
X0527954Y0137547D02*
X0527166Y0137547D01*
X0527166Y0138333D02*
X0527954Y0138333D01*
X0527954Y0139119D02*
X0527166Y0139119D01*
X0527166Y0139905D02*
X0527954Y0139905D01*
X0530679Y0136761D02*
X0543591Y0136761D01*
X0543591Y0135975D02*
X0516375Y0135975D01*
X0516375Y0135190D02*
X0544262Y0135190D01*
X0544225Y0134404D02*
X0516375Y0134404D01*
X0516375Y0133618D02*
X0544225Y0133618D01*
X0544225Y0132832D02*
X0516375Y0132832D01*
X0516375Y0132046D02*
X0544225Y0132046D01*
X0544225Y0131260D02*
X0516375Y0131260D01*
X0516375Y0130474D02*
X0544599Y0130474D01*
X0545385Y0129688D02*
X0516375Y0129688D01*
X0516375Y0128902D02*
X0546475Y0128902D01*
X0545689Y0128116D02*
X0516375Y0128116D01*
X0516375Y0127330D02*
X0544903Y0127330D01*
X0544725Y0126544D02*
X0516375Y0126544D01*
X0516375Y0125759D02*
X0544725Y0125759D01*
X0544725Y0124973D02*
X0516375Y0124973D01*
X0516375Y0124187D02*
X0523851Y0124187D01*
X0523178Y0123401D02*
X0516375Y0123401D01*
X0516375Y0122615D02*
X0523107Y0122615D01*
X0523107Y0121829D02*
X0516375Y0121829D01*
X0516375Y0121043D02*
X0523107Y0121043D01*
X0523107Y0119606D02*
X0523107Y0116864D01*
X0523202Y0116509D01*
X0523386Y0116191D01*
X0523645Y0115932D01*
X0523963Y0115749D01*
X0524317Y0115654D01*
X0526666Y0115654D01*
X0526666Y0119606D01*
X0523107Y0119606D01*
X0523107Y0119471D02*
X0516375Y0119471D01*
X0516375Y0118685D02*
X0523107Y0118685D01*
X0523107Y0117899D02*
X0516375Y0117899D01*
X0516375Y0117114D02*
X0523107Y0117114D01*
X0523307Y0116328D02*
X0516375Y0116328D01*
X0516375Y0115542D02*
X0543518Y0115542D01*
X0543331Y0114756D02*
X0516375Y0114756D01*
X0516375Y0113970D02*
X0543331Y0113970D01*
X0543632Y0113184D02*
X0538038Y0113184D01*
X0538280Y0112398D02*
X0539539Y0112398D01*
X0541061Y0112398D02*
X0544204Y0112398D01*
X0545515Y0111612D02*
X0542386Y0111612D01*
X0542964Y0110826D02*
X0547399Y0110826D01*
X0547085Y0111612D02*
X0548185Y0111612D01*
X0548396Y0112398D02*
X0548971Y0112398D01*
X0548968Y0113184D02*
X0560166Y0113184D01*
X0560166Y0113970D02*
X0549268Y0113970D01*
X0549268Y0114756D02*
X0560166Y0114756D01*
X0560166Y0115542D02*
X0549082Y0115542D01*
X0548670Y0116328D02*
X0560166Y0116328D01*
X0560166Y0117114D02*
X0555009Y0117114D01*
X0555009Y0117899D02*
X0559414Y0117899D01*
X0559969Y0119571D02*
X0553237Y0119571D01*
X0551269Y0119571D02*
X0551269Y0121969D01*
X0552300Y0123000D01*
X0552300Y0124500D01*
X0555800Y0128000D01*
X0574800Y0128000D01*
X0576300Y0128000D01*
X0576800Y0128500D01*
X0582300Y0134000D01*
X0586300Y0134000D01*
X0594800Y0141500D01*
X0597768Y0141477D02*
X0598225Y0141477D01*
X0598225Y0142263D02*
X0597697Y0142263D01*
X0597524Y0143049D02*
X0597372Y0143049D01*
X0596738Y0143835D02*
X0596664Y0143835D01*
X0599800Y0143000D02*
X0599800Y0139400D01*
X0602300Y0136900D01*
X0598119Y0136761D02*
X0591810Y0136761D01*
X0590919Y0135975D02*
X0598119Y0135975D01*
X0598119Y0135190D02*
X0590028Y0135190D01*
X0589138Y0134404D02*
X0598883Y0134404D01*
X0599669Y0133618D02*
X0588247Y0133618D01*
X0587359Y0132832D02*
X0600455Y0132832D01*
X0600075Y0129688D02*
X0580215Y0129688D01*
X0579429Y0128902D02*
X0599289Y0128902D01*
X0598503Y0128116D02*
X0578643Y0128116D01*
X0578375Y0127848D02*
X0578375Y0127848D01*
X0577858Y0127330D02*
X0598119Y0127330D01*
X0598119Y0126544D02*
X0577072Y0126544D01*
X0575300Y0130000D02*
X0581300Y0136000D01*
X0583300Y0136000D01*
X0590300Y0142000D01*
X0593591Y0138333D02*
X0598119Y0138333D01*
X0598119Y0137547D02*
X0592700Y0137547D01*
X0596617Y0139119D02*
X0598225Y0139119D01*
X0598225Y0139905D02*
X0597352Y0139905D01*
X0597678Y0140691D02*
X0598225Y0140691D01*
X0608875Y0139119D02*
X0609568Y0139119D01*
X0608875Y0138333D02*
X0610354Y0138333D01*
X0608875Y0137547D02*
X0644225Y0137547D01*
X0644225Y0136761D02*
X0608875Y0136761D01*
X0608875Y0135975D02*
X0644225Y0135975D01*
X0644225Y0135190D02*
X0614523Y0135190D01*
X0615309Y0134404D02*
X0644225Y0134404D01*
X0644225Y0133618D02*
X0616095Y0133618D01*
X0616481Y0132832D02*
X0644225Y0132832D01*
X0644225Y0132046D02*
X0616481Y0132046D01*
X0616481Y0131260D02*
X0644225Y0131260D01*
X0644225Y0130474D02*
X0616481Y0130474D01*
X0616401Y0129688D02*
X0644225Y0129688D01*
X0644225Y0128902D02*
X0615615Y0128902D01*
X0614829Y0128116D02*
X0644225Y0128116D01*
X0644225Y0127330D02*
X0614043Y0127330D01*
X0614626Y0124187D02*
X0644225Y0124187D01*
X0644225Y0124973D02*
X0608875Y0124973D01*
X0608875Y0125759D02*
X0644225Y0125759D01*
X0644225Y0126544D02*
X0608875Y0126544D01*
X0608875Y0127330D02*
X0610557Y0127330D01*
X0609771Y0128116D02*
X0608875Y0128116D01*
X0608875Y0128902D02*
X0608985Y0128902D01*
X0605725Y0128902D02*
X0605311Y0128902D01*
X0605725Y0129688D02*
X0604525Y0129688D01*
X0605725Y0130474D02*
X0581001Y0130474D01*
X0581787Y0131260D02*
X0605725Y0131260D01*
X0605725Y0132046D02*
X0582573Y0132046D01*
X0575300Y0130000D02*
X0555300Y0130000D01*
X0553300Y0128000D01*
X0550800Y0128000D01*
X0547800Y0128000D01*
X0546300Y0126500D01*
X0546300Y0123500D01*
X0547331Y0122469D01*
X0547331Y0121969D01*
X0547331Y0119571D01*
X0547300Y0119539D01*
X0545363Y0119571D02*
X0545363Y0115437D01*
X0546300Y0114500D01*
X0543788Y0116328D02*
X0538050Y0116328D01*
X0538280Y0117114D02*
X0543591Y0117114D01*
X0543591Y0117899D02*
X0542279Y0117899D01*
X0543183Y0118685D02*
X0543591Y0118685D01*
X0543587Y0119471D02*
X0543591Y0119471D01*
X0543591Y0121829D02*
X0543463Y0121829D01*
X0542883Y0122615D02*
X0544178Y0122615D01*
X0544725Y0123401D02*
X0541554Y0123401D01*
X0540046Y0123401D02*
X0538280Y0123401D01*
X0538280Y0122615D02*
X0538717Y0122615D01*
X0540800Y0120500D02*
X0535040Y0120500D01*
X0534540Y0120000D01*
X0538280Y0118685D02*
X0538417Y0118685D01*
X0538280Y0117899D02*
X0539321Y0117899D01*
X0531030Y0116328D02*
X0530813Y0116328D01*
X0530806Y0113184D02*
X0531042Y0113184D01*
X0527454Y0113184D02*
X0526666Y0113184D01*
X0526666Y0112398D02*
X0527454Y0112398D01*
X0527454Y0111612D02*
X0526666Y0111612D01*
X0526666Y0110826D02*
X0527454Y0110826D01*
X0527454Y0110040D02*
X0526666Y0110040D01*
X0526666Y0108468D02*
X0527454Y0108468D01*
X0527454Y0107683D02*
X0526666Y0107683D01*
X0526666Y0106897D02*
X0527454Y0106897D01*
X0527454Y0106111D02*
X0526666Y0106111D01*
X0526666Y0105325D02*
X0527454Y0105325D01*
X0530289Y0105325D02*
X0543591Y0105325D01*
X0543815Y0106111D02*
X0538280Y0106111D01*
X0538280Y0106897D02*
X0538828Y0106897D01*
X0541772Y0106897D02*
X0545757Y0106897D01*
X0545757Y0107683D02*
X0542681Y0107683D01*
X0543086Y0108468D02*
X0545757Y0108468D01*
X0545827Y0109254D02*
X0543268Y0109254D01*
X0543268Y0110040D02*
X0546613Y0110040D01*
X0547331Y0108531D02*
X0550300Y0111500D01*
X0555800Y0111500D01*
X0557129Y0112398D02*
X0560166Y0112398D01*
X0560746Y0111612D02*
X0557915Y0111612D01*
X0558701Y0110826D02*
X0560184Y0110826D01*
X0560166Y0110040D02*
X0559487Y0110040D01*
X0564300Y0115240D02*
X0573800Y0115240D01*
X0577934Y0115542D02*
X0598119Y0115542D01*
X0598119Y0116328D02*
X0577934Y0116328D01*
X0577934Y0117114D02*
X0598401Y0117114D01*
X0599186Y0117899D02*
X0577934Y0117899D01*
X0577537Y0118685D02*
X0599972Y0118685D01*
X0600558Y0121829D02*
X0555009Y0121829D01*
X0554422Y0122615D02*
X0599772Y0122615D01*
X0598986Y0123401D02*
X0553875Y0123401D01*
X0554214Y0124187D02*
X0598200Y0124187D01*
X0598119Y0124973D02*
X0555000Y0124973D01*
X0555786Y0125759D02*
X0598119Y0125759D01*
X0604828Y0122615D02*
X0605725Y0122615D01*
X0605725Y0123401D02*
X0605614Y0123401D01*
X0605725Y0121829D02*
X0604042Y0121829D01*
X0605725Y0121043D02*
X0560724Y0121043D01*
X0561510Y0120257D02*
X0605725Y0120257D01*
X0605725Y0119471D02*
X0562296Y0119471D01*
X0559969Y0119571D02*
X0564300Y0115240D01*
X0568434Y0117114D02*
X0569666Y0117114D01*
X0569666Y0117899D02*
X0568434Y0117899D01*
X0568037Y0118685D02*
X0570063Y0118685D01*
X0569666Y0113184D02*
X0568434Y0113184D01*
X0568434Y0112398D02*
X0569666Y0112398D01*
X0570246Y0111612D02*
X0567854Y0111612D01*
X0568416Y0110826D02*
X0569540Y0110826D01*
X0569454Y0110040D02*
X0568434Y0110040D01*
X0568434Y0109254D02*
X0569454Y0109254D01*
X0569454Y0108468D02*
X0568434Y0108468D01*
X0568434Y0106897D02*
X0569454Y0106897D01*
X0569454Y0106111D02*
X0568434Y0106111D01*
X0568434Y0105325D02*
X0569454Y0105325D01*
X0569620Y0104539D02*
X0568261Y0104539D01*
X0573406Y0104539D02*
X0574194Y0104539D01*
X0574194Y0103807D02*
X0576936Y0103807D01*
X0577291Y0103902D01*
X0577609Y0104086D01*
X0577868Y0104345D01*
X0578051Y0104663D01*
X0578146Y0105017D01*
X0578146Y0107366D01*
X0574194Y0107366D01*
X0574194Y0103807D01*
X0574194Y0105325D02*
X0573406Y0105325D01*
X0573406Y0106111D02*
X0574194Y0106111D01*
X0574194Y0106897D02*
X0573406Y0106897D01*
X0574194Y0107683D02*
X0599770Y0107683D01*
X0600556Y0108468D02*
X0578146Y0108468D01*
X0578146Y0109254D02*
X0605327Y0109254D01*
X0605725Y0110040D02*
X0578146Y0110040D01*
X0578060Y0110826D02*
X0605725Y0110826D01*
X0605725Y0111612D02*
X0604725Y0111612D01*
X0605511Y0112398D02*
X0605725Y0112398D01*
X0608875Y0112398D02*
X0609085Y0112398D01*
X0608875Y0113184D02*
X0609871Y0113184D01*
X0608875Y0113970D02*
X0644225Y0113970D01*
X0644225Y0114756D02*
X0608875Y0114756D01*
X0608875Y0115542D02*
X0644225Y0115542D01*
X0644225Y0116328D02*
X0608875Y0116328D01*
X0608875Y0117114D02*
X0609873Y0117114D01*
X0609088Y0117899D02*
X0608875Y0117899D01*
X0605725Y0117899D02*
X0605413Y0117899D01*
X0605725Y0118685D02*
X0604628Y0118685D01*
X0598119Y0114756D02*
X0577934Y0114756D01*
X0577934Y0113970D02*
X0598119Y0113970D01*
X0598303Y0113184D02*
X0577934Y0113184D01*
X0577934Y0112398D02*
X0599089Y0112398D01*
X0599875Y0111612D02*
X0577354Y0111612D01*
X0578146Y0106897D02*
X0598984Y0106897D01*
X0598198Y0106111D02*
X0578146Y0106111D01*
X0578146Y0105325D02*
X0598119Y0105325D01*
X0598119Y0104539D02*
X0577980Y0104539D01*
X0561083Y0099038D02*
X0608119Y0099038D01*
X0608119Y0099823D02*
X0560675Y0099823D01*
X0561268Y0098252D02*
X0608119Y0098252D01*
X0608119Y0097466D02*
X0604147Y0097466D01*
X0604032Y0097581D02*
X0600568Y0097581D01*
X0598119Y0095132D01*
X0598119Y0091668D01*
X0600568Y0089219D01*
X0604032Y0089219D01*
X0606481Y0091668D01*
X0606481Y0095132D01*
X0604032Y0097581D01*
X0604933Y0096680D02*
X0608507Y0096680D01*
X0608119Y0097068D02*
X0610568Y0094619D01*
X0614032Y0094619D01*
X0616481Y0097068D01*
X0616481Y0100532D01*
X0614032Y0102981D01*
X0610568Y0102981D01*
X0608119Y0100532D01*
X0608119Y0097068D01*
X0609293Y0095894D02*
X0605719Y0095894D01*
X0606481Y0095108D02*
X0610079Y0095108D01*
X0610351Y0091964D02*
X0606481Y0091964D01*
X0606481Y0092750D02*
X0638323Y0092750D01*
X0637537Y0091964D02*
X0614249Y0091964D01*
X0615035Y0091178D02*
X0636751Y0091178D01*
X0635965Y0090392D02*
X0615820Y0090392D01*
X0616481Y0089607D02*
X0635179Y0089607D01*
X0634394Y0088821D02*
X0616481Y0088821D01*
X0616481Y0088035D02*
X0633608Y0088035D01*
X0632822Y0087249D02*
X0616481Y0087249D01*
X0616481Y0086463D02*
X0632036Y0086463D01*
X0631250Y0085677D02*
X0615890Y0085677D01*
X0615104Y0084891D02*
X0630464Y0084891D01*
X0629678Y0084105D02*
X0614318Y0084105D01*
X0615137Y0080176D02*
X0650800Y0080176D01*
X0650800Y0080962D02*
X0630989Y0080962D01*
X0631775Y0081747D02*
X0650800Y0081747D01*
X0650800Y0082533D02*
X0632560Y0082533D01*
X0633346Y0083319D02*
X0650800Y0083319D01*
X0650800Y0084105D02*
X0634132Y0084105D01*
X0634918Y0084891D02*
X0650800Y0084891D01*
X0650800Y0085677D02*
X0635704Y0085677D01*
X0636490Y0086463D02*
X0650800Y0086463D01*
X0650800Y0087249D02*
X0637276Y0087249D01*
X0638062Y0088035D02*
X0650800Y0088035D01*
X0650800Y0088821D02*
X0638848Y0088821D01*
X0639634Y0089607D02*
X0650800Y0089607D01*
X0650800Y0090392D02*
X0640420Y0090392D01*
X0641206Y0091178D02*
X0650800Y0091178D01*
X0650800Y0091964D02*
X0641991Y0091964D01*
X0642777Y0092750D02*
X0650800Y0092750D01*
X0650800Y0093536D02*
X0643563Y0093536D01*
X0644349Y0094322D02*
X0650800Y0094322D01*
X0650800Y0095108D02*
X0645135Y0095108D01*
X0645921Y0095894D02*
X0650800Y0095894D01*
X0650800Y0096680D02*
X0646707Y0096680D01*
X0647375Y0097466D02*
X0650800Y0097466D01*
X0650800Y0098252D02*
X0647375Y0098252D01*
X0647375Y0099038D02*
X0650800Y0099038D01*
X0650800Y0099823D02*
X0647375Y0099823D01*
X0647375Y0100609D02*
X0650800Y0100609D01*
X0650800Y0101395D02*
X0647375Y0101395D01*
X0647375Y0102181D02*
X0650800Y0102181D01*
X0650800Y0102967D02*
X0647375Y0102967D01*
X0647375Y0103753D02*
X0650800Y0103753D01*
X0650800Y0104539D02*
X0647375Y0104539D01*
X0647375Y0105325D02*
X0650800Y0105325D01*
X0650800Y0106111D02*
X0647375Y0106111D01*
X0647375Y0106897D02*
X0650800Y0106897D01*
X0650800Y0107683D02*
X0647375Y0107683D01*
X0647375Y0108468D02*
X0650800Y0108468D01*
X0650800Y0109254D02*
X0647375Y0109254D01*
X0647375Y0110040D02*
X0650800Y0110040D01*
X0650800Y0110826D02*
X0647375Y0110826D01*
X0647375Y0111612D02*
X0650800Y0111612D01*
X0650800Y0112398D02*
X0647375Y0112398D01*
X0647375Y0113184D02*
X0650800Y0113184D01*
X0650800Y0113970D02*
X0647375Y0113970D01*
X0647375Y0114756D02*
X0650800Y0114756D01*
X0650800Y0115542D02*
X0647375Y0115542D01*
X0647375Y0116328D02*
X0650800Y0116328D01*
X0650800Y0117114D02*
X0647375Y0117114D01*
X0647375Y0117899D02*
X0650800Y0117899D01*
X0650800Y0118685D02*
X0647375Y0118685D01*
X0647375Y0119471D02*
X0650800Y0119471D01*
X0650800Y0120257D02*
X0647375Y0120257D01*
X0647375Y0121043D02*
X0650800Y0121043D01*
X0650800Y0121829D02*
X0647375Y0121829D01*
X0647375Y0122615D02*
X0650800Y0122615D01*
X0650800Y0123401D02*
X0647375Y0123401D01*
X0647375Y0124187D02*
X0650800Y0124187D01*
X0650800Y0124973D02*
X0647375Y0124973D01*
X0647375Y0125759D02*
X0650800Y0125759D01*
X0650800Y0126544D02*
X0647375Y0126544D01*
X0647375Y0127330D02*
X0650800Y0127330D01*
X0650800Y0128116D02*
X0647375Y0128116D01*
X0647375Y0128902D02*
X0650800Y0128902D01*
X0650800Y0129688D02*
X0647375Y0129688D01*
X0647375Y0130474D02*
X0650800Y0130474D01*
X0650800Y0131260D02*
X0647375Y0131260D01*
X0647375Y0132046D02*
X0650800Y0132046D01*
X0650800Y0132832D02*
X0647375Y0132832D01*
X0647375Y0133618D02*
X0650800Y0133618D01*
X0650800Y0134404D02*
X0647375Y0134404D01*
X0647375Y0135190D02*
X0650800Y0135190D01*
X0650800Y0135975D02*
X0647375Y0135975D01*
X0647375Y0136761D02*
X0650800Y0136761D01*
X0650800Y0137547D02*
X0647375Y0137547D01*
X0647375Y0138333D02*
X0650800Y0138333D01*
X0650800Y0139119D02*
X0647375Y0139119D01*
X0647375Y0139905D02*
X0650800Y0139905D01*
X0650800Y0140691D02*
X0647375Y0140691D01*
X0647375Y0141477D02*
X0650800Y0141477D01*
X0650800Y0142263D02*
X0647375Y0142263D01*
X0647375Y0143049D02*
X0650800Y0143049D01*
X0650800Y0143835D02*
X0647375Y0143835D01*
X0647375Y0144620D02*
X0650800Y0144620D01*
X0650800Y0145406D02*
X0647375Y0145406D01*
X0647375Y0146192D02*
X0650800Y0146192D01*
X0650800Y0146978D02*
X0647375Y0146978D01*
X0647375Y0147764D02*
X0650800Y0147764D01*
X0650800Y0148550D02*
X0647375Y0148550D01*
X0647375Y0149336D02*
X0650800Y0149336D01*
X0650800Y0150122D02*
X0647375Y0150122D01*
X0647375Y0150908D02*
X0650800Y0150908D01*
X0650800Y0151694D02*
X0647375Y0151694D01*
X0647375Y0152480D02*
X0650800Y0152480D01*
X0650800Y0153266D02*
X0647375Y0153266D01*
X0647375Y0154051D02*
X0650800Y0154051D01*
X0650800Y0154837D02*
X0647375Y0154837D01*
X0647375Y0155623D02*
X0650800Y0155623D01*
X0650800Y0156409D02*
X0647375Y0156409D01*
X0647375Y0157195D02*
X0650800Y0157195D01*
X0650800Y0157981D02*
X0647375Y0157981D01*
X0647375Y0158767D02*
X0650800Y0158767D01*
X0650800Y0159553D02*
X0647375Y0159553D01*
X0647375Y0160339D02*
X0650800Y0160339D01*
X0650800Y0161125D02*
X0647375Y0161125D01*
X0647375Y0161911D02*
X0650800Y0161911D01*
X0650800Y0162696D02*
X0647375Y0162696D01*
X0647375Y0163482D02*
X0650800Y0163482D01*
X0650800Y0164268D02*
X0647375Y0164268D01*
X0647375Y0165054D02*
X0650800Y0165054D01*
X0650800Y0165840D02*
X0647375Y0165840D01*
X0647375Y0166626D02*
X0650800Y0166626D01*
X0650800Y0167412D02*
X0647375Y0167412D01*
X0647375Y0168198D02*
X0650800Y0168198D01*
X0650800Y0168984D02*
X0647375Y0168984D01*
X0647375Y0169770D02*
X0650800Y0169770D01*
X0650800Y0170556D02*
X0647375Y0170556D01*
X0647375Y0171342D02*
X0650800Y0171342D01*
X0650800Y0172127D02*
X0647375Y0172127D01*
X0647375Y0172913D02*
X0650800Y0172913D01*
X0650800Y0173699D02*
X0647375Y0173699D01*
X0647375Y0174485D02*
X0650800Y0174485D01*
X0650800Y0175271D02*
X0647375Y0175271D01*
X0647375Y0176057D02*
X0650800Y0176057D01*
X0650800Y0176843D02*
X0647375Y0176843D01*
X0647375Y0177629D02*
X0650800Y0177629D01*
X0650800Y0178415D02*
X0647375Y0178415D01*
X0647375Y0179201D02*
X0650800Y0179201D01*
X0650800Y0179987D02*
X0647375Y0179987D01*
X0647375Y0180772D02*
X0650800Y0180772D01*
X0650800Y0181558D02*
X0647375Y0181558D01*
X0647375Y0182344D02*
X0650800Y0182344D01*
X0650800Y0183130D02*
X0647375Y0183130D01*
X0647375Y0183916D02*
X0650800Y0183916D01*
X0650800Y0184702D02*
X0647375Y0184702D01*
X0647375Y0185488D02*
X0650800Y0185488D01*
X0650800Y0186274D02*
X0647375Y0186274D01*
X0647375Y0187060D02*
X0650800Y0187060D01*
X0650800Y0187846D02*
X0647375Y0187846D01*
X0647375Y0188632D02*
X0650800Y0188632D01*
X0650800Y0189418D02*
X0647375Y0189418D01*
X0647375Y0190203D02*
X0650800Y0190203D01*
X0650800Y0190989D02*
X0647375Y0190989D01*
X0647375Y0191775D02*
X0650800Y0191775D01*
X0650800Y0192561D02*
X0647375Y0192561D01*
X0647375Y0193347D02*
X0650800Y0193347D01*
X0650800Y0194133D02*
X0647375Y0194133D01*
X0647375Y0194919D02*
X0650800Y0194919D01*
X0650800Y0195705D02*
X0647375Y0195705D01*
X0647375Y0196491D02*
X0650800Y0196491D01*
X0650800Y0197277D02*
X0647375Y0197277D01*
X0647375Y0198063D02*
X0650800Y0198063D01*
X0650800Y0198848D02*
X0647375Y0198848D01*
X0647375Y0199634D02*
X0650800Y0199634D01*
X0650800Y0200420D02*
X0647375Y0200420D01*
X0647375Y0201206D02*
X0650800Y0201206D01*
X0650800Y0201992D02*
X0647375Y0201992D01*
X0647375Y0202778D02*
X0650800Y0202778D01*
X0650800Y0203564D02*
X0647375Y0203564D01*
X0647375Y0204350D02*
X0650800Y0204350D01*
X0650800Y0205136D02*
X0647375Y0205136D01*
X0647375Y0205922D02*
X0650800Y0205922D01*
X0650800Y0206708D02*
X0647375Y0206708D01*
X0647375Y0207494D02*
X0650800Y0207494D01*
X0650800Y0208279D02*
X0647375Y0208279D01*
X0647375Y0209065D02*
X0650800Y0209065D01*
X0650800Y0209851D02*
X0647375Y0209851D01*
X0647375Y0210637D02*
X0650800Y0210637D01*
X0650800Y0211423D02*
X0647375Y0211423D01*
X0647375Y0212209D02*
X0650800Y0212209D01*
X0650800Y0212995D02*
X0647375Y0212995D01*
X0647375Y0213781D02*
X0650800Y0213781D01*
X0650800Y0214567D02*
X0647375Y0214567D01*
X0647375Y0215353D02*
X0650800Y0215353D01*
X0650800Y0216139D02*
X0647375Y0216139D01*
X0647375Y0216924D02*
X0650800Y0216924D01*
X0650800Y0217710D02*
X0647375Y0217710D01*
X0647375Y0218496D02*
X0650800Y0218496D01*
X0650800Y0219282D02*
X0647375Y0219282D01*
X0647375Y0220068D02*
X0650800Y0220068D01*
X0650800Y0220854D02*
X0647375Y0220854D01*
X0647375Y0221640D02*
X0650800Y0221640D01*
X0650800Y0222426D02*
X0647375Y0222426D01*
X0647375Y0223212D02*
X0650800Y0223212D01*
X0650800Y0223998D02*
X0647375Y0223998D01*
X0647375Y0224784D02*
X0650800Y0224784D01*
X0650800Y0225570D02*
X0647375Y0225570D01*
X0647375Y0226355D02*
X0650800Y0226355D01*
X0650800Y0227141D02*
X0647375Y0227141D01*
X0647375Y0227927D02*
X0650800Y0227927D01*
X0650800Y0228713D02*
X0647375Y0228713D01*
X0647375Y0229499D02*
X0650800Y0229499D01*
X0650800Y0230285D02*
X0647375Y0230285D01*
X0647375Y0231071D02*
X0650800Y0231071D01*
X0650800Y0231857D02*
X0647375Y0231857D01*
X0647375Y0232643D02*
X0650800Y0232643D01*
X0650800Y0233429D02*
X0647375Y0233429D01*
X0647375Y0234215D02*
X0650800Y0234215D01*
X0650800Y0235000D02*
X0647375Y0235000D01*
X0647375Y0235786D02*
X0650800Y0235786D01*
X0650800Y0236572D02*
X0647375Y0236572D01*
X0647375Y0237358D02*
X0650800Y0237358D01*
X0650800Y0238144D02*
X0647375Y0238144D01*
X0647375Y0238930D02*
X0650800Y0238930D01*
X0650800Y0239716D02*
X0647375Y0239716D01*
X0647375Y0240502D02*
X0650800Y0240502D01*
X0650800Y0241288D02*
X0647375Y0241288D01*
X0647375Y0242074D02*
X0650800Y0242074D01*
X0650800Y0242860D02*
X0647375Y0242860D01*
X0647375Y0243646D02*
X0650800Y0243646D01*
X0650800Y0244431D02*
X0647375Y0244431D01*
X0647375Y0245217D02*
X0650800Y0245217D01*
X0650800Y0246003D02*
X0647375Y0246003D01*
X0647375Y0246789D02*
X0650800Y0246789D01*
X0650800Y0247575D02*
X0647375Y0247575D01*
X0647375Y0248361D02*
X0650800Y0248361D01*
X0650800Y0249147D02*
X0647375Y0249147D01*
X0647375Y0249933D02*
X0650800Y0249933D01*
X0650800Y0250719D02*
X0647375Y0250719D01*
X0647375Y0251505D02*
X0650800Y0251505D01*
X0650800Y0252291D02*
X0647375Y0252291D01*
X0647375Y0253076D02*
X0650800Y0253076D01*
X0650800Y0253862D02*
X0647375Y0253862D01*
X0647375Y0254648D02*
X0650800Y0254648D01*
X0650800Y0255434D02*
X0647375Y0255434D01*
X0647375Y0256220D02*
X0650800Y0256220D01*
X0650800Y0257006D02*
X0647375Y0257006D01*
X0647375Y0257792D02*
X0650800Y0257792D01*
X0650800Y0258578D02*
X0647375Y0258578D01*
X0647375Y0259364D02*
X0650800Y0259364D01*
X0650800Y0260150D02*
X0647375Y0260150D01*
X0647375Y0260936D02*
X0650800Y0260936D01*
X0650800Y0261722D02*
X0647375Y0261722D01*
X0647375Y0262507D02*
X0650800Y0262507D01*
X0650800Y0263293D02*
X0647375Y0263293D01*
X0647375Y0264079D02*
X0650800Y0264079D01*
X0650800Y0264865D02*
X0647375Y0264865D01*
X0647375Y0265651D02*
X0650800Y0265651D01*
X0650800Y0266437D02*
X0647375Y0266437D01*
X0647375Y0267223D02*
X0650800Y0267223D01*
X0650800Y0268009D02*
X0647375Y0268009D01*
X0647375Y0268795D02*
X0650800Y0268795D01*
X0650800Y0269581D02*
X0647375Y0269581D01*
X0647375Y0270367D02*
X0650800Y0270367D01*
X0650800Y0271152D02*
X0647375Y0271152D01*
X0647375Y0271938D02*
X0650800Y0271938D01*
X0650800Y0272724D02*
X0647375Y0272724D01*
X0647375Y0273510D02*
X0650800Y0273510D01*
X0650800Y0274296D02*
X0647231Y0274296D01*
X0646445Y0275082D02*
X0650800Y0275082D01*
X0650800Y0275868D02*
X0645659Y0275868D01*
X0644873Y0276654D02*
X0650800Y0276654D01*
X0650800Y0277440D02*
X0644087Y0277440D01*
X0643301Y0278226D02*
X0650800Y0278226D01*
X0650800Y0279012D02*
X0642516Y0279012D01*
X0641730Y0279798D02*
X0650800Y0279798D01*
X0650800Y0280583D02*
X0640944Y0280583D01*
X0640158Y0281369D02*
X0650800Y0281369D01*
X0650800Y0282155D02*
X0639372Y0282155D01*
X0638586Y0282941D02*
X0650800Y0282941D01*
X0650800Y0283727D02*
X0637800Y0283727D01*
X0637014Y0284513D02*
X0650800Y0284513D01*
X0650800Y0285299D02*
X0636228Y0285299D01*
X0635442Y0286085D02*
X0650800Y0286085D01*
X0650800Y0286871D02*
X0634656Y0286871D01*
X0633870Y0287657D02*
X0650800Y0287657D01*
X0650800Y0288443D02*
X0633085Y0288443D01*
X0632299Y0289228D02*
X0650800Y0289228D01*
X0650800Y0290014D02*
X0631513Y0290014D01*
X0630727Y0290800D02*
X0650800Y0290800D01*
X0650800Y0291586D02*
X0629941Y0291586D01*
X0629155Y0292372D02*
X0650800Y0292372D01*
X0650800Y0293158D02*
X0628369Y0293158D01*
X0627583Y0293944D02*
X0650800Y0293944D01*
X0650800Y0294730D02*
X0626797Y0294730D01*
X0626011Y0295516D02*
X0650800Y0295516D01*
X0650800Y0296302D02*
X0625225Y0296302D01*
X0624440Y0297088D02*
X0650800Y0297088D01*
X0650800Y0297873D02*
X0623654Y0297873D01*
X0622868Y0298659D02*
X0650800Y0298659D01*
X0650800Y0299445D02*
X0622082Y0299445D01*
X0621296Y0300231D02*
X0650800Y0300231D01*
X0650800Y0301017D02*
X0620510Y0301017D01*
X0619724Y0301803D02*
X0650800Y0301803D01*
X0650800Y0302589D02*
X0618938Y0302589D01*
X0618152Y0303375D02*
X0650800Y0303375D01*
X0650800Y0304161D02*
X0617366Y0304161D01*
X0616580Y0304947D02*
X0650800Y0304947D01*
X0650800Y0305733D02*
X0615794Y0305733D01*
X0615009Y0306519D02*
X0650800Y0306519D01*
X0650800Y0307304D02*
X0614223Y0307304D01*
X0617356Y0299445D02*
X0617628Y0299445D01*
X0617761Y0298659D02*
X0618413Y0298659D01*
X0617972Y0297873D02*
X0619199Y0297873D01*
X0619985Y0297088D02*
X0618182Y0297088D01*
X0618393Y0296302D02*
X0620771Y0296302D01*
X0621557Y0295516D02*
X0618481Y0295516D01*
X0618481Y0294730D02*
X0622343Y0294730D01*
X0623129Y0293944D02*
X0618481Y0293944D01*
X0618481Y0293158D02*
X0623915Y0293158D01*
X0624701Y0292372D02*
X0618305Y0292372D01*
X0618095Y0291586D02*
X0625487Y0291586D01*
X0626273Y0290800D02*
X0617884Y0290800D01*
X0617621Y0290014D02*
X0627059Y0290014D01*
X0627844Y0289228D02*
X0617167Y0289228D01*
X0616714Y0288443D02*
X0628630Y0288443D01*
X0629416Y0287657D02*
X0616260Y0287657D01*
X0615483Y0286871D02*
X0630202Y0286871D01*
X0630988Y0286085D02*
X0614697Y0286085D01*
X0613725Y0285299D02*
X0631774Y0285299D01*
X0632560Y0284513D02*
X0612364Y0284513D01*
X0591725Y0293158D02*
X0577434Y0293158D01*
X0577434Y0293944D02*
X0591725Y0293944D01*
X0591725Y0294730D02*
X0577434Y0294730D01*
X0577434Y0295516D02*
X0591725Y0295516D01*
X0591725Y0296302D02*
X0576921Y0296302D01*
X0590913Y0298659D02*
X0554509Y0298659D01*
X0554509Y0294730D02*
X0559583Y0294730D01*
X0559666Y0293944D02*
X0553839Y0293944D01*
X0548800Y0297071D02*
X0548800Y0302500D01*
X0544225Y0302589D02*
X0515800Y0302589D01*
X0515800Y0303375D02*
X0544225Y0303375D01*
X0544225Y0304161D02*
X0515800Y0304161D01*
X0515800Y0304947D02*
X0544520Y0304947D01*
X0545306Y0305733D02*
X0515800Y0305733D01*
X0515800Y0306519D02*
X0546091Y0306519D01*
X0544225Y0301803D02*
X0529464Y0301803D01*
X0526954Y0301803D02*
X0526166Y0301803D01*
X0526166Y0301017D02*
X0526954Y0301017D01*
X0526954Y0300231D02*
X0526166Y0300231D01*
X0526166Y0299445D02*
X0526954Y0299445D01*
X0526954Y0298659D02*
X0526166Y0298659D01*
X0526166Y0297873D02*
X0515800Y0297873D01*
X0515800Y0297088D02*
X0522607Y0297088D01*
X0522607Y0297106D02*
X0522607Y0294364D01*
X0522702Y0294009D01*
X0522886Y0293691D01*
X0523145Y0293432D01*
X0523463Y0293249D01*
X0523817Y0293154D01*
X0526166Y0293154D01*
X0526166Y0297106D01*
X0522607Y0297106D01*
X0522607Y0296302D02*
X0515800Y0296302D01*
X0515800Y0295516D02*
X0522607Y0295516D01*
X0522607Y0294730D02*
X0515800Y0294730D01*
X0515800Y0293944D02*
X0522740Y0293944D01*
X0523801Y0293158D02*
X0515800Y0293158D01*
X0515800Y0292372D02*
X0542831Y0292372D01*
X0543067Y0293158D02*
X0529319Y0293158D01*
X0530380Y0293944D02*
X0530414Y0293944D01*
X0530239Y0290800D02*
X0530658Y0290800D01*
X0526954Y0290800D02*
X0526166Y0290800D01*
X0526166Y0290014D02*
X0526954Y0290014D01*
X0526954Y0289228D02*
X0526166Y0289228D01*
X0526166Y0288443D02*
X0526954Y0288443D01*
X0526954Y0287657D02*
X0526166Y0287657D01*
X0526560Y0287000D02*
X0526560Y0297500D01*
X0526166Y0297088D02*
X0526954Y0297088D01*
X0526954Y0296302D02*
X0526166Y0296302D01*
X0526166Y0295516D02*
X0526954Y0295516D01*
X0526954Y0294730D02*
X0526166Y0294730D01*
X0526166Y0293944D02*
X0526954Y0293944D01*
X0526954Y0293158D02*
X0526166Y0293158D01*
X0522607Y0298659D02*
X0515800Y0298659D01*
X0515800Y0299445D02*
X0522607Y0299445D01*
X0522607Y0300231D02*
X0515800Y0300231D01*
X0515800Y0301017D02*
X0522717Y0301017D01*
X0523655Y0301803D02*
X0515800Y0301803D01*
X0515800Y0308090D02*
X0650800Y0308090D01*
X0650800Y0308876D02*
X0515800Y0308876D01*
X0534040Y0297500D02*
X0534540Y0298000D01*
X0540300Y0298000D01*
X0538333Y0300231D02*
X0537780Y0300231D01*
X0537705Y0301017D02*
X0544225Y0301017D01*
X0544342Y0300231D02*
X0542267Y0300231D01*
X0542914Y0299445D02*
X0543091Y0299445D01*
X0543091Y0296302D02*
X0542800Y0296302D01*
X0543091Y0295516D02*
X0542014Y0295516D01*
X0543091Y0294730D02*
X0537780Y0294730D01*
X0537780Y0295516D02*
X0538586Y0295516D01*
X0537800Y0296302D02*
X0537780Y0296302D01*
X0537666Y0293944D02*
X0543288Y0293944D01*
X0542741Y0287657D02*
X0546230Y0287657D01*
X0545444Y0286871D02*
X0542768Y0286871D01*
X0542634Y0286085D02*
X0545257Y0286085D01*
X0545257Y0285299D02*
X0542297Y0285299D01*
X0541511Y0284513D02*
X0545257Y0284513D01*
X0543432Y0283727D02*
X0537780Y0283727D01*
X0537780Y0284513D02*
X0538089Y0284513D01*
X0537163Y0282941D02*
X0543091Y0282941D01*
X0541728Y0282155D02*
X0515800Y0282155D01*
X0515800Y0281369D02*
X0540942Y0281369D01*
X0540156Y0280583D02*
X0515800Y0280583D01*
X0515800Y0279798D02*
X0539370Y0279798D01*
X0538584Y0279012D02*
X0515800Y0279012D01*
X0518300Y0277000D02*
X0363300Y0277000D01*
X0169300Y0277000D01*
X0151800Y0259500D01*
X0354300Y0262000D02*
X0364300Y0272000D01*
X0451800Y0259500D02*
X0462800Y0270500D01*
X0463300Y0271000D01*
X0489800Y0271000D01*
X0508300Y0271000D01*
X0508800Y0270500D01*
X0516800Y0262500D01*
X0523451Y0253076D02*
X0599711Y0253076D01*
X0600496Y0252291D02*
X0538820Y0252291D01*
X0539993Y0251505D02*
X0608119Y0251505D01*
X0608119Y0252291D02*
X0604104Y0252291D01*
X0604889Y0253076D02*
X0608464Y0253076D01*
X0609249Y0253862D02*
X0605675Y0253862D01*
X0606481Y0256220D02*
X0644225Y0256220D01*
X0644225Y0257006D02*
X0606481Y0257006D01*
X0600137Y0260150D02*
X0541160Y0260150D01*
X0542134Y0259364D02*
X0599351Y0259364D01*
X0598565Y0258578D02*
X0542567Y0258578D01*
X0542336Y0264865D02*
X0598822Y0264865D01*
X0598119Y0265651D02*
X0542661Y0265651D01*
X0542768Y0266437D02*
X0598119Y0266437D01*
X0598119Y0267223D02*
X0542714Y0267223D01*
X0542388Y0268009D02*
X0598119Y0268009D01*
X0598119Y0268795D02*
X0541703Y0268795D01*
X0543244Y0272724D02*
X0539856Y0272724D01*
X0541008Y0273510D02*
X0542092Y0273510D01*
X0541586Y0274296D02*
X0541514Y0274296D01*
X0544300Y0275500D02*
X0545060Y0274740D01*
X0544300Y0275500D02*
X0546831Y0278031D01*
X0546831Y0279031D01*
X0546831Y0280929D01*
X0548800Y0280929D02*
X0548800Y0275500D01*
X0549856Y0272724D02*
X0552244Y0272724D01*
X0551092Y0273510D02*
X0551008Y0273510D01*
X0553300Y0275500D02*
X0550800Y0278000D01*
X0550800Y0280898D01*
X0550769Y0280929D01*
X0550769Y0284969D01*
X0551800Y0286000D01*
X0554768Y0286085D02*
X0555988Y0286085D01*
X0555202Y0286871D02*
X0554652Y0286871D01*
X0554723Y0285299D02*
X0556774Y0285299D01*
X0557560Y0284513D02*
X0554397Y0284513D01*
X0554168Y0283727D02*
X0558346Y0283727D01*
X0559666Y0282941D02*
X0554509Y0282941D01*
X0552737Y0280929D02*
X0556871Y0280929D01*
X0557800Y0280000D01*
X0557800Y0275500D01*
X0556744Y0272724D02*
X0554356Y0272724D01*
X0555508Y0273510D02*
X0555592Y0273510D01*
X0547744Y0272724D02*
X0545356Y0272724D01*
X0546508Y0273510D02*
X0546592Y0273510D01*
X0536542Y0277440D02*
X0520087Y0277440D01*
X0519301Y0278226D02*
X0537623Y0278226D01*
X0530917Y0282941D02*
X0529984Y0282941D01*
X0526954Y0282941D02*
X0526166Y0282941D01*
X0526166Y0283727D02*
X0526954Y0283727D01*
X0526954Y0284513D02*
X0526166Y0284513D01*
X0526166Y0285299D02*
X0526954Y0285299D01*
X0526954Y0286085D02*
X0526166Y0286085D01*
X0522607Y0285299D02*
X0515800Y0285299D01*
X0515800Y0284513D02*
X0522607Y0284513D01*
X0522644Y0283727D02*
X0515800Y0283727D01*
X0515800Y0282941D02*
X0523136Y0282941D01*
X0534040Y0287000D02*
X0539800Y0287000D01*
X0557872Y0282155D02*
X0559722Y0282155D01*
X0558658Y0281369D02*
X0569931Y0281369D01*
X0569053Y0282155D02*
X0567878Y0282155D01*
X0567934Y0282941D02*
X0568954Y0282941D01*
X0568954Y0283727D02*
X0567934Y0283727D01*
X0567934Y0284513D02*
X0568954Y0284513D01*
X0572906Y0283727D02*
X0573694Y0283727D01*
X0573694Y0282941D02*
X0572906Y0282941D01*
X0572906Y0282155D02*
X0573694Y0282155D01*
X0573694Y0281369D02*
X0572906Y0281369D01*
X0561680Y0297088D02*
X0591725Y0297088D01*
X0591699Y0297873D02*
X0560894Y0297873D01*
X0604360Y0271152D02*
X0644225Y0271152D01*
X0644225Y0270367D02*
X0605146Y0270367D01*
X0605932Y0269581D02*
X0644225Y0269581D01*
X0644225Y0268795D02*
X0606481Y0268795D01*
X0606481Y0268009D02*
X0644225Y0268009D01*
X0644225Y0267223D02*
X0606481Y0267223D01*
X0606481Y0266437D02*
X0644225Y0266437D01*
X0644225Y0265651D02*
X0614462Y0265651D01*
X0615248Y0264865D02*
X0644225Y0264865D01*
X0644225Y0264079D02*
X0616034Y0264079D01*
X0616481Y0263293D02*
X0644225Y0263293D01*
X0644225Y0262507D02*
X0616481Y0262507D01*
X0616481Y0261722D02*
X0644225Y0261722D01*
X0644225Y0260936D02*
X0616481Y0260936D01*
X0616463Y0260150D02*
X0644225Y0260150D01*
X0644225Y0259364D02*
X0615677Y0259364D01*
X0614891Y0258578D02*
X0644225Y0258578D01*
X0644225Y0257792D02*
X0614105Y0257792D01*
X0608119Y0263293D02*
X0604206Y0263293D01*
X0604992Y0264079D02*
X0608566Y0264079D01*
X0609352Y0264865D02*
X0605778Y0264865D01*
X0606481Y0265651D02*
X0610138Y0265651D01*
X0608119Y0250719D02*
X0561779Y0250719D01*
X0559800Y0248500D02*
X0559050Y0247750D01*
X0554871Y0243571D01*
X0552737Y0243571D01*
X0550800Y0243539D02*
X0550769Y0243571D01*
X0550769Y0245469D01*
X0550800Y0245500D01*
X0550800Y0246000D01*
X0553300Y0248500D01*
X0556268Y0248361D02*
X0556831Y0248361D01*
X0556855Y0249147D02*
X0556245Y0249147D01*
X0555920Y0249933D02*
X0557180Y0249933D01*
X0557821Y0250719D02*
X0555279Y0250719D01*
X0556130Y0247575D02*
X0556648Y0247575D01*
X0555862Y0246789D02*
X0555787Y0246789D01*
X0555076Y0246003D02*
X0555001Y0246003D01*
X0557173Y0243646D02*
X0567487Y0243646D01*
X0567664Y0243693D02*
X0567309Y0243598D01*
X0566991Y0243414D01*
X0566732Y0243155D01*
X0566549Y0242837D01*
X0566454Y0242483D01*
X0566454Y0240134D01*
X0570406Y0240134D01*
X0570406Y0243693D01*
X0567664Y0243693D01*
X0566561Y0242860D02*
X0564863Y0242860D01*
X0564934Y0242074D02*
X0566454Y0242074D01*
X0566454Y0241288D02*
X0564934Y0241288D01*
X0564934Y0240502D02*
X0566454Y0240502D01*
X0570406Y0240502D02*
X0571194Y0240502D01*
X0571194Y0241288D02*
X0570406Y0241288D01*
X0570406Y0242074D02*
X0571194Y0242074D01*
X0571194Y0242860D02*
X0570406Y0242860D01*
X0570406Y0243646D02*
X0571194Y0243646D01*
X0571194Y0239716D02*
X0608119Y0239716D01*
X0608119Y0240502D02*
X0575146Y0240502D01*
X0560800Y0239740D02*
X0552060Y0239740D01*
X0550800Y0241000D01*
X0550800Y0243539D01*
X0548800Y0243571D02*
X0548800Y0248500D01*
X0546821Y0250719D02*
X0546279Y0250719D01*
X0544300Y0248500D02*
X0546831Y0245969D01*
X0546831Y0243571D01*
X0546831Y0239469D01*
X0547800Y0238500D01*
X0550540Y0237358D02*
X0556666Y0237358D01*
X0556666Y0238144D02*
X0550768Y0238144D01*
X0550070Y0236572D02*
X0556786Y0236572D01*
X0557144Y0235786D02*
X0549006Y0235786D01*
X0547998Y0235000D02*
X0556666Y0235000D01*
X0556666Y0234215D02*
X0548784Y0234215D01*
X0549128Y0233429D02*
X0556666Y0233429D01*
X0556666Y0232643D02*
X0549268Y0232643D01*
X0549247Y0231857D02*
X0556666Y0231857D01*
X0556666Y0231071D02*
X0548921Y0231071D01*
X0546300Y0232500D02*
X0544863Y0231063D01*
X0544863Y0227429D01*
X0543091Y0227141D02*
X0541639Y0227141D01*
X0542362Y0227927D02*
X0543091Y0227927D01*
X0543091Y0228713D02*
X0542687Y0228713D01*
X0542768Y0229499D02*
X0543091Y0229499D01*
X0543288Y0230285D02*
X0542688Y0230285D01*
X0542362Y0231071D02*
X0543288Y0231071D01*
X0543353Y0231857D02*
X0541641Y0231857D01*
X0543331Y0232643D02*
X0538280Y0232643D01*
X0538280Y0233429D02*
X0543472Y0233429D01*
X0545530Y0236572D02*
X0540989Y0236572D01*
X0539611Y0236572D02*
X0538280Y0236572D01*
X0538009Y0235786D02*
X0546594Y0235786D01*
X0544863Y0243571D02*
X0542229Y0243571D01*
X0540713Y0242860D02*
X0538280Y0242860D01*
X0538280Y0242074D02*
X0538756Y0242074D01*
X0540208Y0243646D02*
X0530340Y0243646D01*
X0536587Y0246789D02*
X0520375Y0246789D01*
X0520375Y0246003D02*
X0538446Y0246003D01*
X0539034Y0245217D02*
X0520375Y0245217D01*
X0520375Y0244431D02*
X0539621Y0244431D01*
X0542378Y0246003D02*
X0542599Y0246003D01*
X0542965Y0245217D02*
X0543091Y0245217D01*
X0541813Y0246789D02*
X0541791Y0246789D01*
X0541470Y0247575D02*
X0541204Y0247575D01*
X0541331Y0248361D02*
X0540617Y0248361D01*
X0540768Y0249147D02*
X0541355Y0249147D01*
X0541680Y0249933D02*
X0540768Y0249933D01*
X0540508Y0250719D02*
X0542321Y0250719D01*
X0536780Y0252291D02*
X0524237Y0252291D01*
X0525022Y0251505D02*
X0535607Y0251505D01*
X0535527Y0247575D02*
X0520375Y0247575D01*
X0520375Y0248361D02*
X0523712Y0248361D01*
X0522926Y0249147D02*
X0520375Y0249147D01*
X0520375Y0249933D02*
X0522140Y0249933D01*
X0521354Y0250719D02*
X0520375Y0250719D01*
X0520375Y0251505D02*
X0520568Y0251505D01*
X0520375Y0238930D02*
X0523107Y0238930D01*
X0523107Y0238144D02*
X0520375Y0238144D01*
X0520375Y0237358D02*
X0523107Y0237358D01*
X0523107Y0236572D02*
X0520375Y0236572D01*
X0520375Y0229499D02*
X0523107Y0229499D01*
X0523107Y0229606D02*
X0523107Y0226864D01*
X0523202Y0226509D01*
X0523386Y0226191D01*
X0523645Y0225932D01*
X0523963Y0225749D01*
X0524317Y0225654D01*
X0526666Y0225654D01*
X0526666Y0229606D01*
X0523107Y0229606D01*
X0523107Y0228713D02*
X0520375Y0228713D01*
X0520375Y0227927D02*
X0523107Y0227927D01*
X0523107Y0227141D02*
X0520375Y0227141D01*
X0520375Y0226355D02*
X0523291Y0226355D01*
X0520375Y0225570D02*
X0543091Y0225570D01*
X0543091Y0226355D02*
X0538078Y0226355D01*
X0539800Y0229500D02*
X0535040Y0229500D01*
X0534540Y0230000D01*
X0531003Y0226355D02*
X0530829Y0226355D01*
X0527454Y0226355D02*
X0526666Y0226355D01*
X0526666Y0227141D02*
X0527454Y0227141D01*
X0527454Y0227927D02*
X0526666Y0227927D01*
X0526666Y0228713D02*
X0527454Y0228713D01*
X0527454Y0229499D02*
X0526666Y0229499D01*
X0520375Y0224784D02*
X0543279Y0224784D01*
X0543725Y0223998D02*
X0520375Y0223998D01*
X0520375Y0223212D02*
X0543725Y0223212D01*
X0543725Y0222426D02*
X0520375Y0222426D01*
X0520375Y0221640D02*
X0543725Y0221640D01*
X0543725Y0220854D02*
X0520375Y0220854D01*
X0520375Y0220068D02*
X0543725Y0220068D01*
X0544291Y0219282D02*
X0520375Y0219282D01*
X0520375Y0218496D02*
X0545077Y0218496D01*
X0546300Y0219500D02*
X0545300Y0220500D01*
X0545300Y0223500D01*
X0546831Y0225031D01*
X0546831Y0227429D01*
X0548800Y0227429D02*
X0548800Y0222500D01*
X0550800Y0225000D02*
X0552800Y0223000D01*
X0553300Y0223000D01*
X0582800Y0223000D01*
X0591529Y0223998D02*
X0598119Y0223998D01*
X0598119Y0224784D02*
X0554321Y0224784D01*
X0554509Y0225570D02*
X0598157Y0225570D01*
X0598119Y0223212D02*
X0592315Y0223212D01*
X0593101Y0222426D02*
X0598119Y0222426D01*
X0598547Y0221640D02*
X0593887Y0221640D01*
X0594673Y0220854D02*
X0599333Y0220854D01*
X0608875Y0212995D02*
X0644225Y0212995D01*
X0644225Y0212209D02*
X0608875Y0212209D01*
X0608875Y0211423D02*
X0610310Y0211423D01*
X0609524Y0210637D02*
X0608875Y0210637D01*
X0614290Y0211423D02*
X0644225Y0211423D01*
X0644225Y0210637D02*
X0615076Y0210637D01*
X0615862Y0209851D02*
X0644225Y0209851D01*
X0644225Y0209065D02*
X0616481Y0209065D01*
X0616481Y0208279D02*
X0644225Y0208279D01*
X0644225Y0207494D02*
X0616481Y0207494D01*
X0616481Y0206708D02*
X0644225Y0206708D01*
X0644225Y0205922D02*
X0616481Y0205922D01*
X0615849Y0205136D02*
X0644225Y0205136D01*
X0644225Y0204350D02*
X0615063Y0204350D01*
X0614277Y0203564D02*
X0644225Y0203564D01*
X0644225Y0202778D02*
X0608875Y0202778D01*
X0608875Y0201992D02*
X0644225Y0201992D01*
X0644225Y0201206D02*
X0608875Y0201206D01*
X0608875Y0200420D02*
X0610107Y0200420D01*
X0609321Y0199634D02*
X0608875Y0199634D01*
X0608875Y0194133D02*
X0608954Y0194133D01*
X0608875Y0193347D02*
X0609740Y0193347D01*
X0610526Y0192561D02*
X0608875Y0192561D01*
X0608875Y0191775D02*
X0644225Y0191775D01*
X0644225Y0190989D02*
X0608875Y0190989D01*
X0608875Y0190203D02*
X0644225Y0190203D01*
X0644225Y0189418D02*
X0614595Y0189418D01*
X0615381Y0188632D02*
X0644225Y0188632D01*
X0644225Y0187846D02*
X0616167Y0187846D01*
X0616481Y0187060D02*
X0644225Y0187060D01*
X0644225Y0186274D02*
X0616481Y0186274D01*
X0616481Y0185488D02*
X0644225Y0185488D01*
X0644225Y0184702D02*
X0616481Y0184702D01*
X0616329Y0183916D02*
X0644225Y0183916D01*
X0644225Y0183130D02*
X0615543Y0183130D01*
X0614757Y0182344D02*
X0644225Y0182344D01*
X0644225Y0181558D02*
X0608875Y0181558D01*
X0608875Y0180772D02*
X0644225Y0180772D01*
X0644225Y0179987D02*
X0608875Y0179987D01*
X0608875Y0179201D02*
X0644225Y0179201D01*
X0644225Y0178415D02*
X0614698Y0178415D01*
X0615484Y0177629D02*
X0644225Y0177629D01*
X0644225Y0176843D02*
X0616270Y0176843D01*
X0616481Y0176057D02*
X0644225Y0176057D01*
X0644225Y0175271D02*
X0616481Y0175271D01*
X0616481Y0174485D02*
X0644225Y0174485D01*
X0644225Y0173699D02*
X0616481Y0173699D01*
X0616226Y0172913D02*
X0644225Y0172913D01*
X0644225Y0172127D02*
X0615440Y0172127D01*
X0614654Y0171342D02*
X0644225Y0171342D01*
X0644225Y0170556D02*
X0608875Y0170556D01*
X0608875Y0171342D02*
X0609946Y0171342D01*
X0609160Y0172127D02*
X0608875Y0172127D01*
X0608875Y0169770D02*
X0644225Y0169770D01*
X0644225Y0168984D02*
X0608875Y0168984D01*
X0608875Y0168198D02*
X0610485Y0168198D01*
X0609699Y0167412D02*
X0608875Y0167412D01*
X0608875Y0166626D02*
X0608913Y0166626D01*
X0614115Y0168198D02*
X0644225Y0168198D01*
X0644225Y0167412D02*
X0614901Y0167412D01*
X0615687Y0166626D02*
X0644225Y0166626D01*
X0644225Y0165840D02*
X0616473Y0165840D01*
X0616481Y0165054D02*
X0644225Y0165054D01*
X0644225Y0164268D02*
X0616481Y0164268D01*
X0616481Y0163482D02*
X0644225Y0163482D01*
X0644225Y0162696D02*
X0616481Y0162696D01*
X0616024Y0161911D02*
X0644225Y0161911D01*
X0644225Y0161125D02*
X0615238Y0161125D01*
X0614452Y0160339D02*
X0644225Y0160339D01*
X0644225Y0159553D02*
X0608875Y0159553D01*
X0608875Y0160339D02*
X0610148Y0160339D01*
X0609362Y0161125D02*
X0608875Y0161125D01*
X0608875Y0158767D02*
X0644225Y0158767D01*
X0644225Y0157981D02*
X0608875Y0157981D01*
X0608875Y0157195D02*
X0610382Y0157195D01*
X0609596Y0156409D02*
X0608875Y0156409D01*
X0614218Y0157195D02*
X0644225Y0157195D01*
X0644225Y0156409D02*
X0615004Y0156409D01*
X0615790Y0155623D02*
X0644225Y0155623D01*
X0644225Y0154837D02*
X0616481Y0154837D01*
X0616481Y0154051D02*
X0644225Y0154051D01*
X0644225Y0153266D02*
X0616481Y0153266D01*
X0616481Y0152480D02*
X0644225Y0152480D01*
X0644225Y0151694D02*
X0616481Y0151694D01*
X0615921Y0150908D02*
X0644225Y0150908D01*
X0644225Y0150122D02*
X0615135Y0150122D01*
X0614349Y0149336D02*
X0644225Y0149336D01*
X0644225Y0148550D02*
X0608875Y0148550D01*
X0608875Y0147764D02*
X0644225Y0147764D01*
X0644225Y0146978D02*
X0608875Y0146978D01*
X0608875Y0146192D02*
X0610279Y0146192D01*
X0609493Y0145406D02*
X0608875Y0145406D01*
X0608875Y0149336D02*
X0610251Y0149336D01*
X0609465Y0150122D02*
X0608875Y0150122D01*
X0614321Y0146192D02*
X0644225Y0146192D01*
X0644225Y0145406D02*
X0615107Y0145406D01*
X0615892Y0144620D02*
X0644225Y0144620D01*
X0644225Y0143835D02*
X0616481Y0143835D01*
X0616481Y0143049D02*
X0644225Y0143049D01*
X0644225Y0142263D02*
X0616481Y0142263D01*
X0616481Y0141477D02*
X0644225Y0141477D01*
X0644225Y0140691D02*
X0616481Y0140691D01*
X0615818Y0139905D02*
X0644225Y0139905D01*
X0644225Y0139119D02*
X0615032Y0139119D01*
X0614246Y0138333D02*
X0644225Y0138333D01*
X0644225Y0123401D02*
X0615412Y0123401D01*
X0616198Y0122615D02*
X0644225Y0122615D01*
X0644225Y0121829D02*
X0616481Y0121829D01*
X0616481Y0121043D02*
X0644225Y0121043D01*
X0644225Y0120257D02*
X0616481Y0120257D01*
X0616481Y0119471D02*
X0644225Y0119471D01*
X0644225Y0118685D02*
X0616298Y0118685D01*
X0615512Y0117899D02*
X0644225Y0117899D01*
X0644225Y0117114D02*
X0614726Y0117114D01*
X0614729Y0113184D02*
X0644225Y0113184D01*
X0644225Y0112398D02*
X0615515Y0112398D01*
X0616301Y0111612D02*
X0644225Y0111612D01*
X0644225Y0110826D02*
X0616481Y0110826D01*
X0616481Y0110040D02*
X0644225Y0110040D01*
X0644225Y0109254D02*
X0616481Y0109254D01*
X0616481Y0108468D02*
X0644225Y0108468D01*
X0644225Y0107683D02*
X0616196Y0107683D01*
X0615410Y0106897D02*
X0644225Y0106897D01*
X0644225Y0106111D02*
X0614624Y0106111D01*
X0614046Y0102967D02*
X0644225Y0102967D01*
X0644225Y0102181D02*
X0614832Y0102181D01*
X0615618Y0101395D02*
X0644225Y0101395D01*
X0644225Y0100609D02*
X0616404Y0100609D01*
X0616481Y0099823D02*
X0644225Y0099823D01*
X0644225Y0099038D02*
X0616481Y0099038D01*
X0616481Y0098252D02*
X0643825Y0098252D01*
X0643039Y0097466D02*
X0616481Y0097466D01*
X0616093Y0096680D02*
X0642253Y0096680D01*
X0641467Y0095894D02*
X0615307Y0095894D01*
X0614521Y0095108D02*
X0640681Y0095108D01*
X0639895Y0094322D02*
X0606481Y0094322D01*
X0606481Y0093536D02*
X0639109Y0093536D01*
X0644225Y0103753D02*
X0606481Y0103753D01*
X0606481Y0102967D02*
X0610554Y0102967D01*
X0609768Y0102181D02*
X0606094Y0102181D01*
X0605308Y0101395D02*
X0608982Y0101395D01*
X0608196Y0100609D02*
X0604522Y0100609D01*
X0606481Y0104539D02*
X0644225Y0104539D01*
X0644225Y0105325D02*
X0606481Y0105325D01*
X0606638Y0106111D02*
X0609976Y0106111D01*
X0609190Y0106897D02*
X0607424Y0106897D01*
X0608210Y0107683D02*
X0608404Y0107683D01*
X0604541Y0108468D02*
X0604044Y0108468D01*
X0600453Y0097466D02*
X0561268Y0097466D01*
X0560966Y0096680D02*
X0599667Y0096680D01*
X0598881Y0095894D02*
X0560392Y0095894D01*
X0559075Y0095108D02*
X0598119Y0095108D01*
X0598119Y0094322D02*
X0515800Y0094322D01*
X0515800Y0093536D02*
X0598119Y0093536D01*
X0598119Y0092750D02*
X0515800Y0092750D01*
X0515800Y0091964D02*
X0539699Y0091964D01*
X0539710Y0091968D02*
X0538618Y0091517D01*
X0537783Y0090682D01*
X0537331Y0089590D01*
X0537331Y0088410D01*
X0537783Y0087318D01*
X0538618Y0086483D01*
X0539710Y0086031D01*
X0540890Y0086031D01*
X0541982Y0086483D01*
X0542817Y0087318D01*
X0543268Y0088410D01*
X0543268Y0089590D01*
X0542817Y0090682D01*
X0541982Y0091517D01*
X0540890Y0091968D01*
X0539710Y0091968D01*
X0540901Y0091964D02*
X0598119Y0091964D01*
X0598609Y0091178D02*
X0542320Y0091178D01*
X0542936Y0090392D02*
X0599395Y0090392D01*
X0600180Y0089607D02*
X0543262Y0089607D01*
X0543268Y0088821D02*
X0608119Y0088821D01*
X0608119Y0089607D02*
X0604420Y0089607D01*
X0605205Y0090392D02*
X0608780Y0090392D01*
X0609565Y0091178D02*
X0605991Y0091178D01*
X0608119Y0088035D02*
X0543113Y0088035D01*
X0542747Y0087249D02*
X0608119Y0087249D01*
X0608119Y0086463D02*
X0604250Y0086463D01*
X0605036Y0085677D02*
X0608710Y0085677D01*
X0609496Y0084891D02*
X0605822Y0084891D01*
X0606481Y0084105D02*
X0610282Y0084105D01*
X0609463Y0080176D02*
X0605889Y0080176D01*
X0605103Y0079390D02*
X0608677Y0079390D01*
X0615923Y0079390D02*
X0650800Y0079390D01*
X0650800Y0078604D02*
X0616481Y0078604D01*
X0616481Y0077818D02*
X0650800Y0077818D01*
X0650800Y0077032D02*
X0616481Y0077032D01*
X0616481Y0076246D02*
X0650800Y0076246D01*
X0650800Y0075460D02*
X0616481Y0075460D01*
X0615787Y0074674D02*
X0650800Y0074674D01*
X0650800Y0073888D02*
X0615001Y0073888D01*
X0614215Y0073102D02*
X0650800Y0073102D01*
X0650800Y0061314D02*
X0575646Y0061314D01*
X0575646Y0060528D02*
X0650800Y0060528D01*
X0650800Y0059742D02*
X0575646Y0059742D01*
X0575443Y0058956D02*
X0650800Y0058956D01*
X0650800Y0058170D02*
X0575072Y0058170D01*
X0575434Y0057384D02*
X0650800Y0057384D01*
X0650800Y0056598D02*
X0575434Y0056598D01*
X0575434Y0055812D02*
X0650800Y0055812D01*
X0650800Y0055026D02*
X0611215Y0055026D01*
X0611616Y0054919D02*
X0608772Y0055681D01*
X0605828Y0055681D01*
X0602984Y0054919D01*
X0600435Y0053447D01*
X0598353Y0051365D01*
X0596881Y0048816D01*
X0596119Y0045972D01*
X0596119Y0043028D01*
X0596881Y0040184D01*
X0598353Y0037635D01*
X0600435Y0035553D01*
X0602984Y0034081D01*
X0605828Y0033319D01*
X0608772Y0033319D01*
X0611616Y0034081D01*
X0614165Y0035553D01*
X0616247Y0037635D01*
X0617719Y0040184D01*
X0618481Y0043028D01*
X0618481Y0045972D01*
X0617719Y0048816D01*
X0616247Y0051365D01*
X0614165Y0053447D01*
X0611616Y0054919D01*
X0612791Y0054241D02*
X0650800Y0054241D01*
X0650800Y0053455D02*
X0614152Y0053455D01*
X0614944Y0052669D02*
X0650800Y0052669D01*
X0650800Y0051883D02*
X0615730Y0051883D01*
X0616402Y0051097D02*
X0650800Y0051097D01*
X0650800Y0050311D02*
X0616856Y0050311D01*
X0617310Y0049525D02*
X0650800Y0049525D01*
X0650800Y0048739D02*
X0617740Y0048739D01*
X0617950Y0047953D02*
X0650800Y0047953D01*
X0650800Y0047167D02*
X0618161Y0047167D01*
X0618371Y0046381D02*
X0650800Y0046381D01*
X0650800Y0045595D02*
X0618481Y0045595D01*
X0618481Y0044810D02*
X0650800Y0044810D01*
X0650800Y0044024D02*
X0618481Y0044024D01*
X0618481Y0043238D02*
X0650800Y0043238D01*
X0650800Y0042452D02*
X0618327Y0042452D01*
X0618116Y0041666D02*
X0650800Y0041666D01*
X0650800Y0040880D02*
X0617906Y0040880D01*
X0617667Y0040094D02*
X0650800Y0040094D01*
X0650800Y0039308D02*
X0617213Y0039308D01*
X0616760Y0038522D02*
X0650800Y0038522D01*
X0650800Y0037736D02*
X0616306Y0037736D01*
X0615563Y0036950D02*
X0650800Y0036950D01*
X0650800Y0036165D02*
X0614777Y0036165D01*
X0613863Y0035379D02*
X0650800Y0035379D01*
X0650800Y0034593D02*
X0612502Y0034593D01*
X0610593Y0033807D02*
X0650800Y0033807D01*
X0650800Y0033021D02*
X0515800Y0033021D01*
X0515800Y0033807D02*
X0604007Y0033807D01*
X0602098Y0034593D02*
X0515800Y0034593D01*
X0515800Y0035379D02*
X0600737Y0035379D01*
X0599823Y0036165D02*
X0515800Y0036165D01*
X0515800Y0036950D02*
X0599037Y0036950D01*
X0598294Y0037736D02*
X0515800Y0037736D01*
X0515800Y0038522D02*
X0597840Y0038522D01*
X0597387Y0039308D02*
X0515800Y0039308D01*
X0515800Y0040094D02*
X0596933Y0040094D01*
X0596694Y0040880D02*
X0554407Y0040880D01*
X0553300Y0042000D02*
X0554300Y0043000D01*
X0577800Y0043000D01*
X0578800Y0044000D01*
X0581768Y0044024D02*
X0596119Y0044024D01*
X0596119Y0044810D02*
X0581678Y0044810D01*
X0581352Y0045595D02*
X0596119Y0045595D01*
X0596229Y0046381D02*
X0580617Y0046381D01*
X0579461Y0047167D02*
X0596439Y0047167D01*
X0596650Y0047953D02*
X0579768Y0047953D01*
X0579768Y0048739D02*
X0596860Y0048739D01*
X0597290Y0049525D02*
X0579588Y0049525D01*
X0579187Y0050311D02*
X0597744Y0050311D01*
X0598198Y0051097D02*
X0578288Y0051097D01*
X0575434Y0051883D02*
X0598870Y0051883D01*
X0599656Y0052669D02*
X0575434Y0052669D01*
X0575434Y0053455D02*
X0600448Y0053455D01*
X0601809Y0054241D02*
X0575434Y0054241D01*
X0575434Y0055026D02*
X0603385Y0055026D01*
X0600486Y0067601D02*
X0559628Y0067601D01*
X0559875Y0068387D02*
X0599700Y0068387D01*
X0598914Y0069173D02*
X0560671Y0069173D01*
X0561082Y0069959D02*
X0598128Y0069959D01*
X0598119Y0070745D02*
X0561268Y0070745D01*
X0561268Y0071531D02*
X0598119Y0071531D01*
X0598119Y0072316D02*
X0560968Y0072316D01*
X0560396Y0073102D02*
X0598119Y0073102D01*
X0598575Y0073888D02*
X0559084Y0073888D01*
X0557516Y0073888D02*
X0554584Y0073888D01*
X0555896Y0073102D02*
X0556204Y0073102D01*
X0558300Y0071000D02*
X0558300Y0068500D01*
X0555871Y0066071D01*
X0553237Y0066071D01*
X0551300Y0066039D02*
X0551269Y0066071D01*
X0551269Y0067969D01*
X0551300Y0068000D01*
X0551300Y0068500D01*
X0553800Y0071000D01*
X0551704Y0073102D02*
X0551396Y0073102D01*
X0550084Y0073888D02*
X0553016Y0073888D01*
X0548516Y0073888D02*
X0545584Y0073888D01*
X0546896Y0073102D02*
X0547204Y0073102D01*
X0549300Y0071000D02*
X0549300Y0066071D01*
X0547331Y0066071D02*
X0547331Y0068469D01*
X0544800Y0071000D01*
X0545363Y0066071D02*
X0542729Y0066071D01*
X0542883Y0064457D02*
X0542541Y0064457D01*
X0543201Y0064457D02*
X0543591Y0064457D01*
X0543591Y0063671D02*
X0543321Y0063671D01*
X0543646Y0062886D02*
X0545757Y0062886D01*
X0545542Y0062100D02*
X0543768Y0062100D01*
X0543729Y0061314D02*
X0545331Y0061314D01*
X0545331Y0060528D02*
X0543403Y0060528D01*
X0542740Y0059742D02*
X0545608Y0059742D01*
X0547331Y0061969D02*
X0548300Y0061000D01*
X0547331Y0061969D02*
X0547331Y0066071D01*
X0551300Y0066039D02*
X0551300Y0063500D01*
X0552560Y0062240D01*
X0561300Y0062240D01*
X0565434Y0061314D02*
X0566954Y0061314D01*
X0566954Y0060528D02*
X0565434Y0060528D01*
X0565434Y0059742D02*
X0566954Y0059742D01*
X0567157Y0058956D02*
X0565198Y0058956D01*
X0565072Y0058170D02*
X0567528Y0058170D01*
X0567166Y0057384D02*
X0565434Y0057384D01*
X0565434Y0056598D02*
X0567166Y0056598D01*
X0571300Y0054760D02*
X0561300Y0054760D01*
X0556469Y0049929D01*
X0553237Y0049929D01*
X0551269Y0049929D02*
X0551269Y0048031D01*
X0551269Y0047531D01*
X0551300Y0047500D01*
X0553300Y0045500D01*
X0553800Y0045500D01*
X0573800Y0045500D01*
X0576800Y0048500D01*
X0574012Y0049525D02*
X0558292Y0049525D01*
X0557506Y0048739D02*
X0573831Y0048739D01*
X0573831Y0047953D02*
X0555009Y0047953D01*
X0554705Y0047167D02*
X0573240Y0047167D01*
X0574413Y0050311D02*
X0559078Y0050311D01*
X0556982Y0052669D02*
X0554727Y0052669D01*
X0555009Y0051883D02*
X0556196Y0051883D01*
X0557166Y0053455D02*
X0549373Y0053455D01*
X0549698Y0054241D02*
X0557166Y0054241D01*
X0557166Y0055026D02*
X0549768Y0055026D01*
X0549677Y0055812D02*
X0557166Y0055812D01*
X0557166Y0056598D02*
X0549351Y0056598D01*
X0548614Y0057384D02*
X0557166Y0057384D01*
X0557528Y0058170D02*
X0549225Y0058170D01*
X0550454Y0058956D02*
X0557402Y0058956D01*
X0557166Y0059742D02*
X0550992Y0059742D01*
X0551268Y0060528D02*
X0557166Y0060528D01*
X0558952Y0066925D02*
X0558952Y0066925D01*
X0536999Y0074674D02*
X0519353Y0074674D01*
X0520139Y0073888D02*
X0535990Y0073888D01*
X0531887Y0066029D02*
X0531013Y0066029D01*
X0527954Y0066029D02*
X0527166Y0066029D01*
X0527166Y0065243D02*
X0527954Y0065243D01*
X0527954Y0064457D02*
X0527166Y0064457D01*
X0527166Y0063671D02*
X0527954Y0063671D01*
X0527954Y0062886D02*
X0527166Y0062886D01*
X0527166Y0062100D02*
X0515800Y0062100D01*
X0515800Y0062886D02*
X0523607Y0062886D01*
X0523607Y0063671D02*
X0515800Y0063671D01*
X0515800Y0064457D02*
X0523607Y0064457D01*
X0523636Y0065243D02*
X0515800Y0065243D01*
X0515800Y0066029D02*
X0524106Y0066029D01*
X0523607Y0061314D02*
X0515800Y0061314D01*
X0515800Y0060528D02*
X0523607Y0060528D01*
X0523607Y0059742D02*
X0515800Y0059742D01*
X0515800Y0058956D02*
X0523607Y0058956D01*
X0531213Y0058170D02*
X0531688Y0058170D01*
X0531956Y0056598D02*
X0530922Y0056598D01*
X0527560Y0052500D02*
X0527560Y0051760D01*
X0527300Y0051500D01*
X0527300Y0050000D01*
X0523800Y0046500D01*
X0526300Y0046500D01*
X0529300Y0043500D01*
X0523800Y0046500D02*
X0523800Y0036500D01*
X0518800Y0031500D01*
X0515800Y0031449D02*
X0650800Y0031449D01*
X0650800Y0030663D02*
X0515800Y0030663D01*
X0515800Y0029877D02*
X0650800Y0029877D01*
X0650800Y0029091D02*
X0515800Y0029091D01*
X0515800Y0032235D02*
X0650800Y0032235D01*
X0596484Y0041666D02*
X0580664Y0041666D01*
X0581372Y0042452D02*
X0596273Y0042452D01*
X0596119Y0043238D02*
X0581697Y0043238D01*
X0575312Y0051097D02*
X0574819Y0051097D01*
X0567781Y0051097D02*
X0564819Y0051097D01*
X0565434Y0051883D02*
X0567166Y0051883D01*
X0567166Y0052669D02*
X0565434Y0052669D01*
X0549300Y0049929D02*
X0549300Y0045000D01*
X0547331Y0047531D02*
X0545800Y0046000D01*
X0545800Y0043000D01*
X0546800Y0042000D01*
X0553300Y0042000D01*
X0545693Y0040880D02*
X0515800Y0040880D01*
X0515800Y0041666D02*
X0544907Y0041666D01*
X0544225Y0042452D02*
X0515800Y0042452D01*
X0515800Y0043238D02*
X0544225Y0043238D01*
X0544225Y0044024D02*
X0515800Y0044024D01*
X0515800Y0044810D02*
X0544225Y0044810D01*
X0544225Y0045595D02*
X0515800Y0045595D01*
X0515800Y0046381D02*
X0544225Y0046381D01*
X0543895Y0047167D02*
X0515800Y0047167D01*
X0515800Y0047953D02*
X0543591Y0047953D01*
X0543591Y0048739D02*
X0538461Y0048739D01*
X0542023Y0049525D02*
X0543591Y0049525D01*
X0543591Y0050311D02*
X0542809Y0050311D01*
X0543139Y0051097D02*
X0543591Y0051097D01*
X0543591Y0051883D02*
X0543268Y0051883D01*
X0543236Y0052669D02*
X0543788Y0052669D01*
X0543788Y0053455D02*
X0542911Y0053455D01*
X0542258Y0054241D02*
X0543813Y0054241D01*
X0545363Y0053563D02*
X0546800Y0055000D01*
X0545363Y0053563D02*
X0545363Y0049929D01*
X0547331Y0049929D02*
X0547331Y0047531D01*
X0540300Y0052000D02*
X0535540Y0052000D01*
X0535040Y0052500D01*
X0531619Y0048739D02*
X0531262Y0048739D01*
X0527954Y0048739D02*
X0527166Y0048739D01*
X0527166Y0048154D02*
X0524817Y0048154D01*
X0524463Y0048249D01*
X0524145Y0048432D01*
X0523886Y0048691D01*
X0523702Y0049009D01*
X0523607Y0049364D01*
X0523607Y0052106D01*
X0527166Y0052106D01*
X0527166Y0048154D01*
X0527166Y0049525D02*
X0527954Y0049525D01*
X0527954Y0050311D02*
X0527166Y0050311D01*
X0527166Y0051097D02*
X0527954Y0051097D01*
X0527954Y0051883D02*
X0527166Y0051883D01*
X0523607Y0051883D02*
X0515800Y0051883D01*
X0515800Y0051097D02*
X0523607Y0051097D01*
X0523607Y0050311D02*
X0515800Y0050311D01*
X0515800Y0049525D02*
X0523607Y0049525D01*
X0523858Y0048739D02*
X0515800Y0048739D01*
X0515800Y0084105D02*
X0598119Y0084105D01*
X0598778Y0084891D02*
X0515800Y0084891D01*
X0515800Y0085677D02*
X0599564Y0085677D01*
X0600350Y0086463D02*
X0541932Y0086463D01*
X0538668Y0086463D02*
X0515800Y0086463D01*
X0515800Y0087249D02*
X0537853Y0087249D01*
X0537487Y0088035D02*
X0515800Y0088035D01*
X0515800Y0088821D02*
X0537331Y0088821D01*
X0537338Y0089607D02*
X0515800Y0089607D01*
X0515800Y0090392D02*
X0537664Y0090392D01*
X0538280Y0091178D02*
X0515800Y0091178D01*
X0515800Y0096680D02*
X0519893Y0096680D01*
X0519107Y0097466D02*
X0515800Y0097466D01*
X0515800Y0098252D02*
X0518321Y0098252D01*
X0517535Y0099038D02*
X0515800Y0099038D01*
X0515800Y0099823D02*
X0516749Y0099823D01*
X0515964Y0100609D02*
X0515800Y0100609D01*
X0516375Y0110826D02*
X0523107Y0110826D01*
X0523107Y0111612D02*
X0516375Y0111612D01*
X0516375Y0112398D02*
X0523107Y0112398D01*
X0523314Y0113184D02*
X0516375Y0113184D01*
X0526666Y0116328D02*
X0527454Y0116328D01*
X0527454Y0117114D02*
X0526666Y0117114D01*
X0526666Y0117899D02*
X0527454Y0117899D01*
X0527454Y0118685D02*
X0526666Y0118685D01*
X0526666Y0119471D02*
X0527454Y0119471D01*
X0526666Y0120257D02*
X0516375Y0120257D01*
X0526666Y0121043D02*
X0527454Y0121043D01*
X0527454Y0121829D02*
X0526666Y0121829D01*
X0526666Y0122615D02*
X0527454Y0122615D01*
X0527454Y0123401D02*
X0526666Y0123401D01*
X0526666Y0124187D02*
X0527454Y0124187D01*
X0530269Y0124187D02*
X0544725Y0124187D01*
X0549300Y0125000D02*
X0549300Y0119571D01*
X0540300Y0109500D02*
X0534540Y0109500D01*
X0547331Y0108531D02*
X0547331Y0106031D01*
X0547331Y0103429D01*
X0549300Y0103429D02*
X0549300Y0098000D01*
X0551392Y0095894D02*
X0551708Y0095894D01*
X0553025Y0095108D02*
X0550075Y0095108D01*
X0554575Y0095108D02*
X0557525Y0095108D01*
X0556208Y0095894D02*
X0555892Y0095894D01*
X0553800Y0098000D02*
X0551300Y0100500D01*
X0551300Y0103398D01*
X0551269Y0103429D01*
X0551269Y0107469D01*
X0552300Y0108500D01*
X0553237Y0103429D02*
X0557371Y0103429D01*
X0558300Y0102500D01*
X0558300Y0098000D01*
X0608875Y0123401D02*
X0609188Y0123401D01*
X0608875Y0124187D02*
X0609974Y0124187D01*
X0605725Y0132832D02*
X0604145Y0132832D01*
X0604931Y0133618D02*
X0605725Y0133618D01*
X0605717Y0134404D02*
X0605725Y0134404D01*
X0608875Y0134404D02*
X0609291Y0134404D01*
X0608875Y0135190D02*
X0610077Y0135190D01*
X0581069Y0149336D02*
X0575646Y0149336D01*
X0575646Y0150122D02*
X0580831Y0150122D01*
X0577623Y0148550D02*
X0575646Y0148550D01*
X0575584Y0147764D02*
X0576837Y0147764D01*
X0576051Y0146978D02*
X0574957Y0146978D01*
X0575434Y0146192D02*
X0575725Y0146192D01*
X0575725Y0145406D02*
X0575434Y0145406D01*
X0575434Y0144620D02*
X0575725Y0144620D01*
X0575725Y0143835D02*
X0575434Y0143835D01*
X0575434Y0143049D02*
X0575725Y0143049D01*
X0575725Y0142263D02*
X0575434Y0142263D01*
X0575434Y0141477D02*
X0575725Y0141477D01*
X0575725Y0140691D02*
X0575434Y0140691D01*
X0575725Y0139905D02*
X0575127Y0139905D01*
X0575692Y0139119D02*
X0559386Y0139119D01*
X0558600Y0138333D02*
X0574906Y0138333D01*
X0574120Y0137547D02*
X0557815Y0137547D01*
X0555009Y0136761D02*
X0573334Y0136761D01*
X0572548Y0135975D02*
X0555009Y0135975D01*
X0549300Y0138429D02*
X0549300Y0133500D01*
X0555009Y0140691D02*
X0556504Y0140691D01*
X0557166Y0141477D02*
X0554419Y0141477D01*
X0552012Y0161911D02*
X0551088Y0161911D01*
X0608875Y0177629D02*
X0609116Y0177629D01*
X0608875Y0178415D02*
X0609902Y0178415D01*
X0609843Y0182344D02*
X0608875Y0182344D01*
X0608875Y0183130D02*
X0609057Y0183130D01*
X0609219Y0188632D02*
X0608875Y0188632D01*
X0608875Y0189418D02*
X0610005Y0189418D01*
X0614074Y0192561D02*
X0644225Y0192561D01*
X0644225Y0193347D02*
X0614860Y0193347D01*
X0615646Y0194133D02*
X0644225Y0194133D01*
X0644225Y0194919D02*
X0616432Y0194919D01*
X0616481Y0195705D02*
X0644225Y0195705D01*
X0644225Y0196491D02*
X0616481Y0196491D01*
X0616481Y0197277D02*
X0644225Y0197277D01*
X0644225Y0198063D02*
X0616481Y0198063D01*
X0616064Y0198848D02*
X0644225Y0198848D01*
X0644225Y0199634D02*
X0615279Y0199634D01*
X0614493Y0200420D02*
X0644225Y0200420D01*
X0610323Y0203564D02*
X0608875Y0203564D01*
X0608875Y0204350D02*
X0609537Y0204350D01*
X0581225Y0195705D02*
X0578146Y0195705D01*
X0578146Y0194919D02*
X0581225Y0194919D01*
X0581225Y0194133D02*
X0578146Y0194133D01*
X0578101Y0193347D02*
X0581225Y0193347D01*
X0570034Y0192561D02*
X0567783Y0192561D01*
X0568434Y0193347D02*
X0569499Y0193347D01*
X0569454Y0194133D02*
X0568434Y0194133D01*
X0568434Y0194919D02*
X0569454Y0194919D01*
X0569454Y0195705D02*
X0568434Y0195705D01*
X0551300Y0191898D02*
X0551269Y0191929D01*
X0527060Y0198000D02*
X0527060Y0208500D01*
X0526666Y0209065D02*
X0527454Y0209065D01*
X0527454Y0209851D02*
X0526666Y0209851D01*
X0526666Y0210637D02*
X0527454Y0210637D01*
X0527454Y0211423D02*
X0526666Y0211423D01*
X0526666Y0212209D02*
X0527454Y0212209D01*
X0530792Y0212209D02*
X0531067Y0212209D01*
X0534540Y0208500D02*
X0535040Y0209000D01*
X0540800Y0209000D01*
X0539025Y0211423D02*
X0538280Y0211423D01*
X0538013Y0212209D02*
X0544725Y0212209D01*
X0544725Y0212995D02*
X0520375Y0212995D01*
X0520375Y0212209D02*
X0523328Y0212209D01*
X0523107Y0211423D02*
X0520375Y0211423D01*
X0520375Y0210637D02*
X0523107Y0210637D01*
X0523107Y0209851D02*
X0520375Y0209851D01*
X0520375Y0209065D02*
X0523107Y0209065D01*
X0526666Y0207494D02*
X0527454Y0207494D01*
X0527454Y0206708D02*
X0526666Y0206708D01*
X0526666Y0205922D02*
X0527454Y0205922D01*
X0527454Y0205136D02*
X0526666Y0205136D01*
X0526666Y0204350D02*
X0527454Y0204350D01*
X0542575Y0211423D02*
X0544725Y0211423D01*
X0543700Y0210637D02*
X0543335Y0210637D01*
X0550800Y0225000D02*
X0550769Y0225031D01*
X0550769Y0225531D01*
X0550769Y0227429D01*
X0552737Y0227429D02*
X0555969Y0227429D01*
X0555812Y0229499D02*
X0554509Y0229499D01*
X0554111Y0230285D02*
X0556598Y0230285D01*
X0564435Y0228713D02*
X0567165Y0228713D01*
X0566666Y0229499D02*
X0564934Y0229499D01*
X0564934Y0230285D02*
X0566666Y0230285D01*
X0556666Y0242074D02*
X0555601Y0242074D01*
X0556387Y0242860D02*
X0556737Y0242860D01*
X0551321Y0250719D02*
X0550779Y0250719D01*
X0606481Y0246003D02*
X0644225Y0246003D01*
X0644225Y0245217D02*
X0606481Y0245217D01*
D18*
X0559800Y0248500D03*
X0553300Y0248500D03*
X0548800Y0248500D03*
X0544300Y0248500D03*
X0537800Y0249500D03*
X0539800Y0257500D03*
X0539800Y0266500D03*
X0521800Y0272500D03*
X0538800Y0275500D03*
X0544300Y0275500D03*
X0548800Y0275500D03*
X0553300Y0275500D03*
X0557800Y0275500D03*
X0564300Y0276500D03*
X0551800Y0286000D03*
X0545800Y0292000D03*
X0539800Y0287000D03*
X0540300Y0298000D03*
X0548800Y0302500D03*
X0518300Y0307500D03*
X0595300Y0279500D03*
X0558300Y0261500D03*
X0547800Y0238500D03*
X0540300Y0239500D03*
X0546300Y0232500D03*
X0539800Y0229500D03*
X0548800Y0222500D03*
X0549300Y0213500D03*
X0540800Y0209000D03*
X0546300Y0203000D03*
X0540300Y0198000D03*
X0552300Y0197000D03*
X0553800Y0186500D03*
X0549300Y0186500D03*
X0544800Y0186500D03*
X0539300Y0186500D03*
X0540300Y0177500D03*
X0540300Y0168500D03*
X0538300Y0160500D03*
X0544800Y0159500D03*
X0549300Y0159500D03*
X0553800Y0159500D03*
X0558300Y0159500D03*
X0558300Y0171500D03*
X0558300Y0186500D03*
X0521300Y0181500D03*
X0540800Y0150500D03*
X0548300Y0149500D03*
X0546800Y0143500D03*
X0540300Y0140500D03*
X0549300Y0133500D03*
X0549300Y0125000D03*
X0540800Y0120500D03*
X0546300Y0114500D03*
X0540300Y0109500D03*
X0552300Y0108500D03*
X0553800Y0098000D03*
X0549300Y0098000D03*
X0544800Y0098000D03*
X0539300Y0098000D03*
X0521800Y0094500D03*
X0540300Y0089000D03*
X0540300Y0080000D03*
X0538300Y0072000D03*
X0544800Y0071000D03*
X0549300Y0071000D03*
X0553800Y0071000D03*
X0558300Y0071000D03*
X0548300Y0061000D03*
X0540800Y0062000D03*
X0546800Y0055000D03*
X0540300Y0052000D03*
X0549300Y0045000D03*
X0529300Y0043500D03*
X0518800Y0031500D03*
X0576800Y0048500D03*
X0578800Y0044000D03*
X0647800Y0030500D03*
X0559800Y0083500D03*
X0558300Y0098000D03*
X0521300Y0133000D03*
X0583800Y0150500D03*
X0587300Y0153500D03*
X0590300Y0142000D03*
X0594800Y0141500D03*
X0462800Y0093000D03*
X0410300Y0088500D03*
X0359300Y0084500D03*
X0305300Y0080500D03*
X0250700Y0077100D03*
X0118800Y0171000D03*
X0102300Y0172500D03*
X0107800Y0180500D03*
X0115300Y0181000D03*
X0096800Y0215000D03*
X0165800Y0231500D03*
X0217300Y0233000D03*
X0226800Y0241000D03*
X0527300Y0220500D03*
X0584800Y0219500D03*
X0648800Y0307500D03*
D19*
X0506040Y0074500D02*
X0506040Y0066000D01*
X0506040Y0057500D01*
X0506040Y0046260D01*
X0507300Y0045000D01*
X0498560Y0046260D02*
X0497300Y0045000D01*
X0497300Y0034000D01*
X0498800Y0032500D01*
X0510800Y0032500D01*
X0511300Y0032000D01*
X0518300Y0032000D01*
X0518800Y0031500D01*
X0498560Y0046260D02*
X0498560Y0057500D01*
X0498560Y0066000D01*
X0498560Y0074500D01*
X0478040Y0074000D02*
X0478040Y0065500D01*
X0478040Y0057000D01*
X0479300Y0055740D01*
X0479300Y0045000D01*
X0469300Y0045000D02*
X0469300Y0057000D01*
X0470560Y0057000D01*
X0470560Y0065500D01*
X0470560Y0074000D01*
D20*
X0130800Y0047500D03*
D21*
X0147800Y0047500D03*
D22*
X0165800Y0047500D03*
D23*
X0183800Y0047000D03*
D24*
X0201300Y0047000D03*
D25*
X0218800Y0047500D03*
D26*
X0236800Y0047500D03*
D27*
X0253800Y0046500D03*
D28*
X0273800Y0047000D03*
M02*
