G75*
%MOIN*%
%OFA0B0*%
%FSLAX25Y25*%
%IPPOS*%
%LPD*%
%AMOC8*
5,1,8,0,0,1.08239X$1,22.5*
%
%ADD10C,0.08268*%
%ADD11C,0.06000*%
%ADD12C,0.17000*%
%ADD13C,0.05200*%
%ADD14C,0.03575*%
%ADD15C,0.00787*%
D10*
X0183595Y0070933D03*
X0215595Y0070933D03*
X0247095Y0070933D03*
X0257595Y0122433D03*
X0307595Y0122433D03*
X0357595Y0122433D03*
X0407595Y0122433D03*
X0457595Y0122433D03*
X0507595Y0122433D03*
X0557095Y0122433D03*
X0557595Y0172433D03*
X0507595Y0172433D03*
X0457595Y0172433D03*
X0407595Y0172433D03*
X0357595Y0172433D03*
X0307595Y0172433D03*
X0257595Y0172433D03*
X0207595Y0172433D03*
X0207595Y0122433D03*
X0207595Y0222433D03*
X0257595Y0222433D03*
X0307595Y0222433D03*
X0357595Y0222433D03*
X0407595Y0222433D03*
X0457595Y0222433D03*
X0507595Y0222433D03*
X0557595Y0222433D03*
X0557595Y0272433D03*
X0507595Y0272433D03*
X0457595Y0272433D03*
X0407595Y0272433D03*
X0357595Y0272433D03*
X0307595Y0272433D03*
X0257595Y0272433D03*
X0207595Y0272433D03*
D11*
X0145095Y0269433D03*
X0135095Y0274833D03*
X0135095Y0263933D03*
X0145095Y0258533D03*
X0135095Y0253133D03*
X0145095Y0247633D03*
X0135095Y0242233D03*
X0145095Y0236833D03*
X0135095Y0231333D03*
X0145095Y0225933D03*
X0135095Y0220533D03*
X0145095Y0215033D03*
X0135095Y0209633D03*
X0145095Y0204133D03*
X0135095Y0198733D03*
X0145095Y0193333D03*
X0135095Y0187833D03*
X0145095Y0182433D03*
X0135095Y0177033D03*
X0145095Y0171533D03*
X0135095Y0166133D03*
X0145095Y0160733D03*
X0135095Y0155233D03*
X0145095Y0149833D03*
X0135095Y0144433D03*
X0145095Y0138933D03*
X0135095Y0133533D03*
X0145095Y0128133D03*
X0135095Y0122633D03*
X0145095Y0117233D03*
X0135095Y0111833D03*
X0145095Y0106333D03*
X0135095Y0100933D03*
X0145095Y0095533D03*
X0135095Y0090033D03*
X0145095Y0084633D03*
X0371095Y0062933D03*
X0381095Y0062933D03*
X0437595Y0068433D03*
X0437595Y0078433D03*
X0798595Y0083133D03*
X0808595Y0088533D03*
X0798595Y0093933D03*
X0808595Y0099433D03*
X0808595Y0110233D03*
X0798595Y0104833D03*
X0798595Y0115733D03*
X0808595Y0121133D03*
X0798595Y0126533D03*
X0798595Y0137433D03*
X0808595Y0132033D03*
X0808595Y0142933D03*
X0798595Y0148333D03*
X0808595Y0153733D03*
X0798595Y0159233D03*
X0808595Y0164633D03*
X0808595Y0175533D03*
X0798595Y0180933D03*
X0808595Y0186333D03*
X0798595Y0191833D03*
X0808595Y0197233D03*
X0798595Y0202633D03*
X0798595Y0213533D03*
X0808595Y0208133D03*
X0808595Y0218933D03*
X0798595Y0224433D03*
X0808595Y0229833D03*
X0798595Y0235233D03*
X0808595Y0240733D03*
X0808595Y0251533D03*
X0798595Y0246133D03*
X0798595Y0257033D03*
X0808595Y0262433D03*
X0798595Y0267833D03*
X0798595Y0278733D03*
X0808595Y0273333D03*
X0798595Y0170033D03*
X0145095Y0280233D03*
D12*
X0140095Y0057433D03*
X0140095Y0307433D03*
X0803595Y0305933D03*
X0803595Y0055933D03*
D13*
X0485395Y0052633D03*
X0465795Y0052633D03*
X0465795Y0076233D03*
X0485395Y0076233D03*
D14*
X0515595Y0086933D03*
X0517595Y0081433D03*
X0566595Y0074433D03*
X0579595Y0083433D03*
X0573095Y0085933D03*
X0596595Y0085933D03*
X0596595Y0080933D03*
X0596095Y0070433D03*
X0600595Y0070433D03*
X0605095Y0070433D03*
X0609595Y0070433D03*
X0614095Y0070433D03*
X0626595Y0069933D03*
X0644095Y0083433D03*
X0660595Y0080933D03*
X0660595Y0085933D03*
X0660095Y0097433D03*
X0664595Y0097433D03*
X0669095Y0097433D03*
X0673595Y0097433D03*
X0678095Y0097433D03*
X0693595Y0100433D03*
X0672095Y0107933D03*
X0666095Y0113933D03*
X0660595Y0113433D03*
X0660595Y0108433D03*
X0649595Y0117933D03*
X0669095Y0124433D03*
X0669095Y0140433D03*
X0649595Y0145933D03*
X0660595Y0150933D03*
X0660595Y0155933D03*
X0668095Y0156433D03*
X0666595Y0150433D03*
X0664595Y0166433D03*
X0660095Y0166433D03*
X0669095Y0166433D03*
X0673595Y0166433D03*
X0678095Y0166433D03*
X0691095Y0166433D03*
X0703595Y0166433D03*
X0724095Y0166433D03*
X0728595Y0166433D03*
X0733095Y0166433D03*
X0737595Y0166433D03*
X0742095Y0166433D03*
X0755095Y0165433D03*
X0732095Y0156433D03*
X0730595Y0150433D03*
X0724595Y0151433D03*
X0724595Y0156433D03*
X0713595Y0146433D03*
X0721095Y0140433D03*
X0733095Y0140433D03*
X0765595Y0124433D03*
X0752095Y0120933D03*
X0778595Y0135433D03*
X0777595Y0140933D03*
X0771595Y0140933D03*
X0771595Y0145433D03*
X0778595Y0178433D03*
X0780095Y0188933D03*
X0785095Y0188933D03*
X0780095Y0196933D03*
X0780095Y0201433D03*
X0775595Y0207433D03*
X0777095Y0212933D03*
X0770595Y0226933D03*
X0766595Y0231433D03*
X0752095Y0230433D03*
X0742095Y0228433D03*
X0733095Y0220433D03*
X0716095Y0227433D03*
X0718595Y0231433D03*
X0725095Y0234433D03*
X0724595Y0239933D03*
X0732595Y0236433D03*
X0713095Y0242433D03*
X0724095Y0247433D03*
X0730095Y0246433D03*
X0731595Y0252433D03*
X0724095Y0252433D03*
X0723595Y0262433D03*
X0728095Y0262433D03*
X0732595Y0262433D03*
X0737095Y0262433D03*
X0741595Y0262433D03*
X0754595Y0260933D03*
X0789095Y0273933D03*
X0790095Y0289433D03*
X0757095Y0291933D03*
X0741595Y0289433D03*
X0737095Y0289433D03*
X0732595Y0289433D03*
X0728095Y0289433D03*
X0723595Y0289433D03*
X0724095Y0278433D03*
X0724095Y0273433D03*
X0707595Y0275933D03*
X0677595Y0289433D03*
X0673095Y0289433D03*
X0668595Y0289433D03*
X0664095Y0289433D03*
X0659595Y0289433D03*
X0659595Y0300933D03*
X0671595Y0299933D03*
X0665595Y0305933D03*
X0659595Y0305933D03*
X0648595Y0310433D03*
X0660095Y0314933D03*
X0668595Y0316433D03*
X0713095Y0309933D03*
X0718595Y0319433D03*
X0732595Y0316433D03*
X0729595Y0305933D03*
X0724095Y0305433D03*
X0724095Y0300433D03*
X0735595Y0299933D03*
X0693095Y0292433D03*
X0660095Y0277933D03*
X0660095Y0272933D03*
X0643095Y0275433D03*
X0635595Y0289433D03*
X0629095Y0292433D03*
X0613595Y0289433D03*
X0609095Y0289433D03*
X0604595Y0289433D03*
X0600095Y0289433D03*
X0595595Y0289433D03*
X0596095Y0278433D03*
X0596095Y0272933D03*
X0579095Y0275433D03*
X0595595Y0262433D03*
X0600095Y0262433D03*
X0604595Y0262433D03*
X0609095Y0262433D03*
X0613595Y0262433D03*
X0626595Y0261433D03*
X0603595Y0252433D03*
X0596095Y0251933D03*
X0596095Y0246933D03*
X0602095Y0246433D03*
X0585095Y0242433D03*
X0604595Y0236433D03*
X0605095Y0220433D03*
X0602095Y0209933D03*
X0596595Y0209433D03*
X0596595Y0204933D03*
X0608095Y0203933D03*
X0629595Y0196433D03*
X0614095Y0193433D03*
X0609595Y0193433D03*
X0605095Y0193433D03*
X0600595Y0193433D03*
X0596095Y0193433D03*
X0581595Y0192433D03*
X0578095Y0196433D03*
X0575595Y0206433D03*
X0585595Y0214433D03*
X0643095Y0239933D03*
X0649095Y0242433D03*
X0660095Y0246933D03*
X0660095Y0251933D03*
X0667595Y0252433D03*
X0666095Y0246433D03*
X0668595Y0236433D03*
X0669095Y0220433D03*
X0649595Y0213933D03*
X0660595Y0209433D03*
X0660595Y0204433D03*
X0666095Y0209933D03*
X0672095Y0203933D03*
X0673595Y0193433D03*
X0669095Y0193433D03*
X0664595Y0193433D03*
X0660095Y0193433D03*
X0678095Y0193433D03*
X0693595Y0196433D03*
X0700095Y0193433D03*
X0707595Y0179933D03*
X0724595Y0177433D03*
X0724595Y0182433D03*
X0724095Y0193433D03*
X0728595Y0193433D03*
X0733095Y0193433D03*
X0737595Y0193433D03*
X0742095Y0193433D03*
X0757595Y0196433D03*
X0736095Y0203933D03*
X0730095Y0209933D03*
X0724595Y0209433D03*
X0724595Y0204433D03*
X0713595Y0214433D03*
X0660595Y0182433D03*
X0660595Y0177433D03*
X0643595Y0179933D03*
X0627095Y0165433D03*
X0635095Y0162433D03*
X0614095Y0166433D03*
X0609595Y0166433D03*
X0605095Y0166433D03*
X0600595Y0166433D03*
X0596095Y0166433D03*
X0596595Y0155933D03*
X0596595Y0150933D03*
X0602595Y0150433D03*
X0604095Y0156433D03*
X0585095Y0146433D03*
X0605095Y0140433D03*
X0605095Y0124433D03*
X0589095Y0124933D03*
X0585595Y0118433D03*
X0596595Y0113433D03*
X0596095Y0108433D03*
X0602095Y0113933D03*
X0608095Y0107933D03*
X0629595Y0100433D03*
X0614095Y0097433D03*
X0609595Y0097433D03*
X0605095Y0097433D03*
X0600595Y0097433D03*
X0596095Y0097433D03*
X0567095Y0109433D03*
X0518095Y0110433D03*
X0492595Y0106933D03*
X0466095Y0106433D03*
X0445595Y0102433D03*
X0415095Y0102433D03*
X0404095Y0086433D03*
X0416595Y0081933D03*
X0414595Y0076933D03*
X0419095Y0066933D03*
X0413595Y0062933D03*
X0395595Y0054933D03*
X0413595Y0045933D03*
X0429095Y0044433D03*
X0440595Y0040433D03*
X0456595Y0051433D03*
X0450595Y0058433D03*
X0361095Y0098433D03*
X0353595Y0090933D03*
X0323595Y0083933D03*
X0314595Y0089433D03*
X0306495Y0095033D03*
X0315595Y0067933D03*
X0326595Y0067933D03*
X0324095Y0053933D03*
X0314095Y0047933D03*
X0354595Y0039933D03*
X0354595Y0067933D03*
X0442095Y0160433D03*
X0406595Y0188933D03*
X0401095Y0191933D03*
X0361095Y0185933D03*
X0175595Y0209933D03*
X0172595Y0216433D03*
X0159595Y0208933D03*
X0163095Y0200933D03*
X0166595Y0194933D03*
X0156095Y0217933D03*
X0152595Y0225933D03*
X0169595Y0226933D03*
X0564095Y0059933D03*
X0580095Y0057433D03*
X0596595Y0054933D03*
X0596595Y0059933D03*
X0604095Y0060433D03*
X0602595Y0054433D03*
X0605095Y0044433D03*
X0638095Y0044933D03*
X0649595Y0050433D03*
X0660595Y0054933D03*
X0660595Y0059933D03*
X0668095Y0060433D03*
X0666595Y0054433D03*
X0669095Y0044433D03*
X0677595Y0045433D03*
X0659595Y0044933D03*
X0700595Y0040933D03*
X0691095Y0068433D03*
X0678095Y0070433D03*
X0673595Y0070433D03*
X0669095Y0070433D03*
X0664595Y0070433D03*
X0660095Y0070433D03*
X0574595Y0041933D03*
X0846095Y0039933D03*
X0596595Y0176933D03*
X0596595Y0181933D03*
X0579595Y0179433D03*
X0649095Y0262433D03*
X0659595Y0262433D03*
X0664095Y0262433D03*
X0668595Y0262433D03*
X0673095Y0262433D03*
X0677595Y0262433D03*
X0690595Y0260433D03*
X0701095Y0260433D03*
X0607595Y0299933D03*
X0596095Y0300933D03*
X0596095Y0305933D03*
X0601595Y0305933D03*
X0604595Y0316433D03*
X0585095Y0310433D03*
X0571095Y0322433D03*
X0773095Y0319433D03*
X0846595Y0322433D03*
D15*
X0769095Y0300933D02*
X0769095Y0233131D01*
X0768277Y0233950D01*
X0767186Y0234402D01*
X0766005Y0234402D01*
X0764914Y0233950D01*
X0764079Y0233115D01*
X0763627Y0232024D01*
X0763627Y0230843D01*
X0764079Y0229752D01*
X0764914Y0228916D01*
X0766005Y0228465D01*
X0767186Y0228465D01*
X0768277Y0228916D01*
X0769095Y0229735D01*
X0769095Y0229525D01*
X0768914Y0229450D01*
X0768079Y0228615D01*
X0767627Y0227524D01*
X0767627Y0226343D01*
X0768079Y0225252D01*
X0768914Y0224416D01*
X0769095Y0224341D01*
X0769095Y0147131D01*
X0769079Y0147115D01*
X0768627Y0146024D01*
X0768627Y0144843D01*
X0769079Y0143752D01*
X0769095Y0143735D01*
X0769095Y0142631D01*
X0769079Y0142615D01*
X0768627Y0141524D01*
X0768627Y0140343D01*
X0769079Y0139252D01*
X0769095Y0139235D01*
X0769095Y0040933D01*
X0759595Y0040933D01*
X0759595Y0055433D01*
X0763595Y0055433D01*
X0763595Y0085433D01*
X0759095Y0085433D01*
X0759095Y0108933D01*
X0763595Y0108933D01*
X0763595Y0122235D01*
X0763914Y0121916D01*
X0765005Y0121465D01*
X0766186Y0121465D01*
X0767277Y0121916D01*
X0768112Y0122752D01*
X0768564Y0123843D01*
X0768564Y0125024D01*
X0768112Y0126115D01*
X0767277Y0126950D01*
X0766186Y0127402D01*
X0765005Y0127402D01*
X0763914Y0126950D01*
X0763595Y0126631D01*
X0763595Y0133933D01*
X0759095Y0133933D01*
X0759095Y0151433D01*
X0763595Y0151433D01*
X0763595Y0181433D01*
X0759095Y0181433D01*
X0759095Y0193841D01*
X0759277Y0193916D01*
X0760112Y0194752D01*
X0760564Y0195843D01*
X0760564Y0197024D01*
X0760112Y0198115D01*
X0759277Y0198950D01*
X0759095Y0199025D01*
X0759095Y0205433D01*
X0762595Y0205433D01*
X0763095Y0229933D01*
X0759595Y0229933D01*
X0759595Y0247433D01*
X0763595Y0247433D01*
X0763595Y0277433D01*
X0759095Y0277433D01*
X0759095Y0289735D01*
X0759612Y0290252D01*
X0760064Y0291343D01*
X0760064Y0292524D01*
X0759612Y0293615D01*
X0759095Y0294131D01*
X0759095Y0300933D01*
X0769095Y0300933D01*
X0769095Y0300590D02*
X0759095Y0300590D01*
X0759095Y0299804D02*
X0769095Y0299804D01*
X0769095Y0299018D02*
X0759095Y0299018D01*
X0759095Y0298232D02*
X0769095Y0298232D01*
X0769095Y0297446D02*
X0759095Y0297446D01*
X0759095Y0296660D02*
X0769095Y0296660D01*
X0769095Y0295874D02*
X0759095Y0295874D01*
X0759095Y0295088D02*
X0769095Y0295088D01*
X0769095Y0294302D02*
X0759095Y0294302D01*
X0758924Y0294302D02*
X0760095Y0294302D01*
X0760095Y0293516D02*
X0759652Y0293516D01*
X0769095Y0293516D01*
X0769095Y0292731D02*
X0759978Y0292731D01*
X0760095Y0292731D01*
X0760064Y0292524D02*
X0759612Y0293615D01*
X0758777Y0294450D01*
X0757686Y0294902D01*
X0756505Y0294902D01*
X0755414Y0294450D01*
X0754579Y0293615D01*
X0754127Y0292524D01*
X0754127Y0291343D01*
X0754579Y0290252D01*
X0755414Y0289416D01*
X0756505Y0288965D01*
X0757686Y0288965D01*
X0758777Y0289416D01*
X0759612Y0290252D01*
X0760064Y0291343D01*
X0760064Y0292524D01*
X0760064Y0291945D02*
X0769095Y0291945D01*
X0769095Y0291159D02*
X0759987Y0291159D01*
X0760095Y0291159D01*
X0760064Y0291945D02*
X0760095Y0291945D01*
X0760095Y0290373D02*
X0759662Y0290373D01*
X0769095Y0290373D01*
X0769095Y0289587D02*
X0759095Y0289587D01*
X0758947Y0289587D02*
X0760095Y0289587D01*
X0760095Y0288801D02*
X0744546Y0288801D01*
X0744564Y0288843D02*
X0744112Y0287752D01*
X0743277Y0286916D01*
X0742186Y0286465D01*
X0741005Y0286465D01*
X0739914Y0286916D01*
X0739345Y0287485D01*
X0738777Y0286916D01*
X0737686Y0286465D01*
X0736505Y0286465D01*
X0735414Y0286916D01*
X0734579Y0287752D01*
X0734127Y0288843D01*
X0734127Y0290024D01*
X0734579Y0291115D01*
X0735414Y0291950D01*
X0736505Y0292402D01*
X0737686Y0292402D01*
X0738777Y0291950D01*
X0739345Y0291381D01*
X0739914Y0291950D01*
X0741005Y0292402D01*
X0742186Y0292402D01*
X0743277Y0291950D01*
X0744112Y0291115D01*
X0744564Y0290024D01*
X0744564Y0288843D01*
X0744564Y0289587D02*
X0755243Y0289587D01*
X0754528Y0290373D02*
X0744419Y0290373D01*
X0744068Y0291159D02*
X0754203Y0291159D01*
X0754127Y0291945D02*
X0743282Y0291945D01*
X0739909Y0291945D02*
X0738782Y0291945D01*
X0735409Y0291945D02*
X0729782Y0291945D01*
X0729777Y0291950D02*
X0728686Y0292402D01*
X0727505Y0292402D01*
X0726414Y0291950D01*
X0725845Y0291381D01*
X0725277Y0291950D01*
X0724186Y0292402D01*
X0723005Y0292402D01*
X0721914Y0291950D01*
X0721079Y0291115D01*
X0720627Y0290024D01*
X0720627Y0288843D01*
X0721079Y0287752D01*
X0721914Y0286916D01*
X0723005Y0286465D01*
X0724186Y0286465D01*
X0725277Y0286916D01*
X0725845Y0287485D01*
X0726414Y0286916D01*
X0727505Y0286465D01*
X0728686Y0286465D01*
X0729777Y0286916D01*
X0730612Y0287752D01*
X0731064Y0288843D01*
X0731064Y0290024D01*
X0730612Y0291115D01*
X0729777Y0291950D01*
X0730568Y0291159D02*
X0734623Y0291159D01*
X0734271Y0290373D02*
X0730919Y0290373D01*
X0731064Y0289587D02*
X0734127Y0289587D01*
X0734144Y0288801D02*
X0731046Y0288801D01*
X0730721Y0288015D02*
X0734469Y0288015D01*
X0735101Y0287229D02*
X0730089Y0287229D01*
X0731595Y0285433D02*
X0727595Y0285433D01*
X0724095Y0281933D01*
X0724095Y0278433D01*
X0724095Y0273433D02*
X0724095Y0269433D01*
X0725095Y0268433D01*
X0727595Y0268433D01*
X0730595Y0268433D01*
X0732595Y0266433D01*
X0732595Y0262433D01*
X0732595Y0260433D01*
X0730095Y0257933D01*
X0726595Y0257933D01*
X0724095Y0255433D01*
X0724095Y0252433D01*
X0728627Y0252649D02*
X0670564Y0252649D01*
X0670564Y0253024D02*
X0670112Y0254115D01*
X0669277Y0254950D01*
X0668186Y0255402D01*
X0667005Y0255402D01*
X0665914Y0254950D01*
X0665079Y0254115D01*
X0664627Y0253024D01*
X0664627Y0251843D01*
X0664796Y0251433D01*
X0606394Y0251433D01*
X0606564Y0251843D01*
X0606564Y0253024D01*
X0606112Y0254115D01*
X0605277Y0254950D01*
X0604186Y0255402D01*
X0603005Y0255402D01*
X0601914Y0254950D01*
X0601079Y0254115D01*
X0600627Y0253024D01*
X0600627Y0251843D01*
X0600796Y0251433D01*
X0577595Y0251433D01*
X0577595Y0272841D01*
X0578505Y0272465D01*
X0579595Y0272465D01*
X0579595Y0251433D01*
X0574595Y0251433D01*
X0574595Y0226933D01*
X0579595Y0226933D01*
X0580095Y0208433D01*
X0577793Y0208433D01*
X0577277Y0208950D01*
X0576186Y0209402D01*
X0575005Y0209402D01*
X0573914Y0208950D01*
X0573079Y0208115D01*
X0572627Y0207024D01*
X0572627Y0205843D01*
X0573079Y0204752D01*
X0573914Y0203916D01*
X0574518Y0203666D01*
X0574095Y0177433D01*
X0577397Y0177433D01*
X0577914Y0176916D01*
X0579005Y0176465D01*
X0579595Y0176465D01*
X0579595Y0155433D01*
X0574595Y0155433D01*
X0574595Y0130933D01*
X0579595Y0130933D01*
X0579595Y0112933D01*
X0574595Y0112933D01*
X0574595Y0088525D01*
X0573686Y0088902D01*
X0572505Y0088902D01*
X0571414Y0088450D01*
X0570579Y0087615D01*
X0570127Y0086524D01*
X0570127Y0085343D01*
X0570579Y0084252D01*
X0571414Y0083416D01*
X0572505Y0082965D01*
X0573686Y0082965D01*
X0574595Y0083341D01*
X0574595Y0080933D01*
X0577897Y0080933D01*
X0577914Y0080916D01*
X0579005Y0080465D01*
X0580095Y0080465D01*
X0580095Y0060402D01*
X0579505Y0060402D01*
X0578414Y0059950D01*
X0577897Y0059433D01*
X0570095Y0059433D01*
X0570095Y0319634D01*
X0570505Y0319465D01*
X0571686Y0319465D01*
X0572777Y0319916D01*
X0573612Y0320752D01*
X0574064Y0321843D01*
X0574064Y0323024D01*
X0573687Y0323933D01*
X0579595Y0323933D01*
X0579595Y0304933D01*
X0574595Y0304933D01*
X0574595Y0273433D01*
X0576897Y0273433D01*
X0577414Y0272916D01*
X0578505Y0272465D01*
X0579686Y0272465D01*
X0580777Y0272916D01*
X0581293Y0273433D01*
X0640897Y0273433D01*
X0641414Y0272916D01*
X0642505Y0272465D01*
X0643686Y0272465D01*
X0644777Y0272916D01*
X0645293Y0273433D01*
X0705897Y0273433D01*
X0705914Y0273416D01*
X0707005Y0272965D01*
X0708186Y0272965D01*
X0709277Y0273416D01*
X0709293Y0273433D01*
X0760095Y0273433D01*
X0760095Y0251433D01*
X0734394Y0251433D01*
X0734564Y0251843D01*
X0734564Y0253024D01*
X0734112Y0254115D01*
X0733277Y0254950D01*
X0732186Y0255402D01*
X0731005Y0255402D01*
X0729914Y0254950D01*
X0729079Y0254115D01*
X0728627Y0253024D01*
X0728627Y0251843D01*
X0728796Y0251433D01*
X0670394Y0251433D01*
X0670564Y0251843D01*
X0670564Y0253024D01*
X0670393Y0253435D02*
X0728797Y0253435D01*
X0729185Y0254221D02*
X0670005Y0254221D01*
X0669139Y0255007D02*
X0730052Y0255007D01*
X0733139Y0255007D02*
X0760095Y0255007D01*
X0760095Y0255793D02*
X0577595Y0255793D01*
X0577595Y0256579D02*
X0760095Y0256579D01*
X0760095Y0257364D02*
X0577595Y0257364D01*
X0577595Y0258150D02*
X0688680Y0258150D01*
X0688914Y0257916D02*
X0690005Y0257465D01*
X0691186Y0257465D01*
X0692277Y0257916D01*
X0693112Y0258752D01*
X0693564Y0259843D01*
X0693564Y0261024D01*
X0693112Y0262115D01*
X0692277Y0262950D01*
X0691186Y0263402D01*
X0690005Y0263402D01*
X0688914Y0262950D01*
X0688079Y0262115D01*
X0687627Y0261024D01*
X0687627Y0259843D01*
X0688079Y0258752D01*
X0688914Y0257916D01*
X0688002Y0258936D02*
X0628296Y0258936D01*
X0628277Y0258916D02*
X0629112Y0259752D01*
X0629564Y0260843D01*
X0629564Y0262024D01*
X0629112Y0263115D01*
X0628277Y0263950D01*
X0627186Y0264402D01*
X0626005Y0264402D01*
X0624914Y0263950D01*
X0624079Y0263115D01*
X0623627Y0262024D01*
X0623627Y0260843D01*
X0624079Y0259752D01*
X0624914Y0258916D01*
X0626005Y0258465D01*
X0627186Y0258465D01*
X0628277Y0258916D01*
X0629082Y0259722D02*
X0647883Y0259722D01*
X0647414Y0259916D02*
X0648505Y0259465D01*
X0649686Y0259465D01*
X0650777Y0259916D01*
X0651612Y0260752D01*
X0652064Y0261843D01*
X0652064Y0263024D01*
X0651612Y0264115D01*
X0650777Y0264950D01*
X0649686Y0265402D01*
X0648505Y0265402D01*
X0647414Y0264950D01*
X0646579Y0264115D01*
X0646127Y0263024D01*
X0646127Y0261843D01*
X0646579Y0260752D01*
X0647414Y0259916D01*
X0646822Y0260508D02*
X0629425Y0260508D01*
X0629564Y0261294D02*
X0646354Y0261294D01*
X0646127Y0262080D02*
X0629540Y0262080D01*
X0629215Y0262866D02*
X0646127Y0262866D01*
X0646387Y0263652D02*
X0628574Y0263652D01*
X0624616Y0263652D02*
X0616303Y0263652D01*
X0616112Y0264115D02*
X0615277Y0264950D01*
X0614186Y0265402D01*
X0613005Y0265402D01*
X0611914Y0264950D01*
X0611345Y0264381D01*
X0610777Y0264950D01*
X0609686Y0265402D01*
X0608505Y0265402D01*
X0607414Y0264950D01*
X0606579Y0264115D01*
X0606127Y0263024D01*
X0606127Y0261843D01*
X0606579Y0260752D01*
X0607414Y0259916D01*
X0608505Y0259465D01*
X0609686Y0259465D01*
X0610777Y0259916D01*
X0611345Y0260485D01*
X0611914Y0259916D01*
X0613005Y0259465D01*
X0614186Y0259465D01*
X0615277Y0259916D01*
X0616112Y0260752D01*
X0616564Y0261843D01*
X0616564Y0263024D01*
X0616112Y0264115D01*
X0615789Y0264438D02*
X0646902Y0264438D01*
X0648075Y0265224D02*
X0614615Y0265224D01*
X0612575Y0265224D02*
X0610115Y0265224D01*
X0611289Y0264438D02*
X0611402Y0264438D01*
X0608075Y0265224D02*
X0601115Y0265224D01*
X0600686Y0265402D02*
X0599505Y0265402D01*
X0598414Y0264950D01*
X0597845Y0264381D01*
X0597277Y0264950D01*
X0596186Y0265402D01*
X0595005Y0265402D01*
X0593914Y0264950D01*
X0593079Y0264115D01*
X0592627Y0263024D01*
X0592627Y0261843D01*
X0593079Y0260752D01*
X0593914Y0259916D01*
X0595005Y0259465D01*
X0596186Y0259465D01*
X0597277Y0259916D01*
X0597845Y0260485D01*
X0598414Y0259916D01*
X0599505Y0259465D01*
X0600686Y0259465D01*
X0601777Y0259916D01*
X0602612Y0260752D01*
X0603064Y0261843D01*
X0603064Y0263024D01*
X0602612Y0264115D01*
X0601777Y0264950D01*
X0600686Y0265402D01*
X0599075Y0265224D02*
X0596615Y0265224D01*
X0597789Y0264438D02*
X0597902Y0264438D01*
X0594575Y0265224D02*
X0577595Y0265224D01*
X0577595Y0266010D02*
X0760095Y0266010D01*
X0760095Y0266795D02*
X0577595Y0266795D01*
X0577595Y0267581D02*
X0760095Y0267581D01*
X0760095Y0268367D02*
X0577595Y0268367D01*
X0577595Y0269153D02*
X0760095Y0269153D01*
X0760095Y0269939D02*
X0577595Y0269939D01*
X0577595Y0270725D02*
X0760095Y0270725D01*
X0760095Y0271511D02*
X0577595Y0271511D01*
X0577595Y0272297D02*
X0760095Y0272297D01*
X0760095Y0273083D02*
X0708471Y0273083D01*
X0706719Y0273083D02*
X0644943Y0273083D01*
X0641247Y0273083D02*
X0580943Y0273083D01*
X0579595Y0272297D02*
X0570095Y0272297D01*
X0570095Y0273083D02*
X0577247Y0273083D01*
X0574595Y0273869D02*
X0570095Y0273869D01*
X0570095Y0274655D02*
X0574595Y0274655D01*
X0574595Y0275440D02*
X0570095Y0275440D01*
X0570095Y0276226D02*
X0574595Y0276226D01*
X0574595Y0277012D02*
X0570095Y0277012D01*
X0570095Y0277798D02*
X0574595Y0277798D01*
X0574595Y0278584D02*
X0570095Y0278584D01*
X0570095Y0279370D02*
X0574595Y0279370D01*
X0574595Y0280156D02*
X0570095Y0280156D01*
X0570095Y0280942D02*
X0574595Y0280942D01*
X0574595Y0281728D02*
X0570095Y0281728D01*
X0570095Y0282514D02*
X0574595Y0282514D01*
X0574595Y0283300D02*
X0570095Y0283300D01*
X0570095Y0284086D02*
X0574595Y0284086D01*
X0574595Y0284871D02*
X0570095Y0284871D01*
X0570095Y0285657D02*
X0574595Y0285657D01*
X0574595Y0286443D02*
X0570095Y0286443D01*
X0570095Y0287229D02*
X0574595Y0287229D01*
X0574595Y0288015D02*
X0570095Y0288015D01*
X0570095Y0288801D02*
X0574595Y0288801D01*
X0574595Y0289587D02*
X0570095Y0289587D01*
X0570095Y0290373D02*
X0574595Y0290373D01*
X0574595Y0291159D02*
X0570095Y0291159D01*
X0570095Y0291945D02*
X0574595Y0291945D01*
X0574595Y0292731D02*
X0570095Y0292731D01*
X0570095Y0293516D02*
X0574595Y0293516D01*
X0574595Y0294302D02*
X0570095Y0294302D01*
X0570095Y0295088D02*
X0574595Y0295088D01*
X0574595Y0295874D02*
X0570095Y0295874D01*
X0570095Y0296660D02*
X0574595Y0296660D01*
X0574595Y0297446D02*
X0570095Y0297446D01*
X0570095Y0298232D02*
X0574595Y0298232D01*
X0574595Y0299018D02*
X0570095Y0299018D01*
X0570095Y0299804D02*
X0574595Y0299804D01*
X0574595Y0300590D02*
X0570095Y0300590D01*
X0570095Y0301376D02*
X0574595Y0301376D01*
X0574595Y0302162D02*
X0570095Y0302162D01*
X0570095Y0302947D02*
X0574595Y0302947D01*
X0574595Y0303733D02*
X0570095Y0303733D01*
X0570095Y0304519D02*
X0574595Y0304519D01*
X0577595Y0304933D02*
X0577595Y0323933D01*
X0760095Y0323933D01*
X0760095Y0304933D01*
X0732394Y0304933D01*
X0732564Y0305343D01*
X0732564Y0306524D01*
X0732112Y0307615D01*
X0731277Y0308450D01*
X0730186Y0308902D01*
X0729005Y0308902D01*
X0727914Y0308450D01*
X0727079Y0307615D01*
X0726627Y0306524D01*
X0726627Y0305343D01*
X0726796Y0304933D01*
X0668394Y0304933D01*
X0668564Y0305343D01*
X0668564Y0306524D01*
X0668112Y0307615D01*
X0667277Y0308450D01*
X0666186Y0308902D01*
X0665005Y0308902D01*
X0663914Y0308450D01*
X0663079Y0307615D01*
X0662627Y0306524D01*
X0662627Y0305343D01*
X0662796Y0304933D01*
X0604394Y0304933D01*
X0604564Y0305343D01*
X0604564Y0306524D01*
X0604112Y0307615D01*
X0603277Y0308450D01*
X0602186Y0308902D01*
X0601005Y0308902D01*
X0599914Y0308450D01*
X0599079Y0307615D01*
X0598627Y0306524D01*
X0598627Y0305343D01*
X0598796Y0304933D01*
X0577595Y0304933D01*
X0577595Y0305305D02*
X0598642Y0305305D01*
X0598627Y0306091D02*
X0577595Y0306091D01*
X0577595Y0306877D02*
X0598773Y0306877D01*
X0599127Y0307663D02*
X0586164Y0307663D01*
X0585686Y0307465D02*
X0586777Y0307916D01*
X0587612Y0308752D01*
X0588064Y0309843D01*
X0588064Y0311024D01*
X0587612Y0312115D01*
X0586777Y0312950D01*
X0585686Y0313402D01*
X0584505Y0313402D01*
X0583414Y0312950D01*
X0582579Y0312115D01*
X0582127Y0311024D01*
X0582127Y0309843D01*
X0582579Y0308752D01*
X0583414Y0307916D01*
X0584505Y0307465D01*
X0585686Y0307465D01*
X0584026Y0307663D02*
X0577595Y0307663D01*
X0577595Y0308449D02*
X0582881Y0308449D01*
X0582378Y0309235D02*
X0577595Y0309235D01*
X0577595Y0310021D02*
X0582127Y0310021D01*
X0582127Y0310807D02*
X0577595Y0310807D01*
X0577595Y0311592D02*
X0582362Y0311592D01*
X0582842Y0312378D02*
X0577595Y0312378D01*
X0577595Y0313164D02*
X0583932Y0313164D01*
X0586258Y0313164D02*
X0647432Y0313164D01*
X0646914Y0312950D02*
X0646079Y0312115D01*
X0645627Y0311024D01*
X0645627Y0309843D01*
X0646079Y0308752D01*
X0646914Y0307916D01*
X0648005Y0307465D01*
X0649186Y0307465D01*
X0650277Y0307916D01*
X0651112Y0308752D01*
X0651564Y0309843D01*
X0651564Y0311024D01*
X0651112Y0312115D01*
X0650277Y0312950D01*
X0649186Y0313402D01*
X0648005Y0313402D01*
X0646914Y0312950D01*
X0646342Y0312378D02*
X0587348Y0312378D01*
X0587828Y0311592D02*
X0645862Y0311592D01*
X0645627Y0310807D02*
X0588064Y0310807D01*
X0588064Y0310021D02*
X0645627Y0310021D01*
X0645878Y0309235D02*
X0587812Y0309235D01*
X0587309Y0308449D02*
X0599913Y0308449D01*
X0598095Y0309433D02*
X0603024Y0309433D01*
X0604595Y0311004D01*
X0604595Y0316433D01*
X0603277Y0308449D02*
X0646381Y0308449D01*
X0647526Y0307663D02*
X0604063Y0307663D01*
X0604417Y0306877D02*
X0662773Y0306877D01*
X0662627Y0306091D02*
X0604564Y0306091D01*
X0604548Y0305305D02*
X0662642Y0305305D01*
X0663127Y0307663D02*
X0649664Y0307663D01*
X0650809Y0308449D02*
X0663913Y0308449D01*
X0662595Y0309933D02*
X0659595Y0306933D01*
X0659595Y0305933D01*
X0662595Y0309933D02*
X0667524Y0309933D01*
X0668595Y0311004D01*
X0668595Y0316433D01*
X0663064Y0315524D02*
X0662612Y0316615D01*
X0661777Y0317450D01*
X0660686Y0317902D01*
X0659505Y0317902D01*
X0658414Y0317450D01*
X0657579Y0316615D01*
X0657127Y0315524D01*
X0657127Y0314343D01*
X0657579Y0313252D01*
X0658414Y0312416D01*
X0659505Y0311965D01*
X0660686Y0311965D01*
X0661777Y0312416D01*
X0662612Y0313252D01*
X0663064Y0314343D01*
X0663064Y0315524D01*
X0663064Y0315522D02*
X0760095Y0315522D01*
X0760095Y0314736D02*
X0663064Y0314736D01*
X0662901Y0313950D02*
X0760095Y0313950D01*
X0760095Y0313164D02*
X0662524Y0313164D01*
X0661685Y0312378D02*
X0711342Y0312378D01*
X0711414Y0312450D02*
X0710579Y0311615D01*
X0710127Y0310524D01*
X0710127Y0309343D01*
X0710579Y0308252D01*
X0711414Y0307416D01*
X0712505Y0306965D01*
X0713686Y0306965D01*
X0714777Y0307416D01*
X0715612Y0308252D01*
X0716064Y0309343D01*
X0716064Y0310524D01*
X0715612Y0311615D01*
X0714777Y0312450D01*
X0713686Y0312902D01*
X0712505Y0312902D01*
X0711414Y0312450D01*
X0710569Y0311592D02*
X0651328Y0311592D01*
X0651564Y0310807D02*
X0710244Y0310807D01*
X0710127Y0310021D02*
X0651564Y0310021D01*
X0651312Y0309235D02*
X0710171Y0309235D01*
X0710497Y0308449D02*
X0667277Y0308449D01*
X0668063Y0307663D02*
X0711167Y0307663D01*
X0715023Y0307663D02*
X0727127Y0307663D01*
X0726773Y0306877D02*
X0668417Y0306877D01*
X0668564Y0306091D02*
X0726627Y0306091D01*
X0726642Y0305305D02*
X0668548Y0305305D01*
X0668796Y0300933D02*
X0668627Y0300524D01*
X0668627Y0299343D01*
X0669079Y0298252D01*
X0669914Y0297416D01*
X0671005Y0296965D01*
X0672186Y0296965D01*
X0673277Y0297416D01*
X0674112Y0298252D01*
X0674564Y0299343D01*
X0674564Y0300524D01*
X0674394Y0300933D01*
X0732796Y0300933D01*
X0732627Y0300524D01*
X0732627Y0299343D01*
X0733079Y0298252D01*
X0733914Y0297416D01*
X0735005Y0296965D01*
X0736186Y0296965D01*
X0737277Y0297416D01*
X0738112Y0298252D01*
X0738564Y0299343D01*
X0738564Y0300524D01*
X0738394Y0300933D01*
X0760095Y0300933D01*
X0760095Y0277433D01*
X0710187Y0277433D01*
X0710112Y0277615D01*
X0709277Y0278450D01*
X0708186Y0278902D01*
X0707005Y0278902D01*
X0705914Y0278450D01*
X0705079Y0277615D01*
X0705003Y0277433D01*
X0645293Y0277433D01*
X0644777Y0277950D01*
X0643686Y0278402D01*
X0642505Y0278402D01*
X0641414Y0277950D01*
X0640897Y0277433D01*
X0581293Y0277433D01*
X0580777Y0277950D01*
X0579686Y0278402D01*
X0578505Y0278402D01*
X0577595Y0278025D01*
X0577595Y0300933D01*
X0604796Y0300933D01*
X0604627Y0300524D01*
X0604627Y0299343D01*
X0605079Y0298252D01*
X0605914Y0297416D01*
X0607005Y0296965D01*
X0608186Y0296965D01*
X0609277Y0297416D01*
X0610112Y0298252D01*
X0610564Y0299343D01*
X0610564Y0300524D01*
X0610394Y0300933D01*
X0668796Y0300933D01*
X0668654Y0300590D02*
X0610536Y0300590D01*
X0610564Y0299804D02*
X0668627Y0299804D01*
X0668761Y0299018D02*
X0610429Y0299018D01*
X0610092Y0298232D02*
X0669098Y0298232D01*
X0669884Y0297446D02*
X0609306Y0297446D01*
X0605884Y0297446D02*
X0577595Y0297446D01*
X0577595Y0296660D02*
X0760095Y0296660D01*
X0760095Y0295874D02*
X0577595Y0295874D01*
X0577595Y0295088D02*
X0627748Y0295088D01*
X0627414Y0294950D02*
X0626579Y0294115D01*
X0626127Y0293024D01*
X0626127Y0291843D01*
X0626579Y0290752D01*
X0627414Y0289916D01*
X0628505Y0289465D01*
X0629686Y0289465D01*
X0630777Y0289916D01*
X0631612Y0290752D01*
X0632064Y0291843D01*
X0632064Y0293024D01*
X0631612Y0294115D01*
X0630777Y0294950D01*
X0629686Y0295402D01*
X0628505Y0295402D01*
X0627414Y0294950D01*
X0626766Y0294302D02*
X0577595Y0294302D01*
X0577595Y0293516D02*
X0626331Y0293516D01*
X0626127Y0292731D02*
X0577595Y0292731D01*
X0577595Y0291945D02*
X0593909Y0291945D01*
X0593914Y0291950D02*
X0593079Y0291115D01*
X0592627Y0290024D01*
X0592627Y0288843D01*
X0593079Y0287752D01*
X0593914Y0286916D01*
X0595005Y0286465D01*
X0596186Y0286465D01*
X0597277Y0286916D01*
X0597845Y0287485D01*
X0598414Y0286916D01*
X0599505Y0286465D01*
X0600686Y0286465D01*
X0601777Y0286916D01*
X0602612Y0287752D01*
X0603064Y0288843D01*
X0603064Y0290024D01*
X0602612Y0291115D01*
X0601777Y0291950D01*
X0600686Y0292402D01*
X0599505Y0292402D01*
X0598414Y0291950D01*
X0597845Y0291381D01*
X0597277Y0291950D01*
X0596186Y0292402D01*
X0595005Y0292402D01*
X0593914Y0291950D01*
X0593123Y0291159D02*
X0577595Y0291159D01*
X0577595Y0290373D02*
X0592771Y0290373D01*
X0592627Y0289587D02*
X0577595Y0289587D01*
X0577595Y0288801D02*
X0592644Y0288801D01*
X0592969Y0288015D02*
X0577595Y0288015D01*
X0577595Y0287229D02*
X0593601Y0287229D01*
X0597589Y0287229D02*
X0598101Y0287229D01*
X0598595Y0284933D02*
X0604095Y0284933D01*
X0604595Y0285433D01*
X0604595Y0289433D01*
X0604595Y0294862D01*
X0603524Y0295933D01*
X0598095Y0295933D01*
X0596095Y0297933D01*
X0596095Y0300933D01*
X0604654Y0300590D02*
X0577595Y0300590D01*
X0577595Y0299804D02*
X0604627Y0299804D01*
X0604761Y0299018D02*
X0577595Y0299018D01*
X0577595Y0298232D02*
X0605098Y0298232D01*
X0607414Y0291950D02*
X0606579Y0291115D01*
X0606127Y0290024D01*
X0606127Y0288843D01*
X0606579Y0287752D01*
X0607414Y0286916D01*
X0608505Y0286465D01*
X0609686Y0286465D01*
X0610777Y0286916D01*
X0611345Y0287485D01*
X0611914Y0286916D01*
X0613005Y0286465D01*
X0614186Y0286465D01*
X0615277Y0286916D01*
X0616112Y0287752D01*
X0616564Y0288843D01*
X0616564Y0290024D01*
X0616112Y0291115D01*
X0615277Y0291950D01*
X0614186Y0292402D01*
X0613005Y0292402D01*
X0611914Y0291950D01*
X0611345Y0291381D01*
X0610777Y0291950D01*
X0609686Y0292402D01*
X0608505Y0292402D01*
X0607414Y0291950D01*
X0607409Y0291945D02*
X0601782Y0291945D01*
X0602568Y0291159D02*
X0606623Y0291159D01*
X0606271Y0290373D02*
X0602919Y0290373D01*
X0603064Y0289587D02*
X0606127Y0289587D01*
X0606144Y0288801D02*
X0603046Y0288801D01*
X0602721Y0288015D02*
X0606469Y0288015D01*
X0607101Y0287229D02*
X0602089Y0287229D01*
X0598595Y0284933D02*
X0596095Y0282433D01*
X0596095Y0278433D01*
X0596095Y0272933D02*
X0596095Y0269433D01*
X0597095Y0268433D01*
X0600595Y0268433D01*
X0599595Y0268433D01*
X0600595Y0268433D02*
X0602595Y0268433D01*
X0604595Y0266433D01*
X0604595Y0262433D01*
X0604595Y0260433D01*
X0604595Y0257504D01*
X0603024Y0255933D01*
X0597595Y0255933D01*
X0596095Y0254433D01*
X0596095Y0251933D01*
X0595095Y0252933D01*
X0575095Y0252933D01*
X0573095Y0250933D01*
X0573095Y0225433D01*
X0578095Y0220433D01*
X0605095Y0220433D01*
X0605095Y0215004D01*
X0604524Y0214433D01*
X0597595Y0214433D01*
X0596595Y0213433D01*
X0596595Y0209433D01*
X0599127Y0209424D02*
X0577595Y0209424D01*
X0577595Y0210210D02*
X0599127Y0210210D01*
X0599127Y0210524D02*
X0599127Y0209343D01*
X0599503Y0208433D01*
X0577793Y0208433D01*
X0577595Y0208631D01*
X0577595Y0226933D01*
X0713127Y0226933D01*
X0713127Y0226843D01*
X0713579Y0225752D01*
X0714414Y0224916D01*
X0715505Y0224465D01*
X0716686Y0224465D01*
X0717777Y0224916D01*
X0718612Y0225752D01*
X0719064Y0226843D01*
X0719064Y0226933D01*
X0739503Y0226933D01*
X0739579Y0226752D01*
X0740414Y0225916D01*
X0741505Y0225465D01*
X0742686Y0225465D01*
X0743777Y0225916D01*
X0744612Y0226752D01*
X0744687Y0226933D01*
X0760095Y0226933D01*
X0760095Y0208433D01*
X0732687Y0208433D01*
X0733064Y0209343D01*
X0733064Y0210524D01*
X0732612Y0211615D01*
X0731777Y0212450D01*
X0730686Y0212902D01*
X0729505Y0212902D01*
X0728414Y0212450D01*
X0727579Y0211615D01*
X0727127Y0210524D01*
X0727127Y0209343D01*
X0727503Y0208433D01*
X0668687Y0208433D01*
X0669064Y0209343D01*
X0669064Y0210524D01*
X0668612Y0211615D01*
X0667777Y0212450D01*
X0666686Y0212902D01*
X0665505Y0212902D01*
X0664414Y0212450D01*
X0663579Y0211615D01*
X0663127Y0210524D01*
X0663127Y0209343D01*
X0663503Y0208433D01*
X0604687Y0208433D01*
X0605064Y0209343D01*
X0605064Y0210524D01*
X0604612Y0211615D01*
X0603777Y0212450D01*
X0602686Y0212902D01*
X0601505Y0212902D01*
X0600414Y0212450D01*
X0599579Y0211615D01*
X0599127Y0210524D01*
X0599322Y0210996D02*
X0577595Y0210996D01*
X0577595Y0211782D02*
X0584239Y0211782D01*
X0583914Y0211916D02*
X0585005Y0211465D01*
X0586186Y0211465D01*
X0587277Y0211916D01*
X0588112Y0212752D01*
X0588564Y0213843D01*
X0588564Y0215024D01*
X0588112Y0216115D01*
X0587277Y0216950D01*
X0586186Y0217402D01*
X0585005Y0217402D01*
X0583914Y0216950D01*
X0583079Y0216115D01*
X0582627Y0215024D01*
X0582627Y0213843D01*
X0583079Y0212752D01*
X0583914Y0211916D01*
X0583263Y0212567D02*
X0577595Y0212567D01*
X0577595Y0213353D02*
X0582829Y0213353D01*
X0582627Y0214139D02*
X0577595Y0214139D01*
X0577595Y0214925D02*
X0582627Y0214925D01*
X0582911Y0215711D02*
X0577595Y0215711D01*
X0577595Y0216497D02*
X0583461Y0216497D01*
X0584718Y0217283D02*
X0577595Y0217283D01*
X0577595Y0218069D02*
X0760095Y0218069D01*
X0760095Y0218855D02*
X0577595Y0218855D01*
X0577595Y0219641D02*
X0760095Y0219641D01*
X0760095Y0220427D02*
X0577595Y0220427D01*
X0577595Y0221212D02*
X0760095Y0221212D01*
X0760095Y0221998D02*
X0577595Y0221998D01*
X0577595Y0222784D02*
X0760095Y0222784D01*
X0760095Y0223570D02*
X0577595Y0223570D01*
X0577595Y0224356D02*
X0760095Y0224356D01*
X0760095Y0225142D02*
X0718002Y0225142D01*
X0718685Y0225928D02*
X0740402Y0225928D01*
X0739616Y0226714D02*
X0719010Y0226714D01*
X0721187Y0229933D02*
X0721564Y0230843D01*
X0721564Y0232024D01*
X0721112Y0233115D01*
X0720277Y0233950D01*
X0719186Y0234402D01*
X0718005Y0234402D01*
X0716914Y0233950D01*
X0716079Y0233115D01*
X0715627Y0232024D01*
X0715627Y0230843D01*
X0715809Y0230402D01*
X0715505Y0230402D01*
X0714414Y0229950D01*
X0714397Y0229933D01*
X0577595Y0229933D01*
X0577595Y0247433D01*
X0599296Y0247433D01*
X0599127Y0247024D01*
X0599127Y0245843D01*
X0599579Y0244752D01*
X0600414Y0243916D01*
X0601505Y0243465D01*
X0602686Y0243465D01*
X0603777Y0243916D01*
X0604612Y0244752D01*
X0605064Y0245843D01*
X0605064Y0247024D01*
X0604894Y0247433D01*
X0663296Y0247433D01*
X0663127Y0247024D01*
X0663127Y0245843D01*
X0663579Y0244752D01*
X0664414Y0243916D01*
X0665505Y0243465D01*
X0666686Y0243465D01*
X0667777Y0243916D01*
X0668612Y0244752D01*
X0669064Y0245843D01*
X0669064Y0247024D01*
X0668894Y0247433D01*
X0727296Y0247433D01*
X0727127Y0247024D01*
X0727127Y0245843D01*
X0727579Y0244752D01*
X0728414Y0243916D01*
X0729505Y0243465D01*
X0730686Y0243465D01*
X0731777Y0243916D01*
X0732612Y0244752D01*
X0733064Y0245843D01*
X0733064Y0247024D01*
X0732894Y0247433D01*
X0760095Y0247433D01*
X0760095Y0229933D01*
X0755064Y0229933D01*
X0755064Y0231024D01*
X0754612Y0232115D01*
X0753777Y0232950D01*
X0752686Y0233402D01*
X0751505Y0233402D01*
X0750414Y0232950D01*
X0749579Y0232115D01*
X0749127Y0231024D01*
X0749127Y0229933D01*
X0744687Y0229933D01*
X0744612Y0230115D01*
X0743777Y0230950D01*
X0742686Y0231402D01*
X0741505Y0231402D01*
X0740414Y0230950D01*
X0739579Y0230115D01*
X0739503Y0229933D01*
X0721187Y0229933D01*
X0721481Y0230643D02*
X0740107Y0230643D01*
X0744083Y0230643D02*
X0749127Y0230643D01*
X0749295Y0231429D02*
X0721564Y0231429D01*
X0721484Y0232215D02*
X0723115Y0232215D01*
X0723414Y0231916D02*
X0724505Y0231465D01*
X0725686Y0231465D01*
X0726777Y0231916D01*
X0727612Y0232752D01*
X0728064Y0233843D01*
X0728064Y0235024D01*
X0727612Y0236115D01*
X0726777Y0236950D01*
X0725963Y0237287D01*
X0726277Y0237416D01*
X0727112Y0238252D01*
X0727564Y0239343D01*
X0727564Y0240524D01*
X0727112Y0241615D01*
X0726277Y0242450D01*
X0725186Y0242902D01*
X0724005Y0242902D01*
X0722914Y0242450D01*
X0722079Y0241615D01*
X0721627Y0240524D01*
X0721627Y0239343D01*
X0722079Y0238252D01*
X0722914Y0237416D01*
X0723727Y0237080D01*
X0723414Y0236950D01*
X0722579Y0236115D01*
X0722127Y0235024D01*
X0722127Y0233843D01*
X0722579Y0232752D01*
X0723414Y0231916D01*
X0722475Y0233001D02*
X0721159Y0233001D01*
X0720439Y0233787D02*
X0722150Y0233787D01*
X0722127Y0234573D02*
X0577595Y0234573D01*
X0577595Y0233787D02*
X0716751Y0233787D01*
X0716032Y0233001D02*
X0577595Y0233001D01*
X0577595Y0232215D02*
X0715706Y0232215D01*
X0715627Y0231429D02*
X0577595Y0231429D01*
X0577595Y0230643D02*
X0715709Y0230643D01*
X0713180Y0226714D02*
X0577595Y0226714D01*
X0577595Y0225928D02*
X0713505Y0225928D01*
X0714188Y0225142D02*
X0577595Y0225142D01*
X0579644Y0225142D02*
X0570095Y0225142D01*
X0570095Y0224356D02*
X0579665Y0224356D01*
X0579686Y0223570D02*
X0570095Y0223570D01*
X0570095Y0222784D02*
X0579707Y0222784D01*
X0579729Y0221998D02*
X0570095Y0221998D01*
X0570095Y0221212D02*
X0579750Y0221212D01*
X0579771Y0220427D02*
X0570095Y0220427D01*
X0570095Y0219641D02*
X0579792Y0219641D01*
X0579813Y0218855D02*
X0570095Y0218855D01*
X0570095Y0218069D02*
X0579835Y0218069D01*
X0579856Y0217283D02*
X0570095Y0217283D01*
X0570095Y0216497D02*
X0579877Y0216497D01*
X0579898Y0215711D02*
X0570095Y0215711D01*
X0570095Y0214925D02*
X0579920Y0214925D01*
X0579941Y0214139D02*
X0570095Y0214139D01*
X0570095Y0213353D02*
X0579962Y0213353D01*
X0579983Y0212567D02*
X0570095Y0212567D01*
X0570095Y0211782D02*
X0580005Y0211782D01*
X0580026Y0210996D02*
X0570095Y0210996D01*
X0570095Y0210210D02*
X0580047Y0210210D01*
X0580068Y0209424D02*
X0570095Y0209424D01*
X0570095Y0208638D02*
X0573602Y0208638D01*
X0572970Y0207852D02*
X0570095Y0207852D01*
X0570095Y0207066D02*
X0572644Y0207066D01*
X0572627Y0206280D02*
X0570095Y0206280D01*
X0570095Y0205494D02*
X0572771Y0205494D01*
X0573122Y0204708D02*
X0570095Y0204708D01*
X0570095Y0203922D02*
X0573908Y0203922D01*
X0574510Y0203137D02*
X0570095Y0203137D01*
X0570095Y0202351D02*
X0574497Y0202351D01*
X0574484Y0201565D02*
X0570095Y0201565D01*
X0570095Y0200779D02*
X0574472Y0200779D01*
X0574459Y0199993D02*
X0570095Y0199993D01*
X0570095Y0199207D02*
X0574446Y0199207D01*
X0574434Y0198421D02*
X0570095Y0198421D01*
X0570095Y0197635D02*
X0574421Y0197635D01*
X0574408Y0196849D02*
X0570095Y0196849D01*
X0570095Y0196063D02*
X0574396Y0196063D01*
X0574383Y0195277D02*
X0570095Y0195277D01*
X0570095Y0194491D02*
X0574370Y0194491D01*
X0574358Y0193706D02*
X0570095Y0193706D01*
X0570095Y0192920D02*
X0574345Y0192920D01*
X0574332Y0192134D02*
X0570095Y0192134D01*
X0570095Y0191348D02*
X0574320Y0191348D01*
X0574307Y0190562D02*
X0570095Y0190562D01*
X0570095Y0189776D02*
X0574294Y0189776D01*
X0574282Y0188990D02*
X0570095Y0188990D01*
X0570095Y0188204D02*
X0574269Y0188204D01*
X0574256Y0187418D02*
X0570095Y0187418D01*
X0570095Y0186632D02*
X0574244Y0186632D01*
X0574231Y0185846D02*
X0570095Y0185846D01*
X0570095Y0185061D02*
X0574218Y0185061D01*
X0574205Y0184275D02*
X0570095Y0184275D01*
X0570095Y0183489D02*
X0574193Y0183489D01*
X0574180Y0182703D02*
X0570095Y0182703D01*
X0570095Y0181917D02*
X0574167Y0181917D01*
X0574155Y0181131D02*
X0570095Y0181131D01*
X0570095Y0180345D02*
X0574142Y0180345D01*
X0574129Y0179559D02*
X0570095Y0179559D01*
X0570095Y0178773D02*
X0574117Y0178773D01*
X0574104Y0177987D02*
X0570095Y0177987D01*
X0570095Y0177201D02*
X0577629Y0177201D01*
X0577595Y0177201D01*
X0577595Y0177235D02*
X0577914Y0176916D01*
X0579005Y0176465D01*
X0580186Y0176465D01*
X0581277Y0176916D01*
X0581793Y0177433D01*
X0641897Y0177433D01*
X0641914Y0177416D01*
X0643005Y0176965D01*
X0644186Y0176965D01*
X0645277Y0177416D01*
X0645293Y0177433D01*
X0705897Y0177433D01*
X0705914Y0177416D01*
X0707005Y0176965D01*
X0708186Y0176965D01*
X0709277Y0177416D01*
X0709293Y0177433D01*
X0760095Y0177433D01*
X0760095Y0155433D01*
X0734894Y0155433D01*
X0735064Y0155843D01*
X0735064Y0157024D01*
X0734612Y0158115D01*
X0733777Y0158950D01*
X0732686Y0159402D01*
X0731505Y0159402D01*
X0730414Y0158950D01*
X0729579Y0158115D01*
X0729127Y0157024D01*
X0729127Y0155843D01*
X0729296Y0155433D01*
X0670894Y0155433D01*
X0671064Y0155843D01*
X0671064Y0157024D01*
X0670612Y0158115D01*
X0669777Y0158950D01*
X0668686Y0159402D01*
X0667505Y0159402D01*
X0666414Y0158950D01*
X0665579Y0158115D01*
X0665127Y0157024D01*
X0665127Y0155843D01*
X0665296Y0155433D01*
X0606894Y0155433D01*
X0607064Y0155843D01*
X0607064Y0157024D01*
X0606612Y0158115D01*
X0605777Y0158950D01*
X0604686Y0159402D01*
X0603505Y0159402D01*
X0602414Y0158950D01*
X0601579Y0158115D01*
X0601127Y0157024D01*
X0601127Y0155843D01*
X0601296Y0155433D01*
X0577595Y0155433D01*
X0577595Y0177235D01*
X0577595Y0176415D02*
X0760095Y0176415D01*
X0760095Y0175630D02*
X0577595Y0175630D01*
X0577595Y0174844D02*
X0760095Y0174844D01*
X0760095Y0174058D02*
X0577595Y0174058D01*
X0577595Y0173272D02*
X0760095Y0173272D01*
X0760095Y0172486D02*
X0577595Y0172486D01*
X0577595Y0171700D02*
X0760095Y0171700D01*
X0760095Y0170914D02*
X0577595Y0170914D01*
X0577595Y0170128D02*
X0760095Y0170128D01*
X0760095Y0169342D02*
X0742829Y0169342D01*
X0742686Y0169402D02*
X0741505Y0169402D01*
X0740414Y0168950D01*
X0739845Y0168381D01*
X0739277Y0168950D01*
X0738186Y0169402D01*
X0737005Y0169402D01*
X0735914Y0168950D01*
X0735079Y0168115D01*
X0734627Y0167024D01*
X0734627Y0165843D01*
X0735079Y0164752D01*
X0735914Y0163916D01*
X0737005Y0163465D01*
X0738186Y0163465D01*
X0739277Y0163916D01*
X0739845Y0164485D01*
X0740414Y0163916D01*
X0741505Y0163465D01*
X0742686Y0163465D01*
X0743777Y0163916D01*
X0744612Y0164752D01*
X0745064Y0165843D01*
X0745064Y0167024D01*
X0744612Y0168115D01*
X0743777Y0168950D01*
X0742686Y0169402D01*
X0741361Y0169342D02*
X0738329Y0169342D01*
X0736861Y0169342D02*
X0729329Y0169342D01*
X0729186Y0169402D02*
X0728005Y0169402D01*
X0726914Y0168950D01*
X0726345Y0168381D01*
X0725777Y0168950D01*
X0724686Y0169402D01*
X0723505Y0169402D01*
X0722414Y0168950D01*
X0721579Y0168115D01*
X0721127Y0167024D01*
X0721127Y0165843D01*
X0721579Y0164752D01*
X0722414Y0163916D01*
X0723505Y0163465D01*
X0724686Y0163465D01*
X0725777Y0163916D01*
X0726345Y0164485D01*
X0726914Y0163916D01*
X0728005Y0163465D01*
X0729186Y0163465D01*
X0730277Y0163916D01*
X0731112Y0164752D01*
X0731564Y0165843D01*
X0731564Y0167024D01*
X0731112Y0168115D01*
X0730277Y0168950D01*
X0729186Y0169402D01*
X0727861Y0169342D02*
X0724829Y0169342D01*
X0723361Y0169342D02*
X0704329Y0169342D01*
X0704186Y0169402D02*
X0703005Y0169402D01*
X0701914Y0168950D01*
X0701079Y0168115D01*
X0700627Y0167024D01*
X0700627Y0165843D01*
X0701079Y0164752D01*
X0701914Y0163916D01*
X0703005Y0163465D01*
X0704186Y0163465D01*
X0705277Y0163916D01*
X0706112Y0164752D01*
X0706564Y0165843D01*
X0706564Y0167024D01*
X0706112Y0168115D01*
X0705277Y0168950D01*
X0704186Y0169402D01*
X0702861Y0169342D02*
X0691829Y0169342D01*
X0691686Y0169402D02*
X0690505Y0169402D01*
X0689414Y0168950D01*
X0688579Y0168115D01*
X0688127Y0167024D01*
X0688127Y0165843D01*
X0688579Y0164752D01*
X0689414Y0163916D01*
X0690505Y0163465D01*
X0691686Y0163465D01*
X0692777Y0163916D01*
X0693612Y0164752D01*
X0694064Y0165843D01*
X0694064Y0167024D01*
X0693612Y0168115D01*
X0692777Y0168950D01*
X0691686Y0169402D01*
X0690361Y0169342D02*
X0678829Y0169342D01*
X0678686Y0169402D02*
X0677505Y0169402D01*
X0676414Y0168950D01*
X0675845Y0168381D01*
X0675277Y0168950D01*
X0674186Y0169402D01*
X0673005Y0169402D01*
X0671914Y0168950D01*
X0671079Y0168115D01*
X0670627Y0167024D01*
X0670627Y0165843D01*
X0671079Y0164752D01*
X0671914Y0163916D01*
X0673005Y0163465D01*
X0674186Y0163465D01*
X0675277Y0163916D01*
X0675845Y0164485D01*
X0676414Y0163916D01*
X0677505Y0163465D01*
X0678686Y0163465D01*
X0679777Y0163916D01*
X0680612Y0164752D01*
X0681064Y0165843D01*
X0681064Y0167024D01*
X0680612Y0168115D01*
X0679777Y0168950D01*
X0678686Y0169402D01*
X0677361Y0169342D02*
X0674329Y0169342D01*
X0672861Y0169342D02*
X0665329Y0169342D01*
X0665186Y0169402D02*
X0664005Y0169402D01*
X0662914Y0168950D01*
X0662345Y0168381D01*
X0661777Y0168950D01*
X0660686Y0169402D01*
X0659505Y0169402D01*
X0658414Y0168950D01*
X0657579Y0168115D01*
X0657127Y0167024D01*
X0657127Y0165843D01*
X0657579Y0164752D01*
X0658414Y0163916D01*
X0659505Y0163465D01*
X0660686Y0163465D01*
X0661777Y0163916D01*
X0662345Y0164485D01*
X0662914Y0163916D01*
X0664005Y0163465D01*
X0665186Y0163465D01*
X0666277Y0163916D01*
X0667112Y0164752D01*
X0667564Y0165843D01*
X0667564Y0167024D01*
X0667112Y0168115D01*
X0666277Y0168950D01*
X0665186Y0169402D01*
X0663861Y0169342D02*
X0660829Y0169342D01*
X0659361Y0169342D02*
X0614829Y0169342D01*
X0614686Y0169402D02*
X0613505Y0169402D01*
X0612414Y0168950D01*
X0611845Y0168381D01*
X0611277Y0168950D01*
X0610186Y0169402D01*
X0609005Y0169402D01*
X0607914Y0168950D01*
X0607079Y0168115D01*
X0606627Y0167024D01*
X0606627Y0165843D01*
X0607079Y0164752D01*
X0607914Y0163916D01*
X0609005Y0163465D01*
X0610186Y0163465D01*
X0611277Y0163916D01*
X0611845Y0164485D01*
X0612414Y0163916D01*
X0613505Y0163465D01*
X0614686Y0163465D01*
X0615777Y0163916D01*
X0616612Y0164752D01*
X0617064Y0165843D01*
X0617064Y0167024D01*
X0616612Y0168115D01*
X0615777Y0168950D01*
X0614686Y0169402D01*
X0613361Y0169342D02*
X0610329Y0169342D01*
X0608861Y0169342D02*
X0601329Y0169342D01*
X0601186Y0169402D02*
X0600005Y0169402D01*
X0598914Y0168950D01*
X0598345Y0168381D01*
X0597777Y0168950D01*
X0596686Y0169402D01*
X0595505Y0169402D01*
X0594414Y0168950D01*
X0593579Y0168115D01*
X0593127Y0167024D01*
X0593127Y0165843D01*
X0593579Y0164752D01*
X0594414Y0163916D01*
X0595505Y0163465D01*
X0596686Y0163465D01*
X0597777Y0163916D01*
X0598345Y0164485D01*
X0598914Y0163916D01*
X0600005Y0163465D01*
X0601186Y0163465D01*
X0602277Y0163916D01*
X0603112Y0164752D01*
X0603564Y0165843D01*
X0603564Y0167024D01*
X0603112Y0168115D01*
X0602277Y0168950D01*
X0601186Y0169402D01*
X0599861Y0169342D02*
X0596829Y0169342D01*
X0595361Y0169342D02*
X0577595Y0169342D01*
X0577595Y0168556D02*
X0594020Y0168556D01*
X0593436Y0167770D02*
X0577595Y0167770D01*
X0577595Y0166985D02*
X0593127Y0166985D01*
X0593127Y0166199D02*
X0577595Y0166199D01*
X0577595Y0165413D02*
X0593305Y0165413D01*
X0593703Y0164627D02*
X0577595Y0164627D01*
X0577595Y0163841D02*
X0594596Y0163841D01*
X0597594Y0163841D02*
X0599096Y0163841D01*
X0599595Y0160933D02*
X0604524Y0160933D01*
X0605095Y0161504D01*
X0605095Y0166433D01*
X0605095Y0171362D01*
X0603024Y0173433D01*
X0598095Y0173433D01*
X0596595Y0174933D01*
X0596595Y0176933D01*
X0596595Y0181933D02*
X0596595Y0186433D01*
X0598595Y0188433D01*
X0602595Y0188433D01*
X0605095Y0190933D01*
X0605095Y0193433D01*
X0605095Y0198862D01*
X0603524Y0200433D01*
X0597595Y0200433D01*
X0596595Y0201433D01*
X0596595Y0204933D01*
X0599419Y0208638D02*
X0577595Y0208638D01*
X0577588Y0208638D02*
X0580090Y0208638D01*
X0578394Y0205433D02*
X0605503Y0205433D01*
X0605127Y0204524D01*
X0605127Y0203343D01*
X0605579Y0202252D01*
X0606414Y0201416D01*
X0607505Y0200965D01*
X0608686Y0200965D01*
X0609777Y0201416D01*
X0610612Y0202252D01*
X0611064Y0203343D01*
X0611064Y0204524D01*
X0610687Y0205433D01*
X0669503Y0205433D01*
X0669127Y0204524D01*
X0669127Y0203343D01*
X0669579Y0202252D01*
X0670414Y0201416D01*
X0671505Y0200965D01*
X0672686Y0200965D01*
X0673777Y0201416D01*
X0674612Y0202252D01*
X0675064Y0203343D01*
X0675064Y0204524D01*
X0674687Y0205433D01*
X0733503Y0205433D01*
X0733127Y0204524D01*
X0733127Y0203343D01*
X0733579Y0202252D01*
X0734414Y0201416D01*
X0735505Y0200965D01*
X0736686Y0200965D01*
X0737777Y0201416D01*
X0738612Y0202252D01*
X0739064Y0203343D01*
X0739064Y0204524D01*
X0738687Y0205433D01*
X0760095Y0205433D01*
X0760095Y0198131D01*
X0759277Y0198950D01*
X0758186Y0199402D01*
X0757005Y0199402D01*
X0755914Y0198950D01*
X0755079Y0198115D01*
X0754627Y0197024D01*
X0754627Y0195843D01*
X0755079Y0194752D01*
X0755914Y0193916D01*
X0757005Y0193465D01*
X0758186Y0193465D01*
X0759277Y0193916D01*
X0760095Y0194735D01*
X0760095Y0181433D01*
X0710187Y0181433D01*
X0710112Y0181615D01*
X0709277Y0182450D01*
X0708186Y0182902D01*
X0707005Y0182902D01*
X0705914Y0182450D01*
X0705079Y0181615D01*
X0705003Y0181433D01*
X0646187Y0181433D01*
X0646112Y0181615D01*
X0645277Y0182450D01*
X0644186Y0182902D01*
X0643005Y0182902D01*
X0641914Y0182450D01*
X0641079Y0181615D01*
X0641003Y0181433D01*
X0581793Y0181433D01*
X0581277Y0181950D01*
X0580186Y0182402D01*
X0579005Y0182402D01*
X0577914Y0181950D01*
X0577595Y0181631D01*
X0577595Y0193465D01*
X0578686Y0193465D01*
X0578835Y0193526D01*
X0578627Y0193024D01*
X0578627Y0191843D01*
X0579079Y0190752D01*
X0579914Y0189916D01*
X0581005Y0189465D01*
X0582186Y0189465D01*
X0583277Y0189916D01*
X0584112Y0190752D01*
X0584564Y0191843D01*
X0584564Y0193024D01*
X0584112Y0194115D01*
X0583277Y0194950D01*
X0582186Y0195402D01*
X0581005Y0195402D01*
X0580855Y0195340D01*
X0581064Y0195843D01*
X0581064Y0197024D01*
X0580612Y0198115D01*
X0579777Y0198950D01*
X0578686Y0199402D01*
X0577595Y0199402D01*
X0577595Y0204235D01*
X0578112Y0204752D01*
X0578394Y0205433D01*
X0578068Y0204708D02*
X0605203Y0204708D01*
X0605127Y0203922D02*
X0577595Y0203922D01*
X0577595Y0203137D02*
X0605212Y0203137D01*
X0605538Y0202351D02*
X0577595Y0202351D01*
X0577595Y0201565D02*
X0606265Y0201565D01*
X0609925Y0201565D02*
X0670265Y0201565D01*
X0669538Y0202351D02*
X0610653Y0202351D01*
X0610978Y0203137D02*
X0669212Y0203137D01*
X0669127Y0203922D02*
X0611064Y0203922D01*
X0610987Y0204708D02*
X0669203Y0204708D01*
X0668772Y0208638D02*
X0727419Y0208638D01*
X0727127Y0209424D02*
X0669064Y0209424D01*
X0669064Y0210210D02*
X0727127Y0210210D01*
X0727322Y0210996D02*
X0668868Y0210996D01*
X0668445Y0211782D02*
X0712239Y0211782D01*
X0711914Y0211916D02*
X0713005Y0211465D01*
X0714186Y0211465D01*
X0715277Y0211916D01*
X0716112Y0212752D01*
X0716564Y0213843D01*
X0716564Y0215024D01*
X0716112Y0216115D01*
X0715277Y0216950D01*
X0714186Y0217402D01*
X0713005Y0217402D01*
X0711914Y0216950D01*
X0711079Y0216115D01*
X0710627Y0215024D01*
X0710627Y0213843D01*
X0711079Y0212752D01*
X0711914Y0211916D01*
X0711263Y0212567D02*
X0667492Y0212567D01*
X0668524Y0214433D02*
X0663095Y0214433D01*
X0660595Y0211933D01*
X0660595Y0209433D01*
X0663127Y0209424D02*
X0605064Y0209424D01*
X0605064Y0210210D02*
X0663127Y0210210D01*
X0663322Y0210996D02*
X0650261Y0210996D01*
X0650186Y0210965D02*
X0651277Y0211416D01*
X0652112Y0212252D01*
X0652564Y0213343D01*
X0652564Y0214524D01*
X0652112Y0215615D01*
X0651277Y0216450D01*
X0650186Y0216902D01*
X0649005Y0216902D01*
X0647914Y0216450D01*
X0647079Y0215615D01*
X0646627Y0214524D01*
X0646627Y0213343D01*
X0647079Y0212252D01*
X0647914Y0211416D01*
X0649005Y0210965D01*
X0650186Y0210965D01*
X0648930Y0210996D02*
X0604868Y0210996D01*
X0604445Y0211782D02*
X0647549Y0211782D01*
X0646948Y0212567D02*
X0603492Y0212567D01*
X0600698Y0212567D02*
X0587928Y0212567D01*
X0588361Y0213353D02*
X0646627Y0213353D01*
X0646627Y0214139D02*
X0588564Y0214139D01*
X0588564Y0214925D02*
X0646793Y0214925D01*
X0647175Y0215711D02*
X0588279Y0215711D01*
X0587729Y0216497D02*
X0648028Y0216497D01*
X0651162Y0216497D02*
X0711461Y0216497D01*
X0710911Y0215711D02*
X0652015Y0215711D01*
X0652397Y0214925D02*
X0710627Y0214925D01*
X0710627Y0214139D02*
X0652564Y0214139D01*
X0652564Y0213353D02*
X0710829Y0213353D01*
X0712718Y0217283D02*
X0586472Y0217283D01*
X0586951Y0211782D02*
X0599746Y0211782D01*
X0604772Y0208638D02*
X0663419Y0208638D01*
X0663746Y0211782D02*
X0651642Y0211782D01*
X0652243Y0212567D02*
X0664698Y0212567D01*
X0668524Y0214433D02*
X0669095Y0215004D01*
X0669095Y0220433D01*
X0668595Y0236433D02*
X0663595Y0236433D01*
X0660095Y0239933D01*
X0660095Y0246933D01*
X0663127Y0246362D02*
X0605064Y0246362D01*
X0605012Y0247148D02*
X0663178Y0247148D01*
X0663237Y0245576D02*
X0604953Y0245576D01*
X0604628Y0244790D02*
X0647254Y0244790D01*
X0647414Y0244950D02*
X0646579Y0244115D01*
X0646127Y0243024D01*
X0646127Y0241843D01*
X0646579Y0240752D01*
X0647414Y0239916D01*
X0648505Y0239465D01*
X0649686Y0239465D01*
X0650777Y0239916D01*
X0651612Y0240752D01*
X0652064Y0241843D01*
X0652064Y0243024D01*
X0651612Y0244115D01*
X0650777Y0244950D01*
X0649686Y0245402D01*
X0648505Y0245402D01*
X0647414Y0244950D01*
X0646533Y0244004D02*
X0603864Y0244004D01*
X0604024Y0241933D02*
X0604595Y0241362D01*
X0604595Y0236433D01*
X0604024Y0241933D02*
X0598095Y0241933D01*
X0596095Y0243933D01*
X0596095Y0246933D01*
X0599127Y0246362D02*
X0577595Y0246362D01*
X0577595Y0247148D02*
X0599178Y0247148D01*
X0599237Y0245576D02*
X0577595Y0245576D01*
X0577595Y0244790D02*
X0583254Y0244790D01*
X0583414Y0244950D02*
X0582579Y0244115D01*
X0582127Y0243024D01*
X0582127Y0241843D01*
X0582579Y0240752D01*
X0583414Y0239916D01*
X0584505Y0239465D01*
X0585686Y0239465D01*
X0586777Y0239916D01*
X0587612Y0240752D01*
X0588064Y0241843D01*
X0588064Y0243024D01*
X0587612Y0244115D01*
X0586777Y0244950D01*
X0585686Y0245402D01*
X0584505Y0245402D01*
X0583414Y0244950D01*
X0582533Y0244004D02*
X0577595Y0244004D01*
X0577595Y0243218D02*
X0582207Y0243218D01*
X0582127Y0242432D02*
X0577595Y0242432D01*
X0577595Y0241646D02*
X0582208Y0241646D01*
X0582534Y0240860D02*
X0577595Y0240860D01*
X0577595Y0240074D02*
X0583256Y0240074D01*
X0586935Y0240074D02*
X0640127Y0240074D01*
X0640127Y0240524D02*
X0640127Y0239343D01*
X0640579Y0238252D01*
X0641414Y0237416D01*
X0642505Y0236965D01*
X0643686Y0236965D01*
X0644777Y0237416D01*
X0645612Y0238252D01*
X0646064Y0239343D01*
X0646064Y0240524D01*
X0645612Y0241615D01*
X0644777Y0242450D01*
X0643686Y0242902D01*
X0642505Y0242902D01*
X0641414Y0242450D01*
X0640579Y0241615D01*
X0640127Y0240524D01*
X0640266Y0240860D02*
X0587657Y0240860D01*
X0587982Y0241646D02*
X0640610Y0241646D01*
X0641396Y0242432D02*
X0588064Y0242432D01*
X0587983Y0243218D02*
X0646207Y0243218D01*
X0646127Y0242432D02*
X0644794Y0242432D01*
X0645580Y0241646D02*
X0646208Y0241646D01*
X0645924Y0240860D02*
X0646534Y0240860D01*
X0646064Y0240074D02*
X0647256Y0240074D01*
X0646041Y0239288D02*
X0721649Y0239288D01*
X0721627Y0240074D02*
X0714935Y0240074D01*
X0714777Y0239916D02*
X0715612Y0240752D01*
X0716064Y0241843D01*
X0716064Y0243024D01*
X0715612Y0244115D01*
X0714777Y0244950D01*
X0713686Y0245402D01*
X0712505Y0245402D01*
X0711414Y0244950D01*
X0710579Y0244115D01*
X0710127Y0243024D01*
X0710127Y0241843D01*
X0710579Y0240752D01*
X0711414Y0239916D01*
X0712505Y0239465D01*
X0713686Y0239465D01*
X0714777Y0239916D01*
X0715657Y0240860D02*
X0721766Y0240860D01*
X0722110Y0241646D02*
X0715982Y0241646D01*
X0716064Y0242432D02*
X0722896Y0242432D01*
X0726294Y0242432D02*
X0760095Y0242432D01*
X0759595Y0242432D02*
X0769095Y0242432D01*
X0769095Y0241646D02*
X0759595Y0241646D01*
X0760095Y0241646D02*
X0727080Y0241646D01*
X0727424Y0240860D02*
X0760095Y0240860D01*
X0759595Y0240860D02*
X0769095Y0240860D01*
X0769095Y0240074D02*
X0759595Y0240074D01*
X0760095Y0240074D02*
X0727564Y0240074D01*
X0727541Y0239288D02*
X0760095Y0239288D01*
X0759595Y0239288D02*
X0769095Y0239288D01*
X0769095Y0238503D02*
X0759595Y0238503D01*
X0760095Y0238503D02*
X0727216Y0238503D01*
X0726577Y0237717D02*
X0760095Y0237717D01*
X0759595Y0237717D02*
X0769095Y0237717D01*
X0769095Y0236931D02*
X0759595Y0236931D01*
X0760095Y0236931D02*
X0726796Y0236931D01*
X0727581Y0236145D02*
X0760095Y0236145D01*
X0759595Y0236145D02*
X0769095Y0236145D01*
X0769095Y0235359D02*
X0759595Y0235359D01*
X0760095Y0235359D02*
X0727925Y0235359D01*
X0728064Y0234573D02*
X0760095Y0234573D01*
X0759595Y0234573D02*
X0769095Y0234573D01*
X0769095Y0233787D02*
X0768439Y0233787D01*
X0764751Y0233787D02*
X0759595Y0233787D01*
X0760095Y0233787D02*
X0728041Y0233787D01*
X0727715Y0233001D02*
X0750538Y0233001D01*
X0749679Y0232215D02*
X0727075Y0232215D01*
X0722266Y0235359D02*
X0577595Y0235359D01*
X0577595Y0236145D02*
X0722609Y0236145D01*
X0723395Y0236931D02*
X0577595Y0236931D01*
X0577595Y0237717D02*
X0641113Y0237717D01*
X0640475Y0238503D02*
X0577595Y0238503D01*
X0577595Y0239288D02*
X0640149Y0239288D01*
X0645077Y0237717D02*
X0722613Y0237717D01*
X0721975Y0238503D02*
X0645716Y0238503D01*
X0650935Y0240074D02*
X0711256Y0240074D01*
X0710534Y0240860D02*
X0651657Y0240860D01*
X0651982Y0241646D02*
X0710208Y0241646D01*
X0710127Y0242432D02*
X0652064Y0242432D01*
X0651983Y0243218D02*
X0710207Y0243218D01*
X0710533Y0244004D02*
X0667864Y0244004D01*
X0668628Y0244790D02*
X0711254Y0244790D01*
X0714936Y0244790D02*
X0727563Y0244790D01*
X0727237Y0245576D02*
X0668953Y0245576D01*
X0669064Y0246362D02*
X0727127Y0246362D01*
X0727178Y0247148D02*
X0669012Y0247148D01*
X0670564Y0251863D02*
X0728627Y0251863D01*
X0734005Y0254221D02*
X0760095Y0254221D01*
X0760095Y0253435D02*
X0734393Y0253435D01*
X0734564Y0252649D02*
X0760095Y0252649D01*
X0760095Y0251863D02*
X0734564Y0251863D01*
X0733012Y0247148D02*
X0760095Y0247148D01*
X0759595Y0247148D02*
X0769095Y0247148D01*
X0769095Y0247934D02*
X0763595Y0247934D01*
X0763595Y0248719D02*
X0769095Y0248719D01*
X0769095Y0249505D02*
X0763595Y0249505D01*
X0763595Y0250291D02*
X0769095Y0250291D01*
X0769095Y0251077D02*
X0763595Y0251077D01*
X0763595Y0251863D02*
X0769095Y0251863D01*
X0769095Y0252649D02*
X0763595Y0252649D01*
X0763595Y0253435D02*
X0769095Y0253435D01*
X0769095Y0254221D02*
X0763595Y0254221D01*
X0763595Y0255007D02*
X0769095Y0255007D01*
X0769095Y0255793D02*
X0763595Y0255793D01*
X0763595Y0256579D02*
X0769095Y0256579D01*
X0769095Y0257364D02*
X0763595Y0257364D01*
X0763595Y0258150D02*
X0769095Y0258150D01*
X0769095Y0258936D02*
X0763595Y0258936D01*
X0763595Y0259722D02*
X0769095Y0259722D01*
X0769095Y0260508D02*
X0763595Y0260508D01*
X0763595Y0261294D02*
X0769095Y0261294D01*
X0769095Y0262080D02*
X0763595Y0262080D01*
X0763595Y0262866D02*
X0769095Y0262866D01*
X0769095Y0263652D02*
X0763595Y0263652D01*
X0763595Y0264438D02*
X0769095Y0264438D01*
X0769095Y0265224D02*
X0763595Y0265224D01*
X0763595Y0266010D02*
X0769095Y0266010D01*
X0769095Y0266795D02*
X0763595Y0266795D01*
X0763595Y0267581D02*
X0769095Y0267581D01*
X0769095Y0268367D02*
X0763595Y0268367D01*
X0763595Y0269153D02*
X0769095Y0269153D01*
X0769095Y0269939D02*
X0763595Y0269939D01*
X0763595Y0270725D02*
X0769095Y0270725D01*
X0769095Y0271511D02*
X0763595Y0271511D01*
X0763595Y0272297D02*
X0769095Y0272297D01*
X0769095Y0273083D02*
X0763595Y0273083D01*
X0763595Y0273869D02*
X0769095Y0273869D01*
X0769095Y0274655D02*
X0763595Y0274655D01*
X0763595Y0275440D02*
X0769095Y0275440D01*
X0769095Y0276226D02*
X0763595Y0276226D01*
X0763595Y0277012D02*
X0769095Y0277012D01*
X0769095Y0277798D02*
X0759095Y0277798D01*
X0759095Y0278584D02*
X0769095Y0278584D01*
X0769095Y0279370D02*
X0759095Y0279370D01*
X0759095Y0280156D02*
X0769095Y0280156D01*
X0769095Y0280942D02*
X0759095Y0280942D01*
X0759095Y0281728D02*
X0769095Y0281728D01*
X0769095Y0282514D02*
X0759095Y0282514D01*
X0759095Y0283300D02*
X0769095Y0283300D01*
X0769095Y0284086D02*
X0759095Y0284086D01*
X0759095Y0284871D02*
X0769095Y0284871D01*
X0769095Y0285657D02*
X0759095Y0285657D01*
X0759095Y0286443D02*
X0769095Y0286443D01*
X0769095Y0287229D02*
X0759095Y0287229D01*
X0759095Y0288015D02*
X0769095Y0288015D01*
X0769095Y0288801D02*
X0759095Y0288801D01*
X0760095Y0288015D02*
X0744221Y0288015D01*
X0743589Y0287229D02*
X0760095Y0287229D01*
X0760095Y0286443D02*
X0577595Y0286443D01*
X0577595Y0285657D02*
X0760095Y0285657D01*
X0760095Y0284871D02*
X0577595Y0284871D01*
X0577595Y0284086D02*
X0760095Y0284086D01*
X0760095Y0283300D02*
X0577595Y0283300D01*
X0577595Y0282514D02*
X0760095Y0282514D01*
X0760095Y0281728D02*
X0577595Y0281728D01*
X0577595Y0280942D02*
X0760095Y0280942D01*
X0760095Y0280156D02*
X0577595Y0280156D01*
X0577595Y0279370D02*
X0760095Y0279370D01*
X0760095Y0278584D02*
X0708952Y0278584D01*
X0709928Y0277798D02*
X0760095Y0277798D01*
X0760095Y0265224D02*
X0742615Y0265224D01*
X0742186Y0265402D02*
X0741005Y0265402D01*
X0739914Y0264950D01*
X0739345Y0264381D01*
X0738777Y0264950D01*
X0737686Y0265402D01*
X0736505Y0265402D01*
X0735414Y0264950D01*
X0734579Y0264115D01*
X0734127Y0263024D01*
X0734127Y0261843D01*
X0734579Y0260752D01*
X0735414Y0259916D01*
X0736505Y0259465D01*
X0737686Y0259465D01*
X0738777Y0259916D01*
X0739345Y0260485D01*
X0739914Y0259916D01*
X0741005Y0259465D01*
X0742186Y0259465D01*
X0743277Y0259916D01*
X0744112Y0260752D01*
X0744564Y0261843D01*
X0744564Y0263024D01*
X0744112Y0264115D01*
X0743277Y0264950D01*
X0742186Y0265402D01*
X0740575Y0265224D02*
X0738115Y0265224D01*
X0739289Y0264438D02*
X0739402Y0264438D01*
X0736075Y0265224D02*
X0729115Y0265224D01*
X0728686Y0265402D02*
X0727505Y0265402D01*
X0726414Y0264950D01*
X0725845Y0264381D01*
X0725277Y0264950D01*
X0724186Y0265402D01*
X0723005Y0265402D01*
X0721914Y0264950D01*
X0721079Y0264115D01*
X0720627Y0263024D01*
X0720627Y0261843D01*
X0721079Y0260752D01*
X0721914Y0259916D01*
X0723005Y0259465D01*
X0724186Y0259465D01*
X0725277Y0259916D01*
X0725845Y0260485D01*
X0726414Y0259916D01*
X0727505Y0259465D01*
X0728686Y0259465D01*
X0729777Y0259916D01*
X0730612Y0260752D01*
X0731064Y0261843D01*
X0731064Y0263024D01*
X0730612Y0264115D01*
X0729777Y0264950D01*
X0728686Y0265402D01*
X0727075Y0265224D02*
X0724615Y0265224D01*
X0725789Y0264438D02*
X0725902Y0264438D01*
X0722575Y0265224D02*
X0678615Y0265224D01*
X0678186Y0265402D02*
X0677005Y0265402D01*
X0675914Y0264950D01*
X0675345Y0264381D01*
X0674777Y0264950D01*
X0673686Y0265402D01*
X0672505Y0265402D01*
X0671414Y0264950D01*
X0670579Y0264115D01*
X0670127Y0263024D01*
X0670127Y0261843D01*
X0670579Y0260752D01*
X0671414Y0259916D01*
X0672505Y0259465D01*
X0673686Y0259465D01*
X0674777Y0259916D01*
X0675345Y0260485D01*
X0675914Y0259916D01*
X0677005Y0259465D01*
X0678186Y0259465D01*
X0679277Y0259916D01*
X0680112Y0260752D01*
X0680564Y0261843D01*
X0680564Y0263024D01*
X0680112Y0264115D01*
X0679277Y0264950D01*
X0678186Y0265402D01*
X0676575Y0265224D02*
X0674115Y0265224D01*
X0675289Y0264438D02*
X0675402Y0264438D01*
X0672075Y0265224D02*
X0665115Y0265224D01*
X0664686Y0265402D02*
X0663505Y0265402D01*
X0662414Y0264950D01*
X0661845Y0264381D01*
X0661277Y0264950D01*
X0660186Y0265402D01*
X0659005Y0265402D01*
X0657914Y0264950D01*
X0657079Y0264115D01*
X0656627Y0263024D01*
X0656627Y0261843D01*
X0657079Y0260752D01*
X0657914Y0259916D01*
X0659005Y0259465D01*
X0660186Y0259465D01*
X0661277Y0259916D01*
X0661845Y0260485D01*
X0662414Y0259916D01*
X0663505Y0259465D01*
X0664686Y0259465D01*
X0665777Y0259916D01*
X0666612Y0260752D01*
X0667064Y0261843D01*
X0667064Y0263024D01*
X0666612Y0264115D01*
X0665777Y0264950D01*
X0664686Y0265402D01*
X0663075Y0265224D02*
X0660615Y0265224D01*
X0661789Y0264438D02*
X0661902Y0264438D01*
X0658575Y0265224D02*
X0650115Y0265224D01*
X0651289Y0264438D02*
X0657402Y0264438D01*
X0656887Y0263652D02*
X0651803Y0263652D01*
X0652064Y0262866D02*
X0656627Y0262866D01*
X0656627Y0262080D02*
X0652064Y0262080D01*
X0651836Y0261294D02*
X0656854Y0261294D01*
X0657322Y0260508D02*
X0651368Y0260508D01*
X0650308Y0259722D02*
X0658383Y0259722D01*
X0660808Y0259722D02*
X0662883Y0259722D01*
X0663095Y0257933D02*
X0666095Y0257933D01*
X0668595Y0260433D01*
X0668595Y0262433D01*
X0668595Y0266433D01*
X0666595Y0268433D01*
X0661095Y0268433D01*
X0660095Y0269433D01*
X0660095Y0272933D01*
X0660095Y0277933D02*
X0660095Y0280933D01*
X0662595Y0283433D01*
X0666595Y0283433D01*
X0668595Y0285433D01*
X0668595Y0289433D01*
X0668595Y0294862D01*
X0668024Y0295433D01*
X0663095Y0295433D01*
X0659595Y0298933D01*
X0659595Y0300933D01*
X0673306Y0297446D02*
X0733884Y0297446D01*
X0733098Y0298232D02*
X0674092Y0298232D01*
X0674429Y0299018D02*
X0732761Y0299018D01*
X0732627Y0299804D02*
X0674564Y0299804D01*
X0674536Y0300590D02*
X0732654Y0300590D01*
X0732548Y0305305D02*
X0760095Y0305305D01*
X0760095Y0306091D02*
X0732564Y0306091D01*
X0732417Y0306877D02*
X0760095Y0306877D01*
X0760095Y0307663D02*
X0732063Y0307663D01*
X0731277Y0308449D02*
X0760095Y0308449D01*
X0760095Y0309235D02*
X0716019Y0309235D01*
X0716064Y0310021D02*
X0760095Y0310021D01*
X0760095Y0310807D02*
X0715946Y0310807D01*
X0715621Y0311592D02*
X0760095Y0311592D01*
X0760095Y0312378D02*
X0714848Y0312378D01*
X0715693Y0308449D02*
X0727913Y0308449D01*
X0726595Y0309433D02*
X0731024Y0309433D01*
X0732595Y0311004D01*
X0732595Y0316433D01*
X0721564Y0318843D02*
X0721112Y0317752D01*
X0720277Y0316916D01*
X0719186Y0316465D01*
X0718005Y0316465D01*
X0716914Y0316916D01*
X0716079Y0317752D01*
X0715627Y0318843D01*
X0715627Y0320024D01*
X0716079Y0321115D01*
X0716914Y0321950D01*
X0718005Y0322402D01*
X0719186Y0322402D01*
X0720277Y0321950D01*
X0721112Y0321115D01*
X0721564Y0320024D01*
X0721564Y0318843D01*
X0721490Y0318666D02*
X0760095Y0318666D01*
X0760095Y0319452D02*
X0721564Y0319452D01*
X0721475Y0320238D02*
X0760095Y0320238D01*
X0760095Y0321023D02*
X0721149Y0321023D01*
X0720417Y0321809D02*
X0760095Y0321809D01*
X0760095Y0322595D02*
X0577595Y0322595D01*
X0577595Y0321809D02*
X0716773Y0321809D01*
X0716041Y0321023D02*
X0577595Y0321023D01*
X0577595Y0320238D02*
X0715715Y0320238D01*
X0715627Y0319452D02*
X0577595Y0319452D01*
X0577595Y0318666D02*
X0715700Y0318666D01*
X0716025Y0317880D02*
X0660738Y0317880D01*
X0659452Y0317880D02*
X0577595Y0317880D01*
X0577595Y0317094D02*
X0658058Y0317094D01*
X0657452Y0316308D02*
X0577595Y0316308D01*
X0577595Y0315522D02*
X0657127Y0315522D01*
X0657127Y0314736D02*
X0577595Y0314736D01*
X0577595Y0313950D02*
X0657289Y0313950D01*
X0657666Y0313164D02*
X0649758Y0313164D01*
X0650848Y0312378D02*
X0658506Y0312378D01*
X0662739Y0316308D02*
X0760095Y0316308D01*
X0760095Y0317094D02*
X0720454Y0317094D01*
X0721165Y0317880D02*
X0760095Y0317880D01*
X0760095Y0323381D02*
X0577595Y0323381D01*
X0579595Y0323381D02*
X0573916Y0323381D01*
X0574064Y0322595D02*
X0579595Y0322595D01*
X0579595Y0321809D02*
X0574050Y0321809D01*
X0573724Y0321023D02*
X0579595Y0321023D01*
X0579595Y0320238D02*
X0573098Y0320238D01*
X0570095Y0319452D02*
X0579595Y0319452D01*
X0579595Y0318666D02*
X0570095Y0318666D01*
X0570095Y0317880D02*
X0579595Y0317880D01*
X0579595Y0317094D02*
X0570095Y0317094D01*
X0570095Y0316308D02*
X0579595Y0316308D01*
X0579595Y0315522D02*
X0570095Y0315522D01*
X0570095Y0314736D02*
X0579595Y0314736D01*
X0579595Y0313950D02*
X0570095Y0313950D01*
X0570095Y0313164D02*
X0579595Y0313164D01*
X0579595Y0312378D02*
X0570095Y0312378D01*
X0570095Y0311592D02*
X0579595Y0311592D01*
X0579595Y0310807D02*
X0570095Y0310807D01*
X0570095Y0310021D02*
X0579595Y0310021D01*
X0579595Y0309235D02*
X0570095Y0309235D01*
X0570095Y0308449D02*
X0579595Y0308449D01*
X0579595Y0307663D02*
X0570095Y0307663D01*
X0570095Y0306877D02*
X0579595Y0306877D01*
X0579595Y0306091D02*
X0570095Y0306091D01*
X0570095Y0305305D02*
X0579595Y0305305D01*
X0596095Y0305933D02*
X0596095Y0307433D01*
X0598095Y0309433D01*
X0598409Y0291945D02*
X0597282Y0291945D01*
X0610782Y0291945D02*
X0611909Y0291945D01*
X0615282Y0291945D02*
X0626127Y0291945D01*
X0626410Y0291159D02*
X0616068Y0291159D01*
X0616419Y0290373D02*
X0626957Y0290373D01*
X0628209Y0289587D02*
X0616564Y0289587D01*
X0616546Y0288801D02*
X0632644Y0288801D01*
X0632627Y0288843D02*
X0633079Y0287752D01*
X0633914Y0286916D01*
X0635005Y0286465D01*
X0636186Y0286465D01*
X0637277Y0286916D01*
X0638112Y0287752D01*
X0638564Y0288843D01*
X0638564Y0290024D01*
X0638112Y0291115D01*
X0637277Y0291950D01*
X0636186Y0292402D01*
X0635005Y0292402D01*
X0633914Y0291950D01*
X0633079Y0291115D01*
X0632627Y0290024D01*
X0632627Y0288843D01*
X0632627Y0289587D02*
X0629981Y0289587D01*
X0631233Y0290373D02*
X0632771Y0290373D01*
X0633123Y0291159D02*
X0631780Y0291159D01*
X0632064Y0291945D02*
X0633909Y0291945D01*
X0632064Y0292731D02*
X0690127Y0292731D01*
X0690127Y0293024D02*
X0690127Y0291843D01*
X0690579Y0290752D01*
X0691414Y0289916D01*
X0692505Y0289465D01*
X0693686Y0289465D01*
X0694777Y0289916D01*
X0695612Y0290752D01*
X0696064Y0291843D01*
X0696064Y0293024D01*
X0695612Y0294115D01*
X0694777Y0294950D01*
X0693686Y0295402D01*
X0692505Y0295402D01*
X0691414Y0294950D01*
X0690579Y0294115D01*
X0690127Y0293024D01*
X0690331Y0293516D02*
X0631859Y0293516D01*
X0631424Y0294302D02*
X0690766Y0294302D01*
X0691748Y0295088D02*
X0630442Y0295088D01*
X0637282Y0291945D02*
X0657909Y0291945D01*
X0657914Y0291950D02*
X0657079Y0291115D01*
X0656627Y0290024D01*
X0656627Y0288843D01*
X0657079Y0287752D01*
X0657914Y0286916D01*
X0659005Y0286465D01*
X0660186Y0286465D01*
X0661277Y0286916D01*
X0661845Y0287485D01*
X0662414Y0286916D01*
X0663505Y0286465D01*
X0664686Y0286465D01*
X0665777Y0286916D01*
X0666612Y0287752D01*
X0667064Y0288843D01*
X0667064Y0290024D01*
X0666612Y0291115D01*
X0665777Y0291950D01*
X0664686Y0292402D01*
X0663505Y0292402D01*
X0662414Y0291950D01*
X0661845Y0291381D01*
X0661277Y0291950D01*
X0660186Y0292402D01*
X0659005Y0292402D01*
X0657914Y0291950D01*
X0657123Y0291159D02*
X0638068Y0291159D01*
X0638419Y0290373D02*
X0656771Y0290373D01*
X0656627Y0289587D02*
X0638564Y0289587D01*
X0638546Y0288801D02*
X0656644Y0288801D01*
X0656969Y0288015D02*
X0638221Y0288015D01*
X0637589Y0287229D02*
X0657601Y0287229D01*
X0661589Y0287229D02*
X0662101Y0287229D01*
X0666089Y0287229D02*
X0671101Y0287229D01*
X0671414Y0286916D02*
X0672505Y0286465D01*
X0673686Y0286465D01*
X0674777Y0286916D01*
X0675345Y0287485D01*
X0675914Y0286916D01*
X0677005Y0286465D01*
X0678186Y0286465D01*
X0679277Y0286916D01*
X0680112Y0287752D01*
X0680564Y0288843D01*
X0680564Y0290024D01*
X0680112Y0291115D01*
X0679277Y0291950D01*
X0678186Y0292402D01*
X0677005Y0292402D01*
X0675914Y0291950D01*
X0675345Y0291381D01*
X0674777Y0291950D01*
X0673686Y0292402D01*
X0672505Y0292402D01*
X0671414Y0291950D01*
X0670579Y0291115D01*
X0670127Y0290024D01*
X0670127Y0288843D01*
X0670579Y0287752D01*
X0671414Y0286916D01*
X0670469Y0288015D02*
X0666721Y0288015D01*
X0667046Y0288801D02*
X0670144Y0288801D01*
X0670127Y0289587D02*
X0667064Y0289587D01*
X0666919Y0290373D02*
X0670271Y0290373D01*
X0670623Y0291159D02*
X0666568Y0291159D01*
X0665782Y0291945D02*
X0671409Y0291945D01*
X0674782Y0291945D02*
X0675909Y0291945D01*
X0679282Y0291945D02*
X0690127Y0291945D01*
X0690410Y0291159D02*
X0680068Y0291159D01*
X0680419Y0290373D02*
X0690957Y0290373D01*
X0692209Y0289587D02*
X0680564Y0289587D01*
X0680546Y0288801D02*
X0720644Y0288801D01*
X0720627Y0289587D02*
X0693981Y0289587D01*
X0695233Y0290373D02*
X0720771Y0290373D01*
X0721123Y0291159D02*
X0695780Y0291159D01*
X0696064Y0291945D02*
X0721909Y0291945D01*
X0725282Y0291945D02*
X0726409Y0291945D01*
X0725595Y0295933D02*
X0731524Y0295933D01*
X0732595Y0294862D01*
X0732595Y0289433D01*
X0732595Y0286433D01*
X0731595Y0285433D01*
X0726101Y0287229D02*
X0725589Y0287229D01*
X0721601Y0287229D02*
X0679589Y0287229D01*
X0680221Y0288015D02*
X0720969Y0288015D01*
X0725595Y0295933D02*
X0724095Y0297433D01*
X0724095Y0300433D01*
X0724095Y0305433D02*
X0707595Y0305433D01*
X0706595Y0304433D01*
X0695424Y0294302D02*
X0755266Y0294302D01*
X0754538Y0293516D02*
X0695859Y0293516D01*
X0696064Y0292731D02*
X0754212Y0292731D01*
X0760095Y0295088D02*
X0694442Y0295088D01*
X0675601Y0287229D02*
X0675089Y0287229D01*
X0662409Y0291945D02*
X0661282Y0291945D01*
X0633601Y0287229D02*
X0615589Y0287229D01*
X0616221Y0288015D02*
X0632969Y0288015D01*
X0641262Y0277798D02*
X0580928Y0277798D01*
X0577595Y0278584D02*
X0706238Y0278584D01*
X0705262Y0277798D02*
X0644928Y0277798D01*
X0666289Y0264438D02*
X0670902Y0264438D01*
X0670387Y0263652D02*
X0666803Y0263652D01*
X0667064Y0262866D02*
X0670127Y0262866D01*
X0670127Y0262080D02*
X0667064Y0262080D01*
X0666836Y0261294D02*
X0670354Y0261294D01*
X0670822Y0260508D02*
X0666368Y0260508D01*
X0665308Y0259722D02*
X0671883Y0259722D01*
X0674308Y0259722D02*
X0676383Y0259722D01*
X0678808Y0259722D02*
X0687676Y0259722D01*
X0687627Y0260508D02*
X0679868Y0260508D01*
X0680336Y0261294D02*
X0687739Y0261294D01*
X0688064Y0262080D02*
X0680564Y0262080D01*
X0680564Y0262866D02*
X0688830Y0262866D01*
X0692360Y0262866D02*
X0699330Y0262866D01*
X0699414Y0262950D02*
X0698579Y0262115D01*
X0698127Y0261024D01*
X0698127Y0259843D01*
X0698579Y0258752D01*
X0699414Y0257916D01*
X0700505Y0257465D01*
X0701686Y0257465D01*
X0702777Y0257916D01*
X0703612Y0258752D01*
X0704064Y0259843D01*
X0704064Y0261024D01*
X0703612Y0262115D01*
X0702777Y0262950D01*
X0701686Y0263402D01*
X0700505Y0263402D01*
X0699414Y0262950D01*
X0698564Y0262080D02*
X0693126Y0262080D01*
X0693452Y0261294D02*
X0698239Y0261294D01*
X0698127Y0260508D02*
X0693564Y0260508D01*
X0693514Y0259722D02*
X0698176Y0259722D01*
X0698502Y0258936D02*
X0693188Y0258936D01*
X0692511Y0258150D02*
X0699180Y0258150D01*
X0703011Y0258150D02*
X0753556Y0258150D01*
X0754005Y0257965D02*
X0755186Y0257965D01*
X0756277Y0258416D01*
X0757112Y0259252D01*
X0757564Y0260343D01*
X0757564Y0261524D01*
X0757112Y0262615D01*
X0756277Y0263450D01*
X0755186Y0263902D01*
X0754005Y0263902D01*
X0752914Y0263450D01*
X0752079Y0262615D01*
X0751627Y0261524D01*
X0751627Y0260343D01*
X0752079Y0259252D01*
X0752914Y0258416D01*
X0754005Y0257965D01*
X0755634Y0258150D02*
X0760095Y0258150D01*
X0760095Y0258936D02*
X0756796Y0258936D01*
X0757307Y0259722D02*
X0760095Y0259722D01*
X0760095Y0260508D02*
X0757564Y0260508D01*
X0757564Y0261294D02*
X0760095Y0261294D01*
X0760095Y0262080D02*
X0757333Y0262080D01*
X0756860Y0262866D02*
X0760095Y0262866D01*
X0760095Y0263652D02*
X0755789Y0263652D01*
X0753402Y0263652D02*
X0744303Y0263652D01*
X0744564Y0262866D02*
X0752330Y0262866D01*
X0751857Y0262080D02*
X0744564Y0262080D01*
X0744336Y0261294D02*
X0751627Y0261294D01*
X0751627Y0260508D02*
X0743868Y0260508D01*
X0742808Y0259722D02*
X0751884Y0259722D01*
X0752394Y0258936D02*
X0703688Y0258936D01*
X0704014Y0259722D02*
X0722383Y0259722D01*
X0721322Y0260508D02*
X0704064Y0260508D01*
X0703952Y0261294D02*
X0720854Y0261294D01*
X0720627Y0262080D02*
X0703626Y0262080D01*
X0702860Y0262866D02*
X0720627Y0262866D01*
X0720887Y0263652D02*
X0680303Y0263652D01*
X0679789Y0264438D02*
X0721402Y0264438D01*
X0730289Y0264438D02*
X0734902Y0264438D01*
X0734387Y0263652D02*
X0730803Y0263652D01*
X0731064Y0262866D02*
X0734127Y0262866D01*
X0734127Y0262080D02*
X0731064Y0262080D01*
X0730836Y0261294D02*
X0734354Y0261294D01*
X0734822Y0260508D02*
X0730368Y0260508D01*
X0729308Y0259722D02*
X0735883Y0259722D01*
X0738308Y0259722D02*
X0740383Y0259722D01*
X0743789Y0264438D02*
X0760095Y0264438D01*
X0726883Y0259722D02*
X0724808Y0259722D01*
X0724095Y0247433D02*
X0724095Y0245933D01*
X0727595Y0242433D01*
X0731524Y0242433D01*
X0732595Y0241362D01*
X0732595Y0236433D01*
X0731864Y0244004D02*
X0760095Y0244004D01*
X0759595Y0244004D02*
X0769095Y0244004D01*
X0769095Y0244790D02*
X0759595Y0244790D01*
X0760095Y0244790D02*
X0732628Y0244790D01*
X0732953Y0245576D02*
X0760095Y0245576D01*
X0759595Y0245576D02*
X0769095Y0245576D01*
X0769095Y0246362D02*
X0759595Y0246362D01*
X0760095Y0246362D02*
X0733064Y0246362D01*
X0728326Y0244004D02*
X0715658Y0244004D01*
X0715983Y0243218D02*
X0760095Y0243218D01*
X0759595Y0243218D02*
X0769095Y0243218D01*
X0764032Y0233001D02*
X0759595Y0233001D01*
X0760095Y0233001D02*
X0753652Y0233001D01*
X0754511Y0232215D02*
X0760095Y0232215D01*
X0759595Y0232215D02*
X0763706Y0232215D01*
X0763627Y0231429D02*
X0759595Y0231429D01*
X0760095Y0231429D02*
X0754896Y0231429D01*
X0755064Y0230643D02*
X0760095Y0230643D01*
X0759595Y0230643D02*
X0763709Y0230643D01*
X0764035Y0229858D02*
X0763094Y0229858D01*
X0763078Y0229072D02*
X0764758Y0229072D01*
X0763062Y0228286D02*
X0767942Y0228286D01*
X0767627Y0227500D02*
X0763045Y0227500D01*
X0763029Y0226714D02*
X0767627Y0226714D01*
X0767798Y0225928D02*
X0763013Y0225928D01*
X0762997Y0225142D02*
X0768188Y0225142D01*
X0769059Y0224356D02*
X0762981Y0224356D01*
X0762965Y0223570D02*
X0769095Y0223570D01*
X0769095Y0222784D02*
X0762949Y0222784D01*
X0762933Y0221998D02*
X0769095Y0221998D01*
X0769095Y0221212D02*
X0762917Y0221212D01*
X0762901Y0220427D02*
X0769095Y0220427D01*
X0769095Y0219641D02*
X0762885Y0219641D01*
X0762869Y0218855D02*
X0769095Y0218855D01*
X0769095Y0218069D02*
X0762853Y0218069D01*
X0762837Y0217283D02*
X0769095Y0217283D01*
X0769095Y0216497D02*
X0762821Y0216497D01*
X0762805Y0215711D02*
X0769095Y0215711D01*
X0769095Y0214925D02*
X0762789Y0214925D01*
X0762773Y0214139D02*
X0769095Y0214139D01*
X0769095Y0213353D02*
X0762757Y0213353D01*
X0762741Y0212567D02*
X0769095Y0212567D01*
X0769095Y0211782D02*
X0762725Y0211782D01*
X0762709Y0210996D02*
X0769095Y0210996D01*
X0769095Y0210210D02*
X0762693Y0210210D01*
X0762677Y0209424D02*
X0769095Y0209424D01*
X0769095Y0208638D02*
X0762661Y0208638D01*
X0762645Y0207852D02*
X0769095Y0207852D01*
X0769095Y0207066D02*
X0762628Y0207066D01*
X0762612Y0206280D02*
X0769095Y0206280D01*
X0769095Y0205494D02*
X0762596Y0205494D01*
X0760095Y0204708D02*
X0738987Y0204708D01*
X0739064Y0203922D02*
X0760095Y0203922D01*
X0760095Y0203137D02*
X0738978Y0203137D01*
X0738653Y0202351D02*
X0760095Y0202351D01*
X0760095Y0201565D02*
X0737925Y0201565D01*
X0734265Y0201565D02*
X0673925Y0201565D01*
X0674653Y0202351D02*
X0733538Y0202351D01*
X0733212Y0203137D02*
X0674978Y0203137D01*
X0675064Y0203922D02*
X0733127Y0203922D01*
X0733203Y0204708D02*
X0674987Y0204708D01*
X0669095Y0198862D02*
X0669095Y0193433D01*
X0669095Y0189433D01*
X0667595Y0187933D01*
X0663095Y0187933D01*
X0660595Y0185433D01*
X0660595Y0182433D01*
X0660595Y0177433D02*
X0660595Y0175933D01*
X0662595Y0173933D01*
X0666524Y0173933D01*
X0669095Y0171362D01*
X0669095Y0166433D01*
X0669095Y0161504D01*
X0668524Y0160933D01*
X0663095Y0160933D01*
X0660595Y0158433D01*
X0660595Y0155933D01*
X0665127Y0155982D02*
X0607064Y0155982D01*
X0607064Y0156768D02*
X0665127Y0156768D01*
X0665346Y0157554D02*
X0606844Y0157554D01*
X0606387Y0158339D02*
X0665803Y0158339D01*
X0666838Y0159125D02*
X0605352Y0159125D01*
X0602838Y0159125D02*
X0577595Y0159125D01*
X0577595Y0158339D02*
X0601803Y0158339D01*
X0601346Y0157554D02*
X0577595Y0157554D01*
X0577595Y0156768D02*
X0601127Y0156768D01*
X0601127Y0155982D02*
X0577595Y0155982D01*
X0579095Y0156933D02*
X0574095Y0156933D01*
X0572595Y0155433D01*
X0572595Y0129933D01*
X0578095Y0124433D01*
X0579595Y0124433D01*
X0579595Y0124545D02*
X0570095Y0124545D01*
X0570095Y0123759D02*
X0579595Y0123759D01*
X0579595Y0122973D02*
X0570095Y0122973D01*
X0570095Y0122187D02*
X0579595Y0122187D01*
X0579595Y0121402D02*
X0570095Y0121402D01*
X0570095Y0120616D02*
X0579595Y0120616D01*
X0579595Y0119830D02*
X0570095Y0119830D01*
X0570095Y0119044D02*
X0579595Y0119044D01*
X0579595Y0118258D02*
X0570095Y0118258D01*
X0570095Y0117472D02*
X0579595Y0117472D01*
X0579595Y0116686D02*
X0570095Y0116686D01*
X0570095Y0115900D02*
X0579595Y0115900D01*
X0579595Y0115114D02*
X0570095Y0115114D01*
X0570095Y0114328D02*
X0579595Y0114328D01*
X0579595Y0113542D02*
X0570095Y0113542D01*
X0570095Y0112757D02*
X0574595Y0112757D01*
X0574595Y0111971D02*
X0570095Y0111971D01*
X0570095Y0111185D02*
X0574595Y0111185D01*
X0574595Y0110399D02*
X0570095Y0110399D01*
X0570095Y0109613D02*
X0574595Y0109613D01*
X0574595Y0108827D02*
X0570095Y0108827D01*
X0570095Y0108041D02*
X0574595Y0108041D01*
X0574595Y0107255D02*
X0570095Y0107255D01*
X0570095Y0106469D02*
X0574595Y0106469D01*
X0574595Y0105683D02*
X0570095Y0105683D01*
X0570095Y0104897D02*
X0574595Y0104897D01*
X0574595Y0104111D02*
X0570095Y0104111D01*
X0570095Y0103326D02*
X0574595Y0103326D01*
X0574595Y0102540D02*
X0570095Y0102540D01*
X0570095Y0101754D02*
X0574595Y0101754D01*
X0574595Y0100968D02*
X0570095Y0100968D01*
X0570095Y0100182D02*
X0574595Y0100182D01*
X0574595Y0099396D02*
X0570095Y0099396D01*
X0570095Y0098610D02*
X0574595Y0098610D01*
X0574595Y0097824D02*
X0570095Y0097824D01*
X0570095Y0097038D02*
X0574595Y0097038D01*
X0574595Y0096252D02*
X0570095Y0096252D01*
X0570095Y0095466D02*
X0574595Y0095466D01*
X0574595Y0094681D02*
X0570095Y0094681D01*
X0570095Y0093895D02*
X0574595Y0093895D01*
X0574595Y0093109D02*
X0570095Y0093109D01*
X0570095Y0092323D02*
X0574595Y0092323D01*
X0574595Y0091537D02*
X0570095Y0091537D01*
X0570095Y0090751D02*
X0574595Y0090751D01*
X0574595Y0089965D02*
X0570095Y0089965D01*
X0570095Y0089179D02*
X0574595Y0089179D01*
X0577595Y0089179D02*
X0760095Y0089179D01*
X0760095Y0088393D02*
X0577595Y0088393D01*
X0577595Y0087607D02*
X0760095Y0087607D01*
X0760095Y0086821D02*
X0577595Y0086821D01*
X0577595Y0086035D02*
X0578121Y0086035D01*
X0577914Y0085950D02*
X0577595Y0085631D01*
X0577595Y0108933D01*
X0605296Y0108933D01*
X0605127Y0108524D01*
X0605127Y0107343D01*
X0605579Y0106252D01*
X0606414Y0105416D01*
X0607505Y0104965D01*
X0608686Y0104965D01*
X0609777Y0105416D01*
X0610612Y0106252D01*
X0611064Y0107343D01*
X0611064Y0108524D01*
X0610894Y0108933D01*
X0669296Y0108933D01*
X0669127Y0108524D01*
X0669127Y0107343D01*
X0669579Y0106252D01*
X0670414Y0105416D01*
X0671505Y0104965D01*
X0672686Y0104965D01*
X0673777Y0105416D01*
X0674612Y0106252D01*
X0675064Y0107343D01*
X0675064Y0108524D01*
X0674894Y0108933D01*
X0760095Y0108933D01*
X0760095Y0085433D01*
X0646293Y0085433D01*
X0645777Y0085950D01*
X0644686Y0086402D01*
X0643505Y0086402D01*
X0642414Y0085950D01*
X0641897Y0085433D01*
X0581793Y0085433D01*
X0581277Y0085950D01*
X0580186Y0086402D01*
X0579005Y0086402D01*
X0577914Y0085950D01*
X0581069Y0086035D02*
X0642621Y0086035D01*
X0645569Y0086035D02*
X0760095Y0086035D01*
X0759095Y0086035D02*
X0769095Y0086035D01*
X0769095Y0085250D02*
X0763595Y0085250D01*
X0763595Y0084464D02*
X0769095Y0084464D01*
X0769095Y0083678D02*
X0763595Y0083678D01*
X0763595Y0082892D02*
X0769095Y0082892D01*
X0769095Y0082106D02*
X0763595Y0082106D01*
X0763595Y0081320D02*
X0769095Y0081320D01*
X0769095Y0080534D02*
X0763595Y0080534D01*
X0763595Y0079748D02*
X0769095Y0079748D01*
X0769095Y0078962D02*
X0763595Y0078962D01*
X0763595Y0078176D02*
X0769095Y0078176D01*
X0769095Y0077390D02*
X0763595Y0077390D01*
X0763595Y0076605D02*
X0769095Y0076605D01*
X0769095Y0075819D02*
X0763595Y0075819D01*
X0763595Y0075033D02*
X0769095Y0075033D01*
X0769095Y0074247D02*
X0763595Y0074247D01*
X0763595Y0073461D02*
X0769095Y0073461D01*
X0769095Y0072675D02*
X0763595Y0072675D01*
X0763595Y0071889D02*
X0769095Y0071889D01*
X0769095Y0071103D02*
X0763595Y0071103D01*
X0763595Y0070317D02*
X0769095Y0070317D01*
X0769095Y0069531D02*
X0763595Y0069531D01*
X0763595Y0068745D02*
X0769095Y0068745D01*
X0769095Y0067959D02*
X0763595Y0067959D01*
X0763595Y0067174D02*
X0769095Y0067174D01*
X0769095Y0066388D02*
X0763595Y0066388D01*
X0763595Y0065602D02*
X0769095Y0065602D01*
X0769095Y0064816D02*
X0763595Y0064816D01*
X0763595Y0064030D02*
X0769095Y0064030D01*
X0769095Y0063244D02*
X0763595Y0063244D01*
X0763595Y0062458D02*
X0769095Y0062458D01*
X0769095Y0061672D02*
X0763595Y0061672D01*
X0763595Y0060886D02*
X0769095Y0060886D01*
X0769095Y0060100D02*
X0763595Y0060100D01*
X0763595Y0059314D02*
X0769095Y0059314D01*
X0769095Y0058529D02*
X0763595Y0058529D01*
X0763595Y0057743D02*
X0769095Y0057743D01*
X0769095Y0056957D02*
X0763595Y0056957D01*
X0763595Y0056171D02*
X0769095Y0056171D01*
X0769095Y0055385D02*
X0759595Y0055385D01*
X0760095Y0055385D02*
X0669414Y0055385D01*
X0669394Y0055433D02*
X0760095Y0055433D01*
X0760095Y0038327D01*
X0702060Y0038327D01*
X0702277Y0038416D01*
X0703112Y0039252D01*
X0703564Y0040343D01*
X0703564Y0041524D01*
X0703112Y0042615D01*
X0702277Y0043450D01*
X0701186Y0043902D01*
X0700005Y0043902D01*
X0698914Y0043450D01*
X0698079Y0042615D01*
X0697627Y0041524D01*
X0697627Y0040343D01*
X0698079Y0039252D01*
X0698914Y0038416D01*
X0699130Y0038327D01*
X0577595Y0038327D01*
X0577595Y0055433D01*
X0577897Y0055433D01*
X0578414Y0054916D01*
X0579505Y0054465D01*
X0580686Y0054465D01*
X0581777Y0054916D01*
X0582293Y0055433D01*
X0599796Y0055433D01*
X0599627Y0055024D01*
X0599627Y0053843D01*
X0600079Y0052752D01*
X0600914Y0051916D01*
X0602005Y0051465D01*
X0603186Y0051465D01*
X0604277Y0051916D01*
X0605112Y0052752D01*
X0605564Y0053843D01*
X0605564Y0055024D01*
X0605394Y0055433D01*
X0663796Y0055433D01*
X0663627Y0055024D01*
X0663627Y0053843D01*
X0664079Y0052752D01*
X0664914Y0051916D01*
X0666005Y0051465D01*
X0667186Y0051465D01*
X0668277Y0051916D01*
X0669112Y0052752D01*
X0669564Y0053843D01*
X0669564Y0055024D01*
X0669394Y0055433D01*
X0669564Y0054599D02*
X0760095Y0054599D01*
X0759595Y0054599D02*
X0769095Y0054599D01*
X0769095Y0053813D02*
X0759595Y0053813D01*
X0760095Y0053813D02*
X0669551Y0053813D01*
X0669226Y0053027D02*
X0760095Y0053027D01*
X0759595Y0053027D02*
X0769095Y0053027D01*
X0769095Y0052241D02*
X0759595Y0052241D01*
X0760095Y0052241D02*
X0668601Y0052241D01*
X0668024Y0050433D02*
X0669095Y0049362D01*
X0669095Y0044433D01*
X0674627Y0044843D02*
X0674627Y0046024D01*
X0675079Y0047115D01*
X0675914Y0047950D01*
X0677005Y0048402D01*
X0678186Y0048402D01*
X0679277Y0047950D01*
X0680112Y0047115D01*
X0680564Y0046024D01*
X0680564Y0044843D01*
X0680112Y0043752D01*
X0679277Y0042916D01*
X0678186Y0042465D01*
X0677005Y0042465D01*
X0675914Y0042916D01*
X0675079Y0043752D01*
X0674627Y0044843D01*
X0674627Y0045168D02*
X0662564Y0045168D01*
X0662564Y0045524D02*
X0662112Y0046615D01*
X0661277Y0047450D01*
X0660186Y0047902D01*
X0659005Y0047902D01*
X0657914Y0047450D01*
X0657079Y0046615D01*
X0656627Y0045524D01*
X0656627Y0044343D01*
X0657079Y0043252D01*
X0657914Y0042416D01*
X0659005Y0041965D01*
X0660186Y0041965D01*
X0661277Y0042416D01*
X0662112Y0043252D01*
X0662564Y0044343D01*
X0662564Y0045524D01*
X0662385Y0045954D02*
X0674627Y0045954D01*
X0674923Y0046740D02*
X0661986Y0046740D01*
X0661093Y0047526D02*
X0675490Y0047526D01*
X0676788Y0048312D02*
X0651672Y0048312D01*
X0651277Y0047916D02*
X0652112Y0048752D01*
X0652564Y0049843D01*
X0652564Y0051024D01*
X0652112Y0052115D01*
X0651277Y0052950D01*
X0650186Y0053402D01*
X0649005Y0053402D01*
X0647914Y0052950D01*
X0647079Y0052115D01*
X0646627Y0051024D01*
X0646627Y0049843D01*
X0647079Y0048752D01*
X0647914Y0047916D01*
X0649005Y0047465D01*
X0650186Y0047465D01*
X0651277Y0047916D01*
X0650333Y0047526D02*
X0658097Y0047526D01*
X0657204Y0046740D02*
X0640486Y0046740D01*
X0640612Y0046615D02*
X0639777Y0047450D01*
X0638686Y0047902D01*
X0637505Y0047902D01*
X0636414Y0047450D01*
X0635579Y0046615D01*
X0635127Y0045524D01*
X0635127Y0044343D01*
X0635579Y0043252D01*
X0636414Y0042416D01*
X0637505Y0041965D01*
X0638686Y0041965D01*
X0639777Y0042416D01*
X0640612Y0043252D01*
X0641064Y0044343D01*
X0641064Y0045524D01*
X0640612Y0046615D01*
X0640885Y0045954D02*
X0656805Y0045954D01*
X0656627Y0045168D02*
X0641064Y0045168D01*
X0641064Y0044382D02*
X0656627Y0044382D01*
X0656936Y0043596D02*
X0640754Y0043596D01*
X0640170Y0042810D02*
X0657520Y0042810D01*
X0658860Y0042024D02*
X0638830Y0042024D01*
X0637360Y0042024D02*
X0577595Y0042024D01*
X0577595Y0041238D02*
X0697627Y0041238D01*
X0697627Y0040453D02*
X0577595Y0040453D01*
X0577595Y0039667D02*
X0697907Y0039667D01*
X0698449Y0038881D02*
X0577595Y0038881D01*
X0577595Y0042810D02*
X0636020Y0042810D01*
X0635436Y0043596D02*
X0577595Y0043596D01*
X0577595Y0044382D02*
X0635127Y0044382D01*
X0635127Y0045168D02*
X0577595Y0045168D01*
X0577595Y0045954D02*
X0635305Y0045954D01*
X0635704Y0046740D02*
X0577595Y0046740D01*
X0577595Y0047526D02*
X0636597Y0047526D01*
X0639593Y0047526D02*
X0648857Y0047526D01*
X0647518Y0048312D02*
X0577595Y0048312D01*
X0577595Y0049098D02*
X0646935Y0049098D01*
X0646627Y0049883D02*
X0577595Y0049883D01*
X0577595Y0050669D02*
X0646627Y0050669D01*
X0646805Y0051455D02*
X0577595Y0051455D01*
X0577595Y0052241D02*
X0600589Y0052241D01*
X0599964Y0053027D02*
X0577595Y0053027D01*
X0577595Y0053813D02*
X0599639Y0053813D01*
X0599627Y0054599D02*
X0581010Y0054599D01*
X0582245Y0055385D02*
X0599776Y0055385D01*
X0596595Y0054933D02*
X0591095Y0049433D01*
X0563595Y0049433D01*
X0554595Y0040433D01*
X0440595Y0040433D01*
X0360095Y0040433D01*
X0346595Y0053933D01*
X0324095Y0053933D01*
X0323595Y0083933D02*
X0359595Y0083933D01*
X0366095Y0090433D01*
X0455095Y0090433D01*
X0450595Y0085933D01*
X0450595Y0058433D01*
X0455095Y0090433D02*
X0550595Y0090433D01*
X0566595Y0074433D01*
X0590095Y0074433D01*
X0596595Y0080933D01*
X0596595Y0074933D01*
X0598095Y0073433D01*
X0605095Y0073433D01*
X0605095Y0070433D01*
X0605095Y0065504D01*
X0604524Y0064933D01*
X0599595Y0064933D01*
X0596595Y0061933D01*
X0596595Y0059933D01*
X0601127Y0059843D02*
X0601296Y0059433D01*
X0582293Y0059433D01*
X0581777Y0059950D01*
X0580686Y0060402D01*
X0579505Y0060402D01*
X0578414Y0059950D01*
X0577897Y0059433D01*
X0577595Y0059433D01*
X0577595Y0081235D01*
X0577914Y0080916D01*
X0579005Y0080465D01*
X0580186Y0080465D01*
X0581277Y0080916D01*
X0581793Y0081433D01*
X0641897Y0081433D01*
X0642414Y0080916D01*
X0643505Y0080465D01*
X0644686Y0080465D01*
X0645777Y0080916D01*
X0646293Y0081433D01*
X0760095Y0081433D01*
X0760095Y0059433D01*
X0670894Y0059433D01*
X0671064Y0059843D01*
X0671064Y0061024D01*
X0670612Y0062115D01*
X0669777Y0062950D01*
X0668686Y0063402D01*
X0667505Y0063402D01*
X0666414Y0062950D01*
X0665579Y0062115D01*
X0665127Y0061024D01*
X0665127Y0059843D01*
X0665296Y0059433D01*
X0606894Y0059433D01*
X0607064Y0059843D01*
X0607064Y0061024D01*
X0606612Y0062115D01*
X0605777Y0062950D01*
X0604686Y0063402D01*
X0603505Y0063402D01*
X0602414Y0062950D01*
X0601579Y0062115D01*
X0601127Y0061024D01*
X0601127Y0059843D01*
X0601127Y0060100D02*
X0581413Y0060100D01*
X0580095Y0060886D02*
X0570095Y0060886D01*
X0570095Y0060100D02*
X0578777Y0060100D01*
X0577595Y0060100D01*
X0577595Y0060886D02*
X0601127Y0060886D01*
X0601395Y0061672D02*
X0577595Y0061672D01*
X0577595Y0062458D02*
X0601922Y0062458D01*
X0603124Y0063244D02*
X0577595Y0063244D01*
X0577595Y0064030D02*
X0760095Y0064030D01*
X0760095Y0064816D02*
X0577595Y0064816D01*
X0577595Y0065602D02*
X0690173Y0065602D01*
X0690505Y0065465D02*
X0691686Y0065465D01*
X0692777Y0065916D01*
X0693612Y0066752D01*
X0694064Y0067843D01*
X0694064Y0069024D01*
X0693612Y0070115D01*
X0692777Y0070950D01*
X0691686Y0071402D01*
X0690505Y0071402D01*
X0689414Y0070950D01*
X0688579Y0070115D01*
X0688127Y0069024D01*
X0688127Y0067843D01*
X0688579Y0066752D01*
X0689414Y0065916D01*
X0690505Y0065465D01*
X0692017Y0065602D02*
X0760095Y0065602D01*
X0760095Y0066388D02*
X0693248Y0066388D01*
X0693787Y0067174D02*
X0760095Y0067174D01*
X0760095Y0067959D02*
X0694064Y0067959D01*
X0694064Y0068745D02*
X0760095Y0068745D01*
X0760095Y0069531D02*
X0693853Y0069531D01*
X0693409Y0070317D02*
X0760095Y0070317D01*
X0760095Y0071103D02*
X0692406Y0071103D01*
X0689784Y0071103D02*
X0681031Y0071103D01*
X0681064Y0071024D02*
X0680612Y0072115D01*
X0679777Y0072950D01*
X0678686Y0073402D01*
X0677505Y0073402D01*
X0676414Y0072950D01*
X0675845Y0072381D01*
X0675277Y0072950D01*
X0674186Y0073402D01*
X0673005Y0073402D01*
X0671914Y0072950D01*
X0671079Y0072115D01*
X0670627Y0071024D01*
X0670627Y0069843D01*
X0671079Y0068752D01*
X0671914Y0067916D01*
X0673005Y0067465D01*
X0674186Y0067465D01*
X0675277Y0067916D01*
X0675845Y0068485D01*
X0676414Y0067916D01*
X0677505Y0067465D01*
X0678686Y0067465D01*
X0679777Y0067916D01*
X0680612Y0068752D01*
X0681064Y0069843D01*
X0681064Y0071024D01*
X0681064Y0070317D02*
X0688781Y0070317D01*
X0688337Y0069531D02*
X0680935Y0069531D01*
X0680606Y0068745D02*
X0688127Y0068745D01*
X0688127Y0067959D02*
X0679820Y0067959D01*
X0676371Y0067959D02*
X0675320Y0067959D01*
X0671871Y0067959D02*
X0666320Y0067959D01*
X0666277Y0067916D02*
X0667112Y0068752D01*
X0667564Y0069843D01*
X0667564Y0071024D01*
X0667112Y0072115D01*
X0666277Y0072950D01*
X0665186Y0073402D01*
X0664005Y0073402D01*
X0662914Y0072950D01*
X0662345Y0072381D01*
X0661777Y0072950D01*
X0660686Y0073402D01*
X0659505Y0073402D01*
X0658414Y0072950D01*
X0657579Y0072115D01*
X0657127Y0071024D01*
X0657127Y0069843D01*
X0657579Y0068752D01*
X0658414Y0067916D01*
X0659505Y0067465D01*
X0660686Y0067465D01*
X0661777Y0067916D01*
X0662345Y0068485D01*
X0662914Y0067916D01*
X0664005Y0067465D01*
X0665186Y0067465D01*
X0666277Y0067916D01*
X0667106Y0068745D02*
X0671085Y0068745D01*
X0670756Y0069531D02*
X0667435Y0069531D01*
X0667564Y0070317D02*
X0670627Y0070317D01*
X0670660Y0071103D02*
X0667531Y0071103D01*
X0667205Y0071889D02*
X0670985Y0071889D01*
X0671639Y0072675D02*
X0666551Y0072675D01*
X0669095Y0073433D02*
X0669095Y0070433D01*
X0669095Y0067433D01*
X0667095Y0065433D01*
X0663095Y0065433D01*
X0660595Y0062933D01*
X0660595Y0059933D01*
X0665127Y0060100D02*
X0607064Y0060100D01*
X0607064Y0060886D02*
X0665127Y0060886D01*
X0665395Y0061672D02*
X0606795Y0061672D01*
X0606268Y0062458D02*
X0665922Y0062458D01*
X0667124Y0063244D02*
X0605066Y0063244D01*
X0602277Y0067916D02*
X0603112Y0068752D01*
X0603564Y0069843D01*
X0603564Y0071024D01*
X0603112Y0072115D01*
X0602277Y0072950D01*
X0601186Y0073402D01*
X0600005Y0073402D01*
X0598914Y0072950D01*
X0598345Y0072381D01*
X0597777Y0072950D01*
X0596686Y0073402D01*
X0595505Y0073402D01*
X0594414Y0072950D01*
X0593579Y0072115D01*
X0593127Y0071024D01*
X0593127Y0069843D01*
X0593579Y0068752D01*
X0594414Y0067916D01*
X0595505Y0067465D01*
X0596686Y0067465D01*
X0597777Y0067916D01*
X0598345Y0068485D01*
X0598914Y0067916D01*
X0600005Y0067465D01*
X0601186Y0067465D01*
X0602277Y0067916D01*
X0602320Y0067959D02*
X0607871Y0067959D01*
X0607914Y0067916D02*
X0609005Y0067465D01*
X0610186Y0067465D01*
X0611277Y0067916D01*
X0611845Y0068485D01*
X0612414Y0067916D01*
X0613505Y0067465D01*
X0614686Y0067465D01*
X0615777Y0067916D01*
X0616612Y0068752D01*
X0617064Y0069843D01*
X0617064Y0071024D01*
X0616612Y0072115D01*
X0615777Y0072950D01*
X0614686Y0073402D01*
X0613505Y0073402D01*
X0612414Y0072950D01*
X0611845Y0072381D01*
X0611277Y0072950D01*
X0610186Y0073402D01*
X0609005Y0073402D01*
X0607914Y0072950D01*
X0607079Y0072115D01*
X0606627Y0071024D01*
X0606627Y0069843D01*
X0607079Y0068752D01*
X0607914Y0067916D01*
X0607085Y0068745D02*
X0603106Y0068745D01*
X0603435Y0069531D02*
X0606756Y0069531D01*
X0606627Y0070317D02*
X0603564Y0070317D01*
X0603531Y0071103D02*
X0606660Y0071103D01*
X0606985Y0071889D02*
X0603205Y0071889D01*
X0602551Y0072675D02*
X0607639Y0072675D01*
X0611551Y0072675D02*
X0612139Y0072675D01*
X0616051Y0072675D02*
X0625458Y0072675D01*
X0624914Y0072450D02*
X0626005Y0072902D01*
X0627186Y0072902D01*
X0628277Y0072450D01*
X0629112Y0071615D01*
X0629564Y0070524D01*
X0629564Y0069343D01*
X0629112Y0068252D01*
X0628277Y0067416D01*
X0627186Y0066965D01*
X0626005Y0066965D01*
X0624914Y0067416D01*
X0624079Y0068252D01*
X0623627Y0069343D01*
X0623627Y0070524D01*
X0624079Y0071615D01*
X0624914Y0072450D01*
X0624353Y0071889D02*
X0616705Y0071889D01*
X0617031Y0071103D02*
X0623867Y0071103D01*
X0623627Y0070317D02*
X0617064Y0070317D01*
X0616935Y0069531D02*
X0623627Y0069531D01*
X0623874Y0068745D02*
X0616606Y0068745D01*
X0615820Y0067959D02*
X0624371Y0067959D01*
X0625500Y0067174D02*
X0577595Y0067174D01*
X0577595Y0067959D02*
X0594371Y0067959D01*
X0593585Y0068745D02*
X0577595Y0068745D01*
X0577595Y0069531D02*
X0593256Y0069531D01*
X0593127Y0070317D02*
X0577595Y0070317D01*
X0577595Y0071103D02*
X0593160Y0071103D01*
X0593485Y0071889D02*
X0577595Y0071889D01*
X0577595Y0072675D02*
X0594139Y0072675D01*
X0598051Y0072675D02*
X0598639Y0072675D01*
X0598871Y0067959D02*
X0597820Y0067959D01*
X0611320Y0067959D02*
X0612371Y0067959D01*
X0627690Y0067174D02*
X0688404Y0067174D01*
X0688942Y0066388D02*
X0577595Y0066388D01*
X0580095Y0066388D02*
X0570095Y0066388D01*
X0570095Y0067174D02*
X0580095Y0067174D01*
X0580095Y0067959D02*
X0570095Y0067959D01*
X0570095Y0068745D02*
X0580095Y0068745D01*
X0580095Y0069531D02*
X0570095Y0069531D01*
X0570095Y0070317D02*
X0580095Y0070317D01*
X0580095Y0071103D02*
X0570095Y0071103D01*
X0570095Y0071889D02*
X0580095Y0071889D01*
X0580095Y0072675D02*
X0570095Y0072675D01*
X0570095Y0073461D02*
X0580095Y0073461D01*
X0580095Y0074247D02*
X0570095Y0074247D01*
X0570095Y0075033D02*
X0580095Y0075033D01*
X0580095Y0075819D02*
X0570095Y0075819D01*
X0570095Y0076605D02*
X0580095Y0076605D01*
X0580095Y0077390D02*
X0570095Y0077390D01*
X0570095Y0078176D02*
X0580095Y0078176D01*
X0580095Y0078962D02*
X0570095Y0078962D01*
X0570095Y0079748D02*
X0580095Y0079748D01*
X0580353Y0080534D02*
X0643337Y0080534D01*
X0644853Y0080534D02*
X0760095Y0080534D01*
X0760095Y0079748D02*
X0577595Y0079748D01*
X0577595Y0078962D02*
X0760095Y0078962D01*
X0760095Y0078176D02*
X0577595Y0078176D01*
X0577595Y0077390D02*
X0760095Y0077390D01*
X0760095Y0076605D02*
X0577595Y0076605D01*
X0577595Y0075819D02*
X0760095Y0075819D01*
X0760095Y0075033D02*
X0577595Y0075033D01*
X0577595Y0074247D02*
X0760095Y0074247D01*
X0760095Y0073461D02*
X0577595Y0073461D01*
X0577595Y0080534D02*
X0578837Y0080534D01*
X0570095Y0080534D01*
X0570095Y0081320D02*
X0574595Y0081320D01*
X0574595Y0082106D02*
X0570095Y0082106D01*
X0570095Y0082892D02*
X0574595Y0082892D01*
X0571152Y0083678D02*
X0570095Y0083678D01*
X0570095Y0084464D02*
X0570491Y0084464D01*
X0570165Y0085250D02*
X0570095Y0085250D01*
X0570095Y0086035D02*
X0570127Y0086035D01*
X0570095Y0086821D02*
X0570250Y0086821D01*
X0570095Y0087607D02*
X0570576Y0087607D01*
X0570095Y0088393D02*
X0571357Y0088393D01*
X0577595Y0089965D02*
X0760095Y0089965D01*
X0760095Y0090751D02*
X0577595Y0090751D01*
X0577595Y0091537D02*
X0760095Y0091537D01*
X0760095Y0092323D02*
X0577595Y0092323D01*
X0577595Y0093109D02*
X0760095Y0093109D01*
X0760095Y0093895D02*
X0577595Y0093895D01*
X0577595Y0094681D02*
X0594983Y0094681D01*
X0595505Y0094465D02*
X0596686Y0094465D01*
X0597777Y0094916D01*
X0598345Y0095485D01*
X0598914Y0094916D01*
X0600005Y0094465D01*
X0601186Y0094465D01*
X0602277Y0094916D01*
X0603112Y0095752D01*
X0603564Y0096843D01*
X0603564Y0098024D01*
X0603112Y0099115D01*
X0602277Y0099950D01*
X0601186Y0100402D01*
X0600005Y0100402D01*
X0598914Y0099950D01*
X0598345Y0099381D01*
X0597777Y0099950D01*
X0596686Y0100402D01*
X0595505Y0100402D01*
X0594414Y0099950D01*
X0593579Y0099115D01*
X0593127Y0098024D01*
X0593127Y0096843D01*
X0593579Y0095752D01*
X0594414Y0094916D01*
X0595505Y0094465D01*
X0597207Y0094681D02*
X0599483Y0094681D01*
X0598364Y0095466D02*
X0598327Y0095466D01*
X0601707Y0094681D02*
X0608483Y0094681D01*
X0609005Y0094465D02*
X0610186Y0094465D01*
X0611277Y0094916D01*
X0611845Y0095485D01*
X0612414Y0094916D01*
X0613505Y0094465D01*
X0614686Y0094465D01*
X0615777Y0094916D01*
X0616612Y0095752D01*
X0617064Y0096843D01*
X0617064Y0098024D01*
X0616612Y0099115D01*
X0615777Y0099950D01*
X0614686Y0100402D01*
X0613505Y0100402D01*
X0612414Y0099950D01*
X0611845Y0099381D01*
X0611277Y0099950D01*
X0610186Y0100402D01*
X0609005Y0100402D01*
X0607914Y0099950D01*
X0607079Y0099115D01*
X0606627Y0098024D01*
X0606627Y0096843D01*
X0607079Y0095752D01*
X0607914Y0094916D01*
X0609005Y0094465D01*
X0610707Y0094681D02*
X0612983Y0094681D01*
X0611864Y0095466D02*
X0611827Y0095466D01*
X0615207Y0094681D02*
X0658983Y0094681D01*
X0659505Y0094465D02*
X0660686Y0094465D01*
X0661777Y0094916D01*
X0662345Y0095485D01*
X0662914Y0094916D01*
X0664005Y0094465D01*
X0665186Y0094465D01*
X0666277Y0094916D01*
X0667112Y0095752D01*
X0667564Y0096843D01*
X0667564Y0098024D01*
X0667112Y0099115D01*
X0666277Y0099950D01*
X0665186Y0100402D01*
X0664005Y0100402D01*
X0662914Y0099950D01*
X0662345Y0099381D01*
X0661777Y0099950D01*
X0660686Y0100402D01*
X0659505Y0100402D01*
X0658414Y0099950D01*
X0657579Y0099115D01*
X0657127Y0098024D01*
X0657127Y0096843D01*
X0657579Y0095752D01*
X0658414Y0094916D01*
X0659505Y0094465D01*
X0661207Y0094681D02*
X0663483Y0094681D01*
X0662364Y0095466D02*
X0662327Y0095466D01*
X0665707Y0094681D02*
X0672483Y0094681D01*
X0673005Y0094465D02*
X0674186Y0094465D01*
X0675277Y0094916D01*
X0675845Y0095485D01*
X0676414Y0094916D01*
X0677505Y0094465D01*
X0678686Y0094465D01*
X0679777Y0094916D01*
X0680612Y0095752D01*
X0681064Y0096843D01*
X0681064Y0098024D01*
X0680612Y0099115D01*
X0679777Y0099950D01*
X0678686Y0100402D01*
X0677505Y0100402D01*
X0676414Y0099950D01*
X0675845Y0099381D01*
X0675277Y0099950D01*
X0674186Y0100402D01*
X0673005Y0100402D01*
X0671914Y0099950D01*
X0671079Y0099115D01*
X0670627Y0098024D01*
X0670627Y0096843D01*
X0671079Y0095752D01*
X0671914Y0094916D01*
X0673005Y0094465D01*
X0674707Y0094681D02*
X0676983Y0094681D01*
X0675864Y0095466D02*
X0675827Y0095466D01*
X0679207Y0094681D02*
X0760095Y0094681D01*
X0760095Y0095466D02*
X0680327Y0095466D01*
X0680819Y0096252D02*
X0760095Y0096252D01*
X0760095Y0097038D02*
X0681064Y0097038D01*
X0681064Y0097824D02*
X0692136Y0097824D01*
X0691914Y0097916D02*
X0693005Y0097465D01*
X0694186Y0097465D01*
X0695277Y0097916D01*
X0696112Y0098752D01*
X0696564Y0099843D01*
X0696564Y0101024D01*
X0696112Y0102115D01*
X0695277Y0102950D01*
X0694186Y0103402D01*
X0693005Y0103402D01*
X0691914Y0102950D01*
X0691079Y0102115D01*
X0690627Y0101024D01*
X0690627Y0099843D01*
X0691079Y0098752D01*
X0691914Y0097916D01*
X0691220Y0098610D02*
X0680821Y0098610D01*
X0680330Y0099396D02*
X0690812Y0099396D01*
X0690627Y0100182D02*
X0679216Y0100182D01*
X0676974Y0100182D02*
X0674716Y0100182D01*
X0675830Y0099396D02*
X0675860Y0099396D01*
X0672474Y0100182D02*
X0665716Y0100182D01*
X0666830Y0099396D02*
X0671360Y0099396D01*
X0670870Y0098610D02*
X0667321Y0098610D01*
X0667564Y0097824D02*
X0670627Y0097824D01*
X0670627Y0097038D02*
X0667564Y0097038D01*
X0667319Y0096252D02*
X0670871Y0096252D01*
X0671364Y0095466D02*
X0666827Y0095466D01*
X0669095Y0097433D02*
X0669095Y0093433D01*
X0667095Y0091433D01*
X0662595Y0091433D01*
X0660595Y0089433D01*
X0660595Y0085933D01*
X0660595Y0080933D02*
X0655595Y0080933D01*
X0660595Y0080933D02*
X0663095Y0080933D01*
X0669095Y0074933D01*
X0669095Y0070433D01*
X0662871Y0067959D02*
X0661820Y0067959D01*
X0658371Y0067959D02*
X0628820Y0067959D01*
X0629316Y0068745D02*
X0657585Y0068745D01*
X0657256Y0069531D02*
X0629564Y0069531D01*
X0629564Y0070317D02*
X0657127Y0070317D01*
X0657160Y0071103D02*
X0629324Y0071103D01*
X0628837Y0071889D02*
X0657485Y0071889D01*
X0658139Y0072675D02*
X0627733Y0072675D01*
X0642010Y0081320D02*
X0581680Y0081320D01*
X0596595Y0085933D02*
X0596595Y0089433D01*
X0598595Y0091433D01*
X0603095Y0091433D01*
X0605095Y0093433D01*
X0605095Y0097433D01*
X0605095Y0102862D01*
X0604024Y0103933D01*
X0599095Y0103933D01*
X0596095Y0106933D01*
X0596095Y0108433D01*
X0596595Y0113433D02*
X0596595Y0115933D01*
X0598595Y0117933D01*
X0604024Y0117933D01*
X0605095Y0119004D01*
X0605095Y0124433D01*
X0602686Y0116902D02*
X0601505Y0116902D01*
X0600414Y0116450D01*
X0599579Y0115615D01*
X0599127Y0114524D01*
X0599127Y0113343D01*
X0599296Y0112933D01*
X0577595Y0112933D01*
X0577595Y0130933D01*
X0760095Y0130933D01*
X0760095Y0112933D01*
X0668894Y0112933D01*
X0669064Y0113343D01*
X0669064Y0114524D01*
X0668612Y0115615D01*
X0667777Y0116450D01*
X0666686Y0116902D01*
X0665505Y0116902D01*
X0664414Y0116450D01*
X0663579Y0115615D01*
X0663127Y0114524D01*
X0663127Y0113343D01*
X0663296Y0112933D01*
X0604894Y0112933D01*
X0605064Y0113343D01*
X0605064Y0114524D01*
X0604612Y0115615D01*
X0603777Y0116450D01*
X0602686Y0116902D01*
X0603206Y0116686D02*
X0646899Y0116686D01*
X0647079Y0116252D02*
X0647914Y0115416D01*
X0649005Y0114965D01*
X0650186Y0114965D01*
X0651277Y0115416D01*
X0652112Y0116252D01*
X0652564Y0117343D01*
X0652564Y0118524D01*
X0652112Y0119615D01*
X0651277Y0120450D01*
X0650186Y0120902D01*
X0649005Y0120902D01*
X0647914Y0120450D01*
X0647079Y0119615D01*
X0646627Y0118524D01*
X0646627Y0117343D01*
X0647079Y0116252D01*
X0647430Y0115900D02*
X0604326Y0115900D01*
X0604819Y0115114D02*
X0648643Y0115114D01*
X0650547Y0115114D02*
X0663371Y0115114D01*
X0663127Y0114328D02*
X0605064Y0114328D01*
X0605064Y0113542D02*
X0663127Y0113542D01*
X0663864Y0115900D02*
X0651760Y0115900D01*
X0652292Y0116686D02*
X0664984Y0116686D01*
X0667206Y0116686D02*
X0760095Y0116686D01*
X0760095Y0115900D02*
X0668326Y0115900D01*
X0668819Y0115114D02*
X0760095Y0115114D01*
X0760095Y0114328D02*
X0669064Y0114328D01*
X0669064Y0113542D02*
X0760095Y0113542D01*
X0763595Y0113542D02*
X0769095Y0113542D01*
X0769095Y0112757D02*
X0763595Y0112757D01*
X0763595Y0111971D02*
X0769095Y0111971D01*
X0769095Y0111933D02*
X0765595Y0108433D01*
X0680095Y0108433D01*
X0669095Y0097433D01*
X0669095Y0105433D01*
X0666095Y0108433D01*
X0660595Y0108433D01*
X0660095Y0108433D01*
X0660595Y0113433D02*
X0660595Y0114933D01*
X0665095Y0119433D01*
X0667095Y0119433D01*
X0669095Y0121433D01*
X0669095Y0124433D01*
X0652348Y0119044D02*
X0749786Y0119044D01*
X0749579Y0119252D02*
X0750414Y0118416D01*
X0751505Y0117965D01*
X0752686Y0117965D01*
X0753777Y0118416D01*
X0754612Y0119252D01*
X0755064Y0120343D01*
X0755064Y0121524D01*
X0754612Y0122615D01*
X0753777Y0123450D01*
X0752686Y0123902D01*
X0751505Y0123902D01*
X0750414Y0123450D01*
X0749579Y0122615D01*
X0749127Y0121524D01*
X0749127Y0120343D01*
X0749579Y0119252D01*
X0749339Y0119830D02*
X0651897Y0119830D01*
X0650876Y0120616D02*
X0749127Y0120616D01*
X0749127Y0121402D02*
X0577595Y0121402D01*
X0577595Y0122187D02*
X0587967Y0122187D01*
X0588505Y0121965D02*
X0589686Y0121965D01*
X0590777Y0122416D01*
X0591612Y0123252D01*
X0592064Y0124343D01*
X0592064Y0125524D01*
X0591612Y0126615D01*
X0590777Y0127450D01*
X0589686Y0127902D01*
X0588505Y0127902D01*
X0587414Y0127450D01*
X0586579Y0126615D01*
X0586127Y0125524D01*
X0586127Y0124343D01*
X0586579Y0123252D01*
X0587414Y0122416D01*
X0588505Y0121965D01*
X0587277Y0120950D02*
X0586186Y0121402D01*
X0585005Y0121402D01*
X0583914Y0120950D01*
X0583079Y0120115D01*
X0582627Y0119024D01*
X0582627Y0117843D01*
X0583079Y0116752D01*
X0583914Y0115916D01*
X0585005Y0115465D01*
X0586186Y0115465D01*
X0587277Y0115916D01*
X0588112Y0116752D01*
X0588564Y0117843D01*
X0588564Y0119024D01*
X0588112Y0120115D01*
X0587277Y0120950D01*
X0587611Y0120616D02*
X0648314Y0120616D01*
X0647294Y0119830D02*
X0588230Y0119830D01*
X0588555Y0119044D02*
X0646842Y0119044D01*
X0646627Y0118258D02*
X0588564Y0118258D01*
X0588410Y0117472D02*
X0646627Y0117472D01*
X0652564Y0117472D02*
X0760095Y0117472D01*
X0760095Y0118258D02*
X0753394Y0118258D01*
X0754404Y0119044D02*
X0760095Y0119044D01*
X0760095Y0119830D02*
X0754851Y0119830D01*
X0755064Y0120616D02*
X0760095Y0120616D01*
X0760095Y0121402D02*
X0755064Y0121402D01*
X0754789Y0122187D02*
X0760095Y0122187D01*
X0760095Y0122973D02*
X0754253Y0122973D01*
X0753029Y0123759D02*
X0760095Y0123759D01*
X0760095Y0124545D02*
X0592064Y0124545D01*
X0592064Y0125331D02*
X0760095Y0125331D01*
X0760095Y0126117D02*
X0591818Y0126117D01*
X0591323Y0126903D02*
X0760095Y0126903D01*
X0760095Y0127689D02*
X0590199Y0127689D01*
X0587991Y0127689D02*
X0577595Y0127689D01*
X0577595Y0128475D02*
X0760095Y0128475D01*
X0760095Y0129261D02*
X0577595Y0129261D01*
X0577595Y0130047D02*
X0760095Y0130047D01*
X0760095Y0130833D02*
X0577595Y0130833D01*
X0579595Y0130833D02*
X0570095Y0130833D01*
X0570095Y0131618D02*
X0574595Y0131618D01*
X0574595Y0132404D02*
X0570095Y0132404D01*
X0570095Y0133190D02*
X0574595Y0133190D01*
X0574595Y0133976D02*
X0570095Y0133976D01*
X0570095Y0134762D02*
X0574595Y0134762D01*
X0574595Y0135548D02*
X0570095Y0135548D01*
X0570095Y0136334D02*
X0574595Y0136334D01*
X0574595Y0137120D02*
X0570095Y0137120D01*
X0570095Y0137906D02*
X0574595Y0137906D01*
X0574595Y0138692D02*
X0570095Y0138692D01*
X0570095Y0139478D02*
X0574595Y0139478D01*
X0574595Y0140263D02*
X0570095Y0140263D01*
X0570095Y0141049D02*
X0574595Y0141049D01*
X0574595Y0141835D02*
X0570095Y0141835D01*
X0570095Y0142621D02*
X0574595Y0142621D01*
X0574595Y0143407D02*
X0570095Y0143407D01*
X0570095Y0144193D02*
X0574595Y0144193D01*
X0574595Y0144979D02*
X0570095Y0144979D01*
X0570095Y0145765D02*
X0574595Y0145765D01*
X0574595Y0146551D02*
X0570095Y0146551D01*
X0570095Y0147337D02*
X0574595Y0147337D01*
X0574595Y0148123D02*
X0570095Y0148123D01*
X0570095Y0148909D02*
X0574595Y0148909D01*
X0574595Y0149694D02*
X0570095Y0149694D01*
X0570095Y0150480D02*
X0574595Y0150480D01*
X0574595Y0151266D02*
X0570095Y0151266D01*
X0570095Y0152052D02*
X0574595Y0152052D01*
X0574595Y0152838D02*
X0570095Y0152838D01*
X0570095Y0153624D02*
X0574595Y0153624D01*
X0574595Y0154410D02*
X0570095Y0154410D01*
X0570095Y0155196D02*
X0574595Y0155196D01*
X0570095Y0155982D02*
X0579595Y0155982D01*
X0579595Y0156768D02*
X0570095Y0156768D01*
X0570095Y0157554D02*
X0579595Y0157554D01*
X0579595Y0158339D02*
X0570095Y0158339D01*
X0570095Y0159125D02*
X0579595Y0159125D01*
X0579595Y0159911D02*
X0570095Y0159911D01*
X0570095Y0160697D02*
X0579595Y0160697D01*
X0579595Y0161483D02*
X0570095Y0161483D01*
X0570095Y0162269D02*
X0579595Y0162269D01*
X0579595Y0163055D02*
X0570095Y0163055D01*
X0570095Y0163841D02*
X0579595Y0163841D01*
X0579595Y0164627D02*
X0570095Y0164627D01*
X0570095Y0165413D02*
X0579595Y0165413D01*
X0579595Y0166199D02*
X0570095Y0166199D01*
X0570095Y0166985D02*
X0579595Y0166985D01*
X0579595Y0167770D02*
X0570095Y0167770D01*
X0570095Y0168556D02*
X0579595Y0168556D01*
X0579595Y0169342D02*
X0570095Y0169342D01*
X0570095Y0170128D02*
X0579595Y0170128D01*
X0579595Y0170914D02*
X0570095Y0170914D01*
X0570095Y0171700D02*
X0579595Y0171700D01*
X0579595Y0172486D02*
X0570095Y0172486D01*
X0570095Y0173272D02*
X0579595Y0173272D01*
X0579595Y0174058D02*
X0570095Y0174058D01*
X0570095Y0174844D02*
X0579595Y0174844D01*
X0579595Y0175630D02*
X0570095Y0175630D01*
X0570095Y0176415D02*
X0579595Y0176415D01*
X0581562Y0177201D02*
X0642433Y0177201D01*
X0644757Y0177201D02*
X0706433Y0177201D01*
X0708757Y0177201D02*
X0760095Y0177201D01*
X0763595Y0177201D02*
X0769095Y0177201D01*
X0769095Y0176415D02*
X0763595Y0176415D01*
X0763595Y0175630D02*
X0769095Y0175630D01*
X0769095Y0174844D02*
X0763595Y0174844D01*
X0763595Y0174058D02*
X0769095Y0174058D01*
X0769095Y0173272D02*
X0763595Y0173272D01*
X0763595Y0172486D02*
X0769095Y0172486D01*
X0769095Y0171700D02*
X0763595Y0171700D01*
X0763595Y0170914D02*
X0769095Y0170914D01*
X0769095Y0170128D02*
X0763595Y0170128D01*
X0763595Y0169342D02*
X0769095Y0169342D01*
X0769095Y0168556D02*
X0763595Y0168556D01*
X0763595Y0167770D02*
X0769095Y0167770D01*
X0769095Y0166985D02*
X0763595Y0166985D01*
X0763595Y0166199D02*
X0769095Y0166199D01*
X0769095Y0165413D02*
X0763595Y0165413D01*
X0763595Y0164627D02*
X0769095Y0164627D01*
X0769095Y0163841D02*
X0763595Y0163841D01*
X0763595Y0163055D02*
X0769095Y0163055D01*
X0769095Y0162269D02*
X0763595Y0162269D01*
X0763595Y0161483D02*
X0769095Y0161483D01*
X0769095Y0160697D02*
X0763595Y0160697D01*
X0763595Y0159911D02*
X0769095Y0159911D01*
X0769095Y0159125D02*
X0763595Y0159125D01*
X0763595Y0158339D02*
X0769095Y0158339D01*
X0769095Y0157554D02*
X0763595Y0157554D01*
X0763595Y0156768D02*
X0769095Y0156768D01*
X0769095Y0155982D02*
X0763595Y0155982D01*
X0763595Y0155196D02*
X0769095Y0155196D01*
X0769095Y0154410D02*
X0763595Y0154410D01*
X0763595Y0153624D02*
X0769095Y0153624D01*
X0769095Y0152838D02*
X0763595Y0152838D01*
X0763595Y0152052D02*
X0769095Y0152052D01*
X0769095Y0151266D02*
X0759095Y0151266D01*
X0759095Y0150480D02*
X0769095Y0150480D01*
X0769095Y0149694D02*
X0759095Y0149694D01*
X0759095Y0148909D02*
X0769095Y0148909D01*
X0769095Y0148123D02*
X0759095Y0148123D01*
X0759095Y0147337D02*
X0769095Y0147337D01*
X0768845Y0146551D02*
X0759095Y0146551D01*
X0759095Y0145765D02*
X0768627Y0145765D01*
X0768627Y0144979D02*
X0759095Y0144979D01*
X0759095Y0144193D02*
X0768896Y0144193D01*
X0769095Y0143407D02*
X0759095Y0143407D01*
X0759095Y0142621D02*
X0769085Y0142621D01*
X0768756Y0141835D02*
X0759095Y0141835D01*
X0759095Y0141049D02*
X0768627Y0141049D01*
X0768659Y0140263D02*
X0759095Y0140263D01*
X0759095Y0139478D02*
X0768985Y0139478D01*
X0769095Y0138692D02*
X0759095Y0138692D01*
X0759095Y0137906D02*
X0769095Y0137906D01*
X0769095Y0137120D02*
X0759095Y0137120D01*
X0759095Y0136334D02*
X0769095Y0136334D01*
X0769095Y0135548D02*
X0759095Y0135548D01*
X0759095Y0134762D02*
X0769095Y0134762D01*
X0769095Y0133976D02*
X0759095Y0133976D01*
X0760095Y0133976D02*
X0577595Y0133976D01*
X0577595Y0133933D02*
X0577595Y0151433D01*
X0599796Y0151433D01*
X0599627Y0151024D01*
X0599627Y0149843D01*
X0600079Y0148752D01*
X0600914Y0147916D01*
X0602005Y0147465D01*
X0603186Y0147465D01*
X0604277Y0147916D01*
X0605112Y0148752D01*
X0605564Y0149843D01*
X0605564Y0151024D01*
X0605394Y0151433D01*
X0663796Y0151433D01*
X0663627Y0151024D01*
X0663627Y0149843D01*
X0664079Y0148752D01*
X0664914Y0147916D01*
X0666005Y0147465D01*
X0667186Y0147465D01*
X0668277Y0147916D01*
X0669112Y0148752D01*
X0669564Y0149843D01*
X0669564Y0151024D01*
X0669394Y0151433D01*
X0727796Y0151433D01*
X0727627Y0151024D01*
X0727627Y0149843D01*
X0728079Y0148752D01*
X0728914Y0147916D01*
X0730005Y0147465D01*
X0731186Y0147465D01*
X0732277Y0147916D01*
X0733112Y0148752D01*
X0733564Y0149843D01*
X0733564Y0151024D01*
X0733394Y0151433D01*
X0760095Y0151433D01*
X0760095Y0133933D01*
X0577595Y0133933D01*
X0577595Y0134762D02*
X0760095Y0134762D01*
X0760095Y0135548D02*
X0577595Y0135548D01*
X0577595Y0136334D02*
X0760095Y0136334D01*
X0760095Y0137120D02*
X0577595Y0137120D01*
X0577595Y0137906D02*
X0719440Y0137906D01*
X0719414Y0137916D02*
X0720505Y0137465D01*
X0721686Y0137465D01*
X0722777Y0137916D01*
X0723612Y0138752D01*
X0724064Y0139843D01*
X0724064Y0141024D01*
X0723612Y0142115D01*
X0722777Y0142950D01*
X0721686Y0143402D01*
X0720505Y0143402D01*
X0719414Y0142950D01*
X0718579Y0142115D01*
X0718127Y0141024D01*
X0718127Y0139843D01*
X0718579Y0138752D01*
X0719414Y0137916D01*
X0718638Y0138692D02*
X0577595Y0138692D01*
X0577595Y0139478D02*
X0718278Y0139478D01*
X0718127Y0140263D02*
X0577595Y0140263D01*
X0577595Y0141049D02*
X0718137Y0141049D01*
X0718463Y0141835D02*
X0577595Y0141835D01*
X0577595Y0142621D02*
X0719085Y0142621D01*
X0716112Y0144752D02*
X0716564Y0145843D01*
X0716564Y0147024D01*
X0716112Y0148115D01*
X0715277Y0148950D01*
X0714186Y0149402D01*
X0713005Y0149402D01*
X0711914Y0148950D01*
X0711079Y0148115D01*
X0710627Y0147024D01*
X0710627Y0145843D01*
X0711079Y0144752D01*
X0711914Y0143916D01*
X0713005Y0143465D01*
X0714186Y0143465D01*
X0715277Y0143916D01*
X0716112Y0144752D01*
X0716206Y0144979D02*
X0760095Y0144979D01*
X0760095Y0145765D02*
X0716531Y0145765D01*
X0716564Y0146551D02*
X0760095Y0146551D01*
X0760095Y0147337D02*
X0716434Y0147337D01*
X0716104Y0148123D02*
X0728708Y0148123D01*
X0728014Y0148909D02*
X0715318Y0148909D01*
X0711872Y0148909D02*
X0669177Y0148909D01*
X0669502Y0149694D02*
X0727688Y0149694D01*
X0727627Y0150480D02*
X0669564Y0150480D01*
X0669463Y0151266D02*
X0727727Y0151266D01*
X0724595Y0151433D02*
X0724595Y0148433D01*
X0726095Y0146933D01*
X0731524Y0146933D01*
X0733095Y0145362D01*
X0733095Y0140433D01*
X0737595Y0135933D01*
X0766095Y0135933D01*
X0769095Y0132933D01*
X0769095Y0111933D01*
X0769095Y0111185D02*
X0763595Y0111185D01*
X0763595Y0110399D02*
X0769095Y0110399D01*
X0769095Y0109613D02*
X0763595Y0109613D01*
X0760095Y0108827D02*
X0674938Y0108827D01*
X0675064Y0108041D02*
X0760095Y0108041D01*
X0760095Y0107255D02*
X0675027Y0107255D01*
X0674702Y0106469D02*
X0760095Y0106469D01*
X0760095Y0105683D02*
X0674043Y0105683D01*
X0670147Y0105683D02*
X0610043Y0105683D01*
X0610702Y0106469D02*
X0669488Y0106469D01*
X0669163Y0107255D02*
X0611027Y0107255D01*
X0611064Y0108041D02*
X0669127Y0108041D01*
X0669252Y0108827D02*
X0610938Y0108827D01*
X0605252Y0108827D02*
X0577595Y0108827D01*
X0577595Y0108041D02*
X0605127Y0108041D01*
X0605163Y0107255D02*
X0577595Y0107255D01*
X0577595Y0106469D02*
X0605488Y0106469D01*
X0606147Y0105683D02*
X0577595Y0105683D01*
X0577595Y0104897D02*
X0760095Y0104897D01*
X0760095Y0104111D02*
X0577595Y0104111D01*
X0577595Y0103326D02*
X0628821Y0103326D01*
X0629005Y0103402D02*
X0627914Y0102950D01*
X0627079Y0102115D01*
X0626627Y0101024D01*
X0626627Y0099843D01*
X0627079Y0098752D01*
X0627914Y0097916D01*
X0629005Y0097465D01*
X0630186Y0097465D01*
X0631277Y0097916D01*
X0632112Y0098752D01*
X0632564Y0099843D01*
X0632564Y0101024D01*
X0632112Y0102115D01*
X0631277Y0102950D01*
X0630186Y0103402D01*
X0629005Y0103402D01*
X0630369Y0103326D02*
X0692821Y0103326D01*
X0691504Y0102540D02*
X0631687Y0102540D01*
X0632261Y0101754D02*
X0690929Y0101754D01*
X0690627Y0100968D02*
X0632564Y0100968D01*
X0632564Y0100182D02*
X0658974Y0100182D01*
X0657860Y0099396D02*
X0632379Y0099396D01*
X0631970Y0098610D02*
X0657370Y0098610D01*
X0657127Y0097824D02*
X0631054Y0097824D01*
X0628136Y0097824D02*
X0617064Y0097824D01*
X0617064Y0097038D02*
X0657127Y0097038D01*
X0657371Y0096252D02*
X0616819Y0096252D01*
X0616327Y0095466D02*
X0657864Y0095466D01*
X0661216Y0100182D02*
X0663474Y0100182D01*
X0662360Y0099396D02*
X0662330Y0099396D01*
X0684095Y0093433D02*
X0684095Y0092933D01*
X0695054Y0097824D02*
X0760095Y0097824D01*
X0760095Y0098610D02*
X0695970Y0098610D01*
X0696379Y0099396D02*
X0760095Y0099396D01*
X0760095Y0100182D02*
X0696564Y0100182D01*
X0696564Y0100968D02*
X0760095Y0100968D01*
X0760095Y0101754D02*
X0696261Y0101754D01*
X0695687Y0102540D02*
X0760095Y0102540D01*
X0760095Y0103326D02*
X0694369Y0103326D01*
X0652564Y0118258D02*
X0750796Y0118258D01*
X0749402Y0122187D02*
X0590224Y0122187D01*
X0591334Y0122973D02*
X0749937Y0122973D01*
X0751161Y0123759D02*
X0591822Y0123759D01*
X0586857Y0122973D02*
X0577595Y0122973D01*
X0577595Y0123759D02*
X0586368Y0123759D01*
X0586127Y0124545D02*
X0577595Y0124545D01*
X0577595Y0125331D02*
X0586127Y0125331D01*
X0586372Y0126117D02*
X0577595Y0126117D01*
X0577595Y0126903D02*
X0586867Y0126903D01*
X0579595Y0126903D02*
X0570095Y0126903D01*
X0570095Y0127689D02*
X0579595Y0127689D01*
X0579595Y0128475D02*
X0570095Y0128475D01*
X0570095Y0129261D02*
X0579595Y0129261D01*
X0579595Y0130047D02*
X0570095Y0130047D01*
X0570095Y0126117D02*
X0579595Y0126117D01*
X0579595Y0125331D02*
X0570095Y0125331D01*
X0577595Y0120616D02*
X0583580Y0120616D01*
X0582961Y0119830D02*
X0577595Y0119830D01*
X0577595Y0119044D02*
X0582635Y0119044D01*
X0582627Y0118258D02*
X0577595Y0118258D01*
X0577595Y0117472D02*
X0582780Y0117472D01*
X0583144Y0116686D02*
X0577595Y0116686D01*
X0577595Y0115900D02*
X0583953Y0115900D01*
X0587237Y0115900D02*
X0599864Y0115900D01*
X0599371Y0115114D02*
X0577595Y0115114D01*
X0577595Y0114328D02*
X0599127Y0114328D01*
X0599127Y0113542D02*
X0577595Y0113542D01*
X0588046Y0116686D02*
X0600984Y0116686D01*
X0601716Y0100182D02*
X0608474Y0100182D01*
X0607360Y0099396D02*
X0602830Y0099396D01*
X0603321Y0098610D02*
X0606870Y0098610D01*
X0606627Y0097824D02*
X0603564Y0097824D01*
X0603564Y0097038D02*
X0606627Y0097038D01*
X0606871Y0096252D02*
X0603319Y0096252D01*
X0602827Y0095466D02*
X0607364Y0095466D01*
X0616821Y0098610D02*
X0627220Y0098610D01*
X0626812Y0099396D02*
X0616330Y0099396D01*
X0615216Y0100182D02*
X0626627Y0100182D01*
X0626627Y0100968D02*
X0577595Y0100968D01*
X0577595Y0101754D02*
X0626929Y0101754D01*
X0627504Y0102540D02*
X0577595Y0102540D01*
X0577595Y0100182D02*
X0594974Y0100182D01*
X0593860Y0099396D02*
X0577595Y0099396D01*
X0577595Y0098610D02*
X0593370Y0098610D01*
X0593127Y0097824D02*
X0577595Y0097824D01*
X0577595Y0097038D02*
X0593127Y0097038D01*
X0593371Y0096252D02*
X0577595Y0096252D01*
X0577595Y0095466D02*
X0593864Y0095466D01*
X0597216Y0100182D02*
X0599474Y0100182D01*
X0598360Y0099396D02*
X0598330Y0099396D01*
X0610716Y0100182D02*
X0612974Y0100182D01*
X0611860Y0099396D02*
X0611830Y0099396D01*
X0646180Y0081320D02*
X0760095Y0081320D01*
X0759095Y0086821D02*
X0769095Y0086821D01*
X0769095Y0087607D02*
X0759095Y0087607D01*
X0759095Y0088393D02*
X0769095Y0088393D01*
X0769095Y0089179D02*
X0759095Y0089179D01*
X0759095Y0089965D02*
X0769095Y0089965D01*
X0769095Y0090751D02*
X0759095Y0090751D01*
X0759095Y0091537D02*
X0769095Y0091537D01*
X0769095Y0092323D02*
X0759095Y0092323D01*
X0759095Y0093109D02*
X0769095Y0093109D01*
X0769095Y0093895D02*
X0759095Y0093895D01*
X0759095Y0094681D02*
X0769095Y0094681D01*
X0769095Y0095466D02*
X0759095Y0095466D01*
X0759095Y0096252D02*
X0769095Y0096252D01*
X0769095Y0097038D02*
X0759095Y0097038D01*
X0759095Y0097824D02*
X0769095Y0097824D01*
X0769095Y0098610D02*
X0759095Y0098610D01*
X0759095Y0099396D02*
X0769095Y0099396D01*
X0769095Y0100182D02*
X0759095Y0100182D01*
X0759095Y0100968D02*
X0769095Y0100968D01*
X0769095Y0101754D02*
X0759095Y0101754D01*
X0759095Y0102540D02*
X0769095Y0102540D01*
X0769095Y0103326D02*
X0759095Y0103326D01*
X0759095Y0104111D02*
X0769095Y0104111D01*
X0769095Y0104897D02*
X0759095Y0104897D01*
X0759095Y0105683D02*
X0769095Y0105683D01*
X0769095Y0106469D02*
X0759095Y0106469D01*
X0759095Y0107255D02*
X0769095Y0107255D01*
X0769095Y0108041D02*
X0759095Y0108041D01*
X0759095Y0108827D02*
X0769095Y0108827D01*
X0769095Y0114328D02*
X0763595Y0114328D01*
X0763595Y0115114D02*
X0769095Y0115114D01*
X0769095Y0115900D02*
X0763595Y0115900D01*
X0763595Y0116686D02*
X0769095Y0116686D01*
X0769095Y0117472D02*
X0763595Y0117472D01*
X0763595Y0118258D02*
X0769095Y0118258D01*
X0769095Y0119044D02*
X0763595Y0119044D01*
X0763595Y0119830D02*
X0769095Y0119830D01*
X0769095Y0120616D02*
X0763595Y0120616D01*
X0763595Y0121402D02*
X0769095Y0121402D01*
X0769095Y0122187D02*
X0767548Y0122187D01*
X0768204Y0122973D02*
X0769095Y0122973D01*
X0769095Y0123759D02*
X0768529Y0123759D01*
X0768564Y0124545D02*
X0769095Y0124545D01*
X0769095Y0125331D02*
X0768436Y0125331D01*
X0768109Y0126117D02*
X0769095Y0126117D01*
X0769095Y0126903D02*
X0767323Y0126903D01*
X0769095Y0127689D02*
X0763595Y0127689D01*
X0763595Y0128475D02*
X0769095Y0128475D01*
X0769095Y0129261D02*
X0763595Y0129261D01*
X0763595Y0130047D02*
X0769095Y0130047D01*
X0769095Y0130833D02*
X0763595Y0130833D01*
X0763595Y0131618D02*
X0769095Y0131618D01*
X0769095Y0132404D02*
X0763595Y0132404D01*
X0763595Y0133190D02*
X0769095Y0133190D01*
X0763867Y0126903D02*
X0763595Y0126903D01*
X0763595Y0122187D02*
X0763643Y0122187D01*
X0760095Y0137906D02*
X0722751Y0137906D01*
X0723552Y0138692D02*
X0760095Y0138692D01*
X0760095Y0139478D02*
X0723912Y0139478D01*
X0724064Y0140263D02*
X0760095Y0140263D01*
X0760095Y0141049D02*
X0724053Y0141049D01*
X0723727Y0141835D02*
X0760095Y0141835D01*
X0760095Y0142621D02*
X0723105Y0142621D01*
X0715553Y0144193D02*
X0760095Y0144193D01*
X0760095Y0143407D02*
X0651254Y0143407D01*
X0651277Y0143416D02*
X0652112Y0144252D01*
X0652564Y0145343D01*
X0652564Y0146524D01*
X0652112Y0147615D01*
X0651277Y0148450D01*
X0650186Y0148902D01*
X0649005Y0148902D01*
X0647914Y0148450D01*
X0647079Y0147615D01*
X0646627Y0146524D01*
X0646627Y0145343D01*
X0647079Y0144252D01*
X0647914Y0143416D01*
X0649005Y0142965D01*
X0650186Y0142965D01*
X0651277Y0143416D01*
X0652053Y0144193D02*
X0711637Y0144193D01*
X0710984Y0144979D02*
X0652413Y0144979D01*
X0652564Y0145765D02*
X0710659Y0145765D01*
X0710627Y0146551D02*
X0652552Y0146551D01*
X0652227Y0147337D02*
X0710756Y0147337D01*
X0711087Y0148123D02*
X0668483Y0148123D01*
X0669024Y0145433D02*
X0669095Y0145362D01*
X0669095Y0140433D01*
X0669024Y0145433D02*
X0662095Y0145433D01*
X0660595Y0146933D01*
X0660595Y0150933D01*
X0663627Y0150480D02*
X0605564Y0150480D01*
X0605502Y0149694D02*
X0663688Y0149694D01*
X0664014Y0148909D02*
X0605177Y0148909D01*
X0604483Y0148123D02*
X0647587Y0148123D01*
X0646963Y0147337D02*
X0587934Y0147337D01*
X0588064Y0147024D02*
X0587612Y0148115D01*
X0586777Y0148950D01*
X0585686Y0149402D01*
X0584505Y0149402D01*
X0583414Y0148950D01*
X0582579Y0148115D01*
X0582127Y0147024D01*
X0582127Y0145843D01*
X0582579Y0144752D01*
X0583414Y0143916D01*
X0584505Y0143465D01*
X0585686Y0143465D01*
X0586777Y0143916D01*
X0587612Y0144752D01*
X0588064Y0145843D01*
X0588064Y0147024D01*
X0588064Y0146551D02*
X0646638Y0146551D01*
X0646627Y0145765D02*
X0588031Y0145765D01*
X0587706Y0144979D02*
X0646777Y0144979D01*
X0647137Y0144193D02*
X0587053Y0144193D01*
X0583137Y0144193D02*
X0577595Y0144193D01*
X0577595Y0143407D02*
X0647936Y0143407D01*
X0651604Y0148123D02*
X0664708Y0148123D01*
X0663727Y0151266D02*
X0605463Y0151266D01*
X0604024Y0146433D02*
X0598595Y0146433D01*
X0596595Y0148433D01*
X0596595Y0150933D01*
X0599627Y0150480D02*
X0577595Y0150480D01*
X0577595Y0149694D02*
X0599688Y0149694D01*
X0600014Y0148909D02*
X0586818Y0148909D01*
X0587604Y0148123D02*
X0600708Y0148123D01*
X0599727Y0151266D02*
X0577595Y0151266D01*
X0577595Y0148909D02*
X0583372Y0148909D01*
X0582587Y0148123D02*
X0577595Y0148123D01*
X0577595Y0147337D02*
X0582256Y0147337D01*
X0582127Y0146551D02*
X0577595Y0146551D01*
X0577595Y0145765D02*
X0582159Y0145765D01*
X0582484Y0144979D02*
X0577595Y0144979D01*
X0557595Y0149933D02*
X0557595Y0172433D01*
X0577595Y0163055D02*
X0625275Y0163055D01*
X0625414Y0162916D02*
X0626505Y0162465D01*
X0627686Y0162465D01*
X0628777Y0162916D01*
X0629612Y0163752D01*
X0630064Y0164843D01*
X0630064Y0166024D01*
X0629612Y0167115D01*
X0628777Y0167950D01*
X0627686Y0168402D01*
X0626505Y0168402D01*
X0625414Y0167950D01*
X0624579Y0167115D01*
X0624127Y0166024D01*
X0624127Y0164843D01*
X0624579Y0163752D01*
X0625414Y0162916D01*
X0624542Y0163841D02*
X0615594Y0163841D01*
X0616487Y0164627D02*
X0624216Y0164627D01*
X0624127Y0165413D02*
X0616886Y0165413D01*
X0617064Y0166199D02*
X0624199Y0166199D01*
X0624525Y0166985D02*
X0617064Y0166985D01*
X0616754Y0167770D02*
X0625234Y0167770D01*
X0628956Y0167770D02*
X0657436Y0167770D01*
X0657127Y0166985D02*
X0629666Y0166985D01*
X0629991Y0166199D02*
X0657127Y0166199D01*
X0657305Y0165413D02*
X0630064Y0165413D01*
X0629974Y0164627D02*
X0633091Y0164627D01*
X0633414Y0164950D02*
X0632579Y0164115D01*
X0632127Y0163024D01*
X0632127Y0161843D01*
X0632579Y0160752D01*
X0633414Y0159916D01*
X0634505Y0159465D01*
X0635686Y0159465D01*
X0636777Y0159916D01*
X0637612Y0160752D01*
X0638064Y0161843D01*
X0638064Y0163024D01*
X0637612Y0164115D01*
X0636777Y0164950D01*
X0635686Y0165402D01*
X0634505Y0165402D01*
X0633414Y0164950D01*
X0632465Y0163841D02*
X0629649Y0163841D01*
X0628915Y0163055D02*
X0632140Y0163055D01*
X0632127Y0162269D02*
X0577595Y0162269D01*
X0577595Y0161483D02*
X0632276Y0161483D01*
X0632633Y0160697D02*
X0577595Y0160697D01*
X0577595Y0159911D02*
X0633426Y0159911D01*
X0636764Y0159911D02*
X0760095Y0159911D01*
X0760095Y0159125D02*
X0733352Y0159125D01*
X0734387Y0158339D02*
X0760095Y0158339D01*
X0760095Y0157554D02*
X0734844Y0157554D01*
X0735064Y0156768D02*
X0760095Y0156768D01*
X0760095Y0155982D02*
X0735064Y0155982D01*
X0733463Y0151266D02*
X0760095Y0151266D01*
X0760095Y0150480D02*
X0733564Y0150480D01*
X0733502Y0149694D02*
X0760095Y0149694D01*
X0760095Y0148909D02*
X0733177Y0148909D01*
X0732483Y0148123D02*
X0760095Y0148123D01*
X0733095Y0161504D02*
X0732024Y0160433D01*
X0727095Y0160433D01*
X0724595Y0157933D01*
X0724595Y0156433D01*
X0729127Y0156768D02*
X0671064Y0156768D01*
X0671064Y0155982D02*
X0729127Y0155982D01*
X0729346Y0157554D02*
X0670844Y0157554D01*
X0670387Y0158339D02*
X0729803Y0158339D01*
X0730838Y0159125D02*
X0669352Y0159125D01*
X0672096Y0163841D02*
X0666094Y0163841D01*
X0666987Y0164627D02*
X0671203Y0164627D01*
X0670805Y0165413D02*
X0667386Y0165413D01*
X0667564Y0166199D02*
X0670627Y0166199D01*
X0670627Y0166985D02*
X0667564Y0166985D01*
X0667254Y0167770D02*
X0670936Y0167770D01*
X0671520Y0168556D02*
X0666670Y0168556D01*
X0669095Y0166933D02*
X0669095Y0166433D01*
X0663096Y0163841D02*
X0661594Y0163841D01*
X0658596Y0163841D02*
X0637725Y0163841D01*
X0638051Y0163055D02*
X0753275Y0163055D01*
X0753414Y0162916D02*
X0754505Y0162465D01*
X0755686Y0162465D01*
X0756777Y0162916D01*
X0757612Y0163752D01*
X0758064Y0164843D01*
X0758064Y0166024D01*
X0757612Y0167115D01*
X0756777Y0167950D01*
X0755686Y0168402D01*
X0754505Y0168402D01*
X0753414Y0167950D01*
X0752579Y0167115D01*
X0752127Y0166024D01*
X0752127Y0164843D01*
X0752579Y0163752D01*
X0753414Y0162916D01*
X0752542Y0163841D02*
X0743594Y0163841D01*
X0744487Y0164627D02*
X0752216Y0164627D01*
X0752127Y0165413D02*
X0744886Y0165413D01*
X0745064Y0166199D02*
X0752199Y0166199D01*
X0752525Y0166985D02*
X0745064Y0166985D01*
X0744754Y0167770D02*
X0753234Y0167770D01*
X0756956Y0167770D02*
X0760095Y0167770D01*
X0760095Y0166985D02*
X0757666Y0166985D01*
X0757991Y0166199D02*
X0760095Y0166199D01*
X0760095Y0165413D02*
X0758064Y0165413D01*
X0757974Y0164627D02*
X0760095Y0164627D01*
X0760095Y0163841D02*
X0757649Y0163841D01*
X0756915Y0163055D02*
X0760095Y0163055D01*
X0760095Y0162269D02*
X0638064Y0162269D01*
X0637915Y0161483D02*
X0760095Y0161483D01*
X0760095Y0160697D02*
X0637557Y0160697D01*
X0637100Y0164627D02*
X0657703Y0164627D01*
X0658020Y0168556D02*
X0616170Y0168556D01*
X0612020Y0168556D02*
X0611670Y0168556D01*
X0607520Y0168556D02*
X0602670Y0168556D01*
X0603254Y0167770D02*
X0606936Y0167770D01*
X0606627Y0166985D02*
X0603564Y0166985D01*
X0603564Y0166199D02*
X0606627Y0166199D01*
X0606805Y0165413D02*
X0603386Y0165413D01*
X0602987Y0164627D02*
X0607203Y0164627D01*
X0608096Y0163841D02*
X0602094Y0163841D01*
X0599595Y0160933D02*
X0596595Y0157933D01*
X0596595Y0155933D01*
X0595595Y0156933D01*
X0579095Y0156933D01*
X0598170Y0168556D02*
X0598520Y0168556D01*
X0605095Y0166933D02*
X0605095Y0166433D01*
X0611094Y0163841D02*
X0612596Y0163841D01*
X0604024Y0146433D02*
X0605095Y0145362D01*
X0605095Y0140433D01*
X0557595Y0149933D02*
X0518095Y0110433D01*
X0507595Y0147933D02*
X0466095Y0106433D01*
X0457595Y0144933D02*
X0415095Y0102433D01*
X0407595Y0144933D02*
X0361095Y0098433D01*
X0357595Y0146133D02*
X0306495Y0095033D01*
X0407595Y0144933D02*
X0407595Y0172433D01*
X0357595Y0172433D02*
X0357595Y0146133D01*
X0457595Y0144933D02*
X0457595Y0172433D01*
X0507595Y0172433D02*
X0507595Y0147933D01*
X0577595Y0181917D02*
X0577881Y0181917D01*
X0577595Y0182703D02*
X0642525Y0182703D01*
X0641381Y0181917D02*
X0581309Y0181917D01*
X0577595Y0183489D02*
X0760095Y0183489D01*
X0760095Y0184275D02*
X0577595Y0184275D01*
X0577595Y0185061D02*
X0760095Y0185061D01*
X0760095Y0185846D02*
X0577595Y0185846D01*
X0577595Y0186632D02*
X0760095Y0186632D01*
X0760095Y0187418D02*
X0577595Y0187418D01*
X0577595Y0188204D02*
X0760095Y0188204D01*
X0760095Y0188990D02*
X0577595Y0188990D01*
X0577595Y0189776D02*
X0580253Y0189776D01*
X0579268Y0190562D02*
X0577595Y0190562D01*
X0577595Y0191348D02*
X0578832Y0191348D01*
X0578627Y0192134D02*
X0577595Y0192134D01*
X0577595Y0192920D02*
X0578627Y0192920D01*
X0581064Y0196063D02*
X0594688Y0196063D01*
X0594414Y0195950D02*
X0595505Y0196402D01*
X0596686Y0196402D01*
X0597777Y0195950D01*
X0598345Y0195381D01*
X0598914Y0195950D01*
X0600005Y0196402D01*
X0601186Y0196402D01*
X0602277Y0195950D01*
X0603112Y0195115D01*
X0603564Y0194024D01*
X0603564Y0192843D01*
X0603112Y0191752D01*
X0602277Y0190916D01*
X0601186Y0190465D01*
X0600005Y0190465D01*
X0598914Y0190916D01*
X0598345Y0191485D01*
X0597777Y0190916D01*
X0596686Y0190465D01*
X0595505Y0190465D01*
X0594414Y0190916D01*
X0593579Y0191752D01*
X0593127Y0192843D01*
X0593127Y0194024D01*
X0593579Y0195115D01*
X0594414Y0195950D01*
X0593741Y0195277D02*
X0582485Y0195277D01*
X0583735Y0194491D02*
X0593320Y0194491D01*
X0593127Y0193706D02*
X0584281Y0193706D01*
X0584564Y0192920D02*
X0593127Y0192920D01*
X0593420Y0192134D02*
X0584564Y0192134D01*
X0584359Y0191348D02*
X0593982Y0191348D01*
X0595270Y0190562D02*
X0583922Y0190562D01*
X0582937Y0189776D02*
X0760095Y0189776D01*
X0760095Y0190562D02*
X0742921Y0190562D01*
X0742686Y0190465D02*
X0743777Y0190916D01*
X0744612Y0191752D01*
X0745064Y0192843D01*
X0745064Y0194024D01*
X0744612Y0195115D01*
X0743777Y0195950D01*
X0742686Y0196402D01*
X0741505Y0196402D01*
X0740414Y0195950D01*
X0739845Y0195381D01*
X0739277Y0195950D01*
X0738186Y0196402D01*
X0737005Y0196402D01*
X0735914Y0195950D01*
X0735079Y0195115D01*
X0734627Y0194024D01*
X0734627Y0192843D01*
X0735079Y0191752D01*
X0735914Y0190916D01*
X0737005Y0190465D01*
X0738186Y0190465D01*
X0739277Y0190916D01*
X0739845Y0191485D01*
X0740414Y0190916D01*
X0741505Y0190465D01*
X0742686Y0190465D01*
X0741270Y0190562D02*
X0738421Y0190562D01*
X0739708Y0191348D02*
X0739982Y0191348D01*
X0736770Y0190562D02*
X0729421Y0190562D01*
X0729186Y0190465D02*
X0730277Y0190916D01*
X0731112Y0191752D01*
X0731564Y0192843D01*
X0731564Y0194024D01*
X0731112Y0195115D01*
X0730277Y0195950D01*
X0729186Y0196402D01*
X0728005Y0196402D01*
X0726914Y0195950D01*
X0726345Y0195381D01*
X0725777Y0195950D01*
X0724686Y0196402D01*
X0723505Y0196402D01*
X0722414Y0195950D01*
X0721579Y0195115D01*
X0721127Y0194024D01*
X0721127Y0192843D01*
X0721579Y0191752D01*
X0722414Y0190916D01*
X0723505Y0190465D01*
X0724686Y0190465D01*
X0725777Y0190916D01*
X0726345Y0191485D01*
X0726914Y0190916D01*
X0728005Y0190465D01*
X0729186Y0190465D01*
X0727770Y0190562D02*
X0724921Y0190562D01*
X0726208Y0191348D02*
X0726482Y0191348D01*
X0723270Y0190562D02*
X0700921Y0190562D01*
X0700686Y0190465D02*
X0701777Y0190916D01*
X0702612Y0191752D01*
X0703064Y0192843D01*
X0703064Y0194024D01*
X0702612Y0195115D01*
X0701777Y0195950D01*
X0700686Y0196402D01*
X0699505Y0196402D01*
X0698414Y0195950D01*
X0697579Y0195115D01*
X0697127Y0194024D01*
X0697127Y0192843D01*
X0697579Y0191752D01*
X0698414Y0190916D01*
X0699505Y0190465D01*
X0700686Y0190465D01*
X0699270Y0190562D02*
X0678921Y0190562D01*
X0678686Y0190465D02*
X0679777Y0190916D01*
X0680612Y0191752D01*
X0681064Y0192843D01*
X0681064Y0194024D01*
X0680612Y0195115D01*
X0679777Y0195950D01*
X0678686Y0196402D01*
X0677505Y0196402D01*
X0676414Y0195950D01*
X0675845Y0195381D01*
X0675277Y0195950D01*
X0674186Y0196402D01*
X0673005Y0196402D01*
X0671914Y0195950D01*
X0671079Y0195115D01*
X0670627Y0194024D01*
X0670627Y0192843D01*
X0671079Y0191752D01*
X0671914Y0190916D01*
X0673005Y0190465D01*
X0674186Y0190465D01*
X0675277Y0190916D01*
X0675845Y0191485D01*
X0676414Y0190916D01*
X0677505Y0190465D01*
X0678686Y0190465D01*
X0677270Y0190562D02*
X0674421Y0190562D01*
X0675708Y0191348D02*
X0675982Y0191348D01*
X0672770Y0190562D02*
X0665421Y0190562D01*
X0665186Y0190465D02*
X0666277Y0190916D01*
X0667112Y0191752D01*
X0667564Y0192843D01*
X0667564Y0194024D01*
X0667112Y0195115D01*
X0666277Y0195950D01*
X0665186Y0196402D01*
X0664005Y0196402D01*
X0662914Y0195950D01*
X0662345Y0195381D01*
X0661777Y0195950D01*
X0660686Y0196402D01*
X0659505Y0196402D01*
X0658414Y0195950D01*
X0657579Y0195115D01*
X0657127Y0194024D01*
X0657127Y0192843D01*
X0657579Y0191752D01*
X0658414Y0190916D01*
X0659505Y0190465D01*
X0660686Y0190465D01*
X0661777Y0190916D01*
X0662345Y0191485D01*
X0662914Y0190916D01*
X0664005Y0190465D01*
X0665186Y0190465D01*
X0663770Y0190562D02*
X0660921Y0190562D01*
X0662208Y0191348D02*
X0662482Y0191348D01*
X0659270Y0190562D02*
X0614921Y0190562D01*
X0614686Y0190465D02*
X0615777Y0190916D01*
X0616612Y0191752D01*
X0617064Y0192843D01*
X0617064Y0194024D01*
X0616612Y0195115D01*
X0615777Y0195950D01*
X0614686Y0196402D01*
X0613505Y0196402D01*
X0612414Y0195950D01*
X0611845Y0195381D01*
X0611277Y0195950D01*
X0610186Y0196402D01*
X0609005Y0196402D01*
X0607914Y0195950D01*
X0607079Y0195115D01*
X0606627Y0194024D01*
X0606627Y0192843D01*
X0607079Y0191752D01*
X0607914Y0190916D01*
X0609005Y0190465D01*
X0610186Y0190465D01*
X0611277Y0190916D01*
X0611845Y0191485D01*
X0612414Y0190916D01*
X0613505Y0190465D01*
X0614686Y0190465D01*
X0613270Y0190562D02*
X0610421Y0190562D01*
X0611708Y0191348D02*
X0611982Y0191348D01*
X0608770Y0190562D02*
X0601421Y0190562D01*
X0602708Y0191348D02*
X0607482Y0191348D01*
X0606920Y0192134D02*
X0603270Y0192134D01*
X0603564Y0192920D02*
X0606627Y0192920D01*
X0606627Y0193706D02*
X0603564Y0193706D01*
X0603370Y0194491D02*
X0606820Y0194491D01*
X0607241Y0195277D02*
X0602949Y0195277D01*
X0602002Y0196063D02*
X0608188Y0196063D01*
X0611002Y0196063D02*
X0612688Y0196063D01*
X0615502Y0196063D02*
X0626627Y0196063D01*
X0626627Y0195843D02*
X0627079Y0194752D01*
X0627914Y0193916D01*
X0629005Y0193465D01*
X0630186Y0193465D01*
X0631277Y0193916D01*
X0632112Y0194752D01*
X0632564Y0195843D01*
X0632564Y0197024D01*
X0632112Y0198115D01*
X0631277Y0198950D01*
X0630186Y0199402D01*
X0629005Y0199402D01*
X0627914Y0198950D01*
X0627079Y0198115D01*
X0626627Y0197024D01*
X0626627Y0195843D01*
X0626861Y0195277D02*
X0616449Y0195277D01*
X0616870Y0194491D02*
X0627339Y0194491D01*
X0628423Y0193706D02*
X0617064Y0193706D01*
X0617064Y0192920D02*
X0657127Y0192920D01*
X0657127Y0193706D02*
X0630767Y0193706D01*
X0631852Y0194491D02*
X0657320Y0194491D01*
X0657741Y0195277D02*
X0632330Y0195277D01*
X0632564Y0196063D02*
X0658688Y0196063D01*
X0661502Y0196063D02*
X0663188Y0196063D01*
X0666002Y0196063D02*
X0672188Y0196063D01*
X0671241Y0195277D02*
X0666949Y0195277D01*
X0667370Y0194491D02*
X0670820Y0194491D01*
X0670627Y0193706D02*
X0667564Y0193706D01*
X0667564Y0192920D02*
X0670627Y0192920D01*
X0670920Y0192134D02*
X0667270Y0192134D01*
X0666708Y0191348D02*
X0671482Y0191348D01*
X0675002Y0196063D02*
X0676688Y0196063D01*
X0679502Y0196063D02*
X0690627Y0196063D01*
X0690627Y0195843D02*
X0691079Y0194752D01*
X0691914Y0193916D01*
X0693005Y0193465D01*
X0694186Y0193465D01*
X0695277Y0193916D01*
X0696112Y0194752D01*
X0696564Y0195843D01*
X0696564Y0197024D01*
X0696112Y0198115D01*
X0695277Y0198950D01*
X0694186Y0199402D01*
X0693005Y0199402D01*
X0691914Y0198950D01*
X0691079Y0198115D01*
X0690627Y0197024D01*
X0690627Y0195843D01*
X0690861Y0195277D02*
X0680449Y0195277D01*
X0680870Y0194491D02*
X0691339Y0194491D01*
X0692423Y0193706D02*
X0681064Y0193706D01*
X0681064Y0192920D02*
X0697127Y0192920D01*
X0697127Y0193706D02*
X0694767Y0193706D01*
X0695852Y0194491D02*
X0697320Y0194491D01*
X0697741Y0195277D02*
X0696330Y0195277D01*
X0696564Y0196063D02*
X0698688Y0196063D01*
X0696564Y0196849D02*
X0754627Y0196849D01*
X0754627Y0196063D02*
X0743502Y0196063D01*
X0744449Y0195277D02*
X0754861Y0195277D01*
X0755339Y0194491D02*
X0744870Y0194491D01*
X0745064Y0193706D02*
X0756423Y0193706D01*
X0758767Y0193706D02*
X0760095Y0193706D01*
X0760095Y0194491D02*
X0759852Y0194491D01*
X0769095Y0194491D01*
X0769095Y0193706D02*
X0759095Y0193706D01*
X0759095Y0192920D02*
X0769095Y0192920D01*
X0769095Y0192134D02*
X0759095Y0192134D01*
X0759095Y0191348D02*
X0769095Y0191348D01*
X0769095Y0190562D02*
X0759095Y0190562D01*
X0759095Y0189776D02*
X0769095Y0189776D01*
X0769095Y0188990D02*
X0759095Y0188990D01*
X0759095Y0188204D02*
X0769095Y0188204D01*
X0769095Y0187418D02*
X0759095Y0187418D01*
X0759095Y0186632D02*
X0769095Y0186632D01*
X0769095Y0185846D02*
X0759095Y0185846D01*
X0759095Y0185061D02*
X0769095Y0185061D01*
X0769095Y0184275D02*
X0759095Y0184275D01*
X0759095Y0183489D02*
X0769095Y0183489D01*
X0769095Y0182703D02*
X0759095Y0182703D01*
X0759095Y0181917D02*
X0769095Y0181917D01*
X0769095Y0181131D02*
X0763595Y0181131D01*
X0763595Y0180345D02*
X0769095Y0180345D01*
X0769095Y0179559D02*
X0763595Y0179559D01*
X0763595Y0178773D02*
X0769095Y0178773D01*
X0769095Y0177987D02*
X0763595Y0177987D01*
X0760095Y0181917D02*
X0709809Y0181917D01*
X0708666Y0182703D02*
X0760095Y0182703D01*
X0760095Y0191348D02*
X0744208Y0191348D01*
X0744770Y0192134D02*
X0760095Y0192134D01*
X0760095Y0192920D02*
X0745064Y0192920D01*
X0740688Y0196063D02*
X0739002Y0196063D01*
X0736188Y0196063D02*
X0730002Y0196063D01*
X0730949Y0195277D02*
X0735241Y0195277D01*
X0734820Y0194491D02*
X0731370Y0194491D01*
X0731564Y0193706D02*
X0734627Y0193706D01*
X0734627Y0192920D02*
X0731564Y0192920D01*
X0731270Y0192134D02*
X0734920Y0192134D01*
X0735482Y0191348D02*
X0730708Y0191348D01*
X0733095Y0193433D02*
X0733095Y0187504D01*
X0732524Y0186933D01*
X0727095Y0186933D01*
X0724595Y0184433D01*
X0724595Y0182433D01*
X0724595Y0177433D02*
X0728095Y0174933D01*
X0731095Y0174933D01*
X0733095Y0172933D01*
X0733095Y0166433D01*
X0733095Y0161504D01*
X0730987Y0164627D02*
X0735203Y0164627D01*
X0734805Y0165413D02*
X0731386Y0165413D01*
X0731564Y0166199D02*
X0734627Y0166199D01*
X0734627Y0166985D02*
X0731564Y0166985D01*
X0731254Y0167770D02*
X0734936Y0167770D01*
X0735520Y0168556D02*
X0730670Y0168556D01*
X0733095Y0166933D02*
X0733095Y0166433D01*
X0730094Y0163841D02*
X0736096Y0163841D01*
X0739094Y0163841D02*
X0740596Y0163841D01*
X0740020Y0168556D02*
X0739670Y0168556D01*
X0744170Y0168556D02*
X0760095Y0168556D01*
X0727096Y0163841D02*
X0725594Y0163841D01*
X0722596Y0163841D02*
X0705094Y0163841D01*
X0705987Y0164627D02*
X0721703Y0164627D01*
X0721305Y0165413D02*
X0706386Y0165413D01*
X0706564Y0166199D02*
X0721127Y0166199D01*
X0721127Y0166985D02*
X0706564Y0166985D01*
X0706254Y0167770D02*
X0721436Y0167770D01*
X0722020Y0168556D02*
X0705670Y0168556D01*
X0701520Y0168556D02*
X0693170Y0168556D01*
X0693754Y0167770D02*
X0700936Y0167770D01*
X0700627Y0166985D02*
X0694064Y0166985D01*
X0694064Y0166199D02*
X0700627Y0166199D01*
X0700805Y0165413D02*
X0693886Y0165413D01*
X0693487Y0164627D02*
X0701203Y0164627D01*
X0702096Y0163841D02*
X0692594Y0163841D01*
X0689596Y0163841D02*
X0679594Y0163841D01*
X0680487Y0164627D02*
X0688703Y0164627D01*
X0688305Y0165413D02*
X0680886Y0165413D01*
X0681064Y0166199D02*
X0688127Y0166199D01*
X0688127Y0166985D02*
X0681064Y0166985D01*
X0680754Y0167770D02*
X0688436Y0167770D01*
X0689020Y0168556D02*
X0680170Y0168556D01*
X0676020Y0168556D02*
X0675670Y0168556D01*
X0675094Y0163841D02*
X0676596Y0163841D01*
X0662520Y0168556D02*
X0662170Y0168556D01*
X0645809Y0181917D02*
X0705381Y0181917D01*
X0706525Y0182703D02*
X0644666Y0182703D01*
X0657420Y0192134D02*
X0616770Y0192134D01*
X0616208Y0191348D02*
X0657982Y0191348D01*
X0662095Y0200433D02*
X0667524Y0200433D01*
X0669095Y0198862D01*
X0662095Y0200433D02*
X0660595Y0201933D01*
X0660595Y0204433D01*
X0680208Y0191348D02*
X0697982Y0191348D01*
X0697420Y0192134D02*
X0680770Y0192134D01*
X0690627Y0196849D02*
X0632564Y0196849D01*
X0632310Y0197635D02*
X0690880Y0197635D01*
X0691385Y0198421D02*
X0631805Y0198421D01*
X0630655Y0199207D02*
X0692535Y0199207D01*
X0694655Y0199207D02*
X0756535Y0199207D01*
X0755385Y0198421D02*
X0695805Y0198421D01*
X0696310Y0197635D02*
X0754880Y0197635D01*
X0758655Y0199207D02*
X0760095Y0199207D01*
X0760095Y0199993D02*
X0577595Y0199993D01*
X0577595Y0200779D02*
X0760095Y0200779D01*
X0759095Y0200779D02*
X0769095Y0200779D01*
X0769095Y0201565D02*
X0759095Y0201565D01*
X0759095Y0202351D02*
X0769095Y0202351D01*
X0769095Y0203137D02*
X0759095Y0203137D01*
X0759095Y0203922D02*
X0769095Y0203922D01*
X0769095Y0204708D02*
X0759095Y0204708D01*
X0760095Y0208638D02*
X0732772Y0208638D01*
X0733064Y0209424D02*
X0760095Y0209424D01*
X0760095Y0210210D02*
X0733064Y0210210D01*
X0732868Y0210996D02*
X0760095Y0210996D01*
X0760095Y0211782D02*
X0732445Y0211782D01*
X0731492Y0212567D02*
X0760095Y0212567D01*
X0760095Y0213353D02*
X0716361Y0213353D01*
X0716564Y0214139D02*
X0760095Y0214139D01*
X0760095Y0214925D02*
X0716564Y0214925D01*
X0716279Y0215711D02*
X0760095Y0215711D01*
X0760095Y0216497D02*
X0715729Y0216497D01*
X0714472Y0217283D02*
X0760095Y0217283D01*
X0760095Y0225928D02*
X0743788Y0225928D01*
X0744574Y0226714D02*
X0760095Y0226714D01*
X0768432Y0229072D02*
X0768536Y0229072D01*
X0733095Y0220433D02*
X0733095Y0215004D01*
X0732024Y0213933D01*
X0727095Y0213933D01*
X0724595Y0211433D01*
X0724595Y0209433D01*
X0727746Y0211782D02*
X0714951Y0211782D01*
X0715928Y0212567D02*
X0728698Y0212567D01*
X0724595Y0204433D02*
X0724595Y0202433D01*
X0726095Y0200933D01*
X0731024Y0200933D01*
X0733095Y0198862D01*
X0733095Y0193433D01*
X0727188Y0196063D02*
X0725502Y0196063D01*
X0722688Y0196063D02*
X0701502Y0196063D01*
X0702449Y0195277D02*
X0721741Y0195277D01*
X0721320Y0194491D02*
X0702870Y0194491D01*
X0703064Y0193706D02*
X0721127Y0193706D01*
X0721127Y0192920D02*
X0703064Y0192920D01*
X0702770Y0192134D02*
X0721420Y0192134D01*
X0721982Y0191348D02*
X0702208Y0191348D01*
X0726170Y0168556D02*
X0726520Y0168556D01*
X0760330Y0195277D02*
X0769095Y0195277D01*
X0769095Y0196063D02*
X0760564Y0196063D01*
X0760564Y0196849D02*
X0769095Y0196849D01*
X0769095Y0197635D02*
X0760310Y0197635D01*
X0760095Y0198421D02*
X0759805Y0198421D01*
X0769095Y0198421D01*
X0769095Y0199207D02*
X0759095Y0199207D01*
X0759095Y0199993D02*
X0769095Y0199993D01*
X0672095Y0237433D02*
X0668595Y0236433D01*
X0664326Y0244004D02*
X0651658Y0244004D01*
X0650936Y0244790D02*
X0663563Y0244790D01*
X0664627Y0251863D02*
X0606564Y0251863D01*
X0606564Y0252649D02*
X0664627Y0252649D01*
X0664797Y0253435D02*
X0606393Y0253435D01*
X0606005Y0254221D02*
X0665185Y0254221D01*
X0666052Y0255007D02*
X0605139Y0255007D01*
X0602052Y0255007D02*
X0577595Y0255007D01*
X0577595Y0254221D02*
X0601185Y0254221D01*
X0600797Y0253435D02*
X0577595Y0253435D01*
X0577595Y0252649D02*
X0600627Y0252649D01*
X0600627Y0251863D02*
X0577595Y0251863D01*
X0578595Y0252433D02*
X0595595Y0252433D01*
X0596095Y0251933D01*
X0599563Y0244790D02*
X0586936Y0244790D01*
X0587658Y0244004D02*
X0600326Y0244004D01*
X0579595Y0251863D02*
X0570095Y0251863D01*
X0570095Y0251077D02*
X0574595Y0251077D01*
X0574595Y0250291D02*
X0570095Y0250291D01*
X0570095Y0249505D02*
X0574595Y0249505D01*
X0574595Y0248719D02*
X0570095Y0248719D01*
X0570095Y0247934D02*
X0574595Y0247934D01*
X0574595Y0247148D02*
X0570095Y0247148D01*
X0570095Y0246362D02*
X0574595Y0246362D01*
X0574595Y0245576D02*
X0570095Y0245576D01*
X0570095Y0244790D02*
X0574595Y0244790D01*
X0574595Y0244004D02*
X0570095Y0244004D01*
X0570095Y0243218D02*
X0574595Y0243218D01*
X0574595Y0242432D02*
X0570095Y0242432D01*
X0570095Y0241646D02*
X0574595Y0241646D01*
X0574595Y0240860D02*
X0570095Y0240860D01*
X0570095Y0240074D02*
X0574595Y0240074D01*
X0574595Y0239288D02*
X0570095Y0239288D01*
X0570095Y0238503D02*
X0574595Y0238503D01*
X0574595Y0237717D02*
X0570095Y0237717D01*
X0570095Y0236931D02*
X0574595Y0236931D01*
X0574595Y0236145D02*
X0570095Y0236145D01*
X0570095Y0235359D02*
X0574595Y0235359D01*
X0574595Y0234573D02*
X0570095Y0234573D01*
X0570095Y0233787D02*
X0574595Y0233787D01*
X0574595Y0233001D02*
X0570095Y0233001D01*
X0570095Y0232215D02*
X0574595Y0232215D01*
X0574595Y0231429D02*
X0570095Y0231429D01*
X0570095Y0230643D02*
X0574595Y0230643D01*
X0574595Y0229858D02*
X0570095Y0229858D01*
X0570095Y0229072D02*
X0574595Y0229072D01*
X0574595Y0228286D02*
X0570095Y0228286D01*
X0570095Y0227500D02*
X0574595Y0227500D01*
X0570095Y0226714D02*
X0579601Y0226714D01*
X0579622Y0225928D02*
X0570095Y0225928D01*
X0570095Y0252649D02*
X0579595Y0252649D01*
X0579595Y0253435D02*
X0570095Y0253435D01*
X0570095Y0254221D02*
X0579595Y0254221D01*
X0579595Y0255007D02*
X0570095Y0255007D01*
X0570095Y0255793D02*
X0579595Y0255793D01*
X0579595Y0256579D02*
X0570095Y0256579D01*
X0570095Y0257364D02*
X0579595Y0257364D01*
X0579595Y0258150D02*
X0570095Y0258150D01*
X0570095Y0258936D02*
X0579595Y0258936D01*
X0579595Y0259722D02*
X0570095Y0259722D01*
X0570095Y0260508D02*
X0579595Y0260508D01*
X0579595Y0261294D02*
X0570095Y0261294D01*
X0570095Y0262080D02*
X0579595Y0262080D01*
X0579595Y0262866D02*
X0570095Y0262866D01*
X0570095Y0263652D02*
X0579595Y0263652D01*
X0579595Y0264438D02*
X0570095Y0264438D01*
X0570095Y0265224D02*
X0579595Y0265224D01*
X0579595Y0266010D02*
X0570095Y0266010D01*
X0570095Y0266795D02*
X0579595Y0266795D01*
X0579595Y0267581D02*
X0570095Y0267581D01*
X0570095Y0268367D02*
X0579595Y0268367D01*
X0579595Y0269153D02*
X0570095Y0269153D01*
X0570095Y0269939D02*
X0579595Y0269939D01*
X0579595Y0270725D02*
X0570095Y0270725D01*
X0570095Y0271511D02*
X0579595Y0271511D01*
X0577595Y0264438D02*
X0593402Y0264438D01*
X0592887Y0263652D02*
X0577595Y0263652D01*
X0577595Y0262866D02*
X0592627Y0262866D01*
X0592627Y0262080D02*
X0577595Y0262080D01*
X0577595Y0261294D02*
X0592854Y0261294D01*
X0593322Y0260508D02*
X0577595Y0260508D01*
X0577595Y0259722D02*
X0594383Y0259722D01*
X0596808Y0259722D02*
X0598883Y0259722D01*
X0601308Y0259722D02*
X0607883Y0259722D01*
X0606822Y0260508D02*
X0602368Y0260508D01*
X0602836Y0261294D02*
X0606354Y0261294D01*
X0606127Y0262080D02*
X0603064Y0262080D01*
X0603064Y0262866D02*
X0606127Y0262866D01*
X0606387Y0263652D02*
X0602803Y0263652D01*
X0602289Y0264438D02*
X0606902Y0264438D01*
X0616564Y0262866D02*
X0623976Y0262866D01*
X0623650Y0262080D02*
X0616564Y0262080D01*
X0616336Y0261294D02*
X0623627Y0261294D01*
X0623765Y0260508D02*
X0615868Y0260508D01*
X0614808Y0259722D02*
X0624108Y0259722D01*
X0624894Y0258936D02*
X0577595Y0258936D01*
X0610308Y0259722D02*
X0612383Y0259722D01*
X0660095Y0254933D02*
X0660095Y0251933D01*
X0660095Y0254933D02*
X0663095Y0257933D01*
X0611601Y0287229D02*
X0611089Y0287229D01*
X0557595Y0272433D02*
X0533595Y0296433D01*
X0192095Y0296433D01*
X0179095Y0283433D01*
X0179095Y0194733D01*
X0145095Y0160733D01*
X0145095Y0171533D02*
X0145695Y0171533D01*
X0166595Y0192433D01*
X0166595Y0194933D01*
X0163095Y0200433D02*
X0163095Y0200933D01*
X0163095Y0200433D02*
X0145095Y0182433D01*
X0145095Y0193333D02*
X0145195Y0193433D01*
X0149595Y0193433D01*
X0159595Y0203433D01*
X0159595Y0208933D01*
X0156095Y0215133D02*
X0145095Y0204133D01*
X0145095Y0215033D02*
X0152595Y0222533D01*
X0152595Y0225933D01*
X0156095Y0217933D02*
X0156095Y0215133D01*
X0172595Y0216433D02*
X0172595Y0260933D01*
X0164095Y0269433D01*
X0145095Y0269433D01*
X0145095Y0280233D02*
X0169295Y0280233D01*
X0175595Y0273933D01*
X0175595Y0209933D01*
X0185095Y0191433D02*
X0185095Y0168133D01*
X0145095Y0128133D01*
X0145095Y0138933D02*
X0183095Y0176933D01*
X0183095Y0281433D01*
X0194095Y0292433D01*
X0437595Y0292433D01*
X0457595Y0272433D01*
X0485595Y0294433D02*
X0193095Y0294433D01*
X0181095Y0282433D01*
X0181095Y0185833D01*
X0145095Y0149833D01*
X0145395Y0117233D02*
X0187095Y0158933D01*
X0187095Y0279933D01*
X0195595Y0288433D01*
X0341595Y0288433D01*
X0357595Y0272433D01*
X0389595Y0290433D02*
X0195095Y0290433D01*
X0185595Y0280933D01*
X0185095Y0280433D01*
X0185095Y0191433D01*
X0169595Y0226933D02*
X0169595Y0252933D01*
X0166345Y0256183D01*
X0169095Y0253433D01*
X0166345Y0256183D02*
X0164095Y0258433D01*
X0145195Y0258433D01*
X0145095Y0258533D01*
X0193095Y0257933D02*
X0193095Y0132633D01*
X0145095Y0084633D01*
X0145095Y0095533D02*
X0191095Y0141533D01*
X0191095Y0277933D01*
X0197595Y0284433D01*
X0245595Y0284433D01*
X0257595Y0272433D01*
X0292095Y0286433D02*
X0293595Y0286433D01*
X0307595Y0272433D01*
X0292095Y0286433D02*
X0196595Y0286433D01*
X0189095Y0278933D01*
X0189095Y0150333D01*
X0145095Y0106333D01*
X0145095Y0117233D02*
X0145395Y0117233D01*
X0193095Y0257933D02*
X0207595Y0272433D01*
X0185595Y0280933D02*
X0185095Y0280433D01*
X0185595Y0280933D01*
X0389595Y0290433D02*
X0407595Y0272433D01*
X0485595Y0294433D02*
X0507595Y0272433D01*
X0662132Y0317094D02*
X0716736Y0317094D01*
X0726595Y0309433D02*
X0724095Y0306933D01*
X0724095Y0305433D01*
X0738536Y0300590D02*
X0760095Y0300590D01*
X0760095Y0299804D02*
X0738564Y0299804D01*
X0738429Y0299018D02*
X0760095Y0299018D01*
X0760095Y0298232D02*
X0738092Y0298232D01*
X0737306Y0297446D02*
X0760095Y0297446D01*
X0739601Y0287229D02*
X0739089Y0287229D01*
X0628535Y0199207D02*
X0579155Y0199207D01*
X0580305Y0198421D02*
X0627385Y0198421D01*
X0626880Y0197635D02*
X0580810Y0197635D01*
X0581064Y0196849D02*
X0626627Y0196849D01*
X0620095Y0187433D02*
X0620095Y0186433D01*
X0599770Y0190562D02*
X0596921Y0190562D01*
X0598208Y0191348D02*
X0598482Y0191348D01*
X0599188Y0196063D02*
X0597502Y0196063D01*
X0542595Y0081433D02*
X0517595Y0081433D01*
X0542595Y0081433D02*
X0546095Y0077933D01*
X0546095Y0066433D01*
X0563095Y0049433D01*
X0563595Y0049433D01*
X0577595Y0054599D02*
X0579180Y0054599D01*
X0577945Y0055385D02*
X0577595Y0055385D01*
X0580095Y0061672D02*
X0570095Y0061672D01*
X0570095Y0062458D02*
X0580095Y0062458D01*
X0580095Y0063244D02*
X0570095Y0063244D01*
X0570095Y0064030D02*
X0580095Y0064030D01*
X0580095Y0064816D02*
X0570095Y0064816D01*
X0570095Y0065602D02*
X0580095Y0065602D01*
X0596595Y0054933D02*
X0596595Y0051933D01*
X0598595Y0049933D01*
X0604524Y0049933D01*
X0605095Y0049362D01*
X0605095Y0044433D01*
X0604601Y0052241D02*
X0647205Y0052241D01*
X0648101Y0053027D02*
X0605226Y0053027D01*
X0605551Y0053813D02*
X0663639Y0053813D01*
X0663627Y0054599D02*
X0605564Y0054599D01*
X0605414Y0055385D02*
X0663776Y0055385D01*
X0663964Y0053027D02*
X0651090Y0053027D01*
X0651985Y0052241D02*
X0664589Y0052241D01*
X0663095Y0050433D02*
X0668024Y0050433D01*
X0663095Y0050433D02*
X0660595Y0052933D01*
X0660595Y0054933D01*
X0652385Y0051455D02*
X0760095Y0051455D01*
X0759595Y0051455D02*
X0769095Y0051455D01*
X0769095Y0050669D02*
X0759595Y0050669D01*
X0760095Y0050669D02*
X0652564Y0050669D01*
X0652564Y0049883D02*
X0760095Y0049883D01*
X0759595Y0049883D02*
X0769095Y0049883D01*
X0769095Y0049098D02*
X0759595Y0049098D01*
X0760095Y0049098D02*
X0652255Y0049098D01*
X0660330Y0042024D02*
X0697834Y0042024D01*
X0698274Y0042810D02*
X0679020Y0042810D01*
X0679956Y0043596D02*
X0699267Y0043596D01*
X0701923Y0043596D02*
X0760095Y0043596D01*
X0759595Y0043596D02*
X0769095Y0043596D01*
X0769095Y0042810D02*
X0759595Y0042810D01*
X0760095Y0042810D02*
X0702916Y0042810D01*
X0703356Y0042024D02*
X0760095Y0042024D01*
X0759595Y0042024D02*
X0769095Y0042024D01*
X0769095Y0041238D02*
X0759595Y0041238D01*
X0760095Y0041238D02*
X0703564Y0041238D01*
X0703564Y0040453D02*
X0760095Y0040453D01*
X0760095Y0039667D02*
X0703284Y0039667D01*
X0702741Y0038881D02*
X0760095Y0038881D01*
X0760095Y0044382D02*
X0680373Y0044382D01*
X0680564Y0045168D02*
X0760095Y0045168D01*
X0759595Y0045168D02*
X0769095Y0045168D01*
X0769095Y0044382D02*
X0759595Y0044382D01*
X0759595Y0045954D02*
X0769095Y0045954D01*
X0769095Y0046740D02*
X0759595Y0046740D01*
X0760095Y0046740D02*
X0680267Y0046740D01*
X0680564Y0045954D02*
X0760095Y0045954D01*
X0760095Y0047526D02*
X0679701Y0047526D01*
X0678403Y0048312D02*
X0760095Y0048312D01*
X0759595Y0048312D02*
X0769095Y0048312D01*
X0769095Y0047526D02*
X0759595Y0047526D01*
X0760095Y0060100D02*
X0671064Y0060100D01*
X0671064Y0060886D02*
X0760095Y0060886D01*
X0760095Y0061672D02*
X0670795Y0061672D01*
X0670268Y0062458D02*
X0760095Y0062458D01*
X0760095Y0063244D02*
X0669066Y0063244D01*
X0680705Y0071889D02*
X0760095Y0071889D01*
X0760095Y0072675D02*
X0680051Y0072675D01*
X0676139Y0072675D02*
X0675551Y0072675D01*
X0662639Y0072675D02*
X0662051Y0072675D01*
X0662564Y0044382D02*
X0674817Y0044382D01*
X0675234Y0043596D02*
X0662254Y0043596D01*
X0661670Y0042810D02*
X0676170Y0042810D01*
M02*
