G75*
%MOIN*%
%OFA0B0*%
%FSLAX25Y25*%
%IPPOS*%
%LPD*%
%AMOC8*
5,1,8,0,0,1.08239X$1,22.5*
%
%ADD10C,0.00700*%
%ADD11C,0.00900*%
%ADD12C,0.00400*%
%ADD13C,0.00600*%
%ADD14R,0.02000X0.02000*%
%ADD15C,0.00800*%
%ADD16C,0.01575*%
%ADD17R,0.01181X0.03839*%
%ADD18C,0.00500*%
%ADD19R,0.02362X0.01181*%
%ADD20C,0.00300*%
%ADD21R,0.05709X0.02953*%
%ADD22R,0.05512X0.02559*%
%ADD23R,0.01181X0.02362*%
%ADD24C,0.00100*%
D10*
X0110976Y0052917D02*
X0111793Y0052100D01*
X0113428Y0052100D01*
X0114245Y0052917D01*
X0110976Y0056187D01*
X0110976Y0052917D01*
X0114245Y0052917D02*
X0114245Y0056187D01*
X0113428Y0057004D01*
X0111793Y0057004D01*
X0110976Y0056187D01*
X0116132Y0056187D02*
X0116132Y0055369D01*
X0119402Y0052100D01*
X0116132Y0052100D01*
X0116132Y0056187D02*
X0116949Y0057004D01*
X0118584Y0057004D01*
X0119402Y0056187D01*
X0119402Y0063600D02*
X0116132Y0066869D01*
X0116132Y0067687D01*
X0116949Y0068504D01*
X0118584Y0068504D01*
X0119402Y0067687D01*
X0119402Y0063600D02*
X0116132Y0063600D01*
X0114245Y0063600D02*
X0110976Y0063600D01*
X0112610Y0063600D02*
X0112610Y0068504D01*
X0114245Y0066869D01*
X0114245Y0074100D02*
X0110976Y0074100D01*
X0114245Y0074100D02*
X0110976Y0077369D01*
X0110976Y0078187D01*
X0111793Y0079004D01*
X0113428Y0079004D01*
X0114245Y0078187D01*
X0116132Y0078187D02*
X0116949Y0079004D01*
X0118584Y0079004D01*
X0119402Y0078187D01*
X0116132Y0078187D02*
X0116132Y0077369D01*
X0119402Y0074100D01*
X0116132Y0074100D01*
X0116132Y0084600D02*
X0119402Y0084600D01*
X0116132Y0087869D01*
X0116132Y0088687D01*
X0116949Y0089504D01*
X0118584Y0089504D01*
X0119402Y0088687D01*
X0114245Y0088687D02*
X0113428Y0089504D01*
X0111793Y0089504D01*
X0110976Y0088687D01*
X0110976Y0087869D01*
X0111793Y0087052D01*
X0110976Y0086235D01*
X0110976Y0085417D01*
X0111793Y0084600D01*
X0113428Y0084600D01*
X0114245Y0085417D01*
X0112610Y0087052D02*
X0111793Y0087052D01*
X0111793Y0095600D02*
X0111793Y0100504D01*
X0114245Y0098052D01*
X0110976Y0098052D01*
X0116132Y0098869D02*
X0119402Y0095600D01*
X0116132Y0095600D01*
X0116132Y0098869D02*
X0116132Y0099687D01*
X0116949Y0100504D01*
X0118584Y0100504D01*
X0119402Y0099687D01*
X0119402Y0106600D02*
X0116132Y0109869D01*
X0116132Y0110687D01*
X0116949Y0111504D01*
X0118584Y0111504D01*
X0119402Y0110687D01*
X0119402Y0106600D02*
X0116132Y0106600D01*
X0114245Y0107417D02*
X0113428Y0106600D01*
X0111793Y0106600D01*
X0110976Y0107417D01*
X0110976Y0109052D01*
X0111793Y0109869D01*
X0112610Y0109869D01*
X0114245Y0109052D01*
X0114245Y0111504D01*
X0110976Y0111504D01*
X0111793Y0117600D02*
X0110976Y0118417D01*
X0110976Y0119235D01*
X0111793Y0120052D01*
X0114245Y0120052D01*
X0114245Y0118417D01*
X0113428Y0117600D01*
X0111793Y0117600D01*
X0114245Y0120052D02*
X0112610Y0121687D01*
X0110976Y0122504D01*
X0116132Y0121687D02*
X0116132Y0120869D01*
X0119402Y0117600D01*
X0116132Y0117600D01*
X0116132Y0121687D02*
X0116949Y0122504D01*
X0118584Y0122504D01*
X0119402Y0121687D01*
X0119402Y0128100D02*
X0116132Y0131369D01*
X0116132Y0132187D01*
X0116949Y0133004D01*
X0118584Y0133004D01*
X0119402Y0132187D01*
X0114245Y0133004D02*
X0110976Y0133004D01*
X0110976Y0132187D01*
X0114245Y0128917D01*
X0114245Y0128100D01*
X0116132Y0128100D02*
X0119402Y0128100D01*
X0106049Y0129790D02*
X0106049Y0133060D01*
X0106049Y0131425D02*
X0101145Y0131425D01*
X0101962Y0134947D02*
X0101145Y0135764D01*
X0101145Y0137399D01*
X0101962Y0138216D01*
X0105232Y0138216D01*
X0106049Y0137399D01*
X0106049Y0135764D01*
X0105232Y0134947D01*
X0101962Y0134947D01*
X0110976Y0140417D02*
X0111793Y0139600D01*
X0113428Y0139600D01*
X0114245Y0140417D01*
X0114245Y0141235D01*
X0113428Y0142052D01*
X0111793Y0142052D01*
X0110976Y0141235D01*
X0110976Y0140417D01*
X0111793Y0142052D02*
X0110976Y0142869D01*
X0110976Y0143687D01*
X0111793Y0144504D01*
X0113428Y0144504D01*
X0114245Y0143687D01*
X0114245Y0142869D01*
X0113428Y0142052D01*
X0116132Y0142869D02*
X0116132Y0143687D01*
X0116949Y0144504D01*
X0118584Y0144504D01*
X0119402Y0143687D01*
X0116132Y0142869D02*
X0119402Y0139600D01*
X0116132Y0139600D01*
X0106049Y0145259D02*
X0101145Y0145259D01*
X0101145Y0148529D01*
X0101145Y0150416D02*
X0101145Y0152050D01*
X0101145Y0151233D02*
X0106049Y0151233D01*
X0106049Y0150416D02*
X0106049Y0152050D01*
X0106049Y0153853D02*
X0106049Y0157123D01*
X0106049Y0155488D02*
X0101145Y0155488D01*
X0111476Y0154187D02*
X0111476Y0150917D01*
X0112293Y0150100D01*
X0113928Y0150100D01*
X0114745Y0150917D01*
X0113928Y0152552D02*
X0114745Y0153369D01*
X0114745Y0154187D01*
X0113928Y0155004D01*
X0112293Y0155004D01*
X0111476Y0154187D01*
X0111476Y0152552D02*
X0113928Y0152552D01*
X0116632Y0153369D02*
X0116632Y0154187D01*
X0117449Y0155004D01*
X0119084Y0155004D01*
X0119902Y0154187D01*
X0116632Y0153369D02*
X0119902Y0150100D01*
X0116632Y0150100D01*
X0106049Y0148529D02*
X0106049Y0145259D01*
X0103597Y0145259D02*
X0103597Y0146894D01*
X0112293Y0161100D02*
X0113928Y0161100D01*
X0114745Y0161917D01*
X0111476Y0165187D01*
X0111476Y0161917D01*
X0112293Y0161100D01*
X0114745Y0161917D02*
X0114745Y0165187D01*
X0113928Y0166004D01*
X0112293Y0166004D01*
X0111476Y0165187D01*
X0116632Y0165187D02*
X0116632Y0164369D01*
X0117449Y0163552D01*
X0116632Y0162735D01*
X0116632Y0161917D01*
X0117449Y0161100D01*
X0119084Y0161100D01*
X0119902Y0161917D01*
X0118267Y0163552D02*
X0117449Y0163552D01*
X0116632Y0165187D02*
X0117449Y0166004D01*
X0119084Y0166004D01*
X0119902Y0165187D01*
X0119084Y0172600D02*
X0119902Y0173417D01*
X0119084Y0172600D02*
X0117449Y0172600D01*
X0116632Y0173417D01*
X0116632Y0174235D01*
X0117449Y0175052D01*
X0118267Y0175052D01*
X0117449Y0175052D02*
X0116632Y0175869D01*
X0116632Y0176687D01*
X0117449Y0177504D01*
X0119084Y0177504D01*
X0119902Y0176687D01*
X0114745Y0175869D02*
X0113110Y0177504D01*
X0113110Y0172600D01*
X0111476Y0172600D02*
X0114745Y0172600D01*
X0141476Y0170687D02*
X0141476Y0169869D01*
X0144745Y0166600D01*
X0141476Y0166600D01*
X0146632Y0166600D02*
X0149902Y0166600D01*
X0148267Y0166600D02*
X0148267Y0171504D01*
X0149902Y0169869D01*
X0144745Y0170687D02*
X0143928Y0171504D01*
X0142293Y0171504D01*
X0141476Y0170687D01*
X0142293Y0176100D02*
X0143928Y0176100D01*
X0144745Y0176917D01*
X0146632Y0176100D02*
X0149902Y0176100D01*
X0148267Y0176100D02*
X0148267Y0181004D01*
X0149902Y0179369D01*
X0144745Y0180187D02*
X0143928Y0181004D01*
X0142293Y0181004D01*
X0141476Y0180187D01*
X0141476Y0179369D01*
X0142293Y0178552D01*
X0141476Y0177735D01*
X0141476Y0176917D01*
X0142293Y0176100D01*
X0142293Y0178552D02*
X0143110Y0178552D01*
X0147293Y0188100D02*
X0147293Y0193004D01*
X0149745Y0190552D01*
X0146476Y0190552D01*
X0151632Y0188100D02*
X0154902Y0188100D01*
X0153267Y0188100D02*
X0153267Y0193004D01*
X0154902Y0191369D01*
X0149902Y0199100D02*
X0146632Y0199100D01*
X0148267Y0199100D02*
X0148267Y0204004D01*
X0149902Y0202369D01*
X0144745Y0201552D02*
X0143110Y0202369D01*
X0142293Y0202369D01*
X0141476Y0201552D01*
X0141476Y0199917D01*
X0142293Y0199100D01*
X0143928Y0199100D01*
X0144745Y0199917D01*
X0144745Y0201552D02*
X0144745Y0204004D01*
X0141476Y0204004D01*
X0142293Y0210100D02*
X0141476Y0210917D01*
X0141476Y0211735D01*
X0142293Y0212552D01*
X0144745Y0212552D01*
X0144745Y0210917D01*
X0143928Y0210100D01*
X0142293Y0210100D01*
X0144745Y0212552D02*
X0143110Y0214187D01*
X0141476Y0215004D01*
X0148267Y0215004D02*
X0148267Y0210100D01*
X0149902Y0210100D02*
X0146632Y0210100D01*
X0149902Y0213369D02*
X0148267Y0215004D01*
X0148267Y0220600D02*
X0148267Y0225504D01*
X0149902Y0223869D01*
X0149902Y0220600D02*
X0146632Y0220600D01*
X0144745Y0220600D02*
X0144745Y0221417D01*
X0141476Y0224687D01*
X0141476Y0225504D01*
X0144745Y0225504D01*
X0143928Y0231600D02*
X0144745Y0232417D01*
X0144745Y0233235D01*
X0143928Y0234052D01*
X0142293Y0234052D01*
X0141476Y0233235D01*
X0141476Y0232417D01*
X0142293Y0231600D01*
X0143928Y0231600D01*
X0143928Y0234052D02*
X0144745Y0234869D01*
X0144745Y0235687D01*
X0143928Y0236504D01*
X0142293Y0236504D01*
X0141476Y0235687D01*
X0141476Y0234869D01*
X0142293Y0234052D01*
X0146632Y0231600D02*
X0149902Y0231600D01*
X0148267Y0231600D02*
X0148267Y0236504D01*
X0149902Y0234869D01*
X0149902Y0243100D02*
X0146632Y0243100D01*
X0148267Y0243100D02*
X0148267Y0248004D01*
X0149902Y0246369D01*
X0144745Y0246369D02*
X0144745Y0247187D01*
X0143928Y0248004D01*
X0142293Y0248004D01*
X0141476Y0247187D01*
X0141476Y0243917D01*
X0142293Y0243100D01*
X0143928Y0243100D01*
X0144745Y0243917D01*
X0143928Y0245552D02*
X0141476Y0245552D01*
X0143928Y0245552D02*
X0144745Y0246369D01*
X0119902Y0240687D02*
X0119084Y0241504D01*
X0117449Y0241504D01*
X0116632Y0240687D01*
X0116632Y0239869D01*
X0117449Y0239052D01*
X0116632Y0238235D01*
X0116632Y0237417D01*
X0117449Y0236600D01*
X0119084Y0236600D01*
X0119902Y0237417D01*
X0118267Y0239052D02*
X0117449Y0239052D01*
X0114745Y0237417D02*
X0114745Y0236600D01*
X0114745Y0237417D02*
X0111476Y0240687D01*
X0111476Y0241504D01*
X0114745Y0241504D01*
X0117449Y0232004D02*
X0116632Y0231187D01*
X0116632Y0230369D01*
X0117449Y0229552D01*
X0116632Y0228735D01*
X0116632Y0227917D01*
X0117449Y0227100D01*
X0119084Y0227100D01*
X0119902Y0227917D01*
X0118267Y0229552D02*
X0117449Y0229552D01*
X0117449Y0232004D02*
X0119084Y0232004D01*
X0119902Y0231187D01*
X0114745Y0229552D02*
X0112293Y0229552D01*
X0111476Y0228735D01*
X0111476Y0227917D01*
X0112293Y0227100D01*
X0113928Y0227100D01*
X0114745Y0227917D01*
X0114745Y0229552D01*
X0113110Y0231187D01*
X0111476Y0232004D01*
X0111476Y0220004D02*
X0114745Y0220004D01*
X0114745Y0217552D01*
X0113110Y0218369D01*
X0112293Y0218369D01*
X0111476Y0217552D01*
X0111476Y0215917D01*
X0112293Y0215100D01*
X0113928Y0215100D01*
X0114745Y0215917D01*
X0116632Y0215917D02*
X0117449Y0215100D01*
X0119084Y0215100D01*
X0119902Y0215917D01*
X0118267Y0217552D02*
X0117449Y0217552D01*
X0116632Y0216735D01*
X0116632Y0215917D01*
X0117449Y0217552D02*
X0116632Y0218369D01*
X0116632Y0219187D01*
X0117449Y0220004D01*
X0119084Y0220004D01*
X0119902Y0219187D01*
X0119084Y0209004D02*
X0117449Y0209004D01*
X0116632Y0208187D01*
X0116632Y0207369D01*
X0117449Y0206552D01*
X0116632Y0205735D01*
X0116632Y0204917D01*
X0117449Y0204100D01*
X0119084Y0204100D01*
X0119902Y0204917D01*
X0118267Y0206552D02*
X0117449Y0206552D01*
X0114745Y0206552D02*
X0111476Y0206552D01*
X0112293Y0204100D02*
X0112293Y0209004D01*
X0114745Y0206552D01*
X0119084Y0209004D02*
X0119902Y0208187D01*
X0119084Y0198504D02*
X0117449Y0198504D01*
X0116632Y0197687D01*
X0116632Y0196869D01*
X0117449Y0196052D01*
X0116632Y0195235D01*
X0116632Y0194417D01*
X0117449Y0193600D01*
X0119084Y0193600D01*
X0119902Y0194417D01*
X0118267Y0196052D02*
X0117449Y0196052D01*
X0119902Y0197687D02*
X0119084Y0198504D01*
X0114745Y0197687D02*
X0113928Y0198504D01*
X0112293Y0198504D01*
X0111476Y0197687D01*
X0111476Y0196869D01*
X0112293Y0196052D01*
X0111476Y0195235D01*
X0111476Y0194417D01*
X0112293Y0193600D01*
X0113928Y0193600D01*
X0114745Y0194417D01*
X0113110Y0196052D02*
X0112293Y0196052D01*
X0143110Y0161004D02*
X0143110Y0156100D01*
X0141476Y0156100D02*
X0144745Y0156100D01*
X0146632Y0156100D02*
X0149902Y0156100D01*
X0148267Y0156100D02*
X0148267Y0161004D01*
X0149902Y0159369D01*
X0144745Y0159369D02*
X0143110Y0161004D01*
X0142293Y0150004D02*
X0141476Y0149187D01*
X0144745Y0145917D01*
X0143928Y0145100D01*
X0142293Y0145100D01*
X0141476Y0145917D01*
X0141476Y0149187D01*
X0142293Y0150004D02*
X0143928Y0150004D01*
X0144745Y0149187D01*
X0144745Y0145917D01*
X0146632Y0145100D02*
X0149902Y0145100D01*
X0148267Y0145100D02*
X0148267Y0150004D01*
X0149902Y0148369D01*
X0145232Y0138091D02*
X0146049Y0137274D01*
X0146049Y0135639D01*
X0145232Y0134822D01*
X0144415Y0134822D01*
X0143597Y0135639D01*
X0143597Y0138091D01*
X0141963Y0138091D02*
X0145232Y0138091D01*
X0141963Y0138091D02*
X0141145Y0137274D01*
X0141145Y0135639D01*
X0141963Y0134822D01*
X0141963Y0127091D02*
X0141145Y0126274D01*
X0141145Y0124639D01*
X0141963Y0123822D01*
X0142780Y0123822D01*
X0143597Y0124639D01*
X0143597Y0126274D01*
X0142780Y0127091D01*
X0141963Y0127091D01*
X0143597Y0126274D02*
X0144415Y0127091D01*
X0145232Y0127091D01*
X0146049Y0126274D01*
X0146049Y0124639D01*
X0145232Y0123822D01*
X0144415Y0123822D01*
X0143597Y0124639D01*
X0145732Y0116091D02*
X0142463Y0112822D01*
X0141645Y0112822D01*
X0146549Y0112822D02*
X0146549Y0116091D01*
X0145732Y0116091D01*
X0146049Y0105591D02*
X0145232Y0103957D01*
X0143597Y0102322D01*
X0143597Y0104774D01*
X0142780Y0105591D01*
X0141963Y0105591D01*
X0141145Y0104774D01*
X0141145Y0103139D01*
X0141963Y0102322D01*
X0143597Y0102322D01*
X0143597Y0094591D02*
X0141963Y0094591D01*
X0141145Y0093774D01*
X0141145Y0092139D01*
X0141963Y0091322D01*
X0143597Y0091322D02*
X0144415Y0092957D01*
X0144415Y0093774D01*
X0143597Y0094591D01*
X0146049Y0094591D02*
X0146049Y0091322D01*
X0143597Y0091322D01*
X0143597Y0084091D02*
X0143597Y0080822D01*
X0146049Y0083274D01*
X0141145Y0083274D01*
X0141963Y0073091D02*
X0141145Y0072274D01*
X0141145Y0070639D01*
X0141963Y0069822D01*
X0143597Y0071457D02*
X0143597Y0072274D01*
X0142780Y0073091D01*
X0141963Y0073091D01*
X0143597Y0072274D02*
X0144415Y0073091D01*
X0145232Y0073091D01*
X0146049Y0072274D01*
X0146049Y0070639D01*
X0145232Y0069822D01*
X0145232Y0062091D02*
X0146049Y0061274D01*
X0146049Y0059639D01*
X0145232Y0058822D01*
X0145232Y0062091D02*
X0144415Y0062091D01*
X0141145Y0058822D01*
X0141145Y0062091D01*
X0141145Y0051091D02*
X0141145Y0047822D01*
X0141145Y0049457D02*
X0146049Y0049457D01*
X0144415Y0047822D01*
X0778645Y0047457D02*
X0783549Y0047457D01*
X0781915Y0045822D01*
X0778645Y0045822D02*
X0778645Y0049091D01*
X0778645Y0056822D02*
X0781915Y0060091D01*
X0782732Y0060091D01*
X0783549Y0059274D01*
X0783549Y0057639D01*
X0782732Y0056822D01*
X0778645Y0056822D02*
X0778645Y0060091D01*
X0779462Y0067822D02*
X0778645Y0068639D01*
X0778645Y0070274D01*
X0779462Y0071091D01*
X0780280Y0071091D01*
X0781097Y0070274D01*
X0781097Y0069457D01*
X0781097Y0070274D02*
X0781915Y0071091D01*
X0782732Y0071091D01*
X0783549Y0070274D01*
X0783549Y0068639D01*
X0782732Y0067822D01*
X0804476Y0063100D02*
X0807745Y0063100D01*
X0806110Y0063100D02*
X0806110Y0068004D01*
X0807745Y0066369D01*
X0809632Y0066369D02*
X0812902Y0063100D01*
X0809632Y0063100D01*
X0809632Y0066369D02*
X0809632Y0067187D01*
X0810449Y0068004D01*
X0812084Y0068004D01*
X0812902Y0067187D01*
X0812902Y0073600D02*
X0809632Y0076869D01*
X0809632Y0077687D01*
X0810449Y0078504D01*
X0812084Y0078504D01*
X0812902Y0077687D01*
X0812902Y0073600D02*
X0809632Y0073600D01*
X0807745Y0073600D02*
X0804476Y0076869D01*
X0804476Y0077687D01*
X0805293Y0078504D01*
X0806928Y0078504D01*
X0807745Y0077687D01*
X0807745Y0073600D02*
X0804476Y0073600D01*
X0783549Y0081274D02*
X0781097Y0078822D01*
X0781097Y0082091D01*
X0778645Y0081274D02*
X0783549Y0081274D01*
X0783549Y0089322D02*
X0781097Y0089322D01*
X0781915Y0090957D01*
X0781915Y0091774D01*
X0781097Y0092591D01*
X0779462Y0092591D01*
X0778645Y0091774D01*
X0778645Y0090139D01*
X0779462Y0089322D01*
X0783549Y0089322D02*
X0783549Y0092591D01*
X0781097Y0100322D02*
X0781097Y0102774D01*
X0780280Y0103591D01*
X0779462Y0103591D01*
X0778645Y0102774D01*
X0778645Y0101139D01*
X0779462Y0100322D01*
X0781097Y0100322D01*
X0782732Y0101957D01*
X0783549Y0103591D01*
X0784049Y0110822D02*
X0784049Y0114091D01*
X0783232Y0114091D01*
X0779962Y0110822D01*
X0779145Y0110822D01*
X0804476Y0111004D02*
X0807745Y0111004D01*
X0807745Y0108552D01*
X0806110Y0109369D01*
X0805293Y0109369D01*
X0804476Y0108552D01*
X0804476Y0106917D01*
X0805293Y0106100D01*
X0806928Y0106100D01*
X0807745Y0106917D01*
X0809632Y0106100D02*
X0812902Y0106100D01*
X0809632Y0109369D01*
X0809632Y0110187D01*
X0810449Y0111004D01*
X0812084Y0111004D01*
X0812902Y0110187D01*
X0812902Y0117100D02*
X0809632Y0120369D01*
X0809632Y0121187D01*
X0810449Y0122004D01*
X0812084Y0122004D01*
X0812902Y0121187D01*
X0812902Y0117100D02*
X0809632Y0117100D01*
X0807745Y0117917D02*
X0807745Y0119552D01*
X0805293Y0119552D01*
X0804476Y0118735D01*
X0804476Y0117917D01*
X0805293Y0117100D01*
X0806928Y0117100D01*
X0807745Y0117917D01*
X0807745Y0119552D02*
X0806110Y0121187D01*
X0804476Y0122004D01*
X0807745Y0127600D02*
X0807745Y0128417D01*
X0804476Y0131687D01*
X0804476Y0132504D01*
X0807745Y0132504D01*
X0809632Y0131687D02*
X0810449Y0132504D01*
X0812084Y0132504D01*
X0812902Y0131687D01*
X0809632Y0131687D02*
X0809632Y0130869D01*
X0812902Y0127600D01*
X0809632Y0127600D01*
X0823049Y0130931D02*
X0823049Y0134200D01*
X0823049Y0132566D02*
X0818145Y0132566D01*
X0818962Y0136087D02*
X0818145Y0136905D01*
X0818145Y0138539D01*
X0818962Y0139357D01*
X0822232Y0139357D01*
X0823049Y0138539D01*
X0823049Y0136905D01*
X0822232Y0136087D01*
X0818962Y0136087D01*
X0812902Y0139100D02*
X0809632Y0142369D01*
X0809632Y0143187D01*
X0810449Y0144004D01*
X0812084Y0144004D01*
X0812902Y0143187D01*
X0812902Y0139100D02*
X0809632Y0139100D01*
X0807745Y0139917D02*
X0807745Y0140735D01*
X0806928Y0141552D01*
X0805293Y0141552D01*
X0804476Y0140735D01*
X0804476Y0139917D01*
X0805293Y0139100D01*
X0806928Y0139100D01*
X0807745Y0139917D01*
X0806928Y0141552D02*
X0807745Y0142369D01*
X0807745Y0143187D01*
X0806928Y0144004D01*
X0805293Y0144004D01*
X0804476Y0143187D01*
X0804476Y0142369D01*
X0805293Y0141552D01*
X0818145Y0146400D02*
X0818145Y0149669D01*
X0818145Y0151556D02*
X0818145Y0154826D01*
X0818962Y0156713D02*
X0818145Y0157530D01*
X0818145Y0159165D01*
X0818962Y0159982D01*
X0820597Y0159982D01*
X0820597Y0158347D01*
X0822232Y0156713D02*
X0818962Y0156713D01*
X0822232Y0156713D02*
X0823049Y0157530D01*
X0823049Y0159165D01*
X0822232Y0159982D01*
X0813402Y0161417D02*
X0812584Y0160600D01*
X0810949Y0160600D01*
X0810132Y0161417D01*
X0810132Y0162235D01*
X0810949Y0163052D01*
X0811767Y0163052D01*
X0810949Y0163052D02*
X0810132Y0163869D01*
X0810132Y0164687D01*
X0810949Y0165504D01*
X0812584Y0165504D01*
X0813402Y0164687D01*
X0808245Y0164687D02*
X0807428Y0165504D01*
X0805793Y0165504D01*
X0804976Y0164687D01*
X0808245Y0161417D01*
X0807428Y0160600D01*
X0805793Y0160600D01*
X0804976Y0161417D01*
X0804976Y0164687D01*
X0808245Y0164687D02*
X0808245Y0161417D01*
X0807428Y0154504D02*
X0808245Y0153687D01*
X0808245Y0152869D01*
X0807428Y0152052D01*
X0804976Y0152052D01*
X0804976Y0150417D02*
X0804976Y0153687D01*
X0805793Y0154504D01*
X0807428Y0154504D01*
X0810132Y0153687D02*
X0810949Y0154504D01*
X0812584Y0154504D01*
X0813402Y0153687D01*
X0810132Y0153687D02*
X0810132Y0152869D01*
X0813402Y0149600D01*
X0810132Y0149600D01*
X0808245Y0150417D02*
X0807428Y0149600D01*
X0805793Y0149600D01*
X0804976Y0150417D01*
X0818145Y0151556D02*
X0823049Y0151556D01*
X0823049Y0154826D01*
X0820597Y0153191D02*
X0820597Y0151556D01*
X0823049Y0149669D02*
X0823049Y0146400D01*
X0818145Y0146400D01*
X0820597Y0146400D02*
X0820597Y0148035D01*
X0784402Y0147869D02*
X0782767Y0149504D01*
X0782767Y0144600D01*
X0784402Y0144600D02*
X0781132Y0144600D01*
X0779245Y0145417D02*
X0775976Y0148687D01*
X0775976Y0145417D01*
X0776793Y0144600D01*
X0778428Y0144600D01*
X0779245Y0145417D01*
X0779245Y0148687D01*
X0778428Y0149504D01*
X0776793Y0149504D01*
X0775976Y0148687D01*
X0775976Y0155600D02*
X0779245Y0155600D01*
X0777610Y0155600D02*
X0777610Y0160504D01*
X0779245Y0158869D01*
X0781132Y0155600D02*
X0784402Y0155600D01*
X0782767Y0155600D02*
X0782767Y0160504D01*
X0784402Y0158869D01*
X0784402Y0166100D02*
X0781132Y0166100D01*
X0782767Y0166100D02*
X0782767Y0171004D01*
X0784402Y0169369D01*
X0779245Y0170187D02*
X0778428Y0171004D01*
X0776793Y0171004D01*
X0775976Y0170187D01*
X0775976Y0169369D01*
X0779245Y0166100D01*
X0775976Y0166100D01*
X0804976Y0172100D02*
X0808245Y0172100D01*
X0806610Y0172100D02*
X0806610Y0177004D01*
X0808245Y0175369D01*
X0810132Y0175369D02*
X0810949Y0174552D01*
X0810132Y0173735D01*
X0810132Y0172917D01*
X0810949Y0172100D01*
X0812584Y0172100D01*
X0813402Y0172917D01*
X0811767Y0174552D02*
X0810949Y0174552D01*
X0810132Y0175369D02*
X0810132Y0176187D01*
X0810949Y0177004D01*
X0812584Y0177004D01*
X0813402Y0176187D01*
X0784402Y0177100D02*
X0781132Y0177100D01*
X0782767Y0177100D02*
X0782767Y0182004D01*
X0784402Y0180369D01*
X0779245Y0181187D02*
X0778428Y0182004D01*
X0776793Y0182004D01*
X0775976Y0181187D01*
X0775976Y0180369D01*
X0776793Y0179552D01*
X0775976Y0178735D01*
X0775976Y0177917D01*
X0776793Y0177100D01*
X0778428Y0177100D01*
X0779245Y0177917D01*
X0777610Y0179552D02*
X0776793Y0179552D01*
X0776793Y0187600D02*
X0776793Y0192504D01*
X0779245Y0190052D01*
X0775976Y0190052D01*
X0781132Y0187600D02*
X0784402Y0187600D01*
X0782767Y0187600D02*
X0782767Y0192504D01*
X0784402Y0190869D01*
X0804976Y0193917D02*
X0804976Y0194735D01*
X0805793Y0195552D01*
X0806610Y0195552D01*
X0805793Y0195552D02*
X0804976Y0196369D01*
X0804976Y0197187D01*
X0805793Y0198004D01*
X0807428Y0198004D01*
X0808245Y0197187D01*
X0810132Y0197187D02*
X0810132Y0196369D01*
X0810949Y0195552D01*
X0810132Y0194735D01*
X0810132Y0193917D01*
X0810949Y0193100D01*
X0812584Y0193100D01*
X0813402Y0193917D01*
X0811767Y0195552D02*
X0810949Y0195552D01*
X0810132Y0197187D02*
X0810949Y0198004D01*
X0812584Y0198004D01*
X0813402Y0197187D01*
X0808245Y0193917D02*
X0807428Y0193100D01*
X0805793Y0193100D01*
X0804976Y0193917D01*
X0784402Y0198600D02*
X0781132Y0198600D01*
X0782767Y0198600D02*
X0782767Y0203504D01*
X0784402Y0201869D01*
X0779245Y0201052D02*
X0777610Y0201869D01*
X0776793Y0201869D01*
X0775976Y0201052D01*
X0775976Y0199417D01*
X0776793Y0198600D01*
X0778428Y0198600D01*
X0779245Y0199417D01*
X0779245Y0201052D02*
X0779245Y0203504D01*
X0775976Y0203504D01*
X0776793Y0209600D02*
X0775976Y0210417D01*
X0775976Y0211235D01*
X0776793Y0212052D01*
X0779245Y0212052D01*
X0779245Y0210417D01*
X0778428Y0209600D01*
X0776793Y0209600D01*
X0779245Y0212052D02*
X0777610Y0213687D01*
X0775976Y0214504D01*
X0782767Y0214504D02*
X0782767Y0209600D01*
X0784402Y0209600D02*
X0781132Y0209600D01*
X0784402Y0212869D02*
X0782767Y0214504D01*
X0782767Y0220100D02*
X0782767Y0225004D01*
X0784402Y0223369D01*
X0784402Y0220100D02*
X0781132Y0220100D01*
X0779245Y0220100D02*
X0779245Y0220917D01*
X0775976Y0224187D01*
X0775976Y0225004D01*
X0779245Y0225004D01*
X0778428Y0231100D02*
X0779245Y0231917D01*
X0779245Y0232735D01*
X0778428Y0233552D01*
X0776793Y0233552D01*
X0775976Y0232735D01*
X0775976Y0231917D01*
X0776793Y0231100D01*
X0778428Y0231100D01*
X0778428Y0233552D02*
X0779245Y0234369D01*
X0779245Y0235187D01*
X0778428Y0236004D01*
X0776793Y0236004D01*
X0775976Y0235187D01*
X0775976Y0234369D01*
X0776793Y0233552D01*
X0781132Y0231100D02*
X0784402Y0231100D01*
X0782767Y0231100D02*
X0782767Y0236004D01*
X0784402Y0234369D01*
X0784402Y0242600D02*
X0781132Y0242600D01*
X0782767Y0242600D02*
X0782767Y0247504D01*
X0784402Y0245869D01*
X0779245Y0245869D02*
X0779245Y0246687D01*
X0778428Y0247504D01*
X0776793Y0247504D01*
X0775976Y0246687D01*
X0775976Y0243417D01*
X0776793Y0242600D01*
X0778428Y0242600D01*
X0779245Y0243417D01*
X0778428Y0245052D02*
X0775976Y0245052D01*
X0778428Y0245052D02*
X0779245Y0245869D01*
X0804976Y0241004D02*
X0804976Y0240187D01*
X0808245Y0236917D01*
X0808245Y0236100D01*
X0810132Y0236917D02*
X0810949Y0236100D01*
X0812584Y0236100D01*
X0813402Y0236917D01*
X0811767Y0238552D02*
X0810949Y0238552D01*
X0810132Y0237735D01*
X0810132Y0236917D01*
X0810949Y0238552D02*
X0810132Y0239369D01*
X0810132Y0240187D01*
X0810949Y0241004D01*
X0812584Y0241004D01*
X0813402Y0240187D01*
X0808245Y0241004D02*
X0804976Y0241004D01*
X0804976Y0231504D02*
X0806610Y0230687D01*
X0808245Y0229052D01*
X0805793Y0229052D01*
X0804976Y0228235D01*
X0804976Y0227417D01*
X0805793Y0226600D01*
X0807428Y0226600D01*
X0808245Y0227417D01*
X0808245Y0229052D01*
X0810132Y0228235D02*
X0810132Y0227417D01*
X0810949Y0226600D01*
X0812584Y0226600D01*
X0813402Y0227417D01*
X0811767Y0229052D02*
X0810949Y0229052D01*
X0810132Y0228235D01*
X0810949Y0229052D02*
X0810132Y0229869D01*
X0810132Y0230687D01*
X0810949Y0231504D01*
X0812584Y0231504D01*
X0813402Y0230687D01*
X0812584Y0219504D02*
X0810949Y0219504D01*
X0810132Y0218687D01*
X0810132Y0217869D01*
X0810949Y0217052D01*
X0810132Y0216235D01*
X0810132Y0215417D01*
X0810949Y0214600D01*
X0812584Y0214600D01*
X0813402Y0215417D01*
X0811767Y0217052D02*
X0810949Y0217052D01*
X0808245Y0217052D02*
X0806610Y0217869D01*
X0805793Y0217869D01*
X0804976Y0217052D01*
X0804976Y0215417D01*
X0805793Y0214600D01*
X0807428Y0214600D01*
X0808245Y0215417D01*
X0808245Y0217052D02*
X0808245Y0219504D01*
X0804976Y0219504D01*
X0812584Y0219504D02*
X0813402Y0218687D01*
X0812584Y0208504D02*
X0810949Y0208504D01*
X0810132Y0207687D01*
X0810132Y0206869D01*
X0810949Y0206052D01*
X0810132Y0205235D01*
X0810132Y0204417D01*
X0810949Y0203600D01*
X0812584Y0203600D01*
X0813402Y0204417D01*
X0811767Y0206052D02*
X0810949Y0206052D01*
X0808245Y0206052D02*
X0804976Y0206052D01*
X0805793Y0203600D02*
X0805793Y0208504D01*
X0808245Y0206052D01*
X0812584Y0208504D02*
X0813402Y0207687D01*
X0782732Y0136091D02*
X0779462Y0136091D01*
X0778645Y0135274D01*
X0778645Y0133639D01*
X0779462Y0132822D01*
X0781097Y0133639D02*
X0781097Y0136091D01*
X0782732Y0136091D02*
X0783549Y0135274D01*
X0783549Y0133639D01*
X0782732Y0132822D01*
X0781915Y0132822D01*
X0781097Y0133639D01*
X0780280Y0125091D02*
X0779462Y0125091D01*
X0778645Y0124274D01*
X0778645Y0122639D01*
X0779462Y0121822D01*
X0780280Y0121822D01*
X0781097Y0122639D01*
X0781097Y0124274D01*
X0780280Y0125091D01*
X0781097Y0124274D02*
X0781915Y0125091D01*
X0782732Y0125091D01*
X0783549Y0124274D01*
X0783549Y0122639D01*
X0782732Y0121822D01*
X0781915Y0121822D01*
X0781097Y0122639D01*
X0805293Y0100004D02*
X0807745Y0097552D01*
X0804476Y0097552D01*
X0805293Y0095100D02*
X0805293Y0100004D01*
X0809632Y0099187D02*
X0810449Y0100004D01*
X0812084Y0100004D01*
X0812902Y0099187D01*
X0809632Y0099187D02*
X0809632Y0098369D01*
X0812902Y0095100D01*
X0809632Y0095100D01*
X0810449Y0089004D02*
X0812084Y0089004D01*
X0812902Y0088187D01*
X0810449Y0089004D02*
X0809632Y0088187D01*
X0809632Y0087369D01*
X0812902Y0084100D01*
X0809632Y0084100D01*
X0807745Y0084917D02*
X0806928Y0084100D01*
X0805293Y0084100D01*
X0804476Y0084917D01*
X0804476Y0085735D01*
X0805293Y0086552D01*
X0806110Y0086552D01*
X0805293Y0086552D02*
X0804476Y0087369D01*
X0804476Y0088187D01*
X0805293Y0089004D01*
X0806928Y0089004D01*
X0807745Y0088187D01*
X0806928Y0056504D02*
X0805293Y0056504D01*
X0804476Y0055687D01*
X0807745Y0052417D01*
X0806928Y0051600D01*
X0805293Y0051600D01*
X0804476Y0052417D01*
X0804476Y0055687D01*
X0806928Y0056504D02*
X0807745Y0055687D01*
X0807745Y0052417D01*
X0809632Y0051600D02*
X0812902Y0051600D01*
X0809632Y0054869D01*
X0809632Y0055687D01*
X0810449Y0056504D01*
X0812084Y0056504D01*
X0812902Y0055687D01*
D11*
X0554143Y0100818D02*
X0553026Y0099700D01*
X0550790Y0099700D01*
X0549673Y0100818D01*
X0549673Y0101935D01*
X0550790Y0103053D01*
X0551908Y0103053D01*
X0550790Y0103053D02*
X0549673Y0104170D01*
X0549673Y0105288D01*
X0550790Y0106406D01*
X0553026Y0106406D01*
X0554143Y0105288D01*
X0547145Y0105288D02*
X0546028Y0106406D01*
X0543792Y0106406D01*
X0542675Y0105288D01*
X0542675Y0104170D01*
X0547145Y0099700D01*
X0542675Y0099700D01*
X0504143Y0101318D02*
X0503026Y0100200D01*
X0500790Y0100200D01*
X0499673Y0101318D01*
X0499673Y0102435D01*
X0500790Y0103553D01*
X0501908Y0103553D01*
X0500790Y0103553D02*
X0499673Y0104670D01*
X0499673Y0105788D01*
X0500790Y0106906D01*
X0503026Y0106906D01*
X0504143Y0105788D01*
X0497145Y0104670D02*
X0494910Y0106906D01*
X0494910Y0100200D01*
X0497145Y0100200D02*
X0492675Y0100200D01*
X0454643Y0100818D02*
X0453526Y0099700D01*
X0451290Y0099700D01*
X0450173Y0100818D01*
X0450173Y0101935D01*
X0451290Y0103053D01*
X0452408Y0103053D01*
X0451290Y0103053D02*
X0450173Y0104170D01*
X0450173Y0105288D01*
X0451290Y0106406D01*
X0453526Y0106406D01*
X0454643Y0105288D01*
X0447645Y0105288D02*
X0447645Y0100818D01*
X0443175Y0105288D01*
X0443175Y0100818D01*
X0444292Y0099700D01*
X0446528Y0099700D01*
X0447645Y0100818D01*
X0447645Y0105288D02*
X0446528Y0106406D01*
X0444292Y0106406D01*
X0443175Y0105288D01*
X0404643Y0105288D02*
X0403526Y0106406D01*
X0401290Y0106406D01*
X0400173Y0105288D01*
X0400173Y0104170D01*
X0404643Y0099700D01*
X0400173Y0099700D01*
X0397645Y0100818D02*
X0396528Y0099700D01*
X0394292Y0099700D01*
X0393175Y0100818D01*
X0393175Y0105288D01*
X0394292Y0106406D01*
X0396528Y0106406D01*
X0397645Y0105288D01*
X0397645Y0104170D01*
X0396528Y0103053D01*
X0393175Y0103053D01*
X0354143Y0100700D02*
X0349673Y0105170D01*
X0349673Y0106288D01*
X0350790Y0107406D01*
X0353026Y0107406D01*
X0354143Y0106288D01*
X0354143Y0100700D02*
X0349673Y0100700D01*
X0347145Y0101818D02*
X0347145Y0102935D01*
X0346028Y0104053D01*
X0343792Y0104053D01*
X0342675Y0102935D01*
X0342675Y0101818D01*
X0343792Y0100700D01*
X0346028Y0100700D01*
X0347145Y0101818D01*
X0346028Y0104053D02*
X0347145Y0105170D01*
X0347145Y0106288D01*
X0346028Y0107406D01*
X0343792Y0107406D01*
X0342675Y0106288D01*
X0342675Y0105170D01*
X0343792Y0104053D01*
X0304143Y0106288D02*
X0303026Y0107406D01*
X0300790Y0107406D01*
X0299673Y0106288D01*
X0299673Y0105170D01*
X0304143Y0100700D01*
X0299673Y0100700D01*
X0297145Y0100700D02*
X0297145Y0101818D01*
X0292675Y0106288D01*
X0292675Y0107406D01*
X0297145Y0107406D01*
X0255143Y0106288D02*
X0254026Y0107406D01*
X0251790Y0107406D01*
X0250673Y0106288D01*
X0250673Y0105170D01*
X0255143Y0100700D01*
X0250673Y0100700D01*
X0248145Y0101818D02*
X0247028Y0100700D01*
X0244792Y0100700D01*
X0243675Y0101818D01*
X0243675Y0102935D01*
X0244792Y0104053D01*
X0248145Y0104053D01*
X0248145Y0101818D01*
X0248145Y0104053D02*
X0245910Y0106288D01*
X0243675Y0107406D01*
X0205143Y0105788D02*
X0204026Y0106906D01*
X0201790Y0106906D01*
X0200673Y0105788D01*
X0200673Y0104670D01*
X0205143Y0100200D01*
X0200673Y0100200D01*
X0198145Y0101318D02*
X0197028Y0100200D01*
X0194792Y0100200D01*
X0193675Y0101318D01*
X0193675Y0103553D01*
X0194792Y0104670D01*
X0195910Y0104670D01*
X0198145Y0103553D01*
X0198145Y0106906D01*
X0193675Y0106906D01*
X0197145Y0149700D02*
X0197145Y0150818D01*
X0192675Y0155288D01*
X0192675Y0156406D01*
X0197145Y0156406D01*
X0201908Y0156406D02*
X0201908Y0149700D01*
X0204143Y0149700D02*
X0199673Y0149700D01*
X0204143Y0154170D02*
X0201908Y0156406D01*
X0243675Y0155788D02*
X0243675Y0154670D01*
X0244792Y0153553D01*
X0247028Y0153553D01*
X0248145Y0154670D01*
X0248145Y0155788D01*
X0247028Y0156906D01*
X0244792Y0156906D01*
X0243675Y0155788D01*
X0244792Y0153553D02*
X0243675Y0152435D01*
X0243675Y0151318D01*
X0244792Y0150200D01*
X0247028Y0150200D01*
X0248145Y0151318D01*
X0248145Y0152435D01*
X0247028Y0153553D01*
X0250673Y0150200D02*
X0255143Y0150200D01*
X0252908Y0150200D02*
X0252908Y0156906D01*
X0255143Y0154670D01*
X0293175Y0155288D02*
X0293175Y0150818D01*
X0294292Y0149700D01*
X0296528Y0149700D01*
X0297645Y0150818D01*
X0296528Y0153053D02*
X0293175Y0153053D01*
X0293175Y0155288D02*
X0294292Y0156406D01*
X0296528Y0156406D01*
X0297645Y0155288D01*
X0297645Y0154170D01*
X0296528Y0153053D01*
X0300173Y0149700D02*
X0304643Y0149700D01*
X0302408Y0149700D02*
X0302408Y0156406D01*
X0304643Y0154170D01*
X0339675Y0155788D02*
X0339675Y0151318D01*
X0340792Y0150200D01*
X0343028Y0150200D01*
X0344145Y0151318D01*
X0339675Y0155788D01*
X0340792Y0156906D01*
X0343028Y0156906D01*
X0344145Y0155788D01*
X0344145Y0151318D01*
X0346673Y0150200D02*
X0351143Y0150200D01*
X0346673Y0154670D01*
X0346673Y0155788D01*
X0347790Y0156906D01*
X0350026Y0156906D01*
X0351143Y0155788D01*
X0400675Y0149700D02*
X0405145Y0149700D01*
X0402910Y0149700D02*
X0402910Y0156406D01*
X0405145Y0154170D01*
X0407673Y0154170D02*
X0407673Y0155288D01*
X0408790Y0156406D01*
X0411026Y0156406D01*
X0412143Y0155288D01*
X0407673Y0154170D02*
X0412143Y0149700D01*
X0407673Y0149700D01*
X0443675Y0150200D02*
X0448145Y0150200D01*
X0443675Y0154670D01*
X0443675Y0155788D01*
X0444792Y0156906D01*
X0447028Y0156906D01*
X0448145Y0155788D01*
X0450673Y0155788D02*
X0451790Y0156906D01*
X0454026Y0156906D01*
X0455143Y0155788D01*
X0450673Y0155788D02*
X0450673Y0154670D01*
X0455143Y0150200D01*
X0450673Y0150200D01*
X0493175Y0150818D02*
X0494292Y0149700D01*
X0496528Y0149700D01*
X0497645Y0150818D01*
X0500173Y0149700D02*
X0504643Y0149700D01*
X0500173Y0154170D01*
X0500173Y0155288D01*
X0501290Y0156406D01*
X0503526Y0156406D01*
X0504643Y0155288D01*
X0497645Y0155288D02*
X0496528Y0156406D01*
X0494292Y0156406D01*
X0493175Y0155288D01*
X0493175Y0154170D01*
X0494292Y0153053D01*
X0493175Y0151935D01*
X0493175Y0150818D01*
X0494292Y0153053D02*
X0495410Y0153053D01*
X0543175Y0153053D02*
X0547645Y0153053D01*
X0544292Y0156406D01*
X0544292Y0149700D01*
X0550173Y0149700D02*
X0554643Y0149700D01*
X0550173Y0154170D01*
X0550173Y0155288D01*
X0551290Y0156406D01*
X0553526Y0156406D01*
X0554643Y0155288D01*
X0554643Y0199700D02*
X0550173Y0199700D01*
X0552408Y0199700D02*
X0552408Y0206406D01*
X0554643Y0204170D01*
X0547645Y0203053D02*
X0547645Y0200818D01*
X0546528Y0199700D01*
X0544292Y0199700D01*
X0543175Y0200818D01*
X0543175Y0201935D01*
X0544292Y0203053D01*
X0547645Y0203053D01*
X0545410Y0205288D01*
X0543175Y0206406D01*
X0505643Y0204170D02*
X0503408Y0206406D01*
X0503408Y0199700D01*
X0505643Y0199700D02*
X0501173Y0199700D01*
X0498645Y0200818D02*
X0497528Y0199700D01*
X0495292Y0199700D01*
X0494175Y0200818D01*
X0494175Y0203053D01*
X0495292Y0204170D01*
X0496410Y0204170D01*
X0498645Y0203053D01*
X0498645Y0206406D01*
X0494175Y0206406D01*
X0454643Y0204170D02*
X0452408Y0206406D01*
X0452408Y0199700D01*
X0454643Y0199700D02*
X0450173Y0199700D01*
X0447645Y0203053D02*
X0443175Y0203053D01*
X0444292Y0206406D02*
X0447645Y0203053D01*
X0444292Y0199700D02*
X0444292Y0206406D01*
X0405143Y0204170D02*
X0402908Y0206406D01*
X0402908Y0199700D01*
X0405143Y0199700D02*
X0400673Y0199700D01*
X0398145Y0200818D02*
X0397028Y0199700D01*
X0394792Y0199700D01*
X0393675Y0200818D01*
X0393675Y0201935D01*
X0394792Y0203053D01*
X0395910Y0203053D01*
X0394792Y0203053D02*
X0393675Y0204170D01*
X0393675Y0205288D01*
X0394792Y0206406D01*
X0397028Y0206406D01*
X0398145Y0205288D01*
X0354643Y0204170D02*
X0352408Y0206406D01*
X0352408Y0199700D01*
X0354643Y0199700D02*
X0350173Y0199700D01*
X0347645Y0199700D02*
X0343175Y0204170D01*
X0343175Y0205288D01*
X0344292Y0206406D01*
X0346528Y0206406D01*
X0347645Y0205288D01*
X0347645Y0199700D02*
X0343175Y0199700D01*
X0304143Y0199700D02*
X0299673Y0199700D01*
X0301908Y0199700D02*
X0301908Y0206406D01*
X0304143Y0204170D01*
X0297145Y0204170D02*
X0294910Y0206406D01*
X0294910Y0199700D01*
X0297145Y0199700D02*
X0292675Y0199700D01*
X0253643Y0199700D02*
X0249173Y0199700D01*
X0251408Y0199700D02*
X0251408Y0206406D01*
X0253643Y0204170D01*
X0246645Y0205288D02*
X0245528Y0206406D01*
X0243292Y0206406D01*
X0242175Y0205288D01*
X0246645Y0200818D01*
X0245528Y0199700D01*
X0243292Y0199700D01*
X0242175Y0200818D01*
X0242175Y0205288D01*
X0246645Y0205288D02*
X0246645Y0200818D01*
X0201144Y0200818D02*
X0200027Y0199700D01*
X0197791Y0199700D01*
X0196674Y0200818D01*
X0196674Y0205288D01*
X0197791Y0206406D01*
X0200027Y0206406D01*
X0201144Y0205288D01*
X0201144Y0204170D01*
X0200027Y0203053D01*
X0196674Y0203053D01*
X0122143Y0187788D02*
X0121026Y0188906D01*
X0118790Y0188906D01*
X0117673Y0187788D01*
X0117673Y0186670D01*
X0118790Y0185553D01*
X0117673Y0184435D01*
X0117673Y0183318D01*
X0118790Y0182200D01*
X0121026Y0182200D01*
X0122143Y0183318D01*
X0119908Y0185553D02*
X0118790Y0185553D01*
X0115145Y0187788D02*
X0114028Y0188906D01*
X0111792Y0188906D01*
X0110675Y0187788D01*
X0110675Y0186670D01*
X0115145Y0182200D01*
X0110675Y0182200D01*
X0196174Y0249700D02*
X0200644Y0249700D01*
X0198409Y0249700D02*
X0198409Y0256406D01*
X0200644Y0254170D01*
X0246674Y0254170D02*
X0251144Y0249700D01*
X0246674Y0249700D01*
X0246674Y0254170D02*
X0246674Y0255288D01*
X0247791Y0256406D01*
X0250027Y0256406D01*
X0251144Y0255288D01*
X0296674Y0255288D02*
X0296674Y0254170D01*
X0297791Y0253053D01*
X0296674Y0251935D01*
X0296674Y0250818D01*
X0297791Y0249700D01*
X0300027Y0249700D01*
X0301144Y0250818D01*
X0298909Y0253053D02*
X0297791Y0253053D01*
X0296674Y0255288D02*
X0297791Y0256406D01*
X0300027Y0256406D01*
X0301144Y0255288D01*
X0347174Y0253053D02*
X0351644Y0253053D01*
X0348291Y0256406D01*
X0348291Y0249700D01*
X0396674Y0250818D02*
X0397791Y0249700D01*
X0400027Y0249700D01*
X0401144Y0250818D01*
X0401144Y0253053D02*
X0398909Y0254170D01*
X0397791Y0254170D01*
X0396674Y0253053D01*
X0396674Y0250818D01*
X0401144Y0253053D02*
X0401144Y0256406D01*
X0396674Y0256406D01*
X0447174Y0256406D02*
X0449409Y0255288D01*
X0451644Y0253053D01*
X0448291Y0253053D01*
X0447174Y0251935D01*
X0447174Y0250818D01*
X0448291Y0249700D01*
X0450527Y0249700D01*
X0451644Y0250818D01*
X0451644Y0253053D01*
X0497174Y0254288D02*
X0501644Y0249818D01*
X0501644Y0248700D01*
X0501644Y0255406D02*
X0497174Y0255406D01*
X0497174Y0254288D01*
X0546674Y0254170D02*
X0547791Y0253053D01*
X0550027Y0253053D01*
X0551144Y0254170D01*
X0551144Y0255288D01*
X0550027Y0256406D01*
X0547791Y0256406D01*
X0546674Y0255288D01*
X0546674Y0254170D01*
X0547791Y0253053D02*
X0546674Y0251935D01*
X0546674Y0250818D01*
X0547791Y0249700D01*
X0550027Y0249700D01*
X0551144Y0250818D01*
X0551144Y0251935D01*
X0550027Y0253053D01*
X0804175Y0187288D02*
X0805292Y0188406D01*
X0807528Y0188406D01*
X0808645Y0187288D01*
X0811173Y0187288D02*
X0811173Y0186170D01*
X0812290Y0185053D01*
X0811173Y0183935D01*
X0811173Y0182818D01*
X0812290Y0181700D01*
X0814526Y0181700D01*
X0815643Y0182818D01*
X0813408Y0185053D02*
X0812290Y0185053D01*
X0811173Y0187288D02*
X0812290Y0188406D01*
X0814526Y0188406D01*
X0815643Y0187288D01*
X0808645Y0181700D02*
X0804175Y0181700D01*
X0808645Y0181700D02*
X0804175Y0186170D01*
X0804175Y0187288D01*
D12*
X0741694Y0173550D02*
X0741694Y0170550D01*
X0736497Y0170648D02*
X0736497Y0173550D01*
X0677694Y0173550D02*
X0677694Y0170550D01*
X0672497Y0170648D02*
X0672497Y0173550D01*
X0613694Y0173550D02*
X0613694Y0170550D01*
X0608497Y0170648D02*
X0608497Y0173550D01*
X0610194Y0213550D02*
X0610194Y0216452D01*
X0604997Y0216550D02*
X0604997Y0213550D01*
X0668997Y0213550D02*
X0668997Y0216550D01*
X0674194Y0216452D02*
X0674194Y0213550D01*
X0732997Y0213550D02*
X0732997Y0216550D01*
X0738194Y0216452D02*
X0738194Y0213550D01*
X0741194Y0266550D02*
X0741194Y0269550D01*
X0735997Y0269550D02*
X0735997Y0266648D01*
X0677194Y0266550D02*
X0677194Y0269550D01*
X0671997Y0269550D02*
X0671997Y0266648D01*
X0613194Y0266550D02*
X0613194Y0269550D01*
X0607997Y0269550D02*
X0607997Y0266648D01*
X0605497Y0120550D02*
X0605497Y0117550D01*
X0610694Y0117550D02*
X0610694Y0120452D01*
X0669497Y0120550D02*
X0669497Y0117550D01*
X0674694Y0117550D02*
X0674694Y0120452D01*
X0733497Y0120550D02*
X0733497Y0117550D01*
X0738694Y0117550D02*
X0738694Y0120452D01*
X0677694Y0077550D02*
X0677694Y0074550D01*
X0672497Y0074648D02*
X0672497Y0077550D01*
X0613694Y0077550D02*
X0613694Y0074550D01*
X0608497Y0074648D02*
X0608497Y0077550D01*
X0534899Y0048611D02*
X0531830Y0048611D01*
X0530295Y0047077D01*
X0531830Y0045542D01*
X0534899Y0045542D01*
X0532597Y0050146D02*
X0532597Y0053215D01*
X0539497Y0039050D02*
X0539497Y0036050D01*
X0544694Y0036050D02*
X0544694Y0038952D01*
X0537940Y0026854D02*
X0538707Y0026087D01*
X0538707Y0023017D01*
X0537940Y0022250D01*
X0536405Y0022250D01*
X0535638Y0023017D01*
X0535638Y0024552D01*
X0537172Y0024552D01*
X0535638Y0026087D02*
X0536405Y0026854D01*
X0537940Y0026854D01*
X0534103Y0025319D02*
X0534103Y0022250D01*
X0531034Y0022250D02*
X0531034Y0024552D01*
X0531801Y0025319D01*
X0534103Y0025319D01*
X0529499Y0024552D02*
X0528732Y0025319D01*
X0526430Y0025319D01*
X0526430Y0026854D02*
X0526430Y0022250D01*
X0528732Y0022250D01*
X0529499Y0023017D01*
X0529499Y0024552D01*
X0605497Y0024550D02*
X0605497Y0021550D01*
X0610694Y0021550D02*
X0610694Y0024452D01*
X0669497Y0024550D02*
X0669497Y0021550D01*
X0674694Y0021550D02*
X0674694Y0024452D01*
X0420194Y0034550D02*
X0420194Y0037550D01*
X0414997Y0037550D02*
X0414997Y0034648D01*
X0408097Y0025423D02*
X0408097Y0022354D01*
X0407330Y0020819D02*
X0410399Y0020819D01*
X0410399Y0017750D02*
X0407330Y0017750D01*
X0405795Y0019285D01*
X0407330Y0020819D01*
X0406562Y0023889D02*
X0409632Y0023889D01*
X0409132Y0047750D02*
X0406062Y0047750D01*
X0405295Y0048517D01*
X0405295Y0050052D01*
X0406062Y0050819D01*
X0407597Y0050819D01*
X0407597Y0049285D01*
X0409132Y0050819D02*
X0409899Y0050052D01*
X0409899Y0048517D01*
X0409132Y0047750D01*
X0408364Y0052354D02*
X0408364Y0054656D01*
X0407597Y0055423D01*
X0405295Y0055423D01*
X0406062Y0056958D02*
X0407597Y0056958D01*
X0408364Y0057725D01*
X0408364Y0060027D01*
X0409899Y0060027D02*
X0405295Y0060027D01*
X0405295Y0057725D01*
X0406062Y0056958D01*
X0405295Y0052354D02*
X0408364Y0052354D01*
D13*
X0410095Y0046550D02*
X0395095Y0046550D01*
X0392595Y0044050D01*
X0392595Y0039050D01*
X0395095Y0036550D01*
X0410095Y0036550D01*
X0412595Y0039050D01*
X0412595Y0044050D01*
X0410095Y0046550D01*
X0391095Y0044050D02*
X0391095Y0039050D01*
X0388595Y0036550D01*
X0383595Y0036550D01*
X0381095Y0039050D01*
X0381095Y0044050D01*
X0383595Y0046550D01*
X0388595Y0046550D01*
X0391095Y0044050D01*
X0388595Y0036550D02*
X0391095Y0034050D01*
X0391095Y0029050D01*
X0388595Y0026550D01*
X0383595Y0026550D01*
X0381095Y0029050D01*
X0381095Y0034050D01*
X0383595Y0036550D01*
X0392595Y0034050D02*
X0392595Y0029050D01*
X0395095Y0026550D01*
X0410095Y0026550D01*
X0412595Y0029050D01*
X0412595Y0034050D01*
X0410095Y0036550D01*
X0423213Y0037015D02*
X0423213Y0035085D01*
X0424977Y0035085D02*
X0424977Y0037015D01*
X0427713Y0037015D02*
X0427713Y0035085D01*
X0429477Y0035085D02*
X0429477Y0037015D01*
X0395095Y0036550D02*
X0392595Y0034050D01*
X0505595Y0034550D02*
X0505595Y0029550D01*
X0508095Y0027050D01*
X0513095Y0027050D01*
X0515595Y0029550D01*
X0515595Y0034550D01*
X0513095Y0037050D01*
X0515595Y0039550D01*
X0515595Y0044550D01*
X0513095Y0047050D01*
X0508095Y0047050D01*
X0505595Y0044550D01*
X0505595Y0039550D01*
X0508095Y0037050D01*
X0505595Y0034550D01*
X0508095Y0037050D02*
X0513095Y0037050D01*
X0517595Y0034550D02*
X0517595Y0029550D01*
X0520095Y0027050D01*
X0535095Y0027050D01*
X0537595Y0029550D01*
X0537595Y0034550D01*
X0535095Y0037050D01*
X0520095Y0037050D01*
X0517595Y0039550D01*
X0517595Y0044550D01*
X0520095Y0047050D01*
X0535095Y0047050D01*
X0537595Y0044550D01*
X0537595Y0039550D01*
X0535095Y0037050D01*
X0520095Y0037050D02*
X0517595Y0034550D01*
X0547713Y0036085D02*
X0547713Y0038015D01*
X0549477Y0038015D02*
X0549477Y0036085D01*
X0552213Y0036085D02*
X0552213Y0038015D01*
X0553977Y0038015D02*
X0553977Y0036085D01*
X0578131Y0045168D02*
X0580060Y0045168D01*
X0580060Y0046932D02*
X0578131Y0046932D01*
X0578131Y0050168D02*
X0580060Y0050168D01*
X0580060Y0051932D02*
X0578131Y0051932D01*
X0580713Y0058585D02*
X0580713Y0060515D01*
X0582477Y0060515D02*
X0582477Y0058585D01*
X0582477Y0038515D02*
X0582477Y0036585D01*
X0580713Y0036585D02*
X0580713Y0038515D01*
X0615595Y0024664D02*
X0615595Y0021436D01*
X0620595Y0021436D02*
X0620595Y0024664D01*
X0645713Y0036585D02*
X0645713Y0038515D01*
X0647477Y0038515D02*
X0647477Y0036585D01*
X0644060Y0045168D02*
X0642131Y0045168D01*
X0642131Y0046932D02*
X0644060Y0046932D01*
X0644060Y0050168D02*
X0642131Y0050168D01*
X0642131Y0051932D02*
X0644060Y0051932D01*
X0645713Y0059085D02*
X0645713Y0061015D01*
X0647477Y0061015D02*
X0647477Y0059085D01*
X0623095Y0074436D02*
X0623095Y0077664D01*
X0618095Y0077664D02*
X0618095Y0074436D01*
X0682095Y0074436D02*
X0682095Y0077664D01*
X0687095Y0077664D02*
X0687095Y0074436D01*
X0684595Y0117436D02*
X0684595Y0120664D01*
X0679595Y0120664D02*
X0679595Y0117436D01*
X0709713Y0132585D02*
X0709713Y0134515D01*
X0711477Y0134515D02*
X0711477Y0132585D01*
X0708060Y0141668D02*
X0706131Y0141668D01*
X0706131Y0143432D02*
X0708060Y0143432D01*
X0708060Y0146668D02*
X0706131Y0146668D01*
X0706131Y0148432D02*
X0708060Y0148432D01*
X0709713Y0155085D02*
X0709713Y0157015D01*
X0711477Y0157015D02*
X0711477Y0155085D01*
X0687095Y0170436D02*
X0687095Y0173664D01*
X0682095Y0173664D02*
X0682095Y0170436D01*
X0647477Y0157015D02*
X0647477Y0155085D01*
X0645713Y0155085D02*
X0645713Y0157015D01*
X0644060Y0148432D02*
X0642131Y0148432D01*
X0642131Y0146668D02*
X0644060Y0146668D01*
X0644060Y0143432D02*
X0642131Y0143432D01*
X0642131Y0141668D02*
X0644060Y0141668D01*
X0645713Y0134515D02*
X0645713Y0132585D01*
X0647477Y0132585D02*
X0647477Y0134515D01*
X0620595Y0120664D02*
X0620595Y0117436D01*
X0615595Y0117436D02*
X0615595Y0120664D01*
X0581477Y0132585D02*
X0581477Y0134515D01*
X0579713Y0134515D02*
X0579713Y0132585D01*
X0580060Y0141168D02*
X0578131Y0141168D01*
X0578131Y0142932D02*
X0580060Y0142932D01*
X0580060Y0146168D02*
X0578131Y0146168D01*
X0578131Y0147932D02*
X0580060Y0147932D01*
X0580713Y0155085D02*
X0580713Y0157015D01*
X0582477Y0157015D02*
X0582477Y0155085D01*
X0618095Y0170436D02*
X0618095Y0173664D01*
X0623095Y0173664D02*
X0623095Y0170436D01*
X0620095Y0213436D02*
X0620095Y0216664D01*
X0615095Y0216664D02*
X0615095Y0213436D01*
X0645213Y0228585D02*
X0645213Y0230515D01*
X0646977Y0230515D02*
X0646977Y0228585D01*
X0643560Y0237168D02*
X0641631Y0237168D01*
X0641631Y0238932D02*
X0643560Y0238932D01*
X0643560Y0242168D02*
X0641631Y0242168D01*
X0641631Y0243932D02*
X0643560Y0243932D01*
X0645213Y0251085D02*
X0645213Y0253015D01*
X0646977Y0253015D02*
X0646977Y0251085D01*
X0622595Y0266436D02*
X0622595Y0269664D01*
X0617595Y0269664D02*
X0617595Y0266436D01*
X0582977Y0253515D02*
X0582977Y0251585D01*
X0581213Y0251585D02*
X0581213Y0253515D01*
X0579560Y0244432D02*
X0577631Y0244432D01*
X0577631Y0242668D02*
X0579560Y0242668D01*
X0579560Y0238932D02*
X0577631Y0238932D01*
X0577631Y0237168D02*
X0579560Y0237168D01*
X0581213Y0230515D02*
X0581213Y0228585D01*
X0582977Y0228585D02*
X0582977Y0230515D01*
X0679095Y0216664D02*
X0679095Y0213436D01*
X0684095Y0213436D02*
X0684095Y0216664D01*
X0709213Y0229085D02*
X0709213Y0231015D01*
X0710977Y0231015D02*
X0710977Y0229085D01*
X0707560Y0237668D02*
X0705631Y0237668D01*
X0705631Y0239432D02*
X0707560Y0239432D01*
X0707560Y0242668D02*
X0705631Y0242668D01*
X0705631Y0244432D02*
X0707560Y0244432D01*
X0709213Y0251085D02*
X0709213Y0253015D01*
X0710977Y0253015D02*
X0710977Y0251085D01*
X0686595Y0266436D02*
X0686595Y0269664D01*
X0681595Y0269664D02*
X0681595Y0266436D01*
X0745595Y0266436D02*
X0745595Y0269664D01*
X0750595Y0269664D02*
X0750595Y0266436D01*
X0748095Y0216664D02*
X0748095Y0213436D01*
X0743095Y0213436D02*
X0743095Y0216664D01*
X0746095Y0173664D02*
X0746095Y0170436D01*
X0751095Y0170436D02*
X0751095Y0173664D01*
X0748595Y0120664D02*
X0748595Y0117436D01*
X0743595Y0117436D02*
X0743595Y0120664D01*
X0684595Y0024664D02*
X0684595Y0021436D01*
X0679595Y0021436D02*
X0679595Y0024664D01*
D14*
X0532595Y0032050D03*
X0522595Y0032050D03*
X0510595Y0032050D03*
X0510595Y0042050D03*
X0522595Y0042050D03*
X0532595Y0042050D03*
X0407595Y0041550D03*
X0397595Y0041550D03*
X0397595Y0031550D03*
X0407595Y0031550D03*
X0386095Y0031550D03*
X0386095Y0041550D03*
D15*
X0362969Y0044424D02*
X0362969Y0049148D01*
X0372812Y0049148D01*
X0372812Y0052298D01*
X0359032Y0052298D01*
X0343284Y0044424D02*
X0343284Y0028676D01*
X0362969Y0028676D02*
X0362969Y0023952D01*
X0372812Y0023952D01*
X0372812Y0020802D01*
X0359032Y0020802D01*
X0467784Y0029176D02*
X0467784Y0044924D01*
X0487469Y0044924D02*
X0487469Y0049648D01*
X0497312Y0049648D01*
X0497312Y0052798D01*
X0483532Y0052798D01*
X0487469Y0029176D02*
X0487469Y0024452D01*
X0497312Y0024452D01*
X0497312Y0021302D01*
X0483532Y0021302D01*
X0590485Y0043038D02*
X0590485Y0054062D01*
X0601705Y0054062D01*
X0601705Y0043038D01*
X0590485Y0043038D01*
X0654485Y0043038D02*
X0654485Y0054062D01*
X0665705Y0054062D01*
X0665705Y0043038D01*
X0654485Y0043038D01*
X0654485Y0139038D02*
X0654485Y0150062D01*
X0665705Y0150062D01*
X0665705Y0139038D01*
X0654485Y0139038D01*
X0601705Y0139038D02*
X0590485Y0139038D01*
X0590485Y0150062D01*
X0601705Y0150062D01*
X0601705Y0139038D01*
X0718485Y0139038D02*
X0718485Y0150062D01*
X0729705Y0150062D01*
X0729705Y0139038D01*
X0718485Y0139038D01*
X0717985Y0235038D02*
X0717985Y0246062D01*
X0729205Y0246062D01*
X0729205Y0235038D01*
X0717985Y0235038D01*
X0665205Y0235038D02*
X0653985Y0235038D01*
X0653985Y0246062D01*
X0665205Y0246062D01*
X0665205Y0235038D01*
X0601205Y0235038D02*
X0589985Y0235038D01*
X0589985Y0246062D01*
X0601205Y0246062D01*
X0601205Y0235038D01*
D16*
X0589690Y0247637D03*
X0653690Y0247637D03*
X0717690Y0247637D03*
X0718190Y0151637D03*
X0654190Y0151637D03*
X0590190Y0151637D03*
X0590190Y0055637D03*
X0654190Y0055637D03*
D17*
X0656158Y0056276D03*
X0658127Y0056276D03*
X0660095Y0056276D03*
X0662064Y0056276D03*
X0664032Y0056276D03*
X0664032Y0040824D03*
X0662064Y0040824D03*
X0660095Y0040824D03*
X0658127Y0040824D03*
X0656158Y0040824D03*
X0600032Y0040824D03*
X0598064Y0040824D03*
X0596095Y0040824D03*
X0594127Y0040824D03*
X0592158Y0040824D03*
X0592158Y0056276D03*
X0594127Y0056276D03*
X0596095Y0056276D03*
X0598064Y0056276D03*
X0600032Y0056276D03*
X0600032Y0136824D03*
X0598064Y0136824D03*
X0596095Y0136824D03*
X0594127Y0136824D03*
X0592158Y0136824D03*
X0592158Y0152276D03*
X0594127Y0152276D03*
X0596095Y0152276D03*
X0598064Y0152276D03*
X0600032Y0152276D03*
X0656158Y0152276D03*
X0658127Y0152276D03*
X0660095Y0152276D03*
X0662064Y0152276D03*
X0664032Y0152276D03*
X0664032Y0136824D03*
X0662064Y0136824D03*
X0660095Y0136824D03*
X0658127Y0136824D03*
X0656158Y0136824D03*
X0720158Y0136824D03*
X0722127Y0136824D03*
X0724095Y0136824D03*
X0726064Y0136824D03*
X0728032Y0136824D03*
X0728032Y0152276D03*
X0726064Y0152276D03*
X0724095Y0152276D03*
X0722127Y0152276D03*
X0720158Y0152276D03*
X0719658Y0232824D03*
X0721627Y0232824D03*
X0723595Y0232824D03*
X0725564Y0232824D03*
X0727532Y0232824D03*
X0727532Y0248276D03*
X0725564Y0248276D03*
X0723595Y0248276D03*
X0721627Y0248276D03*
X0719658Y0248276D03*
X0663532Y0248276D03*
X0661564Y0248276D03*
X0659595Y0248276D03*
X0657627Y0248276D03*
X0655658Y0248276D03*
X0655658Y0232824D03*
X0657627Y0232824D03*
X0659595Y0232824D03*
X0661564Y0232824D03*
X0663532Y0232824D03*
X0599532Y0232824D03*
X0597564Y0232824D03*
X0595595Y0232824D03*
X0593627Y0232824D03*
X0591658Y0232824D03*
X0591658Y0248276D03*
X0593627Y0248276D03*
X0595595Y0248276D03*
X0597564Y0248276D03*
X0599532Y0248276D03*
D18*
X0603262Y0242068D02*
X0603579Y0242068D01*
X0603896Y0241751D01*
X0603896Y0240800D01*
X0603262Y0240800D01*
X0602945Y0241117D01*
X0602945Y0241751D01*
X0603262Y0242068D01*
X0604530Y0241434D02*
X0603896Y0240800D01*
X0604530Y0241434D02*
X0604847Y0242068D01*
X0604847Y0239858D02*
X0603262Y0239858D01*
X0602945Y0239541D01*
X0602945Y0238907D01*
X0603262Y0238590D01*
X0604847Y0238590D01*
X0667445Y0238436D02*
X0667762Y0238753D01*
X0669347Y0238753D01*
X0668713Y0239695D02*
X0669347Y0240329D01*
X0667445Y0240329D01*
X0667445Y0239695D02*
X0667445Y0240963D01*
X0667762Y0241905D02*
X0667445Y0242222D01*
X0667445Y0242856D01*
X0667762Y0243173D01*
X0668396Y0243173D01*
X0668713Y0242856D01*
X0668713Y0242539D01*
X0668396Y0241905D01*
X0669347Y0241905D01*
X0669347Y0243173D01*
X0667445Y0238436D02*
X0667445Y0237802D01*
X0667762Y0237485D01*
X0669347Y0237485D01*
X0730945Y0237802D02*
X0730945Y0238436D01*
X0731262Y0238753D01*
X0732847Y0238753D01*
X0732530Y0239695D02*
X0732847Y0240012D01*
X0732847Y0240646D01*
X0732530Y0240963D01*
X0732213Y0240963D01*
X0730945Y0239695D01*
X0730945Y0240963D01*
X0730945Y0241905D02*
X0732213Y0243173D01*
X0732530Y0243173D01*
X0732847Y0242856D01*
X0732847Y0242222D01*
X0732530Y0241905D01*
X0730945Y0241905D02*
X0730945Y0243173D01*
X0730945Y0237802D02*
X0731262Y0237485D01*
X0732847Y0237485D01*
X0732262Y0147173D02*
X0731945Y0146856D01*
X0731945Y0146222D01*
X0732262Y0145905D01*
X0733530Y0147173D01*
X0732262Y0147173D01*
X0733530Y0147173D02*
X0733847Y0146856D01*
X0733847Y0146222D01*
X0733530Y0145905D01*
X0732262Y0145905D01*
X0731945Y0144963D02*
X0731945Y0143695D01*
X0733213Y0144963D01*
X0733530Y0144963D01*
X0733847Y0144646D01*
X0733847Y0144012D01*
X0733530Y0143695D01*
X0733847Y0142753D02*
X0732262Y0142753D01*
X0731945Y0142436D01*
X0731945Y0141802D01*
X0732262Y0141485D01*
X0733847Y0141485D01*
X0669847Y0141985D02*
X0668262Y0141985D01*
X0667945Y0142302D01*
X0667945Y0142936D01*
X0668262Y0143253D01*
X0669847Y0143253D01*
X0669213Y0144195D02*
X0669847Y0144829D01*
X0667945Y0144829D01*
X0667945Y0144195D02*
X0667945Y0145463D01*
X0667945Y0146405D02*
X0667945Y0147673D01*
X0667945Y0147039D02*
X0669847Y0147039D01*
X0669213Y0146405D01*
X0605347Y0145751D02*
X0605347Y0145117D01*
X0605030Y0144800D01*
X0605347Y0143858D02*
X0603762Y0143858D01*
X0603445Y0143541D01*
X0603445Y0142907D01*
X0603762Y0142590D01*
X0605347Y0142590D01*
X0603445Y0144800D02*
X0604713Y0146068D01*
X0605030Y0146068D01*
X0605347Y0145751D01*
X0603445Y0146068D02*
X0603445Y0144800D01*
X0604396Y0050068D02*
X0604396Y0048800D01*
X0605347Y0049751D01*
X0603445Y0049751D01*
X0603762Y0047858D02*
X0605347Y0047858D01*
X0605347Y0046590D02*
X0603762Y0046590D01*
X0603445Y0046907D01*
X0603445Y0047541D01*
X0603762Y0047858D01*
X0667445Y0047695D02*
X0667445Y0048963D01*
X0667445Y0048329D02*
X0669347Y0048329D01*
X0668713Y0047695D01*
X0669347Y0046753D02*
X0667762Y0046753D01*
X0667445Y0046436D01*
X0667445Y0045802D01*
X0667762Y0045485D01*
X0669347Y0045485D01*
X0669030Y0049905D02*
X0669347Y0050222D01*
X0669347Y0050856D01*
X0669030Y0051173D01*
X0668713Y0051173D01*
X0668396Y0050856D01*
X0668079Y0051173D01*
X0667762Y0051173D01*
X0667445Y0050856D01*
X0667445Y0050222D01*
X0667762Y0049905D01*
X0668396Y0050539D02*
X0668396Y0050856D01*
D19*
X0646576Y0058459D03*
X0646576Y0061659D03*
X0646614Y0039141D03*
X0646614Y0035941D03*
X0581614Y0035941D03*
X0581614Y0039141D03*
X0553114Y0038641D03*
X0553114Y0035441D03*
X0548614Y0035441D03*
X0548614Y0038641D03*
X0581576Y0057959D03*
X0581576Y0061159D03*
X0428576Y0037659D03*
X0428576Y0034459D03*
X0424076Y0034459D03*
X0424076Y0037659D03*
X0580614Y0131941D03*
X0580614Y0135141D03*
X0581576Y0154459D03*
X0581576Y0157659D03*
X0646576Y0157659D03*
X0646576Y0154459D03*
X0646614Y0135141D03*
X0646614Y0131941D03*
X0710614Y0131941D03*
X0710614Y0135141D03*
X0710576Y0154459D03*
X0710576Y0157659D03*
X0710114Y0228441D03*
X0710114Y0231641D03*
X0710076Y0250459D03*
X0710076Y0253659D03*
X0646076Y0253659D03*
X0646076Y0250459D03*
X0646114Y0231141D03*
X0646114Y0227941D03*
X0582114Y0227941D03*
X0582114Y0231141D03*
X0582076Y0250959D03*
X0582076Y0254159D03*
D20*
X0579448Y0254618D02*
X0578214Y0253383D01*
X0578831Y0252169D02*
X0577597Y0252169D01*
X0576980Y0251552D01*
X0576980Y0249700D01*
X0576980Y0250934D02*
X0575745Y0252169D01*
X0575745Y0253383D02*
X0575745Y0255852D01*
X0575745Y0254618D02*
X0579448Y0254618D01*
X0578831Y0252169D02*
X0579448Y0251552D01*
X0579448Y0249700D01*
X0575745Y0249700D01*
X0572445Y0246786D02*
X0572445Y0244317D01*
X0571828Y0243700D01*
X0570594Y0243700D01*
X0569976Y0244317D01*
X0568762Y0243700D02*
X0566293Y0243700D01*
X0565079Y0243700D02*
X0562610Y0246169D01*
X0562610Y0246786D01*
X0563227Y0247403D01*
X0564462Y0247403D01*
X0565079Y0246786D01*
X0567528Y0247403D02*
X0567528Y0243700D01*
X0565079Y0243700D02*
X0562610Y0243700D01*
X0567528Y0247403D02*
X0568762Y0246169D01*
X0569976Y0246786D02*
X0570594Y0247403D01*
X0571828Y0247403D01*
X0572445Y0246786D01*
X0571828Y0237403D02*
X0570594Y0237403D01*
X0569976Y0236786D01*
X0568762Y0235552D02*
X0567528Y0236786D01*
X0566293Y0237403D01*
X0566910Y0235552D02*
X0568762Y0235552D01*
X0568762Y0234317D01*
X0568145Y0233700D01*
X0566910Y0233700D01*
X0566293Y0234317D01*
X0566293Y0234934D01*
X0566910Y0235552D01*
X0569976Y0234317D02*
X0570594Y0233700D01*
X0571828Y0233700D01*
X0572445Y0234317D01*
X0572445Y0236786D01*
X0571828Y0237403D01*
X0576362Y0231017D02*
X0578831Y0233486D01*
X0579448Y0233486D01*
X0579448Y0231017D01*
X0579448Y0228568D02*
X0575745Y0228568D01*
X0575745Y0227334D02*
X0575745Y0229802D01*
X0575745Y0231017D02*
X0576362Y0231017D01*
X0579448Y0228568D02*
X0578214Y0227334D01*
X0578831Y0226119D02*
X0577597Y0226119D01*
X0576980Y0225502D01*
X0576980Y0223651D01*
X0576980Y0224885D02*
X0575745Y0226119D01*
X0575745Y0223651D02*
X0579448Y0223651D01*
X0579448Y0225502D01*
X0578831Y0226119D01*
X0605745Y0205486D02*
X0605745Y0203017D01*
X0605745Y0201802D02*
X0605745Y0199334D01*
X0608214Y0201802D01*
X0608831Y0201802D01*
X0609448Y0201185D01*
X0609448Y0199951D01*
X0608831Y0199334D01*
X0608831Y0198119D02*
X0609448Y0197502D01*
X0609448Y0196268D01*
X0608831Y0195651D01*
X0606362Y0195651D01*
X0605745Y0196268D01*
X0605745Y0197502D01*
X0606362Y0198119D01*
X0608214Y0203017D02*
X0609448Y0204251D01*
X0605745Y0204251D01*
X0615245Y0203634D02*
X0615862Y0203017D01*
X0615245Y0203634D02*
X0615245Y0204868D01*
X0615862Y0205486D01*
X0617097Y0205486D01*
X0617714Y0204868D01*
X0617714Y0204251D01*
X0617097Y0203017D01*
X0618948Y0203017D01*
X0618948Y0205486D01*
X0618331Y0201802D02*
X0617714Y0201802D01*
X0617097Y0201185D01*
X0616480Y0201802D01*
X0615862Y0201802D01*
X0615245Y0201185D01*
X0615245Y0199951D01*
X0615862Y0199334D01*
X0615245Y0198119D02*
X0616480Y0196885D01*
X0616480Y0197502D02*
X0616480Y0195651D01*
X0615245Y0195651D02*
X0618948Y0195651D01*
X0618948Y0197502D01*
X0618331Y0198119D01*
X0617097Y0198119D01*
X0616480Y0197502D01*
X0618331Y0199334D02*
X0618948Y0199951D01*
X0618948Y0201185D01*
X0618331Y0201802D01*
X0617097Y0201185D02*
X0617097Y0200568D01*
X0619362Y0190535D02*
X0618745Y0189918D01*
X0618745Y0188683D01*
X0619362Y0188066D01*
X0619980Y0188066D01*
X0620597Y0188683D01*
X0620597Y0189918D01*
X0619980Y0190535D01*
X0619362Y0190535D01*
X0620597Y0189918D02*
X0621214Y0190535D01*
X0621831Y0190535D01*
X0622448Y0189918D01*
X0622448Y0188683D01*
X0621831Y0188066D01*
X0621214Y0188066D01*
X0620597Y0188683D01*
X0621214Y0186852D02*
X0620597Y0186235D01*
X0619980Y0186852D01*
X0619362Y0186852D01*
X0618745Y0186235D01*
X0618745Y0185000D01*
X0619362Y0184383D01*
X0618745Y0183169D02*
X0619980Y0181934D01*
X0619980Y0182552D02*
X0619980Y0180700D01*
X0618745Y0180700D02*
X0622448Y0180700D01*
X0622448Y0182552D01*
X0621831Y0183169D01*
X0620597Y0183169D01*
X0619980Y0182552D01*
X0621831Y0184383D02*
X0622448Y0185000D01*
X0622448Y0186235D01*
X0621831Y0186852D01*
X0621214Y0186852D01*
X0620597Y0186235D02*
X0620597Y0185618D01*
X0613448Y0186235D02*
X0613448Y0185000D01*
X0612831Y0184383D01*
X0612831Y0183169D02*
X0613448Y0182552D01*
X0613448Y0181317D01*
X0612831Y0180700D01*
X0610362Y0180700D01*
X0609745Y0181317D01*
X0609745Y0182552D01*
X0610362Y0183169D01*
X0609745Y0184383D02*
X0612214Y0186852D01*
X0612831Y0186852D01*
X0613448Y0186235D01*
X0611597Y0188066D02*
X0611597Y0190535D01*
X0613448Y0189918D02*
X0611597Y0188066D01*
X0609745Y0186852D02*
X0609745Y0184383D01*
X0609745Y0189918D02*
X0613448Y0189918D01*
X0669245Y0196268D02*
X0669245Y0197502D01*
X0669862Y0198119D01*
X0669862Y0199334D02*
X0669245Y0199951D01*
X0669245Y0201185D01*
X0669862Y0201802D01*
X0671097Y0201802D01*
X0671714Y0201185D01*
X0671714Y0200568D01*
X0671097Y0199334D01*
X0672948Y0199334D01*
X0672948Y0201802D01*
X0671714Y0203017D02*
X0672948Y0204251D01*
X0669245Y0204251D01*
X0669245Y0203017D02*
X0669245Y0205486D01*
X0679245Y0203017D02*
X0679862Y0203017D01*
X0682331Y0205486D01*
X0682948Y0205486D01*
X0682948Y0203017D01*
X0682948Y0201185D02*
X0681097Y0199334D01*
X0681097Y0201802D01*
X0682948Y0201185D02*
X0679245Y0201185D01*
X0679245Y0198119D02*
X0680480Y0196885D01*
X0680480Y0197502D02*
X0680480Y0195651D01*
X0679245Y0195651D02*
X0682948Y0195651D01*
X0682948Y0197502D01*
X0682331Y0198119D01*
X0681097Y0198119D01*
X0680480Y0197502D01*
X0672948Y0197502D02*
X0672331Y0198119D01*
X0672948Y0197502D02*
X0672948Y0196268D01*
X0672331Y0195651D01*
X0669862Y0195651D01*
X0669245Y0196268D01*
X0673745Y0189918D02*
X0677448Y0189918D01*
X0675597Y0188066D01*
X0675597Y0190535D01*
X0675597Y0186852D02*
X0674362Y0186852D01*
X0673745Y0186235D01*
X0673745Y0185000D01*
X0674362Y0184383D01*
X0674362Y0183169D02*
X0673745Y0182552D01*
X0673745Y0181317D01*
X0674362Y0180700D01*
X0676831Y0180700D01*
X0677448Y0181317D01*
X0677448Y0182552D01*
X0676831Y0183169D01*
X0677448Y0184383D02*
X0675597Y0184383D01*
X0676214Y0185618D01*
X0676214Y0186235D01*
X0675597Y0186852D01*
X0677448Y0186852D02*
X0677448Y0184383D01*
X0683245Y0185000D02*
X0683862Y0184383D01*
X0683245Y0185000D02*
X0683245Y0186235D01*
X0683862Y0186852D01*
X0685097Y0186852D01*
X0685714Y0186235D01*
X0685714Y0185618D01*
X0685097Y0184383D01*
X0686948Y0184383D01*
X0686948Y0186852D01*
X0686331Y0188066D02*
X0683862Y0188066D01*
X0686331Y0190535D01*
X0683862Y0190535D01*
X0683245Y0189918D01*
X0683245Y0188683D01*
X0683862Y0188066D01*
X0686331Y0188066D02*
X0686948Y0188683D01*
X0686948Y0189918D01*
X0686331Y0190535D01*
X0686331Y0183169D02*
X0685097Y0183169D01*
X0684480Y0182552D01*
X0684480Y0180700D01*
X0684480Y0181934D02*
X0683245Y0183169D01*
X0683245Y0180700D02*
X0686948Y0180700D01*
X0686948Y0182552D01*
X0686331Y0183169D01*
X0733745Y0196268D02*
X0733745Y0197502D01*
X0734362Y0198119D01*
X0734362Y0199334D02*
X0733745Y0199334D01*
X0734362Y0199334D02*
X0736831Y0201802D01*
X0737448Y0201802D01*
X0737448Y0199334D01*
X0736831Y0198119D02*
X0737448Y0197502D01*
X0737448Y0196268D01*
X0736831Y0195651D01*
X0734362Y0195651D01*
X0733745Y0196268D01*
X0744745Y0195651D02*
X0748448Y0195651D01*
X0748448Y0197502D01*
X0747831Y0198119D01*
X0746597Y0198119D01*
X0745980Y0197502D01*
X0745980Y0195651D01*
X0745980Y0196885D02*
X0744745Y0198119D01*
X0745362Y0199334D02*
X0744745Y0199951D01*
X0744745Y0201185D01*
X0745362Y0201802D01*
X0746597Y0201802D01*
X0747214Y0201185D01*
X0747214Y0200568D01*
X0746597Y0199334D01*
X0748448Y0199334D01*
X0748448Y0201802D01*
X0747831Y0203017D02*
X0747214Y0203017D01*
X0746597Y0203634D01*
X0746597Y0205486D01*
X0747831Y0205486D02*
X0745362Y0205486D01*
X0744745Y0204868D01*
X0744745Y0203634D01*
X0745362Y0203017D01*
X0747831Y0203017D02*
X0748448Y0203634D01*
X0748448Y0204868D01*
X0747831Y0205486D01*
X0737448Y0205486D02*
X0737448Y0203017D01*
X0735597Y0203017D01*
X0736214Y0204251D01*
X0736214Y0204868D01*
X0735597Y0205486D01*
X0734362Y0205486D01*
X0733745Y0204868D01*
X0733745Y0203634D01*
X0734362Y0203017D01*
X0738862Y0190535D02*
X0738245Y0189918D01*
X0738245Y0188683D01*
X0738862Y0188066D01*
X0739480Y0188066D01*
X0740097Y0188683D01*
X0740097Y0189918D01*
X0739480Y0190535D01*
X0738862Y0190535D01*
X0740097Y0189918D02*
X0740714Y0190535D01*
X0741331Y0190535D01*
X0741948Y0189918D01*
X0741948Y0188683D01*
X0741331Y0188066D01*
X0740714Y0188066D01*
X0740097Y0188683D01*
X0741331Y0186852D02*
X0738862Y0184383D01*
X0738245Y0184383D01*
X0738862Y0183169D02*
X0738245Y0182552D01*
X0738245Y0181317D01*
X0738862Y0180700D01*
X0741331Y0180700D01*
X0741948Y0181317D01*
X0741948Y0182552D01*
X0741331Y0183169D01*
X0741948Y0184383D02*
X0741948Y0186852D01*
X0741331Y0186852D01*
X0747245Y0186235D02*
X0747862Y0186852D01*
X0748480Y0186852D01*
X0749097Y0186235D01*
X0749097Y0184383D01*
X0747862Y0184383D01*
X0747245Y0185000D01*
X0747245Y0186235D01*
X0747245Y0188066D02*
X0749714Y0190535D01*
X0750331Y0190535D01*
X0750948Y0189918D01*
X0750948Y0188683D01*
X0750331Y0188066D01*
X0750948Y0186852D02*
X0750331Y0185618D01*
X0749097Y0184383D01*
X0749097Y0183169D02*
X0748480Y0182552D01*
X0748480Y0180700D01*
X0748480Y0181934D02*
X0747245Y0183169D01*
X0749097Y0183169D02*
X0750331Y0183169D01*
X0750948Y0182552D01*
X0750948Y0180700D01*
X0747245Y0180700D01*
X0747245Y0188066D02*
X0747245Y0190535D01*
X0707948Y0158235D02*
X0707331Y0158852D01*
X0706714Y0158852D01*
X0706097Y0158235D01*
X0706097Y0157000D01*
X0706714Y0156383D01*
X0707331Y0156383D01*
X0707948Y0157000D01*
X0707948Y0158235D01*
X0706097Y0158235D02*
X0705480Y0158852D01*
X0704862Y0158852D01*
X0704245Y0158235D01*
X0704245Y0157000D01*
X0704862Y0156383D01*
X0705480Y0156383D01*
X0706097Y0157000D01*
X0706097Y0155169D02*
X0705480Y0154552D01*
X0705480Y0152700D01*
X0705480Y0153934D02*
X0704245Y0155169D01*
X0706097Y0155169D02*
X0707331Y0155169D01*
X0707948Y0154552D01*
X0707948Y0152700D01*
X0704245Y0152700D01*
X0700445Y0151286D02*
X0700445Y0148817D01*
X0699828Y0148200D01*
X0698594Y0148200D01*
X0697976Y0148817D01*
X0696762Y0148817D02*
X0696145Y0148200D01*
X0694910Y0148200D01*
X0694293Y0148817D01*
X0694293Y0149434D01*
X0694910Y0150052D01*
X0696762Y0150052D01*
X0696762Y0148817D01*
X0696762Y0150052D02*
X0695528Y0151286D01*
X0694293Y0151903D01*
X0693079Y0150052D02*
X0693079Y0148817D01*
X0692462Y0148200D01*
X0691227Y0148200D01*
X0690610Y0148817D01*
X0690610Y0149434D01*
X0691227Y0150052D01*
X0693079Y0150052D01*
X0691844Y0151286D01*
X0690610Y0151903D01*
X0697976Y0151286D02*
X0698594Y0151903D01*
X0699828Y0151903D01*
X0700445Y0151286D01*
X0699828Y0142403D02*
X0700445Y0141786D01*
X0700445Y0139317D01*
X0699828Y0138700D01*
X0698594Y0138700D01*
X0697976Y0139317D01*
X0696762Y0139317D02*
X0696145Y0138700D01*
X0694910Y0138700D01*
X0694293Y0139317D01*
X0694293Y0139934D01*
X0694910Y0140552D01*
X0696762Y0140552D01*
X0696762Y0139317D01*
X0696762Y0140552D02*
X0695528Y0141786D01*
X0694293Y0142403D01*
X0693079Y0141786D02*
X0692462Y0142403D01*
X0691227Y0142403D01*
X0690610Y0141786D01*
X0690610Y0141169D01*
X0693079Y0138700D01*
X0690610Y0138700D01*
X0697976Y0141786D02*
X0698594Y0142403D01*
X0699828Y0142403D01*
X0704245Y0137368D02*
X0707948Y0137368D01*
X0706097Y0135517D01*
X0706097Y0137986D01*
X0706714Y0134302D02*
X0707331Y0134302D01*
X0707948Y0133685D01*
X0707948Y0132451D01*
X0707331Y0131834D01*
X0707331Y0130619D02*
X0706097Y0130619D01*
X0705480Y0130002D01*
X0705480Y0128151D01*
X0705480Y0129385D02*
X0704245Y0130619D01*
X0704245Y0131834D02*
X0706714Y0134302D01*
X0704245Y0134302D02*
X0704245Y0131834D01*
X0707331Y0130619D02*
X0707948Y0130002D01*
X0707948Y0128151D01*
X0704245Y0128151D01*
X0683448Y0108751D02*
X0679745Y0108751D01*
X0679745Y0107517D02*
X0679745Y0109986D01*
X0682214Y0107517D02*
X0683448Y0108751D01*
X0683448Y0106302D02*
X0683448Y0103834D01*
X0681597Y0103834D01*
X0682214Y0105068D01*
X0682214Y0105685D01*
X0681597Y0106302D01*
X0680362Y0106302D01*
X0679745Y0105685D01*
X0679745Y0104451D01*
X0680362Y0103834D01*
X0679745Y0102619D02*
X0680980Y0101385D01*
X0680980Y0102002D02*
X0680980Y0100151D01*
X0679745Y0100151D02*
X0683448Y0100151D01*
X0683448Y0102002D01*
X0682831Y0102619D01*
X0681597Y0102619D01*
X0680980Y0102002D01*
X0673448Y0101502D02*
X0673448Y0100268D01*
X0672831Y0099651D01*
X0670362Y0099651D01*
X0669745Y0100268D01*
X0669745Y0101502D01*
X0670362Y0102119D01*
X0670362Y0103334D02*
X0669745Y0103951D01*
X0669745Y0105185D01*
X0670362Y0105802D01*
X0671597Y0105802D01*
X0672214Y0105185D01*
X0672214Y0104568D01*
X0671597Y0103334D01*
X0673448Y0103334D01*
X0673448Y0105802D01*
X0673448Y0107017D02*
X0671597Y0107017D01*
X0672214Y0108251D01*
X0672214Y0108868D01*
X0671597Y0109486D01*
X0670362Y0109486D01*
X0669745Y0108868D01*
X0669745Y0107634D01*
X0670362Y0107017D01*
X0673448Y0107017D02*
X0673448Y0109486D01*
X0672831Y0102119D02*
X0673448Y0101502D01*
X0673862Y0094535D02*
X0673245Y0093918D01*
X0673245Y0092683D01*
X0673862Y0092066D01*
X0674480Y0092066D01*
X0675097Y0092683D01*
X0675097Y0093918D01*
X0674480Y0094535D01*
X0673862Y0094535D01*
X0675097Y0093918D02*
X0675714Y0094535D01*
X0676331Y0094535D01*
X0676948Y0093918D01*
X0676948Y0092683D01*
X0676331Y0092066D01*
X0675714Y0092066D01*
X0675097Y0092683D01*
X0675097Y0090852D02*
X0673862Y0090852D01*
X0673245Y0090235D01*
X0673245Y0089000D01*
X0673862Y0088383D01*
X0673862Y0087169D02*
X0673245Y0086552D01*
X0673245Y0085317D01*
X0673862Y0084700D01*
X0676331Y0084700D01*
X0676948Y0085317D01*
X0676948Y0086552D01*
X0676331Y0087169D01*
X0676948Y0088383D02*
X0675097Y0088383D01*
X0675714Y0089618D01*
X0675714Y0090235D01*
X0675097Y0090852D01*
X0676948Y0090852D02*
X0676948Y0088383D01*
X0682745Y0089000D02*
X0683362Y0088383D01*
X0682745Y0089000D02*
X0682745Y0090235D01*
X0683362Y0090852D01*
X0684597Y0090852D01*
X0685214Y0090235D01*
X0685214Y0089618D01*
X0684597Y0088383D01*
X0686448Y0088383D01*
X0686448Y0090852D01*
X0684597Y0092066D02*
X0684597Y0094535D01*
X0686448Y0093918D02*
X0682745Y0093918D01*
X0684597Y0092066D02*
X0686448Y0093918D01*
X0685831Y0087169D02*
X0684597Y0087169D01*
X0683980Y0086552D01*
X0683980Y0084700D01*
X0683980Y0085934D02*
X0682745Y0087169D01*
X0682745Y0084700D02*
X0686448Y0084700D01*
X0686448Y0086552D01*
X0685831Y0087169D01*
X0734245Y0100268D02*
X0734245Y0101502D01*
X0734862Y0102119D01*
X0734862Y0103334D02*
X0734245Y0103334D01*
X0734862Y0103334D02*
X0737331Y0105802D01*
X0737948Y0105802D01*
X0737948Y0103334D01*
X0737331Y0102119D02*
X0737948Y0101502D01*
X0737948Y0100268D01*
X0737331Y0099651D01*
X0734862Y0099651D01*
X0734245Y0100268D01*
X0743745Y0099651D02*
X0747448Y0099651D01*
X0747448Y0101502D01*
X0746831Y0102119D01*
X0745597Y0102119D01*
X0744980Y0101502D01*
X0744980Y0099651D01*
X0744980Y0100885D02*
X0743745Y0102119D01*
X0744362Y0103334D02*
X0743745Y0103951D01*
X0743745Y0105185D01*
X0744362Y0105802D01*
X0744980Y0105802D01*
X0745597Y0105185D01*
X0745597Y0103334D01*
X0744362Y0103334D01*
X0745597Y0103334D02*
X0746831Y0104568D01*
X0747448Y0105802D01*
X0746831Y0107017D02*
X0747448Y0107634D01*
X0747448Y0108868D01*
X0746831Y0109486D01*
X0746214Y0109486D01*
X0745597Y0108868D01*
X0744980Y0109486D01*
X0744362Y0109486D01*
X0743745Y0108868D01*
X0743745Y0107634D01*
X0744362Y0107017D01*
X0745597Y0108251D02*
X0745597Y0108868D01*
X0737948Y0108868D02*
X0737948Y0107634D01*
X0737331Y0107017D01*
X0736714Y0107017D01*
X0736097Y0107634D01*
X0736097Y0109486D01*
X0737331Y0109486D02*
X0737948Y0108868D01*
X0737331Y0109486D02*
X0734862Y0109486D01*
X0734245Y0108868D01*
X0734245Y0107634D01*
X0734862Y0107017D01*
X0643948Y0127651D02*
X0643948Y0129502D01*
X0643331Y0130119D01*
X0642097Y0130119D01*
X0641480Y0129502D01*
X0641480Y0127651D01*
X0641480Y0128885D02*
X0640245Y0130119D01*
X0640245Y0131334D02*
X0642714Y0133802D01*
X0643331Y0133802D01*
X0643948Y0133185D01*
X0643948Y0131951D01*
X0643331Y0131334D01*
X0640245Y0131334D02*
X0640245Y0133802D01*
X0640245Y0135017D02*
X0640245Y0137486D01*
X0640245Y0136251D02*
X0643948Y0136251D01*
X0642714Y0135017D01*
X0636445Y0139317D02*
X0635828Y0138700D01*
X0634594Y0138700D01*
X0633976Y0139317D01*
X0632762Y0139317D02*
X0632145Y0138700D01*
X0630910Y0138700D01*
X0630293Y0139317D01*
X0630293Y0139934D01*
X0630910Y0140552D01*
X0631528Y0140552D01*
X0630910Y0140552D02*
X0630293Y0141169D01*
X0630293Y0141786D01*
X0630910Y0142403D01*
X0632145Y0142403D01*
X0632762Y0141786D01*
X0633976Y0141786D02*
X0634594Y0142403D01*
X0635828Y0142403D01*
X0636445Y0141786D01*
X0636445Y0139317D01*
X0629079Y0139317D02*
X0628462Y0138700D01*
X0627227Y0138700D01*
X0626610Y0139317D01*
X0626610Y0139934D01*
X0627227Y0140552D01*
X0627844Y0140552D01*
X0627227Y0140552D02*
X0626610Y0141169D01*
X0626610Y0141786D01*
X0627227Y0142403D01*
X0628462Y0142403D01*
X0629079Y0141786D01*
X0628462Y0147700D02*
X0629079Y0148317D01*
X0629079Y0148934D01*
X0628462Y0149552D01*
X0627227Y0149552D01*
X0626610Y0148934D01*
X0626610Y0148317D01*
X0627227Y0147700D01*
X0628462Y0147700D01*
X0628462Y0149552D02*
X0629079Y0150169D01*
X0629079Y0150786D01*
X0628462Y0151403D01*
X0627227Y0151403D01*
X0626610Y0150786D01*
X0626610Y0150169D01*
X0627227Y0149552D01*
X0630293Y0150169D02*
X0630910Y0149552D01*
X0630293Y0148934D01*
X0630293Y0148317D01*
X0630910Y0147700D01*
X0632145Y0147700D01*
X0632762Y0148317D01*
X0633976Y0148317D02*
X0634594Y0147700D01*
X0635828Y0147700D01*
X0636445Y0148317D01*
X0636445Y0150786D01*
X0635828Y0151403D01*
X0634594Y0151403D01*
X0633976Y0150786D01*
X0632762Y0150786D02*
X0632145Y0151403D01*
X0630910Y0151403D01*
X0630293Y0150786D01*
X0630293Y0150169D01*
X0630910Y0149552D02*
X0631528Y0149552D01*
X0640245Y0152700D02*
X0643948Y0152700D01*
X0643948Y0154552D01*
X0643331Y0155169D01*
X0642097Y0155169D01*
X0641480Y0154552D01*
X0641480Y0152700D01*
X0641480Y0153934D02*
X0640245Y0155169D01*
X0640862Y0156383D02*
X0640245Y0157000D01*
X0640245Y0158235D01*
X0640862Y0158852D01*
X0642097Y0158852D01*
X0642714Y0158235D01*
X0642714Y0157618D01*
X0642097Y0156383D01*
X0643948Y0156383D01*
X0643948Y0158852D01*
X0578948Y0157735D02*
X0578948Y0156500D01*
X0578331Y0155883D01*
X0578331Y0154669D02*
X0577097Y0154669D01*
X0576480Y0154052D01*
X0576480Y0152200D01*
X0576480Y0153434D02*
X0575245Y0154669D01*
X0575245Y0155883D02*
X0577714Y0158352D01*
X0578331Y0158352D01*
X0578948Y0157735D01*
X0578331Y0154669D02*
X0578948Y0154052D01*
X0578948Y0152200D01*
X0575245Y0152200D01*
X0572445Y0150286D02*
X0572445Y0147817D01*
X0571828Y0147200D01*
X0570594Y0147200D01*
X0569976Y0147817D01*
X0568762Y0147817D02*
X0568762Y0148434D01*
X0568145Y0149052D01*
X0566910Y0149052D01*
X0566293Y0148434D01*
X0566293Y0147817D01*
X0566910Y0147200D01*
X0568145Y0147200D01*
X0568762Y0147817D01*
X0568145Y0149052D02*
X0568762Y0149669D01*
X0568762Y0150286D01*
X0568145Y0150903D01*
X0566910Y0150903D01*
X0566293Y0150286D01*
X0566293Y0149669D01*
X0566910Y0149052D01*
X0569976Y0150286D02*
X0570594Y0150903D01*
X0571828Y0150903D01*
X0572445Y0150286D01*
X0575245Y0155883D02*
X0575245Y0158352D01*
X0571828Y0141903D02*
X0570594Y0141903D01*
X0569976Y0141286D01*
X0568762Y0141286D02*
X0568145Y0141903D01*
X0566910Y0141903D01*
X0566293Y0141286D01*
X0566293Y0140669D01*
X0566910Y0140052D01*
X0566293Y0139434D01*
X0566293Y0138817D01*
X0566910Y0138200D01*
X0568145Y0138200D01*
X0568762Y0138817D01*
X0569976Y0138817D02*
X0570594Y0138200D01*
X0571828Y0138200D01*
X0572445Y0138817D01*
X0572445Y0141286D01*
X0571828Y0141903D01*
X0574362Y0137986D02*
X0573745Y0137368D01*
X0573745Y0136134D01*
X0574362Y0135517D01*
X0574980Y0135517D01*
X0575597Y0136134D01*
X0575597Y0137368D01*
X0574980Y0137986D01*
X0574362Y0137986D01*
X0575597Y0137368D02*
X0576214Y0137986D01*
X0576831Y0137986D01*
X0577448Y0137368D01*
X0577448Y0136134D01*
X0576831Y0135517D01*
X0576214Y0135517D01*
X0575597Y0136134D01*
X0573745Y0134302D02*
X0573745Y0131834D01*
X0573745Y0130619D02*
X0574980Y0129385D01*
X0574980Y0130002D02*
X0574980Y0128151D01*
X0573745Y0128151D02*
X0577448Y0128151D01*
X0577448Y0130002D01*
X0576831Y0130619D01*
X0575597Y0130619D01*
X0574980Y0130002D01*
X0576214Y0131834D02*
X0577448Y0133068D01*
X0573745Y0133068D01*
X0567528Y0140052D02*
X0566910Y0140052D01*
X0640245Y0127651D02*
X0643948Y0127651D01*
X0619448Y0108868D02*
X0619448Y0107634D01*
X0618831Y0107017D01*
X0618214Y0107017D01*
X0617597Y0107634D01*
X0617597Y0109486D01*
X0618831Y0109486D02*
X0619448Y0108868D01*
X0618831Y0109486D02*
X0616362Y0109486D01*
X0615745Y0108868D01*
X0615745Y0107634D01*
X0616362Y0107017D01*
X0616362Y0105802D02*
X0615745Y0105185D01*
X0615745Y0103951D01*
X0616362Y0103334D01*
X0615745Y0102119D02*
X0616980Y0100885D01*
X0616980Y0101502D02*
X0616980Y0099651D01*
X0615745Y0099651D02*
X0619448Y0099651D01*
X0619448Y0101502D01*
X0618831Y0102119D01*
X0617597Y0102119D01*
X0616980Y0101502D01*
X0618831Y0103334D02*
X0619448Y0103951D01*
X0619448Y0105185D01*
X0618831Y0105802D01*
X0618214Y0105802D01*
X0617597Y0105185D01*
X0616980Y0105802D01*
X0616362Y0105802D01*
X0617597Y0105185D02*
X0617597Y0104568D01*
X0609448Y0103951D02*
X0608831Y0103334D01*
X0609448Y0103951D02*
X0609448Y0105185D01*
X0608831Y0105802D01*
X0608214Y0105802D01*
X0605745Y0103334D01*
X0605745Y0105802D01*
X0606362Y0107017D02*
X0605745Y0107634D01*
X0605745Y0108868D01*
X0606362Y0109486D01*
X0607597Y0109486D01*
X0608214Y0108868D01*
X0608214Y0108251D01*
X0607597Y0107017D01*
X0609448Y0107017D01*
X0609448Y0109486D01*
X0608831Y0102119D02*
X0609448Y0101502D01*
X0609448Y0100268D01*
X0608831Y0099651D01*
X0606362Y0099651D01*
X0605745Y0100268D01*
X0605745Y0101502D01*
X0606362Y0102119D01*
X0610862Y0094535D02*
X0610245Y0093918D01*
X0610245Y0092683D01*
X0610862Y0092066D01*
X0611480Y0092066D01*
X0612097Y0092683D01*
X0612097Y0093918D01*
X0611480Y0094535D01*
X0610862Y0094535D01*
X0612097Y0093918D02*
X0612714Y0094535D01*
X0613331Y0094535D01*
X0613948Y0093918D01*
X0613948Y0092683D01*
X0613331Y0092066D01*
X0612714Y0092066D01*
X0612097Y0092683D01*
X0612714Y0090852D02*
X0613331Y0090852D01*
X0613948Y0090235D01*
X0613948Y0089000D01*
X0613331Y0088383D01*
X0613331Y0087169D02*
X0613948Y0086552D01*
X0613948Y0085317D01*
X0613331Y0084700D01*
X0610862Y0084700D01*
X0610245Y0085317D01*
X0610245Y0086552D01*
X0610862Y0087169D01*
X0610245Y0088383D02*
X0612714Y0090852D01*
X0610245Y0090852D02*
X0610245Y0088383D01*
X0619245Y0087169D02*
X0620480Y0085934D01*
X0620480Y0086552D02*
X0620480Y0084700D01*
X0619245Y0084700D02*
X0622948Y0084700D01*
X0622948Y0086552D01*
X0622331Y0087169D01*
X0621097Y0087169D01*
X0620480Y0086552D01*
X0621097Y0088383D02*
X0621097Y0090852D01*
X0622331Y0092066D02*
X0622948Y0092683D01*
X0622948Y0093918D01*
X0622331Y0094535D01*
X0621714Y0094535D01*
X0619245Y0092066D01*
X0619245Y0094535D01*
X0619245Y0090235D02*
X0622948Y0090235D01*
X0621097Y0088383D01*
X0640862Y0062852D02*
X0641480Y0062852D01*
X0642097Y0062235D01*
X0642097Y0060383D01*
X0640862Y0060383D01*
X0640245Y0061000D01*
X0640245Y0062235D01*
X0640862Y0062852D01*
X0643331Y0061618D02*
X0642097Y0060383D01*
X0642097Y0059169D02*
X0641480Y0058552D01*
X0641480Y0056700D01*
X0641480Y0057934D02*
X0640245Y0059169D01*
X0642097Y0059169D02*
X0643331Y0059169D01*
X0643948Y0058552D01*
X0643948Y0056700D01*
X0640245Y0056700D01*
X0636445Y0054286D02*
X0636445Y0051817D01*
X0635828Y0051200D01*
X0634594Y0051200D01*
X0633976Y0051817D01*
X0632762Y0053052D02*
X0630293Y0053052D01*
X0629079Y0054286D02*
X0628462Y0054903D01*
X0627227Y0054903D01*
X0626610Y0054286D01*
X0629079Y0051817D01*
X0628462Y0051200D01*
X0627227Y0051200D01*
X0626610Y0051817D01*
X0626610Y0054286D01*
X0629079Y0054286D02*
X0629079Y0051817D01*
X0630910Y0051200D02*
X0630910Y0054903D01*
X0632762Y0053052D01*
X0633976Y0054286D02*
X0634594Y0054903D01*
X0635828Y0054903D01*
X0636445Y0054286D01*
X0635828Y0045903D02*
X0636445Y0045286D01*
X0636445Y0042817D01*
X0635828Y0042200D01*
X0634594Y0042200D01*
X0633976Y0042817D01*
X0632762Y0042817D02*
X0632145Y0042200D01*
X0630910Y0042200D01*
X0630293Y0042817D01*
X0630293Y0043434D01*
X0630910Y0044052D01*
X0631528Y0044052D01*
X0630910Y0044052D02*
X0630293Y0044669D01*
X0630293Y0045286D01*
X0630910Y0045903D01*
X0632145Y0045903D01*
X0632762Y0045286D01*
X0633976Y0045286D02*
X0634594Y0045903D01*
X0635828Y0045903D01*
X0629079Y0044052D02*
X0626610Y0044052D01*
X0627227Y0045903D02*
X0629079Y0044052D01*
X0627227Y0045903D02*
X0627227Y0042200D01*
X0640245Y0040986D02*
X0640245Y0038517D01*
X0642714Y0040986D01*
X0643331Y0040986D01*
X0643948Y0040368D01*
X0643948Y0039134D01*
X0643331Y0038517D01*
X0643331Y0037302D02*
X0643948Y0036685D01*
X0643948Y0035451D01*
X0643331Y0034834D01*
X0643331Y0033619D02*
X0642097Y0033619D01*
X0641480Y0033002D01*
X0641480Y0031151D01*
X0641480Y0032385D02*
X0640245Y0033619D01*
X0640245Y0034834D02*
X0642714Y0037302D01*
X0643331Y0037302D01*
X0640245Y0037302D02*
X0640245Y0034834D01*
X0643331Y0033619D02*
X0643948Y0033002D01*
X0643948Y0031151D01*
X0640245Y0031151D01*
X0619448Y0012868D02*
X0618831Y0013486D01*
X0618214Y0013486D01*
X0617597Y0012868D01*
X0616980Y0013486D01*
X0616362Y0013486D01*
X0615745Y0012868D01*
X0615745Y0011634D01*
X0616362Y0011017D01*
X0617597Y0009802D02*
X0617597Y0007334D01*
X0619448Y0009185D01*
X0615745Y0009185D01*
X0615745Y0006119D02*
X0616980Y0004885D01*
X0616980Y0005502D02*
X0616980Y0003651D01*
X0615745Y0003651D02*
X0619448Y0003651D01*
X0619448Y0005502D01*
X0618831Y0006119D01*
X0617597Y0006119D01*
X0616980Y0005502D01*
X0609448Y0005502D02*
X0609448Y0004268D01*
X0608831Y0003651D01*
X0606362Y0003651D01*
X0605745Y0004268D01*
X0605745Y0005502D01*
X0606362Y0006119D01*
X0605745Y0007334D02*
X0608214Y0009802D01*
X0608831Y0009802D01*
X0609448Y0009185D01*
X0609448Y0007951D01*
X0608831Y0007334D01*
X0608831Y0006119D02*
X0609448Y0005502D01*
X0605745Y0007334D02*
X0605745Y0009802D01*
X0606362Y0011017D02*
X0605745Y0011634D01*
X0605745Y0012868D01*
X0606362Y0013486D01*
X0608831Y0013486D01*
X0609448Y0012868D01*
X0609448Y0011634D01*
X0608831Y0011017D01*
X0608214Y0011017D01*
X0607597Y0011634D01*
X0607597Y0013486D01*
X0617597Y0012868D02*
X0617597Y0012251D01*
X0618831Y0011017D02*
X0619448Y0011634D01*
X0619448Y0012868D01*
X0578948Y0031151D02*
X0578948Y0033002D01*
X0578331Y0033619D01*
X0577097Y0033619D01*
X0576480Y0033002D01*
X0576480Y0031151D01*
X0576480Y0032385D02*
X0575245Y0033619D01*
X0575245Y0034834D02*
X0575245Y0037302D01*
X0575245Y0036068D02*
X0578948Y0036068D01*
X0577714Y0034834D01*
X0577714Y0038517D02*
X0577097Y0039134D01*
X0577097Y0040986D01*
X0578331Y0040986D02*
X0578948Y0040368D01*
X0578948Y0039134D01*
X0578331Y0038517D01*
X0577714Y0038517D01*
X0575862Y0038517D02*
X0575245Y0039134D01*
X0575245Y0040368D01*
X0575862Y0040986D01*
X0578331Y0040986D01*
X0572445Y0043317D02*
X0571828Y0042700D01*
X0570594Y0042700D01*
X0569976Y0043317D01*
X0568762Y0044552D02*
X0566293Y0044552D01*
X0566910Y0046403D02*
X0568762Y0044552D01*
X0569976Y0045786D02*
X0570594Y0046403D01*
X0571828Y0046403D01*
X0572445Y0045786D01*
X0572445Y0043317D01*
X0566910Y0042700D02*
X0566910Y0046403D01*
X0566293Y0053200D02*
X0568762Y0053200D01*
X0567528Y0053200D02*
X0567528Y0056903D01*
X0568762Y0055669D01*
X0569976Y0056286D02*
X0570594Y0056903D01*
X0571828Y0056903D01*
X0572445Y0056286D01*
X0572445Y0053817D01*
X0571828Y0053200D01*
X0570594Y0053200D01*
X0569976Y0053817D01*
X0565079Y0053817D02*
X0562610Y0056286D01*
X0562610Y0053817D01*
X0563227Y0053200D01*
X0564462Y0053200D01*
X0565079Y0053817D01*
X0565079Y0056286D01*
X0564462Y0056903D01*
X0563227Y0056903D01*
X0562610Y0056286D01*
X0575245Y0056700D02*
X0578948Y0056700D01*
X0578948Y0058552D01*
X0578331Y0059169D01*
X0577097Y0059169D01*
X0576480Y0058552D01*
X0576480Y0056700D01*
X0576480Y0057934D02*
X0575245Y0059169D01*
X0575862Y0060383D02*
X0575245Y0061000D01*
X0575245Y0062235D01*
X0575862Y0062852D01*
X0576480Y0062852D01*
X0577097Y0062235D01*
X0577097Y0061618D01*
X0577097Y0062235D02*
X0577714Y0062852D01*
X0578331Y0062852D01*
X0578948Y0062235D01*
X0578948Y0061000D01*
X0578331Y0060383D01*
X0643331Y0061618D02*
X0643948Y0062852D01*
X0578948Y0031151D02*
X0575245Y0031151D01*
X0554948Y0028986D02*
X0554331Y0027751D01*
X0553097Y0026517D01*
X0553097Y0028368D01*
X0552480Y0028986D01*
X0551862Y0028986D01*
X0551245Y0028368D01*
X0551245Y0027134D01*
X0551862Y0026517D01*
X0553097Y0026517D01*
X0553714Y0025302D02*
X0553097Y0024685D01*
X0553097Y0023451D01*
X0553714Y0022834D01*
X0554331Y0022834D01*
X0554948Y0023451D01*
X0554948Y0024685D01*
X0554331Y0025302D01*
X0553714Y0025302D01*
X0553097Y0024685D02*
X0552480Y0025302D01*
X0551862Y0025302D01*
X0551245Y0024685D01*
X0551245Y0023451D01*
X0551862Y0022834D01*
X0552480Y0022834D01*
X0553097Y0023451D01*
X0554331Y0021619D02*
X0554948Y0021002D01*
X0554948Y0019768D01*
X0554331Y0019151D01*
X0551862Y0019151D01*
X0551245Y0019768D01*
X0551245Y0021002D01*
X0551862Y0021619D01*
X0549948Y0021002D02*
X0549948Y0019768D01*
X0549331Y0019151D01*
X0546862Y0019151D01*
X0546245Y0019768D01*
X0546245Y0021002D01*
X0546862Y0021619D01*
X0546862Y0022834D02*
X0547480Y0022834D01*
X0548097Y0023451D01*
X0548097Y0024685D01*
X0547480Y0025302D01*
X0546862Y0025302D01*
X0546245Y0024685D01*
X0546245Y0023451D01*
X0546862Y0022834D01*
X0548097Y0023451D02*
X0548714Y0022834D01*
X0549331Y0022834D01*
X0549948Y0023451D01*
X0549948Y0024685D01*
X0549331Y0025302D01*
X0548714Y0025302D01*
X0548097Y0024685D01*
X0548097Y0026517D02*
X0548097Y0028986D01*
X0549948Y0028368D02*
X0548097Y0026517D01*
X0549948Y0028368D02*
X0546245Y0028368D01*
X0543948Y0027918D02*
X0543948Y0026683D01*
X0543331Y0026066D01*
X0543331Y0024852D02*
X0542714Y0024852D01*
X0542097Y0024235D01*
X0542097Y0023000D01*
X0542714Y0022383D01*
X0543331Y0022383D01*
X0543948Y0023000D01*
X0543948Y0024235D01*
X0543331Y0024852D01*
X0542097Y0024235D02*
X0541480Y0024852D01*
X0540862Y0024852D01*
X0540245Y0024235D01*
X0540245Y0023000D01*
X0540862Y0022383D01*
X0541480Y0022383D01*
X0542097Y0023000D01*
X0543331Y0021169D02*
X0543948Y0020552D01*
X0543948Y0019317D01*
X0543331Y0018700D01*
X0540862Y0018700D01*
X0540245Y0019317D01*
X0540245Y0020552D01*
X0540862Y0021169D01*
X0540245Y0026066D02*
X0542714Y0028535D01*
X0543331Y0028535D01*
X0543948Y0027918D01*
X0540245Y0028535D02*
X0540245Y0026066D01*
X0549331Y0021619D02*
X0549948Y0021002D01*
X0430948Y0021052D02*
X0430948Y0019817D01*
X0430331Y0019200D01*
X0427862Y0019200D01*
X0427245Y0019817D01*
X0427245Y0021052D01*
X0427862Y0021669D01*
X0427862Y0022883D02*
X0428480Y0022883D01*
X0429097Y0023500D01*
X0429097Y0024735D01*
X0428480Y0025352D01*
X0427862Y0025352D01*
X0427245Y0024735D01*
X0427245Y0023500D01*
X0427862Y0022883D01*
X0429097Y0023500D02*
X0429714Y0022883D01*
X0430331Y0022883D01*
X0430948Y0023500D01*
X0430948Y0024735D01*
X0430331Y0025352D01*
X0429714Y0025352D01*
X0429097Y0024735D01*
X0429097Y0026566D02*
X0429714Y0027801D01*
X0429714Y0028418D01*
X0429097Y0029035D01*
X0427862Y0029035D01*
X0427245Y0028418D01*
X0427245Y0027183D01*
X0427862Y0026566D01*
X0429097Y0026566D02*
X0430948Y0026566D01*
X0430948Y0029035D01*
X0426448Y0028418D02*
X0426448Y0027183D01*
X0425831Y0026566D01*
X0425831Y0025352D02*
X0425214Y0025352D01*
X0424597Y0024735D01*
X0424597Y0023500D01*
X0425214Y0022883D01*
X0425831Y0022883D01*
X0426448Y0023500D01*
X0426448Y0024735D01*
X0425831Y0025352D01*
X0424597Y0024735D02*
X0423980Y0025352D01*
X0423362Y0025352D01*
X0422745Y0024735D01*
X0422745Y0023500D01*
X0423362Y0022883D01*
X0423980Y0022883D01*
X0424597Y0023500D01*
X0425831Y0021669D02*
X0426448Y0021052D01*
X0426448Y0019817D01*
X0425831Y0019200D01*
X0423362Y0019200D01*
X0422745Y0019817D01*
X0422745Y0021052D01*
X0423362Y0021669D01*
X0419448Y0022500D02*
X0419448Y0023735D01*
X0418831Y0024352D01*
X0418214Y0024352D01*
X0417597Y0023735D01*
X0417597Y0022500D01*
X0418214Y0021883D01*
X0418831Y0021883D01*
X0419448Y0022500D01*
X0417597Y0022500D02*
X0416980Y0021883D01*
X0416362Y0021883D01*
X0415745Y0022500D01*
X0415745Y0023735D01*
X0416362Y0024352D01*
X0416980Y0024352D01*
X0417597Y0023735D01*
X0418214Y0025566D02*
X0419448Y0026801D01*
X0415745Y0026801D01*
X0415745Y0028035D02*
X0415745Y0025566D01*
X0422745Y0027183D02*
X0422745Y0028418D01*
X0423362Y0029035D01*
X0423980Y0029035D01*
X0424597Y0028418D01*
X0424597Y0027801D01*
X0424597Y0028418D02*
X0425214Y0029035D01*
X0425831Y0029035D01*
X0426448Y0028418D01*
X0423362Y0026566D02*
X0422745Y0027183D01*
X0430331Y0021669D02*
X0430948Y0021052D01*
X0419448Y0020052D02*
X0419448Y0018817D01*
X0418831Y0018200D01*
X0416362Y0018200D01*
X0415745Y0018817D01*
X0415745Y0020052D01*
X0416362Y0020669D01*
X0418831Y0020669D02*
X0419448Y0020052D01*
X0671245Y0012868D02*
X0671862Y0013486D01*
X0674331Y0013486D01*
X0674948Y0012868D01*
X0674948Y0011634D01*
X0674331Y0011017D01*
X0673714Y0011017D01*
X0673097Y0011634D01*
X0673097Y0013486D01*
X0671245Y0012868D02*
X0671245Y0011634D01*
X0671862Y0011017D01*
X0671862Y0009802D02*
X0671245Y0009185D01*
X0671245Y0007951D01*
X0671862Y0007334D01*
X0671862Y0006119D02*
X0671245Y0005502D01*
X0671245Y0004268D01*
X0671862Y0003651D01*
X0674331Y0003651D01*
X0674948Y0004268D01*
X0674948Y0005502D01*
X0674331Y0006119D01*
X0674948Y0007334D02*
X0673097Y0007334D01*
X0673714Y0008568D01*
X0673714Y0009185D01*
X0673097Y0009802D01*
X0671862Y0009802D01*
X0674948Y0009802D02*
X0674948Y0007334D01*
X0680245Y0007951D02*
X0680862Y0007334D01*
X0680245Y0007951D02*
X0680245Y0009185D01*
X0680862Y0009802D01*
X0682097Y0009802D01*
X0682714Y0009185D01*
X0682714Y0008568D01*
X0682097Y0007334D01*
X0683948Y0007334D01*
X0683948Y0009802D01*
X0683948Y0011017D02*
X0682097Y0011017D01*
X0682714Y0012251D01*
X0682714Y0012868D01*
X0682097Y0013486D01*
X0680862Y0013486D01*
X0680245Y0012868D01*
X0680245Y0011634D01*
X0680862Y0011017D01*
X0683948Y0011017D02*
X0683948Y0013486D01*
X0683331Y0006119D02*
X0682097Y0006119D01*
X0681480Y0005502D01*
X0681480Y0003651D01*
X0681480Y0004885D02*
X0680245Y0006119D01*
X0680245Y0003651D02*
X0683948Y0003651D01*
X0683948Y0005502D01*
X0683331Y0006119D01*
X0703245Y0224151D02*
X0706948Y0224151D01*
X0706948Y0226002D01*
X0706331Y0226619D01*
X0705097Y0226619D01*
X0704480Y0226002D01*
X0704480Y0224151D01*
X0704480Y0225385D02*
X0703245Y0226619D01*
X0703245Y0227834D02*
X0705714Y0230302D01*
X0706331Y0230302D01*
X0706948Y0229685D01*
X0706948Y0228451D01*
X0706331Y0227834D01*
X0703245Y0227834D02*
X0703245Y0230302D01*
X0703862Y0231517D02*
X0703245Y0232134D01*
X0703245Y0233368D01*
X0703862Y0233986D01*
X0704480Y0233986D01*
X0705097Y0233368D01*
X0705097Y0232751D01*
X0705097Y0233368D02*
X0705714Y0233986D01*
X0706331Y0233986D01*
X0706948Y0233368D01*
X0706948Y0232134D01*
X0706331Y0231517D01*
X0700445Y0235317D02*
X0699828Y0234700D01*
X0698594Y0234700D01*
X0697976Y0235317D01*
X0696762Y0235317D02*
X0696145Y0234700D01*
X0694910Y0234700D01*
X0694293Y0235317D01*
X0694293Y0235934D01*
X0694910Y0236552D01*
X0696762Y0236552D01*
X0696762Y0235317D01*
X0696762Y0236552D02*
X0695528Y0237786D01*
X0694293Y0238403D01*
X0693079Y0236552D02*
X0690610Y0236552D01*
X0691227Y0238403D02*
X0693079Y0236552D01*
X0691227Y0238403D02*
X0691227Y0234700D01*
X0697976Y0237786D02*
X0698594Y0238403D01*
X0699828Y0238403D01*
X0700445Y0237786D01*
X0700445Y0235317D01*
X0699828Y0243700D02*
X0698594Y0243700D01*
X0697976Y0244317D01*
X0696762Y0244317D02*
X0696145Y0243700D01*
X0694910Y0243700D01*
X0694293Y0244317D01*
X0694293Y0244934D01*
X0694910Y0245552D01*
X0696762Y0245552D01*
X0696762Y0244317D01*
X0696762Y0245552D02*
X0695528Y0246786D01*
X0694293Y0247403D01*
X0693079Y0246786D02*
X0693079Y0246169D01*
X0692462Y0245552D01*
X0691227Y0245552D01*
X0690610Y0244934D01*
X0690610Y0244317D01*
X0691227Y0243700D01*
X0692462Y0243700D01*
X0693079Y0244317D01*
X0693079Y0244934D01*
X0692462Y0245552D01*
X0691227Y0245552D02*
X0690610Y0246169D01*
X0690610Y0246786D01*
X0691227Y0247403D01*
X0692462Y0247403D01*
X0693079Y0246786D01*
X0697976Y0246786D02*
X0698594Y0247403D01*
X0699828Y0247403D01*
X0700445Y0246786D01*
X0700445Y0244317D01*
X0699828Y0243700D01*
X0703745Y0248200D02*
X0707448Y0248200D01*
X0707448Y0250052D01*
X0706831Y0250669D01*
X0705597Y0250669D01*
X0704980Y0250052D01*
X0704980Y0248200D01*
X0704980Y0249434D02*
X0703745Y0250669D01*
X0703745Y0251883D02*
X0704362Y0251883D01*
X0706831Y0254352D01*
X0707448Y0254352D01*
X0707448Y0251883D01*
X0685948Y0276700D02*
X0682245Y0276700D01*
X0683480Y0276700D02*
X0683480Y0278552D01*
X0684097Y0279169D01*
X0685331Y0279169D01*
X0685948Y0278552D01*
X0685948Y0276700D01*
X0683480Y0277934D02*
X0682245Y0279169D01*
X0684097Y0280383D02*
X0684097Y0282852D01*
X0684097Y0284066D02*
X0684097Y0285918D01*
X0683480Y0286535D01*
X0682862Y0286535D01*
X0682245Y0285918D01*
X0682245Y0284683D01*
X0682862Y0284066D01*
X0684097Y0284066D01*
X0685331Y0285301D01*
X0685948Y0286535D01*
X0685948Y0282235D02*
X0682245Y0282235D01*
X0684097Y0280383D02*
X0685948Y0282235D01*
X0677448Y0282852D02*
X0677448Y0280383D01*
X0675597Y0280383D01*
X0676214Y0281618D01*
X0676214Y0282235D01*
X0675597Y0282852D01*
X0674362Y0282852D01*
X0673745Y0282235D01*
X0673745Y0281000D01*
X0674362Y0280383D01*
X0674362Y0279169D02*
X0673745Y0278552D01*
X0673745Y0277317D01*
X0674362Y0276700D01*
X0676831Y0276700D01*
X0677448Y0277317D01*
X0677448Y0278552D01*
X0676831Y0279169D01*
X0676831Y0284066D02*
X0674362Y0284066D01*
X0676831Y0286535D01*
X0674362Y0286535D01*
X0673745Y0285918D01*
X0673745Y0284683D01*
X0674362Y0284066D01*
X0676831Y0284066D02*
X0677448Y0284683D01*
X0677448Y0285918D01*
X0676831Y0286535D01*
X0736245Y0285418D02*
X0739948Y0285418D01*
X0738097Y0283566D01*
X0738097Y0286035D01*
X0739331Y0282352D02*
X0736862Y0279883D01*
X0736245Y0279883D01*
X0736862Y0278669D02*
X0736245Y0278052D01*
X0736245Y0276817D01*
X0736862Y0276200D01*
X0739331Y0276200D01*
X0739948Y0276817D01*
X0739948Y0278052D01*
X0739331Y0278669D01*
X0739948Y0279883D02*
X0739948Y0282352D01*
X0739331Y0282352D01*
X0746245Y0281735D02*
X0746245Y0280500D01*
X0746862Y0279883D01*
X0748097Y0279883D02*
X0748714Y0281118D01*
X0748714Y0281735D01*
X0748097Y0282352D01*
X0746862Y0282352D01*
X0746245Y0281735D01*
X0746862Y0283566D02*
X0746245Y0284183D01*
X0746245Y0285418D01*
X0746862Y0286035D01*
X0747480Y0286035D01*
X0748097Y0285418D01*
X0748097Y0284183D01*
X0748714Y0283566D01*
X0749331Y0283566D01*
X0749948Y0284183D01*
X0749948Y0285418D01*
X0749331Y0286035D01*
X0748714Y0286035D01*
X0748097Y0285418D01*
X0748097Y0284183D02*
X0747480Y0283566D01*
X0746862Y0283566D01*
X0749948Y0282352D02*
X0749948Y0279883D01*
X0748097Y0279883D01*
X0748097Y0278669D02*
X0747480Y0278052D01*
X0747480Y0276200D01*
X0747480Y0277434D02*
X0746245Y0278669D01*
X0748097Y0278669D02*
X0749331Y0278669D01*
X0749948Y0278052D01*
X0749948Y0276200D01*
X0746245Y0276200D01*
X0643448Y0254735D02*
X0641597Y0252883D01*
X0641597Y0255352D01*
X0643448Y0254735D02*
X0639745Y0254735D01*
X0639745Y0251669D02*
X0640980Y0250434D01*
X0640980Y0251052D02*
X0640980Y0249200D01*
X0639745Y0249200D02*
X0643448Y0249200D01*
X0643448Y0251052D01*
X0642831Y0251669D01*
X0641597Y0251669D01*
X0640980Y0251052D01*
X0635945Y0246786D02*
X0635945Y0244317D01*
X0635328Y0243700D01*
X0634094Y0243700D01*
X0633476Y0244317D01*
X0632262Y0245552D02*
X0630410Y0247403D01*
X0630410Y0243700D01*
X0628579Y0243700D02*
X0626110Y0246169D01*
X0626110Y0246786D01*
X0626727Y0247403D01*
X0627962Y0247403D01*
X0628579Y0246786D01*
X0629793Y0245552D02*
X0632262Y0245552D01*
X0633476Y0246786D02*
X0634094Y0247403D01*
X0635328Y0247403D01*
X0635945Y0246786D01*
X0628579Y0243700D02*
X0626110Y0243700D01*
X0626110Y0238403D02*
X0627344Y0237786D01*
X0628579Y0236552D01*
X0626727Y0236552D01*
X0626110Y0235934D01*
X0626110Y0235317D01*
X0626727Y0234700D01*
X0627962Y0234700D01*
X0628579Y0235317D01*
X0628579Y0236552D01*
X0629793Y0237169D02*
X0630410Y0236552D01*
X0629793Y0235934D01*
X0629793Y0235317D01*
X0630410Y0234700D01*
X0631645Y0234700D01*
X0632262Y0235317D01*
X0633476Y0235317D02*
X0634094Y0234700D01*
X0635328Y0234700D01*
X0635945Y0235317D01*
X0635945Y0237786D01*
X0635328Y0238403D01*
X0634094Y0238403D01*
X0633476Y0237786D01*
X0632262Y0237786D02*
X0631645Y0238403D01*
X0630410Y0238403D01*
X0629793Y0237786D01*
X0629793Y0237169D01*
X0630410Y0236552D02*
X0631028Y0236552D01*
X0634362Y0232486D02*
X0633745Y0231868D01*
X0633745Y0230634D01*
X0634362Y0230017D01*
X0636831Y0232486D01*
X0634362Y0232486D01*
X0636831Y0232486D02*
X0637448Y0231868D01*
X0637448Y0230634D01*
X0636831Y0230017D01*
X0634362Y0230017D01*
X0633745Y0228802D02*
X0633745Y0226334D01*
X0636214Y0228802D01*
X0636831Y0228802D01*
X0637448Y0228185D01*
X0637448Y0226951D01*
X0636831Y0226334D01*
X0636831Y0225119D02*
X0635597Y0225119D01*
X0634980Y0224502D01*
X0634980Y0222651D01*
X0634980Y0223885D02*
X0633745Y0225119D01*
X0633745Y0222651D02*
X0637448Y0222651D01*
X0637448Y0224502D01*
X0636831Y0225119D01*
X0621948Y0276700D02*
X0621948Y0278552D01*
X0621331Y0279169D01*
X0620097Y0279169D01*
X0619480Y0278552D01*
X0619480Y0276700D01*
X0619480Y0277934D02*
X0618245Y0279169D01*
X0618862Y0280383D02*
X0618245Y0281000D01*
X0618245Y0282235D01*
X0618862Y0282852D01*
X0619480Y0282852D01*
X0620097Y0282235D01*
X0620097Y0281618D01*
X0620097Y0282235D02*
X0620714Y0282852D01*
X0621331Y0282852D01*
X0621948Y0282235D01*
X0621948Y0281000D01*
X0621331Y0280383D01*
X0621948Y0276700D02*
X0618245Y0276700D01*
X0612948Y0277317D02*
X0612948Y0278552D01*
X0612331Y0279169D01*
X0612331Y0280383D02*
X0612948Y0281000D01*
X0612948Y0282235D01*
X0612331Y0282852D01*
X0611714Y0282852D01*
X0609245Y0280383D01*
X0609245Y0282852D01*
X0609862Y0284066D02*
X0612331Y0286535D01*
X0609862Y0286535D01*
X0609245Y0285918D01*
X0609245Y0284683D01*
X0609862Y0284066D01*
X0612331Y0284066D01*
X0612948Y0284683D01*
X0612948Y0285918D01*
X0612331Y0286535D01*
X0618245Y0285918D02*
X0621948Y0285918D01*
X0620097Y0284066D01*
X0620097Y0286535D01*
X0609862Y0279169D02*
X0609245Y0278552D01*
X0609245Y0277317D01*
X0609862Y0276700D01*
X0612331Y0276700D01*
X0612948Y0277317D01*
D21*
X0610600Y0270927D03*
X0610600Y0265227D03*
X0674600Y0265227D03*
X0674600Y0270927D03*
X0738600Y0270927D03*
X0738600Y0265227D03*
X0735591Y0217873D03*
X0735591Y0212173D03*
X0671591Y0212173D03*
X0671591Y0217873D03*
X0607591Y0217873D03*
X0607591Y0212173D03*
X0611100Y0174927D03*
X0611100Y0169227D03*
X0675100Y0169227D03*
X0675100Y0174927D03*
X0739100Y0174927D03*
X0739100Y0169227D03*
X0736091Y0121873D03*
X0736091Y0116173D03*
X0672091Y0116173D03*
X0672091Y0121873D03*
X0608091Y0121873D03*
X0608091Y0116173D03*
X0611100Y0078927D03*
X0611100Y0073227D03*
X0675100Y0073227D03*
X0675100Y0078927D03*
X0672091Y0025873D03*
X0672091Y0020173D03*
X0608091Y0020173D03*
X0608091Y0025873D03*
X0542091Y0034673D03*
X0542091Y0040373D03*
X0417600Y0038927D03*
X0417600Y0033227D03*
D22*
X0618089Y0025970D03*
X0618089Y0020170D03*
X0682089Y0020170D03*
X0682089Y0025970D03*
X0684601Y0073130D03*
X0684601Y0078930D03*
X0620601Y0078930D03*
X0620601Y0073130D03*
X0618089Y0116170D03*
X0618089Y0121970D03*
X0682089Y0121970D03*
X0682089Y0116170D03*
X0746089Y0116170D03*
X0746089Y0121970D03*
X0748601Y0169130D03*
X0748601Y0174930D03*
X0684601Y0174930D03*
X0684601Y0169130D03*
X0620601Y0169130D03*
X0620601Y0174930D03*
X0617589Y0212170D03*
X0617589Y0217970D03*
X0681589Y0217970D03*
X0681589Y0212170D03*
X0745589Y0212170D03*
X0745589Y0217970D03*
X0748101Y0265130D03*
X0748101Y0270930D03*
X0684101Y0270930D03*
X0684101Y0265130D03*
X0620101Y0265130D03*
X0620101Y0270930D03*
D23*
X0640986Y0243031D03*
X0644186Y0243031D03*
X0644186Y0238031D03*
X0640986Y0238031D03*
X0580186Y0238031D03*
X0576986Y0238031D03*
X0576986Y0243531D03*
X0580186Y0243531D03*
X0704986Y0243531D03*
X0708186Y0243531D03*
X0708186Y0238531D03*
X0704986Y0238531D03*
X0705486Y0147531D03*
X0708686Y0147531D03*
X0708686Y0142531D03*
X0705486Y0142531D03*
X0644686Y0142531D03*
X0641486Y0142531D03*
X0641486Y0147531D03*
X0644686Y0147531D03*
X0580686Y0147031D03*
X0577486Y0147031D03*
X0577486Y0142031D03*
X0580686Y0142031D03*
X0580686Y0051031D03*
X0577486Y0051031D03*
X0577486Y0046031D03*
X0580686Y0046031D03*
X0641486Y0046031D03*
X0644686Y0046031D03*
X0644686Y0051031D03*
X0641486Y0051031D03*
D24*
X0474546Y0041377D02*
X0474546Y0040877D01*
X0474296Y0040627D01*
X0474546Y0040154D02*
X0474546Y0039654D01*
X0474546Y0039904D02*
X0473295Y0039904D01*
X0473045Y0039654D01*
X0473045Y0039404D01*
X0473295Y0039153D01*
X0473045Y0040627D02*
X0474046Y0041628D01*
X0474296Y0041628D01*
X0474546Y0041377D01*
X0473045Y0041628D02*
X0473045Y0040627D01*
X0350046Y0040627D02*
X0348545Y0040627D01*
X0348545Y0040127D02*
X0348545Y0041128D01*
X0349546Y0040127D02*
X0350046Y0040627D01*
X0350046Y0039654D02*
X0350046Y0039154D01*
X0350046Y0039404D02*
X0348795Y0039404D01*
X0348545Y0039154D01*
X0348545Y0038904D01*
X0348795Y0038653D01*
M02*
