G75*
%MOIN*%
%OFA0B0*%
%FSLAX25Y25*%
%IPPOS*%
%LPD*%
%AMOC8*
5,1,8,0,0,1.08239X$1,22.5*
%
%ADD10C,0.00600*%
%ADD11C,0.03000*%
%ADD12R,0.03000X0.02000*%
%ADD13R,0.03000X0.04000*%
%ADD14C,0.00800*%
%ADD15C,0.01575*%
%ADD16C,0.00500*%
%ADD17R,0.03000X2.25000*%
%ADD18R,0.02000X2.74000*%
%ADD19R,0.28500X0.03200*%
%ADD20R,0.18500X0.03200*%
%ADD21R,0.09500X0.01000*%
%ADD22R,0.06500X0.04000*%
D10*
X0025800Y0032500D02*
X0025800Y0063000D01*
X0025800Y0276000D01*
X0025800Y0306500D01*
X0027800Y0306500D01*
X0027800Y0296500D01*
X0027800Y0286500D01*
X0029800Y0286500D01*
X0029800Y0286000D01*
X0039300Y0286000D01*
X0039398Y0285998D01*
X0039496Y0285992D01*
X0039594Y0285983D01*
X0039691Y0285969D01*
X0039788Y0285952D01*
X0039884Y0285931D01*
X0039979Y0285906D01*
X0040073Y0285878D01*
X0040165Y0285845D01*
X0040257Y0285810D01*
X0040347Y0285770D01*
X0040435Y0285728D01*
X0040522Y0285681D01*
X0040606Y0285632D01*
X0040689Y0285579D01*
X0040769Y0285523D01*
X0040848Y0285463D01*
X0040924Y0285401D01*
X0040997Y0285336D01*
X0041068Y0285268D01*
X0041136Y0285197D01*
X0041201Y0285124D01*
X0041263Y0285048D01*
X0041323Y0284969D01*
X0041379Y0284889D01*
X0041432Y0284806D01*
X0041481Y0284722D01*
X0041528Y0284635D01*
X0041570Y0284547D01*
X0041610Y0284457D01*
X0041645Y0284365D01*
X0041678Y0284273D01*
X0041706Y0284179D01*
X0041731Y0284084D01*
X0041752Y0283988D01*
X0041769Y0283891D01*
X0041783Y0283794D01*
X0041792Y0283696D01*
X0041798Y0283598D01*
X0041800Y0283500D01*
X0041800Y0283000D02*
X0082300Y0283000D01*
X0084300Y0285000D01*
X0084300Y0304500D01*
X0082300Y0306500D01*
X0042300Y0306500D01*
X0041800Y0306500D01*
X0041800Y0286500D01*
X0041800Y0283000D01*
X0041800Y0282000D01*
X0044800Y0282000D01*
X0044800Y0057000D01*
X0041800Y0057000D01*
X0041800Y0282000D01*
X0027800Y0286500D02*
X0027800Y0052500D01*
X0029800Y0052500D01*
X0029800Y0053000D01*
X0039300Y0053000D01*
X0039398Y0053002D01*
X0039496Y0053008D01*
X0039594Y0053017D01*
X0039691Y0053031D01*
X0039788Y0053048D01*
X0039884Y0053069D01*
X0039979Y0053094D01*
X0040073Y0053122D01*
X0040165Y0053155D01*
X0040257Y0053190D01*
X0040347Y0053230D01*
X0040435Y0053272D01*
X0040522Y0053319D01*
X0040606Y0053368D01*
X0040689Y0053421D01*
X0040769Y0053477D01*
X0040848Y0053537D01*
X0040924Y0053599D01*
X0040997Y0053664D01*
X0041068Y0053732D01*
X0041136Y0053803D01*
X0041201Y0053876D01*
X0041263Y0053952D01*
X0041323Y0054031D01*
X0041379Y0054111D01*
X0041432Y0054194D01*
X0041481Y0054278D01*
X0041528Y0054365D01*
X0041570Y0054453D01*
X0041610Y0054543D01*
X0041645Y0054635D01*
X0041678Y0054727D01*
X0041706Y0054821D01*
X0041731Y0054916D01*
X0041752Y0055012D01*
X0041769Y0055109D01*
X0041783Y0055206D01*
X0041792Y0055304D01*
X0041798Y0055402D01*
X0041800Y0055500D01*
X0041800Y0056000D02*
X0082300Y0056000D01*
X0084300Y0054000D01*
X0084300Y0035000D01*
X0081800Y0032500D01*
X0042300Y0032500D01*
X0041800Y0032500D01*
X0029800Y0032500D01*
X0027800Y0032500D01*
X0027800Y0042500D01*
X0027800Y0052500D01*
X0025800Y0059000D02*
X0025798Y0059098D01*
X0025792Y0059196D01*
X0025783Y0059294D01*
X0025769Y0059391D01*
X0025752Y0059488D01*
X0025731Y0059584D01*
X0025706Y0059679D01*
X0025678Y0059773D01*
X0025645Y0059865D01*
X0025610Y0059957D01*
X0025570Y0060047D01*
X0025528Y0060135D01*
X0025481Y0060222D01*
X0025432Y0060306D01*
X0025379Y0060389D01*
X0025323Y0060469D01*
X0025263Y0060548D01*
X0025201Y0060624D01*
X0025136Y0060697D01*
X0025068Y0060768D01*
X0024997Y0060836D01*
X0024924Y0060901D01*
X0024848Y0060963D01*
X0024769Y0061023D01*
X0024689Y0061079D01*
X0024606Y0061132D01*
X0024522Y0061181D01*
X0024435Y0061228D01*
X0024347Y0061270D01*
X0024257Y0061310D01*
X0024165Y0061345D01*
X0024073Y0061378D01*
X0023979Y0061406D01*
X0023884Y0061431D01*
X0023788Y0061452D01*
X0023691Y0061469D01*
X0023594Y0061483D01*
X0023496Y0061492D01*
X0023398Y0061498D01*
X0023300Y0061500D01*
X0003300Y0061500D01*
X0003213Y0061502D01*
X0003126Y0061508D01*
X0003039Y0061517D01*
X0002953Y0061530D01*
X0002867Y0061547D01*
X0002782Y0061568D01*
X0002699Y0061593D01*
X0002616Y0061621D01*
X0002535Y0061652D01*
X0002455Y0061687D01*
X0002377Y0061726D01*
X0002300Y0061768D01*
X0002225Y0061813D01*
X0002153Y0061862D01*
X0002082Y0061913D01*
X0002014Y0061968D01*
X0001949Y0062025D01*
X0001886Y0062086D01*
X0001825Y0062149D01*
X0001768Y0062214D01*
X0001713Y0062282D01*
X0001662Y0062353D01*
X0001613Y0062425D01*
X0001568Y0062500D01*
X0001526Y0062577D01*
X0001487Y0062655D01*
X0001452Y0062735D01*
X0001421Y0062816D01*
X0001393Y0062899D01*
X0001368Y0062982D01*
X0001347Y0063067D01*
X0001330Y0063153D01*
X0001317Y0063239D01*
X0001308Y0063326D01*
X0001302Y0063413D01*
X0001300Y0063500D01*
X0001300Y0064500D01*
X0001300Y0274500D01*
X0001300Y0275500D01*
X0001302Y0275587D01*
X0001308Y0275674D01*
X0001317Y0275761D01*
X0001330Y0275847D01*
X0001347Y0275933D01*
X0001368Y0276018D01*
X0001393Y0276101D01*
X0001421Y0276184D01*
X0001452Y0276265D01*
X0001487Y0276345D01*
X0001526Y0276423D01*
X0001568Y0276500D01*
X0001613Y0276575D01*
X0001662Y0276647D01*
X0001713Y0276718D01*
X0001768Y0276786D01*
X0001825Y0276851D01*
X0001886Y0276914D01*
X0001949Y0276975D01*
X0002014Y0277032D01*
X0002082Y0277087D01*
X0002153Y0277138D01*
X0002225Y0277187D01*
X0002300Y0277232D01*
X0002377Y0277274D01*
X0002455Y0277313D01*
X0002535Y0277348D01*
X0002616Y0277379D01*
X0002699Y0277407D01*
X0002782Y0277432D01*
X0002867Y0277453D01*
X0002953Y0277470D01*
X0003039Y0277483D01*
X0003126Y0277492D01*
X0003213Y0277498D01*
X0003300Y0277500D01*
X0023300Y0277500D01*
X0023398Y0277502D01*
X0023496Y0277508D01*
X0023594Y0277517D01*
X0023691Y0277531D01*
X0023788Y0277548D01*
X0023884Y0277569D01*
X0023979Y0277594D01*
X0024073Y0277622D01*
X0024165Y0277655D01*
X0024257Y0277690D01*
X0024347Y0277730D01*
X0024435Y0277772D01*
X0024522Y0277819D01*
X0024606Y0277868D01*
X0024689Y0277921D01*
X0024769Y0277977D01*
X0024848Y0278037D01*
X0024924Y0278099D01*
X0024997Y0278164D01*
X0025068Y0278232D01*
X0025136Y0278303D01*
X0025201Y0278376D01*
X0025263Y0278452D01*
X0025323Y0278531D01*
X0025379Y0278611D01*
X0025432Y0278694D01*
X0025481Y0278778D01*
X0025528Y0278865D01*
X0025570Y0278953D01*
X0025610Y0279043D01*
X0025645Y0279135D01*
X0025678Y0279227D01*
X0025706Y0279321D01*
X0025731Y0279416D01*
X0025752Y0279512D01*
X0025769Y0279609D01*
X0025783Y0279706D01*
X0025792Y0279804D01*
X0025798Y0279902D01*
X0025800Y0280000D01*
X0065300Y0294500D02*
X0065302Y0294661D01*
X0065308Y0294821D01*
X0065318Y0294982D01*
X0065332Y0295142D01*
X0065350Y0295302D01*
X0065371Y0295461D01*
X0065397Y0295620D01*
X0065427Y0295778D01*
X0065460Y0295935D01*
X0065498Y0296092D01*
X0065539Y0296247D01*
X0065584Y0296401D01*
X0065633Y0296554D01*
X0065686Y0296706D01*
X0065742Y0296857D01*
X0065803Y0297006D01*
X0065866Y0297154D01*
X0065934Y0297300D01*
X0066005Y0297444D01*
X0066079Y0297586D01*
X0066157Y0297727D01*
X0066239Y0297865D01*
X0066324Y0298002D01*
X0066412Y0298136D01*
X0066504Y0298268D01*
X0066599Y0298398D01*
X0066697Y0298526D01*
X0066798Y0298651D01*
X0066902Y0298773D01*
X0067009Y0298893D01*
X0067119Y0299010D01*
X0067232Y0299125D01*
X0067348Y0299236D01*
X0067467Y0299345D01*
X0067588Y0299450D01*
X0067712Y0299553D01*
X0067838Y0299653D01*
X0067966Y0299749D01*
X0068097Y0299842D01*
X0068231Y0299932D01*
X0068366Y0300019D01*
X0068504Y0300102D01*
X0068643Y0300182D01*
X0068785Y0300258D01*
X0068928Y0300331D01*
X0069073Y0300400D01*
X0069220Y0300466D01*
X0069368Y0300528D01*
X0069518Y0300586D01*
X0069669Y0300641D01*
X0069822Y0300692D01*
X0069976Y0300739D01*
X0070131Y0300782D01*
X0070287Y0300821D01*
X0070443Y0300857D01*
X0070601Y0300888D01*
X0070759Y0300916D01*
X0070918Y0300940D01*
X0071078Y0300960D01*
X0071238Y0300976D01*
X0071398Y0300988D01*
X0071559Y0300996D01*
X0071720Y0301000D01*
X0071880Y0301000D01*
X0072041Y0300996D01*
X0072202Y0300988D01*
X0072362Y0300976D01*
X0072522Y0300960D01*
X0072682Y0300940D01*
X0072841Y0300916D01*
X0072999Y0300888D01*
X0073157Y0300857D01*
X0073313Y0300821D01*
X0073469Y0300782D01*
X0073624Y0300739D01*
X0073778Y0300692D01*
X0073931Y0300641D01*
X0074082Y0300586D01*
X0074232Y0300528D01*
X0074380Y0300466D01*
X0074527Y0300400D01*
X0074672Y0300331D01*
X0074815Y0300258D01*
X0074957Y0300182D01*
X0075096Y0300102D01*
X0075234Y0300019D01*
X0075369Y0299932D01*
X0075503Y0299842D01*
X0075634Y0299749D01*
X0075762Y0299653D01*
X0075888Y0299553D01*
X0076012Y0299450D01*
X0076133Y0299345D01*
X0076252Y0299236D01*
X0076368Y0299125D01*
X0076481Y0299010D01*
X0076591Y0298893D01*
X0076698Y0298773D01*
X0076802Y0298651D01*
X0076903Y0298526D01*
X0077001Y0298398D01*
X0077096Y0298268D01*
X0077188Y0298136D01*
X0077276Y0298002D01*
X0077361Y0297865D01*
X0077443Y0297727D01*
X0077521Y0297586D01*
X0077595Y0297444D01*
X0077666Y0297300D01*
X0077734Y0297154D01*
X0077797Y0297006D01*
X0077858Y0296857D01*
X0077914Y0296706D01*
X0077967Y0296554D01*
X0078016Y0296401D01*
X0078061Y0296247D01*
X0078102Y0296092D01*
X0078140Y0295935D01*
X0078173Y0295778D01*
X0078203Y0295620D01*
X0078229Y0295461D01*
X0078250Y0295302D01*
X0078268Y0295142D01*
X0078282Y0294982D01*
X0078292Y0294821D01*
X0078298Y0294661D01*
X0078300Y0294500D01*
X0078298Y0294339D01*
X0078292Y0294179D01*
X0078282Y0294018D01*
X0078268Y0293858D01*
X0078250Y0293698D01*
X0078229Y0293539D01*
X0078203Y0293380D01*
X0078173Y0293222D01*
X0078140Y0293065D01*
X0078102Y0292908D01*
X0078061Y0292753D01*
X0078016Y0292599D01*
X0077967Y0292446D01*
X0077914Y0292294D01*
X0077858Y0292143D01*
X0077797Y0291994D01*
X0077734Y0291846D01*
X0077666Y0291700D01*
X0077595Y0291556D01*
X0077521Y0291414D01*
X0077443Y0291273D01*
X0077361Y0291135D01*
X0077276Y0290998D01*
X0077188Y0290864D01*
X0077096Y0290732D01*
X0077001Y0290602D01*
X0076903Y0290474D01*
X0076802Y0290349D01*
X0076698Y0290227D01*
X0076591Y0290107D01*
X0076481Y0289990D01*
X0076368Y0289875D01*
X0076252Y0289764D01*
X0076133Y0289655D01*
X0076012Y0289550D01*
X0075888Y0289447D01*
X0075762Y0289347D01*
X0075634Y0289251D01*
X0075503Y0289158D01*
X0075369Y0289068D01*
X0075234Y0288981D01*
X0075096Y0288898D01*
X0074957Y0288818D01*
X0074815Y0288742D01*
X0074672Y0288669D01*
X0074527Y0288600D01*
X0074380Y0288534D01*
X0074232Y0288472D01*
X0074082Y0288414D01*
X0073931Y0288359D01*
X0073778Y0288308D01*
X0073624Y0288261D01*
X0073469Y0288218D01*
X0073313Y0288179D01*
X0073157Y0288143D01*
X0072999Y0288112D01*
X0072841Y0288084D01*
X0072682Y0288060D01*
X0072522Y0288040D01*
X0072362Y0288024D01*
X0072202Y0288012D01*
X0072041Y0288004D01*
X0071880Y0288000D01*
X0071720Y0288000D01*
X0071559Y0288004D01*
X0071398Y0288012D01*
X0071238Y0288024D01*
X0071078Y0288040D01*
X0070918Y0288060D01*
X0070759Y0288084D01*
X0070601Y0288112D01*
X0070443Y0288143D01*
X0070287Y0288179D01*
X0070131Y0288218D01*
X0069976Y0288261D01*
X0069822Y0288308D01*
X0069669Y0288359D01*
X0069518Y0288414D01*
X0069368Y0288472D01*
X0069220Y0288534D01*
X0069073Y0288600D01*
X0068928Y0288669D01*
X0068785Y0288742D01*
X0068643Y0288818D01*
X0068504Y0288898D01*
X0068366Y0288981D01*
X0068231Y0289068D01*
X0068097Y0289158D01*
X0067966Y0289251D01*
X0067838Y0289347D01*
X0067712Y0289447D01*
X0067588Y0289550D01*
X0067467Y0289655D01*
X0067348Y0289764D01*
X0067232Y0289875D01*
X0067119Y0289990D01*
X0067009Y0290107D01*
X0066902Y0290227D01*
X0066798Y0290349D01*
X0066697Y0290474D01*
X0066599Y0290602D01*
X0066504Y0290732D01*
X0066412Y0290864D01*
X0066324Y0290998D01*
X0066239Y0291135D01*
X0066157Y0291273D01*
X0066079Y0291414D01*
X0066005Y0291556D01*
X0065934Y0291700D01*
X0065866Y0291846D01*
X0065803Y0291994D01*
X0065742Y0292143D01*
X0065686Y0292294D01*
X0065633Y0292446D01*
X0065584Y0292599D01*
X0065539Y0292753D01*
X0065498Y0292908D01*
X0065460Y0293065D01*
X0065427Y0293222D01*
X0065397Y0293380D01*
X0065371Y0293539D01*
X0065350Y0293698D01*
X0065332Y0293858D01*
X0065318Y0294018D01*
X0065308Y0294179D01*
X0065302Y0294339D01*
X0065300Y0294500D01*
X0041800Y0306500D02*
X0029800Y0306500D01*
X0027800Y0306500D01*
X0041800Y0057000D02*
X0041800Y0056000D01*
X0041800Y0052500D01*
X0041800Y0032500D01*
X0027800Y0032500D02*
X0025800Y0032500D01*
X0065300Y0044500D02*
X0065302Y0044661D01*
X0065308Y0044821D01*
X0065318Y0044982D01*
X0065332Y0045142D01*
X0065350Y0045302D01*
X0065371Y0045461D01*
X0065397Y0045620D01*
X0065427Y0045778D01*
X0065460Y0045935D01*
X0065498Y0046092D01*
X0065539Y0046247D01*
X0065584Y0046401D01*
X0065633Y0046554D01*
X0065686Y0046706D01*
X0065742Y0046857D01*
X0065803Y0047006D01*
X0065866Y0047154D01*
X0065934Y0047300D01*
X0066005Y0047444D01*
X0066079Y0047586D01*
X0066157Y0047727D01*
X0066239Y0047865D01*
X0066324Y0048002D01*
X0066412Y0048136D01*
X0066504Y0048268D01*
X0066599Y0048398D01*
X0066697Y0048526D01*
X0066798Y0048651D01*
X0066902Y0048773D01*
X0067009Y0048893D01*
X0067119Y0049010D01*
X0067232Y0049125D01*
X0067348Y0049236D01*
X0067467Y0049345D01*
X0067588Y0049450D01*
X0067712Y0049553D01*
X0067838Y0049653D01*
X0067966Y0049749D01*
X0068097Y0049842D01*
X0068231Y0049932D01*
X0068366Y0050019D01*
X0068504Y0050102D01*
X0068643Y0050182D01*
X0068785Y0050258D01*
X0068928Y0050331D01*
X0069073Y0050400D01*
X0069220Y0050466D01*
X0069368Y0050528D01*
X0069518Y0050586D01*
X0069669Y0050641D01*
X0069822Y0050692D01*
X0069976Y0050739D01*
X0070131Y0050782D01*
X0070287Y0050821D01*
X0070443Y0050857D01*
X0070601Y0050888D01*
X0070759Y0050916D01*
X0070918Y0050940D01*
X0071078Y0050960D01*
X0071238Y0050976D01*
X0071398Y0050988D01*
X0071559Y0050996D01*
X0071720Y0051000D01*
X0071880Y0051000D01*
X0072041Y0050996D01*
X0072202Y0050988D01*
X0072362Y0050976D01*
X0072522Y0050960D01*
X0072682Y0050940D01*
X0072841Y0050916D01*
X0072999Y0050888D01*
X0073157Y0050857D01*
X0073313Y0050821D01*
X0073469Y0050782D01*
X0073624Y0050739D01*
X0073778Y0050692D01*
X0073931Y0050641D01*
X0074082Y0050586D01*
X0074232Y0050528D01*
X0074380Y0050466D01*
X0074527Y0050400D01*
X0074672Y0050331D01*
X0074815Y0050258D01*
X0074957Y0050182D01*
X0075096Y0050102D01*
X0075234Y0050019D01*
X0075369Y0049932D01*
X0075503Y0049842D01*
X0075634Y0049749D01*
X0075762Y0049653D01*
X0075888Y0049553D01*
X0076012Y0049450D01*
X0076133Y0049345D01*
X0076252Y0049236D01*
X0076368Y0049125D01*
X0076481Y0049010D01*
X0076591Y0048893D01*
X0076698Y0048773D01*
X0076802Y0048651D01*
X0076903Y0048526D01*
X0077001Y0048398D01*
X0077096Y0048268D01*
X0077188Y0048136D01*
X0077276Y0048002D01*
X0077361Y0047865D01*
X0077443Y0047727D01*
X0077521Y0047586D01*
X0077595Y0047444D01*
X0077666Y0047300D01*
X0077734Y0047154D01*
X0077797Y0047006D01*
X0077858Y0046857D01*
X0077914Y0046706D01*
X0077967Y0046554D01*
X0078016Y0046401D01*
X0078061Y0046247D01*
X0078102Y0046092D01*
X0078140Y0045935D01*
X0078173Y0045778D01*
X0078203Y0045620D01*
X0078229Y0045461D01*
X0078250Y0045302D01*
X0078268Y0045142D01*
X0078282Y0044982D01*
X0078292Y0044821D01*
X0078298Y0044661D01*
X0078300Y0044500D01*
X0078298Y0044339D01*
X0078292Y0044179D01*
X0078282Y0044018D01*
X0078268Y0043858D01*
X0078250Y0043698D01*
X0078229Y0043539D01*
X0078203Y0043380D01*
X0078173Y0043222D01*
X0078140Y0043065D01*
X0078102Y0042908D01*
X0078061Y0042753D01*
X0078016Y0042599D01*
X0077967Y0042446D01*
X0077914Y0042294D01*
X0077858Y0042143D01*
X0077797Y0041994D01*
X0077734Y0041846D01*
X0077666Y0041700D01*
X0077595Y0041556D01*
X0077521Y0041414D01*
X0077443Y0041273D01*
X0077361Y0041135D01*
X0077276Y0040998D01*
X0077188Y0040864D01*
X0077096Y0040732D01*
X0077001Y0040602D01*
X0076903Y0040474D01*
X0076802Y0040349D01*
X0076698Y0040227D01*
X0076591Y0040107D01*
X0076481Y0039990D01*
X0076368Y0039875D01*
X0076252Y0039764D01*
X0076133Y0039655D01*
X0076012Y0039550D01*
X0075888Y0039447D01*
X0075762Y0039347D01*
X0075634Y0039251D01*
X0075503Y0039158D01*
X0075369Y0039068D01*
X0075234Y0038981D01*
X0075096Y0038898D01*
X0074957Y0038818D01*
X0074815Y0038742D01*
X0074672Y0038669D01*
X0074527Y0038600D01*
X0074380Y0038534D01*
X0074232Y0038472D01*
X0074082Y0038414D01*
X0073931Y0038359D01*
X0073778Y0038308D01*
X0073624Y0038261D01*
X0073469Y0038218D01*
X0073313Y0038179D01*
X0073157Y0038143D01*
X0072999Y0038112D01*
X0072841Y0038084D01*
X0072682Y0038060D01*
X0072522Y0038040D01*
X0072362Y0038024D01*
X0072202Y0038012D01*
X0072041Y0038004D01*
X0071880Y0038000D01*
X0071720Y0038000D01*
X0071559Y0038004D01*
X0071398Y0038012D01*
X0071238Y0038024D01*
X0071078Y0038040D01*
X0070918Y0038060D01*
X0070759Y0038084D01*
X0070601Y0038112D01*
X0070443Y0038143D01*
X0070287Y0038179D01*
X0070131Y0038218D01*
X0069976Y0038261D01*
X0069822Y0038308D01*
X0069669Y0038359D01*
X0069518Y0038414D01*
X0069368Y0038472D01*
X0069220Y0038534D01*
X0069073Y0038600D01*
X0068928Y0038669D01*
X0068785Y0038742D01*
X0068643Y0038818D01*
X0068504Y0038898D01*
X0068366Y0038981D01*
X0068231Y0039068D01*
X0068097Y0039158D01*
X0067966Y0039251D01*
X0067838Y0039347D01*
X0067712Y0039447D01*
X0067588Y0039550D01*
X0067467Y0039655D01*
X0067348Y0039764D01*
X0067232Y0039875D01*
X0067119Y0039990D01*
X0067009Y0040107D01*
X0066902Y0040227D01*
X0066798Y0040349D01*
X0066697Y0040474D01*
X0066599Y0040602D01*
X0066504Y0040732D01*
X0066412Y0040864D01*
X0066324Y0040998D01*
X0066239Y0041135D01*
X0066157Y0041273D01*
X0066079Y0041414D01*
X0066005Y0041556D01*
X0065934Y0041700D01*
X0065866Y0041846D01*
X0065803Y0041994D01*
X0065742Y0042143D01*
X0065686Y0042294D01*
X0065633Y0042446D01*
X0065584Y0042599D01*
X0065539Y0042753D01*
X0065498Y0042908D01*
X0065460Y0043065D01*
X0065427Y0043222D01*
X0065397Y0043380D01*
X0065371Y0043539D01*
X0065350Y0043698D01*
X0065332Y0043858D01*
X0065318Y0044018D01*
X0065308Y0044179D01*
X0065302Y0044339D01*
X0065300Y0044500D01*
X0464300Y0037500D02*
X0464300Y0027500D01*
X0474300Y0027500D01*
X0484300Y0027500D01*
X0484300Y0037500D01*
X0474300Y0037500D01*
X0464300Y0037500D01*
X0474300Y0037500D02*
X0474300Y0027500D01*
X0492300Y0027500D02*
X0492300Y0037500D01*
X0502300Y0037500D01*
X0502300Y0027500D01*
X0492300Y0027500D01*
X0502300Y0027500D02*
X0512300Y0027500D01*
X0512300Y0037500D01*
X0502300Y0037500D01*
X0594800Y0034500D02*
X0596800Y0032500D01*
X0636800Y0032500D01*
X0636800Y0052500D01*
X0637300Y0052500D01*
X0637300Y0032500D01*
X0636800Y0032500D01*
X0637300Y0032500D02*
X0649300Y0032500D01*
X0649300Y0042500D01*
X0648300Y0042500D01*
X0648300Y0052500D01*
X0649300Y0052500D01*
X0649300Y0053000D01*
X0639800Y0053000D01*
X0639702Y0053002D01*
X0639604Y0053008D01*
X0639506Y0053017D01*
X0639409Y0053031D01*
X0639312Y0053048D01*
X0639216Y0053069D01*
X0639121Y0053094D01*
X0639027Y0053122D01*
X0638935Y0053155D01*
X0638843Y0053190D01*
X0638753Y0053230D01*
X0638665Y0053272D01*
X0638578Y0053319D01*
X0638494Y0053368D01*
X0638411Y0053421D01*
X0638331Y0053477D01*
X0638252Y0053537D01*
X0638176Y0053599D01*
X0638103Y0053664D01*
X0638032Y0053732D01*
X0637964Y0053803D01*
X0637899Y0053876D01*
X0637837Y0053952D01*
X0637777Y0054031D01*
X0637721Y0054111D01*
X0637668Y0054194D01*
X0637619Y0054278D01*
X0637572Y0054365D01*
X0637530Y0054453D01*
X0637490Y0054543D01*
X0637455Y0054635D01*
X0637422Y0054727D01*
X0637394Y0054821D01*
X0637369Y0054916D01*
X0637348Y0055012D01*
X0637331Y0055109D01*
X0637317Y0055206D01*
X0637308Y0055304D01*
X0637302Y0055402D01*
X0637300Y0055500D01*
X0637300Y0056000D02*
X0596800Y0056000D01*
X0594800Y0054000D01*
X0594800Y0034500D01*
X0600800Y0044500D02*
X0600802Y0044661D01*
X0600808Y0044821D01*
X0600818Y0044982D01*
X0600832Y0045142D01*
X0600850Y0045302D01*
X0600871Y0045461D01*
X0600897Y0045620D01*
X0600927Y0045778D01*
X0600960Y0045935D01*
X0600998Y0046092D01*
X0601039Y0046247D01*
X0601084Y0046401D01*
X0601133Y0046554D01*
X0601186Y0046706D01*
X0601242Y0046857D01*
X0601303Y0047006D01*
X0601366Y0047154D01*
X0601434Y0047300D01*
X0601505Y0047444D01*
X0601579Y0047586D01*
X0601657Y0047727D01*
X0601739Y0047865D01*
X0601824Y0048002D01*
X0601912Y0048136D01*
X0602004Y0048268D01*
X0602099Y0048398D01*
X0602197Y0048526D01*
X0602298Y0048651D01*
X0602402Y0048773D01*
X0602509Y0048893D01*
X0602619Y0049010D01*
X0602732Y0049125D01*
X0602848Y0049236D01*
X0602967Y0049345D01*
X0603088Y0049450D01*
X0603212Y0049553D01*
X0603338Y0049653D01*
X0603466Y0049749D01*
X0603597Y0049842D01*
X0603731Y0049932D01*
X0603866Y0050019D01*
X0604004Y0050102D01*
X0604143Y0050182D01*
X0604285Y0050258D01*
X0604428Y0050331D01*
X0604573Y0050400D01*
X0604720Y0050466D01*
X0604868Y0050528D01*
X0605018Y0050586D01*
X0605169Y0050641D01*
X0605322Y0050692D01*
X0605476Y0050739D01*
X0605631Y0050782D01*
X0605787Y0050821D01*
X0605943Y0050857D01*
X0606101Y0050888D01*
X0606259Y0050916D01*
X0606418Y0050940D01*
X0606578Y0050960D01*
X0606738Y0050976D01*
X0606898Y0050988D01*
X0607059Y0050996D01*
X0607220Y0051000D01*
X0607380Y0051000D01*
X0607541Y0050996D01*
X0607702Y0050988D01*
X0607862Y0050976D01*
X0608022Y0050960D01*
X0608182Y0050940D01*
X0608341Y0050916D01*
X0608499Y0050888D01*
X0608657Y0050857D01*
X0608813Y0050821D01*
X0608969Y0050782D01*
X0609124Y0050739D01*
X0609278Y0050692D01*
X0609431Y0050641D01*
X0609582Y0050586D01*
X0609732Y0050528D01*
X0609880Y0050466D01*
X0610027Y0050400D01*
X0610172Y0050331D01*
X0610315Y0050258D01*
X0610457Y0050182D01*
X0610596Y0050102D01*
X0610734Y0050019D01*
X0610869Y0049932D01*
X0611003Y0049842D01*
X0611134Y0049749D01*
X0611262Y0049653D01*
X0611388Y0049553D01*
X0611512Y0049450D01*
X0611633Y0049345D01*
X0611752Y0049236D01*
X0611868Y0049125D01*
X0611981Y0049010D01*
X0612091Y0048893D01*
X0612198Y0048773D01*
X0612302Y0048651D01*
X0612403Y0048526D01*
X0612501Y0048398D01*
X0612596Y0048268D01*
X0612688Y0048136D01*
X0612776Y0048002D01*
X0612861Y0047865D01*
X0612943Y0047727D01*
X0613021Y0047586D01*
X0613095Y0047444D01*
X0613166Y0047300D01*
X0613234Y0047154D01*
X0613297Y0047006D01*
X0613358Y0046857D01*
X0613414Y0046706D01*
X0613467Y0046554D01*
X0613516Y0046401D01*
X0613561Y0046247D01*
X0613602Y0046092D01*
X0613640Y0045935D01*
X0613673Y0045778D01*
X0613703Y0045620D01*
X0613729Y0045461D01*
X0613750Y0045302D01*
X0613768Y0045142D01*
X0613782Y0044982D01*
X0613792Y0044821D01*
X0613798Y0044661D01*
X0613800Y0044500D01*
X0613798Y0044339D01*
X0613792Y0044179D01*
X0613782Y0044018D01*
X0613768Y0043858D01*
X0613750Y0043698D01*
X0613729Y0043539D01*
X0613703Y0043380D01*
X0613673Y0043222D01*
X0613640Y0043065D01*
X0613602Y0042908D01*
X0613561Y0042753D01*
X0613516Y0042599D01*
X0613467Y0042446D01*
X0613414Y0042294D01*
X0613358Y0042143D01*
X0613297Y0041994D01*
X0613234Y0041846D01*
X0613166Y0041700D01*
X0613095Y0041556D01*
X0613021Y0041414D01*
X0612943Y0041273D01*
X0612861Y0041135D01*
X0612776Y0040998D01*
X0612688Y0040864D01*
X0612596Y0040732D01*
X0612501Y0040602D01*
X0612403Y0040474D01*
X0612302Y0040349D01*
X0612198Y0040227D01*
X0612091Y0040107D01*
X0611981Y0039990D01*
X0611868Y0039875D01*
X0611752Y0039764D01*
X0611633Y0039655D01*
X0611512Y0039550D01*
X0611388Y0039447D01*
X0611262Y0039347D01*
X0611134Y0039251D01*
X0611003Y0039158D01*
X0610869Y0039068D01*
X0610734Y0038981D01*
X0610596Y0038898D01*
X0610457Y0038818D01*
X0610315Y0038742D01*
X0610172Y0038669D01*
X0610027Y0038600D01*
X0609880Y0038534D01*
X0609732Y0038472D01*
X0609582Y0038414D01*
X0609431Y0038359D01*
X0609278Y0038308D01*
X0609124Y0038261D01*
X0608969Y0038218D01*
X0608813Y0038179D01*
X0608657Y0038143D01*
X0608499Y0038112D01*
X0608341Y0038084D01*
X0608182Y0038060D01*
X0608022Y0038040D01*
X0607862Y0038024D01*
X0607702Y0038012D01*
X0607541Y0038004D01*
X0607380Y0038000D01*
X0607220Y0038000D01*
X0607059Y0038004D01*
X0606898Y0038012D01*
X0606738Y0038024D01*
X0606578Y0038040D01*
X0606418Y0038060D01*
X0606259Y0038084D01*
X0606101Y0038112D01*
X0605943Y0038143D01*
X0605787Y0038179D01*
X0605631Y0038218D01*
X0605476Y0038261D01*
X0605322Y0038308D01*
X0605169Y0038359D01*
X0605018Y0038414D01*
X0604868Y0038472D01*
X0604720Y0038534D01*
X0604573Y0038600D01*
X0604428Y0038669D01*
X0604285Y0038742D01*
X0604143Y0038818D01*
X0604004Y0038898D01*
X0603866Y0038981D01*
X0603731Y0039068D01*
X0603597Y0039158D01*
X0603466Y0039251D01*
X0603338Y0039347D01*
X0603212Y0039447D01*
X0603088Y0039550D01*
X0602967Y0039655D01*
X0602848Y0039764D01*
X0602732Y0039875D01*
X0602619Y0039990D01*
X0602509Y0040107D01*
X0602402Y0040227D01*
X0602298Y0040349D01*
X0602197Y0040474D01*
X0602099Y0040602D01*
X0602004Y0040732D01*
X0601912Y0040864D01*
X0601824Y0040998D01*
X0601739Y0041135D01*
X0601657Y0041273D01*
X0601579Y0041414D01*
X0601505Y0041556D01*
X0601434Y0041700D01*
X0601366Y0041846D01*
X0601303Y0041994D01*
X0601242Y0042143D01*
X0601186Y0042294D01*
X0601133Y0042446D01*
X0601084Y0042599D01*
X0601039Y0042753D01*
X0600998Y0042908D01*
X0600960Y0043065D01*
X0600927Y0043222D01*
X0600897Y0043380D01*
X0600871Y0043539D01*
X0600850Y0043698D01*
X0600832Y0043858D01*
X0600818Y0044018D01*
X0600808Y0044179D01*
X0600802Y0044339D01*
X0600800Y0044500D01*
X0634300Y0057000D02*
X0637300Y0057000D01*
X0637300Y0056000D01*
X0637300Y0052500D01*
X0649300Y0052500D02*
X0651300Y0052500D01*
X0651300Y0042500D01*
X0651300Y0032500D01*
X0649300Y0032500D01*
X0651300Y0032500D02*
X0653300Y0032500D01*
X0653300Y0060500D01*
X0674300Y0060500D01*
X0674300Y0059000D02*
X0674387Y0059002D01*
X0674474Y0059008D01*
X0674561Y0059017D01*
X0674647Y0059030D01*
X0674733Y0059047D01*
X0674818Y0059068D01*
X0674901Y0059093D01*
X0674984Y0059121D01*
X0675065Y0059152D01*
X0675145Y0059187D01*
X0675223Y0059226D01*
X0675300Y0059268D01*
X0675375Y0059313D01*
X0675447Y0059362D01*
X0675518Y0059413D01*
X0675586Y0059468D01*
X0675651Y0059525D01*
X0675714Y0059586D01*
X0675775Y0059649D01*
X0675832Y0059714D01*
X0675887Y0059782D01*
X0675938Y0059853D01*
X0675987Y0059925D01*
X0676032Y0060000D01*
X0676074Y0060077D01*
X0676113Y0060155D01*
X0676148Y0060235D01*
X0676179Y0060316D01*
X0676207Y0060399D01*
X0676232Y0060482D01*
X0676253Y0060567D01*
X0676270Y0060653D01*
X0676283Y0060739D01*
X0676292Y0060826D01*
X0676298Y0060913D01*
X0676300Y0061000D01*
X0676300Y0062000D01*
X0676300Y0277000D01*
X0655300Y0277000D01*
X0653300Y0278500D02*
X0653300Y0306500D01*
X0651300Y0306500D01*
X0651300Y0296500D01*
X0649300Y0296500D01*
X0648300Y0296500D01*
X0648300Y0286500D01*
X0649300Y0286500D01*
X0649300Y0286000D01*
X0639800Y0286000D01*
X0639702Y0285998D01*
X0639604Y0285992D01*
X0639506Y0285983D01*
X0639409Y0285969D01*
X0639312Y0285952D01*
X0639216Y0285931D01*
X0639121Y0285906D01*
X0639027Y0285878D01*
X0638935Y0285845D01*
X0638843Y0285810D01*
X0638753Y0285770D01*
X0638665Y0285728D01*
X0638578Y0285681D01*
X0638494Y0285632D01*
X0638411Y0285579D01*
X0638331Y0285523D01*
X0638252Y0285463D01*
X0638176Y0285401D01*
X0638103Y0285336D01*
X0638032Y0285268D01*
X0637964Y0285197D01*
X0637899Y0285124D01*
X0637837Y0285048D01*
X0637777Y0284969D01*
X0637721Y0284889D01*
X0637668Y0284806D01*
X0637619Y0284722D01*
X0637572Y0284635D01*
X0637530Y0284547D01*
X0637490Y0284457D01*
X0637455Y0284365D01*
X0637422Y0284273D01*
X0637394Y0284179D01*
X0637369Y0284084D01*
X0637348Y0283988D01*
X0637331Y0283891D01*
X0637317Y0283794D01*
X0637308Y0283696D01*
X0637302Y0283598D01*
X0637300Y0283500D01*
X0637300Y0283000D02*
X0596800Y0283000D01*
X0594800Y0285000D01*
X0594800Y0304000D01*
X0597300Y0306500D01*
X0636800Y0306500D01*
X0636800Y0286500D01*
X0637300Y0286500D01*
X0637300Y0283000D01*
X0637300Y0282000D01*
X0637300Y0057000D01*
X0634300Y0057000D02*
X0634300Y0282000D01*
X0637300Y0282000D01*
X0637300Y0286500D02*
X0637300Y0306500D01*
X0636800Y0306500D01*
X0637300Y0306500D02*
X0649300Y0306500D01*
X0651300Y0306500D01*
X0649300Y0306500D02*
X0649300Y0296500D01*
X0651300Y0296500D02*
X0651300Y0286500D01*
X0651300Y0052500D01*
X0649300Y0053000D02*
X0649300Y0286000D01*
X0649300Y0286500D02*
X0651300Y0286500D01*
X0653300Y0282500D02*
X0653302Y0282402D01*
X0653308Y0282304D01*
X0653317Y0282206D01*
X0653331Y0282109D01*
X0653348Y0282012D01*
X0653369Y0281916D01*
X0653394Y0281821D01*
X0653422Y0281727D01*
X0653455Y0281635D01*
X0653490Y0281543D01*
X0653530Y0281453D01*
X0653572Y0281365D01*
X0653619Y0281278D01*
X0653668Y0281194D01*
X0653721Y0281111D01*
X0653777Y0281031D01*
X0653837Y0280952D01*
X0653899Y0280876D01*
X0653964Y0280803D01*
X0654032Y0280732D01*
X0654103Y0280664D01*
X0654176Y0280599D01*
X0654252Y0280537D01*
X0654331Y0280477D01*
X0654411Y0280421D01*
X0654494Y0280368D01*
X0654578Y0280319D01*
X0654665Y0280272D01*
X0654753Y0280230D01*
X0654843Y0280190D01*
X0654935Y0280155D01*
X0655027Y0280122D01*
X0655121Y0280094D01*
X0655216Y0280069D01*
X0655312Y0280048D01*
X0655409Y0280031D01*
X0655506Y0280017D01*
X0655604Y0280008D01*
X0655702Y0280002D01*
X0655800Y0280000D01*
X0674300Y0280000D01*
X0674300Y0278500D02*
X0653300Y0278500D01*
X0653300Y0060500D01*
X0655300Y0062000D02*
X0676300Y0062000D01*
X0674300Y0059000D02*
X0655800Y0059000D01*
X0655702Y0058998D01*
X0655604Y0058992D01*
X0655506Y0058983D01*
X0655409Y0058969D01*
X0655312Y0058952D01*
X0655216Y0058931D01*
X0655121Y0058906D01*
X0655027Y0058878D01*
X0654935Y0058845D01*
X0654843Y0058810D01*
X0654753Y0058770D01*
X0654665Y0058728D01*
X0654578Y0058681D01*
X0654494Y0058632D01*
X0654411Y0058579D01*
X0654331Y0058523D01*
X0654252Y0058463D01*
X0654176Y0058401D01*
X0654103Y0058336D01*
X0654032Y0058268D01*
X0653964Y0058197D01*
X0653899Y0058124D01*
X0653837Y0058048D01*
X0653777Y0057969D01*
X0653721Y0057889D01*
X0653668Y0057806D01*
X0653619Y0057722D01*
X0653572Y0057635D01*
X0653530Y0057547D01*
X0653490Y0057457D01*
X0653455Y0057365D01*
X0653422Y0057273D01*
X0653394Y0057179D01*
X0653369Y0057084D01*
X0653348Y0056988D01*
X0653331Y0056891D01*
X0653317Y0056794D01*
X0653308Y0056696D01*
X0653302Y0056598D01*
X0653300Y0056500D01*
X0651300Y0042500D02*
X0649300Y0042500D01*
X0662300Y0086000D02*
X0671300Y0086000D01*
X0671300Y0087500D01*
X0663800Y0087500D01*
X0663800Y0093500D01*
X0671300Y0093500D01*
X0671300Y0095000D01*
X0662300Y0095000D01*
X0662300Y0086000D01*
X0662300Y0101500D02*
X0671300Y0101500D01*
X0671300Y0103000D01*
X0663800Y0103000D01*
X0663800Y0109000D01*
X0671300Y0109000D01*
X0671300Y0110500D01*
X0662300Y0110500D01*
X0662300Y0101500D01*
X0662300Y0117000D02*
X0671300Y0117000D01*
X0671300Y0118500D01*
X0663800Y0118500D01*
X0663800Y0124500D01*
X0671300Y0124500D01*
X0671300Y0126000D01*
X0662300Y0126000D01*
X0662300Y0117000D01*
X0662300Y0133000D02*
X0671300Y0133000D01*
X0671300Y0134500D01*
X0663800Y0134500D01*
X0663800Y0140500D01*
X0671300Y0140500D01*
X0671300Y0142000D01*
X0662300Y0142000D01*
X0662300Y0133000D01*
X0662300Y0149500D02*
X0671300Y0149500D01*
X0671300Y0151000D01*
X0663800Y0151000D01*
X0663800Y0157000D01*
X0671300Y0157000D01*
X0671300Y0158500D01*
X0662300Y0158500D01*
X0662300Y0149500D01*
X0662300Y0165000D02*
X0671300Y0165000D01*
X0671300Y0166500D01*
X0663800Y0166500D01*
X0663800Y0172500D01*
X0671300Y0172500D01*
X0671300Y0174000D01*
X0662300Y0174000D01*
X0662300Y0165000D01*
X0662300Y0180500D02*
X0671300Y0180500D01*
X0671300Y0182000D01*
X0663800Y0182000D01*
X0663800Y0188000D01*
X0671300Y0188000D01*
X0671300Y0189500D01*
X0662300Y0189500D01*
X0662300Y0180500D01*
X0662300Y0197000D02*
X0671300Y0197000D01*
X0671300Y0198500D01*
X0663800Y0198500D01*
X0663800Y0204500D01*
X0671300Y0204500D01*
X0671300Y0206000D01*
X0662300Y0206000D01*
X0662300Y0197000D01*
X0662300Y0213000D02*
X0671300Y0213000D01*
X0671300Y0214500D01*
X0663800Y0214500D01*
X0663800Y0220500D01*
X0671300Y0220500D01*
X0671300Y0222000D01*
X0662300Y0222000D01*
X0662300Y0213000D01*
X0662300Y0228500D02*
X0671300Y0228500D01*
X0671300Y0230000D01*
X0663800Y0230000D01*
X0663800Y0236000D01*
X0671300Y0236000D01*
X0671300Y0237500D01*
X0662300Y0237500D01*
X0662300Y0228500D01*
X0662300Y0244000D02*
X0671300Y0244000D01*
X0671300Y0245500D01*
X0663800Y0245500D01*
X0663800Y0251500D01*
X0671300Y0251500D01*
X0671300Y0253000D01*
X0662300Y0253000D01*
X0662300Y0244000D01*
X0676300Y0277000D02*
X0676300Y0278000D01*
X0676298Y0278087D01*
X0676292Y0278174D01*
X0676283Y0278261D01*
X0676270Y0278347D01*
X0676253Y0278433D01*
X0676232Y0278518D01*
X0676207Y0278601D01*
X0676179Y0278684D01*
X0676148Y0278765D01*
X0676113Y0278845D01*
X0676074Y0278923D01*
X0676032Y0279000D01*
X0675987Y0279075D01*
X0675938Y0279147D01*
X0675887Y0279218D01*
X0675832Y0279286D01*
X0675775Y0279351D01*
X0675714Y0279414D01*
X0675651Y0279475D01*
X0675586Y0279532D01*
X0675518Y0279587D01*
X0675447Y0279638D01*
X0675375Y0279687D01*
X0675300Y0279732D01*
X0675223Y0279774D01*
X0675145Y0279813D01*
X0675065Y0279848D01*
X0674984Y0279879D01*
X0674901Y0279907D01*
X0674818Y0279932D01*
X0674733Y0279953D01*
X0674647Y0279970D01*
X0674561Y0279983D01*
X0674474Y0279992D01*
X0674387Y0279998D01*
X0674300Y0280000D01*
X0600800Y0294500D02*
X0600802Y0294661D01*
X0600808Y0294821D01*
X0600818Y0294982D01*
X0600832Y0295142D01*
X0600850Y0295302D01*
X0600871Y0295461D01*
X0600897Y0295620D01*
X0600927Y0295778D01*
X0600960Y0295935D01*
X0600998Y0296092D01*
X0601039Y0296247D01*
X0601084Y0296401D01*
X0601133Y0296554D01*
X0601186Y0296706D01*
X0601242Y0296857D01*
X0601303Y0297006D01*
X0601366Y0297154D01*
X0601434Y0297300D01*
X0601505Y0297444D01*
X0601579Y0297586D01*
X0601657Y0297727D01*
X0601739Y0297865D01*
X0601824Y0298002D01*
X0601912Y0298136D01*
X0602004Y0298268D01*
X0602099Y0298398D01*
X0602197Y0298526D01*
X0602298Y0298651D01*
X0602402Y0298773D01*
X0602509Y0298893D01*
X0602619Y0299010D01*
X0602732Y0299125D01*
X0602848Y0299236D01*
X0602967Y0299345D01*
X0603088Y0299450D01*
X0603212Y0299553D01*
X0603338Y0299653D01*
X0603466Y0299749D01*
X0603597Y0299842D01*
X0603731Y0299932D01*
X0603866Y0300019D01*
X0604004Y0300102D01*
X0604143Y0300182D01*
X0604285Y0300258D01*
X0604428Y0300331D01*
X0604573Y0300400D01*
X0604720Y0300466D01*
X0604868Y0300528D01*
X0605018Y0300586D01*
X0605169Y0300641D01*
X0605322Y0300692D01*
X0605476Y0300739D01*
X0605631Y0300782D01*
X0605787Y0300821D01*
X0605943Y0300857D01*
X0606101Y0300888D01*
X0606259Y0300916D01*
X0606418Y0300940D01*
X0606578Y0300960D01*
X0606738Y0300976D01*
X0606898Y0300988D01*
X0607059Y0300996D01*
X0607220Y0301000D01*
X0607380Y0301000D01*
X0607541Y0300996D01*
X0607702Y0300988D01*
X0607862Y0300976D01*
X0608022Y0300960D01*
X0608182Y0300940D01*
X0608341Y0300916D01*
X0608499Y0300888D01*
X0608657Y0300857D01*
X0608813Y0300821D01*
X0608969Y0300782D01*
X0609124Y0300739D01*
X0609278Y0300692D01*
X0609431Y0300641D01*
X0609582Y0300586D01*
X0609732Y0300528D01*
X0609880Y0300466D01*
X0610027Y0300400D01*
X0610172Y0300331D01*
X0610315Y0300258D01*
X0610457Y0300182D01*
X0610596Y0300102D01*
X0610734Y0300019D01*
X0610869Y0299932D01*
X0611003Y0299842D01*
X0611134Y0299749D01*
X0611262Y0299653D01*
X0611388Y0299553D01*
X0611512Y0299450D01*
X0611633Y0299345D01*
X0611752Y0299236D01*
X0611868Y0299125D01*
X0611981Y0299010D01*
X0612091Y0298893D01*
X0612198Y0298773D01*
X0612302Y0298651D01*
X0612403Y0298526D01*
X0612501Y0298398D01*
X0612596Y0298268D01*
X0612688Y0298136D01*
X0612776Y0298002D01*
X0612861Y0297865D01*
X0612943Y0297727D01*
X0613021Y0297586D01*
X0613095Y0297444D01*
X0613166Y0297300D01*
X0613234Y0297154D01*
X0613297Y0297006D01*
X0613358Y0296857D01*
X0613414Y0296706D01*
X0613467Y0296554D01*
X0613516Y0296401D01*
X0613561Y0296247D01*
X0613602Y0296092D01*
X0613640Y0295935D01*
X0613673Y0295778D01*
X0613703Y0295620D01*
X0613729Y0295461D01*
X0613750Y0295302D01*
X0613768Y0295142D01*
X0613782Y0294982D01*
X0613792Y0294821D01*
X0613798Y0294661D01*
X0613800Y0294500D01*
X0613798Y0294339D01*
X0613792Y0294179D01*
X0613782Y0294018D01*
X0613768Y0293858D01*
X0613750Y0293698D01*
X0613729Y0293539D01*
X0613703Y0293380D01*
X0613673Y0293222D01*
X0613640Y0293065D01*
X0613602Y0292908D01*
X0613561Y0292753D01*
X0613516Y0292599D01*
X0613467Y0292446D01*
X0613414Y0292294D01*
X0613358Y0292143D01*
X0613297Y0291994D01*
X0613234Y0291846D01*
X0613166Y0291700D01*
X0613095Y0291556D01*
X0613021Y0291414D01*
X0612943Y0291273D01*
X0612861Y0291135D01*
X0612776Y0290998D01*
X0612688Y0290864D01*
X0612596Y0290732D01*
X0612501Y0290602D01*
X0612403Y0290474D01*
X0612302Y0290349D01*
X0612198Y0290227D01*
X0612091Y0290107D01*
X0611981Y0289990D01*
X0611868Y0289875D01*
X0611752Y0289764D01*
X0611633Y0289655D01*
X0611512Y0289550D01*
X0611388Y0289447D01*
X0611262Y0289347D01*
X0611134Y0289251D01*
X0611003Y0289158D01*
X0610869Y0289068D01*
X0610734Y0288981D01*
X0610596Y0288898D01*
X0610457Y0288818D01*
X0610315Y0288742D01*
X0610172Y0288669D01*
X0610027Y0288600D01*
X0609880Y0288534D01*
X0609732Y0288472D01*
X0609582Y0288414D01*
X0609431Y0288359D01*
X0609278Y0288308D01*
X0609124Y0288261D01*
X0608969Y0288218D01*
X0608813Y0288179D01*
X0608657Y0288143D01*
X0608499Y0288112D01*
X0608341Y0288084D01*
X0608182Y0288060D01*
X0608022Y0288040D01*
X0607862Y0288024D01*
X0607702Y0288012D01*
X0607541Y0288004D01*
X0607380Y0288000D01*
X0607220Y0288000D01*
X0607059Y0288004D01*
X0606898Y0288012D01*
X0606738Y0288024D01*
X0606578Y0288040D01*
X0606418Y0288060D01*
X0606259Y0288084D01*
X0606101Y0288112D01*
X0605943Y0288143D01*
X0605787Y0288179D01*
X0605631Y0288218D01*
X0605476Y0288261D01*
X0605322Y0288308D01*
X0605169Y0288359D01*
X0605018Y0288414D01*
X0604868Y0288472D01*
X0604720Y0288534D01*
X0604573Y0288600D01*
X0604428Y0288669D01*
X0604285Y0288742D01*
X0604143Y0288818D01*
X0604004Y0288898D01*
X0603866Y0288981D01*
X0603731Y0289068D01*
X0603597Y0289158D01*
X0603466Y0289251D01*
X0603338Y0289347D01*
X0603212Y0289447D01*
X0603088Y0289550D01*
X0602967Y0289655D01*
X0602848Y0289764D01*
X0602732Y0289875D01*
X0602619Y0289990D01*
X0602509Y0290107D01*
X0602402Y0290227D01*
X0602298Y0290349D01*
X0602197Y0290474D01*
X0602099Y0290602D01*
X0602004Y0290732D01*
X0601912Y0290864D01*
X0601824Y0290998D01*
X0601739Y0291135D01*
X0601657Y0291273D01*
X0601579Y0291414D01*
X0601505Y0291556D01*
X0601434Y0291700D01*
X0601366Y0291846D01*
X0601303Y0291994D01*
X0601242Y0292143D01*
X0601186Y0292294D01*
X0601133Y0292446D01*
X0601084Y0292599D01*
X0601039Y0292753D01*
X0600998Y0292908D01*
X0600960Y0293065D01*
X0600927Y0293222D01*
X0600897Y0293380D01*
X0600871Y0293539D01*
X0600850Y0293698D01*
X0600832Y0293858D01*
X0600818Y0294018D01*
X0600808Y0294179D01*
X0600802Y0294339D01*
X0600800Y0294500D01*
D11*
X0507300Y0025000D02*
X0507300Y0002500D01*
X0497300Y0002500D02*
X0497300Y0025000D01*
X0479300Y0025000D02*
X0479300Y0002500D01*
X0469300Y0002500D02*
X0469300Y0025000D01*
D12*
X0469300Y0026500D03*
X0479300Y0026500D03*
X0497300Y0026500D03*
X0507300Y0026500D03*
D13*
X0507300Y0039500D03*
X0497300Y0039500D03*
X0479300Y0039500D03*
X0469300Y0039500D03*
D14*
X0543690Y0052488D02*
X0543690Y0063512D01*
X0554910Y0063512D02*
X0554910Y0052488D01*
X0554910Y0105988D02*
X0554910Y0117012D01*
X0543690Y0117012D02*
X0543690Y0105988D01*
X0543690Y0140988D02*
X0543690Y0152012D01*
X0554910Y0152012D02*
X0554910Y0140988D01*
X0554910Y0194488D02*
X0554910Y0205512D01*
X0543690Y0205512D02*
X0543690Y0194488D01*
X0543190Y0229988D02*
X0543190Y0241012D01*
X0554410Y0241012D02*
X0554410Y0229988D01*
X0554410Y0283488D02*
X0554410Y0294512D01*
X0543190Y0294512D02*
X0543190Y0283488D01*
D15*
X0542894Y0281913D03*
X0542894Y0228413D03*
X0543394Y0192913D03*
X0543394Y0139413D03*
X0543394Y0104413D03*
X0543394Y0050913D03*
D16*
X0600046Y0065251D02*
X0604550Y0065251D01*
X0604550Y0063750D02*
X0604550Y0066753D01*
X0601547Y0063750D02*
X0600046Y0065251D01*
X0610546Y0064605D02*
X0610546Y0066106D01*
X0611297Y0066856D01*
X0614299Y0063854D01*
X0615050Y0064605D01*
X0615050Y0066106D01*
X0614299Y0066856D01*
X0611297Y0066856D01*
X0610546Y0064605D02*
X0611297Y0063854D01*
X0614299Y0063854D01*
X0615050Y0062253D02*
X0615050Y0059250D01*
X0612047Y0062253D01*
X0611297Y0062253D01*
X0610546Y0061502D01*
X0610546Y0060001D01*
X0611297Y0059250D01*
X0610797Y0271750D02*
X0610046Y0272501D01*
X0610046Y0274002D01*
X0610797Y0274753D01*
X0611547Y0274753D01*
X0612298Y0274002D01*
X0613049Y0274753D01*
X0613799Y0274753D01*
X0614550Y0274002D01*
X0614550Y0272501D01*
X0613799Y0271750D01*
X0612298Y0273251D02*
X0612298Y0274002D01*
X0613799Y0276354D02*
X0614550Y0276354D01*
X0613799Y0276354D02*
X0610797Y0279356D01*
X0610046Y0279356D01*
X0610046Y0276354D01*
X0604550Y0275753D02*
X0604550Y0272750D01*
X0604550Y0274251D02*
X0600046Y0274251D01*
X0601547Y0272750D01*
X0601547Y0277354D02*
X0602298Y0278105D01*
X0602298Y0280356D01*
X0600797Y0280356D02*
X0600046Y0279606D01*
X0600046Y0278105D01*
X0600797Y0277354D01*
X0601547Y0277354D01*
X0603799Y0277354D02*
X0604550Y0278105D01*
X0604550Y0279606D01*
X0603799Y0280356D01*
X0600797Y0280356D01*
X0079050Y0279106D02*
X0079050Y0277605D01*
X0078299Y0276854D01*
X0076798Y0277605D02*
X0076798Y0279856D01*
X0075297Y0279856D02*
X0074546Y0279106D01*
X0074546Y0277605D01*
X0075297Y0276854D01*
X0076047Y0276854D01*
X0076798Y0277605D01*
X0078299Y0279856D02*
X0075297Y0279856D01*
X0078299Y0279856D02*
X0079050Y0279106D01*
X0079050Y0275253D02*
X0079050Y0272250D01*
X0079050Y0273751D02*
X0074546Y0273751D01*
X0076047Y0272250D01*
X0069050Y0273001D02*
X0068299Y0272250D01*
X0069050Y0273001D02*
X0069050Y0274502D01*
X0068299Y0275253D01*
X0067549Y0275253D01*
X0066798Y0274502D01*
X0066798Y0273751D01*
X0066798Y0274502D02*
X0066047Y0275253D01*
X0065297Y0275253D01*
X0064546Y0274502D01*
X0064546Y0273001D01*
X0065297Y0272250D01*
X0064546Y0276854D02*
X0064546Y0279856D01*
X0065297Y0279856D01*
X0068299Y0276854D01*
X0069050Y0276854D01*
X0068299Y0066856D02*
X0065297Y0066856D01*
X0068299Y0063854D01*
X0069050Y0064605D01*
X0069050Y0066106D01*
X0068299Y0066856D01*
X0068299Y0063854D02*
X0065297Y0063854D01*
X0064546Y0064605D01*
X0064546Y0066106D01*
X0065297Y0066856D01*
X0065297Y0062253D02*
X0064546Y0061502D01*
X0064546Y0060001D01*
X0065297Y0059250D01*
X0065297Y0062253D02*
X0066047Y0062253D01*
X0069050Y0059250D01*
X0069050Y0062253D01*
X0074546Y0065251D02*
X0079050Y0065251D01*
X0079050Y0063750D02*
X0079050Y0066753D01*
X0076047Y0063750D02*
X0074546Y0065251D01*
D17*
X0043300Y0169500D03*
X0635800Y0169500D03*
D18*
X0652300Y0169500D03*
X0026800Y0169500D03*
D19*
X0059050Y0169500D03*
X0059050Y0180400D03*
X0059050Y0191200D03*
X0059050Y0202100D03*
X0059050Y0213000D03*
X0059050Y0223900D03*
X0059050Y0234700D03*
X0059050Y0245700D03*
X0059050Y0256400D03*
X0059050Y0267300D03*
X0059050Y0158700D03*
X0059050Y0147800D03*
X0059050Y0136900D03*
X0059050Y0126000D03*
X0059050Y0115200D03*
X0059050Y0104300D03*
X0059050Y0093400D03*
X0059050Y0082600D03*
X0059050Y0071700D03*
X0620050Y0071700D03*
X0620050Y0082500D03*
X0620050Y0093400D03*
X0620050Y0104300D03*
X0620050Y0104300D03*
X0620050Y0115100D03*
X0620050Y0126000D03*
X0620050Y0136900D03*
X0620050Y0147800D03*
X0620050Y0158600D03*
X0620050Y0169500D03*
X0620050Y0180400D03*
X0620050Y0191200D03*
X0620050Y0202100D03*
X0619950Y0213000D03*
X0620050Y0223800D03*
X0620050Y0234700D03*
X0620050Y0245600D03*
X0620050Y0256400D03*
X0620050Y0267300D03*
D20*
X0625050Y0261900D03*
X0625050Y0251000D03*
X0625050Y0240100D03*
X0625050Y0229300D03*
X0625050Y0218400D03*
X0625050Y0207500D03*
X0625050Y0196700D03*
X0625050Y0185800D03*
X0625050Y0174900D03*
X0625050Y0164100D03*
X0625050Y0153200D03*
X0625050Y0142300D03*
X0625050Y0131500D03*
X0625050Y0120600D03*
X0625050Y0109700D03*
X0625050Y0109700D03*
X0625050Y0098800D03*
X0625050Y0088000D03*
X0625050Y0077100D03*
X0054050Y0077100D03*
X0054050Y0088000D03*
X0054050Y0098900D03*
X0054050Y0109700D03*
X0054050Y0120600D03*
X0054050Y0131500D03*
X0054050Y0142300D03*
X0054050Y0153200D03*
X0054050Y0164100D03*
X0054050Y0174900D03*
X0054050Y0185800D03*
X0054050Y0196700D03*
X0054050Y0207500D03*
X0054050Y0218400D03*
X0054050Y0229300D03*
X0054050Y0240200D03*
X0054050Y0251000D03*
X0054050Y0261900D03*
D21*
X0644550Y0284000D03*
X0644550Y0055000D03*
D22*
X0634050Y0044200D03*
X0634050Y0294800D03*
M02*
