G75*
%MOIN*%
%OFA0B0*%
%FSLAX25Y25*%
%IPPOS*%
%LPD*%
%AMOC8*
5,1,8,0,0,1.08239X$1,22.5*
%
%ADD10C,0.12795*%
%ADD11R,0.06890X0.06102*%
%ADD12C,0.09252*%
%ADD13R,0.01575X0.04331*%
%ADD14OC8,0.06984*%
%ADD15C,0.20984*%
%ADD16R,0.03740X0.04528*%
%ADD17R,0.04528X0.03740*%
%ADD18R,0.06102X0.06890*%
%ADD19R,0.05709X0.05709*%
%ADD20R,0.05709X0.03150*%
%ADD21C,0.08384*%
%ADD22R,0.02756X0.06417*%
%ADD23R,0.06791X0.09252*%
%ADD24R,0.10335X0.08465*%
%ADD25R,0.05610X0.08465*%
%ADD26C,0.06984*%
%ADD27R,0.06496X0.06496*%
%ADD28R,0.03084X0.08784*%
%ADD29OC8,0.06184*%
%ADD30C,0.04559*%
D10*
X0180457Y0048079D03*
X0778883Y0048079D03*
X0551595Y0309890D03*
X0180457Y0309890D03*
D11*
X0619595Y0306673D03*
X0629095Y0306673D03*
X0629095Y0299193D03*
X0619595Y0299193D03*
X0683595Y0299193D03*
X0693095Y0299193D03*
X0693095Y0306673D03*
X0683595Y0306673D03*
X0747595Y0306673D03*
X0757095Y0306673D03*
X0757095Y0299193D03*
X0747595Y0299193D03*
X0744595Y0253673D03*
X0744595Y0246193D03*
X0754595Y0246193D03*
X0754595Y0253673D03*
X0690595Y0253673D03*
X0680595Y0253673D03*
X0680595Y0246193D03*
X0690595Y0246193D03*
X0626595Y0246193D03*
X0616595Y0246193D03*
X0616595Y0253673D03*
X0626595Y0253673D03*
X0629595Y0210673D03*
X0620095Y0210673D03*
X0620095Y0203193D03*
X0629595Y0203193D03*
X0684095Y0203193D03*
X0693595Y0203193D03*
X0693595Y0210673D03*
X0684095Y0210673D03*
X0748095Y0210673D03*
X0757595Y0210673D03*
X0757595Y0203193D03*
X0748095Y0203193D03*
X0745095Y0157673D03*
X0745095Y0150193D03*
X0755095Y0150193D03*
X0755095Y0157673D03*
X0691095Y0157673D03*
X0681095Y0157673D03*
X0681095Y0150193D03*
X0691095Y0150193D03*
X0627095Y0150193D03*
X0617095Y0150193D03*
X0617095Y0157673D03*
X0627095Y0157673D03*
X0629595Y0114673D03*
X0620095Y0114673D03*
X0620095Y0107193D03*
X0629595Y0107193D03*
X0684095Y0107193D03*
X0693595Y0107193D03*
X0693595Y0114673D03*
X0684095Y0114673D03*
X0681095Y0061673D03*
X0691095Y0061673D03*
X0691095Y0054193D03*
X0681095Y0054193D03*
X0627095Y0054193D03*
X0617095Y0054193D03*
X0617095Y0061673D03*
X0627095Y0061673D03*
X0547095Y0065193D03*
X0538595Y0065193D03*
X0538595Y0072673D03*
X0547095Y0072673D03*
X0391595Y0073193D03*
X0391595Y0080673D03*
D12*
X0407595Y0122433D03*
X0357595Y0122433D03*
X0307595Y0122433D03*
X0257595Y0122433D03*
X0207595Y0122433D03*
X0207595Y0172433D03*
X0257595Y0172433D03*
X0307595Y0172433D03*
X0357595Y0172433D03*
X0407595Y0172433D03*
X0457595Y0172433D03*
X0507595Y0172433D03*
X0557595Y0172433D03*
X0557595Y0222433D03*
X0507595Y0222433D03*
X0457595Y0222433D03*
X0407595Y0222433D03*
X0357595Y0222433D03*
X0307595Y0222433D03*
X0257595Y0222433D03*
X0207595Y0222433D03*
X0207595Y0272433D03*
X0257595Y0272433D03*
X0307595Y0272433D03*
X0357595Y0272433D03*
X0407595Y0272433D03*
X0457595Y0272433D03*
X0507595Y0272433D03*
X0557595Y0272433D03*
X0557095Y0122433D03*
X0507595Y0122433D03*
X0457595Y0122433D03*
X0247095Y0070933D03*
X0215595Y0070933D03*
X0183595Y0070933D03*
D13*
X0311658Y0076004D03*
X0313627Y0076004D03*
X0315595Y0076004D03*
X0317564Y0076004D03*
X0319532Y0076004D03*
X0319532Y0059862D03*
X0317564Y0059862D03*
X0315595Y0059862D03*
X0313627Y0059862D03*
X0311658Y0059862D03*
X0601158Y0065504D03*
X0603127Y0065504D03*
X0605095Y0065504D03*
X0607064Y0065504D03*
X0609032Y0065504D03*
X0609032Y0049362D03*
X0607064Y0049362D03*
X0605095Y0049362D03*
X0603127Y0049362D03*
X0601158Y0049362D03*
X0665158Y0049362D03*
X0667127Y0049362D03*
X0669095Y0049362D03*
X0671064Y0049362D03*
X0673032Y0049362D03*
X0673032Y0065504D03*
X0671064Y0065504D03*
X0669095Y0065504D03*
X0667127Y0065504D03*
X0665158Y0065504D03*
X0665158Y0102862D03*
X0667127Y0102862D03*
X0669095Y0102862D03*
X0671064Y0102862D03*
X0673032Y0102862D03*
X0673032Y0119004D03*
X0671064Y0119004D03*
X0669095Y0119004D03*
X0667127Y0119004D03*
X0665158Y0119004D03*
X0609032Y0119004D03*
X0607064Y0119004D03*
X0605095Y0119004D03*
X0603127Y0119004D03*
X0601158Y0119004D03*
X0601158Y0102862D03*
X0603127Y0102862D03*
X0605095Y0102862D03*
X0607064Y0102862D03*
X0609032Y0102862D03*
X0609032Y0145362D03*
X0607064Y0145362D03*
X0605095Y0145362D03*
X0603127Y0145362D03*
X0601158Y0145362D03*
X0601158Y0161504D03*
X0603127Y0161504D03*
X0605095Y0161504D03*
X0607064Y0161504D03*
X0609032Y0161504D03*
X0665158Y0161504D03*
X0667127Y0161504D03*
X0669095Y0161504D03*
X0671064Y0161504D03*
X0673032Y0161504D03*
X0673032Y0145362D03*
X0671064Y0145362D03*
X0669095Y0145362D03*
X0667127Y0145362D03*
X0665158Y0145362D03*
X0729158Y0145362D03*
X0731127Y0145362D03*
X0733095Y0145362D03*
X0735064Y0145362D03*
X0737032Y0145362D03*
X0737032Y0161504D03*
X0735064Y0161504D03*
X0733095Y0161504D03*
X0731127Y0161504D03*
X0729158Y0161504D03*
X0729158Y0198862D03*
X0731127Y0198862D03*
X0733095Y0198862D03*
X0735064Y0198862D03*
X0737032Y0198862D03*
X0737032Y0215004D03*
X0735064Y0215004D03*
X0733095Y0215004D03*
X0731127Y0215004D03*
X0729158Y0215004D03*
X0728658Y0241362D03*
X0730627Y0241362D03*
X0732595Y0241362D03*
X0734564Y0241362D03*
X0736532Y0241362D03*
X0736532Y0257504D03*
X0734564Y0257504D03*
X0732595Y0257504D03*
X0730627Y0257504D03*
X0728658Y0257504D03*
X0672532Y0257504D03*
X0670564Y0257504D03*
X0668595Y0257504D03*
X0666627Y0257504D03*
X0664658Y0257504D03*
X0664658Y0241362D03*
X0666627Y0241362D03*
X0668595Y0241362D03*
X0670564Y0241362D03*
X0672532Y0241362D03*
X0673032Y0215004D03*
X0671064Y0215004D03*
X0669095Y0215004D03*
X0667127Y0215004D03*
X0665158Y0215004D03*
X0665158Y0198862D03*
X0667127Y0198862D03*
X0669095Y0198862D03*
X0671064Y0198862D03*
X0673032Y0198862D03*
X0609032Y0198862D03*
X0607064Y0198862D03*
X0605095Y0198862D03*
X0603127Y0198862D03*
X0601158Y0198862D03*
X0601158Y0215004D03*
X0603127Y0215004D03*
X0605095Y0215004D03*
X0607064Y0215004D03*
X0609032Y0215004D03*
X0608532Y0241362D03*
X0606564Y0241362D03*
X0604595Y0241362D03*
X0602627Y0241362D03*
X0600658Y0241362D03*
X0600658Y0257504D03*
X0602627Y0257504D03*
X0604595Y0257504D03*
X0606564Y0257504D03*
X0608532Y0257504D03*
X0608532Y0294862D03*
X0606564Y0294862D03*
X0604595Y0294862D03*
X0602627Y0294862D03*
X0600658Y0294862D03*
X0600658Y0311004D03*
X0602627Y0311004D03*
X0604595Y0311004D03*
X0606564Y0311004D03*
X0608532Y0311004D03*
X0664658Y0311004D03*
X0666627Y0311004D03*
X0668595Y0311004D03*
X0670564Y0311004D03*
X0672532Y0311004D03*
X0672532Y0294862D03*
X0670564Y0294862D03*
X0668595Y0294862D03*
X0666627Y0294862D03*
X0664658Y0294862D03*
X0728658Y0294862D03*
X0730627Y0294862D03*
X0732595Y0294862D03*
X0734564Y0294862D03*
X0736532Y0294862D03*
X0736532Y0311004D03*
X0734564Y0311004D03*
X0732595Y0311004D03*
X0730627Y0311004D03*
X0728658Y0311004D03*
D14*
X0798595Y0278733D03*
X0798595Y0267833D03*
X0808595Y0262433D03*
X0798595Y0257033D03*
X0808595Y0251533D03*
X0808595Y0240733D03*
X0798595Y0246133D03*
X0798595Y0235233D03*
X0808595Y0229833D03*
X0798595Y0224433D03*
X0808595Y0218933D03*
X0798595Y0213533D03*
X0798595Y0202633D03*
X0808595Y0197233D03*
X0798595Y0191833D03*
X0808595Y0186333D03*
X0798595Y0180933D03*
X0808595Y0175533D03*
X0808595Y0164633D03*
X0798595Y0159233D03*
X0808595Y0153733D03*
X0798595Y0148333D03*
X0808595Y0142933D03*
X0798595Y0137433D03*
X0798595Y0126533D03*
X0808595Y0121133D03*
X0798595Y0115733D03*
X0808595Y0110233D03*
X0808595Y0099433D03*
X0798595Y0104833D03*
X0798595Y0093933D03*
X0808595Y0088533D03*
X0798595Y0083133D03*
X0808595Y0132033D03*
X0798595Y0170033D03*
X0808595Y0208133D03*
X0808595Y0273333D03*
X0145095Y0269433D03*
X0135095Y0274833D03*
X0135095Y0263933D03*
X0145095Y0258533D03*
X0135095Y0253133D03*
X0145095Y0247633D03*
X0135095Y0242233D03*
X0145095Y0236833D03*
X0135095Y0231333D03*
X0145095Y0225933D03*
X0135095Y0220533D03*
X0145095Y0215033D03*
X0135095Y0209633D03*
X0145095Y0204133D03*
X0135095Y0198733D03*
X0145095Y0193333D03*
X0135095Y0187833D03*
X0145095Y0182433D03*
X0135095Y0177033D03*
X0145095Y0171533D03*
X0135095Y0166133D03*
X0145095Y0160733D03*
X0135095Y0155233D03*
X0145095Y0149833D03*
X0135095Y0144433D03*
X0145095Y0138933D03*
X0135095Y0133533D03*
X0145095Y0128133D03*
X0135095Y0122633D03*
X0145095Y0117233D03*
X0135095Y0111833D03*
X0145095Y0106333D03*
X0135095Y0100933D03*
X0145095Y0095533D03*
X0135095Y0090033D03*
X0145095Y0084633D03*
X0145095Y0280233D03*
D15*
X0140095Y0057433D03*
X0140095Y0307433D03*
X0803595Y0305933D03*
X0803595Y0055933D03*
D16*
X0654654Y0054933D03*
X0654654Y0059933D03*
X0649536Y0059933D03*
X0649536Y0054933D03*
X0590654Y0054933D03*
X0590654Y0059933D03*
X0585536Y0059933D03*
X0585536Y0054933D03*
X0507154Y0069433D03*
X0507154Y0074433D03*
X0502036Y0074433D03*
X0502036Y0069433D03*
X0585536Y0108433D03*
X0585536Y0113433D03*
X0590654Y0113433D03*
X0590654Y0108433D03*
X0649536Y0108433D03*
X0649536Y0113433D03*
X0654654Y0113433D03*
X0654654Y0108433D03*
X0654654Y0150933D03*
X0654654Y0155933D03*
X0649536Y0155933D03*
X0649536Y0150933D03*
X0590654Y0150933D03*
X0590654Y0155933D03*
X0585536Y0155933D03*
X0585536Y0150933D03*
X0585536Y0204933D03*
X0585536Y0209433D03*
X0590654Y0209433D03*
X0590654Y0204933D03*
X0649536Y0204433D03*
X0649536Y0209433D03*
X0654654Y0209433D03*
X0654654Y0204433D03*
X0713536Y0204433D03*
X0713536Y0209433D03*
X0718654Y0209433D03*
X0718654Y0204433D03*
X0718154Y0247433D03*
X0713036Y0247433D03*
X0713036Y0252433D03*
X0718154Y0252433D03*
X0654154Y0251933D03*
X0654154Y0246933D03*
X0649036Y0246933D03*
X0649036Y0251933D03*
X0590154Y0251933D03*
X0590154Y0246933D03*
X0585036Y0246933D03*
X0585036Y0251933D03*
X0585036Y0300933D03*
X0590154Y0300933D03*
X0590154Y0305933D03*
X0585036Y0305933D03*
X0648536Y0305933D03*
X0653654Y0305933D03*
X0653654Y0300933D03*
X0648536Y0300933D03*
X0713036Y0300433D03*
X0713036Y0305433D03*
X0718154Y0305433D03*
X0718154Y0300433D03*
X0718654Y0156433D03*
X0718654Y0151433D03*
X0713536Y0151433D03*
X0713536Y0156433D03*
X0405654Y0062933D03*
X0400536Y0062933D03*
X0315654Y0053933D03*
X0310536Y0053933D03*
X0311036Y0082933D03*
X0316154Y0082933D03*
D17*
X0418095Y0049992D03*
X0422595Y0049992D03*
X0433595Y0052492D03*
X0433595Y0047374D03*
X0422595Y0044874D03*
X0418095Y0044874D03*
X0452095Y0045874D03*
X0452095Y0050992D03*
X0553595Y0067374D03*
X0558095Y0067374D03*
X0558095Y0072492D03*
X0553595Y0072492D03*
X0618595Y0070874D03*
X0618595Y0075992D03*
X0618595Y0092374D03*
X0618595Y0097492D03*
X0682595Y0096992D03*
X0682595Y0091874D03*
X0683095Y0075492D03*
X0683095Y0070374D03*
X0682595Y0166374D03*
X0682595Y0171492D03*
X0682595Y0187874D03*
X0682595Y0192992D03*
X0618595Y0193492D03*
X0618595Y0188374D03*
X0618595Y0171492D03*
X0618595Y0166374D03*
X0746595Y0166374D03*
X0746595Y0171492D03*
X0746595Y0187874D03*
X0746595Y0192992D03*
X0746095Y0262374D03*
X0746095Y0267492D03*
X0746095Y0283874D03*
X0746095Y0288992D03*
X0682095Y0289492D03*
X0682095Y0284374D03*
X0682095Y0267992D03*
X0682095Y0262874D03*
X0618095Y0262374D03*
X0618095Y0267492D03*
X0618095Y0284374D03*
X0618095Y0289492D03*
D18*
X0508335Y0081433D03*
X0500855Y0081433D03*
X0522355Y0042933D03*
X0529835Y0042933D03*
D19*
X0446595Y0044799D03*
X0439095Y0044799D03*
X0439095Y0053067D03*
X0446595Y0053067D03*
X0408595Y0050067D03*
X0399595Y0050067D03*
X0399595Y0041799D03*
X0408595Y0041799D03*
D20*
X0409214Y0073193D03*
X0409214Y0076933D03*
X0409214Y0080673D03*
X0398977Y0080673D03*
X0398977Y0073193D03*
D21*
X0381095Y0062933D03*
X0371095Y0062933D03*
D22*
X0370977Y0053433D03*
X0373536Y0053433D03*
X0376095Y0053433D03*
X0378654Y0053433D03*
X0381213Y0053433D03*
D23*
X0385790Y0052016D03*
X0366400Y0052016D03*
D24*
X0364629Y0042961D03*
X0387562Y0042961D03*
D25*
X0379442Y0042961D03*
X0372867Y0042961D03*
D26*
X0434595Y0068433D02*
X0440595Y0068433D01*
X0440595Y0078433D02*
X0434595Y0078433D01*
D27*
X0384075Y0073433D03*
X0369115Y0073433D03*
D28*
X0516095Y0072633D03*
X0521095Y0072633D03*
X0526095Y0072633D03*
X0531095Y0072633D03*
X0531095Y0053233D03*
X0526095Y0053233D03*
X0521095Y0053233D03*
X0516095Y0053233D03*
D29*
X0485395Y0052633D03*
X0465795Y0052633D03*
X0465795Y0076233D03*
X0485395Y0076233D03*
D30*
X0515595Y0086933D03*
X0517595Y0081433D03*
X0566595Y0074433D03*
X0579595Y0083433D03*
X0573095Y0085933D03*
X0596595Y0085933D03*
X0596595Y0080933D03*
X0596095Y0070433D03*
X0600595Y0070433D03*
X0605095Y0070433D03*
X0609595Y0070433D03*
X0614095Y0070433D03*
X0626595Y0069933D03*
X0644095Y0083433D03*
X0660595Y0080933D03*
X0660595Y0085933D03*
X0660095Y0097433D03*
X0664595Y0097433D03*
X0669095Y0097433D03*
X0673595Y0097433D03*
X0678095Y0097433D03*
X0693595Y0100433D03*
X0672095Y0107933D03*
X0666095Y0113933D03*
X0660595Y0113433D03*
X0660595Y0108433D03*
X0649595Y0117933D03*
X0669095Y0124433D03*
X0669095Y0140433D03*
X0649595Y0145933D03*
X0660595Y0150933D03*
X0660595Y0155933D03*
X0668095Y0156433D03*
X0666595Y0150433D03*
X0664595Y0166433D03*
X0660095Y0166433D03*
X0669095Y0166433D03*
X0673595Y0166433D03*
X0678095Y0166433D03*
X0691095Y0166433D03*
X0703595Y0166433D03*
X0724095Y0166433D03*
X0728595Y0166433D03*
X0733095Y0166433D03*
X0737595Y0166433D03*
X0742095Y0166433D03*
X0755095Y0165433D03*
X0732095Y0156433D03*
X0730595Y0150433D03*
X0724595Y0151433D03*
X0724595Y0156433D03*
X0713595Y0146433D03*
X0721095Y0140433D03*
X0733095Y0140433D03*
X0765595Y0124433D03*
X0752095Y0120933D03*
X0778595Y0135433D03*
X0777595Y0140933D03*
X0771595Y0140933D03*
X0771595Y0145433D03*
X0778595Y0178433D03*
X0780095Y0188933D03*
X0785095Y0188933D03*
X0780095Y0196933D03*
X0780095Y0201433D03*
X0775595Y0207433D03*
X0777095Y0212933D03*
X0770595Y0226933D03*
X0766595Y0231433D03*
X0752095Y0230433D03*
X0742095Y0228433D03*
X0733095Y0220433D03*
X0716095Y0227433D03*
X0718595Y0231433D03*
X0725095Y0234433D03*
X0724595Y0239933D03*
X0732595Y0236433D03*
X0713095Y0242433D03*
X0724095Y0247433D03*
X0730095Y0246433D03*
X0731595Y0252433D03*
X0724095Y0252433D03*
X0723595Y0262433D03*
X0728095Y0262433D03*
X0732595Y0262433D03*
X0737095Y0262433D03*
X0741595Y0262433D03*
X0754595Y0260933D03*
X0789095Y0273933D03*
X0790095Y0289433D03*
X0757095Y0291933D03*
X0741595Y0289433D03*
X0737095Y0289433D03*
X0732595Y0289433D03*
X0728095Y0289433D03*
X0723595Y0289433D03*
X0724095Y0278433D03*
X0724095Y0273433D03*
X0707595Y0275933D03*
X0677595Y0289433D03*
X0673095Y0289433D03*
X0668595Y0289433D03*
X0664095Y0289433D03*
X0659595Y0289433D03*
X0659595Y0300933D03*
X0671595Y0299933D03*
X0665595Y0305933D03*
X0659595Y0305933D03*
X0648595Y0310433D03*
X0660095Y0314933D03*
X0668595Y0316433D03*
X0713095Y0309933D03*
X0718595Y0319433D03*
X0732595Y0316433D03*
X0729595Y0305933D03*
X0724095Y0305433D03*
X0724095Y0300433D03*
X0735595Y0299933D03*
X0693095Y0292433D03*
X0660095Y0277933D03*
X0660095Y0272933D03*
X0643095Y0275433D03*
X0635595Y0289433D03*
X0629095Y0292433D03*
X0613595Y0289433D03*
X0609095Y0289433D03*
X0604595Y0289433D03*
X0600095Y0289433D03*
X0595595Y0289433D03*
X0596095Y0278433D03*
X0596095Y0272933D03*
X0579095Y0275433D03*
X0595595Y0262433D03*
X0600095Y0262433D03*
X0604595Y0262433D03*
X0609095Y0262433D03*
X0613595Y0262433D03*
X0626595Y0261433D03*
X0603595Y0252433D03*
X0596095Y0251933D03*
X0596095Y0246933D03*
X0602095Y0246433D03*
X0585095Y0242433D03*
X0604595Y0236433D03*
X0605095Y0220433D03*
X0602095Y0209933D03*
X0596595Y0209433D03*
X0596595Y0204933D03*
X0608095Y0203933D03*
X0629595Y0196433D03*
X0614095Y0193433D03*
X0609595Y0193433D03*
X0605095Y0193433D03*
X0600595Y0193433D03*
X0596095Y0193433D03*
X0581595Y0192433D03*
X0578095Y0196433D03*
X0575595Y0206433D03*
X0585595Y0214433D03*
X0643095Y0239933D03*
X0649095Y0242433D03*
X0660095Y0246933D03*
X0660095Y0251933D03*
X0667595Y0252433D03*
X0666095Y0246433D03*
X0668595Y0236433D03*
X0669095Y0220433D03*
X0649595Y0213933D03*
X0660595Y0209433D03*
X0660595Y0204433D03*
X0666095Y0209933D03*
X0672095Y0203933D03*
X0673595Y0193433D03*
X0669095Y0193433D03*
X0664595Y0193433D03*
X0660095Y0193433D03*
X0678095Y0193433D03*
X0693595Y0196433D03*
X0700095Y0193433D03*
X0707595Y0179933D03*
X0724595Y0177433D03*
X0724595Y0182433D03*
X0724095Y0193433D03*
X0728595Y0193433D03*
X0733095Y0193433D03*
X0737595Y0193433D03*
X0742095Y0193433D03*
X0757595Y0196433D03*
X0736095Y0203933D03*
X0730095Y0209933D03*
X0724595Y0209433D03*
X0724595Y0204433D03*
X0713595Y0214433D03*
X0660595Y0182433D03*
X0660595Y0177433D03*
X0643595Y0179933D03*
X0627095Y0165433D03*
X0635095Y0162433D03*
X0614095Y0166433D03*
X0609595Y0166433D03*
X0605095Y0166433D03*
X0600595Y0166433D03*
X0596095Y0166433D03*
X0596595Y0155933D03*
X0596595Y0150933D03*
X0602595Y0150433D03*
X0604095Y0156433D03*
X0585095Y0146433D03*
X0605095Y0140433D03*
X0605095Y0124433D03*
X0589095Y0124933D03*
X0585595Y0118433D03*
X0596595Y0113433D03*
X0596095Y0108433D03*
X0602095Y0113933D03*
X0608095Y0107933D03*
X0629595Y0100433D03*
X0614095Y0097433D03*
X0609595Y0097433D03*
X0605095Y0097433D03*
X0600595Y0097433D03*
X0596095Y0097433D03*
X0567095Y0109433D03*
X0518095Y0110433D03*
X0492595Y0106933D03*
X0466095Y0106433D03*
X0445595Y0102433D03*
X0415095Y0102433D03*
X0404095Y0086433D03*
X0416595Y0081933D03*
X0414595Y0076933D03*
X0419095Y0066933D03*
X0413595Y0062933D03*
X0395595Y0054933D03*
X0413595Y0045933D03*
X0429095Y0044433D03*
X0440595Y0040433D03*
X0456595Y0051433D03*
X0450595Y0058433D03*
X0361095Y0098433D03*
X0353595Y0090933D03*
X0323595Y0083933D03*
X0314595Y0089433D03*
X0306495Y0095033D03*
X0315595Y0067933D03*
X0326595Y0067933D03*
X0324095Y0053933D03*
X0314095Y0047933D03*
X0354595Y0039933D03*
X0354595Y0067933D03*
X0442095Y0160433D03*
X0406595Y0188933D03*
X0401095Y0191933D03*
X0361095Y0185933D03*
X0175595Y0209933D03*
X0172595Y0216433D03*
X0159595Y0208933D03*
X0163095Y0200933D03*
X0166595Y0194933D03*
X0156095Y0217933D03*
X0152595Y0225933D03*
X0169595Y0226933D03*
X0564095Y0059933D03*
X0580095Y0057433D03*
X0596595Y0054933D03*
X0596595Y0059933D03*
X0604095Y0060433D03*
X0602595Y0054433D03*
X0605095Y0044433D03*
X0638095Y0044933D03*
X0649595Y0050433D03*
X0660595Y0054933D03*
X0660595Y0059933D03*
X0668095Y0060433D03*
X0666595Y0054433D03*
X0669095Y0044433D03*
X0677595Y0045433D03*
X0659595Y0044933D03*
X0700595Y0040933D03*
X0691095Y0068433D03*
X0678095Y0070433D03*
X0673595Y0070433D03*
X0669095Y0070433D03*
X0664595Y0070433D03*
X0660095Y0070433D03*
X0574595Y0041933D03*
X0846095Y0039933D03*
X0596595Y0176933D03*
X0596595Y0181933D03*
X0579595Y0179433D03*
X0649095Y0262433D03*
X0659595Y0262433D03*
X0664095Y0262433D03*
X0668595Y0262433D03*
X0673095Y0262433D03*
X0677595Y0262433D03*
X0690595Y0260433D03*
X0701095Y0260433D03*
X0607595Y0299933D03*
X0596095Y0300933D03*
X0596095Y0305933D03*
X0601595Y0305933D03*
X0604595Y0316433D03*
X0585095Y0310433D03*
X0571095Y0322433D03*
X0773095Y0319433D03*
X0846595Y0322433D03*
M02*
