G75*
%MOIN*%
%OFA0B0*%
%FSLAX25Y25*%
%IPPOS*%
%LPD*%
%AMOC8*
5,1,8,0,0,1.08239X$1,22.5*
%
%ADD10C,0.05600*%
%ADD11C,0.06000*%
%ADD12C,0.07800*%
%ADD13C,0.05200*%
%ADD14C,0.05150*%
%ADD15C,0.04362*%
%ADD16C,0.01600*%
%ADD17C,0.01000*%
%ADD18C,0.01200*%
D10*
X0433783Y0164950D03*
X0433783Y0174950D03*
X0433783Y0243690D03*
X0433783Y0253690D03*
X0433783Y0322430D03*
X0433783Y0332430D03*
X0433783Y0515343D03*
X0433783Y0525343D03*
X0433783Y0594083D03*
X0433783Y0604083D03*
X0433783Y0672824D03*
X0433783Y0682824D03*
D11*
X0167287Y0650501D03*
X0147287Y0650501D03*
X0157287Y0611761D03*
X0147287Y0571761D03*
X0167287Y0571761D03*
X0157287Y0533020D03*
X0147287Y0493020D03*
X0167287Y0493020D03*
X0157287Y0340107D03*
X0147287Y0300107D03*
X0167287Y0300107D03*
X0157287Y0261367D03*
X0147287Y0221367D03*
X0167287Y0221367D03*
X0157287Y0182627D03*
X0147287Y0142627D03*
X0167287Y0142627D03*
X0157287Y0690501D03*
D12*
X0127366Y0680658D03*
X0100634Y0697036D03*
X0100634Y0618296D03*
X0127366Y0601918D03*
X0100634Y0539556D03*
X0127366Y0523178D03*
X0068862Y0460186D03*
X0120043Y0367981D03*
X0100634Y0346643D03*
X0127366Y0330265D03*
X0100634Y0267902D03*
X0127366Y0251524D03*
X0100634Y0189162D03*
X0127366Y0172784D03*
X0209807Y0141603D03*
X0209807Y0220343D03*
X0209807Y0299083D03*
X0266972Y0413257D03*
X0295004Y0331367D03*
X0295161Y0310894D03*
X0295004Y0252627D03*
X0295161Y0232154D03*
X0295004Y0173887D03*
X0295161Y0153414D03*
X0304689Y0130107D03*
X0284138Y0130107D03*
X0262917Y0130107D03*
X0209807Y0491997D03*
X0209807Y0570737D03*
X0209807Y0649477D03*
X0295161Y0661288D03*
X0295004Y0681761D03*
X0295004Y0603020D03*
X0295161Y0582548D03*
X0295004Y0524280D03*
X0295161Y0503808D03*
D13*
X0359810Y0458482D03*
X0359810Y0434882D03*
X0379410Y0434882D03*
X0379410Y0458482D03*
X0379410Y0401395D03*
X0379410Y0377795D03*
X0359810Y0377795D03*
X0359810Y0401395D03*
D14*
X0202917Y0405028D03*
X0192917Y0405028D03*
X0192917Y0415028D03*
X0192917Y0425028D03*
X0202917Y0425028D03*
X0202917Y0415028D03*
X0197917Y0385028D03*
X0187917Y0385028D03*
X0177917Y0385028D03*
X0167917Y0385028D03*
X0157917Y0385028D03*
X0147917Y0385028D03*
X0137917Y0385028D03*
X0127917Y0385028D03*
X0117917Y0385028D03*
X0107917Y0385028D03*
X0097917Y0385028D03*
X0087917Y0385028D03*
X0077917Y0385028D03*
X0067917Y0385028D03*
X0057917Y0385028D03*
X0057917Y0445028D03*
X0067917Y0445028D03*
X0077917Y0445028D03*
X0087917Y0445028D03*
X0097917Y0445028D03*
X0107917Y0445028D03*
X0117917Y0445028D03*
X0127917Y0445028D03*
X0137917Y0445028D03*
X0147917Y0445028D03*
X0157917Y0445028D03*
X0167917Y0445028D03*
X0177917Y0445028D03*
X0187917Y0445028D03*
X0197917Y0445028D03*
D15*
X0210161Y0436839D03*
X0214098Y0446682D03*
X0202287Y0460461D03*
X0210161Y0468335D03*
X0229846Y0433887D03*
X0235752Y0442745D03*
X0251500Y0428965D03*
X0253469Y0401406D03*
X0277169Y0425107D03*
X0286933Y0405343D03*
X0273154Y0338414D03*
X0269217Y0330540D03*
X0231815Y0314792D03*
X0218035Y0334477D03*
X0231815Y0346288D03*
X0202287Y0348257D03*
X0202287Y0362036D03*
X0176697Y0348257D03*
X0170791Y0332509D03*
X0160949Y0348257D03*
X0133390Y0340383D03*
X0121579Y0321682D03*
X0113705Y0310855D03*
X0105831Y0314792D03*
X0102878Y0321682D03*
X0095594Y0309674D03*
X0062524Y0306918D03*
X0062524Y0334477D03*
X0101894Y0367942D03*
X0111736Y0409280D03*
X0132996Y0366761D03*
X0164886Y0397469D03*
X0169217Y0407312D03*
X0172760Y0415186D03*
X0178665Y0423060D03*
X0212130Y0423060D03*
X0221972Y0397469D03*
X0188508Y0318729D03*
X0172760Y0306918D03*
X0176697Y0269517D03*
X0170791Y0253769D03*
X0160949Y0269517D03*
X0133390Y0261643D03*
X0121579Y0242942D03*
X0113705Y0232115D03*
X0105831Y0236052D03*
X0102878Y0242942D03*
X0095988Y0228178D03*
X0127484Y0220304D03*
X0133390Y0182902D03*
X0121579Y0164202D03*
X0113705Y0153375D03*
X0105831Y0157312D03*
X0102878Y0164202D03*
X0095594Y0149044D03*
X0127484Y0141564D03*
X0160949Y0190776D03*
X0170791Y0175028D03*
X0176697Y0190776D03*
X0188508Y0161249D03*
X0172760Y0149438D03*
X0202287Y0190776D03*
X0218035Y0176997D03*
X0231815Y0188808D03*
X0231815Y0157312D03*
X0269217Y0173060D03*
X0273154Y0180934D03*
X0231815Y0236052D03*
X0218035Y0255737D03*
X0231815Y0267548D03*
X0202287Y0269517D03*
X0188508Y0239989D03*
X0172760Y0228178D03*
X0127484Y0299044D03*
X0062524Y0255737D03*
X0062524Y0228178D03*
X0062524Y0176997D03*
X0062524Y0149438D03*
X0062524Y0405343D03*
X0092051Y0478178D03*
X0095594Y0502587D03*
X0105831Y0507706D03*
X0102878Y0514595D03*
X0113705Y0503769D03*
X0121579Y0514595D03*
X0133390Y0533296D03*
X0160949Y0541170D03*
X0170791Y0525422D03*
X0176697Y0541170D03*
X0188508Y0511643D03*
X0172760Y0499831D03*
X0202287Y0541170D03*
X0218035Y0527391D03*
X0231815Y0539202D03*
X0231815Y0507706D03*
X0269217Y0523454D03*
X0273154Y0531328D03*
X0231815Y0586446D03*
X0218035Y0606131D03*
X0231815Y0617942D03*
X0202287Y0619910D03*
X0188508Y0590383D03*
X0172760Y0578572D03*
X0170791Y0604162D03*
X0176697Y0619910D03*
X0160949Y0619910D03*
X0133390Y0612036D03*
X0121579Y0593335D03*
X0113705Y0582509D03*
X0105831Y0586446D03*
X0102878Y0593335D03*
X0092051Y0576603D03*
X0062524Y0578572D03*
X0062524Y0606131D03*
X0062524Y0657312D03*
X0062524Y0684871D03*
X0095594Y0660068D03*
X0105831Y0665186D03*
X0102878Y0672076D03*
X0113705Y0661249D03*
X0121579Y0672076D03*
X0133390Y0690776D03*
X0160949Y0698650D03*
X0170791Y0682902D03*
X0176697Y0698650D03*
X0188508Y0669123D03*
X0172760Y0657312D03*
X0202287Y0698650D03*
X0218035Y0684871D03*
X0231815Y0696682D03*
X0231815Y0665186D03*
X0269217Y0680934D03*
X0273154Y0688808D03*
X0314492Y0678965D03*
X0336146Y0651406D03*
X0338114Y0625816D03*
X0359768Y0610068D03*
X0363705Y0604162D03*
X0355831Y0590383D03*
X0361736Y0570698D03*
X0338114Y0547076D03*
X0336146Y0572666D03*
X0314492Y0600225D03*
X0273154Y0610068D03*
X0269217Y0602194D03*
X0314492Y0521485D03*
X0336146Y0493926D03*
X0355831Y0511643D03*
X0363705Y0525422D03*
X0359768Y0531328D03*
X0385358Y0513611D03*
X0387327Y0525422D03*
X0401106Y0533296D03*
X0401106Y0541170D03*
X0385358Y0570698D03*
X0385358Y0592351D03*
X0387327Y0604162D03*
X0401106Y0612036D03*
X0401106Y0619910D03*
X0408980Y0588414D03*
X0385358Y0649438D03*
X0385358Y0671091D03*
X0387327Y0682902D03*
X0401106Y0690776D03*
X0401106Y0698650D03*
X0408980Y0667154D03*
X0363705Y0682902D03*
X0359768Y0688808D03*
X0355831Y0669123D03*
X0361736Y0649438D03*
X0338114Y0704556D03*
X0408980Y0509674D03*
X0385358Y0491957D03*
X0361736Y0491957D03*
X0338114Y0354162D03*
X0359768Y0338414D03*
X0363705Y0332509D03*
X0355831Y0318729D03*
X0361736Y0299044D03*
X0338114Y0275422D03*
X0336146Y0301013D03*
X0314492Y0328572D03*
X0273154Y0259674D03*
X0269217Y0251800D03*
X0314492Y0249831D03*
X0336146Y0222272D03*
X0338114Y0196682D03*
X0359768Y0180934D03*
X0363705Y0175028D03*
X0355831Y0161249D03*
X0361736Y0141564D03*
X0385358Y0141564D03*
X0385358Y0163217D03*
X0387327Y0175028D03*
X0401106Y0182902D03*
X0401106Y0190776D03*
X0408980Y0159280D03*
X0385358Y0220304D03*
X0385358Y0241957D03*
X0387327Y0253769D03*
X0401106Y0261643D03*
X0401106Y0269517D03*
X0408980Y0238020D03*
X0385358Y0299044D03*
X0385358Y0320698D03*
X0387327Y0332509D03*
X0401106Y0340383D03*
X0401106Y0348257D03*
X0408980Y0316761D03*
X0363705Y0253769D03*
X0359768Y0259674D03*
X0355831Y0239989D03*
X0361736Y0220304D03*
X0314492Y0171091D03*
X0336146Y0143532D03*
X0143232Y0417154D03*
X0127484Y0456524D03*
X0127484Y0491957D03*
X0127484Y0570698D03*
X0127484Y0649438D03*
X0062524Y0527391D03*
X0062524Y0499831D03*
D16*
X0054081Y0383903D02*
X0054081Y0125247D01*
X0259569Y0125247D01*
X0259074Y0125607D01*
X0258417Y0126263D01*
X0257871Y0127015D01*
X0257450Y0127842D01*
X0257163Y0128725D01*
X0257023Y0129607D01*
X0262417Y0129607D01*
X0262417Y0130607D01*
X0257023Y0130607D01*
X0257163Y0131489D01*
X0257450Y0132372D01*
X0257871Y0133199D01*
X0258417Y0133951D01*
X0259074Y0134607D01*
X0259825Y0135153D01*
X0260652Y0135575D01*
X0261536Y0135862D01*
X0262417Y0136001D01*
X0262417Y0130607D01*
X0263417Y0130607D01*
X0263417Y0136001D01*
X0264299Y0135862D01*
X0265182Y0135575D01*
X0266010Y0135153D01*
X0266761Y0134607D01*
X0267418Y0133951D01*
X0267963Y0133199D01*
X0268385Y0132372D01*
X0268672Y0131489D01*
X0268812Y0130607D01*
X0263417Y0130607D01*
X0263417Y0129607D01*
X0268812Y0129607D01*
X0268672Y0128725D01*
X0268385Y0127842D01*
X0267963Y0127015D01*
X0267418Y0126263D01*
X0266761Y0125607D01*
X0266266Y0125247D01*
X0282021Y0125247D01*
X0281136Y0125614D01*
X0279645Y0127105D01*
X0278838Y0129053D01*
X0278838Y0131161D01*
X0279645Y0133109D01*
X0281136Y0134600D01*
X0283084Y0135407D01*
X0285192Y0135407D01*
X0287140Y0134600D01*
X0288631Y0133109D01*
X0289438Y0131161D01*
X0289438Y0129053D01*
X0288631Y0127105D01*
X0287140Y0125614D01*
X0286255Y0125247D01*
X0302572Y0125247D01*
X0301687Y0125614D01*
X0300196Y0127105D01*
X0299389Y0129053D01*
X0299389Y0131161D01*
X0300196Y0133109D01*
X0301687Y0134600D01*
X0303635Y0135407D01*
X0305743Y0135407D01*
X0307691Y0134600D01*
X0309182Y0133109D01*
X0309989Y0131161D01*
X0309989Y0129053D01*
X0309182Y0127105D01*
X0307691Y0125614D01*
X0306806Y0125247D01*
X0443606Y0125247D01*
X0444664Y0712254D01*
X0054081Y0713310D01*
X0054081Y0446153D01*
X0054548Y0447280D01*
X0055666Y0448398D01*
X0057127Y0449003D01*
X0058708Y0449003D01*
X0060169Y0448398D01*
X0061287Y0447280D01*
X0061892Y0445819D01*
X0061892Y0444238D01*
X0061287Y0442777D01*
X0060169Y0441659D01*
X0058708Y0441054D01*
X0057127Y0441054D01*
X0055666Y0441659D01*
X0054548Y0442777D01*
X0054081Y0443903D01*
X0054081Y0386153D01*
X0054548Y0387280D01*
X0055666Y0388398D01*
X0057127Y0389003D01*
X0058708Y0389003D01*
X0060169Y0388398D01*
X0061287Y0387280D01*
X0061892Y0385819D01*
X0061892Y0384238D01*
X0061287Y0382777D01*
X0060169Y0381659D01*
X0058708Y0381054D01*
X0057127Y0381054D01*
X0055666Y0381659D01*
X0054548Y0382777D01*
X0054081Y0383903D01*
X0054081Y0382806D02*
X0054536Y0382806D01*
X0054081Y0381208D02*
X0056755Y0381208D01*
X0059080Y0381208D02*
X0066755Y0381208D01*
X0067127Y0381054D02*
X0068708Y0381054D01*
X0070169Y0381659D01*
X0071287Y0382777D01*
X0071892Y0384238D01*
X0071892Y0385819D01*
X0071287Y0387280D01*
X0070169Y0388398D01*
X0068708Y0389003D01*
X0067127Y0389003D01*
X0065666Y0388398D01*
X0064548Y0387280D01*
X0063943Y0385819D01*
X0063943Y0384238D01*
X0064548Y0382777D01*
X0065666Y0381659D01*
X0067127Y0381054D01*
X0069080Y0381208D02*
X0076755Y0381208D01*
X0077127Y0381054D02*
X0078708Y0381054D01*
X0080169Y0381659D01*
X0081287Y0382777D01*
X0081892Y0384238D01*
X0081892Y0385819D01*
X0081287Y0387280D01*
X0080169Y0388398D01*
X0078708Y0389003D01*
X0077127Y0389003D01*
X0075666Y0388398D01*
X0074548Y0387280D01*
X0073943Y0385819D01*
X0073943Y0384238D01*
X0074548Y0382777D01*
X0075666Y0381659D01*
X0077127Y0381054D01*
X0079080Y0381208D02*
X0086755Y0381208D01*
X0087127Y0381054D02*
X0088708Y0381054D01*
X0090169Y0381659D01*
X0091287Y0382777D01*
X0091892Y0384238D01*
X0091892Y0385819D01*
X0091287Y0387280D01*
X0090169Y0388398D01*
X0088708Y0389003D01*
X0087127Y0389003D01*
X0085666Y0388398D01*
X0084548Y0387280D01*
X0083943Y0385819D01*
X0083943Y0384238D01*
X0084548Y0382777D01*
X0085666Y0381659D01*
X0087127Y0381054D01*
X0089080Y0381208D02*
X0096755Y0381208D01*
X0097127Y0381054D02*
X0098708Y0381054D01*
X0100169Y0381659D01*
X0101287Y0382777D01*
X0101892Y0384238D01*
X0101892Y0385819D01*
X0101287Y0387280D01*
X0100169Y0388398D01*
X0098708Y0389003D01*
X0097127Y0389003D01*
X0095666Y0388398D01*
X0094548Y0387280D01*
X0093943Y0385819D01*
X0093943Y0384238D01*
X0094548Y0382777D01*
X0095666Y0381659D01*
X0097127Y0381054D01*
X0099080Y0381208D02*
X0106755Y0381208D01*
X0107127Y0381054D02*
X0108708Y0381054D01*
X0110169Y0381659D01*
X0111287Y0382777D01*
X0111892Y0384238D01*
X0111892Y0385819D01*
X0111287Y0387280D01*
X0110169Y0388398D01*
X0108708Y0389003D01*
X0107127Y0389003D01*
X0105666Y0388398D01*
X0104548Y0387280D01*
X0103943Y0385819D01*
X0103943Y0384238D01*
X0104548Y0382777D01*
X0105666Y0381659D01*
X0107127Y0381054D01*
X0109080Y0381208D02*
X0116755Y0381208D01*
X0117127Y0381054D02*
X0118708Y0381054D01*
X0120169Y0381659D01*
X0121287Y0382777D01*
X0121892Y0384238D01*
X0121892Y0385819D01*
X0121287Y0387280D01*
X0120169Y0388398D01*
X0118708Y0389003D01*
X0117127Y0389003D01*
X0115666Y0388398D01*
X0114548Y0387280D01*
X0113943Y0385819D01*
X0113943Y0384238D01*
X0114548Y0382777D01*
X0115666Y0381659D01*
X0117127Y0381054D01*
X0119080Y0381208D02*
X0126755Y0381208D01*
X0127127Y0381054D02*
X0128708Y0381054D01*
X0130169Y0381659D01*
X0131287Y0382777D01*
X0131892Y0384238D01*
X0131892Y0385819D01*
X0131287Y0387280D01*
X0130169Y0388398D01*
X0128708Y0389003D01*
X0127127Y0389003D01*
X0125666Y0388398D01*
X0124548Y0387280D01*
X0123943Y0385819D01*
X0123943Y0384238D01*
X0124548Y0382777D01*
X0125666Y0381659D01*
X0127127Y0381054D01*
X0129080Y0381208D02*
X0136755Y0381208D01*
X0137127Y0381054D02*
X0135666Y0381659D01*
X0134548Y0382777D01*
X0133943Y0384238D01*
X0133943Y0385819D01*
X0134548Y0387280D01*
X0135666Y0388398D01*
X0137127Y0389003D01*
X0138708Y0389003D01*
X0140169Y0388398D01*
X0141287Y0387280D01*
X0141892Y0385819D01*
X0141892Y0384238D01*
X0141287Y0382777D01*
X0140169Y0381659D01*
X0138708Y0381054D01*
X0137127Y0381054D01*
X0139080Y0381208D02*
X0146755Y0381208D01*
X0147127Y0381054D02*
X0145666Y0381659D01*
X0144548Y0382777D01*
X0143943Y0384238D01*
X0143943Y0385819D01*
X0144548Y0387280D01*
X0145666Y0388398D01*
X0147127Y0389003D01*
X0148708Y0389003D01*
X0150169Y0388398D01*
X0151287Y0387280D01*
X0151892Y0385819D01*
X0151892Y0384238D01*
X0151287Y0382777D01*
X0150169Y0381659D01*
X0148708Y0381054D01*
X0147127Y0381054D01*
X0149080Y0381208D02*
X0156755Y0381208D01*
X0157127Y0381054D02*
X0158708Y0381054D01*
X0160169Y0381659D01*
X0161287Y0382777D01*
X0161892Y0384238D01*
X0161892Y0385819D01*
X0161287Y0387280D01*
X0160169Y0388398D01*
X0158708Y0389003D01*
X0157127Y0389003D01*
X0155666Y0388398D01*
X0154548Y0387280D01*
X0153943Y0385819D01*
X0153943Y0384238D01*
X0154548Y0382777D01*
X0155666Y0381659D01*
X0157127Y0381054D01*
X0159080Y0381208D02*
X0166755Y0381208D01*
X0167127Y0381054D02*
X0168708Y0381054D01*
X0170169Y0381659D01*
X0171287Y0382777D01*
X0171892Y0384238D01*
X0171892Y0385819D01*
X0171287Y0387280D01*
X0170169Y0388398D01*
X0168708Y0389003D01*
X0167127Y0389003D01*
X0165666Y0388398D01*
X0164548Y0387280D01*
X0163943Y0385819D01*
X0163943Y0384238D01*
X0164548Y0382777D01*
X0165666Y0381659D01*
X0167127Y0381054D01*
X0169080Y0381208D02*
X0176755Y0381208D01*
X0177127Y0381054D02*
X0178708Y0381054D01*
X0180169Y0381659D01*
X0181287Y0382777D01*
X0181892Y0384238D01*
X0181892Y0385819D01*
X0181287Y0387280D01*
X0180169Y0388398D01*
X0178708Y0389003D01*
X0177127Y0389003D01*
X0175666Y0388398D01*
X0174548Y0387280D01*
X0173943Y0385819D01*
X0173943Y0384238D01*
X0174548Y0382777D01*
X0175666Y0381659D01*
X0177127Y0381054D01*
X0179080Y0381208D02*
X0186755Y0381208D01*
X0187127Y0381054D02*
X0188708Y0381054D01*
X0190169Y0381659D01*
X0191287Y0382777D01*
X0191892Y0384238D01*
X0191892Y0385819D01*
X0191287Y0387280D01*
X0190169Y0388398D01*
X0188708Y0389003D01*
X0187127Y0389003D01*
X0185666Y0388398D01*
X0184548Y0387280D01*
X0183943Y0385819D01*
X0183943Y0384238D01*
X0184548Y0382777D01*
X0185666Y0381659D01*
X0187127Y0381054D01*
X0189080Y0381208D02*
X0196755Y0381208D01*
X0197127Y0381054D02*
X0198708Y0381054D01*
X0200169Y0381659D01*
X0201287Y0382777D01*
X0201892Y0384238D01*
X0201892Y0385819D01*
X0201287Y0387280D01*
X0200169Y0388398D01*
X0198708Y0389003D01*
X0197127Y0389003D01*
X0195666Y0388398D01*
X0194548Y0387280D01*
X0193943Y0385819D01*
X0193943Y0384238D01*
X0194548Y0382777D01*
X0195666Y0381659D01*
X0197127Y0381054D01*
X0199080Y0381208D02*
X0357596Y0381208D01*
X0357544Y0381186D02*
X0356419Y0380061D01*
X0355810Y0378591D01*
X0355810Y0377000D01*
X0356419Y0375529D01*
X0357544Y0374404D01*
X0359015Y0373795D01*
X0360606Y0373795D01*
X0362076Y0374404D01*
X0363201Y0375529D01*
X0363810Y0377000D01*
X0363810Y0378591D01*
X0363201Y0380061D01*
X0362076Y0381186D01*
X0360606Y0381795D01*
X0359015Y0381795D01*
X0357544Y0381186D01*
X0356232Y0379609D02*
X0054081Y0379609D01*
X0054081Y0378011D02*
X0355810Y0378011D01*
X0356054Y0376412D02*
X0054081Y0376412D01*
X0054081Y0374814D02*
X0357135Y0374814D01*
X0362485Y0374814D02*
X0376735Y0374814D01*
X0377144Y0374404D02*
X0378615Y0373795D01*
X0380206Y0373795D01*
X0381676Y0374404D01*
X0382801Y0375529D01*
X0383410Y0377000D01*
X0383410Y0378591D01*
X0382801Y0380061D01*
X0381676Y0381186D01*
X0380206Y0381795D01*
X0378615Y0381795D01*
X0377144Y0381186D01*
X0376019Y0380061D01*
X0375410Y0378591D01*
X0375410Y0377000D01*
X0376019Y0375529D01*
X0377144Y0374404D01*
X0375654Y0376412D02*
X0363567Y0376412D01*
X0363810Y0378011D02*
X0375410Y0378011D01*
X0375832Y0379609D02*
X0363389Y0379609D01*
X0362025Y0381208D02*
X0377196Y0381208D01*
X0381625Y0381208D02*
X0444068Y0381208D01*
X0444071Y0382806D02*
X0201299Y0382806D01*
X0201892Y0384405D02*
X0444074Y0384405D01*
X0444076Y0386003D02*
X0201816Y0386003D01*
X0200965Y0387602D02*
X0444079Y0387602D01*
X0444082Y0389200D02*
X0054081Y0389200D01*
X0054081Y0387602D02*
X0054869Y0387602D01*
X0054081Y0390799D02*
X0444085Y0390799D01*
X0444088Y0392397D02*
X0054081Y0392397D01*
X0054081Y0393996D02*
X0163914Y0393996D01*
X0164173Y0393888D02*
X0165598Y0393888D01*
X0166914Y0394433D01*
X0167922Y0395441D01*
X0168467Y0396757D01*
X0168467Y0398182D01*
X0167922Y0399498D01*
X0166914Y0400505D01*
X0165598Y0401050D01*
X0164173Y0401050D01*
X0162857Y0400505D01*
X0161850Y0399498D01*
X0161305Y0398182D01*
X0161305Y0396757D01*
X0161850Y0395441D01*
X0162857Y0394433D01*
X0164173Y0393888D01*
X0165858Y0393996D02*
X0221001Y0393996D01*
X0221260Y0393888D02*
X0222685Y0393888D01*
X0224001Y0394433D01*
X0225008Y0395441D01*
X0225554Y0396757D01*
X0225554Y0398182D01*
X0225008Y0399498D01*
X0224001Y0400505D01*
X0222685Y0401050D01*
X0221260Y0401050D01*
X0219944Y0400505D01*
X0218937Y0399498D01*
X0218391Y0398182D01*
X0218391Y0396757D01*
X0218937Y0395441D01*
X0219944Y0394433D01*
X0221260Y0393888D01*
X0222944Y0393996D02*
X0444091Y0393996D01*
X0444094Y0395594D02*
X0225072Y0395594D01*
X0225554Y0397193D02*
X0444097Y0397193D01*
X0444099Y0398791D02*
X0382463Y0398791D01*
X0382801Y0399129D02*
X0383410Y0400600D01*
X0383410Y0402191D01*
X0382801Y0403661D01*
X0381676Y0404786D01*
X0380206Y0405395D01*
X0378615Y0405395D01*
X0377144Y0404786D01*
X0376019Y0403661D01*
X0375410Y0402191D01*
X0375410Y0400600D01*
X0376019Y0399129D01*
X0377144Y0398004D01*
X0378615Y0397395D01*
X0380206Y0397395D01*
X0381676Y0398004D01*
X0382801Y0399129D01*
X0383323Y0400390D02*
X0444102Y0400390D01*
X0444105Y0401988D02*
X0383410Y0401988D01*
X0382832Y0403587D02*
X0444108Y0403587D01*
X0444111Y0405185D02*
X0380713Y0405185D01*
X0378108Y0405185D02*
X0361113Y0405185D01*
X0360606Y0405395D02*
X0359015Y0405395D01*
X0357544Y0404786D01*
X0356419Y0403661D01*
X0355810Y0402191D01*
X0355810Y0400600D01*
X0356419Y0399129D01*
X0357544Y0398004D01*
X0359015Y0397395D01*
X0360606Y0397395D01*
X0362076Y0398004D01*
X0363201Y0399129D01*
X0363810Y0400600D01*
X0363810Y0402191D01*
X0363201Y0403661D01*
X0362076Y0404786D01*
X0360606Y0405395D01*
X0358508Y0405185D02*
X0206892Y0405185D01*
X0206892Y0405819D02*
X0206287Y0407280D01*
X0205169Y0408398D01*
X0203708Y0409003D01*
X0202127Y0409003D01*
X0200666Y0408398D01*
X0199548Y0407280D01*
X0198943Y0405819D01*
X0198943Y0404238D01*
X0199548Y0402777D01*
X0200666Y0401659D01*
X0202127Y0401054D01*
X0203708Y0401054D01*
X0205169Y0401659D01*
X0206287Y0402777D01*
X0206892Y0404238D01*
X0206892Y0405819D01*
X0206492Y0406784D02*
X0444114Y0406784D01*
X0444117Y0408382D02*
X0269054Y0408382D01*
X0269975Y0408764D02*
X0268027Y0407957D01*
X0265918Y0407957D01*
X0263970Y0408764D01*
X0262479Y0410254D01*
X0261672Y0412202D01*
X0261672Y0414311D01*
X0262479Y0416259D01*
X0263970Y0417750D01*
X0265918Y0418557D01*
X0268027Y0418557D01*
X0269975Y0417750D01*
X0271466Y0416259D01*
X0272272Y0414311D01*
X0272272Y0412202D01*
X0271466Y0410254D01*
X0269975Y0408764D01*
X0271192Y0409981D02*
X0444120Y0409981D01*
X0444123Y0411579D02*
X0272014Y0411579D01*
X0272272Y0413178D02*
X0444125Y0413178D01*
X0444128Y0414776D02*
X0272080Y0414776D01*
X0271350Y0416375D02*
X0444131Y0416375D01*
X0444134Y0417973D02*
X0269435Y0417973D01*
X0264510Y0417973D02*
X0205594Y0417973D01*
X0205169Y0418398D02*
X0206287Y0417280D01*
X0206892Y0415819D01*
X0206892Y0414238D01*
X0206287Y0412777D01*
X0205169Y0411659D01*
X0203708Y0411054D01*
X0202127Y0411054D01*
X0200666Y0411659D01*
X0199548Y0412777D01*
X0198943Y0414238D01*
X0198943Y0415819D01*
X0199548Y0417280D01*
X0200666Y0418398D01*
X0202127Y0419003D01*
X0203708Y0419003D01*
X0205169Y0418398D01*
X0206662Y0416375D02*
X0262595Y0416375D01*
X0261865Y0414776D02*
X0206892Y0414776D01*
X0206453Y0413178D02*
X0261672Y0413178D01*
X0261931Y0411579D02*
X0204977Y0411579D01*
X0205185Y0408382D02*
X0264891Y0408382D01*
X0262753Y0409981D02*
X0171612Y0409981D01*
X0171245Y0410348D02*
X0169929Y0410893D01*
X0168504Y0410893D01*
X0167188Y0410348D01*
X0166181Y0409340D01*
X0165635Y0408024D01*
X0165635Y0406599D01*
X0166181Y0405283D01*
X0167188Y0404276D01*
X0168504Y0403731D01*
X0169929Y0403731D01*
X0171245Y0404276D01*
X0172252Y0405283D01*
X0172798Y0406599D01*
X0172798Y0408024D01*
X0172252Y0409340D01*
X0171245Y0410348D01*
X0172048Y0411605D02*
X0173472Y0411605D01*
X0174788Y0412150D01*
X0175796Y0413157D01*
X0176341Y0414473D01*
X0176341Y0415898D01*
X0175796Y0417214D01*
X0174788Y0418222D01*
X0173472Y0418767D01*
X0172048Y0418767D01*
X0170731Y0418222D01*
X0169724Y0417214D01*
X0169179Y0415898D01*
X0169179Y0414473D01*
X0169724Y0413157D01*
X0170731Y0412150D01*
X0172048Y0411605D01*
X0169715Y0413178D02*
X0054081Y0413178D01*
X0054081Y0414776D02*
X0140546Y0414776D01*
X0140196Y0415126D02*
X0141204Y0414118D01*
X0142520Y0413573D01*
X0143945Y0413573D01*
X0145261Y0414118D01*
X0146268Y0415126D01*
X0146813Y0416442D01*
X0146813Y0417867D01*
X0146268Y0419183D01*
X0145261Y0420190D01*
X0143945Y0420735D01*
X0142520Y0420735D01*
X0141204Y0420190D01*
X0140196Y0419183D01*
X0139651Y0417867D01*
X0139651Y0416442D01*
X0140196Y0415126D01*
X0139679Y0416375D02*
X0054081Y0416375D01*
X0054081Y0417973D02*
X0139695Y0417973D01*
X0140585Y0419572D02*
X0054081Y0419572D01*
X0054081Y0421170D02*
X0175572Y0421170D01*
X0175629Y0421031D02*
X0176637Y0420024D01*
X0177953Y0419479D01*
X0179378Y0419479D01*
X0180694Y0420024D01*
X0181701Y0421031D01*
X0182246Y0422348D01*
X0182246Y0423772D01*
X0181701Y0425088D01*
X0180694Y0426096D01*
X0179378Y0426641D01*
X0177953Y0426641D01*
X0176637Y0426096D01*
X0175629Y0425088D01*
X0175084Y0423772D01*
X0175084Y0422348D01*
X0175629Y0421031D01*
X0175084Y0422769D02*
X0054081Y0422769D01*
X0054081Y0424367D02*
X0175331Y0424367D01*
X0176507Y0425966D02*
X0054081Y0425966D01*
X0054081Y0427564D02*
X0189832Y0427564D01*
X0189548Y0427280D02*
X0188943Y0425819D01*
X0188943Y0424238D01*
X0189548Y0422777D01*
X0190666Y0421659D01*
X0192127Y0421054D01*
X0193708Y0421054D01*
X0195169Y0421659D01*
X0196287Y0422777D01*
X0196892Y0424238D01*
X0196892Y0425819D01*
X0196287Y0427280D01*
X0195169Y0428398D01*
X0193708Y0429003D01*
X0192127Y0429003D01*
X0190666Y0428398D01*
X0189548Y0427280D01*
X0189003Y0425966D02*
X0180824Y0425966D01*
X0182000Y0424367D02*
X0188943Y0424367D01*
X0189556Y0422769D02*
X0182246Y0422769D01*
X0181759Y0421170D02*
X0191845Y0421170D01*
X0193990Y0421170D02*
X0201845Y0421170D01*
X0202127Y0421054D02*
X0203708Y0421054D01*
X0205169Y0421659D01*
X0206287Y0422777D01*
X0206892Y0424238D01*
X0206892Y0425819D01*
X0206287Y0427280D01*
X0205169Y0428398D01*
X0203708Y0429003D01*
X0202127Y0429003D01*
X0200666Y0428398D01*
X0199548Y0427280D01*
X0198943Y0425819D01*
X0198943Y0424238D01*
X0199548Y0422777D01*
X0200666Y0421659D01*
X0202127Y0421054D01*
X0203990Y0421170D02*
X0209036Y0421170D01*
X0209094Y0421031D02*
X0210101Y0420024D01*
X0211418Y0419479D01*
X0212842Y0419479D01*
X0214158Y0420024D01*
X0215166Y0421031D01*
X0215711Y0422348D01*
X0215711Y0423772D01*
X0215166Y0425088D01*
X0214158Y0426096D01*
X0212842Y0426641D01*
X0211418Y0426641D01*
X0210101Y0426096D01*
X0209094Y0425088D01*
X0208549Y0423772D01*
X0208549Y0422348D01*
X0209094Y0421031D01*
X0208549Y0422769D02*
X0206279Y0422769D01*
X0206892Y0424367D02*
X0208795Y0424367D01*
X0209972Y0425966D02*
X0206831Y0425966D01*
X0206002Y0427564D02*
X0248204Y0427564D01*
X0248464Y0426937D02*
X0249471Y0425929D01*
X0250788Y0425384D01*
X0252212Y0425384D01*
X0253529Y0425929D01*
X0254536Y0426937D01*
X0255081Y0428253D01*
X0255081Y0429678D01*
X0254536Y0430994D01*
X0253529Y0432001D01*
X0252212Y0432546D01*
X0250788Y0432546D01*
X0249471Y0432001D01*
X0248464Y0430994D01*
X0247919Y0429678D01*
X0247919Y0428253D01*
X0248464Y0426937D01*
X0249435Y0425966D02*
X0214288Y0425966D01*
X0215464Y0424367D02*
X0273600Y0424367D01*
X0273588Y0424395D02*
X0274133Y0423079D01*
X0275141Y0422071D01*
X0276457Y0421526D01*
X0277882Y0421526D01*
X0279198Y0422071D01*
X0280205Y0423079D01*
X0280750Y0424395D01*
X0280750Y0425819D01*
X0280205Y0427136D01*
X0279198Y0428143D01*
X0277882Y0428688D01*
X0276457Y0428688D01*
X0275141Y0428143D01*
X0274133Y0427136D01*
X0273588Y0425819D01*
X0273588Y0424395D01*
X0273649Y0425966D02*
X0253565Y0425966D01*
X0254796Y0427564D02*
X0274562Y0427564D01*
X0274443Y0422769D02*
X0215711Y0422769D01*
X0215223Y0421170D02*
X0444140Y0421170D01*
X0444137Y0419572D02*
X0213067Y0419572D01*
X0211193Y0419572D02*
X0179602Y0419572D01*
X0177728Y0419572D02*
X0145879Y0419572D01*
X0146769Y0417973D02*
X0170483Y0417973D01*
X0169376Y0416375D02*
X0146786Y0416375D01*
X0145919Y0414776D02*
X0169179Y0414776D01*
X0166821Y0409981D02*
X0115317Y0409981D01*
X0115317Y0409993D02*
X0114772Y0411309D01*
X0113765Y0412316D01*
X0112449Y0412861D01*
X0111024Y0412861D01*
X0109708Y0412316D01*
X0108700Y0411309D01*
X0108155Y0409993D01*
X0108155Y0408568D01*
X0108700Y0407252D01*
X0109708Y0406244D01*
X0111024Y0405699D01*
X0112449Y0405699D01*
X0113765Y0406244D01*
X0114772Y0407252D01*
X0115317Y0408568D01*
X0115317Y0409993D01*
X0115240Y0408382D02*
X0165784Y0408382D01*
X0165635Y0406784D02*
X0114304Y0406784D01*
X0114502Y0411579D02*
X0190857Y0411579D01*
X0190666Y0411659D02*
X0192127Y0411054D01*
X0193708Y0411054D01*
X0195169Y0411659D01*
X0196287Y0412777D01*
X0196892Y0414238D01*
X0196892Y0415819D01*
X0196287Y0417280D01*
X0195169Y0418398D01*
X0193708Y0419003D01*
X0192127Y0419003D01*
X0190666Y0418398D01*
X0189548Y0417280D01*
X0188943Y0415819D01*
X0188943Y0414238D01*
X0189548Y0412777D01*
X0190666Y0411659D01*
X0189382Y0413178D02*
X0175804Y0413178D01*
X0176341Y0414776D02*
X0188943Y0414776D01*
X0189173Y0416375D02*
X0176143Y0416375D01*
X0175037Y0417973D02*
X0190241Y0417973D01*
X0195594Y0417973D02*
X0200241Y0417973D01*
X0199173Y0416375D02*
X0196662Y0416375D01*
X0196892Y0414776D02*
X0198943Y0414776D01*
X0199382Y0413178D02*
X0196453Y0413178D01*
X0194977Y0411579D02*
X0200857Y0411579D01*
X0200650Y0408382D02*
X0195185Y0408382D01*
X0195169Y0408398D02*
X0193708Y0409003D01*
X0192127Y0409003D01*
X0190666Y0408398D01*
X0189548Y0407280D01*
X0188943Y0405819D01*
X0188943Y0404238D01*
X0189548Y0402777D01*
X0190666Y0401659D01*
X0192127Y0401054D01*
X0193708Y0401054D01*
X0195169Y0401659D01*
X0196287Y0402777D01*
X0196892Y0404238D01*
X0196892Y0405819D01*
X0196287Y0407280D01*
X0195169Y0408398D01*
X0196492Y0406784D02*
X0199342Y0406784D01*
X0198943Y0405185D02*
X0196892Y0405185D01*
X0196622Y0403587D02*
X0199212Y0403587D01*
X0200336Y0401988D02*
X0195498Y0401988D01*
X0190336Y0401988D02*
X0063782Y0401988D01*
X0063236Y0401762D02*
X0064552Y0402307D01*
X0065560Y0403315D01*
X0066105Y0404631D01*
X0066105Y0406056D01*
X0065560Y0407372D01*
X0064552Y0408379D01*
X0063236Y0408924D01*
X0061811Y0408924D01*
X0060495Y0408379D01*
X0059488Y0407372D01*
X0058943Y0406056D01*
X0058943Y0404631D01*
X0059488Y0403315D01*
X0060495Y0402307D01*
X0061811Y0401762D01*
X0063236Y0401762D01*
X0061266Y0401988D02*
X0054081Y0401988D01*
X0054081Y0400390D02*
X0162742Y0400390D01*
X0161557Y0398791D02*
X0054081Y0398791D01*
X0054081Y0397193D02*
X0161305Y0397193D01*
X0161786Y0395594D02*
X0054081Y0395594D01*
X0054081Y0403587D02*
X0059375Y0403587D01*
X0058943Y0405185D02*
X0054081Y0405185D01*
X0054081Y0406784D02*
X0059244Y0406784D01*
X0060502Y0408382D02*
X0054081Y0408382D01*
X0054081Y0409981D02*
X0108155Y0409981D01*
X0108232Y0408382D02*
X0064545Y0408382D01*
X0065803Y0406784D02*
X0109168Y0406784D01*
X0108971Y0411579D02*
X0054081Y0411579D01*
X0066105Y0405185D02*
X0166279Y0405185D01*
X0167030Y0400390D02*
X0219828Y0400390D01*
X0218644Y0398791D02*
X0168214Y0398791D01*
X0168467Y0397193D02*
X0218391Y0397193D01*
X0218873Y0395594D02*
X0167985Y0395594D01*
X0170965Y0387602D02*
X0174869Y0387602D01*
X0174019Y0386003D02*
X0171816Y0386003D01*
X0171892Y0384405D02*
X0173943Y0384405D01*
X0174536Y0382806D02*
X0171299Y0382806D01*
X0180965Y0387602D02*
X0184869Y0387602D01*
X0184019Y0386003D02*
X0181816Y0386003D01*
X0181892Y0384405D02*
X0183943Y0384405D01*
X0184536Y0382806D02*
X0181299Y0382806D01*
X0191299Y0382806D02*
X0194536Y0382806D01*
X0193943Y0384405D02*
X0191892Y0384405D01*
X0191816Y0386003D02*
X0194019Y0386003D01*
X0194869Y0387602D02*
X0190965Y0387602D01*
X0189212Y0403587D02*
X0065672Y0403587D01*
X0064869Y0387602D02*
X0060965Y0387602D01*
X0061816Y0386003D02*
X0064019Y0386003D01*
X0063943Y0384405D02*
X0061892Y0384405D01*
X0061299Y0382806D02*
X0064536Y0382806D01*
X0071299Y0382806D02*
X0074536Y0382806D01*
X0073943Y0384405D02*
X0071892Y0384405D01*
X0071816Y0386003D02*
X0074019Y0386003D01*
X0074869Y0387602D02*
X0070965Y0387602D01*
X0080965Y0387602D02*
X0084869Y0387602D01*
X0084019Y0386003D02*
X0081816Y0386003D01*
X0081892Y0384405D02*
X0083943Y0384405D01*
X0084536Y0382806D02*
X0081299Y0382806D01*
X0091299Y0382806D02*
X0094536Y0382806D01*
X0093943Y0384405D02*
X0091892Y0384405D01*
X0091816Y0386003D02*
X0094019Y0386003D01*
X0094869Y0387602D02*
X0090965Y0387602D01*
X0100965Y0387602D02*
X0104869Y0387602D01*
X0104019Y0386003D02*
X0101816Y0386003D01*
X0101892Y0384405D02*
X0103943Y0384405D01*
X0104536Y0382806D02*
X0101299Y0382806D01*
X0101181Y0371523D02*
X0099865Y0370978D01*
X0098858Y0369970D01*
X0098313Y0368654D01*
X0098313Y0367229D01*
X0098858Y0365913D01*
X0099865Y0364906D01*
X0101181Y0364361D01*
X0102606Y0364361D01*
X0103922Y0364906D01*
X0104930Y0365913D01*
X0105475Y0367229D01*
X0105475Y0368654D01*
X0104930Y0369970D01*
X0103922Y0370978D01*
X0102606Y0371523D01*
X0101181Y0371523D01*
X0098906Y0370018D02*
X0054081Y0370018D01*
X0054081Y0371616D02*
X0116183Y0371616D01*
X0115550Y0370983D02*
X0114743Y0369035D01*
X0114743Y0366927D01*
X0115550Y0364979D01*
X0117041Y0363488D01*
X0118989Y0362681D01*
X0121098Y0362681D01*
X0123046Y0363488D01*
X0124536Y0364979D01*
X0125343Y0366927D01*
X0125343Y0369035D01*
X0124536Y0370983D01*
X0123046Y0372474D01*
X0121098Y0373281D01*
X0118989Y0373281D01*
X0117041Y0372474D01*
X0115550Y0370983D01*
X0115150Y0370018D02*
X0104882Y0370018D01*
X0105475Y0368419D02*
X0114743Y0368419D01*
X0114787Y0366821D02*
X0105306Y0366821D01*
X0104239Y0365222D02*
X0115449Y0365222D01*
X0116905Y0363624D02*
X0054081Y0363624D01*
X0054081Y0365222D02*
X0099549Y0365222D01*
X0098482Y0366821D02*
X0054081Y0366821D01*
X0054081Y0368419D02*
X0098313Y0368419D01*
X0099580Y0351943D02*
X0097632Y0351136D01*
X0096141Y0349645D01*
X0095334Y0347697D01*
X0095334Y0345588D01*
X0096141Y0343640D01*
X0097632Y0342149D01*
X0099580Y0341343D01*
X0101688Y0341343D01*
X0103636Y0342149D01*
X0105127Y0343640D01*
X0105934Y0345588D01*
X0105934Y0347697D01*
X0105127Y0349645D01*
X0103636Y0351136D01*
X0101688Y0351943D01*
X0099580Y0351943D01*
X0097332Y0350836D02*
X0054081Y0350836D01*
X0054081Y0352434D02*
X0334954Y0352434D01*
X0335078Y0352134D02*
X0336086Y0351126D01*
X0337402Y0350581D01*
X0338827Y0350581D01*
X0340143Y0351126D01*
X0341150Y0352134D01*
X0341695Y0353450D01*
X0341695Y0354875D01*
X0341150Y0356191D01*
X0340143Y0357198D01*
X0338827Y0357743D01*
X0337402Y0357743D01*
X0336086Y0357198D01*
X0335078Y0356191D01*
X0334533Y0354875D01*
X0334533Y0353450D01*
X0335078Y0352134D01*
X0334533Y0354033D02*
X0054081Y0354033D01*
X0054081Y0355631D02*
X0334847Y0355631D01*
X0336162Y0357230D02*
X0054081Y0357230D01*
X0054081Y0358828D02*
X0200674Y0358828D01*
X0200259Y0359000D02*
X0201575Y0358455D01*
X0203000Y0358455D01*
X0204316Y0359000D01*
X0205323Y0360008D01*
X0205868Y0361324D01*
X0205868Y0362749D01*
X0205323Y0364065D01*
X0204316Y0365072D01*
X0203000Y0365617D01*
X0201575Y0365617D01*
X0200259Y0365072D01*
X0199251Y0364065D01*
X0198706Y0362749D01*
X0198706Y0361324D01*
X0199251Y0360008D01*
X0200259Y0359000D01*
X0199078Y0360427D02*
X0054081Y0360427D01*
X0054081Y0362025D02*
X0198706Y0362025D01*
X0199069Y0363624D02*
X0134781Y0363624D01*
X0135025Y0363725D02*
X0136032Y0364732D01*
X0136577Y0366048D01*
X0136577Y0367473D01*
X0136032Y0368789D01*
X0135025Y0369797D01*
X0133708Y0370342D01*
X0132284Y0370342D01*
X0130968Y0369797D01*
X0129960Y0368789D01*
X0129415Y0367473D01*
X0129415Y0366048D01*
X0129960Y0364732D01*
X0130968Y0363725D01*
X0132284Y0363180D01*
X0133708Y0363180D01*
X0135025Y0363725D01*
X0136235Y0365222D02*
X0200622Y0365222D01*
X0203953Y0365222D02*
X0444039Y0365222D01*
X0444036Y0363624D02*
X0205506Y0363624D01*
X0205868Y0362025D02*
X0444033Y0362025D01*
X0444030Y0360427D02*
X0205497Y0360427D01*
X0203901Y0358828D02*
X0444027Y0358828D01*
X0444025Y0357230D02*
X0340066Y0357230D01*
X0341382Y0355631D02*
X0444022Y0355631D01*
X0444019Y0354033D02*
X0341695Y0354033D01*
X0341275Y0352434D02*
X0444016Y0352434D01*
X0444013Y0350836D02*
X0339442Y0350836D01*
X0336787Y0350836D02*
X0204773Y0350836D01*
X0204316Y0351293D02*
X0203000Y0351838D01*
X0201575Y0351838D01*
X0200259Y0351293D01*
X0199251Y0350285D01*
X0198706Y0348969D01*
X0198706Y0347544D01*
X0199251Y0346228D01*
X0200259Y0345221D01*
X0201575Y0344676D01*
X0203000Y0344676D01*
X0204316Y0345221D01*
X0205323Y0346228D01*
X0205868Y0347544D01*
X0205868Y0348969D01*
X0205323Y0350285D01*
X0204316Y0351293D01*
X0205757Y0349237D02*
X0229700Y0349237D01*
X0229786Y0349324D02*
X0228779Y0348317D01*
X0228234Y0347001D01*
X0228234Y0345576D01*
X0228779Y0344260D01*
X0229786Y0343252D01*
X0231103Y0342707D01*
X0232527Y0342707D01*
X0233843Y0343252D01*
X0234851Y0344260D01*
X0235396Y0345576D01*
X0235396Y0347001D01*
X0234851Y0348317D01*
X0233843Y0349324D01*
X0232527Y0349869D01*
X0231103Y0349869D01*
X0229786Y0349324D01*
X0228498Y0347639D02*
X0205868Y0347639D01*
X0205135Y0346040D02*
X0228234Y0346040D01*
X0228704Y0344442D02*
X0158320Y0344442D01*
X0158163Y0344507D02*
X0156412Y0344507D01*
X0154795Y0343837D01*
X0153557Y0342599D01*
X0152887Y0340982D01*
X0152887Y0339232D01*
X0153557Y0337615D01*
X0154795Y0336377D01*
X0156412Y0335707D01*
X0158163Y0335707D01*
X0159780Y0336377D01*
X0161018Y0337615D01*
X0161687Y0339232D01*
X0161687Y0340982D01*
X0161018Y0342599D01*
X0159780Y0343837D01*
X0158163Y0344507D01*
X0158920Y0345221D02*
X0160236Y0344676D01*
X0161661Y0344676D01*
X0162977Y0345221D01*
X0163985Y0346228D01*
X0164530Y0347544D01*
X0164530Y0348969D01*
X0163985Y0350285D01*
X0162977Y0351293D01*
X0161661Y0351838D01*
X0160236Y0351838D01*
X0158920Y0351293D01*
X0157913Y0350285D01*
X0157368Y0348969D01*
X0157368Y0347544D01*
X0157913Y0346228D01*
X0158920Y0345221D01*
X0158101Y0346040D02*
X0105934Y0346040D01*
X0105934Y0347639D02*
X0157368Y0347639D01*
X0157479Y0349237D02*
X0105296Y0349237D01*
X0103936Y0350836D02*
X0158464Y0350836D01*
X0163434Y0350836D02*
X0174212Y0350836D01*
X0174668Y0351293D02*
X0173661Y0350285D01*
X0173116Y0348969D01*
X0173116Y0347544D01*
X0173661Y0346228D01*
X0174668Y0345221D01*
X0175985Y0344676D01*
X0177409Y0344676D01*
X0178725Y0345221D01*
X0179733Y0346228D01*
X0180278Y0347544D01*
X0180278Y0348969D01*
X0179733Y0350285D01*
X0178725Y0351293D01*
X0177409Y0351838D01*
X0175985Y0351838D01*
X0174668Y0351293D01*
X0173227Y0349237D02*
X0164419Y0349237D01*
X0164530Y0347639D02*
X0173116Y0347639D01*
X0173849Y0346040D02*
X0163797Y0346040D01*
X0160774Y0342843D02*
X0230774Y0342843D01*
X0232856Y0342843D02*
X0398502Y0342843D01*
X0398070Y0342411D02*
X0397525Y0341095D01*
X0397525Y0339670D01*
X0398070Y0338354D01*
X0399078Y0337347D01*
X0400394Y0336802D01*
X0401819Y0336802D01*
X0403135Y0337347D01*
X0404142Y0338354D01*
X0404687Y0339670D01*
X0404687Y0341095D01*
X0404142Y0342411D01*
X0403135Y0343419D01*
X0401819Y0343964D01*
X0400394Y0343964D01*
X0399078Y0343419D01*
X0398070Y0342411D01*
X0397587Y0341245D02*
X0362002Y0341245D01*
X0361796Y0341450D02*
X0360480Y0341995D01*
X0359055Y0341995D01*
X0357739Y0341450D01*
X0356732Y0340443D01*
X0356187Y0339127D01*
X0356187Y0337702D01*
X0356732Y0336386D01*
X0357739Y0335378D01*
X0359055Y0334833D01*
X0360480Y0334833D01*
X0361307Y0335176D01*
X0360669Y0334537D01*
X0360124Y0333221D01*
X0360124Y0331796D01*
X0360669Y0330480D01*
X0361676Y0329473D01*
X0362992Y0328928D01*
X0364417Y0328928D01*
X0365733Y0329473D01*
X0366741Y0330480D01*
X0367286Y0331796D01*
X0367286Y0333221D01*
X0366741Y0334537D01*
X0365733Y0335545D01*
X0364417Y0336090D01*
X0362992Y0336090D01*
X0362165Y0335747D01*
X0362804Y0336386D01*
X0363349Y0337702D01*
X0363349Y0339127D01*
X0362804Y0340443D01*
X0361796Y0341450D01*
X0363134Y0339646D02*
X0397535Y0339646D01*
X0398377Y0338048D02*
X0363349Y0338048D01*
X0362830Y0336449D02*
X0432512Y0336449D01*
X0432948Y0336630D02*
X0431404Y0335991D01*
X0430223Y0334809D01*
X0429583Y0333265D01*
X0429583Y0331594D01*
X0430223Y0330051D01*
X0431404Y0328869D01*
X0432948Y0328230D01*
X0434619Y0328230D01*
X0436163Y0328869D01*
X0437344Y0330051D01*
X0437983Y0331594D01*
X0437983Y0333265D01*
X0437344Y0334809D01*
X0436163Y0335991D01*
X0434619Y0336630D01*
X0432948Y0336630D01*
X0435055Y0336449D02*
X0443987Y0336449D01*
X0443984Y0334851D02*
X0437302Y0334851D01*
X0437983Y0333252D02*
X0443981Y0333252D01*
X0443978Y0331654D02*
X0437983Y0331654D01*
X0437346Y0330055D02*
X0443976Y0330055D01*
X0443973Y0328457D02*
X0435166Y0328457D01*
X0434619Y0326630D02*
X0432948Y0326630D01*
X0431404Y0325991D01*
X0430223Y0324809D01*
X0429583Y0323265D01*
X0429583Y0321594D01*
X0430223Y0320051D01*
X0431404Y0318869D01*
X0432948Y0318230D01*
X0434619Y0318230D01*
X0436163Y0318869D01*
X0437344Y0320051D01*
X0437983Y0321594D01*
X0437983Y0323265D01*
X0437344Y0324809D01*
X0436163Y0325991D01*
X0434619Y0326630D01*
X0436893Y0325260D02*
X0443967Y0325260D01*
X0443970Y0326858D02*
X0317659Y0326858D01*
X0317528Y0326543D02*
X0318073Y0327859D01*
X0318073Y0329284D01*
X0317528Y0330600D01*
X0316521Y0331608D01*
X0315204Y0332153D01*
X0313780Y0332153D01*
X0312464Y0331608D01*
X0311456Y0330600D01*
X0310911Y0329284D01*
X0310911Y0327859D01*
X0311456Y0326543D01*
X0312464Y0325536D01*
X0313780Y0324991D01*
X0315204Y0324991D01*
X0316521Y0325536D01*
X0317528Y0326543D01*
X0318073Y0328457D02*
X0432401Y0328457D01*
X0430221Y0330055D02*
X0389938Y0330055D01*
X0390363Y0330480D02*
X0390908Y0331796D01*
X0390908Y0333221D01*
X0390363Y0334537D01*
X0389355Y0335545D01*
X0388039Y0336090D01*
X0386614Y0336090D01*
X0385298Y0335545D01*
X0384291Y0334537D01*
X0383746Y0333221D01*
X0383746Y0331796D01*
X0384291Y0330480D01*
X0385298Y0329473D01*
X0386614Y0328928D01*
X0388039Y0328928D01*
X0389355Y0329473D01*
X0390363Y0330480D01*
X0390849Y0331654D02*
X0429583Y0331654D01*
X0429583Y0333252D02*
X0390895Y0333252D01*
X0390049Y0334851D02*
X0430265Y0334851D01*
X0430674Y0325260D02*
X0315854Y0325260D01*
X0313130Y0325260D02*
X0129133Y0325260D01*
X0128420Y0324965D02*
X0130368Y0325771D01*
X0131859Y0327262D01*
X0132666Y0329210D01*
X0132666Y0331319D01*
X0131859Y0333267D01*
X0130368Y0334758D01*
X0128420Y0335565D01*
X0126312Y0335565D01*
X0124364Y0334758D01*
X0122873Y0333267D01*
X0122066Y0331319D01*
X0122066Y0329210D01*
X0122873Y0327262D01*
X0124364Y0325771D01*
X0126312Y0324965D01*
X0128420Y0324965D01*
X0125599Y0325260D02*
X0122299Y0325260D01*
X0122291Y0325263D02*
X0120866Y0325263D01*
X0119550Y0324718D01*
X0118543Y0323710D01*
X0117998Y0322394D01*
X0117998Y0320970D01*
X0118543Y0319653D01*
X0119550Y0318646D01*
X0120866Y0318101D01*
X0122291Y0318101D01*
X0123607Y0318646D01*
X0124615Y0319653D01*
X0125160Y0320970D01*
X0125160Y0322394D01*
X0124615Y0323710D01*
X0123607Y0324718D01*
X0122291Y0325263D01*
X0120858Y0325260D02*
X0054081Y0325260D01*
X0054081Y0326858D02*
X0123277Y0326858D01*
X0122378Y0328457D02*
X0054081Y0328457D01*
X0054081Y0330055D02*
X0122066Y0330055D01*
X0122205Y0331654D02*
X0054081Y0331654D01*
X0054081Y0333252D02*
X0122867Y0333252D01*
X0124589Y0334851D02*
X0054081Y0334851D01*
X0054081Y0336449D02*
X0154723Y0336449D01*
X0153378Y0338048D02*
X0136119Y0338048D01*
X0136426Y0338354D02*
X0136971Y0339670D01*
X0136971Y0341095D01*
X0136426Y0342411D01*
X0135418Y0343419D01*
X0134102Y0343964D01*
X0132677Y0343964D01*
X0131361Y0343419D01*
X0130354Y0342411D01*
X0129809Y0341095D01*
X0129809Y0339670D01*
X0130354Y0338354D01*
X0131361Y0337347D01*
X0132677Y0336802D01*
X0134102Y0336802D01*
X0135418Y0337347D01*
X0136426Y0338354D01*
X0136961Y0339646D02*
X0152887Y0339646D01*
X0152996Y0341245D02*
X0136909Y0341245D01*
X0135994Y0342843D02*
X0153801Y0342843D01*
X0156255Y0344442D02*
X0105459Y0344442D01*
X0104330Y0342843D02*
X0130786Y0342843D01*
X0129871Y0341245D02*
X0054081Y0341245D01*
X0054081Y0342843D02*
X0096938Y0342843D01*
X0095809Y0344442D02*
X0054081Y0344442D01*
X0054081Y0346040D02*
X0095334Y0346040D01*
X0095334Y0347639D02*
X0054081Y0347639D01*
X0054081Y0349237D02*
X0095972Y0349237D01*
X0105118Y0318373D02*
X0103802Y0317828D01*
X0102795Y0316821D01*
X0102250Y0315504D01*
X0102250Y0314080D01*
X0102795Y0312764D01*
X0103802Y0311756D01*
X0105118Y0311211D01*
X0106543Y0311211D01*
X0107859Y0311756D01*
X0108867Y0312764D01*
X0109412Y0314080D01*
X0109412Y0315504D01*
X0108867Y0316821D01*
X0107859Y0317828D01*
X0106543Y0318373D01*
X0105118Y0318373D01*
X0103241Y0317267D02*
X0054081Y0317267D01*
X0054081Y0315669D02*
X0102318Y0315669D01*
X0102254Y0314070D02*
X0054081Y0314070D01*
X0054081Y0312472D02*
X0093328Y0312472D01*
X0093566Y0312710D02*
X0092559Y0311703D01*
X0092013Y0310386D01*
X0092013Y0308962D01*
X0092559Y0307645D01*
X0093566Y0306638D01*
X0094882Y0306093D01*
X0096307Y0306093D01*
X0097623Y0306638D01*
X0098630Y0307645D01*
X0099176Y0308962D01*
X0099176Y0310386D01*
X0098630Y0311703D01*
X0097623Y0312710D01*
X0096307Y0313255D01*
X0094882Y0313255D01*
X0093566Y0312710D01*
X0092215Y0310873D02*
X0054081Y0310873D01*
X0054081Y0309275D02*
X0059816Y0309275D01*
X0059488Y0308947D02*
X0058943Y0307630D01*
X0058943Y0306206D01*
X0059488Y0304890D01*
X0060495Y0303882D01*
X0061811Y0303337D01*
X0063236Y0303337D01*
X0064552Y0303882D01*
X0065560Y0304890D01*
X0066105Y0306206D01*
X0066105Y0307630D01*
X0065560Y0308947D01*
X0064552Y0309954D01*
X0063236Y0310499D01*
X0061811Y0310499D01*
X0060495Y0309954D01*
X0059488Y0308947D01*
X0058961Y0307676D02*
X0054081Y0307676D01*
X0054081Y0306078D02*
X0058996Y0306078D01*
X0059898Y0304479D02*
X0054081Y0304479D01*
X0054081Y0302881D02*
X0143838Y0302881D01*
X0143557Y0302599D02*
X0142887Y0300982D01*
X0142887Y0299232D01*
X0143557Y0297615D01*
X0144795Y0296377D01*
X0146412Y0295707D01*
X0148163Y0295707D01*
X0149780Y0296377D01*
X0151018Y0297615D01*
X0151687Y0299232D01*
X0151687Y0300982D01*
X0151018Y0302599D01*
X0149780Y0303837D01*
X0148163Y0304507D01*
X0146412Y0304507D01*
X0144795Y0303837D01*
X0143557Y0302599D01*
X0143012Y0301282D02*
X0130311Y0301282D01*
X0130520Y0301073D02*
X0129513Y0302080D01*
X0128197Y0302625D01*
X0126772Y0302625D01*
X0125456Y0302080D01*
X0124448Y0301073D01*
X0123903Y0299756D01*
X0123903Y0298332D01*
X0124448Y0297016D01*
X0125456Y0296008D01*
X0126772Y0295463D01*
X0128197Y0295463D01*
X0129513Y0296008D01*
X0130520Y0297016D01*
X0131065Y0298332D01*
X0131065Y0299756D01*
X0130520Y0301073D01*
X0131065Y0299683D02*
X0142887Y0299683D01*
X0143362Y0298085D02*
X0130963Y0298085D01*
X0129991Y0296486D02*
X0144685Y0296486D01*
X0149889Y0296486D02*
X0164685Y0296486D01*
X0164795Y0296377D02*
X0166412Y0295707D01*
X0168163Y0295707D01*
X0169780Y0296377D01*
X0171018Y0297615D01*
X0171687Y0299232D01*
X0171687Y0300982D01*
X0171018Y0302599D01*
X0169780Y0303837D01*
X0168163Y0304507D01*
X0166412Y0304507D01*
X0164795Y0303837D01*
X0163557Y0302599D01*
X0162887Y0300982D01*
X0162887Y0299232D01*
X0163557Y0297615D01*
X0164795Y0296377D01*
X0163362Y0298085D02*
X0151212Y0298085D01*
X0151687Y0299683D02*
X0162887Y0299683D01*
X0163012Y0301282D02*
X0151563Y0301282D01*
X0150737Y0302881D02*
X0163838Y0302881D01*
X0166344Y0304479D02*
X0148230Y0304479D01*
X0146344Y0304479D02*
X0065149Y0304479D01*
X0066052Y0306078D02*
X0169232Y0306078D01*
X0169179Y0306206D02*
X0169724Y0304890D01*
X0170731Y0303882D01*
X0172048Y0303337D01*
X0173472Y0303337D01*
X0174788Y0303882D01*
X0175796Y0304890D01*
X0176341Y0306206D01*
X0176341Y0307630D01*
X0175796Y0308947D01*
X0174788Y0309954D01*
X0173472Y0310499D01*
X0172048Y0310499D01*
X0170731Y0309954D01*
X0169724Y0308947D01*
X0169179Y0307630D01*
X0169179Y0306206D01*
X0169198Y0307676D02*
X0115388Y0307676D01*
X0115733Y0307819D02*
X0116741Y0308827D01*
X0117286Y0310143D01*
X0117286Y0311567D01*
X0116741Y0312884D01*
X0115733Y0313891D01*
X0114417Y0314436D01*
X0112992Y0314436D01*
X0111676Y0313891D01*
X0110669Y0312884D01*
X0110124Y0311567D01*
X0110124Y0310143D01*
X0110669Y0308827D01*
X0111676Y0307819D01*
X0112992Y0307274D01*
X0114417Y0307274D01*
X0115733Y0307819D01*
X0116926Y0309275D02*
X0170052Y0309275D01*
X0170134Y0304479D02*
X0168230Y0304479D01*
X0170737Y0302881D02*
X0206109Y0302881D01*
X0206805Y0303577D02*
X0205314Y0302086D01*
X0204507Y0300138D01*
X0204507Y0298029D01*
X0205314Y0296081D01*
X0206805Y0294590D01*
X0208753Y0293783D01*
X0210861Y0293783D01*
X0212809Y0294590D01*
X0214300Y0296081D01*
X0215107Y0298029D01*
X0215107Y0300138D01*
X0214300Y0302086D01*
X0212809Y0303577D01*
X0210861Y0304383D01*
X0208753Y0304383D01*
X0206805Y0303577D01*
X0204981Y0301282D02*
X0171563Y0301282D01*
X0171687Y0299683D02*
X0204507Y0299683D01*
X0204507Y0298085D02*
X0171212Y0298085D01*
X0169889Y0296486D02*
X0205146Y0296486D01*
X0206507Y0294888D02*
X0054081Y0294888D01*
X0054081Y0296486D02*
X0124977Y0296486D01*
X0124005Y0298085D02*
X0054081Y0298085D01*
X0054081Y0299683D02*
X0123903Y0299683D01*
X0124658Y0301282D02*
X0054081Y0301282D01*
X0054081Y0293289D02*
X0443909Y0293289D01*
X0443906Y0291691D02*
X0054081Y0291691D01*
X0054081Y0290092D02*
X0443904Y0290092D01*
X0443901Y0288494D02*
X0054081Y0288494D01*
X0054081Y0286895D02*
X0443898Y0286895D01*
X0443895Y0285297D02*
X0054081Y0285297D01*
X0054081Y0283698D02*
X0443892Y0283698D01*
X0443889Y0282100D02*
X0054081Y0282100D01*
X0054081Y0280501D02*
X0443886Y0280501D01*
X0443883Y0278903D02*
X0339069Y0278903D01*
X0338827Y0279003D02*
X0337402Y0279003D01*
X0336086Y0278458D01*
X0335078Y0277451D01*
X0334533Y0276134D01*
X0334533Y0274710D01*
X0335078Y0273394D01*
X0336086Y0272386D01*
X0337402Y0271841D01*
X0338827Y0271841D01*
X0340143Y0272386D01*
X0341150Y0273394D01*
X0341695Y0274710D01*
X0341695Y0276134D01*
X0341150Y0277451D01*
X0340143Y0278458D01*
X0338827Y0279003D01*
X0337160Y0278903D02*
X0054081Y0278903D01*
X0054081Y0277304D02*
X0335018Y0277304D01*
X0334533Y0275706D02*
X0054081Y0275706D01*
X0054081Y0274107D02*
X0334783Y0274107D01*
X0335963Y0272509D02*
X0204360Y0272509D01*
X0204316Y0272552D02*
X0203000Y0273098D01*
X0201575Y0273098D01*
X0200259Y0272552D01*
X0199251Y0271545D01*
X0198706Y0270229D01*
X0198706Y0268804D01*
X0199251Y0267488D01*
X0200259Y0266481D01*
X0201575Y0265935D01*
X0203000Y0265935D01*
X0204316Y0266481D01*
X0205323Y0267488D01*
X0205868Y0268804D01*
X0205868Y0270229D01*
X0205323Y0271545D01*
X0204316Y0272552D01*
X0205586Y0270910D02*
X0230574Y0270910D01*
X0231103Y0271129D02*
X0229786Y0270584D01*
X0228779Y0269577D01*
X0228234Y0268260D01*
X0228234Y0266836D01*
X0228779Y0265520D01*
X0229786Y0264512D01*
X0231103Y0263967D01*
X0232527Y0263967D01*
X0233843Y0264512D01*
X0234851Y0265520D01*
X0235396Y0266836D01*
X0235396Y0268260D01*
X0234851Y0269577D01*
X0233843Y0270584D01*
X0232527Y0271129D01*
X0231103Y0271129D01*
X0233056Y0270910D02*
X0443869Y0270910D01*
X0443866Y0269312D02*
X0234961Y0269312D01*
X0235396Y0267713D02*
X0443863Y0267713D01*
X0443860Y0266115D02*
X0235097Y0266115D01*
X0233848Y0264516D02*
X0398916Y0264516D01*
X0399078Y0264678D02*
X0398070Y0263671D01*
X0397525Y0262355D01*
X0397525Y0260930D01*
X0398070Y0259614D01*
X0399078Y0258607D01*
X0400394Y0258061D01*
X0401819Y0258061D01*
X0403135Y0258607D01*
X0404142Y0259614D01*
X0404687Y0260930D01*
X0404687Y0262355D01*
X0404142Y0263671D01*
X0403135Y0264678D01*
X0401819Y0265224D01*
X0400394Y0265224D01*
X0399078Y0264678D01*
X0397758Y0262918D02*
X0361295Y0262918D01*
X0361796Y0262710D02*
X0360480Y0263255D01*
X0359055Y0263255D01*
X0357739Y0262710D01*
X0356732Y0261703D01*
X0356187Y0260386D01*
X0356187Y0258962D01*
X0356732Y0257645D01*
X0357739Y0256638D01*
X0359055Y0256093D01*
X0360480Y0256093D01*
X0361307Y0256436D01*
X0360669Y0255797D01*
X0360124Y0254481D01*
X0360124Y0253056D01*
X0360669Y0251740D01*
X0361676Y0250733D01*
X0362992Y0250187D01*
X0364417Y0250187D01*
X0365733Y0250733D01*
X0366741Y0251740D01*
X0367286Y0253056D01*
X0367286Y0254481D01*
X0366741Y0255797D01*
X0365733Y0256804D01*
X0364417Y0257350D01*
X0362992Y0257350D01*
X0362165Y0257007D01*
X0362804Y0257645D01*
X0363349Y0258962D01*
X0363349Y0260386D01*
X0362804Y0261703D01*
X0361796Y0262710D01*
X0362962Y0261319D02*
X0397525Y0261319D01*
X0398026Y0259721D02*
X0363349Y0259721D01*
X0363001Y0258122D02*
X0400247Y0258122D01*
X0401965Y0258122D02*
X0443846Y0258122D01*
X0443843Y0256524D02*
X0436889Y0256524D01*
X0437344Y0256069D02*
X0436163Y0257250D01*
X0434619Y0257890D01*
X0432948Y0257890D01*
X0431404Y0257250D01*
X0430223Y0256069D01*
X0429583Y0254525D01*
X0429583Y0252854D01*
X0430223Y0251311D01*
X0431404Y0250129D01*
X0432948Y0249490D01*
X0434619Y0249490D01*
X0436163Y0250129D01*
X0437344Y0251311D01*
X0437983Y0252854D01*
X0437983Y0254525D01*
X0437344Y0256069D01*
X0437818Y0254925D02*
X0443840Y0254925D01*
X0443837Y0253327D02*
X0437983Y0253327D01*
X0437517Y0251728D02*
X0443834Y0251728D01*
X0443832Y0250130D02*
X0436163Y0250130D01*
X0434619Y0247890D02*
X0436163Y0247250D01*
X0437344Y0246069D01*
X0437983Y0244525D01*
X0437983Y0242854D01*
X0437344Y0241311D01*
X0436163Y0240129D01*
X0434619Y0239490D01*
X0432948Y0239490D01*
X0431404Y0240129D01*
X0430223Y0241311D01*
X0429583Y0242854D01*
X0429583Y0244525D01*
X0430223Y0246069D01*
X0431404Y0247250D01*
X0432948Y0247890D01*
X0434619Y0247890D01*
X0436480Y0246933D02*
X0443826Y0246933D01*
X0443829Y0248531D02*
X0317830Y0248531D01*
X0318073Y0249119D02*
X0317528Y0247803D01*
X0316521Y0246796D01*
X0315204Y0246250D01*
X0313780Y0246250D01*
X0312464Y0246796D01*
X0311456Y0247803D01*
X0310911Y0249119D01*
X0310911Y0250544D01*
X0311456Y0251860D01*
X0312464Y0252867D01*
X0313780Y0253413D01*
X0315204Y0253413D01*
X0316521Y0252867D01*
X0317528Y0251860D01*
X0318073Y0250544D01*
X0318073Y0249119D01*
X0318073Y0250130D02*
X0431404Y0250130D01*
X0430050Y0251728D02*
X0390351Y0251728D01*
X0390363Y0251740D02*
X0390908Y0253056D01*
X0390908Y0254481D01*
X0390363Y0255797D01*
X0389355Y0256804D01*
X0388039Y0257350D01*
X0386614Y0257350D01*
X0385298Y0256804D01*
X0384291Y0255797D01*
X0383746Y0254481D01*
X0383746Y0253056D01*
X0384291Y0251740D01*
X0385298Y0250733D01*
X0386614Y0250187D01*
X0388039Y0250187D01*
X0389355Y0250733D01*
X0390363Y0251740D01*
X0390908Y0253327D02*
X0429583Y0253327D01*
X0429749Y0254925D02*
X0390724Y0254925D01*
X0389636Y0256524D02*
X0430678Y0256524D01*
X0431087Y0246933D02*
X0316658Y0246933D01*
X0312327Y0246933D02*
X0130130Y0246933D01*
X0130368Y0247031D02*
X0131859Y0248522D01*
X0132666Y0250470D01*
X0132666Y0252579D01*
X0131859Y0254527D01*
X0130368Y0256018D01*
X0128420Y0256824D01*
X0126312Y0256824D01*
X0124364Y0256018D01*
X0122873Y0254527D01*
X0122066Y0252579D01*
X0122066Y0250470D01*
X0122873Y0248522D01*
X0124364Y0247031D01*
X0126312Y0246224D01*
X0128420Y0246224D01*
X0130368Y0247031D01*
X0131863Y0248531D02*
X0291604Y0248531D01*
X0292002Y0248134D02*
X0293950Y0247327D01*
X0296058Y0247327D01*
X0298006Y0248134D01*
X0299497Y0249625D01*
X0300304Y0251573D01*
X0300304Y0253681D01*
X0299497Y0255629D01*
X0298006Y0257120D01*
X0296058Y0257927D01*
X0293950Y0257927D01*
X0292002Y0257120D01*
X0290511Y0255629D01*
X0289704Y0253681D01*
X0289704Y0251573D01*
X0290511Y0249625D01*
X0292002Y0248134D01*
X0290302Y0250130D02*
X0132525Y0250130D01*
X0132666Y0251728D02*
X0167767Y0251728D01*
X0167755Y0251740D02*
X0168763Y0250733D01*
X0170079Y0250187D01*
X0171504Y0250187D01*
X0172820Y0250733D01*
X0173827Y0251740D01*
X0174372Y0253056D01*
X0174372Y0254481D01*
X0173827Y0255797D01*
X0172820Y0256804D01*
X0171504Y0257350D01*
X0170079Y0257350D01*
X0168763Y0256804D01*
X0167755Y0255797D01*
X0167210Y0254481D01*
X0167210Y0253056D01*
X0167755Y0251740D01*
X0167210Y0253327D02*
X0132356Y0253327D01*
X0131461Y0254925D02*
X0167394Y0254925D01*
X0168482Y0256524D02*
X0129146Y0256524D01*
X0131361Y0258607D02*
X0132677Y0258061D01*
X0134102Y0258061D01*
X0135418Y0258607D01*
X0136426Y0259614D01*
X0136971Y0260930D01*
X0136971Y0262355D01*
X0136426Y0263671D01*
X0135418Y0264678D01*
X0134102Y0265224D01*
X0132677Y0265224D01*
X0131361Y0264678D01*
X0130354Y0263671D01*
X0129809Y0262355D01*
X0129809Y0260930D01*
X0130354Y0259614D01*
X0131361Y0258607D01*
X0132531Y0258122D02*
X0054081Y0258122D01*
X0054081Y0256524D02*
X0125586Y0256524D01*
X0123272Y0254925D02*
X0054081Y0254925D01*
X0054081Y0253327D02*
X0122376Y0253327D01*
X0122066Y0251728D02*
X0054081Y0251728D01*
X0054081Y0250130D02*
X0122207Y0250130D01*
X0122869Y0248531D02*
X0054081Y0248531D01*
X0054081Y0246933D02*
X0124602Y0246933D01*
X0123607Y0245978D02*
X0122291Y0246523D01*
X0120866Y0246523D01*
X0119550Y0245978D01*
X0118543Y0244970D01*
X0117998Y0243654D01*
X0117998Y0242229D01*
X0118543Y0240913D01*
X0119550Y0239906D01*
X0120866Y0239361D01*
X0122291Y0239361D01*
X0123607Y0239906D01*
X0124615Y0240913D01*
X0125160Y0242229D01*
X0125160Y0243654D01*
X0124615Y0244970D01*
X0123607Y0245978D01*
X0124251Y0245334D02*
X0384152Y0245334D01*
X0384646Y0245539D02*
X0383330Y0244993D01*
X0382322Y0243986D01*
X0381777Y0242670D01*
X0381777Y0241245D01*
X0382322Y0239929D01*
X0383330Y0238922D01*
X0384646Y0238376D01*
X0386071Y0238376D01*
X0387387Y0238922D01*
X0388394Y0239929D01*
X0388939Y0241245D01*
X0388939Y0242670D01*
X0388394Y0243986D01*
X0387387Y0244993D01*
X0386071Y0245539D01*
X0384646Y0245539D01*
X0386564Y0245334D02*
X0429919Y0245334D01*
X0429583Y0243736D02*
X0388498Y0243736D01*
X0388939Y0242137D02*
X0429881Y0242137D01*
X0430995Y0240539D02*
X0411527Y0240539D01*
X0412016Y0240049D02*
X0411009Y0241056D01*
X0409693Y0241602D01*
X0408268Y0241602D01*
X0406952Y0241056D01*
X0405944Y0240049D01*
X0405399Y0238733D01*
X0405399Y0237308D01*
X0405944Y0235992D01*
X0406952Y0234985D01*
X0408268Y0234439D01*
X0409693Y0234439D01*
X0411009Y0234985D01*
X0412016Y0235992D01*
X0412561Y0237308D01*
X0412561Y0238733D01*
X0412016Y0240049D01*
X0412476Y0238940D02*
X0443811Y0238940D01*
X0443808Y0237342D02*
X0412561Y0237342D01*
X0411767Y0235743D02*
X0443806Y0235743D01*
X0443803Y0234145D02*
X0300074Y0234145D01*
X0300461Y0233209D02*
X0299655Y0235157D01*
X0298164Y0236647D01*
X0296216Y0237454D01*
X0294107Y0237454D01*
X0292159Y0236647D01*
X0290668Y0235157D01*
X0289861Y0233209D01*
X0289861Y0231100D01*
X0290668Y0229152D01*
X0292159Y0227661D01*
X0294107Y0226854D01*
X0296216Y0226854D01*
X0298164Y0227661D01*
X0299655Y0229152D01*
X0300461Y0231100D01*
X0300461Y0233209D01*
X0300461Y0232546D02*
X0443800Y0232546D01*
X0443797Y0230948D02*
X0300398Y0230948D01*
X0299736Y0229349D02*
X0443794Y0229349D01*
X0443791Y0227750D02*
X0298253Y0227750D01*
X0292070Y0227750D02*
X0176341Y0227750D01*
X0176341Y0227466D02*
X0175796Y0226149D01*
X0174788Y0225142D01*
X0173472Y0224597D01*
X0172048Y0224597D01*
X0170731Y0225142D01*
X0169724Y0226149D01*
X0169179Y0227466D01*
X0169179Y0228890D01*
X0169724Y0230206D01*
X0170731Y0231214D01*
X0172048Y0231759D01*
X0173472Y0231759D01*
X0174788Y0231214D01*
X0175796Y0230206D01*
X0176341Y0228890D01*
X0176341Y0227466D01*
X0175797Y0226152D02*
X0443788Y0226152D01*
X0443785Y0224553D02*
X0338929Y0224553D01*
X0339182Y0224301D02*
X0338174Y0225308D01*
X0336858Y0225854D01*
X0335433Y0225854D01*
X0334117Y0225308D01*
X0333110Y0224301D01*
X0332565Y0222985D01*
X0332565Y0221560D01*
X0333110Y0220244D01*
X0334117Y0219237D01*
X0335433Y0218691D01*
X0336858Y0218691D01*
X0338174Y0219237D01*
X0339182Y0220244D01*
X0339727Y0221560D01*
X0339727Y0222985D01*
X0339182Y0224301D01*
X0339727Y0222955D02*
X0382945Y0222955D01*
X0383330Y0223340D02*
X0382322Y0222332D01*
X0381777Y0221016D01*
X0381777Y0219592D01*
X0382322Y0218275D01*
X0383330Y0217268D01*
X0384646Y0216723D01*
X0386071Y0216723D01*
X0387387Y0217268D01*
X0388394Y0218275D01*
X0388939Y0219592D01*
X0388939Y0221016D01*
X0388394Y0222332D01*
X0387387Y0223340D01*
X0386071Y0223885D01*
X0384646Y0223885D01*
X0383330Y0223340D01*
X0381918Y0221356D02*
X0339642Y0221356D01*
X0338696Y0219758D02*
X0381777Y0219758D01*
X0382438Y0218159D02*
X0214639Y0218159D01*
X0214300Y0217341D02*
X0215107Y0219289D01*
X0215107Y0221398D01*
X0214300Y0223346D01*
X0212809Y0224836D01*
X0210861Y0225643D01*
X0208753Y0225643D01*
X0206805Y0224836D01*
X0205314Y0223346D01*
X0204507Y0221398D01*
X0204507Y0219289D01*
X0205314Y0217341D01*
X0206805Y0215850D01*
X0208753Y0215043D01*
X0210861Y0215043D01*
X0212809Y0215850D01*
X0214300Y0217341D01*
X0213520Y0216561D02*
X0443771Y0216561D01*
X0443774Y0218159D02*
X0388278Y0218159D01*
X0388939Y0219758D02*
X0443777Y0219758D01*
X0443780Y0221356D02*
X0388798Y0221356D01*
X0387772Y0222955D02*
X0443783Y0222955D01*
X0443768Y0214962D02*
X0054081Y0214962D01*
X0054081Y0213364D02*
X0443765Y0213364D01*
X0443762Y0211765D02*
X0054081Y0211765D01*
X0054081Y0210167D02*
X0443760Y0210167D01*
X0443757Y0208568D02*
X0054081Y0208568D01*
X0054081Y0206970D02*
X0443754Y0206970D01*
X0443751Y0205371D02*
X0054081Y0205371D01*
X0054081Y0203773D02*
X0443748Y0203773D01*
X0443745Y0202174D02*
X0054081Y0202174D01*
X0054081Y0200576D02*
X0443742Y0200576D01*
X0443739Y0198977D02*
X0340883Y0198977D01*
X0341150Y0198710D02*
X0340143Y0199718D01*
X0338827Y0200263D01*
X0337402Y0200263D01*
X0336086Y0199718D01*
X0335078Y0198710D01*
X0334533Y0197394D01*
X0334533Y0195970D01*
X0335078Y0194653D01*
X0336086Y0193646D01*
X0337402Y0193101D01*
X0338827Y0193101D01*
X0340143Y0193646D01*
X0341150Y0194653D01*
X0341695Y0195970D01*
X0341695Y0197394D01*
X0341150Y0198710D01*
X0341695Y0197379D02*
X0443736Y0197379D01*
X0443734Y0195780D02*
X0341617Y0195780D01*
X0340678Y0194182D02*
X0443731Y0194182D01*
X0443728Y0192583D02*
X0205415Y0192583D01*
X0205323Y0192805D02*
X0204316Y0193812D01*
X0203000Y0194357D01*
X0201575Y0194357D01*
X0200259Y0193812D01*
X0199251Y0192805D01*
X0198706Y0191489D01*
X0198706Y0190064D01*
X0199251Y0188748D01*
X0200259Y0187740D01*
X0201575Y0187195D01*
X0203000Y0187195D01*
X0204316Y0187740D01*
X0205323Y0188748D01*
X0205868Y0190064D01*
X0205868Y0191489D01*
X0205323Y0192805D01*
X0205868Y0190985D02*
X0228927Y0190985D01*
X0228779Y0190836D02*
X0228234Y0189520D01*
X0228234Y0188096D01*
X0228779Y0186779D01*
X0229786Y0185772D01*
X0231103Y0185227D01*
X0232527Y0185227D01*
X0233843Y0185772D01*
X0234851Y0186779D01*
X0235396Y0188096D01*
X0235396Y0189520D01*
X0234851Y0190836D01*
X0233843Y0191844D01*
X0232527Y0192389D01*
X0231103Y0192389D01*
X0229786Y0191844D01*
X0228779Y0190836D01*
X0228234Y0189386D02*
X0205588Y0189386D01*
X0204363Y0187788D02*
X0228361Y0187788D01*
X0229369Y0186189D02*
X0159948Y0186189D01*
X0159780Y0186357D02*
X0158163Y0187027D01*
X0156412Y0187027D01*
X0154795Y0186357D01*
X0153557Y0185119D01*
X0152887Y0183502D01*
X0152887Y0181752D01*
X0153557Y0180134D01*
X0154795Y0178897D01*
X0156412Y0178227D01*
X0158163Y0178227D01*
X0159780Y0178897D01*
X0161018Y0180134D01*
X0161687Y0181752D01*
X0161687Y0183502D01*
X0161018Y0185119D01*
X0159780Y0186357D01*
X0160236Y0187195D02*
X0161661Y0187195D01*
X0162977Y0187740D01*
X0163985Y0188748D01*
X0164530Y0190064D01*
X0164530Y0191489D01*
X0163985Y0192805D01*
X0162977Y0193812D01*
X0161661Y0194357D01*
X0160236Y0194357D01*
X0158920Y0193812D01*
X0157913Y0192805D01*
X0157368Y0191489D01*
X0157368Y0190064D01*
X0157913Y0188748D01*
X0158920Y0187740D01*
X0160236Y0187195D01*
X0158873Y0187788D02*
X0105801Y0187788D01*
X0105934Y0188108D02*
X0105127Y0186160D01*
X0103636Y0184669D01*
X0101688Y0183862D01*
X0099580Y0183862D01*
X0097632Y0184669D01*
X0096141Y0186160D01*
X0095334Y0188108D01*
X0095334Y0190216D01*
X0096141Y0192164D01*
X0097632Y0193655D01*
X0099580Y0194462D01*
X0101688Y0194462D01*
X0103636Y0193655D01*
X0105127Y0192164D01*
X0105934Y0190216D01*
X0105934Y0188108D01*
X0105934Y0189386D02*
X0157648Y0189386D01*
X0157368Y0190985D02*
X0105616Y0190985D01*
X0104708Y0192583D02*
X0157821Y0192583D01*
X0159812Y0194182D02*
X0102365Y0194182D01*
X0098903Y0194182D02*
X0054081Y0194182D01*
X0054081Y0195780D02*
X0334611Y0195780D01*
X0334533Y0197379D02*
X0054081Y0197379D01*
X0054081Y0198977D02*
X0335345Y0198977D01*
X0335550Y0194182D02*
X0203424Y0194182D01*
X0201151Y0194182D02*
X0177833Y0194182D01*
X0177409Y0194357D02*
X0175985Y0194357D01*
X0174668Y0193812D01*
X0173661Y0192805D01*
X0173116Y0191489D01*
X0173116Y0190064D01*
X0173661Y0188748D01*
X0174668Y0187740D01*
X0175985Y0187195D01*
X0177409Y0187195D01*
X0178725Y0187740D01*
X0179733Y0188748D01*
X0180278Y0190064D01*
X0180278Y0191489D01*
X0179733Y0192805D01*
X0178725Y0193812D01*
X0177409Y0194357D01*
X0175560Y0194182D02*
X0162085Y0194182D01*
X0164077Y0192583D02*
X0173569Y0192583D01*
X0173116Y0190985D02*
X0164530Y0190985D01*
X0164249Y0189386D02*
X0173397Y0189386D01*
X0174621Y0187788D02*
X0163025Y0187788D01*
X0161236Y0184591D02*
X0397929Y0184591D01*
X0398070Y0184931D02*
X0397525Y0183615D01*
X0397525Y0182190D01*
X0398070Y0180874D01*
X0399078Y0179866D01*
X0400394Y0179321D01*
X0401819Y0179321D01*
X0403135Y0179866D01*
X0404142Y0180874D01*
X0404687Y0182190D01*
X0404687Y0183615D01*
X0404142Y0184931D01*
X0403135Y0185938D01*
X0401819Y0186483D01*
X0400394Y0186483D01*
X0399078Y0185938D01*
X0398070Y0184931D01*
X0397525Y0182992D02*
X0362774Y0182992D01*
X0362804Y0182962D02*
X0361796Y0183970D01*
X0360480Y0184515D01*
X0359055Y0184515D01*
X0357739Y0183970D01*
X0356732Y0182962D01*
X0356187Y0181646D01*
X0356187Y0180222D01*
X0356732Y0178905D01*
X0357739Y0177898D01*
X0359055Y0177353D01*
X0360480Y0177353D01*
X0361307Y0177695D01*
X0360669Y0177057D01*
X0360124Y0175741D01*
X0360124Y0174316D01*
X0360669Y0173000D01*
X0361676Y0171992D01*
X0362992Y0171447D01*
X0364417Y0171447D01*
X0365733Y0171992D01*
X0366741Y0173000D01*
X0367286Y0174316D01*
X0367286Y0175741D01*
X0366741Y0177057D01*
X0365733Y0178064D01*
X0364417Y0178609D01*
X0362992Y0178609D01*
X0362165Y0178267D01*
X0362804Y0178905D01*
X0363349Y0180222D01*
X0363349Y0181646D01*
X0362804Y0182962D01*
X0363349Y0181394D02*
X0397855Y0181394D01*
X0399250Y0179795D02*
X0363172Y0179795D01*
X0365414Y0178197D02*
X0385618Y0178197D01*
X0385298Y0178064D02*
X0384291Y0177057D01*
X0383746Y0175741D01*
X0383746Y0174316D01*
X0384291Y0173000D01*
X0385298Y0171992D01*
X0386614Y0171447D01*
X0388039Y0171447D01*
X0389355Y0171992D01*
X0390363Y0173000D01*
X0390908Y0174316D01*
X0390908Y0175741D01*
X0390363Y0177057D01*
X0389355Y0178064D01*
X0388039Y0178609D01*
X0386614Y0178609D01*
X0385298Y0178064D01*
X0384101Y0176598D02*
X0366931Y0176598D01*
X0367286Y0175000D02*
X0383746Y0175000D01*
X0384125Y0173401D02*
X0366907Y0173401D01*
X0365275Y0171803D02*
X0385757Y0171803D01*
X0388897Y0171803D02*
X0430991Y0171803D01*
X0431404Y0171389D02*
X0432948Y0170750D01*
X0434619Y0170750D01*
X0436163Y0171389D01*
X0437344Y0172570D01*
X0437983Y0174114D01*
X0437983Y0175785D01*
X0437344Y0177329D01*
X0436163Y0178510D01*
X0434619Y0179150D01*
X0432948Y0179150D01*
X0431404Y0178510D01*
X0430223Y0177329D01*
X0429583Y0175785D01*
X0429583Y0174114D01*
X0430223Y0172570D01*
X0431404Y0171389D01*
X0429879Y0173401D02*
X0390529Y0173401D01*
X0390908Y0175000D02*
X0429583Y0175000D01*
X0429920Y0176598D02*
X0390553Y0176598D01*
X0389036Y0178197D02*
X0431091Y0178197D01*
X0436476Y0178197D02*
X0443702Y0178197D01*
X0443705Y0179795D02*
X0402963Y0179795D01*
X0404358Y0181394D02*
X0443708Y0181394D01*
X0443711Y0182992D02*
X0404687Y0182992D01*
X0404283Y0184591D02*
X0443713Y0184591D01*
X0443716Y0186189D02*
X0402529Y0186189D01*
X0399684Y0186189D02*
X0234261Y0186189D01*
X0235269Y0187788D02*
X0443719Y0187788D01*
X0443722Y0189386D02*
X0235396Y0189386D01*
X0234703Y0190985D02*
X0443725Y0190985D01*
X0443699Y0176598D02*
X0437647Y0176598D01*
X0437983Y0175000D02*
X0443696Y0175000D01*
X0443693Y0173401D02*
X0437688Y0173401D01*
X0436576Y0171803D02*
X0443690Y0171803D01*
X0443687Y0170204D02*
X0318001Y0170204D01*
X0318073Y0170379D02*
X0317528Y0169063D01*
X0316521Y0168055D01*
X0315204Y0167510D01*
X0313780Y0167510D01*
X0312464Y0168055D01*
X0311456Y0169063D01*
X0310911Y0170379D01*
X0310911Y0171804D01*
X0311456Y0173120D01*
X0312464Y0174127D01*
X0313780Y0174672D01*
X0315204Y0174672D01*
X0316521Y0174127D01*
X0317528Y0173120D01*
X0318073Y0171804D01*
X0318073Y0170379D01*
X0318073Y0171803D02*
X0362135Y0171803D01*
X0360503Y0173401D02*
X0317247Y0173401D01*
X0317071Y0168606D02*
X0431635Y0168606D01*
X0431404Y0168510D02*
X0430223Y0167329D01*
X0429583Y0165785D01*
X0429583Y0164114D01*
X0430223Y0162570D01*
X0431404Y0161389D01*
X0432948Y0160750D01*
X0434619Y0160750D01*
X0436163Y0161389D01*
X0437344Y0162570D01*
X0437983Y0164114D01*
X0437983Y0165785D01*
X0437344Y0167329D01*
X0436163Y0168510D01*
X0434619Y0169150D01*
X0432948Y0169150D01*
X0431404Y0168510D01*
X0430090Y0167007D02*
X0123838Y0167007D01*
X0123607Y0167237D02*
X0122291Y0167783D01*
X0120866Y0167783D01*
X0119550Y0167237D01*
X0118543Y0166230D01*
X0117998Y0164914D01*
X0117998Y0163489D01*
X0118543Y0162173D01*
X0119550Y0161166D01*
X0120866Y0160620D01*
X0122291Y0160620D01*
X0123607Y0161166D01*
X0124615Y0162173D01*
X0125160Y0163489D01*
X0125160Y0164914D01*
X0124615Y0166230D01*
X0123607Y0167237D01*
X0124364Y0168291D02*
X0126312Y0167484D01*
X0128420Y0167484D01*
X0130368Y0168291D01*
X0131859Y0169782D01*
X0132666Y0171730D01*
X0132666Y0173838D01*
X0131859Y0175786D01*
X0130368Y0177277D01*
X0128420Y0178084D01*
X0126312Y0178084D01*
X0124364Y0177277D01*
X0122873Y0175786D01*
X0122066Y0173838D01*
X0122066Y0171730D01*
X0122873Y0169782D01*
X0124364Y0168291D01*
X0124049Y0168606D02*
X0054081Y0168606D01*
X0054081Y0170204D02*
X0122698Y0170204D01*
X0122066Y0171803D02*
X0054081Y0171803D01*
X0054081Y0173401D02*
X0122066Y0173401D01*
X0122547Y0175000D02*
X0054081Y0175000D01*
X0054081Y0176598D02*
X0123685Y0176598D01*
X0131048Y0176598D02*
X0167565Y0176598D01*
X0167755Y0177057D02*
X0167210Y0175741D01*
X0167210Y0174316D01*
X0167755Y0173000D01*
X0168763Y0171992D01*
X0170079Y0171447D01*
X0171504Y0171447D01*
X0172820Y0171992D01*
X0173827Y0173000D01*
X0174372Y0174316D01*
X0174372Y0175741D01*
X0173827Y0177057D01*
X0172820Y0178064D01*
X0171504Y0178609D01*
X0170079Y0178609D01*
X0168763Y0178064D01*
X0167755Y0177057D01*
X0169082Y0178197D02*
X0054081Y0178197D01*
X0054081Y0179795D02*
X0131533Y0179795D01*
X0131361Y0179866D02*
X0132677Y0179321D01*
X0134102Y0179321D01*
X0135418Y0179866D01*
X0136426Y0180874D01*
X0136971Y0182190D01*
X0136971Y0183615D01*
X0136426Y0184931D01*
X0135418Y0185938D01*
X0134102Y0186483D01*
X0132677Y0186483D01*
X0131361Y0185938D01*
X0130354Y0184931D01*
X0129809Y0183615D01*
X0129809Y0182190D01*
X0130354Y0180874D01*
X0131361Y0179866D01*
X0130139Y0181394D02*
X0054081Y0181394D01*
X0054081Y0182992D02*
X0129809Y0182992D01*
X0130213Y0184591D02*
X0103447Y0184591D01*
X0105139Y0186189D02*
X0131967Y0186189D01*
X0134813Y0186189D02*
X0154627Y0186189D01*
X0153338Y0184591D02*
X0136567Y0184591D01*
X0136971Y0182992D02*
X0152887Y0182992D01*
X0153036Y0181394D02*
X0136641Y0181394D01*
X0135246Y0179795D02*
X0153896Y0179795D01*
X0160678Y0179795D02*
X0269749Y0179795D01*
X0269572Y0180222D02*
X0270118Y0178905D01*
X0271125Y0177898D01*
X0272441Y0177353D01*
X0273866Y0177353D01*
X0275182Y0177898D01*
X0276189Y0178905D01*
X0276735Y0180222D01*
X0276735Y0181646D01*
X0276189Y0182962D01*
X0275182Y0183970D01*
X0273866Y0184515D01*
X0272441Y0184515D01*
X0271125Y0183970D01*
X0270118Y0182962D01*
X0269572Y0181646D01*
X0269572Y0180222D01*
X0269572Y0181394D02*
X0161539Y0181394D01*
X0161687Y0182992D02*
X0270147Y0182992D01*
X0270826Y0178197D02*
X0172500Y0178197D01*
X0174017Y0176598D02*
X0290390Y0176598D01*
X0290511Y0176889D02*
X0289704Y0174941D01*
X0289704Y0172832D01*
X0290511Y0170884D01*
X0292002Y0169393D01*
X0293950Y0168587D01*
X0296058Y0168587D01*
X0298006Y0169393D01*
X0299497Y0170884D01*
X0300304Y0172832D01*
X0300304Y0174941D01*
X0299497Y0176889D01*
X0298006Y0178380D01*
X0296058Y0179187D01*
X0293950Y0179187D01*
X0292002Y0178380D01*
X0290511Y0176889D01*
X0291819Y0178197D02*
X0275481Y0178197D01*
X0276558Y0179795D02*
X0356363Y0179795D01*
X0356187Y0181394D02*
X0276735Y0181394D01*
X0276160Y0182992D02*
X0356762Y0182992D01*
X0357441Y0178197D02*
X0298189Y0178197D01*
X0299617Y0176598D02*
X0360479Y0176598D01*
X0360124Y0175000D02*
X0300280Y0175000D01*
X0300304Y0173401D02*
X0311737Y0173401D01*
X0310911Y0171803D02*
X0299877Y0171803D01*
X0298817Y0170204D02*
X0310983Y0170204D01*
X0311913Y0168606D02*
X0296104Y0168606D01*
X0293904Y0168606D02*
X0130683Y0168606D01*
X0132034Y0170204D02*
X0291191Y0170204D01*
X0290130Y0171803D02*
X0172362Y0171803D01*
X0173993Y0173401D02*
X0289704Y0173401D01*
X0289728Y0175000D02*
X0174372Y0175000D01*
X0169221Y0171803D02*
X0132666Y0171803D01*
X0132666Y0173401D02*
X0167589Y0173401D01*
X0167210Y0175000D02*
X0132185Y0175000D01*
X0124955Y0165409D02*
X0382485Y0165409D01*
X0382322Y0165246D02*
X0381777Y0163930D01*
X0381777Y0162505D01*
X0382322Y0161189D01*
X0383330Y0160181D01*
X0384646Y0159636D01*
X0386071Y0159636D01*
X0387387Y0160181D01*
X0388394Y0161189D01*
X0388939Y0162505D01*
X0388939Y0163930D01*
X0388394Y0165246D01*
X0387387Y0166253D01*
X0386071Y0166798D01*
X0384646Y0166798D01*
X0383330Y0166253D01*
X0382322Y0165246D01*
X0381777Y0163810D02*
X0358334Y0163810D01*
X0357859Y0164285D02*
X0356543Y0164830D01*
X0355118Y0164830D01*
X0353802Y0164285D01*
X0352795Y0163277D01*
X0352250Y0161961D01*
X0352250Y0160536D01*
X0352795Y0159220D01*
X0353802Y0158213D01*
X0355118Y0157668D01*
X0356543Y0157668D01*
X0357859Y0158213D01*
X0358867Y0159220D01*
X0359412Y0160536D01*
X0359412Y0161961D01*
X0358867Y0163277D01*
X0357859Y0164285D01*
X0359308Y0162212D02*
X0381899Y0162212D01*
X0382898Y0160613D02*
X0359412Y0160613D01*
X0358661Y0159014D02*
X0405399Y0159014D01*
X0405399Y0158568D02*
X0405944Y0157252D01*
X0406952Y0156244D01*
X0408268Y0155699D01*
X0409693Y0155699D01*
X0411009Y0156244D01*
X0412016Y0157252D01*
X0412561Y0158568D01*
X0412561Y0159993D01*
X0412016Y0161309D01*
X0411009Y0162316D01*
X0409693Y0162861D01*
X0408268Y0162861D01*
X0406952Y0162316D01*
X0405944Y0161309D01*
X0405399Y0159993D01*
X0405399Y0158568D01*
X0405876Y0157416D02*
X0298655Y0157416D01*
X0298164Y0157907D02*
X0299655Y0156416D01*
X0300461Y0154468D01*
X0300461Y0152360D01*
X0299655Y0150412D01*
X0298164Y0148921D01*
X0296216Y0148114D01*
X0294107Y0148114D01*
X0292159Y0148921D01*
X0290668Y0150412D01*
X0289861Y0152360D01*
X0289861Y0154468D01*
X0290668Y0156416D01*
X0292159Y0157907D01*
X0294107Y0158714D01*
X0296216Y0158714D01*
X0298164Y0157907D01*
X0299903Y0155817D02*
X0407982Y0155817D01*
X0409978Y0155817D02*
X0443662Y0155817D01*
X0443659Y0154219D02*
X0300461Y0154219D01*
X0300461Y0152620D02*
X0443656Y0152620D01*
X0443653Y0151022D02*
X0299907Y0151022D01*
X0298666Y0149423D02*
X0443650Y0149423D01*
X0443647Y0147825D02*
X0175968Y0147825D01*
X0175796Y0147409D02*
X0176341Y0148725D01*
X0176341Y0150150D01*
X0175796Y0151466D01*
X0174788Y0152474D01*
X0173472Y0153019D01*
X0172048Y0153019D01*
X0170731Y0152474D01*
X0169724Y0151466D01*
X0169179Y0150150D01*
X0169179Y0148725D01*
X0169724Y0147409D01*
X0170731Y0146402D01*
X0172048Y0145857D01*
X0173472Y0145857D01*
X0174788Y0146402D01*
X0175796Y0147409D01*
X0174365Y0146226D02*
X0207119Y0146226D01*
X0206805Y0146096D02*
X0205314Y0144605D01*
X0204507Y0142657D01*
X0204507Y0140549D01*
X0205314Y0138601D01*
X0206805Y0137110D01*
X0208753Y0136303D01*
X0210861Y0136303D01*
X0212809Y0137110D01*
X0214300Y0138601D01*
X0215107Y0140549D01*
X0215107Y0142657D01*
X0214300Y0144605D01*
X0212809Y0146096D01*
X0210861Y0146903D01*
X0208753Y0146903D01*
X0206805Y0146096D01*
X0205337Y0144628D02*
X0171221Y0144628D01*
X0171018Y0145119D02*
X0169780Y0146357D01*
X0168163Y0147027D01*
X0166412Y0147027D01*
X0164795Y0146357D01*
X0163557Y0145119D01*
X0162887Y0143502D01*
X0162887Y0141752D01*
X0163557Y0140134D01*
X0164795Y0138897D01*
X0166412Y0138227D01*
X0168163Y0138227D01*
X0169780Y0138897D01*
X0171018Y0140134D01*
X0171687Y0141752D01*
X0171687Y0143502D01*
X0171018Y0145119D01*
X0171155Y0146226D02*
X0169910Y0146226D01*
X0169552Y0147825D02*
X0098966Y0147825D01*
X0099176Y0148332D02*
X0098630Y0147016D01*
X0097623Y0146008D01*
X0096307Y0145463D01*
X0094882Y0145463D01*
X0093566Y0146008D01*
X0092559Y0147016D01*
X0092013Y0148332D01*
X0092013Y0149756D01*
X0092559Y0151073D01*
X0093566Y0152080D01*
X0094882Y0152625D01*
X0096307Y0152625D01*
X0097623Y0152080D01*
X0098630Y0151073D01*
X0099176Y0149756D01*
X0099176Y0148332D01*
X0099176Y0149423D02*
X0169179Y0149423D01*
X0169540Y0151022D02*
X0116416Y0151022D01*
X0116741Y0151346D02*
X0117286Y0152662D01*
X0117286Y0154087D01*
X0116741Y0155403D01*
X0115733Y0156411D01*
X0114417Y0156956D01*
X0112992Y0156956D01*
X0111676Y0156411D01*
X0110669Y0155403D01*
X0110124Y0154087D01*
X0110124Y0152662D01*
X0110669Y0151346D01*
X0111676Y0150339D01*
X0112992Y0149794D01*
X0114417Y0149794D01*
X0115733Y0150339D01*
X0116741Y0151346D01*
X0117268Y0152620D02*
X0171086Y0152620D01*
X0174434Y0152620D02*
X0289861Y0152620D01*
X0289861Y0154219D02*
X0233706Y0154219D01*
X0233843Y0154276D02*
X0234851Y0155283D01*
X0235396Y0156599D01*
X0235396Y0158024D01*
X0234851Y0159340D01*
X0233843Y0160348D01*
X0232527Y0160893D01*
X0231103Y0160893D01*
X0229786Y0160348D01*
X0228779Y0159340D01*
X0228234Y0158024D01*
X0228234Y0156599D01*
X0228779Y0155283D01*
X0229786Y0154276D01*
X0231103Y0153731D01*
X0232527Y0153731D01*
X0233843Y0154276D01*
X0235072Y0155817D02*
X0290420Y0155817D01*
X0291668Y0157416D02*
X0235396Y0157416D01*
X0234986Y0159014D02*
X0353001Y0159014D01*
X0352250Y0160613D02*
X0233203Y0160613D01*
X0230427Y0160613D02*
X0192089Y0160613D01*
X0192089Y0160536D02*
X0191544Y0159220D01*
X0190536Y0158213D01*
X0189220Y0157668D01*
X0187796Y0157668D01*
X0186479Y0158213D01*
X0185472Y0159220D01*
X0184927Y0160536D01*
X0184927Y0161961D01*
X0185472Y0163277D01*
X0186479Y0164285D01*
X0187796Y0164830D01*
X0189220Y0164830D01*
X0190536Y0164285D01*
X0191544Y0163277D01*
X0192089Y0161961D01*
X0192089Y0160536D01*
X0191985Y0162212D02*
X0352353Y0162212D01*
X0353327Y0163810D02*
X0191011Y0163810D01*
X0191338Y0159014D02*
X0228644Y0159014D01*
X0228234Y0157416D02*
X0109412Y0157416D01*
X0109412Y0158024D02*
X0108867Y0159340D01*
X0107859Y0160348D01*
X0106543Y0160893D01*
X0105118Y0160893D01*
X0103802Y0160348D01*
X0102795Y0159340D01*
X0102250Y0158024D01*
X0102250Y0156599D01*
X0102795Y0155283D01*
X0103802Y0154276D01*
X0105118Y0153731D01*
X0106543Y0153731D01*
X0107859Y0154276D01*
X0108867Y0155283D01*
X0109412Y0156599D01*
X0109412Y0158024D01*
X0109002Y0159014D02*
X0185678Y0159014D01*
X0184927Y0160613D02*
X0107219Y0160613D01*
X0104443Y0160613D02*
X0054081Y0160613D01*
X0054081Y0162212D02*
X0118527Y0162212D01*
X0117998Y0163810D02*
X0054081Y0163810D01*
X0054081Y0165409D02*
X0118203Y0165409D01*
X0119320Y0167007D02*
X0054081Y0167007D01*
X0054081Y0159014D02*
X0102660Y0159014D01*
X0102250Y0157416D02*
X0054081Y0157416D01*
X0054081Y0155817D02*
X0102574Y0155817D01*
X0103940Y0154219D02*
X0054081Y0154219D01*
X0054081Y0152620D02*
X0060849Y0152620D01*
X0060495Y0152474D02*
X0059488Y0151466D01*
X0058943Y0150150D01*
X0058943Y0148725D01*
X0059488Y0147409D01*
X0060495Y0146402D01*
X0061811Y0145857D01*
X0063236Y0145857D01*
X0064552Y0146402D01*
X0065560Y0147409D01*
X0066105Y0148725D01*
X0066105Y0150150D01*
X0065560Y0151466D01*
X0064552Y0152474D01*
X0063236Y0153019D01*
X0061811Y0153019D01*
X0060495Y0152474D01*
X0059304Y0151022D02*
X0054081Y0151022D01*
X0054081Y0149423D02*
X0058943Y0149423D01*
X0059316Y0147825D02*
X0054081Y0147825D01*
X0054081Y0146226D02*
X0060919Y0146226D01*
X0064128Y0146226D02*
X0093348Y0146226D01*
X0092223Y0147825D02*
X0065732Y0147825D01*
X0066105Y0149423D02*
X0092013Y0149423D01*
X0092538Y0151022D02*
X0065744Y0151022D01*
X0064198Y0152620D02*
X0094871Y0152620D01*
X0096318Y0152620D02*
X0110141Y0152620D01*
X0110178Y0154219D02*
X0107722Y0154219D01*
X0109088Y0155817D02*
X0111083Y0155817D01*
X0110993Y0151022D02*
X0098651Y0151022D01*
X0097841Y0146226D02*
X0144664Y0146226D01*
X0144795Y0146357D02*
X0143557Y0145119D01*
X0142887Y0143502D01*
X0142887Y0141752D01*
X0143557Y0140134D01*
X0144795Y0138897D01*
X0146412Y0138227D01*
X0148163Y0138227D01*
X0149780Y0138897D01*
X0151018Y0140134D01*
X0151687Y0141752D01*
X0151687Y0143502D01*
X0151018Y0145119D01*
X0149780Y0146357D01*
X0148163Y0147027D01*
X0146412Y0147027D01*
X0144795Y0146357D01*
X0143354Y0144628D02*
X0129445Y0144628D01*
X0129513Y0144600D02*
X0128197Y0145145D01*
X0126772Y0145145D01*
X0125456Y0144600D01*
X0124448Y0143592D01*
X0123903Y0142276D01*
X0123903Y0140851D01*
X0124448Y0139535D01*
X0125456Y0138528D01*
X0126772Y0137983D01*
X0128197Y0137983D01*
X0129513Y0138528D01*
X0130520Y0139535D01*
X0131065Y0140851D01*
X0131065Y0142276D01*
X0130520Y0143592D01*
X0129513Y0144600D01*
X0130753Y0143029D02*
X0142887Y0143029D01*
X0143020Y0141431D02*
X0131065Y0141431D01*
X0130643Y0139832D02*
X0143859Y0139832D01*
X0146395Y0138234D02*
X0128803Y0138234D01*
X0126166Y0138234D02*
X0054081Y0138234D01*
X0054081Y0139832D02*
X0124325Y0139832D01*
X0123903Y0141431D02*
X0054081Y0141431D01*
X0054081Y0143029D02*
X0124215Y0143029D01*
X0125524Y0144628D02*
X0054081Y0144628D01*
X0054081Y0136635D02*
X0207951Y0136635D01*
X0205681Y0138234D02*
X0168180Y0138234D01*
X0166395Y0138234D02*
X0148180Y0138234D01*
X0150716Y0139832D02*
X0163859Y0139832D01*
X0163020Y0141431D02*
X0151555Y0141431D01*
X0151687Y0143029D02*
X0162887Y0143029D01*
X0163354Y0144628D02*
X0151221Y0144628D01*
X0149910Y0146226D02*
X0164664Y0146226D01*
X0170716Y0139832D02*
X0204804Y0139832D01*
X0204507Y0141431D02*
X0171555Y0141431D01*
X0171687Y0143029D02*
X0204661Y0143029D01*
X0212495Y0146226D02*
X0333775Y0146226D01*
X0334117Y0146568D02*
X0333110Y0145561D01*
X0332565Y0144245D01*
X0332565Y0142820D01*
X0333110Y0141504D01*
X0334117Y0140496D01*
X0335433Y0139951D01*
X0336858Y0139951D01*
X0338174Y0140496D01*
X0339182Y0141504D01*
X0339727Y0142820D01*
X0339727Y0144245D01*
X0339182Y0145561D01*
X0338174Y0146568D01*
X0336858Y0147113D01*
X0335433Y0147113D01*
X0334117Y0146568D01*
X0332723Y0144628D02*
X0214278Y0144628D01*
X0214953Y0143029D02*
X0332565Y0143029D01*
X0333183Y0141431D02*
X0215107Y0141431D01*
X0214810Y0139832D02*
X0382199Y0139832D01*
X0382322Y0139535D02*
X0383330Y0138528D01*
X0384646Y0137983D01*
X0386071Y0137983D01*
X0387387Y0138528D01*
X0388394Y0139535D01*
X0388939Y0140851D01*
X0388939Y0142276D01*
X0388394Y0143592D01*
X0387387Y0144600D01*
X0386071Y0145145D01*
X0384646Y0145145D01*
X0383330Y0144600D01*
X0382322Y0143592D01*
X0381777Y0142276D01*
X0381777Y0140851D01*
X0382322Y0139535D01*
X0381777Y0141431D02*
X0339109Y0141431D01*
X0339727Y0143029D02*
X0382089Y0143029D01*
X0383398Y0144628D02*
X0339568Y0144628D01*
X0338516Y0146226D02*
X0443644Y0146226D01*
X0443641Y0144628D02*
X0387319Y0144628D01*
X0388627Y0143029D02*
X0443639Y0143029D01*
X0443636Y0141431D02*
X0388939Y0141431D01*
X0388517Y0139832D02*
X0443633Y0139832D01*
X0443630Y0138234D02*
X0386677Y0138234D01*
X0384040Y0138234D02*
X0213933Y0138234D01*
X0211663Y0136635D02*
X0443627Y0136635D01*
X0443624Y0135037D02*
X0306637Y0135037D01*
X0308853Y0133438D02*
X0443621Y0133438D01*
X0443618Y0131840D02*
X0309708Y0131840D01*
X0309989Y0130241D02*
X0443615Y0130241D01*
X0443613Y0128643D02*
X0309819Y0128643D01*
X0309121Y0127044D02*
X0443610Y0127044D01*
X0443607Y0125446D02*
X0307285Y0125446D01*
X0302093Y0125446D02*
X0286734Y0125446D01*
X0288570Y0127044D02*
X0300256Y0127044D01*
X0299559Y0128643D02*
X0289268Y0128643D01*
X0289438Y0130241D02*
X0299389Y0130241D01*
X0299670Y0131840D02*
X0289157Y0131840D01*
X0288302Y0133438D02*
X0300525Y0133438D01*
X0302741Y0135037D02*
X0286086Y0135037D01*
X0282190Y0135037D02*
X0266170Y0135037D01*
X0267790Y0133438D02*
X0279974Y0133438D01*
X0279119Y0131840D02*
X0268558Y0131840D01*
X0268645Y0128643D02*
X0279008Y0128643D01*
X0278838Y0130241D02*
X0263417Y0130241D01*
X0262417Y0130241D02*
X0054081Y0130241D01*
X0054081Y0128643D02*
X0257189Y0128643D01*
X0257856Y0127044D02*
X0054081Y0127044D01*
X0054081Y0125446D02*
X0259295Y0125446D01*
X0257277Y0131840D02*
X0054081Y0131840D01*
X0054081Y0133438D02*
X0258045Y0133438D01*
X0259665Y0135037D02*
X0054081Y0135037D01*
X0054081Y0184591D02*
X0097821Y0184591D01*
X0096129Y0186189D02*
X0054081Y0186189D01*
X0054081Y0187788D02*
X0095467Y0187788D01*
X0095334Y0189386D02*
X0054081Y0189386D01*
X0054081Y0190985D02*
X0095652Y0190985D01*
X0096560Y0192583D02*
X0054081Y0192583D01*
X0054081Y0216561D02*
X0206094Y0216561D01*
X0204975Y0218159D02*
X0170302Y0218159D01*
X0169780Y0217637D02*
X0171018Y0218875D01*
X0171687Y0220492D01*
X0171687Y0222242D01*
X0171018Y0223859D01*
X0169780Y0225097D01*
X0168163Y0225767D01*
X0166412Y0225767D01*
X0164795Y0225097D01*
X0163557Y0223859D01*
X0162887Y0222242D01*
X0162887Y0220492D01*
X0163557Y0218875D01*
X0164795Y0217637D01*
X0166412Y0216967D01*
X0168163Y0216967D01*
X0169780Y0217637D01*
X0171383Y0219758D02*
X0204507Y0219758D01*
X0204507Y0221356D02*
X0171687Y0221356D01*
X0171392Y0222955D02*
X0205152Y0222955D01*
X0206522Y0224553D02*
X0170323Y0224553D01*
X0169723Y0226152D02*
X0099025Y0226152D01*
X0099024Y0226149D02*
X0099569Y0227466D01*
X0099569Y0228890D01*
X0099024Y0230206D01*
X0098017Y0231214D01*
X0096701Y0231759D01*
X0095276Y0231759D01*
X0093960Y0231214D01*
X0092952Y0230206D01*
X0092407Y0228890D01*
X0092407Y0227466D01*
X0092952Y0226149D01*
X0093960Y0225142D01*
X0095276Y0224597D01*
X0096701Y0224597D01*
X0098017Y0225142D01*
X0099024Y0226149D01*
X0099569Y0227750D02*
X0169179Y0227750D01*
X0169369Y0229349D02*
X0116003Y0229349D01*
X0115733Y0229079D02*
X0116741Y0230086D01*
X0117286Y0231403D01*
X0117286Y0232827D01*
X0116741Y0234143D01*
X0115733Y0235151D01*
X0114417Y0235696D01*
X0112992Y0235696D01*
X0111676Y0235151D01*
X0110669Y0234143D01*
X0110124Y0232827D01*
X0110124Y0231403D01*
X0110669Y0230086D01*
X0111676Y0229079D01*
X0112992Y0228534D01*
X0114417Y0228534D01*
X0115733Y0229079D01*
X0117097Y0230948D02*
X0170465Y0230948D01*
X0175055Y0230948D02*
X0289925Y0230948D01*
X0289861Y0232546D02*
X0232709Y0232546D01*
X0232527Y0232471D02*
X0233843Y0233016D01*
X0234851Y0234023D01*
X0235396Y0235340D01*
X0235396Y0236764D01*
X0234851Y0238080D01*
X0233843Y0239088D01*
X0232527Y0239633D01*
X0231103Y0239633D01*
X0229786Y0239088D01*
X0228779Y0238080D01*
X0228234Y0236764D01*
X0228234Y0235340D01*
X0228779Y0234023D01*
X0229786Y0233016D01*
X0231103Y0232471D01*
X0232527Y0232471D01*
X0230921Y0232546D02*
X0117286Y0232546D01*
X0116740Y0234145D02*
X0228729Y0234145D01*
X0228234Y0235743D02*
X0109412Y0235743D01*
X0109412Y0235340D02*
X0108867Y0234023D01*
X0107859Y0233016D01*
X0106543Y0232471D01*
X0105118Y0232471D01*
X0103802Y0233016D01*
X0102795Y0234023D01*
X0102250Y0235340D01*
X0102250Y0236764D01*
X0102795Y0238080D01*
X0103802Y0239088D01*
X0105118Y0239633D01*
X0106543Y0239633D01*
X0107859Y0239088D01*
X0108867Y0238080D01*
X0109412Y0236764D01*
X0109412Y0235340D01*
X0108917Y0234145D02*
X0110670Y0234145D01*
X0110124Y0232546D02*
X0106724Y0232546D01*
X0104937Y0232546D02*
X0054081Y0232546D01*
X0054081Y0230948D02*
X0060229Y0230948D01*
X0060495Y0231214D02*
X0059488Y0230206D01*
X0058943Y0228890D01*
X0058943Y0227466D01*
X0059488Y0226149D01*
X0060495Y0225142D01*
X0061811Y0224597D01*
X0063236Y0224597D01*
X0064552Y0225142D01*
X0065560Y0226149D01*
X0066105Y0227466D01*
X0066105Y0228890D01*
X0065560Y0230206D01*
X0064552Y0231214D01*
X0063236Y0231759D01*
X0061811Y0231759D01*
X0060495Y0231214D01*
X0059133Y0229349D02*
X0054081Y0229349D01*
X0054081Y0227750D02*
X0058943Y0227750D01*
X0059487Y0226152D02*
X0054081Y0226152D01*
X0054081Y0224553D02*
X0144251Y0224553D01*
X0144795Y0225097D02*
X0143557Y0223859D01*
X0142887Y0222242D01*
X0142887Y0220492D01*
X0143557Y0218875D01*
X0144795Y0217637D01*
X0146412Y0216967D01*
X0148163Y0216967D01*
X0149780Y0217637D01*
X0151018Y0218875D01*
X0151687Y0220492D01*
X0151687Y0222242D01*
X0151018Y0223859D01*
X0149780Y0225097D01*
X0148163Y0225767D01*
X0146412Y0225767D01*
X0144795Y0225097D01*
X0143183Y0222955D02*
X0129898Y0222955D01*
X0129513Y0223340D02*
X0128197Y0223885D01*
X0126772Y0223885D01*
X0125456Y0223340D01*
X0124448Y0222332D01*
X0123903Y0221016D01*
X0123903Y0219592D01*
X0124448Y0218275D01*
X0125456Y0217268D01*
X0126772Y0216723D01*
X0128197Y0216723D01*
X0129513Y0217268D01*
X0130520Y0218275D01*
X0131065Y0219592D01*
X0131065Y0221016D01*
X0130520Y0222332D01*
X0129513Y0223340D01*
X0130924Y0221356D02*
X0142887Y0221356D01*
X0143191Y0219758D02*
X0131065Y0219758D01*
X0130404Y0218159D02*
X0144272Y0218159D01*
X0150302Y0218159D02*
X0164272Y0218159D01*
X0163191Y0219758D02*
X0151383Y0219758D01*
X0151687Y0221356D02*
X0162887Y0221356D01*
X0163183Y0222955D02*
X0151392Y0222955D01*
X0150323Y0224553D02*
X0164251Y0224553D01*
X0176151Y0229349D02*
X0290587Y0229349D01*
X0290249Y0234145D02*
X0234901Y0234145D01*
X0235396Y0235743D02*
X0291255Y0235743D01*
X0293835Y0237342D02*
X0235157Y0237342D01*
X0233991Y0238940D02*
X0352389Y0238940D01*
X0352250Y0239277D02*
X0352795Y0237960D01*
X0353802Y0236953D01*
X0355118Y0236408D01*
X0356543Y0236408D01*
X0357859Y0236953D01*
X0358867Y0237960D01*
X0359412Y0239277D01*
X0359412Y0240701D01*
X0358867Y0242017D01*
X0357859Y0243025D01*
X0356543Y0243570D01*
X0355118Y0243570D01*
X0353802Y0243025D01*
X0352795Y0242017D01*
X0352250Y0240701D01*
X0352250Y0239277D01*
X0352250Y0240539D02*
X0192089Y0240539D01*
X0192089Y0240701D02*
X0191544Y0242017D01*
X0190536Y0243025D01*
X0189220Y0243570D01*
X0187796Y0243570D01*
X0186479Y0243025D01*
X0185472Y0242017D01*
X0184927Y0240701D01*
X0184927Y0239277D01*
X0185472Y0237960D01*
X0186479Y0236953D01*
X0187796Y0236408D01*
X0189220Y0236408D01*
X0190536Y0236953D01*
X0191544Y0237960D01*
X0192089Y0239277D01*
X0192089Y0240701D01*
X0191424Y0242137D02*
X0352914Y0242137D01*
X0353414Y0237342D02*
X0296488Y0237342D01*
X0299068Y0235743D02*
X0406193Y0235743D01*
X0405399Y0237342D02*
X0358248Y0237342D01*
X0359272Y0238940D02*
X0383311Y0238940D01*
X0382070Y0240539D02*
X0359412Y0240539D01*
X0358747Y0242137D02*
X0381777Y0242137D01*
X0382219Y0243736D02*
X0125126Y0243736D01*
X0125122Y0242137D02*
X0185592Y0242137D01*
X0184927Y0240539D02*
X0124240Y0240539D01*
X0118917Y0240539D02*
X0054081Y0240539D01*
X0054081Y0242137D02*
X0118036Y0242137D01*
X0118031Y0243736D02*
X0054081Y0243736D01*
X0054081Y0245334D02*
X0118907Y0245334D01*
X0109173Y0237342D02*
X0186091Y0237342D01*
X0185066Y0238940D02*
X0108007Y0238940D01*
X0103654Y0238940D02*
X0054081Y0238940D01*
X0054081Y0237342D02*
X0102489Y0237342D01*
X0102250Y0235743D02*
X0054081Y0235743D01*
X0054081Y0234145D02*
X0102745Y0234145D01*
X0098283Y0230948D02*
X0110312Y0230948D01*
X0111406Y0229349D02*
X0099379Y0229349D01*
X0093693Y0230948D02*
X0064818Y0230948D01*
X0065915Y0229349D02*
X0092597Y0229349D01*
X0092407Y0227750D02*
X0066105Y0227750D01*
X0065561Y0226152D02*
X0092951Y0226152D01*
X0099580Y0262602D02*
X0097632Y0263409D01*
X0096141Y0264900D01*
X0095334Y0266848D01*
X0095334Y0268957D01*
X0096141Y0270905D01*
X0097632Y0272395D01*
X0099580Y0273202D01*
X0101688Y0273202D01*
X0103636Y0272395D01*
X0105127Y0270905D01*
X0105934Y0268957D01*
X0105934Y0266848D01*
X0105127Y0264900D01*
X0103636Y0263409D01*
X0101688Y0262602D01*
X0099580Y0262602D01*
X0098818Y0262918D02*
X0054081Y0262918D01*
X0054081Y0264516D02*
X0096525Y0264516D01*
X0095638Y0266115D02*
X0054081Y0266115D01*
X0054081Y0267713D02*
X0095334Y0267713D01*
X0095481Y0269312D02*
X0054081Y0269312D01*
X0054081Y0270910D02*
X0096146Y0270910D01*
X0097905Y0272509D02*
X0054081Y0272509D01*
X0054081Y0261319D02*
X0129809Y0261319D01*
X0130042Y0262918D02*
X0102449Y0262918D01*
X0104743Y0264516D02*
X0131199Y0264516D01*
X0135580Y0264516D02*
X0154214Y0264516D01*
X0154795Y0265097D02*
X0153557Y0263859D01*
X0152887Y0262242D01*
X0152887Y0260492D01*
X0153557Y0258875D01*
X0154795Y0257637D01*
X0156412Y0256967D01*
X0158163Y0256967D01*
X0159780Y0257637D01*
X0161018Y0258875D01*
X0161687Y0260492D01*
X0161687Y0262242D01*
X0161018Y0263859D01*
X0159780Y0265097D01*
X0158163Y0265767D01*
X0156412Y0265767D01*
X0154795Y0265097D01*
X0153167Y0262918D02*
X0136738Y0262918D01*
X0136971Y0261319D02*
X0152887Y0261319D01*
X0153207Y0259721D02*
X0136470Y0259721D01*
X0134249Y0258122D02*
X0154310Y0258122D01*
X0160265Y0258122D02*
X0269920Y0258122D01*
X0270118Y0257645D02*
X0271125Y0256638D01*
X0272441Y0256093D01*
X0273866Y0256093D01*
X0275182Y0256638D01*
X0276189Y0257645D01*
X0276735Y0258962D01*
X0276735Y0260386D01*
X0276189Y0261703D01*
X0275182Y0262710D01*
X0273866Y0263255D01*
X0272441Y0263255D01*
X0271125Y0262710D01*
X0270118Y0261703D01*
X0269572Y0260386D01*
X0269572Y0258962D01*
X0270118Y0257645D01*
X0271401Y0256524D02*
X0173101Y0256524D01*
X0174188Y0254925D02*
X0290219Y0254925D01*
X0289704Y0253327D02*
X0174372Y0253327D01*
X0173815Y0251728D02*
X0289704Y0251728D01*
X0291406Y0256524D02*
X0274906Y0256524D01*
X0276387Y0258122D02*
X0356534Y0258122D01*
X0356187Y0259721D02*
X0276735Y0259721D01*
X0276348Y0261319D02*
X0356573Y0261319D01*
X0358241Y0262918D02*
X0274680Y0262918D01*
X0271627Y0262918D02*
X0161408Y0262918D01*
X0161687Y0261319D02*
X0269959Y0261319D01*
X0269572Y0259721D02*
X0161368Y0259721D01*
X0160361Y0264516D02*
X0229782Y0264516D01*
X0228532Y0266115D02*
X0203433Y0266115D01*
X0201142Y0266115D02*
X0177842Y0266115D01*
X0177409Y0265935D02*
X0178725Y0266481D01*
X0179733Y0267488D01*
X0180278Y0268804D01*
X0180278Y0270229D01*
X0179733Y0271545D01*
X0178725Y0272552D01*
X0177409Y0273098D01*
X0175985Y0273098D01*
X0174668Y0272552D01*
X0173661Y0271545D01*
X0173116Y0270229D01*
X0173116Y0268804D01*
X0173661Y0267488D01*
X0174668Y0266481D01*
X0175985Y0265935D01*
X0177409Y0265935D01*
X0175552Y0266115D02*
X0162094Y0266115D01*
X0161661Y0265935D02*
X0162977Y0266481D01*
X0163985Y0267488D01*
X0164530Y0268804D01*
X0164530Y0270229D01*
X0163985Y0271545D01*
X0162977Y0272552D01*
X0161661Y0273098D01*
X0160236Y0273098D01*
X0158920Y0272552D01*
X0157913Y0271545D01*
X0157368Y0270229D01*
X0157368Y0268804D01*
X0157913Y0267488D01*
X0158920Y0266481D01*
X0160236Y0265935D01*
X0161661Y0265935D01*
X0159804Y0266115D02*
X0105630Y0266115D01*
X0105934Y0267713D02*
X0157820Y0267713D01*
X0157368Y0269312D02*
X0105787Y0269312D01*
X0105121Y0270910D02*
X0157650Y0270910D01*
X0158877Y0272509D02*
X0103362Y0272509D01*
X0130310Y0259721D02*
X0054081Y0259721D01*
X0054081Y0222955D02*
X0125071Y0222955D01*
X0124044Y0221356D02*
X0054081Y0221356D01*
X0054081Y0219758D02*
X0123903Y0219758D01*
X0124564Y0218159D02*
X0054081Y0218159D01*
X0116326Y0155817D02*
X0228558Y0155817D01*
X0229924Y0154219D02*
X0117231Y0154219D01*
X0124631Y0162212D02*
X0185030Y0162212D01*
X0186005Y0163810D02*
X0125160Y0163810D01*
X0175980Y0151022D02*
X0290416Y0151022D01*
X0291657Y0149423D02*
X0176341Y0149423D01*
X0178773Y0187788D02*
X0200212Y0187788D01*
X0198987Y0189386D02*
X0179997Y0189386D01*
X0180278Y0190985D02*
X0198706Y0190985D01*
X0199160Y0192583D02*
X0179825Y0192583D01*
X0190925Y0237342D02*
X0228473Y0237342D01*
X0229639Y0238940D02*
X0191950Y0238940D01*
X0213092Y0224553D02*
X0333362Y0224553D01*
X0332565Y0222955D02*
X0214462Y0222955D01*
X0215107Y0221356D02*
X0332649Y0221356D01*
X0333596Y0219758D02*
X0215107Y0219758D01*
X0205417Y0267713D02*
X0228234Y0267713D01*
X0228669Y0269312D02*
X0205868Y0269312D01*
X0200215Y0272509D02*
X0178769Y0272509D01*
X0179996Y0270910D02*
X0198989Y0270910D01*
X0198706Y0269312D02*
X0180278Y0269312D01*
X0179826Y0267713D02*
X0199158Y0267713D01*
X0213107Y0294888D02*
X0443912Y0294888D01*
X0443915Y0296486D02*
X0387865Y0296486D01*
X0387387Y0296008D02*
X0388394Y0297016D01*
X0388939Y0298332D01*
X0388939Y0299756D01*
X0388394Y0301073D01*
X0387387Y0302080D01*
X0386071Y0302625D01*
X0384646Y0302625D01*
X0383330Y0302080D01*
X0382322Y0301073D01*
X0381777Y0299756D01*
X0381777Y0298332D01*
X0382322Y0297016D01*
X0383330Y0296008D01*
X0384646Y0295463D01*
X0386071Y0295463D01*
X0387387Y0296008D01*
X0388837Y0298085D02*
X0443918Y0298085D01*
X0443921Y0299683D02*
X0388939Y0299683D01*
X0388185Y0301282D02*
X0443924Y0301282D01*
X0443927Y0302881D02*
X0339248Y0302881D01*
X0339182Y0303041D02*
X0338174Y0304048D01*
X0336858Y0304594D01*
X0335433Y0304594D01*
X0334117Y0304048D01*
X0333110Y0303041D01*
X0332565Y0301725D01*
X0332565Y0300300D01*
X0333110Y0298984D01*
X0334117Y0297977D01*
X0335433Y0297431D01*
X0336858Y0297431D01*
X0338174Y0297977D01*
X0339182Y0298984D01*
X0339727Y0300300D01*
X0339727Y0301725D01*
X0339182Y0303041D01*
X0339727Y0301282D02*
X0382532Y0301282D01*
X0381777Y0299683D02*
X0339471Y0299683D01*
X0338282Y0298085D02*
X0381879Y0298085D01*
X0382851Y0296486D02*
X0214468Y0296486D01*
X0215107Y0298085D02*
X0334009Y0298085D01*
X0332820Y0299683D02*
X0215107Y0299683D01*
X0214633Y0301282D02*
X0332565Y0301282D01*
X0333043Y0302881D02*
X0213505Y0302881D01*
X0228779Y0312764D02*
X0229786Y0311756D01*
X0231103Y0311211D01*
X0232527Y0311211D01*
X0233843Y0311756D01*
X0234851Y0312764D01*
X0235396Y0314080D01*
X0235396Y0315504D01*
X0234851Y0316821D01*
X0233843Y0317828D01*
X0232527Y0318373D01*
X0231103Y0318373D01*
X0229786Y0317828D01*
X0228779Y0316821D01*
X0228234Y0315504D01*
X0228234Y0314080D01*
X0228779Y0312764D01*
X0229071Y0312472D02*
X0116911Y0312472D01*
X0117286Y0310873D02*
X0289861Y0310873D01*
X0289861Y0309840D02*
X0289861Y0311949D01*
X0290668Y0313897D01*
X0292159Y0315388D01*
X0294107Y0316194D01*
X0296216Y0316194D01*
X0298164Y0315388D01*
X0299655Y0313897D01*
X0300461Y0311949D01*
X0300461Y0309840D01*
X0299655Y0307892D01*
X0298164Y0306401D01*
X0296216Y0305594D01*
X0294107Y0305594D01*
X0292159Y0306401D01*
X0290668Y0307892D01*
X0289861Y0309840D01*
X0290096Y0309275D02*
X0175468Y0309275D01*
X0176322Y0307676D02*
X0290885Y0307676D01*
X0292941Y0306078D02*
X0176288Y0306078D01*
X0175385Y0304479D02*
X0335157Y0304479D01*
X0337135Y0304479D02*
X0443929Y0304479D01*
X0443932Y0306078D02*
X0297382Y0306078D01*
X0299438Y0307676D02*
X0443935Y0307676D01*
X0443938Y0309275D02*
X0300227Y0309275D01*
X0300461Y0310873D02*
X0443941Y0310873D01*
X0443944Y0312472D02*
X0300245Y0312472D01*
X0299481Y0314070D02*
X0406606Y0314070D01*
X0406952Y0313725D02*
X0408268Y0313180D01*
X0409693Y0313180D01*
X0411009Y0313725D01*
X0412016Y0314732D01*
X0412561Y0316048D01*
X0412561Y0317473D01*
X0412016Y0318789D01*
X0411009Y0319797D01*
X0409693Y0320342D01*
X0408268Y0320342D01*
X0406952Y0319797D01*
X0405944Y0318789D01*
X0405399Y0317473D01*
X0405399Y0316048D01*
X0405944Y0314732D01*
X0406952Y0313725D01*
X0405556Y0315669D02*
X0357800Y0315669D01*
X0357859Y0315693D02*
X0358867Y0316701D01*
X0359412Y0318017D01*
X0359412Y0319441D01*
X0358867Y0320758D01*
X0357859Y0321765D01*
X0356543Y0322310D01*
X0355118Y0322310D01*
X0353802Y0321765D01*
X0352795Y0320758D01*
X0352250Y0319441D01*
X0352250Y0318017D01*
X0352795Y0316701D01*
X0353802Y0315693D01*
X0355118Y0315148D01*
X0356543Y0315148D01*
X0357859Y0315693D01*
X0359101Y0317267D02*
X0384282Y0317267D01*
X0384646Y0317117D02*
X0386071Y0317117D01*
X0387387Y0317662D01*
X0388394Y0318669D01*
X0388939Y0319985D01*
X0388939Y0321410D01*
X0388394Y0322726D01*
X0387387Y0323734D01*
X0386071Y0324279D01*
X0384646Y0324279D01*
X0383330Y0323734D01*
X0382322Y0322726D01*
X0381777Y0321410D01*
X0381777Y0319985D01*
X0382322Y0318669D01*
X0383330Y0317662D01*
X0384646Y0317117D01*
X0386434Y0317267D02*
X0405399Y0317267D01*
X0406021Y0318866D02*
X0388476Y0318866D01*
X0388939Y0320464D02*
X0430052Y0320464D01*
X0429583Y0322063D02*
X0388669Y0322063D01*
X0387459Y0323661D02*
X0429747Y0323661D01*
X0431413Y0318866D02*
X0411940Y0318866D01*
X0412561Y0317267D02*
X0443953Y0317267D01*
X0443950Y0315669D02*
X0412404Y0315669D01*
X0411354Y0314070D02*
X0443947Y0314070D01*
X0443955Y0318866D02*
X0436154Y0318866D01*
X0437515Y0320464D02*
X0443958Y0320464D01*
X0443961Y0322063D02*
X0437983Y0322063D01*
X0437820Y0323661D02*
X0443964Y0323661D01*
X0443990Y0338048D02*
X0403836Y0338048D01*
X0404677Y0339646D02*
X0443993Y0339646D01*
X0443996Y0341245D02*
X0404625Y0341245D01*
X0403710Y0342843D02*
X0443999Y0342843D01*
X0444002Y0344442D02*
X0234926Y0344442D01*
X0235396Y0346040D02*
X0444004Y0346040D01*
X0444007Y0347639D02*
X0235132Y0347639D01*
X0233930Y0349237D02*
X0444010Y0349237D01*
X0444042Y0366821D02*
X0136577Y0366821D01*
X0136185Y0368419D02*
X0444045Y0368419D01*
X0444048Y0370018D02*
X0134490Y0370018D01*
X0131502Y0370018D02*
X0124936Y0370018D01*
X0125343Y0368419D02*
X0129807Y0368419D01*
X0129415Y0366821D02*
X0125299Y0366821D01*
X0124637Y0365222D02*
X0129757Y0365222D01*
X0131211Y0363624D02*
X0123181Y0363624D01*
X0123903Y0371616D02*
X0444050Y0371616D01*
X0444053Y0373215D02*
X0121257Y0373215D01*
X0118830Y0373215D02*
X0054081Y0373215D01*
X0054081Y0339646D02*
X0129819Y0339646D01*
X0130660Y0338048D02*
X0054081Y0338048D01*
X0054081Y0323661D02*
X0118522Y0323661D01*
X0117998Y0322063D02*
X0054081Y0322063D01*
X0054081Y0320464D02*
X0118207Y0320464D01*
X0119331Y0318866D02*
X0054081Y0318866D01*
X0065232Y0309275D02*
X0092013Y0309275D01*
X0092546Y0307676D02*
X0066086Y0307676D01*
X0097861Y0312472D02*
X0103087Y0312472D01*
X0098974Y0310873D02*
X0110124Y0310873D01*
X0110483Y0309275D02*
X0099176Y0309275D01*
X0098643Y0307676D02*
X0112022Y0307676D01*
X0110498Y0312472D02*
X0108575Y0312472D01*
X0109408Y0314070D02*
X0112109Y0314070D01*
X0115301Y0314070D02*
X0228238Y0314070D01*
X0228302Y0315669D02*
X0190477Y0315669D01*
X0190536Y0315693D02*
X0191544Y0316701D01*
X0192089Y0318017D01*
X0192089Y0319441D01*
X0191544Y0320758D01*
X0190536Y0321765D01*
X0189220Y0322310D01*
X0187796Y0322310D01*
X0186479Y0321765D01*
X0185472Y0320758D01*
X0184927Y0319441D01*
X0184927Y0318017D01*
X0185472Y0316701D01*
X0186479Y0315693D01*
X0187796Y0315148D01*
X0189220Y0315148D01*
X0190536Y0315693D01*
X0191778Y0317267D02*
X0229226Y0317267D01*
X0234404Y0317267D02*
X0352560Y0317267D01*
X0352250Y0318866D02*
X0192089Y0318866D01*
X0191665Y0320464D02*
X0352673Y0320464D01*
X0354521Y0322063D02*
X0189818Y0322063D01*
X0187198Y0322063D02*
X0125160Y0322063D01*
X0124950Y0320464D02*
X0185350Y0320464D01*
X0184927Y0318866D02*
X0123827Y0318866D01*
X0124635Y0323661D02*
X0383257Y0323661D01*
X0382048Y0322063D02*
X0357141Y0322063D01*
X0358988Y0320464D02*
X0381777Y0320464D01*
X0382241Y0318866D02*
X0359412Y0318866D01*
X0353862Y0315669D02*
X0297485Y0315669D01*
X0292838Y0315669D02*
X0235328Y0315669D01*
X0235392Y0314070D02*
X0290842Y0314070D01*
X0290078Y0312472D02*
X0234559Y0312472D01*
X0199439Y0346040D02*
X0179545Y0346040D01*
X0180278Y0347639D02*
X0198706Y0347639D01*
X0198817Y0349237D02*
X0180167Y0349237D01*
X0179182Y0350836D02*
X0199802Y0350836D01*
X0173827Y0334537D02*
X0172820Y0335545D01*
X0171504Y0336090D01*
X0170079Y0336090D01*
X0168763Y0335545D01*
X0167755Y0334537D01*
X0167210Y0333221D01*
X0167210Y0331796D01*
X0167755Y0330480D01*
X0168763Y0329473D01*
X0170079Y0328928D01*
X0171504Y0328928D01*
X0172820Y0329473D01*
X0173827Y0330480D01*
X0174372Y0331796D01*
X0174372Y0333221D01*
X0173827Y0334537D01*
X0173514Y0334851D02*
X0272399Y0334851D01*
X0272441Y0334833D02*
X0273866Y0334833D01*
X0275182Y0335378D01*
X0276189Y0336386D01*
X0276735Y0337702D01*
X0276735Y0339127D01*
X0276189Y0340443D01*
X0275182Y0341450D01*
X0273866Y0341995D01*
X0272441Y0341995D01*
X0271125Y0341450D01*
X0270118Y0340443D01*
X0269572Y0339127D01*
X0269572Y0337702D01*
X0270118Y0336386D01*
X0271125Y0335378D01*
X0272441Y0334833D01*
X0273909Y0334851D02*
X0290992Y0334851D01*
X0290511Y0334369D02*
X0289704Y0332421D01*
X0289704Y0330313D01*
X0290511Y0328365D01*
X0292002Y0326874D01*
X0293950Y0326067D01*
X0296058Y0326067D01*
X0298006Y0326874D01*
X0299497Y0328365D01*
X0300304Y0330313D01*
X0300304Y0332421D01*
X0299497Y0334369D01*
X0298006Y0335860D01*
X0296058Y0336667D01*
X0293950Y0336667D01*
X0292002Y0335860D01*
X0290511Y0334369D01*
X0290048Y0333252D02*
X0174359Y0333252D01*
X0174313Y0331654D02*
X0289704Y0331654D01*
X0289811Y0330055D02*
X0173402Y0330055D01*
X0168180Y0330055D02*
X0132666Y0330055D01*
X0132527Y0331654D02*
X0167269Y0331654D01*
X0167223Y0333252D02*
X0131865Y0333252D01*
X0130144Y0334851D02*
X0168069Y0334851D01*
X0161687Y0339646D02*
X0269788Y0339646D01*
X0269572Y0338048D02*
X0161197Y0338048D01*
X0159852Y0336449D02*
X0270091Y0336449D01*
X0270920Y0341245D02*
X0161579Y0341245D01*
X0185237Y0317267D02*
X0108420Y0317267D01*
X0109344Y0315669D02*
X0186539Y0315669D01*
X0174625Y0272509D02*
X0163021Y0272509D01*
X0164248Y0270910D02*
X0173398Y0270910D01*
X0173116Y0269312D02*
X0164530Y0269312D01*
X0164078Y0267713D02*
X0173568Y0267713D01*
X0132354Y0328457D02*
X0290473Y0328457D01*
X0292039Y0326858D02*
X0131455Y0326858D01*
X0131299Y0382806D02*
X0134536Y0382806D01*
X0133943Y0384405D02*
X0131892Y0384405D01*
X0131816Y0386003D02*
X0134019Y0386003D01*
X0134869Y0387602D02*
X0130965Y0387602D01*
X0124869Y0387602D02*
X0120965Y0387602D01*
X0121816Y0386003D02*
X0124019Y0386003D01*
X0123943Y0384405D02*
X0121892Y0384405D01*
X0121299Y0382806D02*
X0124536Y0382806D01*
X0114536Y0382806D02*
X0111299Y0382806D01*
X0111892Y0384405D02*
X0113943Y0384405D01*
X0114019Y0386003D02*
X0111816Y0386003D01*
X0110965Y0387602D02*
X0114869Y0387602D01*
X0140965Y0387602D02*
X0144869Y0387602D01*
X0144019Y0386003D02*
X0141816Y0386003D01*
X0141892Y0384405D02*
X0143943Y0384405D01*
X0144536Y0382806D02*
X0141299Y0382806D01*
X0151299Y0382806D02*
X0154536Y0382806D01*
X0153943Y0384405D02*
X0151892Y0384405D01*
X0151816Y0386003D02*
X0154019Y0386003D01*
X0154869Y0387602D02*
X0150965Y0387602D01*
X0160965Y0387602D02*
X0164869Y0387602D01*
X0164019Y0386003D02*
X0161816Y0386003D01*
X0161892Y0384405D02*
X0163943Y0384405D01*
X0164536Y0382806D02*
X0161299Y0382806D01*
X0172154Y0405185D02*
X0188943Y0405185D01*
X0189342Y0406784D02*
X0172798Y0406784D01*
X0172649Y0408382D02*
X0190650Y0408382D01*
X0196279Y0422769D02*
X0199556Y0422769D01*
X0198943Y0424367D02*
X0196892Y0424367D01*
X0196831Y0425966D02*
X0199003Y0425966D01*
X0199832Y0427564D02*
X0196002Y0427564D01*
X0207126Y0434811D02*
X0208133Y0433803D01*
X0209449Y0433258D01*
X0210874Y0433258D01*
X0212190Y0433803D01*
X0213197Y0434811D01*
X0213743Y0436127D01*
X0213743Y0437552D01*
X0213197Y0438868D01*
X0212190Y0439875D01*
X0210874Y0440420D01*
X0209449Y0440420D01*
X0208133Y0439875D01*
X0207126Y0438868D01*
X0206580Y0437552D01*
X0206580Y0436127D01*
X0207126Y0434811D01*
X0206816Y0435557D02*
X0054081Y0435557D01*
X0054081Y0437155D02*
X0206580Y0437155D01*
X0207078Y0438754D02*
X0054081Y0438754D01*
X0054081Y0440352D02*
X0209285Y0440352D01*
X0211038Y0440352D02*
X0233080Y0440352D01*
X0232716Y0440716D02*
X0233723Y0439709D01*
X0235040Y0439164D01*
X0236464Y0439164D01*
X0237780Y0439709D01*
X0238788Y0440716D01*
X0239333Y0442033D01*
X0239333Y0443457D01*
X0238788Y0444773D01*
X0237780Y0445781D01*
X0236464Y0446326D01*
X0235040Y0446326D01*
X0233723Y0445781D01*
X0232716Y0444773D01*
X0232171Y0443457D01*
X0232171Y0442033D01*
X0232716Y0440716D01*
X0232205Y0441951D02*
X0200461Y0441951D01*
X0200169Y0441659D02*
X0201287Y0442777D01*
X0201892Y0444238D01*
X0201892Y0445819D01*
X0201287Y0447280D01*
X0200169Y0448398D01*
X0198708Y0449003D01*
X0197127Y0449003D01*
X0195666Y0448398D01*
X0194548Y0447280D01*
X0193943Y0445819D01*
X0193943Y0444238D01*
X0194548Y0442777D01*
X0195666Y0441659D01*
X0197127Y0441054D01*
X0198708Y0441054D01*
X0200169Y0441659D01*
X0201607Y0443550D02*
X0212303Y0443550D01*
X0212070Y0443646D02*
X0213386Y0443101D01*
X0214811Y0443101D01*
X0216127Y0443646D01*
X0217134Y0444653D01*
X0217680Y0445970D01*
X0217680Y0447394D01*
X0217134Y0448710D01*
X0216127Y0449718D01*
X0214811Y0450263D01*
X0213386Y0450263D01*
X0212070Y0449718D01*
X0211063Y0448710D01*
X0210517Y0447394D01*
X0210517Y0445970D01*
X0211063Y0444653D01*
X0212070Y0443646D01*
X0210858Y0445148D02*
X0201892Y0445148D01*
X0201508Y0446747D02*
X0210517Y0446747D01*
X0210911Y0448345D02*
X0200222Y0448345D01*
X0195613Y0448345D02*
X0190222Y0448345D01*
X0190169Y0448398D02*
X0188708Y0449003D01*
X0187127Y0449003D01*
X0185666Y0448398D01*
X0184548Y0447280D01*
X0183943Y0445819D01*
X0183943Y0444238D01*
X0184548Y0442777D01*
X0185666Y0441659D01*
X0187127Y0441054D01*
X0188708Y0441054D01*
X0190169Y0441659D01*
X0191287Y0442777D01*
X0191892Y0444238D01*
X0191892Y0445819D01*
X0191287Y0447280D01*
X0190169Y0448398D01*
X0191508Y0446747D02*
X0194327Y0446747D01*
X0193943Y0445148D02*
X0191892Y0445148D01*
X0191607Y0443550D02*
X0194228Y0443550D01*
X0195373Y0441951D02*
X0190461Y0441951D01*
X0185373Y0441951D02*
X0180461Y0441951D01*
X0180169Y0441659D02*
X0181287Y0442777D01*
X0181892Y0444238D01*
X0181892Y0445819D01*
X0181287Y0447280D01*
X0180169Y0448398D01*
X0178708Y0449003D01*
X0177127Y0449003D01*
X0175666Y0448398D01*
X0174548Y0447280D01*
X0173943Y0445819D01*
X0173943Y0444238D01*
X0174548Y0442777D01*
X0175666Y0441659D01*
X0177127Y0441054D01*
X0178708Y0441054D01*
X0180169Y0441659D01*
X0181607Y0443550D02*
X0184228Y0443550D01*
X0183943Y0445148D02*
X0181892Y0445148D01*
X0181508Y0446747D02*
X0184327Y0446747D01*
X0185613Y0448345D02*
X0180222Y0448345D01*
X0175613Y0448345D02*
X0170222Y0448345D01*
X0170169Y0448398D02*
X0168708Y0449003D01*
X0167127Y0449003D01*
X0165666Y0448398D01*
X0164548Y0447280D01*
X0163943Y0445819D01*
X0163943Y0444238D01*
X0164548Y0442777D01*
X0165666Y0441659D01*
X0167127Y0441054D01*
X0168708Y0441054D01*
X0170169Y0441659D01*
X0171287Y0442777D01*
X0171892Y0444238D01*
X0171892Y0445819D01*
X0171287Y0447280D01*
X0170169Y0448398D01*
X0171508Y0446747D02*
X0174327Y0446747D01*
X0173943Y0445148D02*
X0171892Y0445148D01*
X0171607Y0443550D02*
X0174228Y0443550D01*
X0175373Y0441951D02*
X0170461Y0441951D01*
X0165373Y0441951D02*
X0160461Y0441951D01*
X0160169Y0441659D02*
X0161287Y0442777D01*
X0161892Y0444238D01*
X0161892Y0445819D01*
X0161287Y0447280D01*
X0160169Y0448398D01*
X0158708Y0449003D01*
X0157127Y0449003D01*
X0155666Y0448398D01*
X0154548Y0447280D01*
X0153943Y0445819D01*
X0153943Y0444238D01*
X0154548Y0442777D01*
X0155666Y0441659D01*
X0157127Y0441054D01*
X0158708Y0441054D01*
X0160169Y0441659D01*
X0161607Y0443550D02*
X0164228Y0443550D01*
X0163943Y0445148D02*
X0161892Y0445148D01*
X0161508Y0446747D02*
X0164327Y0446747D01*
X0165613Y0448345D02*
X0160222Y0448345D01*
X0155613Y0448345D02*
X0150222Y0448345D01*
X0150169Y0448398D02*
X0148708Y0449003D01*
X0147127Y0449003D01*
X0145666Y0448398D01*
X0144548Y0447280D01*
X0143943Y0445819D01*
X0143943Y0444238D01*
X0144548Y0442777D01*
X0145666Y0441659D01*
X0147127Y0441054D01*
X0148708Y0441054D01*
X0150169Y0441659D01*
X0151287Y0442777D01*
X0151892Y0444238D01*
X0151892Y0445819D01*
X0151287Y0447280D01*
X0150169Y0448398D01*
X0151508Y0446747D02*
X0154327Y0446747D01*
X0153943Y0445148D02*
X0151892Y0445148D01*
X0151607Y0443550D02*
X0154228Y0443550D01*
X0155373Y0441951D02*
X0150461Y0441951D01*
X0145373Y0441951D02*
X0140461Y0441951D01*
X0140169Y0441659D02*
X0141287Y0442777D01*
X0141892Y0444238D01*
X0141892Y0445819D01*
X0141287Y0447280D01*
X0140169Y0448398D01*
X0138708Y0449003D01*
X0137127Y0449003D01*
X0135666Y0448398D01*
X0134548Y0447280D01*
X0133943Y0445819D01*
X0133943Y0444238D01*
X0134548Y0442777D01*
X0135666Y0441659D01*
X0137127Y0441054D01*
X0138708Y0441054D01*
X0140169Y0441659D01*
X0141607Y0443550D02*
X0144228Y0443550D01*
X0143943Y0445148D02*
X0141892Y0445148D01*
X0141508Y0446747D02*
X0144327Y0446747D01*
X0145613Y0448345D02*
X0140222Y0448345D01*
X0135613Y0448345D02*
X0130222Y0448345D01*
X0130169Y0448398D02*
X0128708Y0449003D01*
X0127127Y0449003D01*
X0125666Y0448398D01*
X0124548Y0447280D01*
X0123943Y0445819D01*
X0123943Y0444238D01*
X0124548Y0442777D01*
X0125666Y0441659D01*
X0127127Y0441054D01*
X0128708Y0441054D01*
X0130169Y0441659D01*
X0131287Y0442777D01*
X0131892Y0444238D01*
X0131892Y0445819D01*
X0131287Y0447280D01*
X0130169Y0448398D01*
X0131508Y0446747D02*
X0134327Y0446747D01*
X0133943Y0445148D02*
X0131892Y0445148D01*
X0131607Y0443550D02*
X0134228Y0443550D01*
X0135373Y0441951D02*
X0130461Y0441951D01*
X0125373Y0441951D02*
X0120461Y0441951D01*
X0120169Y0441659D02*
X0121287Y0442777D01*
X0121892Y0444238D01*
X0121892Y0445819D01*
X0121287Y0447280D01*
X0120169Y0448398D01*
X0118708Y0449003D01*
X0117127Y0449003D01*
X0115666Y0448398D01*
X0114548Y0447280D01*
X0113943Y0445819D01*
X0113943Y0444238D01*
X0114548Y0442777D01*
X0115666Y0441659D01*
X0117127Y0441054D01*
X0118708Y0441054D01*
X0120169Y0441659D01*
X0121607Y0443550D02*
X0124228Y0443550D01*
X0123943Y0445148D02*
X0121892Y0445148D01*
X0121508Y0446747D02*
X0124327Y0446747D01*
X0125613Y0448345D02*
X0120222Y0448345D01*
X0115613Y0448345D02*
X0110222Y0448345D01*
X0110169Y0448398D02*
X0108708Y0449003D01*
X0107127Y0449003D01*
X0105666Y0448398D01*
X0104548Y0447280D01*
X0103943Y0445819D01*
X0103943Y0444238D01*
X0104548Y0442777D01*
X0105666Y0441659D01*
X0107127Y0441054D01*
X0108708Y0441054D01*
X0110169Y0441659D01*
X0111287Y0442777D01*
X0111892Y0444238D01*
X0111892Y0445819D01*
X0111287Y0447280D01*
X0110169Y0448398D01*
X0111508Y0446747D02*
X0114327Y0446747D01*
X0113943Y0445148D02*
X0111892Y0445148D01*
X0111607Y0443550D02*
X0114228Y0443550D01*
X0115373Y0441951D02*
X0110461Y0441951D01*
X0105373Y0441951D02*
X0100461Y0441951D01*
X0100169Y0441659D02*
X0101287Y0442777D01*
X0101892Y0444238D01*
X0101892Y0445819D01*
X0101287Y0447280D01*
X0100169Y0448398D01*
X0098708Y0449003D01*
X0097127Y0449003D01*
X0095666Y0448398D01*
X0094548Y0447280D01*
X0093943Y0445819D01*
X0093943Y0444238D01*
X0094548Y0442777D01*
X0095666Y0441659D01*
X0097127Y0441054D01*
X0098708Y0441054D01*
X0100169Y0441659D01*
X0101607Y0443550D02*
X0104228Y0443550D01*
X0103943Y0445148D02*
X0101892Y0445148D01*
X0101508Y0446747D02*
X0104327Y0446747D01*
X0105613Y0448345D02*
X0100222Y0448345D01*
X0095613Y0448345D02*
X0090222Y0448345D01*
X0090169Y0448398D02*
X0088708Y0449003D01*
X0087127Y0449003D01*
X0085666Y0448398D01*
X0084548Y0447280D01*
X0083943Y0445819D01*
X0083943Y0444238D01*
X0084548Y0442777D01*
X0085666Y0441659D01*
X0087127Y0441054D01*
X0088708Y0441054D01*
X0090169Y0441659D01*
X0091287Y0442777D01*
X0091892Y0444238D01*
X0091892Y0445819D01*
X0091287Y0447280D01*
X0090169Y0448398D01*
X0091508Y0446747D02*
X0094327Y0446747D01*
X0093943Y0445148D02*
X0091892Y0445148D01*
X0091607Y0443550D02*
X0094228Y0443550D01*
X0095373Y0441951D02*
X0090461Y0441951D01*
X0085373Y0441951D02*
X0080461Y0441951D01*
X0080169Y0441659D02*
X0081287Y0442777D01*
X0081892Y0444238D01*
X0081892Y0445819D01*
X0081287Y0447280D01*
X0080169Y0448398D01*
X0078708Y0449003D01*
X0077127Y0449003D01*
X0075666Y0448398D01*
X0074548Y0447280D01*
X0073943Y0445819D01*
X0073943Y0444238D01*
X0074548Y0442777D01*
X0075666Y0441659D01*
X0077127Y0441054D01*
X0078708Y0441054D01*
X0080169Y0441659D01*
X0081607Y0443550D02*
X0084228Y0443550D01*
X0083943Y0445148D02*
X0081892Y0445148D01*
X0081508Y0446747D02*
X0084327Y0446747D01*
X0085613Y0448345D02*
X0080222Y0448345D01*
X0075613Y0448345D02*
X0070222Y0448345D01*
X0070169Y0448398D02*
X0068708Y0449003D01*
X0067127Y0449003D01*
X0065666Y0448398D01*
X0064548Y0447280D01*
X0063943Y0445819D01*
X0063943Y0444238D01*
X0064548Y0442777D01*
X0065666Y0441659D01*
X0067127Y0441054D01*
X0068708Y0441054D01*
X0070169Y0441659D01*
X0071287Y0442777D01*
X0071892Y0444238D01*
X0071892Y0445819D01*
X0071287Y0447280D01*
X0070169Y0448398D01*
X0071508Y0446747D02*
X0074327Y0446747D01*
X0073943Y0445148D02*
X0071892Y0445148D01*
X0071607Y0443550D02*
X0074228Y0443550D01*
X0075373Y0441951D02*
X0070461Y0441951D01*
X0065373Y0441951D02*
X0060461Y0441951D01*
X0061607Y0443550D02*
X0064228Y0443550D01*
X0063943Y0445148D02*
X0061892Y0445148D01*
X0061508Y0446747D02*
X0064327Y0446747D01*
X0065613Y0448345D02*
X0060222Y0448345D01*
X0055613Y0448345D02*
X0054081Y0448345D01*
X0054081Y0446747D02*
X0054327Y0446747D01*
X0054228Y0443550D02*
X0054081Y0443550D01*
X0054081Y0441951D02*
X0055373Y0441951D01*
X0054081Y0433958D02*
X0207978Y0433958D01*
X0212345Y0433958D02*
X0355299Y0433958D01*
X0355323Y0433805D02*
X0355547Y0433116D01*
X0355876Y0432471D01*
X0356302Y0431885D01*
X0356814Y0431373D01*
X0357399Y0430948D01*
X0358044Y0430619D01*
X0358733Y0430395D01*
X0359448Y0430282D01*
X0359810Y0430282D01*
X0359810Y0434882D01*
X0359810Y0434882D01*
X0355210Y0434882D01*
X0355210Y0435244D01*
X0355323Y0435959D01*
X0355547Y0436648D01*
X0355876Y0437293D01*
X0356302Y0437879D01*
X0356814Y0438391D01*
X0357399Y0438816D01*
X0358044Y0439145D01*
X0358733Y0439369D01*
X0359448Y0439482D01*
X0359810Y0439482D01*
X0359810Y0434882D01*
X0359810Y0434882D01*
X0355210Y0434882D01*
X0355210Y0434520D01*
X0355323Y0433805D01*
X0355957Y0432360D02*
X0252663Y0432360D01*
X0250337Y0432360D02*
X0054081Y0432360D01*
X0054081Y0430761D02*
X0248368Y0430761D01*
X0247919Y0429163D02*
X0054081Y0429163D01*
X0054081Y0449944D02*
X0212615Y0449944D01*
X0215582Y0449944D02*
X0444192Y0449944D01*
X0444195Y0451542D02*
X0054081Y0451542D01*
X0054081Y0453141D02*
X0126296Y0453141D01*
X0126772Y0452943D02*
X0128197Y0452943D01*
X0129513Y0453488D01*
X0130520Y0454496D01*
X0131065Y0455812D01*
X0131065Y0457237D01*
X0130520Y0458553D01*
X0129513Y0459560D01*
X0128197Y0460105D01*
X0126772Y0460105D01*
X0125456Y0459560D01*
X0124448Y0458553D01*
X0123903Y0457237D01*
X0123903Y0455812D01*
X0124448Y0454496D01*
X0125456Y0453488D01*
X0126772Y0452943D01*
X0128673Y0453141D02*
X0444197Y0453141D01*
X0444200Y0454739D02*
X0380827Y0454739D01*
X0380206Y0454482D02*
X0381676Y0455091D01*
X0382801Y0456216D01*
X0383410Y0457686D01*
X0383410Y0459278D01*
X0382801Y0460748D01*
X0381676Y0461873D01*
X0380206Y0462482D01*
X0378615Y0462482D01*
X0377144Y0461873D01*
X0376019Y0460748D01*
X0375410Y0459278D01*
X0375410Y0457686D01*
X0376019Y0456216D01*
X0377144Y0455091D01*
X0378615Y0454482D01*
X0380206Y0454482D01*
X0377994Y0454739D02*
X0361227Y0454739D01*
X0360606Y0454482D02*
X0362076Y0455091D01*
X0363201Y0456216D01*
X0363810Y0457686D01*
X0363810Y0459278D01*
X0363201Y0460748D01*
X0362076Y0461873D01*
X0360606Y0462482D01*
X0359015Y0462482D01*
X0357544Y0461873D01*
X0356419Y0460748D01*
X0355810Y0459278D01*
X0355810Y0457686D01*
X0356419Y0456216D01*
X0357544Y0455091D01*
X0359015Y0454482D01*
X0360606Y0454482D01*
X0358394Y0454739D02*
X0130621Y0454739D01*
X0131065Y0456338D02*
X0356369Y0456338D01*
X0355810Y0457936D02*
X0204827Y0457936D01*
X0205323Y0458433D02*
X0205868Y0459749D01*
X0205868Y0461174D01*
X0205323Y0462490D01*
X0204316Y0463497D01*
X0203000Y0464043D01*
X0201575Y0464043D01*
X0200259Y0463497D01*
X0199251Y0462490D01*
X0198706Y0461174D01*
X0198706Y0459749D01*
X0199251Y0458433D01*
X0200259Y0457426D01*
X0201575Y0456880D01*
X0203000Y0456880D01*
X0204316Y0457426D01*
X0205323Y0458433D01*
X0205780Y0459535D02*
X0355917Y0459535D01*
X0356805Y0461133D02*
X0205868Y0461133D01*
X0205082Y0462732D02*
X0444215Y0462732D01*
X0444218Y0464330D02*
X0072213Y0464330D01*
X0071864Y0464679D02*
X0069916Y0465486D01*
X0067808Y0465486D01*
X0065860Y0464679D01*
X0064369Y0463188D01*
X0063562Y0461240D01*
X0063562Y0459132D01*
X0064369Y0457184D01*
X0065860Y0455693D01*
X0067808Y0454886D01*
X0069916Y0454886D01*
X0071864Y0455693D01*
X0073355Y0457184D01*
X0074162Y0459132D01*
X0074162Y0461240D01*
X0073355Y0463188D01*
X0071864Y0464679D01*
X0073544Y0462732D02*
X0199493Y0462732D01*
X0198706Y0461133D02*
X0074162Y0461133D01*
X0074162Y0459535D02*
X0125430Y0459535D01*
X0124193Y0457936D02*
X0073667Y0457936D01*
X0072509Y0456338D02*
X0123903Y0456338D01*
X0124348Y0454739D02*
X0054081Y0454739D01*
X0054081Y0456338D02*
X0065215Y0456338D01*
X0064057Y0457936D02*
X0054081Y0457936D01*
X0054081Y0459535D02*
X0063562Y0459535D01*
X0063562Y0461133D02*
X0054081Y0461133D01*
X0054081Y0462732D02*
X0064180Y0462732D01*
X0065511Y0464330D02*
X0054081Y0464330D01*
X0054081Y0465929D02*
X0207504Y0465929D01*
X0207126Y0466307D02*
X0208133Y0465300D01*
X0209449Y0464754D01*
X0210874Y0464754D01*
X0212190Y0465300D01*
X0213197Y0466307D01*
X0213743Y0467623D01*
X0213743Y0469048D01*
X0213197Y0470364D01*
X0212190Y0471371D01*
X0210874Y0471917D01*
X0209449Y0471917D01*
X0208133Y0471371D01*
X0207126Y0470364D01*
X0206580Y0469048D01*
X0206580Y0467623D01*
X0207126Y0466307D01*
X0206620Y0467527D02*
X0054081Y0467527D01*
X0054081Y0469126D02*
X0206613Y0469126D01*
X0207486Y0470724D02*
X0054081Y0470724D01*
X0054081Y0472323D02*
X0444232Y0472323D01*
X0444235Y0473921D02*
X0054081Y0473921D01*
X0054081Y0475520D02*
X0089645Y0475520D01*
X0090023Y0475142D02*
X0091339Y0474597D01*
X0092764Y0474597D01*
X0094080Y0475142D01*
X0095087Y0476149D01*
X0095632Y0477466D01*
X0095632Y0478890D01*
X0095087Y0480206D01*
X0094080Y0481214D01*
X0092764Y0481759D01*
X0091339Y0481759D01*
X0090023Y0481214D01*
X0089015Y0480206D01*
X0088470Y0478890D01*
X0088470Y0477466D01*
X0089015Y0476149D01*
X0090023Y0475142D01*
X0088614Y0477118D02*
X0054081Y0477118D01*
X0054081Y0478717D02*
X0088470Y0478717D01*
X0089124Y0480315D02*
X0054081Y0480315D01*
X0054081Y0481914D02*
X0444249Y0481914D01*
X0444252Y0483512D02*
X0054081Y0483512D01*
X0054081Y0485111D02*
X0444255Y0485111D01*
X0444258Y0486709D02*
X0210891Y0486709D01*
X0210861Y0486697D02*
X0212809Y0487504D01*
X0214300Y0488995D01*
X0215107Y0490943D01*
X0215107Y0493051D01*
X0214300Y0494999D01*
X0212809Y0496490D01*
X0210861Y0497297D01*
X0208753Y0497297D01*
X0206805Y0496490D01*
X0205314Y0494999D01*
X0204507Y0493051D01*
X0204507Y0490943D01*
X0205314Y0488995D01*
X0206805Y0487504D01*
X0208753Y0486697D01*
X0210861Y0486697D01*
X0208723Y0486709D02*
X0054081Y0486709D01*
X0054081Y0488308D02*
X0206001Y0488308D01*
X0204936Y0489906D02*
X0170396Y0489906D01*
X0169780Y0489290D02*
X0171018Y0490528D01*
X0171687Y0492145D01*
X0171687Y0493896D01*
X0171018Y0495513D01*
X0169780Y0496751D01*
X0168163Y0497420D01*
X0166412Y0497420D01*
X0164795Y0496751D01*
X0163557Y0495513D01*
X0162887Y0493896D01*
X0162887Y0492145D01*
X0163557Y0490528D01*
X0164795Y0489290D01*
X0166412Y0488620D01*
X0168163Y0488620D01*
X0169780Y0489290D01*
X0171422Y0491505D02*
X0204507Y0491505D01*
X0204529Y0493103D02*
X0171687Y0493103D01*
X0171353Y0494702D02*
X0205191Y0494702D01*
X0206615Y0496300D02*
X0173593Y0496300D01*
X0173472Y0496250D02*
X0174788Y0496796D01*
X0175796Y0497803D01*
X0176341Y0499119D01*
X0176341Y0500544D01*
X0175796Y0501860D01*
X0174788Y0502867D01*
X0173472Y0503413D01*
X0172048Y0503413D01*
X0170731Y0502867D01*
X0169724Y0501860D01*
X0169179Y0500544D01*
X0169179Y0499119D01*
X0169724Y0497803D01*
X0170731Y0496796D01*
X0172048Y0496250D01*
X0173472Y0496250D01*
X0171927Y0496300D02*
X0170230Y0496300D01*
X0169684Y0497899D02*
X0065599Y0497899D01*
X0065560Y0497803D02*
X0066105Y0499119D01*
X0066105Y0500544D01*
X0065560Y0501860D01*
X0064552Y0502867D01*
X0063236Y0503413D01*
X0061811Y0503413D01*
X0060495Y0502867D01*
X0059488Y0501860D01*
X0058943Y0500544D01*
X0058943Y0499119D01*
X0059488Y0497803D01*
X0060495Y0496796D01*
X0061811Y0496250D01*
X0063236Y0496250D01*
X0064552Y0496796D01*
X0065560Y0497803D01*
X0066105Y0499497D02*
X0093697Y0499497D01*
X0093566Y0499551D02*
X0094882Y0499006D01*
X0096307Y0499006D01*
X0097623Y0499551D01*
X0098630Y0500559D01*
X0099176Y0501875D01*
X0099176Y0503300D01*
X0098630Y0504616D01*
X0097623Y0505623D01*
X0096307Y0506168D01*
X0094882Y0506168D01*
X0093566Y0505623D01*
X0092559Y0504616D01*
X0092013Y0503300D01*
X0092013Y0501875D01*
X0092559Y0500559D01*
X0093566Y0499551D01*
X0092336Y0501096D02*
X0065876Y0501096D01*
X0064725Y0502694D02*
X0092013Y0502694D01*
X0092425Y0504293D02*
X0054081Y0504293D01*
X0054081Y0505891D02*
X0094213Y0505891D01*
X0096976Y0505891D02*
X0102706Y0505891D01*
X0102795Y0505677D02*
X0102250Y0506993D01*
X0102250Y0508418D01*
X0102795Y0509734D01*
X0103802Y0510741D01*
X0105118Y0511287D01*
X0106543Y0511287D01*
X0107859Y0510741D01*
X0108867Y0509734D01*
X0109412Y0508418D01*
X0109412Y0506993D01*
X0108867Y0505677D01*
X0107859Y0504670D01*
X0106543Y0504124D01*
X0105118Y0504124D01*
X0103802Y0504670D01*
X0102795Y0505677D01*
X0102250Y0507490D02*
X0054081Y0507490D01*
X0054081Y0509088D02*
X0102527Y0509088D01*
X0103748Y0510687D02*
X0054081Y0510687D01*
X0054081Y0512285D02*
X0118824Y0512285D01*
X0118543Y0512567D02*
X0119550Y0511559D01*
X0120866Y0511014D01*
X0122291Y0511014D01*
X0123607Y0511559D01*
X0124615Y0512567D01*
X0125160Y0513883D01*
X0125160Y0515308D01*
X0124615Y0516624D01*
X0123607Y0517631D01*
X0122291Y0518176D01*
X0120866Y0518176D01*
X0119550Y0517631D01*
X0118543Y0516624D01*
X0117998Y0515308D01*
X0117998Y0513883D01*
X0118543Y0512567D01*
X0117998Y0513884D02*
X0054081Y0513884D01*
X0054081Y0515483D02*
X0118070Y0515483D01*
X0119000Y0517081D02*
X0054081Y0517081D01*
X0054081Y0518680D02*
X0124377Y0518680D01*
X0124364Y0518685D02*
X0126312Y0517878D01*
X0128420Y0517878D01*
X0130368Y0518685D01*
X0131859Y0520176D01*
X0132666Y0522124D01*
X0132666Y0524232D01*
X0131859Y0526180D01*
X0130368Y0527671D01*
X0128420Y0528478D01*
X0126312Y0528478D01*
X0124364Y0527671D01*
X0122873Y0526180D01*
X0122066Y0524232D01*
X0122066Y0522124D01*
X0122873Y0520176D01*
X0124364Y0518685D01*
X0124157Y0517081D02*
X0384378Y0517081D01*
X0384646Y0517192D02*
X0383330Y0516647D01*
X0382322Y0515640D01*
X0381777Y0514323D01*
X0381777Y0512899D01*
X0382322Y0511582D01*
X0383330Y0510575D01*
X0384646Y0510030D01*
X0386071Y0510030D01*
X0387387Y0510575D01*
X0388394Y0511582D01*
X0388939Y0512899D01*
X0388939Y0514323D01*
X0388394Y0515640D01*
X0387387Y0516647D01*
X0386071Y0517192D01*
X0384646Y0517192D01*
X0386339Y0517081D02*
X0429957Y0517081D01*
X0430223Y0517722D02*
X0429583Y0516179D01*
X0429583Y0514508D01*
X0430223Y0512964D01*
X0431404Y0511783D01*
X0432948Y0511143D01*
X0434619Y0511143D01*
X0436163Y0511783D01*
X0437344Y0512964D01*
X0437983Y0514508D01*
X0437983Y0516179D01*
X0437344Y0517722D01*
X0436163Y0518904D01*
X0434619Y0519543D01*
X0432948Y0519543D01*
X0431404Y0518904D01*
X0430223Y0517722D01*
X0431180Y0518680D02*
X0316751Y0518680D01*
X0316521Y0518449D02*
X0317528Y0519457D01*
X0318073Y0520773D01*
X0318073Y0522197D01*
X0317528Y0523514D01*
X0316521Y0524521D01*
X0315204Y0525066D01*
X0313780Y0525066D01*
X0312464Y0524521D01*
X0311456Y0523514D01*
X0310911Y0522197D01*
X0310911Y0520773D01*
X0311456Y0519457D01*
X0312464Y0518449D01*
X0313780Y0517904D01*
X0315204Y0517904D01*
X0316521Y0518449D01*
X0317868Y0520278D02*
X0444318Y0520278D01*
X0444316Y0518680D02*
X0436387Y0518680D01*
X0437610Y0517081D02*
X0444313Y0517081D01*
X0444310Y0515483D02*
X0437983Y0515483D01*
X0437725Y0513884D02*
X0444307Y0513884D01*
X0444304Y0512285D02*
X0436665Y0512285D01*
X0430902Y0512285D02*
X0411433Y0512285D01*
X0411009Y0512710D02*
X0409693Y0513255D01*
X0408268Y0513255D01*
X0406952Y0512710D01*
X0405944Y0511703D01*
X0405399Y0510386D01*
X0405399Y0508962D01*
X0405944Y0507645D01*
X0406952Y0506638D01*
X0408268Y0506093D01*
X0409693Y0506093D01*
X0411009Y0506638D01*
X0412016Y0507645D01*
X0412561Y0508962D01*
X0412561Y0510386D01*
X0412016Y0511703D01*
X0411009Y0512710D01*
X0412437Y0510687D02*
X0444301Y0510687D01*
X0444298Y0509088D02*
X0412561Y0509088D01*
X0411861Y0507490D02*
X0444295Y0507490D01*
X0444292Y0505891D02*
X0300035Y0505891D01*
X0299655Y0506810D02*
X0298164Y0508301D01*
X0296216Y0509108D01*
X0294107Y0509108D01*
X0292159Y0508301D01*
X0290668Y0506810D01*
X0289861Y0504862D01*
X0289861Y0502754D01*
X0290668Y0500806D01*
X0292159Y0499315D01*
X0294107Y0498508D01*
X0296216Y0498508D01*
X0298164Y0499315D01*
X0299655Y0500806D01*
X0300461Y0502754D01*
X0300461Y0504862D01*
X0299655Y0506810D01*
X0298975Y0507490D02*
X0406100Y0507490D01*
X0405399Y0509088D02*
X0358341Y0509088D01*
X0357859Y0508607D02*
X0358867Y0509614D01*
X0359412Y0510930D01*
X0359412Y0512355D01*
X0358867Y0513671D01*
X0357859Y0514678D01*
X0356543Y0515224D01*
X0355118Y0515224D01*
X0353802Y0514678D01*
X0352795Y0513671D01*
X0352250Y0512355D01*
X0352250Y0510930D01*
X0352795Y0509614D01*
X0353802Y0508607D01*
X0355118Y0508061D01*
X0356543Y0508061D01*
X0357859Y0508607D01*
X0359311Y0510687D02*
X0383218Y0510687D01*
X0382031Y0512285D02*
X0359412Y0512285D01*
X0358654Y0513884D02*
X0381777Y0513884D01*
X0382257Y0515483D02*
X0125087Y0515483D01*
X0125160Y0513884D02*
X0185685Y0513884D01*
X0185472Y0513671D02*
X0184927Y0512355D01*
X0184927Y0510930D01*
X0185472Y0509614D01*
X0186479Y0508607D01*
X0187796Y0508061D01*
X0189220Y0508061D01*
X0190536Y0508607D01*
X0191544Y0509614D01*
X0192089Y0510930D01*
X0192089Y0512355D01*
X0191544Y0513671D01*
X0190536Y0514678D01*
X0189220Y0515224D01*
X0187796Y0515224D01*
X0186479Y0514678D01*
X0185472Y0513671D01*
X0184927Y0512285D02*
X0124333Y0512285D01*
X0122831Y0520278D02*
X0054081Y0520278D01*
X0054081Y0521877D02*
X0122169Y0521877D01*
X0122066Y0523475D02*
X0054081Y0523475D01*
X0054081Y0525074D02*
X0122415Y0525074D01*
X0123365Y0526672D02*
X0054081Y0526672D01*
X0054081Y0528271D02*
X0125811Y0528271D01*
X0128921Y0528271D02*
X0168575Y0528271D01*
X0168763Y0528458D02*
X0167755Y0527451D01*
X0167210Y0526134D01*
X0167210Y0524710D01*
X0167755Y0523394D01*
X0168763Y0522386D01*
X0170079Y0521841D01*
X0171504Y0521841D01*
X0172820Y0522386D01*
X0173827Y0523394D01*
X0174372Y0524710D01*
X0174372Y0526134D01*
X0173827Y0527451D01*
X0172820Y0528458D01*
X0171504Y0529003D01*
X0170079Y0529003D01*
X0168763Y0528458D01*
X0167433Y0526672D02*
X0131367Y0526672D01*
X0132318Y0525074D02*
X0167210Y0525074D01*
X0167722Y0523475D02*
X0132666Y0523475D01*
X0132564Y0521877D02*
X0169993Y0521877D01*
X0171590Y0521877D02*
X0290263Y0521877D01*
X0290511Y0521278D02*
X0292002Y0519787D01*
X0293950Y0518980D01*
X0296058Y0518980D01*
X0298006Y0519787D01*
X0299497Y0521278D01*
X0300304Y0523226D01*
X0300304Y0525335D01*
X0299497Y0527283D01*
X0298006Y0528773D01*
X0296058Y0529580D01*
X0293950Y0529580D01*
X0292002Y0528773D01*
X0290511Y0527283D01*
X0289704Y0525335D01*
X0289704Y0523226D01*
X0290511Y0521278D01*
X0291511Y0520278D02*
X0131902Y0520278D01*
X0130356Y0518680D02*
X0312233Y0518680D01*
X0311116Y0520278D02*
X0298497Y0520278D01*
X0299745Y0521877D02*
X0310911Y0521877D01*
X0311440Y0523475D02*
X0300304Y0523475D01*
X0300304Y0525074D02*
X0360124Y0525074D01*
X0360124Y0524710D02*
X0360124Y0526134D01*
X0360669Y0527451D01*
X0361307Y0528089D01*
X0360480Y0527746D01*
X0359055Y0527746D01*
X0357739Y0528292D01*
X0356732Y0529299D01*
X0356187Y0530615D01*
X0356187Y0532040D01*
X0356732Y0533356D01*
X0357739Y0534363D01*
X0359055Y0534909D01*
X0360480Y0534909D01*
X0361796Y0534363D01*
X0362804Y0533356D01*
X0363349Y0532040D01*
X0363349Y0530615D01*
X0362804Y0529299D01*
X0362165Y0528660D01*
X0362992Y0529003D01*
X0364417Y0529003D01*
X0365733Y0528458D01*
X0366741Y0527451D01*
X0367286Y0526134D01*
X0367286Y0524710D01*
X0366741Y0523394D01*
X0365733Y0522386D01*
X0364417Y0521841D01*
X0362992Y0521841D01*
X0361676Y0522386D01*
X0360669Y0523394D01*
X0360124Y0524710D01*
X0360635Y0523475D02*
X0317544Y0523475D01*
X0318073Y0521877D02*
X0362906Y0521877D01*
X0364503Y0521877D02*
X0386528Y0521877D01*
X0386614Y0521841D02*
X0388039Y0521841D01*
X0389355Y0522386D01*
X0390363Y0523394D01*
X0390908Y0524710D01*
X0390908Y0526134D01*
X0390363Y0527451D01*
X0389355Y0528458D01*
X0388039Y0529003D01*
X0386614Y0529003D01*
X0385298Y0528458D01*
X0384291Y0527451D01*
X0383746Y0526134D01*
X0383746Y0524710D01*
X0384291Y0523394D01*
X0385298Y0522386D01*
X0386614Y0521841D01*
X0388125Y0521877D02*
X0431311Y0521877D01*
X0431404Y0521783D02*
X0432948Y0521143D01*
X0434619Y0521143D01*
X0436163Y0521783D01*
X0437344Y0522964D01*
X0437983Y0524508D01*
X0437983Y0526179D01*
X0437344Y0527722D01*
X0436163Y0528904D01*
X0434619Y0529543D01*
X0432948Y0529543D01*
X0431404Y0528904D01*
X0430223Y0527722D01*
X0429583Y0526179D01*
X0429583Y0524508D01*
X0430223Y0522964D01*
X0431404Y0521783D01*
X0430011Y0523475D02*
X0390396Y0523475D01*
X0390908Y0525074D02*
X0429583Y0525074D01*
X0429788Y0526672D02*
X0390685Y0526672D01*
X0389543Y0528271D02*
X0430771Y0528271D01*
X0436796Y0528271D02*
X0444333Y0528271D01*
X0444336Y0529869D02*
X0402191Y0529869D01*
X0401819Y0529715D02*
X0403135Y0530260D01*
X0404142Y0531268D01*
X0404687Y0532584D01*
X0404687Y0534008D01*
X0404142Y0535325D01*
X0403135Y0536332D01*
X0401819Y0536877D01*
X0400394Y0536877D01*
X0399078Y0536332D01*
X0398070Y0535325D01*
X0397525Y0534008D01*
X0397525Y0532584D01*
X0398070Y0531268D01*
X0399078Y0530260D01*
X0400394Y0529715D01*
X0401819Y0529715D01*
X0400022Y0529869D02*
X0363040Y0529869D01*
X0363349Y0531468D02*
X0397987Y0531468D01*
X0397525Y0533066D02*
X0362924Y0533066D01*
X0361069Y0534665D02*
X0397797Y0534665D01*
X0399009Y0536263D02*
X0233941Y0536263D01*
X0233843Y0536166D02*
X0234851Y0537173D01*
X0235396Y0538489D01*
X0235396Y0539914D01*
X0234851Y0541230D01*
X0233843Y0542237D01*
X0232527Y0542783D01*
X0231103Y0542783D01*
X0229786Y0542237D01*
X0228779Y0541230D01*
X0228234Y0539914D01*
X0228234Y0538489D01*
X0228779Y0537173D01*
X0229786Y0536166D01*
X0231103Y0535620D01*
X0232527Y0535620D01*
X0233843Y0536166D01*
X0235136Y0537862D02*
X0444350Y0537862D01*
X0444353Y0539460D02*
X0235396Y0539460D01*
X0234922Y0541059D02*
X0444356Y0541059D01*
X0444359Y0542657D02*
X0232830Y0542657D01*
X0230800Y0542657D02*
X0205548Y0542657D01*
X0205323Y0543199D02*
X0205868Y0541882D01*
X0205868Y0540458D01*
X0205323Y0539142D01*
X0204316Y0538134D01*
X0203000Y0537589D01*
X0201575Y0537589D01*
X0200259Y0538134D01*
X0199251Y0539142D01*
X0198706Y0540458D01*
X0198706Y0541882D01*
X0199251Y0543199D01*
X0200259Y0544206D01*
X0201575Y0544751D01*
X0203000Y0544751D01*
X0204316Y0544206D01*
X0205323Y0543199D01*
X0204196Y0544256D02*
X0335870Y0544256D01*
X0336086Y0544040D02*
X0337402Y0543494D01*
X0338827Y0543494D01*
X0340143Y0544040D01*
X0341150Y0545047D01*
X0341695Y0546363D01*
X0341695Y0547788D01*
X0341150Y0549104D01*
X0340143Y0550111D01*
X0338827Y0550657D01*
X0337402Y0550657D01*
X0336086Y0550111D01*
X0335078Y0549104D01*
X0334533Y0547788D01*
X0334533Y0546363D01*
X0335078Y0545047D01*
X0336086Y0544040D01*
X0334744Y0545854D02*
X0054081Y0545854D01*
X0054081Y0544256D02*
X0098131Y0544256D01*
X0097632Y0544049D02*
X0099580Y0544856D01*
X0101688Y0544856D01*
X0103636Y0544049D01*
X0105127Y0542558D01*
X0105934Y0540610D01*
X0105934Y0538502D01*
X0105127Y0536554D01*
X0103636Y0535063D01*
X0101688Y0534256D01*
X0099580Y0534256D01*
X0097632Y0535063D01*
X0096141Y0536554D01*
X0095334Y0538502D01*
X0095334Y0540610D01*
X0096141Y0542558D01*
X0097632Y0544049D01*
X0096240Y0542657D02*
X0054081Y0542657D01*
X0054081Y0541059D02*
X0095520Y0541059D01*
X0095334Y0539460D02*
X0054081Y0539460D01*
X0054081Y0537862D02*
X0095599Y0537862D01*
X0096431Y0536263D02*
X0054081Y0536263D01*
X0054081Y0534665D02*
X0098593Y0534665D01*
X0102675Y0534665D02*
X0130080Y0534665D01*
X0129809Y0534008D02*
X0129809Y0532584D01*
X0130354Y0531268D01*
X0131361Y0530260D01*
X0132677Y0529715D01*
X0134102Y0529715D01*
X0135418Y0530260D01*
X0136426Y0531268D01*
X0136971Y0532584D01*
X0136971Y0534008D01*
X0136426Y0535325D01*
X0135418Y0536332D01*
X0134102Y0536877D01*
X0132677Y0536877D01*
X0131361Y0536332D01*
X0130354Y0535325D01*
X0129809Y0534008D01*
X0129809Y0533066D02*
X0054081Y0533066D01*
X0054081Y0531468D02*
X0130271Y0531468D01*
X0132305Y0529869D02*
X0054081Y0529869D01*
X0054081Y0547453D02*
X0334533Y0547453D01*
X0335056Y0549051D02*
X0054081Y0549051D01*
X0054081Y0550650D02*
X0337385Y0550650D01*
X0338843Y0550650D02*
X0444373Y0550650D01*
X0444376Y0552248D02*
X0054081Y0552248D01*
X0054081Y0553847D02*
X0444379Y0553847D01*
X0444382Y0555445D02*
X0054081Y0555445D01*
X0054081Y0557044D02*
X0444385Y0557044D01*
X0444388Y0558642D02*
X0054081Y0558642D01*
X0054081Y0560241D02*
X0444390Y0560241D01*
X0444393Y0561839D02*
X0054081Y0561839D01*
X0054081Y0563438D02*
X0444396Y0563438D01*
X0444399Y0565036D02*
X0054081Y0565036D01*
X0054081Y0566635D02*
X0206414Y0566635D01*
X0206805Y0566244D02*
X0208753Y0565437D01*
X0210861Y0565437D01*
X0212809Y0566244D01*
X0214300Y0567735D01*
X0215107Y0569683D01*
X0215107Y0571791D01*
X0214300Y0573739D01*
X0212809Y0575230D01*
X0210861Y0576037D01*
X0208753Y0576037D01*
X0206805Y0575230D01*
X0205314Y0573739D01*
X0204507Y0571791D01*
X0204507Y0569683D01*
X0205314Y0567735D01*
X0206805Y0566244D01*
X0205107Y0568233D02*
X0169983Y0568233D01*
X0169780Y0568030D02*
X0171018Y0569268D01*
X0171687Y0570885D01*
X0171687Y0572636D01*
X0171018Y0574253D01*
X0169780Y0575491D01*
X0168163Y0576161D01*
X0166412Y0576161D01*
X0164795Y0575491D01*
X0163557Y0574253D01*
X0162887Y0572636D01*
X0162887Y0570885D01*
X0163557Y0569268D01*
X0164795Y0568030D01*
X0166412Y0567361D01*
X0168163Y0567361D01*
X0169780Y0568030D01*
X0171251Y0569832D02*
X0204507Y0569832D01*
X0204507Y0571430D02*
X0171687Y0571430D01*
X0171525Y0573029D02*
X0205020Y0573029D01*
X0206202Y0574627D02*
X0170643Y0574627D01*
X0170731Y0575536D02*
X0172048Y0574991D01*
X0173472Y0574991D01*
X0174788Y0575536D01*
X0175796Y0576543D01*
X0176341Y0577859D01*
X0176341Y0579284D01*
X0175796Y0580600D01*
X0174788Y0581608D01*
X0173472Y0582153D01*
X0172048Y0582153D01*
X0170731Y0581608D01*
X0169724Y0580600D01*
X0169179Y0579284D01*
X0169179Y0577859D01*
X0169724Y0576543D01*
X0170731Y0575536D01*
X0170041Y0576226D02*
X0095632Y0576226D01*
X0095632Y0575891D02*
X0095087Y0574575D01*
X0094080Y0573567D01*
X0092764Y0573022D01*
X0091339Y0573022D01*
X0090023Y0573567D01*
X0089015Y0574575D01*
X0088470Y0575891D01*
X0088470Y0577315D01*
X0089015Y0578632D01*
X0090023Y0579639D01*
X0091339Y0580184D01*
X0092764Y0580184D01*
X0094080Y0579639D01*
X0095087Y0578632D01*
X0095632Y0577315D01*
X0095632Y0575891D01*
X0095109Y0574627D02*
X0143932Y0574627D01*
X0143557Y0574253D02*
X0142887Y0572636D01*
X0142887Y0570885D01*
X0143557Y0569268D01*
X0144795Y0568030D01*
X0146412Y0567361D01*
X0148163Y0567361D01*
X0149780Y0568030D01*
X0151018Y0569268D01*
X0151687Y0570885D01*
X0151687Y0572636D01*
X0151018Y0574253D01*
X0149780Y0575491D01*
X0148163Y0576161D01*
X0146412Y0576161D01*
X0144795Y0575491D01*
X0143557Y0574253D01*
X0143050Y0573029D02*
X0130217Y0573029D01*
X0130520Y0572726D02*
X0129513Y0573734D01*
X0128197Y0574279D01*
X0126772Y0574279D01*
X0125456Y0573734D01*
X0124448Y0572726D01*
X0123903Y0571410D01*
X0123903Y0569985D01*
X0124448Y0568669D01*
X0125456Y0567662D01*
X0126772Y0567117D01*
X0128197Y0567117D01*
X0129513Y0567662D01*
X0130520Y0568669D01*
X0131065Y0569985D01*
X0131065Y0571410D01*
X0130520Y0572726D01*
X0131057Y0571430D02*
X0142887Y0571430D01*
X0143324Y0569832D02*
X0131002Y0569832D01*
X0130084Y0568233D02*
X0144592Y0568233D01*
X0149983Y0568233D02*
X0164592Y0568233D01*
X0163324Y0569832D02*
X0151251Y0569832D01*
X0151687Y0571430D02*
X0162887Y0571430D01*
X0163050Y0573029D02*
X0151525Y0573029D01*
X0150643Y0574627D02*
X0163932Y0574627D01*
X0169193Y0577824D02*
X0095421Y0577824D01*
X0094296Y0579423D02*
X0111796Y0579423D01*
X0111676Y0579473D02*
X0112992Y0578928D01*
X0114417Y0578928D01*
X0115733Y0579473D01*
X0116741Y0580480D01*
X0117286Y0581796D01*
X0117286Y0583221D01*
X0116741Y0584537D01*
X0115733Y0585545D01*
X0114417Y0586090D01*
X0112992Y0586090D01*
X0111676Y0585545D01*
X0110669Y0584537D01*
X0110124Y0583221D01*
X0110124Y0581796D01*
X0110669Y0580480D01*
X0111676Y0579473D01*
X0110445Y0581021D02*
X0065138Y0581021D01*
X0065560Y0580600D02*
X0064552Y0581608D01*
X0063236Y0582153D01*
X0061811Y0582153D01*
X0060495Y0581608D01*
X0059488Y0580600D01*
X0058943Y0579284D01*
X0058943Y0577859D01*
X0059488Y0576543D01*
X0060495Y0575536D01*
X0061811Y0574991D01*
X0063236Y0574991D01*
X0064552Y0575536D01*
X0065560Y0576543D01*
X0066105Y0577859D01*
X0066105Y0579284D01*
X0065560Y0580600D01*
X0066047Y0579423D02*
X0089807Y0579423D01*
X0088681Y0577824D02*
X0066090Y0577824D01*
X0065242Y0576226D02*
X0088470Y0576226D01*
X0088993Y0574627D02*
X0054081Y0574627D01*
X0054081Y0573029D02*
X0091322Y0573029D01*
X0092780Y0573029D02*
X0124751Y0573029D01*
X0123912Y0571430D02*
X0054081Y0571430D01*
X0054081Y0569832D02*
X0123967Y0569832D01*
X0124884Y0568233D02*
X0054081Y0568233D01*
X0054081Y0576226D02*
X0059805Y0576226D01*
X0058957Y0577824D02*
X0054081Y0577824D01*
X0054081Y0579423D02*
X0059000Y0579423D01*
X0059909Y0581021D02*
X0054081Y0581021D01*
X0054081Y0582620D02*
X0110124Y0582620D01*
X0110537Y0584219D02*
X0108668Y0584219D01*
X0108867Y0584417D02*
X0107859Y0583410D01*
X0106543Y0582865D01*
X0105118Y0582865D01*
X0103802Y0583410D01*
X0102795Y0584417D01*
X0102250Y0585733D01*
X0102250Y0587158D01*
X0102795Y0588474D01*
X0103802Y0589482D01*
X0105118Y0590027D01*
X0106543Y0590027D01*
X0107859Y0589482D01*
X0108867Y0588474D01*
X0109412Y0587158D01*
X0109412Y0585733D01*
X0108867Y0584417D01*
X0109412Y0585817D02*
X0112334Y0585817D01*
X0115075Y0585817D02*
X0228234Y0585817D01*
X0228234Y0585733D02*
X0228779Y0584417D01*
X0229786Y0583410D01*
X0231103Y0582865D01*
X0232527Y0582865D01*
X0233843Y0583410D01*
X0234851Y0584417D01*
X0235396Y0585733D01*
X0235396Y0587158D01*
X0234851Y0588474D01*
X0233843Y0589482D01*
X0232527Y0590027D01*
X0231103Y0590027D01*
X0229786Y0589482D01*
X0228779Y0588474D01*
X0228234Y0587158D01*
X0228234Y0585733D01*
X0228341Y0587416D02*
X0190605Y0587416D01*
X0190536Y0587347D02*
X0191544Y0588354D01*
X0192089Y0589670D01*
X0192089Y0591095D01*
X0191544Y0592411D01*
X0190536Y0593419D01*
X0189220Y0593964D01*
X0187796Y0593964D01*
X0186479Y0593419D01*
X0185472Y0592411D01*
X0184927Y0591095D01*
X0184927Y0589670D01*
X0185472Y0588354D01*
X0186479Y0587347D01*
X0187796Y0586802D01*
X0189220Y0586802D01*
X0190536Y0587347D01*
X0191817Y0589014D02*
X0229319Y0589014D01*
X0228978Y0584219D02*
X0116873Y0584219D01*
X0117286Y0582620D02*
X0289861Y0582620D01*
X0289861Y0583602D02*
X0289861Y0581494D01*
X0290668Y0579546D01*
X0292159Y0578055D01*
X0294107Y0577248D01*
X0296216Y0577248D01*
X0298164Y0578055D01*
X0299655Y0579546D01*
X0300461Y0581494D01*
X0300461Y0583602D01*
X0299655Y0585550D01*
X0298164Y0587041D01*
X0296216Y0587848D01*
X0294107Y0587848D01*
X0292159Y0587041D01*
X0290668Y0585550D01*
X0289861Y0583602D01*
X0290117Y0584219D02*
X0234652Y0584219D01*
X0235396Y0585817D02*
X0290935Y0585817D01*
X0293063Y0587416D02*
X0235289Y0587416D01*
X0234311Y0589014D02*
X0352521Y0589014D01*
X0352250Y0589670D02*
X0352795Y0588354D01*
X0353802Y0587347D01*
X0355118Y0586802D01*
X0356543Y0586802D01*
X0357859Y0587347D01*
X0358867Y0588354D01*
X0359412Y0589670D01*
X0359412Y0591095D01*
X0358867Y0592411D01*
X0357859Y0593419D01*
X0356543Y0593964D01*
X0355118Y0593964D01*
X0353802Y0593419D01*
X0352795Y0592411D01*
X0352250Y0591095D01*
X0352250Y0589670D01*
X0352250Y0590613D02*
X0192089Y0590613D01*
X0191627Y0592211D02*
X0352712Y0592211D01*
X0354746Y0593810D02*
X0189592Y0593810D01*
X0187423Y0593810D02*
X0125160Y0593810D01*
X0125160Y0594048D02*
X0124615Y0595364D01*
X0123607Y0596371D01*
X0122291Y0596917D01*
X0120866Y0596917D01*
X0119550Y0596371D01*
X0118543Y0595364D01*
X0117998Y0594048D01*
X0117998Y0592623D01*
X0118543Y0591307D01*
X0119550Y0590300D01*
X0120866Y0589754D01*
X0122291Y0589754D01*
X0123607Y0590300D01*
X0124615Y0591307D01*
X0125160Y0592623D01*
X0125160Y0594048D01*
X0124571Y0595408D02*
X0383380Y0595408D01*
X0383330Y0595387D02*
X0382322Y0594380D01*
X0381777Y0593064D01*
X0381777Y0591639D01*
X0382322Y0590323D01*
X0383330Y0589315D01*
X0384646Y0588770D01*
X0386071Y0588770D01*
X0387387Y0589315D01*
X0388394Y0590323D01*
X0388939Y0591639D01*
X0388939Y0593064D01*
X0388394Y0594380D01*
X0387387Y0595387D01*
X0386071Y0595932D01*
X0384646Y0595932D01*
X0383330Y0595387D01*
X0382086Y0593810D02*
X0356915Y0593810D01*
X0358950Y0592211D02*
X0381777Y0592211D01*
X0382202Y0590613D02*
X0359412Y0590613D01*
X0359140Y0589014D02*
X0384057Y0589014D01*
X0386660Y0589014D02*
X0405399Y0589014D01*
X0405399Y0589127D02*
X0405399Y0587702D01*
X0405944Y0586386D01*
X0406952Y0585378D01*
X0408268Y0584833D01*
X0409693Y0584833D01*
X0411009Y0585378D01*
X0412016Y0586386D01*
X0412561Y0587702D01*
X0412561Y0589127D01*
X0412016Y0590443D01*
X0411009Y0591450D01*
X0409693Y0591995D01*
X0408268Y0591995D01*
X0406952Y0591450D01*
X0405944Y0590443D01*
X0405399Y0589127D01*
X0406114Y0590613D02*
X0388514Y0590613D01*
X0388939Y0592211D02*
X0430013Y0592211D01*
X0430223Y0591704D02*
X0431404Y0590523D01*
X0432948Y0589883D01*
X0434619Y0589883D01*
X0436163Y0590523D01*
X0437344Y0591704D01*
X0437983Y0593248D01*
X0437983Y0594919D01*
X0437344Y0596463D01*
X0436163Y0597644D01*
X0434619Y0598283D01*
X0432948Y0598283D01*
X0431404Y0597644D01*
X0430223Y0596463D01*
X0429583Y0594919D01*
X0429583Y0593248D01*
X0430223Y0591704D01*
X0431315Y0590613D02*
X0411846Y0590613D01*
X0412561Y0589014D02*
X0444442Y0589014D01*
X0444439Y0587416D02*
X0412443Y0587416D01*
X0411448Y0585817D02*
X0444437Y0585817D01*
X0444434Y0584219D02*
X0300206Y0584219D01*
X0300461Y0582620D02*
X0444431Y0582620D01*
X0444428Y0581021D02*
X0300266Y0581021D01*
X0299532Y0579423D02*
X0444425Y0579423D01*
X0444422Y0577824D02*
X0297607Y0577824D01*
X0292716Y0577824D02*
X0176326Y0577824D01*
X0176283Y0579423D02*
X0290791Y0579423D01*
X0290057Y0581021D02*
X0175374Y0581021D01*
X0175479Y0576226D02*
X0335382Y0576226D01*
X0335433Y0576247D02*
X0334117Y0575702D01*
X0333110Y0574695D01*
X0332565Y0573378D01*
X0332565Y0571954D01*
X0333110Y0570638D01*
X0334117Y0569630D01*
X0335433Y0569085D01*
X0336858Y0569085D01*
X0338174Y0569630D01*
X0339182Y0570638D01*
X0339727Y0571954D01*
X0339727Y0573378D01*
X0339182Y0574695D01*
X0338174Y0575702D01*
X0336858Y0576247D01*
X0335433Y0576247D01*
X0336909Y0576226D02*
X0444419Y0576226D01*
X0444416Y0574627D02*
X0339209Y0574627D01*
X0339727Y0573029D02*
X0382625Y0573029D01*
X0382322Y0572726D02*
X0381777Y0571410D01*
X0381777Y0569985D01*
X0382322Y0568669D01*
X0383330Y0567662D01*
X0384646Y0567117D01*
X0386071Y0567117D01*
X0387387Y0567662D01*
X0388394Y0568669D01*
X0388939Y0569985D01*
X0388939Y0571410D01*
X0388394Y0572726D01*
X0387387Y0573734D01*
X0386071Y0574279D01*
X0384646Y0574279D01*
X0383330Y0573734D01*
X0382322Y0572726D01*
X0381786Y0571430D02*
X0339510Y0571430D01*
X0338376Y0569832D02*
X0381841Y0569832D01*
X0382758Y0568233D02*
X0214507Y0568233D01*
X0215107Y0569832D02*
X0333915Y0569832D01*
X0332781Y0571430D02*
X0215107Y0571430D01*
X0214594Y0573029D02*
X0332565Y0573029D01*
X0333082Y0574627D02*
X0213412Y0574627D01*
X0213200Y0566635D02*
X0444402Y0566635D01*
X0444405Y0568233D02*
X0387958Y0568233D01*
X0388876Y0569832D02*
X0444408Y0569832D01*
X0444411Y0571430D02*
X0388931Y0571430D01*
X0388091Y0573029D02*
X0444413Y0573029D01*
X0444445Y0590613D02*
X0436252Y0590613D01*
X0437554Y0592211D02*
X0444448Y0592211D01*
X0444451Y0593810D02*
X0437983Y0593810D01*
X0437781Y0595408D02*
X0444454Y0595408D01*
X0444457Y0597007D02*
X0436800Y0597007D01*
X0435392Y0600204D02*
X0444462Y0600204D01*
X0444465Y0601802D02*
X0437385Y0601802D01*
X0437344Y0601704D02*
X0437983Y0603248D01*
X0437983Y0604919D01*
X0437344Y0606463D01*
X0436163Y0607644D01*
X0434619Y0608283D01*
X0432948Y0608283D01*
X0431404Y0607644D01*
X0430223Y0606463D01*
X0429583Y0604919D01*
X0429583Y0603248D01*
X0430223Y0601704D01*
X0431404Y0600523D01*
X0432948Y0599883D01*
X0434619Y0599883D01*
X0436163Y0600523D01*
X0437344Y0601704D01*
X0437983Y0603401D02*
X0444468Y0603401D01*
X0444471Y0604999D02*
X0437950Y0604999D01*
X0437209Y0606598D02*
X0444474Y0606598D01*
X0444477Y0608196D02*
X0434830Y0608196D01*
X0432737Y0608196D02*
X0362869Y0608196D01*
X0362804Y0608039D02*
X0363349Y0609355D01*
X0363349Y0610780D01*
X0362804Y0612096D01*
X0361796Y0613104D01*
X0360480Y0613649D01*
X0359055Y0613649D01*
X0357739Y0613104D01*
X0356732Y0612096D01*
X0356187Y0610780D01*
X0356187Y0609355D01*
X0356732Y0608039D01*
X0357739Y0607032D01*
X0359055Y0606487D01*
X0360480Y0606487D01*
X0361307Y0606829D01*
X0360669Y0606191D01*
X0360124Y0604875D01*
X0360124Y0603450D01*
X0360669Y0602134D01*
X0361676Y0601126D01*
X0362992Y0600581D01*
X0364417Y0600581D01*
X0365733Y0601126D01*
X0366741Y0602134D01*
X0367286Y0603450D01*
X0367286Y0604875D01*
X0366741Y0606191D01*
X0365733Y0607198D01*
X0364417Y0607743D01*
X0362992Y0607743D01*
X0362165Y0607401D01*
X0362804Y0608039D01*
X0363349Y0609795D02*
X0398283Y0609795D01*
X0398070Y0610008D02*
X0399078Y0609000D01*
X0400394Y0608455D01*
X0401819Y0608455D01*
X0403135Y0609000D01*
X0404142Y0610008D01*
X0404687Y0611324D01*
X0404687Y0612749D01*
X0404142Y0614065D01*
X0403135Y0615072D01*
X0401819Y0615617D01*
X0400394Y0615617D01*
X0399078Y0615072D01*
X0398070Y0614065D01*
X0397525Y0612749D01*
X0397525Y0611324D01*
X0398070Y0610008D01*
X0397525Y0611393D02*
X0363095Y0611393D01*
X0361908Y0612992D02*
X0397626Y0612992D01*
X0398596Y0614590D02*
X0233082Y0614590D01*
X0232527Y0614361D02*
X0233843Y0614906D01*
X0234851Y0615913D01*
X0235396Y0617229D01*
X0235396Y0618654D01*
X0234851Y0619970D01*
X0233843Y0620978D01*
X0232527Y0621523D01*
X0231103Y0621523D01*
X0229786Y0620978D01*
X0228779Y0619970D01*
X0228234Y0618654D01*
X0228234Y0617229D01*
X0228779Y0615913D01*
X0229786Y0614906D01*
X0231103Y0614361D01*
X0232527Y0614361D01*
X0230548Y0614590D02*
X0160680Y0614590D01*
X0161018Y0614253D02*
X0159780Y0615491D01*
X0158163Y0616161D01*
X0156412Y0616161D01*
X0154795Y0615491D01*
X0153557Y0614253D01*
X0152887Y0612636D01*
X0152887Y0610885D01*
X0153557Y0609268D01*
X0154795Y0608030D01*
X0156412Y0607361D01*
X0158163Y0607361D01*
X0159780Y0608030D01*
X0161018Y0609268D01*
X0161687Y0610885D01*
X0161687Y0612636D01*
X0161018Y0614253D01*
X0161540Y0612992D02*
X0271013Y0612992D01*
X0271125Y0613104D02*
X0270118Y0612096D01*
X0269572Y0610780D01*
X0269572Y0609355D01*
X0270118Y0608039D01*
X0271125Y0607032D01*
X0272441Y0606487D01*
X0273866Y0606487D01*
X0275182Y0607032D01*
X0276189Y0608039D01*
X0276735Y0609355D01*
X0276735Y0610780D01*
X0276189Y0612096D01*
X0275182Y0613104D01*
X0273866Y0613649D01*
X0272441Y0613649D01*
X0271125Y0613104D01*
X0269826Y0611393D02*
X0161687Y0611393D01*
X0161236Y0609795D02*
X0269572Y0609795D01*
X0270053Y0608196D02*
X0159945Y0608196D01*
X0154629Y0608196D02*
X0054081Y0608196D01*
X0054081Y0606598D02*
X0124814Y0606598D01*
X0124364Y0606411D02*
X0122873Y0604920D01*
X0122066Y0602972D01*
X0122066Y0600864D01*
X0122873Y0598916D01*
X0124364Y0597425D01*
X0126312Y0596618D01*
X0128420Y0596618D01*
X0130368Y0597425D01*
X0131859Y0598916D01*
X0132666Y0600864D01*
X0132666Y0602972D01*
X0131859Y0604920D01*
X0130368Y0606411D01*
X0128420Y0607218D01*
X0126312Y0607218D01*
X0124364Y0606411D01*
X0122952Y0604999D02*
X0054081Y0604999D01*
X0054081Y0603401D02*
X0122244Y0603401D01*
X0122066Y0601802D02*
X0054081Y0601802D01*
X0054081Y0600204D02*
X0122340Y0600204D01*
X0123184Y0598605D02*
X0054081Y0598605D01*
X0054081Y0597007D02*
X0125374Y0597007D01*
X0129358Y0597007D02*
X0312905Y0597007D01*
X0312464Y0597189D02*
X0313780Y0596644D01*
X0315204Y0596644D01*
X0316521Y0597189D01*
X0317528Y0598197D01*
X0318073Y0599513D01*
X0318073Y0600938D01*
X0317528Y0602254D01*
X0316521Y0603261D01*
X0315204Y0603806D01*
X0313780Y0603806D01*
X0312464Y0603261D01*
X0311456Y0602254D01*
X0310911Y0600938D01*
X0310911Y0599513D01*
X0311456Y0598197D01*
X0312464Y0597189D01*
X0311287Y0598605D02*
X0298084Y0598605D01*
X0298006Y0598527D02*
X0299497Y0600018D01*
X0300304Y0601966D01*
X0300304Y0604075D01*
X0299497Y0606023D01*
X0298006Y0607514D01*
X0296058Y0608320D01*
X0293950Y0608320D01*
X0292002Y0607514D01*
X0290511Y0606023D01*
X0289704Y0604075D01*
X0289704Y0601966D01*
X0290511Y0600018D01*
X0292002Y0598527D01*
X0293950Y0597720D01*
X0296058Y0597720D01*
X0298006Y0598527D01*
X0299574Y0600204D02*
X0310911Y0600204D01*
X0311269Y0601802D02*
X0300236Y0601802D01*
X0300304Y0603401D02*
X0312800Y0603401D01*
X0316184Y0603401D02*
X0360144Y0603401D01*
X0360175Y0604999D02*
X0299921Y0604999D01*
X0298922Y0606598D02*
X0358787Y0606598D01*
X0360748Y0606598D02*
X0361076Y0606598D01*
X0356667Y0608196D02*
X0296358Y0608196D01*
X0293650Y0608196D02*
X0276254Y0608196D01*
X0276735Y0609795D02*
X0356187Y0609795D01*
X0356441Y0611393D02*
X0276481Y0611393D01*
X0275294Y0612992D02*
X0357627Y0612992D01*
X0366334Y0606598D02*
X0384698Y0606598D01*
X0384291Y0606191D02*
X0385298Y0607198D01*
X0386614Y0607743D01*
X0388039Y0607743D01*
X0389355Y0607198D01*
X0390363Y0606191D01*
X0390908Y0604875D01*
X0390908Y0603450D01*
X0390363Y0602134D01*
X0389355Y0601126D01*
X0388039Y0600581D01*
X0386614Y0600581D01*
X0385298Y0601126D01*
X0384291Y0602134D01*
X0383746Y0603450D01*
X0383746Y0604875D01*
X0384291Y0606191D01*
X0383797Y0604999D02*
X0367234Y0604999D01*
X0367265Y0603401D02*
X0383766Y0603401D01*
X0384622Y0601802D02*
X0366409Y0601802D01*
X0361000Y0601802D02*
X0317715Y0601802D01*
X0318073Y0600204D02*
X0432175Y0600204D01*
X0430182Y0601802D02*
X0390031Y0601802D01*
X0390887Y0603401D02*
X0429583Y0603401D01*
X0429617Y0604999D02*
X0390856Y0604999D01*
X0389956Y0606598D02*
X0430358Y0606598D01*
X0430767Y0597007D02*
X0316080Y0597007D01*
X0317697Y0598605D02*
X0444460Y0598605D01*
X0444480Y0609795D02*
X0403929Y0609795D01*
X0404687Y0611393D02*
X0444483Y0611393D01*
X0444486Y0612992D02*
X0404587Y0612992D01*
X0403617Y0614590D02*
X0444488Y0614590D01*
X0444491Y0616189D02*
X0234965Y0616189D01*
X0235396Y0617787D02*
X0444494Y0617787D01*
X0444497Y0619386D02*
X0235093Y0619386D01*
X0233827Y0620984D02*
X0444500Y0620984D01*
X0444503Y0622583D02*
X0339667Y0622583D01*
X0340143Y0622780D02*
X0341150Y0623787D01*
X0341695Y0625103D01*
X0341695Y0626528D01*
X0341150Y0627844D01*
X0340143Y0628852D01*
X0338827Y0629397D01*
X0337402Y0629397D01*
X0336086Y0628852D01*
X0335078Y0627844D01*
X0334533Y0626528D01*
X0334533Y0625103D01*
X0335078Y0623787D01*
X0336086Y0622780D01*
X0337402Y0622235D01*
X0338827Y0622235D01*
X0340143Y0622780D01*
X0341313Y0624181D02*
X0444506Y0624181D01*
X0444509Y0625780D02*
X0341695Y0625780D01*
X0341343Y0627378D02*
X0444511Y0627378D01*
X0444514Y0628977D02*
X0339841Y0628977D01*
X0336388Y0628977D02*
X0054081Y0628977D01*
X0054081Y0630575D02*
X0444517Y0630575D01*
X0444520Y0632174D02*
X0054081Y0632174D01*
X0054081Y0633772D02*
X0444523Y0633772D01*
X0444526Y0635371D02*
X0054081Y0635371D01*
X0054081Y0636969D02*
X0444529Y0636969D01*
X0444532Y0638568D02*
X0054081Y0638568D01*
X0054081Y0640166D02*
X0444534Y0640166D01*
X0444537Y0641765D02*
X0054081Y0641765D01*
X0054081Y0643363D02*
X0444540Y0643363D01*
X0444543Y0644962D02*
X0212756Y0644962D01*
X0212809Y0644984D02*
X0214300Y0646475D01*
X0215107Y0648423D01*
X0215107Y0650531D01*
X0214300Y0652479D01*
X0212809Y0653970D01*
X0210861Y0654777D01*
X0208753Y0654777D01*
X0206805Y0653970D01*
X0205314Y0652479D01*
X0204507Y0650531D01*
X0204507Y0648423D01*
X0205314Y0646475D01*
X0206805Y0644984D01*
X0208753Y0644177D01*
X0210861Y0644177D01*
X0212809Y0644984D01*
X0214336Y0646560D02*
X0383171Y0646560D01*
X0383330Y0646402D02*
X0384646Y0645857D01*
X0386071Y0645857D01*
X0387387Y0646402D01*
X0388394Y0647409D01*
X0388939Y0648725D01*
X0388939Y0650150D01*
X0388394Y0651466D01*
X0387387Y0652474D01*
X0386071Y0653019D01*
X0384646Y0653019D01*
X0383330Y0652474D01*
X0382322Y0651466D01*
X0381777Y0650150D01*
X0381777Y0648725D01*
X0382322Y0647409D01*
X0383330Y0646402D01*
X0382012Y0648159D02*
X0337664Y0648159D01*
X0338174Y0648370D02*
X0339182Y0649378D01*
X0339727Y0650694D01*
X0339727Y0652119D01*
X0339182Y0653435D01*
X0338174Y0654442D01*
X0336858Y0654987D01*
X0335433Y0654987D01*
X0334117Y0654442D01*
X0333110Y0653435D01*
X0332565Y0652119D01*
X0332565Y0650694D01*
X0333110Y0649378D01*
X0334117Y0648370D01*
X0335433Y0647825D01*
X0336858Y0647825D01*
X0338174Y0648370D01*
X0339339Y0649757D02*
X0381777Y0649757D01*
X0382277Y0651356D02*
X0339727Y0651356D01*
X0339381Y0652954D02*
X0384490Y0652954D01*
X0386226Y0652954D02*
X0444558Y0652954D01*
X0444555Y0651356D02*
X0388440Y0651356D01*
X0388939Y0649757D02*
X0444552Y0649757D01*
X0444549Y0648159D02*
X0388705Y0648159D01*
X0387545Y0646560D02*
X0444546Y0646560D01*
X0444560Y0654553D02*
X0337907Y0654553D01*
X0334385Y0654553D02*
X0211402Y0654553D01*
X0213825Y0652954D02*
X0332911Y0652954D01*
X0332565Y0651356D02*
X0214766Y0651356D01*
X0215107Y0649757D02*
X0332952Y0649757D01*
X0334628Y0648159D02*
X0214998Y0648159D01*
X0206858Y0644962D02*
X0054081Y0644962D01*
X0054081Y0646560D02*
X0125297Y0646560D01*
X0125456Y0646402D02*
X0126772Y0645857D01*
X0128197Y0645857D01*
X0129513Y0646402D01*
X0130520Y0647409D01*
X0131065Y0648725D01*
X0131065Y0650150D01*
X0130520Y0651466D01*
X0129513Y0652474D01*
X0128197Y0653019D01*
X0126772Y0653019D01*
X0125456Y0652474D01*
X0124448Y0651466D01*
X0123903Y0650150D01*
X0123903Y0648725D01*
X0124448Y0647409D01*
X0125456Y0646402D01*
X0124138Y0648159D02*
X0054081Y0648159D01*
X0054081Y0649757D02*
X0123903Y0649757D01*
X0124403Y0651356D02*
X0054081Y0651356D01*
X0054081Y0652954D02*
X0126616Y0652954D01*
X0128352Y0652954D02*
X0143541Y0652954D01*
X0143557Y0652993D02*
X0142887Y0651376D01*
X0142887Y0649626D01*
X0143557Y0648008D01*
X0144795Y0646771D01*
X0146412Y0646101D01*
X0148163Y0646101D01*
X0149780Y0646771D01*
X0151018Y0648008D01*
X0151687Y0649626D01*
X0151687Y0651376D01*
X0151018Y0652993D01*
X0149780Y0654231D01*
X0148163Y0654901D01*
X0146412Y0654901D01*
X0144795Y0654231D01*
X0143557Y0652993D01*
X0142887Y0651356D02*
X0130566Y0651356D01*
X0131065Y0649757D02*
X0142887Y0649757D01*
X0143495Y0648159D02*
X0130831Y0648159D01*
X0129671Y0646560D02*
X0145302Y0646560D01*
X0149272Y0646560D02*
X0165302Y0646560D01*
X0164795Y0646771D02*
X0166412Y0646101D01*
X0168163Y0646101D01*
X0169780Y0646771D01*
X0171018Y0648008D01*
X0171687Y0649626D01*
X0171687Y0651376D01*
X0171018Y0652993D01*
X0169780Y0654231D01*
X0168163Y0654901D01*
X0166412Y0654901D01*
X0164795Y0654231D01*
X0163557Y0652993D01*
X0162887Y0651376D01*
X0162887Y0649626D01*
X0163557Y0648008D01*
X0164795Y0646771D01*
X0163495Y0648159D02*
X0151080Y0648159D01*
X0151687Y0649757D02*
X0162887Y0649757D01*
X0162887Y0651356D02*
X0151687Y0651356D01*
X0151034Y0652954D02*
X0163541Y0652954D01*
X0165573Y0654553D02*
X0149002Y0654553D01*
X0145573Y0654553D02*
X0064829Y0654553D01*
X0064552Y0654276D02*
X0065560Y0655283D01*
X0066105Y0656599D01*
X0066105Y0658024D01*
X0065560Y0659340D01*
X0064552Y0660348D01*
X0063236Y0660893D01*
X0061811Y0660893D01*
X0060495Y0660348D01*
X0059488Y0659340D01*
X0058943Y0658024D01*
X0058943Y0656599D01*
X0059488Y0655283D01*
X0060495Y0654276D01*
X0061811Y0653731D01*
X0063236Y0653731D01*
X0064552Y0654276D01*
X0065919Y0656152D02*
X0169364Y0656152D01*
X0169179Y0656599D02*
X0169724Y0655283D01*
X0170731Y0654276D01*
X0172048Y0653731D01*
X0173472Y0653731D01*
X0174788Y0654276D01*
X0175796Y0655283D01*
X0176341Y0656599D01*
X0176341Y0658024D01*
X0175796Y0659340D01*
X0174788Y0660348D01*
X0173472Y0660893D01*
X0172048Y0660893D01*
X0170731Y0660348D01*
X0169724Y0659340D01*
X0169179Y0658024D01*
X0169179Y0656599D01*
X0169179Y0657750D02*
X0114616Y0657750D01*
X0114417Y0657668D02*
X0115733Y0658213D01*
X0116741Y0659220D01*
X0117286Y0660536D01*
X0117286Y0661961D01*
X0116741Y0663277D01*
X0115733Y0664285D01*
X0114417Y0664830D01*
X0112992Y0664830D01*
X0111676Y0664285D01*
X0110669Y0663277D01*
X0110124Y0661961D01*
X0110124Y0660536D01*
X0110669Y0659220D01*
X0111676Y0658213D01*
X0112992Y0657668D01*
X0114417Y0657668D01*
X0112794Y0657750D02*
X0098341Y0657750D01*
X0098630Y0658039D02*
X0099176Y0659355D01*
X0099176Y0660780D01*
X0098630Y0662096D01*
X0097623Y0663104D01*
X0096307Y0663649D01*
X0094882Y0663649D01*
X0093566Y0663104D01*
X0092559Y0662096D01*
X0092013Y0660780D01*
X0092013Y0659355D01*
X0092559Y0658039D01*
X0093566Y0657032D01*
X0094882Y0656487D01*
X0096307Y0656487D01*
X0097623Y0657032D01*
X0098630Y0658039D01*
X0099173Y0659349D02*
X0110616Y0659349D01*
X0110124Y0660947D02*
X0099106Y0660947D01*
X0098181Y0662546D02*
X0103407Y0662546D01*
X0103802Y0662150D02*
X0105118Y0661605D01*
X0106543Y0661605D01*
X0107859Y0662150D01*
X0108867Y0663157D01*
X0109412Y0664473D01*
X0109412Y0665898D01*
X0108867Y0667214D01*
X0107859Y0668222D01*
X0106543Y0668767D01*
X0105118Y0668767D01*
X0103802Y0668222D01*
X0102795Y0667214D01*
X0102250Y0665898D01*
X0102250Y0664473D01*
X0102795Y0663157D01*
X0103802Y0662150D01*
X0102386Y0664144D02*
X0054081Y0664144D01*
X0054081Y0662546D02*
X0093008Y0662546D01*
X0092083Y0660947D02*
X0054081Y0660947D01*
X0054081Y0659349D02*
X0059496Y0659349D01*
X0058943Y0657750D02*
X0054081Y0657750D01*
X0054081Y0656152D02*
X0059128Y0656152D01*
X0060218Y0654553D02*
X0054081Y0654553D01*
X0054081Y0665743D02*
X0102250Y0665743D01*
X0102922Y0667341D02*
X0054081Y0667341D01*
X0054081Y0668940D02*
X0119792Y0668940D01*
X0119550Y0669040D02*
X0120866Y0668494D01*
X0122291Y0668494D01*
X0123607Y0669040D01*
X0124615Y0670047D01*
X0125160Y0671363D01*
X0125160Y0672788D01*
X0124615Y0674104D01*
X0123607Y0675111D01*
X0122291Y0675657D01*
X0120866Y0675657D01*
X0119550Y0675111D01*
X0118543Y0674104D01*
X0117998Y0672788D01*
X0117998Y0671363D01*
X0118543Y0670047D01*
X0119550Y0669040D01*
X0118339Y0670538D02*
X0054081Y0670538D01*
X0054081Y0672137D02*
X0117998Y0672137D01*
X0118390Y0673735D02*
X0054081Y0673735D01*
X0054081Y0675334D02*
X0120087Y0675334D01*
X0123071Y0675334D02*
X0430354Y0675334D01*
X0430223Y0675203D02*
X0429583Y0673659D01*
X0429583Y0671988D01*
X0430223Y0670445D01*
X0431404Y0669263D01*
X0432948Y0668624D01*
X0434619Y0668624D01*
X0436163Y0669263D01*
X0437344Y0670445D01*
X0437983Y0671988D01*
X0437983Y0673659D01*
X0437344Y0675203D01*
X0436163Y0676384D01*
X0434619Y0677024D01*
X0432948Y0677024D01*
X0431404Y0676384D01*
X0430223Y0675203D01*
X0429615Y0673735D02*
X0387779Y0673735D01*
X0387387Y0674127D02*
X0386071Y0674672D01*
X0384646Y0674672D01*
X0383330Y0674127D01*
X0382322Y0673120D01*
X0381777Y0671804D01*
X0381777Y0670379D01*
X0382322Y0669063D01*
X0383330Y0668055D01*
X0384646Y0667510D01*
X0386071Y0667510D01*
X0387387Y0668055D01*
X0388394Y0669063D01*
X0388939Y0670379D01*
X0388939Y0671804D01*
X0388394Y0673120D01*
X0387387Y0674127D01*
X0388801Y0672137D02*
X0429583Y0672137D01*
X0430184Y0670538D02*
X0410169Y0670538D01*
X0409693Y0670735D02*
X0408268Y0670735D01*
X0406952Y0670190D01*
X0405944Y0669183D01*
X0405399Y0667867D01*
X0405399Y0666442D01*
X0405944Y0665126D01*
X0406952Y0664118D01*
X0408268Y0663573D01*
X0409693Y0663573D01*
X0411009Y0664118D01*
X0412016Y0665126D01*
X0412561Y0666442D01*
X0412561Y0667867D01*
X0412016Y0669183D01*
X0411009Y0670190D01*
X0409693Y0670735D01*
X0407792Y0670538D02*
X0388939Y0670538D01*
X0388271Y0668940D02*
X0405844Y0668940D01*
X0405399Y0667341D02*
X0358969Y0667341D01*
X0358867Y0667094D02*
X0359412Y0668410D01*
X0359412Y0669835D01*
X0358867Y0671151D01*
X0357859Y0672159D01*
X0356543Y0672704D01*
X0355118Y0672704D01*
X0353802Y0672159D01*
X0352795Y0671151D01*
X0352250Y0669835D01*
X0352250Y0668410D01*
X0352795Y0667094D01*
X0353802Y0666087D01*
X0355118Y0665542D01*
X0356543Y0665542D01*
X0357859Y0666087D01*
X0358867Y0667094D01*
X0359412Y0668940D02*
X0382446Y0668940D01*
X0381777Y0670538D02*
X0359121Y0670538D01*
X0357881Y0672137D02*
X0381915Y0672137D01*
X0382938Y0673735D02*
X0124767Y0673735D01*
X0125160Y0672137D02*
X0186457Y0672137D01*
X0186479Y0672159D02*
X0185472Y0671151D01*
X0184927Y0669835D01*
X0184927Y0668410D01*
X0185472Y0667094D01*
X0186479Y0666087D01*
X0187796Y0665542D01*
X0189220Y0665542D01*
X0190536Y0666087D01*
X0191544Y0667094D01*
X0192089Y0668410D01*
X0192089Y0669835D01*
X0191544Y0671151D01*
X0190536Y0672159D01*
X0189220Y0672704D01*
X0187796Y0672704D01*
X0186479Y0672159D01*
X0185218Y0670538D02*
X0124818Y0670538D01*
X0123366Y0668940D02*
X0184927Y0668940D01*
X0185370Y0667341D02*
X0108740Y0667341D01*
X0109412Y0665743D02*
X0187311Y0665743D01*
X0189705Y0665743D02*
X0228234Y0665743D01*
X0228234Y0665898D02*
X0228234Y0664473D01*
X0228779Y0663157D01*
X0229786Y0662150D01*
X0231103Y0661605D01*
X0232527Y0661605D01*
X0233843Y0662150D01*
X0234851Y0663157D01*
X0235396Y0664473D01*
X0235396Y0665898D01*
X0234851Y0667214D01*
X0233843Y0668222D01*
X0232527Y0668767D01*
X0231103Y0668767D01*
X0229786Y0668222D01*
X0228779Y0667214D01*
X0228234Y0665898D01*
X0228906Y0667341D02*
X0191646Y0667341D01*
X0192089Y0668940D02*
X0352250Y0668940D01*
X0352541Y0670538D02*
X0191798Y0670538D01*
X0190559Y0672137D02*
X0353780Y0672137D01*
X0352693Y0667341D02*
X0234724Y0667341D01*
X0235396Y0665743D02*
X0292120Y0665743D01*
X0292159Y0665781D02*
X0290668Y0664290D01*
X0289861Y0662342D01*
X0289861Y0660234D01*
X0290668Y0658286D01*
X0292159Y0656795D01*
X0294107Y0655988D01*
X0296216Y0655988D01*
X0298164Y0656795D01*
X0299655Y0658286D01*
X0300461Y0660234D01*
X0300461Y0662342D01*
X0299655Y0664290D01*
X0298164Y0665781D01*
X0296216Y0666588D01*
X0294107Y0666588D01*
X0292159Y0665781D01*
X0290608Y0664144D02*
X0235260Y0664144D01*
X0234239Y0662546D02*
X0289946Y0662546D01*
X0289861Y0660947D02*
X0117286Y0660947D01*
X0117044Y0662546D02*
X0229391Y0662546D01*
X0228370Y0664144D02*
X0115874Y0664144D01*
X0111536Y0664144D02*
X0109275Y0664144D01*
X0108255Y0662546D02*
X0110366Y0662546D01*
X0116794Y0659349D02*
X0169732Y0659349D01*
X0170454Y0654553D02*
X0169002Y0654553D01*
X0171034Y0652954D02*
X0205789Y0652954D01*
X0204849Y0651356D02*
X0171687Y0651356D01*
X0171687Y0649757D02*
X0204507Y0649757D01*
X0204616Y0648159D02*
X0171080Y0648159D01*
X0169272Y0646560D02*
X0205279Y0646560D01*
X0208212Y0654553D02*
X0175065Y0654553D01*
X0176155Y0656152D02*
X0293713Y0656152D01*
X0296610Y0656152D02*
X0444563Y0656152D01*
X0444566Y0657750D02*
X0299119Y0657750D01*
X0300095Y0659349D02*
X0444569Y0659349D01*
X0444572Y0660947D02*
X0300461Y0660947D01*
X0300377Y0662546D02*
X0444575Y0662546D01*
X0444578Y0664144D02*
X0411034Y0664144D01*
X0412272Y0665743D02*
X0444581Y0665743D01*
X0444583Y0667341D02*
X0412561Y0667341D01*
X0412117Y0668940D02*
X0432185Y0668940D01*
X0435382Y0668940D02*
X0444586Y0668940D01*
X0444589Y0670538D02*
X0437383Y0670538D01*
X0437983Y0672137D02*
X0444592Y0672137D01*
X0444595Y0673735D02*
X0437952Y0673735D01*
X0437213Y0675334D02*
X0444598Y0675334D01*
X0444601Y0676932D02*
X0434840Y0676932D01*
X0434619Y0678624D02*
X0436163Y0679263D01*
X0437344Y0680445D01*
X0437983Y0681988D01*
X0437983Y0683659D01*
X0437344Y0685203D01*
X0436163Y0686384D01*
X0434619Y0687024D01*
X0432948Y0687024D01*
X0431404Y0686384D01*
X0430223Y0685203D01*
X0429583Y0683659D01*
X0429583Y0681988D01*
X0430223Y0680445D01*
X0431404Y0679263D01*
X0432948Y0678624D01*
X0434619Y0678624D01*
X0432727Y0676932D02*
X0317523Y0676932D01*
X0317528Y0676937D02*
X0318073Y0678253D01*
X0318073Y0679678D01*
X0317528Y0680994D01*
X0316521Y0682001D01*
X0315204Y0682546D01*
X0313780Y0682546D01*
X0312464Y0682001D01*
X0311456Y0680994D01*
X0310911Y0679678D01*
X0310911Y0678253D01*
X0311456Y0676937D01*
X0312464Y0675929D01*
X0313780Y0675384D01*
X0315204Y0675384D01*
X0316521Y0675929D01*
X0317528Y0676937D01*
X0318073Y0678531D02*
X0444604Y0678531D01*
X0444607Y0680129D02*
X0437029Y0680129D01*
X0437876Y0681728D02*
X0444609Y0681728D01*
X0444612Y0683326D02*
X0437983Y0683326D01*
X0437459Y0684925D02*
X0444615Y0684925D01*
X0444618Y0686523D02*
X0435827Y0686523D01*
X0431740Y0686523D02*
X0362547Y0686523D01*
X0362804Y0686779D02*
X0363349Y0688096D01*
X0363349Y0689520D01*
X0362804Y0690836D01*
X0361796Y0691844D01*
X0360480Y0692389D01*
X0359055Y0692389D01*
X0357739Y0691844D01*
X0356732Y0690836D01*
X0356187Y0689520D01*
X0356187Y0688096D01*
X0356732Y0686779D01*
X0357739Y0685772D01*
X0359055Y0685227D01*
X0360480Y0685227D01*
X0361307Y0685570D01*
X0360669Y0684931D01*
X0360124Y0683615D01*
X0360124Y0682190D01*
X0360669Y0680874D01*
X0361676Y0679866D01*
X0362992Y0679321D01*
X0364417Y0679321D01*
X0365733Y0679866D01*
X0366741Y0680874D01*
X0367286Y0682190D01*
X0367286Y0683615D01*
X0366741Y0684931D01*
X0365733Y0685938D01*
X0364417Y0686483D01*
X0362992Y0686483D01*
X0362165Y0686141D01*
X0362804Y0686779D01*
X0363349Y0688122D02*
X0398696Y0688122D01*
X0399078Y0687740D02*
X0398070Y0688748D01*
X0397525Y0690064D01*
X0397525Y0691489D01*
X0398070Y0692805D01*
X0399078Y0693812D01*
X0400394Y0694357D01*
X0401819Y0694357D01*
X0403135Y0693812D01*
X0404142Y0692805D01*
X0404687Y0691489D01*
X0404687Y0690064D01*
X0404142Y0688748D01*
X0403135Y0687740D01*
X0401819Y0687195D01*
X0400394Y0687195D01*
X0399078Y0687740D01*
X0397668Y0689720D02*
X0363266Y0689720D01*
X0362321Y0691319D02*
X0397525Y0691319D01*
X0398183Y0692917D02*
X0161049Y0692917D01*
X0161018Y0692993D02*
X0159780Y0694231D01*
X0158163Y0694901D01*
X0156412Y0694901D01*
X0154795Y0694231D01*
X0153557Y0692993D01*
X0152887Y0691376D01*
X0152887Y0689626D01*
X0153557Y0688008D01*
X0154795Y0686771D01*
X0156412Y0686101D01*
X0158163Y0686101D01*
X0159780Y0686771D01*
X0161018Y0688008D01*
X0161687Y0689626D01*
X0161687Y0691376D01*
X0161018Y0692993D01*
X0161687Y0691319D02*
X0270600Y0691319D01*
X0270118Y0690836D02*
X0269572Y0689520D01*
X0269572Y0688096D01*
X0270118Y0686779D01*
X0271125Y0685772D01*
X0272441Y0685227D01*
X0273866Y0685227D01*
X0275182Y0685772D01*
X0276189Y0686779D01*
X0276735Y0688096D01*
X0276735Y0689520D01*
X0276189Y0690836D01*
X0275182Y0691844D01*
X0273866Y0692389D01*
X0272441Y0692389D01*
X0271125Y0691844D01*
X0270118Y0690836D01*
X0269655Y0689720D02*
X0161687Y0689720D01*
X0161064Y0688122D02*
X0269572Y0688122D01*
X0270374Y0686523D02*
X0159182Y0686523D01*
X0155392Y0686523D02*
X0054081Y0686523D01*
X0054081Y0684925D02*
X0124137Y0684925D01*
X0124364Y0685151D02*
X0122873Y0683660D01*
X0122066Y0681713D01*
X0122066Y0679604D01*
X0122873Y0677656D01*
X0124364Y0676165D01*
X0126312Y0675358D01*
X0128420Y0675358D01*
X0130368Y0676165D01*
X0131859Y0677656D01*
X0132666Y0679604D01*
X0132666Y0681713D01*
X0131859Y0683660D01*
X0130368Y0685151D01*
X0128420Y0685958D01*
X0126312Y0685958D01*
X0124364Y0685151D01*
X0122735Y0683326D02*
X0054081Y0683326D01*
X0054081Y0681728D02*
X0122072Y0681728D01*
X0122066Y0680129D02*
X0054081Y0680129D01*
X0054081Y0678531D02*
X0122511Y0678531D01*
X0123597Y0676932D02*
X0054081Y0676932D01*
X0054081Y0688122D02*
X0130980Y0688122D01*
X0131361Y0687740D02*
X0130354Y0688748D01*
X0129809Y0690064D01*
X0129809Y0691489D01*
X0130354Y0692805D01*
X0131361Y0693812D01*
X0132677Y0694357D01*
X0134102Y0694357D01*
X0135418Y0693812D01*
X0136426Y0692805D01*
X0136971Y0691489D01*
X0136971Y0690064D01*
X0136426Y0688748D01*
X0135418Y0687740D01*
X0134102Y0687195D01*
X0132677Y0687195D01*
X0131361Y0687740D01*
X0129951Y0689720D02*
X0054081Y0689720D01*
X0054081Y0691319D02*
X0129809Y0691319D01*
X0130466Y0692917D02*
X0104010Y0692917D01*
X0103636Y0692543D02*
X0105127Y0694034D01*
X0105934Y0695982D01*
X0105934Y0698090D01*
X0105127Y0700038D01*
X0103636Y0701529D01*
X0101688Y0702336D01*
X0099580Y0702336D01*
X0097632Y0701529D01*
X0096141Y0700038D01*
X0095334Y0698090D01*
X0095334Y0695982D01*
X0096141Y0694034D01*
X0097632Y0692543D01*
X0099580Y0691736D01*
X0101688Y0691736D01*
X0103636Y0692543D01*
X0105327Y0694516D02*
X0155483Y0694516D01*
X0153526Y0692917D02*
X0136313Y0692917D01*
X0136971Y0691319D02*
X0152887Y0691319D01*
X0152887Y0689720D02*
X0136828Y0689720D01*
X0135800Y0688122D02*
X0153510Y0688122D01*
X0159092Y0694516D02*
X0228917Y0694516D01*
X0228779Y0694653D02*
X0229786Y0693646D01*
X0231103Y0693101D01*
X0232527Y0693101D01*
X0233843Y0693646D01*
X0234851Y0694653D01*
X0235396Y0695970D01*
X0235396Y0697394D01*
X0234851Y0698710D01*
X0233843Y0699718D01*
X0232527Y0700263D01*
X0231103Y0700263D01*
X0229786Y0699718D01*
X0228779Y0698710D01*
X0228234Y0697394D01*
X0228234Y0695970D01*
X0228779Y0694653D01*
X0228234Y0696114D02*
X0204816Y0696114D01*
X0204316Y0695614D02*
X0205323Y0696622D01*
X0205868Y0697938D01*
X0205868Y0699363D01*
X0205323Y0700679D01*
X0204316Y0701686D01*
X0203000Y0702231D01*
X0201575Y0702231D01*
X0200259Y0701686D01*
X0199251Y0700679D01*
X0198706Y0699363D01*
X0198706Y0697938D01*
X0199251Y0696622D01*
X0200259Y0695614D01*
X0201575Y0695069D01*
X0203000Y0695069D01*
X0204316Y0695614D01*
X0205775Y0697713D02*
X0228366Y0697713D01*
X0229380Y0699311D02*
X0205868Y0699311D01*
X0205092Y0700910D02*
X0444644Y0700910D01*
X0444647Y0702508D02*
X0341131Y0702508D01*
X0341150Y0702527D02*
X0341695Y0703844D01*
X0341695Y0705268D01*
X0341150Y0706584D01*
X0340143Y0707592D01*
X0338827Y0708137D01*
X0337402Y0708137D01*
X0336086Y0707592D01*
X0335078Y0706584D01*
X0334533Y0705268D01*
X0334533Y0703844D01*
X0335078Y0702527D01*
X0336086Y0701520D01*
X0337402Y0700975D01*
X0338827Y0700975D01*
X0340143Y0701520D01*
X0341150Y0702527D01*
X0341695Y0704107D02*
X0444650Y0704107D01*
X0444653Y0705705D02*
X0341514Y0705705D01*
X0340431Y0707304D02*
X0444655Y0707304D01*
X0444658Y0708902D02*
X0054081Y0708902D01*
X0054081Y0707304D02*
X0335798Y0707304D01*
X0334714Y0705705D02*
X0054081Y0705705D01*
X0054081Y0704107D02*
X0334533Y0704107D01*
X0335097Y0702508D02*
X0054081Y0702508D01*
X0054081Y0700910D02*
X0097012Y0700910D01*
X0095840Y0699311D02*
X0054081Y0699311D01*
X0054081Y0697713D02*
X0095334Y0697713D01*
X0095334Y0696114D02*
X0054081Y0696114D01*
X0054081Y0694516D02*
X0095941Y0694516D01*
X0097257Y0692917D02*
X0054081Y0692917D01*
X0054081Y0710501D02*
X0444661Y0710501D01*
X0444664Y0712099D02*
X0054081Y0712099D01*
X0065551Y0659349D02*
X0092016Y0659349D01*
X0092848Y0657750D02*
X0066105Y0657750D01*
X0054081Y0627378D02*
X0334885Y0627378D01*
X0334533Y0625780D02*
X0054081Y0625780D01*
X0054081Y0624181D02*
X0334915Y0624181D01*
X0336561Y0622583D02*
X0204679Y0622583D01*
X0204316Y0622946D02*
X0203000Y0623491D01*
X0201575Y0623491D01*
X0200259Y0622946D01*
X0199251Y0621939D01*
X0198706Y0620623D01*
X0198706Y0619198D01*
X0199251Y0617882D01*
X0200259Y0616874D01*
X0201575Y0616329D01*
X0203000Y0616329D01*
X0204316Y0616874D01*
X0205323Y0617882D01*
X0205868Y0619198D01*
X0205868Y0620623D01*
X0205323Y0621939D01*
X0204316Y0622946D01*
X0205719Y0620984D02*
X0229802Y0620984D01*
X0228537Y0619386D02*
X0205868Y0619386D01*
X0205229Y0617787D02*
X0228234Y0617787D01*
X0228665Y0616189D02*
X0105498Y0616189D01*
X0105127Y0615294D02*
X0105934Y0617242D01*
X0105934Y0619350D01*
X0105127Y0621298D01*
X0103636Y0622789D01*
X0101688Y0623596D01*
X0099580Y0623596D01*
X0097632Y0622789D01*
X0096141Y0621298D01*
X0095334Y0619350D01*
X0095334Y0617242D01*
X0096141Y0615294D01*
X0097632Y0613803D01*
X0099580Y0612996D01*
X0101688Y0612996D01*
X0103636Y0613803D01*
X0105127Y0615294D01*
X0104423Y0614590D02*
X0130879Y0614590D01*
X0131361Y0615072D02*
X0130354Y0614065D01*
X0129809Y0612749D01*
X0129809Y0611324D01*
X0130354Y0610008D01*
X0131361Y0609000D01*
X0132677Y0608455D01*
X0134102Y0608455D01*
X0135418Y0609000D01*
X0136426Y0610008D01*
X0136971Y0611324D01*
X0136971Y0612749D01*
X0136426Y0614065D01*
X0135418Y0615072D01*
X0134102Y0615617D01*
X0132677Y0615617D01*
X0131361Y0615072D01*
X0129909Y0612992D02*
X0054081Y0612992D01*
X0054081Y0614590D02*
X0096844Y0614590D01*
X0095770Y0616189D02*
X0054081Y0616189D01*
X0054081Y0617787D02*
X0095334Y0617787D01*
X0095349Y0619386D02*
X0054081Y0619386D01*
X0054081Y0620984D02*
X0096011Y0620984D01*
X0097425Y0622583D02*
X0054081Y0622583D01*
X0054081Y0611393D02*
X0129809Y0611393D01*
X0130567Y0609795D02*
X0054081Y0609795D01*
X0054081Y0595408D02*
X0118587Y0595408D01*
X0117998Y0593810D02*
X0054081Y0593810D01*
X0054081Y0592211D02*
X0118168Y0592211D01*
X0119237Y0590613D02*
X0054081Y0590613D01*
X0054081Y0589014D02*
X0103335Y0589014D01*
X0102356Y0587416D02*
X0054081Y0587416D01*
X0054081Y0585817D02*
X0102250Y0585817D01*
X0102993Y0584219D02*
X0054081Y0584219D01*
X0105934Y0617787D02*
X0158007Y0617787D01*
X0157913Y0617882D02*
X0158920Y0616874D01*
X0160236Y0616329D01*
X0161661Y0616329D01*
X0162977Y0616874D01*
X0163985Y0617882D01*
X0164530Y0619198D01*
X0164530Y0620623D01*
X0163985Y0621939D01*
X0162977Y0622946D01*
X0161661Y0623491D01*
X0160236Y0623491D01*
X0158920Y0622946D01*
X0157913Y0621939D01*
X0157368Y0620623D01*
X0157368Y0619198D01*
X0157913Y0617882D01*
X0157368Y0619386D02*
X0105919Y0619386D01*
X0105257Y0620984D02*
X0157518Y0620984D01*
X0158557Y0622583D02*
X0103842Y0622583D01*
X0124989Y0592211D02*
X0185389Y0592211D01*
X0184927Y0590613D02*
X0123920Y0590613D01*
X0131548Y0598605D02*
X0291924Y0598605D01*
X0290434Y0600204D02*
X0132393Y0600204D01*
X0132666Y0601802D02*
X0168087Y0601802D01*
X0167755Y0602134D02*
X0168763Y0601126D01*
X0170079Y0600581D01*
X0171504Y0600581D01*
X0172820Y0601126D01*
X0173827Y0602134D01*
X0174372Y0603450D01*
X0174372Y0604875D01*
X0173827Y0606191D01*
X0172820Y0607198D01*
X0171504Y0607743D01*
X0170079Y0607743D01*
X0168763Y0607198D01*
X0167755Y0606191D01*
X0167210Y0604875D01*
X0167210Y0603450D01*
X0167755Y0602134D01*
X0167231Y0603401D02*
X0132489Y0603401D01*
X0131780Y0604999D02*
X0167262Y0604999D01*
X0168162Y0606598D02*
X0129918Y0606598D01*
X0136213Y0609795D02*
X0153339Y0609795D01*
X0152887Y0611393D02*
X0136971Y0611393D01*
X0136870Y0612992D02*
X0153035Y0612992D01*
X0153894Y0614590D02*
X0135900Y0614590D01*
X0108327Y0589014D02*
X0185199Y0589014D01*
X0186411Y0587416D02*
X0109305Y0587416D01*
X0116965Y0581021D02*
X0170145Y0581021D01*
X0169236Y0579423D02*
X0115613Y0579423D01*
X0103137Y0544256D02*
X0159040Y0544256D01*
X0158920Y0544206D02*
X0157913Y0543199D01*
X0157368Y0541882D01*
X0157368Y0540458D01*
X0157913Y0539142D01*
X0158920Y0538134D01*
X0160236Y0537589D01*
X0161661Y0537589D01*
X0162977Y0538134D01*
X0163985Y0539142D01*
X0164530Y0540458D01*
X0164530Y0541882D01*
X0163985Y0543199D01*
X0162977Y0544206D01*
X0161661Y0544751D01*
X0160236Y0544751D01*
X0158920Y0544206D01*
X0157689Y0542657D02*
X0105028Y0542657D01*
X0105748Y0541059D02*
X0157368Y0541059D01*
X0157781Y0539460D02*
X0105934Y0539460D01*
X0105669Y0537862D02*
X0159578Y0537862D01*
X0159780Y0536751D02*
X0158163Y0537420D01*
X0156412Y0537420D01*
X0154795Y0536751D01*
X0153557Y0535513D01*
X0152887Y0533896D01*
X0152887Y0532145D01*
X0153557Y0530528D01*
X0154795Y0529290D01*
X0156412Y0528620D01*
X0158163Y0528620D01*
X0159780Y0529290D01*
X0161018Y0530528D01*
X0161687Y0532145D01*
X0161687Y0533896D01*
X0161018Y0535513D01*
X0159780Y0536751D01*
X0160267Y0536263D02*
X0229689Y0536263D01*
X0228494Y0537862D02*
X0203658Y0537862D01*
X0205455Y0539460D02*
X0228234Y0539460D01*
X0228708Y0541059D02*
X0205868Y0541059D01*
X0200917Y0537862D02*
X0178068Y0537862D01*
X0178725Y0538134D02*
X0179733Y0539142D01*
X0180278Y0540458D01*
X0180278Y0541882D01*
X0179733Y0543199D01*
X0178725Y0544206D01*
X0177409Y0544751D01*
X0175985Y0544751D01*
X0174668Y0544206D01*
X0173661Y0543199D01*
X0173116Y0541882D01*
X0173116Y0540458D01*
X0173661Y0539142D01*
X0174668Y0538134D01*
X0175985Y0537589D01*
X0177409Y0537589D01*
X0178725Y0538134D01*
X0179865Y0539460D02*
X0199120Y0539460D01*
X0198706Y0541059D02*
X0180278Y0541059D01*
X0179957Y0542657D02*
X0199027Y0542657D01*
X0200379Y0544256D02*
X0178605Y0544256D01*
X0174788Y0544256D02*
X0162857Y0544256D01*
X0164209Y0542657D02*
X0173437Y0542657D01*
X0173116Y0541059D02*
X0164530Y0541059D01*
X0164117Y0539460D02*
X0173529Y0539460D01*
X0175326Y0537862D02*
X0162319Y0537862D01*
X0161369Y0534665D02*
X0271852Y0534665D01*
X0272441Y0534909D02*
X0271125Y0534363D01*
X0270118Y0533356D01*
X0269572Y0532040D01*
X0269572Y0530615D01*
X0270118Y0529299D01*
X0271125Y0528292D01*
X0272441Y0527746D01*
X0273866Y0527746D01*
X0275182Y0528292D01*
X0276189Y0529299D01*
X0276735Y0530615D01*
X0276735Y0532040D01*
X0276189Y0533356D01*
X0275182Y0534363D01*
X0273866Y0534909D01*
X0272441Y0534909D01*
X0274455Y0534665D02*
X0358466Y0534665D01*
X0356612Y0533066D02*
X0276310Y0533066D01*
X0276735Y0531468D02*
X0356187Y0531468D01*
X0356496Y0529869D02*
X0276426Y0529869D01*
X0275131Y0528271D02*
X0291499Y0528271D01*
X0290258Y0526672D02*
X0174150Y0526672D01*
X0174372Y0525074D02*
X0289704Y0525074D01*
X0289704Y0523475D02*
X0173861Y0523475D01*
X0173007Y0528271D02*
X0271176Y0528271D01*
X0269881Y0529869D02*
X0160359Y0529869D01*
X0161407Y0531468D02*
X0269572Y0531468D01*
X0269998Y0533066D02*
X0161687Y0533066D01*
X0154308Y0536263D02*
X0135487Y0536263D01*
X0136699Y0534665D02*
X0153206Y0534665D01*
X0152887Y0533066D02*
X0136971Y0533066D01*
X0136509Y0531468D02*
X0153168Y0531468D01*
X0154216Y0529869D02*
X0134474Y0529869D01*
X0131292Y0536263D02*
X0104836Y0536263D01*
X0107914Y0510687D02*
X0185027Y0510687D01*
X0185997Y0509088D02*
X0109134Y0509088D01*
X0109412Y0507490D02*
X0228234Y0507490D01*
X0228234Y0506993D02*
X0228779Y0505677D01*
X0229786Y0504670D01*
X0231103Y0504124D01*
X0232527Y0504124D01*
X0233843Y0504670D01*
X0234851Y0505677D01*
X0235396Y0506993D01*
X0235396Y0508418D01*
X0234851Y0509734D01*
X0233843Y0510741D01*
X0232527Y0511287D01*
X0231103Y0511287D01*
X0229786Y0510741D01*
X0228779Y0509734D01*
X0228234Y0508418D01*
X0228234Y0506993D01*
X0228690Y0505891D02*
X0116646Y0505891D01*
X0116741Y0505797D02*
X0115733Y0506804D01*
X0114417Y0507350D01*
X0112992Y0507350D01*
X0111676Y0506804D01*
X0110669Y0505797D01*
X0110124Y0504481D01*
X0110124Y0503056D01*
X0110669Y0501740D01*
X0111676Y0500733D01*
X0112992Y0500187D01*
X0114417Y0500187D01*
X0115733Y0500733D01*
X0116741Y0501740D01*
X0117286Y0503056D01*
X0117286Y0504481D01*
X0116741Y0505797D01*
X0117286Y0504293D02*
X0230696Y0504293D01*
X0232934Y0504293D02*
X0289861Y0504293D01*
X0289886Y0502694D02*
X0174961Y0502694D01*
X0176112Y0501096D02*
X0290548Y0501096D01*
X0291977Y0499497D02*
X0176341Y0499497D01*
X0175835Y0497899D02*
X0444278Y0497899D01*
X0444281Y0499497D02*
X0298346Y0499497D01*
X0299775Y0501096D02*
X0444284Y0501096D01*
X0444287Y0502694D02*
X0300437Y0502694D01*
X0300461Y0504293D02*
X0444290Y0504293D01*
X0444275Y0496300D02*
X0338836Y0496300D01*
X0339182Y0495955D02*
X0338174Y0496962D01*
X0336858Y0497507D01*
X0335433Y0497507D01*
X0334117Y0496962D01*
X0333110Y0495955D01*
X0332565Y0494638D01*
X0332565Y0493214D01*
X0333110Y0491897D01*
X0334117Y0490890D01*
X0335433Y0490345D01*
X0336858Y0490345D01*
X0338174Y0490890D01*
X0339182Y0491897D01*
X0339727Y0493214D01*
X0339727Y0494638D01*
X0339182Y0495955D01*
X0339700Y0494702D02*
X0383038Y0494702D01*
X0383330Y0494993D02*
X0382322Y0493986D01*
X0381777Y0492670D01*
X0381777Y0491245D01*
X0382322Y0489929D01*
X0383330Y0488922D01*
X0384646Y0488376D01*
X0386071Y0488376D01*
X0387387Y0488922D01*
X0388394Y0489929D01*
X0388939Y0491245D01*
X0388939Y0492670D01*
X0388394Y0493986D01*
X0387387Y0494993D01*
X0386071Y0495539D01*
X0384646Y0495539D01*
X0383330Y0494993D01*
X0381957Y0493103D02*
X0339681Y0493103D01*
X0338789Y0491505D02*
X0381777Y0491505D01*
X0382345Y0489906D02*
X0214678Y0489906D01*
X0215107Y0491505D02*
X0333502Y0491505D01*
X0332610Y0493103D02*
X0215085Y0493103D01*
X0214423Y0494702D02*
X0332591Y0494702D01*
X0333456Y0496300D02*
X0212999Y0496300D01*
X0213613Y0488308D02*
X0444261Y0488308D01*
X0444264Y0489906D02*
X0388372Y0489906D01*
X0388939Y0491505D02*
X0444267Y0491505D01*
X0444269Y0493103D02*
X0388760Y0493103D01*
X0387678Y0494702D02*
X0444272Y0494702D01*
X0444246Y0480315D02*
X0094978Y0480315D01*
X0095632Y0478717D02*
X0444244Y0478717D01*
X0444241Y0477118D02*
X0095488Y0477118D01*
X0094457Y0475520D02*
X0444238Y0475520D01*
X0444229Y0470724D02*
X0212837Y0470724D01*
X0213710Y0469126D02*
X0444226Y0469126D01*
X0444223Y0467527D02*
X0213703Y0467527D01*
X0212819Y0465929D02*
X0444220Y0465929D01*
X0444212Y0461133D02*
X0382416Y0461133D01*
X0383304Y0459535D02*
X0444209Y0459535D01*
X0444206Y0457936D02*
X0383410Y0457936D01*
X0382852Y0456338D02*
X0444203Y0456338D01*
X0444189Y0448345D02*
X0217286Y0448345D01*
X0217680Y0446747D02*
X0444186Y0446747D01*
X0444183Y0445148D02*
X0238413Y0445148D01*
X0239295Y0443550D02*
X0444180Y0443550D01*
X0444177Y0441951D02*
X0239299Y0441951D01*
X0238424Y0440352D02*
X0444174Y0440352D01*
X0444171Y0438754D02*
X0380515Y0438754D01*
X0380206Y0438882D02*
X0378615Y0438882D01*
X0377144Y0438273D01*
X0376019Y0437148D01*
X0375410Y0435678D01*
X0375410Y0434086D01*
X0376019Y0432616D01*
X0377144Y0431491D01*
X0378615Y0430882D01*
X0380206Y0430882D01*
X0381676Y0431491D01*
X0382801Y0432616D01*
X0383410Y0434086D01*
X0383410Y0435678D01*
X0382801Y0437148D01*
X0381676Y0438273D01*
X0380206Y0438882D01*
X0378306Y0438754D02*
X0362307Y0438754D01*
X0362221Y0438816D02*
X0361576Y0439145D01*
X0360887Y0439369D01*
X0360172Y0439482D01*
X0359810Y0439482D01*
X0359810Y0434882D01*
X0359810Y0434882D01*
X0364410Y0434882D01*
X0364410Y0435244D01*
X0364297Y0435959D01*
X0364073Y0436648D01*
X0363745Y0437293D01*
X0363319Y0437879D01*
X0362807Y0438391D01*
X0362221Y0438816D01*
X0363814Y0437155D02*
X0376027Y0437155D01*
X0375410Y0435557D02*
X0364361Y0435557D01*
X0364410Y0434882D02*
X0359810Y0434882D01*
X0359810Y0434882D01*
X0359810Y0430282D01*
X0360172Y0430282D01*
X0360887Y0430395D01*
X0361576Y0430619D01*
X0362221Y0430948D01*
X0362807Y0431373D01*
X0363319Y0431885D01*
X0363745Y0432471D01*
X0364073Y0433116D01*
X0364297Y0433805D01*
X0364410Y0434520D01*
X0364410Y0434882D01*
X0364321Y0433958D02*
X0375463Y0433958D01*
X0376275Y0432360D02*
X0363664Y0432360D01*
X0361856Y0430761D02*
X0444157Y0430761D01*
X0444154Y0429163D02*
X0255081Y0429163D01*
X0254632Y0430761D02*
X0357765Y0430761D01*
X0359810Y0430761D02*
X0359810Y0430761D01*
X0359810Y0432360D02*
X0359810Y0432360D01*
X0359810Y0433958D02*
X0359810Y0433958D01*
X0359810Y0435557D02*
X0359810Y0435557D01*
X0359810Y0437155D02*
X0359810Y0437155D01*
X0359810Y0438754D02*
X0359810Y0438754D01*
X0357314Y0438754D02*
X0213245Y0438754D01*
X0213743Y0437155D02*
X0355806Y0437155D01*
X0355260Y0435557D02*
X0213506Y0435557D01*
X0215894Y0443550D02*
X0232209Y0443550D01*
X0233091Y0445148D02*
X0217339Y0445148D01*
X0199748Y0457936D02*
X0130776Y0457936D01*
X0129538Y0459535D02*
X0198795Y0459535D01*
X0169179Y0499497D02*
X0097492Y0499497D01*
X0098853Y0501096D02*
X0111313Y0501096D01*
X0110273Y0502694D02*
X0099176Y0502694D01*
X0098764Y0504293D02*
X0104712Y0504293D01*
X0106950Y0504293D02*
X0110124Y0504293D01*
X0110763Y0505891D02*
X0108955Y0505891D01*
X0116097Y0501096D02*
X0169407Y0501096D01*
X0170558Y0502694D02*
X0117136Y0502694D01*
X0125164Y0494702D02*
X0054081Y0494702D01*
X0054081Y0496300D02*
X0061691Y0496300D01*
X0063357Y0496300D02*
X0144345Y0496300D01*
X0144795Y0496751D02*
X0143557Y0495513D01*
X0142887Y0493896D01*
X0142887Y0492145D01*
X0143557Y0490528D01*
X0144795Y0489290D01*
X0146412Y0488620D01*
X0148163Y0488620D01*
X0149780Y0489290D01*
X0151018Y0490528D01*
X0151687Y0492145D01*
X0151687Y0493896D01*
X0151018Y0495513D01*
X0149780Y0496751D01*
X0148163Y0497420D01*
X0146412Y0497420D01*
X0144795Y0496751D01*
X0143221Y0494702D02*
X0129804Y0494702D01*
X0129513Y0494993D02*
X0128197Y0495539D01*
X0126772Y0495539D01*
X0125456Y0494993D01*
X0124448Y0493986D01*
X0123903Y0492670D01*
X0123903Y0491245D01*
X0124448Y0489929D01*
X0125456Y0488922D01*
X0126772Y0488376D01*
X0128197Y0488376D01*
X0129513Y0488922D01*
X0130520Y0489929D01*
X0131065Y0491245D01*
X0131065Y0492670D01*
X0130520Y0493986D01*
X0129513Y0494993D01*
X0130886Y0493103D02*
X0142887Y0493103D01*
X0143153Y0491505D02*
X0131065Y0491505D01*
X0130498Y0489906D02*
X0144179Y0489906D01*
X0150396Y0489906D02*
X0164179Y0489906D01*
X0163153Y0491505D02*
X0151422Y0491505D01*
X0151687Y0493103D02*
X0162887Y0493103D01*
X0163221Y0494702D02*
X0151353Y0494702D01*
X0150230Y0496300D02*
X0164345Y0496300D01*
X0191018Y0509088D02*
X0228512Y0509088D01*
X0229732Y0510687D02*
X0191988Y0510687D01*
X0192089Y0512285D02*
X0352250Y0512285D01*
X0352350Y0510687D02*
X0233898Y0510687D01*
X0235118Y0509088D02*
X0294060Y0509088D01*
X0296262Y0509088D02*
X0353320Y0509088D01*
X0353008Y0513884D02*
X0191331Y0513884D01*
X0234940Y0505891D02*
X0290288Y0505891D01*
X0291348Y0507490D02*
X0235396Y0507490D01*
X0279776Y0427564D02*
X0444151Y0427564D01*
X0444148Y0425966D02*
X0280690Y0425966D01*
X0280739Y0424367D02*
X0444146Y0424367D01*
X0444143Y0422769D02*
X0279895Y0422769D01*
X0286933Y0405343D02*
X0286933Y0401406D01*
X0257050Y0401988D02*
X0355810Y0401988D01*
X0355897Y0400390D02*
X0256924Y0400390D01*
X0257050Y0400694D02*
X0256504Y0399378D01*
X0255497Y0398370D01*
X0254181Y0397825D01*
X0252756Y0397825D01*
X0251440Y0398370D01*
X0250433Y0399378D01*
X0249887Y0400694D01*
X0249887Y0402119D01*
X0250433Y0403435D01*
X0251440Y0404442D01*
X0252756Y0404987D01*
X0254181Y0404987D01*
X0255497Y0404442D01*
X0256504Y0403435D01*
X0257050Y0402119D01*
X0257050Y0400694D01*
X0255918Y0398791D02*
X0356757Y0398791D01*
X0356388Y0403587D02*
X0256352Y0403587D01*
X0250584Y0403587D02*
X0206622Y0403587D01*
X0205498Y0401988D02*
X0249887Y0401988D01*
X0250013Y0400390D02*
X0224116Y0400390D01*
X0225301Y0398791D02*
X0251019Y0398791D01*
X0275387Y0341245D02*
X0357534Y0341245D01*
X0356402Y0339646D02*
X0276519Y0339646D01*
X0276735Y0338048D02*
X0356187Y0338048D01*
X0356705Y0336449D02*
X0296584Y0336449D01*
X0299015Y0334851D02*
X0359013Y0334851D01*
X0360523Y0334851D02*
X0360982Y0334851D01*
X0360137Y0333252D02*
X0299960Y0333252D01*
X0300304Y0331654D02*
X0312575Y0331654D01*
X0311230Y0330055D02*
X0300197Y0330055D01*
X0299535Y0328457D02*
X0310911Y0328457D01*
X0311326Y0326858D02*
X0297968Y0326858D01*
X0293424Y0336449D02*
X0276216Y0336449D01*
X0316409Y0331654D02*
X0360183Y0331654D01*
X0361094Y0330055D02*
X0317754Y0330055D01*
X0341211Y0277304D02*
X0443881Y0277304D01*
X0443878Y0275706D02*
X0341695Y0275706D01*
X0341446Y0274107D02*
X0443875Y0274107D01*
X0443872Y0272509D02*
X0340265Y0272509D01*
X0358015Y0256524D02*
X0298602Y0256524D01*
X0299789Y0254925D02*
X0360308Y0254925D01*
X0360124Y0253327D02*
X0315412Y0253327D01*
X0313572Y0253327D02*
X0300304Y0253327D01*
X0300304Y0251728D02*
X0311402Y0251728D01*
X0310911Y0250130D02*
X0299706Y0250130D01*
X0298404Y0248531D02*
X0311155Y0248531D01*
X0317583Y0251728D02*
X0360681Y0251728D01*
X0366729Y0251728D02*
X0384303Y0251728D01*
X0383746Y0253327D02*
X0367286Y0253327D01*
X0367102Y0254925D02*
X0383930Y0254925D01*
X0385018Y0256524D02*
X0366014Y0256524D01*
X0387405Y0238940D02*
X0405485Y0238940D01*
X0406434Y0240539D02*
X0388647Y0240539D01*
X0404186Y0259721D02*
X0443849Y0259721D01*
X0443852Y0261319D02*
X0404687Y0261319D01*
X0404454Y0262918D02*
X0443855Y0262918D01*
X0443857Y0264516D02*
X0403297Y0264516D01*
X0437648Y0245334D02*
X0443823Y0245334D01*
X0443820Y0243736D02*
X0437983Y0243736D01*
X0437686Y0242137D02*
X0443817Y0242137D01*
X0443814Y0240539D02*
X0436572Y0240539D01*
X0435932Y0168606D02*
X0443685Y0168606D01*
X0443682Y0167007D02*
X0437477Y0167007D01*
X0437983Y0165409D02*
X0443679Y0165409D01*
X0443676Y0163810D02*
X0437857Y0163810D01*
X0436985Y0162212D02*
X0443673Y0162212D01*
X0443670Y0160613D02*
X0412304Y0160613D01*
X0412561Y0159014D02*
X0443667Y0159014D01*
X0443664Y0157416D02*
X0412084Y0157416D01*
X0411114Y0162212D02*
X0430582Y0162212D01*
X0429709Y0163810D02*
X0388939Y0163810D01*
X0388818Y0162212D02*
X0406847Y0162212D01*
X0405656Y0160613D02*
X0387818Y0160613D01*
X0388231Y0165409D02*
X0429583Y0165409D01*
X0384716Y0330055D02*
X0366316Y0330055D01*
X0367227Y0331654D02*
X0383805Y0331654D01*
X0383759Y0333252D02*
X0367273Y0333252D01*
X0366427Y0334851D02*
X0384604Y0334851D01*
X0382085Y0374814D02*
X0444056Y0374814D01*
X0444059Y0376412D02*
X0383167Y0376412D01*
X0383410Y0378011D02*
X0444062Y0378011D01*
X0444065Y0379609D02*
X0382989Y0379609D01*
X0376357Y0398791D02*
X0362863Y0398791D01*
X0363723Y0400390D02*
X0375497Y0400390D01*
X0375410Y0401988D02*
X0363810Y0401988D01*
X0363232Y0403587D02*
X0375988Y0403587D01*
X0382545Y0432360D02*
X0444160Y0432360D01*
X0444163Y0433958D02*
X0383357Y0433958D01*
X0383410Y0435557D02*
X0444166Y0435557D01*
X0444169Y0437155D02*
X0382794Y0437155D01*
X0375969Y0456338D02*
X0363252Y0456338D01*
X0363810Y0457936D02*
X0375410Y0457936D01*
X0375517Y0459535D02*
X0363704Y0459535D01*
X0362816Y0461133D02*
X0376405Y0461133D01*
X0387499Y0510687D02*
X0405524Y0510687D01*
X0406527Y0512285D02*
X0388685Y0512285D01*
X0388939Y0513884D02*
X0429842Y0513884D01*
X0429583Y0515483D02*
X0388459Y0515483D01*
X0384257Y0523475D02*
X0366774Y0523475D01*
X0367286Y0525074D02*
X0383746Y0525074D01*
X0383968Y0526672D02*
X0367063Y0526672D01*
X0365921Y0528271D02*
X0385111Y0528271D01*
X0404225Y0531468D02*
X0444339Y0531468D01*
X0444341Y0533066D02*
X0404687Y0533066D01*
X0404416Y0534665D02*
X0444344Y0534665D01*
X0444347Y0536263D02*
X0403204Y0536263D01*
X0437779Y0526672D02*
X0444330Y0526672D01*
X0444327Y0525074D02*
X0437983Y0525074D01*
X0437556Y0523475D02*
X0444324Y0523475D01*
X0444321Y0521877D02*
X0436256Y0521877D01*
X0444362Y0544256D02*
X0340359Y0544256D01*
X0341484Y0545854D02*
X0444365Y0545854D01*
X0444367Y0547453D02*
X0341695Y0547453D01*
X0341172Y0549051D02*
X0444370Y0549051D01*
X0429583Y0593810D02*
X0388630Y0593810D01*
X0387336Y0595408D02*
X0429786Y0595408D01*
X0406513Y0585817D02*
X0299388Y0585817D01*
X0297260Y0587416D02*
X0353733Y0587416D01*
X0357928Y0587416D02*
X0405518Y0587416D01*
X0360346Y0526672D02*
X0299750Y0526672D01*
X0298509Y0528271D02*
X0357790Y0528271D01*
X0289772Y0601802D02*
X0173496Y0601802D01*
X0174352Y0603401D02*
X0289704Y0603401D01*
X0290087Y0604999D02*
X0174321Y0604999D01*
X0173420Y0606598D02*
X0272173Y0606598D01*
X0274134Y0606598D02*
X0291086Y0606598D01*
X0291204Y0657750D02*
X0176341Y0657750D01*
X0175788Y0659349D02*
X0290228Y0659349D01*
X0298202Y0665743D02*
X0354633Y0665743D01*
X0357028Y0665743D02*
X0405689Y0665743D01*
X0406926Y0664144D02*
X0299715Y0664144D01*
X0296058Y0676461D02*
X0298006Y0677268D01*
X0299497Y0678758D01*
X0300304Y0680706D01*
X0300304Y0682815D01*
X0299497Y0684763D01*
X0298006Y0686254D01*
X0296058Y0687061D01*
X0293950Y0687061D01*
X0292002Y0686254D01*
X0290511Y0684763D01*
X0289704Y0682815D01*
X0289704Y0680706D01*
X0290511Y0678758D01*
X0292002Y0677268D01*
X0293950Y0676461D01*
X0296058Y0676461D01*
X0297197Y0676932D02*
X0311461Y0676932D01*
X0310911Y0678531D02*
X0299269Y0678531D01*
X0300065Y0680129D02*
X0311098Y0680129D01*
X0312190Y0681728D02*
X0300304Y0681728D01*
X0300092Y0683326D02*
X0360124Y0683326D01*
X0360315Y0681728D02*
X0316794Y0681728D01*
X0317886Y0680129D02*
X0361413Y0680129D01*
X0365996Y0680129D02*
X0385036Y0680129D01*
X0385298Y0679866D02*
X0386614Y0679321D01*
X0388039Y0679321D01*
X0389355Y0679866D01*
X0390363Y0680874D01*
X0390908Y0682190D01*
X0390908Y0683615D01*
X0390363Y0684931D01*
X0389355Y0685938D01*
X0388039Y0686483D01*
X0386614Y0686483D01*
X0385298Y0685938D01*
X0384291Y0684931D01*
X0383746Y0683615D01*
X0383746Y0682190D01*
X0384291Y0680874D01*
X0385298Y0679866D01*
X0383937Y0681728D02*
X0367094Y0681728D01*
X0367286Y0683326D02*
X0383746Y0683326D01*
X0384288Y0684925D02*
X0366743Y0684925D01*
X0360666Y0684925D02*
X0299335Y0684925D01*
X0297356Y0686523D02*
X0356988Y0686523D01*
X0356187Y0688122D02*
X0276735Y0688122D01*
X0276652Y0689720D02*
X0356269Y0689720D01*
X0357214Y0691319D02*
X0275707Y0691319D01*
X0275933Y0686523D02*
X0292652Y0686523D01*
X0290673Y0684925D02*
X0173830Y0684925D01*
X0173827Y0684931D02*
X0172820Y0685938D01*
X0171504Y0686483D01*
X0170079Y0686483D01*
X0168763Y0685938D01*
X0167755Y0684931D01*
X0167210Y0683615D01*
X0167210Y0682190D01*
X0167755Y0680874D01*
X0168763Y0679866D01*
X0170079Y0679321D01*
X0171504Y0679321D01*
X0172820Y0679866D01*
X0173827Y0680874D01*
X0174372Y0682190D01*
X0174372Y0683615D01*
X0173827Y0684931D01*
X0174372Y0683326D02*
X0289916Y0683326D01*
X0289704Y0681728D02*
X0174181Y0681728D01*
X0173083Y0680129D02*
X0289943Y0680129D01*
X0290739Y0678531D02*
X0132222Y0678531D01*
X0132666Y0680129D02*
X0168500Y0680129D01*
X0167402Y0681728D02*
X0132660Y0681728D01*
X0131998Y0683326D02*
X0167210Y0683326D01*
X0167753Y0684925D02*
X0130595Y0684925D01*
X0131135Y0676932D02*
X0292811Y0676932D01*
X0235396Y0696114D02*
X0444635Y0696114D01*
X0444632Y0694516D02*
X0234713Y0694516D01*
X0235264Y0697713D02*
X0444638Y0697713D01*
X0444641Y0699311D02*
X0234250Y0699311D01*
X0199759Y0696114D02*
X0179225Y0696114D01*
X0178725Y0695614D02*
X0179733Y0696622D01*
X0180278Y0697938D01*
X0180278Y0699363D01*
X0179733Y0700679D01*
X0178725Y0701686D01*
X0177409Y0702231D01*
X0175985Y0702231D01*
X0174668Y0701686D01*
X0173661Y0700679D01*
X0173116Y0699363D01*
X0173116Y0697938D01*
X0173661Y0696622D01*
X0174668Y0695614D01*
X0175985Y0695069D01*
X0177409Y0695069D01*
X0178725Y0695614D01*
X0180185Y0697713D02*
X0198800Y0697713D01*
X0198706Y0699311D02*
X0180278Y0699311D01*
X0179502Y0700910D02*
X0199482Y0700910D01*
X0173892Y0700910D02*
X0163754Y0700910D01*
X0163985Y0700679D02*
X0162977Y0701686D01*
X0161661Y0702231D01*
X0160236Y0702231D01*
X0158920Y0701686D01*
X0157913Y0700679D01*
X0157368Y0699363D01*
X0157368Y0697938D01*
X0157913Y0696622D01*
X0158920Y0695614D01*
X0160236Y0695069D01*
X0161661Y0695069D01*
X0162977Y0695614D01*
X0163985Y0696622D01*
X0164530Y0697938D01*
X0164530Y0699363D01*
X0163985Y0700679D01*
X0164530Y0699311D02*
X0173116Y0699311D01*
X0173209Y0697713D02*
X0164437Y0697713D01*
X0163477Y0696114D02*
X0174169Y0696114D01*
X0158420Y0696114D02*
X0105934Y0696114D01*
X0105934Y0697713D02*
X0157461Y0697713D01*
X0157368Y0699311D02*
X0105428Y0699311D01*
X0104256Y0700910D02*
X0158144Y0700910D01*
X0163341Y0622583D02*
X0174305Y0622583D01*
X0174668Y0622946D02*
X0173661Y0621939D01*
X0173116Y0620623D01*
X0173116Y0619198D01*
X0173661Y0617882D01*
X0174668Y0616874D01*
X0175985Y0616329D01*
X0177409Y0616329D01*
X0178725Y0616874D01*
X0179733Y0617882D01*
X0180278Y0619198D01*
X0180278Y0620623D01*
X0179733Y0621939D01*
X0178725Y0622946D01*
X0177409Y0623491D01*
X0175985Y0623491D01*
X0174668Y0622946D01*
X0173266Y0620984D02*
X0164380Y0620984D01*
X0164530Y0619386D02*
X0173116Y0619386D01*
X0173755Y0617787D02*
X0163890Y0617787D01*
X0179638Y0617787D02*
X0199346Y0617787D01*
X0198706Y0619386D02*
X0180278Y0619386D01*
X0180128Y0620984D02*
X0198856Y0620984D01*
X0199896Y0622583D02*
X0179089Y0622583D01*
X0124083Y0493103D02*
X0054081Y0493103D01*
X0054081Y0491505D02*
X0123903Y0491505D01*
X0124471Y0489906D02*
X0054081Y0489906D01*
X0054081Y0497899D02*
X0059448Y0497899D01*
X0058943Y0499497D02*
X0054081Y0499497D01*
X0054081Y0501096D02*
X0059171Y0501096D01*
X0060322Y0502694D02*
X0054081Y0502694D01*
X0262417Y0135037D02*
X0263417Y0135037D01*
X0263417Y0133438D02*
X0262417Y0133438D01*
X0262417Y0131840D02*
X0263417Y0131840D01*
X0267978Y0127044D02*
X0279705Y0127044D01*
X0281542Y0125446D02*
X0266539Y0125446D01*
X0389618Y0680129D02*
X0430538Y0680129D01*
X0429691Y0681728D02*
X0390716Y0681728D01*
X0390908Y0683326D02*
X0429583Y0683326D01*
X0430108Y0684925D02*
X0390365Y0684925D01*
X0403516Y0688122D02*
X0444621Y0688122D01*
X0444624Y0689720D02*
X0404545Y0689720D01*
X0404687Y0691319D02*
X0444627Y0691319D01*
X0444630Y0692917D02*
X0404030Y0692917D01*
D17*
X0403075Y0698650D02*
X0401106Y0698650D01*
X0361736Y0649438D02*
X0359768Y0649438D01*
X0401106Y0619910D02*
X0403075Y0619910D01*
X0361736Y0570698D02*
X0359768Y0570698D01*
X0401106Y0541170D02*
X0403075Y0541170D01*
X0361736Y0491957D02*
X0359768Y0491957D01*
X0271185Y0523454D02*
X0269217Y0523454D01*
X0269217Y0602194D02*
X0271185Y0602194D01*
X0271185Y0680934D02*
X0269217Y0680934D01*
X0103862Y0671091D02*
X0101894Y0671091D01*
X0102878Y0672076D01*
X0062524Y0682902D02*
X0062524Y0684871D01*
X0062524Y0606131D02*
X0062524Y0604162D01*
X0101894Y0592351D02*
X0103862Y0592351D01*
X0102878Y0593335D02*
X0101894Y0592351D01*
X0062524Y0527391D02*
X0062524Y0525422D01*
X0101894Y0513611D02*
X0103862Y0513611D01*
X0102878Y0514595D02*
X0101894Y0513611D01*
X0062524Y0334477D02*
X0062524Y0332509D01*
X0101894Y0320698D02*
X0103862Y0320698D01*
X0102878Y0321682D02*
X0101894Y0320698D01*
X0062524Y0255737D02*
X0062524Y0253769D01*
X0101894Y0241957D02*
X0103862Y0241957D01*
X0102878Y0242942D02*
X0101894Y0241957D01*
X0062524Y0176997D02*
X0062524Y0175028D01*
X0101894Y0163217D02*
X0103862Y0163217D01*
X0102878Y0164202D02*
X0101894Y0163217D01*
X0269217Y0173060D02*
X0271185Y0173060D01*
X0271185Y0251800D02*
X0269217Y0251800D01*
X0269217Y0330540D02*
X0271185Y0330540D01*
X0229846Y0433887D02*
X0230831Y0434871D01*
X0231815Y0434871D01*
X0359768Y0299044D02*
X0361736Y0299044D01*
X0401106Y0269517D02*
X0403075Y0269517D01*
X0361736Y0220304D02*
X0359768Y0220304D01*
X0401106Y0190776D02*
X0403075Y0190776D01*
X0361736Y0141564D02*
X0359768Y0141564D01*
X0401106Y0348257D02*
X0403075Y0348257D01*
D18*
X0218035Y0336446D02*
X0218035Y0334477D01*
X0218035Y0257706D02*
X0218035Y0255737D01*
X0218035Y0178965D02*
X0218035Y0176997D01*
X0218035Y0527391D02*
X0218035Y0529359D01*
X0218035Y0606131D02*
X0218035Y0608099D01*
X0218035Y0684871D02*
X0218035Y0686839D01*
M02*
