%
M48
M72
T01C0.02362
T02C0.03150
T03C0.03200
T04C0.03600
T05C0.04000
T06C0.05200
%
T01
X62524Y149438
X62524Y176997
X95594Y149044
X105831Y157312
X102878Y164202
X113705Y153375
X121579Y164202
X133390Y182902
X160949Y190776
X170791Y175028
X176697Y190776
X188508Y161249
X172760Y149438
X202287Y190776
X218035Y176997
X231815Y188808
X231815Y157312
X269217Y173060
X273154Y180934
X231815Y236052
X218035Y255737
X231815Y267548
X202287Y269517
X188508Y239989
X172760Y228178
X170791Y253769
X176697Y269517
X160949Y269517
X133390Y261643
X121579Y242942
X113705Y232115
X105831Y236052
X102878Y242942
X95988Y228178
X127484Y220304
X127484Y141564
X62524Y228178
X62524Y255737
X62524Y306918
X62524Y334477
X95594Y309674
X105831Y314792
X102878Y321682
X113705Y310855
X121579Y321682
X133390Y340383
X132996Y366761
X160949Y348257
X170791Y332509
X176697Y348257
X188508Y318729
X172760Y306918
X202287Y348257
X202287Y362036
X218035Y334477
X231815Y346288
X231815Y314792
X269217Y330540
X273154Y338414
X314492Y328572
X336146Y301013
X338114Y275422
X359768Y259674
X363705Y253769
X355831Y239989
X361736Y220304
X338114Y196682
X336146Y222272
X314492Y249831
X273154Y259674
X269217Y251800
X314492Y171091
X336146Y143532
X355831Y161249
X363705Y175028
X359768Y180934
X385358Y163217
X387327Y175028
X401106Y182902
X401106Y190776
X408980Y159280
X385358Y141564
X361736Y141564
X385358Y220304
X385358Y241957
X387327Y253769
X401106Y261643
X401106Y269517
X408980Y238020
X385358Y299044
X385358Y320698
X387327Y332509
X401106Y340383
X401106Y348257
X408980Y316761
X363705Y332509
X359768Y338414
X355831Y318729
X361736Y299044
X338114Y354162
X286933Y405343
X277169Y425107
X251500Y428965
X235752Y442745
X229846Y433887
X214098Y446682
X210161Y436839
X212130Y423060
X221972Y397469
X253469Y401406
X210161Y468335
X202287Y460461
X178665Y423060
X172760Y415186
X169217Y407312
X164886Y397469
X143232Y417154
X127484Y456524
X127484Y491957
X113705Y503769
X121579Y514595
X105831Y507706
X102878Y514595
X95594Y502587
X92051Y478178
X62524Y499831
X62524Y527391
X92051Y576603
X105831Y586446
X102878Y593335
X113705Y582509
X121579Y593335
X133390Y612036
X160949Y619910
X170791Y604162
X176697Y619910
X188508Y590383
X172760Y578572
X176697Y541170
X170791Y525422
X160949Y541170
X133390Y533296
X127484Y570698
X127484Y649438
X113705Y661249
X121579Y672076
X105831Y665186
X102878Y672076
X95594Y660068
X62524Y657312
X62524Y684871
X62524Y606131
X62524Y578572
X133390Y690776
X160949Y698650
X170791Y682902
X176697Y698650
X188508Y669123
X172760Y657312
X202287Y619910
X218035Y606131
X231815Y617942
X231815Y586446
X202287Y541170
X218035Y527391
X231815Y539202
X231815Y507706
X269217Y523454
X273154Y531328
X314492Y521485
X336146Y493926
X355831Y511643
X363705Y525422
X359768Y531328
X338114Y547076
X336146Y572666
X355831Y590383
X363705Y604162
X359768Y610068
X338114Y625816
X336146Y651406
X355831Y669123
X363705Y682902
X359768Y688808
X338114Y704556
X314492Y678965
X273154Y688808
X269217Y680934
X231815Y696682
X218035Y684871
X202287Y698650
X231815Y665186
X273154Y610068
X269217Y602194
X314492Y600225
X361736Y570698
X385358Y570698
X385358Y592351
X387327Y604162
X401106Y612036
X401106Y619910
X408980Y588414
X401106Y541170
X401106Y533296
X387327Y525422
X385358Y513611
X385358Y491957
X361736Y491957
X408980Y509674
X385358Y649438
X385358Y671091
X387327Y682902
X401106Y690776
X401106Y698650
X408980Y667154
X361736Y649438
X188508Y511643
X172760Y499831
X111736Y409280
X101894Y367942
X62524Y405343
X127484Y299044
T02
X127917Y385028
X117917Y385028
X107917Y385028
X97917Y385028
X87917Y385028
X77917Y385028
X67917Y385028
X57917Y385028
X57917Y445028
X67917Y445028
X77917Y445028
X87917Y445028
X97917Y445028
X107917Y445028
X117917Y445028
X127917Y445028
X137917Y445028
X147917Y445028
X157917Y445028
X167917Y445028
X177917Y445028
X187917Y445028
X197917Y445028
X192917Y425028
X192917Y415028
X192917Y405028
X202917Y405028
X202917Y415028
X202917Y425028
X197917Y385028
X187917Y385028
X177917Y385028
X167917Y385028
X157917Y385028
X147917Y385028
X137917Y385028
T03
X359810Y377795
X359810Y401395
X379410Y401395
X379410Y377795
X379410Y434882
X379410Y458482
X359810Y458482
X359810Y434882
T04
X433783Y515343
X433783Y525343
X433783Y594083
X433783Y604083
X433783Y672824
X433783Y682824
X433783Y332430
X433783Y322430
X433783Y253690
X433783Y243690
X433783Y174950
X433783Y164950
T05
X167287Y142627
X147287Y142627
X157287Y182627
X147287Y221367
X167287Y221367
X157287Y261367
X147287Y300107
X167287Y300107
X157287Y340107
X147287Y493020
X167287Y493020
X157287Y533020
X147287Y571761
X167287Y571761
X157287Y611761
X147287Y650501
X167287Y650501
X157287Y690501
T06
X127366Y680658
X100634Y697036
X100634Y618296
X127366Y601918
X100634Y539556
X127366Y523178
X68862Y460186
X120043Y367981
X100634Y346643
X127366Y330265
X100634Y267902
X127366Y251524
X100634Y189162
X127366Y172784
X209807Y141603
X209807Y220343
X209807Y299083
X266972Y413257
X295004Y331367
X295161Y310894
X295004Y252627
X295161Y232154
X295004Y173887
X295161Y153414
X304689Y130107
X284138Y130107
X262917Y130107
X209807Y491997
X209807Y570737
X209807Y649477
X295161Y661288
X295004Y681761
X295004Y603020
X295161Y582548
X295004Y524280
X295161Y503808
M30
