G75*
%MOIN*%
%OFA0B0*%
%FSLAX25Y25*%
%IPPOS*%
%LPD*%
%AMOC8*
5,1,8,0,0,1.08239X$1,22.5*
%
%ADD10R,0.04724X0.02165*%
%ADD11R,0.05118X0.05906*%
%ADD12R,0.05906X0.05118*%
%ADD13R,0.05600X0.01200*%
%ADD14R,0.18110X0.03937*%
%ADD15R,0.13386X0.06299*%
%ADD16C,0.06000*%
%ADD17R,0.05400X0.01800*%
%ADD18OC8,0.07000*%
%ADD19OC8,0.08500*%
%ADD20R,0.05800X0.01400*%
%ADD21OC8,0.05600*%
%ADD22R,0.04724X0.04724*%
%ADD23R,0.05118X0.06299*%
%ADD24C,0.05550*%
%ADD25C,0.05550*%
%ADD26C,0.01600*%
%ADD27R,0.04362X0.04362*%
%ADD28C,0.01000*%
%ADD29C,0.01200*%
%ADD30C,0.02400*%
D10*
X0277169Y0412154D03*
X0277169Y0419635D03*
X0287406Y0419635D03*
X0287406Y0415894D03*
X0287406Y0412154D03*
D11*
X0292720Y0433257D03*
X0300201Y0433257D03*
X0316933Y0500619D03*
X0324413Y0500619D03*
X0335201Y0500619D03*
X0342681Y0500619D03*
X0342839Y0512233D03*
X0335358Y0512233D03*
X0323705Y0512430D03*
X0316224Y0512430D03*
X0319531Y0530146D03*
X0327012Y0530146D03*
X0325752Y0539989D03*
X0318272Y0539989D03*
X0338035Y0539792D03*
X0345516Y0539792D03*
X0345437Y0529950D03*
X0337957Y0529950D03*
X0371382Y0525422D03*
X0378862Y0525422D03*
X0393429Y0509674D03*
X0400909Y0509674D03*
X0399531Y0524241D03*
X0407012Y0524241D03*
X0407563Y0496485D03*
X0415043Y0496485D03*
X0377287Y0491957D03*
X0369807Y0491957D03*
X0369807Y0570698D03*
X0377287Y0570698D03*
X0393429Y0588414D03*
X0400909Y0588414D03*
X0399531Y0602981D03*
X0407012Y0602981D03*
X0407563Y0575225D03*
X0415043Y0575225D03*
X0378862Y0604162D03*
X0371382Y0604162D03*
X0345437Y0608690D03*
X0337957Y0608690D03*
X0338035Y0618532D03*
X0345516Y0618532D03*
X0325752Y0618729D03*
X0318272Y0618729D03*
X0319531Y0608887D03*
X0327012Y0608887D03*
X0323705Y0591170D03*
X0324413Y0579359D03*
X0316933Y0579359D03*
X0316224Y0591170D03*
X0335358Y0590973D03*
X0335201Y0579359D03*
X0342681Y0579359D03*
X0342839Y0590973D03*
X0369807Y0649438D03*
X0377287Y0649438D03*
X0393429Y0667154D03*
X0400909Y0667154D03*
X0399531Y0681721D03*
X0407012Y0681721D03*
X0407563Y0653965D03*
X0415043Y0653965D03*
X0378862Y0682902D03*
X0371382Y0682902D03*
X0345437Y0687430D03*
X0337957Y0687430D03*
X0338035Y0697272D03*
X0345516Y0697272D03*
X0325752Y0697469D03*
X0318272Y0697469D03*
X0319531Y0687627D03*
X0327012Y0687627D03*
X0323705Y0669910D03*
X0316224Y0669910D03*
X0316933Y0658099D03*
X0324413Y0658099D03*
X0335201Y0658099D03*
X0342681Y0658099D03*
X0342839Y0669713D03*
X0335358Y0669713D03*
X0263272Y0697272D03*
X0255791Y0697272D03*
X0246776Y0697272D03*
X0239295Y0697272D03*
X0222602Y0697272D03*
X0215122Y0697272D03*
X0193823Y0698060D03*
X0186343Y0698060D03*
X0189295Y0658493D03*
X0181815Y0658493D03*
X0186343Y0619320D03*
X0193823Y0619320D03*
X0215122Y0618532D03*
X0222602Y0618532D03*
X0239295Y0618532D03*
X0246776Y0618532D03*
X0255791Y0618532D03*
X0263272Y0618532D03*
X0236815Y0647469D03*
X0236500Y0656721D03*
X0229020Y0656721D03*
X0229335Y0647469D03*
X0229020Y0577981D03*
X0236500Y0577981D03*
X0236815Y0568729D03*
X0229335Y0568729D03*
X0222602Y0539792D03*
X0215122Y0539792D03*
X0193823Y0540580D03*
X0186343Y0540580D03*
X0189295Y0579753D03*
X0181815Y0579753D03*
X0239295Y0539792D03*
X0246776Y0539792D03*
X0255791Y0539792D03*
X0263272Y0539792D03*
X0236500Y0499241D03*
X0236815Y0489989D03*
X0229335Y0489989D03*
X0229020Y0499241D03*
X0192248Y0460461D03*
X0184768Y0460461D03*
X0172563Y0460461D03*
X0165083Y0460461D03*
X0146972Y0458493D03*
X0139492Y0458493D03*
X0109571Y0464398D03*
X0102091Y0464398D03*
X0119807Y0409280D03*
X0127287Y0409280D03*
X0143429Y0409280D03*
X0150909Y0409280D03*
X0186343Y0347666D03*
X0193823Y0347666D03*
X0215122Y0346879D03*
X0222602Y0346879D03*
X0239295Y0346879D03*
X0246776Y0346879D03*
X0255791Y0346879D03*
X0263272Y0346879D03*
X0236500Y0306328D03*
X0236815Y0297076D03*
X0229335Y0297076D03*
X0229020Y0306328D03*
X0222602Y0268139D03*
X0215122Y0268139D03*
X0193823Y0268926D03*
X0186343Y0268926D03*
X0189295Y0308099D03*
X0181815Y0308099D03*
X0181815Y0229359D03*
X0189295Y0229359D03*
X0186343Y0190186D03*
X0193823Y0190186D03*
X0215122Y0189398D03*
X0222602Y0189398D03*
X0239295Y0189398D03*
X0246776Y0189398D03*
X0255791Y0189398D03*
X0263272Y0189398D03*
X0236815Y0218335D03*
X0236500Y0227587D03*
X0229020Y0227587D03*
X0229335Y0218335D03*
X0239295Y0268139D03*
X0246776Y0268139D03*
X0255791Y0268139D03*
X0263272Y0268139D03*
X0316224Y0240776D03*
X0323705Y0240776D03*
X0335358Y0240580D03*
X0342839Y0240580D03*
X0342681Y0228965D03*
X0335201Y0228965D03*
X0324413Y0228965D03*
X0316933Y0228965D03*
X0319531Y0258493D03*
X0327012Y0258493D03*
X0325752Y0268335D03*
X0318272Y0268335D03*
X0338035Y0268139D03*
X0345516Y0268139D03*
X0345437Y0258296D03*
X0337957Y0258296D03*
X0371382Y0253769D03*
X0378862Y0253769D03*
X0393429Y0238020D03*
X0400909Y0238020D03*
X0399531Y0252587D03*
X0407012Y0252587D03*
X0407563Y0224831D03*
X0415043Y0224831D03*
X0377287Y0220304D03*
X0369807Y0220304D03*
X0345516Y0189398D03*
X0338035Y0189398D03*
X0337957Y0179556D03*
X0345437Y0179556D03*
X0342839Y0161839D03*
X0342681Y0150225D03*
X0335201Y0150225D03*
X0335358Y0161839D03*
X0323705Y0162036D03*
X0324413Y0150225D03*
X0316933Y0150225D03*
X0316224Y0162036D03*
X0319531Y0179753D03*
X0327012Y0179753D03*
X0325752Y0189595D03*
X0318272Y0189595D03*
X0371382Y0175028D03*
X0378862Y0175028D03*
X0393429Y0159280D03*
X0400909Y0159280D03*
X0399531Y0173847D03*
X0407012Y0173847D03*
X0407563Y0146091D03*
X0415043Y0146091D03*
X0377287Y0141564D03*
X0369807Y0141564D03*
X0369807Y0299044D03*
X0377287Y0299044D03*
X0393429Y0316761D03*
X0400909Y0316761D03*
X0399531Y0331328D03*
X0407012Y0331328D03*
X0407563Y0303572D03*
X0415043Y0303572D03*
X0378862Y0332509D03*
X0371382Y0332509D03*
X0345437Y0337036D03*
X0337957Y0337036D03*
X0338035Y0346879D03*
X0345516Y0346879D03*
X0342839Y0319320D03*
X0335358Y0319320D03*
X0335201Y0307706D03*
X0342681Y0307706D03*
X0324413Y0307706D03*
X0316933Y0307706D03*
X0316224Y0319517D03*
X0323705Y0319517D03*
X0327012Y0337233D03*
X0319531Y0337233D03*
X0318272Y0347076D03*
X0325752Y0347076D03*
X0236500Y0148847D03*
X0229020Y0148847D03*
X0229335Y0139595D03*
X0236815Y0139595D03*
X0189295Y0150619D03*
X0181815Y0150619D03*
X0077878Y0178965D03*
X0070398Y0178965D03*
X0070398Y0257706D03*
X0077878Y0257706D03*
X0077878Y0336446D03*
X0070398Y0336446D03*
X0070909Y0368532D03*
X0063429Y0368532D03*
X0085280Y0368532D03*
X0092760Y0368532D03*
X0070949Y0412627D03*
X0063469Y0412627D03*
X0070398Y0529359D03*
X0077878Y0529359D03*
X0077878Y0608099D03*
X0070398Y0608099D03*
X0070398Y0686839D03*
X0077878Y0686839D03*
X0181815Y0501013D03*
X0189295Y0501013D03*
D12*
X0149138Y0511839D03*
X0149138Y0519320D03*
X0127839Y0506249D03*
X0127839Y0498769D03*
X0119610Y0464202D03*
X0119610Y0456721D03*
X0127484Y0428769D03*
X0127484Y0421288D03*
X0151106Y0423257D03*
X0151106Y0430737D03*
X0125161Y0348926D03*
X0125161Y0341446D03*
X0114059Y0342076D03*
X0114059Y0349556D03*
X0127839Y0313335D03*
X0127839Y0305855D03*
X0149138Y0318926D03*
X0149138Y0326406D03*
X0125161Y0270186D03*
X0125161Y0262706D03*
X0114059Y0263335D03*
X0114059Y0270816D03*
X0127839Y0234595D03*
X0127839Y0227115D03*
X0149138Y0240186D03*
X0149138Y0247666D03*
X0125161Y0191446D03*
X0125161Y0183965D03*
X0114059Y0184595D03*
X0114059Y0192076D03*
X0127839Y0155855D03*
X0127839Y0148375D03*
X0149138Y0161446D03*
X0149138Y0168926D03*
X0082799Y0167666D03*
X0082799Y0160186D03*
X0072366Y0160540D03*
X0072366Y0168020D03*
X0062524Y0167587D03*
X0062524Y0160107D03*
X0062524Y0238847D03*
X0062524Y0246328D03*
X0072366Y0246761D03*
X0072366Y0239280D03*
X0082799Y0238926D03*
X0082799Y0246406D03*
X0082799Y0317666D03*
X0082799Y0325146D03*
X0072366Y0325501D03*
X0072366Y0318020D03*
X0062524Y0317587D03*
X0062524Y0325068D03*
X0070988Y0422233D03*
X0070988Y0429713D03*
X0062524Y0510501D03*
X0062524Y0517981D03*
X0072366Y0518414D03*
X0072366Y0510934D03*
X0082799Y0510580D03*
X0082799Y0518060D03*
X0114059Y0534989D03*
X0114059Y0542469D03*
X0125161Y0541839D03*
X0125161Y0534359D03*
X0127839Y0577509D03*
X0127839Y0584989D03*
X0125161Y0613099D03*
X0125161Y0620580D03*
X0114059Y0621209D03*
X0114059Y0613729D03*
X0127839Y0656249D03*
X0127839Y0663729D03*
X0149138Y0669320D03*
X0149138Y0676800D03*
X0125161Y0691839D03*
X0125161Y0699320D03*
X0114059Y0699950D03*
X0114059Y0692469D03*
X0082799Y0675540D03*
X0082799Y0668060D03*
X0072366Y0668414D03*
X0072366Y0675894D03*
X0062524Y0675461D03*
X0062524Y0667981D03*
X0062524Y0596721D03*
X0062524Y0589241D03*
X0072366Y0589674D03*
X0072366Y0597154D03*
X0082799Y0596800D03*
X0082799Y0589320D03*
X0149138Y0590580D03*
X0149138Y0598060D03*
X0231815Y0594989D03*
X0231815Y0602469D03*
X0281028Y0602430D03*
X0281028Y0609910D03*
X0281028Y0681170D03*
X0281028Y0688650D03*
X0231815Y0681209D03*
X0231815Y0673729D03*
X0281028Y0531170D03*
X0281028Y0523690D03*
X0231815Y0523729D03*
X0231815Y0516249D03*
X0303272Y0420304D03*
X0303272Y0412824D03*
X0281028Y0338257D03*
X0281028Y0330776D03*
X0281028Y0259517D03*
X0281028Y0252036D03*
X0231815Y0252076D03*
X0231815Y0244595D03*
X0231815Y0173335D03*
X0231815Y0165855D03*
X0281028Y0173296D03*
X0281028Y0180776D03*
X0231815Y0323335D03*
X0231815Y0330816D03*
X0393232Y0341406D03*
X0393232Y0348887D03*
X0393232Y0270146D03*
X0393232Y0262666D03*
X0393232Y0191406D03*
X0393232Y0183926D03*
X0393232Y0534320D03*
X0393232Y0541800D03*
X0393232Y0613060D03*
X0393232Y0620540D03*
X0393232Y0691800D03*
X0393232Y0699280D03*
D13*
X0113253Y0674007D03*
X0113253Y0672107D03*
X0113253Y0670107D03*
X0113253Y0668107D03*
X0113253Y0666207D03*
X0095653Y0666207D03*
X0095653Y0668107D03*
X0095653Y0670107D03*
X0095653Y0672107D03*
X0095653Y0674007D03*
X0095653Y0595267D03*
X0095653Y0593367D03*
X0095653Y0591367D03*
X0095653Y0589367D03*
X0095653Y0587467D03*
X0113253Y0587467D03*
X0113253Y0589367D03*
X0113253Y0591367D03*
X0113253Y0593367D03*
X0113253Y0595267D03*
X0113253Y0516527D03*
X0113253Y0514627D03*
X0113253Y0512627D03*
X0113253Y0510627D03*
X0113253Y0508727D03*
X0095653Y0508727D03*
X0095653Y0510627D03*
X0095653Y0512627D03*
X0095653Y0514627D03*
X0095653Y0516527D03*
X0095653Y0323613D03*
X0095653Y0321713D03*
X0095653Y0319713D03*
X0095653Y0317713D03*
X0095653Y0315813D03*
X0113253Y0315813D03*
X0113253Y0317713D03*
X0113253Y0319713D03*
X0113253Y0321713D03*
X0113253Y0323613D03*
X0113253Y0244873D03*
X0113253Y0242973D03*
X0113253Y0240973D03*
X0113253Y0238973D03*
X0113253Y0237073D03*
X0095653Y0237073D03*
X0095653Y0238973D03*
X0095653Y0240973D03*
X0095653Y0242973D03*
X0095653Y0244873D03*
X0095653Y0166133D03*
X0095653Y0164233D03*
X0095653Y0162233D03*
X0095653Y0160233D03*
X0095653Y0158333D03*
X0113253Y0158333D03*
X0113253Y0160233D03*
X0113253Y0162233D03*
X0113253Y0164233D03*
X0113253Y0166133D03*
D14*
X0416776Y0398454D03*
X0416776Y0406328D03*
X0416776Y0436446D03*
X0416776Y0444320D03*
D15*
X0437248Y0453769D03*
X0437248Y0426997D03*
X0437248Y0415776D03*
X0437248Y0389005D03*
D16*
X0436783Y0332430D02*
X0430783Y0332430D01*
X0430783Y0322430D02*
X0436783Y0322430D01*
X0436783Y0253690D02*
X0430783Y0253690D01*
X0430783Y0243690D02*
X0436783Y0243690D01*
X0436783Y0174950D02*
X0430783Y0174950D01*
X0430783Y0164950D02*
X0436783Y0164950D01*
X0436783Y0515343D02*
X0430783Y0515343D01*
X0430783Y0525343D02*
X0436783Y0525343D01*
X0436783Y0594083D02*
X0430783Y0594083D01*
X0430783Y0604083D02*
X0436783Y0604083D01*
X0436783Y0672824D02*
X0430783Y0672824D01*
X0430783Y0682824D02*
X0436783Y0682824D01*
D17*
X0384216Y0690913D03*
X0384216Y0693413D03*
X0384216Y0696013D03*
X0384216Y0698513D03*
X0366816Y0698513D03*
X0366816Y0696013D03*
X0366816Y0693413D03*
X0366816Y0690913D03*
X0367013Y0666033D03*
X0367013Y0663533D03*
X0367013Y0660933D03*
X0367013Y0658433D03*
X0384413Y0658433D03*
X0384413Y0660933D03*
X0384413Y0663533D03*
X0384413Y0666033D03*
X0384216Y0619773D03*
X0384216Y0617273D03*
X0384216Y0614673D03*
X0384216Y0612173D03*
X0384413Y0587293D03*
X0384413Y0584793D03*
X0384413Y0582193D03*
X0384413Y0579693D03*
X0367013Y0579693D03*
X0367013Y0582193D03*
X0367013Y0584793D03*
X0367013Y0587293D03*
X0366816Y0612173D03*
X0366816Y0614673D03*
X0366816Y0617273D03*
X0366816Y0619773D03*
X0366816Y0541033D03*
X0366816Y0538533D03*
X0366816Y0535933D03*
X0366816Y0533433D03*
X0384216Y0533433D03*
X0384216Y0535933D03*
X0384216Y0538533D03*
X0384216Y0541033D03*
X0384413Y0508553D03*
X0384413Y0506053D03*
X0384413Y0503453D03*
X0384413Y0500953D03*
X0367013Y0500953D03*
X0367013Y0503453D03*
X0367013Y0506053D03*
X0367013Y0508553D03*
X0366816Y0348120D03*
X0366816Y0345620D03*
X0366816Y0343020D03*
X0366816Y0340520D03*
X0384216Y0340520D03*
X0384216Y0343020D03*
X0384216Y0345620D03*
X0384216Y0348120D03*
X0384413Y0315639D03*
X0384413Y0313139D03*
X0384413Y0310539D03*
X0384413Y0308039D03*
X0367013Y0308039D03*
X0367013Y0310539D03*
X0367013Y0313139D03*
X0367013Y0315639D03*
X0366816Y0269380D03*
X0366816Y0266880D03*
X0366816Y0264280D03*
X0366816Y0261780D03*
X0367013Y0236899D03*
X0367013Y0234399D03*
X0367013Y0231799D03*
X0367013Y0229299D03*
X0384413Y0229299D03*
X0384413Y0231799D03*
X0384413Y0234399D03*
X0384413Y0236899D03*
X0384216Y0261780D03*
X0384216Y0264280D03*
X0384216Y0266880D03*
X0384216Y0269380D03*
X0384216Y0190639D03*
X0384216Y0188139D03*
X0384216Y0185539D03*
X0384216Y0183039D03*
X0384413Y0158159D03*
X0384413Y0155659D03*
X0384413Y0153059D03*
X0384413Y0150559D03*
X0367013Y0150559D03*
X0367013Y0153059D03*
X0367013Y0155659D03*
X0367013Y0158159D03*
X0366816Y0183039D03*
X0366816Y0185539D03*
X0366816Y0188139D03*
X0366816Y0190639D03*
X0261972Y0173120D03*
X0261972Y0170620D03*
X0261972Y0168020D03*
X0261972Y0165520D03*
X0244572Y0165520D03*
X0244572Y0168020D03*
X0244572Y0170620D03*
X0244572Y0173120D03*
X0212365Y0173120D03*
X0212365Y0170620D03*
X0212365Y0168020D03*
X0212365Y0165520D03*
X0194965Y0165520D03*
X0194965Y0168020D03*
X0194965Y0170620D03*
X0194965Y0173120D03*
X0194965Y0244260D03*
X0194965Y0246760D03*
X0194965Y0249360D03*
X0194965Y0251860D03*
X0212365Y0251860D03*
X0212365Y0249360D03*
X0212365Y0246760D03*
X0212365Y0244260D03*
X0244572Y0244260D03*
X0244572Y0246760D03*
X0244572Y0249360D03*
X0244572Y0251860D03*
X0261972Y0251860D03*
X0261972Y0249360D03*
X0261972Y0246760D03*
X0261972Y0244260D03*
X0261972Y0323000D03*
X0261972Y0325500D03*
X0261972Y0328100D03*
X0261972Y0330600D03*
X0244572Y0330600D03*
X0244572Y0328100D03*
X0244572Y0325500D03*
X0244572Y0323000D03*
X0212365Y0323000D03*
X0212365Y0325500D03*
X0212365Y0328100D03*
X0212365Y0330600D03*
X0194965Y0330600D03*
X0194965Y0328100D03*
X0194965Y0325500D03*
X0194965Y0323000D03*
X0194965Y0515913D03*
X0194965Y0518413D03*
X0194965Y0521013D03*
X0194965Y0523513D03*
X0212365Y0523513D03*
X0212365Y0521013D03*
X0212365Y0518413D03*
X0212365Y0515913D03*
X0244572Y0515913D03*
X0244572Y0518413D03*
X0244572Y0521013D03*
X0244572Y0523513D03*
X0261972Y0523513D03*
X0261972Y0521013D03*
X0261972Y0518413D03*
X0261972Y0515913D03*
X0261972Y0594654D03*
X0261972Y0597154D03*
X0261972Y0599754D03*
X0261972Y0602254D03*
X0244572Y0602254D03*
X0244572Y0599754D03*
X0244572Y0597154D03*
X0244572Y0594654D03*
X0212365Y0594654D03*
X0212365Y0597154D03*
X0212365Y0599754D03*
X0212365Y0602254D03*
X0194965Y0602254D03*
X0194965Y0599754D03*
X0194965Y0597154D03*
X0194965Y0594654D03*
X0194965Y0673394D03*
X0194965Y0675894D03*
X0194965Y0678494D03*
X0194965Y0680994D03*
X0212365Y0680994D03*
X0212365Y0678494D03*
X0212365Y0675894D03*
X0212365Y0673394D03*
X0244572Y0673394D03*
X0244572Y0675894D03*
X0244572Y0678494D03*
X0244572Y0680994D03*
X0261972Y0680994D03*
X0261972Y0678494D03*
X0261972Y0675894D03*
X0261972Y0673394D03*
D18*
X0167287Y0650501D03*
X0147287Y0650501D03*
X0157287Y0611761D03*
X0147287Y0571761D03*
X0167287Y0571761D03*
X0157287Y0533020D03*
X0147287Y0493020D03*
X0167287Y0493020D03*
X0157287Y0340107D03*
X0147287Y0300107D03*
X0167287Y0300107D03*
X0157287Y0261367D03*
X0147287Y0221367D03*
X0167287Y0221367D03*
X0157287Y0182627D03*
X0147287Y0142627D03*
X0167287Y0142627D03*
X0157287Y0690501D03*
D19*
X0127366Y0680658D03*
X0100634Y0697036D03*
X0100634Y0618296D03*
X0127366Y0601918D03*
X0100634Y0539556D03*
X0127366Y0523178D03*
X0068862Y0460186D03*
X0120043Y0367981D03*
X0100634Y0346643D03*
X0127366Y0330265D03*
X0100634Y0267902D03*
X0127366Y0251524D03*
X0100634Y0189162D03*
X0127366Y0172784D03*
X0209807Y0141603D03*
X0209807Y0220343D03*
X0209807Y0299083D03*
X0266972Y0413257D03*
X0295004Y0331367D03*
X0295161Y0310894D03*
X0295004Y0252627D03*
X0295161Y0232154D03*
X0295004Y0173887D03*
X0295161Y0153414D03*
X0304689Y0130107D03*
X0284138Y0130107D03*
X0262917Y0130107D03*
X0209807Y0491997D03*
X0209807Y0570737D03*
X0209807Y0649477D03*
X0295161Y0661288D03*
X0295004Y0681761D03*
X0295004Y0603020D03*
X0295161Y0582548D03*
X0295004Y0524280D03*
X0295161Y0503808D03*
D20*
X0244883Y0436727D03*
X0244883Y0434127D03*
X0244883Y0431627D03*
X0244883Y0429027D03*
X0244883Y0426427D03*
X0244883Y0423927D03*
X0244883Y0421327D03*
X0244883Y0418827D03*
X0244883Y0416227D03*
X0244883Y0413627D03*
X0244883Y0411127D03*
X0244883Y0408527D03*
X0222683Y0408527D03*
X0222683Y0411127D03*
X0222683Y0413627D03*
X0222683Y0416227D03*
X0222683Y0418827D03*
X0222683Y0421327D03*
X0222683Y0423927D03*
X0222683Y0426427D03*
X0222683Y0429027D03*
X0222683Y0431627D03*
X0222683Y0434127D03*
X0222683Y0436727D03*
D21*
X0359810Y0434882D03*
X0359810Y0458482D03*
X0379410Y0458482D03*
X0379410Y0434882D03*
X0379410Y0401395D03*
X0379410Y0377795D03*
X0359810Y0377795D03*
X0359810Y0401395D03*
D22*
X0340280Y0401406D03*
X0332012Y0401406D03*
X0333980Y0458493D03*
X0342248Y0458493D03*
D23*
X0339886Y0434871D03*
X0332406Y0434871D03*
X0332406Y0377784D03*
X0339886Y0377784D03*
D24*
X0197917Y0382254D02*
X0197917Y0387803D01*
X0187917Y0387803D02*
X0187917Y0382254D01*
X0177917Y0382254D02*
X0177917Y0387803D01*
X0167917Y0387803D02*
X0167917Y0382254D01*
X0157917Y0382254D02*
X0157917Y0387803D01*
X0147917Y0387803D02*
X0147917Y0382254D01*
X0137917Y0382254D02*
X0137917Y0387803D01*
X0127917Y0387803D02*
X0127917Y0382254D01*
X0117917Y0382254D02*
X0117917Y0387803D01*
X0107917Y0387803D02*
X0107917Y0382254D01*
X0097917Y0382254D02*
X0097917Y0387803D01*
X0087917Y0387803D02*
X0087917Y0382254D01*
X0077917Y0382254D02*
X0077917Y0387803D01*
X0067917Y0387803D02*
X0067917Y0382254D01*
X0057917Y0382254D02*
X0057917Y0387803D01*
X0057917Y0442254D02*
X0057917Y0447803D01*
X0067917Y0447803D02*
X0067917Y0442254D01*
X0077917Y0442254D02*
X0077917Y0447803D01*
X0087917Y0447803D02*
X0087917Y0442254D01*
X0097917Y0442254D02*
X0097917Y0447803D01*
X0107917Y0447803D02*
X0107917Y0442254D01*
X0117917Y0442254D02*
X0117917Y0447803D01*
X0127917Y0447803D02*
X0127917Y0442254D01*
X0137917Y0442254D02*
X0137917Y0447803D01*
X0147917Y0447803D02*
X0147917Y0442254D01*
X0157917Y0442254D02*
X0157917Y0447803D01*
X0167917Y0447803D02*
X0167917Y0442254D01*
X0177917Y0442254D02*
X0177917Y0447803D01*
X0187917Y0447803D02*
X0187917Y0442254D01*
X0197917Y0442254D02*
X0197917Y0447803D01*
D25*
X0192917Y0425028D03*
X0192917Y0415028D03*
X0192917Y0405028D03*
X0202917Y0405028D03*
X0202917Y0415028D03*
X0202917Y0425028D03*
D26*
X0204256Y0430934D02*
X0212130Y0423060D01*
X0204256Y0430934D02*
X0170791Y0430934D01*
X0162917Y0423060D01*
X0151303Y0423060D01*
X0151106Y0423257D01*
X0150516Y0422666D02*
X0150909Y0422272D01*
X0150909Y0409280D01*
X0143429Y0409280D02*
X0143232Y0409280D01*
X0143232Y0417154D01*
X0151106Y0430737D02*
X0147917Y0433926D01*
X0147917Y0445028D01*
X0137917Y0445028D02*
X0137917Y0439202D01*
X0127484Y0428769D01*
X0127484Y0421288D02*
X0127484Y0409280D01*
X0127287Y0409280D01*
X0119807Y0409280D02*
X0111736Y0409280D01*
X0127917Y0445028D02*
X0139492Y0456603D01*
X0139492Y0458493D01*
X0157917Y0453296D02*
X0157917Y0445028D01*
X0157917Y0453296D02*
X0165083Y0460461D01*
X0192248Y0460461D02*
X0202287Y0460461D01*
X0266972Y0413257D02*
X0268075Y0412154D01*
X0277169Y0412154D01*
X0280909Y0415894D02*
X0277169Y0419635D01*
X0277169Y0425107D01*
X0284965Y0432902D01*
X0292366Y0432902D01*
X0292720Y0433257D01*
X0300201Y0433257D02*
X0304295Y0433257D01*
X0310555Y0426997D01*
X0310555Y0415186D01*
X0308193Y0412824D01*
X0303272Y0412824D01*
X0302209Y0412154D01*
X0287406Y0412154D01*
X0286933Y0411682D01*
X0286933Y0405343D01*
X0287406Y0415894D02*
X0280909Y0415894D01*
X0287406Y0419635D02*
X0302996Y0419635D01*
X0303272Y0420304D01*
X0332012Y0401406D02*
X0332012Y0377784D01*
X0332406Y0377784D01*
X0340083Y0377784D02*
X0359768Y0377784D01*
X0359768Y0401406D02*
X0340083Y0401406D01*
X0119610Y0464202D02*
X0109768Y0464202D01*
X0109571Y0464398D01*
X0102091Y0464398D02*
X0094020Y0464398D01*
X0088114Y0458493D01*
X0088114Y0445225D01*
X0087917Y0445028D01*
X0070988Y0429713D02*
X0067917Y0432784D01*
X0067917Y0445028D01*
X0057917Y0385028D02*
X0057917Y0368532D01*
X0063429Y0368532D01*
X0071972Y0367469D02*
X0085280Y0367469D01*
X0085280Y0368532D01*
X0092760Y0368532D02*
X0101894Y0368532D01*
X0101894Y0367942D01*
D27*
X0062524Y0149438D03*
X0062524Y0176997D03*
X0095594Y0149044D03*
X0105831Y0157312D03*
X0102878Y0164202D03*
X0113705Y0153375D03*
X0121579Y0164202D03*
X0133390Y0182902D03*
X0160949Y0190776D03*
X0170791Y0175028D03*
X0176697Y0190776D03*
X0188508Y0161249D03*
X0172760Y0149438D03*
X0202287Y0190776D03*
X0218035Y0176997D03*
X0231815Y0188808D03*
X0231815Y0157312D03*
X0269217Y0173060D03*
X0273154Y0180934D03*
X0231815Y0236052D03*
X0218035Y0255737D03*
X0231815Y0267548D03*
X0202287Y0269517D03*
X0188508Y0239989D03*
X0172760Y0228178D03*
X0170791Y0253769D03*
X0176697Y0269517D03*
X0160949Y0269517D03*
X0133390Y0261643D03*
X0121579Y0242942D03*
X0113705Y0232115D03*
X0105831Y0236052D03*
X0102878Y0242942D03*
X0095988Y0228178D03*
X0127484Y0220304D03*
X0127484Y0141564D03*
X0062524Y0228178D03*
X0062524Y0255737D03*
X0062524Y0306918D03*
X0062524Y0334477D03*
X0095594Y0309674D03*
X0105831Y0314792D03*
X0102878Y0321682D03*
X0113705Y0310855D03*
X0121579Y0321682D03*
X0133390Y0340383D03*
X0132996Y0366761D03*
X0160949Y0348257D03*
X0170791Y0332509D03*
X0176697Y0348257D03*
X0188508Y0318729D03*
X0172760Y0306918D03*
X0202287Y0348257D03*
X0202287Y0362036D03*
X0218035Y0334477D03*
X0231815Y0346288D03*
X0231815Y0314792D03*
X0269217Y0330540D03*
X0273154Y0338414D03*
X0314492Y0328572D03*
X0336146Y0301013D03*
X0338114Y0275422D03*
X0359768Y0259674D03*
X0363705Y0253769D03*
X0355831Y0239989D03*
X0361736Y0220304D03*
X0338114Y0196682D03*
X0336146Y0222272D03*
X0314492Y0249831D03*
X0273154Y0259674D03*
X0269217Y0251800D03*
X0314492Y0171091D03*
X0336146Y0143532D03*
X0355831Y0161249D03*
X0363705Y0175028D03*
X0359768Y0180934D03*
X0385358Y0163217D03*
X0387327Y0175028D03*
X0401106Y0182902D03*
X0401106Y0190776D03*
X0408980Y0159280D03*
X0385358Y0141564D03*
X0361736Y0141564D03*
X0385358Y0220304D03*
X0385358Y0241957D03*
X0387327Y0253769D03*
X0401106Y0261643D03*
X0401106Y0269517D03*
X0408980Y0238020D03*
X0385358Y0299044D03*
X0385358Y0320698D03*
X0387327Y0332509D03*
X0401106Y0340383D03*
X0401106Y0348257D03*
X0408980Y0316761D03*
X0363705Y0332509D03*
X0359768Y0338414D03*
X0355831Y0318729D03*
X0361736Y0299044D03*
X0338114Y0354162D03*
X0286933Y0405343D03*
X0277169Y0425107D03*
X0251500Y0428965D03*
X0235752Y0442745D03*
X0229846Y0433887D03*
X0214098Y0446682D03*
X0210161Y0436839D03*
X0212130Y0423060D03*
X0221972Y0397469D03*
X0253469Y0401406D03*
X0210161Y0468335D03*
X0202287Y0460461D03*
X0178665Y0423060D03*
X0172760Y0415186D03*
X0169217Y0407312D03*
X0164886Y0397469D03*
X0143232Y0417154D03*
X0127484Y0456524D03*
X0127484Y0491957D03*
X0113705Y0503769D03*
X0121579Y0514595D03*
X0105831Y0507706D03*
X0102878Y0514595D03*
X0095594Y0502587D03*
X0092051Y0478178D03*
X0062524Y0499831D03*
X0062524Y0527391D03*
X0092051Y0576603D03*
X0105831Y0586446D03*
X0102878Y0593335D03*
X0113705Y0582509D03*
X0121579Y0593335D03*
X0133390Y0612036D03*
X0160949Y0619910D03*
X0170791Y0604162D03*
X0176697Y0619910D03*
X0188508Y0590383D03*
X0172760Y0578572D03*
X0176697Y0541170D03*
X0170791Y0525422D03*
X0160949Y0541170D03*
X0133390Y0533296D03*
X0127484Y0570698D03*
X0127484Y0649438D03*
X0113705Y0661249D03*
X0121579Y0672076D03*
X0105831Y0665186D03*
X0102878Y0672076D03*
X0095594Y0660068D03*
X0062524Y0657312D03*
X0062524Y0684871D03*
X0062524Y0606131D03*
X0062524Y0578572D03*
X0133390Y0690776D03*
X0160949Y0698650D03*
X0170791Y0682902D03*
X0176697Y0698650D03*
X0188508Y0669123D03*
X0172760Y0657312D03*
X0202287Y0619910D03*
X0218035Y0606131D03*
X0231815Y0617942D03*
X0231815Y0586446D03*
X0202287Y0541170D03*
X0218035Y0527391D03*
X0231815Y0539202D03*
X0231815Y0507706D03*
X0269217Y0523454D03*
X0273154Y0531328D03*
X0314492Y0521485D03*
X0336146Y0493926D03*
X0355831Y0511643D03*
X0363705Y0525422D03*
X0359768Y0531328D03*
X0338114Y0547076D03*
X0336146Y0572666D03*
X0355831Y0590383D03*
X0363705Y0604162D03*
X0359768Y0610068D03*
X0338114Y0625816D03*
X0336146Y0651406D03*
X0355831Y0669123D03*
X0363705Y0682902D03*
X0359768Y0688808D03*
X0338114Y0704556D03*
X0314492Y0678965D03*
X0273154Y0688808D03*
X0269217Y0680934D03*
X0231815Y0696682D03*
X0218035Y0684871D03*
X0202287Y0698650D03*
X0231815Y0665186D03*
X0273154Y0610068D03*
X0269217Y0602194D03*
X0314492Y0600225D03*
X0361736Y0570698D03*
X0385358Y0570698D03*
X0385358Y0592351D03*
X0387327Y0604162D03*
X0401106Y0612036D03*
X0401106Y0619910D03*
X0408980Y0588414D03*
X0401106Y0541170D03*
X0401106Y0533296D03*
X0387327Y0525422D03*
X0385358Y0513611D03*
X0385358Y0491957D03*
X0361736Y0491957D03*
X0408980Y0509674D03*
X0385358Y0649438D03*
X0385358Y0671091D03*
X0387327Y0682902D03*
X0401106Y0690776D03*
X0401106Y0698650D03*
X0408980Y0667154D03*
X0361736Y0649438D03*
X0188508Y0511643D03*
X0172760Y0499831D03*
X0111736Y0409280D03*
X0101894Y0367942D03*
X0062524Y0405343D03*
X0127484Y0299044D03*
D28*
X0127839Y0313335D02*
X0124413Y0316761D01*
X0119610Y0316761D01*
X0116657Y0319713D01*
X0113253Y0319713D01*
X0113221Y0317745D02*
X0108783Y0317745D01*
X0105831Y0314792D01*
X0102878Y0321682D02*
X0095684Y0321682D01*
X0095653Y0321713D01*
X0095653Y0323613D02*
X0095653Y0328907D01*
X0088114Y0336446D01*
X0077878Y0336446D01*
X0072366Y0334477D02*
X0072366Y0325501D01*
X0072366Y0318020D02*
X0062957Y0318020D01*
X0062524Y0317587D01*
X0062524Y0306918D01*
X0072366Y0318020D02*
X0082445Y0318020D01*
X0082799Y0317666D01*
X0082846Y0317713D01*
X0095653Y0317713D01*
X0095653Y0315813D02*
X0095594Y0315755D01*
X0095594Y0309674D01*
X0095653Y0319713D02*
X0090083Y0319713D01*
X0084650Y0325146D01*
X0082799Y0325146D01*
X0072366Y0334477D02*
X0070398Y0336446D01*
X0068429Y0334477D01*
X0062524Y0334477D01*
X0062524Y0325068D01*
X0071972Y0367469D02*
X0070909Y0368532D01*
X0090043Y0393532D02*
X0129453Y0393532D01*
X0132996Y0389989D01*
X0132996Y0366761D01*
X0125161Y0348926D02*
X0125831Y0348257D01*
X0160949Y0348257D01*
X0157563Y0340383D02*
X0174728Y0340383D01*
X0184511Y0330600D01*
X0194965Y0330600D01*
X0195025Y0330540D01*
X0204256Y0330540D01*
X0206224Y0328572D01*
X0206224Y0314792D01*
X0209807Y0311209D01*
X0209807Y0299083D01*
X0227327Y0299083D01*
X0229335Y0297076D01*
X0229335Y0306013D01*
X0229020Y0306328D01*
X0231815Y0314792D02*
X0231815Y0323335D01*
X0232150Y0323000D01*
X0244572Y0323000D01*
X0244572Y0325500D02*
X0240792Y0325500D01*
X0239689Y0326603D01*
X0239689Y0339792D01*
X0246776Y0346879D01*
X0239689Y0346485D02*
X0239689Y0346288D01*
X0231815Y0346288D01*
X0231815Y0330816D01*
X0231815Y0330540D01*
X0244572Y0330600D02*
X0245654Y0330600D01*
X0255437Y0340383D01*
X0255437Y0346524D01*
X0255791Y0346879D01*
X0255791Y0348611D01*
X0259374Y0352194D01*
X0281028Y0352194D01*
X0294807Y0338414D01*
X0296776Y0338414D01*
X0305437Y0347076D01*
X0318272Y0347076D01*
X0325752Y0347076D02*
X0325949Y0346879D01*
X0338035Y0346879D01*
X0338114Y0346957D01*
X0338114Y0354162D01*
X0345988Y0352194D02*
X0345988Y0347351D01*
X0345516Y0346879D01*
X0345988Y0352194D02*
X0347957Y0354162D01*
X0403075Y0354162D01*
X0407012Y0350225D01*
X0407012Y0331328D01*
X0408114Y0332430D01*
X0433783Y0332430D01*
X0433783Y0322430D02*
X0433783Y0322312D01*
X0415043Y0303572D01*
X0415043Y0299202D01*
X0408980Y0293139D01*
X0357248Y0293139D01*
X0342681Y0307706D01*
X0351619Y0310539D02*
X0367013Y0310539D01*
X0367091Y0310461D01*
X0372760Y0310461D01*
X0378272Y0304950D01*
X0401106Y0304950D01*
X0402484Y0303572D01*
X0407563Y0303572D01*
X0408980Y0316761D02*
X0400909Y0316761D01*
X0393429Y0316761D02*
X0392308Y0315639D01*
X0384413Y0315639D01*
X0385358Y0316585D01*
X0385358Y0320698D01*
X0387327Y0332509D02*
X0378862Y0332509D01*
X0375516Y0338414D02*
X0373547Y0340383D01*
X0373547Y0344320D01*
X0369747Y0348120D01*
X0366816Y0348120D01*
X0356520Y0348120D01*
X0345437Y0337036D01*
X0338114Y0336879D02*
X0338114Y0334477D01*
X0342051Y0330540D01*
X0349925Y0330540D01*
X0353862Y0334477D01*
X0353862Y0340383D01*
X0359099Y0345620D01*
X0366816Y0345620D01*
X0366816Y0343020D02*
X0362405Y0343020D01*
X0359768Y0340383D01*
X0359768Y0338414D01*
X0363705Y0332509D02*
X0371382Y0332509D01*
X0366816Y0337075D01*
X0366816Y0340520D01*
X0375516Y0338414D02*
X0383390Y0338414D01*
X0385358Y0336446D01*
X0394413Y0336446D01*
X0399531Y0331328D01*
X0401106Y0340383D02*
X0394256Y0340383D01*
X0393232Y0341406D01*
X0384353Y0348257D02*
X0384216Y0348120D01*
X0367013Y0315639D02*
X0358920Y0315639D01*
X0355831Y0318729D01*
X0353546Y0313139D02*
X0349925Y0316761D01*
X0349925Y0322666D01*
X0347957Y0324635D01*
X0338114Y0324635D01*
X0336146Y0322666D01*
X0336146Y0320107D01*
X0335358Y0319320D01*
X0323902Y0319320D01*
X0323705Y0319517D01*
X0316224Y0319517D02*
X0316224Y0326839D01*
X0314492Y0328572D01*
X0311343Y0337233D02*
X0319531Y0337233D01*
X0327012Y0337233D02*
X0327209Y0337036D01*
X0337957Y0337036D01*
X0338114Y0336879D01*
X0342839Y0319320D02*
X0351619Y0310539D01*
X0353546Y0313139D02*
X0367013Y0313139D01*
X0367013Y0308039D02*
X0367013Y0301839D01*
X0369807Y0299044D01*
X0361736Y0299044D01*
X0347957Y0275422D02*
X0345988Y0273454D01*
X0345988Y0268611D01*
X0345516Y0268139D01*
X0338114Y0268217D02*
X0338114Y0275422D01*
X0338114Y0268217D02*
X0338035Y0268139D01*
X0325949Y0268139D01*
X0325752Y0268335D01*
X0318272Y0268335D02*
X0305437Y0268335D01*
X0296776Y0259674D01*
X0294807Y0259674D01*
X0281028Y0273454D01*
X0259374Y0273454D01*
X0255791Y0269871D01*
X0255791Y0268139D01*
X0255437Y0267784D01*
X0255437Y0261643D01*
X0245654Y0251860D01*
X0244572Y0251860D01*
X0244572Y0249360D02*
X0249060Y0249360D01*
X0249531Y0249831D01*
X0249531Y0240619D01*
X0236500Y0227587D01*
X0238783Y0220304D02*
X0247563Y0220304D01*
X0261972Y0234713D01*
X0261972Y0244260D01*
X0261972Y0246760D02*
X0280556Y0246760D01*
X0295161Y0232154D01*
X0303823Y0240816D01*
X0305083Y0240816D01*
X0316933Y0228965D01*
X0324413Y0228965D02*
X0335201Y0228965D01*
X0336146Y0228020D01*
X0336146Y0222272D01*
X0342681Y0228965D02*
X0357248Y0214398D01*
X0408980Y0214398D01*
X0415043Y0220461D01*
X0415043Y0224831D01*
X0433783Y0243572D01*
X0433783Y0243690D01*
X0433783Y0253690D02*
X0408114Y0253690D01*
X0407012Y0252587D01*
X0407012Y0271485D01*
X0403075Y0275422D01*
X0347957Y0275422D01*
X0356520Y0269380D02*
X0366816Y0269380D01*
X0369747Y0269380D01*
X0373547Y0265580D01*
X0373547Y0261643D01*
X0375516Y0259674D01*
X0383390Y0259674D01*
X0385358Y0257706D01*
X0394413Y0257706D01*
X0399531Y0252587D01*
X0401106Y0261643D02*
X0394256Y0261643D01*
X0393232Y0262666D01*
X0387327Y0253769D02*
X0378862Y0253769D01*
X0371382Y0253769D02*
X0363705Y0253769D01*
X0366816Y0258335D02*
X0366816Y0261780D01*
X0366816Y0264280D02*
X0362405Y0264280D01*
X0359768Y0261643D01*
X0359768Y0259674D01*
X0353862Y0261643D02*
X0353862Y0255737D01*
X0349925Y0251800D01*
X0342051Y0251800D01*
X0338114Y0255737D01*
X0338114Y0258139D01*
X0337957Y0258296D01*
X0327209Y0258296D01*
X0327012Y0258493D01*
X0319531Y0258493D02*
X0311343Y0258493D01*
X0304650Y0251800D01*
X0304650Y0241643D01*
X0303823Y0240816D01*
X0316224Y0240776D02*
X0316224Y0248099D01*
X0314492Y0249831D01*
X0323705Y0240776D02*
X0323902Y0240580D01*
X0335358Y0240580D01*
X0336146Y0241367D01*
X0336146Y0243926D01*
X0338114Y0245894D01*
X0347957Y0245894D01*
X0349925Y0243926D01*
X0349925Y0238020D01*
X0353546Y0234399D01*
X0367013Y0234399D01*
X0367013Y0236899D02*
X0358920Y0236899D01*
X0355831Y0239989D01*
X0351619Y0231799D02*
X0367013Y0231799D01*
X0367091Y0231721D01*
X0372760Y0231721D01*
X0378272Y0226209D01*
X0401106Y0226209D01*
X0402484Y0224831D01*
X0407563Y0224831D01*
X0408980Y0238020D02*
X0400909Y0238020D01*
X0393429Y0238020D02*
X0392308Y0236899D01*
X0384413Y0236899D01*
X0385358Y0237845D01*
X0385358Y0241957D01*
X0371382Y0253769D02*
X0366816Y0258335D01*
X0366816Y0266880D02*
X0359099Y0266880D01*
X0353862Y0261643D01*
X0356520Y0269380D02*
X0345437Y0258296D01*
X0342839Y0240580D02*
X0351619Y0231799D01*
X0361736Y0220304D02*
X0369807Y0220304D01*
X0367013Y0223098D01*
X0367013Y0229299D01*
X0377287Y0220304D02*
X0385358Y0220304D01*
X0403075Y0196682D02*
X0407012Y0192745D01*
X0407012Y0173847D01*
X0408114Y0174950D01*
X0433783Y0174950D01*
X0433783Y0164950D02*
X0433783Y0164831D01*
X0415043Y0146091D01*
X0415043Y0141721D01*
X0408980Y0135658D01*
X0357248Y0135658D01*
X0342681Y0150225D01*
X0351619Y0153059D02*
X0342839Y0161839D01*
X0338114Y0167154D02*
X0347957Y0167154D01*
X0349925Y0165186D01*
X0349925Y0159280D01*
X0353546Y0155659D01*
X0367013Y0155659D01*
X0367013Y0158159D02*
X0358920Y0158159D01*
X0355831Y0161249D01*
X0351619Y0153059D02*
X0367013Y0153059D01*
X0367091Y0152981D01*
X0372760Y0152981D01*
X0378272Y0147469D01*
X0401106Y0147469D01*
X0402484Y0146091D01*
X0407563Y0146091D01*
X0408980Y0159280D02*
X0400909Y0159280D01*
X0393429Y0159280D02*
X0392308Y0158159D01*
X0384413Y0158159D01*
X0385358Y0159105D01*
X0385358Y0163217D01*
X0387327Y0175028D02*
X0378862Y0175028D01*
X0375516Y0180934D02*
X0373547Y0182902D01*
X0373547Y0186839D01*
X0369747Y0190639D01*
X0366816Y0190639D01*
X0356520Y0190639D01*
X0345437Y0179556D01*
X0338114Y0179398D02*
X0338114Y0176997D01*
X0342051Y0173060D01*
X0349925Y0173060D01*
X0353862Y0176997D01*
X0353862Y0182902D01*
X0359099Y0188139D01*
X0366816Y0188139D01*
X0366816Y0185539D02*
X0362405Y0185539D01*
X0359768Y0182902D01*
X0359768Y0180934D01*
X0363705Y0175028D02*
X0371382Y0175028D01*
X0366816Y0179594D01*
X0366816Y0183039D01*
X0375516Y0180934D02*
X0383390Y0180934D01*
X0385358Y0178965D01*
X0394413Y0178965D01*
X0399531Y0173847D01*
X0401106Y0182902D02*
X0394256Y0182902D01*
X0393232Y0183926D01*
X0384353Y0190776D02*
X0384216Y0190639D01*
X0403075Y0196682D02*
X0347957Y0196682D01*
X0345988Y0194713D01*
X0345988Y0189871D01*
X0345516Y0189398D01*
X0338114Y0189477D02*
X0338114Y0196682D01*
X0338114Y0189477D02*
X0338035Y0189398D01*
X0325949Y0189398D01*
X0325752Y0189595D01*
X0318272Y0189595D02*
X0305437Y0189595D01*
X0296776Y0180934D01*
X0294807Y0180934D01*
X0281028Y0194713D01*
X0259374Y0194713D01*
X0255791Y0191131D01*
X0255791Y0189398D01*
X0255437Y0189044D01*
X0255437Y0182902D01*
X0245654Y0173120D01*
X0244572Y0173120D01*
X0244572Y0170620D02*
X0249060Y0170620D01*
X0249531Y0171091D01*
X0249531Y0161879D01*
X0236500Y0148847D01*
X0238783Y0141564D02*
X0247563Y0141564D01*
X0261972Y0155972D01*
X0261972Y0165520D01*
X0261972Y0168020D02*
X0280556Y0168020D01*
X0295161Y0153414D01*
X0303823Y0162076D01*
X0305083Y0162076D01*
X0316933Y0150225D01*
X0316224Y0162036D02*
X0316224Y0169359D01*
X0314492Y0171091D01*
X0311343Y0179753D02*
X0319531Y0179753D01*
X0327012Y0179753D02*
X0327209Y0179556D01*
X0337957Y0179556D01*
X0338114Y0179398D01*
X0338114Y0167154D02*
X0336146Y0165186D01*
X0336146Y0162627D01*
X0335358Y0161839D01*
X0323902Y0161839D01*
X0323705Y0162036D01*
X0324413Y0150225D02*
X0335201Y0150225D01*
X0336146Y0149280D01*
X0336146Y0143532D01*
X0361736Y0141564D02*
X0369807Y0141564D01*
X0367013Y0144358D01*
X0367013Y0150559D01*
X0377287Y0141564D02*
X0385358Y0141564D01*
X0311343Y0179753D02*
X0304650Y0173060D01*
X0304650Y0162902D01*
X0303823Y0162076D01*
X0295004Y0173887D02*
X0294807Y0174083D01*
X0294807Y0180934D01*
X0281028Y0180776D02*
X0280870Y0180934D01*
X0273154Y0180934D01*
X0269217Y0173060D02*
X0280791Y0173060D01*
X0281028Y0173296D01*
X0269217Y0173060D02*
X0262031Y0173060D01*
X0261972Y0173120D01*
X0261972Y0170620D02*
X0261972Y0168020D01*
X0249531Y0171091D02*
X0263311Y0184871D01*
X0263311Y0189359D01*
X0263272Y0189398D01*
X0246776Y0189398D02*
X0239689Y0182312D01*
X0239689Y0169123D01*
X0240792Y0168020D01*
X0244572Y0168020D01*
X0244572Y0165520D02*
X0232150Y0165520D01*
X0231815Y0165855D01*
X0231815Y0157312D01*
X0229020Y0148847D02*
X0229335Y0148532D01*
X0229335Y0139595D01*
X0227327Y0141603D01*
X0209807Y0141603D01*
X0209807Y0153729D01*
X0206224Y0157312D01*
X0206224Y0171091D01*
X0204256Y0173060D01*
X0195025Y0173060D01*
X0194965Y0173120D01*
X0184511Y0173120D01*
X0174728Y0182902D01*
X0157563Y0182902D01*
X0157287Y0182627D01*
X0160949Y0190776D02*
X0125831Y0190776D01*
X0125161Y0191446D01*
X0114689Y0191446D01*
X0114059Y0192076D01*
X0114059Y0184595D02*
X0105201Y0184595D01*
X0100634Y0189162D01*
X0088114Y0178965D02*
X0095653Y0171427D01*
X0095653Y0166133D01*
X0095653Y0164233D02*
X0095684Y0164202D01*
X0102878Y0164202D01*
X0108783Y0160265D02*
X0105831Y0157312D01*
X0108783Y0160265D02*
X0113221Y0160265D01*
X0113253Y0160233D01*
X0113253Y0158333D02*
X0113705Y0157881D01*
X0113705Y0153375D01*
X0119610Y0159280D02*
X0116657Y0162233D01*
X0113253Y0162233D01*
X0113284Y0164202D02*
X0121579Y0164202D01*
X0119610Y0159280D02*
X0124413Y0159280D01*
X0127839Y0155855D01*
X0127839Y0172312D01*
X0127366Y0172784D01*
X0126224Y0182902D02*
X0133390Y0182902D01*
X0126224Y0182902D02*
X0125161Y0183965D01*
X0114059Y0184595D02*
X0113253Y0183789D01*
X0113253Y0166133D01*
X0113253Y0164233D02*
X0113284Y0164202D01*
X0095653Y0162233D02*
X0090083Y0162233D01*
X0084650Y0167666D01*
X0082799Y0167666D01*
X0082445Y0160540D02*
X0072366Y0160540D01*
X0062957Y0160540D01*
X0062524Y0160107D01*
X0062524Y0149438D01*
X0062524Y0167587D02*
X0062524Y0176997D01*
X0068429Y0176997D01*
X0070398Y0178965D01*
X0072366Y0176997D01*
X0072366Y0168020D01*
X0077878Y0178965D02*
X0088114Y0178965D01*
X0082445Y0160540D02*
X0082799Y0160186D01*
X0082846Y0160233D01*
X0095653Y0160233D01*
X0095653Y0158333D02*
X0095594Y0158275D01*
X0095594Y0149044D01*
X0095988Y0228178D02*
X0095988Y0236738D01*
X0095653Y0237073D01*
X0095594Y0237015D01*
X0095653Y0238973D02*
X0082846Y0238973D01*
X0082799Y0238926D01*
X0082445Y0239280D01*
X0072366Y0239280D01*
X0062957Y0239280D01*
X0062524Y0238847D01*
X0062524Y0228178D01*
X0062524Y0246328D02*
X0062524Y0255737D01*
X0068429Y0255737D01*
X0070398Y0257706D01*
X0072366Y0255737D01*
X0072366Y0246761D01*
X0077878Y0257706D02*
X0088114Y0257706D01*
X0095653Y0250167D01*
X0095653Y0244873D01*
X0095653Y0242973D02*
X0095684Y0242942D01*
X0102878Y0242942D01*
X0108783Y0239005D02*
X0105831Y0236052D01*
X0108783Y0239005D02*
X0113221Y0239005D01*
X0113253Y0238973D01*
X0113253Y0237073D02*
X0113705Y0236621D01*
X0113705Y0232115D01*
X0119610Y0238020D02*
X0116657Y0240973D01*
X0113253Y0240973D01*
X0113284Y0242942D02*
X0121579Y0242942D01*
X0119610Y0238020D02*
X0124413Y0238020D01*
X0127839Y0234595D01*
X0127839Y0251052D01*
X0127366Y0251524D01*
X0126224Y0261643D02*
X0133390Y0261643D01*
X0126224Y0261643D02*
X0125161Y0262706D01*
X0125831Y0269517D02*
X0160949Y0269517D01*
X0157563Y0261643D02*
X0174728Y0261643D01*
X0184511Y0251860D01*
X0194965Y0251860D01*
X0195025Y0251800D01*
X0204256Y0251800D01*
X0206224Y0249831D01*
X0206224Y0236052D01*
X0209807Y0232469D01*
X0209807Y0220343D01*
X0227327Y0220343D01*
X0229335Y0218335D01*
X0229335Y0227272D01*
X0229020Y0227587D01*
X0231815Y0236052D02*
X0231815Y0244595D01*
X0232150Y0244260D01*
X0244572Y0244260D01*
X0244572Y0246760D02*
X0240792Y0246760D01*
X0239689Y0247863D01*
X0239689Y0261052D01*
X0246776Y0268139D01*
X0239689Y0267745D02*
X0239689Y0267548D01*
X0231815Y0267548D01*
X0231815Y0252076D01*
X0231815Y0251800D01*
X0221972Y0261643D02*
X0221972Y0267509D01*
X0222602Y0268139D01*
X0221972Y0261643D02*
X0218035Y0257706D01*
X0218035Y0255737D01*
X0215122Y0268139D02*
X0213744Y0269517D01*
X0202287Y0269517D01*
X0194413Y0269517D01*
X0193823Y0268926D01*
X0186343Y0268926D02*
X0185752Y0269517D01*
X0176697Y0269517D01*
X0170791Y0253769D02*
X0177800Y0246760D01*
X0194965Y0246760D01*
X0194965Y0244260D02*
X0190694Y0239989D01*
X0188508Y0239989D01*
X0190161Y0230225D02*
X0189295Y0229359D01*
X0189295Y0225028D01*
X0178665Y0214398D01*
X0154256Y0214398D01*
X0147287Y0221367D01*
X0172760Y0228178D02*
X0180634Y0228178D01*
X0181815Y0229359D01*
X0190476Y0230146D02*
X0196382Y0230146D01*
X0202287Y0236052D01*
X0202287Y0245894D01*
X0198822Y0249360D01*
X0194965Y0249360D01*
X0178665Y0293139D02*
X0189295Y0303769D01*
X0189295Y0308099D01*
X0190161Y0308965D01*
X0190476Y0308887D02*
X0196382Y0308887D01*
X0202287Y0314792D01*
X0202287Y0324635D01*
X0198822Y0328100D01*
X0194965Y0328100D01*
X0194965Y0325500D02*
X0177800Y0325500D01*
X0170791Y0332509D01*
X0157563Y0340383D02*
X0157287Y0340107D01*
X0176697Y0348257D02*
X0185752Y0348257D01*
X0186343Y0347666D01*
X0193823Y0347666D02*
X0194413Y0348257D01*
X0202287Y0348257D01*
X0213744Y0348257D01*
X0215122Y0346879D01*
X0221972Y0340383D02*
X0218035Y0336446D01*
X0218035Y0334477D01*
X0221972Y0340383D02*
X0221972Y0346249D01*
X0222602Y0346879D01*
X0239295Y0346879D02*
X0239689Y0346485D01*
X0244572Y0328100D02*
X0249060Y0328100D01*
X0249531Y0328572D01*
X0249531Y0319359D01*
X0236500Y0306328D01*
X0238783Y0299044D02*
X0247563Y0299044D01*
X0261972Y0313453D01*
X0261972Y0323000D01*
X0261972Y0325500D02*
X0280556Y0325500D01*
X0295161Y0310894D01*
X0303823Y0319556D01*
X0305083Y0319556D01*
X0316933Y0307706D01*
X0324413Y0307706D02*
X0335201Y0307706D01*
X0336146Y0306761D01*
X0336146Y0301013D01*
X0304650Y0330540D02*
X0311343Y0337233D01*
X0304650Y0330540D02*
X0304650Y0320383D01*
X0303823Y0319556D01*
X0295004Y0331367D02*
X0294807Y0331564D01*
X0294807Y0338414D01*
X0281028Y0338257D02*
X0280870Y0338414D01*
X0273154Y0338414D01*
X0269217Y0330540D02*
X0280791Y0330540D01*
X0281028Y0330776D01*
X0269217Y0330540D02*
X0262031Y0330540D01*
X0261972Y0330600D01*
X0261972Y0328100D02*
X0261972Y0325500D01*
X0249531Y0328572D02*
X0263311Y0342351D01*
X0263311Y0346839D01*
X0263272Y0346879D01*
X0238783Y0299044D02*
X0236815Y0297076D01*
X0239295Y0268139D02*
X0239689Y0267745D01*
X0249531Y0249831D02*
X0263311Y0263611D01*
X0263311Y0268099D01*
X0263272Y0268139D01*
X0273154Y0259674D02*
X0280870Y0259674D01*
X0281028Y0259517D01*
X0281028Y0252036D02*
X0280791Y0251800D01*
X0269217Y0251800D01*
X0262031Y0251800D01*
X0261972Y0251860D01*
X0261972Y0249360D02*
X0261972Y0246760D01*
X0238783Y0220304D02*
X0236815Y0218335D01*
X0239295Y0189398D02*
X0239689Y0189005D01*
X0239689Y0188808D01*
X0231815Y0188808D01*
X0231815Y0173335D01*
X0231815Y0173060D01*
X0221972Y0182902D02*
X0221972Y0188769D01*
X0222602Y0189398D01*
X0221972Y0182902D02*
X0218035Y0178965D01*
X0218035Y0176997D01*
X0215122Y0189398D02*
X0213744Y0190776D01*
X0202287Y0190776D01*
X0194413Y0190776D01*
X0193823Y0190186D01*
X0186343Y0190186D02*
X0185752Y0190776D01*
X0176697Y0190776D01*
X0170791Y0175028D02*
X0177800Y0168020D01*
X0194965Y0168020D01*
X0194965Y0165520D02*
X0190694Y0161249D01*
X0188508Y0161249D01*
X0190161Y0151485D02*
X0189295Y0150619D01*
X0189295Y0146288D01*
X0178665Y0135658D01*
X0154256Y0135658D01*
X0147287Y0142627D01*
X0172760Y0149438D02*
X0180634Y0149438D01*
X0181815Y0150619D01*
X0190476Y0151406D02*
X0196382Y0151406D01*
X0202287Y0157312D01*
X0202287Y0167154D01*
X0198822Y0170620D01*
X0194965Y0170620D01*
X0236815Y0139595D02*
X0238783Y0141564D01*
X0295004Y0252627D02*
X0294807Y0252824D01*
X0294807Y0259674D01*
X0377287Y0299044D02*
X0385358Y0299044D01*
X0384353Y0269517D02*
X0384216Y0269380D01*
X0359810Y0434882D02*
X0339897Y0434882D01*
X0339886Y0434871D01*
X0332406Y0434871D02*
X0332406Y0456918D01*
X0333980Y0458493D01*
X0342248Y0458493D02*
X0342259Y0458482D01*
X0359810Y0458482D01*
X0357248Y0486052D02*
X0408980Y0486052D01*
X0415043Y0492115D01*
X0415043Y0496485D01*
X0433783Y0515225D01*
X0433783Y0515343D01*
X0433783Y0525343D02*
X0408114Y0525343D01*
X0407012Y0524241D01*
X0407012Y0543139D01*
X0403075Y0547076D01*
X0347957Y0547076D01*
X0345988Y0545107D01*
X0345988Y0540265D01*
X0345516Y0539792D01*
X0338114Y0539871D02*
X0338114Y0547076D01*
X0338114Y0539871D02*
X0338035Y0539792D01*
X0325949Y0539792D01*
X0325752Y0539989D01*
X0318272Y0539989D02*
X0305437Y0539989D01*
X0296776Y0531328D01*
X0294807Y0531328D01*
X0281028Y0545107D01*
X0259374Y0545107D01*
X0255791Y0541524D01*
X0255791Y0539792D01*
X0255437Y0539438D01*
X0255437Y0533296D01*
X0245654Y0523513D01*
X0244572Y0523513D01*
X0244572Y0521013D02*
X0249060Y0521013D01*
X0249531Y0521485D01*
X0249531Y0512272D01*
X0236500Y0499241D01*
X0238783Y0491957D02*
X0247563Y0491957D01*
X0261972Y0506366D01*
X0261972Y0515913D01*
X0261972Y0518413D02*
X0280556Y0518413D01*
X0295161Y0503808D01*
X0303823Y0512469D01*
X0305083Y0512469D01*
X0316933Y0500619D01*
X0324413Y0500619D02*
X0335201Y0500619D01*
X0336146Y0499674D01*
X0336146Y0493926D01*
X0342681Y0500619D02*
X0357248Y0486052D01*
X0361736Y0491957D02*
X0369807Y0491957D01*
X0367013Y0494752D01*
X0367013Y0500953D01*
X0367091Y0503375D02*
X0372760Y0503375D01*
X0378272Y0497863D01*
X0401106Y0497863D01*
X0402484Y0496485D01*
X0407563Y0496485D01*
X0408980Y0509674D02*
X0400909Y0509674D01*
X0393429Y0509674D02*
X0392308Y0508553D01*
X0384413Y0508553D01*
X0385358Y0509498D01*
X0385358Y0513611D01*
X0387327Y0525422D02*
X0378862Y0525422D01*
X0375516Y0531328D02*
X0373547Y0533296D01*
X0373547Y0537233D01*
X0369747Y0541033D01*
X0366816Y0541033D01*
X0356520Y0541033D01*
X0345437Y0529950D01*
X0338114Y0529792D02*
X0338114Y0527391D01*
X0342051Y0523454D01*
X0349925Y0523454D01*
X0353862Y0527391D01*
X0353862Y0533296D01*
X0359099Y0538533D01*
X0366816Y0538533D01*
X0366816Y0535933D02*
X0362405Y0535933D01*
X0359768Y0533296D01*
X0359768Y0531328D01*
X0363705Y0525422D02*
X0371382Y0525422D01*
X0366816Y0529988D01*
X0366816Y0533433D01*
X0375516Y0531328D02*
X0383390Y0531328D01*
X0385358Y0529359D01*
X0394413Y0529359D01*
X0399531Y0524241D01*
X0401106Y0533296D02*
X0394256Y0533296D01*
X0393232Y0534320D01*
X0384353Y0541170D02*
X0384216Y0541033D01*
X0385358Y0570698D02*
X0377287Y0570698D01*
X0378272Y0576603D02*
X0401106Y0576603D01*
X0402484Y0575225D01*
X0407563Y0575225D01*
X0415043Y0575225D02*
X0433783Y0593965D01*
X0433783Y0594083D01*
X0433783Y0604083D02*
X0408114Y0604083D01*
X0407012Y0602981D01*
X0407012Y0621879D01*
X0403075Y0625816D01*
X0347957Y0625816D01*
X0345988Y0623847D01*
X0345988Y0619005D01*
X0345516Y0618532D01*
X0338114Y0618611D02*
X0338114Y0625816D01*
X0338114Y0618611D02*
X0338035Y0618532D01*
X0325949Y0618532D01*
X0325752Y0618729D01*
X0318272Y0618729D02*
X0305437Y0618729D01*
X0296776Y0610068D01*
X0294807Y0610068D01*
X0281028Y0623847D01*
X0259374Y0623847D01*
X0255791Y0620265D01*
X0255791Y0618532D01*
X0255437Y0618178D01*
X0255437Y0612036D01*
X0245654Y0602254D01*
X0244572Y0602254D01*
X0244572Y0599754D02*
X0249060Y0599754D01*
X0249531Y0600225D01*
X0249531Y0591013D01*
X0236500Y0577981D01*
X0238783Y0570698D02*
X0247563Y0570698D01*
X0261972Y0585106D01*
X0261972Y0594654D01*
X0261972Y0597154D02*
X0280556Y0597154D01*
X0295161Y0582548D01*
X0303823Y0591209D01*
X0305083Y0591209D01*
X0316933Y0579359D01*
X0316224Y0591170D02*
X0316224Y0598493D01*
X0314492Y0600225D01*
X0311343Y0608887D02*
X0319531Y0608887D01*
X0327012Y0608887D02*
X0327209Y0608690D01*
X0337957Y0608690D01*
X0338114Y0608532D01*
X0338114Y0606131D01*
X0342051Y0602194D01*
X0349925Y0602194D01*
X0353862Y0606131D01*
X0353862Y0612036D01*
X0359099Y0617273D01*
X0366816Y0617273D01*
X0366816Y0619773D02*
X0356520Y0619773D01*
X0345437Y0608690D01*
X0347957Y0596288D02*
X0338114Y0596288D01*
X0336146Y0594320D01*
X0336146Y0591761D01*
X0335358Y0590973D01*
X0323902Y0590973D01*
X0323705Y0591170D01*
X0324413Y0579359D02*
X0335201Y0579359D01*
X0336146Y0578414D01*
X0336146Y0572666D01*
X0342681Y0579359D02*
X0357248Y0564792D01*
X0408980Y0564792D01*
X0415043Y0570855D01*
X0415043Y0575225D01*
X0408980Y0588414D02*
X0400909Y0588414D01*
X0393429Y0588414D02*
X0392308Y0587293D01*
X0384413Y0587293D01*
X0385358Y0588239D01*
X0385358Y0592351D01*
X0387327Y0604162D02*
X0378862Y0604162D01*
X0375516Y0610068D02*
X0373547Y0612036D01*
X0373547Y0615973D01*
X0369747Y0619773D01*
X0366816Y0619773D01*
X0366816Y0614673D02*
X0362405Y0614673D01*
X0359768Y0612036D01*
X0359768Y0610068D01*
X0363705Y0604162D02*
X0371382Y0604162D01*
X0366816Y0608728D01*
X0366816Y0612173D01*
X0375516Y0610068D02*
X0383390Y0610068D01*
X0385358Y0608099D01*
X0394413Y0608099D01*
X0399531Y0602981D01*
X0401106Y0612036D02*
X0394256Y0612036D01*
X0393232Y0613060D01*
X0384353Y0619910D02*
X0384216Y0619773D01*
X0385358Y0649438D02*
X0377287Y0649438D01*
X0378272Y0655343D02*
X0401106Y0655343D01*
X0402484Y0653965D01*
X0407563Y0653965D01*
X0415043Y0653965D02*
X0415043Y0649595D01*
X0408980Y0643532D01*
X0357248Y0643532D01*
X0342681Y0658099D01*
X0351619Y0660933D02*
X0367013Y0660933D01*
X0367091Y0660855D01*
X0372760Y0660855D01*
X0378272Y0655343D01*
X0369807Y0649438D02*
X0367013Y0652232D01*
X0367013Y0658433D01*
X0367013Y0663533D02*
X0353546Y0663533D01*
X0349925Y0667154D01*
X0349925Y0673060D01*
X0347957Y0675028D01*
X0338114Y0675028D01*
X0336146Y0673060D01*
X0336146Y0670501D01*
X0335358Y0669713D01*
X0323902Y0669713D01*
X0323705Y0669910D01*
X0316224Y0669910D02*
X0316224Y0677233D01*
X0314492Y0678965D01*
X0311343Y0687627D02*
X0319531Y0687627D01*
X0327012Y0687627D02*
X0327209Y0687430D01*
X0337957Y0687430D01*
X0338114Y0687272D01*
X0338114Y0684871D01*
X0342051Y0680934D01*
X0349925Y0680934D01*
X0353862Y0684871D01*
X0353862Y0690776D01*
X0359099Y0696013D01*
X0366816Y0696013D01*
X0366816Y0698513D02*
X0356520Y0698513D01*
X0345437Y0687430D01*
X0345516Y0697272D02*
X0345988Y0697745D01*
X0345988Y0702587D01*
X0347957Y0704556D01*
X0403075Y0704556D01*
X0407012Y0700619D01*
X0407012Y0681721D01*
X0408114Y0682824D01*
X0433783Y0682824D01*
X0433783Y0672824D02*
X0433783Y0672706D01*
X0415043Y0653965D01*
X0408980Y0667154D02*
X0400909Y0667154D01*
X0393429Y0667154D02*
X0392308Y0666033D01*
X0384413Y0666033D01*
X0385358Y0666979D01*
X0385358Y0671091D01*
X0387327Y0682902D02*
X0378862Y0682902D01*
X0375516Y0688808D02*
X0373547Y0690776D01*
X0373547Y0694713D01*
X0369747Y0698513D01*
X0366816Y0698513D01*
X0366816Y0693413D02*
X0362405Y0693413D01*
X0359768Y0690776D01*
X0359768Y0688808D01*
X0363705Y0682902D02*
X0371382Y0682902D01*
X0366816Y0687469D01*
X0366816Y0690913D01*
X0375516Y0688808D02*
X0383390Y0688808D01*
X0385358Y0686839D01*
X0394413Y0686839D01*
X0399531Y0681721D01*
X0401106Y0690776D02*
X0394256Y0690776D01*
X0393232Y0691800D01*
X0384353Y0698650D02*
X0384216Y0698513D01*
X0367013Y0666033D02*
X0358920Y0666033D01*
X0355831Y0669123D01*
X0351619Y0660933D02*
X0342839Y0669713D01*
X0335201Y0658099D02*
X0336146Y0657154D01*
X0336146Y0651406D01*
X0335201Y0658099D02*
X0324413Y0658099D01*
X0316933Y0658099D02*
X0305083Y0669950D01*
X0303823Y0669950D01*
X0304650Y0670776D01*
X0304650Y0680934D01*
X0311343Y0687627D01*
X0305437Y0697469D02*
X0296776Y0688808D01*
X0294807Y0688808D01*
X0281028Y0702587D01*
X0259374Y0702587D01*
X0255791Y0699005D01*
X0255791Y0697272D01*
X0255437Y0696918D01*
X0255437Y0690776D01*
X0245654Y0680994D01*
X0244572Y0680994D01*
X0244572Y0678494D02*
X0249060Y0678494D01*
X0249531Y0678965D01*
X0249531Y0669753D01*
X0236500Y0656721D01*
X0238783Y0649438D02*
X0247563Y0649438D01*
X0261972Y0663846D01*
X0261972Y0673394D01*
X0261972Y0675894D02*
X0280556Y0675894D01*
X0295161Y0661288D01*
X0303823Y0669950D01*
X0295004Y0681761D02*
X0294807Y0681957D01*
X0294807Y0688808D01*
X0305437Y0697469D02*
X0318272Y0697469D01*
X0325752Y0697469D02*
X0325949Y0697272D01*
X0338035Y0697272D01*
X0338114Y0697351D01*
X0338114Y0704556D01*
X0361736Y0649438D02*
X0369807Y0649438D01*
X0347957Y0596288D02*
X0349925Y0594320D01*
X0349925Y0588414D01*
X0353546Y0584793D01*
X0367013Y0584793D01*
X0367013Y0587293D02*
X0358920Y0587293D01*
X0355831Y0590383D01*
X0351619Y0582193D02*
X0367013Y0582193D01*
X0367091Y0582115D01*
X0372760Y0582115D01*
X0378272Y0576603D01*
X0369807Y0570698D02*
X0367013Y0573492D01*
X0367013Y0579693D01*
X0369807Y0570698D02*
X0361736Y0570698D01*
X0351619Y0582193D02*
X0342839Y0590973D01*
X0311343Y0608887D02*
X0304650Y0602194D01*
X0304650Y0592036D01*
X0303823Y0591209D01*
X0295004Y0603020D02*
X0294807Y0603217D01*
X0294807Y0610068D01*
X0281028Y0609910D02*
X0280870Y0610068D01*
X0273154Y0610068D01*
X0269217Y0602194D02*
X0280791Y0602194D01*
X0281028Y0602430D01*
X0269217Y0602194D02*
X0262031Y0602194D01*
X0261972Y0602254D01*
X0261972Y0599754D02*
X0261972Y0597154D01*
X0249531Y0600225D02*
X0263311Y0614005D01*
X0263311Y0618493D01*
X0263272Y0618532D01*
X0246776Y0618532D02*
X0239689Y0611446D01*
X0239689Y0598257D01*
X0240792Y0597154D01*
X0244572Y0597154D01*
X0244572Y0594654D02*
X0232150Y0594654D01*
X0231815Y0594989D01*
X0231815Y0586446D01*
X0229020Y0577981D02*
X0229335Y0577666D01*
X0229335Y0568729D01*
X0227327Y0570737D01*
X0209807Y0570737D01*
X0209807Y0582863D01*
X0206224Y0586446D01*
X0206224Y0600225D01*
X0204256Y0602194D01*
X0195025Y0602194D01*
X0194965Y0602254D01*
X0184511Y0602254D01*
X0174728Y0612036D01*
X0157563Y0612036D01*
X0157287Y0611761D01*
X0160949Y0619910D02*
X0125831Y0619910D01*
X0125161Y0620580D01*
X0114689Y0620580D01*
X0114059Y0621209D01*
X0114059Y0613729D02*
X0105201Y0613729D01*
X0100634Y0618296D01*
X0088114Y0608099D02*
X0095653Y0600561D01*
X0095653Y0595267D01*
X0095653Y0593367D02*
X0095684Y0593335D01*
X0102878Y0593335D01*
X0108783Y0589398D02*
X0105831Y0586446D01*
X0108783Y0589398D02*
X0113221Y0589398D01*
X0113253Y0589367D01*
X0113253Y0587467D02*
X0113705Y0587015D01*
X0113705Y0582509D01*
X0119610Y0588414D02*
X0116657Y0591367D01*
X0113253Y0591367D01*
X0113284Y0593335D02*
X0121579Y0593335D01*
X0119610Y0588414D02*
X0124413Y0588414D01*
X0127839Y0584989D01*
X0127839Y0601446D01*
X0127366Y0601918D01*
X0126224Y0612036D02*
X0133390Y0612036D01*
X0126224Y0612036D02*
X0125161Y0613099D01*
X0114059Y0613729D02*
X0113253Y0612923D01*
X0113253Y0595267D01*
X0113253Y0593367D02*
X0113284Y0593335D01*
X0095653Y0591367D02*
X0090083Y0591367D01*
X0084650Y0596800D01*
X0082799Y0596800D01*
X0082445Y0589674D02*
X0072366Y0589674D01*
X0062957Y0589674D01*
X0062524Y0589241D01*
X0062524Y0578572D01*
X0062524Y0596721D02*
X0062524Y0606131D01*
X0068429Y0606131D01*
X0070398Y0608099D01*
X0072366Y0606131D01*
X0072366Y0597154D01*
X0077878Y0608099D02*
X0088114Y0608099D01*
X0082445Y0589674D02*
X0082799Y0589320D01*
X0082846Y0589367D01*
X0095653Y0589367D01*
X0095653Y0587467D02*
X0095594Y0587409D01*
X0095594Y0580146D01*
X0092051Y0576603D01*
X0100634Y0539556D02*
X0105201Y0534989D01*
X0114059Y0534989D01*
X0113253Y0534183D01*
X0113253Y0516527D01*
X0113253Y0514627D02*
X0113284Y0514595D01*
X0121579Y0514595D01*
X0119610Y0509674D02*
X0116657Y0512627D01*
X0113253Y0512627D01*
X0113221Y0510658D02*
X0108783Y0510658D01*
X0105831Y0507706D01*
X0102878Y0514595D02*
X0095684Y0514595D01*
X0095653Y0514627D01*
X0095653Y0516527D02*
X0095653Y0521820D01*
X0088114Y0529359D01*
X0077878Y0529359D01*
X0072366Y0527391D02*
X0072366Y0518414D01*
X0072366Y0510934D02*
X0062957Y0510934D01*
X0062524Y0510501D01*
X0062524Y0499831D01*
X0072366Y0510934D02*
X0082445Y0510934D01*
X0082799Y0510580D01*
X0082846Y0510627D01*
X0095653Y0510627D01*
X0095653Y0508727D02*
X0095594Y0508669D01*
X0095594Y0502587D01*
X0095653Y0512627D02*
X0090083Y0512627D01*
X0084650Y0518060D01*
X0082799Y0518060D01*
X0072366Y0527391D02*
X0070398Y0529359D01*
X0068429Y0527391D01*
X0062524Y0527391D01*
X0062524Y0517981D01*
X0080240Y0488020D02*
X0107799Y0488020D01*
X0113705Y0493926D01*
X0113705Y0503769D01*
X0113705Y0508275D01*
X0113253Y0508727D01*
X0113253Y0510627D02*
X0113221Y0510658D01*
X0119610Y0509674D02*
X0124413Y0509674D01*
X0127839Y0506249D01*
X0127839Y0522706D01*
X0127366Y0523178D01*
X0126224Y0533296D02*
X0133390Y0533296D01*
X0126224Y0533296D02*
X0125161Y0534359D01*
X0125831Y0541170D02*
X0160949Y0541170D01*
X0157563Y0533296D02*
X0174728Y0533296D01*
X0184511Y0523513D01*
X0194965Y0523513D01*
X0195025Y0523454D01*
X0204256Y0523454D01*
X0206224Y0521485D01*
X0206224Y0507706D01*
X0209807Y0504123D01*
X0209807Y0491997D01*
X0227327Y0491997D01*
X0229335Y0489989D01*
X0229335Y0498926D01*
X0229020Y0499241D01*
X0231815Y0507706D02*
X0231815Y0516249D01*
X0232150Y0515913D01*
X0244572Y0515913D01*
X0244572Y0518413D02*
X0240792Y0518413D01*
X0239689Y0519517D01*
X0239689Y0532706D01*
X0246776Y0539792D01*
X0239689Y0539398D02*
X0239689Y0539202D01*
X0231815Y0539202D01*
X0231815Y0523729D01*
X0231815Y0523454D01*
X0221972Y0533296D02*
X0218035Y0529359D01*
X0218035Y0527391D01*
X0221972Y0533296D02*
X0221972Y0539162D01*
X0222602Y0539792D01*
X0215122Y0539792D02*
X0213744Y0541170D01*
X0202287Y0541170D01*
X0194413Y0541170D01*
X0193823Y0540580D01*
X0186343Y0540580D02*
X0185752Y0541170D01*
X0176697Y0541170D01*
X0170791Y0525422D02*
X0177800Y0518413D01*
X0194965Y0518413D01*
X0194965Y0515913D02*
X0190694Y0511643D01*
X0188508Y0511643D01*
X0194965Y0521013D02*
X0198822Y0521013D01*
X0202287Y0517548D01*
X0202287Y0507706D01*
X0196382Y0501800D01*
X0190476Y0501800D01*
X0190161Y0501879D02*
X0189295Y0501013D01*
X0189295Y0496682D01*
X0178665Y0486052D01*
X0154256Y0486052D01*
X0147287Y0493020D01*
X0172760Y0499831D02*
X0180634Y0499831D01*
X0181815Y0501013D01*
X0157287Y0533020D02*
X0157563Y0533296D01*
X0154256Y0564792D02*
X0178665Y0564792D01*
X0189295Y0575422D01*
X0189295Y0579753D01*
X0190161Y0580619D01*
X0190476Y0580540D02*
X0196382Y0580540D01*
X0202287Y0586446D01*
X0202287Y0596288D01*
X0198822Y0599754D01*
X0194965Y0599754D01*
X0194965Y0597154D02*
X0177800Y0597154D01*
X0170791Y0604162D01*
X0176697Y0619910D02*
X0185752Y0619910D01*
X0186343Y0619320D01*
X0193823Y0619320D02*
X0194413Y0619910D01*
X0202287Y0619910D01*
X0213744Y0619910D01*
X0215122Y0618532D01*
X0221972Y0612036D02*
X0218035Y0608099D01*
X0218035Y0606131D01*
X0221972Y0612036D02*
X0221972Y0617902D01*
X0222602Y0618532D01*
X0231815Y0617942D02*
X0231815Y0602469D01*
X0231815Y0602194D01*
X0231815Y0617942D02*
X0239689Y0617942D01*
X0239689Y0618139D01*
X0239295Y0618532D01*
X0236815Y0647469D02*
X0238783Y0649438D01*
X0229335Y0647469D02*
X0227327Y0649477D01*
X0209807Y0649477D01*
X0209807Y0661603D01*
X0206224Y0665186D01*
X0206224Y0678965D01*
X0204256Y0680934D01*
X0195025Y0680934D01*
X0194965Y0680994D01*
X0184511Y0680994D01*
X0174728Y0690776D01*
X0157563Y0690776D01*
X0157287Y0690501D01*
X0160949Y0698650D02*
X0125831Y0698650D01*
X0125161Y0699320D01*
X0114689Y0699320D01*
X0114059Y0699950D01*
X0114059Y0692469D02*
X0105201Y0692469D01*
X0100634Y0697036D01*
X0088114Y0686839D02*
X0095653Y0679301D01*
X0095653Y0674007D01*
X0095653Y0672107D02*
X0095684Y0672076D01*
X0102878Y0672076D01*
X0108783Y0668139D02*
X0105831Y0665186D01*
X0108783Y0668139D02*
X0113221Y0668139D01*
X0113253Y0668107D01*
X0113253Y0666207D02*
X0113705Y0665755D01*
X0113705Y0661249D01*
X0119610Y0667154D02*
X0116657Y0670107D01*
X0113253Y0670107D01*
X0113284Y0672076D02*
X0121579Y0672076D01*
X0119610Y0667154D02*
X0124413Y0667154D01*
X0127839Y0663729D01*
X0127839Y0680186D01*
X0127366Y0680658D01*
X0126224Y0690776D02*
X0133390Y0690776D01*
X0126224Y0690776D02*
X0125161Y0691839D01*
X0114059Y0692469D02*
X0113253Y0691663D01*
X0113253Y0674007D01*
X0113253Y0672107D02*
X0113284Y0672076D01*
X0095653Y0670107D02*
X0090083Y0670107D01*
X0084650Y0675540D01*
X0082799Y0675540D01*
X0082445Y0668414D02*
X0072366Y0668414D01*
X0062957Y0668414D01*
X0062524Y0667981D01*
X0062524Y0657312D01*
X0062524Y0675461D02*
X0062524Y0684871D01*
X0068429Y0684871D01*
X0070398Y0686839D01*
X0072366Y0684871D01*
X0072366Y0675894D01*
X0077878Y0686839D02*
X0088114Y0686839D01*
X0082445Y0668414D02*
X0082799Y0668060D01*
X0082846Y0668107D01*
X0095653Y0668107D01*
X0095653Y0666207D02*
X0095594Y0666149D01*
X0095594Y0660068D01*
X0147287Y0650501D02*
X0154256Y0643532D01*
X0178665Y0643532D01*
X0189295Y0654162D01*
X0189295Y0658493D01*
X0190161Y0659359D01*
X0190476Y0659280D02*
X0196382Y0659280D01*
X0202287Y0665186D01*
X0202287Y0675028D01*
X0198822Y0678494D01*
X0194965Y0678494D01*
X0194965Y0675894D02*
X0177800Y0675894D01*
X0170791Y0682902D01*
X0176697Y0698650D02*
X0185752Y0698650D01*
X0186343Y0698060D01*
X0193823Y0698060D02*
X0194413Y0698650D01*
X0202287Y0698650D01*
X0213744Y0698650D01*
X0215122Y0697272D01*
X0221972Y0696643D02*
X0221972Y0690776D01*
X0218035Y0686839D01*
X0218035Y0684871D01*
X0221972Y0696643D02*
X0222602Y0697272D01*
X0231815Y0696682D02*
X0231815Y0681209D01*
X0231815Y0680934D01*
X0231815Y0673729D02*
X0231815Y0665186D01*
X0229020Y0656721D02*
X0229335Y0656406D01*
X0229335Y0647469D01*
X0232150Y0673394D02*
X0244572Y0673394D01*
X0244572Y0675894D02*
X0240792Y0675894D01*
X0239689Y0676997D01*
X0239689Y0690186D01*
X0246776Y0697272D01*
X0239689Y0696879D02*
X0239689Y0696682D01*
X0231815Y0696682D01*
X0239295Y0697272D02*
X0239689Y0696879D01*
X0249531Y0678965D02*
X0263311Y0692745D01*
X0263311Y0697233D01*
X0263272Y0697272D01*
X0273154Y0688808D02*
X0280870Y0688808D01*
X0281028Y0688650D01*
X0281028Y0681170D02*
X0280791Y0680934D01*
X0269217Y0680934D01*
X0262031Y0680934D01*
X0261972Y0680994D01*
X0261972Y0678494D02*
X0261972Y0675894D01*
X0232150Y0673394D02*
X0231815Y0673729D01*
X0194965Y0673394D02*
X0190694Y0669123D01*
X0188508Y0669123D01*
X0181815Y0658493D02*
X0180634Y0657312D01*
X0172760Y0657312D01*
X0194965Y0594654D02*
X0190694Y0590383D01*
X0188508Y0590383D01*
X0181815Y0579753D02*
X0180634Y0578572D01*
X0172760Y0578572D01*
X0154256Y0564792D02*
X0147287Y0571761D01*
X0125161Y0541839D02*
X0125831Y0541170D01*
X0125161Y0541839D02*
X0114689Y0541839D01*
X0114059Y0542469D01*
X0080240Y0488020D02*
X0070398Y0478178D01*
X0070398Y0461721D01*
X0068862Y0460186D01*
X0070988Y0422233D02*
X0070555Y0421800D01*
X0070949Y0421406D01*
X0070949Y0412627D01*
X0090043Y0393532D01*
X0062524Y0405343D02*
X0062524Y0411288D01*
X0063469Y0412627D01*
X0100634Y0346643D02*
X0105201Y0342076D01*
X0114059Y0342076D01*
X0113253Y0341269D01*
X0113253Y0323613D01*
X0113253Y0321713D02*
X0113284Y0321682D01*
X0121579Y0321682D01*
X0113253Y0317713D02*
X0113221Y0317745D01*
X0113253Y0315813D02*
X0113705Y0315361D01*
X0113705Y0310855D01*
X0127839Y0313335D02*
X0127839Y0329792D01*
X0127366Y0330265D01*
X0126224Y0340383D02*
X0133390Y0340383D01*
X0126224Y0340383D02*
X0125161Y0341446D01*
X0125161Y0348926D02*
X0114689Y0348926D01*
X0114059Y0349556D01*
X0147287Y0300107D02*
X0154256Y0293139D01*
X0178665Y0293139D01*
X0180634Y0306918D02*
X0172760Y0306918D01*
X0180634Y0306918D02*
X0181815Y0308099D01*
X0188508Y0318729D02*
X0190694Y0318729D01*
X0194965Y0323000D01*
X0202287Y0362036D02*
X0204256Y0362036D01*
X0245594Y0403375D01*
X0245594Y0407816D01*
X0244883Y0408527D01*
X0244883Y0411127D02*
X0244761Y0411249D01*
X0231815Y0411249D01*
X0233783Y0413217D01*
X0233783Y0416170D01*
X0244827Y0416170D01*
X0244883Y0416227D01*
X0244883Y0413627D02*
X0249122Y0413627D01*
X0253469Y0409280D01*
X0253469Y0401406D01*
X0244648Y0421091D02*
X0233783Y0421091D01*
X0222919Y0421091D01*
X0222683Y0421327D01*
X0222683Y0418827D02*
X0222586Y0418729D01*
X0218429Y0418729D01*
X0209768Y0410068D01*
X0171972Y0410068D01*
X0169217Y0407312D01*
X0172760Y0415186D02*
X0179846Y0415186D01*
X0184965Y0420304D01*
X0205043Y0420304D01*
X0208193Y0417154D01*
X0212524Y0417154D01*
X0219217Y0423847D01*
X0222604Y0423847D01*
X0222683Y0423927D01*
X0222683Y0426427D02*
X0233783Y0426427D01*
X0233783Y0421091D01*
X0233783Y0416170D01*
X0222740Y0416170D01*
X0222683Y0416227D01*
X0222683Y0413627D02*
X0222668Y0413611D01*
X0218823Y0413611D01*
X0210161Y0404950D01*
X0210161Y0403375D01*
X0204256Y0397469D01*
X0164886Y0397469D01*
X0150909Y0409280D02*
X0149138Y0407902D01*
X0150516Y0422666D02*
X0151106Y0423257D01*
X0127484Y0456524D02*
X0120201Y0456524D01*
X0119610Y0456721D01*
X0119610Y0464202D02*
X0120201Y0464398D01*
X0172563Y0460461D02*
X0184768Y0460461D01*
X0222683Y0434127D02*
X0222924Y0433887D01*
X0229846Y0433887D01*
X0233783Y0426427D02*
X0244883Y0426427D01*
X0244945Y0428965D02*
X0251500Y0428965D01*
X0244945Y0428965D02*
X0244883Y0429027D01*
X0222683Y0429027D01*
X0237720Y0436839D02*
X0240433Y0434127D01*
X0244883Y0434127D01*
X0237720Y0436839D02*
X0237720Y0440776D01*
X0235752Y0442745D01*
X0244883Y0421327D02*
X0244648Y0421091D01*
X0231815Y0411249D02*
X0222806Y0411249D01*
X0222683Y0411127D01*
X0222683Y0408527D02*
X0222683Y0408023D01*
X0221972Y0407312D01*
X0221972Y0397469D01*
X0236815Y0489989D02*
X0238783Y0491957D01*
X0249531Y0521485D02*
X0263311Y0535265D01*
X0263311Y0539753D01*
X0263272Y0539792D01*
X0273154Y0531328D02*
X0280870Y0531328D01*
X0281028Y0531170D01*
X0281028Y0523690D02*
X0280791Y0523454D01*
X0269217Y0523454D01*
X0262031Y0523454D01*
X0261972Y0523513D01*
X0261972Y0521013D02*
X0261972Y0518413D01*
X0239689Y0539398D02*
X0239295Y0539792D01*
X0236815Y0568729D02*
X0238783Y0570698D01*
X0294807Y0531328D02*
X0294807Y0524477D01*
X0295004Y0524280D01*
X0304650Y0523454D02*
X0304650Y0513296D01*
X0303823Y0512469D01*
X0304650Y0523454D02*
X0311343Y0530146D01*
X0319531Y0530146D01*
X0327012Y0530146D02*
X0327209Y0529950D01*
X0337957Y0529950D01*
X0338114Y0529792D01*
X0338114Y0517548D02*
X0336146Y0515580D01*
X0336146Y0513020D01*
X0335358Y0512233D01*
X0323902Y0512233D01*
X0323705Y0512430D01*
X0316224Y0512430D02*
X0316224Y0519753D01*
X0314492Y0521485D01*
X0338114Y0517548D02*
X0347957Y0517548D01*
X0349925Y0515580D01*
X0349925Y0509674D01*
X0353546Y0506053D01*
X0367013Y0506053D01*
X0367013Y0508553D02*
X0358920Y0508553D01*
X0355831Y0511643D01*
X0351619Y0503453D02*
X0367013Y0503453D01*
X0367091Y0503375D01*
X0377287Y0491957D02*
X0385358Y0491957D01*
X0351619Y0503453D02*
X0342839Y0512233D01*
X0157563Y0261643D02*
X0157287Y0261367D01*
X0125831Y0269517D02*
X0125161Y0270186D01*
X0114689Y0270186D01*
X0114059Y0270816D01*
X0114059Y0263335D02*
X0105201Y0263335D01*
X0100634Y0267902D01*
X0113253Y0262529D02*
X0113253Y0244873D01*
X0113253Y0242973D02*
X0113284Y0242942D01*
X0113253Y0262529D02*
X0114059Y0263335D01*
X0095653Y0240973D02*
X0090083Y0240973D01*
X0084650Y0246406D01*
X0082799Y0246406D01*
D29*
X0127484Y0226761D02*
X0127484Y0220304D01*
X0127484Y0226761D02*
X0127839Y0227115D01*
X0147169Y0228178D02*
X0147169Y0221485D01*
X0147287Y0221367D01*
X0147169Y0228178D02*
X0149138Y0230146D01*
X0149138Y0240186D01*
X0149138Y0247666D02*
X0149138Y0253769D01*
X0156736Y0261367D01*
X0157287Y0261367D01*
X0147287Y0300107D02*
X0147169Y0300225D01*
X0147169Y0306918D01*
X0149138Y0308887D01*
X0149138Y0318926D01*
X0149138Y0326406D02*
X0149138Y0332509D01*
X0156736Y0340107D01*
X0157287Y0340107D01*
X0127839Y0305855D02*
X0127484Y0305501D01*
X0127484Y0299044D01*
X0120043Y0367981D02*
X0112209Y0375816D01*
X0088114Y0375816D01*
X0085280Y0372981D01*
X0085280Y0368532D01*
X0070988Y0422233D02*
X0070161Y0423060D01*
X0066461Y0423060D01*
X0062917Y0426603D01*
X0062917Y0452981D01*
X0068862Y0458926D01*
X0068862Y0460186D01*
X0092051Y0478178D02*
X0255437Y0478178D01*
X0267248Y0466367D01*
X0267248Y0413532D01*
X0266972Y0413257D01*
X0244883Y0436727D02*
X0244883Y0445424D01*
X0235752Y0454556D01*
X0186539Y0454556D01*
X0184571Y0456524D01*
X0184571Y0460265D01*
X0184768Y0460461D01*
X0204256Y0434871D02*
X0210161Y0428965D01*
X0214098Y0428965D01*
X0216637Y0426427D01*
X0222683Y0426427D01*
X0222683Y0431627D02*
X0215374Y0431627D01*
X0210161Y0436839D01*
X0214098Y0440776D02*
X0214098Y0446682D01*
X0214098Y0440776D02*
X0218148Y0436727D01*
X0222683Y0436727D01*
X0204256Y0434871D02*
X0158980Y0434871D01*
X0153075Y0440776D01*
X0153075Y0452391D01*
X0146972Y0458493D01*
X0170791Y0423060D02*
X0178665Y0423060D01*
X0170791Y0423060D02*
X0162917Y0415186D01*
X0162917Y0405343D01*
X0157012Y0399438D01*
X0137327Y0399438D01*
X0135358Y0401406D01*
X0135358Y0419123D01*
X0133390Y0421091D01*
X0127681Y0421091D01*
X0127484Y0421288D01*
X0120201Y0464398D02*
X0124138Y0468335D01*
X0210161Y0468335D01*
X0190476Y0501800D02*
X0190240Y0501800D01*
X0190161Y0501879D01*
X0212365Y0523513D02*
X0212425Y0523454D01*
X0216067Y0523454D01*
X0218035Y0525422D01*
X0218035Y0527391D01*
X0190476Y0580540D02*
X0190240Y0580540D01*
X0190161Y0580619D01*
X0212365Y0602254D02*
X0212425Y0602194D01*
X0216067Y0602194D01*
X0218035Y0604162D01*
X0218035Y0606131D01*
X0190476Y0659280D02*
X0190240Y0659280D01*
X0190161Y0659359D01*
X0212365Y0680994D02*
X0212425Y0680934D01*
X0216067Y0680934D01*
X0218035Y0682902D01*
X0218035Y0684871D01*
X0157287Y0690501D02*
X0156736Y0690501D01*
X0149138Y0682902D01*
X0149138Y0676800D01*
X0149138Y0669320D02*
X0149138Y0659280D01*
X0147169Y0657312D01*
X0147169Y0650619D01*
X0147287Y0650501D01*
X0127484Y0649438D02*
X0127484Y0655894D01*
X0127839Y0656249D01*
X0156736Y0611761D02*
X0157287Y0611761D01*
X0156736Y0611761D02*
X0149138Y0604162D01*
X0149138Y0598060D01*
X0149138Y0590580D02*
X0149138Y0580540D01*
X0147169Y0578572D01*
X0147169Y0571879D01*
X0147287Y0571761D01*
X0127484Y0570698D02*
X0127484Y0577154D01*
X0127839Y0577509D01*
X0156736Y0533020D02*
X0157287Y0533020D01*
X0156736Y0533020D02*
X0149138Y0525422D01*
X0149138Y0519320D01*
X0149138Y0511839D02*
X0149138Y0501800D01*
X0147169Y0499831D01*
X0147169Y0493139D01*
X0147287Y0493020D01*
X0127484Y0491957D02*
X0127484Y0498414D01*
X0127839Y0498769D01*
X0218035Y0334477D02*
X0218035Y0332509D01*
X0216067Y0330540D01*
X0212425Y0330540D01*
X0212365Y0330600D01*
X0190476Y0308887D02*
X0190240Y0308887D01*
X0190161Y0308965D01*
X0218035Y0255737D02*
X0218035Y0253769D01*
X0216067Y0251800D01*
X0212425Y0251800D01*
X0212365Y0251860D01*
X0190476Y0230146D02*
X0190240Y0230146D01*
X0190161Y0230225D01*
X0157287Y0182627D02*
X0156736Y0182627D01*
X0149138Y0175028D01*
X0149138Y0168926D01*
X0149138Y0161446D02*
X0149138Y0151406D01*
X0147169Y0149438D01*
X0147169Y0142745D01*
X0147287Y0142627D01*
X0127484Y0141564D02*
X0127484Y0148020D01*
X0127839Y0148375D01*
X0190161Y0151485D02*
X0190240Y0151406D01*
X0190476Y0151406D01*
X0212365Y0173120D02*
X0212425Y0173060D01*
X0216067Y0173060D01*
X0218035Y0175028D01*
X0218035Y0176997D01*
X0384216Y0190639D02*
X0400969Y0190639D01*
X0401106Y0190776D01*
X0393862Y0190776D01*
X0393232Y0191406D01*
X0393862Y0269517D02*
X0401106Y0269517D01*
X0400969Y0269380D01*
X0384216Y0269380D01*
X0393232Y0270146D02*
X0393862Y0269517D01*
X0393862Y0348257D02*
X0401106Y0348257D01*
X0400969Y0348120D01*
X0384216Y0348120D01*
X0393232Y0348887D02*
X0393862Y0348257D01*
X0400969Y0541033D02*
X0384216Y0541033D01*
X0393232Y0541800D02*
X0393862Y0541170D01*
X0401106Y0541170D01*
X0400969Y0541033D01*
X0400969Y0619773D02*
X0384216Y0619773D01*
X0393232Y0620540D02*
X0393862Y0619910D01*
X0401106Y0619910D01*
X0400969Y0619773D01*
X0400969Y0698513D02*
X0384216Y0698513D01*
X0393232Y0699280D02*
X0393862Y0698650D01*
X0401106Y0698650D01*
X0400969Y0698513D01*
D30*
X0379410Y0458482D02*
X0393572Y0444320D01*
X0416776Y0444320D01*
X0416776Y0436446D02*
X0380974Y0436446D01*
X0379410Y0434882D01*
X0384343Y0406328D02*
X0379410Y0401395D01*
X0384343Y0406328D02*
X0416776Y0406328D01*
X0416776Y0398454D02*
X0400069Y0398454D01*
X0379410Y0377795D01*
M02*
