G75*
%MOIN*%
%OFA0B0*%
%FSLAX25Y25*%
%IPPOS*%
%LPD*%
%AMOC8*
5,1,8,0,0,1.08239X$1,22.5*
%
%ADD10C,0.00800*%
%ADD11C,0.01575*%
%ADD12C,0.00600*%
%ADD13C,0.00500*%
%ADD14R,0.03000X2.25000*%
%ADD15R,0.02000X2.74000*%
%ADD16R,0.28500X0.03200*%
%ADD17R,0.18500X0.03200*%
%ADD18R,0.09500X0.01000*%
%ADD19R,0.06500X0.04000*%
%ADD20C,0.00250*%
%ADD21C,0.00984*%
D10*
X0590485Y0017038D02*
X0590485Y0028062D01*
X0601705Y0028062D02*
X0601705Y0017038D01*
X0654485Y0017038D02*
X0654485Y0028062D01*
X0665705Y0028062D02*
X0665705Y0017038D01*
X0665705Y0070538D02*
X0665705Y0081562D01*
X0654485Y0081562D02*
X0654485Y0070538D01*
X0601705Y0070538D02*
X0601705Y0081562D01*
X0590485Y0081562D02*
X0590485Y0070538D01*
X0590485Y0113038D02*
X0590485Y0124062D01*
X0601705Y0124062D02*
X0601705Y0113038D01*
X0654485Y0113038D02*
X0654485Y0124062D01*
X0665705Y0124062D02*
X0665705Y0113038D01*
X0718485Y0113038D02*
X0718485Y0124062D01*
X0729705Y0124062D02*
X0729705Y0113038D01*
X0729705Y0166538D02*
X0729705Y0177562D01*
X0718485Y0177562D02*
X0718485Y0166538D01*
X0665705Y0166538D02*
X0665705Y0177562D01*
X0654485Y0177562D02*
X0654485Y0166538D01*
X0601705Y0166538D02*
X0601705Y0177562D01*
X0590485Y0177562D02*
X0590485Y0166538D01*
X0589985Y0209038D02*
X0589985Y0220062D01*
X0601205Y0220062D02*
X0601205Y0209038D01*
X0653985Y0209038D02*
X0653985Y0220062D01*
X0665205Y0220062D02*
X0665205Y0209038D01*
X0717985Y0209038D02*
X0717985Y0220062D01*
X0729205Y0220062D02*
X0729205Y0209038D01*
X0729205Y0262538D02*
X0729205Y0273562D01*
X0717985Y0273562D02*
X0717985Y0262538D01*
X0665205Y0262538D02*
X0665205Y0273562D01*
X0653985Y0273562D02*
X0653985Y0262538D01*
X0601205Y0262538D02*
X0601205Y0273562D01*
X0589985Y0273562D02*
X0589985Y0262538D01*
D11*
X0589690Y0260963D03*
X0653690Y0260963D03*
X0717690Y0260963D03*
X0717690Y0207463D03*
X0653690Y0207463D03*
X0589690Y0207463D03*
X0590190Y0164963D03*
X0654190Y0164963D03*
X0718190Y0164963D03*
X0718190Y0111463D03*
X0654190Y0111463D03*
X0590190Y0111463D03*
X0590190Y0068963D03*
X0654190Y0068963D03*
X0654190Y0015463D03*
X0590190Y0015463D03*
D12*
X0085095Y0010550D02*
X0085095Y0041050D01*
X0085095Y0254050D01*
X0085095Y0284550D01*
X0087095Y0284550D01*
X0087095Y0274550D01*
X0087095Y0264550D01*
X0089095Y0264550D01*
X0089095Y0264050D01*
X0098595Y0264050D01*
X0098693Y0264048D01*
X0098791Y0264042D01*
X0098889Y0264033D01*
X0098986Y0264019D01*
X0099083Y0264002D01*
X0099179Y0263981D01*
X0099274Y0263956D01*
X0099368Y0263928D01*
X0099460Y0263895D01*
X0099552Y0263860D01*
X0099642Y0263820D01*
X0099730Y0263778D01*
X0099817Y0263731D01*
X0099901Y0263682D01*
X0099984Y0263629D01*
X0100064Y0263573D01*
X0100143Y0263513D01*
X0100219Y0263451D01*
X0100292Y0263386D01*
X0100363Y0263318D01*
X0100431Y0263247D01*
X0100496Y0263174D01*
X0100558Y0263098D01*
X0100618Y0263019D01*
X0100674Y0262939D01*
X0100727Y0262856D01*
X0100776Y0262772D01*
X0100823Y0262685D01*
X0100865Y0262597D01*
X0100905Y0262507D01*
X0100940Y0262415D01*
X0100973Y0262323D01*
X0101001Y0262229D01*
X0101026Y0262134D01*
X0101047Y0262038D01*
X0101064Y0261941D01*
X0101078Y0261844D01*
X0101087Y0261746D01*
X0101093Y0261648D01*
X0101095Y0261550D01*
X0101095Y0261050D02*
X0141595Y0261050D01*
X0143595Y0263050D01*
X0143595Y0282550D01*
X0141595Y0284550D01*
X0101595Y0284550D01*
X0101095Y0284550D01*
X0101095Y0264550D01*
X0101095Y0261050D01*
X0101095Y0260050D01*
X0104095Y0260050D01*
X0104095Y0035050D01*
X0101095Y0035050D01*
X0101095Y0260050D01*
X0087095Y0264550D02*
X0087095Y0030550D01*
X0089095Y0030550D01*
X0089095Y0031050D01*
X0098595Y0031050D01*
X0098693Y0031052D01*
X0098791Y0031058D01*
X0098889Y0031067D01*
X0098986Y0031081D01*
X0099083Y0031098D01*
X0099179Y0031119D01*
X0099274Y0031144D01*
X0099368Y0031172D01*
X0099460Y0031205D01*
X0099552Y0031240D01*
X0099642Y0031280D01*
X0099730Y0031322D01*
X0099817Y0031369D01*
X0099901Y0031418D01*
X0099984Y0031471D01*
X0100064Y0031527D01*
X0100143Y0031587D01*
X0100219Y0031649D01*
X0100292Y0031714D01*
X0100363Y0031782D01*
X0100431Y0031853D01*
X0100496Y0031926D01*
X0100558Y0032002D01*
X0100618Y0032081D01*
X0100674Y0032161D01*
X0100727Y0032244D01*
X0100776Y0032328D01*
X0100823Y0032415D01*
X0100865Y0032503D01*
X0100905Y0032593D01*
X0100940Y0032685D01*
X0100973Y0032777D01*
X0101001Y0032871D01*
X0101026Y0032966D01*
X0101047Y0033062D01*
X0101064Y0033159D01*
X0101078Y0033256D01*
X0101087Y0033354D01*
X0101093Y0033452D01*
X0101095Y0033550D01*
X0101095Y0034050D02*
X0141595Y0034050D01*
X0143595Y0032050D01*
X0143595Y0013050D01*
X0141095Y0010550D01*
X0101595Y0010550D01*
X0101095Y0010550D01*
X0089095Y0010550D01*
X0087095Y0010550D01*
X0087095Y0020550D01*
X0087095Y0030550D01*
X0085095Y0037050D02*
X0085093Y0037148D01*
X0085087Y0037246D01*
X0085078Y0037344D01*
X0085064Y0037441D01*
X0085047Y0037538D01*
X0085026Y0037634D01*
X0085001Y0037729D01*
X0084973Y0037823D01*
X0084940Y0037915D01*
X0084905Y0038007D01*
X0084865Y0038097D01*
X0084823Y0038185D01*
X0084776Y0038272D01*
X0084727Y0038356D01*
X0084674Y0038439D01*
X0084618Y0038519D01*
X0084558Y0038598D01*
X0084496Y0038674D01*
X0084431Y0038747D01*
X0084363Y0038818D01*
X0084292Y0038886D01*
X0084219Y0038951D01*
X0084143Y0039013D01*
X0084064Y0039073D01*
X0083984Y0039129D01*
X0083901Y0039182D01*
X0083817Y0039231D01*
X0083730Y0039278D01*
X0083642Y0039320D01*
X0083552Y0039360D01*
X0083460Y0039395D01*
X0083368Y0039428D01*
X0083274Y0039456D01*
X0083179Y0039481D01*
X0083083Y0039502D01*
X0082986Y0039519D01*
X0082889Y0039533D01*
X0082791Y0039542D01*
X0082693Y0039548D01*
X0082595Y0039550D01*
X0062595Y0039550D01*
X0062508Y0039552D01*
X0062421Y0039558D01*
X0062334Y0039567D01*
X0062248Y0039580D01*
X0062162Y0039597D01*
X0062077Y0039618D01*
X0061994Y0039643D01*
X0061911Y0039671D01*
X0061830Y0039702D01*
X0061750Y0039737D01*
X0061672Y0039776D01*
X0061595Y0039818D01*
X0061520Y0039863D01*
X0061448Y0039912D01*
X0061377Y0039963D01*
X0061309Y0040018D01*
X0061244Y0040075D01*
X0061181Y0040136D01*
X0061120Y0040199D01*
X0061063Y0040264D01*
X0061008Y0040332D01*
X0060957Y0040403D01*
X0060908Y0040475D01*
X0060863Y0040550D01*
X0060821Y0040627D01*
X0060782Y0040705D01*
X0060747Y0040785D01*
X0060716Y0040866D01*
X0060688Y0040949D01*
X0060663Y0041032D01*
X0060642Y0041117D01*
X0060625Y0041203D01*
X0060612Y0041289D01*
X0060603Y0041376D01*
X0060597Y0041463D01*
X0060595Y0041550D01*
X0060595Y0042550D01*
X0060595Y0252550D01*
X0060595Y0253550D01*
X0060597Y0253637D01*
X0060603Y0253724D01*
X0060612Y0253811D01*
X0060625Y0253897D01*
X0060642Y0253983D01*
X0060663Y0254068D01*
X0060688Y0254151D01*
X0060716Y0254234D01*
X0060747Y0254315D01*
X0060782Y0254395D01*
X0060821Y0254473D01*
X0060863Y0254550D01*
X0060908Y0254625D01*
X0060957Y0254697D01*
X0061008Y0254768D01*
X0061063Y0254836D01*
X0061120Y0254901D01*
X0061181Y0254964D01*
X0061244Y0255025D01*
X0061309Y0255082D01*
X0061377Y0255137D01*
X0061448Y0255188D01*
X0061520Y0255237D01*
X0061595Y0255282D01*
X0061672Y0255324D01*
X0061750Y0255363D01*
X0061830Y0255398D01*
X0061911Y0255429D01*
X0061994Y0255457D01*
X0062077Y0255482D01*
X0062162Y0255503D01*
X0062248Y0255520D01*
X0062334Y0255533D01*
X0062421Y0255542D01*
X0062508Y0255548D01*
X0062595Y0255550D01*
X0082595Y0255550D01*
X0082693Y0255552D01*
X0082791Y0255558D01*
X0082889Y0255567D01*
X0082986Y0255581D01*
X0083083Y0255598D01*
X0083179Y0255619D01*
X0083274Y0255644D01*
X0083368Y0255672D01*
X0083460Y0255705D01*
X0083552Y0255740D01*
X0083642Y0255780D01*
X0083730Y0255822D01*
X0083817Y0255869D01*
X0083901Y0255918D01*
X0083984Y0255971D01*
X0084064Y0256027D01*
X0084143Y0256087D01*
X0084219Y0256149D01*
X0084292Y0256214D01*
X0084363Y0256282D01*
X0084431Y0256353D01*
X0084496Y0256426D01*
X0084558Y0256502D01*
X0084618Y0256581D01*
X0084674Y0256661D01*
X0084727Y0256744D01*
X0084776Y0256828D01*
X0084823Y0256915D01*
X0084865Y0257003D01*
X0084905Y0257093D01*
X0084940Y0257185D01*
X0084973Y0257277D01*
X0085001Y0257371D01*
X0085026Y0257466D01*
X0085047Y0257562D01*
X0085064Y0257659D01*
X0085078Y0257756D01*
X0085087Y0257854D01*
X0085093Y0257952D01*
X0085095Y0258050D01*
X0124595Y0272550D02*
X0124597Y0272711D01*
X0124603Y0272871D01*
X0124613Y0273032D01*
X0124627Y0273192D01*
X0124645Y0273352D01*
X0124666Y0273511D01*
X0124692Y0273670D01*
X0124722Y0273828D01*
X0124755Y0273985D01*
X0124793Y0274142D01*
X0124834Y0274297D01*
X0124879Y0274451D01*
X0124928Y0274604D01*
X0124981Y0274756D01*
X0125037Y0274907D01*
X0125098Y0275056D01*
X0125161Y0275204D01*
X0125229Y0275350D01*
X0125300Y0275494D01*
X0125374Y0275636D01*
X0125452Y0275777D01*
X0125534Y0275915D01*
X0125619Y0276052D01*
X0125707Y0276186D01*
X0125799Y0276318D01*
X0125894Y0276448D01*
X0125992Y0276576D01*
X0126093Y0276701D01*
X0126197Y0276823D01*
X0126304Y0276943D01*
X0126414Y0277060D01*
X0126527Y0277175D01*
X0126643Y0277286D01*
X0126762Y0277395D01*
X0126883Y0277500D01*
X0127007Y0277603D01*
X0127133Y0277703D01*
X0127261Y0277799D01*
X0127392Y0277892D01*
X0127526Y0277982D01*
X0127661Y0278069D01*
X0127799Y0278152D01*
X0127938Y0278232D01*
X0128080Y0278308D01*
X0128223Y0278381D01*
X0128368Y0278450D01*
X0128515Y0278516D01*
X0128663Y0278578D01*
X0128813Y0278636D01*
X0128964Y0278691D01*
X0129117Y0278742D01*
X0129271Y0278789D01*
X0129426Y0278832D01*
X0129582Y0278871D01*
X0129738Y0278907D01*
X0129896Y0278938D01*
X0130054Y0278966D01*
X0130213Y0278990D01*
X0130373Y0279010D01*
X0130533Y0279026D01*
X0130693Y0279038D01*
X0130854Y0279046D01*
X0131015Y0279050D01*
X0131175Y0279050D01*
X0131336Y0279046D01*
X0131497Y0279038D01*
X0131657Y0279026D01*
X0131817Y0279010D01*
X0131977Y0278990D01*
X0132136Y0278966D01*
X0132294Y0278938D01*
X0132452Y0278907D01*
X0132608Y0278871D01*
X0132764Y0278832D01*
X0132919Y0278789D01*
X0133073Y0278742D01*
X0133226Y0278691D01*
X0133377Y0278636D01*
X0133527Y0278578D01*
X0133675Y0278516D01*
X0133822Y0278450D01*
X0133967Y0278381D01*
X0134110Y0278308D01*
X0134252Y0278232D01*
X0134391Y0278152D01*
X0134529Y0278069D01*
X0134664Y0277982D01*
X0134798Y0277892D01*
X0134929Y0277799D01*
X0135057Y0277703D01*
X0135183Y0277603D01*
X0135307Y0277500D01*
X0135428Y0277395D01*
X0135547Y0277286D01*
X0135663Y0277175D01*
X0135776Y0277060D01*
X0135886Y0276943D01*
X0135993Y0276823D01*
X0136097Y0276701D01*
X0136198Y0276576D01*
X0136296Y0276448D01*
X0136391Y0276318D01*
X0136483Y0276186D01*
X0136571Y0276052D01*
X0136656Y0275915D01*
X0136738Y0275777D01*
X0136816Y0275636D01*
X0136890Y0275494D01*
X0136961Y0275350D01*
X0137029Y0275204D01*
X0137092Y0275056D01*
X0137153Y0274907D01*
X0137209Y0274756D01*
X0137262Y0274604D01*
X0137311Y0274451D01*
X0137356Y0274297D01*
X0137397Y0274142D01*
X0137435Y0273985D01*
X0137468Y0273828D01*
X0137498Y0273670D01*
X0137524Y0273511D01*
X0137545Y0273352D01*
X0137563Y0273192D01*
X0137577Y0273032D01*
X0137587Y0272871D01*
X0137593Y0272711D01*
X0137595Y0272550D01*
X0137593Y0272389D01*
X0137587Y0272229D01*
X0137577Y0272068D01*
X0137563Y0271908D01*
X0137545Y0271748D01*
X0137524Y0271589D01*
X0137498Y0271430D01*
X0137468Y0271272D01*
X0137435Y0271115D01*
X0137397Y0270958D01*
X0137356Y0270803D01*
X0137311Y0270649D01*
X0137262Y0270496D01*
X0137209Y0270344D01*
X0137153Y0270193D01*
X0137092Y0270044D01*
X0137029Y0269896D01*
X0136961Y0269750D01*
X0136890Y0269606D01*
X0136816Y0269464D01*
X0136738Y0269323D01*
X0136656Y0269185D01*
X0136571Y0269048D01*
X0136483Y0268914D01*
X0136391Y0268782D01*
X0136296Y0268652D01*
X0136198Y0268524D01*
X0136097Y0268399D01*
X0135993Y0268277D01*
X0135886Y0268157D01*
X0135776Y0268040D01*
X0135663Y0267925D01*
X0135547Y0267814D01*
X0135428Y0267705D01*
X0135307Y0267600D01*
X0135183Y0267497D01*
X0135057Y0267397D01*
X0134929Y0267301D01*
X0134798Y0267208D01*
X0134664Y0267118D01*
X0134529Y0267031D01*
X0134391Y0266948D01*
X0134252Y0266868D01*
X0134110Y0266792D01*
X0133967Y0266719D01*
X0133822Y0266650D01*
X0133675Y0266584D01*
X0133527Y0266522D01*
X0133377Y0266464D01*
X0133226Y0266409D01*
X0133073Y0266358D01*
X0132919Y0266311D01*
X0132764Y0266268D01*
X0132608Y0266229D01*
X0132452Y0266193D01*
X0132294Y0266162D01*
X0132136Y0266134D01*
X0131977Y0266110D01*
X0131817Y0266090D01*
X0131657Y0266074D01*
X0131497Y0266062D01*
X0131336Y0266054D01*
X0131175Y0266050D01*
X0131015Y0266050D01*
X0130854Y0266054D01*
X0130693Y0266062D01*
X0130533Y0266074D01*
X0130373Y0266090D01*
X0130213Y0266110D01*
X0130054Y0266134D01*
X0129896Y0266162D01*
X0129738Y0266193D01*
X0129582Y0266229D01*
X0129426Y0266268D01*
X0129271Y0266311D01*
X0129117Y0266358D01*
X0128964Y0266409D01*
X0128813Y0266464D01*
X0128663Y0266522D01*
X0128515Y0266584D01*
X0128368Y0266650D01*
X0128223Y0266719D01*
X0128080Y0266792D01*
X0127938Y0266868D01*
X0127799Y0266948D01*
X0127661Y0267031D01*
X0127526Y0267118D01*
X0127392Y0267208D01*
X0127261Y0267301D01*
X0127133Y0267397D01*
X0127007Y0267497D01*
X0126883Y0267600D01*
X0126762Y0267705D01*
X0126643Y0267814D01*
X0126527Y0267925D01*
X0126414Y0268040D01*
X0126304Y0268157D01*
X0126197Y0268277D01*
X0126093Y0268399D01*
X0125992Y0268524D01*
X0125894Y0268652D01*
X0125799Y0268782D01*
X0125707Y0268914D01*
X0125619Y0269048D01*
X0125534Y0269185D01*
X0125452Y0269323D01*
X0125374Y0269464D01*
X0125300Y0269606D01*
X0125229Y0269750D01*
X0125161Y0269896D01*
X0125098Y0270044D01*
X0125037Y0270193D01*
X0124981Y0270344D01*
X0124928Y0270496D01*
X0124879Y0270649D01*
X0124834Y0270803D01*
X0124793Y0270958D01*
X0124755Y0271115D01*
X0124722Y0271272D01*
X0124692Y0271430D01*
X0124666Y0271589D01*
X0124645Y0271748D01*
X0124627Y0271908D01*
X0124613Y0272068D01*
X0124603Y0272229D01*
X0124597Y0272389D01*
X0124595Y0272550D01*
X0101095Y0284550D02*
X0089095Y0284550D01*
X0087095Y0284550D01*
X0101095Y0035050D02*
X0101095Y0034050D01*
X0101095Y0030550D01*
X0101095Y0010550D01*
X0087095Y0010550D02*
X0085095Y0010550D01*
X0124595Y0022550D02*
X0124597Y0022711D01*
X0124603Y0022871D01*
X0124613Y0023032D01*
X0124627Y0023192D01*
X0124645Y0023352D01*
X0124666Y0023511D01*
X0124692Y0023670D01*
X0124722Y0023828D01*
X0124755Y0023985D01*
X0124793Y0024142D01*
X0124834Y0024297D01*
X0124879Y0024451D01*
X0124928Y0024604D01*
X0124981Y0024756D01*
X0125037Y0024907D01*
X0125098Y0025056D01*
X0125161Y0025204D01*
X0125229Y0025350D01*
X0125300Y0025494D01*
X0125374Y0025636D01*
X0125452Y0025777D01*
X0125534Y0025915D01*
X0125619Y0026052D01*
X0125707Y0026186D01*
X0125799Y0026318D01*
X0125894Y0026448D01*
X0125992Y0026576D01*
X0126093Y0026701D01*
X0126197Y0026823D01*
X0126304Y0026943D01*
X0126414Y0027060D01*
X0126527Y0027175D01*
X0126643Y0027286D01*
X0126762Y0027395D01*
X0126883Y0027500D01*
X0127007Y0027603D01*
X0127133Y0027703D01*
X0127261Y0027799D01*
X0127392Y0027892D01*
X0127526Y0027982D01*
X0127661Y0028069D01*
X0127799Y0028152D01*
X0127938Y0028232D01*
X0128080Y0028308D01*
X0128223Y0028381D01*
X0128368Y0028450D01*
X0128515Y0028516D01*
X0128663Y0028578D01*
X0128813Y0028636D01*
X0128964Y0028691D01*
X0129117Y0028742D01*
X0129271Y0028789D01*
X0129426Y0028832D01*
X0129582Y0028871D01*
X0129738Y0028907D01*
X0129896Y0028938D01*
X0130054Y0028966D01*
X0130213Y0028990D01*
X0130373Y0029010D01*
X0130533Y0029026D01*
X0130693Y0029038D01*
X0130854Y0029046D01*
X0131015Y0029050D01*
X0131175Y0029050D01*
X0131336Y0029046D01*
X0131497Y0029038D01*
X0131657Y0029026D01*
X0131817Y0029010D01*
X0131977Y0028990D01*
X0132136Y0028966D01*
X0132294Y0028938D01*
X0132452Y0028907D01*
X0132608Y0028871D01*
X0132764Y0028832D01*
X0132919Y0028789D01*
X0133073Y0028742D01*
X0133226Y0028691D01*
X0133377Y0028636D01*
X0133527Y0028578D01*
X0133675Y0028516D01*
X0133822Y0028450D01*
X0133967Y0028381D01*
X0134110Y0028308D01*
X0134252Y0028232D01*
X0134391Y0028152D01*
X0134529Y0028069D01*
X0134664Y0027982D01*
X0134798Y0027892D01*
X0134929Y0027799D01*
X0135057Y0027703D01*
X0135183Y0027603D01*
X0135307Y0027500D01*
X0135428Y0027395D01*
X0135547Y0027286D01*
X0135663Y0027175D01*
X0135776Y0027060D01*
X0135886Y0026943D01*
X0135993Y0026823D01*
X0136097Y0026701D01*
X0136198Y0026576D01*
X0136296Y0026448D01*
X0136391Y0026318D01*
X0136483Y0026186D01*
X0136571Y0026052D01*
X0136656Y0025915D01*
X0136738Y0025777D01*
X0136816Y0025636D01*
X0136890Y0025494D01*
X0136961Y0025350D01*
X0137029Y0025204D01*
X0137092Y0025056D01*
X0137153Y0024907D01*
X0137209Y0024756D01*
X0137262Y0024604D01*
X0137311Y0024451D01*
X0137356Y0024297D01*
X0137397Y0024142D01*
X0137435Y0023985D01*
X0137468Y0023828D01*
X0137498Y0023670D01*
X0137524Y0023511D01*
X0137545Y0023352D01*
X0137563Y0023192D01*
X0137577Y0023032D01*
X0137587Y0022871D01*
X0137593Y0022711D01*
X0137595Y0022550D01*
X0137593Y0022389D01*
X0137587Y0022229D01*
X0137577Y0022068D01*
X0137563Y0021908D01*
X0137545Y0021748D01*
X0137524Y0021589D01*
X0137498Y0021430D01*
X0137468Y0021272D01*
X0137435Y0021115D01*
X0137397Y0020958D01*
X0137356Y0020803D01*
X0137311Y0020649D01*
X0137262Y0020496D01*
X0137209Y0020344D01*
X0137153Y0020193D01*
X0137092Y0020044D01*
X0137029Y0019896D01*
X0136961Y0019750D01*
X0136890Y0019606D01*
X0136816Y0019464D01*
X0136738Y0019323D01*
X0136656Y0019185D01*
X0136571Y0019048D01*
X0136483Y0018914D01*
X0136391Y0018782D01*
X0136296Y0018652D01*
X0136198Y0018524D01*
X0136097Y0018399D01*
X0135993Y0018277D01*
X0135886Y0018157D01*
X0135776Y0018040D01*
X0135663Y0017925D01*
X0135547Y0017814D01*
X0135428Y0017705D01*
X0135307Y0017600D01*
X0135183Y0017497D01*
X0135057Y0017397D01*
X0134929Y0017301D01*
X0134798Y0017208D01*
X0134664Y0017118D01*
X0134529Y0017031D01*
X0134391Y0016948D01*
X0134252Y0016868D01*
X0134110Y0016792D01*
X0133967Y0016719D01*
X0133822Y0016650D01*
X0133675Y0016584D01*
X0133527Y0016522D01*
X0133377Y0016464D01*
X0133226Y0016409D01*
X0133073Y0016358D01*
X0132919Y0016311D01*
X0132764Y0016268D01*
X0132608Y0016229D01*
X0132452Y0016193D01*
X0132294Y0016162D01*
X0132136Y0016134D01*
X0131977Y0016110D01*
X0131817Y0016090D01*
X0131657Y0016074D01*
X0131497Y0016062D01*
X0131336Y0016054D01*
X0131175Y0016050D01*
X0131015Y0016050D01*
X0130854Y0016054D01*
X0130693Y0016062D01*
X0130533Y0016074D01*
X0130373Y0016090D01*
X0130213Y0016110D01*
X0130054Y0016134D01*
X0129896Y0016162D01*
X0129738Y0016193D01*
X0129582Y0016229D01*
X0129426Y0016268D01*
X0129271Y0016311D01*
X0129117Y0016358D01*
X0128964Y0016409D01*
X0128813Y0016464D01*
X0128663Y0016522D01*
X0128515Y0016584D01*
X0128368Y0016650D01*
X0128223Y0016719D01*
X0128080Y0016792D01*
X0127938Y0016868D01*
X0127799Y0016948D01*
X0127661Y0017031D01*
X0127526Y0017118D01*
X0127392Y0017208D01*
X0127261Y0017301D01*
X0127133Y0017397D01*
X0127007Y0017497D01*
X0126883Y0017600D01*
X0126762Y0017705D01*
X0126643Y0017814D01*
X0126527Y0017925D01*
X0126414Y0018040D01*
X0126304Y0018157D01*
X0126197Y0018277D01*
X0126093Y0018399D01*
X0125992Y0018524D01*
X0125894Y0018652D01*
X0125799Y0018782D01*
X0125707Y0018914D01*
X0125619Y0019048D01*
X0125534Y0019185D01*
X0125452Y0019323D01*
X0125374Y0019464D01*
X0125300Y0019606D01*
X0125229Y0019750D01*
X0125161Y0019896D01*
X0125098Y0020044D01*
X0125037Y0020193D01*
X0124981Y0020344D01*
X0124928Y0020496D01*
X0124879Y0020649D01*
X0124834Y0020803D01*
X0124793Y0020958D01*
X0124755Y0021115D01*
X0124722Y0021272D01*
X0124692Y0021430D01*
X0124666Y0021589D01*
X0124645Y0021748D01*
X0124627Y0021908D01*
X0124613Y0022068D01*
X0124603Y0022229D01*
X0124597Y0022389D01*
X0124595Y0022550D01*
X0782095Y0030550D02*
X0782095Y0011050D01*
X0784095Y0009050D01*
X0824095Y0009050D01*
X0824095Y0029050D01*
X0824595Y0029050D01*
X0824595Y0009050D01*
X0824095Y0009050D01*
X0824595Y0009050D02*
X0836595Y0009050D01*
X0836595Y0019050D01*
X0835595Y0019050D01*
X0835595Y0029050D01*
X0836595Y0029050D01*
X0836595Y0029550D01*
X0827095Y0029550D01*
X0826997Y0029552D01*
X0826899Y0029558D01*
X0826801Y0029567D01*
X0826704Y0029581D01*
X0826607Y0029598D01*
X0826511Y0029619D01*
X0826416Y0029644D01*
X0826322Y0029672D01*
X0826230Y0029705D01*
X0826138Y0029740D01*
X0826048Y0029780D01*
X0825960Y0029822D01*
X0825873Y0029869D01*
X0825789Y0029918D01*
X0825706Y0029971D01*
X0825626Y0030027D01*
X0825547Y0030087D01*
X0825471Y0030149D01*
X0825398Y0030214D01*
X0825327Y0030282D01*
X0825259Y0030353D01*
X0825194Y0030426D01*
X0825132Y0030502D01*
X0825072Y0030581D01*
X0825016Y0030661D01*
X0824963Y0030744D01*
X0824914Y0030828D01*
X0824867Y0030915D01*
X0824825Y0031003D01*
X0824785Y0031093D01*
X0824750Y0031185D01*
X0824717Y0031277D01*
X0824689Y0031371D01*
X0824664Y0031466D01*
X0824643Y0031562D01*
X0824626Y0031659D01*
X0824612Y0031756D01*
X0824603Y0031854D01*
X0824597Y0031952D01*
X0824595Y0032050D01*
X0824595Y0032550D02*
X0784095Y0032550D01*
X0782095Y0030550D01*
X0788095Y0021050D02*
X0788097Y0021211D01*
X0788103Y0021371D01*
X0788113Y0021532D01*
X0788127Y0021692D01*
X0788145Y0021852D01*
X0788166Y0022011D01*
X0788192Y0022170D01*
X0788222Y0022328D01*
X0788255Y0022485D01*
X0788293Y0022642D01*
X0788334Y0022797D01*
X0788379Y0022951D01*
X0788428Y0023104D01*
X0788481Y0023256D01*
X0788537Y0023407D01*
X0788598Y0023556D01*
X0788661Y0023704D01*
X0788729Y0023850D01*
X0788800Y0023994D01*
X0788874Y0024136D01*
X0788952Y0024277D01*
X0789034Y0024415D01*
X0789119Y0024552D01*
X0789207Y0024686D01*
X0789299Y0024818D01*
X0789394Y0024948D01*
X0789492Y0025076D01*
X0789593Y0025201D01*
X0789697Y0025323D01*
X0789804Y0025443D01*
X0789914Y0025560D01*
X0790027Y0025675D01*
X0790143Y0025786D01*
X0790262Y0025895D01*
X0790383Y0026000D01*
X0790507Y0026103D01*
X0790633Y0026203D01*
X0790761Y0026299D01*
X0790892Y0026392D01*
X0791026Y0026482D01*
X0791161Y0026569D01*
X0791299Y0026652D01*
X0791438Y0026732D01*
X0791580Y0026808D01*
X0791723Y0026881D01*
X0791868Y0026950D01*
X0792015Y0027016D01*
X0792163Y0027078D01*
X0792313Y0027136D01*
X0792464Y0027191D01*
X0792617Y0027242D01*
X0792771Y0027289D01*
X0792926Y0027332D01*
X0793082Y0027371D01*
X0793238Y0027407D01*
X0793396Y0027438D01*
X0793554Y0027466D01*
X0793713Y0027490D01*
X0793873Y0027510D01*
X0794033Y0027526D01*
X0794193Y0027538D01*
X0794354Y0027546D01*
X0794515Y0027550D01*
X0794675Y0027550D01*
X0794836Y0027546D01*
X0794997Y0027538D01*
X0795157Y0027526D01*
X0795317Y0027510D01*
X0795477Y0027490D01*
X0795636Y0027466D01*
X0795794Y0027438D01*
X0795952Y0027407D01*
X0796108Y0027371D01*
X0796264Y0027332D01*
X0796419Y0027289D01*
X0796573Y0027242D01*
X0796726Y0027191D01*
X0796877Y0027136D01*
X0797027Y0027078D01*
X0797175Y0027016D01*
X0797322Y0026950D01*
X0797467Y0026881D01*
X0797610Y0026808D01*
X0797752Y0026732D01*
X0797891Y0026652D01*
X0798029Y0026569D01*
X0798164Y0026482D01*
X0798298Y0026392D01*
X0798429Y0026299D01*
X0798557Y0026203D01*
X0798683Y0026103D01*
X0798807Y0026000D01*
X0798928Y0025895D01*
X0799047Y0025786D01*
X0799163Y0025675D01*
X0799276Y0025560D01*
X0799386Y0025443D01*
X0799493Y0025323D01*
X0799597Y0025201D01*
X0799698Y0025076D01*
X0799796Y0024948D01*
X0799891Y0024818D01*
X0799983Y0024686D01*
X0800071Y0024552D01*
X0800156Y0024415D01*
X0800238Y0024277D01*
X0800316Y0024136D01*
X0800390Y0023994D01*
X0800461Y0023850D01*
X0800529Y0023704D01*
X0800592Y0023556D01*
X0800653Y0023407D01*
X0800709Y0023256D01*
X0800762Y0023104D01*
X0800811Y0022951D01*
X0800856Y0022797D01*
X0800897Y0022642D01*
X0800935Y0022485D01*
X0800968Y0022328D01*
X0800998Y0022170D01*
X0801024Y0022011D01*
X0801045Y0021852D01*
X0801063Y0021692D01*
X0801077Y0021532D01*
X0801087Y0021371D01*
X0801093Y0021211D01*
X0801095Y0021050D01*
X0801093Y0020889D01*
X0801087Y0020729D01*
X0801077Y0020568D01*
X0801063Y0020408D01*
X0801045Y0020248D01*
X0801024Y0020089D01*
X0800998Y0019930D01*
X0800968Y0019772D01*
X0800935Y0019615D01*
X0800897Y0019458D01*
X0800856Y0019303D01*
X0800811Y0019149D01*
X0800762Y0018996D01*
X0800709Y0018844D01*
X0800653Y0018693D01*
X0800592Y0018544D01*
X0800529Y0018396D01*
X0800461Y0018250D01*
X0800390Y0018106D01*
X0800316Y0017964D01*
X0800238Y0017823D01*
X0800156Y0017685D01*
X0800071Y0017548D01*
X0799983Y0017414D01*
X0799891Y0017282D01*
X0799796Y0017152D01*
X0799698Y0017024D01*
X0799597Y0016899D01*
X0799493Y0016777D01*
X0799386Y0016657D01*
X0799276Y0016540D01*
X0799163Y0016425D01*
X0799047Y0016314D01*
X0798928Y0016205D01*
X0798807Y0016100D01*
X0798683Y0015997D01*
X0798557Y0015897D01*
X0798429Y0015801D01*
X0798298Y0015708D01*
X0798164Y0015618D01*
X0798029Y0015531D01*
X0797891Y0015448D01*
X0797752Y0015368D01*
X0797610Y0015292D01*
X0797467Y0015219D01*
X0797322Y0015150D01*
X0797175Y0015084D01*
X0797027Y0015022D01*
X0796877Y0014964D01*
X0796726Y0014909D01*
X0796573Y0014858D01*
X0796419Y0014811D01*
X0796264Y0014768D01*
X0796108Y0014729D01*
X0795952Y0014693D01*
X0795794Y0014662D01*
X0795636Y0014634D01*
X0795477Y0014610D01*
X0795317Y0014590D01*
X0795157Y0014574D01*
X0794997Y0014562D01*
X0794836Y0014554D01*
X0794675Y0014550D01*
X0794515Y0014550D01*
X0794354Y0014554D01*
X0794193Y0014562D01*
X0794033Y0014574D01*
X0793873Y0014590D01*
X0793713Y0014610D01*
X0793554Y0014634D01*
X0793396Y0014662D01*
X0793238Y0014693D01*
X0793082Y0014729D01*
X0792926Y0014768D01*
X0792771Y0014811D01*
X0792617Y0014858D01*
X0792464Y0014909D01*
X0792313Y0014964D01*
X0792163Y0015022D01*
X0792015Y0015084D01*
X0791868Y0015150D01*
X0791723Y0015219D01*
X0791580Y0015292D01*
X0791438Y0015368D01*
X0791299Y0015448D01*
X0791161Y0015531D01*
X0791026Y0015618D01*
X0790892Y0015708D01*
X0790761Y0015801D01*
X0790633Y0015897D01*
X0790507Y0015997D01*
X0790383Y0016100D01*
X0790262Y0016205D01*
X0790143Y0016314D01*
X0790027Y0016425D01*
X0789914Y0016540D01*
X0789804Y0016657D01*
X0789697Y0016777D01*
X0789593Y0016899D01*
X0789492Y0017024D01*
X0789394Y0017152D01*
X0789299Y0017282D01*
X0789207Y0017414D01*
X0789119Y0017548D01*
X0789034Y0017685D01*
X0788952Y0017823D01*
X0788874Y0017964D01*
X0788800Y0018106D01*
X0788729Y0018250D01*
X0788661Y0018396D01*
X0788598Y0018544D01*
X0788537Y0018693D01*
X0788481Y0018844D01*
X0788428Y0018996D01*
X0788379Y0019149D01*
X0788334Y0019303D01*
X0788293Y0019458D01*
X0788255Y0019615D01*
X0788222Y0019772D01*
X0788192Y0019930D01*
X0788166Y0020089D01*
X0788145Y0020248D01*
X0788127Y0020408D01*
X0788113Y0020568D01*
X0788103Y0020729D01*
X0788097Y0020889D01*
X0788095Y0021050D01*
X0821595Y0033550D02*
X0824595Y0033550D01*
X0824595Y0032550D01*
X0824595Y0029050D01*
X0824595Y0033550D02*
X0824595Y0258550D01*
X0821595Y0258550D01*
X0821595Y0033550D01*
X0836595Y0029550D02*
X0836595Y0262550D01*
X0827095Y0262550D01*
X0826997Y0262548D01*
X0826899Y0262542D01*
X0826801Y0262533D01*
X0826704Y0262519D01*
X0826607Y0262502D01*
X0826511Y0262481D01*
X0826416Y0262456D01*
X0826322Y0262428D01*
X0826230Y0262395D01*
X0826138Y0262360D01*
X0826048Y0262320D01*
X0825960Y0262278D01*
X0825873Y0262231D01*
X0825789Y0262182D01*
X0825706Y0262129D01*
X0825626Y0262073D01*
X0825547Y0262013D01*
X0825471Y0261951D01*
X0825398Y0261886D01*
X0825327Y0261818D01*
X0825259Y0261747D01*
X0825194Y0261674D01*
X0825132Y0261598D01*
X0825072Y0261519D01*
X0825016Y0261439D01*
X0824963Y0261356D01*
X0824914Y0261272D01*
X0824867Y0261185D01*
X0824825Y0261097D01*
X0824785Y0261007D01*
X0824750Y0260915D01*
X0824717Y0260823D01*
X0824689Y0260729D01*
X0824664Y0260634D01*
X0824643Y0260538D01*
X0824626Y0260441D01*
X0824612Y0260344D01*
X0824603Y0260246D01*
X0824597Y0260148D01*
X0824595Y0260050D01*
X0824595Y0259550D02*
X0784095Y0259550D01*
X0782095Y0261550D01*
X0782095Y0280550D01*
X0784595Y0283050D01*
X0824095Y0283050D01*
X0824095Y0263050D01*
X0824595Y0263050D01*
X0824595Y0259550D01*
X0824595Y0258550D01*
X0824595Y0263050D02*
X0824595Y0283050D01*
X0824095Y0283050D01*
X0824595Y0283050D02*
X0836595Y0283050D01*
X0838595Y0283050D01*
X0838595Y0273050D01*
X0836595Y0273050D01*
X0835595Y0273050D01*
X0835595Y0263050D01*
X0836595Y0263050D01*
X0836595Y0262550D01*
X0836595Y0263050D02*
X0838595Y0263050D01*
X0838595Y0029050D01*
X0836595Y0029050D01*
X0838595Y0029050D02*
X0838595Y0019050D01*
X0838595Y0009050D01*
X0836595Y0009050D01*
X0838595Y0009050D02*
X0840595Y0009050D01*
X0840595Y0037050D01*
X0861595Y0037050D01*
X0861595Y0035550D02*
X0861682Y0035552D01*
X0861769Y0035558D01*
X0861856Y0035567D01*
X0861942Y0035580D01*
X0862028Y0035597D01*
X0862113Y0035618D01*
X0862196Y0035643D01*
X0862279Y0035671D01*
X0862360Y0035702D01*
X0862440Y0035737D01*
X0862518Y0035776D01*
X0862595Y0035818D01*
X0862670Y0035863D01*
X0862742Y0035912D01*
X0862813Y0035963D01*
X0862881Y0036018D01*
X0862946Y0036075D01*
X0863009Y0036136D01*
X0863070Y0036199D01*
X0863127Y0036264D01*
X0863182Y0036332D01*
X0863233Y0036403D01*
X0863282Y0036475D01*
X0863327Y0036550D01*
X0863369Y0036627D01*
X0863408Y0036705D01*
X0863443Y0036785D01*
X0863474Y0036866D01*
X0863502Y0036949D01*
X0863527Y0037032D01*
X0863548Y0037117D01*
X0863565Y0037203D01*
X0863578Y0037289D01*
X0863587Y0037376D01*
X0863593Y0037463D01*
X0863595Y0037550D01*
X0863595Y0038550D01*
X0863595Y0253550D01*
X0842595Y0253550D01*
X0840595Y0255050D02*
X0840595Y0283050D01*
X0838595Y0283050D01*
X0836595Y0283050D02*
X0836595Y0273050D01*
X0838595Y0273050D02*
X0838595Y0263050D01*
X0840595Y0259050D02*
X0840597Y0258952D01*
X0840603Y0258854D01*
X0840612Y0258756D01*
X0840626Y0258659D01*
X0840643Y0258562D01*
X0840664Y0258466D01*
X0840689Y0258371D01*
X0840717Y0258277D01*
X0840750Y0258185D01*
X0840785Y0258093D01*
X0840825Y0258003D01*
X0840867Y0257915D01*
X0840914Y0257828D01*
X0840963Y0257744D01*
X0841016Y0257661D01*
X0841072Y0257581D01*
X0841132Y0257502D01*
X0841194Y0257426D01*
X0841259Y0257353D01*
X0841327Y0257282D01*
X0841398Y0257214D01*
X0841471Y0257149D01*
X0841547Y0257087D01*
X0841626Y0257027D01*
X0841706Y0256971D01*
X0841789Y0256918D01*
X0841873Y0256869D01*
X0841960Y0256822D01*
X0842048Y0256780D01*
X0842138Y0256740D01*
X0842230Y0256705D01*
X0842322Y0256672D01*
X0842416Y0256644D01*
X0842511Y0256619D01*
X0842607Y0256598D01*
X0842704Y0256581D01*
X0842801Y0256567D01*
X0842899Y0256558D01*
X0842997Y0256552D01*
X0843095Y0256550D01*
X0861595Y0256550D01*
X0861595Y0255050D02*
X0840595Y0255050D01*
X0840595Y0037050D01*
X0842595Y0038550D02*
X0863595Y0038550D01*
X0861595Y0035550D02*
X0843095Y0035550D01*
X0842997Y0035548D01*
X0842899Y0035542D01*
X0842801Y0035533D01*
X0842704Y0035519D01*
X0842607Y0035502D01*
X0842511Y0035481D01*
X0842416Y0035456D01*
X0842322Y0035428D01*
X0842230Y0035395D01*
X0842138Y0035360D01*
X0842048Y0035320D01*
X0841960Y0035278D01*
X0841873Y0035231D01*
X0841789Y0035182D01*
X0841706Y0035129D01*
X0841626Y0035073D01*
X0841547Y0035013D01*
X0841471Y0034951D01*
X0841398Y0034886D01*
X0841327Y0034818D01*
X0841259Y0034747D01*
X0841194Y0034674D01*
X0841132Y0034598D01*
X0841072Y0034519D01*
X0841016Y0034439D01*
X0840963Y0034356D01*
X0840914Y0034272D01*
X0840867Y0034185D01*
X0840825Y0034097D01*
X0840785Y0034007D01*
X0840750Y0033915D01*
X0840717Y0033823D01*
X0840689Y0033729D01*
X0840664Y0033634D01*
X0840643Y0033538D01*
X0840626Y0033441D01*
X0840612Y0033344D01*
X0840603Y0033246D01*
X0840597Y0033148D01*
X0840595Y0033050D01*
X0838595Y0019050D02*
X0836595Y0019050D01*
X0849595Y0062550D02*
X0858595Y0062550D01*
X0858595Y0064050D01*
X0851095Y0064050D01*
X0851095Y0070050D01*
X0858595Y0070050D01*
X0858595Y0071550D01*
X0849595Y0071550D01*
X0849595Y0062550D01*
X0849595Y0078050D02*
X0858595Y0078050D01*
X0858595Y0079550D01*
X0851095Y0079550D01*
X0851095Y0085550D01*
X0858595Y0085550D01*
X0858595Y0087050D01*
X0849595Y0087050D01*
X0849595Y0078050D01*
X0849595Y0093550D02*
X0858595Y0093550D01*
X0858595Y0095050D01*
X0851095Y0095050D01*
X0851095Y0101050D01*
X0858595Y0101050D01*
X0858595Y0102550D01*
X0849595Y0102550D01*
X0849595Y0093550D01*
X0849595Y0109550D02*
X0858595Y0109550D01*
X0858595Y0111050D01*
X0851095Y0111050D01*
X0851095Y0117050D01*
X0858595Y0117050D01*
X0858595Y0118550D01*
X0849595Y0118550D01*
X0849595Y0109550D01*
X0849595Y0126050D02*
X0858595Y0126050D01*
X0858595Y0127550D01*
X0851095Y0127550D01*
X0851095Y0133550D01*
X0858595Y0133550D01*
X0858595Y0135050D01*
X0849595Y0135050D01*
X0849595Y0126050D01*
X0849595Y0141550D02*
X0858595Y0141550D01*
X0858595Y0143050D01*
X0851095Y0143050D01*
X0851095Y0149050D01*
X0858595Y0149050D01*
X0858595Y0150550D01*
X0849595Y0150550D01*
X0849595Y0141550D01*
X0849595Y0157050D02*
X0858595Y0157050D01*
X0858595Y0158550D01*
X0851095Y0158550D01*
X0851095Y0164550D01*
X0858595Y0164550D01*
X0858595Y0166050D01*
X0849595Y0166050D01*
X0849595Y0157050D01*
X0849595Y0173550D02*
X0858595Y0173550D01*
X0858595Y0175050D01*
X0851095Y0175050D01*
X0851095Y0181050D01*
X0858595Y0181050D01*
X0858595Y0182550D01*
X0849595Y0182550D01*
X0849595Y0173550D01*
X0849595Y0189550D02*
X0858595Y0189550D01*
X0858595Y0191050D01*
X0851095Y0191050D01*
X0851095Y0197050D01*
X0858595Y0197050D01*
X0858595Y0198550D01*
X0849595Y0198550D01*
X0849595Y0189550D01*
X0849595Y0205050D02*
X0858595Y0205050D01*
X0858595Y0206550D01*
X0851095Y0206550D01*
X0851095Y0212550D01*
X0858595Y0212550D01*
X0858595Y0214050D01*
X0849595Y0214050D01*
X0849595Y0205050D01*
X0849595Y0220550D02*
X0858595Y0220550D01*
X0858595Y0222050D01*
X0851095Y0222050D01*
X0851095Y0228050D01*
X0858595Y0228050D01*
X0858595Y0229550D01*
X0849595Y0229550D01*
X0849595Y0220550D01*
X0863595Y0253550D02*
X0863595Y0254550D01*
X0863593Y0254637D01*
X0863587Y0254724D01*
X0863578Y0254811D01*
X0863565Y0254897D01*
X0863548Y0254983D01*
X0863527Y0255068D01*
X0863502Y0255151D01*
X0863474Y0255234D01*
X0863443Y0255315D01*
X0863408Y0255395D01*
X0863369Y0255473D01*
X0863327Y0255550D01*
X0863282Y0255625D01*
X0863233Y0255697D01*
X0863182Y0255768D01*
X0863127Y0255836D01*
X0863070Y0255901D01*
X0863009Y0255964D01*
X0862946Y0256025D01*
X0862881Y0256082D01*
X0862813Y0256137D01*
X0862742Y0256188D01*
X0862670Y0256237D01*
X0862595Y0256282D01*
X0862518Y0256324D01*
X0862440Y0256363D01*
X0862360Y0256398D01*
X0862279Y0256429D01*
X0862196Y0256457D01*
X0862113Y0256482D01*
X0862028Y0256503D01*
X0861942Y0256520D01*
X0861856Y0256533D01*
X0861769Y0256542D01*
X0861682Y0256548D01*
X0861595Y0256550D01*
X0788095Y0271050D02*
X0788097Y0271211D01*
X0788103Y0271371D01*
X0788113Y0271532D01*
X0788127Y0271692D01*
X0788145Y0271852D01*
X0788166Y0272011D01*
X0788192Y0272170D01*
X0788222Y0272328D01*
X0788255Y0272485D01*
X0788293Y0272642D01*
X0788334Y0272797D01*
X0788379Y0272951D01*
X0788428Y0273104D01*
X0788481Y0273256D01*
X0788537Y0273407D01*
X0788598Y0273556D01*
X0788661Y0273704D01*
X0788729Y0273850D01*
X0788800Y0273994D01*
X0788874Y0274136D01*
X0788952Y0274277D01*
X0789034Y0274415D01*
X0789119Y0274552D01*
X0789207Y0274686D01*
X0789299Y0274818D01*
X0789394Y0274948D01*
X0789492Y0275076D01*
X0789593Y0275201D01*
X0789697Y0275323D01*
X0789804Y0275443D01*
X0789914Y0275560D01*
X0790027Y0275675D01*
X0790143Y0275786D01*
X0790262Y0275895D01*
X0790383Y0276000D01*
X0790507Y0276103D01*
X0790633Y0276203D01*
X0790761Y0276299D01*
X0790892Y0276392D01*
X0791026Y0276482D01*
X0791161Y0276569D01*
X0791299Y0276652D01*
X0791438Y0276732D01*
X0791580Y0276808D01*
X0791723Y0276881D01*
X0791868Y0276950D01*
X0792015Y0277016D01*
X0792163Y0277078D01*
X0792313Y0277136D01*
X0792464Y0277191D01*
X0792617Y0277242D01*
X0792771Y0277289D01*
X0792926Y0277332D01*
X0793082Y0277371D01*
X0793238Y0277407D01*
X0793396Y0277438D01*
X0793554Y0277466D01*
X0793713Y0277490D01*
X0793873Y0277510D01*
X0794033Y0277526D01*
X0794193Y0277538D01*
X0794354Y0277546D01*
X0794515Y0277550D01*
X0794675Y0277550D01*
X0794836Y0277546D01*
X0794997Y0277538D01*
X0795157Y0277526D01*
X0795317Y0277510D01*
X0795477Y0277490D01*
X0795636Y0277466D01*
X0795794Y0277438D01*
X0795952Y0277407D01*
X0796108Y0277371D01*
X0796264Y0277332D01*
X0796419Y0277289D01*
X0796573Y0277242D01*
X0796726Y0277191D01*
X0796877Y0277136D01*
X0797027Y0277078D01*
X0797175Y0277016D01*
X0797322Y0276950D01*
X0797467Y0276881D01*
X0797610Y0276808D01*
X0797752Y0276732D01*
X0797891Y0276652D01*
X0798029Y0276569D01*
X0798164Y0276482D01*
X0798298Y0276392D01*
X0798429Y0276299D01*
X0798557Y0276203D01*
X0798683Y0276103D01*
X0798807Y0276000D01*
X0798928Y0275895D01*
X0799047Y0275786D01*
X0799163Y0275675D01*
X0799276Y0275560D01*
X0799386Y0275443D01*
X0799493Y0275323D01*
X0799597Y0275201D01*
X0799698Y0275076D01*
X0799796Y0274948D01*
X0799891Y0274818D01*
X0799983Y0274686D01*
X0800071Y0274552D01*
X0800156Y0274415D01*
X0800238Y0274277D01*
X0800316Y0274136D01*
X0800390Y0273994D01*
X0800461Y0273850D01*
X0800529Y0273704D01*
X0800592Y0273556D01*
X0800653Y0273407D01*
X0800709Y0273256D01*
X0800762Y0273104D01*
X0800811Y0272951D01*
X0800856Y0272797D01*
X0800897Y0272642D01*
X0800935Y0272485D01*
X0800968Y0272328D01*
X0800998Y0272170D01*
X0801024Y0272011D01*
X0801045Y0271852D01*
X0801063Y0271692D01*
X0801077Y0271532D01*
X0801087Y0271371D01*
X0801093Y0271211D01*
X0801095Y0271050D01*
X0801093Y0270889D01*
X0801087Y0270729D01*
X0801077Y0270568D01*
X0801063Y0270408D01*
X0801045Y0270248D01*
X0801024Y0270089D01*
X0800998Y0269930D01*
X0800968Y0269772D01*
X0800935Y0269615D01*
X0800897Y0269458D01*
X0800856Y0269303D01*
X0800811Y0269149D01*
X0800762Y0268996D01*
X0800709Y0268844D01*
X0800653Y0268693D01*
X0800592Y0268544D01*
X0800529Y0268396D01*
X0800461Y0268250D01*
X0800390Y0268106D01*
X0800316Y0267964D01*
X0800238Y0267823D01*
X0800156Y0267685D01*
X0800071Y0267548D01*
X0799983Y0267414D01*
X0799891Y0267282D01*
X0799796Y0267152D01*
X0799698Y0267024D01*
X0799597Y0266899D01*
X0799493Y0266777D01*
X0799386Y0266657D01*
X0799276Y0266540D01*
X0799163Y0266425D01*
X0799047Y0266314D01*
X0798928Y0266205D01*
X0798807Y0266100D01*
X0798683Y0265997D01*
X0798557Y0265897D01*
X0798429Y0265801D01*
X0798298Y0265708D01*
X0798164Y0265618D01*
X0798029Y0265531D01*
X0797891Y0265448D01*
X0797752Y0265368D01*
X0797610Y0265292D01*
X0797467Y0265219D01*
X0797322Y0265150D01*
X0797175Y0265084D01*
X0797027Y0265022D01*
X0796877Y0264964D01*
X0796726Y0264909D01*
X0796573Y0264858D01*
X0796419Y0264811D01*
X0796264Y0264768D01*
X0796108Y0264729D01*
X0795952Y0264693D01*
X0795794Y0264662D01*
X0795636Y0264634D01*
X0795477Y0264610D01*
X0795317Y0264590D01*
X0795157Y0264574D01*
X0794997Y0264562D01*
X0794836Y0264554D01*
X0794675Y0264550D01*
X0794515Y0264550D01*
X0794354Y0264554D01*
X0794193Y0264562D01*
X0794033Y0264574D01*
X0793873Y0264590D01*
X0793713Y0264610D01*
X0793554Y0264634D01*
X0793396Y0264662D01*
X0793238Y0264693D01*
X0793082Y0264729D01*
X0792926Y0264768D01*
X0792771Y0264811D01*
X0792617Y0264858D01*
X0792464Y0264909D01*
X0792313Y0264964D01*
X0792163Y0265022D01*
X0792015Y0265084D01*
X0791868Y0265150D01*
X0791723Y0265219D01*
X0791580Y0265292D01*
X0791438Y0265368D01*
X0791299Y0265448D01*
X0791161Y0265531D01*
X0791026Y0265618D01*
X0790892Y0265708D01*
X0790761Y0265801D01*
X0790633Y0265897D01*
X0790507Y0265997D01*
X0790383Y0266100D01*
X0790262Y0266205D01*
X0790143Y0266314D01*
X0790027Y0266425D01*
X0789914Y0266540D01*
X0789804Y0266657D01*
X0789697Y0266777D01*
X0789593Y0266899D01*
X0789492Y0267024D01*
X0789394Y0267152D01*
X0789299Y0267282D01*
X0789207Y0267414D01*
X0789119Y0267548D01*
X0789034Y0267685D01*
X0788952Y0267823D01*
X0788874Y0267964D01*
X0788800Y0268106D01*
X0788729Y0268250D01*
X0788661Y0268396D01*
X0788598Y0268544D01*
X0788537Y0268693D01*
X0788481Y0268844D01*
X0788428Y0268996D01*
X0788379Y0269149D01*
X0788334Y0269303D01*
X0788293Y0269458D01*
X0788255Y0269615D01*
X0788222Y0269772D01*
X0788192Y0269930D01*
X0788166Y0270089D01*
X0788145Y0270248D01*
X0788127Y0270408D01*
X0788113Y0270568D01*
X0788103Y0270729D01*
X0788097Y0270889D01*
X0788095Y0271050D01*
D13*
X0788092Y0256906D02*
X0787341Y0256156D01*
X0787341Y0254655D01*
X0788092Y0253904D01*
X0788843Y0253904D01*
X0789593Y0254655D01*
X0789593Y0256906D01*
X0788092Y0256906D02*
X0791095Y0256906D01*
X0791845Y0256156D01*
X0791845Y0254655D01*
X0791095Y0253904D01*
X0791845Y0252303D02*
X0791845Y0249300D01*
X0791845Y0250801D02*
X0787341Y0250801D01*
X0788843Y0249300D01*
X0797341Y0249051D02*
X0797341Y0250552D01*
X0798092Y0251303D01*
X0798843Y0251303D01*
X0799593Y0250552D01*
X0800344Y0251303D01*
X0801095Y0251303D01*
X0801845Y0250552D01*
X0801845Y0249051D01*
X0801095Y0248300D01*
X0799593Y0249801D02*
X0799593Y0250552D01*
X0798092Y0248300D02*
X0797341Y0249051D01*
X0797341Y0252904D02*
X0797341Y0255906D01*
X0798092Y0255906D01*
X0801095Y0252904D01*
X0801845Y0252904D01*
X0801595Y0043406D02*
X0798592Y0043406D01*
X0801595Y0040404D01*
X0802345Y0041155D01*
X0802345Y0042656D01*
X0801595Y0043406D01*
X0801595Y0040404D02*
X0798592Y0040404D01*
X0797841Y0041155D01*
X0797841Y0042656D01*
X0798592Y0043406D01*
X0798592Y0038803D02*
X0797841Y0038052D01*
X0797841Y0036551D01*
X0798592Y0035800D01*
X0798592Y0038803D02*
X0799343Y0038803D01*
X0802345Y0035800D01*
X0802345Y0038803D01*
X0791845Y0040300D02*
X0791845Y0043303D01*
X0791845Y0041801D02*
X0787341Y0041801D01*
X0788843Y0040300D01*
X0138345Y0041800D02*
X0138345Y0044803D01*
X0138345Y0043301D02*
X0133841Y0043301D01*
X0135343Y0041800D01*
X0128345Y0042655D02*
X0127595Y0041904D01*
X0124592Y0044906D01*
X0127595Y0044906D01*
X0128345Y0044156D01*
X0128345Y0042655D01*
X0127595Y0041904D02*
X0124592Y0041904D01*
X0123841Y0042655D01*
X0123841Y0044156D01*
X0124592Y0044906D01*
X0124592Y0040303D02*
X0123841Y0039552D01*
X0123841Y0038051D01*
X0124592Y0037300D01*
X0124592Y0040303D02*
X0125343Y0040303D01*
X0128345Y0037300D01*
X0128345Y0040303D01*
X0127595Y0250300D02*
X0128345Y0251051D01*
X0128345Y0252552D01*
X0127595Y0253303D01*
X0126844Y0253303D01*
X0126093Y0252552D01*
X0126093Y0251801D01*
X0126093Y0252552D02*
X0125343Y0253303D01*
X0124592Y0253303D01*
X0123841Y0252552D01*
X0123841Y0251051D01*
X0124592Y0250300D01*
X0123841Y0254904D02*
X0123841Y0257906D01*
X0124592Y0257906D01*
X0127595Y0254904D01*
X0128345Y0254904D01*
X0133841Y0255655D02*
X0133841Y0257156D01*
X0134592Y0257906D01*
X0137595Y0257906D01*
X0138345Y0257156D01*
X0138345Y0255655D01*
X0137595Y0254904D01*
X0136093Y0255655D02*
X0136093Y0257906D01*
X0136093Y0255655D02*
X0135343Y0254904D01*
X0134592Y0254904D01*
X0133841Y0255655D01*
X0133841Y0251801D02*
X0138345Y0251801D01*
X0138345Y0250300D02*
X0138345Y0253303D01*
X0135343Y0250300D02*
X0133841Y0251801D01*
D14*
X0102595Y0147550D03*
X0823095Y0146050D03*
D15*
X0839595Y0146050D03*
X0086095Y0147550D03*
D16*
X0118345Y0147550D03*
X0118345Y0136750D03*
X0118345Y0125850D03*
X0118345Y0114950D03*
X0118345Y0104050D03*
X0118345Y0093250D03*
X0118345Y0082350D03*
X0118345Y0071450D03*
X0118345Y0060650D03*
X0118345Y0049750D03*
X0118345Y0158450D03*
X0118345Y0169250D03*
X0118345Y0180150D03*
X0118345Y0191050D03*
X0118345Y0201950D03*
X0118345Y0212750D03*
X0118345Y0223750D03*
X0118345Y0234450D03*
X0118345Y0245350D03*
X0807345Y0243850D03*
X0807345Y0232950D03*
X0807345Y0222150D03*
X0807345Y0211250D03*
X0807345Y0200350D03*
X0807245Y0189550D03*
X0807345Y0178650D03*
X0807345Y0167750D03*
X0807345Y0156950D03*
X0807345Y0146050D03*
X0807345Y0135150D03*
X0807345Y0124350D03*
X0807345Y0113450D03*
X0807345Y0102550D03*
X0807345Y0091650D03*
X0807345Y0080850D03*
X0807345Y0080850D03*
X0807345Y0069950D03*
X0807345Y0059050D03*
X0807345Y0048250D03*
D17*
X0812345Y0053650D03*
X0812345Y0064550D03*
X0812345Y0075350D03*
X0812345Y0086250D03*
X0812345Y0086250D03*
X0812345Y0097150D03*
X0812345Y0108050D03*
X0812345Y0118850D03*
X0812345Y0129750D03*
X0812345Y0140650D03*
X0812345Y0151450D03*
X0812345Y0162350D03*
X0812345Y0173250D03*
X0812345Y0184050D03*
X0812345Y0194950D03*
X0812345Y0205850D03*
X0812345Y0216650D03*
X0812345Y0227550D03*
X0812345Y0238450D03*
X0113345Y0239950D03*
X0113345Y0229050D03*
X0113345Y0218250D03*
X0113345Y0207350D03*
X0113345Y0196450D03*
X0113345Y0185550D03*
X0113345Y0174750D03*
X0113345Y0163850D03*
X0113345Y0152950D03*
X0113345Y0142150D03*
X0113345Y0131250D03*
X0113345Y0120350D03*
X0113345Y0109550D03*
X0113345Y0098650D03*
X0113345Y0087750D03*
X0113345Y0076950D03*
X0113345Y0066050D03*
X0113345Y0055150D03*
D18*
X0831845Y0031550D03*
X0831845Y0260550D03*
D19*
X0821345Y0271350D03*
X0821345Y0020750D03*
D20*
X0540284Y0013952D02*
X0539694Y0013361D01*
X0539005Y0014050D01*
X0539595Y0014641D01*
X0540284Y0013952D01*
X0419784Y0014952D02*
X0419194Y0014361D01*
X0418505Y0015050D01*
X0419095Y0015641D01*
X0419784Y0014952D01*
D21*
X0417520Y0013967D03*
X0538020Y0012967D03*
M02*
