%
M48
M72
T01C0.0157
T02C0.0400
T03C0.1024
T04C0.1300
%
T01
X29750Y6015
X34460Y5605
X35210Y6355
X40610Y6755
X43660Y6755
X45710Y7155
X48360Y7205
X50910Y7555
X55110Y5305
X56410Y5105
X57060Y4855
X58760Y4605
X58760Y5105
X58710Y6255
X59160Y6255
X59610Y6255
X60060Y6255
X60510Y6255
X62060Y6555
X59910Y7305
X59310Y7905
X58760Y7855
X58710Y7355
X57660Y8355
X58010Y9005
X59610Y8955
X55810Y7455
X59610Y10555
X57610Y11155
X58760Y11605
X58760Y12105
X59510Y12155
X59360Y11555
X59160Y13155
X59610Y13155
X60060Y13155
X60510Y13155
X61810Y13055
X62610Y12755
X65110Y13155
X65560Y13155
X66010Y13155
X66460Y13155
X66910Y13155
X68210Y13155
X69460Y13155
X71510Y13155
X71960Y13155
X72410Y13155
X72860Y13155
X73310Y13155
X74610Y13055
X72310Y12155
X71560Y12155
X71560Y11655
X72160Y11555
X70460Y11155
X71160Y10605
X72410Y10555
X76260Y10605
X76260Y11055
X76860Y10605
X76960Y10055
X75660Y8955
X74310Y8605
X68460Y6555
X66910Y6255
X66460Y6255
X66010Y6255
X65560Y6255
X65110Y6255
X65160Y7355
X65160Y7855
X65710Y7905
X66310Y7305
X64060Y8305
X66010Y8955
X66010Y10555
X65760Y11555
X65160Y11605
X65160Y12105
X65910Y12155
X64060Y11105
X58710Y13155
X58760Y14205
X58760Y14705
X57060Y14455
X57260Y15755
X56910Y16155
X58710Y15855
X59160Y15855
X59610Y15855
X60060Y15855
X60510Y15855
X62060Y16155
X59910Y16905
X59310Y17505
X58760Y17455
X57660Y17955
X56660Y17155
X58760Y17005
X59610Y18555
X59560Y20155
X59310Y21155
X58710Y21205
X58710Y21705
X59460Y21755
X59560Y22755
X60010Y22755
X60460Y22755
X59110Y22755
X58660Y22755
X58710Y23805
X58710Y24355
X57010Y24055
X58660Y25455
X59110Y25455
X59560Y25455
X60010Y25455
X60460Y25455
X62010Y25755
X62660Y25455
X65060Y25455
X65510Y25455
X65960Y25455
X66410Y25455
X66860Y25455
X68410Y25755
X66260Y26505
X65060Y26605
X65060Y27105
X65660Y27105
X65110Y28005
X65960Y28155
X63960Y27555
X59860Y26505
X59260Y27105
X58710Y27105
X57610Y27505
X59560Y28155
X58710Y26605
X63410Y24055
X65110Y23805
X65110Y24305
X65060Y22755
X65510Y22755
X65960Y22755
X66410Y22755
X66860Y22755
X68160Y22555
X69210Y22555
X71460Y22755
X71910Y22755
X72360Y22755
X72810Y22755
X73260Y22755
X74560Y22605
X72260Y21755
X71510Y21755
X71510Y21255
X72110Y21155
X71560Y20505
X72360Y20155
X71610Y19955
X70960Y19655
X70710Y19255
X72410Y18555
X73310Y19355
X74310Y19555
X75760Y19655
X76160Y19205
X76810Y17805
X76660Y17255
X77110Y16655
X77110Y16205
X77110Y15405
X77610Y15405
X74860Y16155
X73310Y15855
X72860Y15855
X72410Y15855
X71960Y15855
X71510Y15855
X71560Y14755
X71560Y14255
X69860Y14505
X69110Y15855
X68460Y16155
X66910Y15855
X66460Y15855
X66010Y15855
X65560Y15855
X65110Y15855
X65160Y14755
X65160Y14255
X63460Y14505
X65160Y16955
X66310Y16905
X65710Y17505
X65160Y17455
X64060Y17905
X66010Y18555
X65960Y20155
X65710Y21155
X65110Y21205
X65110Y21705
X65860Y21755
X64010Y20755
X63410Y20505
X64010Y22755
X61760Y22655
X57610Y20755
X69860Y24105
X71510Y23855
X71510Y24355
X71460Y25455
X71910Y25455
X72360Y25455
X72810Y25455
X73260Y25455
X74810Y25705
X72660Y26505
X71510Y26555
X71510Y27055
X72060Y27105
X70410Y27505
X70960Y28455
X72360Y28155
X76410Y28455
X78110Y25455
X83760Y28755
X70410Y20755
X70460Y17955
X71560Y17455
X72110Y17505
X71560Y16955
X72710Y16905
X43310Y12555
X39760Y15405
X39210Y15705
X35210Y15105
X16660Y17505
X15060Y17405
X14710Y18305
X16360Y18155
X16060Y19205
X14360Y19105
X15410Y16605
X15760Y16005
X43460Y3355
X34610Y755
X55110Y3955
X58710Y3555
X59160Y3555
X59610Y3555
X60060Y3555
X60510Y3555
X61760Y3505
X63510Y4855
X65160Y4605
X65160Y5105
X65110Y3555
X65560Y3555
X66010Y3555
X66460Y3555
X66910Y3555
X68210Y3355
X65910Y2555
X65160Y2505
X65160Y2005
X65760Y1955
X66860Y1055
X66010Y955
X65060Y1005
X64060Y1555
X62910Y1005
X59610Y955
X59360Y1955
X58760Y2005
X57110Y2255
X58760Y2505
X59510Y2555
X56560Y705
X83710Y505
T02
X78960Y4825
X79960Y5365
X78960Y5905
X79960Y6455
X78960Y6995
X79960Y7535
X78960Y8085
X79960Y8625
X78960Y9165
X79960Y9715
X78960Y10255
X79960Y10805
X78960Y11345
X79960Y11885
X78960Y12435
X79960Y12975
X78960Y13515
X79960Y14065
X78960Y14605
X79960Y15145
X78960Y15695
X79960Y16235
X78960Y16775
X79960Y17325
X78960Y17865
X79960Y18405
X78960Y18955
X79960Y19495
X78960Y20035
X79960Y20585
X78960Y21125
X79960Y21665
X78960Y22215
X79960Y22755
X78960Y23295
X79960Y23845
X78960Y24385
X52660Y4205
X51660Y4205
X50460Y4205
X50460Y3205
X51660Y3205
X52660Y3205
X40960Y3155
X39960Y3155
X38810Y3155
X38810Y4155
X39960Y4155
X40960Y4155
X13610Y4975
X12610Y5515
X13610Y6065
X12610Y6605
X13610Y7145
X12610Y7695
X13610Y8235
X12610Y8775
X13610Y9325
X12610Y9865
X13610Y10405
X12610Y10955
X13610Y11495
X12610Y12035
X13610Y12585
X12610Y13125
X13610Y13665
X12610Y14215
X13610Y14755
X12610Y15295
X13610Y15845
X12610Y16385
X13610Y16925
X12610Y17475
X13610Y18015
X12610Y18565
X13610Y19105
X12610Y19645
X13610Y20195
X12610Y20735
X13610Y21275
X12610Y21825
X13610Y22365
X12610Y22905
X13610Y23455
X12610Y23995
X13610Y24535
T03
X19860Y23755
X24860Y23755
X29860Y23755
X34860Y23755
X39860Y23755
X44860Y23755
X49860Y23755
X54860Y23755
X54860Y18755
X49860Y18755
X44860Y18755
X39860Y18755
X34860Y18755
X29860Y18755
X24860Y18755
X19860Y18755
X19860Y13755
X24860Y13755
X29860Y13755
X34860Y13755
X39860Y13755
X44860Y13755
X49860Y13755
X54860Y13755
X54810Y8755
X49860Y8755
X44860Y8755
X39860Y8755
X34860Y8755
X29860Y8755
X24860Y8755
X19860Y8755
T04
X13110Y2255
X13110Y27255
X79460Y27105
X79460Y2105
M30
