G75*
%MOIN*%
%OFA0B0*%
%FSLAX25Y25*%
%IPPOS*%
%LPD*%
%AMOC8*
5,1,8,0,0,1.08239X$1,22.5*
%
%ADD10C,0.00000*%
%ADD11C,0.00512*%
%ADD12C,0.00600*%
D10*
X0084595Y0002050D02*
X0084595Y0290550D01*
X0840595Y0290550D01*
X0840595Y0002050D01*
X0084595Y0002050D01*
D11*
X0004918Y0002050D01*
X0012595Y0002306D02*
X0013619Y0012286D01*
X0013852Y0012286D02*
X0012595Y0002306D01*
X0011572Y0012286D01*
X0011338Y0012286D02*
X0013852Y0012286D01*
X0013107Y0012286D02*
X0012595Y0002306D01*
X0012083Y0012286D01*
X0011338Y0012286D02*
X0012595Y0002306D01*
X0012595Y0290294D01*
X0013619Y0280314D01*
X0013852Y0280314D02*
X0012595Y0290294D01*
X0011572Y0280314D01*
X0011338Y0280314D02*
X0013852Y0280314D01*
X0013107Y0280314D02*
X0012595Y0290294D01*
X0012083Y0280314D01*
X0011338Y0280314D02*
X0012595Y0290294D01*
X0004918Y0290550D02*
X0084595Y0290550D01*
X0084595Y0342227D01*
X0084851Y0334550D02*
X0094831Y0333526D01*
X0094831Y0333293D02*
X0084851Y0334550D01*
X0094831Y0335574D01*
X0094831Y0335807D02*
X0094831Y0333293D01*
X0094831Y0334038D02*
X0084851Y0334550D01*
X0094831Y0335062D01*
X0094831Y0335807D02*
X0084851Y0334550D01*
X0839339Y0334550D01*
X0829359Y0333526D01*
X0829359Y0333293D02*
X0839339Y0334550D01*
X0829359Y0335574D01*
X0829359Y0335807D02*
X0829359Y0333293D01*
X0829359Y0334038D02*
X0839339Y0334550D01*
X0829359Y0335062D01*
X0829359Y0335807D02*
X0839339Y0334550D01*
X0839595Y0342227D02*
X0839595Y0306050D01*
D12*
X0480313Y0342450D02*
X0476043Y0338179D01*
X0476043Y0337112D01*
X0473868Y0342450D02*
X0469598Y0338179D01*
X0469598Y0337112D01*
X0467442Y0337112D02*
X0466375Y0337112D01*
X0466375Y0338179D01*
X0467442Y0338179D01*
X0467442Y0337112D01*
X0464200Y0337112D02*
X0459929Y0337112D01*
X0462065Y0337112D02*
X0462065Y0343517D01*
X0459929Y0341382D01*
X0457754Y0340315D02*
X0454551Y0340315D01*
X0453484Y0341382D01*
X0453484Y0342450D01*
X0454551Y0343517D01*
X0456687Y0343517D01*
X0457754Y0342450D01*
X0457754Y0338179D01*
X0456687Y0337112D01*
X0454551Y0337112D01*
X0453484Y0338179D01*
X0451309Y0337112D02*
X0447038Y0337112D01*
X0449174Y0337112D02*
X0449174Y0343517D01*
X0447038Y0341382D01*
X0469598Y0343517D02*
X0473868Y0343517D01*
X0473868Y0342450D01*
X0476043Y0343517D02*
X0480313Y0343517D01*
X0480313Y0342450D01*
X0010033Y0159799D02*
X0010033Y0157664D01*
X0008966Y0156596D01*
X0007898Y0156596D01*
X0006831Y0157664D01*
X0006831Y0159799D01*
X0007898Y0160867D01*
X0008966Y0160867D01*
X0010033Y0159799D01*
X0006831Y0159799D02*
X0005763Y0160867D01*
X0004695Y0160867D01*
X0003628Y0159799D01*
X0003628Y0157664D01*
X0004695Y0156596D01*
X0005763Y0156596D01*
X0006831Y0157664D01*
X0005763Y0154421D02*
X0004695Y0154421D01*
X0003628Y0153353D01*
X0003628Y0151218D01*
X0004695Y0150151D01*
X0005763Y0154421D02*
X0010033Y0150151D01*
X0010033Y0154421D01*
X0010033Y0147996D02*
X0010033Y0146928D01*
X0008966Y0146928D01*
X0008966Y0147996D01*
X0010033Y0147996D01*
X0008966Y0144753D02*
X0007898Y0144753D01*
X0006831Y0143685D01*
X0006831Y0142618D01*
X0006831Y0143685D02*
X0005763Y0144753D01*
X0004695Y0144753D01*
X0003628Y0143685D01*
X0003628Y0141550D01*
X0004695Y0140483D01*
X0004695Y0138307D02*
X0008966Y0134037D01*
X0010033Y0134037D01*
X0003628Y0134037D02*
X0003628Y0138307D01*
X0004695Y0138307D01*
X0008966Y0140483D02*
X0010033Y0141550D01*
X0010033Y0143685D01*
X0008966Y0144753D01*
M02*
