G75*
%MOIN*%
%OFA0B0*%
%FSLAX25Y25*%
%IPPOS*%
%LPD*%
%AMOC8*
5,1,8,0,0,1.08239X$1,22.5*
%
%ADD10C,0.00600*%
%ADD11C,0.00800*%
%ADD12C,0.01575*%
D10*
X0383095Y0029050D02*
X0385595Y0026550D01*
X0390595Y0026550D01*
X0393095Y0029050D01*
X0393095Y0034050D01*
X0390595Y0036550D01*
X0393095Y0039050D01*
X0393095Y0044050D01*
X0390595Y0046550D01*
X0385595Y0046550D01*
X0383095Y0044050D01*
X0383095Y0039050D01*
X0385595Y0036550D01*
X0383095Y0034050D01*
X0383095Y0029050D01*
X0394595Y0029050D02*
X0394595Y0034050D01*
X0397095Y0036550D01*
X0412095Y0036550D01*
X0414595Y0039050D01*
X0414595Y0044050D01*
X0412095Y0046550D01*
X0397095Y0046550D01*
X0394595Y0044050D01*
X0394595Y0039050D01*
X0397095Y0036550D01*
X0390595Y0036550D02*
X0385595Y0036550D01*
X0394595Y0029050D02*
X0397095Y0026550D01*
X0412095Y0026550D01*
X0414595Y0029050D01*
X0414595Y0034050D01*
X0412095Y0036550D01*
X0499595Y0034550D02*
X0499595Y0029550D01*
X0502095Y0027050D01*
X0507095Y0027050D01*
X0509595Y0029550D01*
X0509595Y0034550D01*
X0507095Y0037050D01*
X0509595Y0039550D01*
X0509595Y0044550D01*
X0507095Y0047050D01*
X0502095Y0047050D01*
X0499595Y0044550D01*
X0499595Y0039550D01*
X0502095Y0037050D01*
X0499595Y0034550D01*
X0502095Y0037050D02*
X0507095Y0037050D01*
X0511595Y0034550D02*
X0511595Y0029550D01*
X0514095Y0027050D01*
X0529095Y0027050D01*
X0531595Y0029550D01*
X0531595Y0034550D01*
X0529095Y0037050D01*
X0514095Y0037050D01*
X0511595Y0039550D01*
X0511595Y0044550D01*
X0514095Y0047050D01*
X0529095Y0047050D01*
X0531595Y0044550D01*
X0531595Y0039550D01*
X0529095Y0037050D01*
X0514095Y0037050D02*
X0511595Y0034550D01*
D11*
X0346284Y0028676D02*
X0346284Y0044424D01*
X0365969Y0044424D02*
X0365969Y0049148D01*
X0375812Y0049148D01*
X0375812Y0052298D01*
X0362032Y0052298D01*
X0365969Y0028676D02*
X0365969Y0023952D01*
X0375812Y0023952D01*
X0375812Y0020802D01*
X0362032Y0020802D01*
X0462784Y0029176D02*
X0462784Y0044924D01*
X0482469Y0044924D02*
X0482469Y0049648D01*
X0492312Y0049648D01*
X0492312Y0052798D01*
X0478532Y0052798D01*
X0482469Y0029176D02*
X0482469Y0024452D01*
X0492312Y0024452D01*
X0492312Y0021302D01*
X0478532Y0021302D01*
X0590485Y0043038D02*
X0590485Y0054062D01*
X0601705Y0054062D02*
X0601705Y0043038D01*
X0654485Y0043038D02*
X0654485Y0054062D01*
X0665705Y0054062D02*
X0665705Y0043038D01*
X0665705Y0139038D02*
X0665705Y0150062D01*
X0654485Y0150062D02*
X0654485Y0139038D01*
X0601705Y0139038D02*
X0601705Y0150062D01*
X0590485Y0150062D02*
X0590485Y0139038D01*
X0718485Y0139038D02*
X0718485Y0150062D01*
X0729705Y0150062D02*
X0729705Y0139038D01*
X0729205Y0235038D02*
X0729205Y0246062D01*
X0717985Y0246062D02*
X0717985Y0235038D01*
X0665205Y0235038D02*
X0665205Y0246062D01*
X0653985Y0246062D02*
X0653985Y0235038D01*
X0601205Y0235038D02*
X0601205Y0246062D01*
X0589985Y0246062D02*
X0589985Y0235038D01*
D12*
X0589690Y0247637D03*
X0653690Y0247637D03*
X0717690Y0247637D03*
X0718190Y0151637D03*
X0654190Y0151637D03*
X0590190Y0151637D03*
X0590190Y0055637D03*
X0654190Y0055637D03*
M02*
