G75*
%MOIN*%
%OFA0B0*%
%FSLAX25Y25*%
%IPPOS*%
%LPD*%
%AMOC8*
5,1,8,0,0,1.08239X$1,22.5*
%
%ADD10R,0.06890X0.06102*%
%ADD11C,0.05543*%
%ADD12C,0.06528*%
%ADD13R,0.02087X0.02677*%
%ADD14OC8,0.06000*%
%ADD15OC8,0.06984*%
%ADD16C,0.20000*%
%ADD17C,0.20984*%
%ADD18C,0.06000*%
%ADD19C,0.06984*%
%ADD20C,0.07400*%
%ADD21C,0.08384*%
%ADD22C,0.07283*%
%ADD23C,0.04921*%
%ADD24C,0.06600*%
%ADD25C,0.07584*%
%ADD26OC8,0.08500*%
%ADD27OC8,0.09484*%
%ADD28C,0.03575*%
%ADD29C,0.04559*%
%ADD30C,0.04362*%
%ADD31C,0.05346*%
%ADD32C,0.03969*%
%ADD33C,0.04953*%
D10*
X0166175Y0139341D03*
X0166175Y0146821D03*
X0169925Y0158716D03*
X0169925Y0166196D03*
X0166175Y0225955D03*
X0166175Y0233435D03*
X0169925Y0245330D03*
X0169925Y0252810D03*
X0166175Y0312569D03*
X0166175Y0320049D03*
X0169925Y0331944D03*
X0169925Y0339424D03*
X0166175Y0399183D03*
X0166175Y0406663D03*
X0169925Y0418558D03*
X0169925Y0426038D03*
X0166175Y0485797D03*
X0166175Y0493278D03*
X0169925Y0505172D03*
X0169925Y0512653D03*
X0166175Y0572411D03*
X0166175Y0579892D03*
X0169925Y0591786D03*
X0169925Y0599267D03*
X0166175Y0659026D03*
X0166175Y0666506D03*
X0169925Y0678401D03*
X0169925Y0685881D03*
X0166175Y0745640D03*
X0166175Y0753120D03*
X0169925Y0765015D03*
X0169925Y0772495D03*
D11*
X0334300Y0751442D03*
X0334300Y0743568D03*
X0334300Y0664828D03*
X0334300Y0656954D03*
X0334300Y0578214D03*
X0334300Y0570340D03*
X0334300Y0491599D03*
X0334300Y0483725D03*
X0334300Y0404985D03*
X0334300Y0397111D03*
X0334300Y0318371D03*
X0334300Y0310497D03*
X0334300Y0231757D03*
X0334300Y0223883D03*
X0334300Y0145143D03*
X0334300Y0137269D03*
D12*
X0334300Y0137269D03*
X0334300Y0145143D03*
X0334300Y0223883D03*
X0334300Y0231757D03*
X0334300Y0310497D03*
X0334300Y0318371D03*
X0334300Y0397111D03*
X0334300Y0404985D03*
X0334300Y0483725D03*
X0334300Y0491599D03*
X0334300Y0570340D03*
X0334300Y0578214D03*
X0334300Y0656954D03*
X0334300Y0664828D03*
X0334300Y0743568D03*
X0334300Y0751442D03*
D13*
X0178429Y0744380D03*
X0176421Y0744380D03*
X0176421Y0657766D03*
X0178429Y0657766D03*
X0178429Y0571152D03*
X0176421Y0571152D03*
X0176421Y0484537D03*
X0178429Y0484537D03*
X0178429Y0397923D03*
X0176421Y0397923D03*
X0176421Y0311309D03*
X0178429Y0311309D03*
X0178429Y0224695D03*
X0176421Y0224695D03*
X0176421Y0138081D03*
X0178429Y0138081D03*
D14*
X0367750Y0114016D03*
X0378550Y0114016D03*
X0389450Y0114016D03*
X0400350Y0114016D03*
X0411150Y0114016D03*
X0422050Y0114016D03*
X0432950Y0114016D03*
X0443850Y0114016D03*
X0454650Y0114016D03*
X0465550Y0114016D03*
X0476450Y0114016D03*
X0487250Y0114016D03*
X0498150Y0114016D03*
X0509050Y0114016D03*
X0519850Y0114016D03*
X0530750Y0114016D03*
X0541650Y0114016D03*
X0552450Y0114016D03*
X0563350Y0114016D03*
X0557950Y0104016D03*
X0547050Y0104016D03*
X0536150Y0104016D03*
X0525350Y0104016D03*
X0514450Y0104016D03*
X0503550Y0104016D03*
X0492750Y0104016D03*
X0481850Y0104016D03*
X0470950Y0104016D03*
X0460150Y0104016D03*
X0449250Y0104016D03*
X0438350Y0104016D03*
X0427550Y0104016D03*
X0416650Y0104016D03*
X0405750Y0104016D03*
X0394850Y0104016D03*
X0384050Y0104016D03*
X0373150Y0104016D03*
X0378675Y0432357D03*
X0389300Y0432357D03*
X0399925Y0432357D03*
X0411175Y0432357D03*
X0421800Y0432357D03*
X0433050Y0432357D03*
X0443675Y0432357D03*
X0454300Y0432357D03*
X0465550Y0432357D03*
X0476175Y0432357D03*
X0487425Y0432357D03*
X0498050Y0432357D03*
X0509300Y0432357D03*
X0519925Y0432357D03*
X0530550Y0432357D03*
X0541800Y0432357D03*
X0552425Y0432357D03*
X0563050Y0432357D03*
X0503675Y0456107D03*
X0493050Y0456107D03*
X0481800Y0456107D03*
X0471175Y0456107D03*
X0459925Y0456107D03*
X0449300Y0456107D03*
X0438050Y0456107D03*
X0427425Y0456107D03*
X0416800Y0456107D03*
X0405550Y0456107D03*
X0394925Y0456107D03*
X0383675Y0456107D03*
X0373050Y0456107D03*
X0367425Y0432357D03*
X0367750Y0796255D03*
X0373150Y0806255D03*
X0378650Y0796255D03*
X0384050Y0806255D03*
X0389450Y0796255D03*
X0400350Y0796255D03*
X0394950Y0806255D03*
X0405750Y0806255D03*
X0411250Y0796255D03*
X0416650Y0806255D03*
X0422050Y0796255D03*
X0427550Y0806255D03*
X0432950Y0796255D03*
X0438350Y0806255D03*
X0449250Y0806255D03*
X0443850Y0796255D03*
X0454650Y0796255D03*
X0460150Y0806255D03*
X0465550Y0796255D03*
X0470950Y0806255D03*
X0476450Y0796255D03*
X0481850Y0806255D03*
X0487250Y0796255D03*
X0492750Y0806255D03*
X0503650Y0806255D03*
X0509050Y0796255D03*
X0498150Y0796255D03*
X0514450Y0806255D03*
X0519950Y0796255D03*
X0525350Y0806255D03*
X0530750Y0796255D03*
X0536250Y0806255D03*
X0541650Y0796255D03*
X0552550Y0796255D03*
X0557950Y0806255D03*
X0547050Y0806255D03*
X0563350Y0796255D03*
X0076800Y0782855D03*
X0076800Y0772055D03*
X0076800Y0761255D03*
X0066800Y0755855D03*
X0066800Y0745055D03*
X0076800Y0739655D03*
X0076800Y0750455D03*
X0066800Y0766655D03*
X0066800Y0777455D03*
D15*
X0066800Y0777455D03*
X0076800Y0772055D03*
X0076800Y0761255D03*
X0066800Y0755855D03*
X0066800Y0745055D03*
X0076800Y0739655D03*
X0076800Y0750455D03*
X0066800Y0766655D03*
X0076800Y0782855D03*
X0367750Y0796255D03*
X0373150Y0806255D03*
X0378650Y0796255D03*
X0384050Y0806255D03*
X0389450Y0796255D03*
X0400350Y0796255D03*
X0394950Y0806255D03*
X0405750Y0806255D03*
X0411250Y0796255D03*
X0416650Y0806255D03*
X0422050Y0796255D03*
X0427550Y0806255D03*
X0432950Y0796255D03*
X0438350Y0806255D03*
X0449250Y0806255D03*
X0443850Y0796255D03*
X0454650Y0796255D03*
X0460150Y0806255D03*
X0465550Y0796255D03*
X0470950Y0806255D03*
X0476450Y0796255D03*
X0481850Y0806255D03*
X0487250Y0796255D03*
X0492750Y0806255D03*
X0503650Y0806255D03*
X0509050Y0796255D03*
X0498150Y0796255D03*
X0514450Y0806255D03*
X0519950Y0796255D03*
X0525350Y0806255D03*
X0530750Y0796255D03*
X0536250Y0806255D03*
X0541650Y0796255D03*
X0552550Y0796255D03*
X0557950Y0806255D03*
X0547050Y0806255D03*
X0563350Y0796255D03*
X0503675Y0456107D03*
X0493050Y0456107D03*
X0481800Y0456107D03*
X0471175Y0456107D03*
X0459925Y0456107D03*
X0449300Y0456107D03*
X0438050Y0456107D03*
X0427425Y0456107D03*
X0416800Y0456107D03*
X0405550Y0456107D03*
X0394925Y0456107D03*
X0383675Y0456107D03*
X0373050Y0456107D03*
X0367425Y0432357D03*
X0378675Y0432357D03*
X0389300Y0432357D03*
X0399925Y0432357D03*
X0411175Y0432357D03*
X0421800Y0432357D03*
X0433050Y0432357D03*
X0443675Y0432357D03*
X0454300Y0432357D03*
X0465550Y0432357D03*
X0476175Y0432357D03*
X0487425Y0432357D03*
X0498050Y0432357D03*
X0509300Y0432357D03*
X0519925Y0432357D03*
X0530550Y0432357D03*
X0541800Y0432357D03*
X0552425Y0432357D03*
X0563050Y0432357D03*
X0563350Y0114016D03*
X0552450Y0114016D03*
X0541650Y0114016D03*
X0530750Y0114016D03*
X0519850Y0114016D03*
X0509050Y0114016D03*
X0498150Y0114016D03*
X0487250Y0114016D03*
X0476450Y0114016D03*
X0465550Y0114016D03*
X0454650Y0114016D03*
X0443850Y0114016D03*
X0432950Y0114016D03*
X0422050Y0114016D03*
X0411150Y0114016D03*
X0400350Y0114016D03*
X0389450Y0114016D03*
X0378550Y0114016D03*
X0367750Y0114016D03*
X0373150Y0104016D03*
X0384050Y0104016D03*
X0394850Y0104016D03*
X0405750Y0104016D03*
X0416650Y0104016D03*
X0427550Y0104016D03*
X0438350Y0104016D03*
X0449250Y0104016D03*
X0460150Y0104016D03*
X0470950Y0104016D03*
X0481850Y0104016D03*
X0492750Y0104016D03*
X0503550Y0104016D03*
X0514450Y0104016D03*
X0525350Y0104016D03*
X0536150Y0104016D03*
X0547050Y0104016D03*
X0557950Y0104016D03*
D16*
X0590550Y0109016D03*
X0340550Y0109016D03*
X0071800Y0711955D03*
X0071800Y0810555D03*
X0340550Y0801255D03*
X0590550Y0801255D03*
D17*
X0590550Y0801255D03*
X0340550Y0801255D03*
X0071800Y0810555D03*
X0071800Y0711955D03*
X0340550Y0109016D03*
X0590550Y0109016D03*
D18*
X0145550Y0815755D02*
X0145550Y0821755D01*
X0135550Y0821755D02*
X0135550Y0815755D01*
D19*
X0135550Y0821755D01*
X0145550Y0821755D02*
X0145550Y0815755D01*
D20*
X0119300Y0819380D03*
X0109300Y0819380D03*
D21*
X0109300Y0819380D03*
X0119300Y0819380D03*
D22*
X0136239Y0743691D03*
X0136239Y0657077D03*
X0136239Y0570463D03*
X0136239Y0483848D03*
X0136239Y0397234D03*
X0136239Y0310620D03*
X0136239Y0224006D03*
X0136239Y0137392D03*
D23*
X0109861Y0113770D03*
X0109861Y0200384D03*
X0109861Y0286998D03*
X0109861Y0373612D03*
X0109861Y0460226D03*
X0109861Y0546841D03*
X0109861Y0633455D03*
X0109861Y0720069D03*
D24*
X0264925Y0749380D03*
X0274925Y0749380D03*
X0284925Y0749380D03*
X0284925Y0769380D03*
X0274925Y0769380D03*
X0264925Y0769380D03*
X0264925Y0682766D03*
X0274925Y0682766D03*
X0284925Y0682766D03*
X0284925Y0662766D03*
X0274925Y0662766D03*
X0264925Y0662766D03*
X0264925Y0596152D03*
X0274925Y0596152D03*
X0284925Y0596152D03*
X0284925Y0576152D03*
X0274925Y0576152D03*
X0264925Y0576152D03*
X0264925Y0509537D03*
X0274925Y0509537D03*
X0284925Y0509537D03*
X0284925Y0489537D03*
X0274925Y0489537D03*
X0264925Y0489537D03*
X0264925Y0422923D03*
X0274925Y0422923D03*
X0284925Y0422923D03*
X0284925Y0402923D03*
X0274925Y0402923D03*
X0264925Y0402923D03*
X0264925Y0336309D03*
X0274925Y0336309D03*
X0284925Y0336309D03*
X0284925Y0316309D03*
X0274925Y0316309D03*
X0264925Y0316309D03*
X0264925Y0249695D03*
X0274925Y0249695D03*
X0284925Y0249695D03*
X0284925Y0229695D03*
X0274925Y0229695D03*
X0264925Y0229695D03*
X0264925Y0163081D03*
X0274925Y0163081D03*
X0284925Y0163081D03*
X0284925Y0143081D03*
X0274925Y0143081D03*
X0264925Y0143081D03*
D25*
X0264925Y0143081D03*
X0274925Y0143081D03*
X0284925Y0143081D03*
X0284925Y0163081D03*
X0274925Y0163081D03*
X0264925Y0163081D03*
X0264925Y0229695D03*
X0274925Y0229695D03*
X0284925Y0229695D03*
X0284925Y0249695D03*
X0274925Y0249695D03*
X0264925Y0249695D03*
X0264925Y0316309D03*
X0274925Y0316309D03*
X0284925Y0316309D03*
X0284925Y0336309D03*
X0274925Y0336309D03*
X0264925Y0336309D03*
X0264925Y0402923D03*
X0274925Y0402923D03*
X0284925Y0402923D03*
X0284925Y0422923D03*
X0274925Y0422923D03*
X0264925Y0422923D03*
X0264925Y0489537D03*
X0274925Y0489537D03*
X0284925Y0489537D03*
X0284925Y0509537D03*
X0274925Y0509537D03*
X0264925Y0509537D03*
X0264925Y0576152D03*
X0274925Y0576152D03*
X0284925Y0576152D03*
X0284925Y0596152D03*
X0274925Y0596152D03*
X0264925Y0596152D03*
X0264925Y0662766D03*
X0274925Y0662766D03*
X0284925Y0662766D03*
X0284925Y0682766D03*
X0274925Y0682766D03*
X0264925Y0682766D03*
X0264925Y0749380D03*
X0274925Y0749380D03*
X0284925Y0749380D03*
X0284925Y0769380D03*
X0274925Y0769380D03*
X0264925Y0769380D03*
D26*
X0243050Y0771880D03*
X0233050Y0771880D03*
X0233050Y0685266D03*
X0243050Y0685266D03*
X0243050Y0598652D03*
X0233050Y0598652D03*
X0233050Y0512037D03*
X0243050Y0512037D03*
X0243050Y0425423D03*
X0233050Y0425423D03*
X0233050Y0338809D03*
X0243050Y0338809D03*
X0243050Y0252195D03*
X0233050Y0252195D03*
X0233050Y0165581D03*
X0243050Y0165581D03*
D27*
X0243050Y0165581D03*
X0233050Y0165581D03*
X0233050Y0252195D03*
X0243050Y0252195D03*
X0243050Y0338809D03*
X0233050Y0338809D03*
X0233050Y0425423D03*
X0243050Y0425423D03*
X0243050Y0512037D03*
X0233050Y0512037D03*
X0233050Y0598652D03*
X0243050Y0598652D03*
X0243050Y0685266D03*
X0233050Y0685266D03*
X0233050Y0771880D03*
X0243050Y0771880D03*
D28*
X0224300Y0774380D03*
X0213050Y0759380D03*
X0206800Y0759380D03*
X0222425Y0736880D03*
X0228050Y0738130D03*
X0240550Y0728755D03*
X0254300Y0721880D03*
X0246800Y0710005D03*
X0239300Y0702505D03*
X0233675Y0702505D03*
X0226175Y0706880D03*
X0224300Y0687766D03*
X0213050Y0672766D03*
X0206800Y0672766D03*
X0222425Y0650266D03*
X0228050Y0651516D03*
X0240550Y0642141D03*
X0254300Y0635266D03*
X0246800Y0623391D03*
X0239300Y0615891D03*
X0233675Y0615891D03*
X0226175Y0620266D03*
X0211800Y0614016D03*
X0224300Y0601152D03*
X0213050Y0586152D03*
X0206800Y0586152D03*
X0222425Y0563652D03*
X0228050Y0564902D03*
X0240550Y0555527D03*
X0254300Y0548652D03*
X0246800Y0536777D03*
X0239300Y0529277D03*
X0233675Y0529277D03*
X0226175Y0533652D03*
X0211800Y0527402D03*
X0224300Y0514537D03*
X0213050Y0499537D03*
X0206800Y0499537D03*
X0222425Y0477037D03*
X0228050Y0478287D03*
X0240550Y0468912D03*
X0254300Y0462037D03*
X0246800Y0450162D03*
X0239300Y0442662D03*
X0233675Y0442662D03*
X0226175Y0447037D03*
X0224300Y0427923D03*
X0211800Y0440787D03*
X0212425Y0460787D03*
X0181800Y0478912D03*
X0176175Y0478912D03*
X0159925Y0485787D03*
X0159925Y0493287D03*
X0162425Y0505162D03*
X0176800Y0512662D03*
X0148675Y0551152D03*
X0148675Y0557402D03*
X0159925Y0572402D03*
X0159925Y0579902D03*
X0162425Y0591777D03*
X0176800Y0599277D03*
X0176175Y0565527D03*
X0181800Y0565527D03*
X0212425Y0547402D03*
X0212425Y0634016D03*
X0181800Y0652141D03*
X0176175Y0652141D03*
X0159925Y0659016D03*
X0159925Y0666516D03*
X0162425Y0678391D03*
X0148719Y0690522D03*
X0132425Y0701255D03*
X0114300Y0701255D03*
X0094300Y0730630D03*
X0090550Y0725630D03*
X0109925Y0735630D03*
X0148675Y0730630D03*
X0148675Y0724380D03*
X0159925Y0745630D03*
X0159925Y0753130D03*
X0162425Y0765005D03*
X0176800Y0772505D03*
X0176175Y0738755D03*
X0181800Y0738755D03*
X0212425Y0720630D03*
X0211800Y0700630D03*
X0176800Y0685891D03*
X0148675Y0644016D03*
X0148675Y0637766D03*
X0132425Y0614641D03*
X0144979Y0607771D03*
X0114300Y0614641D03*
X0094300Y0643755D03*
X0090550Y0638755D03*
X0109925Y0649016D03*
X0086072Y0607771D03*
X0109448Y0562421D03*
X0094300Y0557505D03*
X0090550Y0552505D03*
X0114300Y0528027D03*
X0132425Y0528027D03*
X0139836Y0512397D03*
X0148675Y0470787D03*
X0148675Y0464537D03*
X0132425Y0441412D03*
X0142174Y0434321D03*
X0162425Y0418548D03*
X0159925Y0406673D03*
X0159925Y0399173D03*
X0148675Y0384173D03*
X0148675Y0377923D03*
X0132425Y0354798D03*
X0143109Y0346427D03*
X0162425Y0331934D03*
X0159925Y0320059D03*
X0159925Y0312559D03*
X0148675Y0297559D03*
X0148675Y0291309D03*
X0148719Y0267416D03*
X0162425Y0245320D03*
X0159925Y0233445D03*
X0159925Y0225945D03*
X0148675Y0210945D03*
X0148675Y0204695D03*
X0132425Y0181570D03*
X0140304Y0171575D03*
X0162425Y0158706D03*
X0159925Y0146831D03*
X0159925Y0139331D03*
X0148675Y0124331D03*
X0148675Y0118081D03*
X0132425Y0094956D03*
X0114300Y0094956D03*
X0090550Y0119380D03*
X0094300Y0124380D03*
X0109925Y0129331D03*
X0080461Y0173445D03*
X0090550Y0206255D03*
X0094300Y0211255D03*
X0109925Y0215945D03*
X0114300Y0181570D03*
X0114300Y0268184D03*
X0132425Y0268184D03*
X0109925Y0302559D03*
X0094300Y0297505D03*
X0090550Y0292505D03*
X0076254Y0266014D03*
X0072514Y0350635D03*
X0090550Y0379380D03*
X0094300Y0384380D03*
X0087007Y0400660D03*
X0083267Y0405335D03*
X0081864Y0411880D03*
X0072514Y0414218D03*
X0068773Y0433853D03*
X0086539Y0437126D03*
X0090550Y0465630D03*
X0094300Y0470630D03*
X0109925Y0475787D03*
X0086539Y0494631D03*
X0070176Y0479203D03*
X0058488Y0467982D03*
X0051008Y0427308D03*
X0047268Y0422165D03*
X0114300Y0441412D03*
X0109925Y0389173D03*
X0114300Y0354798D03*
X0176800Y0339434D03*
X0176175Y0305684D03*
X0181800Y0305684D03*
X0206800Y0326309D03*
X0213050Y0326309D03*
X0224300Y0341309D03*
X0233675Y0356048D03*
X0239300Y0356048D03*
X0246800Y0363548D03*
X0254300Y0375423D03*
X0240550Y0382298D03*
X0228050Y0391673D03*
X0222425Y0390423D03*
X0212425Y0374173D03*
X0211800Y0354173D03*
X0226175Y0360423D03*
X0213050Y0412923D03*
X0206800Y0412923D03*
X0181800Y0392298D03*
X0176175Y0392298D03*
X0176800Y0426048D03*
X0222425Y0303809D03*
X0228050Y0305059D03*
X0240550Y0295684D03*
X0254300Y0288809D03*
X0246800Y0276934D03*
X0239300Y0269434D03*
X0233675Y0269434D03*
X0226175Y0273809D03*
X0224300Y0254695D03*
X0211800Y0267559D03*
X0212425Y0287559D03*
X0213050Y0239695D03*
X0206800Y0239695D03*
X0222425Y0217195D03*
X0228050Y0218445D03*
X0240550Y0209070D03*
X0254300Y0202195D03*
X0246800Y0190320D03*
X0239300Y0182820D03*
X0233675Y0182820D03*
X0226175Y0187195D03*
X0224300Y0168081D03*
X0211800Y0180945D03*
X0212425Y0200945D03*
X0181800Y0219070D03*
X0176175Y0219070D03*
X0176800Y0252820D03*
X0176800Y0166206D03*
X0176175Y0132456D03*
X0181800Y0132456D03*
X0206800Y0153081D03*
X0213050Y0153081D03*
X0228050Y0131831D03*
X0222425Y0130581D03*
X0212425Y0114331D03*
X0226175Y0100581D03*
X0233675Y0096206D03*
X0239300Y0096206D03*
X0246800Y0103706D03*
X0254300Y0115581D03*
X0240550Y0122456D03*
X0211800Y0094331D03*
X0279925Y0095581D03*
X0279925Y0114956D03*
X0311175Y0163706D03*
X0330550Y0164331D03*
X0341800Y0153081D03*
X0323050Y0138081D03*
X0279925Y0182195D03*
X0279925Y0201570D03*
X0311175Y0250320D03*
X0330550Y0250945D03*
X0341800Y0239695D03*
X0323050Y0224695D03*
X0279925Y0268809D03*
X0279925Y0288184D03*
X0311175Y0336934D03*
X0330550Y0337559D03*
X0341800Y0326309D03*
X0323050Y0311309D03*
X0279925Y0355423D03*
X0279925Y0374798D03*
X0311175Y0423548D03*
X0330550Y0424173D03*
X0341800Y0412923D03*
X0323050Y0397923D03*
X0279925Y0442037D03*
X0279925Y0461412D03*
X0311175Y0510162D03*
X0330550Y0510787D03*
X0341800Y0499537D03*
X0323050Y0484537D03*
X0279925Y0528652D03*
X0279925Y0548027D03*
X0311175Y0596777D03*
X0330550Y0597402D03*
X0341800Y0586152D03*
X0323050Y0571152D03*
X0279925Y0615266D03*
X0279925Y0634641D03*
X0311175Y0683391D03*
X0330550Y0684016D03*
X0341800Y0672766D03*
X0323050Y0657766D03*
X0279925Y0701880D03*
X0279925Y0721255D03*
X0311175Y0770005D03*
X0330550Y0770630D03*
X0341800Y0759380D03*
X0323050Y0744380D03*
X0043050Y0678130D03*
D29*
X0090550Y0119380D03*
X0094300Y0124380D03*
X0109925Y0129331D03*
X0114300Y0094956D03*
X0132425Y0094956D03*
X0148675Y0118081D03*
X0148675Y0124331D03*
X0159925Y0139331D03*
X0159925Y0146831D03*
X0162425Y0158706D03*
X0176800Y0166206D03*
X0176175Y0132456D03*
X0181800Y0132456D03*
X0206800Y0153081D03*
X0213050Y0153081D03*
X0224300Y0168081D03*
X0233675Y0182820D03*
X0239300Y0182820D03*
X0246800Y0190320D03*
X0254300Y0202195D03*
X0240550Y0209070D03*
X0228050Y0218445D03*
X0222425Y0217195D03*
X0212425Y0200945D03*
X0226175Y0187195D03*
X0211800Y0180945D03*
X0181800Y0219070D03*
X0176175Y0219070D03*
X0159925Y0225945D03*
X0159925Y0233445D03*
X0162425Y0245320D03*
X0148719Y0267416D03*
X0132425Y0268184D03*
X0114300Y0268184D03*
X0090550Y0292505D03*
X0094300Y0297505D03*
X0109925Y0302559D03*
X0143109Y0346427D03*
X0132425Y0354798D03*
X0114300Y0354798D03*
X0090550Y0379380D03*
X0094300Y0384380D03*
X0087007Y0400660D03*
X0083267Y0405335D03*
X0081864Y0411880D03*
X0072514Y0414218D03*
X0068773Y0433853D03*
X0086539Y0437126D03*
X0090550Y0465630D03*
X0094300Y0470630D03*
X0109925Y0475787D03*
X0086539Y0494631D03*
X0070176Y0479203D03*
X0058488Y0467982D03*
X0051008Y0427308D03*
X0047268Y0422165D03*
X0072514Y0350635D03*
X0109925Y0389173D03*
X0142174Y0434321D03*
X0132425Y0441412D03*
X0114300Y0441412D03*
X0148675Y0464537D03*
X0148675Y0470787D03*
X0159925Y0485787D03*
X0159925Y0493287D03*
X0162425Y0505162D03*
X0176800Y0512662D03*
X0176175Y0478912D03*
X0181800Y0478912D03*
X0206800Y0499537D03*
X0213050Y0499537D03*
X0224300Y0514537D03*
X0233675Y0529277D03*
X0239300Y0529277D03*
X0246800Y0536777D03*
X0254300Y0548652D03*
X0240550Y0555527D03*
X0228050Y0564902D03*
X0222425Y0563652D03*
X0212425Y0547402D03*
X0211800Y0527402D03*
X0226175Y0533652D03*
X0213050Y0586152D03*
X0206800Y0586152D03*
X0224300Y0601152D03*
X0233675Y0615891D03*
X0239300Y0615891D03*
X0246800Y0623391D03*
X0254300Y0635266D03*
X0240550Y0642141D03*
X0228050Y0651516D03*
X0222425Y0650266D03*
X0212425Y0634016D03*
X0211800Y0614016D03*
X0226175Y0620266D03*
X0213050Y0672766D03*
X0206800Y0672766D03*
X0224300Y0687766D03*
X0233675Y0702505D03*
X0239300Y0702505D03*
X0246800Y0710005D03*
X0254300Y0721880D03*
X0240550Y0728755D03*
X0228050Y0738130D03*
X0222425Y0736880D03*
X0212425Y0720630D03*
X0211800Y0700630D03*
X0226175Y0706880D03*
X0213050Y0759380D03*
X0206800Y0759380D03*
X0224300Y0774380D03*
X0176800Y0772505D03*
X0162425Y0765005D03*
X0159925Y0753130D03*
X0159925Y0745630D03*
X0148675Y0730630D03*
X0148675Y0724380D03*
X0132425Y0701255D03*
X0114300Y0701255D03*
X0094300Y0730630D03*
X0090550Y0725630D03*
X0109925Y0735630D03*
X0148719Y0690522D03*
X0162425Y0678391D03*
X0159925Y0666516D03*
X0159925Y0659016D03*
X0148675Y0644016D03*
X0148675Y0637766D03*
X0132425Y0614641D03*
X0144979Y0607771D03*
X0162425Y0591777D03*
X0159925Y0579902D03*
X0159925Y0572402D03*
X0148675Y0557402D03*
X0148675Y0551152D03*
X0132425Y0528027D03*
X0139836Y0512397D03*
X0114300Y0528027D03*
X0094300Y0557505D03*
X0090550Y0552505D03*
X0109448Y0562421D03*
X0086072Y0607771D03*
X0114300Y0614641D03*
X0094300Y0643755D03*
X0090550Y0638755D03*
X0109925Y0649016D03*
X0176175Y0652141D03*
X0181800Y0652141D03*
X0176800Y0685891D03*
X0176175Y0738755D03*
X0181800Y0738755D03*
X0176800Y0599277D03*
X0176175Y0565527D03*
X0181800Y0565527D03*
X0222425Y0477037D03*
X0228050Y0478287D03*
X0240550Y0468912D03*
X0254300Y0462037D03*
X0246800Y0450162D03*
X0239300Y0442662D03*
X0233675Y0442662D03*
X0226175Y0447037D03*
X0224300Y0427923D03*
X0211800Y0440787D03*
X0212425Y0460787D03*
X0213050Y0412923D03*
X0206800Y0412923D03*
X0222425Y0390423D03*
X0228050Y0391673D03*
X0240550Y0382298D03*
X0254300Y0375423D03*
X0246800Y0363548D03*
X0239300Y0356048D03*
X0233675Y0356048D03*
X0226175Y0360423D03*
X0224300Y0341309D03*
X0211800Y0354173D03*
X0212425Y0374173D03*
X0181800Y0392298D03*
X0176175Y0392298D03*
X0159925Y0399173D03*
X0159925Y0406673D03*
X0162425Y0418548D03*
X0176800Y0426048D03*
X0148675Y0384173D03*
X0148675Y0377923D03*
X0176800Y0339434D03*
X0162425Y0331934D03*
X0159925Y0320059D03*
X0159925Y0312559D03*
X0148675Y0297559D03*
X0148675Y0291309D03*
X0176175Y0305684D03*
X0181800Y0305684D03*
X0206800Y0326309D03*
X0213050Y0326309D03*
X0222425Y0303809D03*
X0228050Y0305059D03*
X0240550Y0295684D03*
X0254300Y0288809D03*
X0246800Y0276934D03*
X0239300Y0269434D03*
X0233675Y0269434D03*
X0226175Y0273809D03*
X0224300Y0254695D03*
X0211800Y0267559D03*
X0212425Y0287559D03*
X0213050Y0239695D03*
X0206800Y0239695D03*
X0176800Y0252820D03*
X0148675Y0210945D03*
X0148675Y0204695D03*
X0132425Y0181570D03*
X0140304Y0171575D03*
X0114300Y0181570D03*
X0090550Y0206255D03*
X0094300Y0211255D03*
X0109925Y0215945D03*
X0080461Y0173445D03*
X0076254Y0266014D03*
X0212425Y0114331D03*
X0222425Y0130581D03*
X0228050Y0131831D03*
X0240550Y0122456D03*
X0254300Y0115581D03*
X0246800Y0103706D03*
X0239300Y0096206D03*
X0233675Y0096206D03*
X0226175Y0100581D03*
X0211800Y0094331D03*
X0279925Y0095581D03*
X0279925Y0114956D03*
X0311175Y0163706D03*
X0330550Y0164331D03*
X0341800Y0153081D03*
X0323050Y0138081D03*
X0279925Y0182195D03*
X0279925Y0201570D03*
X0311175Y0250320D03*
X0330550Y0250945D03*
X0341800Y0239695D03*
X0323050Y0224695D03*
X0279925Y0268809D03*
X0279925Y0288184D03*
X0311175Y0336934D03*
X0330550Y0337559D03*
X0341800Y0326309D03*
X0323050Y0311309D03*
X0279925Y0355423D03*
X0279925Y0374798D03*
X0311175Y0423548D03*
X0330550Y0424173D03*
X0341800Y0412923D03*
X0323050Y0397923D03*
X0279925Y0442037D03*
X0279925Y0461412D03*
X0311175Y0510162D03*
X0330550Y0510787D03*
X0341800Y0499537D03*
X0323050Y0484537D03*
X0279925Y0528652D03*
X0279925Y0548027D03*
X0311175Y0596777D03*
X0330550Y0597402D03*
X0341800Y0586152D03*
X0323050Y0571152D03*
X0279925Y0615266D03*
X0279925Y0634641D03*
X0311175Y0683391D03*
X0330550Y0684016D03*
X0341800Y0672766D03*
X0323050Y0657766D03*
X0279925Y0701880D03*
X0279925Y0721255D03*
X0311175Y0770005D03*
X0330550Y0770630D03*
X0341800Y0759380D03*
X0323050Y0744380D03*
X0043050Y0678130D03*
D30*
X0159300Y0705630D03*
X0223675Y0730630D03*
X0223675Y0644016D03*
X0159300Y0619016D03*
X0159300Y0532402D03*
X0159300Y0445787D03*
X0223675Y0470787D03*
X0223675Y0384173D03*
X0159300Y0359173D03*
X0159300Y0272559D03*
X0223675Y0297559D03*
X0223675Y0210945D03*
X0159300Y0185945D03*
X0159300Y0099331D03*
X0223675Y0124331D03*
X0048050Y0437313D03*
X0223675Y0557402D03*
D31*
X0223675Y0557402D03*
X0159300Y0532402D03*
X0159300Y0445787D03*
X0223675Y0470787D03*
X0223675Y0384173D03*
X0159300Y0359173D03*
X0159300Y0272559D03*
X0223675Y0297559D03*
X0223675Y0210945D03*
X0159300Y0185945D03*
X0159300Y0099331D03*
X0223675Y0124331D03*
X0048050Y0437313D03*
X0159300Y0619016D03*
X0223675Y0644016D03*
X0223675Y0730630D03*
X0159300Y0705630D03*
D32*
X0206800Y0744380D03*
X0206800Y0657766D03*
X0206800Y0571152D03*
X0206800Y0484537D03*
X0206800Y0397923D03*
X0206800Y0311309D03*
X0206800Y0224695D03*
X0206800Y0138081D03*
D33*
X0206800Y0138081D03*
X0206800Y0224695D03*
X0206800Y0311309D03*
X0206800Y0397923D03*
X0206800Y0484537D03*
X0206800Y0571152D03*
X0206800Y0657766D03*
X0206800Y0744380D03*
M02*
