G75*
%MOIN*%
%OFA0B0*%
%FSLAX25Y25*%
%IPPOS*%
%LPD*%
%AMOC8*
5,1,8,0,0,1.08239X$1,22.5*
%
%ADD10R,0.10000X0.10000*%
%ADD11R,0.05625X0.05625*%
%ADD12R,0.09375X0.05000*%
%ADD13R,0.06250X0.05000*%
%ADD14C,0.00000*%
%ADD15C,0.00300*%
%ADD16R,0.03543X0.02756*%
%ADD17R,0.02000X0.04800*%
%ADD18R,0.02756X0.03543*%
%ADD19R,0.05906X0.05118*%
%ADD20R,0.01200X0.05600*%
%ADD21R,0.07800X0.02200*%
%ADD22C,0.05543*%
%ADD23R,0.01800X0.05400*%
%ADD24R,0.01102X0.01693*%
%ADD25R,0.04331X0.03937*%
%ADD26C,0.03071*%
%ADD27OC8,0.06000*%
%ADD28C,0.20000*%
%ADD29R,0.05800X0.01400*%
%ADD30C,0.06000*%
%ADD31C,0.07400*%
%ADD32R,0.03937X0.04331*%
%ADD33R,0.11024X0.07480*%
%ADD34R,0.03150X0.03150*%
%ADD35C,0.06600*%
%ADD36OC8,0.08500*%
%ADD37C,0.01600*%
%ADD38C,0.03575*%
%ADD39C,0.01000*%
%ADD40C,0.04362*%
%ADD41C,0.03969*%
%ADD42C,0.02400*%
D10*
X0176800Y0148081D03*
X0196800Y0153081D03*
X0176800Y0234695D03*
X0196800Y0239695D03*
X0176800Y0321309D03*
X0196800Y0326309D03*
X0176800Y0407923D03*
X0196800Y0412923D03*
X0176800Y0494537D03*
X0196800Y0499537D03*
X0176800Y0581152D03*
X0196800Y0586152D03*
X0176800Y0667766D03*
X0196800Y0672766D03*
X0176800Y0754380D03*
X0196800Y0759380D03*
D11*
X0169613Y0772192D03*
X0169613Y0685578D03*
X0169613Y0598964D03*
X0169613Y0512350D03*
X0169613Y0425736D03*
X0169613Y0339122D03*
X0169613Y0252507D03*
X0169613Y0165893D03*
D12*
X0197112Y0140581D03*
X0197112Y0227195D03*
X0197112Y0313809D03*
X0197112Y0400423D03*
X0197112Y0487037D03*
X0197112Y0573652D03*
X0197112Y0660266D03*
X0197112Y0746880D03*
D13*
X0179300Y0746255D03*
X0179300Y0659641D03*
X0179300Y0573027D03*
X0179300Y0486412D03*
X0179300Y0399798D03*
X0179300Y0313184D03*
X0179300Y0226570D03*
X0179300Y0139956D03*
D14*
X0228072Y0802283D02*
X0228072Y0802303D01*
X0228082Y0802303D01*
X0228085Y0802300D01*
X0228085Y0802293D01*
X0228082Y0802290D01*
X0228072Y0802290D01*
X0228067Y0802293D02*
X0228067Y0802300D01*
X0228063Y0802303D01*
X0228057Y0802303D01*
X0228053Y0802300D01*
X0228053Y0802293D01*
X0228057Y0802290D01*
X0228063Y0802290D01*
X0228067Y0802293D01*
X0228048Y0802310D02*
X0228035Y0802310D01*
X0228042Y0802310D02*
X0228042Y0802290D01*
X0228109Y0802290D02*
X0228122Y0802290D01*
X0228127Y0802293D02*
X0228130Y0802297D01*
X0228140Y0802297D01*
X0228140Y0802300D02*
X0228140Y0802290D01*
X0228130Y0802290D01*
X0228127Y0802293D01*
X0228130Y0802303D02*
X0228137Y0802303D01*
X0228140Y0802300D01*
X0228146Y0802303D02*
X0228146Y0802293D01*
X0228149Y0802290D01*
X0228159Y0802290D01*
X0228159Y0802287D02*
X0228156Y0802283D01*
X0228152Y0802283D01*
X0228159Y0802287D02*
X0228159Y0802303D01*
X0228164Y0802300D02*
X0228167Y0802303D01*
X0228174Y0802303D01*
X0228177Y0802300D01*
X0228177Y0802297D01*
X0228164Y0802297D01*
X0228164Y0802300D02*
X0228164Y0802293D01*
X0228167Y0802290D01*
X0228174Y0802290D01*
X0228182Y0802290D02*
X0228182Y0802303D01*
X0228182Y0802297D02*
X0228189Y0802303D01*
X0228192Y0802303D01*
X0228109Y0802310D02*
X0228109Y0802290D01*
D15*
X0257211Y0080703D02*
X0259900Y0080703D01*
X0258555Y0080703D02*
X0258555Y0076669D01*
X0261198Y0077342D02*
X0261198Y0078686D01*
X0261871Y0079359D01*
X0263215Y0079359D01*
X0263888Y0078686D01*
X0263888Y0077342D01*
X0263215Y0076669D01*
X0261871Y0076669D01*
X0261198Y0077342D01*
X0265186Y0076669D02*
X0267203Y0076669D01*
X0267875Y0077342D01*
X0267875Y0078686D01*
X0267203Y0079359D01*
X0265186Y0079359D01*
X0265186Y0075325D01*
X0273161Y0076669D02*
X0273161Y0080703D01*
X0273161Y0076669D02*
X0275851Y0076669D01*
X0277149Y0077342D02*
X0277821Y0078014D01*
X0279838Y0078014D01*
X0279838Y0078686D02*
X0279838Y0076669D01*
X0277821Y0076669D01*
X0277149Y0077342D01*
X0277821Y0079359D02*
X0279166Y0079359D01*
X0279838Y0078686D01*
X0281137Y0079359D02*
X0281137Y0077342D01*
X0281809Y0076669D01*
X0283826Y0076669D01*
X0283826Y0075997D02*
X0283154Y0075325D01*
X0282481Y0075325D01*
X0283826Y0075997D02*
X0283826Y0079359D01*
X0285124Y0078686D02*
X0285797Y0079359D01*
X0287141Y0079359D01*
X0287814Y0078686D01*
X0287814Y0078014D01*
X0285124Y0078014D01*
X0285124Y0077342D02*
X0285124Y0078686D01*
X0285124Y0077342D02*
X0285797Y0076669D01*
X0287141Y0076669D01*
X0289112Y0076669D02*
X0289112Y0079359D01*
X0290457Y0079359D02*
X0291129Y0079359D01*
X0290457Y0079359D02*
X0289112Y0078014D01*
D16*
X0286175Y0109897D03*
X0286175Y0115015D03*
X0254300Y0109390D03*
X0254300Y0104272D03*
X0246800Y0109272D03*
X0246800Y0114390D03*
X0226175Y0111890D03*
X0226175Y0106772D03*
X0217425Y0124272D03*
X0217425Y0129390D03*
X0211800Y0129390D03*
X0211800Y0124272D03*
X0209300Y0163022D03*
X0209300Y0168140D03*
X0226175Y0193386D03*
X0226175Y0198504D03*
X0217425Y0210886D03*
X0217425Y0216004D03*
X0211800Y0216004D03*
X0211800Y0210886D03*
X0209300Y0249636D03*
X0209300Y0254754D03*
X0226175Y0280000D03*
X0226175Y0285118D03*
X0217425Y0297500D03*
X0217425Y0302618D03*
X0211800Y0302618D03*
X0211800Y0297500D03*
X0209300Y0336250D03*
X0209300Y0341368D03*
X0226175Y0366614D03*
X0226175Y0371732D03*
X0217425Y0384114D03*
X0217425Y0389232D03*
X0211800Y0389232D03*
X0211800Y0384114D03*
X0209300Y0422864D03*
X0209300Y0427982D03*
X0226175Y0453228D03*
X0226175Y0458347D03*
X0217425Y0470728D03*
X0217425Y0475847D03*
X0211800Y0475847D03*
X0211800Y0470728D03*
X0209300Y0509478D03*
X0209300Y0514597D03*
X0226175Y0539843D03*
X0226175Y0544961D03*
X0217425Y0557343D03*
X0217425Y0562461D03*
X0211800Y0562461D03*
X0211800Y0557343D03*
X0209300Y0596093D03*
X0209300Y0601211D03*
X0226175Y0626457D03*
X0226175Y0631575D03*
X0217425Y0643957D03*
X0217425Y0649075D03*
X0211800Y0649075D03*
X0211800Y0643957D03*
X0209300Y0682707D03*
X0209300Y0687825D03*
X0226175Y0713071D03*
X0226175Y0718189D03*
X0217425Y0730571D03*
X0217425Y0735689D03*
X0211800Y0735689D03*
X0211800Y0730571D03*
X0209300Y0769321D03*
X0209300Y0774439D03*
X0246800Y0720689D03*
X0246800Y0715571D03*
X0254300Y0715689D03*
X0254300Y0710571D03*
X0286175Y0716196D03*
X0286175Y0721314D03*
X0330550Y0759321D03*
X0330550Y0764439D03*
X0336175Y0764439D03*
X0336175Y0759321D03*
X0336175Y0677825D03*
X0336175Y0672707D03*
X0330550Y0672707D03*
X0330550Y0677825D03*
X0286175Y0634700D03*
X0286175Y0629582D03*
X0254300Y0629075D03*
X0254300Y0623957D03*
X0246800Y0628957D03*
X0246800Y0634075D03*
X0246800Y0547461D03*
X0246800Y0542343D03*
X0254300Y0542461D03*
X0254300Y0537343D03*
X0286175Y0542968D03*
X0286175Y0548086D03*
X0330550Y0586093D03*
X0330550Y0591211D03*
X0336175Y0591211D03*
X0336175Y0586093D03*
X0336175Y0504597D03*
X0336175Y0499478D03*
X0330550Y0499478D03*
X0330550Y0504597D03*
X0286175Y0461472D03*
X0286175Y0456353D03*
X0254300Y0455847D03*
X0254300Y0450728D03*
X0246800Y0455728D03*
X0246800Y0460847D03*
X0246800Y0374232D03*
X0246800Y0369114D03*
X0254300Y0369232D03*
X0254300Y0364114D03*
X0286175Y0369739D03*
X0286175Y0374857D03*
X0330550Y0412864D03*
X0330550Y0417982D03*
X0336175Y0417982D03*
X0336175Y0412864D03*
X0336175Y0331368D03*
X0336175Y0326250D03*
X0330550Y0326250D03*
X0330550Y0331368D03*
X0286175Y0288243D03*
X0286175Y0283125D03*
X0254300Y0282618D03*
X0254300Y0277500D03*
X0246800Y0282500D03*
X0246800Y0287618D03*
X0246800Y0201004D03*
X0246800Y0195886D03*
X0254300Y0196004D03*
X0254300Y0190886D03*
X0286175Y0196511D03*
X0286175Y0201629D03*
X0330550Y0239636D03*
X0330550Y0244754D03*
X0336175Y0244754D03*
X0336175Y0239636D03*
X0336175Y0158140D03*
X0336175Y0153022D03*
X0330550Y0153022D03*
X0330550Y0158140D03*
X0160550Y0129390D03*
X0160550Y0124272D03*
X0154925Y0124272D03*
X0154925Y0129390D03*
X0154925Y0210886D03*
X0154925Y0216004D03*
X0160550Y0216004D03*
X0160550Y0210886D03*
X0160550Y0297500D03*
X0160550Y0302618D03*
X0154925Y0302618D03*
X0154925Y0297500D03*
X0154925Y0384114D03*
X0154925Y0389232D03*
X0160550Y0389232D03*
X0160550Y0384114D03*
X0160550Y0470728D03*
X0160550Y0475847D03*
X0154925Y0475847D03*
X0154925Y0470728D03*
X0154925Y0557343D03*
X0154925Y0562461D03*
X0160550Y0562461D03*
X0160550Y0557343D03*
X0160550Y0643957D03*
X0160550Y0649075D03*
X0154925Y0649075D03*
X0154925Y0643957D03*
X0154925Y0730571D03*
X0154925Y0735689D03*
X0160550Y0735689D03*
X0160550Y0730571D03*
D17*
X0259975Y0716055D03*
X0263675Y0716055D03*
X0267375Y0716055D03*
X0267375Y0706455D03*
X0263675Y0706455D03*
X0259975Y0706455D03*
X0259975Y0629441D03*
X0263675Y0629441D03*
X0267375Y0629441D03*
X0267375Y0619841D03*
X0263675Y0619841D03*
X0259975Y0619841D03*
X0259975Y0542827D03*
X0263675Y0542827D03*
X0267375Y0542827D03*
X0267375Y0533227D03*
X0263675Y0533227D03*
X0259975Y0533227D03*
X0259975Y0456212D03*
X0263675Y0456212D03*
X0267375Y0456212D03*
X0267375Y0446612D03*
X0263675Y0446612D03*
X0259975Y0446612D03*
X0259975Y0369598D03*
X0263675Y0369598D03*
X0267375Y0369598D03*
X0267375Y0359998D03*
X0263675Y0359998D03*
X0259975Y0359998D03*
X0259975Y0282984D03*
X0263675Y0282984D03*
X0267375Y0282984D03*
X0267375Y0273384D03*
X0263675Y0273384D03*
X0259975Y0273384D03*
X0259975Y0196370D03*
X0263675Y0196370D03*
X0267375Y0196370D03*
X0267375Y0186770D03*
X0263675Y0186770D03*
X0259975Y0186770D03*
X0259975Y0109756D03*
X0263675Y0109756D03*
X0267375Y0109756D03*
X0267375Y0100156D03*
X0263675Y0100156D03*
X0259975Y0100156D03*
D18*
X0238734Y0101831D03*
X0233616Y0101831D03*
X0233616Y0107456D03*
X0238734Y0107456D03*
X0238734Y0188445D03*
X0233616Y0188445D03*
X0233616Y0194070D03*
X0238734Y0194070D03*
X0238734Y0275059D03*
X0233616Y0275059D03*
X0233616Y0280684D03*
X0238734Y0280684D03*
X0238734Y0361673D03*
X0233616Y0361673D03*
X0233616Y0367298D03*
X0238734Y0367298D03*
X0238734Y0448287D03*
X0233616Y0448287D03*
X0233616Y0453912D03*
X0238734Y0453912D03*
X0238734Y0534902D03*
X0233616Y0534902D03*
X0233616Y0540527D03*
X0238734Y0540527D03*
X0238734Y0621516D03*
X0233616Y0621516D03*
X0233616Y0627141D03*
X0238734Y0627141D03*
X0238734Y0708130D03*
X0233616Y0708130D03*
X0233616Y0713755D03*
X0238734Y0713755D03*
D19*
X0217425Y0686506D03*
X0217425Y0679026D03*
X0213050Y0665881D03*
X0213050Y0658401D03*
X0217425Y0599892D03*
X0217425Y0592411D03*
X0213050Y0579267D03*
X0213050Y0571786D03*
X0217425Y0513278D03*
X0217425Y0505797D03*
X0213050Y0492653D03*
X0213050Y0485172D03*
X0217425Y0426663D03*
X0217425Y0419183D03*
X0213050Y0406038D03*
X0213050Y0398558D03*
X0217425Y0340049D03*
X0217425Y0332569D03*
X0213050Y0319424D03*
X0213050Y0311944D03*
X0217425Y0253435D03*
X0217425Y0245955D03*
X0213050Y0232810D03*
X0213050Y0225330D03*
X0217425Y0166821D03*
X0217425Y0159341D03*
X0213050Y0146196D03*
X0213050Y0138716D03*
X0213050Y0745015D03*
X0213050Y0752495D03*
X0217425Y0765640D03*
X0217425Y0773120D03*
D20*
X0232431Y0737867D03*
X0234331Y0737867D03*
X0236331Y0737867D03*
X0238331Y0737867D03*
X0240231Y0737867D03*
X0240231Y0720267D03*
X0238331Y0720267D03*
X0236331Y0720267D03*
X0234331Y0720267D03*
X0232431Y0720267D03*
X0232431Y0651253D03*
X0234331Y0651253D03*
X0236331Y0651253D03*
X0238331Y0651253D03*
X0240231Y0651253D03*
X0240231Y0633653D03*
X0238331Y0633653D03*
X0236331Y0633653D03*
X0234331Y0633653D03*
X0232431Y0633653D03*
X0232431Y0564639D03*
X0234331Y0564639D03*
X0236331Y0564639D03*
X0238331Y0564639D03*
X0240231Y0564639D03*
X0240231Y0547039D03*
X0238331Y0547039D03*
X0236331Y0547039D03*
X0234331Y0547039D03*
X0232431Y0547039D03*
X0232431Y0478025D03*
X0234331Y0478025D03*
X0236331Y0478025D03*
X0238331Y0478025D03*
X0240231Y0478025D03*
X0240231Y0460425D03*
X0238331Y0460425D03*
X0236331Y0460425D03*
X0234331Y0460425D03*
X0232431Y0460425D03*
X0232431Y0391411D03*
X0234331Y0391411D03*
X0236331Y0391411D03*
X0238331Y0391411D03*
X0240231Y0391411D03*
X0240231Y0373811D03*
X0238331Y0373811D03*
X0236331Y0373811D03*
X0234331Y0373811D03*
X0232431Y0373811D03*
X0232431Y0304797D03*
X0234331Y0304797D03*
X0236331Y0304797D03*
X0238331Y0304797D03*
X0240231Y0304797D03*
X0240231Y0287197D03*
X0238331Y0287197D03*
X0236331Y0287197D03*
X0234331Y0287197D03*
X0232431Y0287197D03*
X0232431Y0218182D03*
X0234331Y0218182D03*
X0236331Y0218182D03*
X0238331Y0218182D03*
X0240231Y0218182D03*
X0240231Y0200582D03*
X0238331Y0200582D03*
X0236331Y0200582D03*
X0234331Y0200582D03*
X0232431Y0200582D03*
X0232431Y0131568D03*
X0234331Y0131568D03*
X0236331Y0131568D03*
X0238331Y0131568D03*
X0240231Y0131568D03*
X0240231Y0113968D03*
X0238331Y0113968D03*
X0236331Y0113968D03*
X0234331Y0113968D03*
X0232431Y0113968D03*
D21*
X0204675Y0114331D03*
X0204675Y0119331D03*
X0204675Y0124331D03*
X0204675Y0129331D03*
X0204675Y0109331D03*
X0204675Y0104331D03*
X0204675Y0099331D03*
X0204675Y0094331D03*
X0167675Y0094331D03*
X0167675Y0099331D03*
X0167675Y0104331D03*
X0167675Y0109331D03*
X0167675Y0114331D03*
X0167675Y0119331D03*
X0167675Y0124331D03*
X0167675Y0129331D03*
X0167675Y0180945D03*
X0167675Y0185945D03*
X0167675Y0190945D03*
X0167675Y0195945D03*
X0167675Y0200945D03*
X0167675Y0205945D03*
X0167675Y0210945D03*
X0167675Y0215945D03*
X0204675Y0215945D03*
X0204675Y0210945D03*
X0204675Y0205945D03*
X0204675Y0200945D03*
X0204675Y0195945D03*
X0204675Y0190945D03*
X0204675Y0185945D03*
X0204675Y0180945D03*
X0204675Y0267559D03*
X0204675Y0272559D03*
X0204675Y0277559D03*
X0204675Y0282559D03*
X0204675Y0287559D03*
X0204675Y0292559D03*
X0204675Y0297559D03*
X0204675Y0302559D03*
X0167675Y0302559D03*
X0167675Y0297559D03*
X0167675Y0292559D03*
X0167675Y0287559D03*
X0167675Y0282559D03*
X0167675Y0277559D03*
X0167675Y0272559D03*
X0167675Y0267559D03*
X0167675Y0354173D03*
X0167675Y0359173D03*
X0167675Y0364173D03*
X0167675Y0369173D03*
X0167675Y0374173D03*
X0167675Y0379173D03*
X0167675Y0384173D03*
X0167675Y0389173D03*
X0204675Y0389173D03*
X0204675Y0384173D03*
X0204675Y0379173D03*
X0204675Y0374173D03*
X0204675Y0369173D03*
X0204675Y0364173D03*
X0204675Y0359173D03*
X0204675Y0354173D03*
X0204675Y0440787D03*
X0204675Y0445787D03*
X0204675Y0450787D03*
X0204675Y0455787D03*
X0204675Y0460787D03*
X0204675Y0465787D03*
X0204675Y0470787D03*
X0204675Y0475787D03*
X0167675Y0475787D03*
X0167675Y0470787D03*
X0167675Y0465787D03*
X0167675Y0460787D03*
X0167675Y0455787D03*
X0167675Y0450787D03*
X0167675Y0445787D03*
X0167675Y0440787D03*
X0167675Y0527402D03*
X0167675Y0532402D03*
X0167675Y0537402D03*
X0167675Y0542402D03*
X0167675Y0547402D03*
X0167675Y0552402D03*
X0167675Y0557402D03*
X0167675Y0562402D03*
X0204675Y0562402D03*
X0204675Y0557402D03*
X0204675Y0552402D03*
X0204675Y0547402D03*
X0204675Y0542402D03*
X0204675Y0537402D03*
X0204675Y0532402D03*
X0204675Y0527402D03*
X0204675Y0614016D03*
X0204675Y0619016D03*
X0204675Y0624016D03*
X0204675Y0629016D03*
X0204675Y0634016D03*
X0204675Y0639016D03*
X0204675Y0644016D03*
X0204675Y0649016D03*
X0167675Y0649016D03*
X0167675Y0644016D03*
X0167675Y0639016D03*
X0167675Y0634016D03*
X0167675Y0629016D03*
X0167675Y0624016D03*
X0167675Y0619016D03*
X0167675Y0614016D03*
X0167675Y0700630D03*
X0167675Y0705630D03*
X0167675Y0710630D03*
X0167675Y0715630D03*
X0167675Y0720630D03*
X0167675Y0725630D03*
X0167675Y0730630D03*
X0167675Y0735630D03*
X0204675Y0735630D03*
X0204675Y0730630D03*
X0204675Y0725630D03*
X0204675Y0720630D03*
X0204675Y0715630D03*
X0204675Y0710630D03*
X0204675Y0705630D03*
X0204675Y0700630D03*
D22*
X0334300Y0664828D03*
X0334300Y0656954D03*
X0334300Y0578214D03*
X0334300Y0570340D03*
X0334300Y0491599D03*
X0334300Y0483725D03*
X0334300Y0404985D03*
X0334300Y0397111D03*
X0334300Y0318371D03*
X0334300Y0310497D03*
X0334300Y0231757D03*
X0334300Y0223883D03*
X0334300Y0145143D03*
X0334300Y0137269D03*
X0334300Y0743568D03*
X0334300Y0751442D03*
D23*
X0325600Y0753180D03*
X0323100Y0753180D03*
X0320500Y0753180D03*
X0318000Y0753180D03*
X0318000Y0770580D03*
X0320500Y0770580D03*
X0323100Y0770580D03*
X0325600Y0770580D03*
X0325600Y0683966D03*
X0323100Y0683966D03*
X0320500Y0683966D03*
X0318000Y0683966D03*
X0318000Y0666566D03*
X0320500Y0666566D03*
X0323100Y0666566D03*
X0325600Y0666566D03*
X0325600Y0597352D03*
X0323100Y0597352D03*
X0320500Y0597352D03*
X0318000Y0597352D03*
X0318000Y0579952D03*
X0320500Y0579952D03*
X0323100Y0579952D03*
X0325600Y0579952D03*
X0325600Y0510737D03*
X0323100Y0510737D03*
X0320500Y0510737D03*
X0318000Y0510737D03*
X0318000Y0493337D03*
X0320500Y0493337D03*
X0323100Y0493337D03*
X0325600Y0493337D03*
X0325600Y0424123D03*
X0323100Y0424123D03*
X0320500Y0424123D03*
X0318000Y0424123D03*
X0318000Y0406723D03*
X0320500Y0406723D03*
X0323100Y0406723D03*
X0325600Y0406723D03*
X0325600Y0337509D03*
X0323100Y0337509D03*
X0320500Y0337509D03*
X0318000Y0337509D03*
X0318000Y0320109D03*
X0320500Y0320109D03*
X0323100Y0320109D03*
X0325600Y0320109D03*
X0325600Y0250895D03*
X0323100Y0250895D03*
X0320500Y0250895D03*
X0318000Y0250895D03*
X0318000Y0233495D03*
X0320500Y0233495D03*
X0323100Y0233495D03*
X0325600Y0233495D03*
X0325600Y0164281D03*
X0323100Y0164281D03*
X0320500Y0164281D03*
X0318000Y0164281D03*
X0318000Y0146881D03*
X0320500Y0146881D03*
X0323100Y0146881D03*
X0325600Y0146881D03*
D24*
X0210304Y0157456D03*
X0208296Y0157456D03*
X0208296Y0244070D03*
X0210304Y0244070D03*
X0210304Y0330684D03*
X0208296Y0330684D03*
X0208296Y0417298D03*
X0210304Y0417298D03*
X0210304Y0503912D03*
X0208296Y0503912D03*
X0208296Y0590527D03*
X0210304Y0590527D03*
X0210304Y0677141D03*
X0208296Y0677141D03*
X0208296Y0763755D03*
X0210304Y0763755D03*
D25*
X0256175Y0762909D03*
X0256175Y0769601D03*
X0256175Y0749601D03*
X0256175Y0742909D03*
X0274925Y0714601D03*
X0274925Y0707909D03*
X0256175Y0682987D03*
X0256175Y0676294D03*
X0256175Y0662987D03*
X0256175Y0656294D03*
X0274925Y0627987D03*
X0274925Y0621294D03*
X0256175Y0596373D03*
X0256175Y0589680D03*
X0256175Y0576373D03*
X0256175Y0569680D03*
X0274925Y0541373D03*
X0274925Y0534680D03*
X0256175Y0509759D03*
X0256175Y0503066D03*
X0256175Y0489759D03*
X0256175Y0483066D03*
X0274925Y0454759D03*
X0274925Y0448066D03*
X0256175Y0423145D03*
X0256175Y0416452D03*
X0256175Y0403145D03*
X0256175Y0396452D03*
X0274925Y0368145D03*
X0274925Y0361452D03*
X0256175Y0336531D03*
X0256175Y0329838D03*
X0256175Y0316531D03*
X0256175Y0309838D03*
X0274925Y0281531D03*
X0274925Y0274838D03*
X0256175Y0249916D03*
X0256175Y0243223D03*
X0256175Y0229916D03*
X0256175Y0223223D03*
X0274925Y0194916D03*
X0274925Y0188223D03*
X0256175Y0163302D03*
X0256175Y0156609D03*
X0256175Y0143302D03*
X0256175Y0136609D03*
X0274925Y0108302D03*
X0274925Y0101609D03*
X0294300Y0136609D03*
X0294300Y0143302D03*
X0294300Y0156609D03*
X0294300Y0163302D03*
X0294300Y0223223D03*
X0294300Y0229916D03*
X0294300Y0243223D03*
X0294300Y0249916D03*
X0294300Y0309838D03*
X0294300Y0316531D03*
X0294300Y0329838D03*
X0294300Y0336531D03*
X0294300Y0396452D03*
X0294300Y0403145D03*
X0294300Y0416452D03*
X0294300Y0423145D03*
X0294300Y0483066D03*
X0294300Y0489759D03*
X0294300Y0503066D03*
X0294300Y0509759D03*
X0294300Y0569680D03*
X0294300Y0576373D03*
X0294300Y0589680D03*
X0294300Y0596373D03*
X0294300Y0656294D03*
X0294300Y0662987D03*
X0294300Y0676294D03*
X0294300Y0682987D03*
X0294300Y0742909D03*
X0294300Y0749601D03*
X0294300Y0762909D03*
X0294300Y0769601D03*
D26*
X0201800Y0769380D03*
X0201800Y0774380D03*
X0196800Y0774380D03*
X0196800Y0769380D03*
X0196800Y0764380D03*
X0196800Y0759380D03*
X0196800Y0754380D03*
X0196800Y0749380D03*
X0196800Y0744380D03*
X0191800Y0744380D03*
X0191800Y0749380D03*
X0191800Y0754380D03*
X0191800Y0759380D03*
X0191800Y0764380D03*
X0191800Y0769380D03*
X0191800Y0774380D03*
X0181800Y0774380D03*
X0181800Y0769380D03*
X0181800Y0764380D03*
X0176800Y0764380D03*
X0176800Y0759380D03*
X0176800Y0754380D03*
X0181800Y0754380D03*
X0181800Y0759380D03*
X0181800Y0749380D03*
X0176800Y0749380D03*
X0176800Y0744380D03*
X0181800Y0744380D03*
X0171800Y0744380D03*
X0171800Y0749380D03*
X0171800Y0754380D03*
X0171800Y0759380D03*
X0166800Y0759380D03*
X0166800Y0754380D03*
X0166800Y0749380D03*
X0166800Y0744380D03*
X0166800Y0769380D03*
X0166800Y0774380D03*
X0171800Y0774380D03*
X0171800Y0769380D03*
X0201800Y0764380D03*
X0201800Y0759380D03*
X0201800Y0754380D03*
X0201800Y0749380D03*
X0201800Y0744380D03*
X0201800Y0687766D03*
X0196800Y0687766D03*
X0191800Y0687766D03*
X0191800Y0682766D03*
X0196800Y0682766D03*
X0201800Y0682766D03*
X0201800Y0677766D03*
X0196800Y0677766D03*
X0191800Y0677766D03*
X0191800Y0672766D03*
X0196800Y0672766D03*
X0201800Y0672766D03*
X0201800Y0667766D03*
X0196800Y0667766D03*
X0191800Y0667766D03*
X0191800Y0662766D03*
X0196800Y0662766D03*
X0201800Y0662766D03*
X0201800Y0657766D03*
X0196800Y0657766D03*
X0191800Y0657766D03*
X0181800Y0657766D03*
X0181800Y0662766D03*
X0181800Y0667766D03*
X0181800Y0672766D03*
X0181800Y0677766D03*
X0181800Y0682766D03*
X0181800Y0687766D03*
X0171800Y0687766D03*
X0166800Y0687766D03*
X0166800Y0682766D03*
X0171800Y0682766D03*
X0176800Y0677766D03*
X0176800Y0672766D03*
X0171800Y0672766D03*
X0166800Y0672766D03*
X0166800Y0667766D03*
X0171800Y0667766D03*
X0176800Y0667766D03*
X0176800Y0662766D03*
X0171800Y0662766D03*
X0166800Y0662766D03*
X0166800Y0657766D03*
X0171800Y0657766D03*
X0176800Y0657766D03*
X0171800Y0601152D03*
X0166800Y0601152D03*
X0166800Y0596152D03*
X0171800Y0596152D03*
X0176800Y0591152D03*
X0181800Y0591152D03*
X0181800Y0596152D03*
X0181800Y0601152D03*
X0181800Y0586152D03*
X0176800Y0586152D03*
X0171800Y0586152D03*
X0166800Y0586152D03*
X0166800Y0581152D03*
X0171800Y0581152D03*
X0176800Y0581152D03*
X0181800Y0581152D03*
X0181800Y0576152D03*
X0176800Y0576152D03*
X0171800Y0576152D03*
X0166800Y0576152D03*
X0166800Y0571152D03*
X0171800Y0571152D03*
X0176800Y0571152D03*
X0181800Y0571152D03*
X0191800Y0571152D03*
X0191800Y0576152D03*
X0191800Y0581152D03*
X0191800Y0586152D03*
X0191800Y0591152D03*
X0191800Y0596152D03*
X0191800Y0601152D03*
X0196800Y0601152D03*
X0201800Y0601152D03*
X0201800Y0596152D03*
X0196800Y0596152D03*
X0196800Y0591152D03*
X0201800Y0591152D03*
X0201800Y0586152D03*
X0196800Y0586152D03*
X0196800Y0581152D03*
X0201800Y0581152D03*
X0201800Y0576152D03*
X0196800Y0576152D03*
X0196800Y0571152D03*
X0201800Y0571152D03*
X0201800Y0514537D03*
X0201800Y0509537D03*
X0201800Y0504537D03*
X0201800Y0499537D03*
X0201800Y0494537D03*
X0201800Y0489537D03*
X0201800Y0484537D03*
X0196800Y0484537D03*
X0191800Y0484537D03*
X0191800Y0489537D03*
X0196800Y0489537D03*
X0196800Y0494537D03*
X0191800Y0494537D03*
X0191800Y0499537D03*
X0196800Y0499537D03*
X0196800Y0504537D03*
X0191800Y0504537D03*
X0191800Y0509537D03*
X0196800Y0509537D03*
X0196800Y0514537D03*
X0191800Y0514537D03*
X0181800Y0514537D03*
X0181800Y0509537D03*
X0181800Y0504537D03*
X0181800Y0499537D03*
X0181800Y0494537D03*
X0181800Y0489537D03*
X0181800Y0484537D03*
X0176800Y0484537D03*
X0171800Y0484537D03*
X0166800Y0484537D03*
X0166800Y0489537D03*
X0171800Y0489537D03*
X0176800Y0489537D03*
X0176800Y0494537D03*
X0171800Y0494537D03*
X0166800Y0494537D03*
X0166800Y0499537D03*
X0171800Y0499537D03*
X0176800Y0499537D03*
X0176800Y0504537D03*
X0171800Y0509537D03*
X0166800Y0509537D03*
X0166800Y0514537D03*
X0171800Y0514537D03*
X0171800Y0427923D03*
X0171800Y0422923D03*
X0166800Y0422923D03*
X0166800Y0427923D03*
X0176800Y0417923D03*
X0176800Y0412923D03*
X0176800Y0407923D03*
X0176800Y0402923D03*
X0176800Y0397923D03*
X0181800Y0397923D03*
X0181800Y0402923D03*
X0181800Y0407923D03*
X0181800Y0412923D03*
X0181800Y0417923D03*
X0181800Y0422923D03*
X0181800Y0427923D03*
X0191800Y0427923D03*
X0191800Y0422923D03*
X0191800Y0417923D03*
X0191800Y0412923D03*
X0191800Y0407923D03*
X0191800Y0402923D03*
X0191800Y0397923D03*
X0196800Y0397923D03*
X0201800Y0397923D03*
X0201800Y0402923D03*
X0196800Y0402923D03*
X0196800Y0407923D03*
X0201800Y0407923D03*
X0201800Y0412923D03*
X0196800Y0412923D03*
X0196800Y0417923D03*
X0201800Y0417923D03*
X0201800Y0422923D03*
X0196800Y0422923D03*
X0196800Y0427923D03*
X0201800Y0427923D03*
X0171800Y0412923D03*
X0171800Y0407923D03*
X0171800Y0402923D03*
X0171800Y0397923D03*
X0166800Y0397923D03*
X0166800Y0402923D03*
X0166800Y0407923D03*
X0166800Y0412923D03*
X0166800Y0341309D03*
X0166800Y0336309D03*
X0171800Y0336309D03*
X0171800Y0341309D03*
X0181800Y0341309D03*
X0181800Y0336309D03*
X0181800Y0331309D03*
X0181800Y0326309D03*
X0181800Y0321309D03*
X0181800Y0316309D03*
X0181800Y0311309D03*
X0176800Y0311309D03*
X0171800Y0311309D03*
X0166800Y0311309D03*
X0166800Y0316309D03*
X0171800Y0316309D03*
X0176800Y0316309D03*
X0176800Y0321309D03*
X0171800Y0321309D03*
X0166800Y0321309D03*
X0166800Y0326309D03*
X0171800Y0326309D03*
X0176800Y0326309D03*
X0176800Y0331309D03*
X0191800Y0331309D03*
X0191800Y0326309D03*
X0191800Y0321309D03*
X0191800Y0316309D03*
X0191800Y0311309D03*
X0196800Y0311309D03*
X0201800Y0311309D03*
X0201800Y0316309D03*
X0196800Y0316309D03*
X0196800Y0321309D03*
X0201800Y0321309D03*
X0201800Y0326309D03*
X0196800Y0326309D03*
X0196800Y0331309D03*
X0201800Y0331309D03*
X0201800Y0336309D03*
X0196800Y0336309D03*
X0191800Y0336309D03*
X0191800Y0341309D03*
X0196800Y0341309D03*
X0201800Y0341309D03*
X0201800Y0254695D03*
X0196800Y0254695D03*
X0191800Y0254695D03*
X0191800Y0249695D03*
X0196800Y0249695D03*
X0201800Y0249695D03*
X0201800Y0244695D03*
X0196800Y0244695D03*
X0191800Y0244695D03*
X0191800Y0239695D03*
X0196800Y0239695D03*
X0201800Y0239695D03*
X0201800Y0234695D03*
X0196800Y0234695D03*
X0191800Y0234695D03*
X0191800Y0229695D03*
X0196800Y0229695D03*
X0201800Y0229695D03*
X0201800Y0224695D03*
X0196800Y0224695D03*
X0191800Y0224695D03*
X0181800Y0224695D03*
X0181800Y0229695D03*
X0181800Y0234695D03*
X0181800Y0239695D03*
X0181800Y0244695D03*
X0181800Y0249695D03*
X0181800Y0254695D03*
X0171800Y0254695D03*
X0166800Y0254695D03*
X0166800Y0249695D03*
X0171800Y0249695D03*
X0176800Y0244695D03*
X0176800Y0239695D03*
X0171800Y0239695D03*
X0166800Y0239695D03*
X0166800Y0234695D03*
X0171800Y0234695D03*
X0176800Y0234695D03*
X0176800Y0229695D03*
X0171800Y0229695D03*
X0166800Y0229695D03*
X0166800Y0224695D03*
X0171800Y0224695D03*
X0176800Y0224695D03*
X0171800Y0168081D03*
X0166800Y0168081D03*
X0166800Y0163081D03*
X0171800Y0163081D03*
X0176800Y0158081D03*
X0181800Y0158081D03*
X0181800Y0163081D03*
X0181800Y0168081D03*
X0191800Y0168081D03*
X0196800Y0168081D03*
X0201800Y0168081D03*
X0201800Y0163081D03*
X0196800Y0163081D03*
X0191800Y0163081D03*
X0191800Y0158081D03*
X0196800Y0158081D03*
X0201800Y0158081D03*
X0201800Y0153081D03*
X0196800Y0153081D03*
X0191800Y0153081D03*
X0191800Y0148081D03*
X0196800Y0148081D03*
X0201800Y0148081D03*
X0201800Y0143081D03*
X0196800Y0143081D03*
X0191800Y0143081D03*
X0191800Y0138081D03*
X0196800Y0138081D03*
X0201800Y0138081D03*
X0181800Y0138081D03*
X0181800Y0143081D03*
X0181800Y0148081D03*
X0181800Y0153081D03*
X0176800Y0153081D03*
X0171800Y0153081D03*
X0166800Y0153081D03*
X0166800Y0148081D03*
X0171800Y0148081D03*
X0176800Y0148081D03*
X0176800Y0143081D03*
X0171800Y0143081D03*
X0166800Y0143081D03*
X0166800Y0138081D03*
X0171800Y0138081D03*
X0176800Y0138081D03*
D27*
X0367750Y0114016D03*
X0378550Y0114016D03*
X0389450Y0114016D03*
X0400350Y0114016D03*
X0411150Y0114016D03*
X0422050Y0114016D03*
X0432950Y0114016D03*
X0443850Y0114016D03*
X0454650Y0114016D03*
X0465550Y0114016D03*
X0476450Y0114016D03*
X0487250Y0114016D03*
X0498150Y0114016D03*
X0509050Y0114016D03*
X0519850Y0114016D03*
X0530750Y0114016D03*
X0541650Y0114016D03*
X0552450Y0114016D03*
X0563350Y0114016D03*
X0557950Y0104016D03*
X0547050Y0104016D03*
X0536150Y0104016D03*
X0525350Y0104016D03*
X0514450Y0104016D03*
X0503550Y0104016D03*
X0492750Y0104016D03*
X0481850Y0104016D03*
X0470950Y0104016D03*
X0460150Y0104016D03*
X0449250Y0104016D03*
X0438350Y0104016D03*
X0427550Y0104016D03*
X0416650Y0104016D03*
X0405750Y0104016D03*
X0394850Y0104016D03*
X0384050Y0104016D03*
X0373150Y0104016D03*
X0378675Y0432357D03*
X0389300Y0432357D03*
X0399925Y0432357D03*
X0411175Y0432357D03*
X0421800Y0432357D03*
X0433050Y0432357D03*
X0443675Y0432357D03*
X0454300Y0432357D03*
X0465550Y0432357D03*
X0476175Y0432357D03*
X0487425Y0432357D03*
X0498050Y0432357D03*
X0509300Y0432357D03*
X0519925Y0432357D03*
X0530550Y0432357D03*
X0541800Y0432357D03*
X0552425Y0432357D03*
X0563050Y0432357D03*
X0503675Y0456107D03*
X0493050Y0456107D03*
X0481800Y0456107D03*
X0471175Y0456107D03*
X0459925Y0456107D03*
X0449300Y0456107D03*
X0438050Y0456107D03*
X0427425Y0456107D03*
X0416800Y0456107D03*
X0405550Y0456107D03*
X0394925Y0456107D03*
X0383675Y0456107D03*
X0373050Y0456107D03*
X0367425Y0432357D03*
X0367750Y0796255D03*
X0373150Y0806255D03*
X0378650Y0796255D03*
X0384050Y0806255D03*
X0389450Y0796255D03*
X0400350Y0796255D03*
X0394950Y0806255D03*
X0405750Y0806255D03*
X0411250Y0796255D03*
X0416650Y0806255D03*
X0422050Y0796255D03*
X0427550Y0806255D03*
X0432950Y0796255D03*
X0438350Y0806255D03*
X0449250Y0806255D03*
X0443850Y0796255D03*
X0454650Y0796255D03*
X0460150Y0806255D03*
X0465550Y0796255D03*
X0470950Y0806255D03*
X0476450Y0796255D03*
X0481850Y0806255D03*
X0487250Y0796255D03*
X0492750Y0806255D03*
X0503650Y0806255D03*
X0509050Y0796255D03*
X0498150Y0796255D03*
X0514450Y0806255D03*
X0519950Y0796255D03*
X0525350Y0806255D03*
X0530750Y0796255D03*
X0536250Y0806255D03*
X0541650Y0796255D03*
X0552550Y0796255D03*
X0557950Y0806255D03*
X0547050Y0806255D03*
X0563350Y0796255D03*
X0076800Y0782855D03*
X0076800Y0772055D03*
X0076800Y0761255D03*
X0066800Y0755855D03*
X0066800Y0745055D03*
X0076800Y0739655D03*
X0076800Y0750455D03*
X0066800Y0766655D03*
X0066800Y0777455D03*
D28*
X0071800Y0810555D03*
X0071800Y0711955D03*
X0340550Y0801255D03*
X0590550Y0801255D03*
X0590550Y0109016D03*
X0340550Y0109016D03*
D29*
X0079775Y0416963D03*
X0079775Y0419563D03*
X0079775Y0422063D03*
X0079775Y0424663D03*
X0079775Y0427263D03*
X0079775Y0429763D03*
X0079775Y0432363D03*
X0079775Y0434863D03*
X0079775Y0437463D03*
X0079775Y0440063D03*
X0079775Y0442563D03*
X0079775Y0445163D03*
X0057575Y0445163D03*
X0057575Y0442563D03*
X0057575Y0440063D03*
X0057575Y0437463D03*
X0057575Y0434863D03*
X0057575Y0432363D03*
X0057575Y0429763D03*
X0057575Y0427263D03*
X0057575Y0424663D03*
X0057575Y0422063D03*
X0057575Y0419563D03*
X0057575Y0416963D03*
D30*
X0135550Y0815755D02*
X0135550Y0821755D01*
X0145550Y0821755D02*
X0145550Y0815755D01*
D31*
X0119300Y0819380D03*
X0109300Y0819380D03*
D32*
X0304704Y0763130D03*
X0311396Y0763130D03*
X0311396Y0753130D03*
X0304704Y0753130D03*
X0304704Y0676516D03*
X0311396Y0676516D03*
X0311396Y0666516D03*
X0304704Y0666516D03*
X0304704Y0589902D03*
X0311396Y0589902D03*
X0311396Y0579902D03*
X0304704Y0579902D03*
X0304704Y0503287D03*
X0311396Y0503287D03*
X0311396Y0493287D03*
X0304704Y0493287D03*
X0304704Y0416673D03*
X0311396Y0416673D03*
X0311396Y0406673D03*
X0304704Y0406673D03*
X0304704Y0330059D03*
X0311396Y0330059D03*
X0311396Y0320059D03*
X0304704Y0320059D03*
X0304704Y0243445D03*
X0311396Y0243445D03*
X0311396Y0233445D03*
X0304704Y0233445D03*
X0304704Y0156831D03*
X0311396Y0156831D03*
X0311396Y0146831D03*
X0304704Y0146831D03*
D33*
X0132105Y0148022D03*
X0113995Y0148022D03*
X0113995Y0189754D03*
X0132105Y0189754D03*
X0132105Y0234636D03*
X0113995Y0234636D03*
X0113995Y0276368D03*
X0132105Y0276368D03*
X0132105Y0321250D03*
X0113995Y0321250D03*
X0113995Y0362982D03*
X0132105Y0362982D03*
X0132105Y0407864D03*
X0113995Y0407864D03*
X0113995Y0449597D03*
X0132105Y0449597D03*
X0132105Y0494478D03*
X0113995Y0494478D03*
X0113995Y0536211D03*
X0132105Y0536211D03*
X0132105Y0581093D03*
X0113995Y0581093D03*
X0113995Y0622825D03*
X0132105Y0622825D03*
X0132105Y0667707D03*
X0113995Y0667707D03*
X0113995Y0709439D03*
X0132105Y0709439D03*
X0132105Y0754321D03*
X0113995Y0754321D03*
X0113995Y0103140D03*
X0132105Y0103140D03*
D34*
X0286175Y0101659D03*
X0286175Y0095753D03*
X0286175Y0182367D03*
X0286175Y0188273D03*
X0286175Y0268981D03*
X0286175Y0274887D03*
X0286175Y0355596D03*
X0286175Y0361501D03*
X0286175Y0442210D03*
X0286175Y0448115D03*
X0286175Y0528824D03*
X0286175Y0534729D03*
X0286175Y0615438D03*
X0286175Y0621344D03*
X0286175Y0702052D03*
X0286175Y0707958D03*
D35*
X0284925Y0682766D03*
X0274925Y0682766D03*
X0264925Y0682766D03*
X0264925Y0662766D03*
X0274925Y0662766D03*
X0284925Y0662766D03*
X0284925Y0596152D03*
X0274925Y0596152D03*
X0264925Y0596152D03*
X0264925Y0576152D03*
X0274925Y0576152D03*
X0284925Y0576152D03*
X0284925Y0509537D03*
X0274925Y0509537D03*
X0264925Y0509537D03*
X0264925Y0489537D03*
X0274925Y0489537D03*
X0284925Y0489537D03*
X0284925Y0422923D03*
X0274925Y0422923D03*
X0264925Y0422923D03*
X0264925Y0402923D03*
X0274925Y0402923D03*
X0284925Y0402923D03*
X0284925Y0336309D03*
X0274925Y0336309D03*
X0264925Y0336309D03*
X0264925Y0316309D03*
X0274925Y0316309D03*
X0284925Y0316309D03*
X0284925Y0249695D03*
X0274925Y0249695D03*
X0264925Y0249695D03*
X0264925Y0229695D03*
X0274925Y0229695D03*
X0284925Y0229695D03*
X0284925Y0163081D03*
X0274925Y0163081D03*
X0264925Y0163081D03*
X0264925Y0143081D03*
X0274925Y0143081D03*
X0284925Y0143081D03*
X0284925Y0749380D03*
X0274925Y0749380D03*
X0264925Y0749380D03*
X0264925Y0769380D03*
X0274925Y0769380D03*
X0284925Y0769380D03*
D36*
X0243050Y0771880D03*
X0233050Y0771880D03*
X0233050Y0685266D03*
X0243050Y0685266D03*
X0243050Y0598652D03*
X0233050Y0598652D03*
X0233050Y0512037D03*
X0243050Y0512037D03*
X0243050Y0425423D03*
X0233050Y0425423D03*
X0233050Y0338809D03*
X0243050Y0338809D03*
X0243050Y0252195D03*
X0233050Y0252195D03*
X0233050Y0165581D03*
X0243050Y0165581D03*
D37*
X0254300Y0195945D02*
X0254300Y0202195D01*
X0254300Y0196004D02*
X0254359Y0196004D01*
X0254300Y0195945D01*
X0254359Y0196004D02*
X0259609Y0196004D01*
X0259975Y0196370D01*
X0218616Y0210886D02*
X0217425Y0210886D01*
X0206859Y0210886D02*
X0206800Y0210945D01*
X0204675Y0210945D01*
X0206800Y0224695D02*
X0201800Y0224695D01*
X0201800Y0229695D01*
X0196800Y0229695D01*
X0196800Y0224695D01*
X0201800Y0224695D01*
X0196800Y0224695D02*
X0191800Y0224695D01*
X0191800Y0229695D01*
X0196800Y0229695D01*
X0196800Y0234695D02*
X0201800Y0234695D01*
X0201800Y0239695D01*
X0201800Y0244695D01*
X0196800Y0244695D01*
X0196800Y0239695D01*
X0191800Y0239695D01*
X0191800Y0234695D01*
X0196800Y0234695D01*
X0196800Y0239695D02*
X0201800Y0239695D01*
X0196800Y0244695D02*
X0191800Y0244695D01*
X0191800Y0239695D01*
X0191800Y0249695D02*
X0191800Y0254695D01*
X0196800Y0254695D01*
X0201800Y0254695D01*
X0204675Y0267559D02*
X0207425Y0267559D01*
X0206859Y0297500D02*
X0206800Y0297559D01*
X0204675Y0297559D01*
X0206800Y0311309D02*
X0201800Y0311309D01*
X0201800Y0316309D01*
X0196800Y0316309D01*
X0196800Y0311309D01*
X0201800Y0311309D01*
X0196800Y0311309D02*
X0191800Y0311309D01*
X0191800Y0316309D01*
X0196800Y0316309D01*
X0196800Y0321309D02*
X0201800Y0321309D01*
X0201800Y0326309D01*
X0201800Y0331309D01*
X0196800Y0331309D01*
X0196800Y0326309D01*
X0191800Y0326309D01*
X0191800Y0321309D01*
X0196800Y0321309D01*
X0196800Y0326309D02*
X0201800Y0326309D01*
X0196800Y0331309D02*
X0191800Y0331309D01*
X0191800Y0326309D01*
X0191800Y0336309D02*
X0191800Y0341309D01*
X0196800Y0341309D01*
X0201800Y0341309D01*
X0204675Y0354173D02*
X0207425Y0354173D01*
X0206859Y0384114D02*
X0206800Y0384173D01*
X0204675Y0384173D01*
X0206800Y0397923D02*
X0201800Y0397923D01*
X0201800Y0402923D01*
X0196800Y0402923D01*
X0196800Y0397923D01*
X0201800Y0397923D01*
X0196800Y0397923D02*
X0191800Y0397923D01*
X0191800Y0402923D01*
X0196800Y0402923D01*
X0196800Y0407923D02*
X0201800Y0407923D01*
X0201800Y0412923D01*
X0201800Y0417923D01*
X0196800Y0417923D01*
X0196800Y0412923D01*
X0191800Y0412923D01*
X0191800Y0407923D01*
X0196800Y0407923D01*
X0196800Y0412923D02*
X0201800Y0412923D01*
X0196800Y0417923D02*
X0191800Y0417923D01*
X0191800Y0412923D01*
X0191800Y0422923D02*
X0191800Y0427923D01*
X0196800Y0427923D01*
X0201800Y0427923D01*
X0204675Y0440787D02*
X0207425Y0440787D01*
X0206859Y0470728D02*
X0206800Y0470787D01*
X0204675Y0470787D01*
X0217425Y0470728D02*
X0218616Y0470728D01*
X0206800Y0484537D02*
X0201800Y0484537D01*
X0201800Y0489537D01*
X0196800Y0489537D01*
X0196800Y0484537D01*
X0201800Y0484537D01*
X0196800Y0484537D02*
X0191800Y0484537D01*
X0191800Y0489537D01*
X0196800Y0489537D01*
X0196800Y0494537D02*
X0201800Y0494537D01*
X0201800Y0499537D01*
X0201800Y0504537D01*
X0196800Y0504537D01*
X0196800Y0499537D01*
X0191800Y0499537D01*
X0191800Y0494537D01*
X0196800Y0494537D01*
X0196800Y0499537D02*
X0201800Y0499537D01*
X0196800Y0504537D02*
X0191800Y0504537D01*
X0191800Y0499537D01*
X0191800Y0509537D02*
X0191800Y0514537D01*
X0196800Y0514537D01*
X0201800Y0514537D01*
X0204675Y0527402D02*
X0207425Y0527402D01*
X0206859Y0557343D02*
X0206800Y0557402D01*
X0204675Y0557402D01*
X0217425Y0557343D02*
X0218616Y0557343D01*
X0206800Y0571152D02*
X0201800Y0571152D01*
X0201800Y0576152D01*
X0196800Y0576152D01*
X0196800Y0571152D01*
X0201800Y0571152D01*
X0196800Y0571152D02*
X0191800Y0571152D01*
X0191800Y0576152D01*
X0196800Y0576152D01*
X0196800Y0581152D02*
X0191800Y0581152D01*
X0191800Y0586152D01*
X0196800Y0586152D01*
X0196800Y0591152D01*
X0191800Y0591152D01*
X0191800Y0586152D01*
X0196800Y0586152D02*
X0201800Y0586152D01*
X0201800Y0591152D01*
X0196800Y0591152D01*
X0191800Y0596152D02*
X0191800Y0601152D01*
X0196800Y0601152D01*
X0201800Y0601152D01*
X0201800Y0586152D02*
X0201800Y0581152D01*
X0196800Y0581152D01*
X0181800Y0581152D02*
X0181800Y0571152D01*
X0181800Y0576152D01*
X0176800Y0576152D01*
X0176800Y0581152D01*
X0181800Y0581152D01*
X0181800Y0586152D01*
X0181800Y0591152D01*
X0181800Y0596152D01*
X0181800Y0601152D01*
X0171800Y0601152D02*
X0166800Y0601152D01*
X0166800Y0596152D01*
X0171800Y0596152D01*
X0171800Y0586152D02*
X0166800Y0586152D01*
X0171800Y0586152D02*
X0171800Y0581152D01*
X0176800Y0581152D01*
X0176800Y0586152D01*
X0171800Y0586152D01*
X0176800Y0586152D02*
X0181800Y0586152D01*
X0171800Y0581152D02*
X0171800Y0576152D01*
X0176800Y0576152D01*
X0176800Y0571152D01*
X0181800Y0571152D01*
X0167675Y0557402D02*
X0167616Y0557343D01*
X0167675Y0532402D02*
X0159300Y0532402D01*
X0167675Y0532402D02*
X0167675Y0527402D01*
X0166800Y0514537D02*
X0171800Y0514537D01*
X0171800Y0509537D02*
X0166800Y0509537D01*
X0166800Y0514537D01*
X0166800Y0499537D02*
X0171800Y0499537D01*
X0171800Y0494537D01*
X0176800Y0494537D01*
X0181800Y0494537D01*
X0181800Y0499537D01*
X0181800Y0504537D01*
X0181800Y0509537D01*
X0181800Y0514537D01*
X0181800Y0499537D02*
X0176800Y0499537D01*
X0176800Y0494537D01*
X0176800Y0489537D01*
X0171800Y0489537D01*
X0171800Y0494537D01*
X0171800Y0499537D02*
X0176800Y0499537D01*
X0181800Y0494537D02*
X0181800Y0484537D01*
X0181800Y0489537D01*
X0176800Y0489537D01*
X0176800Y0484537D01*
X0181800Y0484537D01*
X0167675Y0470787D02*
X0167616Y0470728D01*
X0167675Y0445787D02*
X0159300Y0445787D01*
X0167675Y0445787D02*
X0167675Y0440787D01*
X0166800Y0427923D02*
X0171800Y0427923D01*
X0171800Y0422923D02*
X0166800Y0422923D01*
X0166800Y0427923D01*
X0166800Y0412923D02*
X0171800Y0412923D01*
X0171800Y0407923D01*
X0176800Y0407923D01*
X0181800Y0407923D01*
X0181800Y0412923D01*
X0181800Y0417923D01*
X0181800Y0422923D01*
X0181800Y0427923D01*
X0181800Y0412923D02*
X0176800Y0412923D01*
X0176800Y0407923D01*
X0176800Y0402923D01*
X0171800Y0402923D01*
X0171800Y0407923D01*
X0171800Y0412923D02*
X0176800Y0412923D01*
X0181800Y0407923D02*
X0181800Y0397923D01*
X0181800Y0402923D01*
X0176800Y0402923D01*
X0176800Y0397923D01*
X0181800Y0397923D01*
X0167675Y0384173D02*
X0167616Y0384114D01*
X0167675Y0359173D02*
X0159300Y0359173D01*
X0167675Y0359173D02*
X0167675Y0354173D01*
X0166800Y0341309D02*
X0171800Y0341309D01*
X0171800Y0336309D02*
X0166800Y0336309D01*
X0166800Y0341309D01*
X0166800Y0326309D02*
X0171800Y0326309D01*
X0171800Y0321309D01*
X0176800Y0321309D01*
X0181800Y0321309D01*
X0181800Y0326309D01*
X0181800Y0331309D01*
X0181800Y0336309D01*
X0181800Y0341309D01*
X0181800Y0326309D02*
X0176800Y0326309D01*
X0176800Y0321309D01*
X0176800Y0316309D01*
X0171800Y0316309D01*
X0171800Y0321309D01*
X0171800Y0326309D02*
X0176800Y0326309D01*
X0181800Y0321309D02*
X0181800Y0311309D01*
X0181800Y0316309D01*
X0176800Y0316309D01*
X0176800Y0311309D01*
X0181800Y0311309D01*
X0167675Y0297559D02*
X0167616Y0297500D01*
X0167675Y0272559D02*
X0159300Y0272559D01*
X0167675Y0272559D02*
X0167675Y0267559D01*
X0166800Y0254695D02*
X0171800Y0254695D01*
X0166800Y0254695D02*
X0166800Y0249695D01*
X0171800Y0249695D01*
X0181800Y0249695D02*
X0181800Y0254695D01*
X0181800Y0249695D02*
X0181800Y0244695D01*
X0181800Y0239695D01*
X0176800Y0239695D01*
X0176800Y0234695D01*
X0181800Y0234695D01*
X0181800Y0239695D01*
X0176800Y0239695D02*
X0171800Y0239695D01*
X0171800Y0234695D01*
X0176800Y0234695D01*
X0176800Y0229695D01*
X0171800Y0229695D01*
X0171800Y0234695D01*
X0171800Y0239695D02*
X0166800Y0239695D01*
X0176800Y0229695D02*
X0176800Y0224695D01*
X0181800Y0224695D01*
X0181800Y0234695D01*
X0181800Y0229695D02*
X0181800Y0224695D01*
X0181800Y0229695D02*
X0176800Y0229695D01*
X0167675Y0210945D02*
X0167616Y0210886D01*
X0167675Y0185945D02*
X0159300Y0185945D01*
X0167675Y0185945D02*
X0167675Y0180945D01*
X0166800Y0168081D02*
X0171800Y0168081D01*
X0166800Y0168081D02*
X0166800Y0163081D01*
X0171800Y0163081D01*
X0181800Y0163081D02*
X0181800Y0168081D01*
X0181800Y0163081D02*
X0181800Y0158081D01*
X0181800Y0153081D01*
X0176800Y0153081D01*
X0176800Y0148081D01*
X0181800Y0148081D01*
X0181800Y0153081D01*
X0176800Y0153081D02*
X0171800Y0153081D01*
X0171800Y0148081D01*
X0176800Y0148081D01*
X0176800Y0143081D01*
X0171800Y0143081D01*
X0171800Y0148081D01*
X0171800Y0153081D02*
X0166800Y0153081D01*
X0176800Y0143081D02*
X0176800Y0138081D01*
X0181800Y0138081D01*
X0181800Y0148081D01*
X0181800Y0143081D02*
X0181800Y0138081D01*
X0181800Y0143081D02*
X0176800Y0143081D01*
X0191800Y0143081D02*
X0191800Y0138081D01*
X0196800Y0138081D01*
X0196800Y0143081D01*
X0191800Y0143081D01*
X0191800Y0148081D02*
X0196800Y0148081D01*
X0201800Y0148081D01*
X0201800Y0153081D01*
X0201800Y0158081D01*
X0196800Y0158081D01*
X0196800Y0153081D01*
X0191800Y0153081D01*
X0191800Y0148081D01*
X0191800Y0153081D02*
X0191800Y0158081D01*
X0196800Y0158081D01*
X0196800Y0153081D02*
X0201800Y0153081D01*
X0201800Y0143081D02*
X0196800Y0143081D01*
X0201800Y0143081D02*
X0201800Y0138081D01*
X0206800Y0138081D01*
X0201800Y0138081D02*
X0196800Y0138081D01*
X0204675Y0124331D02*
X0206800Y0124331D01*
X0206859Y0124272D01*
X0217425Y0124272D02*
X0218616Y0124272D01*
X0207425Y0094331D02*
X0204675Y0094331D01*
X0167675Y0094331D02*
X0167675Y0099331D01*
X0159300Y0099331D01*
X0167616Y0124272D02*
X0167675Y0124331D01*
X0191800Y0163081D02*
X0191800Y0168081D01*
X0196800Y0168081D01*
X0201800Y0168081D01*
X0204675Y0180945D02*
X0207425Y0180945D01*
X0254300Y0115581D02*
X0254300Y0109331D01*
X0254359Y0109390D01*
X0259609Y0109390D01*
X0259975Y0109756D01*
X0254359Y0109390D02*
X0254300Y0109390D01*
X0254300Y0282559D02*
X0254300Y0288809D01*
X0254300Y0282618D02*
X0254359Y0282618D01*
X0254300Y0282559D01*
X0254359Y0282618D02*
X0259609Y0282618D01*
X0259975Y0282984D01*
X0218616Y0297500D02*
X0217425Y0297500D01*
X0254300Y0369173D02*
X0254300Y0375423D01*
X0254300Y0369232D02*
X0254359Y0369232D01*
X0254300Y0369173D01*
X0254359Y0369232D02*
X0259609Y0369232D01*
X0259975Y0369598D01*
X0218616Y0384114D02*
X0217425Y0384114D01*
X0254300Y0455787D02*
X0254300Y0462037D01*
X0254300Y0455847D02*
X0254359Y0455847D01*
X0254300Y0455787D01*
X0254359Y0455847D02*
X0259609Y0455847D01*
X0259975Y0456212D01*
X0259609Y0542461D02*
X0254359Y0542461D01*
X0254300Y0542402D01*
X0254300Y0548652D01*
X0254300Y0542461D02*
X0254359Y0542461D01*
X0259609Y0542461D02*
X0259975Y0542827D01*
X0207425Y0614016D02*
X0204675Y0614016D01*
X0204675Y0644016D02*
X0206800Y0644016D01*
X0206859Y0643957D01*
X0217425Y0643957D02*
X0218616Y0643957D01*
X0206800Y0657766D02*
X0201800Y0657766D01*
X0201800Y0662766D01*
X0196800Y0662766D01*
X0196800Y0657766D01*
X0201800Y0657766D01*
X0196800Y0657766D02*
X0191800Y0657766D01*
X0191800Y0662766D01*
X0196800Y0662766D01*
X0196800Y0667766D02*
X0191800Y0667766D01*
X0191800Y0672766D01*
X0196800Y0672766D01*
X0196800Y0677766D01*
X0191800Y0677766D01*
X0191800Y0672766D01*
X0196800Y0672766D02*
X0201800Y0672766D01*
X0201800Y0677766D01*
X0196800Y0677766D01*
X0191800Y0682766D02*
X0191800Y0687766D01*
X0196800Y0687766D01*
X0201800Y0687766D01*
X0201800Y0672766D02*
X0201800Y0667766D01*
X0196800Y0667766D01*
X0181800Y0667766D02*
X0181800Y0657766D01*
X0181800Y0662766D01*
X0176800Y0662766D01*
X0176800Y0667766D01*
X0181800Y0667766D01*
X0181800Y0672766D01*
X0181800Y0677766D01*
X0181800Y0682766D01*
X0181800Y0687766D01*
X0171800Y0687766D02*
X0166800Y0687766D01*
X0166800Y0682766D01*
X0171800Y0682766D01*
X0171800Y0672766D02*
X0166800Y0672766D01*
X0171800Y0672766D02*
X0171800Y0667766D01*
X0176800Y0667766D01*
X0176800Y0672766D01*
X0171800Y0672766D01*
X0176800Y0672766D02*
X0181800Y0672766D01*
X0171800Y0667766D02*
X0171800Y0662766D01*
X0176800Y0662766D01*
X0176800Y0657766D01*
X0181800Y0657766D01*
X0167675Y0644016D02*
X0167616Y0643957D01*
X0167675Y0619016D02*
X0159300Y0619016D01*
X0167675Y0619016D02*
X0167675Y0614016D01*
X0167675Y0700630D02*
X0167675Y0705630D01*
X0159300Y0705630D01*
X0167616Y0730571D02*
X0167675Y0730630D01*
X0176800Y0744380D02*
X0176800Y0749380D01*
X0176800Y0754380D01*
X0181800Y0754380D01*
X0181800Y0759380D01*
X0181800Y0764380D01*
X0181800Y0769380D01*
X0181800Y0774380D01*
X0171800Y0774380D02*
X0166800Y0774380D01*
X0166800Y0769380D01*
X0171800Y0769380D01*
X0171800Y0759380D02*
X0166800Y0759380D01*
X0171800Y0759380D02*
X0171800Y0754380D01*
X0176800Y0754380D01*
X0176800Y0759380D01*
X0171800Y0759380D01*
X0171800Y0754380D02*
X0171800Y0749380D01*
X0176800Y0749380D01*
X0181800Y0749380D01*
X0181800Y0744380D01*
X0181800Y0754380D01*
X0181800Y0759380D02*
X0176800Y0759380D01*
X0176800Y0744380D02*
X0181800Y0744380D01*
X0191800Y0744380D02*
X0191800Y0749380D01*
X0196800Y0749380D01*
X0196800Y0744380D01*
X0201800Y0744380D01*
X0206800Y0744380D01*
X0201800Y0744380D02*
X0201800Y0749380D01*
X0196800Y0749380D01*
X0196800Y0744380D02*
X0191800Y0744380D01*
X0191800Y0754380D02*
X0196800Y0754380D01*
X0201800Y0754380D01*
X0201800Y0759380D01*
X0201800Y0764380D01*
X0196800Y0764380D01*
X0196800Y0759380D01*
X0191800Y0759380D01*
X0191800Y0754380D01*
X0191800Y0759380D02*
X0191800Y0764380D01*
X0196800Y0764380D01*
X0196800Y0759380D02*
X0201800Y0759380D01*
X0191800Y0769380D02*
X0191800Y0774380D01*
X0196800Y0774380D01*
X0201800Y0774380D01*
X0204675Y0730630D02*
X0206800Y0730630D01*
X0206859Y0730571D01*
X0217425Y0730571D02*
X0218616Y0730571D01*
X0207425Y0700630D02*
X0204675Y0700630D01*
X0254300Y0715630D02*
X0254300Y0721880D01*
X0254300Y0715689D02*
X0254359Y0715689D01*
X0254300Y0715630D01*
X0254359Y0715689D02*
X0259609Y0715689D01*
X0259975Y0716055D01*
X0254300Y0635266D02*
X0254300Y0629016D01*
X0254359Y0629075D01*
X0259609Y0629075D01*
X0259975Y0629441D01*
X0254359Y0629075D02*
X0254300Y0629075D01*
D38*
X0254300Y0635266D03*
X0246800Y0623391D03*
X0239300Y0615891D03*
X0233675Y0615891D03*
X0226175Y0620266D03*
X0240550Y0642141D03*
X0228050Y0651516D03*
X0222425Y0650266D03*
X0212425Y0634016D03*
X0211800Y0614016D03*
X0224300Y0601152D03*
X0213050Y0586152D03*
X0206800Y0586152D03*
X0222425Y0563652D03*
X0228050Y0564902D03*
X0240550Y0555527D03*
X0254300Y0548652D03*
X0246800Y0536777D03*
X0239300Y0529277D03*
X0233675Y0529277D03*
X0226175Y0533652D03*
X0211800Y0527402D03*
X0224300Y0514537D03*
X0213050Y0499537D03*
X0206800Y0499537D03*
X0222425Y0477037D03*
X0228050Y0478287D03*
X0240550Y0468912D03*
X0254300Y0462037D03*
X0246800Y0450162D03*
X0239300Y0442662D03*
X0233675Y0442662D03*
X0226175Y0447037D03*
X0224300Y0427923D03*
X0211800Y0440787D03*
X0212425Y0460787D03*
X0181800Y0478912D03*
X0176175Y0478912D03*
X0159925Y0485787D03*
X0159925Y0493287D03*
X0162425Y0505162D03*
X0176800Y0512662D03*
X0148675Y0551152D03*
X0148675Y0557402D03*
X0159925Y0572402D03*
X0159925Y0579902D03*
X0162425Y0591777D03*
X0176800Y0599277D03*
X0176175Y0565527D03*
X0181800Y0565527D03*
X0212425Y0547402D03*
X0148675Y0470787D03*
X0148675Y0464537D03*
X0132425Y0441412D03*
X0142174Y0434321D03*
X0162425Y0418548D03*
X0159925Y0406673D03*
X0159925Y0399173D03*
X0148675Y0384173D03*
X0148675Y0377923D03*
X0132425Y0354798D03*
X0143109Y0346427D03*
X0162425Y0331934D03*
X0159925Y0320059D03*
X0159925Y0312559D03*
X0148675Y0297559D03*
X0148675Y0291309D03*
X0148719Y0267416D03*
X0162425Y0245320D03*
X0159925Y0233445D03*
X0159925Y0225945D03*
X0148675Y0210945D03*
X0148675Y0204695D03*
X0132425Y0181570D03*
X0140304Y0171575D03*
X0162425Y0158706D03*
X0159925Y0146831D03*
X0159925Y0139331D03*
X0148675Y0124331D03*
X0148675Y0118081D03*
X0132425Y0094956D03*
X0114300Y0094956D03*
X0090550Y0119380D03*
X0094300Y0124380D03*
X0109925Y0129331D03*
X0080461Y0173445D03*
X0090550Y0206255D03*
X0094300Y0211255D03*
X0109925Y0215945D03*
X0114300Y0181570D03*
X0114300Y0268184D03*
X0132425Y0268184D03*
X0109925Y0302559D03*
X0094300Y0297505D03*
X0090550Y0292505D03*
X0076254Y0266014D03*
X0072514Y0350635D03*
X0090550Y0379380D03*
X0094300Y0384380D03*
X0087007Y0400660D03*
X0083267Y0405335D03*
X0081864Y0411880D03*
X0072514Y0414218D03*
X0068773Y0433853D03*
X0086539Y0437126D03*
X0090550Y0465630D03*
X0094300Y0470630D03*
X0109925Y0475787D03*
X0086539Y0494631D03*
X0070176Y0479203D03*
X0058488Y0467982D03*
X0051008Y0427308D03*
X0047268Y0422165D03*
X0114300Y0441412D03*
X0109925Y0389173D03*
X0114300Y0354798D03*
X0176800Y0339434D03*
X0176175Y0305684D03*
X0181800Y0305684D03*
X0206800Y0326309D03*
X0213050Y0326309D03*
X0224300Y0341309D03*
X0233675Y0356048D03*
X0239300Y0356048D03*
X0246800Y0363548D03*
X0254300Y0375423D03*
X0240550Y0382298D03*
X0228050Y0391673D03*
X0222425Y0390423D03*
X0212425Y0374173D03*
X0211800Y0354173D03*
X0226175Y0360423D03*
X0213050Y0412923D03*
X0206800Y0412923D03*
X0181800Y0392298D03*
X0176175Y0392298D03*
X0176800Y0426048D03*
X0139836Y0512397D03*
X0132425Y0528027D03*
X0114300Y0528027D03*
X0094300Y0557505D03*
X0090550Y0552505D03*
X0109448Y0562421D03*
X0086072Y0607771D03*
X0114300Y0614641D03*
X0132425Y0614641D03*
X0144979Y0607771D03*
X0148675Y0637766D03*
X0148675Y0644016D03*
X0159925Y0659016D03*
X0159925Y0666516D03*
X0162425Y0678391D03*
X0148719Y0690522D03*
X0132425Y0701255D03*
X0114300Y0701255D03*
X0094300Y0730630D03*
X0090550Y0725630D03*
X0109925Y0735630D03*
X0148675Y0730630D03*
X0148675Y0724380D03*
X0159925Y0745630D03*
X0159925Y0753130D03*
X0162425Y0765005D03*
X0176800Y0772505D03*
X0176175Y0738755D03*
X0181800Y0738755D03*
X0206800Y0759380D03*
X0213050Y0759380D03*
X0224300Y0774380D03*
X0228050Y0738130D03*
X0222425Y0736880D03*
X0212425Y0720630D03*
X0211800Y0700630D03*
X0224300Y0687766D03*
X0213050Y0672766D03*
X0206800Y0672766D03*
X0226175Y0706880D03*
X0233675Y0702505D03*
X0239300Y0702505D03*
X0246800Y0710005D03*
X0254300Y0721880D03*
X0240550Y0728755D03*
X0279925Y0721255D03*
X0279925Y0701880D03*
X0311175Y0683391D03*
X0330550Y0684016D03*
X0341800Y0672766D03*
X0323050Y0657766D03*
X0279925Y0634641D03*
X0279925Y0615266D03*
X0311175Y0596777D03*
X0330550Y0597402D03*
X0341800Y0586152D03*
X0323050Y0571152D03*
X0279925Y0548027D03*
X0279925Y0528652D03*
X0311175Y0510162D03*
X0330550Y0510787D03*
X0341800Y0499537D03*
X0323050Y0484537D03*
X0279925Y0461412D03*
X0279925Y0442037D03*
X0311175Y0423548D03*
X0330550Y0424173D03*
X0341800Y0412923D03*
X0323050Y0397923D03*
X0279925Y0374798D03*
X0279925Y0355423D03*
X0311175Y0336934D03*
X0330550Y0337559D03*
X0341800Y0326309D03*
X0323050Y0311309D03*
X0279925Y0288184D03*
X0279925Y0268809D03*
X0254300Y0288809D03*
X0246800Y0276934D03*
X0239300Y0269434D03*
X0233675Y0269434D03*
X0226175Y0273809D03*
X0224300Y0254695D03*
X0211800Y0267559D03*
X0212425Y0287559D03*
X0222425Y0303809D03*
X0228050Y0305059D03*
X0240550Y0295684D03*
X0213050Y0239695D03*
X0206800Y0239695D03*
X0222425Y0217195D03*
X0228050Y0218445D03*
X0240550Y0209070D03*
X0254300Y0202195D03*
X0246800Y0190320D03*
X0239300Y0182820D03*
X0233675Y0182820D03*
X0226175Y0187195D03*
X0224300Y0168081D03*
X0211800Y0180945D03*
X0212425Y0200945D03*
X0181800Y0219070D03*
X0176175Y0219070D03*
X0176800Y0252820D03*
X0176800Y0166206D03*
X0176175Y0132456D03*
X0181800Y0132456D03*
X0206800Y0153081D03*
X0213050Y0153081D03*
X0228050Y0131831D03*
X0222425Y0130581D03*
X0212425Y0114331D03*
X0226175Y0100581D03*
X0233675Y0096206D03*
X0239300Y0096206D03*
X0246800Y0103706D03*
X0254300Y0115581D03*
X0240550Y0122456D03*
X0211800Y0094331D03*
X0279925Y0095581D03*
X0279925Y0114956D03*
X0311175Y0163706D03*
X0330550Y0164331D03*
X0341800Y0153081D03*
X0323050Y0138081D03*
X0279925Y0182195D03*
X0279925Y0201570D03*
X0311175Y0250320D03*
X0330550Y0250945D03*
X0341800Y0239695D03*
X0323050Y0224695D03*
X0090550Y0638755D03*
X0094300Y0643755D03*
X0109925Y0649016D03*
X0176175Y0652141D03*
X0181800Y0652141D03*
X0176800Y0685891D03*
X0043050Y0678130D03*
X0311175Y0770005D03*
X0330550Y0770630D03*
X0341800Y0759380D03*
X0323050Y0744380D03*
D39*
X0090550Y0119380D02*
X0090550Y0119331D01*
X0128675Y0119331D01*
X0138675Y0109331D01*
X0167675Y0109331D01*
X0167675Y0114331D02*
X0138675Y0114331D01*
X0128675Y0124331D01*
X0094300Y0124331D01*
X0094300Y0124380D01*
X0109925Y0129331D02*
X0154866Y0129331D01*
X0154925Y0129390D01*
X0160550Y0129390D01*
X0160609Y0129331D01*
X0167675Y0129331D01*
X0167675Y0124331D02*
X0154984Y0124331D01*
X0154925Y0124272D01*
X0160550Y0124272D01*
X0154925Y0124272D02*
X0154866Y0124331D01*
X0148675Y0124331D01*
X0149925Y0119331D02*
X0148675Y0118081D01*
X0149925Y0119331D02*
X0167675Y0119331D01*
X0175550Y0132456D02*
X0171800Y0136206D01*
X0171800Y0138081D01*
X0172046Y0137835D01*
X0171800Y0143081D02*
X0166800Y0138081D01*
X0165550Y0139331D01*
X0160550Y0139331D01*
X0159925Y0146831D02*
X0161175Y0148081D01*
X0166800Y0148081D01*
X0162425Y0153706D02*
X0134300Y0153706D01*
X0132105Y0151511D01*
X0132105Y0148022D01*
X0137105Y0150886D01*
X0132105Y0148022D02*
X0113995Y0148022D01*
X0114300Y0181570D02*
X0114300Y0190074D01*
X0113995Y0189754D01*
X0132105Y0189754D02*
X0132425Y0188809D01*
X0132425Y0181570D01*
X0140304Y0171575D02*
X0082331Y0171575D01*
X0080461Y0173445D01*
X0090550Y0205945D02*
X0090550Y0206255D01*
X0090550Y0205945D02*
X0128675Y0205945D01*
X0138675Y0195945D01*
X0167675Y0195945D01*
X0167675Y0200945D02*
X0138675Y0200945D01*
X0128675Y0210945D01*
X0094487Y0210945D01*
X0094487Y0211068D01*
X0094300Y0211255D01*
X0094300Y0210945D02*
X0094487Y0210945D01*
X0109925Y0215945D02*
X0154866Y0215945D01*
X0154925Y0216004D01*
X0160550Y0216004D01*
X0160609Y0215945D01*
X0167675Y0215945D01*
X0167675Y0210945D02*
X0154984Y0210945D01*
X0154925Y0210886D01*
X0160550Y0210886D01*
X0154925Y0210886D02*
X0154866Y0210945D01*
X0148675Y0210945D01*
X0149925Y0205945D02*
X0148675Y0204695D01*
X0149925Y0205945D02*
X0167675Y0205945D01*
X0175550Y0219070D02*
X0171800Y0222820D01*
X0171800Y0224695D01*
X0172046Y0224449D01*
X0171800Y0229695D02*
X0166800Y0224695D01*
X0165550Y0225945D01*
X0160550Y0225945D01*
X0159925Y0233445D02*
X0161175Y0234695D01*
X0166800Y0234695D01*
X0162425Y0240320D02*
X0134300Y0240320D01*
X0132105Y0238125D01*
X0132105Y0234636D01*
X0137105Y0237500D01*
X0132105Y0234636D02*
X0113995Y0234636D01*
X0114300Y0268184D02*
X0114300Y0276688D01*
X0113995Y0276368D01*
X0132105Y0276368D02*
X0132425Y0275423D01*
X0132425Y0268184D01*
X0141706Y0259936D02*
X0148719Y0266949D01*
X0148719Y0267416D01*
X0141706Y0259936D02*
X0082331Y0259936D01*
X0076254Y0266014D01*
X0090550Y0292505D02*
X0090550Y0292559D01*
X0128675Y0292559D01*
X0138675Y0282559D01*
X0167675Y0282559D01*
X0167675Y0287559D02*
X0138675Y0287559D01*
X0128675Y0297559D01*
X0094354Y0297559D01*
X0094300Y0297505D01*
X0094300Y0297559D02*
X0094354Y0297559D01*
X0109925Y0302559D02*
X0154866Y0302559D01*
X0154925Y0302618D01*
X0160550Y0302618D01*
X0160609Y0302559D01*
X0167675Y0302559D01*
X0167675Y0297559D02*
X0154984Y0297559D01*
X0154925Y0297500D01*
X0160550Y0297500D01*
X0154925Y0297500D02*
X0154866Y0297559D01*
X0148675Y0297559D01*
X0149925Y0292559D02*
X0148675Y0291309D01*
X0149925Y0292559D02*
X0167675Y0292559D01*
X0175550Y0305684D02*
X0171800Y0309434D01*
X0171800Y0311309D01*
X0172046Y0311063D01*
X0171800Y0316309D02*
X0166800Y0311309D01*
X0165550Y0312559D01*
X0160550Y0312559D01*
X0159925Y0320059D02*
X0161175Y0321309D01*
X0166800Y0321309D01*
X0162425Y0326934D02*
X0134300Y0326934D01*
X0132105Y0324739D01*
X0132105Y0321250D01*
X0137105Y0324114D01*
X0132105Y0321250D02*
X0113995Y0321250D01*
X0114300Y0354798D02*
X0114300Y0363302D01*
X0113995Y0362982D01*
X0132105Y0362982D02*
X0132425Y0362037D01*
X0132425Y0354798D01*
X0143109Y0346427D02*
X0076721Y0346427D01*
X0072514Y0350635D01*
X0090550Y0379173D02*
X0090550Y0379380D01*
X0090550Y0379173D02*
X0128675Y0379173D01*
X0138675Y0369173D01*
X0167675Y0369173D01*
X0167675Y0374173D02*
X0138675Y0374173D01*
X0128675Y0384173D01*
X0094300Y0384173D01*
X0094300Y0384380D01*
X0100097Y0393179D02*
X0102435Y0395517D01*
X0102435Y0415153D01*
X0121603Y0434321D01*
X0142174Y0434321D01*
X0132425Y0441412D02*
X0132425Y0448652D01*
X0132105Y0449597D01*
X0138675Y0455787D02*
X0128675Y0465787D01*
X0090707Y0465787D01*
X0090550Y0465630D01*
X0090550Y0465787D02*
X0090707Y0465787D01*
X0094300Y0470630D02*
X0094457Y0470787D01*
X0094300Y0470787D01*
X0094457Y0470787D02*
X0128675Y0470787D01*
X0138675Y0460787D01*
X0167675Y0460787D01*
X0167675Y0455787D02*
X0138675Y0455787D01*
X0148675Y0464537D02*
X0149925Y0465787D01*
X0167675Y0465787D01*
X0167675Y0470787D02*
X0154984Y0470787D01*
X0154925Y0470728D01*
X0160550Y0470728D01*
X0160609Y0475787D02*
X0160550Y0475847D01*
X0154925Y0475847D01*
X0154866Y0475787D01*
X0109925Y0475787D01*
X0113995Y0494478D02*
X0132105Y0494478D01*
X0132105Y0497968D01*
X0134300Y0500162D01*
X0162425Y0500162D01*
X0166800Y0504537D01*
X0176800Y0504537D01*
X0171800Y0509537D02*
X0163675Y0509537D01*
X0162425Y0508287D01*
X0162425Y0505162D01*
X0161175Y0494537D02*
X0166800Y0494537D01*
X0161175Y0494537D02*
X0159925Y0493287D01*
X0160550Y0485787D02*
X0165550Y0485787D01*
X0166800Y0484537D01*
X0171800Y0489537D01*
X0171800Y0484537D02*
X0171800Y0482662D01*
X0175550Y0478912D01*
X0176175Y0478912D01*
X0172046Y0484291D02*
X0171800Y0484537D01*
X0167675Y0475787D02*
X0160609Y0475787D01*
X0154925Y0470728D02*
X0154866Y0470787D01*
X0148675Y0470787D01*
X0132105Y0494478D02*
X0137105Y0497343D01*
X0139836Y0512397D02*
X0103837Y0512397D01*
X0086539Y0494631D01*
X0070176Y0479203D02*
X0069708Y0479203D01*
X0058488Y0467982D01*
X0054925Y0445438D02*
X0055200Y0445163D01*
X0057575Y0445163D01*
X0057575Y0442563D02*
X0053425Y0442563D01*
X0051800Y0444188D01*
X0051800Y0770005D01*
X0053675Y0771880D01*
X0076625Y0771880D01*
X0076800Y0772055D01*
X0081175Y0766880D02*
X0067025Y0766880D01*
X0066800Y0766655D01*
X0067200Y0756255D02*
X0080550Y0756255D01*
X0082425Y0754380D01*
X0082425Y0733755D01*
X0079925Y0731255D01*
X0060550Y0731255D01*
X0058050Y0728755D01*
X0058050Y0690005D01*
X0061180Y0687343D01*
X0073837Y0687343D01*
X0076721Y0684459D01*
X0076721Y0449282D01*
X0079526Y0446476D01*
X0079526Y0445412D01*
X0079775Y0445163D01*
X0079775Y0442563D02*
X0083561Y0442563D01*
X0084669Y0443671D01*
X0084669Y0455827D01*
X0079526Y0460035D01*
X0079526Y0687667D01*
X0084925Y0692131D01*
X0084925Y0763130D01*
X0081175Y0766880D01*
X0076800Y0782855D02*
X0076525Y0783130D01*
X0054925Y0783130D01*
X0048675Y0776880D01*
X0048675Y0443563D01*
X0052175Y0440063D01*
X0057575Y0440063D01*
X0057575Y0434863D02*
X0053100Y0434863D01*
X0050550Y0432313D01*
X0044925Y0432313D01*
X0043050Y0434188D01*
X0043050Y0678130D01*
X0082331Y0673223D02*
X0101500Y0690522D01*
X0148719Y0690522D01*
X0162425Y0681516D02*
X0162425Y0678391D01*
X0162425Y0681516D02*
X0163675Y0682766D01*
X0171800Y0682766D01*
X0176800Y0685891D02*
X0179300Y0687766D01*
X0181800Y0687766D01*
X0176800Y0677766D02*
X0166800Y0677766D01*
X0162425Y0673391D01*
X0134300Y0673391D01*
X0132105Y0671196D01*
X0132105Y0667707D01*
X0137105Y0670571D01*
X0132105Y0667707D02*
X0113995Y0667707D01*
X0109925Y0649016D02*
X0154866Y0649016D01*
X0154925Y0649075D01*
X0160550Y0649075D01*
X0160609Y0649016D01*
X0167675Y0649016D01*
X0167675Y0644016D02*
X0154984Y0644016D01*
X0154925Y0643957D01*
X0160550Y0643957D01*
X0154925Y0643957D02*
X0154866Y0644016D01*
X0148675Y0644016D01*
X0149925Y0639016D02*
X0148675Y0637766D01*
X0149925Y0639016D02*
X0167675Y0639016D01*
X0167675Y0634016D02*
X0138675Y0634016D01*
X0128675Y0644016D01*
X0094300Y0644016D01*
X0094300Y0643755D01*
X0090747Y0639016D02*
X0090747Y0638952D01*
X0090550Y0638755D01*
X0090550Y0639016D02*
X0090747Y0639016D01*
X0128675Y0639016D01*
X0138675Y0629016D01*
X0167675Y0629016D01*
X0175550Y0652141D02*
X0171800Y0655891D01*
X0171800Y0657766D01*
X0172046Y0657520D01*
X0171800Y0662766D02*
X0166800Y0657766D01*
X0165550Y0659016D01*
X0160550Y0659016D01*
X0159925Y0666516D02*
X0161175Y0667766D01*
X0166800Y0667766D01*
X0175550Y0652141D02*
X0176175Y0652141D01*
X0204675Y0649016D02*
X0204734Y0649075D01*
X0211800Y0649075D01*
X0211859Y0649016D01*
X0221175Y0649016D01*
X0222425Y0650266D01*
X0217425Y0649075D02*
X0211800Y0649075D01*
X0211800Y0643957D02*
X0206859Y0643957D01*
X0211800Y0643957D02*
X0217425Y0643957D01*
X0223616Y0643957D01*
X0223675Y0644016D01*
X0224925Y0639016D02*
X0231800Y0645266D01*
X0234925Y0645266D01*
X0236331Y0646672D01*
X0236331Y0651253D01*
X0234331Y0651253D02*
X0234300Y0651222D01*
X0234300Y0647766D01*
X0233675Y0647141D01*
X0229300Y0647141D01*
X0228050Y0648391D01*
X0228050Y0651516D01*
X0232425Y0651260D02*
X0232425Y0655266D01*
X0233454Y0656294D01*
X0250550Y0656294D01*
X0250550Y0679016D01*
X0243050Y0685266D01*
X0256175Y0682987D02*
X0264704Y0682987D01*
X0264925Y0682766D01*
X0256175Y0676294D02*
X0256175Y0662987D01*
X0264704Y0662987D01*
X0264925Y0662766D01*
X0256175Y0656294D02*
X0250550Y0656294D01*
X0256175Y0656294D02*
X0294300Y0656294D01*
X0294300Y0662987D02*
X0294300Y0676294D01*
X0294300Y0682987D02*
X0285146Y0682987D01*
X0284925Y0682766D01*
X0277425Y0688391D02*
X0274925Y0685891D01*
X0274925Y0682766D01*
X0277425Y0688391D02*
X0298050Y0688391D01*
X0299925Y0686516D01*
X0299925Y0662141D01*
X0301175Y0660891D01*
X0309925Y0660891D01*
X0311175Y0662141D01*
X0311175Y0666294D01*
X0311396Y0666516D01*
X0311446Y0666566D01*
X0318000Y0666566D01*
X0320500Y0666566D02*
X0320500Y0670316D01*
X0319300Y0671516D01*
X0304704Y0671516D01*
X0304704Y0666516D01*
X0304704Y0671516D02*
X0304704Y0676516D01*
X0311175Y0676516D02*
X0311175Y0682766D01*
X0311396Y0676516D02*
X0312021Y0675891D01*
X0322425Y0675891D01*
X0325550Y0672766D01*
X0325600Y0672716D01*
X0325600Y0666566D01*
X0323100Y0666566D02*
X0323100Y0660941D01*
X0323050Y0657766D01*
X0323862Y0656954D01*
X0334300Y0656954D01*
X0336175Y0672707D02*
X0330550Y0672707D01*
X0330491Y0672766D01*
X0325550Y0672766D01*
X0330550Y0677825D02*
X0336175Y0677825D01*
X0336175Y0672707D02*
X0340491Y0672707D01*
X0341800Y0672766D01*
X0330550Y0677825D02*
X0329984Y0678391D01*
X0330550Y0678391D01*
X0330550Y0684016D01*
X0329984Y0678391D02*
X0319300Y0678391D01*
X0318000Y0679691D01*
X0318000Y0683966D01*
X0311396Y0666516D02*
X0311800Y0664641D01*
X0312425Y0665266D01*
X0294300Y0662987D02*
X0285146Y0662987D01*
X0284925Y0662766D01*
X0286175Y0634700D02*
X0286116Y0634641D01*
X0279925Y0634641D01*
X0286175Y0629582D02*
X0286175Y0621344D01*
X0286175Y0615438D02*
X0286003Y0615266D01*
X0279925Y0615266D01*
X0274925Y0621294D02*
X0274704Y0621516D01*
X0271175Y0621516D01*
X0269925Y0620266D01*
X0267800Y0620266D01*
X0267375Y0619841D01*
X0263675Y0619841D01*
X0263675Y0622141D01*
X0261859Y0623957D01*
X0254300Y0623957D01*
X0253734Y0623391D01*
X0246800Y0623391D01*
X0246800Y0628957D01*
X0243050Y0630835D02*
X0243050Y0620891D01*
X0244100Y0619841D01*
X0259975Y0619841D01*
X0267375Y0629441D02*
X0267575Y0629641D01*
X0269925Y0629641D01*
X0271175Y0628391D01*
X0274521Y0628391D01*
X0274925Y0627987D01*
X0277425Y0601777D02*
X0274925Y0599277D01*
X0274925Y0596152D01*
X0277425Y0601777D02*
X0298050Y0601777D01*
X0299925Y0599902D01*
X0299925Y0575527D01*
X0301175Y0574277D01*
X0309925Y0574277D01*
X0311175Y0575527D01*
X0311175Y0579680D01*
X0311396Y0579902D01*
X0311446Y0579952D01*
X0318000Y0579952D01*
X0320500Y0579952D02*
X0320500Y0583702D01*
X0319300Y0584902D01*
X0304704Y0584902D01*
X0304704Y0579902D01*
X0304704Y0584902D02*
X0304704Y0589902D01*
X0311175Y0589902D02*
X0311175Y0596152D01*
X0311396Y0589902D02*
X0312021Y0589277D01*
X0322425Y0589277D01*
X0325550Y0586152D01*
X0325600Y0586102D01*
X0325600Y0579952D01*
X0323100Y0579952D02*
X0323100Y0574327D01*
X0323050Y0571152D01*
X0323862Y0570340D01*
X0334300Y0570340D01*
X0336175Y0586093D02*
X0330550Y0586093D01*
X0330491Y0586152D01*
X0325550Y0586152D01*
X0330550Y0591211D02*
X0336175Y0591211D01*
X0336175Y0586093D02*
X0340491Y0586093D01*
X0341800Y0586152D01*
X0330550Y0591211D02*
X0329984Y0591777D01*
X0330550Y0591777D01*
X0330550Y0597402D01*
X0329984Y0591777D02*
X0319300Y0591777D01*
X0318000Y0593077D01*
X0318000Y0597352D01*
X0311396Y0579902D02*
X0311800Y0578027D01*
X0312425Y0578652D01*
X0294300Y0576373D02*
X0294300Y0589680D01*
X0294300Y0596373D02*
X0285146Y0596373D01*
X0284925Y0596152D01*
X0285146Y0576373D02*
X0284925Y0576152D01*
X0285146Y0576373D02*
X0294300Y0576373D01*
X0294300Y0569680D02*
X0256175Y0569680D01*
X0250550Y0569680D01*
X0250550Y0592402D01*
X0243050Y0598652D01*
X0256175Y0596373D02*
X0264704Y0596373D01*
X0264925Y0596152D01*
X0256175Y0589680D02*
X0256175Y0576373D01*
X0264704Y0576373D01*
X0264925Y0576152D01*
X0250550Y0569680D02*
X0233454Y0569680D01*
X0232425Y0568652D01*
X0232425Y0564645D01*
X0232431Y0564639D01*
X0234300Y0564608D02*
X0234300Y0561152D01*
X0233675Y0560527D01*
X0229300Y0560527D01*
X0228050Y0561777D01*
X0228050Y0564902D01*
X0222425Y0563652D02*
X0221175Y0562402D01*
X0211859Y0562402D01*
X0211800Y0562461D01*
X0217425Y0562461D01*
X0217425Y0557343D02*
X0211800Y0557343D01*
X0206859Y0557343D01*
X0204675Y0552402D02*
X0224925Y0552402D01*
X0231800Y0558652D01*
X0234925Y0558652D01*
X0236331Y0560058D01*
X0236331Y0564639D01*
X0234331Y0564639D02*
X0234300Y0564608D01*
X0238331Y0564639D02*
X0238331Y0558933D01*
X0236175Y0556777D01*
X0232425Y0556777D01*
X0225550Y0549902D01*
X0222425Y0549902D01*
X0214925Y0542402D01*
X0204675Y0542402D01*
X0204675Y0547402D02*
X0212425Y0547402D01*
X0217425Y0557343D02*
X0223616Y0557343D01*
X0223675Y0557402D01*
X0226175Y0545527D02*
X0226175Y0544961D01*
X0226741Y0545527D01*
X0232425Y0545527D01*
X0232431Y0545533D01*
X0232431Y0547039D01*
X0234331Y0547039D02*
X0234331Y0541242D01*
X0233616Y0540527D01*
X0232932Y0539843D01*
X0226175Y0539843D01*
X0226175Y0533652D01*
X0233616Y0534902D02*
X0233616Y0529336D01*
X0233675Y0529277D01*
X0238734Y0529843D02*
X0238734Y0534902D01*
X0238734Y0540527D01*
X0238331Y0540929D01*
X0238331Y0547039D01*
X0240231Y0547039D02*
X0243050Y0544220D01*
X0243050Y0534277D01*
X0244100Y0533227D01*
X0259975Y0533227D01*
X0263675Y0533227D02*
X0263675Y0535527D01*
X0261859Y0537343D01*
X0254300Y0537343D01*
X0253734Y0536777D01*
X0246800Y0536777D01*
X0246800Y0542343D01*
X0246800Y0547461D02*
X0246800Y0550527D01*
X0246175Y0551152D01*
X0236800Y0551152D01*
X0236331Y0550683D01*
X0236331Y0547039D01*
X0233616Y0540527D02*
X0233616Y0534902D01*
X0238734Y0529843D02*
X0239300Y0529277D01*
X0243050Y0512037D02*
X0250550Y0505787D01*
X0250550Y0483066D01*
X0256175Y0483066D01*
X0294300Y0483066D01*
X0294300Y0489759D02*
X0294300Y0503066D01*
X0294300Y0509759D02*
X0285146Y0509759D01*
X0284925Y0509537D01*
X0277425Y0515162D02*
X0274925Y0512662D01*
X0274925Y0509537D01*
X0277425Y0515162D02*
X0298050Y0515162D01*
X0299925Y0513287D01*
X0299925Y0488912D01*
X0301175Y0487662D01*
X0309925Y0487662D01*
X0311175Y0488912D01*
X0311175Y0493066D01*
X0311396Y0493287D01*
X0311446Y0493337D01*
X0318000Y0493337D01*
X0320500Y0493337D02*
X0320500Y0497087D01*
X0319300Y0498287D01*
X0304704Y0498287D01*
X0304704Y0493287D01*
X0304704Y0498287D02*
X0304704Y0503287D01*
X0311175Y0503287D02*
X0311175Y0509537D01*
X0311396Y0503287D02*
X0312021Y0502662D01*
X0322425Y0502662D01*
X0325550Y0499537D01*
X0325600Y0499487D01*
X0325600Y0493337D01*
X0323100Y0493337D02*
X0323100Y0487712D01*
X0323050Y0484537D01*
X0323862Y0483725D01*
X0334300Y0483725D01*
X0336175Y0499478D02*
X0330550Y0499478D01*
X0330491Y0499537D01*
X0325550Y0499537D01*
X0330550Y0504597D02*
X0336175Y0504597D01*
X0336175Y0499478D02*
X0340491Y0499478D01*
X0341800Y0499537D01*
X0330550Y0504597D02*
X0329984Y0505162D01*
X0330550Y0505162D01*
X0330550Y0510787D01*
X0329984Y0505162D02*
X0319300Y0505162D01*
X0318000Y0506462D01*
X0318000Y0510737D01*
X0311396Y0493287D02*
X0311800Y0491412D01*
X0312425Y0492037D01*
X0294300Y0489759D02*
X0285146Y0489759D01*
X0284925Y0489537D01*
X0264925Y0489537D02*
X0264704Y0489759D01*
X0256175Y0489759D01*
X0256175Y0503066D01*
X0256175Y0509759D02*
X0264704Y0509759D01*
X0264925Y0509537D01*
X0263675Y0533227D02*
X0267375Y0533227D01*
X0267800Y0533652D01*
X0269925Y0533652D01*
X0271175Y0534902D01*
X0274704Y0534902D01*
X0274925Y0534680D01*
X0274925Y0541373D02*
X0274521Y0541777D01*
X0271175Y0541777D01*
X0269925Y0543027D01*
X0267575Y0543027D01*
X0267375Y0542827D01*
X0279925Y0548027D02*
X0286116Y0548027D01*
X0286175Y0548086D01*
X0286175Y0542968D02*
X0286175Y0534729D01*
X0286175Y0528824D02*
X0286003Y0528652D01*
X0279925Y0528652D01*
X0250550Y0483066D02*
X0233454Y0483066D01*
X0232425Y0482037D01*
X0232425Y0478031D01*
X0232431Y0478025D01*
X0234300Y0477994D02*
X0234300Y0474537D01*
X0233675Y0473912D01*
X0229300Y0473912D01*
X0228050Y0475162D01*
X0228050Y0478287D01*
X0222425Y0477037D02*
X0221175Y0475787D01*
X0211859Y0475787D01*
X0211800Y0475847D01*
X0217425Y0475847D01*
X0217425Y0470728D02*
X0211800Y0470728D01*
X0206859Y0470728D01*
X0204675Y0465787D02*
X0224925Y0465787D01*
X0231800Y0472037D01*
X0234925Y0472037D01*
X0236331Y0473444D01*
X0236331Y0478025D01*
X0234331Y0478025D02*
X0234300Y0477994D01*
X0238331Y0478025D02*
X0238331Y0472319D01*
X0236175Y0470162D01*
X0232425Y0470162D01*
X0225550Y0463287D01*
X0222425Y0463287D01*
X0214925Y0455787D01*
X0204675Y0455787D01*
X0204675Y0460787D02*
X0212425Y0460787D01*
X0217425Y0470728D02*
X0223616Y0470728D01*
X0223675Y0470787D01*
X0226175Y0458912D02*
X0226175Y0458347D01*
X0226741Y0458912D01*
X0232425Y0458912D01*
X0232431Y0458919D01*
X0232431Y0460425D01*
X0234331Y0460425D02*
X0234331Y0454628D01*
X0233616Y0453912D01*
X0232932Y0453228D01*
X0226175Y0453228D01*
X0226175Y0447037D01*
X0233616Y0448287D02*
X0233616Y0442722D01*
X0233675Y0442662D01*
X0238734Y0443228D02*
X0238734Y0448287D01*
X0238734Y0453912D01*
X0238331Y0454315D01*
X0238331Y0460425D01*
X0240231Y0460425D02*
X0243050Y0457606D01*
X0243050Y0447662D01*
X0244100Y0446612D01*
X0259975Y0446612D01*
X0263675Y0446612D02*
X0263675Y0448912D01*
X0261859Y0450728D01*
X0254300Y0450728D01*
X0253734Y0450162D01*
X0246800Y0450162D01*
X0246800Y0455728D01*
X0246800Y0460847D02*
X0246800Y0463912D01*
X0246175Y0464537D01*
X0236800Y0464537D01*
X0236331Y0464069D01*
X0236331Y0460425D01*
X0233616Y0453912D02*
X0233616Y0448287D01*
X0238734Y0443228D02*
X0239300Y0442662D01*
X0243050Y0425423D02*
X0250550Y0419173D01*
X0250550Y0396452D01*
X0256175Y0396452D01*
X0294300Y0396452D01*
X0294300Y0403145D02*
X0294300Y0416452D01*
X0294300Y0423145D02*
X0285146Y0423145D01*
X0284925Y0422923D01*
X0277425Y0428548D02*
X0274925Y0426048D01*
X0274925Y0422923D01*
X0277425Y0428548D02*
X0298050Y0428548D01*
X0299925Y0426673D01*
X0299925Y0402298D01*
X0301175Y0401048D01*
X0309925Y0401048D01*
X0311175Y0402298D01*
X0311175Y0406452D01*
X0311396Y0406673D01*
X0311446Y0406723D01*
X0318000Y0406723D01*
X0320500Y0406723D02*
X0320500Y0410473D01*
X0319300Y0411673D01*
X0304704Y0411673D01*
X0304704Y0406673D01*
X0304704Y0411673D02*
X0304704Y0416673D01*
X0311175Y0416673D02*
X0311175Y0422923D01*
X0311396Y0416673D02*
X0312021Y0416048D01*
X0322425Y0416048D01*
X0325550Y0412923D01*
X0325600Y0412873D01*
X0325600Y0406723D01*
X0323100Y0406723D02*
X0323100Y0401098D01*
X0323050Y0397923D01*
X0323862Y0397111D01*
X0334300Y0397111D01*
X0336175Y0412864D02*
X0330550Y0412864D01*
X0330491Y0412923D01*
X0325550Y0412923D01*
X0330550Y0417982D02*
X0336175Y0417982D01*
X0336175Y0412864D02*
X0340491Y0412864D01*
X0341800Y0412923D01*
X0330550Y0417982D02*
X0329984Y0418548D01*
X0330550Y0418548D01*
X0330550Y0424173D01*
X0329984Y0418548D02*
X0319300Y0418548D01*
X0318000Y0419848D01*
X0318000Y0424123D01*
X0311396Y0406673D02*
X0311800Y0404798D01*
X0312425Y0405423D01*
X0294300Y0403145D02*
X0285146Y0403145D01*
X0284925Y0402923D01*
X0264925Y0402923D02*
X0264704Y0403145D01*
X0256175Y0403145D01*
X0256175Y0416452D01*
X0256175Y0423145D02*
X0264704Y0423145D01*
X0264925Y0422923D01*
X0263675Y0446612D02*
X0267375Y0446612D01*
X0267800Y0447037D01*
X0269925Y0447037D01*
X0271175Y0448287D01*
X0274704Y0448287D01*
X0274925Y0448066D01*
X0274925Y0454759D02*
X0274521Y0455162D01*
X0271175Y0455162D01*
X0269925Y0456412D01*
X0267575Y0456412D01*
X0267375Y0456212D01*
X0279925Y0461412D02*
X0286116Y0461412D01*
X0286175Y0461472D01*
X0286175Y0456353D02*
X0286175Y0448115D01*
X0286175Y0442210D02*
X0286003Y0442037D01*
X0279925Y0442037D01*
X0250550Y0396452D02*
X0233454Y0396452D01*
X0232425Y0395423D01*
X0232425Y0391417D01*
X0232431Y0391411D01*
X0234300Y0391380D02*
X0234300Y0387923D01*
X0233675Y0387298D01*
X0229300Y0387298D01*
X0228050Y0388548D01*
X0228050Y0391673D01*
X0222425Y0390423D02*
X0221175Y0389173D01*
X0211859Y0389173D01*
X0211800Y0389232D01*
X0217425Y0389232D01*
X0217425Y0384114D02*
X0211800Y0384114D01*
X0206859Y0384114D01*
X0204675Y0379173D02*
X0224925Y0379173D01*
X0231800Y0385423D01*
X0234925Y0385423D01*
X0236331Y0386830D01*
X0236331Y0391411D01*
X0234331Y0391411D02*
X0234300Y0391380D01*
X0238331Y0391411D02*
X0238331Y0385705D01*
X0236175Y0383548D01*
X0232425Y0383548D01*
X0225550Y0376673D01*
X0222425Y0376673D01*
X0214925Y0369173D01*
X0204675Y0369173D01*
X0204675Y0374173D02*
X0212425Y0374173D01*
X0217425Y0384114D02*
X0223616Y0384114D01*
X0223675Y0384173D01*
X0213050Y0398558D02*
X0210540Y0397923D01*
X0206800Y0397923D01*
X0204734Y0389232D02*
X0211800Y0389232D01*
X0204734Y0389232D02*
X0204675Y0389173D01*
X0213050Y0404788D02*
X0213050Y0406038D01*
X0213050Y0412923D01*
X0213050Y0414798D01*
X0214925Y0414798D01*
X0216800Y0416673D01*
X0217425Y0419183D01*
X0213050Y0414552D02*
X0210304Y0417298D01*
X0208296Y0417298D02*
X0207425Y0417298D01*
X0201800Y0422923D01*
X0199300Y0425423D02*
X0204925Y0425423D01*
X0207484Y0422864D01*
X0209300Y0422864D01*
X0208109Y0422864D01*
X0209241Y0427923D02*
X0201800Y0427923D01*
X0199300Y0425423D02*
X0196800Y0422923D01*
X0209241Y0427923D02*
X0209300Y0427982D01*
X0209369Y0427913D01*
X0209379Y0427923D01*
X0215550Y0427923D01*
X0216810Y0426663D01*
X0217425Y0426663D01*
X0223040Y0426663D01*
X0224300Y0427923D01*
X0217425Y0426663D02*
X0216810Y0427923D01*
X0211800Y0440787D02*
X0207425Y0440787D01*
X0213050Y0414552D02*
X0213050Y0412923D01*
X0240231Y0391411D02*
X0240231Y0382617D01*
X0240550Y0382298D01*
X0236800Y0377923D02*
X0246175Y0377923D01*
X0246800Y0377298D01*
X0246800Y0374232D01*
X0243050Y0370992D02*
X0243050Y0361048D01*
X0244100Y0359998D01*
X0259975Y0359998D01*
X0263675Y0359998D02*
X0263675Y0362298D01*
X0261859Y0364114D01*
X0254300Y0364114D01*
X0253734Y0363548D01*
X0246800Y0363548D01*
X0246800Y0369114D01*
X0243050Y0370992D02*
X0240231Y0373811D01*
X0238331Y0373811D02*
X0238331Y0367701D01*
X0238734Y0367298D01*
X0238734Y0361673D01*
X0238734Y0356614D01*
X0239300Y0356048D01*
X0233675Y0356048D02*
X0233616Y0356107D01*
X0233616Y0361673D01*
X0233616Y0367298D01*
X0232932Y0366614D01*
X0226175Y0366614D01*
X0226175Y0360423D01*
X0233616Y0367298D02*
X0234331Y0368014D01*
X0234331Y0373811D01*
X0232431Y0373811D02*
X0232431Y0372305D01*
X0232425Y0372298D01*
X0226741Y0372298D01*
X0226175Y0371732D01*
X0226175Y0372298D01*
X0236331Y0373811D02*
X0236331Y0377455D01*
X0236800Y0377923D01*
X0211800Y0354173D02*
X0207425Y0354173D01*
X0209300Y0341368D02*
X0209369Y0341299D01*
X0209379Y0341309D01*
X0215550Y0341309D01*
X0216810Y0340049D01*
X0217425Y0340049D01*
X0223040Y0340049D01*
X0224300Y0341309D01*
X0217425Y0340049D02*
X0216810Y0341309D01*
X0209300Y0341368D02*
X0209241Y0341309D01*
X0201800Y0341309D01*
X0199300Y0338809D02*
X0204925Y0338809D01*
X0207484Y0336250D01*
X0209300Y0336250D01*
X0208109Y0336250D01*
X0208296Y0330684D02*
X0207425Y0330684D01*
X0201800Y0336309D01*
X0199300Y0338809D02*
X0196800Y0336309D01*
X0210304Y0330684D02*
X0213050Y0327938D01*
X0213050Y0326309D01*
X0213050Y0328184D01*
X0214925Y0328184D01*
X0216800Y0330059D01*
X0217425Y0332569D01*
X0213050Y0326309D02*
X0213050Y0319424D01*
X0213050Y0318174D01*
X0213050Y0311944D02*
X0210540Y0311309D01*
X0206800Y0311309D01*
X0204734Y0302618D02*
X0211800Y0302618D01*
X0211859Y0302559D01*
X0221175Y0302559D01*
X0222425Y0303809D01*
X0217425Y0302618D02*
X0211800Y0302618D01*
X0211800Y0297500D02*
X0206859Y0297500D01*
X0211800Y0297500D02*
X0217425Y0297500D01*
X0223616Y0297500D01*
X0223675Y0297559D01*
X0224925Y0292559D02*
X0231800Y0298809D01*
X0234925Y0298809D01*
X0236331Y0300215D01*
X0236331Y0304797D01*
X0234331Y0304797D02*
X0234300Y0304765D01*
X0234300Y0301309D01*
X0233675Y0300684D01*
X0229300Y0300684D01*
X0228050Y0301934D01*
X0228050Y0305059D01*
X0232425Y0304803D02*
X0232425Y0308809D01*
X0233454Y0309838D01*
X0250550Y0309838D01*
X0250550Y0332559D01*
X0243050Y0338809D01*
X0256175Y0336531D02*
X0264704Y0336531D01*
X0264925Y0336309D01*
X0256175Y0329838D02*
X0256175Y0316531D01*
X0264704Y0316531D01*
X0264925Y0316309D01*
X0256175Y0309838D02*
X0250550Y0309838D01*
X0256175Y0309838D02*
X0294300Y0309838D01*
X0294300Y0316531D02*
X0294300Y0329838D01*
X0294300Y0336531D02*
X0285146Y0336531D01*
X0284925Y0336309D01*
X0277425Y0341934D02*
X0274925Y0339434D01*
X0274925Y0336309D01*
X0277425Y0341934D02*
X0298050Y0341934D01*
X0299925Y0340059D01*
X0299925Y0315684D01*
X0301175Y0314434D01*
X0309925Y0314434D01*
X0311175Y0315684D01*
X0311175Y0319838D01*
X0311396Y0320059D01*
X0311446Y0320109D01*
X0318000Y0320109D01*
X0320500Y0320109D02*
X0320500Y0323859D01*
X0319300Y0325059D01*
X0304704Y0325059D01*
X0304704Y0320059D01*
X0304704Y0325059D02*
X0304704Y0330059D01*
X0311175Y0330059D02*
X0311175Y0336309D01*
X0311396Y0330059D02*
X0312021Y0329434D01*
X0322425Y0329434D01*
X0325550Y0326309D01*
X0325600Y0326259D01*
X0325600Y0320109D01*
X0323100Y0320109D02*
X0323100Y0314484D01*
X0323050Y0311309D01*
X0323862Y0310497D01*
X0334300Y0310497D01*
X0336175Y0326250D02*
X0330550Y0326250D01*
X0330491Y0326309D01*
X0325550Y0326309D01*
X0330550Y0331368D02*
X0329984Y0331934D01*
X0330550Y0331934D01*
X0330550Y0337559D01*
X0329984Y0331934D02*
X0319300Y0331934D01*
X0318000Y0333234D01*
X0318000Y0337509D01*
X0330550Y0331368D02*
X0336175Y0331368D01*
X0336175Y0326250D02*
X0340491Y0326250D01*
X0341800Y0326309D01*
X0312425Y0318809D02*
X0311800Y0318184D01*
X0311396Y0320059D01*
X0294300Y0316531D02*
X0285146Y0316531D01*
X0284925Y0316309D01*
X0286175Y0288243D02*
X0286116Y0288184D01*
X0279925Y0288184D01*
X0286175Y0283125D02*
X0286175Y0274887D01*
X0286175Y0268981D02*
X0286003Y0268809D01*
X0279925Y0268809D01*
X0274925Y0274838D02*
X0274704Y0275059D01*
X0271175Y0275059D01*
X0269925Y0273809D01*
X0267800Y0273809D01*
X0267375Y0273384D01*
X0263675Y0273384D01*
X0263675Y0275684D01*
X0261859Y0277500D01*
X0254300Y0277500D01*
X0253734Y0276934D01*
X0246800Y0276934D01*
X0246800Y0282500D01*
X0243050Y0284378D02*
X0243050Y0274434D01*
X0244100Y0273384D01*
X0259975Y0273384D01*
X0267375Y0282984D02*
X0267575Y0283184D01*
X0269925Y0283184D01*
X0271175Y0281934D01*
X0274521Y0281934D01*
X0274925Y0281531D01*
X0277425Y0255320D02*
X0274925Y0252820D01*
X0274925Y0249695D01*
X0277425Y0255320D02*
X0298050Y0255320D01*
X0299925Y0253445D01*
X0299925Y0229070D01*
X0301175Y0227820D01*
X0309925Y0227820D01*
X0311175Y0229070D01*
X0311175Y0233223D01*
X0311396Y0233445D01*
X0311446Y0233495D01*
X0318000Y0233495D01*
X0320500Y0233495D02*
X0320500Y0237245D01*
X0319300Y0238445D01*
X0304704Y0238445D01*
X0304704Y0233445D01*
X0304704Y0238445D02*
X0304704Y0243445D01*
X0311175Y0243445D02*
X0311175Y0249695D01*
X0311396Y0243445D02*
X0312021Y0242820D01*
X0322425Y0242820D01*
X0325550Y0239695D01*
X0325600Y0239645D01*
X0325600Y0233495D01*
X0323100Y0233495D02*
X0323100Y0227870D01*
X0323050Y0224695D01*
X0323862Y0223883D01*
X0334300Y0223883D01*
X0336175Y0239636D02*
X0330550Y0239636D01*
X0330491Y0239695D01*
X0325550Y0239695D01*
X0330550Y0244754D02*
X0336175Y0244754D01*
X0336175Y0239636D02*
X0340491Y0239636D01*
X0341800Y0239695D01*
X0330550Y0244754D02*
X0329984Y0245320D01*
X0330550Y0245320D01*
X0330550Y0250945D01*
X0329984Y0245320D02*
X0319300Y0245320D01*
X0318000Y0246620D01*
X0318000Y0250895D01*
X0311396Y0233445D02*
X0311800Y0231570D01*
X0312425Y0232195D01*
X0294300Y0229916D02*
X0294300Y0243223D01*
X0294300Y0249916D02*
X0285146Y0249916D01*
X0284925Y0249695D01*
X0285146Y0229916D02*
X0284925Y0229695D01*
X0285146Y0229916D02*
X0294300Y0229916D01*
X0294300Y0223223D02*
X0256175Y0223223D01*
X0250550Y0223223D01*
X0250550Y0245945D01*
X0243050Y0252195D01*
X0256175Y0249916D02*
X0264704Y0249916D01*
X0264925Y0249695D01*
X0256175Y0243223D02*
X0256175Y0229916D01*
X0264704Y0229916D01*
X0264925Y0229695D01*
X0250550Y0223223D02*
X0233454Y0223223D01*
X0232425Y0222195D01*
X0232425Y0218189D01*
X0232431Y0218182D01*
X0234300Y0218151D02*
X0234300Y0214695D01*
X0233675Y0214070D01*
X0229300Y0214070D01*
X0228050Y0215320D01*
X0228050Y0218445D01*
X0222425Y0217195D02*
X0221175Y0215945D01*
X0211859Y0215945D01*
X0211800Y0216004D01*
X0217425Y0216004D01*
X0217425Y0210886D02*
X0211800Y0210886D01*
X0206859Y0210886D01*
X0204675Y0205945D02*
X0224925Y0205945D01*
X0231800Y0212195D01*
X0234925Y0212195D01*
X0236331Y0213601D01*
X0236331Y0218182D01*
X0234331Y0218182D02*
X0234300Y0218151D01*
X0238331Y0218182D02*
X0238331Y0212476D01*
X0236175Y0210320D01*
X0232425Y0210320D01*
X0225550Y0203445D01*
X0222425Y0203445D01*
X0214925Y0195945D01*
X0204675Y0195945D01*
X0204675Y0200945D02*
X0212425Y0200945D01*
X0217425Y0210886D02*
X0223616Y0210886D01*
X0223675Y0210945D01*
X0213050Y0225330D02*
X0210540Y0224695D01*
X0206800Y0224695D01*
X0204734Y0216004D02*
X0211800Y0216004D01*
X0204734Y0216004D02*
X0204675Y0215945D01*
X0213050Y0231560D02*
X0213050Y0232810D01*
X0213050Y0239695D01*
X0213050Y0241570D01*
X0214925Y0241570D01*
X0216800Y0243445D01*
X0217425Y0245955D01*
X0213050Y0241324D02*
X0210304Y0244070D01*
X0208296Y0244070D02*
X0207425Y0244070D01*
X0201800Y0249695D01*
X0199300Y0252195D02*
X0204925Y0252195D01*
X0207484Y0249636D01*
X0209300Y0249636D01*
X0208109Y0249636D01*
X0209241Y0254695D02*
X0201800Y0254695D01*
X0199300Y0252195D02*
X0196800Y0249695D01*
X0209241Y0254695D02*
X0209300Y0254754D01*
X0209369Y0254685D01*
X0209379Y0254695D01*
X0215550Y0254695D01*
X0216810Y0253435D01*
X0217425Y0253435D01*
X0223040Y0253435D01*
X0224300Y0254695D01*
X0217425Y0253435D02*
X0216810Y0254695D01*
X0211800Y0267559D02*
X0207425Y0267559D01*
X0204675Y0282559D02*
X0214925Y0282559D01*
X0222425Y0290059D01*
X0225550Y0290059D01*
X0232425Y0296934D01*
X0236175Y0296934D01*
X0238331Y0299090D01*
X0238331Y0304797D01*
X0240231Y0304797D02*
X0240231Y0296003D01*
X0240550Y0295684D01*
X0236800Y0291309D02*
X0246175Y0291309D01*
X0246800Y0290684D01*
X0246800Y0287618D01*
X0243050Y0284378D02*
X0240231Y0287197D01*
X0238331Y0287197D02*
X0238331Y0281087D01*
X0238734Y0280684D01*
X0238734Y0275059D01*
X0238734Y0270000D01*
X0239300Y0269434D01*
X0233675Y0269434D02*
X0233616Y0269493D01*
X0233616Y0275059D01*
X0233616Y0280684D01*
X0232932Y0280000D01*
X0226175Y0280000D01*
X0226175Y0273809D01*
X0233616Y0280684D02*
X0234331Y0281399D01*
X0234331Y0287197D01*
X0232431Y0287197D02*
X0232431Y0285690D01*
X0232425Y0285684D01*
X0226741Y0285684D01*
X0226175Y0285118D01*
X0226175Y0285684D01*
X0224925Y0292559D02*
X0204675Y0292559D01*
X0204675Y0287559D02*
X0212425Y0287559D01*
X0204675Y0302559D02*
X0204734Y0302618D01*
X0176175Y0305684D02*
X0175550Y0305684D01*
X0162425Y0326934D02*
X0166800Y0331309D01*
X0176800Y0331309D01*
X0171800Y0336309D02*
X0163675Y0336309D01*
X0162425Y0335059D01*
X0162425Y0331934D01*
X0176800Y0339434D02*
X0179300Y0341309D01*
X0181800Y0341309D01*
X0167675Y0379173D02*
X0149925Y0379173D01*
X0148675Y0377923D01*
X0148675Y0384173D02*
X0154866Y0384173D01*
X0154925Y0384114D01*
X0154984Y0384173D01*
X0167675Y0384173D01*
X0167675Y0389173D02*
X0160609Y0389173D01*
X0160550Y0389232D01*
X0154925Y0389232D01*
X0154866Y0389173D01*
X0109925Y0389173D01*
X0100097Y0393179D02*
X0056618Y0393179D01*
X0055215Y0394582D01*
X0055215Y0417023D01*
X0056150Y0417023D01*
X0057575Y0419563D02*
X0070175Y0419563D01*
X0070175Y0424413D01*
X0069925Y0424663D01*
X0067575Y0424663D01*
X0066175Y0426063D01*
X0066175Y0429763D01*
X0057575Y0429763D01*
X0057085Y0427308D02*
X0051008Y0427308D01*
X0047268Y0422165D02*
X0056618Y0422165D01*
X0057575Y0424663D02*
X0067575Y0424663D01*
X0069925Y0424663D02*
X0079775Y0424663D01*
X0079994Y0422165D02*
X0084202Y0422165D01*
X0084202Y0414218D01*
X0081864Y0411880D01*
X0081396Y0417023D02*
X0074851Y0417023D01*
X0072514Y0414685D01*
X0072514Y0414218D01*
X0070175Y0419563D02*
X0079775Y0419563D01*
X0084669Y0424971D02*
X0087474Y0422165D01*
X0087474Y0409542D01*
X0083267Y0405335D01*
X0087007Y0401595D02*
X0087007Y0400660D01*
X0087007Y0401595D02*
X0092149Y0406737D01*
X0092149Y0422633D01*
X0085137Y0430581D01*
X0085137Y0432451D01*
X0079994Y0432451D01*
X0079775Y0434863D02*
X0075600Y0434863D01*
X0074300Y0433563D01*
X0074300Y0429763D01*
X0079775Y0429763D01*
X0069975Y0429763D01*
X0069925Y0429813D01*
X0067838Y0432451D02*
X0068773Y0433386D01*
X0068773Y0433853D01*
X0067838Y0432451D02*
X0057663Y0432451D01*
X0057575Y0432363D01*
X0057575Y0434863D02*
X0064566Y0434863D01*
X0066903Y0438061D01*
X0071111Y0438061D01*
X0072981Y0434788D01*
X0079775Y0434863D01*
X0079775Y0437463D02*
X0075319Y0437594D01*
X0073449Y0440399D01*
X0064566Y0440399D01*
X0062228Y0437463D01*
X0050700Y0437463D01*
X0048050Y0437313D01*
X0054925Y0445438D02*
X0054925Y0734380D01*
X0059300Y0738755D01*
X0075900Y0738755D01*
X0076800Y0739655D01*
X0066800Y0755855D02*
X0067200Y0756255D01*
X0066800Y0777455D02*
X0066750Y0777505D01*
X0094300Y0730630D02*
X0128675Y0730630D01*
X0138675Y0720630D01*
X0167675Y0720630D01*
X0167675Y0715630D02*
X0138675Y0715630D01*
X0128675Y0725630D01*
X0090550Y0725630D01*
X0109925Y0735630D02*
X0154866Y0735630D01*
X0154925Y0735689D01*
X0160550Y0735689D01*
X0160609Y0735630D01*
X0167675Y0735630D01*
X0167675Y0730630D02*
X0154984Y0730630D01*
X0154925Y0730571D01*
X0160550Y0730571D01*
X0154925Y0730571D02*
X0154866Y0730630D01*
X0148675Y0730630D01*
X0149925Y0725630D02*
X0148675Y0724380D01*
X0149925Y0725630D02*
X0167675Y0725630D01*
X0175550Y0738755D02*
X0171800Y0742505D01*
X0171800Y0744380D01*
X0172046Y0744134D01*
X0171800Y0749380D02*
X0166800Y0744380D01*
X0165550Y0745630D01*
X0160550Y0745630D01*
X0159925Y0753130D02*
X0161175Y0754380D01*
X0166800Y0754380D01*
X0162425Y0760005D02*
X0134300Y0760005D01*
X0132105Y0757810D01*
X0132105Y0754321D01*
X0137105Y0757185D01*
X0132105Y0754321D02*
X0113995Y0754321D01*
X0114300Y0709759D02*
X0114300Y0701255D01*
X0113995Y0709439D02*
X0114300Y0709759D01*
X0132105Y0709439D02*
X0132425Y0708494D01*
X0132425Y0701255D01*
X0175550Y0738755D02*
X0176175Y0738755D01*
X0162425Y0760005D02*
X0166800Y0764380D01*
X0176800Y0764380D01*
X0171800Y0769380D02*
X0163675Y0769380D01*
X0162425Y0768130D01*
X0162425Y0765005D01*
X0176800Y0772505D02*
X0179300Y0774380D01*
X0181800Y0774380D01*
X0196800Y0769380D02*
X0199300Y0771880D01*
X0204925Y0771880D01*
X0207484Y0769321D01*
X0209300Y0769321D01*
X0208109Y0769321D01*
X0209241Y0774380D02*
X0201800Y0774380D01*
X0201800Y0769380D02*
X0207425Y0763755D01*
X0208296Y0763755D01*
X0210304Y0763755D02*
X0213050Y0761009D01*
X0213050Y0759380D01*
X0213050Y0761255D01*
X0214925Y0761255D01*
X0216800Y0763130D01*
X0217425Y0765640D01*
X0217425Y0773120D02*
X0216810Y0773120D01*
X0215550Y0774380D01*
X0209379Y0774380D01*
X0209369Y0774370D01*
X0209300Y0774439D01*
X0209241Y0774380D01*
X0216810Y0774380D02*
X0217425Y0773120D01*
X0223040Y0773120D01*
X0224300Y0774380D01*
X0213050Y0759380D02*
X0213050Y0752495D01*
X0213050Y0751245D01*
X0213050Y0745015D02*
X0210540Y0744380D01*
X0206800Y0744380D01*
X0204734Y0735689D02*
X0211800Y0735689D01*
X0211859Y0735630D01*
X0221175Y0735630D01*
X0222425Y0736880D01*
X0217425Y0735689D02*
X0211800Y0735689D01*
X0211800Y0730571D02*
X0206859Y0730571D01*
X0211800Y0730571D02*
X0217425Y0730571D01*
X0223616Y0730571D01*
X0223675Y0730630D01*
X0224925Y0725630D02*
X0231800Y0731880D01*
X0234925Y0731880D01*
X0236331Y0733286D01*
X0236331Y0737867D01*
X0234331Y0737867D02*
X0234300Y0737836D01*
X0234300Y0734380D01*
X0233675Y0733755D01*
X0229300Y0733755D01*
X0228050Y0735005D01*
X0228050Y0738130D01*
X0232425Y0737874D02*
X0232425Y0741880D01*
X0233454Y0742909D01*
X0250550Y0742909D01*
X0250550Y0765630D01*
X0243050Y0771880D01*
X0256175Y0769601D02*
X0264704Y0769601D01*
X0264925Y0769380D01*
X0256175Y0762909D02*
X0256175Y0749601D01*
X0264704Y0749601D01*
X0264925Y0749380D01*
X0256175Y0742909D02*
X0250550Y0742909D01*
X0256175Y0742909D02*
X0294300Y0742909D01*
X0294300Y0749601D02*
X0294300Y0762909D01*
X0294300Y0769601D02*
X0285146Y0769601D01*
X0284925Y0769380D01*
X0277425Y0775005D02*
X0274925Y0772505D01*
X0274925Y0769380D01*
X0277425Y0775005D02*
X0298050Y0775005D01*
X0299925Y0773130D01*
X0299925Y0748755D01*
X0301175Y0747505D01*
X0309925Y0747505D01*
X0311175Y0748755D01*
X0311175Y0752909D01*
X0311396Y0753130D01*
X0311446Y0753180D01*
X0318000Y0753180D01*
X0320500Y0753180D02*
X0320500Y0756930D01*
X0319300Y0758130D01*
X0304704Y0758130D01*
X0304704Y0753130D01*
X0304704Y0758130D02*
X0304704Y0763130D01*
X0311175Y0763130D02*
X0311175Y0769380D01*
X0311396Y0763130D02*
X0312021Y0762505D01*
X0322425Y0762505D01*
X0325550Y0759380D01*
X0325600Y0759330D01*
X0325600Y0753180D01*
X0323100Y0753180D02*
X0323100Y0747555D01*
X0323050Y0744380D01*
X0323862Y0743568D01*
X0334300Y0743568D01*
X0336175Y0759321D02*
X0330550Y0759321D01*
X0330491Y0759380D01*
X0325550Y0759380D01*
X0330550Y0764439D02*
X0336175Y0764439D01*
X0336175Y0759321D02*
X0340491Y0759321D01*
X0341800Y0759380D01*
X0330550Y0764439D02*
X0329984Y0765005D01*
X0330550Y0765005D01*
X0330550Y0770630D01*
X0329984Y0765005D02*
X0319300Y0765005D01*
X0318000Y0766305D01*
X0318000Y0770580D01*
X0311396Y0753130D02*
X0311800Y0751255D01*
X0312425Y0751880D01*
X0294300Y0749601D02*
X0285146Y0749601D01*
X0284925Y0749380D01*
X0286175Y0721314D02*
X0286116Y0721255D01*
X0279925Y0721255D01*
X0286175Y0716196D02*
X0286175Y0707958D01*
X0286175Y0702052D02*
X0286003Y0701880D01*
X0279925Y0701880D01*
X0274925Y0707909D02*
X0274704Y0708130D01*
X0271175Y0708130D01*
X0269925Y0706880D01*
X0267800Y0706880D01*
X0267375Y0706455D01*
X0263675Y0706455D01*
X0263675Y0708755D01*
X0261859Y0710571D01*
X0254300Y0710571D01*
X0253734Y0710005D01*
X0246800Y0710005D01*
X0246800Y0715571D01*
X0243050Y0717449D02*
X0243050Y0707505D01*
X0244100Y0706455D01*
X0259975Y0706455D01*
X0267375Y0716055D02*
X0267575Y0716255D01*
X0269925Y0716255D01*
X0271175Y0715005D01*
X0274521Y0715005D01*
X0274925Y0714601D01*
X0246800Y0720689D02*
X0246800Y0723755D01*
X0246175Y0724380D01*
X0236800Y0724380D01*
X0236331Y0723911D01*
X0236331Y0720267D01*
X0234331Y0720267D02*
X0234331Y0714470D01*
X0233616Y0713755D01*
X0232932Y0713071D01*
X0226175Y0713071D01*
X0226175Y0706880D01*
X0233616Y0708130D02*
X0233616Y0702564D01*
X0233675Y0702505D01*
X0238734Y0703071D02*
X0238734Y0708130D01*
X0238734Y0713755D01*
X0238331Y0714158D01*
X0238331Y0720267D01*
X0240231Y0720267D02*
X0243050Y0717449D01*
X0240550Y0728755D02*
X0240231Y0729074D01*
X0240231Y0737867D01*
X0238331Y0737867D02*
X0238331Y0732161D01*
X0236175Y0730005D01*
X0232425Y0730005D01*
X0225550Y0723130D01*
X0222425Y0723130D01*
X0214925Y0715630D01*
X0204675Y0715630D01*
X0204675Y0720630D02*
X0212425Y0720630D01*
X0204675Y0725630D02*
X0224925Y0725630D01*
X0226175Y0718755D02*
X0226175Y0718189D01*
X0226741Y0718755D01*
X0232425Y0718755D01*
X0232431Y0718761D01*
X0232431Y0720267D01*
X0233616Y0713755D02*
X0233616Y0708130D01*
X0238734Y0703071D02*
X0239300Y0702505D01*
X0224300Y0687766D02*
X0223040Y0686506D01*
X0217425Y0686506D01*
X0216810Y0686506D01*
X0215550Y0687766D01*
X0209379Y0687766D01*
X0209369Y0687756D01*
X0209300Y0687825D01*
X0209241Y0687766D01*
X0201800Y0687766D01*
X0199300Y0685266D02*
X0204925Y0685266D01*
X0207484Y0682707D01*
X0209300Y0682707D01*
X0208109Y0682707D01*
X0208296Y0677141D02*
X0207425Y0677141D01*
X0201800Y0682766D01*
X0199300Y0685266D02*
X0196800Y0682766D01*
X0210304Y0677141D02*
X0213050Y0674395D01*
X0213050Y0672766D01*
X0213050Y0674641D01*
X0214925Y0674641D01*
X0216800Y0676516D01*
X0217425Y0679026D01*
X0217425Y0686506D02*
X0216810Y0687766D01*
X0213050Y0672766D02*
X0213050Y0665881D01*
X0213050Y0664631D01*
X0213050Y0658401D02*
X0210540Y0657766D01*
X0206800Y0657766D01*
X0204675Y0639016D02*
X0224925Y0639016D01*
X0225550Y0636516D02*
X0222425Y0636516D01*
X0214925Y0629016D01*
X0204675Y0629016D01*
X0204675Y0634016D02*
X0212425Y0634016D01*
X0211800Y0614016D02*
X0207425Y0614016D01*
X0209300Y0601211D02*
X0209369Y0601142D01*
X0209379Y0601152D01*
X0215550Y0601152D01*
X0216810Y0599892D01*
X0217425Y0599892D01*
X0223040Y0599892D01*
X0224300Y0601152D01*
X0217425Y0599892D02*
X0216810Y0601152D01*
X0209300Y0601211D02*
X0209241Y0601152D01*
X0201800Y0601152D01*
X0199300Y0598652D02*
X0204925Y0598652D01*
X0207484Y0596093D01*
X0209300Y0596093D01*
X0208109Y0596093D01*
X0208296Y0590527D02*
X0207425Y0590527D01*
X0201800Y0596152D01*
X0199300Y0598652D02*
X0196800Y0596152D01*
X0210304Y0590527D02*
X0213050Y0587781D01*
X0213050Y0586152D01*
X0213050Y0588027D01*
X0214925Y0588027D01*
X0216800Y0589902D01*
X0217425Y0592411D01*
X0213050Y0586152D02*
X0213050Y0579267D01*
X0213050Y0578017D01*
X0213050Y0571786D02*
X0210540Y0571152D01*
X0206800Y0571152D01*
X0204734Y0562461D02*
X0211800Y0562461D01*
X0204734Y0562461D02*
X0204675Y0562402D01*
X0176175Y0565527D02*
X0175550Y0565527D01*
X0171800Y0569277D01*
X0171800Y0571152D01*
X0172046Y0570906D01*
X0171800Y0576152D02*
X0166800Y0571152D01*
X0165550Y0572402D01*
X0160550Y0572402D01*
X0159925Y0579902D02*
X0161175Y0581152D01*
X0166800Y0581152D01*
X0162425Y0586777D02*
X0134300Y0586777D01*
X0132105Y0584582D01*
X0132105Y0581093D01*
X0137105Y0583957D01*
X0132105Y0581093D02*
X0113995Y0581093D01*
X0109448Y0562421D02*
X0154886Y0562421D01*
X0154925Y0562461D01*
X0160550Y0562461D01*
X0160609Y0562402D01*
X0167675Y0562402D01*
X0167675Y0557402D02*
X0154984Y0557402D01*
X0154925Y0557343D01*
X0160550Y0557343D01*
X0154925Y0557343D02*
X0154866Y0557402D01*
X0148675Y0557402D01*
X0149925Y0552402D02*
X0148675Y0551152D01*
X0149925Y0552402D02*
X0167675Y0552402D01*
X0167675Y0547402D02*
X0138675Y0547402D01*
X0128675Y0557402D01*
X0094300Y0557402D01*
X0094300Y0557505D01*
X0090550Y0552505D02*
X0090550Y0552402D01*
X0128675Y0552402D01*
X0138675Y0542402D01*
X0167675Y0542402D01*
X0179300Y0514537D02*
X0181800Y0514537D01*
X0179300Y0514537D02*
X0176800Y0512662D01*
X0196800Y0509537D02*
X0199300Y0512037D01*
X0204925Y0512037D01*
X0207484Y0509478D01*
X0209300Y0509478D01*
X0208109Y0509478D01*
X0209241Y0514537D02*
X0201800Y0514537D01*
X0201800Y0509537D02*
X0207425Y0503912D01*
X0208296Y0503912D01*
X0210304Y0503912D02*
X0213050Y0501166D01*
X0213050Y0499537D01*
X0213050Y0501412D01*
X0214925Y0501412D01*
X0216800Y0503287D01*
X0217425Y0505797D01*
X0217425Y0513278D02*
X0216810Y0513278D01*
X0215550Y0514537D01*
X0209379Y0514537D01*
X0209369Y0514528D01*
X0209300Y0514597D01*
X0209241Y0514537D01*
X0216810Y0514537D02*
X0217425Y0513278D01*
X0223040Y0513278D01*
X0224300Y0514537D01*
X0213050Y0499537D02*
X0213050Y0492653D01*
X0213050Y0491403D01*
X0213050Y0485172D02*
X0210540Y0484537D01*
X0206800Y0484537D01*
X0204734Y0475847D02*
X0211800Y0475847D01*
X0204734Y0475847D02*
X0204675Y0475787D01*
X0181800Y0427923D02*
X0179300Y0427923D01*
X0176800Y0426048D01*
X0171800Y0422923D02*
X0163675Y0422923D01*
X0162425Y0421673D01*
X0162425Y0418548D01*
X0166800Y0417923D02*
X0162425Y0413548D01*
X0134300Y0413548D01*
X0132105Y0411353D01*
X0132105Y0407864D01*
X0137105Y0410728D01*
X0132105Y0407864D02*
X0113995Y0407864D01*
X0114300Y0441412D02*
X0114300Y0449916D01*
X0113995Y0449597D01*
X0087474Y0459099D02*
X0087474Y0438529D01*
X0086539Y0437126D01*
X0084669Y0427308D02*
X0084669Y0424971D01*
X0084669Y0427308D02*
X0080461Y0427308D01*
X0074300Y0429763D02*
X0066175Y0429763D01*
X0087474Y0459099D02*
X0082331Y0462840D01*
X0082331Y0673223D01*
X0114300Y0623145D02*
X0114300Y0614641D01*
X0113995Y0622825D02*
X0114300Y0623145D01*
X0132105Y0622825D02*
X0132425Y0621880D01*
X0132425Y0614641D01*
X0144979Y0607771D02*
X0086072Y0607771D01*
X0114300Y0536531D02*
X0114300Y0528027D01*
X0113995Y0536211D02*
X0114300Y0536531D01*
X0132105Y0536211D02*
X0132425Y0535266D01*
X0132425Y0528027D01*
X0162425Y0586777D02*
X0166800Y0591152D01*
X0176800Y0591152D01*
X0171800Y0596152D02*
X0163675Y0596152D01*
X0162425Y0594902D01*
X0162425Y0591777D01*
X0176800Y0599277D02*
X0179300Y0601152D01*
X0181800Y0601152D01*
X0226175Y0620266D02*
X0226175Y0626457D01*
X0232932Y0626457D01*
X0233616Y0627141D01*
X0233616Y0621516D01*
X0233616Y0615950D01*
X0233675Y0615891D01*
X0238734Y0616457D02*
X0238734Y0621516D01*
X0238734Y0627141D01*
X0238331Y0627544D01*
X0238331Y0633653D01*
X0240231Y0633653D02*
X0243050Y0630835D01*
X0246800Y0634075D02*
X0246800Y0637141D01*
X0246175Y0637766D01*
X0236800Y0637766D01*
X0236331Y0637297D01*
X0236331Y0633653D01*
X0234331Y0633653D02*
X0234331Y0627856D01*
X0233616Y0627141D01*
X0232425Y0632141D02*
X0226741Y0632141D01*
X0226175Y0631575D01*
X0226175Y0632141D01*
X0225550Y0636516D02*
X0232425Y0643391D01*
X0236175Y0643391D01*
X0238331Y0645547D01*
X0238331Y0651253D01*
X0240231Y0651253D02*
X0240231Y0642460D01*
X0240550Y0642141D01*
X0232431Y0633653D02*
X0232431Y0632147D01*
X0232425Y0632141D01*
X0238734Y0616457D02*
X0239300Y0615891D01*
X0232431Y0651253D02*
X0232425Y0651260D01*
X0211800Y0700630D02*
X0207425Y0700630D01*
X0204675Y0735630D02*
X0204734Y0735689D01*
X0232425Y0737874D02*
X0232431Y0737867D01*
X0240231Y0564639D02*
X0240231Y0555845D01*
X0240550Y0555527D01*
X0211800Y0527402D02*
X0207425Y0527402D01*
X0240231Y0478025D02*
X0240231Y0469231D01*
X0240550Y0468912D01*
X0176800Y0417923D02*
X0166800Y0417923D01*
X0166800Y0407923D02*
X0161175Y0407923D01*
X0159925Y0406673D01*
X0160550Y0399173D02*
X0165550Y0399173D01*
X0166800Y0397923D01*
X0171800Y0402923D01*
X0171800Y0397923D02*
X0171800Y0396048D01*
X0175550Y0392298D01*
X0176175Y0392298D01*
X0172046Y0397677D02*
X0171800Y0397923D01*
X0160550Y0384114D02*
X0154925Y0384114D01*
X0232425Y0304803D02*
X0232431Y0304797D01*
X0236800Y0291309D02*
X0236331Y0290840D01*
X0236331Y0287197D01*
X0213050Y0241324D02*
X0213050Y0239695D01*
X0240231Y0218182D02*
X0240231Y0209389D01*
X0240550Y0209070D01*
X0236800Y0204695D02*
X0246175Y0204695D01*
X0246800Y0204070D01*
X0246800Y0201004D01*
X0243050Y0197764D02*
X0240231Y0200582D01*
X0238331Y0200582D02*
X0238331Y0194473D01*
X0238734Y0194070D01*
X0238734Y0188445D01*
X0238734Y0183386D01*
X0239300Y0182820D01*
X0233675Y0182820D02*
X0233616Y0182879D01*
X0233616Y0188445D01*
X0233616Y0194070D01*
X0232932Y0193386D01*
X0226175Y0193386D01*
X0226175Y0187195D01*
X0233616Y0194070D02*
X0234331Y0194785D01*
X0234331Y0200582D01*
X0232431Y0200582D02*
X0232431Y0199076D01*
X0232425Y0199070D01*
X0226741Y0199070D01*
X0226175Y0198504D01*
X0226175Y0199070D01*
X0236331Y0200582D02*
X0236331Y0204226D01*
X0236800Y0204695D01*
X0243050Y0197764D02*
X0243050Y0187820D01*
X0244100Y0186770D01*
X0259975Y0186770D01*
X0263675Y0186770D02*
X0263675Y0189070D01*
X0261859Y0190886D01*
X0254300Y0190886D01*
X0253734Y0190320D01*
X0246800Y0190320D01*
X0246800Y0195886D01*
X0263675Y0186770D02*
X0267375Y0186770D01*
X0267800Y0187195D01*
X0269925Y0187195D01*
X0271175Y0188445D01*
X0274704Y0188445D01*
X0274925Y0188223D01*
X0274925Y0194916D02*
X0274521Y0195320D01*
X0271175Y0195320D01*
X0269925Y0196570D01*
X0267575Y0196570D01*
X0267375Y0196370D01*
X0279925Y0201570D02*
X0286116Y0201570D01*
X0286175Y0201629D01*
X0286175Y0196511D02*
X0286175Y0188273D01*
X0286175Y0182367D02*
X0286003Y0182195D01*
X0279925Y0182195D01*
X0277425Y0168706D02*
X0274925Y0166206D01*
X0274925Y0163081D01*
X0277425Y0168706D02*
X0298050Y0168706D01*
X0299925Y0166831D01*
X0299925Y0142456D01*
X0301175Y0141206D01*
X0309925Y0141206D01*
X0311175Y0142456D01*
X0311175Y0146609D01*
X0311396Y0146831D01*
X0311446Y0146881D01*
X0318000Y0146881D01*
X0320500Y0146881D02*
X0320500Y0150631D01*
X0319300Y0151831D01*
X0304704Y0151831D01*
X0304704Y0146831D01*
X0304704Y0151831D02*
X0304704Y0156831D01*
X0311175Y0156831D02*
X0311175Y0163081D01*
X0311396Y0156831D02*
X0312021Y0156206D01*
X0322425Y0156206D01*
X0325550Y0153081D01*
X0325600Y0153031D01*
X0325600Y0146881D01*
X0323100Y0146881D02*
X0323100Y0141256D01*
X0323050Y0138081D01*
X0323862Y0137269D01*
X0334300Y0137269D01*
X0336175Y0153022D02*
X0330550Y0153022D01*
X0330491Y0153081D01*
X0325550Y0153081D01*
X0330550Y0158140D02*
X0336175Y0158140D01*
X0336175Y0153022D02*
X0340491Y0153022D01*
X0341800Y0153081D01*
X0330550Y0158140D02*
X0329984Y0158706D01*
X0330550Y0158706D01*
X0330550Y0164331D01*
X0329984Y0158706D02*
X0319300Y0158706D01*
X0318000Y0160006D01*
X0318000Y0164281D01*
X0311396Y0146831D02*
X0311800Y0144956D01*
X0312425Y0145581D01*
X0294300Y0143302D02*
X0294300Y0156609D01*
X0294300Y0163302D02*
X0285146Y0163302D01*
X0284925Y0163081D01*
X0285146Y0143302D02*
X0284925Y0143081D01*
X0285146Y0143302D02*
X0294300Y0143302D01*
X0294300Y0136609D02*
X0256175Y0136609D01*
X0250550Y0136609D01*
X0250550Y0159331D01*
X0243050Y0165581D01*
X0256175Y0163302D02*
X0264704Y0163302D01*
X0264925Y0163081D01*
X0256175Y0156609D02*
X0256175Y0143302D01*
X0264704Y0143302D01*
X0264925Y0143081D01*
X0250550Y0136609D02*
X0233454Y0136609D01*
X0232425Y0135581D01*
X0232425Y0131575D01*
X0232431Y0131568D01*
X0234300Y0131537D02*
X0234300Y0128081D01*
X0233675Y0127456D01*
X0229300Y0127456D01*
X0228050Y0128706D01*
X0228050Y0131831D01*
X0222425Y0130581D02*
X0221175Y0129331D01*
X0211859Y0129331D01*
X0211800Y0129390D01*
X0217425Y0129390D01*
X0217425Y0124272D02*
X0211800Y0124272D01*
X0206859Y0124272D01*
X0204675Y0119331D02*
X0224925Y0119331D01*
X0231800Y0125581D01*
X0234925Y0125581D01*
X0236331Y0126987D01*
X0236331Y0131568D01*
X0234331Y0131568D02*
X0234300Y0131537D01*
X0238331Y0131568D02*
X0238331Y0125862D01*
X0236175Y0123706D01*
X0232425Y0123706D01*
X0225550Y0116831D01*
X0222425Y0116831D01*
X0214925Y0109331D01*
X0204675Y0109331D01*
X0204675Y0114331D02*
X0212425Y0114331D01*
X0217425Y0124272D02*
X0223616Y0124272D01*
X0223675Y0124331D01*
X0213050Y0138716D02*
X0210540Y0138081D01*
X0206800Y0138081D01*
X0204734Y0129390D02*
X0211800Y0129390D01*
X0204734Y0129390D02*
X0204675Y0129331D01*
X0213050Y0144946D02*
X0213050Y0146196D01*
X0213050Y0153081D01*
X0213050Y0154956D01*
X0214925Y0154956D01*
X0216800Y0156831D01*
X0217425Y0159341D01*
X0213050Y0154710D02*
X0213050Y0153081D01*
X0213050Y0154710D02*
X0210304Y0157456D01*
X0208296Y0157456D02*
X0207425Y0157456D01*
X0201800Y0163081D01*
X0199300Y0165581D02*
X0204925Y0165581D01*
X0207484Y0163022D01*
X0209300Y0163022D01*
X0208109Y0163022D01*
X0209241Y0168081D02*
X0201800Y0168081D01*
X0199300Y0165581D02*
X0196800Y0163081D01*
X0209241Y0168081D02*
X0209300Y0168140D01*
X0209369Y0168071D01*
X0209379Y0168081D01*
X0215550Y0168081D01*
X0216810Y0166821D01*
X0217425Y0166821D01*
X0223040Y0166821D01*
X0224300Y0168081D01*
X0217425Y0166821D02*
X0216810Y0168081D01*
X0211800Y0180945D02*
X0207425Y0180945D01*
X0181800Y0168081D02*
X0179300Y0168081D01*
X0176800Y0166206D01*
X0171800Y0163081D02*
X0163675Y0163081D01*
X0162425Y0161831D01*
X0162425Y0158706D01*
X0166800Y0158081D02*
X0162425Y0153706D01*
X0166800Y0158081D02*
X0176800Y0158081D01*
X0176175Y0132456D02*
X0175550Y0132456D01*
X0207425Y0094331D02*
X0211800Y0094331D01*
X0226175Y0100581D02*
X0226175Y0106772D01*
X0232932Y0106772D01*
X0233616Y0107456D01*
X0233616Y0101831D01*
X0233616Y0096265D01*
X0233675Y0096206D01*
X0238734Y0096772D02*
X0239300Y0096206D01*
X0238734Y0096772D02*
X0238734Y0101831D01*
X0238734Y0107456D01*
X0238331Y0107859D01*
X0238331Y0113968D01*
X0240231Y0113968D02*
X0243050Y0111150D01*
X0243050Y0101206D01*
X0244100Y0100156D01*
X0259975Y0100156D01*
X0263675Y0100156D02*
X0263675Y0102456D01*
X0261859Y0104272D01*
X0254300Y0104272D01*
X0253734Y0103706D01*
X0246800Y0103706D01*
X0246800Y0109272D01*
X0246800Y0114390D02*
X0246800Y0117456D01*
X0246175Y0118081D01*
X0236800Y0118081D01*
X0236331Y0117612D01*
X0236331Y0113968D01*
X0234331Y0113968D02*
X0234331Y0108171D01*
X0233616Y0107456D01*
X0232425Y0112456D02*
X0226741Y0112456D01*
X0226175Y0111890D01*
X0226175Y0112456D01*
X0232425Y0112456D02*
X0232431Y0112462D01*
X0232431Y0113968D01*
X0240550Y0122456D02*
X0240231Y0122775D01*
X0240231Y0131568D01*
X0263675Y0100156D02*
X0267375Y0100156D01*
X0267800Y0100581D01*
X0269925Y0100581D01*
X0271175Y0101831D01*
X0274704Y0101831D01*
X0274925Y0101609D01*
X0274925Y0108302D02*
X0274521Y0108706D01*
X0271175Y0108706D01*
X0269925Y0109956D01*
X0267575Y0109956D01*
X0267375Y0109756D01*
X0279925Y0114956D02*
X0286116Y0114956D01*
X0286175Y0115015D01*
X0286175Y0109897D02*
X0286175Y0101659D01*
X0286175Y0095753D02*
X0286003Y0095581D01*
X0279925Y0095581D01*
X0176175Y0219070D02*
X0175550Y0219070D01*
X0162425Y0240320D02*
X0166800Y0244695D01*
X0176800Y0244695D01*
X0171800Y0249695D02*
X0163675Y0249695D01*
X0162425Y0248445D01*
X0162425Y0245320D01*
X0176800Y0252820D02*
X0179300Y0254695D01*
X0181800Y0254695D01*
X0263675Y0359998D02*
X0267375Y0359998D01*
X0267800Y0360423D01*
X0269925Y0360423D01*
X0271175Y0361673D01*
X0274704Y0361673D01*
X0274925Y0361452D01*
X0274925Y0368145D02*
X0274521Y0368548D01*
X0271175Y0368548D01*
X0269925Y0369798D01*
X0267575Y0369798D01*
X0267375Y0369598D01*
X0279925Y0374798D02*
X0286116Y0374798D01*
X0286175Y0374857D01*
X0286175Y0369739D02*
X0286175Y0361501D01*
X0286175Y0355596D02*
X0286003Y0355423D01*
X0279925Y0355423D01*
X0367425Y0432357D02*
X0367519Y0432451D01*
X0367750Y0432451D01*
X0378650Y0432382D02*
X0378650Y0432451D01*
X0378650Y0432382D02*
X0378675Y0432357D01*
X0389300Y0432357D02*
X0389394Y0432451D01*
X0389450Y0432451D01*
X0399925Y0432357D02*
X0400019Y0432451D01*
X0400350Y0432451D01*
X0411175Y0432357D02*
X0411250Y0432432D01*
X0411250Y0432451D01*
X0421800Y0432357D02*
X0421894Y0432451D01*
X0422050Y0432451D01*
X0432950Y0432451D02*
X0432956Y0432451D01*
X0433050Y0432357D01*
X0443675Y0432357D02*
X0443769Y0432451D01*
X0443850Y0432451D01*
X0454300Y0432357D02*
X0454394Y0432451D01*
X0454650Y0432451D01*
X0459925Y0456107D02*
X0460150Y0456332D01*
X0460150Y0462840D01*
X0470950Y0463775D02*
X0470950Y0456332D01*
X0471175Y0456107D01*
X0481800Y0456107D02*
X0481850Y0456157D01*
X0481850Y0463307D01*
X0492750Y0464242D02*
X0492750Y0456407D01*
X0493050Y0456107D01*
X0503650Y0456132D02*
X0503650Y0463775D01*
X0503650Y0456132D02*
X0503675Y0456107D01*
X0509050Y0432451D02*
X0509206Y0432451D01*
X0509300Y0432357D01*
X0498150Y0432451D02*
X0498144Y0432451D01*
X0498050Y0432357D01*
X0487425Y0432357D02*
X0487331Y0432451D01*
X0487250Y0432451D01*
X0476450Y0432632D02*
X0476450Y0432918D01*
X0476450Y0432632D02*
X0476175Y0432357D01*
X0449300Y0456107D02*
X0449250Y0456157D01*
X0449250Y0462840D01*
X0438350Y0462840D02*
X0438350Y0456407D01*
X0438050Y0456107D01*
X0427550Y0456232D02*
X0427550Y0462840D01*
X0427550Y0456232D02*
X0427425Y0456107D01*
X0416800Y0456107D02*
X0416650Y0456257D01*
X0416650Y0461437D01*
X0405750Y0461437D02*
X0405750Y0456307D01*
X0405550Y0456107D01*
X0394950Y0456132D02*
X0394950Y0461437D01*
X0394950Y0456132D02*
X0394925Y0456107D01*
X0384050Y0456482D02*
X0384050Y0462372D01*
X0384050Y0456482D02*
X0383675Y0456107D01*
X0373150Y0456207D02*
X0373150Y0458632D01*
X0373150Y0456207D02*
X0373050Y0456107D01*
X0519925Y0432357D02*
X0519950Y0432382D01*
X0519950Y0432451D01*
X0530550Y0432357D02*
X0530644Y0432451D01*
X0530750Y0432451D01*
X0541650Y0432451D02*
X0541706Y0432451D01*
X0541800Y0432357D01*
X0552425Y0432357D02*
X0552519Y0432451D01*
X0552550Y0432451D01*
X0563050Y0432357D02*
X0563350Y0432657D01*
X0563350Y0432918D01*
X0132105Y0103140D02*
X0132425Y0102195D01*
X0132425Y0094956D01*
X0114300Y0094956D02*
X0114300Y0103460D01*
X0113995Y0103140D01*
D40*
X0159300Y0099331D03*
X0223675Y0124331D03*
X0223675Y0210945D03*
X0159300Y0185945D03*
X0159300Y0272559D03*
X0223675Y0297559D03*
X0223675Y0384173D03*
X0223675Y0470787D03*
X0159300Y0445787D03*
X0159300Y0532402D03*
X0223675Y0557402D03*
X0223675Y0644016D03*
X0159300Y0619016D03*
X0159300Y0705630D03*
X0223675Y0730630D03*
X0048050Y0437313D03*
X0159300Y0359173D03*
D41*
X0206800Y0397923D03*
X0206800Y0311309D03*
X0206800Y0224695D03*
X0206800Y0138081D03*
X0206800Y0484537D03*
X0206800Y0571152D03*
X0206800Y0657766D03*
X0206800Y0744380D03*
D42*
X0206800Y0759380D02*
X0201800Y0759380D01*
X0206800Y0759380D02*
X0213050Y0759380D01*
X0213050Y0672766D02*
X0206800Y0672766D01*
X0201800Y0672766D01*
X0201800Y0586152D02*
X0206800Y0586152D01*
X0213050Y0586152D01*
X0213050Y0499537D02*
X0206800Y0499537D01*
X0201800Y0499537D01*
X0201800Y0412923D02*
X0206800Y0412923D01*
X0213050Y0412923D01*
X0213050Y0326309D02*
X0206800Y0326309D01*
X0201800Y0326309D01*
X0201800Y0239695D02*
X0206800Y0239695D01*
X0213050Y0239695D01*
X0213050Y0153081D02*
X0206800Y0153081D01*
X0201800Y0153081D01*
X0367750Y0114016D02*
X0367750Y0432451D01*
X0367750Y0796255D01*
X0373150Y0806255D02*
X0373150Y0458632D01*
X0373150Y0104016D01*
X0373150Y0102713D01*
X0384050Y0104016D02*
X0384050Y0462372D01*
X0384050Y0806255D01*
X0378650Y0796255D02*
X0378650Y0432451D01*
X0378650Y0423855D01*
X0378550Y0114016D01*
X0389450Y0114016D02*
X0389450Y0432451D01*
X0389450Y0796255D01*
X0400350Y0796255D02*
X0400350Y0432451D01*
X0400350Y0114016D01*
X0411150Y0114016D02*
X0411250Y0423855D01*
X0411250Y0432451D01*
X0411250Y0796255D01*
X0416650Y0806255D02*
X0416650Y0461437D01*
X0416650Y0104016D01*
X0405750Y0104016D02*
X0405750Y0461437D01*
X0405750Y0806255D01*
X0394950Y0806255D02*
X0394950Y0461437D01*
X0394950Y0413855D01*
X0394850Y0104016D01*
X0422050Y0114016D02*
X0422050Y0432451D01*
X0422050Y0796255D01*
X0427550Y0806255D02*
X0427550Y0462840D01*
X0427550Y0104016D01*
X0438350Y0104016D02*
X0438350Y0462840D01*
X0438350Y0806255D01*
X0449250Y0806255D02*
X0449250Y0462840D01*
X0449250Y0104016D01*
X0460150Y0104016D02*
X0460150Y0462840D01*
X0460150Y0806255D01*
X0465550Y0796255D02*
X0465550Y0432451D01*
X0465550Y0432357D01*
X0465550Y0114016D01*
X0454650Y0114016D02*
X0454650Y0432451D01*
X0454650Y0796255D01*
X0443850Y0796255D02*
X0443850Y0432451D01*
X0443850Y0114016D01*
X0432950Y0114016D02*
X0432950Y0432451D01*
X0432950Y0796255D01*
X0470950Y0806255D02*
X0470950Y0463775D01*
X0470950Y0104016D01*
X0481850Y0104016D02*
X0481850Y0463307D01*
X0481850Y0806255D01*
X0476450Y0796255D02*
X0476450Y0432918D01*
X0476450Y0114016D01*
X0487250Y0114016D02*
X0487250Y0432451D01*
X0487250Y0796255D01*
X0492750Y0806255D02*
X0492750Y0464242D01*
X0492750Y0104016D01*
X0503550Y0104016D02*
X0503650Y0413855D01*
X0503650Y0463775D01*
X0503650Y0806255D01*
X0509050Y0796255D02*
X0509050Y0432451D01*
X0509050Y0114016D01*
X0498150Y0114016D02*
X0498150Y0432451D01*
X0498150Y0796255D01*
X0514450Y0806255D02*
X0514450Y0104016D01*
X0525350Y0104016D02*
X0525350Y0806255D01*
X0519950Y0796255D02*
X0519950Y0432451D01*
X0519950Y0423855D01*
X0519850Y0114016D01*
X0530750Y0114016D02*
X0530750Y0432451D01*
X0530750Y0796255D01*
X0536250Y0806255D02*
X0536250Y0413855D01*
X0536150Y0104016D01*
X0547050Y0104016D02*
X0547050Y0806255D01*
X0557950Y0806255D02*
X0557950Y0104016D01*
X0563350Y0114016D02*
X0563350Y0432918D01*
X0563350Y0796255D01*
X0552550Y0796255D02*
X0552550Y0432451D01*
X0552550Y0423855D01*
X0552450Y0114016D01*
X0541650Y0114016D02*
X0541650Y0432451D01*
X0541650Y0796255D01*
M02*
