%
M48
M72
T01C0.01969
T02C0.02362
T03C0.03543
T04C0.04000
T05C0.13000
%
T01
X231500Y136500
X241500Y135875
X266500Y135875
X275250Y157750
X275250Y179000
X246500Y180250
X231500Y180250
X241500Y273375
X231500Y274000
X266500Y273375
X275250Y295250
X275250Y316500
X246500Y317750
X231500Y317750
X241500Y417125
X231500Y417750
X266500Y417125
X275250Y439000
X275250Y460250
X246500Y461500
X231500Y461500
T02
X195875Y87125
X199625Y96500
X214000Y106500
X210250Y115250
X239000Y124625
X264000Y125250
X279625Y119000
X288375Y106500
X295875Y97125
X302125Y112125
X317750Y112125
X297125Y131500
X291500Y143375
X301500Y171500
X306500Y176500
X316500Y174625
X285875Y194625
X260875Y180875
X279625Y214000
X279000Y226500
X279625Y236500
X288375Y244000
X302125Y249625
X317750Y249625
X295875Y234625
X314625Y215250
X279625Y256500
X264000Y262750
X239000Y262125
X214000Y244000
X207750Y249000
X199625Y233375
X195875Y226500
X179000Y239000
X146500Y240875
X222750Y219000
X297125Y269000
X291500Y280875
X301500Y309000
X306500Y314000
X316500Y312125
X285875Y332125
X260875Y318375
X279625Y357750
X279000Y370250
X279625Y380250
X288375Y387750
X295875Y378375
X302125Y393375
X317750Y393375
X297125Y412750
X291500Y424625
X279625Y400250
X264000Y406500
X239000Y405875
X210875Y395875
X214000Y387750
X209625Y377750
X199625Y370250
X195875Y362750
X222750Y362750
X209625Y317750
X169000Y310875
X143375Y334625
X153375Y342125
X172350Y436500
X260875Y462125
X285875Y475875
X306500Y457750
X301500Y452750
X316500Y455875
X314625Y359000
X279625Y99000
X279000Y89000
X279625Y76500
X314625Y77750
X222750Y81500
T03
X324000Y181313
X324000Y189187
X324000Y318813
X324000Y326687
X324000Y462563
X324000Y470437
T04
X378075Y477750
X388975Y477750
X399775Y477750
X410675Y477750
X421575Y477750
X432375Y477750
X443275Y477750
X454175Y477750
X464975Y477750
X475875Y477750
X486775Y477750
X497575Y477750
X508475Y477750
X519375Y477750
X530275Y477750
X541075Y477750
X551975Y477750
X562875Y477750
X573675Y477750
X568275Y487750
X557375Y487750
X546575Y487750
X535675Y487750
X524775Y487750
X513975Y487750
X503075Y487750
X492175Y487750
X481275Y487750
X470475Y487750
X459575Y487750
X448675Y487750
X437875Y487750
X426975Y487750
X416075Y487750
X405275Y487750
X394375Y487750
X383475Y487750
X244625Y500875
X234625Y500875
X220875Y500875
X210875Y500875
X182125Y463725
X172125Y458325
X182125Y452925
X172125Y447525
X182125Y442125
X172125Y436725
X182125Y431325
X172125Y425925
X182125Y420525
X383375Y319000
X394000Y319000
X405250Y319000
X415875Y319000
X427125Y319000
X437750Y319000
X448375Y319000
X459625Y319000
X470250Y319000
X481500Y319000
X492125Y319000
X503375Y319000
X514000Y319000
X508375Y295250
X497750Y295250
X486500Y295250
X475875Y295250
X464625Y295250
X454000Y295250
X443375Y295250
X432125Y295250
X421500Y295250
X410250Y295250
X399625Y295250
X389000Y295250
X377750Y295250
X519625Y295250
X530250Y295250
X540875Y295250
X552125Y295250
X562750Y295250
X573375Y295250
X573675Y105250
X562775Y105250
X551975Y105250
X541075Y105250
X530175Y105250
X519375Y105250
X508475Y105250
X497575Y105250
X486775Y105250
X475875Y105250
X464975Y105250
X454175Y105250
X443275Y105250
X432375Y105250
X421475Y105250
X410675Y105250
X399775Y105250
X388875Y105250
X378075Y105250
X383475Y95250
X394375Y95250
X405175Y95250
X416075Y95250
X426975Y95250
X437875Y95250
X448675Y95250
X459575Y95250
X470475Y95250
X481275Y95250
X492175Y95250
X503075Y95250
X513875Y95250
X524775Y95250
X535675Y95250
X546475Y95250
X557375Y95250
X568275Y95250
T05
X600875Y100250
X350875Y100250
X177125Y392825
X177125Y491425
X350875Y482750
X600875Y482750
M30
