G75*
%MOIN*%
%OFA0B0*%
%FSLAX25Y25*%
%IPPOS*%
%LPD*%
%AMOC8*
5,1,8,0,0,1.08239X$1,22.5*
%
%ADD10C,0.00000*%
D10*
X0035240Y0063066D02*
X0032425Y0830581D01*
X0605104Y0831831D01*
X0606256Y0062751D01*
X0035240Y0063066D01*
X0107892Y0113770D02*
X0107894Y0113858D01*
X0107900Y0113946D01*
X0107910Y0114034D01*
X0107924Y0114122D01*
X0107941Y0114208D01*
X0107963Y0114294D01*
X0107988Y0114378D01*
X0108018Y0114462D01*
X0108050Y0114544D01*
X0108087Y0114624D01*
X0108127Y0114703D01*
X0108171Y0114780D01*
X0108218Y0114855D01*
X0108268Y0114927D01*
X0108322Y0114998D01*
X0108378Y0115065D01*
X0108438Y0115131D01*
X0108500Y0115193D01*
X0108566Y0115253D01*
X0108633Y0115309D01*
X0108704Y0115363D01*
X0108776Y0115413D01*
X0108851Y0115460D01*
X0108928Y0115504D01*
X0109007Y0115544D01*
X0109087Y0115581D01*
X0109169Y0115613D01*
X0109253Y0115643D01*
X0109337Y0115668D01*
X0109423Y0115690D01*
X0109509Y0115707D01*
X0109597Y0115721D01*
X0109685Y0115731D01*
X0109773Y0115737D01*
X0109861Y0115739D01*
X0109949Y0115737D01*
X0110037Y0115731D01*
X0110125Y0115721D01*
X0110213Y0115707D01*
X0110299Y0115690D01*
X0110385Y0115668D01*
X0110469Y0115643D01*
X0110553Y0115613D01*
X0110635Y0115581D01*
X0110715Y0115544D01*
X0110794Y0115504D01*
X0110871Y0115460D01*
X0110946Y0115413D01*
X0111018Y0115363D01*
X0111089Y0115309D01*
X0111156Y0115253D01*
X0111222Y0115193D01*
X0111284Y0115131D01*
X0111344Y0115065D01*
X0111400Y0114998D01*
X0111454Y0114927D01*
X0111504Y0114855D01*
X0111551Y0114780D01*
X0111595Y0114703D01*
X0111635Y0114624D01*
X0111672Y0114544D01*
X0111704Y0114462D01*
X0111734Y0114378D01*
X0111759Y0114294D01*
X0111781Y0114208D01*
X0111798Y0114122D01*
X0111812Y0114034D01*
X0111822Y0113946D01*
X0111828Y0113858D01*
X0111830Y0113770D01*
X0111828Y0113682D01*
X0111822Y0113594D01*
X0111812Y0113506D01*
X0111798Y0113418D01*
X0111781Y0113332D01*
X0111759Y0113246D01*
X0111734Y0113162D01*
X0111704Y0113078D01*
X0111672Y0112996D01*
X0111635Y0112916D01*
X0111595Y0112837D01*
X0111551Y0112760D01*
X0111504Y0112685D01*
X0111454Y0112613D01*
X0111400Y0112542D01*
X0111344Y0112475D01*
X0111284Y0112409D01*
X0111222Y0112347D01*
X0111156Y0112287D01*
X0111089Y0112231D01*
X0111018Y0112177D01*
X0110946Y0112127D01*
X0110871Y0112080D01*
X0110794Y0112036D01*
X0110715Y0111996D01*
X0110635Y0111959D01*
X0110553Y0111927D01*
X0110469Y0111897D01*
X0110385Y0111872D01*
X0110299Y0111850D01*
X0110213Y0111833D01*
X0110125Y0111819D01*
X0110037Y0111809D01*
X0109949Y0111803D01*
X0109861Y0111801D01*
X0109773Y0111803D01*
X0109685Y0111809D01*
X0109597Y0111819D01*
X0109509Y0111833D01*
X0109423Y0111850D01*
X0109337Y0111872D01*
X0109253Y0111897D01*
X0109169Y0111927D01*
X0109087Y0111959D01*
X0109007Y0111996D01*
X0108928Y0112036D01*
X0108851Y0112080D01*
X0108776Y0112127D01*
X0108704Y0112177D01*
X0108633Y0112231D01*
X0108566Y0112287D01*
X0108500Y0112347D01*
X0108438Y0112409D01*
X0108378Y0112475D01*
X0108322Y0112542D01*
X0108268Y0112613D01*
X0108218Y0112685D01*
X0108171Y0112760D01*
X0108127Y0112837D01*
X0108087Y0112916D01*
X0108050Y0112996D01*
X0108018Y0113078D01*
X0107988Y0113162D01*
X0107963Y0113246D01*
X0107941Y0113332D01*
X0107924Y0113418D01*
X0107910Y0113506D01*
X0107900Y0113594D01*
X0107894Y0113682D01*
X0107892Y0113770D01*
X0133089Y0137392D02*
X0133091Y0137504D01*
X0133097Y0137615D01*
X0133107Y0137727D01*
X0133121Y0137838D01*
X0133138Y0137948D01*
X0133160Y0138058D01*
X0133186Y0138167D01*
X0133215Y0138275D01*
X0133248Y0138381D01*
X0133285Y0138487D01*
X0133326Y0138591D01*
X0133371Y0138694D01*
X0133419Y0138795D01*
X0133470Y0138894D01*
X0133525Y0138991D01*
X0133584Y0139086D01*
X0133645Y0139180D01*
X0133710Y0139271D01*
X0133779Y0139359D01*
X0133850Y0139445D01*
X0133924Y0139529D01*
X0134002Y0139609D01*
X0134082Y0139687D01*
X0134165Y0139763D01*
X0134250Y0139835D01*
X0134338Y0139904D01*
X0134428Y0139970D01*
X0134521Y0140032D01*
X0134616Y0140092D01*
X0134713Y0140148D01*
X0134811Y0140200D01*
X0134912Y0140249D01*
X0135014Y0140294D01*
X0135118Y0140336D01*
X0135223Y0140374D01*
X0135330Y0140408D01*
X0135437Y0140438D01*
X0135546Y0140465D01*
X0135655Y0140487D01*
X0135766Y0140506D01*
X0135876Y0140521D01*
X0135988Y0140532D01*
X0136099Y0140539D01*
X0136211Y0140542D01*
X0136323Y0140541D01*
X0136435Y0140536D01*
X0136546Y0140527D01*
X0136657Y0140514D01*
X0136768Y0140497D01*
X0136878Y0140477D01*
X0136987Y0140452D01*
X0137095Y0140424D01*
X0137202Y0140391D01*
X0137308Y0140355D01*
X0137412Y0140315D01*
X0137515Y0140272D01*
X0137617Y0140225D01*
X0137716Y0140174D01*
X0137814Y0140120D01*
X0137910Y0140062D01*
X0138004Y0140001D01*
X0138095Y0139937D01*
X0138184Y0139870D01*
X0138271Y0139799D01*
X0138355Y0139725D01*
X0138437Y0139649D01*
X0138515Y0139569D01*
X0138591Y0139487D01*
X0138664Y0139402D01*
X0138734Y0139315D01*
X0138800Y0139225D01*
X0138864Y0139133D01*
X0138924Y0139039D01*
X0138981Y0138943D01*
X0139034Y0138844D01*
X0139084Y0138744D01*
X0139130Y0138643D01*
X0139173Y0138539D01*
X0139212Y0138434D01*
X0139247Y0138328D01*
X0139278Y0138221D01*
X0139306Y0138112D01*
X0139329Y0138003D01*
X0139349Y0137893D01*
X0139365Y0137782D01*
X0139377Y0137671D01*
X0139385Y0137560D01*
X0139389Y0137448D01*
X0139389Y0137336D01*
X0139385Y0137224D01*
X0139377Y0137113D01*
X0139365Y0137002D01*
X0139349Y0136891D01*
X0139329Y0136781D01*
X0139306Y0136672D01*
X0139278Y0136563D01*
X0139247Y0136456D01*
X0139212Y0136350D01*
X0139173Y0136245D01*
X0139130Y0136141D01*
X0139084Y0136040D01*
X0139034Y0135940D01*
X0138981Y0135841D01*
X0138924Y0135745D01*
X0138864Y0135651D01*
X0138800Y0135559D01*
X0138734Y0135469D01*
X0138664Y0135382D01*
X0138591Y0135297D01*
X0138515Y0135215D01*
X0138437Y0135135D01*
X0138355Y0135059D01*
X0138271Y0134985D01*
X0138184Y0134914D01*
X0138095Y0134847D01*
X0138004Y0134783D01*
X0137910Y0134722D01*
X0137814Y0134664D01*
X0137716Y0134610D01*
X0137617Y0134559D01*
X0137515Y0134512D01*
X0137412Y0134469D01*
X0137308Y0134429D01*
X0137202Y0134393D01*
X0137095Y0134360D01*
X0136987Y0134332D01*
X0136878Y0134307D01*
X0136768Y0134287D01*
X0136657Y0134270D01*
X0136546Y0134257D01*
X0136435Y0134248D01*
X0136323Y0134243D01*
X0136211Y0134242D01*
X0136099Y0134245D01*
X0135988Y0134252D01*
X0135876Y0134263D01*
X0135766Y0134278D01*
X0135655Y0134297D01*
X0135546Y0134319D01*
X0135437Y0134346D01*
X0135330Y0134376D01*
X0135223Y0134410D01*
X0135118Y0134448D01*
X0135014Y0134490D01*
X0134912Y0134535D01*
X0134811Y0134584D01*
X0134713Y0134636D01*
X0134616Y0134692D01*
X0134521Y0134752D01*
X0134428Y0134814D01*
X0134338Y0134880D01*
X0134250Y0134949D01*
X0134165Y0135021D01*
X0134082Y0135097D01*
X0134002Y0135175D01*
X0133924Y0135255D01*
X0133850Y0135339D01*
X0133779Y0135425D01*
X0133710Y0135513D01*
X0133645Y0135604D01*
X0133584Y0135698D01*
X0133525Y0135793D01*
X0133470Y0135890D01*
X0133419Y0135989D01*
X0133371Y0136090D01*
X0133326Y0136193D01*
X0133285Y0136297D01*
X0133248Y0136403D01*
X0133215Y0136509D01*
X0133186Y0136617D01*
X0133160Y0136726D01*
X0133138Y0136836D01*
X0133121Y0136946D01*
X0133107Y0137057D01*
X0133097Y0137169D01*
X0133091Y0137280D01*
X0133089Y0137392D01*
X0107892Y0200384D02*
X0107894Y0200472D01*
X0107900Y0200560D01*
X0107910Y0200648D01*
X0107924Y0200736D01*
X0107941Y0200822D01*
X0107963Y0200908D01*
X0107988Y0200992D01*
X0108018Y0201076D01*
X0108050Y0201158D01*
X0108087Y0201238D01*
X0108127Y0201317D01*
X0108171Y0201394D01*
X0108218Y0201469D01*
X0108268Y0201541D01*
X0108322Y0201612D01*
X0108378Y0201679D01*
X0108438Y0201745D01*
X0108500Y0201807D01*
X0108566Y0201867D01*
X0108633Y0201923D01*
X0108704Y0201977D01*
X0108776Y0202027D01*
X0108851Y0202074D01*
X0108928Y0202118D01*
X0109007Y0202158D01*
X0109087Y0202195D01*
X0109169Y0202227D01*
X0109253Y0202257D01*
X0109337Y0202282D01*
X0109423Y0202304D01*
X0109509Y0202321D01*
X0109597Y0202335D01*
X0109685Y0202345D01*
X0109773Y0202351D01*
X0109861Y0202353D01*
X0109949Y0202351D01*
X0110037Y0202345D01*
X0110125Y0202335D01*
X0110213Y0202321D01*
X0110299Y0202304D01*
X0110385Y0202282D01*
X0110469Y0202257D01*
X0110553Y0202227D01*
X0110635Y0202195D01*
X0110715Y0202158D01*
X0110794Y0202118D01*
X0110871Y0202074D01*
X0110946Y0202027D01*
X0111018Y0201977D01*
X0111089Y0201923D01*
X0111156Y0201867D01*
X0111222Y0201807D01*
X0111284Y0201745D01*
X0111344Y0201679D01*
X0111400Y0201612D01*
X0111454Y0201541D01*
X0111504Y0201469D01*
X0111551Y0201394D01*
X0111595Y0201317D01*
X0111635Y0201238D01*
X0111672Y0201158D01*
X0111704Y0201076D01*
X0111734Y0200992D01*
X0111759Y0200908D01*
X0111781Y0200822D01*
X0111798Y0200736D01*
X0111812Y0200648D01*
X0111822Y0200560D01*
X0111828Y0200472D01*
X0111830Y0200384D01*
X0111828Y0200296D01*
X0111822Y0200208D01*
X0111812Y0200120D01*
X0111798Y0200032D01*
X0111781Y0199946D01*
X0111759Y0199860D01*
X0111734Y0199776D01*
X0111704Y0199692D01*
X0111672Y0199610D01*
X0111635Y0199530D01*
X0111595Y0199451D01*
X0111551Y0199374D01*
X0111504Y0199299D01*
X0111454Y0199227D01*
X0111400Y0199156D01*
X0111344Y0199089D01*
X0111284Y0199023D01*
X0111222Y0198961D01*
X0111156Y0198901D01*
X0111089Y0198845D01*
X0111018Y0198791D01*
X0110946Y0198741D01*
X0110871Y0198694D01*
X0110794Y0198650D01*
X0110715Y0198610D01*
X0110635Y0198573D01*
X0110553Y0198541D01*
X0110469Y0198511D01*
X0110385Y0198486D01*
X0110299Y0198464D01*
X0110213Y0198447D01*
X0110125Y0198433D01*
X0110037Y0198423D01*
X0109949Y0198417D01*
X0109861Y0198415D01*
X0109773Y0198417D01*
X0109685Y0198423D01*
X0109597Y0198433D01*
X0109509Y0198447D01*
X0109423Y0198464D01*
X0109337Y0198486D01*
X0109253Y0198511D01*
X0109169Y0198541D01*
X0109087Y0198573D01*
X0109007Y0198610D01*
X0108928Y0198650D01*
X0108851Y0198694D01*
X0108776Y0198741D01*
X0108704Y0198791D01*
X0108633Y0198845D01*
X0108566Y0198901D01*
X0108500Y0198961D01*
X0108438Y0199023D01*
X0108378Y0199089D01*
X0108322Y0199156D01*
X0108268Y0199227D01*
X0108218Y0199299D01*
X0108171Y0199374D01*
X0108127Y0199451D01*
X0108087Y0199530D01*
X0108050Y0199610D01*
X0108018Y0199692D01*
X0107988Y0199776D01*
X0107963Y0199860D01*
X0107941Y0199946D01*
X0107924Y0200032D01*
X0107910Y0200120D01*
X0107900Y0200208D01*
X0107894Y0200296D01*
X0107892Y0200384D01*
X0133089Y0224006D02*
X0133091Y0224118D01*
X0133097Y0224229D01*
X0133107Y0224341D01*
X0133121Y0224452D01*
X0133138Y0224562D01*
X0133160Y0224672D01*
X0133186Y0224781D01*
X0133215Y0224889D01*
X0133248Y0224995D01*
X0133285Y0225101D01*
X0133326Y0225205D01*
X0133371Y0225308D01*
X0133419Y0225409D01*
X0133470Y0225508D01*
X0133525Y0225605D01*
X0133584Y0225700D01*
X0133645Y0225794D01*
X0133710Y0225885D01*
X0133779Y0225973D01*
X0133850Y0226059D01*
X0133924Y0226143D01*
X0134002Y0226223D01*
X0134082Y0226301D01*
X0134165Y0226377D01*
X0134250Y0226449D01*
X0134338Y0226518D01*
X0134428Y0226584D01*
X0134521Y0226646D01*
X0134616Y0226706D01*
X0134713Y0226762D01*
X0134811Y0226814D01*
X0134912Y0226863D01*
X0135014Y0226908D01*
X0135118Y0226950D01*
X0135223Y0226988D01*
X0135330Y0227022D01*
X0135437Y0227052D01*
X0135546Y0227079D01*
X0135655Y0227101D01*
X0135766Y0227120D01*
X0135876Y0227135D01*
X0135988Y0227146D01*
X0136099Y0227153D01*
X0136211Y0227156D01*
X0136323Y0227155D01*
X0136435Y0227150D01*
X0136546Y0227141D01*
X0136657Y0227128D01*
X0136768Y0227111D01*
X0136878Y0227091D01*
X0136987Y0227066D01*
X0137095Y0227038D01*
X0137202Y0227005D01*
X0137308Y0226969D01*
X0137412Y0226929D01*
X0137515Y0226886D01*
X0137617Y0226839D01*
X0137716Y0226788D01*
X0137814Y0226734D01*
X0137910Y0226676D01*
X0138004Y0226615D01*
X0138095Y0226551D01*
X0138184Y0226484D01*
X0138271Y0226413D01*
X0138355Y0226339D01*
X0138437Y0226263D01*
X0138515Y0226183D01*
X0138591Y0226101D01*
X0138664Y0226016D01*
X0138734Y0225929D01*
X0138800Y0225839D01*
X0138864Y0225747D01*
X0138924Y0225653D01*
X0138981Y0225557D01*
X0139034Y0225458D01*
X0139084Y0225358D01*
X0139130Y0225257D01*
X0139173Y0225153D01*
X0139212Y0225048D01*
X0139247Y0224942D01*
X0139278Y0224835D01*
X0139306Y0224726D01*
X0139329Y0224617D01*
X0139349Y0224507D01*
X0139365Y0224396D01*
X0139377Y0224285D01*
X0139385Y0224174D01*
X0139389Y0224062D01*
X0139389Y0223950D01*
X0139385Y0223838D01*
X0139377Y0223727D01*
X0139365Y0223616D01*
X0139349Y0223505D01*
X0139329Y0223395D01*
X0139306Y0223286D01*
X0139278Y0223177D01*
X0139247Y0223070D01*
X0139212Y0222964D01*
X0139173Y0222859D01*
X0139130Y0222755D01*
X0139084Y0222654D01*
X0139034Y0222554D01*
X0138981Y0222455D01*
X0138924Y0222359D01*
X0138864Y0222265D01*
X0138800Y0222173D01*
X0138734Y0222083D01*
X0138664Y0221996D01*
X0138591Y0221911D01*
X0138515Y0221829D01*
X0138437Y0221749D01*
X0138355Y0221673D01*
X0138271Y0221599D01*
X0138184Y0221528D01*
X0138095Y0221461D01*
X0138004Y0221397D01*
X0137910Y0221336D01*
X0137814Y0221278D01*
X0137716Y0221224D01*
X0137617Y0221173D01*
X0137515Y0221126D01*
X0137412Y0221083D01*
X0137308Y0221043D01*
X0137202Y0221007D01*
X0137095Y0220974D01*
X0136987Y0220946D01*
X0136878Y0220921D01*
X0136768Y0220901D01*
X0136657Y0220884D01*
X0136546Y0220871D01*
X0136435Y0220862D01*
X0136323Y0220857D01*
X0136211Y0220856D01*
X0136099Y0220859D01*
X0135988Y0220866D01*
X0135876Y0220877D01*
X0135766Y0220892D01*
X0135655Y0220911D01*
X0135546Y0220933D01*
X0135437Y0220960D01*
X0135330Y0220990D01*
X0135223Y0221024D01*
X0135118Y0221062D01*
X0135014Y0221104D01*
X0134912Y0221149D01*
X0134811Y0221198D01*
X0134713Y0221250D01*
X0134616Y0221306D01*
X0134521Y0221366D01*
X0134428Y0221428D01*
X0134338Y0221494D01*
X0134250Y0221563D01*
X0134165Y0221635D01*
X0134082Y0221711D01*
X0134002Y0221789D01*
X0133924Y0221869D01*
X0133850Y0221953D01*
X0133779Y0222039D01*
X0133710Y0222127D01*
X0133645Y0222218D01*
X0133584Y0222312D01*
X0133525Y0222407D01*
X0133470Y0222504D01*
X0133419Y0222603D01*
X0133371Y0222704D01*
X0133326Y0222807D01*
X0133285Y0222911D01*
X0133248Y0223017D01*
X0133215Y0223123D01*
X0133186Y0223231D01*
X0133160Y0223340D01*
X0133138Y0223450D01*
X0133121Y0223560D01*
X0133107Y0223671D01*
X0133097Y0223783D01*
X0133091Y0223894D01*
X0133089Y0224006D01*
X0107892Y0286998D02*
X0107894Y0287086D01*
X0107900Y0287174D01*
X0107910Y0287262D01*
X0107924Y0287350D01*
X0107941Y0287436D01*
X0107963Y0287522D01*
X0107988Y0287606D01*
X0108018Y0287690D01*
X0108050Y0287772D01*
X0108087Y0287852D01*
X0108127Y0287931D01*
X0108171Y0288008D01*
X0108218Y0288083D01*
X0108268Y0288155D01*
X0108322Y0288226D01*
X0108378Y0288293D01*
X0108438Y0288359D01*
X0108500Y0288421D01*
X0108566Y0288481D01*
X0108633Y0288537D01*
X0108704Y0288591D01*
X0108776Y0288641D01*
X0108851Y0288688D01*
X0108928Y0288732D01*
X0109007Y0288772D01*
X0109087Y0288809D01*
X0109169Y0288841D01*
X0109253Y0288871D01*
X0109337Y0288896D01*
X0109423Y0288918D01*
X0109509Y0288935D01*
X0109597Y0288949D01*
X0109685Y0288959D01*
X0109773Y0288965D01*
X0109861Y0288967D01*
X0109949Y0288965D01*
X0110037Y0288959D01*
X0110125Y0288949D01*
X0110213Y0288935D01*
X0110299Y0288918D01*
X0110385Y0288896D01*
X0110469Y0288871D01*
X0110553Y0288841D01*
X0110635Y0288809D01*
X0110715Y0288772D01*
X0110794Y0288732D01*
X0110871Y0288688D01*
X0110946Y0288641D01*
X0111018Y0288591D01*
X0111089Y0288537D01*
X0111156Y0288481D01*
X0111222Y0288421D01*
X0111284Y0288359D01*
X0111344Y0288293D01*
X0111400Y0288226D01*
X0111454Y0288155D01*
X0111504Y0288083D01*
X0111551Y0288008D01*
X0111595Y0287931D01*
X0111635Y0287852D01*
X0111672Y0287772D01*
X0111704Y0287690D01*
X0111734Y0287606D01*
X0111759Y0287522D01*
X0111781Y0287436D01*
X0111798Y0287350D01*
X0111812Y0287262D01*
X0111822Y0287174D01*
X0111828Y0287086D01*
X0111830Y0286998D01*
X0111828Y0286910D01*
X0111822Y0286822D01*
X0111812Y0286734D01*
X0111798Y0286646D01*
X0111781Y0286560D01*
X0111759Y0286474D01*
X0111734Y0286390D01*
X0111704Y0286306D01*
X0111672Y0286224D01*
X0111635Y0286144D01*
X0111595Y0286065D01*
X0111551Y0285988D01*
X0111504Y0285913D01*
X0111454Y0285841D01*
X0111400Y0285770D01*
X0111344Y0285703D01*
X0111284Y0285637D01*
X0111222Y0285575D01*
X0111156Y0285515D01*
X0111089Y0285459D01*
X0111018Y0285405D01*
X0110946Y0285355D01*
X0110871Y0285308D01*
X0110794Y0285264D01*
X0110715Y0285224D01*
X0110635Y0285187D01*
X0110553Y0285155D01*
X0110469Y0285125D01*
X0110385Y0285100D01*
X0110299Y0285078D01*
X0110213Y0285061D01*
X0110125Y0285047D01*
X0110037Y0285037D01*
X0109949Y0285031D01*
X0109861Y0285029D01*
X0109773Y0285031D01*
X0109685Y0285037D01*
X0109597Y0285047D01*
X0109509Y0285061D01*
X0109423Y0285078D01*
X0109337Y0285100D01*
X0109253Y0285125D01*
X0109169Y0285155D01*
X0109087Y0285187D01*
X0109007Y0285224D01*
X0108928Y0285264D01*
X0108851Y0285308D01*
X0108776Y0285355D01*
X0108704Y0285405D01*
X0108633Y0285459D01*
X0108566Y0285515D01*
X0108500Y0285575D01*
X0108438Y0285637D01*
X0108378Y0285703D01*
X0108322Y0285770D01*
X0108268Y0285841D01*
X0108218Y0285913D01*
X0108171Y0285988D01*
X0108127Y0286065D01*
X0108087Y0286144D01*
X0108050Y0286224D01*
X0108018Y0286306D01*
X0107988Y0286390D01*
X0107963Y0286474D01*
X0107941Y0286560D01*
X0107924Y0286646D01*
X0107910Y0286734D01*
X0107900Y0286822D01*
X0107894Y0286910D01*
X0107892Y0286998D01*
X0133089Y0310620D02*
X0133091Y0310732D01*
X0133097Y0310843D01*
X0133107Y0310955D01*
X0133121Y0311066D01*
X0133138Y0311176D01*
X0133160Y0311286D01*
X0133186Y0311395D01*
X0133215Y0311503D01*
X0133248Y0311609D01*
X0133285Y0311715D01*
X0133326Y0311819D01*
X0133371Y0311922D01*
X0133419Y0312023D01*
X0133470Y0312122D01*
X0133525Y0312219D01*
X0133584Y0312314D01*
X0133645Y0312408D01*
X0133710Y0312499D01*
X0133779Y0312587D01*
X0133850Y0312673D01*
X0133924Y0312757D01*
X0134002Y0312837D01*
X0134082Y0312915D01*
X0134165Y0312991D01*
X0134250Y0313063D01*
X0134338Y0313132D01*
X0134428Y0313198D01*
X0134521Y0313260D01*
X0134616Y0313320D01*
X0134713Y0313376D01*
X0134811Y0313428D01*
X0134912Y0313477D01*
X0135014Y0313522D01*
X0135118Y0313564D01*
X0135223Y0313602D01*
X0135330Y0313636D01*
X0135437Y0313666D01*
X0135546Y0313693D01*
X0135655Y0313715D01*
X0135766Y0313734D01*
X0135876Y0313749D01*
X0135988Y0313760D01*
X0136099Y0313767D01*
X0136211Y0313770D01*
X0136323Y0313769D01*
X0136435Y0313764D01*
X0136546Y0313755D01*
X0136657Y0313742D01*
X0136768Y0313725D01*
X0136878Y0313705D01*
X0136987Y0313680D01*
X0137095Y0313652D01*
X0137202Y0313619D01*
X0137308Y0313583D01*
X0137412Y0313543D01*
X0137515Y0313500D01*
X0137617Y0313453D01*
X0137716Y0313402D01*
X0137814Y0313348D01*
X0137910Y0313290D01*
X0138004Y0313229D01*
X0138095Y0313165D01*
X0138184Y0313098D01*
X0138271Y0313027D01*
X0138355Y0312953D01*
X0138437Y0312877D01*
X0138515Y0312797D01*
X0138591Y0312715D01*
X0138664Y0312630D01*
X0138734Y0312543D01*
X0138800Y0312453D01*
X0138864Y0312361D01*
X0138924Y0312267D01*
X0138981Y0312171D01*
X0139034Y0312072D01*
X0139084Y0311972D01*
X0139130Y0311871D01*
X0139173Y0311767D01*
X0139212Y0311662D01*
X0139247Y0311556D01*
X0139278Y0311449D01*
X0139306Y0311340D01*
X0139329Y0311231D01*
X0139349Y0311121D01*
X0139365Y0311010D01*
X0139377Y0310899D01*
X0139385Y0310788D01*
X0139389Y0310676D01*
X0139389Y0310564D01*
X0139385Y0310452D01*
X0139377Y0310341D01*
X0139365Y0310230D01*
X0139349Y0310119D01*
X0139329Y0310009D01*
X0139306Y0309900D01*
X0139278Y0309791D01*
X0139247Y0309684D01*
X0139212Y0309578D01*
X0139173Y0309473D01*
X0139130Y0309369D01*
X0139084Y0309268D01*
X0139034Y0309168D01*
X0138981Y0309069D01*
X0138924Y0308973D01*
X0138864Y0308879D01*
X0138800Y0308787D01*
X0138734Y0308697D01*
X0138664Y0308610D01*
X0138591Y0308525D01*
X0138515Y0308443D01*
X0138437Y0308363D01*
X0138355Y0308287D01*
X0138271Y0308213D01*
X0138184Y0308142D01*
X0138095Y0308075D01*
X0138004Y0308011D01*
X0137910Y0307950D01*
X0137814Y0307892D01*
X0137716Y0307838D01*
X0137617Y0307787D01*
X0137515Y0307740D01*
X0137412Y0307697D01*
X0137308Y0307657D01*
X0137202Y0307621D01*
X0137095Y0307588D01*
X0136987Y0307560D01*
X0136878Y0307535D01*
X0136768Y0307515D01*
X0136657Y0307498D01*
X0136546Y0307485D01*
X0136435Y0307476D01*
X0136323Y0307471D01*
X0136211Y0307470D01*
X0136099Y0307473D01*
X0135988Y0307480D01*
X0135876Y0307491D01*
X0135766Y0307506D01*
X0135655Y0307525D01*
X0135546Y0307547D01*
X0135437Y0307574D01*
X0135330Y0307604D01*
X0135223Y0307638D01*
X0135118Y0307676D01*
X0135014Y0307718D01*
X0134912Y0307763D01*
X0134811Y0307812D01*
X0134713Y0307864D01*
X0134616Y0307920D01*
X0134521Y0307980D01*
X0134428Y0308042D01*
X0134338Y0308108D01*
X0134250Y0308177D01*
X0134165Y0308249D01*
X0134082Y0308325D01*
X0134002Y0308403D01*
X0133924Y0308483D01*
X0133850Y0308567D01*
X0133779Y0308653D01*
X0133710Y0308741D01*
X0133645Y0308832D01*
X0133584Y0308926D01*
X0133525Y0309021D01*
X0133470Y0309118D01*
X0133419Y0309217D01*
X0133371Y0309318D01*
X0133326Y0309421D01*
X0133285Y0309525D01*
X0133248Y0309631D01*
X0133215Y0309737D01*
X0133186Y0309845D01*
X0133160Y0309954D01*
X0133138Y0310064D01*
X0133121Y0310174D01*
X0133107Y0310285D01*
X0133097Y0310397D01*
X0133091Y0310508D01*
X0133089Y0310620D01*
X0107892Y0373612D02*
X0107894Y0373700D01*
X0107900Y0373788D01*
X0107910Y0373876D01*
X0107924Y0373964D01*
X0107941Y0374050D01*
X0107963Y0374136D01*
X0107988Y0374220D01*
X0108018Y0374304D01*
X0108050Y0374386D01*
X0108087Y0374466D01*
X0108127Y0374545D01*
X0108171Y0374622D01*
X0108218Y0374697D01*
X0108268Y0374769D01*
X0108322Y0374840D01*
X0108378Y0374907D01*
X0108438Y0374973D01*
X0108500Y0375035D01*
X0108566Y0375095D01*
X0108633Y0375151D01*
X0108704Y0375205D01*
X0108776Y0375255D01*
X0108851Y0375302D01*
X0108928Y0375346D01*
X0109007Y0375386D01*
X0109087Y0375423D01*
X0109169Y0375455D01*
X0109253Y0375485D01*
X0109337Y0375510D01*
X0109423Y0375532D01*
X0109509Y0375549D01*
X0109597Y0375563D01*
X0109685Y0375573D01*
X0109773Y0375579D01*
X0109861Y0375581D01*
X0109949Y0375579D01*
X0110037Y0375573D01*
X0110125Y0375563D01*
X0110213Y0375549D01*
X0110299Y0375532D01*
X0110385Y0375510D01*
X0110469Y0375485D01*
X0110553Y0375455D01*
X0110635Y0375423D01*
X0110715Y0375386D01*
X0110794Y0375346D01*
X0110871Y0375302D01*
X0110946Y0375255D01*
X0111018Y0375205D01*
X0111089Y0375151D01*
X0111156Y0375095D01*
X0111222Y0375035D01*
X0111284Y0374973D01*
X0111344Y0374907D01*
X0111400Y0374840D01*
X0111454Y0374769D01*
X0111504Y0374697D01*
X0111551Y0374622D01*
X0111595Y0374545D01*
X0111635Y0374466D01*
X0111672Y0374386D01*
X0111704Y0374304D01*
X0111734Y0374220D01*
X0111759Y0374136D01*
X0111781Y0374050D01*
X0111798Y0373964D01*
X0111812Y0373876D01*
X0111822Y0373788D01*
X0111828Y0373700D01*
X0111830Y0373612D01*
X0111828Y0373524D01*
X0111822Y0373436D01*
X0111812Y0373348D01*
X0111798Y0373260D01*
X0111781Y0373174D01*
X0111759Y0373088D01*
X0111734Y0373004D01*
X0111704Y0372920D01*
X0111672Y0372838D01*
X0111635Y0372758D01*
X0111595Y0372679D01*
X0111551Y0372602D01*
X0111504Y0372527D01*
X0111454Y0372455D01*
X0111400Y0372384D01*
X0111344Y0372317D01*
X0111284Y0372251D01*
X0111222Y0372189D01*
X0111156Y0372129D01*
X0111089Y0372073D01*
X0111018Y0372019D01*
X0110946Y0371969D01*
X0110871Y0371922D01*
X0110794Y0371878D01*
X0110715Y0371838D01*
X0110635Y0371801D01*
X0110553Y0371769D01*
X0110469Y0371739D01*
X0110385Y0371714D01*
X0110299Y0371692D01*
X0110213Y0371675D01*
X0110125Y0371661D01*
X0110037Y0371651D01*
X0109949Y0371645D01*
X0109861Y0371643D01*
X0109773Y0371645D01*
X0109685Y0371651D01*
X0109597Y0371661D01*
X0109509Y0371675D01*
X0109423Y0371692D01*
X0109337Y0371714D01*
X0109253Y0371739D01*
X0109169Y0371769D01*
X0109087Y0371801D01*
X0109007Y0371838D01*
X0108928Y0371878D01*
X0108851Y0371922D01*
X0108776Y0371969D01*
X0108704Y0372019D01*
X0108633Y0372073D01*
X0108566Y0372129D01*
X0108500Y0372189D01*
X0108438Y0372251D01*
X0108378Y0372317D01*
X0108322Y0372384D01*
X0108268Y0372455D01*
X0108218Y0372527D01*
X0108171Y0372602D01*
X0108127Y0372679D01*
X0108087Y0372758D01*
X0108050Y0372838D01*
X0108018Y0372920D01*
X0107988Y0373004D01*
X0107963Y0373088D01*
X0107941Y0373174D01*
X0107924Y0373260D01*
X0107910Y0373348D01*
X0107900Y0373436D01*
X0107894Y0373524D01*
X0107892Y0373612D01*
X0133089Y0397234D02*
X0133091Y0397346D01*
X0133097Y0397457D01*
X0133107Y0397569D01*
X0133121Y0397680D01*
X0133138Y0397790D01*
X0133160Y0397900D01*
X0133186Y0398009D01*
X0133215Y0398117D01*
X0133248Y0398223D01*
X0133285Y0398329D01*
X0133326Y0398433D01*
X0133371Y0398536D01*
X0133419Y0398637D01*
X0133470Y0398736D01*
X0133525Y0398833D01*
X0133584Y0398928D01*
X0133645Y0399022D01*
X0133710Y0399113D01*
X0133779Y0399201D01*
X0133850Y0399287D01*
X0133924Y0399371D01*
X0134002Y0399451D01*
X0134082Y0399529D01*
X0134165Y0399605D01*
X0134250Y0399677D01*
X0134338Y0399746D01*
X0134428Y0399812D01*
X0134521Y0399874D01*
X0134616Y0399934D01*
X0134713Y0399990D01*
X0134811Y0400042D01*
X0134912Y0400091D01*
X0135014Y0400136D01*
X0135118Y0400178D01*
X0135223Y0400216D01*
X0135330Y0400250D01*
X0135437Y0400280D01*
X0135546Y0400307D01*
X0135655Y0400329D01*
X0135766Y0400348D01*
X0135876Y0400363D01*
X0135988Y0400374D01*
X0136099Y0400381D01*
X0136211Y0400384D01*
X0136323Y0400383D01*
X0136435Y0400378D01*
X0136546Y0400369D01*
X0136657Y0400356D01*
X0136768Y0400339D01*
X0136878Y0400319D01*
X0136987Y0400294D01*
X0137095Y0400266D01*
X0137202Y0400233D01*
X0137308Y0400197D01*
X0137412Y0400157D01*
X0137515Y0400114D01*
X0137617Y0400067D01*
X0137716Y0400016D01*
X0137814Y0399962D01*
X0137910Y0399904D01*
X0138004Y0399843D01*
X0138095Y0399779D01*
X0138184Y0399712D01*
X0138271Y0399641D01*
X0138355Y0399567D01*
X0138437Y0399491D01*
X0138515Y0399411D01*
X0138591Y0399329D01*
X0138664Y0399244D01*
X0138734Y0399157D01*
X0138800Y0399067D01*
X0138864Y0398975D01*
X0138924Y0398881D01*
X0138981Y0398785D01*
X0139034Y0398686D01*
X0139084Y0398586D01*
X0139130Y0398485D01*
X0139173Y0398381D01*
X0139212Y0398276D01*
X0139247Y0398170D01*
X0139278Y0398063D01*
X0139306Y0397954D01*
X0139329Y0397845D01*
X0139349Y0397735D01*
X0139365Y0397624D01*
X0139377Y0397513D01*
X0139385Y0397402D01*
X0139389Y0397290D01*
X0139389Y0397178D01*
X0139385Y0397066D01*
X0139377Y0396955D01*
X0139365Y0396844D01*
X0139349Y0396733D01*
X0139329Y0396623D01*
X0139306Y0396514D01*
X0139278Y0396405D01*
X0139247Y0396298D01*
X0139212Y0396192D01*
X0139173Y0396087D01*
X0139130Y0395983D01*
X0139084Y0395882D01*
X0139034Y0395782D01*
X0138981Y0395683D01*
X0138924Y0395587D01*
X0138864Y0395493D01*
X0138800Y0395401D01*
X0138734Y0395311D01*
X0138664Y0395224D01*
X0138591Y0395139D01*
X0138515Y0395057D01*
X0138437Y0394977D01*
X0138355Y0394901D01*
X0138271Y0394827D01*
X0138184Y0394756D01*
X0138095Y0394689D01*
X0138004Y0394625D01*
X0137910Y0394564D01*
X0137814Y0394506D01*
X0137716Y0394452D01*
X0137617Y0394401D01*
X0137515Y0394354D01*
X0137412Y0394311D01*
X0137308Y0394271D01*
X0137202Y0394235D01*
X0137095Y0394202D01*
X0136987Y0394174D01*
X0136878Y0394149D01*
X0136768Y0394129D01*
X0136657Y0394112D01*
X0136546Y0394099D01*
X0136435Y0394090D01*
X0136323Y0394085D01*
X0136211Y0394084D01*
X0136099Y0394087D01*
X0135988Y0394094D01*
X0135876Y0394105D01*
X0135766Y0394120D01*
X0135655Y0394139D01*
X0135546Y0394161D01*
X0135437Y0394188D01*
X0135330Y0394218D01*
X0135223Y0394252D01*
X0135118Y0394290D01*
X0135014Y0394332D01*
X0134912Y0394377D01*
X0134811Y0394426D01*
X0134713Y0394478D01*
X0134616Y0394534D01*
X0134521Y0394594D01*
X0134428Y0394656D01*
X0134338Y0394722D01*
X0134250Y0394791D01*
X0134165Y0394863D01*
X0134082Y0394939D01*
X0134002Y0395017D01*
X0133924Y0395097D01*
X0133850Y0395181D01*
X0133779Y0395267D01*
X0133710Y0395355D01*
X0133645Y0395446D01*
X0133584Y0395540D01*
X0133525Y0395635D01*
X0133470Y0395732D01*
X0133419Y0395831D01*
X0133371Y0395932D01*
X0133326Y0396035D01*
X0133285Y0396139D01*
X0133248Y0396245D01*
X0133215Y0396351D01*
X0133186Y0396459D01*
X0133160Y0396568D01*
X0133138Y0396678D01*
X0133121Y0396788D01*
X0133107Y0396899D01*
X0133097Y0397011D01*
X0133091Y0397122D01*
X0133089Y0397234D01*
X0107892Y0460226D02*
X0107894Y0460314D01*
X0107900Y0460402D01*
X0107910Y0460490D01*
X0107924Y0460578D01*
X0107941Y0460664D01*
X0107963Y0460750D01*
X0107988Y0460834D01*
X0108018Y0460918D01*
X0108050Y0461000D01*
X0108087Y0461080D01*
X0108127Y0461159D01*
X0108171Y0461236D01*
X0108218Y0461311D01*
X0108268Y0461383D01*
X0108322Y0461454D01*
X0108378Y0461521D01*
X0108438Y0461587D01*
X0108500Y0461649D01*
X0108566Y0461709D01*
X0108633Y0461765D01*
X0108704Y0461819D01*
X0108776Y0461869D01*
X0108851Y0461916D01*
X0108928Y0461960D01*
X0109007Y0462000D01*
X0109087Y0462037D01*
X0109169Y0462069D01*
X0109253Y0462099D01*
X0109337Y0462124D01*
X0109423Y0462146D01*
X0109509Y0462163D01*
X0109597Y0462177D01*
X0109685Y0462187D01*
X0109773Y0462193D01*
X0109861Y0462195D01*
X0109949Y0462193D01*
X0110037Y0462187D01*
X0110125Y0462177D01*
X0110213Y0462163D01*
X0110299Y0462146D01*
X0110385Y0462124D01*
X0110469Y0462099D01*
X0110553Y0462069D01*
X0110635Y0462037D01*
X0110715Y0462000D01*
X0110794Y0461960D01*
X0110871Y0461916D01*
X0110946Y0461869D01*
X0111018Y0461819D01*
X0111089Y0461765D01*
X0111156Y0461709D01*
X0111222Y0461649D01*
X0111284Y0461587D01*
X0111344Y0461521D01*
X0111400Y0461454D01*
X0111454Y0461383D01*
X0111504Y0461311D01*
X0111551Y0461236D01*
X0111595Y0461159D01*
X0111635Y0461080D01*
X0111672Y0461000D01*
X0111704Y0460918D01*
X0111734Y0460834D01*
X0111759Y0460750D01*
X0111781Y0460664D01*
X0111798Y0460578D01*
X0111812Y0460490D01*
X0111822Y0460402D01*
X0111828Y0460314D01*
X0111830Y0460226D01*
X0111828Y0460138D01*
X0111822Y0460050D01*
X0111812Y0459962D01*
X0111798Y0459874D01*
X0111781Y0459788D01*
X0111759Y0459702D01*
X0111734Y0459618D01*
X0111704Y0459534D01*
X0111672Y0459452D01*
X0111635Y0459372D01*
X0111595Y0459293D01*
X0111551Y0459216D01*
X0111504Y0459141D01*
X0111454Y0459069D01*
X0111400Y0458998D01*
X0111344Y0458931D01*
X0111284Y0458865D01*
X0111222Y0458803D01*
X0111156Y0458743D01*
X0111089Y0458687D01*
X0111018Y0458633D01*
X0110946Y0458583D01*
X0110871Y0458536D01*
X0110794Y0458492D01*
X0110715Y0458452D01*
X0110635Y0458415D01*
X0110553Y0458383D01*
X0110469Y0458353D01*
X0110385Y0458328D01*
X0110299Y0458306D01*
X0110213Y0458289D01*
X0110125Y0458275D01*
X0110037Y0458265D01*
X0109949Y0458259D01*
X0109861Y0458257D01*
X0109773Y0458259D01*
X0109685Y0458265D01*
X0109597Y0458275D01*
X0109509Y0458289D01*
X0109423Y0458306D01*
X0109337Y0458328D01*
X0109253Y0458353D01*
X0109169Y0458383D01*
X0109087Y0458415D01*
X0109007Y0458452D01*
X0108928Y0458492D01*
X0108851Y0458536D01*
X0108776Y0458583D01*
X0108704Y0458633D01*
X0108633Y0458687D01*
X0108566Y0458743D01*
X0108500Y0458803D01*
X0108438Y0458865D01*
X0108378Y0458931D01*
X0108322Y0458998D01*
X0108268Y0459069D01*
X0108218Y0459141D01*
X0108171Y0459216D01*
X0108127Y0459293D01*
X0108087Y0459372D01*
X0108050Y0459452D01*
X0108018Y0459534D01*
X0107988Y0459618D01*
X0107963Y0459702D01*
X0107941Y0459788D01*
X0107924Y0459874D01*
X0107910Y0459962D01*
X0107900Y0460050D01*
X0107894Y0460138D01*
X0107892Y0460226D01*
X0133089Y0483848D02*
X0133091Y0483960D01*
X0133097Y0484071D01*
X0133107Y0484183D01*
X0133121Y0484294D01*
X0133138Y0484404D01*
X0133160Y0484514D01*
X0133186Y0484623D01*
X0133215Y0484731D01*
X0133248Y0484837D01*
X0133285Y0484943D01*
X0133326Y0485047D01*
X0133371Y0485150D01*
X0133419Y0485251D01*
X0133470Y0485350D01*
X0133525Y0485447D01*
X0133584Y0485542D01*
X0133645Y0485636D01*
X0133710Y0485727D01*
X0133779Y0485815D01*
X0133850Y0485901D01*
X0133924Y0485985D01*
X0134002Y0486065D01*
X0134082Y0486143D01*
X0134165Y0486219D01*
X0134250Y0486291D01*
X0134338Y0486360D01*
X0134428Y0486426D01*
X0134521Y0486488D01*
X0134616Y0486548D01*
X0134713Y0486604D01*
X0134811Y0486656D01*
X0134912Y0486705D01*
X0135014Y0486750D01*
X0135118Y0486792D01*
X0135223Y0486830D01*
X0135330Y0486864D01*
X0135437Y0486894D01*
X0135546Y0486921D01*
X0135655Y0486943D01*
X0135766Y0486962D01*
X0135876Y0486977D01*
X0135988Y0486988D01*
X0136099Y0486995D01*
X0136211Y0486998D01*
X0136323Y0486997D01*
X0136435Y0486992D01*
X0136546Y0486983D01*
X0136657Y0486970D01*
X0136768Y0486953D01*
X0136878Y0486933D01*
X0136987Y0486908D01*
X0137095Y0486880D01*
X0137202Y0486847D01*
X0137308Y0486811D01*
X0137412Y0486771D01*
X0137515Y0486728D01*
X0137617Y0486681D01*
X0137716Y0486630D01*
X0137814Y0486576D01*
X0137910Y0486518D01*
X0138004Y0486457D01*
X0138095Y0486393D01*
X0138184Y0486326D01*
X0138271Y0486255D01*
X0138355Y0486181D01*
X0138437Y0486105D01*
X0138515Y0486025D01*
X0138591Y0485943D01*
X0138664Y0485858D01*
X0138734Y0485771D01*
X0138800Y0485681D01*
X0138864Y0485589D01*
X0138924Y0485495D01*
X0138981Y0485399D01*
X0139034Y0485300D01*
X0139084Y0485200D01*
X0139130Y0485099D01*
X0139173Y0484995D01*
X0139212Y0484890D01*
X0139247Y0484784D01*
X0139278Y0484677D01*
X0139306Y0484568D01*
X0139329Y0484459D01*
X0139349Y0484349D01*
X0139365Y0484238D01*
X0139377Y0484127D01*
X0139385Y0484016D01*
X0139389Y0483904D01*
X0139389Y0483792D01*
X0139385Y0483680D01*
X0139377Y0483569D01*
X0139365Y0483458D01*
X0139349Y0483347D01*
X0139329Y0483237D01*
X0139306Y0483128D01*
X0139278Y0483019D01*
X0139247Y0482912D01*
X0139212Y0482806D01*
X0139173Y0482701D01*
X0139130Y0482597D01*
X0139084Y0482496D01*
X0139034Y0482396D01*
X0138981Y0482297D01*
X0138924Y0482201D01*
X0138864Y0482107D01*
X0138800Y0482015D01*
X0138734Y0481925D01*
X0138664Y0481838D01*
X0138591Y0481753D01*
X0138515Y0481671D01*
X0138437Y0481591D01*
X0138355Y0481515D01*
X0138271Y0481441D01*
X0138184Y0481370D01*
X0138095Y0481303D01*
X0138004Y0481239D01*
X0137910Y0481178D01*
X0137814Y0481120D01*
X0137716Y0481066D01*
X0137617Y0481015D01*
X0137515Y0480968D01*
X0137412Y0480925D01*
X0137308Y0480885D01*
X0137202Y0480849D01*
X0137095Y0480816D01*
X0136987Y0480788D01*
X0136878Y0480763D01*
X0136768Y0480743D01*
X0136657Y0480726D01*
X0136546Y0480713D01*
X0136435Y0480704D01*
X0136323Y0480699D01*
X0136211Y0480698D01*
X0136099Y0480701D01*
X0135988Y0480708D01*
X0135876Y0480719D01*
X0135766Y0480734D01*
X0135655Y0480753D01*
X0135546Y0480775D01*
X0135437Y0480802D01*
X0135330Y0480832D01*
X0135223Y0480866D01*
X0135118Y0480904D01*
X0135014Y0480946D01*
X0134912Y0480991D01*
X0134811Y0481040D01*
X0134713Y0481092D01*
X0134616Y0481148D01*
X0134521Y0481208D01*
X0134428Y0481270D01*
X0134338Y0481336D01*
X0134250Y0481405D01*
X0134165Y0481477D01*
X0134082Y0481553D01*
X0134002Y0481631D01*
X0133924Y0481711D01*
X0133850Y0481795D01*
X0133779Y0481881D01*
X0133710Y0481969D01*
X0133645Y0482060D01*
X0133584Y0482154D01*
X0133525Y0482249D01*
X0133470Y0482346D01*
X0133419Y0482445D01*
X0133371Y0482546D01*
X0133326Y0482649D01*
X0133285Y0482753D01*
X0133248Y0482859D01*
X0133215Y0482965D01*
X0133186Y0483073D01*
X0133160Y0483182D01*
X0133138Y0483292D01*
X0133121Y0483402D01*
X0133107Y0483513D01*
X0133097Y0483625D01*
X0133091Y0483736D01*
X0133089Y0483848D01*
X0107892Y0546841D02*
X0107894Y0546929D01*
X0107900Y0547017D01*
X0107910Y0547105D01*
X0107924Y0547193D01*
X0107941Y0547279D01*
X0107963Y0547365D01*
X0107988Y0547449D01*
X0108018Y0547533D01*
X0108050Y0547615D01*
X0108087Y0547695D01*
X0108127Y0547774D01*
X0108171Y0547851D01*
X0108218Y0547926D01*
X0108268Y0547998D01*
X0108322Y0548069D01*
X0108378Y0548136D01*
X0108438Y0548202D01*
X0108500Y0548264D01*
X0108566Y0548324D01*
X0108633Y0548380D01*
X0108704Y0548434D01*
X0108776Y0548484D01*
X0108851Y0548531D01*
X0108928Y0548575D01*
X0109007Y0548615D01*
X0109087Y0548652D01*
X0109169Y0548684D01*
X0109253Y0548714D01*
X0109337Y0548739D01*
X0109423Y0548761D01*
X0109509Y0548778D01*
X0109597Y0548792D01*
X0109685Y0548802D01*
X0109773Y0548808D01*
X0109861Y0548810D01*
X0109949Y0548808D01*
X0110037Y0548802D01*
X0110125Y0548792D01*
X0110213Y0548778D01*
X0110299Y0548761D01*
X0110385Y0548739D01*
X0110469Y0548714D01*
X0110553Y0548684D01*
X0110635Y0548652D01*
X0110715Y0548615D01*
X0110794Y0548575D01*
X0110871Y0548531D01*
X0110946Y0548484D01*
X0111018Y0548434D01*
X0111089Y0548380D01*
X0111156Y0548324D01*
X0111222Y0548264D01*
X0111284Y0548202D01*
X0111344Y0548136D01*
X0111400Y0548069D01*
X0111454Y0547998D01*
X0111504Y0547926D01*
X0111551Y0547851D01*
X0111595Y0547774D01*
X0111635Y0547695D01*
X0111672Y0547615D01*
X0111704Y0547533D01*
X0111734Y0547449D01*
X0111759Y0547365D01*
X0111781Y0547279D01*
X0111798Y0547193D01*
X0111812Y0547105D01*
X0111822Y0547017D01*
X0111828Y0546929D01*
X0111830Y0546841D01*
X0111828Y0546753D01*
X0111822Y0546665D01*
X0111812Y0546577D01*
X0111798Y0546489D01*
X0111781Y0546403D01*
X0111759Y0546317D01*
X0111734Y0546233D01*
X0111704Y0546149D01*
X0111672Y0546067D01*
X0111635Y0545987D01*
X0111595Y0545908D01*
X0111551Y0545831D01*
X0111504Y0545756D01*
X0111454Y0545684D01*
X0111400Y0545613D01*
X0111344Y0545546D01*
X0111284Y0545480D01*
X0111222Y0545418D01*
X0111156Y0545358D01*
X0111089Y0545302D01*
X0111018Y0545248D01*
X0110946Y0545198D01*
X0110871Y0545151D01*
X0110794Y0545107D01*
X0110715Y0545067D01*
X0110635Y0545030D01*
X0110553Y0544998D01*
X0110469Y0544968D01*
X0110385Y0544943D01*
X0110299Y0544921D01*
X0110213Y0544904D01*
X0110125Y0544890D01*
X0110037Y0544880D01*
X0109949Y0544874D01*
X0109861Y0544872D01*
X0109773Y0544874D01*
X0109685Y0544880D01*
X0109597Y0544890D01*
X0109509Y0544904D01*
X0109423Y0544921D01*
X0109337Y0544943D01*
X0109253Y0544968D01*
X0109169Y0544998D01*
X0109087Y0545030D01*
X0109007Y0545067D01*
X0108928Y0545107D01*
X0108851Y0545151D01*
X0108776Y0545198D01*
X0108704Y0545248D01*
X0108633Y0545302D01*
X0108566Y0545358D01*
X0108500Y0545418D01*
X0108438Y0545480D01*
X0108378Y0545546D01*
X0108322Y0545613D01*
X0108268Y0545684D01*
X0108218Y0545756D01*
X0108171Y0545831D01*
X0108127Y0545908D01*
X0108087Y0545987D01*
X0108050Y0546067D01*
X0108018Y0546149D01*
X0107988Y0546233D01*
X0107963Y0546317D01*
X0107941Y0546403D01*
X0107924Y0546489D01*
X0107910Y0546577D01*
X0107900Y0546665D01*
X0107894Y0546753D01*
X0107892Y0546841D01*
X0133089Y0570463D02*
X0133091Y0570575D01*
X0133097Y0570686D01*
X0133107Y0570798D01*
X0133121Y0570909D01*
X0133138Y0571019D01*
X0133160Y0571129D01*
X0133186Y0571238D01*
X0133215Y0571346D01*
X0133248Y0571452D01*
X0133285Y0571558D01*
X0133326Y0571662D01*
X0133371Y0571765D01*
X0133419Y0571866D01*
X0133470Y0571965D01*
X0133525Y0572062D01*
X0133584Y0572157D01*
X0133645Y0572251D01*
X0133710Y0572342D01*
X0133779Y0572430D01*
X0133850Y0572516D01*
X0133924Y0572600D01*
X0134002Y0572680D01*
X0134082Y0572758D01*
X0134165Y0572834D01*
X0134250Y0572906D01*
X0134338Y0572975D01*
X0134428Y0573041D01*
X0134521Y0573103D01*
X0134616Y0573163D01*
X0134713Y0573219D01*
X0134811Y0573271D01*
X0134912Y0573320D01*
X0135014Y0573365D01*
X0135118Y0573407D01*
X0135223Y0573445D01*
X0135330Y0573479D01*
X0135437Y0573509D01*
X0135546Y0573536D01*
X0135655Y0573558D01*
X0135766Y0573577D01*
X0135876Y0573592D01*
X0135988Y0573603D01*
X0136099Y0573610D01*
X0136211Y0573613D01*
X0136323Y0573612D01*
X0136435Y0573607D01*
X0136546Y0573598D01*
X0136657Y0573585D01*
X0136768Y0573568D01*
X0136878Y0573548D01*
X0136987Y0573523D01*
X0137095Y0573495D01*
X0137202Y0573462D01*
X0137308Y0573426D01*
X0137412Y0573386D01*
X0137515Y0573343D01*
X0137617Y0573296D01*
X0137716Y0573245D01*
X0137814Y0573191D01*
X0137910Y0573133D01*
X0138004Y0573072D01*
X0138095Y0573008D01*
X0138184Y0572941D01*
X0138271Y0572870D01*
X0138355Y0572796D01*
X0138437Y0572720D01*
X0138515Y0572640D01*
X0138591Y0572558D01*
X0138664Y0572473D01*
X0138734Y0572386D01*
X0138800Y0572296D01*
X0138864Y0572204D01*
X0138924Y0572110D01*
X0138981Y0572014D01*
X0139034Y0571915D01*
X0139084Y0571815D01*
X0139130Y0571714D01*
X0139173Y0571610D01*
X0139212Y0571505D01*
X0139247Y0571399D01*
X0139278Y0571292D01*
X0139306Y0571183D01*
X0139329Y0571074D01*
X0139349Y0570964D01*
X0139365Y0570853D01*
X0139377Y0570742D01*
X0139385Y0570631D01*
X0139389Y0570519D01*
X0139389Y0570407D01*
X0139385Y0570295D01*
X0139377Y0570184D01*
X0139365Y0570073D01*
X0139349Y0569962D01*
X0139329Y0569852D01*
X0139306Y0569743D01*
X0139278Y0569634D01*
X0139247Y0569527D01*
X0139212Y0569421D01*
X0139173Y0569316D01*
X0139130Y0569212D01*
X0139084Y0569111D01*
X0139034Y0569011D01*
X0138981Y0568912D01*
X0138924Y0568816D01*
X0138864Y0568722D01*
X0138800Y0568630D01*
X0138734Y0568540D01*
X0138664Y0568453D01*
X0138591Y0568368D01*
X0138515Y0568286D01*
X0138437Y0568206D01*
X0138355Y0568130D01*
X0138271Y0568056D01*
X0138184Y0567985D01*
X0138095Y0567918D01*
X0138004Y0567854D01*
X0137910Y0567793D01*
X0137814Y0567735D01*
X0137716Y0567681D01*
X0137617Y0567630D01*
X0137515Y0567583D01*
X0137412Y0567540D01*
X0137308Y0567500D01*
X0137202Y0567464D01*
X0137095Y0567431D01*
X0136987Y0567403D01*
X0136878Y0567378D01*
X0136768Y0567358D01*
X0136657Y0567341D01*
X0136546Y0567328D01*
X0136435Y0567319D01*
X0136323Y0567314D01*
X0136211Y0567313D01*
X0136099Y0567316D01*
X0135988Y0567323D01*
X0135876Y0567334D01*
X0135766Y0567349D01*
X0135655Y0567368D01*
X0135546Y0567390D01*
X0135437Y0567417D01*
X0135330Y0567447D01*
X0135223Y0567481D01*
X0135118Y0567519D01*
X0135014Y0567561D01*
X0134912Y0567606D01*
X0134811Y0567655D01*
X0134713Y0567707D01*
X0134616Y0567763D01*
X0134521Y0567823D01*
X0134428Y0567885D01*
X0134338Y0567951D01*
X0134250Y0568020D01*
X0134165Y0568092D01*
X0134082Y0568168D01*
X0134002Y0568246D01*
X0133924Y0568326D01*
X0133850Y0568410D01*
X0133779Y0568496D01*
X0133710Y0568584D01*
X0133645Y0568675D01*
X0133584Y0568769D01*
X0133525Y0568864D01*
X0133470Y0568961D01*
X0133419Y0569060D01*
X0133371Y0569161D01*
X0133326Y0569264D01*
X0133285Y0569368D01*
X0133248Y0569474D01*
X0133215Y0569580D01*
X0133186Y0569688D01*
X0133160Y0569797D01*
X0133138Y0569907D01*
X0133121Y0570017D01*
X0133107Y0570128D01*
X0133097Y0570240D01*
X0133091Y0570351D01*
X0133089Y0570463D01*
X0107892Y0633455D02*
X0107894Y0633543D01*
X0107900Y0633631D01*
X0107910Y0633719D01*
X0107924Y0633807D01*
X0107941Y0633893D01*
X0107963Y0633979D01*
X0107988Y0634063D01*
X0108018Y0634147D01*
X0108050Y0634229D01*
X0108087Y0634309D01*
X0108127Y0634388D01*
X0108171Y0634465D01*
X0108218Y0634540D01*
X0108268Y0634612D01*
X0108322Y0634683D01*
X0108378Y0634750D01*
X0108438Y0634816D01*
X0108500Y0634878D01*
X0108566Y0634938D01*
X0108633Y0634994D01*
X0108704Y0635048D01*
X0108776Y0635098D01*
X0108851Y0635145D01*
X0108928Y0635189D01*
X0109007Y0635229D01*
X0109087Y0635266D01*
X0109169Y0635298D01*
X0109253Y0635328D01*
X0109337Y0635353D01*
X0109423Y0635375D01*
X0109509Y0635392D01*
X0109597Y0635406D01*
X0109685Y0635416D01*
X0109773Y0635422D01*
X0109861Y0635424D01*
X0109949Y0635422D01*
X0110037Y0635416D01*
X0110125Y0635406D01*
X0110213Y0635392D01*
X0110299Y0635375D01*
X0110385Y0635353D01*
X0110469Y0635328D01*
X0110553Y0635298D01*
X0110635Y0635266D01*
X0110715Y0635229D01*
X0110794Y0635189D01*
X0110871Y0635145D01*
X0110946Y0635098D01*
X0111018Y0635048D01*
X0111089Y0634994D01*
X0111156Y0634938D01*
X0111222Y0634878D01*
X0111284Y0634816D01*
X0111344Y0634750D01*
X0111400Y0634683D01*
X0111454Y0634612D01*
X0111504Y0634540D01*
X0111551Y0634465D01*
X0111595Y0634388D01*
X0111635Y0634309D01*
X0111672Y0634229D01*
X0111704Y0634147D01*
X0111734Y0634063D01*
X0111759Y0633979D01*
X0111781Y0633893D01*
X0111798Y0633807D01*
X0111812Y0633719D01*
X0111822Y0633631D01*
X0111828Y0633543D01*
X0111830Y0633455D01*
X0111828Y0633367D01*
X0111822Y0633279D01*
X0111812Y0633191D01*
X0111798Y0633103D01*
X0111781Y0633017D01*
X0111759Y0632931D01*
X0111734Y0632847D01*
X0111704Y0632763D01*
X0111672Y0632681D01*
X0111635Y0632601D01*
X0111595Y0632522D01*
X0111551Y0632445D01*
X0111504Y0632370D01*
X0111454Y0632298D01*
X0111400Y0632227D01*
X0111344Y0632160D01*
X0111284Y0632094D01*
X0111222Y0632032D01*
X0111156Y0631972D01*
X0111089Y0631916D01*
X0111018Y0631862D01*
X0110946Y0631812D01*
X0110871Y0631765D01*
X0110794Y0631721D01*
X0110715Y0631681D01*
X0110635Y0631644D01*
X0110553Y0631612D01*
X0110469Y0631582D01*
X0110385Y0631557D01*
X0110299Y0631535D01*
X0110213Y0631518D01*
X0110125Y0631504D01*
X0110037Y0631494D01*
X0109949Y0631488D01*
X0109861Y0631486D01*
X0109773Y0631488D01*
X0109685Y0631494D01*
X0109597Y0631504D01*
X0109509Y0631518D01*
X0109423Y0631535D01*
X0109337Y0631557D01*
X0109253Y0631582D01*
X0109169Y0631612D01*
X0109087Y0631644D01*
X0109007Y0631681D01*
X0108928Y0631721D01*
X0108851Y0631765D01*
X0108776Y0631812D01*
X0108704Y0631862D01*
X0108633Y0631916D01*
X0108566Y0631972D01*
X0108500Y0632032D01*
X0108438Y0632094D01*
X0108378Y0632160D01*
X0108322Y0632227D01*
X0108268Y0632298D01*
X0108218Y0632370D01*
X0108171Y0632445D01*
X0108127Y0632522D01*
X0108087Y0632601D01*
X0108050Y0632681D01*
X0108018Y0632763D01*
X0107988Y0632847D01*
X0107963Y0632931D01*
X0107941Y0633017D01*
X0107924Y0633103D01*
X0107910Y0633191D01*
X0107900Y0633279D01*
X0107894Y0633367D01*
X0107892Y0633455D01*
X0133089Y0657077D02*
X0133091Y0657189D01*
X0133097Y0657300D01*
X0133107Y0657412D01*
X0133121Y0657523D01*
X0133138Y0657633D01*
X0133160Y0657743D01*
X0133186Y0657852D01*
X0133215Y0657960D01*
X0133248Y0658066D01*
X0133285Y0658172D01*
X0133326Y0658276D01*
X0133371Y0658379D01*
X0133419Y0658480D01*
X0133470Y0658579D01*
X0133525Y0658676D01*
X0133584Y0658771D01*
X0133645Y0658865D01*
X0133710Y0658956D01*
X0133779Y0659044D01*
X0133850Y0659130D01*
X0133924Y0659214D01*
X0134002Y0659294D01*
X0134082Y0659372D01*
X0134165Y0659448D01*
X0134250Y0659520D01*
X0134338Y0659589D01*
X0134428Y0659655D01*
X0134521Y0659717D01*
X0134616Y0659777D01*
X0134713Y0659833D01*
X0134811Y0659885D01*
X0134912Y0659934D01*
X0135014Y0659979D01*
X0135118Y0660021D01*
X0135223Y0660059D01*
X0135330Y0660093D01*
X0135437Y0660123D01*
X0135546Y0660150D01*
X0135655Y0660172D01*
X0135766Y0660191D01*
X0135876Y0660206D01*
X0135988Y0660217D01*
X0136099Y0660224D01*
X0136211Y0660227D01*
X0136323Y0660226D01*
X0136435Y0660221D01*
X0136546Y0660212D01*
X0136657Y0660199D01*
X0136768Y0660182D01*
X0136878Y0660162D01*
X0136987Y0660137D01*
X0137095Y0660109D01*
X0137202Y0660076D01*
X0137308Y0660040D01*
X0137412Y0660000D01*
X0137515Y0659957D01*
X0137617Y0659910D01*
X0137716Y0659859D01*
X0137814Y0659805D01*
X0137910Y0659747D01*
X0138004Y0659686D01*
X0138095Y0659622D01*
X0138184Y0659555D01*
X0138271Y0659484D01*
X0138355Y0659410D01*
X0138437Y0659334D01*
X0138515Y0659254D01*
X0138591Y0659172D01*
X0138664Y0659087D01*
X0138734Y0659000D01*
X0138800Y0658910D01*
X0138864Y0658818D01*
X0138924Y0658724D01*
X0138981Y0658628D01*
X0139034Y0658529D01*
X0139084Y0658429D01*
X0139130Y0658328D01*
X0139173Y0658224D01*
X0139212Y0658119D01*
X0139247Y0658013D01*
X0139278Y0657906D01*
X0139306Y0657797D01*
X0139329Y0657688D01*
X0139349Y0657578D01*
X0139365Y0657467D01*
X0139377Y0657356D01*
X0139385Y0657245D01*
X0139389Y0657133D01*
X0139389Y0657021D01*
X0139385Y0656909D01*
X0139377Y0656798D01*
X0139365Y0656687D01*
X0139349Y0656576D01*
X0139329Y0656466D01*
X0139306Y0656357D01*
X0139278Y0656248D01*
X0139247Y0656141D01*
X0139212Y0656035D01*
X0139173Y0655930D01*
X0139130Y0655826D01*
X0139084Y0655725D01*
X0139034Y0655625D01*
X0138981Y0655526D01*
X0138924Y0655430D01*
X0138864Y0655336D01*
X0138800Y0655244D01*
X0138734Y0655154D01*
X0138664Y0655067D01*
X0138591Y0654982D01*
X0138515Y0654900D01*
X0138437Y0654820D01*
X0138355Y0654744D01*
X0138271Y0654670D01*
X0138184Y0654599D01*
X0138095Y0654532D01*
X0138004Y0654468D01*
X0137910Y0654407D01*
X0137814Y0654349D01*
X0137716Y0654295D01*
X0137617Y0654244D01*
X0137515Y0654197D01*
X0137412Y0654154D01*
X0137308Y0654114D01*
X0137202Y0654078D01*
X0137095Y0654045D01*
X0136987Y0654017D01*
X0136878Y0653992D01*
X0136768Y0653972D01*
X0136657Y0653955D01*
X0136546Y0653942D01*
X0136435Y0653933D01*
X0136323Y0653928D01*
X0136211Y0653927D01*
X0136099Y0653930D01*
X0135988Y0653937D01*
X0135876Y0653948D01*
X0135766Y0653963D01*
X0135655Y0653982D01*
X0135546Y0654004D01*
X0135437Y0654031D01*
X0135330Y0654061D01*
X0135223Y0654095D01*
X0135118Y0654133D01*
X0135014Y0654175D01*
X0134912Y0654220D01*
X0134811Y0654269D01*
X0134713Y0654321D01*
X0134616Y0654377D01*
X0134521Y0654437D01*
X0134428Y0654499D01*
X0134338Y0654565D01*
X0134250Y0654634D01*
X0134165Y0654706D01*
X0134082Y0654782D01*
X0134002Y0654860D01*
X0133924Y0654940D01*
X0133850Y0655024D01*
X0133779Y0655110D01*
X0133710Y0655198D01*
X0133645Y0655289D01*
X0133584Y0655383D01*
X0133525Y0655478D01*
X0133470Y0655575D01*
X0133419Y0655674D01*
X0133371Y0655775D01*
X0133326Y0655878D01*
X0133285Y0655982D01*
X0133248Y0656088D01*
X0133215Y0656194D01*
X0133186Y0656302D01*
X0133160Y0656411D01*
X0133138Y0656521D01*
X0133121Y0656631D01*
X0133107Y0656742D01*
X0133097Y0656854D01*
X0133091Y0656965D01*
X0133089Y0657077D01*
X0107892Y0720069D02*
X0107894Y0720157D01*
X0107900Y0720245D01*
X0107910Y0720333D01*
X0107924Y0720421D01*
X0107941Y0720507D01*
X0107963Y0720593D01*
X0107988Y0720677D01*
X0108018Y0720761D01*
X0108050Y0720843D01*
X0108087Y0720923D01*
X0108127Y0721002D01*
X0108171Y0721079D01*
X0108218Y0721154D01*
X0108268Y0721226D01*
X0108322Y0721297D01*
X0108378Y0721364D01*
X0108438Y0721430D01*
X0108500Y0721492D01*
X0108566Y0721552D01*
X0108633Y0721608D01*
X0108704Y0721662D01*
X0108776Y0721712D01*
X0108851Y0721759D01*
X0108928Y0721803D01*
X0109007Y0721843D01*
X0109087Y0721880D01*
X0109169Y0721912D01*
X0109253Y0721942D01*
X0109337Y0721967D01*
X0109423Y0721989D01*
X0109509Y0722006D01*
X0109597Y0722020D01*
X0109685Y0722030D01*
X0109773Y0722036D01*
X0109861Y0722038D01*
X0109949Y0722036D01*
X0110037Y0722030D01*
X0110125Y0722020D01*
X0110213Y0722006D01*
X0110299Y0721989D01*
X0110385Y0721967D01*
X0110469Y0721942D01*
X0110553Y0721912D01*
X0110635Y0721880D01*
X0110715Y0721843D01*
X0110794Y0721803D01*
X0110871Y0721759D01*
X0110946Y0721712D01*
X0111018Y0721662D01*
X0111089Y0721608D01*
X0111156Y0721552D01*
X0111222Y0721492D01*
X0111284Y0721430D01*
X0111344Y0721364D01*
X0111400Y0721297D01*
X0111454Y0721226D01*
X0111504Y0721154D01*
X0111551Y0721079D01*
X0111595Y0721002D01*
X0111635Y0720923D01*
X0111672Y0720843D01*
X0111704Y0720761D01*
X0111734Y0720677D01*
X0111759Y0720593D01*
X0111781Y0720507D01*
X0111798Y0720421D01*
X0111812Y0720333D01*
X0111822Y0720245D01*
X0111828Y0720157D01*
X0111830Y0720069D01*
X0111828Y0719981D01*
X0111822Y0719893D01*
X0111812Y0719805D01*
X0111798Y0719717D01*
X0111781Y0719631D01*
X0111759Y0719545D01*
X0111734Y0719461D01*
X0111704Y0719377D01*
X0111672Y0719295D01*
X0111635Y0719215D01*
X0111595Y0719136D01*
X0111551Y0719059D01*
X0111504Y0718984D01*
X0111454Y0718912D01*
X0111400Y0718841D01*
X0111344Y0718774D01*
X0111284Y0718708D01*
X0111222Y0718646D01*
X0111156Y0718586D01*
X0111089Y0718530D01*
X0111018Y0718476D01*
X0110946Y0718426D01*
X0110871Y0718379D01*
X0110794Y0718335D01*
X0110715Y0718295D01*
X0110635Y0718258D01*
X0110553Y0718226D01*
X0110469Y0718196D01*
X0110385Y0718171D01*
X0110299Y0718149D01*
X0110213Y0718132D01*
X0110125Y0718118D01*
X0110037Y0718108D01*
X0109949Y0718102D01*
X0109861Y0718100D01*
X0109773Y0718102D01*
X0109685Y0718108D01*
X0109597Y0718118D01*
X0109509Y0718132D01*
X0109423Y0718149D01*
X0109337Y0718171D01*
X0109253Y0718196D01*
X0109169Y0718226D01*
X0109087Y0718258D01*
X0109007Y0718295D01*
X0108928Y0718335D01*
X0108851Y0718379D01*
X0108776Y0718426D01*
X0108704Y0718476D01*
X0108633Y0718530D01*
X0108566Y0718586D01*
X0108500Y0718646D01*
X0108438Y0718708D01*
X0108378Y0718774D01*
X0108322Y0718841D01*
X0108268Y0718912D01*
X0108218Y0718984D01*
X0108171Y0719059D01*
X0108127Y0719136D01*
X0108087Y0719215D01*
X0108050Y0719295D01*
X0108018Y0719377D01*
X0107988Y0719461D01*
X0107963Y0719545D01*
X0107941Y0719631D01*
X0107924Y0719717D01*
X0107910Y0719805D01*
X0107900Y0719893D01*
X0107894Y0719981D01*
X0107892Y0720069D01*
X0133089Y0743691D02*
X0133091Y0743803D01*
X0133097Y0743914D01*
X0133107Y0744026D01*
X0133121Y0744137D01*
X0133138Y0744247D01*
X0133160Y0744357D01*
X0133186Y0744466D01*
X0133215Y0744574D01*
X0133248Y0744680D01*
X0133285Y0744786D01*
X0133326Y0744890D01*
X0133371Y0744993D01*
X0133419Y0745094D01*
X0133470Y0745193D01*
X0133525Y0745290D01*
X0133584Y0745385D01*
X0133645Y0745479D01*
X0133710Y0745570D01*
X0133779Y0745658D01*
X0133850Y0745744D01*
X0133924Y0745828D01*
X0134002Y0745908D01*
X0134082Y0745986D01*
X0134165Y0746062D01*
X0134250Y0746134D01*
X0134338Y0746203D01*
X0134428Y0746269D01*
X0134521Y0746331D01*
X0134616Y0746391D01*
X0134713Y0746447D01*
X0134811Y0746499D01*
X0134912Y0746548D01*
X0135014Y0746593D01*
X0135118Y0746635D01*
X0135223Y0746673D01*
X0135330Y0746707D01*
X0135437Y0746737D01*
X0135546Y0746764D01*
X0135655Y0746786D01*
X0135766Y0746805D01*
X0135876Y0746820D01*
X0135988Y0746831D01*
X0136099Y0746838D01*
X0136211Y0746841D01*
X0136323Y0746840D01*
X0136435Y0746835D01*
X0136546Y0746826D01*
X0136657Y0746813D01*
X0136768Y0746796D01*
X0136878Y0746776D01*
X0136987Y0746751D01*
X0137095Y0746723D01*
X0137202Y0746690D01*
X0137308Y0746654D01*
X0137412Y0746614D01*
X0137515Y0746571D01*
X0137617Y0746524D01*
X0137716Y0746473D01*
X0137814Y0746419D01*
X0137910Y0746361D01*
X0138004Y0746300D01*
X0138095Y0746236D01*
X0138184Y0746169D01*
X0138271Y0746098D01*
X0138355Y0746024D01*
X0138437Y0745948D01*
X0138515Y0745868D01*
X0138591Y0745786D01*
X0138664Y0745701D01*
X0138734Y0745614D01*
X0138800Y0745524D01*
X0138864Y0745432D01*
X0138924Y0745338D01*
X0138981Y0745242D01*
X0139034Y0745143D01*
X0139084Y0745043D01*
X0139130Y0744942D01*
X0139173Y0744838D01*
X0139212Y0744733D01*
X0139247Y0744627D01*
X0139278Y0744520D01*
X0139306Y0744411D01*
X0139329Y0744302D01*
X0139349Y0744192D01*
X0139365Y0744081D01*
X0139377Y0743970D01*
X0139385Y0743859D01*
X0139389Y0743747D01*
X0139389Y0743635D01*
X0139385Y0743523D01*
X0139377Y0743412D01*
X0139365Y0743301D01*
X0139349Y0743190D01*
X0139329Y0743080D01*
X0139306Y0742971D01*
X0139278Y0742862D01*
X0139247Y0742755D01*
X0139212Y0742649D01*
X0139173Y0742544D01*
X0139130Y0742440D01*
X0139084Y0742339D01*
X0139034Y0742239D01*
X0138981Y0742140D01*
X0138924Y0742044D01*
X0138864Y0741950D01*
X0138800Y0741858D01*
X0138734Y0741768D01*
X0138664Y0741681D01*
X0138591Y0741596D01*
X0138515Y0741514D01*
X0138437Y0741434D01*
X0138355Y0741358D01*
X0138271Y0741284D01*
X0138184Y0741213D01*
X0138095Y0741146D01*
X0138004Y0741082D01*
X0137910Y0741021D01*
X0137814Y0740963D01*
X0137716Y0740909D01*
X0137617Y0740858D01*
X0137515Y0740811D01*
X0137412Y0740768D01*
X0137308Y0740728D01*
X0137202Y0740692D01*
X0137095Y0740659D01*
X0136987Y0740631D01*
X0136878Y0740606D01*
X0136768Y0740586D01*
X0136657Y0740569D01*
X0136546Y0740556D01*
X0136435Y0740547D01*
X0136323Y0740542D01*
X0136211Y0740541D01*
X0136099Y0740544D01*
X0135988Y0740551D01*
X0135876Y0740562D01*
X0135766Y0740577D01*
X0135655Y0740596D01*
X0135546Y0740618D01*
X0135437Y0740645D01*
X0135330Y0740675D01*
X0135223Y0740709D01*
X0135118Y0740747D01*
X0135014Y0740789D01*
X0134912Y0740834D01*
X0134811Y0740883D01*
X0134713Y0740935D01*
X0134616Y0740991D01*
X0134521Y0741051D01*
X0134428Y0741113D01*
X0134338Y0741179D01*
X0134250Y0741248D01*
X0134165Y0741320D01*
X0134082Y0741396D01*
X0134002Y0741474D01*
X0133924Y0741554D01*
X0133850Y0741638D01*
X0133779Y0741724D01*
X0133710Y0741812D01*
X0133645Y0741903D01*
X0133584Y0741997D01*
X0133525Y0742092D01*
X0133470Y0742189D01*
X0133419Y0742288D01*
X0133371Y0742389D01*
X0133326Y0742492D01*
X0133285Y0742596D01*
X0133248Y0742702D01*
X0133215Y0742808D01*
X0133186Y0742916D01*
X0133160Y0743025D01*
X0133138Y0743135D01*
X0133121Y0743245D01*
X0133107Y0743356D01*
X0133097Y0743468D01*
X0133091Y0743579D01*
X0133089Y0743691D01*
M02*
