%
M48
M72
T01C0.01575
T02C0.01969
T03C0.02362
T04C0.03543
T05C0.03937
T06C0.04000
T07C0.04331
T08C0.05200
T09C0.06299
T10C0.13000
%
T01
X90550Y119380
X94300Y124380
X109925Y129331
X114300Y94956
X132425Y94956
X148675Y118081
X148675Y124331
X159925Y139331
X159925Y146831
X162425Y158706
X176800Y166206
X176175Y132456
X181800Y132456
X206800Y153081
X213050Y153081
X224300Y168081
X233675Y182820
X239300Y182820
X246800Y190320
X254300Y202195
X240550Y209070
X228050Y218445
X222425Y217195
X212425Y200945
X226175Y187195
X211800Y180945
X181800Y219070
X176175Y219070
X159925Y225945
X159925Y233445
X162425Y245320
X148719Y267416
X132425Y268184
X114300Y268184
X90550Y292505
X94300Y297505
X109925Y302559
X143109Y346427
X132425Y354798
X114300Y354798
X90550Y379380
X94300Y384380
X87007Y400660
X83267Y405335
X81864Y411880
X72514Y414218
X68773Y433853
X86539Y437126
X90550Y465630
X94300Y470630
X109925Y475787
X86539Y494631
X70176Y479203
X58488Y467982
X51008Y427308
X47268Y422165
X72514Y350635
X109925Y389173
X142174Y434321
X132425Y441412
X114300Y441412
X148675Y464537
X148675Y470787
X159925Y485787
X159925Y493287
X162425Y505162
X176800Y512662
X176175Y478912
X181800Y478912
X206800Y499537
X213050Y499537
X224300Y514537
X233675Y529277
X239300Y529277
X246800Y536777
X254300Y548652
X240550Y555527
X228050Y564902
X222425Y563652
X212425Y547402
X211800Y527402
X226175Y533652
X213050Y586152
X206800Y586152
X224300Y601152
X233675Y615891
X239300Y615891
X246800Y623391
X254300Y635266
X240550Y642141
X228050Y651516
X222425Y650266
X212425Y634016
X211800Y614016
X226175Y620266
X213050Y672766
X206800Y672766
X224300Y687766
X233675Y702505
X239300Y702505
X246800Y710005
X254300Y721880
X240550Y728755
X228050Y738130
X222425Y736880
X212425Y720630
X211800Y700630
X226175Y706880
X213050Y759380
X206800Y759380
X224300Y774380
X176800Y772505
X162425Y765005
X159925Y753130
X159925Y745630
X148675Y730630
X148675Y724380
X132425Y701255
X114300Y701255
X94300Y730630
X90550Y725630
X109925Y735630
X148719Y690522
X162425Y678391
X159925Y666516
X159925Y659016
X148675Y644016
X148675Y637766
X132425Y614641
X144979Y607771
X162425Y591777
X159925Y579902
X159925Y572402
X148675Y557402
X148675Y551152
X132425Y528027
X139836Y512397
X114300Y528027
X94300Y557505
X90550Y552505
X109448Y562421
X86072Y607771
X114300Y614641
X94300Y643755
X90550Y638755
X109925Y649016
X176175Y652141
X181800Y652141
X176800Y685891
X176175Y738755
X181800Y738755
X176800Y599277
X176175Y565527
X181800Y565527
X222425Y477037
X228050Y478287
X240550Y468912
X254300Y462037
X246800Y450162
X239300Y442662
X233675Y442662
X226175Y447037
X224300Y427923
X211800Y440787
X212425Y460787
X213050Y412923
X206800Y412923
X222425Y390423
X228050Y391673
X240550Y382298
X254300Y375423
X246800Y363548
X239300Y356048
X233675Y356048
X226175Y360423
X224300Y341309
X211800Y354173
X212425Y374173
X181800Y392298
X176175Y392298
X159925Y399173
X159925Y406673
X162425Y418548
X176800Y426048
X148675Y384173
X148675Y377923
X176800Y339434
X162425Y331934
X159925Y320059
X159925Y312559
X148675Y297559
X148675Y291309
X176175Y305684
X181800Y305684
X206800Y326309
X213050Y326309
X222425Y303809
X228050Y305059
X240550Y295684
X254300Y288809
X246800Y276934
X239300Y269434
X233675Y269434
X226175Y273809
X224300Y254695
X211800Y267559
X212425Y287559
X213050Y239695
X206800Y239695
X176800Y252820
X148675Y210945
X148675Y204695
X132425Y181570
X140304Y171575
X114300Y181570
X90550Y206255
X94300Y211255
X109925Y215945
X80461Y173445
X76254Y266014
X212425Y114331
X222425Y130581
X228050Y131831
X240550Y122456
X254300Y115581
X246800Y103706
X239300Y96206
X233675Y96206
X226175Y100581
X211800Y94331
X279925Y95581
X279925Y114956
X311175Y163706
X330550Y164331
X341800Y153081
X323050Y138081
X279925Y182195
X279925Y201570
X311175Y250320
X330550Y250945
X341800Y239695
X323050Y224695
X279925Y268809
X279925Y288184
X311175Y336934
X330550Y337559
X341800Y326309
X323050Y311309
X279925Y355423
X279925Y374798
X311175Y423548
X330550Y424173
X341800Y412923
X323050Y397923
X279925Y442037
X279925Y461412
X311175Y510162
X330550Y510787
X341800Y499537
X323050Y484537
X279925Y528652
X279925Y548027
X311175Y596777
X330550Y597402
X341800Y586152
X323050Y571152
X279925Y615266
X279925Y634641
X311175Y683391
X330550Y684016
X341800Y672766
X323050Y657766
X279925Y701880
X279925Y721255
X311175Y770005
X330550Y770630
X341800Y759380
X323050Y744380
X43050Y678130
T02
X206800Y657766
X206800Y744380
X206800Y571152
X206800Y484537
X206800Y397923
X206800Y311309
X206800Y224695
X206800Y138081
T03
X223675Y124331
X159300Y99331
X159300Y185945
X223675Y210945
X223675Y297559
X159300Y272559
X159300Y359173
X223675Y384173
X223675Y470787
X159300Y445787
X159300Y532402
X223675Y557402
X223675Y644016
X159300Y619016
X159300Y705630
X223675Y730630
X48050Y437313
T04
X334300Y404985
X334300Y397111
X334300Y318371
X334300Y310497
X334300Y231757
X334300Y223883
X334300Y145143
X334300Y137269
X334300Y483725
X334300Y491599
X334300Y570340
X334300Y578214
X334300Y656954
X334300Y664828
X334300Y743568
X334300Y751442
T05
X109861Y720069
X109861Y633455
X109861Y546841
X109861Y460226
X109861Y373612
X109861Y286998
X109861Y200384
X109861Y113770
T06
X367750Y114016
X378550Y114016
X389450Y114016
X400350Y114016
X411150Y114016
X422050Y114016
X432950Y114016
X443850Y114016
X454650Y114016
X465550Y114016
X476450Y114016
X487250Y114016
X498150Y114016
X509050Y114016
X519850Y114016
X530750Y114016
X541650Y114016
X552450Y114016
X563350Y114016
X557950Y104016
X547050Y104016
X536150Y104016
X525350Y104016
X514450Y104016
X503550Y104016
X492750Y104016
X481850Y104016
X470950Y104016
X460150Y104016
X449250Y104016
X438350Y104016
X427550Y104016
X416650Y104016
X405750Y104016
X394850Y104016
X384050Y104016
X373150Y104016
X378675Y432357
X389300Y432357
X399925Y432357
X411175Y432357
X421800Y432357
X433050Y432357
X443675Y432357
X454300Y432357
X465550Y432357
X476175Y432357
X487425Y432357
X498050Y432357
X509300Y432357
X519925Y432357
X530550Y432357
X541800Y432357
X552425Y432357
X563050Y432357
X503675Y456107
X493050Y456107
X481800Y456107
X471175Y456107
X459925Y456107
X449300Y456107
X438050Y456107
X427425Y456107
X416800Y456107
X405550Y456107
X394925Y456107
X383675Y456107
X373050Y456107
X367425Y432357
X367750Y796255
X373150Y806255
X378650Y796255
X384050Y806255
X389450Y796255
X400350Y796255
X394950Y806255
X405750Y806255
X411250Y796255
X416650Y806255
X422050Y796255
X427550Y806255
X432950Y796255
X438350Y806255
X449250Y806255
X443850Y796255
X454650Y796255
X460150Y806255
X465550Y796255
X470950Y806255
X476450Y796255
X481850Y806255
X487250Y796255
X492750Y806255
X503650Y806255
X509050Y796255
X498150Y796255
X514450Y806255
X519950Y796255
X525350Y806255
X530750Y796255
X536250Y806255
X541650Y796255
X552550Y796255
X557950Y806255
X547050Y806255
X563350Y796255
X145550Y818755
X135550Y818755
X119300Y819380
X109300Y819380
X76800Y782855
X76800Y772055
X76800Y761255
X66800Y755855
X66800Y745055
X76800Y739655
X76800Y750455
X66800Y766655
X66800Y777455
T07
X264925Y769380
X274925Y769380
X284925Y769380
X284925Y749380
X274925Y749380
X264925Y749380
X264925Y682766
X274925Y682766
X284925Y682766
X284925Y662766
X274925Y662766
X264925Y662766
X264925Y596152
X274925Y596152
X284925Y596152
X284925Y576152
X274925Y576152
X264925Y576152
X264925Y509537
X274925Y509537
X284925Y509537
X284925Y489537
X274925Y489537
X264925Y489537
X264925Y422923
X274925Y422923
X284925Y422923
X284925Y402923
X274925Y402923
X264925Y402923
X264925Y336309
X274925Y336309
X284925Y336309
X284925Y316309
X274925Y316309
X264925Y316309
X264925Y249695
X274925Y249695
X284925Y249695
X284925Y229695
X274925Y229695
X264925Y229695
X264925Y163081
X274925Y163081
X284925Y163081
X284925Y143081
X274925Y143081
X264925Y143081
T08
X243050Y165581
X233050Y165581
X233050Y252195
X243050Y252195
X243050Y338809
X233050Y338809
X233050Y425423
X243050Y425423
X243050Y512037
X233050Y512037
X233050Y598652
X243050Y598652
X243050Y685266
X233050Y685266
X233050Y771880
X243050Y771880
T09
X136239Y743691
X136239Y657077
X136239Y570463
X136239Y483848
X136239Y397234
X136239Y310620
X136239Y224006
X136239Y137392
T10
X340550Y109016
X590550Y109016
X590550Y801255
X340550Y801255
X71800Y810555
X71800Y711955
M30
