G75*
%MOIN*%
%OFA0B0*%
%FSLAX25Y25*%
%IPPOS*%
%LPD*%
%AMOC8*
5,1,8,0,0,1.08239X$1,22.5*
%
%ADD10R,0.05906X0.05118*%
%ADD11R,0.00984X0.03445*%
%ADD12R,0.02756X0.03543*%
%ADD13R,0.05512X0.05512*%
%ADD14R,0.03543X0.02756*%
%ADD15R,0.04724X0.04724*%
D10*
X0608095Y0019310D03*
X0618095Y0019310D03*
X0618095Y0026790D03*
X0608095Y0026790D03*
X0672095Y0026790D03*
X0682095Y0026790D03*
X0682095Y0019310D03*
X0672095Y0019310D03*
X0675095Y0072310D03*
X0684595Y0072310D03*
X0684595Y0079790D03*
X0675095Y0079790D03*
X0620595Y0079790D03*
X0611095Y0079790D03*
X0611095Y0072310D03*
X0620595Y0072310D03*
X0618095Y0115310D03*
X0608095Y0115310D03*
X0608095Y0122790D03*
X0618095Y0122790D03*
X0672095Y0122790D03*
X0682095Y0122790D03*
X0682095Y0115310D03*
X0672095Y0115310D03*
X0736095Y0115310D03*
X0746095Y0115310D03*
X0746095Y0122790D03*
X0736095Y0122790D03*
X0739095Y0168310D03*
X0748595Y0168310D03*
X0748595Y0175790D03*
X0739095Y0175790D03*
X0684595Y0175790D03*
X0675095Y0175790D03*
X0675095Y0168310D03*
X0684595Y0168310D03*
X0620595Y0168310D03*
X0611095Y0168310D03*
X0611095Y0175790D03*
X0620595Y0175790D03*
X0617595Y0211310D03*
X0607595Y0211310D03*
X0607595Y0218790D03*
X0617595Y0218790D03*
X0671595Y0218790D03*
X0681595Y0218790D03*
X0681595Y0211310D03*
X0671595Y0211310D03*
X0735595Y0211310D03*
X0745595Y0211310D03*
X0745595Y0218790D03*
X0735595Y0218790D03*
X0738595Y0264310D03*
X0748095Y0264310D03*
X0748095Y0271790D03*
X0738595Y0271790D03*
X0684095Y0271790D03*
X0674595Y0271790D03*
X0674595Y0264310D03*
X0684095Y0264310D03*
X0620095Y0264310D03*
X0610595Y0264310D03*
X0610595Y0271790D03*
X0620095Y0271790D03*
D11*
X0599532Y0276170D03*
X0597564Y0276170D03*
X0595595Y0276170D03*
X0593627Y0276170D03*
X0591658Y0276170D03*
X0591658Y0259930D03*
X0593627Y0259930D03*
X0595595Y0259930D03*
X0597564Y0259930D03*
X0599532Y0259930D03*
X0655658Y0259930D03*
X0657627Y0259930D03*
X0659595Y0259930D03*
X0661564Y0259930D03*
X0663532Y0259930D03*
X0663532Y0276170D03*
X0661564Y0276170D03*
X0659595Y0276170D03*
X0657627Y0276170D03*
X0655658Y0276170D03*
X0719658Y0276170D03*
X0721627Y0276170D03*
X0723595Y0276170D03*
X0725564Y0276170D03*
X0727532Y0276170D03*
X0727532Y0259930D03*
X0725564Y0259930D03*
X0723595Y0259930D03*
X0721627Y0259930D03*
X0719658Y0259930D03*
X0719658Y0222670D03*
X0721627Y0222670D03*
X0723595Y0222670D03*
X0725564Y0222670D03*
X0727532Y0222670D03*
X0727532Y0206430D03*
X0725564Y0206430D03*
X0723595Y0206430D03*
X0721627Y0206430D03*
X0719658Y0206430D03*
X0663532Y0206430D03*
X0661564Y0206430D03*
X0659595Y0206430D03*
X0657627Y0206430D03*
X0655658Y0206430D03*
X0655658Y0222670D03*
X0657627Y0222670D03*
X0659595Y0222670D03*
X0661564Y0222670D03*
X0663532Y0222670D03*
X0599532Y0222670D03*
X0597564Y0222670D03*
X0595595Y0222670D03*
X0593627Y0222670D03*
X0591658Y0222670D03*
X0591658Y0206430D03*
X0593627Y0206430D03*
X0595595Y0206430D03*
X0597564Y0206430D03*
X0599532Y0206430D03*
X0600032Y0180170D03*
X0598064Y0180170D03*
X0596095Y0180170D03*
X0594127Y0180170D03*
X0592158Y0180170D03*
X0592158Y0163930D03*
X0594127Y0163930D03*
X0596095Y0163930D03*
X0598064Y0163930D03*
X0600032Y0163930D03*
X0656158Y0163930D03*
X0658127Y0163930D03*
X0660095Y0163930D03*
X0662064Y0163930D03*
X0664032Y0163930D03*
X0664032Y0180170D03*
X0662064Y0180170D03*
X0660095Y0180170D03*
X0658127Y0180170D03*
X0656158Y0180170D03*
X0720158Y0180170D03*
X0722127Y0180170D03*
X0724095Y0180170D03*
X0726064Y0180170D03*
X0728032Y0180170D03*
X0728032Y0163930D03*
X0726064Y0163930D03*
X0724095Y0163930D03*
X0722127Y0163930D03*
X0720158Y0163930D03*
X0720158Y0126670D03*
X0722127Y0126670D03*
X0724095Y0126670D03*
X0726064Y0126670D03*
X0728032Y0126670D03*
X0728032Y0110430D03*
X0726064Y0110430D03*
X0724095Y0110430D03*
X0722127Y0110430D03*
X0720158Y0110430D03*
X0664032Y0110430D03*
X0662064Y0110430D03*
X0660095Y0110430D03*
X0658127Y0110430D03*
X0656158Y0110430D03*
X0656158Y0126670D03*
X0658127Y0126670D03*
X0660095Y0126670D03*
X0662064Y0126670D03*
X0664032Y0126670D03*
X0600032Y0126670D03*
X0598064Y0126670D03*
X0596095Y0126670D03*
X0594127Y0126670D03*
X0592158Y0126670D03*
X0592158Y0110430D03*
X0594127Y0110430D03*
X0596095Y0110430D03*
X0598064Y0110430D03*
X0600032Y0110430D03*
X0600032Y0084170D03*
X0598064Y0084170D03*
X0596095Y0084170D03*
X0594127Y0084170D03*
X0592158Y0084170D03*
X0592158Y0067930D03*
X0594127Y0067930D03*
X0596095Y0067930D03*
X0598064Y0067930D03*
X0600032Y0067930D03*
X0656158Y0067930D03*
X0658127Y0067930D03*
X0660095Y0067930D03*
X0662064Y0067930D03*
X0664032Y0067930D03*
X0664032Y0084170D03*
X0662064Y0084170D03*
X0660095Y0084170D03*
X0658127Y0084170D03*
X0656158Y0084170D03*
X0656158Y0030670D03*
X0658127Y0030670D03*
X0660095Y0030670D03*
X0662064Y0030670D03*
X0664032Y0030670D03*
X0664032Y0014430D03*
X0662064Y0014430D03*
X0660095Y0014430D03*
X0658127Y0014430D03*
X0656158Y0014430D03*
X0600032Y0014430D03*
X0598064Y0014430D03*
X0596095Y0014430D03*
X0594127Y0014430D03*
X0592158Y0014430D03*
X0592158Y0030670D03*
X0594127Y0030670D03*
X0596095Y0030670D03*
X0598064Y0030670D03*
X0600032Y0030670D03*
D12*
X0581654Y0025050D03*
X0576536Y0025050D03*
X0576536Y0020050D03*
X0581654Y0020050D03*
X0640536Y0020050D03*
X0645654Y0020050D03*
X0645654Y0025050D03*
X0640536Y0025050D03*
X0640536Y0073550D03*
X0640536Y0078550D03*
X0645654Y0078550D03*
X0645654Y0073550D03*
X0581654Y0073550D03*
X0581654Y0078550D03*
X0576536Y0078550D03*
X0576536Y0073550D03*
X0576536Y0116050D03*
X0576536Y0121050D03*
X0581654Y0121050D03*
X0581654Y0116050D03*
X0640536Y0116050D03*
X0640536Y0121050D03*
X0645654Y0121050D03*
X0645654Y0116050D03*
X0704536Y0116550D03*
X0709654Y0116550D03*
X0709654Y0121550D03*
X0704536Y0121550D03*
X0704536Y0169550D03*
X0709654Y0169550D03*
X0709654Y0174550D03*
X0704536Y0174550D03*
X0645654Y0174550D03*
X0640536Y0174550D03*
X0640536Y0169550D03*
X0645654Y0169550D03*
X0581654Y0170050D03*
X0576536Y0170050D03*
X0576536Y0174550D03*
X0581654Y0174550D03*
X0581154Y0212050D03*
X0581154Y0217050D03*
X0576036Y0217050D03*
X0576036Y0212050D03*
X0640036Y0212050D03*
X0640036Y0217050D03*
X0645154Y0217050D03*
X0645154Y0212050D03*
X0704036Y0212550D03*
X0704036Y0217550D03*
X0709154Y0217550D03*
X0709154Y0212550D03*
X0709154Y0265550D03*
X0709154Y0270550D03*
X0704036Y0270550D03*
X0704036Y0265550D03*
X0644654Y0266050D03*
X0639536Y0266050D03*
X0639536Y0271050D03*
X0644654Y0271050D03*
X0581154Y0271050D03*
X0576036Y0271050D03*
X0576036Y0266050D03*
X0581154Y0266050D03*
D13*
X0535095Y0044530D03*
X0535095Y0029570D03*
X0419095Y0028570D03*
X0419095Y0043530D03*
D14*
X0425595Y0017609D03*
X0425595Y0012491D03*
X0533095Y0011491D03*
X0533095Y0016609D03*
X0609595Y0035991D03*
X0609595Y0041109D03*
X0609595Y0057491D03*
X0609595Y0062609D03*
X0673595Y0062109D03*
X0673595Y0056991D03*
X0674095Y0040609D03*
X0674095Y0035491D03*
X0673595Y0131491D03*
X0673595Y0136609D03*
X0673595Y0152991D03*
X0673595Y0158109D03*
X0737595Y0158109D03*
X0737595Y0152991D03*
X0737595Y0136609D03*
X0737595Y0131491D03*
X0609595Y0131491D03*
X0609595Y0136609D03*
X0609595Y0153491D03*
X0609595Y0158609D03*
X0609095Y0227491D03*
X0609095Y0232609D03*
X0609095Y0249491D03*
X0609095Y0254609D03*
X0673095Y0254609D03*
X0673095Y0249491D03*
X0673095Y0233109D03*
X0673095Y0227991D03*
X0737095Y0227491D03*
X0737095Y0232609D03*
X0737095Y0248991D03*
X0737095Y0254109D03*
D15*
X0419095Y0010916D03*
X0419095Y0019184D03*
X0539595Y0018184D03*
X0539595Y0009916D03*
M02*
