G75*
%MOIN*%
%OFA0B0*%
%FSLAX25Y25*%
%IPPOS*%
%LPD*%
%AMOC8*
5,1,8,0,0,1.08239X$1,22.5*
%
%ADD10C,0.06000*%
%ADD11C,0.14236*%
%ADD12C,0.17000*%
%ADD13C,0.03575*%
%ADD14C,0.00787*%
%ADD15C,0.01600*%
D10*
X0126095Y0055150D03*
X0136095Y0049750D03*
X0136095Y0060650D03*
X0126095Y0066050D03*
X0136095Y0071450D03*
X0126095Y0076950D03*
X0136095Y0082350D03*
X0126095Y0087750D03*
X0136095Y0093250D03*
X0126095Y0098650D03*
X0136095Y0104050D03*
X0126095Y0109550D03*
X0136095Y0114950D03*
X0126095Y0120350D03*
X0136095Y0125850D03*
X0126095Y0131250D03*
X0136095Y0136650D03*
X0126095Y0142150D03*
X0136095Y0147550D03*
X0126095Y0152950D03*
X0136095Y0158450D03*
X0126095Y0163850D03*
X0136095Y0169250D03*
X0126095Y0174750D03*
X0136095Y0180150D03*
X0126095Y0185650D03*
X0136095Y0191050D03*
X0126095Y0196450D03*
X0136095Y0201950D03*
X0126095Y0207350D03*
X0136095Y0212750D03*
X0126095Y0218250D03*
X0136095Y0223650D03*
X0126095Y0229050D03*
X0136095Y0234550D03*
X0126095Y0239950D03*
X0136095Y0245350D03*
X0504595Y0042050D03*
X0516595Y0042050D03*
X0526595Y0042050D03*
X0526595Y0032050D03*
X0516595Y0032050D03*
X0504595Y0032050D03*
X0409595Y0031550D03*
X0399595Y0031550D03*
X0388095Y0031550D03*
X0388095Y0041550D03*
X0399595Y0041550D03*
X0409595Y0041550D03*
X0789595Y0048250D03*
X0799595Y0053650D03*
X0789595Y0059050D03*
X0799595Y0064550D03*
X0789595Y0069950D03*
X0799595Y0075350D03*
X0789595Y0080850D03*
X0799595Y0086250D03*
X0789595Y0091650D03*
X0799595Y0097150D03*
X0789595Y0102550D03*
X0799595Y0108050D03*
X0789595Y0113450D03*
X0799595Y0118850D03*
X0789595Y0124350D03*
X0799595Y0129750D03*
X0789595Y0135150D03*
X0799595Y0140650D03*
X0789595Y0146050D03*
X0799595Y0151450D03*
X0789595Y0156950D03*
X0799595Y0162350D03*
X0789595Y0167750D03*
X0799595Y0173250D03*
X0789595Y0178650D03*
X0799595Y0184050D03*
X0789595Y0189550D03*
X0799595Y0194950D03*
X0789595Y0200350D03*
X0799595Y0205850D03*
X0789595Y0211250D03*
X0799595Y0216650D03*
X0789595Y0222150D03*
X0799595Y0227550D03*
X0789595Y0232950D03*
X0799595Y0238450D03*
X0789595Y0243850D03*
D11*
X0548595Y0237550D03*
X0498595Y0237550D03*
X0448595Y0237550D03*
X0398595Y0237550D03*
X0348595Y0237550D03*
X0298595Y0237550D03*
X0248595Y0237550D03*
X0198595Y0237550D03*
X0198595Y0187550D03*
X0248595Y0187550D03*
X0298595Y0187550D03*
X0348595Y0187550D03*
X0398595Y0187550D03*
X0448595Y0187550D03*
X0498595Y0187550D03*
X0548595Y0187550D03*
X0548595Y0137550D03*
X0498595Y0137550D03*
X0448595Y0137550D03*
X0398595Y0137550D03*
X0348595Y0137550D03*
X0298595Y0137550D03*
X0248595Y0137550D03*
X0198595Y0137550D03*
X0198595Y0087550D03*
X0248595Y0087550D03*
X0298595Y0087550D03*
X0348595Y0087550D03*
X0398595Y0087550D03*
X0448595Y0087550D03*
X0498595Y0087550D03*
X0548095Y0087550D03*
D12*
X0131095Y0022550D03*
X0131095Y0272550D03*
X0794595Y0271050D03*
X0794595Y0021050D03*
D13*
X0837095Y0005050D03*
X0682095Y0033550D03*
X0669095Y0035550D03*
X0664595Y0035550D03*
X0660095Y0035550D03*
X0655595Y0035550D03*
X0651095Y0035550D03*
X0651595Y0025050D03*
X0659095Y0025550D03*
X0657595Y0019550D03*
X0651595Y0020050D03*
X0640595Y0015550D03*
X0650595Y0010050D03*
X0660095Y0009550D03*
X0668595Y0010550D03*
X0629095Y0010050D03*
X0596095Y0009550D03*
X0593595Y0019550D03*
X0587595Y0020050D03*
X0571095Y0022550D03*
X0587595Y0025050D03*
X0595095Y0025550D03*
X0596095Y0035550D03*
X0591595Y0035550D03*
X0587095Y0035550D03*
X0600595Y0035550D03*
X0605095Y0035550D03*
X0617595Y0035050D03*
X0635095Y0048550D03*
X0651595Y0046050D03*
X0651595Y0051050D03*
X0651095Y0062550D03*
X0655595Y0062550D03*
X0660095Y0062550D03*
X0664595Y0062550D03*
X0669095Y0062550D03*
X0684595Y0065550D03*
X0663095Y0073050D03*
X0657095Y0079050D03*
X0651595Y0078550D03*
X0651595Y0073550D03*
X0640595Y0083050D03*
X0660095Y0089550D03*
X0660095Y0105550D03*
X0657595Y0115550D03*
X0651595Y0116050D03*
X0651595Y0121050D03*
X0659095Y0121550D03*
X0660095Y0131550D03*
X0655595Y0131550D03*
X0651095Y0131550D03*
X0664595Y0131550D03*
X0669095Y0131550D03*
X0682095Y0131550D03*
X0694595Y0131550D03*
X0715095Y0131550D03*
X0719595Y0131550D03*
X0724095Y0131550D03*
X0728595Y0131550D03*
X0733095Y0131550D03*
X0746095Y0130550D03*
X0723095Y0121550D03*
X0715595Y0121550D03*
X0715595Y0116550D03*
X0721595Y0115550D03*
X0704595Y0111550D03*
X0711595Y0106050D03*
X0724095Y0105550D03*
X0762595Y0106050D03*
X0762595Y0110550D03*
X0768595Y0106050D03*
X0769595Y0100550D03*
X0756595Y0089550D03*
X0743095Y0086050D03*
X0640595Y0111050D03*
X0626095Y0127550D03*
X0618095Y0130550D03*
X0605095Y0131550D03*
X0600595Y0131550D03*
X0596095Y0131550D03*
X0591595Y0131550D03*
X0587095Y0131550D03*
X0595095Y0121550D03*
X0587595Y0121050D03*
X0587595Y0116050D03*
X0593595Y0115550D03*
X0576095Y0111550D03*
X0596095Y0105550D03*
X0596095Y0089550D03*
X0580095Y0090050D03*
X0576595Y0083550D03*
X0587595Y0078550D03*
X0587095Y0073550D03*
X0593095Y0079050D03*
X0599095Y0073050D03*
X0600595Y0062550D03*
X0596095Y0062550D03*
X0591595Y0062550D03*
X0587095Y0062550D03*
X0605095Y0062550D03*
X0620595Y0065550D03*
X0587595Y0051050D03*
X0587595Y0046050D03*
X0570595Y0048550D03*
X0564095Y0051050D03*
X0551095Y0053050D03*
X0551095Y0039550D03*
X0565595Y0007050D03*
X0434595Y0033550D03*
X0352095Y0063550D03*
X0344595Y0056050D03*
X0297495Y0060150D03*
X0406095Y0067550D03*
X0436595Y0067550D03*
X0457095Y0071550D03*
X0483595Y0072050D03*
X0509095Y0075550D03*
X0558095Y0074550D03*
X0433095Y0125550D03*
X0397595Y0154050D03*
X0392095Y0157050D03*
X0352095Y0151050D03*
X0166595Y0175050D03*
X0150595Y0174050D03*
X0147095Y0183050D03*
X0163595Y0181550D03*
X0160595Y0192050D03*
X0143595Y0191050D03*
X0154095Y0166050D03*
X0157595Y0160050D03*
X0346095Y0007550D03*
X0587595Y0142050D03*
X0587595Y0147050D03*
X0570595Y0144550D03*
X0572595Y0157550D03*
X0569095Y0161550D03*
X0587095Y0158550D03*
X0591595Y0158550D03*
X0596095Y0158550D03*
X0600595Y0158550D03*
X0605095Y0158550D03*
X0620595Y0161550D03*
X0599095Y0169050D03*
X0593095Y0175050D03*
X0587595Y0174550D03*
X0576595Y0179550D03*
X0566595Y0171550D03*
X0587595Y0170050D03*
X0596095Y0185550D03*
X0595595Y0201550D03*
X0593095Y0211550D03*
X0587095Y0212050D03*
X0587095Y0217050D03*
X0594595Y0217550D03*
X0595595Y0227550D03*
X0591095Y0227550D03*
X0586595Y0227550D03*
X0600095Y0227550D03*
X0604595Y0227550D03*
X0617595Y0226550D03*
X0640095Y0227550D03*
X0650595Y0227550D03*
X0655095Y0227550D03*
X0659595Y0227550D03*
X0664095Y0227550D03*
X0668595Y0227550D03*
X0681595Y0225550D03*
X0692095Y0225550D03*
X0714595Y0227550D03*
X0719095Y0227550D03*
X0723595Y0227550D03*
X0728095Y0227550D03*
X0732595Y0227550D03*
X0745595Y0226050D03*
X0722595Y0217550D03*
X0715095Y0217550D03*
X0715095Y0212550D03*
X0721095Y0211550D03*
X0715595Y0205050D03*
X0723595Y0201550D03*
X0716095Y0199550D03*
X0709595Y0196550D03*
X0707095Y0192550D03*
X0724095Y0185550D03*
X0733095Y0193550D03*
X0743095Y0195550D03*
X0757595Y0196550D03*
X0761595Y0192050D03*
X0768095Y0178050D03*
X0766595Y0172550D03*
X0771095Y0166550D03*
X0771095Y0162050D03*
X0771095Y0154050D03*
X0776095Y0154050D03*
X0748595Y0161550D03*
X0733095Y0158550D03*
X0728595Y0158550D03*
X0724095Y0158550D03*
X0719595Y0158550D03*
X0715095Y0158550D03*
X0715595Y0147550D03*
X0715595Y0142550D03*
X0698595Y0145050D03*
X0691095Y0158550D03*
X0684595Y0161550D03*
X0669095Y0158550D03*
X0664595Y0158550D03*
X0660095Y0158550D03*
X0655595Y0158550D03*
X0651095Y0158550D03*
X0651595Y0147550D03*
X0651595Y0142550D03*
X0634595Y0145050D03*
X0651595Y0169550D03*
X0663095Y0169050D03*
X0657095Y0175050D03*
X0651595Y0174550D03*
X0640595Y0179050D03*
X0660095Y0185550D03*
X0659595Y0201550D03*
X0657095Y0211550D03*
X0651095Y0212050D03*
X0651095Y0217050D03*
X0658595Y0217550D03*
X0640095Y0207550D03*
X0634095Y0205050D03*
X0576095Y0207550D03*
X0587095Y0238050D03*
X0587095Y0243550D03*
X0570095Y0240550D03*
X0586595Y0254550D03*
X0591095Y0254550D03*
X0595595Y0254550D03*
X0600095Y0254550D03*
X0604595Y0254550D03*
X0620095Y0257550D03*
X0626595Y0254550D03*
X0650595Y0254550D03*
X0655095Y0254550D03*
X0659595Y0254550D03*
X0664095Y0254550D03*
X0668595Y0254550D03*
X0684095Y0257550D03*
X0662595Y0265050D03*
X0650595Y0266050D03*
X0650595Y0271050D03*
X0656595Y0271050D03*
X0651095Y0280050D03*
X0659595Y0281550D03*
X0639595Y0275550D03*
X0598595Y0265050D03*
X0592595Y0271050D03*
X0587095Y0271050D03*
X0576095Y0275050D03*
X0595595Y0281550D03*
X0587095Y0266050D03*
X0634095Y0240550D03*
X0651095Y0238050D03*
X0651095Y0243050D03*
X0698595Y0241050D03*
X0715095Y0238550D03*
X0715095Y0243550D03*
X0714595Y0254550D03*
X0719095Y0254550D03*
X0723595Y0254550D03*
X0728095Y0254550D03*
X0732595Y0254550D03*
X0748095Y0257050D03*
X0726595Y0265050D03*
X0715095Y0265550D03*
X0715095Y0270550D03*
X0720595Y0271050D03*
X0704095Y0275050D03*
X0709595Y0284550D03*
X0723595Y0281550D03*
X0764095Y0284550D03*
X0781095Y0254550D03*
X0837595Y0287550D03*
X0704095Y0207550D03*
X0704595Y0179550D03*
X0715595Y0174550D03*
X0721095Y0175050D03*
X0715595Y0169550D03*
X0727095Y0169050D03*
D14*
X0724127Y0169039D02*
X0666064Y0169039D01*
X0666064Y0168460D02*
X0666064Y0169640D01*
X0665687Y0170550D01*
X0724503Y0170550D01*
X0724127Y0169640D01*
X0724127Y0168460D01*
X0724579Y0167368D01*
X0725414Y0166533D01*
X0726505Y0166081D01*
X0727686Y0166081D01*
X0728777Y0166533D01*
X0729612Y0167368D01*
X0730064Y0168460D01*
X0730064Y0169640D01*
X0729687Y0170550D01*
X0751095Y0170550D01*
X0751095Y0163248D01*
X0750277Y0164067D01*
X0750095Y0164142D01*
X0750095Y0170550D01*
X0753595Y0170550D01*
X0754095Y0195050D01*
X0750595Y0195050D01*
X0750595Y0212550D01*
X0754595Y0212550D01*
X0754595Y0242550D01*
X0750095Y0242550D01*
X0750095Y0254852D01*
X0750612Y0255368D01*
X0751064Y0256460D01*
X0751064Y0257640D01*
X0750612Y0258732D01*
X0750095Y0259248D01*
X0750095Y0266050D01*
X0760095Y0266050D01*
X0760095Y0198248D01*
X0759277Y0199067D01*
X0758186Y0199518D01*
X0757005Y0199518D01*
X0755914Y0199067D01*
X0755079Y0198232D01*
X0754627Y0197140D01*
X0754627Y0195960D01*
X0755079Y0194868D01*
X0755914Y0194033D01*
X0757005Y0193581D01*
X0758186Y0193581D01*
X0759277Y0194033D01*
X0760095Y0194852D01*
X0760095Y0194642D01*
X0759914Y0194567D01*
X0759079Y0193732D01*
X0758627Y0192640D01*
X0758627Y0191460D01*
X0759079Y0190368D01*
X0759914Y0189533D01*
X0760095Y0189458D01*
X0760095Y0112248D01*
X0760079Y0112232D01*
X0759627Y0111140D01*
X0759627Y0109960D01*
X0760079Y0108868D01*
X0760095Y0108852D01*
X0760095Y0107748D01*
X0760079Y0107732D01*
X0759627Y0106640D01*
X0759627Y0105460D01*
X0760079Y0104368D01*
X0760095Y0104352D01*
X0760095Y0006050D01*
X0750595Y0006050D01*
X0750595Y0020550D01*
X0754595Y0020550D01*
X0754595Y0050550D01*
X0750095Y0050550D01*
X0750095Y0074050D01*
X0754595Y0074050D01*
X0754595Y0087352D01*
X0754914Y0087033D01*
X0756005Y0086581D01*
X0757186Y0086581D01*
X0758277Y0087033D01*
X0759112Y0087868D01*
X0759564Y0088960D01*
X0759564Y0090140D01*
X0759112Y0091232D01*
X0758277Y0092067D01*
X0757186Y0092518D01*
X0756005Y0092518D01*
X0754914Y0092067D01*
X0754595Y0091748D01*
X0754595Y0099050D01*
X0750095Y0099050D01*
X0750095Y0116550D01*
X0754595Y0116550D01*
X0754595Y0146550D01*
X0750095Y0146550D01*
X0750095Y0158958D01*
X0750277Y0159033D01*
X0751112Y0159868D01*
X0751564Y0160960D01*
X0751564Y0162140D01*
X0751112Y0163232D01*
X0750277Y0164067D01*
X0749186Y0164518D01*
X0748005Y0164518D01*
X0746914Y0164067D01*
X0746079Y0163232D01*
X0745627Y0162140D01*
X0745627Y0160960D01*
X0746079Y0159868D01*
X0746914Y0159033D01*
X0748005Y0158581D01*
X0749186Y0158581D01*
X0750277Y0159033D01*
X0751095Y0159852D01*
X0751095Y0146550D01*
X0701187Y0146550D01*
X0701112Y0146732D01*
X0700277Y0147567D01*
X0699186Y0148018D01*
X0698005Y0148018D01*
X0696914Y0147567D01*
X0696079Y0146732D01*
X0696003Y0146550D01*
X0637187Y0146550D01*
X0637112Y0146732D01*
X0636277Y0147567D01*
X0635186Y0148018D01*
X0634005Y0148018D01*
X0632914Y0147567D01*
X0632079Y0146732D01*
X0632003Y0146550D01*
X0572793Y0146550D01*
X0572277Y0147067D01*
X0571186Y0147518D01*
X0570005Y0147518D01*
X0568914Y0147067D01*
X0568595Y0146748D01*
X0568595Y0158581D01*
X0569686Y0158581D01*
X0569835Y0158643D01*
X0569627Y0158140D01*
X0569627Y0156960D01*
X0570079Y0155868D01*
X0570914Y0155033D01*
X0572005Y0154581D01*
X0573186Y0154581D01*
X0574277Y0155033D01*
X0575112Y0155868D01*
X0575564Y0156960D01*
X0575564Y0158140D01*
X0575112Y0159232D01*
X0574277Y0160067D01*
X0573186Y0160518D01*
X0572005Y0160518D01*
X0571855Y0160457D01*
X0572064Y0160960D01*
X0572064Y0162140D01*
X0571612Y0163232D01*
X0570777Y0164067D01*
X0569686Y0164518D01*
X0568595Y0164518D01*
X0568595Y0169352D01*
X0569112Y0169868D01*
X0569394Y0170550D01*
X0596503Y0170550D01*
X0596127Y0169640D01*
X0596127Y0168460D01*
X0596579Y0167368D01*
X0597414Y0166533D01*
X0598505Y0166081D01*
X0599686Y0166081D01*
X0600777Y0166533D01*
X0601612Y0167368D01*
X0602064Y0168460D01*
X0602064Y0169640D01*
X0601687Y0170550D01*
X0660503Y0170550D01*
X0660127Y0169640D01*
X0660127Y0168460D01*
X0660579Y0167368D01*
X0661414Y0166533D01*
X0662505Y0166081D01*
X0663686Y0166081D01*
X0664777Y0166533D01*
X0665612Y0167368D01*
X0666064Y0168460D01*
X0665978Y0168253D02*
X0724212Y0168253D01*
X0724538Y0167468D02*
X0665653Y0167468D01*
X0664925Y0166682D02*
X0725265Y0166682D01*
X0724095Y0163979D02*
X0724095Y0158550D01*
X0724095Y0152621D01*
X0723524Y0152050D01*
X0718095Y0152050D01*
X0715595Y0149550D01*
X0715595Y0147550D01*
X0715595Y0142550D02*
X0719095Y0140050D01*
X0722095Y0140050D01*
X0724095Y0138050D01*
X0724095Y0131550D01*
X0724095Y0126621D01*
X0723024Y0125550D01*
X0718095Y0125550D01*
X0715595Y0123050D01*
X0715595Y0121550D01*
X0720127Y0121885D02*
X0662064Y0121885D01*
X0662064Y0122140D02*
X0661612Y0123232D01*
X0660777Y0124067D01*
X0659686Y0124518D01*
X0658505Y0124518D01*
X0657414Y0124067D01*
X0656579Y0123232D01*
X0656127Y0122140D01*
X0656127Y0120960D01*
X0656296Y0120550D01*
X0597894Y0120550D01*
X0598064Y0120960D01*
X0598064Y0122140D01*
X0597612Y0123232D01*
X0596777Y0124067D01*
X0595686Y0124518D01*
X0594505Y0124518D01*
X0593414Y0124067D01*
X0592579Y0123232D01*
X0592127Y0122140D01*
X0592127Y0120960D01*
X0592296Y0120550D01*
X0568595Y0120550D01*
X0568595Y0142352D01*
X0568914Y0142033D01*
X0570005Y0141581D01*
X0570595Y0141581D01*
X0570595Y0120550D01*
X0565595Y0120550D01*
X0565595Y0096050D01*
X0570595Y0096050D01*
X0570595Y0078050D01*
X0565595Y0078050D01*
X0565595Y0053642D01*
X0564686Y0054018D01*
X0563505Y0054018D01*
X0562414Y0053567D01*
X0561579Y0052732D01*
X0561127Y0051640D01*
X0561127Y0050460D01*
X0561579Y0049368D01*
X0562414Y0048533D01*
X0563505Y0048081D01*
X0564686Y0048081D01*
X0565595Y0048458D01*
X0565595Y0046050D01*
X0568897Y0046050D01*
X0568914Y0046033D01*
X0570005Y0045581D01*
X0571095Y0045581D01*
X0571095Y0025518D01*
X0570505Y0025518D01*
X0569414Y0025067D01*
X0568897Y0024550D01*
X0561095Y0024550D01*
X0561095Y0289050D01*
X0570595Y0289050D01*
X0570595Y0270050D01*
X0565595Y0270050D01*
X0565595Y0238550D01*
X0567897Y0238550D01*
X0568414Y0238033D01*
X0569505Y0237581D01*
X0570595Y0237581D01*
X0570595Y0216550D01*
X0565595Y0216550D01*
X0565595Y0192050D01*
X0570595Y0192050D01*
X0571095Y0173550D01*
X0568793Y0173550D01*
X0568277Y0174067D01*
X0567186Y0174518D01*
X0566005Y0174518D01*
X0564914Y0174067D01*
X0564079Y0173232D01*
X0563627Y0172140D01*
X0563627Y0170960D01*
X0564079Y0169868D01*
X0564914Y0169033D01*
X0565518Y0168783D01*
X0565095Y0142550D01*
X0568397Y0142550D01*
X0568914Y0142033D01*
X0570005Y0141581D01*
X0571186Y0141581D01*
X0572277Y0142033D01*
X0572793Y0142550D01*
X0632897Y0142550D01*
X0632914Y0142533D01*
X0634005Y0142081D01*
X0635186Y0142081D01*
X0636277Y0142533D01*
X0636293Y0142550D01*
X0696897Y0142550D01*
X0696914Y0142533D01*
X0698005Y0142081D01*
X0699186Y0142081D01*
X0700277Y0142533D01*
X0700293Y0142550D01*
X0751095Y0142550D01*
X0751095Y0120550D01*
X0725894Y0120550D01*
X0726064Y0120960D01*
X0726064Y0122140D01*
X0725612Y0123232D01*
X0724777Y0124067D01*
X0723686Y0124518D01*
X0722505Y0124518D01*
X0721414Y0124067D01*
X0720579Y0123232D01*
X0720127Y0122140D01*
X0720127Y0120960D01*
X0720296Y0120550D01*
X0661894Y0120550D01*
X0662064Y0120960D01*
X0662064Y0122140D01*
X0661844Y0122670D02*
X0720346Y0122670D01*
X0720803Y0123456D02*
X0661387Y0123456D01*
X0660352Y0124242D02*
X0721838Y0124242D01*
X0724352Y0124242D02*
X0751095Y0124242D01*
X0751095Y0123456D02*
X0725387Y0123456D01*
X0725844Y0122670D02*
X0751095Y0122670D01*
X0751095Y0121885D02*
X0726064Y0121885D01*
X0726064Y0121099D02*
X0751095Y0121099D01*
X0754595Y0121099D02*
X0760095Y0121099D01*
X0760095Y0121885D02*
X0754595Y0121885D01*
X0754595Y0122670D02*
X0760095Y0122670D01*
X0760095Y0123456D02*
X0754595Y0123456D01*
X0754595Y0124242D02*
X0760095Y0124242D01*
X0760095Y0125028D02*
X0754595Y0125028D01*
X0754595Y0125814D02*
X0760095Y0125814D01*
X0760095Y0126600D02*
X0754595Y0126600D01*
X0754595Y0127386D02*
X0760095Y0127386D01*
X0760095Y0128172D02*
X0754595Y0128172D01*
X0754595Y0128958D02*
X0760095Y0128958D01*
X0760095Y0129744D02*
X0754595Y0129744D01*
X0754595Y0130530D02*
X0760095Y0130530D01*
X0760095Y0131316D02*
X0754595Y0131316D01*
X0754595Y0132101D02*
X0760095Y0132101D01*
X0760095Y0132887D02*
X0754595Y0132887D01*
X0754595Y0133673D02*
X0760095Y0133673D01*
X0760095Y0134459D02*
X0754595Y0134459D01*
X0754595Y0135245D02*
X0760095Y0135245D01*
X0760095Y0136031D02*
X0754595Y0136031D01*
X0754595Y0136817D02*
X0760095Y0136817D01*
X0760095Y0137603D02*
X0754595Y0137603D01*
X0754595Y0138389D02*
X0760095Y0138389D01*
X0760095Y0139175D02*
X0754595Y0139175D01*
X0754595Y0139961D02*
X0760095Y0139961D01*
X0760095Y0140746D02*
X0754595Y0140746D01*
X0754595Y0141532D02*
X0760095Y0141532D01*
X0760095Y0142318D02*
X0754595Y0142318D01*
X0754595Y0143104D02*
X0760095Y0143104D01*
X0760095Y0143890D02*
X0754595Y0143890D01*
X0754595Y0144676D02*
X0760095Y0144676D01*
X0760095Y0145462D02*
X0754595Y0145462D01*
X0754595Y0146248D02*
X0760095Y0146248D01*
X0760095Y0147034D02*
X0750095Y0147034D01*
X0750095Y0147820D02*
X0760095Y0147820D01*
X0760095Y0148606D02*
X0750095Y0148606D01*
X0750095Y0149392D02*
X0760095Y0149392D01*
X0760095Y0150177D02*
X0750095Y0150177D01*
X0750095Y0150963D02*
X0760095Y0150963D01*
X0760095Y0151749D02*
X0750095Y0151749D01*
X0750095Y0152535D02*
X0760095Y0152535D01*
X0760095Y0153321D02*
X0750095Y0153321D01*
X0750095Y0154107D02*
X0760095Y0154107D01*
X0760095Y0154893D02*
X0750095Y0154893D01*
X0750095Y0155679D02*
X0760095Y0155679D01*
X0760095Y0156465D02*
X0750095Y0156465D01*
X0750095Y0157251D02*
X0760095Y0157251D01*
X0760095Y0158037D02*
X0750095Y0158037D01*
X0750095Y0158822D02*
X0760095Y0158822D01*
X0760095Y0159608D02*
X0750852Y0159608D01*
X0751095Y0159608D01*
X0751095Y0158822D02*
X0749767Y0158822D01*
X0751095Y0158037D02*
X0736064Y0158037D01*
X0736064Y0157960D02*
X0735612Y0156868D01*
X0734777Y0156033D01*
X0733686Y0155581D01*
X0732505Y0155581D01*
X0731414Y0156033D01*
X0730845Y0156602D01*
X0730277Y0156033D01*
X0729186Y0155581D01*
X0728005Y0155581D01*
X0726914Y0156033D01*
X0726079Y0156868D01*
X0725627Y0157960D01*
X0725627Y0159140D01*
X0726079Y0160232D01*
X0726914Y0161067D01*
X0728005Y0161518D01*
X0729186Y0161518D01*
X0730277Y0161067D01*
X0730845Y0160498D01*
X0731414Y0161067D01*
X0732505Y0161518D01*
X0733686Y0161518D01*
X0734777Y0161067D01*
X0735612Y0160232D01*
X0736064Y0159140D01*
X0736064Y0157960D01*
X0735770Y0157251D02*
X0751095Y0157251D01*
X0751095Y0156465D02*
X0735208Y0156465D01*
X0733921Y0155679D02*
X0751095Y0155679D01*
X0751095Y0154893D02*
X0573937Y0154893D01*
X0574922Y0155679D02*
X0586270Y0155679D01*
X0586505Y0155581D02*
X0587686Y0155581D01*
X0588777Y0156033D01*
X0589345Y0156602D01*
X0589914Y0156033D01*
X0591005Y0155581D01*
X0592186Y0155581D01*
X0593277Y0156033D01*
X0594112Y0156868D01*
X0594564Y0157960D01*
X0594564Y0159140D01*
X0594112Y0160232D01*
X0593277Y0161067D01*
X0592186Y0161518D01*
X0591005Y0161518D01*
X0589914Y0161067D01*
X0589345Y0160498D01*
X0588777Y0161067D01*
X0587686Y0161518D01*
X0586505Y0161518D01*
X0585414Y0161067D01*
X0584579Y0160232D01*
X0584127Y0159140D01*
X0584127Y0157960D01*
X0584579Y0156868D01*
X0585414Y0156033D01*
X0586505Y0155581D01*
X0587921Y0155679D02*
X0590770Y0155679D01*
X0589482Y0156465D02*
X0589208Y0156465D01*
X0589595Y0153550D02*
X0593595Y0153550D01*
X0596095Y0156050D01*
X0596095Y0158550D01*
X0596095Y0163979D01*
X0594524Y0165550D01*
X0588595Y0165550D01*
X0587595Y0166550D01*
X0587595Y0167050D01*
X0587595Y0170050D01*
X0590503Y0173550D02*
X0568793Y0173550D01*
X0568595Y0173748D01*
X0568595Y0192050D01*
X0704127Y0192050D01*
X0704127Y0191960D01*
X0704579Y0190868D01*
X0705414Y0190033D01*
X0706505Y0189581D01*
X0707686Y0189581D01*
X0708777Y0190033D01*
X0709612Y0190868D01*
X0710064Y0191960D01*
X0710064Y0192050D01*
X0730503Y0192050D01*
X0730579Y0191868D01*
X0731414Y0191033D01*
X0732505Y0190581D01*
X0733686Y0190581D01*
X0734777Y0191033D01*
X0735612Y0191868D01*
X0735687Y0192050D01*
X0751095Y0192050D01*
X0751095Y0173550D01*
X0723687Y0173550D01*
X0724064Y0174460D01*
X0724064Y0175640D01*
X0723612Y0176732D01*
X0722777Y0177567D01*
X0721686Y0178018D01*
X0720505Y0178018D01*
X0719414Y0177567D01*
X0718579Y0176732D01*
X0718127Y0175640D01*
X0718127Y0174460D01*
X0718503Y0173550D01*
X0659687Y0173550D01*
X0660064Y0174460D01*
X0660064Y0175640D01*
X0659612Y0176732D01*
X0658777Y0177567D01*
X0657686Y0178018D01*
X0656505Y0178018D01*
X0655414Y0177567D01*
X0654579Y0176732D01*
X0654127Y0175640D01*
X0654127Y0174460D01*
X0654503Y0173550D01*
X0595687Y0173550D01*
X0596064Y0174460D01*
X0596064Y0175640D01*
X0595612Y0176732D01*
X0594777Y0177567D01*
X0593686Y0178018D01*
X0592505Y0178018D01*
X0591414Y0177567D01*
X0590579Y0176732D01*
X0590127Y0175640D01*
X0590127Y0174460D01*
X0590503Y0173550D01*
X0590419Y0173755D02*
X0568595Y0173755D01*
X0568588Y0173755D02*
X0571090Y0173755D01*
X0571068Y0174541D02*
X0561095Y0174541D01*
X0561095Y0175327D02*
X0571047Y0175327D01*
X0571026Y0176113D02*
X0561095Y0176113D01*
X0561095Y0176898D02*
X0571005Y0176898D01*
X0570983Y0177684D02*
X0561095Y0177684D01*
X0561095Y0178470D02*
X0570962Y0178470D01*
X0570941Y0179256D02*
X0561095Y0179256D01*
X0561095Y0180042D02*
X0570920Y0180042D01*
X0570898Y0180828D02*
X0561095Y0180828D01*
X0561095Y0181614D02*
X0570877Y0181614D01*
X0570856Y0182400D02*
X0561095Y0182400D01*
X0561095Y0183186D02*
X0570835Y0183186D01*
X0570813Y0183972D02*
X0561095Y0183972D01*
X0561095Y0184758D02*
X0570792Y0184758D01*
X0570771Y0185544D02*
X0561095Y0185544D01*
X0561095Y0186329D02*
X0570750Y0186329D01*
X0570729Y0187115D02*
X0561095Y0187115D01*
X0561095Y0187901D02*
X0570707Y0187901D01*
X0570686Y0188687D02*
X0561095Y0188687D01*
X0561095Y0189473D02*
X0570665Y0189473D01*
X0570644Y0190259D02*
X0561095Y0190259D01*
X0561095Y0191045D02*
X0570622Y0191045D01*
X0570601Y0191831D02*
X0561095Y0191831D01*
X0561095Y0192617D02*
X0565595Y0192617D01*
X0565595Y0193403D02*
X0561095Y0193403D01*
X0561095Y0194189D02*
X0565595Y0194189D01*
X0565595Y0194974D02*
X0561095Y0194974D01*
X0561095Y0195760D02*
X0565595Y0195760D01*
X0565595Y0196546D02*
X0561095Y0196546D01*
X0561095Y0197332D02*
X0565595Y0197332D01*
X0565595Y0198118D02*
X0561095Y0198118D01*
X0561095Y0198904D02*
X0565595Y0198904D01*
X0565595Y0199690D02*
X0561095Y0199690D01*
X0561095Y0200476D02*
X0565595Y0200476D01*
X0565595Y0201262D02*
X0561095Y0201262D01*
X0561095Y0202048D02*
X0565595Y0202048D01*
X0565595Y0202834D02*
X0561095Y0202834D01*
X0561095Y0203620D02*
X0565595Y0203620D01*
X0565595Y0204405D02*
X0561095Y0204405D01*
X0561095Y0205191D02*
X0565595Y0205191D01*
X0565595Y0205977D02*
X0561095Y0205977D01*
X0561095Y0206763D02*
X0565595Y0206763D01*
X0565595Y0207549D02*
X0561095Y0207549D01*
X0561095Y0208335D02*
X0565595Y0208335D01*
X0565595Y0209121D02*
X0561095Y0209121D01*
X0561095Y0209907D02*
X0565595Y0209907D01*
X0565595Y0210693D02*
X0561095Y0210693D01*
X0561095Y0211479D02*
X0565595Y0211479D01*
X0565595Y0212265D02*
X0561095Y0212265D01*
X0561095Y0213050D02*
X0565595Y0213050D01*
X0565595Y0213836D02*
X0561095Y0213836D01*
X0561095Y0214622D02*
X0565595Y0214622D01*
X0565595Y0215408D02*
X0561095Y0215408D01*
X0561095Y0216194D02*
X0565595Y0216194D01*
X0564095Y0216050D02*
X0566095Y0218050D01*
X0586095Y0218050D01*
X0587095Y0217050D01*
X0586595Y0217550D01*
X0569595Y0217550D01*
X0568595Y0217766D02*
X0591627Y0217766D01*
X0591627Y0218140D02*
X0591627Y0216960D01*
X0591796Y0216550D01*
X0568595Y0216550D01*
X0568595Y0237958D01*
X0569505Y0237581D01*
X0570686Y0237581D01*
X0571777Y0238033D01*
X0572293Y0238550D01*
X0631897Y0238550D01*
X0632414Y0238033D01*
X0633505Y0237581D01*
X0634686Y0237581D01*
X0635777Y0238033D01*
X0636293Y0238550D01*
X0696897Y0238550D01*
X0696914Y0238533D01*
X0698005Y0238081D01*
X0699186Y0238081D01*
X0700277Y0238533D01*
X0700293Y0238550D01*
X0751095Y0238550D01*
X0751095Y0216550D01*
X0725394Y0216550D01*
X0725564Y0216960D01*
X0725564Y0218140D01*
X0725112Y0219232D01*
X0724277Y0220067D01*
X0723186Y0220518D01*
X0722005Y0220518D01*
X0720914Y0220067D01*
X0720079Y0219232D01*
X0719627Y0218140D01*
X0719627Y0216960D01*
X0719796Y0216550D01*
X0661394Y0216550D01*
X0661564Y0216960D01*
X0661564Y0218140D01*
X0661112Y0219232D01*
X0660277Y0220067D01*
X0659186Y0220518D01*
X0658005Y0220518D01*
X0656914Y0220067D01*
X0656079Y0219232D01*
X0655627Y0218140D01*
X0655627Y0216960D01*
X0655796Y0216550D01*
X0597394Y0216550D01*
X0597564Y0216960D01*
X0597564Y0218140D01*
X0597112Y0219232D01*
X0596277Y0220067D01*
X0595186Y0220518D01*
X0594005Y0220518D01*
X0592914Y0220067D01*
X0592079Y0219232D01*
X0591627Y0218140D01*
X0591797Y0218552D02*
X0568595Y0218552D01*
X0568595Y0219338D02*
X0592185Y0219338D01*
X0593052Y0220124D02*
X0568595Y0220124D01*
X0568595Y0220910D02*
X0751095Y0220910D01*
X0751095Y0221696D02*
X0568595Y0221696D01*
X0568595Y0222481D02*
X0751095Y0222481D01*
X0751095Y0223267D02*
X0746634Y0223267D01*
X0746186Y0223081D02*
X0747277Y0223533D01*
X0748112Y0224368D01*
X0748564Y0225460D01*
X0748564Y0226640D01*
X0748112Y0227732D01*
X0747277Y0228567D01*
X0746186Y0229018D01*
X0745005Y0229018D01*
X0743914Y0228567D01*
X0743079Y0227732D01*
X0742627Y0226640D01*
X0742627Y0225460D01*
X0743079Y0224368D01*
X0743914Y0223533D01*
X0745005Y0223081D01*
X0746186Y0223081D01*
X0744556Y0223267D02*
X0694011Y0223267D01*
X0693777Y0223033D02*
X0694612Y0223868D01*
X0695064Y0224960D01*
X0695064Y0226140D01*
X0694612Y0227232D01*
X0693777Y0228067D01*
X0692686Y0228518D01*
X0691505Y0228518D01*
X0690414Y0228067D01*
X0689579Y0227232D01*
X0689127Y0226140D01*
X0689127Y0224960D01*
X0689579Y0223868D01*
X0690414Y0223033D01*
X0691505Y0222581D01*
X0692686Y0222581D01*
X0693777Y0223033D01*
X0694688Y0224053D02*
X0743394Y0224053D01*
X0742884Y0224839D02*
X0733808Y0224839D01*
X0734277Y0225033D02*
X0735112Y0225868D01*
X0735564Y0226960D01*
X0735564Y0228140D01*
X0735112Y0229232D01*
X0734277Y0230067D01*
X0733186Y0230518D01*
X0732005Y0230518D01*
X0730914Y0230067D01*
X0730345Y0229498D01*
X0729777Y0230067D01*
X0728686Y0230518D01*
X0727505Y0230518D01*
X0726414Y0230067D01*
X0725579Y0229232D01*
X0725127Y0228140D01*
X0725127Y0226960D01*
X0725579Y0225868D01*
X0726414Y0225033D01*
X0727505Y0224581D01*
X0728686Y0224581D01*
X0729777Y0225033D01*
X0730345Y0225602D01*
X0730914Y0225033D01*
X0732005Y0224581D01*
X0733186Y0224581D01*
X0734277Y0225033D01*
X0734868Y0225625D02*
X0742627Y0225625D01*
X0742627Y0226411D02*
X0735336Y0226411D01*
X0735564Y0227197D02*
X0742857Y0227197D01*
X0743330Y0227983D02*
X0735564Y0227983D01*
X0735303Y0228769D02*
X0744402Y0228769D01*
X0746789Y0228769D02*
X0751095Y0228769D01*
X0751095Y0229555D02*
X0734789Y0229555D01*
X0733615Y0230341D02*
X0751095Y0230341D01*
X0751095Y0231126D02*
X0568595Y0231126D01*
X0568595Y0230341D02*
X0585575Y0230341D01*
X0586005Y0230518D02*
X0584914Y0230067D01*
X0584079Y0229232D01*
X0583627Y0228140D01*
X0583627Y0226960D01*
X0584079Y0225868D01*
X0584914Y0225033D01*
X0586005Y0224581D01*
X0587186Y0224581D01*
X0588277Y0225033D01*
X0588845Y0225602D01*
X0589414Y0225033D01*
X0590505Y0224581D01*
X0591686Y0224581D01*
X0592777Y0225033D01*
X0593612Y0225868D01*
X0594064Y0226960D01*
X0594064Y0228140D01*
X0593612Y0229232D01*
X0592777Y0230067D01*
X0591686Y0230518D01*
X0590505Y0230518D01*
X0589414Y0230067D01*
X0588845Y0229498D01*
X0588277Y0230067D01*
X0587186Y0230518D01*
X0586005Y0230518D01*
X0587615Y0230341D02*
X0590075Y0230341D01*
X0588902Y0229555D02*
X0588789Y0229555D01*
X0592115Y0230341D02*
X0599075Y0230341D01*
X0599505Y0230518D02*
X0598414Y0230067D01*
X0597579Y0229232D01*
X0597127Y0228140D01*
X0597127Y0226960D01*
X0597579Y0225868D01*
X0598414Y0225033D01*
X0599505Y0224581D01*
X0600686Y0224581D01*
X0601777Y0225033D01*
X0602345Y0225602D01*
X0602914Y0225033D01*
X0604005Y0224581D01*
X0605186Y0224581D01*
X0606277Y0225033D01*
X0607112Y0225868D01*
X0607564Y0226960D01*
X0607564Y0228140D01*
X0607112Y0229232D01*
X0606277Y0230067D01*
X0605186Y0230518D01*
X0604005Y0230518D01*
X0602914Y0230067D01*
X0602345Y0229498D01*
X0601777Y0230067D01*
X0600686Y0230518D01*
X0599505Y0230518D01*
X0601115Y0230341D02*
X0603575Y0230341D01*
X0602402Y0229555D02*
X0602289Y0229555D01*
X0605615Y0230341D02*
X0639075Y0230341D01*
X0639505Y0230518D02*
X0638414Y0230067D01*
X0637579Y0229232D01*
X0637127Y0228140D01*
X0637127Y0226960D01*
X0637579Y0225868D01*
X0638414Y0225033D01*
X0639505Y0224581D01*
X0640686Y0224581D01*
X0641777Y0225033D01*
X0642612Y0225868D01*
X0643064Y0226960D01*
X0643064Y0228140D01*
X0642612Y0229232D01*
X0641777Y0230067D01*
X0640686Y0230518D01*
X0639505Y0230518D01*
X0641115Y0230341D02*
X0649575Y0230341D01*
X0650005Y0230518D02*
X0648914Y0230067D01*
X0648079Y0229232D01*
X0647627Y0228140D01*
X0647627Y0226960D01*
X0648079Y0225868D01*
X0648914Y0225033D01*
X0650005Y0224581D01*
X0651186Y0224581D01*
X0652277Y0225033D01*
X0652845Y0225602D01*
X0653414Y0225033D01*
X0654505Y0224581D01*
X0655686Y0224581D01*
X0656777Y0225033D01*
X0657612Y0225868D01*
X0658064Y0226960D01*
X0658064Y0228140D01*
X0657612Y0229232D01*
X0656777Y0230067D01*
X0655686Y0230518D01*
X0654505Y0230518D01*
X0653414Y0230067D01*
X0652845Y0229498D01*
X0652277Y0230067D01*
X0651186Y0230518D01*
X0650005Y0230518D01*
X0651615Y0230341D02*
X0654075Y0230341D01*
X0652902Y0229555D02*
X0652789Y0229555D01*
X0656115Y0230341D02*
X0663075Y0230341D01*
X0663505Y0230518D02*
X0662414Y0230067D01*
X0661579Y0229232D01*
X0661127Y0228140D01*
X0661127Y0226960D01*
X0661579Y0225868D01*
X0662414Y0225033D01*
X0663505Y0224581D01*
X0664686Y0224581D01*
X0665777Y0225033D01*
X0666345Y0225602D01*
X0666914Y0225033D01*
X0668005Y0224581D01*
X0669186Y0224581D01*
X0670277Y0225033D01*
X0671112Y0225868D01*
X0671564Y0226960D01*
X0671564Y0228140D01*
X0671112Y0229232D01*
X0670277Y0230067D01*
X0669186Y0230518D01*
X0668005Y0230518D01*
X0666914Y0230067D01*
X0666345Y0229498D01*
X0665777Y0230067D01*
X0664686Y0230518D01*
X0663505Y0230518D01*
X0665115Y0230341D02*
X0667575Y0230341D01*
X0666402Y0229555D02*
X0666289Y0229555D01*
X0669615Y0230341D02*
X0713575Y0230341D01*
X0714005Y0230518D02*
X0712914Y0230067D01*
X0712079Y0229232D01*
X0711627Y0228140D01*
X0711627Y0226960D01*
X0712079Y0225868D01*
X0712914Y0225033D01*
X0714005Y0224581D01*
X0715186Y0224581D01*
X0716277Y0225033D01*
X0716845Y0225602D01*
X0717414Y0225033D01*
X0718505Y0224581D01*
X0719686Y0224581D01*
X0720777Y0225033D01*
X0721612Y0225868D01*
X0722064Y0226960D01*
X0722064Y0228140D01*
X0721612Y0229232D01*
X0720777Y0230067D01*
X0719686Y0230518D01*
X0718505Y0230518D01*
X0717414Y0230067D01*
X0716845Y0229498D01*
X0716277Y0230067D01*
X0715186Y0230518D01*
X0714005Y0230518D01*
X0715615Y0230341D02*
X0718075Y0230341D01*
X0716902Y0229555D02*
X0716789Y0229555D01*
X0720115Y0230341D02*
X0727075Y0230341D01*
X0725902Y0229555D02*
X0721289Y0229555D01*
X0721803Y0228769D02*
X0725387Y0228769D01*
X0725127Y0227983D02*
X0722064Y0227983D01*
X0722064Y0227197D02*
X0725127Y0227197D01*
X0725354Y0226411D02*
X0721836Y0226411D01*
X0721368Y0225625D02*
X0725822Y0225625D01*
X0726883Y0224839D02*
X0720308Y0224839D01*
X0721095Y0223050D02*
X0717595Y0223050D01*
X0715095Y0220550D01*
X0715095Y0217550D01*
X0719627Y0217766D02*
X0661564Y0217766D01*
X0661564Y0216980D02*
X0719627Y0216980D01*
X0719797Y0218552D02*
X0661393Y0218552D01*
X0661005Y0219338D02*
X0720185Y0219338D01*
X0721052Y0220124D02*
X0660139Y0220124D01*
X0657052Y0220124D02*
X0596139Y0220124D01*
X0597005Y0219338D02*
X0656185Y0219338D01*
X0655797Y0218552D02*
X0597393Y0218552D01*
X0597564Y0217766D02*
X0655627Y0217766D01*
X0655627Y0216980D02*
X0597564Y0216980D01*
X0595894Y0212550D02*
X0654296Y0212550D01*
X0654127Y0212140D01*
X0654127Y0210960D01*
X0654579Y0209868D01*
X0655414Y0209033D01*
X0656505Y0208581D01*
X0657686Y0208581D01*
X0658777Y0209033D01*
X0659612Y0209868D01*
X0660064Y0210960D01*
X0660064Y0212140D01*
X0659894Y0212550D01*
X0718296Y0212550D01*
X0718127Y0212140D01*
X0718127Y0210960D01*
X0718579Y0209868D01*
X0719414Y0209033D01*
X0720505Y0208581D01*
X0721686Y0208581D01*
X0722777Y0209033D01*
X0723612Y0209868D01*
X0724064Y0210960D01*
X0724064Y0212140D01*
X0723894Y0212550D01*
X0751095Y0212550D01*
X0751095Y0195050D01*
X0746064Y0195050D01*
X0746064Y0196140D01*
X0745612Y0197232D01*
X0744777Y0198067D01*
X0743686Y0198518D01*
X0742505Y0198518D01*
X0741414Y0198067D01*
X0740579Y0197232D01*
X0740127Y0196140D01*
X0740127Y0195050D01*
X0735687Y0195050D01*
X0735612Y0195232D01*
X0734777Y0196067D01*
X0733686Y0196518D01*
X0732505Y0196518D01*
X0731414Y0196067D01*
X0730579Y0195232D01*
X0730503Y0195050D01*
X0712187Y0195050D01*
X0712564Y0195960D01*
X0712564Y0197140D01*
X0712112Y0198232D01*
X0711277Y0199067D01*
X0710186Y0199518D01*
X0709005Y0199518D01*
X0707914Y0199067D01*
X0707079Y0198232D01*
X0706627Y0197140D01*
X0706627Y0195960D01*
X0706809Y0195518D01*
X0706505Y0195518D01*
X0705414Y0195067D01*
X0705397Y0195050D01*
X0568595Y0195050D01*
X0568595Y0212550D01*
X0590296Y0212550D01*
X0590127Y0212140D01*
X0590127Y0210960D01*
X0590579Y0209868D01*
X0591414Y0209033D01*
X0592505Y0208581D01*
X0593686Y0208581D01*
X0594777Y0209033D01*
X0595612Y0209868D01*
X0596064Y0210960D01*
X0596064Y0212140D01*
X0595894Y0212550D01*
X0596012Y0212265D02*
X0654178Y0212265D01*
X0654127Y0211479D02*
X0596064Y0211479D01*
X0595953Y0210693D02*
X0654237Y0210693D01*
X0654563Y0209907D02*
X0641936Y0209907D01*
X0641777Y0210067D02*
X0640686Y0210518D01*
X0639505Y0210518D01*
X0638414Y0210067D01*
X0637579Y0209232D01*
X0637127Y0208140D01*
X0637127Y0206960D01*
X0637579Y0205868D01*
X0638414Y0205033D01*
X0639505Y0204581D01*
X0640686Y0204581D01*
X0641777Y0205033D01*
X0642612Y0205868D01*
X0643064Y0206960D01*
X0643064Y0208140D01*
X0642612Y0209232D01*
X0641777Y0210067D01*
X0642658Y0209121D02*
X0655326Y0209121D01*
X0658864Y0209121D02*
X0701533Y0209121D01*
X0701579Y0209232D02*
X0701127Y0208140D01*
X0701127Y0206960D01*
X0701579Y0205868D01*
X0702414Y0205033D01*
X0703505Y0204581D01*
X0704686Y0204581D01*
X0705777Y0205033D01*
X0706612Y0205868D01*
X0707064Y0206960D01*
X0707064Y0208140D01*
X0706612Y0209232D01*
X0705777Y0210067D01*
X0704686Y0210518D01*
X0703505Y0210518D01*
X0702414Y0210067D01*
X0701579Y0209232D01*
X0702254Y0209907D02*
X0659628Y0209907D01*
X0659953Y0210693D02*
X0718237Y0210693D01*
X0718127Y0211479D02*
X0660064Y0211479D01*
X0660012Y0212265D02*
X0718178Y0212265D01*
X0718563Y0209907D02*
X0705936Y0209907D01*
X0706658Y0209121D02*
X0719326Y0209121D01*
X0718595Y0207550D02*
X0715095Y0211050D01*
X0715095Y0212550D01*
X0722864Y0209121D02*
X0751095Y0209121D01*
X0750595Y0209121D02*
X0760095Y0209121D01*
X0760095Y0209907D02*
X0750595Y0209907D01*
X0751095Y0209907D02*
X0723628Y0209907D01*
X0723953Y0210693D02*
X0751095Y0210693D01*
X0750595Y0210693D02*
X0760095Y0210693D01*
X0760095Y0211479D02*
X0750595Y0211479D01*
X0751095Y0211479D02*
X0724064Y0211479D01*
X0724012Y0212265D02*
X0751095Y0212265D01*
X0750595Y0212265D02*
X0760095Y0212265D01*
X0760095Y0213050D02*
X0754595Y0213050D01*
X0754595Y0213836D02*
X0760095Y0213836D01*
X0760095Y0214622D02*
X0754595Y0214622D01*
X0754595Y0215408D02*
X0760095Y0215408D01*
X0760095Y0216194D02*
X0754595Y0216194D01*
X0754595Y0216980D02*
X0760095Y0216980D01*
X0760095Y0217766D02*
X0754595Y0217766D01*
X0754595Y0218552D02*
X0760095Y0218552D01*
X0760095Y0219338D02*
X0754595Y0219338D01*
X0754595Y0220124D02*
X0760095Y0220124D01*
X0760095Y0220910D02*
X0754595Y0220910D01*
X0754595Y0221696D02*
X0760095Y0221696D01*
X0760095Y0222481D02*
X0754595Y0222481D01*
X0754595Y0223267D02*
X0760095Y0223267D01*
X0760095Y0224053D02*
X0754595Y0224053D01*
X0754595Y0224839D02*
X0760095Y0224839D01*
X0760095Y0225625D02*
X0754595Y0225625D01*
X0754595Y0226411D02*
X0760095Y0226411D01*
X0760095Y0227197D02*
X0754595Y0227197D01*
X0754595Y0227983D02*
X0760095Y0227983D01*
X0760095Y0228769D02*
X0754595Y0228769D01*
X0754595Y0229555D02*
X0760095Y0229555D01*
X0760095Y0230341D02*
X0754595Y0230341D01*
X0754595Y0231126D02*
X0760095Y0231126D01*
X0760095Y0231912D02*
X0754595Y0231912D01*
X0754595Y0232698D02*
X0760095Y0232698D01*
X0760095Y0233484D02*
X0754595Y0233484D01*
X0754595Y0234270D02*
X0760095Y0234270D01*
X0760095Y0235056D02*
X0754595Y0235056D01*
X0754595Y0235842D02*
X0760095Y0235842D01*
X0760095Y0236628D02*
X0754595Y0236628D01*
X0754595Y0237414D02*
X0760095Y0237414D01*
X0760095Y0238200D02*
X0754595Y0238200D01*
X0754595Y0238986D02*
X0760095Y0238986D01*
X0760095Y0239772D02*
X0754595Y0239772D01*
X0754595Y0240557D02*
X0760095Y0240557D01*
X0760095Y0241343D02*
X0754595Y0241343D01*
X0754595Y0242129D02*
X0760095Y0242129D01*
X0760095Y0242915D02*
X0750095Y0242915D01*
X0750095Y0243701D02*
X0760095Y0243701D01*
X0760095Y0244487D02*
X0750095Y0244487D01*
X0750095Y0245273D02*
X0760095Y0245273D01*
X0760095Y0246059D02*
X0750095Y0246059D01*
X0750095Y0246845D02*
X0760095Y0246845D01*
X0760095Y0247631D02*
X0750095Y0247631D01*
X0750095Y0248417D02*
X0760095Y0248417D01*
X0760095Y0249202D02*
X0750095Y0249202D01*
X0750095Y0249988D02*
X0760095Y0249988D01*
X0760095Y0250774D02*
X0750095Y0250774D01*
X0750095Y0251560D02*
X0760095Y0251560D01*
X0760095Y0252346D02*
X0750095Y0252346D01*
X0750095Y0253132D02*
X0760095Y0253132D01*
X0760095Y0253918D02*
X0750095Y0253918D01*
X0749777Y0254533D02*
X0750612Y0255368D01*
X0751064Y0256460D01*
X0751064Y0257640D01*
X0750612Y0258732D01*
X0749777Y0259567D01*
X0748686Y0260018D01*
X0747505Y0260018D01*
X0746414Y0259567D01*
X0745579Y0258732D01*
X0745127Y0257640D01*
X0745127Y0256460D01*
X0745579Y0255368D01*
X0746414Y0254533D01*
X0747505Y0254081D01*
X0748686Y0254081D01*
X0749777Y0254533D01*
X0749947Y0254704D02*
X0751095Y0254704D01*
X0751095Y0255490D02*
X0750662Y0255490D01*
X0760095Y0255490D01*
X0760095Y0256276D02*
X0750987Y0256276D01*
X0751095Y0256276D01*
X0751064Y0257062D02*
X0751095Y0257062D01*
X0751064Y0257062D02*
X0760095Y0257062D01*
X0760095Y0257848D02*
X0750978Y0257848D01*
X0751095Y0257848D01*
X0751095Y0258633D02*
X0750652Y0258633D01*
X0760095Y0258633D01*
X0760095Y0259419D02*
X0750095Y0259419D01*
X0749924Y0259419D02*
X0751095Y0259419D01*
X0751095Y0260205D02*
X0685442Y0260205D01*
X0685777Y0260067D02*
X0684686Y0260518D01*
X0683505Y0260518D01*
X0682414Y0260067D01*
X0681579Y0259232D01*
X0681127Y0258140D01*
X0681127Y0256960D01*
X0681579Y0255868D01*
X0682414Y0255033D01*
X0683505Y0254581D01*
X0684686Y0254581D01*
X0685777Y0255033D01*
X0686612Y0255868D01*
X0687064Y0256960D01*
X0687064Y0258140D01*
X0686612Y0259232D01*
X0685777Y0260067D01*
X0686424Y0259419D02*
X0746266Y0259419D01*
X0745538Y0258633D02*
X0686859Y0258633D01*
X0687064Y0257848D02*
X0745212Y0257848D01*
X0745127Y0257062D02*
X0734282Y0257062D01*
X0734277Y0257067D02*
X0733186Y0257518D01*
X0732005Y0257518D01*
X0730914Y0257067D01*
X0730345Y0256498D01*
X0729777Y0257067D01*
X0728686Y0257518D01*
X0727505Y0257518D01*
X0726414Y0257067D01*
X0725579Y0256232D01*
X0725127Y0255140D01*
X0725127Y0253960D01*
X0725579Y0252868D01*
X0726414Y0252033D01*
X0727505Y0251581D01*
X0728686Y0251581D01*
X0729777Y0252033D01*
X0730345Y0252602D01*
X0730914Y0252033D01*
X0732005Y0251581D01*
X0733186Y0251581D01*
X0734277Y0252033D01*
X0735112Y0252868D01*
X0735564Y0253960D01*
X0735564Y0255140D01*
X0735112Y0256232D01*
X0734277Y0257067D01*
X0735068Y0256276D02*
X0745203Y0256276D01*
X0745528Y0255490D02*
X0735419Y0255490D01*
X0735564Y0254704D02*
X0746243Y0254704D01*
X0750095Y0254704D02*
X0760095Y0254704D01*
X0760095Y0260205D02*
X0750095Y0260205D01*
X0750095Y0260991D02*
X0760095Y0260991D01*
X0760095Y0261777D02*
X0750095Y0261777D01*
X0750095Y0262563D02*
X0760095Y0262563D01*
X0760095Y0263349D02*
X0750095Y0263349D01*
X0750095Y0264135D02*
X0760095Y0264135D01*
X0760095Y0264921D02*
X0750095Y0264921D01*
X0750095Y0265707D02*
X0760095Y0265707D01*
X0751095Y0265707D02*
X0729536Y0265707D01*
X0729564Y0265640D02*
X0729394Y0266050D01*
X0751095Y0266050D01*
X0751095Y0242550D01*
X0701187Y0242550D01*
X0701112Y0242732D01*
X0700277Y0243567D01*
X0699186Y0244018D01*
X0698005Y0244018D01*
X0696914Y0243567D01*
X0696079Y0242732D01*
X0696003Y0242550D01*
X0636293Y0242550D01*
X0635777Y0243067D01*
X0634686Y0243518D01*
X0633505Y0243518D01*
X0632414Y0243067D01*
X0631897Y0242550D01*
X0572293Y0242550D01*
X0571777Y0243067D01*
X0570686Y0243518D01*
X0569505Y0243518D01*
X0568595Y0243142D01*
X0568595Y0266050D01*
X0595796Y0266050D01*
X0595627Y0265640D01*
X0595627Y0264460D01*
X0596079Y0263368D01*
X0596914Y0262533D01*
X0598005Y0262081D01*
X0599186Y0262081D01*
X0600277Y0262533D01*
X0601112Y0263368D01*
X0601564Y0264460D01*
X0601564Y0265640D01*
X0601394Y0266050D01*
X0659796Y0266050D01*
X0659627Y0265640D01*
X0659627Y0264460D01*
X0660079Y0263368D01*
X0660914Y0262533D01*
X0662005Y0262081D01*
X0663186Y0262081D01*
X0664277Y0262533D01*
X0665112Y0263368D01*
X0665564Y0264460D01*
X0665564Y0265640D01*
X0665394Y0266050D01*
X0723796Y0266050D01*
X0723627Y0265640D01*
X0723627Y0264460D01*
X0724079Y0263368D01*
X0724914Y0262533D01*
X0726005Y0262081D01*
X0727186Y0262081D01*
X0728277Y0262533D01*
X0729112Y0263368D01*
X0729564Y0264460D01*
X0729564Y0265640D01*
X0729564Y0264921D02*
X0751095Y0264921D01*
X0751095Y0264135D02*
X0729429Y0264135D01*
X0729092Y0263349D02*
X0751095Y0263349D01*
X0751095Y0262563D02*
X0728306Y0262563D01*
X0724884Y0262563D02*
X0664306Y0262563D01*
X0665092Y0263349D02*
X0724098Y0263349D01*
X0723761Y0264135D02*
X0665429Y0264135D01*
X0665564Y0264921D02*
X0723627Y0264921D01*
X0723654Y0265707D02*
X0665536Y0265707D01*
X0660884Y0262563D02*
X0600306Y0262563D01*
X0601092Y0263349D02*
X0660098Y0263349D01*
X0659761Y0264135D02*
X0601429Y0264135D01*
X0601564Y0264921D02*
X0659627Y0264921D01*
X0659654Y0265707D02*
X0601536Y0265707D01*
X0596884Y0262563D02*
X0568595Y0262563D01*
X0568595Y0263349D02*
X0596098Y0263349D01*
X0595761Y0264135D02*
X0568595Y0264135D01*
X0568595Y0264921D02*
X0595627Y0264921D01*
X0595654Y0265707D02*
X0568595Y0265707D01*
X0565595Y0265707D02*
X0561095Y0265707D01*
X0561095Y0266493D02*
X0565595Y0266493D01*
X0565595Y0267278D02*
X0561095Y0267278D01*
X0561095Y0268064D02*
X0565595Y0268064D01*
X0565595Y0268850D02*
X0561095Y0268850D01*
X0561095Y0269636D02*
X0565595Y0269636D01*
X0568595Y0270050D02*
X0568595Y0289050D01*
X0751095Y0289050D01*
X0751095Y0270050D01*
X0723394Y0270050D01*
X0723564Y0270460D01*
X0723564Y0271640D01*
X0723112Y0272732D01*
X0722277Y0273567D01*
X0721186Y0274018D01*
X0720005Y0274018D01*
X0718914Y0273567D01*
X0718079Y0272732D01*
X0717627Y0271640D01*
X0717627Y0270460D01*
X0717796Y0270050D01*
X0659394Y0270050D01*
X0659564Y0270460D01*
X0659564Y0271640D01*
X0659112Y0272732D01*
X0658277Y0273567D01*
X0657186Y0274018D01*
X0656005Y0274018D01*
X0654914Y0273567D01*
X0654079Y0272732D01*
X0653627Y0271640D01*
X0653627Y0270460D01*
X0653796Y0270050D01*
X0595394Y0270050D01*
X0595564Y0270460D01*
X0595564Y0271640D01*
X0595112Y0272732D01*
X0594277Y0273567D01*
X0593186Y0274018D01*
X0592005Y0274018D01*
X0590914Y0273567D01*
X0590079Y0272732D01*
X0589627Y0271640D01*
X0589627Y0270460D01*
X0589796Y0270050D01*
X0568595Y0270050D01*
X0568595Y0270422D02*
X0589642Y0270422D01*
X0589627Y0271208D02*
X0568595Y0271208D01*
X0568595Y0271994D02*
X0589773Y0271994D01*
X0590127Y0272780D02*
X0578023Y0272780D01*
X0577777Y0272533D02*
X0578612Y0273368D01*
X0579064Y0274460D01*
X0579064Y0275640D01*
X0578612Y0276732D01*
X0577777Y0277567D01*
X0576686Y0278018D01*
X0575505Y0278018D01*
X0574414Y0277567D01*
X0573579Y0276732D01*
X0573127Y0275640D01*
X0573127Y0274460D01*
X0573579Y0273368D01*
X0574414Y0272533D01*
X0575505Y0272081D01*
X0576686Y0272081D01*
X0577777Y0272533D01*
X0578693Y0273566D02*
X0590913Y0273566D01*
X0589095Y0274550D02*
X0594024Y0274550D01*
X0595595Y0276121D01*
X0595595Y0281550D01*
X0589095Y0274550D02*
X0587095Y0272550D01*
X0587095Y0271050D01*
X0594277Y0273566D02*
X0637381Y0273566D01*
X0637079Y0273868D02*
X0637914Y0273033D01*
X0639005Y0272581D01*
X0640186Y0272581D01*
X0641277Y0273033D01*
X0642112Y0273868D01*
X0642564Y0274960D01*
X0642564Y0276140D01*
X0642112Y0277232D01*
X0641277Y0278067D01*
X0640186Y0278518D01*
X0639005Y0278518D01*
X0637914Y0278067D01*
X0637079Y0277232D01*
X0636627Y0276140D01*
X0636627Y0274960D01*
X0637079Y0273868D01*
X0636878Y0274352D02*
X0579019Y0274352D01*
X0579064Y0275138D02*
X0636627Y0275138D01*
X0636627Y0275923D02*
X0578946Y0275923D01*
X0578621Y0276709D02*
X0636862Y0276709D01*
X0637342Y0277495D02*
X0577848Y0277495D01*
X0574342Y0277495D02*
X0568595Y0277495D01*
X0568595Y0276709D02*
X0573569Y0276709D01*
X0573244Y0275923D02*
X0568595Y0275923D01*
X0568595Y0275138D02*
X0573127Y0275138D01*
X0573171Y0274352D02*
X0568595Y0274352D01*
X0568595Y0273566D02*
X0573497Y0273566D01*
X0574167Y0272780D02*
X0568595Y0272780D01*
X0570595Y0272780D02*
X0561095Y0272780D01*
X0561095Y0273566D02*
X0570595Y0273566D01*
X0570595Y0274352D02*
X0561095Y0274352D01*
X0561095Y0275138D02*
X0570595Y0275138D01*
X0570595Y0275923D02*
X0561095Y0275923D01*
X0561095Y0276709D02*
X0570595Y0276709D01*
X0570595Y0277495D02*
X0561095Y0277495D01*
X0561095Y0278281D02*
X0570595Y0278281D01*
X0570595Y0279067D02*
X0561095Y0279067D01*
X0561095Y0279853D02*
X0570595Y0279853D01*
X0570595Y0280639D02*
X0561095Y0280639D01*
X0561095Y0281425D02*
X0570595Y0281425D01*
X0570595Y0282211D02*
X0561095Y0282211D01*
X0561095Y0282997D02*
X0570595Y0282997D01*
X0570595Y0283783D02*
X0561095Y0283783D01*
X0561095Y0284569D02*
X0570595Y0284569D01*
X0570595Y0285354D02*
X0561095Y0285354D01*
X0561095Y0286140D02*
X0570595Y0286140D01*
X0570595Y0286926D02*
X0561095Y0286926D01*
X0561095Y0287712D02*
X0570595Y0287712D01*
X0570595Y0288498D02*
X0561095Y0288498D01*
X0568595Y0288498D02*
X0751095Y0288498D01*
X0751095Y0287712D02*
X0568595Y0287712D01*
X0568595Y0286926D02*
X0707773Y0286926D01*
X0707914Y0287067D02*
X0707079Y0286232D01*
X0706627Y0285140D01*
X0706627Y0283960D01*
X0707079Y0282868D01*
X0707914Y0282033D01*
X0709005Y0281581D01*
X0710186Y0281581D01*
X0711277Y0282033D01*
X0712112Y0282868D01*
X0712564Y0283960D01*
X0712564Y0285140D01*
X0712112Y0286232D01*
X0711277Y0287067D01*
X0710186Y0287518D01*
X0709005Y0287518D01*
X0707914Y0287067D01*
X0707041Y0286140D02*
X0568595Y0286140D01*
X0568595Y0285354D02*
X0706715Y0285354D01*
X0706627Y0284569D02*
X0568595Y0284569D01*
X0568595Y0283783D02*
X0706700Y0283783D01*
X0707025Y0282997D02*
X0651738Y0282997D01*
X0651686Y0283018D02*
X0650505Y0283018D01*
X0649414Y0282567D01*
X0648579Y0281732D01*
X0648127Y0280640D01*
X0648127Y0279460D01*
X0648579Y0278368D01*
X0649414Y0277533D01*
X0650505Y0277081D01*
X0651686Y0277081D01*
X0652777Y0277533D01*
X0653612Y0278368D01*
X0654064Y0279460D01*
X0654064Y0280640D01*
X0653612Y0281732D01*
X0652777Y0282567D01*
X0651686Y0283018D01*
X0650452Y0282997D02*
X0568595Y0282997D01*
X0568595Y0282211D02*
X0649058Y0282211D01*
X0648452Y0281425D02*
X0568595Y0281425D01*
X0568595Y0280639D02*
X0648127Y0280639D01*
X0648127Y0279853D02*
X0568595Y0279853D01*
X0568595Y0279067D02*
X0648289Y0279067D01*
X0648666Y0278281D02*
X0640758Y0278281D01*
X0641848Y0277495D02*
X0649506Y0277495D01*
X0652685Y0277495D02*
X0702342Y0277495D01*
X0702414Y0277567D02*
X0701579Y0276732D01*
X0701127Y0275640D01*
X0701127Y0274460D01*
X0701579Y0273368D01*
X0702414Y0272533D01*
X0703505Y0272081D01*
X0704686Y0272081D01*
X0705777Y0272533D01*
X0706612Y0273368D01*
X0707064Y0274460D01*
X0707064Y0275640D01*
X0706612Y0276732D01*
X0705777Y0277567D01*
X0704686Y0278018D01*
X0703505Y0278018D01*
X0702414Y0277567D01*
X0701569Y0276709D02*
X0642328Y0276709D01*
X0642564Y0275923D02*
X0701244Y0275923D01*
X0701127Y0275138D02*
X0642564Y0275138D01*
X0642312Y0274352D02*
X0701171Y0274352D01*
X0701497Y0273566D02*
X0658277Y0273566D01*
X0659063Y0272780D02*
X0702167Y0272780D01*
X0706023Y0272780D02*
X0718127Y0272780D01*
X0717773Y0271994D02*
X0659417Y0271994D01*
X0659564Y0271208D02*
X0717627Y0271208D01*
X0717642Y0270422D02*
X0659548Y0270422D01*
X0654913Y0273566D02*
X0641809Y0273566D01*
X0640664Y0272780D02*
X0654127Y0272780D01*
X0653773Y0271994D02*
X0595417Y0271994D01*
X0595564Y0271208D02*
X0653627Y0271208D01*
X0653642Y0270422D02*
X0595548Y0270422D01*
X0595063Y0272780D02*
X0638526Y0272780D01*
X0638432Y0278281D02*
X0568595Y0278281D01*
X0570595Y0271994D02*
X0561095Y0271994D01*
X0561095Y0271208D02*
X0570595Y0271208D01*
X0570595Y0270422D02*
X0561095Y0270422D01*
X0561095Y0264921D02*
X0565595Y0264921D01*
X0565595Y0264135D02*
X0561095Y0264135D01*
X0561095Y0263349D02*
X0565595Y0263349D01*
X0565595Y0262563D02*
X0561095Y0262563D01*
X0561095Y0261777D02*
X0565595Y0261777D01*
X0565595Y0260991D02*
X0561095Y0260991D01*
X0561095Y0260205D02*
X0565595Y0260205D01*
X0565595Y0259419D02*
X0561095Y0259419D01*
X0561095Y0258633D02*
X0565595Y0258633D01*
X0565595Y0257848D02*
X0561095Y0257848D01*
X0561095Y0257062D02*
X0565595Y0257062D01*
X0565595Y0256276D02*
X0561095Y0256276D01*
X0561095Y0255490D02*
X0565595Y0255490D01*
X0565595Y0254704D02*
X0561095Y0254704D01*
X0561095Y0253918D02*
X0565595Y0253918D01*
X0565595Y0253132D02*
X0561095Y0253132D01*
X0561095Y0252346D02*
X0565595Y0252346D01*
X0565595Y0251560D02*
X0561095Y0251560D01*
X0561095Y0250774D02*
X0565595Y0250774D01*
X0565595Y0249988D02*
X0561095Y0249988D01*
X0561095Y0249202D02*
X0565595Y0249202D01*
X0565595Y0248417D02*
X0561095Y0248417D01*
X0561095Y0247631D02*
X0565595Y0247631D01*
X0565595Y0246845D02*
X0561095Y0246845D01*
X0561095Y0246059D02*
X0565595Y0246059D01*
X0565595Y0245273D02*
X0561095Y0245273D01*
X0561095Y0244487D02*
X0565595Y0244487D01*
X0565595Y0243701D02*
X0561095Y0243701D01*
X0561095Y0242915D02*
X0565595Y0242915D01*
X0565595Y0242129D02*
X0561095Y0242129D01*
X0561095Y0241343D02*
X0565595Y0241343D01*
X0565595Y0240557D02*
X0561095Y0240557D01*
X0561095Y0239772D02*
X0565595Y0239772D01*
X0565595Y0238986D02*
X0561095Y0238986D01*
X0561095Y0238200D02*
X0568247Y0238200D01*
X0568595Y0237414D02*
X0751095Y0237414D01*
X0751095Y0238200D02*
X0699471Y0238200D01*
X0697719Y0238200D02*
X0635943Y0238200D01*
X0632247Y0238200D02*
X0571943Y0238200D01*
X0570595Y0237414D02*
X0561095Y0237414D01*
X0561095Y0236628D02*
X0570595Y0236628D01*
X0570595Y0235842D02*
X0561095Y0235842D01*
X0561095Y0235056D02*
X0570595Y0235056D01*
X0570595Y0234270D02*
X0561095Y0234270D01*
X0561095Y0233484D02*
X0570595Y0233484D01*
X0570595Y0232698D02*
X0561095Y0232698D01*
X0561095Y0231912D02*
X0570595Y0231912D01*
X0570595Y0231126D02*
X0561095Y0231126D01*
X0561095Y0230341D02*
X0570595Y0230341D01*
X0570595Y0229555D02*
X0561095Y0229555D01*
X0561095Y0228769D02*
X0570595Y0228769D01*
X0570595Y0227983D02*
X0561095Y0227983D01*
X0561095Y0227197D02*
X0570595Y0227197D01*
X0570595Y0226411D02*
X0561095Y0226411D01*
X0561095Y0225625D02*
X0570595Y0225625D01*
X0570595Y0224839D02*
X0561095Y0224839D01*
X0561095Y0224053D02*
X0570595Y0224053D01*
X0570595Y0223267D02*
X0561095Y0223267D01*
X0561095Y0222481D02*
X0570595Y0222481D01*
X0570595Y0221696D02*
X0561095Y0221696D01*
X0561095Y0220910D02*
X0570595Y0220910D01*
X0570595Y0220124D02*
X0561095Y0220124D01*
X0561095Y0219338D02*
X0570595Y0219338D01*
X0570595Y0218552D02*
X0561095Y0218552D01*
X0561095Y0217766D02*
X0570595Y0217766D01*
X0570595Y0216980D02*
X0561095Y0216980D01*
X0564095Y0216050D02*
X0564095Y0190550D01*
X0569095Y0185550D01*
X0596095Y0185550D01*
X0596095Y0180121D01*
X0595524Y0179550D01*
X0588595Y0179550D01*
X0587595Y0178550D01*
X0587595Y0174550D01*
X0590127Y0174541D02*
X0568595Y0174541D01*
X0568595Y0175327D02*
X0590127Y0175327D01*
X0590322Y0176113D02*
X0568595Y0176113D01*
X0568595Y0176898D02*
X0575239Y0176898D01*
X0574914Y0177033D02*
X0576005Y0176581D01*
X0577186Y0176581D01*
X0578277Y0177033D01*
X0579112Y0177868D01*
X0579564Y0178960D01*
X0579564Y0180140D01*
X0579112Y0181232D01*
X0578277Y0182067D01*
X0577186Y0182518D01*
X0576005Y0182518D01*
X0574914Y0182067D01*
X0574079Y0181232D01*
X0573627Y0180140D01*
X0573627Y0178960D01*
X0574079Y0177868D01*
X0574914Y0177033D01*
X0574263Y0177684D02*
X0568595Y0177684D01*
X0568595Y0178470D02*
X0573829Y0178470D01*
X0573627Y0179256D02*
X0568595Y0179256D01*
X0568595Y0180042D02*
X0573627Y0180042D01*
X0573911Y0180828D02*
X0568595Y0180828D01*
X0568595Y0181614D02*
X0574461Y0181614D01*
X0575718Y0182400D02*
X0568595Y0182400D01*
X0568595Y0183186D02*
X0751095Y0183186D01*
X0751095Y0183972D02*
X0568595Y0183972D01*
X0568595Y0184758D02*
X0751095Y0184758D01*
X0751095Y0185544D02*
X0568595Y0185544D01*
X0568595Y0186329D02*
X0751095Y0186329D01*
X0751095Y0187115D02*
X0568595Y0187115D01*
X0568595Y0187901D02*
X0751095Y0187901D01*
X0751095Y0188687D02*
X0568595Y0188687D01*
X0568595Y0189473D02*
X0751095Y0189473D01*
X0751095Y0190259D02*
X0709002Y0190259D01*
X0709685Y0191045D02*
X0731402Y0191045D01*
X0730616Y0191831D02*
X0710010Y0191831D01*
X0712481Y0195760D02*
X0731107Y0195760D01*
X0735083Y0195760D02*
X0740127Y0195760D01*
X0740295Y0196546D02*
X0712564Y0196546D01*
X0712484Y0197332D02*
X0714115Y0197332D01*
X0714414Y0197033D02*
X0715505Y0196581D01*
X0716686Y0196581D01*
X0717777Y0197033D01*
X0718612Y0197868D01*
X0719064Y0198960D01*
X0719064Y0200140D01*
X0718612Y0201232D01*
X0717777Y0202067D01*
X0716963Y0202404D01*
X0717277Y0202533D01*
X0718112Y0203368D01*
X0718564Y0204460D01*
X0718564Y0205640D01*
X0718112Y0206732D01*
X0717277Y0207567D01*
X0716186Y0208018D01*
X0715005Y0208018D01*
X0713914Y0207567D01*
X0713079Y0206732D01*
X0712627Y0205640D01*
X0712627Y0204460D01*
X0713079Y0203368D01*
X0713914Y0202533D01*
X0714727Y0202196D01*
X0714414Y0202067D01*
X0713579Y0201232D01*
X0713127Y0200140D01*
X0713127Y0198960D01*
X0713579Y0197868D01*
X0714414Y0197033D01*
X0713475Y0198118D02*
X0712159Y0198118D01*
X0711439Y0198904D02*
X0713150Y0198904D01*
X0713127Y0199690D02*
X0568595Y0199690D01*
X0568595Y0200476D02*
X0713266Y0200476D01*
X0713609Y0201262D02*
X0568595Y0201262D01*
X0568595Y0202048D02*
X0714395Y0202048D01*
X0713613Y0202834D02*
X0636077Y0202834D01*
X0635777Y0202533D02*
X0636612Y0203368D01*
X0637064Y0204460D01*
X0637064Y0205640D01*
X0636612Y0206732D01*
X0635777Y0207567D01*
X0634686Y0208018D01*
X0633505Y0208018D01*
X0632414Y0207567D01*
X0631579Y0206732D01*
X0631127Y0205640D01*
X0631127Y0204460D01*
X0631579Y0203368D01*
X0632414Y0202533D01*
X0633505Y0202081D01*
X0634686Y0202081D01*
X0635777Y0202533D01*
X0636716Y0203620D02*
X0712975Y0203620D01*
X0712649Y0204405D02*
X0637041Y0204405D01*
X0637064Y0205191D02*
X0638256Y0205191D01*
X0637534Y0205977D02*
X0636924Y0205977D01*
X0637208Y0206763D02*
X0636580Y0206763D01*
X0637127Y0207549D02*
X0635794Y0207549D01*
X0637207Y0208335D02*
X0578983Y0208335D01*
X0579064Y0208140D02*
X0578612Y0209232D01*
X0577777Y0210067D01*
X0576686Y0210518D01*
X0575505Y0210518D01*
X0574414Y0210067D01*
X0573579Y0209232D01*
X0573127Y0208140D01*
X0573127Y0206960D01*
X0573579Y0205868D01*
X0574414Y0205033D01*
X0575505Y0204581D01*
X0576686Y0204581D01*
X0577777Y0205033D01*
X0578612Y0205868D01*
X0579064Y0206960D01*
X0579064Y0208140D01*
X0579064Y0207549D02*
X0632396Y0207549D01*
X0631610Y0206763D02*
X0578982Y0206763D01*
X0578657Y0205977D02*
X0631266Y0205977D01*
X0631127Y0205191D02*
X0577935Y0205191D01*
X0574256Y0205191D02*
X0568595Y0205191D01*
X0568595Y0204405D02*
X0631149Y0204405D01*
X0631475Y0203620D02*
X0568595Y0203620D01*
X0568595Y0202834D02*
X0632113Y0202834D01*
X0637533Y0209121D02*
X0594864Y0209121D01*
X0595628Y0209907D02*
X0638254Y0209907D01*
X0642983Y0208335D02*
X0701207Y0208335D01*
X0701127Y0207549D02*
X0643064Y0207549D01*
X0642982Y0206763D02*
X0701208Y0206763D01*
X0701534Y0205977D02*
X0642657Y0205977D01*
X0641935Y0205191D02*
X0702256Y0205191D01*
X0705935Y0205191D02*
X0712627Y0205191D01*
X0712766Y0205977D02*
X0706657Y0205977D01*
X0706982Y0206763D02*
X0713110Y0206763D01*
X0713896Y0207549D02*
X0707064Y0207549D01*
X0706983Y0208335D02*
X0751095Y0208335D01*
X0750595Y0208335D02*
X0760095Y0208335D01*
X0760095Y0207549D02*
X0750595Y0207549D01*
X0751095Y0207549D02*
X0717294Y0207549D01*
X0718080Y0206763D02*
X0751095Y0206763D01*
X0750595Y0206763D02*
X0760095Y0206763D01*
X0760095Y0205977D02*
X0750595Y0205977D01*
X0751095Y0205977D02*
X0718424Y0205977D01*
X0718564Y0205191D02*
X0751095Y0205191D01*
X0750595Y0205191D02*
X0760095Y0205191D01*
X0760095Y0204405D02*
X0750595Y0204405D01*
X0751095Y0204405D02*
X0718541Y0204405D01*
X0718216Y0203620D02*
X0751095Y0203620D01*
X0750595Y0203620D02*
X0760095Y0203620D01*
X0760095Y0202834D02*
X0750595Y0202834D01*
X0751095Y0202834D02*
X0717577Y0202834D01*
X0717796Y0202048D02*
X0751095Y0202048D01*
X0750595Y0202048D02*
X0760095Y0202048D01*
X0760095Y0201262D02*
X0750595Y0201262D01*
X0751095Y0201262D02*
X0718581Y0201262D01*
X0718925Y0200476D02*
X0751095Y0200476D01*
X0750595Y0200476D02*
X0760095Y0200476D01*
X0760095Y0199690D02*
X0750595Y0199690D01*
X0751095Y0199690D02*
X0719064Y0199690D01*
X0719041Y0198904D02*
X0751095Y0198904D01*
X0750595Y0198904D02*
X0755751Y0198904D01*
X0755032Y0198118D02*
X0750595Y0198118D01*
X0751095Y0198118D02*
X0744652Y0198118D01*
X0745511Y0197332D02*
X0751095Y0197332D01*
X0750595Y0197332D02*
X0754706Y0197332D01*
X0754627Y0196546D02*
X0750595Y0196546D01*
X0751095Y0196546D02*
X0745896Y0196546D01*
X0746064Y0195760D02*
X0751095Y0195760D01*
X0750595Y0195760D02*
X0754709Y0195760D01*
X0755035Y0194974D02*
X0754094Y0194974D01*
X0754078Y0194189D02*
X0755758Y0194189D01*
X0754062Y0193403D02*
X0758942Y0193403D01*
X0758627Y0192617D02*
X0754045Y0192617D01*
X0754029Y0191831D02*
X0758627Y0191831D01*
X0758798Y0191045D02*
X0754013Y0191045D01*
X0753997Y0190259D02*
X0759188Y0190259D01*
X0760059Y0189473D02*
X0753981Y0189473D01*
X0753965Y0188687D02*
X0760095Y0188687D01*
X0760095Y0187901D02*
X0753949Y0187901D01*
X0753933Y0187115D02*
X0760095Y0187115D01*
X0760095Y0186329D02*
X0753917Y0186329D01*
X0753901Y0185544D02*
X0760095Y0185544D01*
X0760095Y0184758D02*
X0753885Y0184758D01*
X0753869Y0183972D02*
X0760095Y0183972D01*
X0760095Y0183186D02*
X0753853Y0183186D01*
X0753837Y0182400D02*
X0760095Y0182400D01*
X0760095Y0181614D02*
X0753821Y0181614D01*
X0753805Y0180828D02*
X0760095Y0180828D01*
X0760095Y0180042D02*
X0753789Y0180042D01*
X0753773Y0179256D02*
X0760095Y0179256D01*
X0760095Y0178470D02*
X0753757Y0178470D01*
X0753741Y0177684D02*
X0760095Y0177684D01*
X0760095Y0176898D02*
X0753725Y0176898D01*
X0753709Y0176113D02*
X0760095Y0176113D01*
X0760095Y0175327D02*
X0753693Y0175327D01*
X0753677Y0174541D02*
X0760095Y0174541D01*
X0760095Y0173755D02*
X0753661Y0173755D01*
X0753645Y0172969D02*
X0760095Y0172969D01*
X0760095Y0172183D02*
X0753628Y0172183D01*
X0753612Y0171397D02*
X0760095Y0171397D01*
X0760095Y0170611D02*
X0753596Y0170611D01*
X0751095Y0169825D02*
X0729987Y0169825D01*
X0730064Y0169039D02*
X0751095Y0169039D01*
X0751095Y0168253D02*
X0729978Y0168253D01*
X0729653Y0167468D02*
X0751095Y0167468D01*
X0751095Y0166682D02*
X0728925Y0166682D01*
X0724095Y0163979D02*
X0722024Y0166050D01*
X0717095Y0166050D01*
X0715595Y0167550D01*
X0715595Y0169550D01*
X0724203Y0169825D02*
X0665987Y0169825D01*
X0661265Y0166682D02*
X0600925Y0166682D01*
X0601653Y0167468D02*
X0660538Y0167468D01*
X0660212Y0168253D02*
X0601978Y0168253D01*
X0602064Y0169039D02*
X0660127Y0169039D01*
X0660203Y0169825D02*
X0601987Y0169825D01*
X0597265Y0166682D02*
X0568595Y0166682D01*
X0568595Y0167468D02*
X0596538Y0167468D01*
X0596212Y0168253D02*
X0568595Y0168253D01*
X0568595Y0169039D02*
X0596127Y0169039D01*
X0596203Y0169825D02*
X0569068Y0169825D01*
X0565510Y0168253D02*
X0561095Y0168253D01*
X0561095Y0167468D02*
X0565497Y0167468D01*
X0565484Y0166682D02*
X0561095Y0166682D01*
X0561095Y0165896D02*
X0565472Y0165896D01*
X0565459Y0165110D02*
X0561095Y0165110D01*
X0561095Y0164324D02*
X0565446Y0164324D01*
X0565434Y0163538D02*
X0561095Y0163538D01*
X0561095Y0162752D02*
X0565421Y0162752D01*
X0565408Y0161966D02*
X0561095Y0161966D01*
X0561095Y0161180D02*
X0565396Y0161180D01*
X0565383Y0160394D02*
X0561095Y0160394D01*
X0561095Y0159608D02*
X0565370Y0159608D01*
X0565358Y0158822D02*
X0561095Y0158822D01*
X0561095Y0158037D02*
X0565345Y0158037D01*
X0565332Y0157251D02*
X0561095Y0157251D01*
X0561095Y0156465D02*
X0565320Y0156465D01*
X0565307Y0155679D02*
X0561095Y0155679D01*
X0561095Y0154893D02*
X0565294Y0154893D01*
X0565282Y0154107D02*
X0561095Y0154107D01*
X0561095Y0153321D02*
X0565269Y0153321D01*
X0565256Y0152535D02*
X0561095Y0152535D01*
X0561095Y0151749D02*
X0565244Y0151749D01*
X0565231Y0150963D02*
X0561095Y0150963D01*
X0561095Y0150177D02*
X0565218Y0150177D01*
X0565205Y0149392D02*
X0561095Y0149392D01*
X0561095Y0148606D02*
X0565193Y0148606D01*
X0565180Y0147820D02*
X0561095Y0147820D01*
X0561095Y0147034D02*
X0565167Y0147034D01*
X0565155Y0146248D02*
X0561095Y0146248D01*
X0561095Y0145462D02*
X0565142Y0145462D01*
X0565129Y0144676D02*
X0561095Y0144676D01*
X0561095Y0143890D02*
X0565117Y0143890D01*
X0565104Y0143104D02*
X0561095Y0143104D01*
X0561095Y0142318D02*
X0568629Y0142318D01*
X0568595Y0142318D01*
X0568595Y0141532D02*
X0751095Y0141532D01*
X0751095Y0140746D02*
X0568595Y0140746D01*
X0568595Y0139961D02*
X0751095Y0139961D01*
X0751095Y0139175D02*
X0568595Y0139175D01*
X0568595Y0138389D02*
X0751095Y0138389D01*
X0751095Y0137603D02*
X0568595Y0137603D01*
X0568595Y0136817D02*
X0751095Y0136817D01*
X0751095Y0136031D02*
X0568595Y0136031D01*
X0568595Y0135245D02*
X0751095Y0135245D01*
X0751095Y0134459D02*
X0733829Y0134459D01*
X0733686Y0134518D02*
X0732505Y0134518D01*
X0731414Y0134067D01*
X0730845Y0133498D01*
X0730277Y0134067D01*
X0729186Y0134518D01*
X0728005Y0134518D01*
X0726914Y0134067D01*
X0726079Y0133232D01*
X0725627Y0132140D01*
X0725627Y0130960D01*
X0726079Y0129868D01*
X0726914Y0129033D01*
X0728005Y0128581D01*
X0729186Y0128581D01*
X0730277Y0129033D01*
X0730845Y0129602D01*
X0731414Y0129033D01*
X0732505Y0128581D01*
X0733686Y0128581D01*
X0734777Y0129033D01*
X0735612Y0129868D01*
X0736064Y0130960D01*
X0736064Y0132140D01*
X0735612Y0133232D01*
X0734777Y0134067D01*
X0733686Y0134518D01*
X0732361Y0134459D02*
X0729329Y0134459D01*
X0727861Y0134459D02*
X0720329Y0134459D01*
X0720186Y0134518D02*
X0721277Y0134067D01*
X0722112Y0133232D01*
X0722564Y0132140D01*
X0722564Y0130960D01*
X0722112Y0129868D01*
X0721277Y0129033D01*
X0720186Y0128581D01*
X0719005Y0128581D01*
X0717914Y0129033D01*
X0717345Y0129602D01*
X0716777Y0129033D01*
X0715686Y0128581D01*
X0714505Y0128581D01*
X0713414Y0129033D01*
X0712579Y0129868D01*
X0712127Y0130960D01*
X0712127Y0132140D01*
X0712579Y0133232D01*
X0713414Y0134067D01*
X0714505Y0134518D01*
X0715686Y0134518D01*
X0716777Y0134067D01*
X0717345Y0133498D01*
X0717914Y0134067D01*
X0719005Y0134518D01*
X0720186Y0134518D01*
X0718861Y0134459D02*
X0715829Y0134459D01*
X0714361Y0134459D02*
X0695329Y0134459D01*
X0695186Y0134518D02*
X0694005Y0134518D01*
X0692914Y0134067D01*
X0692079Y0133232D01*
X0691627Y0132140D01*
X0691627Y0130960D01*
X0692079Y0129868D01*
X0692914Y0129033D01*
X0694005Y0128581D01*
X0695186Y0128581D01*
X0696277Y0129033D01*
X0697112Y0129868D01*
X0697564Y0130960D01*
X0697564Y0132140D01*
X0697112Y0133232D01*
X0696277Y0134067D01*
X0695186Y0134518D01*
X0693861Y0134459D02*
X0682829Y0134459D01*
X0682686Y0134518D02*
X0681505Y0134518D01*
X0680414Y0134067D01*
X0679579Y0133232D01*
X0679127Y0132140D01*
X0679127Y0130960D01*
X0679579Y0129868D01*
X0680414Y0129033D01*
X0681505Y0128581D01*
X0682686Y0128581D01*
X0683777Y0129033D01*
X0684612Y0129868D01*
X0685064Y0130960D01*
X0685064Y0132140D01*
X0684612Y0133232D01*
X0683777Y0134067D01*
X0682686Y0134518D01*
X0681361Y0134459D02*
X0669829Y0134459D01*
X0669686Y0134518D02*
X0668505Y0134518D01*
X0667414Y0134067D01*
X0666845Y0133498D01*
X0666277Y0134067D01*
X0665186Y0134518D01*
X0664005Y0134518D01*
X0662914Y0134067D01*
X0662079Y0133232D01*
X0661627Y0132140D01*
X0661627Y0130960D01*
X0662079Y0129868D01*
X0662914Y0129033D01*
X0664005Y0128581D01*
X0665186Y0128581D01*
X0666277Y0129033D01*
X0666845Y0129602D01*
X0667414Y0129033D01*
X0668505Y0128581D01*
X0669686Y0128581D01*
X0670777Y0129033D01*
X0671612Y0129868D01*
X0672064Y0130960D01*
X0672064Y0132140D01*
X0671612Y0133232D01*
X0670777Y0134067D01*
X0669686Y0134518D01*
X0668361Y0134459D02*
X0665329Y0134459D01*
X0663861Y0134459D02*
X0656329Y0134459D01*
X0656186Y0134518D02*
X0655005Y0134518D01*
X0653914Y0134067D01*
X0653345Y0133498D01*
X0652777Y0134067D01*
X0651686Y0134518D01*
X0650505Y0134518D01*
X0649414Y0134067D01*
X0648579Y0133232D01*
X0648127Y0132140D01*
X0648127Y0130960D01*
X0648579Y0129868D01*
X0649414Y0129033D01*
X0650505Y0128581D01*
X0651686Y0128581D01*
X0652777Y0129033D01*
X0653345Y0129602D01*
X0653914Y0129033D01*
X0655005Y0128581D01*
X0656186Y0128581D01*
X0657277Y0129033D01*
X0658112Y0129868D01*
X0658564Y0130960D01*
X0658564Y0132140D01*
X0658112Y0133232D01*
X0657277Y0134067D01*
X0656186Y0134518D01*
X0654861Y0134459D02*
X0651829Y0134459D01*
X0650361Y0134459D02*
X0605829Y0134459D01*
X0605686Y0134518D02*
X0604505Y0134518D01*
X0603414Y0134067D01*
X0602845Y0133498D01*
X0602277Y0134067D01*
X0601186Y0134518D01*
X0600005Y0134518D01*
X0598914Y0134067D01*
X0598079Y0133232D01*
X0597627Y0132140D01*
X0597627Y0130960D01*
X0598079Y0129868D01*
X0598914Y0129033D01*
X0600005Y0128581D01*
X0601186Y0128581D01*
X0602277Y0129033D01*
X0602845Y0129602D01*
X0603414Y0129033D01*
X0604505Y0128581D01*
X0605686Y0128581D01*
X0606777Y0129033D01*
X0607612Y0129868D01*
X0608064Y0130960D01*
X0608064Y0132140D01*
X0607612Y0133232D01*
X0606777Y0134067D01*
X0605686Y0134518D01*
X0604361Y0134459D02*
X0601329Y0134459D01*
X0599861Y0134459D02*
X0592329Y0134459D01*
X0592186Y0134518D02*
X0591005Y0134518D01*
X0589914Y0134067D01*
X0589345Y0133498D01*
X0588777Y0134067D01*
X0587686Y0134518D01*
X0586505Y0134518D01*
X0585414Y0134067D01*
X0584579Y0133232D01*
X0584127Y0132140D01*
X0584127Y0130960D01*
X0584579Y0129868D01*
X0585414Y0129033D01*
X0586505Y0128581D01*
X0587686Y0128581D01*
X0588777Y0129033D01*
X0589345Y0129602D01*
X0589914Y0129033D01*
X0591005Y0128581D01*
X0592186Y0128581D01*
X0593277Y0129033D01*
X0594112Y0129868D01*
X0594564Y0130960D01*
X0594564Y0132140D01*
X0594112Y0133232D01*
X0593277Y0134067D01*
X0592186Y0134518D01*
X0590861Y0134459D02*
X0587829Y0134459D01*
X0586361Y0134459D02*
X0568595Y0134459D01*
X0568595Y0133673D02*
X0585020Y0133673D01*
X0584436Y0132887D02*
X0568595Y0132887D01*
X0568595Y0132101D02*
X0584127Y0132101D01*
X0584127Y0131316D02*
X0568595Y0131316D01*
X0568595Y0130530D02*
X0584305Y0130530D01*
X0584703Y0129744D02*
X0568595Y0129744D01*
X0568595Y0128958D02*
X0585596Y0128958D01*
X0588594Y0128958D02*
X0590096Y0128958D01*
X0590595Y0126050D02*
X0595524Y0126050D01*
X0596095Y0126621D01*
X0596095Y0131550D01*
X0596095Y0136479D01*
X0594024Y0138550D01*
X0589095Y0138550D01*
X0587595Y0140050D01*
X0587595Y0142050D01*
X0572562Y0142318D02*
X0633433Y0142318D01*
X0635757Y0142318D02*
X0697433Y0142318D01*
X0699757Y0142318D02*
X0751095Y0142318D01*
X0751095Y0147034D02*
X0700809Y0147034D01*
X0699666Y0147820D02*
X0751095Y0147820D01*
X0751095Y0148606D02*
X0568595Y0148606D01*
X0568595Y0149392D02*
X0751095Y0149392D01*
X0751095Y0150177D02*
X0568595Y0150177D01*
X0568595Y0150963D02*
X0751095Y0150963D01*
X0751095Y0151749D02*
X0568595Y0151749D01*
X0568595Y0152535D02*
X0751095Y0152535D01*
X0751095Y0153321D02*
X0568595Y0153321D01*
X0568595Y0154107D02*
X0751095Y0154107D01*
X0747423Y0158822D02*
X0736064Y0158822D01*
X0735870Y0159608D02*
X0746339Y0159608D01*
X0745861Y0160394D02*
X0735449Y0160394D01*
X0734502Y0161180D02*
X0745627Y0161180D01*
X0745627Y0161966D02*
X0687564Y0161966D01*
X0687564Y0162140D02*
X0687112Y0163232D01*
X0686277Y0164067D01*
X0685186Y0164518D01*
X0684005Y0164518D01*
X0682914Y0164067D01*
X0682079Y0163232D01*
X0681627Y0162140D01*
X0681627Y0160960D01*
X0682079Y0159868D01*
X0682914Y0159033D01*
X0684005Y0158581D01*
X0685186Y0158581D01*
X0686277Y0159033D01*
X0687112Y0159868D01*
X0687564Y0160960D01*
X0687564Y0162140D01*
X0687310Y0162752D02*
X0745880Y0162752D01*
X0746385Y0163538D02*
X0686805Y0163538D01*
X0685655Y0164324D02*
X0747535Y0164324D01*
X0749655Y0164324D02*
X0751095Y0164324D01*
X0751095Y0165110D02*
X0568595Y0165110D01*
X0568595Y0165896D02*
X0751095Y0165896D01*
X0750095Y0165896D02*
X0760095Y0165896D01*
X0760095Y0166682D02*
X0750095Y0166682D01*
X0750095Y0167468D02*
X0760095Y0167468D01*
X0760095Y0168253D02*
X0750095Y0168253D01*
X0750095Y0169039D02*
X0760095Y0169039D01*
X0760095Y0169825D02*
X0750095Y0169825D01*
X0750095Y0165110D02*
X0760095Y0165110D01*
X0760095Y0164324D02*
X0750095Y0164324D01*
X0750805Y0163538D02*
X0760095Y0163538D01*
X0760095Y0162752D02*
X0751310Y0162752D01*
X0751095Y0163538D02*
X0750805Y0163538D01*
X0751564Y0161966D02*
X0760095Y0161966D01*
X0760095Y0161180D02*
X0751564Y0161180D01*
X0751330Y0160394D02*
X0760095Y0160394D01*
X0732270Y0155679D02*
X0729421Y0155679D01*
X0730708Y0156465D02*
X0730982Y0156465D01*
X0727770Y0155679D02*
X0720421Y0155679D01*
X0720186Y0155581D02*
X0721277Y0156033D01*
X0722112Y0156868D01*
X0722564Y0157960D01*
X0722564Y0159140D01*
X0722112Y0160232D01*
X0721277Y0161067D01*
X0720186Y0161518D01*
X0719005Y0161518D01*
X0717914Y0161067D01*
X0717345Y0160498D01*
X0716777Y0161067D01*
X0715686Y0161518D01*
X0714505Y0161518D01*
X0713414Y0161067D01*
X0712579Y0160232D01*
X0712127Y0159140D01*
X0712127Y0157960D01*
X0712579Y0156868D01*
X0713414Y0156033D01*
X0714505Y0155581D01*
X0715686Y0155581D01*
X0716777Y0156033D01*
X0717345Y0156602D01*
X0717914Y0156033D01*
X0719005Y0155581D01*
X0720186Y0155581D01*
X0718770Y0155679D02*
X0715921Y0155679D01*
X0717208Y0156465D02*
X0717482Y0156465D01*
X0714270Y0155679D02*
X0691921Y0155679D01*
X0691686Y0155581D02*
X0692777Y0156033D01*
X0693612Y0156868D01*
X0694064Y0157960D01*
X0694064Y0159140D01*
X0693612Y0160232D01*
X0692777Y0161067D01*
X0691686Y0161518D01*
X0690505Y0161518D01*
X0689414Y0161067D01*
X0688579Y0160232D01*
X0688127Y0159140D01*
X0688127Y0157960D01*
X0688579Y0156868D01*
X0689414Y0156033D01*
X0690505Y0155581D01*
X0691686Y0155581D01*
X0690270Y0155679D02*
X0669921Y0155679D01*
X0669686Y0155581D02*
X0670777Y0156033D01*
X0671612Y0156868D01*
X0672064Y0157960D01*
X0672064Y0159140D01*
X0671612Y0160232D01*
X0670777Y0161067D01*
X0669686Y0161518D01*
X0668505Y0161518D01*
X0667414Y0161067D01*
X0666845Y0160498D01*
X0666277Y0161067D01*
X0665186Y0161518D01*
X0664005Y0161518D01*
X0662914Y0161067D01*
X0662079Y0160232D01*
X0661627Y0159140D01*
X0661627Y0157960D01*
X0662079Y0156868D01*
X0662914Y0156033D01*
X0664005Y0155581D01*
X0665186Y0155581D01*
X0666277Y0156033D01*
X0666845Y0156602D01*
X0667414Y0156033D01*
X0668505Y0155581D01*
X0669686Y0155581D01*
X0668270Y0155679D02*
X0665421Y0155679D01*
X0666708Y0156465D02*
X0666982Y0156465D01*
X0663770Y0155679D02*
X0656421Y0155679D01*
X0656186Y0155581D02*
X0657277Y0156033D01*
X0658112Y0156868D01*
X0658564Y0157960D01*
X0658564Y0159140D01*
X0658112Y0160232D01*
X0657277Y0161067D01*
X0656186Y0161518D01*
X0655005Y0161518D01*
X0653914Y0161067D01*
X0653345Y0160498D01*
X0652777Y0161067D01*
X0651686Y0161518D01*
X0650505Y0161518D01*
X0649414Y0161067D01*
X0648579Y0160232D01*
X0648127Y0159140D01*
X0648127Y0157960D01*
X0648579Y0156868D01*
X0649414Y0156033D01*
X0650505Y0155581D01*
X0651686Y0155581D01*
X0652777Y0156033D01*
X0653345Y0156602D01*
X0653914Y0156033D01*
X0655005Y0155581D01*
X0656186Y0155581D01*
X0654770Y0155679D02*
X0651921Y0155679D01*
X0653208Y0156465D02*
X0653482Y0156465D01*
X0650270Y0155679D02*
X0605921Y0155679D01*
X0605686Y0155581D02*
X0606777Y0156033D01*
X0607612Y0156868D01*
X0608064Y0157960D01*
X0608064Y0159140D01*
X0607612Y0160232D01*
X0606777Y0161067D01*
X0605686Y0161518D01*
X0604505Y0161518D01*
X0603414Y0161067D01*
X0602845Y0160498D01*
X0602277Y0161067D01*
X0601186Y0161518D01*
X0600005Y0161518D01*
X0598914Y0161067D01*
X0598079Y0160232D01*
X0597627Y0159140D01*
X0597627Y0157960D01*
X0598079Y0156868D01*
X0598914Y0156033D01*
X0600005Y0155581D01*
X0601186Y0155581D01*
X0602277Y0156033D01*
X0602845Y0156602D01*
X0603414Y0156033D01*
X0604505Y0155581D01*
X0605686Y0155581D01*
X0604270Y0155679D02*
X0601421Y0155679D01*
X0602708Y0156465D02*
X0602982Y0156465D01*
X0599770Y0155679D02*
X0592421Y0155679D01*
X0593708Y0156465D02*
X0598482Y0156465D01*
X0597920Y0157251D02*
X0594270Y0157251D01*
X0594564Y0158037D02*
X0597627Y0158037D01*
X0597627Y0158822D02*
X0594564Y0158822D01*
X0594370Y0159608D02*
X0597820Y0159608D01*
X0598241Y0160394D02*
X0593949Y0160394D01*
X0593002Y0161180D02*
X0599188Y0161180D01*
X0602002Y0161180D02*
X0603688Y0161180D01*
X0606502Y0161180D02*
X0617627Y0161180D01*
X0617627Y0160960D02*
X0618079Y0159868D01*
X0618914Y0159033D01*
X0620005Y0158581D01*
X0621186Y0158581D01*
X0622277Y0159033D01*
X0623112Y0159868D01*
X0623564Y0160960D01*
X0623564Y0162140D01*
X0623112Y0163232D01*
X0622277Y0164067D01*
X0621186Y0164518D01*
X0620005Y0164518D01*
X0618914Y0164067D01*
X0618079Y0163232D01*
X0617627Y0162140D01*
X0617627Y0160960D01*
X0617861Y0160394D02*
X0607449Y0160394D01*
X0607870Y0159608D02*
X0618339Y0159608D01*
X0619423Y0158822D02*
X0608064Y0158822D01*
X0608064Y0158037D02*
X0648127Y0158037D01*
X0648127Y0158822D02*
X0621767Y0158822D01*
X0622852Y0159608D02*
X0648320Y0159608D01*
X0648741Y0160394D02*
X0623330Y0160394D01*
X0623564Y0161180D02*
X0649688Y0161180D01*
X0652502Y0161180D02*
X0654188Y0161180D01*
X0657002Y0161180D02*
X0663188Y0161180D01*
X0662241Y0160394D02*
X0657949Y0160394D01*
X0658370Y0159608D02*
X0661820Y0159608D01*
X0661627Y0158822D02*
X0658564Y0158822D01*
X0658564Y0158037D02*
X0661627Y0158037D01*
X0661920Y0157251D02*
X0658270Y0157251D01*
X0657708Y0156465D02*
X0662482Y0156465D01*
X0660095Y0154550D02*
X0660095Y0158550D01*
X0660095Y0163979D01*
X0658524Y0165550D01*
X0653095Y0165550D01*
X0651595Y0167050D01*
X0651595Y0169550D01*
X0651595Y0174550D02*
X0651595Y0177050D01*
X0654095Y0179550D01*
X0659524Y0179550D01*
X0660095Y0180121D01*
X0660095Y0185550D01*
X0658492Y0177684D02*
X0702263Y0177684D01*
X0702079Y0177868D02*
X0702914Y0177033D01*
X0704005Y0176581D01*
X0705186Y0176581D01*
X0706277Y0177033D01*
X0707112Y0177868D01*
X0707564Y0178960D01*
X0707564Y0180140D01*
X0707112Y0181232D01*
X0706277Y0182067D01*
X0705186Y0182518D01*
X0704005Y0182518D01*
X0702914Y0182067D01*
X0702079Y0181232D01*
X0701627Y0180140D01*
X0701627Y0178960D01*
X0702079Y0177868D01*
X0701829Y0178470D02*
X0643564Y0178470D01*
X0643564Y0178460D02*
X0643112Y0177368D01*
X0642277Y0176533D01*
X0641186Y0176081D01*
X0640005Y0176081D01*
X0638914Y0176533D01*
X0638079Y0177368D01*
X0637627Y0178460D01*
X0637627Y0179640D01*
X0638079Y0180732D01*
X0638914Y0181567D01*
X0640005Y0182018D01*
X0641186Y0182018D01*
X0642277Y0181567D01*
X0643112Y0180732D01*
X0643564Y0179640D01*
X0643564Y0178460D01*
X0643564Y0179256D02*
X0701627Y0179256D01*
X0701627Y0180042D02*
X0643397Y0180042D01*
X0643015Y0180828D02*
X0701911Y0180828D01*
X0702461Y0181614D02*
X0642162Y0181614D01*
X0639028Y0181614D02*
X0578729Y0181614D01*
X0579279Y0180828D02*
X0638175Y0180828D01*
X0637793Y0180042D02*
X0579564Y0180042D01*
X0579564Y0179256D02*
X0637627Y0179256D01*
X0637627Y0178470D02*
X0579361Y0178470D01*
X0578928Y0177684D02*
X0591698Y0177684D01*
X0590746Y0176898D02*
X0577951Y0176898D01*
X0564602Y0173755D02*
X0561095Y0173755D01*
X0561095Y0172969D02*
X0563970Y0172969D01*
X0563644Y0172183D02*
X0561095Y0172183D01*
X0561095Y0171397D02*
X0563627Y0171397D01*
X0563771Y0170611D02*
X0561095Y0170611D01*
X0561095Y0169825D02*
X0564122Y0169825D01*
X0564908Y0169039D02*
X0561095Y0169039D01*
X0570155Y0164324D02*
X0619535Y0164324D01*
X0618385Y0163538D02*
X0571305Y0163538D01*
X0571810Y0162752D02*
X0617880Y0162752D01*
X0617627Y0161966D02*
X0572064Y0161966D01*
X0572064Y0161180D02*
X0585688Y0161180D01*
X0584741Y0160394D02*
X0573485Y0160394D01*
X0574735Y0159608D02*
X0584320Y0159608D01*
X0584127Y0158822D02*
X0575281Y0158822D01*
X0575564Y0158037D02*
X0584127Y0158037D01*
X0584420Y0157251D02*
X0575564Y0157251D01*
X0575359Y0156465D02*
X0584982Y0156465D01*
X0589595Y0153550D02*
X0587595Y0151550D01*
X0587595Y0147050D01*
X0572309Y0147034D02*
X0632381Y0147034D01*
X0633525Y0147820D02*
X0568595Y0147820D01*
X0568595Y0147034D02*
X0568881Y0147034D01*
X0570595Y0141532D02*
X0561095Y0141532D01*
X0561095Y0140746D02*
X0570595Y0140746D01*
X0570595Y0139961D02*
X0561095Y0139961D01*
X0561095Y0139175D02*
X0570595Y0139175D01*
X0570595Y0138389D02*
X0561095Y0138389D01*
X0561095Y0137603D02*
X0570595Y0137603D01*
X0570595Y0136817D02*
X0561095Y0136817D01*
X0561095Y0136031D02*
X0570595Y0136031D01*
X0570595Y0135245D02*
X0561095Y0135245D01*
X0561095Y0134459D02*
X0570595Y0134459D01*
X0570595Y0133673D02*
X0561095Y0133673D01*
X0561095Y0132887D02*
X0570595Y0132887D01*
X0570595Y0132101D02*
X0561095Y0132101D01*
X0561095Y0131316D02*
X0570595Y0131316D01*
X0570595Y0130530D02*
X0561095Y0130530D01*
X0561095Y0129744D02*
X0570595Y0129744D01*
X0570595Y0128958D02*
X0561095Y0128958D01*
X0561095Y0128172D02*
X0570595Y0128172D01*
X0570595Y0127386D02*
X0561095Y0127386D01*
X0561095Y0126600D02*
X0570595Y0126600D01*
X0570595Y0125814D02*
X0561095Y0125814D01*
X0561095Y0125028D02*
X0570595Y0125028D01*
X0570595Y0124242D02*
X0561095Y0124242D01*
X0561095Y0123456D02*
X0570595Y0123456D01*
X0570595Y0122670D02*
X0561095Y0122670D01*
X0561095Y0121885D02*
X0570595Y0121885D01*
X0570095Y0122050D02*
X0565095Y0122050D01*
X0563595Y0120550D01*
X0563595Y0095050D01*
X0569095Y0089550D01*
X0570595Y0089550D01*
X0570595Y0089662D02*
X0561095Y0089662D01*
X0561095Y0088876D02*
X0570595Y0088876D01*
X0570595Y0088090D02*
X0561095Y0088090D01*
X0561095Y0087304D02*
X0570595Y0087304D01*
X0570595Y0086518D02*
X0561095Y0086518D01*
X0561095Y0085733D02*
X0570595Y0085733D01*
X0570595Y0084947D02*
X0561095Y0084947D01*
X0561095Y0084161D02*
X0570595Y0084161D01*
X0570595Y0083375D02*
X0561095Y0083375D01*
X0561095Y0082589D02*
X0570595Y0082589D01*
X0570595Y0081803D02*
X0561095Y0081803D01*
X0561095Y0081017D02*
X0570595Y0081017D01*
X0570595Y0080231D02*
X0561095Y0080231D01*
X0561095Y0079445D02*
X0570595Y0079445D01*
X0570595Y0078659D02*
X0561095Y0078659D01*
X0561095Y0077873D02*
X0565595Y0077873D01*
X0565595Y0077088D02*
X0561095Y0077088D01*
X0561095Y0076302D02*
X0565595Y0076302D01*
X0565595Y0075516D02*
X0561095Y0075516D01*
X0561095Y0074730D02*
X0565595Y0074730D01*
X0565595Y0073944D02*
X0561095Y0073944D01*
X0561095Y0073158D02*
X0565595Y0073158D01*
X0565595Y0072372D02*
X0561095Y0072372D01*
X0561095Y0071586D02*
X0565595Y0071586D01*
X0565595Y0070800D02*
X0561095Y0070800D01*
X0561095Y0070014D02*
X0565595Y0070014D01*
X0565595Y0069228D02*
X0561095Y0069228D01*
X0561095Y0068442D02*
X0565595Y0068442D01*
X0565595Y0067657D02*
X0561095Y0067657D01*
X0561095Y0066871D02*
X0565595Y0066871D01*
X0565595Y0066085D02*
X0561095Y0066085D01*
X0561095Y0065299D02*
X0565595Y0065299D01*
X0565595Y0064513D02*
X0561095Y0064513D01*
X0561095Y0063727D02*
X0565595Y0063727D01*
X0565595Y0062941D02*
X0561095Y0062941D01*
X0561095Y0062155D02*
X0565595Y0062155D01*
X0565595Y0061369D02*
X0561095Y0061369D01*
X0561095Y0060583D02*
X0565595Y0060583D01*
X0565595Y0059797D02*
X0561095Y0059797D01*
X0561095Y0059012D02*
X0565595Y0059012D01*
X0565595Y0058226D02*
X0561095Y0058226D01*
X0561095Y0057440D02*
X0565595Y0057440D01*
X0565595Y0056654D02*
X0561095Y0056654D01*
X0561095Y0055868D02*
X0565595Y0055868D01*
X0565595Y0055082D02*
X0561095Y0055082D01*
X0561095Y0054296D02*
X0565595Y0054296D01*
X0568595Y0054296D02*
X0751095Y0054296D01*
X0751095Y0053510D02*
X0568595Y0053510D01*
X0568595Y0052724D02*
X0751095Y0052724D01*
X0751095Y0051938D02*
X0568595Y0051938D01*
X0568595Y0051152D02*
X0569121Y0051152D01*
X0568914Y0051067D02*
X0568595Y0050748D01*
X0568595Y0074050D01*
X0596296Y0074050D01*
X0596127Y0073640D01*
X0596127Y0072460D01*
X0596579Y0071368D01*
X0597414Y0070533D01*
X0598505Y0070081D01*
X0599686Y0070081D01*
X0600777Y0070533D01*
X0601612Y0071368D01*
X0602064Y0072460D01*
X0602064Y0073640D01*
X0601894Y0074050D01*
X0660296Y0074050D01*
X0660127Y0073640D01*
X0660127Y0072460D01*
X0660579Y0071368D01*
X0661414Y0070533D01*
X0662505Y0070081D01*
X0663686Y0070081D01*
X0664777Y0070533D01*
X0665612Y0071368D01*
X0666064Y0072460D01*
X0666064Y0073640D01*
X0665894Y0074050D01*
X0751095Y0074050D01*
X0751095Y0050550D01*
X0637293Y0050550D01*
X0636777Y0051067D01*
X0635686Y0051518D01*
X0634505Y0051518D01*
X0633414Y0051067D01*
X0632897Y0050550D01*
X0572793Y0050550D01*
X0572277Y0051067D01*
X0571186Y0051518D01*
X0570005Y0051518D01*
X0568914Y0051067D01*
X0572069Y0051152D02*
X0633621Y0051152D01*
X0636569Y0051152D02*
X0751095Y0051152D01*
X0750095Y0051152D02*
X0760095Y0051152D01*
X0760095Y0050366D02*
X0754595Y0050366D01*
X0754595Y0049581D02*
X0760095Y0049581D01*
X0760095Y0048795D02*
X0754595Y0048795D01*
X0754595Y0048009D02*
X0760095Y0048009D01*
X0760095Y0047223D02*
X0754595Y0047223D01*
X0754595Y0046437D02*
X0760095Y0046437D01*
X0760095Y0045651D02*
X0754595Y0045651D01*
X0754595Y0044865D02*
X0760095Y0044865D01*
X0760095Y0044079D02*
X0754595Y0044079D01*
X0754595Y0043293D02*
X0760095Y0043293D01*
X0760095Y0042507D02*
X0754595Y0042507D01*
X0754595Y0041721D02*
X0760095Y0041721D01*
X0760095Y0040936D02*
X0754595Y0040936D01*
X0754595Y0040150D02*
X0760095Y0040150D01*
X0760095Y0039364D02*
X0754595Y0039364D01*
X0754595Y0038578D02*
X0760095Y0038578D01*
X0760095Y0037792D02*
X0754595Y0037792D01*
X0754595Y0037006D02*
X0760095Y0037006D01*
X0760095Y0036220D02*
X0754595Y0036220D01*
X0754595Y0035434D02*
X0760095Y0035434D01*
X0760095Y0034648D02*
X0754595Y0034648D01*
X0754595Y0033862D02*
X0760095Y0033862D01*
X0760095Y0033076D02*
X0754595Y0033076D01*
X0754595Y0032291D02*
X0760095Y0032291D01*
X0760095Y0031505D02*
X0754595Y0031505D01*
X0754595Y0030719D02*
X0760095Y0030719D01*
X0760095Y0029933D02*
X0754595Y0029933D01*
X0754595Y0029147D02*
X0760095Y0029147D01*
X0760095Y0028361D02*
X0754595Y0028361D01*
X0754595Y0027575D02*
X0760095Y0027575D01*
X0760095Y0026789D02*
X0754595Y0026789D01*
X0754595Y0026003D02*
X0760095Y0026003D01*
X0760095Y0025217D02*
X0754595Y0025217D01*
X0754595Y0024431D02*
X0760095Y0024431D01*
X0760095Y0023645D02*
X0754595Y0023645D01*
X0754595Y0022860D02*
X0760095Y0022860D01*
X0760095Y0022074D02*
X0754595Y0022074D01*
X0754595Y0021288D02*
X0760095Y0021288D01*
X0760095Y0020502D02*
X0750595Y0020502D01*
X0751095Y0020502D02*
X0660414Y0020502D01*
X0660394Y0020550D02*
X0751095Y0020550D01*
X0751095Y0003444D01*
X0568595Y0003444D01*
X0568595Y0020550D01*
X0568897Y0020550D01*
X0569414Y0020033D01*
X0570505Y0019581D01*
X0571686Y0019581D01*
X0572777Y0020033D01*
X0573293Y0020550D01*
X0590796Y0020550D01*
X0590627Y0020140D01*
X0590627Y0018960D01*
X0591079Y0017868D01*
X0591914Y0017033D01*
X0593005Y0016581D01*
X0594186Y0016581D01*
X0595277Y0017033D01*
X0596112Y0017868D01*
X0596564Y0018960D01*
X0596564Y0020140D01*
X0596394Y0020550D01*
X0654796Y0020550D01*
X0654627Y0020140D01*
X0654627Y0018960D01*
X0655079Y0017868D01*
X0655914Y0017033D01*
X0657005Y0016581D01*
X0658186Y0016581D01*
X0659277Y0017033D01*
X0660112Y0017868D01*
X0660564Y0018960D01*
X0660564Y0020140D01*
X0660394Y0020550D01*
X0660564Y0019716D02*
X0751095Y0019716D01*
X0750595Y0019716D02*
X0760095Y0019716D01*
X0760095Y0018930D02*
X0750595Y0018930D01*
X0751095Y0018930D02*
X0660551Y0018930D01*
X0660226Y0018144D02*
X0751095Y0018144D01*
X0750595Y0018144D02*
X0760095Y0018144D01*
X0760095Y0017358D02*
X0750595Y0017358D01*
X0751095Y0017358D02*
X0659601Y0017358D01*
X0659024Y0015550D02*
X0654095Y0015550D01*
X0651595Y0018050D01*
X0651595Y0020050D01*
X0654627Y0019716D02*
X0596564Y0019716D01*
X0596551Y0018930D02*
X0654639Y0018930D01*
X0654964Y0018144D02*
X0642090Y0018144D01*
X0642277Y0018067D02*
X0641186Y0018518D01*
X0640005Y0018518D01*
X0638914Y0018067D01*
X0638079Y0017232D01*
X0637627Y0016140D01*
X0637627Y0014960D01*
X0638079Y0013868D01*
X0638914Y0013033D01*
X0640005Y0012581D01*
X0641186Y0012581D01*
X0642277Y0013033D01*
X0643112Y0013868D01*
X0643564Y0014960D01*
X0643564Y0016140D01*
X0643112Y0017232D01*
X0642277Y0018067D01*
X0642985Y0017358D02*
X0655589Y0017358D01*
X0654776Y0020502D02*
X0596414Y0020502D01*
X0596226Y0018144D02*
X0639101Y0018144D01*
X0638205Y0017358D02*
X0595601Y0017358D01*
X0595524Y0015050D02*
X0596095Y0014479D01*
X0596095Y0009550D01*
X0595524Y0015050D02*
X0589595Y0015050D01*
X0587595Y0017050D01*
X0587595Y0020050D01*
X0582595Y0015050D01*
X0590964Y0018144D02*
X0568595Y0018144D01*
X0568595Y0017358D02*
X0591589Y0017358D01*
X0590639Y0018930D02*
X0568595Y0018930D01*
X0568595Y0019716D02*
X0570180Y0019716D01*
X0568945Y0020502D02*
X0568595Y0020502D01*
X0572010Y0019716D02*
X0590627Y0019716D01*
X0590776Y0020502D02*
X0573245Y0020502D01*
X0568595Y0016572D02*
X0637805Y0016572D01*
X0637627Y0015786D02*
X0568595Y0015786D01*
X0568595Y0015000D02*
X0637627Y0015000D01*
X0637935Y0014215D02*
X0568595Y0014215D01*
X0568595Y0013429D02*
X0638518Y0013429D01*
X0639857Y0012643D02*
X0630593Y0012643D01*
X0630777Y0012567D02*
X0629686Y0013018D01*
X0628505Y0013018D01*
X0627414Y0012567D01*
X0626579Y0011732D01*
X0626127Y0010640D01*
X0626127Y0009460D01*
X0626579Y0008368D01*
X0627414Y0007533D01*
X0628505Y0007081D01*
X0629686Y0007081D01*
X0630777Y0007533D01*
X0631612Y0008368D01*
X0632064Y0009460D01*
X0632064Y0010640D01*
X0631612Y0011732D01*
X0630777Y0012567D01*
X0631486Y0011857D02*
X0648204Y0011857D01*
X0648079Y0011732D02*
X0647627Y0010640D01*
X0647627Y0009460D01*
X0648079Y0008368D01*
X0648914Y0007533D01*
X0650005Y0007081D01*
X0651186Y0007081D01*
X0652277Y0007533D01*
X0653112Y0008368D01*
X0653564Y0009460D01*
X0653564Y0010640D01*
X0653112Y0011732D01*
X0652277Y0012567D01*
X0651186Y0013018D01*
X0650005Y0013018D01*
X0648914Y0012567D01*
X0648079Y0011732D01*
X0647805Y0011071D02*
X0631885Y0011071D01*
X0632064Y0010285D02*
X0647627Y0010285D01*
X0647627Y0009499D02*
X0632064Y0009499D01*
X0631754Y0008713D02*
X0647936Y0008713D01*
X0648520Y0007927D02*
X0631170Y0007927D01*
X0629830Y0007141D02*
X0649860Y0007141D01*
X0651330Y0007141D02*
X0751095Y0007141D01*
X0750595Y0007141D02*
X0760095Y0007141D01*
X0760095Y0006355D02*
X0750595Y0006355D01*
X0751095Y0006355D02*
X0568595Y0006355D01*
X0568595Y0005569D02*
X0751095Y0005569D01*
X0751095Y0004784D02*
X0568595Y0004784D01*
X0568595Y0003998D02*
X0751095Y0003998D01*
X0751095Y0007927D02*
X0670020Y0007927D01*
X0670277Y0008033D02*
X0671112Y0008868D01*
X0671564Y0009960D01*
X0671564Y0011140D01*
X0671112Y0012232D01*
X0670277Y0013067D01*
X0669186Y0013518D01*
X0668005Y0013518D01*
X0666914Y0013067D01*
X0666079Y0012232D01*
X0665627Y0011140D01*
X0665627Y0009960D01*
X0666079Y0008868D01*
X0666914Y0008033D01*
X0668005Y0007581D01*
X0669186Y0007581D01*
X0670277Y0008033D01*
X0670956Y0008713D02*
X0751095Y0008713D01*
X0750595Y0008713D02*
X0760095Y0008713D01*
X0760095Y0007927D02*
X0750595Y0007927D01*
X0750595Y0009499D02*
X0760095Y0009499D01*
X0760095Y0010285D02*
X0750595Y0010285D01*
X0751095Y0010285D02*
X0671564Y0010285D01*
X0671564Y0011071D02*
X0751095Y0011071D01*
X0750595Y0011071D02*
X0760095Y0011071D01*
X0760095Y0011857D02*
X0750595Y0011857D01*
X0751095Y0011857D02*
X0671267Y0011857D01*
X0670701Y0012643D02*
X0751095Y0012643D01*
X0750595Y0012643D02*
X0760095Y0012643D01*
X0760095Y0013429D02*
X0750595Y0013429D01*
X0751095Y0013429D02*
X0669403Y0013429D01*
X0667788Y0013429D02*
X0642672Y0013429D01*
X0643255Y0014215D02*
X0751095Y0014215D01*
X0750595Y0014215D02*
X0760095Y0014215D01*
X0760095Y0015000D02*
X0750595Y0015000D01*
X0751095Y0015000D02*
X0643564Y0015000D01*
X0643564Y0015786D02*
X0751095Y0015786D01*
X0750595Y0015786D02*
X0760095Y0015786D01*
X0760095Y0016572D02*
X0750595Y0016572D01*
X0751095Y0016572D02*
X0643385Y0016572D01*
X0641333Y0012643D02*
X0649097Y0012643D01*
X0652093Y0012643D02*
X0666490Y0012643D01*
X0665923Y0011857D02*
X0652986Y0011857D01*
X0653385Y0011071D02*
X0665627Y0011071D01*
X0665627Y0010285D02*
X0653564Y0010285D01*
X0653564Y0009499D02*
X0665817Y0009499D01*
X0666234Y0008713D02*
X0653254Y0008713D01*
X0652670Y0007927D02*
X0667170Y0007927D01*
X0671373Y0009499D02*
X0751095Y0009499D01*
X0751095Y0024550D02*
X0661894Y0024550D01*
X0662064Y0024960D01*
X0662064Y0026140D01*
X0661612Y0027232D01*
X0660777Y0028067D01*
X0659686Y0028518D01*
X0658505Y0028518D01*
X0657414Y0028067D01*
X0656579Y0027232D01*
X0656127Y0026140D01*
X0656127Y0024960D01*
X0656296Y0024550D01*
X0597894Y0024550D01*
X0598064Y0024960D01*
X0598064Y0026140D01*
X0597612Y0027232D01*
X0596777Y0028067D01*
X0595686Y0028518D01*
X0594505Y0028518D01*
X0593414Y0028067D01*
X0592579Y0027232D01*
X0592127Y0026140D01*
X0592127Y0024960D01*
X0592296Y0024550D01*
X0573293Y0024550D01*
X0572777Y0025067D01*
X0571686Y0025518D01*
X0570505Y0025518D01*
X0569414Y0025067D01*
X0568897Y0024550D01*
X0568595Y0024550D01*
X0568595Y0046352D01*
X0568914Y0046033D01*
X0570005Y0045581D01*
X0571186Y0045581D01*
X0572277Y0046033D01*
X0572793Y0046550D01*
X0632897Y0046550D01*
X0633414Y0046033D01*
X0634505Y0045581D01*
X0635686Y0045581D01*
X0636777Y0046033D01*
X0637293Y0046550D01*
X0751095Y0046550D01*
X0751095Y0024550D01*
X0751095Y0025217D02*
X0662064Y0025217D01*
X0662064Y0026003D02*
X0751095Y0026003D01*
X0751095Y0026789D02*
X0661795Y0026789D01*
X0661268Y0027575D02*
X0751095Y0027575D01*
X0751095Y0028361D02*
X0660066Y0028361D01*
X0658124Y0028361D02*
X0596066Y0028361D01*
X0597268Y0027575D02*
X0656922Y0027575D01*
X0656395Y0026789D02*
X0597795Y0026789D01*
X0598064Y0026003D02*
X0656127Y0026003D01*
X0656127Y0025217D02*
X0598064Y0025217D01*
X0594124Y0028361D02*
X0568595Y0028361D01*
X0568595Y0029147D02*
X0751095Y0029147D01*
X0751095Y0029933D02*
X0568595Y0029933D01*
X0568595Y0030719D02*
X0681173Y0030719D01*
X0681505Y0030581D02*
X0682686Y0030581D01*
X0683777Y0031033D01*
X0684612Y0031868D01*
X0685064Y0032960D01*
X0685064Y0034140D01*
X0684612Y0035232D01*
X0683777Y0036067D01*
X0682686Y0036518D01*
X0681505Y0036518D01*
X0680414Y0036067D01*
X0679579Y0035232D01*
X0679127Y0034140D01*
X0679127Y0032960D01*
X0679579Y0031868D01*
X0680414Y0031033D01*
X0681505Y0030581D01*
X0683017Y0030719D02*
X0751095Y0030719D01*
X0751095Y0031505D02*
X0684248Y0031505D01*
X0684787Y0032291D02*
X0751095Y0032291D01*
X0751095Y0033076D02*
X0685064Y0033076D01*
X0685064Y0033862D02*
X0751095Y0033862D01*
X0751095Y0034648D02*
X0684853Y0034648D01*
X0684409Y0035434D02*
X0751095Y0035434D01*
X0751095Y0036220D02*
X0683406Y0036220D01*
X0680784Y0036220D02*
X0672031Y0036220D01*
X0672064Y0036140D02*
X0671612Y0037232D01*
X0670777Y0038067D01*
X0669686Y0038518D01*
X0668505Y0038518D01*
X0667414Y0038067D01*
X0666845Y0037498D01*
X0666277Y0038067D01*
X0665186Y0038518D01*
X0664005Y0038518D01*
X0662914Y0038067D01*
X0662079Y0037232D01*
X0661627Y0036140D01*
X0661627Y0034960D01*
X0662079Y0033868D01*
X0662914Y0033033D01*
X0664005Y0032581D01*
X0665186Y0032581D01*
X0666277Y0033033D01*
X0666845Y0033602D01*
X0667414Y0033033D01*
X0668505Y0032581D01*
X0669686Y0032581D01*
X0670777Y0033033D01*
X0671612Y0033868D01*
X0672064Y0034960D01*
X0672064Y0036140D01*
X0672064Y0035434D02*
X0679781Y0035434D01*
X0679337Y0034648D02*
X0671935Y0034648D01*
X0671606Y0033862D02*
X0679127Y0033862D01*
X0679127Y0033076D02*
X0670820Y0033076D01*
X0667371Y0033076D02*
X0666320Y0033076D01*
X0662871Y0033076D02*
X0657320Y0033076D01*
X0657277Y0033033D02*
X0658112Y0033868D01*
X0658564Y0034960D01*
X0658564Y0036140D01*
X0658112Y0037232D01*
X0657277Y0038067D01*
X0656186Y0038518D01*
X0655005Y0038518D01*
X0653914Y0038067D01*
X0653345Y0037498D01*
X0652777Y0038067D01*
X0651686Y0038518D01*
X0650505Y0038518D01*
X0649414Y0038067D01*
X0648579Y0037232D01*
X0648127Y0036140D01*
X0648127Y0034960D01*
X0648579Y0033868D01*
X0649414Y0033033D01*
X0650505Y0032581D01*
X0651686Y0032581D01*
X0652777Y0033033D01*
X0653345Y0033602D01*
X0653914Y0033033D01*
X0655005Y0032581D01*
X0656186Y0032581D01*
X0657277Y0033033D01*
X0658106Y0033862D02*
X0662085Y0033862D01*
X0661756Y0034648D02*
X0658435Y0034648D01*
X0658564Y0035434D02*
X0661627Y0035434D01*
X0661660Y0036220D02*
X0658531Y0036220D01*
X0658205Y0037006D02*
X0661985Y0037006D01*
X0662639Y0037792D02*
X0657551Y0037792D01*
X0660095Y0038550D02*
X0660095Y0035550D01*
X0660095Y0032550D01*
X0658095Y0030550D01*
X0654095Y0030550D01*
X0651595Y0028050D01*
X0651595Y0025050D01*
X0652820Y0033076D02*
X0653871Y0033076D01*
X0649371Y0033076D02*
X0619820Y0033076D01*
X0620112Y0033368D02*
X0620564Y0034460D01*
X0620564Y0035640D01*
X0620112Y0036732D01*
X0619277Y0037567D01*
X0618186Y0038018D01*
X0617005Y0038018D01*
X0615914Y0037567D01*
X0615079Y0036732D01*
X0614627Y0035640D01*
X0614627Y0034460D01*
X0615079Y0033368D01*
X0615914Y0032533D01*
X0617005Y0032081D01*
X0618186Y0032081D01*
X0619277Y0032533D01*
X0620112Y0033368D01*
X0620316Y0033862D02*
X0648585Y0033862D01*
X0648256Y0034648D02*
X0620564Y0034648D01*
X0620564Y0035434D02*
X0648127Y0035434D01*
X0648160Y0036220D02*
X0620324Y0036220D01*
X0619837Y0037006D02*
X0648485Y0037006D01*
X0649139Y0037792D02*
X0618733Y0037792D01*
X0616458Y0037792D02*
X0607051Y0037792D01*
X0606777Y0038067D02*
X0605686Y0038518D01*
X0604505Y0038518D01*
X0603414Y0038067D01*
X0602845Y0037498D01*
X0602277Y0038067D01*
X0601186Y0038518D01*
X0600005Y0038518D01*
X0598914Y0038067D01*
X0598079Y0037232D01*
X0597627Y0036140D01*
X0597627Y0034960D01*
X0598079Y0033868D01*
X0598914Y0033033D01*
X0600005Y0032581D01*
X0601186Y0032581D01*
X0602277Y0033033D01*
X0602845Y0033602D01*
X0603414Y0033033D01*
X0604505Y0032581D01*
X0605686Y0032581D01*
X0606777Y0033033D01*
X0607612Y0033868D01*
X0608064Y0034960D01*
X0608064Y0036140D01*
X0607612Y0037232D01*
X0606777Y0038067D01*
X0607705Y0037006D02*
X0615353Y0037006D01*
X0614867Y0036220D02*
X0608031Y0036220D01*
X0608064Y0035434D02*
X0614627Y0035434D01*
X0614627Y0034648D02*
X0607935Y0034648D01*
X0607606Y0033862D02*
X0614874Y0033862D01*
X0615371Y0033076D02*
X0606820Y0033076D01*
X0603371Y0033076D02*
X0602320Y0033076D01*
X0598871Y0033076D02*
X0593320Y0033076D01*
X0593277Y0033033D02*
X0594112Y0033868D01*
X0594564Y0034960D01*
X0594564Y0036140D01*
X0594112Y0037232D01*
X0593277Y0038067D01*
X0592186Y0038518D01*
X0591005Y0038518D01*
X0589914Y0038067D01*
X0589345Y0037498D01*
X0588777Y0038067D01*
X0587686Y0038518D01*
X0586505Y0038518D01*
X0585414Y0038067D01*
X0584579Y0037232D01*
X0584127Y0036140D01*
X0584127Y0034960D01*
X0584579Y0033868D01*
X0585414Y0033033D01*
X0586505Y0032581D01*
X0587686Y0032581D01*
X0588777Y0033033D01*
X0589345Y0033602D01*
X0589914Y0033033D01*
X0591005Y0032581D01*
X0592186Y0032581D01*
X0593277Y0033033D01*
X0594106Y0033862D02*
X0598085Y0033862D01*
X0597756Y0034648D02*
X0594435Y0034648D01*
X0594564Y0035434D02*
X0597627Y0035434D01*
X0597660Y0036220D02*
X0594531Y0036220D01*
X0594205Y0037006D02*
X0597985Y0037006D01*
X0598639Y0037792D02*
X0593551Y0037792D01*
X0596095Y0038550D02*
X0596095Y0035550D01*
X0596095Y0030621D01*
X0595524Y0030050D01*
X0590595Y0030050D01*
X0587595Y0027050D01*
X0587595Y0025050D01*
X0592127Y0025217D02*
X0572413Y0025217D01*
X0571095Y0026003D02*
X0561095Y0026003D01*
X0561095Y0025217D02*
X0569777Y0025217D01*
X0568595Y0025217D01*
X0568595Y0026003D02*
X0592127Y0026003D01*
X0592395Y0026789D02*
X0568595Y0026789D01*
X0568595Y0027575D02*
X0592922Y0027575D01*
X0589871Y0033076D02*
X0588820Y0033076D01*
X0585371Y0033076D02*
X0568595Y0033076D01*
X0568595Y0032291D02*
X0616500Y0032291D01*
X0618690Y0032291D02*
X0679404Y0032291D01*
X0679942Y0031505D02*
X0568595Y0031505D01*
X0568595Y0033862D02*
X0584585Y0033862D01*
X0584256Y0034648D02*
X0568595Y0034648D01*
X0568595Y0035434D02*
X0584127Y0035434D01*
X0584160Y0036220D02*
X0568595Y0036220D01*
X0568595Y0037006D02*
X0584485Y0037006D01*
X0585139Y0037792D02*
X0568595Y0037792D01*
X0568595Y0038578D02*
X0751095Y0038578D01*
X0751095Y0039364D02*
X0568595Y0039364D01*
X0568595Y0040150D02*
X0751095Y0040150D01*
X0751095Y0040936D02*
X0568595Y0040936D01*
X0568595Y0041721D02*
X0751095Y0041721D01*
X0751095Y0042507D02*
X0568595Y0042507D01*
X0568595Y0043293D02*
X0751095Y0043293D01*
X0751095Y0044079D02*
X0568595Y0044079D01*
X0568595Y0044865D02*
X0751095Y0044865D01*
X0751095Y0045651D02*
X0635853Y0045651D01*
X0634337Y0045651D02*
X0571353Y0045651D01*
X0571095Y0044865D02*
X0561095Y0044865D01*
X0561095Y0044079D02*
X0571095Y0044079D01*
X0571095Y0043293D02*
X0561095Y0043293D01*
X0561095Y0042507D02*
X0571095Y0042507D01*
X0571095Y0041721D02*
X0561095Y0041721D01*
X0561095Y0040936D02*
X0571095Y0040936D01*
X0571095Y0040150D02*
X0561095Y0040150D01*
X0561095Y0039364D02*
X0571095Y0039364D01*
X0571095Y0038578D02*
X0561095Y0038578D01*
X0561095Y0037792D02*
X0571095Y0037792D01*
X0571095Y0037006D02*
X0561095Y0037006D01*
X0561095Y0036220D02*
X0571095Y0036220D01*
X0571095Y0035434D02*
X0561095Y0035434D01*
X0561095Y0034648D02*
X0571095Y0034648D01*
X0571095Y0033862D02*
X0561095Y0033862D01*
X0561095Y0033076D02*
X0571095Y0033076D01*
X0571095Y0032291D02*
X0561095Y0032291D01*
X0561095Y0031505D02*
X0571095Y0031505D01*
X0571095Y0030719D02*
X0561095Y0030719D01*
X0561095Y0029933D02*
X0571095Y0029933D01*
X0571095Y0029147D02*
X0561095Y0029147D01*
X0561095Y0028361D02*
X0571095Y0028361D01*
X0571095Y0027575D02*
X0561095Y0027575D01*
X0561095Y0026789D02*
X0571095Y0026789D01*
X0589051Y0037792D02*
X0589639Y0037792D01*
X0589095Y0038550D02*
X0587595Y0040050D01*
X0587595Y0046050D01*
X0587595Y0051050D02*
X0587595Y0054550D01*
X0589595Y0056550D01*
X0594095Y0056550D01*
X0596095Y0058550D01*
X0596095Y0062550D01*
X0596095Y0067979D01*
X0595024Y0069050D01*
X0590095Y0069050D01*
X0587095Y0072050D01*
X0587095Y0073550D01*
X0587595Y0078550D02*
X0587595Y0081050D01*
X0589595Y0083050D01*
X0595024Y0083050D01*
X0596095Y0084121D01*
X0596095Y0089550D01*
X0583064Y0089460D02*
X0583064Y0090640D01*
X0582612Y0091732D01*
X0581777Y0092567D01*
X0580686Y0093018D01*
X0579505Y0093018D01*
X0578414Y0092567D01*
X0577579Y0091732D01*
X0577127Y0090640D01*
X0577127Y0089460D01*
X0577579Y0088368D01*
X0578414Y0087533D01*
X0579505Y0087081D01*
X0580686Y0087081D01*
X0581777Y0087533D01*
X0582612Y0088368D01*
X0583064Y0089460D01*
X0583064Y0089662D02*
X0751095Y0089662D01*
X0751095Y0088876D02*
X0744029Y0088876D01*
X0743686Y0089018D02*
X0742505Y0089018D01*
X0741414Y0088567D01*
X0740579Y0087732D01*
X0740127Y0086640D01*
X0740127Y0085460D01*
X0740579Y0084368D01*
X0741414Y0083533D01*
X0742505Y0083081D01*
X0743686Y0083081D01*
X0744777Y0083533D01*
X0745612Y0084368D01*
X0746064Y0085460D01*
X0746064Y0086640D01*
X0745612Y0087732D01*
X0744777Y0088567D01*
X0743686Y0089018D01*
X0742161Y0088876D02*
X0582822Y0088876D01*
X0582334Y0088090D02*
X0740937Y0088090D01*
X0740402Y0087304D02*
X0581224Y0087304D01*
X0578967Y0087304D02*
X0568595Y0087304D01*
X0568595Y0086518D02*
X0740127Y0086518D01*
X0740127Y0085733D02*
X0641876Y0085733D01*
X0642277Y0085567D02*
X0641186Y0086018D01*
X0640005Y0086018D01*
X0638914Y0085567D01*
X0638079Y0084732D01*
X0637627Y0083640D01*
X0637627Y0082460D01*
X0638079Y0081368D01*
X0638914Y0080533D01*
X0640005Y0080081D01*
X0641186Y0080081D01*
X0642277Y0080533D01*
X0643112Y0081368D01*
X0643564Y0082460D01*
X0643564Y0083640D01*
X0643112Y0084732D01*
X0642277Y0085567D01*
X0642897Y0084947D02*
X0740339Y0084947D01*
X0740786Y0084161D02*
X0643348Y0084161D01*
X0643564Y0083375D02*
X0741796Y0083375D01*
X0744394Y0083375D02*
X0751095Y0083375D01*
X0751095Y0084161D02*
X0745404Y0084161D01*
X0745851Y0084947D02*
X0751095Y0084947D01*
X0751095Y0085733D02*
X0746064Y0085733D01*
X0746064Y0086518D02*
X0751095Y0086518D01*
X0751095Y0087304D02*
X0745789Y0087304D01*
X0745253Y0088090D02*
X0751095Y0088090D01*
X0751095Y0090448D02*
X0583064Y0090448D01*
X0582818Y0091234D02*
X0751095Y0091234D01*
X0751095Y0092020D02*
X0582323Y0092020D01*
X0581199Y0092806D02*
X0751095Y0092806D01*
X0751095Y0093592D02*
X0568595Y0093592D01*
X0568595Y0094378D02*
X0751095Y0094378D01*
X0751095Y0095164D02*
X0568595Y0095164D01*
X0568595Y0095949D02*
X0751095Y0095949D01*
X0751095Y0096050D02*
X0751095Y0078050D01*
X0659894Y0078050D01*
X0660064Y0078460D01*
X0660064Y0079640D01*
X0659612Y0080732D01*
X0658777Y0081567D01*
X0657686Y0082018D01*
X0656505Y0082018D01*
X0655414Y0081567D01*
X0654579Y0080732D01*
X0654127Y0079640D01*
X0654127Y0078460D01*
X0654296Y0078050D01*
X0595894Y0078050D01*
X0596064Y0078460D01*
X0596064Y0079640D01*
X0595612Y0080732D01*
X0594777Y0081567D01*
X0593686Y0082018D01*
X0592505Y0082018D01*
X0591414Y0081567D01*
X0590579Y0080732D01*
X0590127Y0079640D01*
X0590127Y0078460D01*
X0590296Y0078050D01*
X0568595Y0078050D01*
X0568595Y0096050D01*
X0751095Y0096050D01*
X0751095Y0099050D02*
X0568595Y0099050D01*
X0568595Y0116550D01*
X0590796Y0116550D01*
X0590627Y0116140D01*
X0590627Y0114960D01*
X0591079Y0113868D01*
X0591914Y0113033D01*
X0593005Y0112581D01*
X0594186Y0112581D01*
X0595277Y0113033D01*
X0596112Y0113868D01*
X0596564Y0114960D01*
X0596564Y0116140D01*
X0596394Y0116550D01*
X0654796Y0116550D01*
X0654627Y0116140D01*
X0654627Y0114960D01*
X0655079Y0113868D01*
X0655914Y0113033D01*
X0657005Y0112581D01*
X0658186Y0112581D01*
X0659277Y0113033D01*
X0660112Y0113868D01*
X0660564Y0114960D01*
X0660564Y0116140D01*
X0660394Y0116550D01*
X0718796Y0116550D01*
X0718627Y0116140D01*
X0718627Y0114960D01*
X0719079Y0113868D01*
X0719914Y0113033D01*
X0721005Y0112581D01*
X0722186Y0112581D01*
X0723277Y0113033D01*
X0724112Y0113868D01*
X0724564Y0114960D01*
X0724564Y0116140D01*
X0724394Y0116550D01*
X0751095Y0116550D01*
X0751095Y0099050D01*
X0751095Y0099093D02*
X0568595Y0099093D01*
X0568595Y0099879D02*
X0751095Y0099879D01*
X0751095Y0100665D02*
X0568595Y0100665D01*
X0568595Y0101451D02*
X0751095Y0101451D01*
X0751095Y0102237D02*
X0568595Y0102237D01*
X0568595Y0103023D02*
X0751095Y0103023D01*
X0751095Y0103809D02*
X0713552Y0103809D01*
X0713277Y0103533D02*
X0714112Y0104368D01*
X0714564Y0105460D01*
X0714564Y0106640D01*
X0714112Y0107732D01*
X0713277Y0108567D01*
X0712186Y0109018D01*
X0711005Y0109018D01*
X0709914Y0108567D01*
X0709079Y0107732D01*
X0708627Y0106640D01*
X0708627Y0105460D01*
X0709079Y0104368D01*
X0709914Y0103533D01*
X0711005Y0103081D01*
X0712186Y0103081D01*
X0713277Y0103533D01*
X0714205Y0104594D02*
X0751095Y0104594D01*
X0751095Y0105380D02*
X0714531Y0105380D01*
X0714564Y0106166D02*
X0751095Y0106166D01*
X0751095Y0106952D02*
X0714434Y0106952D01*
X0714105Y0107738D02*
X0751095Y0107738D01*
X0751095Y0108524D02*
X0713319Y0108524D01*
X0709871Y0108524D02*
X0642254Y0108524D01*
X0642277Y0108533D02*
X0643112Y0109368D01*
X0643564Y0110460D01*
X0643564Y0111640D01*
X0643112Y0112732D01*
X0642277Y0113567D01*
X0641186Y0114018D01*
X0640005Y0114018D01*
X0638914Y0113567D01*
X0638079Y0112732D01*
X0637627Y0111640D01*
X0637627Y0110460D01*
X0638079Y0109368D01*
X0638914Y0108533D01*
X0640005Y0108081D01*
X0641186Y0108081D01*
X0642277Y0108533D01*
X0643053Y0109310D02*
X0702637Y0109310D01*
X0702914Y0109033D02*
X0702079Y0109868D01*
X0701627Y0110960D01*
X0701627Y0112140D01*
X0702079Y0113232D01*
X0702914Y0114067D01*
X0704005Y0114518D01*
X0705186Y0114518D01*
X0706277Y0114067D01*
X0707112Y0113232D01*
X0707564Y0112140D01*
X0707564Y0110960D01*
X0707112Y0109868D01*
X0706277Y0109033D01*
X0705186Y0108581D01*
X0704005Y0108581D01*
X0702914Y0109033D01*
X0701984Y0110096D02*
X0643413Y0110096D01*
X0643564Y0110882D02*
X0701659Y0110882D01*
X0701627Y0111668D02*
X0643552Y0111668D01*
X0643227Y0112454D02*
X0701756Y0112454D01*
X0702087Y0113240D02*
X0659483Y0113240D01*
X0660177Y0114025D02*
X0702872Y0114025D01*
X0706318Y0114025D02*
X0719014Y0114025D01*
X0718688Y0114811D02*
X0660502Y0114811D01*
X0660564Y0115597D02*
X0718627Y0115597D01*
X0718727Y0116383D02*
X0660463Y0116383D01*
X0662064Y0121099D02*
X0720127Y0121099D01*
X0724463Y0116383D02*
X0751095Y0116383D01*
X0751095Y0115597D02*
X0724564Y0115597D01*
X0724502Y0114811D02*
X0751095Y0114811D01*
X0751095Y0114025D02*
X0724177Y0114025D01*
X0723483Y0113240D02*
X0751095Y0113240D01*
X0751095Y0112454D02*
X0707434Y0112454D01*
X0707564Y0111668D02*
X0751095Y0111668D01*
X0751095Y0110882D02*
X0707531Y0110882D01*
X0707206Y0110096D02*
X0751095Y0110096D01*
X0751095Y0109310D02*
X0706553Y0109310D01*
X0709085Y0107738D02*
X0568595Y0107738D01*
X0568595Y0106952D02*
X0708756Y0106952D01*
X0708627Y0106166D02*
X0568595Y0106166D01*
X0568595Y0105380D02*
X0708659Y0105380D01*
X0708985Y0104594D02*
X0568595Y0104594D01*
X0568595Y0103809D02*
X0709638Y0103809D01*
X0724095Y0105550D02*
X0724095Y0110479D01*
X0722524Y0112050D01*
X0717095Y0112050D01*
X0715595Y0113550D01*
X0715595Y0116550D01*
X0719708Y0113240D02*
X0707104Y0113240D01*
X0724095Y0105550D02*
X0728595Y0101050D01*
X0753095Y0101050D01*
X0757095Y0101050D01*
X0760095Y0098050D01*
X0760095Y0077050D01*
X0756595Y0073550D01*
X0754095Y0073550D01*
X0671095Y0073550D01*
X0660095Y0062550D01*
X0660095Y0058550D01*
X0658095Y0056550D01*
X0653595Y0056550D01*
X0651595Y0054550D01*
X0651595Y0051050D01*
X0651595Y0046050D02*
X0646595Y0046050D01*
X0651595Y0046050D02*
X0654095Y0046050D01*
X0660095Y0040050D01*
X0660095Y0035550D01*
X0653639Y0037792D02*
X0653051Y0037792D01*
X0666551Y0037792D02*
X0667139Y0037792D01*
X0671051Y0037792D02*
X0751095Y0037792D01*
X0751095Y0037006D02*
X0671705Y0037006D01*
X0637180Y0046437D02*
X0751095Y0046437D01*
X0750095Y0051938D02*
X0760095Y0051938D01*
X0760095Y0052724D02*
X0750095Y0052724D01*
X0750095Y0053510D02*
X0760095Y0053510D01*
X0760095Y0054296D02*
X0750095Y0054296D01*
X0750095Y0055082D02*
X0760095Y0055082D01*
X0760095Y0055868D02*
X0750095Y0055868D01*
X0750095Y0056654D02*
X0760095Y0056654D01*
X0760095Y0057440D02*
X0750095Y0057440D01*
X0750095Y0058226D02*
X0760095Y0058226D01*
X0760095Y0059012D02*
X0750095Y0059012D01*
X0750095Y0059797D02*
X0760095Y0059797D01*
X0760095Y0060583D02*
X0750095Y0060583D01*
X0750095Y0061369D02*
X0760095Y0061369D01*
X0760095Y0062155D02*
X0750095Y0062155D01*
X0750095Y0062941D02*
X0760095Y0062941D01*
X0760095Y0063727D02*
X0750095Y0063727D01*
X0750095Y0064513D02*
X0760095Y0064513D01*
X0760095Y0065299D02*
X0750095Y0065299D01*
X0750095Y0066085D02*
X0760095Y0066085D01*
X0760095Y0066871D02*
X0750095Y0066871D01*
X0750095Y0067657D02*
X0760095Y0067657D01*
X0760095Y0068442D02*
X0750095Y0068442D01*
X0750095Y0069228D02*
X0760095Y0069228D01*
X0760095Y0070014D02*
X0750095Y0070014D01*
X0750095Y0070800D02*
X0760095Y0070800D01*
X0760095Y0071586D02*
X0750095Y0071586D01*
X0750095Y0072372D02*
X0760095Y0072372D01*
X0760095Y0073158D02*
X0750095Y0073158D01*
X0750095Y0073944D02*
X0760095Y0073944D01*
X0760095Y0074730D02*
X0754595Y0074730D01*
X0754595Y0075516D02*
X0760095Y0075516D01*
X0760095Y0076302D02*
X0754595Y0076302D01*
X0754595Y0077088D02*
X0760095Y0077088D01*
X0760095Y0077873D02*
X0754595Y0077873D01*
X0754595Y0078659D02*
X0760095Y0078659D01*
X0760095Y0079445D02*
X0754595Y0079445D01*
X0754595Y0080231D02*
X0760095Y0080231D01*
X0760095Y0081017D02*
X0754595Y0081017D01*
X0754595Y0081803D02*
X0760095Y0081803D01*
X0760095Y0082589D02*
X0754595Y0082589D01*
X0754595Y0083375D02*
X0760095Y0083375D01*
X0760095Y0084161D02*
X0754595Y0084161D01*
X0754595Y0084947D02*
X0760095Y0084947D01*
X0760095Y0085733D02*
X0754595Y0085733D01*
X0754595Y0086518D02*
X0760095Y0086518D01*
X0760095Y0087304D02*
X0758548Y0087304D01*
X0759204Y0088090D02*
X0760095Y0088090D01*
X0760095Y0088876D02*
X0759529Y0088876D01*
X0759564Y0089662D02*
X0760095Y0089662D01*
X0760095Y0090448D02*
X0759436Y0090448D01*
X0759109Y0091234D02*
X0760095Y0091234D01*
X0760095Y0092020D02*
X0758323Y0092020D01*
X0760095Y0092806D02*
X0754595Y0092806D01*
X0754595Y0093592D02*
X0760095Y0093592D01*
X0760095Y0094378D02*
X0754595Y0094378D01*
X0754595Y0095164D02*
X0760095Y0095164D01*
X0760095Y0095949D02*
X0754595Y0095949D01*
X0754595Y0096735D02*
X0760095Y0096735D01*
X0760095Y0097521D02*
X0754595Y0097521D01*
X0754595Y0098307D02*
X0760095Y0098307D01*
X0760095Y0099093D02*
X0750095Y0099093D01*
X0750095Y0099879D02*
X0760095Y0099879D01*
X0760095Y0100665D02*
X0750095Y0100665D01*
X0750095Y0101451D02*
X0760095Y0101451D01*
X0760095Y0102237D02*
X0750095Y0102237D01*
X0750095Y0103023D02*
X0760095Y0103023D01*
X0760095Y0103809D02*
X0750095Y0103809D01*
X0750095Y0104594D02*
X0759985Y0104594D01*
X0759659Y0105380D02*
X0750095Y0105380D01*
X0750095Y0106166D02*
X0759627Y0106166D01*
X0759756Y0106952D02*
X0750095Y0106952D01*
X0750095Y0107738D02*
X0760085Y0107738D01*
X0760095Y0108524D02*
X0750095Y0108524D01*
X0750095Y0109310D02*
X0759896Y0109310D01*
X0759627Y0110096D02*
X0750095Y0110096D01*
X0750095Y0110882D02*
X0759627Y0110882D01*
X0759845Y0111668D02*
X0750095Y0111668D01*
X0750095Y0112454D02*
X0760095Y0112454D01*
X0760095Y0113240D02*
X0750095Y0113240D01*
X0750095Y0114025D02*
X0760095Y0114025D01*
X0760095Y0114811D02*
X0750095Y0114811D01*
X0750095Y0115597D02*
X0760095Y0115597D01*
X0760095Y0116383D02*
X0750095Y0116383D01*
X0754595Y0117169D02*
X0760095Y0117169D01*
X0760095Y0117955D02*
X0754595Y0117955D01*
X0754595Y0118741D02*
X0760095Y0118741D01*
X0760095Y0119527D02*
X0754595Y0119527D01*
X0754595Y0120313D02*
X0760095Y0120313D01*
X0751095Y0125028D02*
X0627764Y0125028D01*
X0627777Y0125033D02*
X0628612Y0125868D01*
X0629064Y0126960D01*
X0629064Y0128140D01*
X0628612Y0129232D01*
X0627777Y0130067D01*
X0626686Y0130518D01*
X0625505Y0130518D01*
X0624414Y0130067D01*
X0623579Y0129232D01*
X0623127Y0128140D01*
X0623127Y0126960D01*
X0623579Y0125868D01*
X0624414Y0125033D01*
X0625505Y0124581D01*
X0626686Y0124581D01*
X0627777Y0125033D01*
X0628557Y0125814D02*
X0751095Y0125814D01*
X0751095Y0126600D02*
X0628915Y0126600D01*
X0629064Y0127386D02*
X0751095Y0127386D01*
X0751095Y0128172D02*
X0747915Y0128172D01*
X0747777Y0128033D02*
X0748612Y0128868D01*
X0749064Y0129960D01*
X0749064Y0131140D01*
X0748612Y0132232D01*
X0747777Y0133067D01*
X0746686Y0133518D01*
X0745505Y0133518D01*
X0744414Y0133067D01*
X0743579Y0132232D01*
X0743127Y0131140D01*
X0743127Y0129960D01*
X0743579Y0128868D01*
X0744414Y0128033D01*
X0745505Y0127581D01*
X0746686Y0127581D01*
X0747777Y0128033D01*
X0748649Y0128958D02*
X0751095Y0128958D01*
X0751095Y0129744D02*
X0748974Y0129744D01*
X0749064Y0130530D02*
X0751095Y0130530D01*
X0751095Y0131316D02*
X0748991Y0131316D01*
X0748666Y0132101D02*
X0751095Y0132101D01*
X0751095Y0132887D02*
X0747956Y0132887D01*
X0751095Y0133673D02*
X0735170Y0133673D01*
X0735754Y0132887D02*
X0744234Y0132887D01*
X0743525Y0132101D02*
X0736064Y0132101D01*
X0736064Y0131316D02*
X0743199Y0131316D01*
X0743127Y0130530D02*
X0735886Y0130530D01*
X0735487Y0129744D02*
X0743216Y0129744D01*
X0743542Y0128958D02*
X0734594Y0128958D01*
X0731596Y0128958D02*
X0730094Y0128958D01*
X0727096Y0128958D02*
X0721094Y0128958D01*
X0721987Y0129744D02*
X0726203Y0129744D01*
X0725805Y0130530D02*
X0722386Y0130530D01*
X0722564Y0131316D02*
X0725627Y0131316D01*
X0725627Y0132101D02*
X0722564Y0132101D01*
X0722254Y0132887D02*
X0725936Y0132887D01*
X0726520Y0133673D02*
X0721670Y0133673D01*
X0724095Y0132050D02*
X0724095Y0131550D01*
X0718096Y0128958D02*
X0716594Y0128958D01*
X0713596Y0128958D02*
X0696094Y0128958D01*
X0696987Y0129744D02*
X0712703Y0129744D01*
X0712305Y0130530D02*
X0697386Y0130530D01*
X0697564Y0131316D02*
X0712127Y0131316D01*
X0712127Y0132101D02*
X0697564Y0132101D01*
X0697254Y0132887D02*
X0712436Y0132887D01*
X0713020Y0133673D02*
X0696670Y0133673D01*
X0692520Y0133673D02*
X0684170Y0133673D01*
X0684754Y0132887D02*
X0691936Y0132887D01*
X0691627Y0132101D02*
X0685064Y0132101D01*
X0685064Y0131316D02*
X0691627Y0131316D01*
X0691805Y0130530D02*
X0684886Y0130530D01*
X0684487Y0129744D02*
X0692203Y0129744D01*
X0693096Y0128958D02*
X0683594Y0128958D01*
X0680596Y0128958D02*
X0670594Y0128958D01*
X0671487Y0129744D02*
X0679703Y0129744D01*
X0679305Y0130530D02*
X0671886Y0130530D01*
X0672064Y0131316D02*
X0679127Y0131316D01*
X0679127Y0132101D02*
X0672064Y0132101D01*
X0671754Y0132887D02*
X0679436Y0132887D01*
X0680020Y0133673D02*
X0671170Y0133673D01*
X0667020Y0133673D02*
X0666670Y0133673D01*
X0662520Y0133673D02*
X0657670Y0133673D01*
X0658254Y0132887D02*
X0661936Y0132887D01*
X0661627Y0132101D02*
X0658564Y0132101D01*
X0658564Y0131316D02*
X0661627Y0131316D01*
X0661805Y0130530D02*
X0658386Y0130530D01*
X0657987Y0129744D02*
X0662203Y0129744D01*
X0663096Y0128958D02*
X0657094Y0128958D01*
X0654096Y0128958D02*
X0652594Y0128958D01*
X0649596Y0128958D02*
X0628725Y0128958D01*
X0629051Y0128172D02*
X0744275Y0128172D01*
X0731020Y0133673D02*
X0730670Y0133673D01*
X0717520Y0133673D02*
X0717170Y0133673D01*
X0697525Y0147820D02*
X0635666Y0147820D01*
X0636809Y0147034D02*
X0696381Y0147034D01*
X0693208Y0156465D02*
X0712982Y0156465D01*
X0712420Y0157251D02*
X0693770Y0157251D01*
X0694064Y0158037D02*
X0712127Y0158037D01*
X0712127Y0158822D02*
X0694064Y0158822D01*
X0693870Y0159608D02*
X0712320Y0159608D01*
X0712741Y0160394D02*
X0693449Y0160394D01*
X0692502Y0161180D02*
X0713688Y0161180D01*
X0716502Y0161180D02*
X0718188Y0161180D01*
X0721002Y0161180D02*
X0727188Y0161180D01*
X0726241Y0160394D02*
X0721949Y0160394D01*
X0722370Y0159608D02*
X0725820Y0159608D01*
X0725627Y0158822D02*
X0722564Y0158822D01*
X0722564Y0158037D02*
X0725627Y0158037D01*
X0725920Y0157251D02*
X0722270Y0157251D01*
X0721708Y0156465D02*
X0726482Y0156465D01*
X0730002Y0161180D02*
X0731688Y0161180D01*
X0723772Y0173755D02*
X0751095Y0173755D01*
X0751095Y0174541D02*
X0724064Y0174541D01*
X0724064Y0175327D02*
X0751095Y0175327D01*
X0751095Y0176113D02*
X0723868Y0176113D01*
X0723445Y0176898D02*
X0751095Y0176898D01*
X0751095Y0177684D02*
X0722492Y0177684D01*
X0723024Y0179050D02*
X0724095Y0180121D01*
X0724095Y0185550D01*
X0723024Y0179050D02*
X0718095Y0179050D01*
X0715595Y0176550D01*
X0715595Y0174550D01*
X0718127Y0174541D02*
X0660064Y0174541D01*
X0660064Y0175327D02*
X0718127Y0175327D01*
X0718322Y0176113D02*
X0659868Y0176113D01*
X0659445Y0176898D02*
X0703239Y0176898D01*
X0705951Y0176898D02*
X0718746Y0176898D01*
X0719698Y0177684D02*
X0706928Y0177684D01*
X0707361Y0178470D02*
X0751095Y0178470D01*
X0751095Y0179256D02*
X0707564Y0179256D01*
X0707564Y0180042D02*
X0751095Y0180042D01*
X0751095Y0180828D02*
X0707279Y0180828D01*
X0706729Y0181614D02*
X0751095Y0181614D01*
X0751095Y0182400D02*
X0705472Y0182400D01*
X0703718Y0182400D02*
X0577472Y0182400D01*
X0568595Y0190259D02*
X0705188Y0190259D01*
X0704505Y0191045D02*
X0568595Y0191045D01*
X0568595Y0191831D02*
X0704180Y0191831D01*
X0706709Y0195760D02*
X0568595Y0195760D01*
X0568595Y0196546D02*
X0706627Y0196546D01*
X0706706Y0197332D02*
X0568595Y0197332D01*
X0568595Y0198118D02*
X0707032Y0198118D01*
X0707751Y0198904D02*
X0568595Y0198904D01*
X0568595Y0205977D02*
X0573534Y0205977D01*
X0573208Y0206763D02*
X0568595Y0206763D01*
X0568595Y0207549D02*
X0573127Y0207549D01*
X0573207Y0208335D02*
X0568595Y0208335D01*
X0568595Y0209121D02*
X0573533Y0209121D01*
X0574254Y0209907D02*
X0568595Y0209907D01*
X0568595Y0210693D02*
X0590237Y0210693D01*
X0590127Y0211479D02*
X0568595Y0211479D01*
X0568595Y0212265D02*
X0590178Y0212265D01*
X0590563Y0209907D02*
X0577936Y0209907D01*
X0578658Y0209121D02*
X0591326Y0209121D01*
X0589095Y0207050D02*
X0595024Y0207050D01*
X0595595Y0206479D01*
X0595595Y0201550D01*
X0589095Y0207050D02*
X0587095Y0209050D01*
X0587095Y0212050D01*
X0587095Y0217050D02*
X0587095Y0219550D01*
X0588595Y0221050D01*
X0594024Y0221050D01*
X0595595Y0222621D01*
X0595595Y0225550D01*
X0595595Y0227550D01*
X0595595Y0231550D01*
X0593595Y0233550D01*
X0591595Y0233550D01*
X0588095Y0233550D01*
X0587095Y0234550D01*
X0587095Y0238050D01*
X0590595Y0233550D02*
X0591595Y0233550D01*
X0593289Y0229555D02*
X0597902Y0229555D01*
X0597387Y0228769D02*
X0593803Y0228769D01*
X0594064Y0227983D02*
X0597127Y0227983D01*
X0597127Y0227197D02*
X0594064Y0227197D01*
X0593836Y0226411D02*
X0597354Y0226411D01*
X0597822Y0225625D02*
X0593368Y0225625D01*
X0592308Y0224839D02*
X0598883Y0224839D01*
X0601308Y0224839D02*
X0603383Y0224839D01*
X0605808Y0224839D02*
X0615108Y0224839D01*
X0615079Y0224868D02*
X0615914Y0224033D01*
X0617005Y0223581D01*
X0618186Y0223581D01*
X0619277Y0224033D01*
X0620112Y0224868D01*
X0620564Y0225960D01*
X0620564Y0227140D01*
X0620112Y0228232D01*
X0619277Y0229067D01*
X0618186Y0229518D01*
X0617005Y0229518D01*
X0615914Y0229067D01*
X0615079Y0228232D01*
X0614627Y0227140D01*
X0614627Y0225960D01*
X0615079Y0224868D01*
X0614765Y0225625D02*
X0606868Y0225625D01*
X0607336Y0226411D02*
X0614627Y0226411D01*
X0614650Y0227197D02*
X0607564Y0227197D01*
X0607564Y0227983D02*
X0614976Y0227983D01*
X0615616Y0228769D02*
X0607303Y0228769D01*
X0606789Y0229555D02*
X0637902Y0229555D01*
X0637387Y0228769D02*
X0619574Y0228769D01*
X0620215Y0227983D02*
X0637127Y0227983D01*
X0637127Y0227197D02*
X0620540Y0227197D01*
X0620564Y0226411D02*
X0637354Y0226411D01*
X0637822Y0225625D02*
X0620425Y0225625D01*
X0620082Y0224839D02*
X0638883Y0224839D01*
X0641308Y0224839D02*
X0649383Y0224839D01*
X0648322Y0225625D02*
X0642368Y0225625D01*
X0642836Y0226411D02*
X0647854Y0226411D01*
X0647627Y0227197D02*
X0643064Y0227197D01*
X0643064Y0227983D02*
X0647627Y0227983D01*
X0647887Y0228769D02*
X0642803Y0228769D01*
X0642289Y0229555D02*
X0648402Y0229555D01*
X0652095Y0233550D02*
X0651095Y0234550D01*
X0651095Y0238050D01*
X0652095Y0233550D02*
X0657595Y0233550D01*
X0659595Y0231550D01*
X0659595Y0227550D01*
X0659595Y0225550D01*
X0657095Y0223050D01*
X0654095Y0223050D01*
X0651095Y0220050D01*
X0651095Y0217050D01*
X0651095Y0212050D02*
X0651095Y0205050D01*
X0654595Y0201550D01*
X0659595Y0201550D01*
X0663095Y0202550D01*
X0662883Y0224839D02*
X0656308Y0224839D01*
X0657368Y0225625D02*
X0661822Y0225625D01*
X0661354Y0226411D02*
X0657836Y0226411D01*
X0658064Y0227197D02*
X0661127Y0227197D01*
X0661127Y0227983D02*
X0658064Y0227983D01*
X0657803Y0228769D02*
X0661387Y0228769D01*
X0661902Y0229555D02*
X0657289Y0229555D01*
X0653883Y0224839D02*
X0651808Y0224839D01*
X0665308Y0224839D02*
X0667383Y0224839D01*
X0669808Y0224839D02*
X0678676Y0224839D01*
X0678627Y0224960D02*
X0679079Y0223868D01*
X0679914Y0223033D01*
X0681005Y0222581D01*
X0682186Y0222581D01*
X0683277Y0223033D01*
X0684112Y0223868D01*
X0684564Y0224960D01*
X0684564Y0226140D01*
X0684112Y0227232D01*
X0683277Y0228067D01*
X0682186Y0228518D01*
X0681005Y0228518D01*
X0679914Y0228067D01*
X0679079Y0227232D01*
X0678627Y0226140D01*
X0678627Y0224960D01*
X0678627Y0225625D02*
X0670868Y0225625D01*
X0671336Y0226411D02*
X0678739Y0226411D01*
X0679064Y0227197D02*
X0671564Y0227197D01*
X0671564Y0227983D02*
X0679830Y0227983D01*
X0683360Y0227983D02*
X0690330Y0227983D01*
X0689564Y0227197D02*
X0684126Y0227197D01*
X0684452Y0226411D02*
X0689239Y0226411D01*
X0689127Y0225625D02*
X0684564Y0225625D01*
X0684514Y0224839D02*
X0689176Y0224839D01*
X0689502Y0224053D02*
X0684188Y0224053D01*
X0683511Y0223267D02*
X0690180Y0223267D01*
X0695014Y0224839D02*
X0713383Y0224839D01*
X0712322Y0225625D02*
X0695064Y0225625D01*
X0694952Y0226411D02*
X0711854Y0226411D01*
X0711627Y0227197D02*
X0694626Y0227197D01*
X0693860Y0227983D02*
X0711627Y0227983D01*
X0711887Y0228769D02*
X0671303Y0228769D01*
X0670789Y0229555D02*
X0712402Y0229555D01*
X0716095Y0233550D02*
X0718595Y0233550D01*
X0721595Y0233550D01*
X0723595Y0231550D01*
X0723595Y0227550D01*
X0723595Y0225550D01*
X0721095Y0223050D01*
X0717883Y0224839D02*
X0715808Y0224839D01*
X0724139Y0220124D02*
X0751095Y0220124D01*
X0751095Y0219338D02*
X0725005Y0219338D01*
X0725393Y0218552D02*
X0751095Y0218552D01*
X0751095Y0217766D02*
X0725564Y0217766D01*
X0725564Y0216980D02*
X0751095Y0216980D01*
X0751095Y0224053D02*
X0747796Y0224053D01*
X0748307Y0224839D02*
X0751095Y0224839D01*
X0751095Y0225625D02*
X0748564Y0225625D01*
X0748564Y0226411D02*
X0751095Y0226411D01*
X0751095Y0227197D02*
X0748333Y0227197D01*
X0747860Y0227983D02*
X0751095Y0227983D01*
X0751095Y0231912D02*
X0568595Y0231912D01*
X0568595Y0232698D02*
X0751095Y0232698D01*
X0751095Y0233484D02*
X0568595Y0233484D01*
X0568595Y0234270D02*
X0751095Y0234270D01*
X0751095Y0235056D02*
X0568595Y0235056D01*
X0568595Y0235842D02*
X0751095Y0235842D01*
X0751095Y0236628D02*
X0568595Y0236628D01*
X0571928Y0242915D02*
X0632262Y0242915D01*
X0635928Y0242915D02*
X0696262Y0242915D01*
X0697238Y0243701D02*
X0568595Y0243701D01*
X0568595Y0244487D02*
X0751095Y0244487D01*
X0751095Y0245273D02*
X0568595Y0245273D01*
X0568595Y0246059D02*
X0751095Y0246059D01*
X0751095Y0246845D02*
X0568595Y0246845D01*
X0568595Y0247631D02*
X0751095Y0247631D01*
X0751095Y0248417D02*
X0568595Y0248417D01*
X0568595Y0249202D02*
X0751095Y0249202D01*
X0751095Y0249988D02*
X0568595Y0249988D01*
X0568595Y0250774D02*
X0751095Y0250774D01*
X0751095Y0251560D02*
X0568595Y0251560D01*
X0568595Y0252346D02*
X0584601Y0252346D01*
X0584914Y0252033D02*
X0586005Y0251581D01*
X0587186Y0251581D01*
X0588277Y0252033D01*
X0588845Y0252602D01*
X0589414Y0252033D01*
X0590505Y0251581D01*
X0591686Y0251581D01*
X0592777Y0252033D01*
X0593612Y0252868D01*
X0594064Y0253960D01*
X0594064Y0255140D01*
X0593612Y0256232D01*
X0592777Y0257067D01*
X0591686Y0257518D01*
X0590505Y0257518D01*
X0589414Y0257067D01*
X0588845Y0256498D01*
X0588277Y0257067D01*
X0587186Y0257518D01*
X0586005Y0257518D01*
X0584914Y0257067D01*
X0584079Y0256232D01*
X0583627Y0255140D01*
X0583627Y0253960D01*
X0584079Y0252868D01*
X0584914Y0252033D01*
X0583969Y0253132D02*
X0568595Y0253132D01*
X0568595Y0253918D02*
X0583644Y0253918D01*
X0583627Y0254704D02*
X0568595Y0254704D01*
X0568595Y0255490D02*
X0583771Y0255490D01*
X0584123Y0256276D02*
X0568595Y0256276D01*
X0568595Y0257062D02*
X0584909Y0257062D01*
X0588282Y0257062D02*
X0589409Y0257062D01*
X0592782Y0257062D02*
X0598409Y0257062D01*
X0598414Y0257067D02*
X0597579Y0256232D01*
X0597127Y0255140D01*
X0597127Y0253960D01*
X0597579Y0252868D01*
X0598414Y0252033D01*
X0599505Y0251581D01*
X0600686Y0251581D01*
X0601777Y0252033D01*
X0602345Y0252602D01*
X0602914Y0252033D01*
X0604005Y0251581D01*
X0605186Y0251581D01*
X0606277Y0252033D01*
X0607112Y0252868D01*
X0607564Y0253960D01*
X0607564Y0255140D01*
X0607112Y0256232D01*
X0606277Y0257067D01*
X0605186Y0257518D01*
X0604005Y0257518D01*
X0602914Y0257067D01*
X0602345Y0256498D01*
X0601777Y0257067D01*
X0600686Y0257518D01*
X0599505Y0257518D01*
X0598414Y0257067D01*
X0597623Y0256276D02*
X0593568Y0256276D01*
X0593919Y0255490D02*
X0597271Y0255490D01*
X0597127Y0254704D02*
X0594064Y0254704D01*
X0594046Y0253918D02*
X0597144Y0253918D01*
X0597469Y0253132D02*
X0593721Y0253132D01*
X0593089Y0252346D02*
X0598101Y0252346D01*
X0595595Y0250550D02*
X0595595Y0254550D01*
X0595595Y0259979D01*
X0594524Y0261050D01*
X0589095Y0261050D01*
X0587095Y0263050D01*
X0587095Y0266050D01*
X0601782Y0257062D02*
X0602909Y0257062D01*
X0606282Y0257062D02*
X0617127Y0257062D01*
X0617127Y0256960D02*
X0617579Y0255868D01*
X0618414Y0255033D01*
X0619505Y0254581D01*
X0620686Y0254581D01*
X0621777Y0255033D01*
X0622612Y0255868D01*
X0623064Y0256960D01*
X0623064Y0258140D01*
X0622612Y0259232D01*
X0621777Y0260067D01*
X0620686Y0260518D01*
X0619505Y0260518D01*
X0618414Y0260067D01*
X0617579Y0259232D01*
X0617127Y0258140D01*
X0617127Y0256960D01*
X0617410Y0256276D02*
X0607068Y0256276D01*
X0607419Y0255490D02*
X0617957Y0255490D01*
X0619209Y0254704D02*
X0607564Y0254704D01*
X0607546Y0253918D02*
X0623644Y0253918D01*
X0623627Y0253960D02*
X0624079Y0252868D01*
X0624914Y0252033D01*
X0626005Y0251581D01*
X0627186Y0251581D01*
X0628277Y0252033D01*
X0629112Y0252868D01*
X0629564Y0253960D01*
X0629564Y0255140D01*
X0629112Y0256232D01*
X0628277Y0257067D01*
X0627186Y0257518D01*
X0626005Y0257518D01*
X0624914Y0257067D01*
X0624079Y0256232D01*
X0623627Y0255140D01*
X0623627Y0253960D01*
X0623627Y0254704D02*
X0620981Y0254704D01*
X0622233Y0255490D02*
X0623771Y0255490D01*
X0624123Y0256276D02*
X0622780Y0256276D01*
X0623064Y0257062D02*
X0624909Y0257062D01*
X0623064Y0257848D02*
X0681127Y0257848D01*
X0681127Y0257062D02*
X0670282Y0257062D01*
X0670277Y0257067D02*
X0669186Y0257518D01*
X0668005Y0257518D01*
X0666914Y0257067D01*
X0666345Y0256498D01*
X0665777Y0257067D01*
X0664686Y0257518D01*
X0663505Y0257518D01*
X0662414Y0257067D01*
X0661579Y0256232D01*
X0661127Y0255140D01*
X0661127Y0253960D01*
X0661579Y0252868D01*
X0662414Y0252033D01*
X0663505Y0251581D01*
X0664686Y0251581D01*
X0665777Y0252033D01*
X0666345Y0252602D01*
X0666914Y0252033D01*
X0668005Y0251581D01*
X0669186Y0251581D01*
X0670277Y0252033D01*
X0671112Y0252868D01*
X0671564Y0253960D01*
X0671564Y0255140D01*
X0671112Y0256232D01*
X0670277Y0257067D01*
X0671068Y0256276D02*
X0681410Y0256276D01*
X0681957Y0255490D02*
X0671419Y0255490D01*
X0671564Y0254704D02*
X0683209Y0254704D01*
X0684981Y0254704D02*
X0711627Y0254704D01*
X0711627Y0255140D02*
X0711627Y0253960D01*
X0712079Y0252868D01*
X0712914Y0252033D01*
X0714005Y0251581D01*
X0715186Y0251581D01*
X0716277Y0252033D01*
X0716845Y0252602D01*
X0717414Y0252033D01*
X0718505Y0251581D01*
X0719686Y0251581D01*
X0720777Y0252033D01*
X0721612Y0252868D01*
X0722064Y0253960D01*
X0722064Y0255140D01*
X0721612Y0256232D01*
X0720777Y0257067D01*
X0719686Y0257518D01*
X0718505Y0257518D01*
X0717414Y0257067D01*
X0716845Y0256498D01*
X0716277Y0257067D01*
X0715186Y0257518D01*
X0714005Y0257518D01*
X0712914Y0257067D01*
X0712079Y0256232D01*
X0711627Y0255140D01*
X0711771Y0255490D02*
X0686233Y0255490D01*
X0686780Y0256276D02*
X0712123Y0256276D01*
X0712909Y0257062D02*
X0687064Y0257062D01*
X0682748Y0260205D02*
X0621442Y0260205D01*
X0622424Y0259419D02*
X0681766Y0259419D01*
X0681331Y0258633D02*
X0622859Y0258633D01*
X0618748Y0260205D02*
X0568595Y0260205D01*
X0568595Y0259419D02*
X0617766Y0259419D01*
X0617331Y0258633D02*
X0568595Y0258633D01*
X0568595Y0257848D02*
X0617127Y0257848D01*
X0628282Y0257062D02*
X0648909Y0257062D01*
X0648914Y0257067D02*
X0648079Y0256232D01*
X0647627Y0255140D01*
X0647627Y0253960D01*
X0648079Y0252868D01*
X0648914Y0252033D01*
X0650005Y0251581D01*
X0651186Y0251581D01*
X0652277Y0252033D01*
X0652845Y0252602D01*
X0653414Y0252033D01*
X0654505Y0251581D01*
X0655686Y0251581D01*
X0656777Y0252033D01*
X0657612Y0252868D01*
X0658064Y0253960D01*
X0658064Y0255140D01*
X0657612Y0256232D01*
X0656777Y0257067D01*
X0655686Y0257518D01*
X0654505Y0257518D01*
X0653414Y0257067D01*
X0652845Y0256498D01*
X0652277Y0257067D01*
X0651186Y0257518D01*
X0650005Y0257518D01*
X0648914Y0257067D01*
X0648123Y0256276D02*
X0629068Y0256276D01*
X0629419Y0255490D02*
X0647771Y0255490D01*
X0647627Y0254704D02*
X0629564Y0254704D01*
X0629546Y0253918D02*
X0647644Y0253918D01*
X0647969Y0253132D02*
X0629221Y0253132D01*
X0628589Y0252346D02*
X0648601Y0252346D01*
X0652589Y0252346D02*
X0653101Y0252346D01*
X0653595Y0248550D02*
X0657595Y0248550D01*
X0659595Y0250550D01*
X0659595Y0254550D01*
X0659595Y0259979D01*
X0659024Y0260550D01*
X0654095Y0260550D01*
X0650595Y0264050D01*
X0650595Y0266050D01*
X0650595Y0271050D02*
X0650595Y0272050D01*
X0653595Y0275050D01*
X0658524Y0275050D01*
X0659595Y0276121D01*
X0659595Y0281550D01*
X0654064Y0280639D02*
X0751095Y0280639D01*
X0751095Y0281425D02*
X0653739Y0281425D01*
X0653132Y0282211D02*
X0707736Y0282211D01*
X0711454Y0282211D02*
X0751095Y0282211D01*
X0751095Y0282997D02*
X0712165Y0282997D01*
X0712490Y0283783D02*
X0751095Y0283783D01*
X0751095Y0284569D02*
X0712564Y0284569D01*
X0712475Y0285354D02*
X0751095Y0285354D01*
X0751095Y0286140D02*
X0712149Y0286140D01*
X0711417Y0286926D02*
X0751095Y0286926D01*
X0751095Y0279853D02*
X0654064Y0279853D01*
X0653901Y0279067D02*
X0751095Y0279067D01*
X0751095Y0278281D02*
X0653524Y0278281D01*
X0697595Y0269550D02*
X0698595Y0270550D01*
X0715095Y0270550D01*
X0715095Y0272050D01*
X0717595Y0274550D01*
X0722024Y0274550D01*
X0723595Y0276121D01*
X0723595Y0281550D01*
X0706946Y0275923D02*
X0751095Y0275923D01*
X0751095Y0275138D02*
X0707064Y0275138D01*
X0707019Y0274352D02*
X0751095Y0274352D01*
X0751095Y0273566D02*
X0722277Y0273566D01*
X0723063Y0272780D02*
X0751095Y0272780D01*
X0751095Y0271994D02*
X0723417Y0271994D01*
X0723564Y0271208D02*
X0751095Y0271208D01*
X0751095Y0270422D02*
X0723548Y0270422D01*
X0718913Y0273566D02*
X0706693Y0273566D01*
X0706621Y0276709D02*
X0751095Y0276709D01*
X0751095Y0277495D02*
X0705848Y0277495D01*
X0715095Y0265550D02*
X0715095Y0262550D01*
X0716595Y0261050D01*
X0722524Y0261050D01*
X0723595Y0259979D01*
X0723595Y0254550D01*
X0723595Y0251550D01*
X0722595Y0250550D01*
X0718595Y0250550D01*
X0715095Y0247050D01*
X0715095Y0243550D01*
X0715095Y0238550D02*
X0715095Y0234550D01*
X0716095Y0233550D01*
X0729115Y0230341D02*
X0731575Y0230341D01*
X0730402Y0229555D02*
X0730289Y0229555D01*
X0729308Y0224839D02*
X0731383Y0224839D01*
X0722524Y0207550D02*
X0718595Y0207550D01*
X0722524Y0207550D02*
X0723595Y0206479D01*
X0723595Y0201550D01*
X0718715Y0198118D02*
X0741538Y0198118D01*
X0740679Y0197332D02*
X0718075Y0197332D01*
X0734788Y0191045D02*
X0751095Y0191045D01*
X0751095Y0191831D02*
X0735574Y0191831D01*
X0759432Y0194189D02*
X0759536Y0194189D01*
X0759439Y0198904D02*
X0760095Y0198904D01*
X0718419Y0173755D02*
X0659772Y0173755D01*
X0654419Y0173755D02*
X0595772Y0173755D01*
X0596064Y0174541D02*
X0654127Y0174541D01*
X0654127Y0175327D02*
X0596064Y0175327D01*
X0595868Y0176113D02*
X0639930Y0176113D01*
X0641261Y0176113D02*
X0654322Y0176113D01*
X0654746Y0176898D02*
X0642642Y0176898D01*
X0643243Y0177684D02*
X0655698Y0177684D01*
X0638549Y0176898D02*
X0595445Y0176898D01*
X0594492Y0177684D02*
X0637948Y0177684D01*
X0622805Y0163538D02*
X0682385Y0163538D01*
X0681880Y0162752D02*
X0623310Y0162752D01*
X0623564Y0161966D02*
X0681627Y0161966D01*
X0681627Y0161180D02*
X0670502Y0161180D01*
X0671449Y0160394D02*
X0681861Y0160394D01*
X0682339Y0159608D02*
X0671870Y0159608D01*
X0672064Y0158822D02*
X0683423Y0158822D01*
X0685767Y0158822D02*
X0688127Y0158822D01*
X0688127Y0158037D02*
X0672064Y0158037D01*
X0671770Y0157251D02*
X0688420Y0157251D01*
X0688982Y0156465D02*
X0671208Y0156465D01*
X0667688Y0161180D02*
X0666002Y0161180D01*
X0660095Y0154550D02*
X0658595Y0153050D01*
X0654095Y0153050D01*
X0651595Y0150550D01*
X0651595Y0147550D01*
X0651595Y0142550D02*
X0651595Y0141050D01*
X0653595Y0139050D01*
X0657524Y0139050D01*
X0660095Y0136479D01*
X0660095Y0131550D01*
X0660095Y0126621D01*
X0659524Y0126050D01*
X0654095Y0126050D01*
X0651595Y0123550D01*
X0651595Y0121050D01*
X0656127Y0121099D02*
X0598064Y0121099D01*
X0598064Y0121885D02*
X0656127Y0121885D01*
X0656346Y0122670D02*
X0597844Y0122670D01*
X0597387Y0123456D02*
X0656803Y0123456D01*
X0657838Y0124242D02*
X0596352Y0124242D01*
X0593838Y0124242D02*
X0568595Y0124242D01*
X0568595Y0123456D02*
X0592803Y0123456D01*
X0592346Y0122670D02*
X0568595Y0122670D01*
X0568595Y0121885D02*
X0592127Y0121885D01*
X0592127Y0121099D02*
X0568595Y0121099D01*
X0570095Y0122050D02*
X0586595Y0122050D01*
X0587595Y0121050D01*
X0587595Y0123050D01*
X0590595Y0126050D01*
X0593094Y0128958D02*
X0599096Y0128958D01*
X0598203Y0129744D02*
X0593987Y0129744D01*
X0594386Y0130530D02*
X0597805Y0130530D01*
X0597627Y0131316D02*
X0594564Y0131316D01*
X0594564Y0132101D02*
X0597627Y0132101D01*
X0597936Y0132887D02*
X0594254Y0132887D01*
X0593670Y0133673D02*
X0598520Y0133673D01*
X0596095Y0132050D02*
X0596095Y0131550D01*
X0602094Y0128958D02*
X0603596Y0128958D01*
X0606594Y0128958D02*
X0615542Y0128958D01*
X0615579Y0128868D02*
X0616414Y0128033D01*
X0617505Y0127581D01*
X0618686Y0127581D01*
X0619777Y0128033D01*
X0620612Y0128868D01*
X0621064Y0129960D01*
X0621064Y0131140D01*
X0620612Y0132232D01*
X0619777Y0133067D01*
X0618686Y0133518D01*
X0617505Y0133518D01*
X0616414Y0133067D01*
X0615579Y0132232D01*
X0615127Y0131140D01*
X0615127Y0129960D01*
X0615579Y0128868D01*
X0615216Y0129744D02*
X0607487Y0129744D01*
X0607886Y0130530D02*
X0615127Y0130530D01*
X0615199Y0131316D02*
X0608064Y0131316D01*
X0608064Y0132101D02*
X0615525Y0132101D01*
X0616234Y0132887D02*
X0607754Y0132887D01*
X0607170Y0133673D02*
X0649020Y0133673D01*
X0648436Y0132887D02*
X0619956Y0132887D01*
X0620666Y0132101D02*
X0648127Y0132101D01*
X0648127Y0131316D02*
X0620991Y0131316D01*
X0621064Y0130530D02*
X0648305Y0130530D01*
X0648703Y0129744D02*
X0628100Y0129744D01*
X0624091Y0129744D02*
X0620974Y0129744D01*
X0620649Y0128958D02*
X0623465Y0128958D01*
X0623140Y0128172D02*
X0619915Y0128172D01*
X0623127Y0127386D02*
X0568595Y0127386D01*
X0568595Y0128172D02*
X0616275Y0128172D01*
X0623276Y0126600D02*
X0568595Y0126600D01*
X0568595Y0125814D02*
X0623633Y0125814D01*
X0624426Y0125028D02*
X0568595Y0125028D01*
X0570595Y0121099D02*
X0561095Y0121099D01*
X0561095Y0120313D02*
X0565595Y0120313D01*
X0565595Y0119527D02*
X0561095Y0119527D01*
X0561095Y0118741D02*
X0565595Y0118741D01*
X0565595Y0117955D02*
X0561095Y0117955D01*
X0561095Y0117169D02*
X0565595Y0117169D01*
X0565595Y0116383D02*
X0561095Y0116383D01*
X0561095Y0115597D02*
X0565595Y0115597D01*
X0565595Y0114811D02*
X0561095Y0114811D01*
X0561095Y0114025D02*
X0565595Y0114025D01*
X0565595Y0113240D02*
X0561095Y0113240D01*
X0561095Y0112454D02*
X0565595Y0112454D01*
X0565595Y0111668D02*
X0561095Y0111668D01*
X0561095Y0110882D02*
X0565595Y0110882D01*
X0565595Y0110096D02*
X0561095Y0110096D01*
X0561095Y0109310D02*
X0565595Y0109310D01*
X0565595Y0108524D02*
X0561095Y0108524D01*
X0561095Y0107738D02*
X0565595Y0107738D01*
X0565595Y0106952D02*
X0561095Y0106952D01*
X0561095Y0106166D02*
X0565595Y0106166D01*
X0565595Y0105380D02*
X0561095Y0105380D01*
X0561095Y0104594D02*
X0565595Y0104594D01*
X0565595Y0103809D02*
X0561095Y0103809D01*
X0561095Y0103023D02*
X0565595Y0103023D01*
X0565595Y0102237D02*
X0561095Y0102237D01*
X0561095Y0101451D02*
X0565595Y0101451D01*
X0565595Y0100665D02*
X0561095Y0100665D01*
X0561095Y0099879D02*
X0565595Y0099879D01*
X0565595Y0099093D02*
X0561095Y0099093D01*
X0561095Y0098307D02*
X0565595Y0098307D01*
X0565595Y0097521D02*
X0561095Y0097521D01*
X0561095Y0096735D02*
X0565595Y0096735D01*
X0561095Y0095949D02*
X0570595Y0095949D01*
X0570595Y0095164D02*
X0561095Y0095164D01*
X0561095Y0094378D02*
X0570595Y0094378D01*
X0570595Y0093592D02*
X0561095Y0093592D01*
X0561095Y0092806D02*
X0570595Y0092806D01*
X0570595Y0092020D02*
X0561095Y0092020D01*
X0561095Y0091234D02*
X0570595Y0091234D01*
X0570595Y0090448D02*
X0561095Y0090448D01*
X0568595Y0090448D02*
X0577127Y0090448D01*
X0577127Y0089662D02*
X0568595Y0089662D01*
X0568595Y0088876D02*
X0577368Y0088876D01*
X0577857Y0088090D02*
X0568595Y0088090D01*
X0568595Y0085733D02*
X0574580Y0085733D01*
X0574914Y0086067D02*
X0574079Y0085232D01*
X0573627Y0084140D01*
X0573627Y0082960D01*
X0574079Y0081868D01*
X0574914Y0081033D01*
X0576005Y0080581D01*
X0577186Y0080581D01*
X0578277Y0081033D01*
X0579112Y0081868D01*
X0579564Y0082960D01*
X0579564Y0084140D01*
X0579112Y0085232D01*
X0578277Y0086067D01*
X0577186Y0086518D01*
X0576005Y0086518D01*
X0574914Y0086067D01*
X0573961Y0084947D02*
X0568595Y0084947D01*
X0568595Y0084161D02*
X0573635Y0084161D01*
X0573627Y0083375D02*
X0568595Y0083375D01*
X0568595Y0082589D02*
X0573780Y0082589D01*
X0574144Y0081803D02*
X0568595Y0081803D01*
X0568595Y0081017D02*
X0574953Y0081017D01*
X0578237Y0081017D02*
X0590864Y0081017D01*
X0590371Y0080231D02*
X0568595Y0080231D01*
X0568595Y0079445D02*
X0590127Y0079445D01*
X0590127Y0078659D02*
X0568595Y0078659D01*
X0568595Y0073944D02*
X0596252Y0073944D01*
X0596127Y0073158D02*
X0568595Y0073158D01*
X0568595Y0072372D02*
X0596163Y0072372D01*
X0596488Y0071586D02*
X0568595Y0071586D01*
X0568595Y0070800D02*
X0597147Y0070800D01*
X0601043Y0070800D02*
X0661147Y0070800D01*
X0660488Y0071586D02*
X0601702Y0071586D01*
X0602027Y0072372D02*
X0660163Y0072372D01*
X0660127Y0073158D02*
X0602064Y0073158D01*
X0601938Y0073944D02*
X0660252Y0073944D01*
X0657095Y0073550D02*
X0660095Y0070550D01*
X0660095Y0062550D01*
X0658564Y0062941D02*
X0661627Y0062941D01*
X0661627Y0063140D02*
X0661627Y0061960D01*
X0662079Y0060868D01*
X0662914Y0060033D01*
X0664005Y0059581D01*
X0665186Y0059581D01*
X0666277Y0060033D01*
X0666845Y0060602D01*
X0667414Y0060033D01*
X0668505Y0059581D01*
X0669686Y0059581D01*
X0670777Y0060033D01*
X0671612Y0060868D01*
X0672064Y0061960D01*
X0672064Y0063140D01*
X0671612Y0064232D01*
X0670777Y0065067D01*
X0669686Y0065518D01*
X0668505Y0065518D01*
X0667414Y0065067D01*
X0666845Y0064498D01*
X0666277Y0065067D01*
X0665186Y0065518D01*
X0664005Y0065518D01*
X0662914Y0065067D01*
X0662079Y0064232D01*
X0661627Y0063140D01*
X0661870Y0063727D02*
X0658321Y0063727D01*
X0658112Y0064232D02*
X0657277Y0065067D01*
X0656186Y0065518D01*
X0655005Y0065518D01*
X0653914Y0065067D01*
X0653345Y0064498D01*
X0652777Y0065067D01*
X0651686Y0065518D01*
X0650505Y0065518D01*
X0649414Y0065067D01*
X0648579Y0064232D01*
X0648127Y0063140D01*
X0648127Y0061960D01*
X0648579Y0060868D01*
X0649414Y0060033D01*
X0650505Y0059581D01*
X0651686Y0059581D01*
X0652777Y0060033D01*
X0653345Y0060602D01*
X0653914Y0060033D01*
X0655005Y0059581D01*
X0656186Y0059581D01*
X0657277Y0060033D01*
X0658112Y0060868D01*
X0658564Y0061960D01*
X0658564Y0063140D01*
X0658112Y0064232D01*
X0657830Y0064513D02*
X0662360Y0064513D01*
X0663474Y0065299D02*
X0656716Y0065299D01*
X0654474Y0065299D02*
X0652216Y0065299D01*
X0653330Y0064513D02*
X0653360Y0064513D01*
X0649974Y0065299D02*
X0623564Y0065299D01*
X0623564Y0064960D02*
X0623112Y0063868D01*
X0622277Y0063033D01*
X0621186Y0062581D01*
X0620005Y0062581D01*
X0618914Y0063033D01*
X0618079Y0063868D01*
X0617627Y0064960D01*
X0617627Y0066140D01*
X0618079Y0067232D01*
X0618914Y0068067D01*
X0620005Y0068518D01*
X0621186Y0068518D01*
X0622277Y0068067D01*
X0623112Y0067232D01*
X0623564Y0066140D01*
X0623564Y0064960D01*
X0623379Y0064513D02*
X0648860Y0064513D01*
X0648370Y0063727D02*
X0622970Y0063727D01*
X0622054Y0062941D02*
X0648127Y0062941D01*
X0648127Y0062155D02*
X0608064Y0062155D01*
X0608064Y0061960D02*
X0607612Y0060868D01*
X0606777Y0060033D01*
X0605686Y0059581D01*
X0604505Y0059581D01*
X0603414Y0060033D01*
X0602845Y0060602D01*
X0602277Y0060033D01*
X0601186Y0059581D01*
X0600005Y0059581D01*
X0598914Y0060033D01*
X0598079Y0060868D01*
X0597627Y0061960D01*
X0597627Y0063140D01*
X0598079Y0064232D01*
X0598914Y0065067D01*
X0600005Y0065518D01*
X0601186Y0065518D01*
X0602277Y0065067D01*
X0602845Y0064498D01*
X0603414Y0065067D01*
X0604505Y0065518D01*
X0605686Y0065518D01*
X0606777Y0065067D01*
X0607612Y0064232D01*
X0608064Y0063140D01*
X0608064Y0061960D01*
X0607819Y0061369D02*
X0648371Y0061369D01*
X0648864Y0060583D02*
X0607327Y0060583D01*
X0606207Y0059797D02*
X0649983Y0059797D01*
X0652207Y0059797D02*
X0654483Y0059797D01*
X0653364Y0060583D02*
X0653327Y0060583D01*
X0656707Y0059797D02*
X0663483Y0059797D01*
X0662364Y0060583D02*
X0657827Y0060583D01*
X0658319Y0061369D02*
X0661871Y0061369D01*
X0661627Y0062155D02*
X0658564Y0062155D01*
X0665707Y0059797D02*
X0667983Y0059797D01*
X0666864Y0060583D02*
X0666827Y0060583D01*
X0670207Y0059797D02*
X0751095Y0059797D01*
X0751095Y0059012D02*
X0568595Y0059012D01*
X0568595Y0059797D02*
X0585983Y0059797D01*
X0586505Y0059581D02*
X0587686Y0059581D01*
X0588777Y0060033D01*
X0589345Y0060602D01*
X0589914Y0060033D01*
X0591005Y0059581D01*
X0592186Y0059581D01*
X0593277Y0060033D01*
X0594112Y0060868D01*
X0594564Y0061960D01*
X0594564Y0063140D01*
X0594112Y0064232D01*
X0593277Y0065067D01*
X0592186Y0065518D01*
X0591005Y0065518D01*
X0589914Y0065067D01*
X0589345Y0064498D01*
X0588777Y0065067D01*
X0587686Y0065518D01*
X0586505Y0065518D01*
X0585414Y0065067D01*
X0584579Y0064232D01*
X0584127Y0063140D01*
X0584127Y0061960D01*
X0584579Y0060868D01*
X0585414Y0060033D01*
X0586505Y0059581D01*
X0588207Y0059797D02*
X0590483Y0059797D01*
X0589364Y0060583D02*
X0589327Y0060583D01*
X0592707Y0059797D02*
X0599483Y0059797D01*
X0598364Y0060583D02*
X0593827Y0060583D01*
X0594319Y0061369D02*
X0597871Y0061369D01*
X0597627Y0062155D02*
X0594564Y0062155D01*
X0594564Y0062941D02*
X0597627Y0062941D01*
X0597870Y0063727D02*
X0594321Y0063727D01*
X0593830Y0064513D02*
X0598360Y0064513D01*
X0599474Y0065299D02*
X0592716Y0065299D01*
X0590474Y0065299D02*
X0588216Y0065299D01*
X0589330Y0064513D02*
X0589360Y0064513D01*
X0585974Y0065299D02*
X0568595Y0065299D01*
X0568595Y0066085D02*
X0617627Y0066085D01*
X0617627Y0065299D02*
X0606216Y0065299D01*
X0607330Y0064513D02*
X0617812Y0064513D01*
X0618220Y0063727D02*
X0607821Y0063727D01*
X0608064Y0062941D02*
X0619136Y0062941D01*
X0617929Y0066871D02*
X0568595Y0066871D01*
X0568595Y0067657D02*
X0618504Y0067657D01*
X0619821Y0068442D02*
X0568595Y0068442D01*
X0568595Y0069228D02*
X0751095Y0069228D01*
X0751095Y0068442D02*
X0685369Y0068442D01*
X0685186Y0068518D02*
X0684005Y0068518D01*
X0682914Y0068067D01*
X0682079Y0067232D01*
X0681627Y0066140D01*
X0681627Y0064960D01*
X0682079Y0063868D01*
X0682914Y0063033D01*
X0684005Y0062581D01*
X0685186Y0062581D01*
X0686277Y0063033D01*
X0687112Y0063868D01*
X0687564Y0064960D01*
X0687564Y0066140D01*
X0687112Y0067232D01*
X0686277Y0068067D01*
X0685186Y0068518D01*
X0683821Y0068442D02*
X0621369Y0068442D01*
X0622687Y0067657D02*
X0682504Y0067657D01*
X0681929Y0066871D02*
X0623261Y0066871D01*
X0623564Y0066085D02*
X0681627Y0066085D01*
X0681627Y0065299D02*
X0670216Y0065299D01*
X0671330Y0064513D02*
X0681812Y0064513D01*
X0682220Y0063727D02*
X0671821Y0063727D01*
X0672064Y0062941D02*
X0683136Y0062941D01*
X0686054Y0062941D02*
X0751095Y0062941D01*
X0751095Y0062155D02*
X0672064Y0062155D01*
X0671819Y0061369D02*
X0751095Y0061369D01*
X0751095Y0060583D02*
X0671327Y0060583D01*
X0675095Y0058550D02*
X0675095Y0058050D01*
X0667974Y0065299D02*
X0665716Y0065299D01*
X0666830Y0064513D02*
X0666860Y0064513D01*
X0665043Y0070800D02*
X0751095Y0070800D01*
X0751095Y0070014D02*
X0568595Y0070014D01*
X0568595Y0064513D02*
X0584860Y0064513D01*
X0584370Y0063727D02*
X0568595Y0063727D01*
X0568595Y0062941D02*
X0584127Y0062941D01*
X0584127Y0062155D02*
X0568595Y0062155D01*
X0568595Y0061369D02*
X0584371Y0061369D01*
X0584864Y0060583D02*
X0568595Y0060583D01*
X0568595Y0058226D02*
X0751095Y0058226D01*
X0751095Y0057440D02*
X0568595Y0057440D01*
X0568595Y0056654D02*
X0751095Y0056654D01*
X0751095Y0055868D02*
X0568595Y0055868D01*
X0568595Y0055082D02*
X0751095Y0055082D01*
X0751095Y0063727D02*
X0686970Y0063727D01*
X0687379Y0064513D02*
X0751095Y0064513D01*
X0751095Y0065299D02*
X0687564Y0065299D01*
X0687564Y0066085D02*
X0751095Y0066085D01*
X0751095Y0066871D02*
X0687261Y0066871D01*
X0686687Y0067657D02*
X0751095Y0067657D01*
X0751095Y0071586D02*
X0665702Y0071586D01*
X0666027Y0072372D02*
X0751095Y0072372D01*
X0751095Y0073158D02*
X0666064Y0073158D01*
X0665938Y0073944D02*
X0751095Y0073944D01*
X0751095Y0078659D02*
X0660064Y0078659D01*
X0660064Y0079445D02*
X0751095Y0079445D01*
X0751095Y0080231D02*
X0659819Y0080231D01*
X0659326Y0081017D02*
X0751095Y0081017D01*
X0751095Y0081803D02*
X0658206Y0081803D01*
X0655984Y0081803D02*
X0643292Y0081803D01*
X0643564Y0082589D02*
X0751095Y0082589D01*
X0754595Y0087304D02*
X0754643Y0087304D01*
X0754595Y0092020D02*
X0754867Y0092020D01*
X0660095Y0089550D02*
X0660095Y0086550D01*
X0658095Y0084550D01*
X0656095Y0084550D01*
X0651595Y0080050D01*
X0651595Y0078550D01*
X0654127Y0078659D02*
X0596064Y0078659D01*
X0596064Y0079445D02*
X0654127Y0079445D01*
X0654371Y0080231D02*
X0641547Y0080231D01*
X0642760Y0081017D02*
X0654864Y0081017D01*
X0657095Y0073550D02*
X0651095Y0073550D01*
X0651595Y0073550D01*
X0639643Y0080231D02*
X0595819Y0080231D01*
X0595326Y0081017D02*
X0638430Y0081017D01*
X0637899Y0081803D02*
X0594206Y0081803D01*
X0591984Y0081803D02*
X0579046Y0081803D01*
X0579410Y0082589D02*
X0637627Y0082589D01*
X0637627Y0083375D02*
X0579564Y0083375D01*
X0579555Y0084161D02*
X0637842Y0084161D01*
X0638294Y0084947D02*
X0579230Y0084947D01*
X0578611Y0085733D02*
X0639314Y0085733D01*
X0660095Y0105550D02*
X0660095Y0110479D01*
X0660024Y0110550D01*
X0653095Y0110550D01*
X0651595Y0112050D01*
X0651595Y0116050D01*
X0654627Y0115597D02*
X0596564Y0115597D01*
X0596502Y0114811D02*
X0654688Y0114811D01*
X0655014Y0114025D02*
X0596177Y0114025D01*
X0595483Y0113240D02*
X0638587Y0113240D01*
X0637963Y0112454D02*
X0578934Y0112454D01*
X0579064Y0112140D02*
X0578612Y0113232D01*
X0577777Y0114067D01*
X0576686Y0114518D01*
X0575505Y0114518D01*
X0574414Y0114067D01*
X0573579Y0113232D01*
X0573127Y0112140D01*
X0573127Y0110960D01*
X0573579Y0109868D01*
X0574414Y0109033D01*
X0575505Y0108581D01*
X0576686Y0108581D01*
X0577777Y0109033D01*
X0578612Y0109868D01*
X0579064Y0110960D01*
X0579064Y0112140D01*
X0579064Y0111668D02*
X0637638Y0111668D01*
X0637627Y0110882D02*
X0579031Y0110882D01*
X0578706Y0110096D02*
X0637777Y0110096D01*
X0638137Y0109310D02*
X0578053Y0109310D01*
X0574137Y0109310D02*
X0568595Y0109310D01*
X0568595Y0110096D02*
X0573484Y0110096D01*
X0573159Y0110882D02*
X0568595Y0110882D01*
X0568595Y0111668D02*
X0573127Y0111668D01*
X0573256Y0112454D02*
X0568595Y0112454D01*
X0568595Y0113240D02*
X0573587Y0113240D01*
X0574372Y0114025D02*
X0568595Y0114025D01*
X0568595Y0114811D02*
X0590688Y0114811D01*
X0590627Y0115597D02*
X0568595Y0115597D01*
X0568595Y0116383D02*
X0590727Y0116383D01*
X0591014Y0114025D02*
X0577818Y0114025D01*
X0578604Y0113240D02*
X0591708Y0113240D01*
X0589595Y0111550D02*
X0595024Y0111550D01*
X0596095Y0110479D01*
X0596095Y0105550D01*
X0589595Y0111550D02*
X0587595Y0113550D01*
X0587595Y0116050D01*
X0596463Y0116383D02*
X0654727Y0116383D01*
X0655708Y0113240D02*
X0642604Y0113240D01*
X0638936Y0108524D02*
X0568595Y0108524D01*
X0548595Y0115050D02*
X0548595Y0137550D01*
X0568595Y0154893D02*
X0571253Y0154893D01*
X0570268Y0155679D02*
X0568595Y0155679D01*
X0568595Y0156465D02*
X0569832Y0156465D01*
X0569627Y0157251D02*
X0568595Y0157251D01*
X0568595Y0158037D02*
X0569627Y0158037D01*
X0588502Y0161180D02*
X0590188Y0161180D01*
X0607208Y0156465D02*
X0648982Y0156465D01*
X0648420Y0157251D02*
X0607770Y0157251D01*
X0611095Y0152550D02*
X0611095Y0151550D01*
X0621655Y0164324D02*
X0683535Y0164324D01*
X0687564Y0161180D02*
X0689688Y0161180D01*
X0688741Y0160394D02*
X0687330Y0160394D01*
X0686852Y0159608D02*
X0688320Y0159608D01*
X0660095Y0132050D02*
X0660095Y0131550D01*
X0666094Y0128958D02*
X0667596Y0128958D01*
X0653520Y0133673D02*
X0653170Y0133673D01*
X0603020Y0133673D02*
X0602670Y0133673D01*
X0589520Y0133673D02*
X0589170Y0133673D01*
X0548595Y0115050D02*
X0509095Y0075550D01*
X0498595Y0113050D02*
X0457095Y0071550D01*
X0448595Y0110050D02*
X0406095Y0067550D01*
X0398595Y0110050D02*
X0352095Y0063550D01*
X0348595Y0106250D02*
X0297495Y0060150D01*
X0348595Y0106250D02*
X0348595Y0137550D01*
X0398595Y0137550D02*
X0398595Y0110050D01*
X0448595Y0110050D02*
X0448595Y0137550D01*
X0498595Y0137550D02*
X0498595Y0113050D01*
X0568595Y0092806D02*
X0578991Y0092806D01*
X0577867Y0092020D02*
X0568595Y0092020D01*
X0568595Y0091234D02*
X0577372Y0091234D01*
X0601716Y0065299D02*
X0603974Y0065299D01*
X0602860Y0064513D02*
X0602830Y0064513D01*
X0602827Y0060583D02*
X0602864Y0060583D01*
X0603983Y0059797D02*
X0601707Y0059797D01*
X0572680Y0046437D02*
X0633010Y0046437D01*
X0603139Y0037792D02*
X0602551Y0037792D01*
X0596095Y0038550D02*
X0589095Y0038550D01*
X0569837Y0045651D02*
X0561095Y0045651D01*
X0561095Y0046437D02*
X0565595Y0046437D01*
X0565595Y0047223D02*
X0561095Y0047223D01*
X0561095Y0048009D02*
X0565595Y0048009D01*
X0562152Y0048795D02*
X0561095Y0048795D01*
X0561095Y0049581D02*
X0561491Y0049581D01*
X0561165Y0050366D02*
X0561095Y0050366D01*
X0561095Y0051152D02*
X0561127Y0051152D01*
X0561095Y0051938D02*
X0561250Y0051938D01*
X0561095Y0052724D02*
X0561576Y0052724D01*
X0561095Y0053510D02*
X0562357Y0053510D01*
X0568595Y0045651D02*
X0569837Y0045651D01*
X0568595Y0012643D02*
X0627597Y0012643D01*
X0626704Y0011857D02*
X0568595Y0011857D01*
X0568595Y0011071D02*
X0626305Y0011071D01*
X0626127Y0010285D02*
X0568595Y0010285D01*
X0568595Y0009499D02*
X0626127Y0009499D01*
X0626436Y0008713D02*
X0568595Y0008713D01*
X0568595Y0007927D02*
X0627020Y0007927D01*
X0628360Y0007141D02*
X0568595Y0007141D01*
X0659024Y0015550D02*
X0660095Y0014479D01*
X0660095Y0009550D01*
X0184095Y0097750D02*
X0184095Y0223050D01*
X0198595Y0237550D01*
X0188595Y0249550D02*
X0182095Y0243050D01*
X0182095Y0106650D01*
X0136095Y0060650D01*
X0136095Y0071450D02*
X0180095Y0115450D01*
X0180095Y0244050D01*
X0187595Y0251550D01*
X0283095Y0251550D01*
X0284595Y0251550D01*
X0298595Y0237550D01*
X0332595Y0253550D02*
X0348595Y0237550D01*
X0332595Y0253550D02*
X0186595Y0253550D01*
X0178095Y0245050D01*
X0178095Y0124050D01*
X0136395Y0082350D01*
X0136095Y0082350D01*
X0136095Y0093250D02*
X0176095Y0133250D01*
X0176095Y0156550D01*
X0176095Y0245550D01*
X0176595Y0246050D01*
X0176095Y0245550D01*
X0176595Y0246050D01*
X0186095Y0255550D01*
X0380595Y0255550D01*
X0398595Y0237550D01*
X0428595Y0257550D02*
X0185095Y0257550D01*
X0174095Y0246550D01*
X0174095Y0142050D01*
X0136095Y0104050D01*
X0136095Y0114950D02*
X0172095Y0150950D01*
X0172095Y0247550D01*
X0184095Y0259550D01*
X0476595Y0259550D01*
X0498595Y0237550D01*
X0448595Y0237550D02*
X0428595Y0257550D01*
X0524595Y0261550D02*
X0183095Y0261550D01*
X0170095Y0248550D01*
X0170095Y0159850D01*
X0136095Y0125850D01*
X0136095Y0136650D02*
X0136695Y0136650D01*
X0157595Y0157550D01*
X0157595Y0160050D01*
X0154095Y0165550D02*
X0154095Y0166050D01*
X0154095Y0165550D02*
X0136095Y0147550D01*
X0136095Y0158450D02*
X0136195Y0158550D01*
X0140595Y0158550D01*
X0150595Y0168550D01*
X0150595Y0174050D01*
X0147095Y0180250D02*
X0136095Y0169250D01*
X0136095Y0180150D02*
X0143595Y0187650D01*
X0143595Y0191050D01*
X0160595Y0192050D02*
X0160595Y0218050D01*
X0157345Y0221300D01*
X0160095Y0218550D01*
X0157345Y0221300D02*
X0155095Y0223550D01*
X0136195Y0223550D01*
X0136095Y0223650D01*
X0136095Y0234550D02*
X0155095Y0234550D01*
X0163595Y0226050D01*
X0163595Y0181550D01*
X0166595Y0175050D02*
X0166595Y0239050D01*
X0160295Y0245350D01*
X0136095Y0245350D01*
X0188595Y0249550D02*
X0236595Y0249550D01*
X0248595Y0237550D01*
X0147095Y0183050D02*
X0147095Y0180250D01*
X0184095Y0097750D02*
X0136095Y0049750D01*
X0568595Y0216980D02*
X0591627Y0216980D01*
X0589883Y0224839D02*
X0587808Y0224839D01*
X0585383Y0224839D02*
X0568595Y0224839D01*
X0568595Y0224053D02*
X0615894Y0224053D01*
X0619296Y0224053D02*
X0679002Y0224053D01*
X0679680Y0223267D02*
X0568595Y0223267D01*
X0568595Y0225625D02*
X0584322Y0225625D01*
X0583854Y0226411D02*
X0568595Y0226411D01*
X0568595Y0227197D02*
X0583627Y0227197D01*
X0583627Y0227983D02*
X0568595Y0227983D01*
X0568595Y0228769D02*
X0583887Y0228769D01*
X0584402Y0229555D02*
X0568595Y0229555D01*
X0548595Y0237550D02*
X0524595Y0261550D01*
X0568595Y0261777D02*
X0751095Y0261777D01*
X0751095Y0260991D02*
X0568595Y0260991D01*
X0588589Y0252346D02*
X0589101Y0252346D01*
X0589595Y0250050D02*
X0595095Y0250050D01*
X0595595Y0250550D01*
X0589595Y0250050D02*
X0587095Y0247550D01*
X0587095Y0243550D01*
X0602089Y0252346D02*
X0602601Y0252346D01*
X0606589Y0252346D02*
X0624601Y0252346D01*
X0623969Y0253132D02*
X0607221Y0253132D01*
X0651095Y0246050D02*
X0653595Y0248550D01*
X0651095Y0246050D02*
X0651095Y0243050D01*
X0657089Y0252346D02*
X0662101Y0252346D01*
X0661469Y0253132D02*
X0657721Y0253132D01*
X0658046Y0253918D02*
X0661144Y0253918D01*
X0661127Y0254704D02*
X0658064Y0254704D01*
X0657919Y0255490D02*
X0661271Y0255490D01*
X0661623Y0256276D02*
X0657568Y0256276D01*
X0656782Y0257062D02*
X0662409Y0257062D01*
X0665782Y0257062D02*
X0666909Y0257062D01*
X0671546Y0253918D02*
X0711644Y0253918D01*
X0711969Y0253132D02*
X0671221Y0253132D01*
X0670589Y0252346D02*
X0712601Y0252346D01*
X0716589Y0252346D02*
X0717101Y0252346D01*
X0721089Y0252346D02*
X0726101Y0252346D01*
X0725469Y0253132D02*
X0721721Y0253132D01*
X0722046Y0253918D02*
X0725144Y0253918D01*
X0725127Y0254704D02*
X0722064Y0254704D01*
X0721919Y0255490D02*
X0725271Y0255490D01*
X0725623Y0256276D02*
X0721568Y0256276D01*
X0720782Y0257062D02*
X0726409Y0257062D01*
X0729782Y0257062D02*
X0730909Y0257062D01*
X0735546Y0253918D02*
X0751095Y0253918D01*
X0751095Y0253132D02*
X0735221Y0253132D01*
X0734589Y0252346D02*
X0751095Y0252346D01*
X0751095Y0243701D02*
X0699952Y0243701D01*
X0700928Y0242915D02*
X0751095Y0242915D01*
X0730601Y0252346D02*
X0730089Y0252346D01*
X0717409Y0257062D02*
X0716282Y0257062D01*
X0666601Y0252346D02*
X0666089Y0252346D01*
X0653409Y0257062D02*
X0652282Y0257062D01*
D15*
X0587595Y0046050D02*
X0581095Y0039550D01*
X0551095Y0039550D01*
X0582595Y0015050D02*
X0459095Y0015050D01*
X0440595Y0033550D01*
X0434595Y0033550D01*
M02*
