G75*
%MOIN*%
%OFA0B0*%
%FSLAX25Y25*%
%IPPOS*%
%LPD*%
%AMOC8*
5,1,8,0,0,1.08239X$1,22.5*
%
%ADD10C,0.05543*%
%ADD11OC8,0.06000*%
%ADD12C,0.20000*%
%ADD13C,0.06000*%
%ADD14C,0.07400*%
%ADD15C,0.03969*%
%ADD16C,0.04362*%
D10*
X0324000Y0181313D03*
X0324000Y0189187D03*
X0324000Y0318813D03*
X0324000Y0326687D03*
X0324000Y0462563D03*
X0324000Y0470437D03*
D11*
X0378075Y0477750D03*
X0388975Y0477750D03*
X0399775Y0477750D03*
X0410675Y0477750D03*
X0421575Y0477750D03*
X0432375Y0477750D03*
X0443275Y0477750D03*
X0454175Y0477750D03*
X0464975Y0477750D03*
X0475875Y0477750D03*
X0486775Y0477750D03*
X0497575Y0477750D03*
X0508475Y0477750D03*
X0519375Y0477750D03*
X0530275Y0477750D03*
X0541075Y0477750D03*
X0551975Y0477750D03*
X0562875Y0477750D03*
X0573675Y0477750D03*
X0568275Y0487750D03*
X0557375Y0487750D03*
X0546575Y0487750D03*
X0535675Y0487750D03*
X0524775Y0487750D03*
X0513975Y0487750D03*
X0503075Y0487750D03*
X0492175Y0487750D03*
X0481275Y0487750D03*
X0470475Y0487750D03*
X0459575Y0487750D03*
X0448675Y0487750D03*
X0437875Y0487750D03*
X0426975Y0487750D03*
X0416075Y0487750D03*
X0405275Y0487750D03*
X0394375Y0487750D03*
X0383475Y0487750D03*
X0182125Y0463725D03*
X0172125Y0458325D03*
X0182125Y0452925D03*
X0172125Y0447525D03*
X0182125Y0442125D03*
X0172125Y0436725D03*
X0182125Y0431325D03*
X0172125Y0425925D03*
X0182125Y0420525D03*
X0383375Y0319000D03*
X0394000Y0319000D03*
X0405250Y0319000D03*
X0415875Y0319000D03*
X0427125Y0319000D03*
X0437750Y0319000D03*
X0448375Y0319000D03*
X0459625Y0319000D03*
X0470250Y0319000D03*
X0481500Y0319000D03*
X0492125Y0319000D03*
X0503375Y0319000D03*
X0514000Y0319000D03*
X0508375Y0295250D03*
X0497750Y0295250D03*
X0486500Y0295250D03*
X0475875Y0295250D03*
X0464625Y0295250D03*
X0454000Y0295250D03*
X0443375Y0295250D03*
X0432125Y0295250D03*
X0421500Y0295250D03*
X0410250Y0295250D03*
X0399625Y0295250D03*
X0389000Y0295250D03*
X0377750Y0295250D03*
X0519625Y0295250D03*
X0530250Y0295250D03*
X0540875Y0295250D03*
X0552125Y0295250D03*
X0562750Y0295250D03*
X0573375Y0295250D03*
X0573675Y0105250D03*
X0562775Y0105250D03*
X0551975Y0105250D03*
X0541075Y0105250D03*
X0530175Y0105250D03*
X0519375Y0105250D03*
X0508475Y0105250D03*
X0497575Y0105250D03*
X0486775Y0105250D03*
X0475875Y0105250D03*
X0464975Y0105250D03*
X0454175Y0105250D03*
X0443275Y0105250D03*
X0432375Y0105250D03*
X0421475Y0105250D03*
X0410675Y0105250D03*
X0399775Y0105250D03*
X0388875Y0105250D03*
X0378075Y0105250D03*
X0383475Y0095250D03*
X0394375Y0095250D03*
X0405175Y0095250D03*
X0416075Y0095250D03*
X0426975Y0095250D03*
X0437875Y0095250D03*
X0448675Y0095250D03*
X0459575Y0095250D03*
X0470475Y0095250D03*
X0481275Y0095250D03*
X0492175Y0095250D03*
X0503075Y0095250D03*
X0513875Y0095250D03*
X0524775Y0095250D03*
X0535675Y0095250D03*
X0546475Y0095250D03*
X0557375Y0095250D03*
X0568275Y0095250D03*
D12*
X0600875Y0100250D03*
X0350875Y0100250D03*
X0177125Y0392825D03*
X0177125Y0491425D03*
X0350875Y0482750D03*
X0600875Y0482750D03*
D13*
X0244625Y0497875D02*
X0244625Y0503875D01*
X0234625Y0503875D02*
X0234625Y0497875D01*
D14*
X0220875Y0500875D03*
X0210875Y0500875D03*
D15*
X0231500Y0461500D03*
X0246500Y0461500D03*
X0275250Y0460250D03*
X0275250Y0439000D03*
X0266500Y0417125D03*
X0241500Y0417125D03*
X0231500Y0417750D03*
X0231500Y0317750D03*
X0246500Y0317750D03*
X0275250Y0316500D03*
X0275250Y0295250D03*
X0266500Y0273375D03*
X0241500Y0273375D03*
X0231500Y0274000D03*
X0231500Y0180250D03*
X0246500Y0180250D03*
X0275250Y0179000D03*
X0275250Y0157750D03*
X0266500Y0135875D03*
X0241500Y0135875D03*
X0231500Y0136500D03*
D16*
X0195875Y0087125D03*
X0199625Y0096500D03*
X0214000Y0106500D03*
X0210250Y0115250D03*
X0239000Y0124625D03*
X0264000Y0125250D03*
X0279625Y0119000D03*
X0288375Y0106500D03*
X0295875Y0097125D03*
X0302125Y0112125D03*
X0317750Y0112125D03*
X0297125Y0131500D03*
X0291500Y0143375D03*
X0301500Y0171500D03*
X0306500Y0176500D03*
X0316500Y0174625D03*
X0285875Y0194625D03*
X0260875Y0180875D03*
X0279625Y0214000D03*
X0279000Y0226500D03*
X0279625Y0236500D03*
X0288375Y0244000D03*
X0302125Y0249625D03*
X0317750Y0249625D03*
X0295875Y0234625D03*
X0314625Y0215250D03*
X0279625Y0256500D03*
X0264000Y0262750D03*
X0239000Y0262125D03*
X0214000Y0244000D03*
X0207750Y0249000D03*
X0199625Y0233375D03*
X0195875Y0226500D03*
X0179000Y0239000D03*
X0146500Y0240875D03*
X0222750Y0219000D03*
X0297125Y0269000D03*
X0291500Y0280875D03*
X0301500Y0309000D03*
X0306500Y0314000D03*
X0316500Y0312125D03*
X0285875Y0332125D03*
X0260875Y0318375D03*
X0279625Y0357750D03*
X0279000Y0370250D03*
X0279625Y0380250D03*
X0288375Y0387750D03*
X0295875Y0378375D03*
X0302125Y0393375D03*
X0317750Y0393375D03*
X0297125Y0412750D03*
X0291500Y0424625D03*
X0279625Y0400250D03*
X0264000Y0406500D03*
X0239000Y0405875D03*
X0210875Y0395875D03*
X0214000Y0387750D03*
X0209625Y0377750D03*
X0199625Y0370250D03*
X0195875Y0362750D03*
X0222750Y0362750D03*
X0209625Y0317750D03*
X0169000Y0310875D03*
X0143375Y0334625D03*
X0153375Y0342125D03*
X0172350Y0436500D03*
X0260875Y0462125D03*
X0285875Y0475875D03*
X0306500Y0457750D03*
X0301500Y0452750D03*
X0316500Y0455875D03*
X0314625Y0359000D03*
X0279625Y0099000D03*
X0279000Y0089000D03*
X0279625Y0076500D03*
X0314625Y0077750D03*
X0222750Y0081500D03*
M02*
