G75*
%MOIN*%
%OFA0B0*%
%FSLAX25Y25*%
%IPPOS*%
%LPD*%
%AMOC8*
5,1,8,0,0,1.08239X$1,22.5*
%
%ADD10C,0.00600*%
%ADD11C,0.05543*%
%ADD12OC8,0.06000*%
%ADD13C,0.20000*%
%ADD14C,0.06000*%
%ADD15C,0.07400*%
%ADD16C,0.03969*%
%ADD17C,0.04362*%
%ADD18C,0.01000*%
D10*
X0595915Y0314523D02*
X0595915Y0315590D01*
X0596982Y0316658D01*
X0602320Y0316658D01*
X0601253Y0318833D02*
X0602320Y0319901D01*
X0602320Y0322036D01*
X0601253Y0323103D01*
X0600185Y0323103D01*
X0600185Y0318833D01*
X0599118Y0318833D02*
X0601253Y0318833D01*
X0599118Y0318833D02*
X0598050Y0319901D01*
X0598050Y0322036D01*
X0598050Y0325278D02*
X0602320Y0325278D01*
X0600185Y0325278D02*
X0602320Y0327414D01*
X0602320Y0328481D01*
X0598050Y0316658D02*
X0598050Y0313455D01*
X0599118Y0312387D01*
X0602320Y0312387D01*
X0601253Y0310212D02*
X0598050Y0310212D01*
X0598050Y0307010D01*
X0599118Y0305942D01*
X0600185Y0307010D01*
X0600185Y0310212D01*
X0601253Y0310212D02*
X0602320Y0309145D01*
X0602320Y0307010D01*
X0598050Y0303767D02*
X0598050Y0299496D01*
X0604455Y0299496D01*
X0601253Y0290876D02*
X0598050Y0290876D01*
X0598050Y0288741D02*
X0601253Y0288741D01*
X0602320Y0289808D01*
X0601253Y0290876D01*
X0601253Y0288741D02*
X0602320Y0287673D01*
X0602320Y0286605D01*
X0598050Y0286605D01*
X0599118Y0284430D02*
X0601253Y0284430D01*
X0602320Y0283363D01*
X0602320Y0281228D01*
X0601253Y0280160D01*
X0599118Y0280160D01*
X0598050Y0281228D01*
X0598050Y0283363D01*
X0599118Y0284430D01*
X0598050Y0277998D02*
X0599118Y0276931D01*
X0603388Y0276931D01*
X0602320Y0277998D02*
X0602320Y0275863D01*
X0602320Y0273701D02*
X0602320Y0271566D01*
X0603388Y0272634D02*
X0599118Y0272634D01*
X0598050Y0273701D01*
X0599118Y0269391D02*
X0601253Y0269391D01*
X0602320Y0268323D01*
X0602320Y0266188D01*
X0601253Y0265120D01*
X0599118Y0265120D01*
X0598050Y0266188D01*
X0598050Y0268323D01*
X0599118Y0269391D01*
X0599118Y0262945D02*
X0598050Y0261878D01*
X0598050Y0258675D01*
X0604455Y0258675D01*
X0604455Y0261878D01*
X0603388Y0262945D01*
X0602320Y0262945D01*
X0601253Y0261878D01*
X0601253Y0258675D01*
X0601253Y0261878D02*
X0600185Y0262945D01*
X0599118Y0262945D01*
D11*
X0324000Y0318813D03*
X0324000Y0326687D03*
X0324000Y0462563D03*
X0324000Y0470437D03*
X0324000Y0189187D03*
X0324000Y0181313D03*
D12*
X0378075Y0105250D03*
X0388875Y0105250D03*
X0399775Y0105250D03*
X0410675Y0105250D03*
X0421475Y0105250D03*
X0432375Y0105250D03*
X0443275Y0105250D03*
X0454175Y0105250D03*
X0464975Y0105250D03*
X0475875Y0105250D03*
X0486775Y0105250D03*
X0497575Y0105250D03*
X0508475Y0105250D03*
X0519375Y0105250D03*
X0530175Y0105250D03*
X0541075Y0105250D03*
X0551975Y0105250D03*
X0562775Y0105250D03*
X0573675Y0105250D03*
X0568275Y0095250D03*
X0557375Y0095250D03*
X0546475Y0095250D03*
X0535675Y0095250D03*
X0524775Y0095250D03*
X0513875Y0095250D03*
X0503075Y0095250D03*
X0492175Y0095250D03*
X0481275Y0095250D03*
X0470475Y0095250D03*
X0459575Y0095250D03*
X0448675Y0095250D03*
X0437875Y0095250D03*
X0426975Y0095250D03*
X0416075Y0095250D03*
X0405175Y0095250D03*
X0394375Y0095250D03*
X0383475Y0095250D03*
X0389000Y0295250D03*
X0377750Y0295250D03*
X0399625Y0295250D03*
X0410250Y0295250D03*
X0421500Y0295250D03*
X0432125Y0295250D03*
X0443375Y0295250D03*
X0454000Y0295250D03*
X0464625Y0295250D03*
X0475875Y0295250D03*
X0486500Y0295250D03*
X0497750Y0295250D03*
X0508375Y0295250D03*
X0519625Y0295250D03*
X0530250Y0295250D03*
X0540875Y0295250D03*
X0552125Y0295250D03*
X0562750Y0295250D03*
X0573375Y0295250D03*
X0514000Y0319000D03*
X0503375Y0319000D03*
X0492125Y0319000D03*
X0481500Y0319000D03*
X0470250Y0319000D03*
X0459625Y0319000D03*
X0448375Y0319000D03*
X0437750Y0319000D03*
X0427125Y0319000D03*
X0415875Y0319000D03*
X0405250Y0319000D03*
X0394000Y0319000D03*
X0383375Y0319000D03*
X0182125Y0420525D03*
X0172125Y0425925D03*
X0182125Y0431325D03*
X0172125Y0436725D03*
X0182125Y0442125D03*
X0172125Y0447525D03*
X0182125Y0452925D03*
X0172125Y0458325D03*
X0182125Y0463725D03*
X0378075Y0477750D03*
X0388975Y0477750D03*
X0399775Y0477750D03*
X0410675Y0477750D03*
X0421575Y0477750D03*
X0432375Y0477750D03*
X0443275Y0477750D03*
X0454175Y0477750D03*
X0464975Y0477750D03*
X0475875Y0477750D03*
X0486775Y0477750D03*
X0497575Y0477750D03*
X0508475Y0477750D03*
X0519375Y0477750D03*
X0530275Y0477750D03*
X0541075Y0477750D03*
X0551975Y0477750D03*
X0562875Y0477750D03*
X0573675Y0477750D03*
X0568275Y0487750D03*
X0557375Y0487750D03*
X0546575Y0487750D03*
X0535675Y0487750D03*
X0524775Y0487750D03*
X0513975Y0487750D03*
X0503075Y0487750D03*
X0492175Y0487750D03*
X0481275Y0487750D03*
X0470475Y0487750D03*
X0459575Y0487750D03*
X0448675Y0487750D03*
X0437875Y0487750D03*
X0426975Y0487750D03*
X0416075Y0487750D03*
X0405275Y0487750D03*
X0394375Y0487750D03*
X0383475Y0487750D03*
D13*
X0350875Y0482750D03*
X0177125Y0491425D03*
X0177125Y0392825D03*
X0350875Y0100250D03*
X0600875Y0100250D03*
X0600875Y0482750D03*
D14*
X0244625Y0497875D02*
X0244625Y0503875D01*
X0234625Y0503875D02*
X0234625Y0497875D01*
D15*
X0220875Y0500875D03*
X0210875Y0500875D03*
D16*
X0231500Y0461500D03*
X0246500Y0461500D03*
X0275250Y0460250D03*
X0275250Y0439000D03*
X0266500Y0417125D03*
X0241500Y0417125D03*
X0231500Y0417750D03*
X0231500Y0317750D03*
X0246500Y0317750D03*
X0275250Y0316500D03*
X0275250Y0295250D03*
X0266500Y0273375D03*
X0241500Y0273375D03*
X0231500Y0274000D03*
X0231500Y0180250D03*
X0246500Y0180250D03*
X0275250Y0179000D03*
X0275250Y0157750D03*
X0266500Y0135875D03*
X0241500Y0135875D03*
X0231500Y0136500D03*
D17*
X0195875Y0087125D03*
X0199625Y0096500D03*
X0214000Y0106500D03*
X0210250Y0115250D03*
X0239000Y0124625D03*
X0264000Y0125250D03*
X0279625Y0119000D03*
X0288375Y0106500D03*
X0295875Y0097125D03*
X0302125Y0112125D03*
X0317750Y0112125D03*
X0297125Y0131500D03*
X0291500Y0143375D03*
X0301500Y0171500D03*
X0306500Y0176500D03*
X0316500Y0174625D03*
X0285875Y0194625D03*
X0260875Y0180875D03*
X0279625Y0214000D03*
X0279000Y0226500D03*
X0279625Y0236500D03*
X0288375Y0244000D03*
X0302125Y0249625D03*
X0317750Y0249625D03*
X0295875Y0234625D03*
X0314625Y0215250D03*
X0279625Y0256500D03*
X0264000Y0262750D03*
X0239000Y0262125D03*
X0214000Y0244000D03*
X0207750Y0249000D03*
X0199625Y0233375D03*
X0195875Y0226500D03*
X0179000Y0239000D03*
X0146500Y0240875D03*
X0222750Y0219000D03*
X0297125Y0269000D03*
X0291500Y0280875D03*
X0301500Y0309000D03*
X0306500Y0314000D03*
X0316500Y0312125D03*
X0285875Y0332125D03*
X0260875Y0318375D03*
X0279625Y0357750D03*
X0279000Y0370250D03*
X0279625Y0380250D03*
X0288375Y0387750D03*
X0295875Y0378375D03*
X0302125Y0393375D03*
X0317750Y0393375D03*
X0297125Y0412750D03*
X0291500Y0424625D03*
X0279625Y0400250D03*
X0264000Y0406500D03*
X0239000Y0405875D03*
X0210875Y0395875D03*
X0214000Y0387750D03*
X0209625Y0377750D03*
X0199625Y0370250D03*
X0195875Y0362750D03*
X0222750Y0362750D03*
X0209625Y0317750D03*
X0169000Y0310875D03*
X0143375Y0334625D03*
X0153375Y0342125D03*
X0172350Y0436500D03*
X0260875Y0462125D03*
X0285875Y0475875D03*
X0306500Y0457750D03*
X0301500Y0452750D03*
X0316500Y0455875D03*
X0314625Y0359000D03*
X0279625Y0099000D03*
X0279000Y0089000D03*
X0279625Y0076500D03*
X0314625Y0077750D03*
X0222750Y0081500D03*
D18*
X0199625Y0094000D02*
X0199625Y0096500D01*
X0199625Y0233375D01*
X0199625Y0370250D01*
X0199625Y0372125D01*
X0199625Y0437750D01*
X0195250Y0442125D01*
X0182125Y0442125D01*
X0172350Y0436500D02*
X0172125Y0436725D01*
X0182125Y0431325D02*
X0192925Y0431325D01*
X0195875Y0428375D01*
X0195875Y0363375D01*
X0195875Y0362750D01*
X0195875Y0226500D01*
X0195875Y0087125D01*
X0203375Y0114625D02*
X0204000Y0115250D01*
X0210250Y0115250D01*
X0203375Y0114625D02*
X0203375Y0249000D01*
X0207750Y0249000D01*
X0203375Y0249000D02*
X0203375Y0396500D01*
X0204000Y0395875D01*
X0210875Y0395875D01*
X0203375Y0396500D02*
X0203375Y0449000D01*
X0199625Y0452750D01*
X0182300Y0452750D01*
X0182125Y0452925D01*
X0209625Y0377750D02*
X0209625Y0317750D01*
X0169000Y0310875D02*
X0144625Y0310875D01*
X0143375Y0312125D01*
X0143375Y0334625D01*
X0146500Y0240875D02*
X0148375Y0239000D01*
X0179000Y0239000D01*
X0279625Y0236500D02*
X0282125Y0236500D01*
X0283375Y0237750D01*
X0283375Y0280250D01*
X0287750Y0284625D01*
X0289625Y0284625D01*
X0292125Y0287125D01*
X0296500Y0287125D01*
X0297125Y0287750D01*
X0297125Y0313375D01*
X0297750Y0314000D01*
X0306500Y0314000D01*
X0316500Y0312125D02*
X0319000Y0309625D01*
X0319000Y0268375D01*
X0305875Y0255250D01*
X0298375Y0255250D01*
X0295250Y0252125D01*
X0295250Y0240875D01*
X0280875Y0226500D01*
X0279000Y0226500D01*
X0302125Y0249625D02*
X0317750Y0249625D01*
X0306500Y0176500D02*
X0297750Y0176500D01*
X0297125Y0175875D01*
X0297125Y0150250D01*
X0296500Y0149625D01*
X0292125Y0149625D01*
X0289625Y0147125D01*
X0287750Y0147125D01*
X0283375Y0142750D01*
X0283375Y0100250D01*
X0282125Y0099000D01*
X0279625Y0099000D01*
X0279000Y0089000D02*
X0280875Y0089000D01*
X0295250Y0103375D01*
X0295250Y0114625D01*
X0298375Y0117750D01*
X0305875Y0117750D01*
X0319000Y0130875D01*
X0319000Y0172125D01*
X0316500Y0174625D01*
X0317750Y0112125D02*
X0302125Y0112125D01*
X0280875Y0370250D02*
X0279000Y0370250D01*
X0280875Y0370250D02*
X0295250Y0384625D01*
X0295250Y0395875D01*
X0298375Y0399000D01*
X0305875Y0399000D01*
X0319000Y0412125D01*
X0319000Y0453375D01*
X0316500Y0455875D01*
X0306500Y0457750D02*
X0297750Y0457750D01*
X0297125Y0457125D01*
X0297125Y0431500D01*
X0296500Y0430875D01*
X0292125Y0430875D01*
X0289625Y0428375D01*
X0287750Y0428375D01*
X0283375Y0424000D01*
X0283375Y0381500D01*
X0282125Y0380250D01*
X0279625Y0380250D01*
X0302125Y0393375D02*
X0317750Y0393375D01*
M02*
