G75*
%MOIN*%
%OFA0B0*%
%FSLAX25Y25*%
%IPPOS*%
%LPD*%
%AMOC8*
5,1,8,0,0,1.08239X$1,22.5*
%
%ADD10R,0.02756X0.03543*%
%ADD11R,0.02000X0.04800*%
%ADD12R,0.05906X0.05118*%
%ADD13R,0.01378X0.00984*%
%ADD14R,0.03543X0.02756*%
%ADD15R,0.05118X0.05906*%
%ADD16R,0.01200X0.05600*%
%ADD17R,0.07800X0.02200*%
%ADD18C,0.05543*%
%ADD19R,0.05400X0.01800*%
%ADD20R,0.03543X0.01969*%
%ADD21R,0.01102X0.01693*%
%ADD22R,0.01693X0.01102*%
%ADD23R,0.04331X0.03937*%
%ADD24C,0.03071*%
%ADD25OC8,0.06000*%
%ADD26C,0.20000*%
%ADD27R,0.05800X0.01400*%
%ADD28C,0.06000*%
%ADD29C,0.07400*%
%ADD30C,0.03969*%
%ADD31C,0.04362*%
D10*
X0233941Y0118375D03*
X0239059Y0118375D03*
X0263941Y0118375D03*
X0269059Y0118375D03*
X0309566Y0139625D03*
X0314684Y0139625D03*
X0299684Y0154000D03*
X0294566Y0154000D03*
X0269059Y0255875D03*
X0263941Y0255875D03*
X0239059Y0255875D03*
X0233941Y0255875D03*
X0294566Y0291500D03*
X0299684Y0291500D03*
X0309566Y0277125D03*
X0314684Y0277125D03*
X0269059Y0399625D03*
X0263941Y0399625D03*
X0239059Y0399625D03*
X0233941Y0399625D03*
X0294566Y0435250D03*
X0299684Y0435250D03*
X0309566Y0420875D03*
X0314684Y0420875D03*
D11*
X0311450Y0373175D03*
X0307750Y0373175D03*
X0304050Y0373175D03*
X0304050Y0363575D03*
X0307750Y0363575D03*
X0311450Y0363575D03*
X0311450Y0229425D03*
X0307750Y0229425D03*
X0304050Y0229425D03*
X0304050Y0219825D03*
X0307750Y0219825D03*
X0311450Y0219825D03*
X0311450Y0091925D03*
X0307750Y0091925D03*
X0304050Y0091925D03*
X0304050Y0082325D03*
X0307750Y0082325D03*
X0311450Y0082325D03*
D12*
X0276500Y0140885D03*
X0276500Y0148365D03*
X0283375Y0167135D03*
X0283375Y0174615D03*
X0220875Y0152740D03*
X0220875Y0145260D03*
X0276500Y0278385D03*
X0276500Y0285865D03*
X0283375Y0304635D03*
X0283375Y0312115D03*
X0220875Y0290240D03*
X0220875Y0282760D03*
X0276500Y0422135D03*
X0276500Y0429615D03*
X0283375Y0448385D03*
X0283375Y0455865D03*
X0220875Y0433990D03*
X0220875Y0426510D03*
D13*
X0275250Y0452391D03*
X0275250Y0454359D03*
X0275250Y0310609D03*
X0275250Y0308641D03*
X0275250Y0173109D03*
X0275250Y0171141D03*
D14*
X0297125Y0145309D03*
X0302125Y0145309D03*
X0302125Y0140191D03*
X0297125Y0140191D03*
X0279625Y0111559D03*
X0279625Y0106441D03*
X0222125Y0106441D03*
X0222125Y0111559D03*
X0222125Y0243941D03*
X0222125Y0249059D03*
X0279625Y0249059D03*
X0279625Y0243941D03*
X0297125Y0277691D03*
X0302125Y0277691D03*
X0302125Y0282809D03*
X0297125Y0282809D03*
X0279625Y0387691D03*
X0279625Y0392809D03*
X0297125Y0421441D03*
X0302125Y0421441D03*
X0302125Y0426559D03*
X0297125Y0426559D03*
X0222125Y0392809D03*
X0222125Y0387691D03*
D15*
X0235260Y0325875D03*
X0242740Y0325875D03*
X0242740Y0188375D03*
X0235260Y0188375D03*
X0235260Y0469625D03*
X0242740Y0469625D03*
D16*
X0305881Y0448112D03*
X0307781Y0448112D03*
X0309781Y0448112D03*
X0311781Y0448112D03*
X0313681Y0448112D03*
X0313681Y0430512D03*
X0311781Y0430512D03*
X0309781Y0430512D03*
X0307781Y0430512D03*
X0305881Y0430512D03*
X0305881Y0304363D03*
X0307781Y0304363D03*
X0309781Y0304363D03*
X0311781Y0304363D03*
X0313681Y0304363D03*
X0313681Y0286763D03*
X0311781Y0286763D03*
X0309781Y0286763D03*
X0307781Y0286763D03*
X0305881Y0286763D03*
X0305881Y0166863D03*
X0307781Y0166863D03*
X0309781Y0166863D03*
X0311781Y0166863D03*
X0313681Y0166863D03*
X0313681Y0149263D03*
X0311781Y0149263D03*
X0309781Y0149263D03*
X0307781Y0149263D03*
X0305881Y0149263D03*
D17*
X0270000Y0111500D03*
X0270000Y0106500D03*
X0270000Y0101500D03*
X0270000Y0096500D03*
X0270000Y0091500D03*
X0270000Y0086500D03*
X0270000Y0081500D03*
X0270000Y0076500D03*
X0233000Y0076500D03*
X0233000Y0081500D03*
X0233000Y0086500D03*
X0233000Y0091500D03*
X0233000Y0096500D03*
X0233000Y0101500D03*
X0233000Y0106500D03*
X0233000Y0111500D03*
X0233000Y0214000D03*
X0233000Y0219000D03*
X0233000Y0224000D03*
X0233000Y0229000D03*
X0233000Y0234000D03*
X0233000Y0239000D03*
X0233000Y0244000D03*
X0233000Y0249000D03*
X0270000Y0249000D03*
X0270000Y0244000D03*
X0270000Y0239000D03*
X0270000Y0234000D03*
X0270000Y0229000D03*
X0270000Y0224000D03*
X0270000Y0219000D03*
X0270000Y0214000D03*
X0270000Y0357750D03*
X0270000Y0362750D03*
X0270000Y0367750D03*
X0270000Y0372750D03*
X0270000Y0377750D03*
X0270000Y0382750D03*
X0270000Y0387750D03*
X0270000Y0392750D03*
X0233000Y0392750D03*
X0233000Y0387750D03*
X0233000Y0382750D03*
X0233000Y0377750D03*
X0233000Y0372750D03*
X0233000Y0367750D03*
X0233000Y0362750D03*
X0233000Y0357750D03*
D18*
X0324000Y0326687D03*
X0324000Y0318813D03*
X0324000Y0189187D03*
X0324000Y0181313D03*
X0324000Y0462563D03*
X0324000Y0470437D03*
D19*
X0278325Y0470825D03*
X0278325Y0468325D03*
X0278325Y0473425D03*
X0278325Y0475925D03*
X0260925Y0475925D03*
X0260925Y0473425D03*
X0260925Y0470825D03*
X0260925Y0468325D03*
X0260925Y0332175D03*
X0260925Y0329675D03*
X0260925Y0327075D03*
X0260925Y0324575D03*
X0278325Y0324575D03*
X0278325Y0327075D03*
X0278325Y0329675D03*
X0278325Y0332175D03*
X0278325Y0194675D03*
X0278325Y0192175D03*
X0278325Y0189575D03*
X0278325Y0187075D03*
X0260925Y0187075D03*
X0260925Y0189575D03*
X0260925Y0192175D03*
X0260925Y0194675D03*
D20*
X0296350Y0196599D03*
X0296350Y0191450D03*
X0296350Y0186300D03*
X0296350Y0181151D03*
X0316650Y0181151D03*
X0316650Y0186300D03*
X0316650Y0191450D03*
X0316650Y0196599D03*
X0316650Y0318651D03*
X0316650Y0323800D03*
X0316650Y0328950D03*
X0316650Y0334099D03*
X0296350Y0334099D03*
X0296350Y0328950D03*
X0296350Y0323800D03*
X0296350Y0318651D03*
X0296350Y0462401D03*
X0296350Y0467550D03*
X0296350Y0472700D03*
X0296350Y0477849D03*
X0316650Y0477849D03*
X0316650Y0472700D03*
X0316650Y0467550D03*
X0316650Y0462401D03*
D21*
X0237504Y0418375D03*
X0235496Y0418375D03*
X0235496Y0274625D03*
X0237504Y0274625D03*
X0237504Y0137125D03*
X0235496Y0137125D03*
D22*
X0275250Y0165496D03*
X0275250Y0167504D03*
X0275250Y0302996D03*
X0275250Y0305004D03*
X0275250Y0446746D03*
X0275250Y0448754D03*
D23*
X0296500Y0371721D03*
X0296500Y0365029D03*
X0296500Y0227971D03*
X0296500Y0221279D03*
X0296500Y0090471D03*
X0296500Y0083779D03*
D24*
X0266500Y0142750D03*
X0266500Y0147750D03*
X0266500Y0152750D03*
X0266500Y0157750D03*
X0266500Y0162750D03*
X0266500Y0167750D03*
X0266500Y0172750D03*
X0261500Y0172750D03*
X0261500Y0167750D03*
X0261500Y0162750D03*
X0261500Y0157750D03*
X0261500Y0152750D03*
X0261500Y0147750D03*
X0261500Y0142750D03*
X0256500Y0142750D03*
X0256500Y0147750D03*
X0256500Y0152750D03*
X0256500Y0157750D03*
X0256500Y0162750D03*
X0256500Y0167750D03*
X0256500Y0172750D03*
X0246500Y0172750D03*
X0246500Y0167750D03*
X0246500Y0162750D03*
X0246500Y0157750D03*
X0246500Y0152750D03*
X0246500Y0147750D03*
X0246500Y0142750D03*
X0241500Y0142750D03*
X0236500Y0142750D03*
X0236500Y0147750D03*
X0241500Y0147750D03*
X0241500Y0152750D03*
X0236500Y0152750D03*
X0236500Y0157750D03*
X0241500Y0157750D03*
X0241500Y0162750D03*
X0236500Y0167750D03*
X0236500Y0172750D03*
X0231500Y0172750D03*
X0231500Y0167750D03*
X0231500Y0157750D03*
X0231500Y0152750D03*
X0231500Y0147750D03*
X0231500Y0142750D03*
X0231500Y0280250D03*
X0231500Y0285250D03*
X0231500Y0290250D03*
X0231500Y0295250D03*
X0236500Y0295250D03*
X0241500Y0295250D03*
X0241500Y0290250D03*
X0236500Y0290250D03*
X0236500Y0285250D03*
X0241500Y0285250D03*
X0241500Y0280250D03*
X0236500Y0280250D03*
X0246500Y0280250D03*
X0246500Y0285250D03*
X0246500Y0290250D03*
X0246500Y0295250D03*
X0246500Y0300250D03*
X0246500Y0305250D03*
X0246500Y0310250D03*
X0236500Y0310250D03*
X0236500Y0305250D03*
X0231500Y0305250D03*
X0231500Y0310250D03*
X0241500Y0300250D03*
X0256500Y0300250D03*
X0256500Y0295250D03*
X0256500Y0290250D03*
X0256500Y0285250D03*
X0256500Y0280250D03*
X0261500Y0280250D03*
X0261500Y0285250D03*
X0261500Y0290250D03*
X0261500Y0295250D03*
X0261500Y0300250D03*
X0261500Y0305250D03*
X0261500Y0310250D03*
X0256500Y0310250D03*
X0256500Y0305250D03*
X0266500Y0305250D03*
X0266500Y0300250D03*
X0266500Y0295250D03*
X0266500Y0290250D03*
X0266500Y0285250D03*
X0266500Y0280250D03*
X0266500Y0310250D03*
X0266500Y0424000D03*
X0266500Y0429000D03*
X0266500Y0434000D03*
X0266500Y0439000D03*
X0266500Y0444000D03*
X0266500Y0449000D03*
X0266500Y0454000D03*
X0261500Y0454000D03*
X0261500Y0449000D03*
X0261500Y0444000D03*
X0261500Y0439000D03*
X0261500Y0434000D03*
X0261500Y0429000D03*
X0261500Y0424000D03*
X0256500Y0424000D03*
X0256500Y0429000D03*
X0256500Y0434000D03*
X0256500Y0439000D03*
X0256500Y0444000D03*
X0256500Y0449000D03*
X0256500Y0454000D03*
X0246500Y0454000D03*
X0246500Y0449000D03*
X0246500Y0444000D03*
X0246500Y0439000D03*
X0246500Y0434000D03*
X0246500Y0429000D03*
X0246500Y0424000D03*
X0241500Y0424000D03*
X0236500Y0424000D03*
X0236500Y0429000D03*
X0241500Y0429000D03*
X0241500Y0434000D03*
X0236500Y0434000D03*
X0236500Y0439000D03*
X0241500Y0439000D03*
X0241500Y0444000D03*
X0236500Y0449000D03*
X0236500Y0454000D03*
X0231500Y0454000D03*
X0231500Y0449000D03*
X0231500Y0439000D03*
X0231500Y0434000D03*
X0231500Y0429000D03*
X0231500Y0424000D03*
D25*
X0182125Y0420525D03*
X0172125Y0425925D03*
X0182125Y0431325D03*
X0172125Y0436725D03*
X0182125Y0442125D03*
X0172125Y0447525D03*
X0182125Y0452925D03*
X0172125Y0458325D03*
X0182125Y0463725D03*
X0378075Y0477750D03*
X0388975Y0477750D03*
X0399775Y0477750D03*
X0410675Y0477750D03*
X0421575Y0477750D03*
X0432375Y0477750D03*
X0443275Y0477750D03*
X0454175Y0477750D03*
X0464975Y0477750D03*
X0475875Y0477750D03*
X0486775Y0477750D03*
X0497575Y0477750D03*
X0508475Y0477750D03*
X0519375Y0477750D03*
X0530275Y0477750D03*
X0541075Y0477750D03*
X0551975Y0477750D03*
X0562875Y0477750D03*
X0573675Y0477750D03*
X0568275Y0487750D03*
X0557375Y0487750D03*
X0546575Y0487750D03*
X0535675Y0487750D03*
X0524775Y0487750D03*
X0513975Y0487750D03*
X0503075Y0487750D03*
X0492175Y0487750D03*
X0481275Y0487750D03*
X0470475Y0487750D03*
X0459575Y0487750D03*
X0448675Y0487750D03*
X0437875Y0487750D03*
X0426975Y0487750D03*
X0416075Y0487750D03*
X0405275Y0487750D03*
X0394375Y0487750D03*
X0383475Y0487750D03*
X0383375Y0319000D03*
X0394000Y0319000D03*
X0405250Y0319000D03*
X0415875Y0319000D03*
X0427125Y0319000D03*
X0437750Y0319000D03*
X0448375Y0319000D03*
X0459625Y0319000D03*
X0470250Y0319000D03*
X0481500Y0319000D03*
X0492125Y0319000D03*
X0503375Y0319000D03*
X0514000Y0319000D03*
X0508375Y0295250D03*
X0497750Y0295250D03*
X0486500Y0295250D03*
X0475875Y0295250D03*
X0464625Y0295250D03*
X0454000Y0295250D03*
X0443375Y0295250D03*
X0432125Y0295250D03*
X0421500Y0295250D03*
X0410250Y0295250D03*
X0399625Y0295250D03*
X0389000Y0295250D03*
X0377750Y0295250D03*
X0519625Y0295250D03*
X0530250Y0295250D03*
X0540875Y0295250D03*
X0552125Y0295250D03*
X0562750Y0295250D03*
X0573375Y0295250D03*
X0573675Y0105250D03*
X0562775Y0105250D03*
X0551975Y0105250D03*
X0541075Y0105250D03*
X0530175Y0105250D03*
X0519375Y0105250D03*
X0508475Y0105250D03*
X0497575Y0105250D03*
X0486775Y0105250D03*
X0475875Y0105250D03*
X0464975Y0105250D03*
X0454175Y0105250D03*
X0443275Y0105250D03*
X0432375Y0105250D03*
X0421475Y0105250D03*
X0410675Y0105250D03*
X0399775Y0105250D03*
X0388875Y0105250D03*
X0378075Y0105250D03*
X0383475Y0095250D03*
X0394375Y0095250D03*
X0405175Y0095250D03*
X0416075Y0095250D03*
X0426975Y0095250D03*
X0437875Y0095250D03*
X0448675Y0095250D03*
X0459575Y0095250D03*
X0470475Y0095250D03*
X0481275Y0095250D03*
X0492175Y0095250D03*
X0503075Y0095250D03*
X0513875Y0095250D03*
X0524775Y0095250D03*
X0535675Y0095250D03*
X0546475Y0095250D03*
X0557375Y0095250D03*
X0568275Y0095250D03*
D26*
X0600875Y0100250D03*
X0350875Y0100250D03*
X0177125Y0392825D03*
X0177125Y0491425D03*
X0350875Y0482750D03*
X0600875Y0482750D03*
D27*
X0185100Y0349975D03*
X0185100Y0347375D03*
X0185100Y0344875D03*
X0185100Y0342275D03*
X0185100Y0339675D03*
X0185100Y0337175D03*
X0185100Y0334575D03*
X0185100Y0332075D03*
X0185100Y0329475D03*
X0185100Y0326875D03*
X0185100Y0324375D03*
X0185100Y0321775D03*
X0162900Y0321775D03*
X0162900Y0324375D03*
X0162900Y0326875D03*
X0162900Y0329475D03*
X0162900Y0332075D03*
X0162900Y0334575D03*
X0162900Y0337175D03*
X0162900Y0339675D03*
X0162900Y0342275D03*
X0162900Y0344875D03*
X0162900Y0347375D03*
X0162900Y0349975D03*
D28*
X0234625Y0497875D02*
X0234625Y0503875D01*
X0244625Y0503875D02*
X0244625Y0497875D01*
D29*
X0220875Y0500875D03*
X0210875Y0500875D03*
D30*
X0231500Y0461500D03*
X0246500Y0461500D03*
X0275250Y0460250D03*
X0275250Y0439000D03*
X0266500Y0417125D03*
X0241500Y0417125D03*
X0231500Y0417750D03*
X0231500Y0317750D03*
X0246500Y0317750D03*
X0275250Y0316500D03*
X0275250Y0295250D03*
X0266500Y0273375D03*
X0241500Y0273375D03*
X0231500Y0274000D03*
X0231500Y0180250D03*
X0246500Y0180250D03*
X0275250Y0179000D03*
X0275250Y0157750D03*
X0266500Y0135875D03*
X0241500Y0135875D03*
X0231500Y0136500D03*
D31*
X0195875Y0087125D03*
X0199625Y0096500D03*
X0214000Y0106500D03*
X0210250Y0115250D03*
X0239000Y0124625D03*
X0264000Y0125250D03*
X0279625Y0119000D03*
X0288375Y0106500D03*
X0295875Y0097125D03*
X0302125Y0112125D03*
X0317750Y0112125D03*
X0297125Y0131500D03*
X0291500Y0143375D03*
X0301500Y0171500D03*
X0306500Y0176500D03*
X0316500Y0174625D03*
X0285875Y0194625D03*
X0260875Y0180875D03*
X0279625Y0214000D03*
X0279000Y0226500D03*
X0279625Y0236500D03*
X0288375Y0244000D03*
X0302125Y0249625D03*
X0317750Y0249625D03*
X0295875Y0234625D03*
X0314625Y0215250D03*
X0279625Y0256500D03*
X0264000Y0262750D03*
X0239000Y0262125D03*
X0214000Y0244000D03*
X0207750Y0249000D03*
X0199625Y0233375D03*
X0195875Y0226500D03*
X0179000Y0239000D03*
X0146500Y0240875D03*
X0222750Y0219000D03*
X0297125Y0269000D03*
X0291500Y0280875D03*
X0301500Y0309000D03*
X0306500Y0314000D03*
X0316500Y0312125D03*
X0285875Y0332125D03*
X0260875Y0318375D03*
X0279625Y0357750D03*
X0279000Y0370250D03*
X0279625Y0380250D03*
X0288375Y0387750D03*
X0295875Y0378375D03*
X0302125Y0393375D03*
X0317750Y0393375D03*
X0297125Y0412750D03*
X0291500Y0424625D03*
X0279625Y0400250D03*
X0264000Y0406500D03*
X0239000Y0405875D03*
X0210875Y0395875D03*
X0214000Y0387750D03*
X0209625Y0377750D03*
X0199625Y0370250D03*
X0195875Y0362750D03*
X0222750Y0362750D03*
X0209625Y0317750D03*
X0169000Y0310875D03*
X0143375Y0334625D03*
X0153375Y0342125D03*
X0172350Y0436500D03*
X0260875Y0462125D03*
X0285875Y0475875D03*
X0306500Y0457750D03*
X0301500Y0452750D03*
X0316500Y0455875D03*
X0314625Y0359000D03*
X0279625Y0099000D03*
X0279000Y0089000D03*
X0279625Y0076500D03*
X0314625Y0077750D03*
X0222750Y0081500D03*
M02*
