G75*
%MOIN*%
%OFA0B0*%
%FSLAX25Y25*%
%IPPOS*%
%LPD*%
%AMOC8*
5,1,8,0,0,1.08239X$1,22.5*
%
%ADD10C,0.00600*%
%ADD11R,0.02756X0.03543*%
%ADD12R,0.02000X0.04800*%
%ADD13R,0.05906X0.05118*%
%ADD14R,0.01378X0.00984*%
%ADD15R,0.03543X0.02756*%
%ADD16R,0.05118X0.05906*%
%ADD17R,0.01200X0.05600*%
%ADD18R,0.07800X0.02200*%
%ADD19C,0.05543*%
%ADD20R,0.05400X0.01800*%
%ADD21R,0.03543X0.01969*%
%ADD22R,0.01102X0.01693*%
%ADD23R,0.01693X0.01102*%
%ADD24R,0.04331X0.03937*%
%ADD25C,0.03071*%
%ADD26OC8,0.06000*%
%ADD27C,0.20000*%
%ADD28R,0.05800X0.01400*%
%ADD29C,0.06000*%
%ADD30C,0.07400*%
%ADD31C,0.01600*%
%ADD32C,0.03969*%
%ADD33C,0.01000*%
%ADD34C,0.04362*%
%ADD35C,0.02400*%
D10*
X0596795Y0250763D02*
X0596795Y0255033D01*
X0596795Y0252898D02*
X0603200Y0252898D01*
X0602132Y0257209D02*
X0603200Y0258276D01*
X0603200Y0260411D01*
X0602132Y0261479D01*
X0599997Y0261479D01*
X0598930Y0260411D01*
X0598930Y0258276D01*
X0599997Y0257209D01*
X0602132Y0257209D01*
X0603200Y0263654D02*
X0603200Y0266857D01*
X0602132Y0267924D01*
X0599997Y0267924D01*
X0598930Y0266857D01*
X0598930Y0263654D01*
X0605335Y0263654D01*
X0603200Y0276545D02*
X0603200Y0278680D01*
X0603200Y0277613D02*
X0596795Y0277613D01*
X0596795Y0276545D01*
X0598930Y0281910D02*
X0598930Y0284045D01*
X0599997Y0285112D01*
X0603200Y0285112D01*
X0603200Y0281910D01*
X0602132Y0280842D01*
X0601065Y0281910D01*
X0601065Y0285112D01*
X0602132Y0287288D02*
X0603200Y0288355D01*
X0603200Y0291558D01*
X0604268Y0291558D02*
X0605335Y0290490D01*
X0605335Y0289423D01*
X0604268Y0291558D02*
X0598930Y0291558D01*
X0599997Y0293733D02*
X0598930Y0294801D01*
X0598930Y0296936D01*
X0599997Y0298003D01*
X0601065Y0298003D01*
X0601065Y0293733D01*
X0602132Y0293733D02*
X0599997Y0293733D01*
X0602132Y0293733D02*
X0603200Y0294801D01*
X0603200Y0296936D01*
X0603200Y0300179D02*
X0598930Y0300179D01*
X0598930Y0302314D02*
X0598930Y0303381D01*
X0598930Y0302314D02*
X0601065Y0300179D01*
X0602132Y0287288D02*
X0598930Y0287288D01*
D11*
X0314684Y0277125D03*
X0309566Y0277125D03*
X0299684Y0291500D03*
X0294566Y0291500D03*
X0269059Y0255875D03*
X0263941Y0255875D03*
X0239059Y0255875D03*
X0233941Y0255875D03*
X0294566Y0154000D03*
X0299684Y0154000D03*
X0309566Y0139625D03*
X0314684Y0139625D03*
X0269059Y0118375D03*
X0263941Y0118375D03*
X0239059Y0118375D03*
X0233941Y0118375D03*
X0233941Y0399625D03*
X0239059Y0399625D03*
X0263941Y0399625D03*
X0269059Y0399625D03*
X0309566Y0420875D03*
X0314684Y0420875D03*
X0299684Y0435250D03*
X0294566Y0435250D03*
D12*
X0304050Y0373175D03*
X0307750Y0373175D03*
X0311450Y0373175D03*
X0311450Y0363575D03*
X0307750Y0363575D03*
X0304050Y0363575D03*
X0304050Y0229425D03*
X0307750Y0229425D03*
X0311450Y0229425D03*
X0311450Y0219825D03*
X0307750Y0219825D03*
X0304050Y0219825D03*
X0304050Y0091925D03*
X0307750Y0091925D03*
X0311450Y0091925D03*
X0311450Y0082325D03*
X0307750Y0082325D03*
X0304050Y0082325D03*
D13*
X0276500Y0140885D03*
X0276500Y0148365D03*
X0283375Y0167135D03*
X0283375Y0174615D03*
X0220875Y0152740D03*
X0220875Y0145260D03*
X0276500Y0278385D03*
X0276500Y0285865D03*
X0283375Y0304635D03*
X0283375Y0312115D03*
X0220875Y0290240D03*
X0220875Y0282760D03*
X0276500Y0422135D03*
X0276500Y0429615D03*
X0283375Y0448385D03*
X0283375Y0455865D03*
X0220875Y0433990D03*
X0220875Y0426510D03*
D14*
X0275250Y0452391D03*
X0275250Y0454359D03*
X0275250Y0310609D03*
X0275250Y0308641D03*
X0275250Y0173109D03*
X0275250Y0171141D03*
D15*
X0297125Y0145309D03*
X0302125Y0145309D03*
X0302125Y0140191D03*
X0297125Y0140191D03*
X0279625Y0111559D03*
X0279625Y0106441D03*
X0222125Y0106441D03*
X0222125Y0111559D03*
X0222125Y0243941D03*
X0222125Y0249059D03*
X0279625Y0249059D03*
X0279625Y0243941D03*
X0297125Y0277691D03*
X0302125Y0277691D03*
X0302125Y0282809D03*
X0297125Y0282809D03*
X0279625Y0387691D03*
X0279625Y0392809D03*
X0297125Y0421441D03*
X0302125Y0421441D03*
X0302125Y0426559D03*
X0297125Y0426559D03*
X0222125Y0392809D03*
X0222125Y0387691D03*
D16*
X0235260Y0325875D03*
X0242740Y0325875D03*
X0242740Y0188375D03*
X0235260Y0188375D03*
X0235260Y0469625D03*
X0242740Y0469625D03*
D17*
X0305881Y0448112D03*
X0307781Y0448112D03*
X0309781Y0448112D03*
X0311781Y0448112D03*
X0313681Y0448112D03*
X0313681Y0430512D03*
X0311781Y0430512D03*
X0309781Y0430512D03*
X0307781Y0430512D03*
X0305881Y0430512D03*
X0305881Y0304363D03*
X0307781Y0304363D03*
X0309781Y0304363D03*
X0311781Y0304363D03*
X0313681Y0304363D03*
X0313681Y0286763D03*
X0311781Y0286763D03*
X0309781Y0286763D03*
X0307781Y0286763D03*
X0305881Y0286763D03*
X0305881Y0166863D03*
X0307781Y0166863D03*
X0309781Y0166863D03*
X0311781Y0166863D03*
X0313681Y0166863D03*
X0313681Y0149263D03*
X0311781Y0149263D03*
X0309781Y0149263D03*
X0307781Y0149263D03*
X0305881Y0149263D03*
D18*
X0270000Y0111500D03*
X0270000Y0106500D03*
X0270000Y0101500D03*
X0270000Y0096500D03*
X0270000Y0091500D03*
X0270000Y0086500D03*
X0270000Y0081500D03*
X0270000Y0076500D03*
X0233000Y0076500D03*
X0233000Y0081500D03*
X0233000Y0086500D03*
X0233000Y0091500D03*
X0233000Y0096500D03*
X0233000Y0101500D03*
X0233000Y0106500D03*
X0233000Y0111500D03*
X0233000Y0214000D03*
X0233000Y0219000D03*
X0233000Y0224000D03*
X0233000Y0229000D03*
X0233000Y0234000D03*
X0233000Y0239000D03*
X0233000Y0244000D03*
X0233000Y0249000D03*
X0270000Y0249000D03*
X0270000Y0244000D03*
X0270000Y0239000D03*
X0270000Y0234000D03*
X0270000Y0229000D03*
X0270000Y0224000D03*
X0270000Y0219000D03*
X0270000Y0214000D03*
X0270000Y0357750D03*
X0270000Y0362750D03*
X0270000Y0367750D03*
X0270000Y0372750D03*
X0270000Y0377750D03*
X0270000Y0382750D03*
X0270000Y0387750D03*
X0270000Y0392750D03*
X0233000Y0392750D03*
X0233000Y0387750D03*
X0233000Y0382750D03*
X0233000Y0377750D03*
X0233000Y0372750D03*
X0233000Y0367750D03*
X0233000Y0362750D03*
X0233000Y0357750D03*
D19*
X0324000Y0326687D03*
X0324000Y0318813D03*
X0324000Y0189187D03*
X0324000Y0181313D03*
X0324000Y0462563D03*
X0324000Y0470437D03*
D20*
X0278325Y0470825D03*
X0278325Y0468325D03*
X0278325Y0473425D03*
X0278325Y0475925D03*
X0260925Y0475925D03*
X0260925Y0473425D03*
X0260925Y0470825D03*
X0260925Y0468325D03*
X0260925Y0332175D03*
X0260925Y0329675D03*
X0260925Y0327075D03*
X0260925Y0324575D03*
X0278325Y0324575D03*
X0278325Y0327075D03*
X0278325Y0329675D03*
X0278325Y0332175D03*
X0278325Y0194675D03*
X0278325Y0192175D03*
X0278325Y0189575D03*
X0278325Y0187075D03*
X0260925Y0187075D03*
X0260925Y0189575D03*
X0260925Y0192175D03*
X0260925Y0194675D03*
D21*
X0296350Y0196599D03*
X0296350Y0191450D03*
X0296350Y0186300D03*
X0296350Y0181151D03*
X0316650Y0181151D03*
X0316650Y0186300D03*
X0316650Y0191450D03*
X0316650Y0196599D03*
X0316650Y0318651D03*
X0316650Y0323800D03*
X0316650Y0328950D03*
X0316650Y0334099D03*
X0296350Y0334099D03*
X0296350Y0328950D03*
X0296350Y0323800D03*
X0296350Y0318651D03*
X0296350Y0462401D03*
X0296350Y0467550D03*
X0296350Y0472700D03*
X0296350Y0477849D03*
X0316650Y0477849D03*
X0316650Y0472700D03*
X0316650Y0467550D03*
X0316650Y0462401D03*
D22*
X0237504Y0418375D03*
X0235496Y0418375D03*
X0235496Y0274625D03*
X0237504Y0274625D03*
X0237504Y0137125D03*
X0235496Y0137125D03*
D23*
X0275250Y0165496D03*
X0275250Y0167504D03*
X0275250Y0302996D03*
X0275250Y0305004D03*
X0275250Y0446746D03*
X0275250Y0448754D03*
D24*
X0296500Y0371721D03*
X0296500Y0365029D03*
X0296500Y0227971D03*
X0296500Y0221279D03*
X0296500Y0090471D03*
X0296500Y0083779D03*
D25*
X0266500Y0142750D03*
X0266500Y0147750D03*
X0266500Y0152750D03*
X0266500Y0157750D03*
X0266500Y0162750D03*
X0266500Y0167750D03*
X0266500Y0172750D03*
X0261500Y0172750D03*
X0261500Y0167750D03*
X0261500Y0162750D03*
X0261500Y0157750D03*
X0261500Y0152750D03*
X0261500Y0147750D03*
X0261500Y0142750D03*
X0256500Y0142750D03*
X0256500Y0147750D03*
X0256500Y0152750D03*
X0256500Y0157750D03*
X0256500Y0162750D03*
X0256500Y0167750D03*
X0256500Y0172750D03*
X0246500Y0172750D03*
X0246500Y0167750D03*
X0246500Y0162750D03*
X0246500Y0157750D03*
X0246500Y0152750D03*
X0246500Y0147750D03*
X0246500Y0142750D03*
X0241500Y0142750D03*
X0236500Y0142750D03*
X0236500Y0147750D03*
X0241500Y0147750D03*
X0241500Y0152750D03*
X0236500Y0152750D03*
X0236500Y0157750D03*
X0241500Y0157750D03*
X0241500Y0162750D03*
X0236500Y0167750D03*
X0236500Y0172750D03*
X0231500Y0172750D03*
X0231500Y0167750D03*
X0231500Y0157750D03*
X0231500Y0152750D03*
X0231500Y0147750D03*
X0231500Y0142750D03*
X0231500Y0280250D03*
X0231500Y0285250D03*
X0231500Y0290250D03*
X0231500Y0295250D03*
X0236500Y0295250D03*
X0241500Y0295250D03*
X0241500Y0290250D03*
X0236500Y0290250D03*
X0236500Y0285250D03*
X0241500Y0285250D03*
X0241500Y0280250D03*
X0236500Y0280250D03*
X0246500Y0280250D03*
X0246500Y0285250D03*
X0246500Y0290250D03*
X0246500Y0295250D03*
X0246500Y0300250D03*
X0246500Y0305250D03*
X0246500Y0310250D03*
X0236500Y0310250D03*
X0236500Y0305250D03*
X0231500Y0305250D03*
X0231500Y0310250D03*
X0241500Y0300250D03*
X0256500Y0300250D03*
X0256500Y0295250D03*
X0256500Y0290250D03*
X0256500Y0285250D03*
X0256500Y0280250D03*
X0261500Y0280250D03*
X0261500Y0285250D03*
X0261500Y0290250D03*
X0261500Y0295250D03*
X0261500Y0300250D03*
X0261500Y0305250D03*
X0261500Y0310250D03*
X0256500Y0310250D03*
X0256500Y0305250D03*
X0266500Y0305250D03*
X0266500Y0300250D03*
X0266500Y0295250D03*
X0266500Y0290250D03*
X0266500Y0285250D03*
X0266500Y0280250D03*
X0266500Y0310250D03*
X0266500Y0424000D03*
X0266500Y0429000D03*
X0266500Y0434000D03*
X0266500Y0439000D03*
X0266500Y0444000D03*
X0266500Y0449000D03*
X0266500Y0454000D03*
X0261500Y0454000D03*
X0261500Y0449000D03*
X0261500Y0444000D03*
X0261500Y0439000D03*
X0261500Y0434000D03*
X0261500Y0429000D03*
X0261500Y0424000D03*
X0256500Y0424000D03*
X0256500Y0429000D03*
X0256500Y0434000D03*
X0256500Y0439000D03*
X0256500Y0444000D03*
X0256500Y0449000D03*
X0256500Y0454000D03*
X0246500Y0454000D03*
X0246500Y0449000D03*
X0246500Y0444000D03*
X0246500Y0439000D03*
X0246500Y0434000D03*
X0246500Y0429000D03*
X0246500Y0424000D03*
X0241500Y0424000D03*
X0236500Y0424000D03*
X0236500Y0429000D03*
X0241500Y0429000D03*
X0241500Y0434000D03*
X0236500Y0434000D03*
X0236500Y0439000D03*
X0241500Y0439000D03*
X0241500Y0444000D03*
X0236500Y0449000D03*
X0236500Y0454000D03*
X0231500Y0454000D03*
X0231500Y0449000D03*
X0231500Y0439000D03*
X0231500Y0434000D03*
X0231500Y0429000D03*
X0231500Y0424000D03*
D26*
X0182125Y0420525D03*
X0172125Y0425925D03*
X0182125Y0431325D03*
X0172125Y0436725D03*
X0182125Y0442125D03*
X0172125Y0447525D03*
X0182125Y0452925D03*
X0172125Y0458325D03*
X0182125Y0463725D03*
X0378075Y0477750D03*
X0388975Y0477750D03*
X0399775Y0477750D03*
X0410675Y0477750D03*
X0421575Y0477750D03*
X0432375Y0477750D03*
X0443275Y0477750D03*
X0454175Y0477750D03*
X0464975Y0477750D03*
X0475875Y0477750D03*
X0486775Y0477750D03*
X0497575Y0477750D03*
X0508475Y0477750D03*
X0519375Y0477750D03*
X0530275Y0477750D03*
X0541075Y0477750D03*
X0551975Y0477750D03*
X0562875Y0477750D03*
X0573675Y0477750D03*
X0568275Y0487750D03*
X0557375Y0487750D03*
X0546575Y0487750D03*
X0535675Y0487750D03*
X0524775Y0487750D03*
X0513975Y0487750D03*
X0503075Y0487750D03*
X0492175Y0487750D03*
X0481275Y0487750D03*
X0470475Y0487750D03*
X0459575Y0487750D03*
X0448675Y0487750D03*
X0437875Y0487750D03*
X0426975Y0487750D03*
X0416075Y0487750D03*
X0405275Y0487750D03*
X0394375Y0487750D03*
X0383475Y0487750D03*
X0383375Y0319000D03*
X0394000Y0319000D03*
X0405250Y0319000D03*
X0415875Y0319000D03*
X0427125Y0319000D03*
X0437750Y0319000D03*
X0448375Y0319000D03*
X0459625Y0319000D03*
X0470250Y0319000D03*
X0481500Y0319000D03*
X0492125Y0319000D03*
X0503375Y0319000D03*
X0514000Y0319000D03*
X0508375Y0295250D03*
X0497750Y0295250D03*
X0486500Y0295250D03*
X0475875Y0295250D03*
X0464625Y0295250D03*
X0454000Y0295250D03*
X0443375Y0295250D03*
X0432125Y0295250D03*
X0421500Y0295250D03*
X0410250Y0295250D03*
X0399625Y0295250D03*
X0389000Y0295250D03*
X0377750Y0295250D03*
X0519625Y0295250D03*
X0530250Y0295250D03*
X0540875Y0295250D03*
X0552125Y0295250D03*
X0562750Y0295250D03*
X0573375Y0295250D03*
X0573675Y0105250D03*
X0562775Y0105250D03*
X0551975Y0105250D03*
X0541075Y0105250D03*
X0530175Y0105250D03*
X0519375Y0105250D03*
X0508475Y0105250D03*
X0497575Y0105250D03*
X0486775Y0105250D03*
X0475875Y0105250D03*
X0464975Y0105250D03*
X0454175Y0105250D03*
X0443275Y0105250D03*
X0432375Y0105250D03*
X0421475Y0105250D03*
X0410675Y0105250D03*
X0399775Y0105250D03*
X0388875Y0105250D03*
X0378075Y0105250D03*
X0383475Y0095250D03*
X0394375Y0095250D03*
X0405175Y0095250D03*
X0416075Y0095250D03*
X0426975Y0095250D03*
X0437875Y0095250D03*
X0448675Y0095250D03*
X0459575Y0095250D03*
X0470475Y0095250D03*
X0481275Y0095250D03*
X0492175Y0095250D03*
X0503075Y0095250D03*
X0513875Y0095250D03*
X0524775Y0095250D03*
X0535675Y0095250D03*
X0546475Y0095250D03*
X0557375Y0095250D03*
X0568275Y0095250D03*
D27*
X0600875Y0100250D03*
X0350875Y0100250D03*
X0177125Y0392825D03*
X0177125Y0491425D03*
X0350875Y0482750D03*
X0600875Y0482750D03*
D28*
X0185100Y0349975D03*
X0185100Y0347375D03*
X0185100Y0344875D03*
X0185100Y0342275D03*
X0185100Y0339675D03*
X0185100Y0337175D03*
X0185100Y0334575D03*
X0185100Y0332075D03*
X0185100Y0329475D03*
X0185100Y0326875D03*
X0185100Y0324375D03*
X0185100Y0321775D03*
X0162900Y0321775D03*
X0162900Y0324375D03*
X0162900Y0326875D03*
X0162900Y0329475D03*
X0162900Y0332075D03*
X0162900Y0334575D03*
X0162900Y0337175D03*
X0162900Y0339675D03*
X0162900Y0342275D03*
X0162900Y0344875D03*
X0162900Y0347375D03*
X0162900Y0349975D03*
D29*
X0234625Y0497875D02*
X0234625Y0503875D01*
X0244625Y0503875D02*
X0244625Y0497875D01*
D30*
X0220875Y0500875D03*
X0210875Y0500875D03*
D31*
X0231500Y0461500D02*
X0231500Y0454000D01*
X0235875Y0454000D01*
X0236500Y0454625D01*
X0236500Y0449000D01*
X0241500Y0444000D01*
X0241500Y0439000D02*
X0241500Y0434000D01*
X0246500Y0434000D01*
X0246500Y0439000D01*
X0246500Y0444000D01*
X0246500Y0449000D01*
X0246500Y0454000D01*
X0246500Y0461500D01*
X0236500Y0454000D02*
X0231500Y0454000D01*
X0231500Y0449000D01*
X0236500Y0449000D01*
X0236500Y0439000D02*
X0231500Y0439000D01*
X0236500Y0439000D02*
X0236500Y0434000D01*
X0241500Y0434000D01*
X0241500Y0429000D01*
X0241500Y0420250D01*
X0241500Y0417125D01*
X0241500Y0424000D02*
X0241500Y0429000D01*
X0236500Y0429000D01*
X0236500Y0434000D01*
X0236500Y0439000D02*
X0241500Y0439000D01*
X0246500Y0439000D01*
X0246500Y0434000D02*
X0246500Y0424000D01*
X0246500Y0429000D01*
X0241500Y0429000D01*
X0241500Y0424000D02*
X0246500Y0424000D01*
X0256500Y0424000D02*
X0256500Y0429000D01*
X0261500Y0429000D01*
X0261500Y0424000D01*
X0266500Y0424000D01*
X0266500Y0417125D01*
X0266500Y0424000D02*
X0266500Y0429000D01*
X0261500Y0429000D01*
X0261500Y0424000D02*
X0256500Y0424000D01*
X0256500Y0434000D02*
X0261500Y0434000D01*
X0266500Y0434000D01*
X0266500Y0439000D01*
X0275250Y0439000D01*
X0266500Y0439000D02*
X0266500Y0444000D01*
X0261500Y0444000D01*
X0261500Y0439000D01*
X0256500Y0439000D01*
X0256500Y0434000D01*
X0256500Y0439000D02*
X0256500Y0444000D01*
X0261500Y0444000D01*
X0261500Y0439000D02*
X0266500Y0439000D01*
X0256500Y0449000D02*
X0256500Y0454000D01*
X0261500Y0454000D01*
X0266500Y0454000D01*
X0275250Y0460250D01*
X0260925Y0462175D02*
X0260925Y0468325D01*
X0260925Y0462175D02*
X0260875Y0462125D01*
X0231500Y0424000D02*
X0231500Y0417750D01*
X0239000Y0405875D02*
X0239059Y0399625D01*
X0239059Y0364059D01*
X0237750Y0362750D01*
X0233000Y0362750D01*
X0233000Y0357750D01*
X0233000Y0362750D02*
X0222750Y0362750D01*
X0222125Y0387691D02*
X0232941Y0387691D01*
X0233000Y0387750D01*
X0214000Y0387750D01*
X0233000Y0392750D02*
X0233941Y0393691D01*
X0233941Y0399625D01*
X0263941Y0399625D02*
X0263941Y0406441D01*
X0264000Y0406500D01*
X0263941Y0399625D02*
X0263941Y0358434D01*
X0264625Y0357750D01*
X0270000Y0357750D01*
X0279625Y0357750D01*
X0272750Y0357750D02*
X0270000Y0357750D01*
X0295875Y0378375D02*
X0300250Y0378375D01*
X0304050Y0374575D01*
X0304050Y0373175D01*
X0311450Y0363575D02*
X0311450Y0362175D01*
X0314625Y0359000D01*
X0288316Y0387691D02*
X0279625Y0387691D01*
X0272184Y0387691D01*
X0272125Y0387750D01*
X0270000Y0387750D01*
X0270000Y0392750D02*
X0269059Y0393691D01*
X0269059Y0399625D01*
X0270000Y0392750D02*
X0279566Y0392750D01*
X0279625Y0392809D01*
X0279625Y0400250D01*
X0288375Y0387750D02*
X0288316Y0387691D01*
X0297125Y0412750D02*
X0297125Y0421441D01*
X0260925Y0324575D02*
X0260925Y0318425D01*
X0260875Y0318375D01*
X0261500Y0310250D02*
X0256500Y0310250D01*
X0256500Y0305250D01*
X0256500Y0300250D02*
X0256500Y0295250D01*
X0261500Y0295250D01*
X0261500Y0300250D01*
X0256500Y0300250D01*
X0256500Y0295250D02*
X0256500Y0290250D01*
X0261500Y0290250D01*
X0266500Y0290250D01*
X0266500Y0295250D01*
X0275250Y0295250D01*
X0266500Y0295250D02*
X0266500Y0300250D01*
X0261500Y0300250D01*
X0261500Y0295250D02*
X0266500Y0295250D01*
X0266500Y0285250D02*
X0261500Y0285250D01*
X0261500Y0280250D01*
X0266500Y0280250D01*
X0266500Y0273375D01*
X0266500Y0280250D02*
X0266500Y0285250D01*
X0261500Y0285250D02*
X0256500Y0285250D01*
X0256500Y0280250D01*
X0261500Y0280250D01*
X0246500Y0280250D02*
X0246500Y0290250D01*
X0241500Y0290250D01*
X0236500Y0290250D01*
X0236500Y0285250D01*
X0241500Y0285250D01*
X0241500Y0276500D01*
X0241500Y0273375D01*
X0241500Y0280250D02*
X0241500Y0285250D01*
X0241500Y0290250D01*
X0241500Y0295250D01*
X0236500Y0295250D01*
X0236500Y0290250D01*
X0236500Y0295250D02*
X0231500Y0295250D01*
X0241500Y0295250D02*
X0246500Y0295250D01*
X0246500Y0300250D01*
X0246500Y0305250D01*
X0246500Y0310250D01*
X0246500Y0317750D01*
X0236500Y0310875D02*
X0235875Y0310250D01*
X0231500Y0310250D01*
X0231500Y0317750D01*
X0231500Y0310250D02*
X0236500Y0310250D01*
X0236500Y0310875D02*
X0236500Y0305250D01*
X0241500Y0300250D01*
X0236500Y0305250D02*
X0231500Y0305250D01*
X0231500Y0310250D01*
X0246500Y0295250D02*
X0246500Y0290250D01*
X0246500Y0285250D02*
X0241500Y0285250D01*
X0241500Y0280250D02*
X0246500Y0280250D01*
X0246500Y0285250D01*
X0231500Y0280250D02*
X0231500Y0274000D01*
X0239000Y0262125D02*
X0239059Y0255875D01*
X0239059Y0220309D01*
X0237750Y0219000D01*
X0233000Y0219000D01*
X0233000Y0214000D01*
X0233000Y0219000D02*
X0222750Y0219000D01*
X0224625Y0226500D02*
X0227125Y0229000D01*
X0231500Y0229000D01*
X0232941Y0243941D02*
X0222125Y0243941D01*
X0214000Y0244000D02*
X0233000Y0244000D01*
X0232941Y0243941D01*
X0233000Y0249000D02*
X0233941Y0249941D01*
X0233941Y0255875D01*
X0263941Y0255875D02*
X0263941Y0262691D01*
X0264000Y0262750D01*
X0263941Y0255875D02*
X0263941Y0214684D01*
X0264625Y0214000D01*
X0270000Y0214000D01*
X0279625Y0214000D01*
X0272750Y0214000D02*
X0270000Y0214000D01*
X0295875Y0234625D02*
X0300250Y0234625D01*
X0304050Y0230825D01*
X0304050Y0229425D01*
X0311450Y0219825D02*
X0311450Y0218425D01*
X0314625Y0215250D01*
X0288316Y0243941D02*
X0279625Y0243941D01*
X0272184Y0243941D01*
X0272125Y0244000D01*
X0270000Y0244000D01*
X0270000Y0249000D02*
X0269059Y0249941D01*
X0269059Y0255875D01*
X0270000Y0249000D02*
X0279566Y0249000D01*
X0279625Y0249059D01*
X0279625Y0256500D01*
X0288375Y0244000D02*
X0288316Y0243941D01*
X0297125Y0269000D02*
X0297125Y0277691D01*
X0275250Y0316500D02*
X0266500Y0310250D01*
X0261500Y0310250D01*
X0167750Y0357750D02*
X0162900Y0352900D01*
X0162900Y0349975D01*
X0260925Y0187075D02*
X0260925Y0180925D01*
X0260875Y0180875D01*
X0261500Y0172750D02*
X0256500Y0172750D01*
X0256500Y0167750D01*
X0256500Y0162750D02*
X0256500Y0157750D01*
X0261500Y0157750D01*
X0261500Y0162750D01*
X0256500Y0162750D01*
X0256500Y0157750D02*
X0256500Y0152750D01*
X0261500Y0152750D01*
X0266500Y0152750D01*
X0266500Y0157750D01*
X0275250Y0157750D01*
X0266500Y0157750D02*
X0266500Y0162750D01*
X0261500Y0162750D01*
X0261500Y0157750D02*
X0266500Y0157750D01*
X0266500Y0147750D02*
X0261500Y0147750D01*
X0261500Y0142750D01*
X0266500Y0142750D01*
X0266500Y0135875D01*
X0266500Y0142750D02*
X0266500Y0147750D01*
X0261500Y0147750D02*
X0256500Y0147750D01*
X0256500Y0142750D01*
X0261500Y0142750D01*
X0246500Y0142750D02*
X0246500Y0152750D01*
X0241500Y0152750D01*
X0236500Y0152750D01*
X0236500Y0147750D01*
X0241500Y0147750D01*
X0241500Y0139000D01*
X0241500Y0135875D01*
X0241500Y0142750D02*
X0241500Y0147750D01*
X0241500Y0152750D01*
X0241500Y0157750D01*
X0236500Y0157750D01*
X0236500Y0152750D01*
X0236500Y0157750D02*
X0231500Y0157750D01*
X0231500Y0167750D02*
X0231500Y0172750D01*
X0231500Y0180250D01*
X0231500Y0172750D02*
X0235875Y0172750D01*
X0236500Y0173375D01*
X0236500Y0167750D01*
X0241500Y0162750D01*
X0241500Y0157750D02*
X0246500Y0157750D01*
X0246500Y0162750D01*
X0246500Y0167750D01*
X0246500Y0172750D01*
X0246500Y0180250D01*
X0236500Y0172750D02*
X0231500Y0172750D01*
X0231500Y0167750D02*
X0236500Y0167750D01*
X0246500Y0157750D02*
X0246500Y0152750D01*
X0246500Y0147750D02*
X0241500Y0147750D01*
X0241500Y0142750D02*
X0246500Y0142750D01*
X0246500Y0147750D01*
X0231500Y0142750D02*
X0231500Y0136500D01*
X0239000Y0124625D02*
X0239059Y0118375D01*
X0239059Y0082809D01*
X0237750Y0081500D01*
X0233000Y0081500D01*
X0233000Y0076500D01*
X0233000Y0081500D02*
X0222750Y0081500D01*
X0208375Y0101500D02*
X0204625Y0101500D01*
X0214000Y0106500D02*
X0233000Y0106500D01*
X0232941Y0106441D01*
X0222125Y0106441D01*
X0233000Y0111500D02*
X0233941Y0112441D01*
X0233941Y0118375D01*
X0263941Y0118375D02*
X0263941Y0125191D01*
X0264000Y0125250D01*
X0263941Y0118375D02*
X0263941Y0077184D01*
X0264625Y0076500D01*
X0270000Y0076500D01*
X0279625Y0076500D01*
X0272750Y0076500D02*
X0270000Y0076500D01*
X0295875Y0097125D02*
X0300250Y0097125D01*
X0304050Y0093325D01*
X0304050Y0091925D01*
X0311450Y0082325D02*
X0311450Y0080925D01*
X0314625Y0077750D01*
X0288316Y0106441D02*
X0279625Y0106441D01*
X0272184Y0106441D01*
X0272125Y0106500D01*
X0270000Y0106500D01*
X0270000Y0111500D02*
X0269059Y0112441D01*
X0269059Y0118375D01*
X0279625Y0119000D02*
X0279625Y0111559D01*
X0279566Y0111500D01*
X0270000Y0111500D01*
X0288316Y0106441D02*
X0288375Y0106500D01*
X0297125Y0131500D02*
X0297125Y0140191D01*
X0275250Y0179000D02*
X0266500Y0172750D01*
X0261500Y0172750D01*
D32*
X0275250Y0179000D03*
X0275250Y0157750D03*
X0266500Y0135875D03*
X0241500Y0135875D03*
X0231500Y0136500D03*
X0231500Y0180250D03*
X0246500Y0180250D03*
X0241500Y0273375D03*
X0231500Y0274000D03*
X0266500Y0273375D03*
X0275250Y0295250D03*
X0275250Y0316500D03*
X0246500Y0317750D03*
X0231500Y0317750D03*
X0241500Y0417125D03*
X0231500Y0417750D03*
X0266500Y0417125D03*
X0275250Y0439000D03*
X0275250Y0460250D03*
X0246500Y0461500D03*
X0231500Y0461500D03*
D33*
X0231500Y0465865D01*
X0235260Y0469625D01*
X0242740Y0469625D02*
X0246500Y0465865D01*
X0246500Y0461500D01*
X0261500Y0449000D02*
X0264000Y0451500D01*
X0273375Y0451500D01*
X0274266Y0452391D01*
X0275250Y0452391D01*
X0275250Y0454359D02*
X0275250Y0460250D01*
X0278990Y0460250D01*
X0283375Y0455865D01*
X0283375Y0448385D02*
X0282750Y0447760D01*
X0282750Y0443375D01*
X0278375Y0439000D01*
X0275250Y0439000D01*
X0275250Y0430865D01*
X0276500Y0429615D01*
X0275250Y0439000D02*
X0275250Y0446746D01*
X0275250Y0448754D02*
X0266746Y0448754D01*
X0266500Y0449000D01*
X0285300Y0468325D02*
X0286500Y0467125D01*
X0295925Y0467125D01*
X0296350Y0467550D01*
X0296350Y0472700D01*
X0294000Y0475250D02*
X0299625Y0475250D01*
X0307125Y0467750D01*
X0316450Y0467750D01*
X0316650Y0467550D01*
X0316650Y0462401D01*
X0323838Y0462401D01*
X0324000Y0462563D01*
X0316650Y0472700D02*
X0316650Y0477849D01*
X0313624Y0480875D01*
X0273375Y0480875D01*
X0272750Y0480250D01*
X0272750Y0472125D01*
X0274050Y0470825D01*
X0278325Y0470825D01*
X0278325Y0468325D02*
X0285300Y0468325D01*
X0283375Y0471500D02*
X0290250Y0471500D01*
X0294000Y0475250D01*
X0296251Y0477750D02*
X0287750Y0477750D01*
X0285925Y0475925D01*
X0285875Y0475875D01*
X0285925Y0475925D02*
X0278325Y0475925D01*
X0278325Y0473425D02*
X0281450Y0473425D01*
X0283375Y0471500D01*
X0296251Y0477750D02*
X0296350Y0477849D01*
X0296350Y0462401D02*
X0295250Y0461300D01*
X0295250Y0450250D01*
X0297388Y0448112D01*
X0305881Y0448112D01*
X0307781Y0448112D02*
X0307781Y0452094D01*
X0307125Y0452750D01*
X0301500Y0452750D01*
X0306500Y0457750D02*
X0308375Y0457750D01*
X0309625Y0456500D01*
X0309625Y0448269D01*
X0309781Y0448112D01*
X0311781Y0448112D02*
X0311781Y0454906D01*
X0312750Y0455875D01*
X0316500Y0455875D01*
X0313681Y0448112D02*
X0314044Y0447750D01*
X0318375Y0447750D01*
X0320250Y0445875D01*
X0320250Y0395875D01*
X0317750Y0393375D01*
X0302125Y0393375D02*
X0284000Y0375250D01*
X0277750Y0375250D01*
X0275250Y0377750D01*
X0270000Y0377750D01*
X0270000Y0382750D02*
X0277125Y0382750D01*
X0279625Y0380250D01*
X0276500Y0372750D02*
X0270000Y0372750D01*
X0276500Y0372750D02*
X0279000Y0370250D01*
X0290875Y0367125D02*
X0290875Y0359000D01*
X0292125Y0357750D01*
X0306500Y0357750D01*
X0307750Y0359000D01*
X0307750Y0362750D01*
X0307750Y0364625D02*
X0307750Y0367125D01*
X0306500Y0368375D01*
X0292125Y0368375D01*
X0290875Y0367125D01*
X0296500Y0365029D02*
X0296904Y0364625D01*
X0300250Y0364625D01*
X0301500Y0363375D01*
X0303850Y0363375D01*
X0304050Y0363575D01*
X0300250Y0371500D02*
X0296721Y0371500D01*
X0296500Y0371721D01*
X0300250Y0371500D02*
X0301500Y0372750D01*
X0303625Y0372750D01*
X0304050Y0373175D01*
X0307750Y0373175D01*
X0311450Y0373175D02*
X0311450Y0411450D01*
X0317750Y0417750D01*
X0317750Y0426444D01*
X0313681Y0430512D01*
X0313994Y0430200D01*
X0311781Y0430512D02*
X0311781Y0423778D01*
X0314684Y0420875D01*
X0314684Y0418434D01*
X0312750Y0416500D01*
X0304000Y0416500D01*
X0302125Y0418375D01*
X0302125Y0421441D01*
X0297125Y0421441D01*
X0297125Y0426500D02*
X0293375Y0426500D01*
X0291500Y0424625D01*
X0294566Y0429118D02*
X0297125Y0426500D01*
X0297125Y0426559D02*
X0294566Y0429118D01*
X0294566Y0435250D01*
X0299684Y0435250D02*
X0299684Y0433941D01*
X0302125Y0431500D01*
X0304894Y0431500D01*
X0305881Y0430512D01*
X0307750Y0430481D02*
X0307781Y0430512D01*
X0307750Y0430481D02*
X0307750Y0425250D01*
X0307125Y0424625D01*
X0305875Y0424625D01*
X0303941Y0426559D01*
X0302125Y0426559D01*
X0297125Y0426559D01*
X0309781Y0430512D02*
X0309781Y0421090D01*
X0309566Y0420875D01*
X0276500Y0422135D02*
X0271490Y0417125D01*
X0266500Y0417125D01*
X0241500Y0420250D02*
X0239000Y0420250D01*
X0237504Y0418754D01*
X0237504Y0418375D01*
X0235496Y0418375D02*
X0235496Y0422996D01*
X0236500Y0424000D01*
X0236746Y0423754D01*
X0231500Y0417750D02*
X0224625Y0417750D01*
X0222125Y0420250D01*
X0222125Y0425260D01*
X0220875Y0426510D01*
X0220875Y0433990D02*
X0231490Y0433990D01*
X0231500Y0434000D01*
X0202125Y0432125D02*
X0186500Y0447750D01*
X0172350Y0447750D01*
X0172125Y0447525D01*
X0181950Y0452750D02*
X0182125Y0452925D01*
X0181950Y0452750D02*
X0159000Y0452750D01*
X0157125Y0450875D01*
X0157125Y0349000D01*
X0158750Y0347375D01*
X0162900Y0347375D01*
X0162900Y0342275D02*
X0185100Y0342275D01*
X0156025Y0342275D01*
X0153375Y0342125D01*
X0155875Y0337125D02*
X0150250Y0337125D01*
X0148375Y0339000D01*
X0148375Y0454625D01*
X0152125Y0458375D01*
X0172075Y0458375D01*
X0172125Y0458325D01*
X0172350Y0436500D02*
X0186500Y0436500D01*
X0198375Y0424625D01*
X0198375Y0384000D01*
X0182125Y0367750D01*
X0182125Y0355875D01*
X0185100Y0352900D01*
X0185100Y0349975D01*
X0185100Y0347375D02*
X0188000Y0347375D01*
X0190250Y0349625D01*
X0190250Y0372125D01*
X0202125Y0384000D01*
X0202125Y0432125D01*
X0182125Y0420525D02*
X0194000Y0408650D01*
X0194000Y0384000D01*
X0167750Y0357750D01*
X0162900Y0339675D02*
X0158425Y0339675D01*
X0155875Y0337125D01*
X0157125Y0334625D02*
X0159625Y0337125D01*
X0162850Y0337125D01*
X0162900Y0337175D01*
X0162900Y0339675D02*
X0185100Y0339675D01*
X0180925Y0339675D01*
X0179625Y0338375D01*
X0179625Y0334575D01*
X0185100Y0334575D01*
X0175300Y0334575D01*
X0175250Y0334625D01*
X0171500Y0334575D02*
X0171500Y0330875D01*
X0172900Y0329475D01*
X0175250Y0329475D01*
X0175500Y0329225D01*
X0175500Y0324375D01*
X0185100Y0324375D01*
X0185100Y0329475D02*
X0175250Y0329475D01*
X0172900Y0329475D02*
X0162900Y0329475D01*
X0163375Y0327125D02*
X0152750Y0327125D01*
X0150875Y0325250D01*
X0150875Y0155250D01*
X0204625Y0101500D01*
X0208375Y0101500D02*
X0231500Y0101500D01*
X0230875Y0096500D02*
X0199625Y0096500D01*
X0205875Y0091500D02*
X0201500Y0087125D01*
X0195875Y0087125D01*
X0205875Y0091500D02*
X0231500Y0091500D01*
X0233000Y0111500D02*
X0214000Y0111500D01*
X0210250Y0115250D01*
X0224625Y0136500D02*
X0231500Y0136500D01*
X0235496Y0137125D02*
X0235496Y0141746D01*
X0236500Y0142750D01*
X0236746Y0142504D01*
X0239000Y0139000D02*
X0241500Y0139000D01*
X0239000Y0139000D02*
X0237504Y0137504D01*
X0237504Y0137125D01*
X0224625Y0136500D02*
X0222125Y0139000D01*
X0222125Y0144010D01*
X0220875Y0145260D01*
X0220875Y0152740D02*
X0231490Y0152740D01*
X0231500Y0152750D01*
X0261500Y0167750D02*
X0264000Y0170250D01*
X0273375Y0170250D01*
X0274266Y0171141D01*
X0275250Y0171141D01*
X0275250Y0173109D02*
X0275250Y0179000D01*
X0278990Y0179000D01*
X0283375Y0174615D01*
X0283375Y0167135D02*
X0282750Y0166510D01*
X0282750Y0162125D01*
X0278375Y0157750D01*
X0275250Y0157750D01*
X0275250Y0149615D01*
X0276500Y0148365D01*
X0276500Y0140885D02*
X0271490Y0135875D01*
X0266500Y0135875D01*
X0291500Y0143375D02*
X0293375Y0145250D01*
X0297125Y0145250D01*
X0294566Y0147868D01*
X0297125Y0145309D01*
X0302125Y0145309D01*
X0303941Y0145309D01*
X0305875Y0143375D01*
X0307125Y0143375D01*
X0307750Y0144000D01*
X0307750Y0149231D01*
X0307781Y0149263D01*
X0305881Y0149263D02*
X0304894Y0150250D01*
X0302125Y0150250D01*
X0299684Y0152691D01*
X0299684Y0154000D01*
X0294566Y0154000D02*
X0294566Y0147868D01*
X0297125Y0140191D02*
X0302125Y0140191D01*
X0302125Y0137125D01*
X0304000Y0135250D01*
X0312750Y0135250D01*
X0314684Y0137184D01*
X0314684Y0139625D01*
X0311781Y0142528D01*
X0311781Y0149263D01*
X0313681Y0149263D02*
X0317750Y0145194D01*
X0317750Y0136500D01*
X0311450Y0130200D01*
X0311450Y0091925D01*
X0307750Y0091925D02*
X0304050Y0091925D01*
X0303625Y0091500D01*
X0301500Y0091500D01*
X0300250Y0090250D01*
X0296721Y0090250D01*
X0296500Y0090471D01*
X0292125Y0087125D02*
X0306500Y0087125D01*
X0307750Y0085875D01*
X0307750Y0083375D01*
X0307750Y0081500D02*
X0307750Y0077750D01*
X0306500Y0076500D01*
X0292125Y0076500D01*
X0290875Y0077750D01*
X0290875Y0085875D01*
X0292125Y0087125D01*
X0296500Y0083779D02*
X0296904Y0083375D01*
X0300250Y0083375D01*
X0301500Y0082125D01*
X0303850Y0082125D01*
X0304050Y0082325D01*
X0284000Y0094000D02*
X0302125Y0112125D01*
X0317750Y0112125D02*
X0320250Y0114625D01*
X0320250Y0164625D01*
X0318375Y0166500D01*
X0314044Y0166500D01*
X0313681Y0166863D01*
X0311781Y0166863D02*
X0311781Y0173656D01*
X0312750Y0174625D01*
X0316500Y0174625D01*
X0316650Y0181151D02*
X0323838Y0181151D01*
X0324000Y0181313D01*
X0316650Y0181151D02*
X0316650Y0186300D01*
X0316450Y0186500D01*
X0307125Y0186500D01*
X0299625Y0194000D01*
X0294000Y0194000D01*
X0290250Y0190250D01*
X0283375Y0190250D01*
X0281450Y0192175D01*
X0278325Y0192175D01*
X0278325Y0194675D02*
X0285925Y0194675D01*
X0285875Y0194625D01*
X0285925Y0194675D02*
X0287750Y0196500D01*
X0296251Y0196500D01*
X0296350Y0196599D01*
X0296350Y0191450D02*
X0296350Y0186300D01*
X0295925Y0185875D01*
X0286500Y0185875D01*
X0285300Y0187075D01*
X0278325Y0187075D01*
X0278325Y0189575D02*
X0274050Y0189575D01*
X0272750Y0190875D01*
X0272750Y0199000D01*
X0273375Y0199625D01*
X0313624Y0199625D01*
X0316650Y0196599D01*
X0316650Y0191450D01*
X0296350Y0181151D02*
X0295250Y0180050D01*
X0295250Y0169000D01*
X0297388Y0166863D01*
X0305881Y0166863D01*
X0307781Y0166863D02*
X0307781Y0170844D01*
X0307125Y0171500D01*
X0301500Y0171500D01*
X0306500Y0176500D02*
X0308375Y0176500D01*
X0309625Y0175250D01*
X0309625Y0167019D01*
X0309781Y0166863D01*
X0309781Y0149263D02*
X0309781Y0139840D01*
X0309566Y0139625D01*
X0313994Y0148950D02*
X0313681Y0149263D01*
X0275250Y0157750D02*
X0275250Y0165496D01*
X0275250Y0167504D02*
X0266746Y0167504D01*
X0266500Y0167750D01*
X0246500Y0180250D02*
X0246500Y0184615D01*
X0242740Y0188375D01*
X0235260Y0188375D02*
X0231500Y0184615D01*
X0231500Y0180250D01*
X0224625Y0226500D02*
X0195875Y0226500D01*
X0200250Y0232750D02*
X0199625Y0233375D01*
X0200250Y0232750D02*
X0225250Y0232750D01*
X0226500Y0234000D01*
X0231500Y0234000D01*
X0232125Y0239000D02*
X0179000Y0239000D01*
X0207750Y0249000D02*
X0233000Y0249000D01*
X0231500Y0274000D02*
X0224625Y0274000D01*
X0222125Y0276500D01*
X0222125Y0281510D01*
X0220875Y0282760D01*
X0220875Y0290240D02*
X0231490Y0290240D01*
X0231500Y0290250D01*
X0236500Y0280250D02*
X0235496Y0279246D01*
X0235496Y0274625D01*
X0237504Y0274625D02*
X0237504Y0275004D01*
X0239000Y0276500D01*
X0241500Y0276500D01*
X0236746Y0280004D02*
X0236500Y0280250D01*
X0266500Y0273375D02*
X0271490Y0273375D01*
X0276500Y0278385D01*
X0276500Y0285865D02*
X0275250Y0287115D01*
X0275250Y0295250D01*
X0278375Y0295250D01*
X0282750Y0299625D01*
X0282750Y0304010D01*
X0283375Y0304635D01*
X0283375Y0312115D02*
X0278990Y0316500D01*
X0275250Y0316500D01*
X0275250Y0310609D01*
X0275250Y0308641D02*
X0274266Y0308641D01*
X0273375Y0307750D01*
X0264000Y0307750D01*
X0261500Y0305250D01*
X0266500Y0305250D02*
X0266746Y0305004D01*
X0275250Y0305004D01*
X0275250Y0302996D02*
X0275250Y0295250D01*
X0294566Y0291500D02*
X0294566Y0285368D01*
X0297125Y0282750D01*
X0293375Y0282750D01*
X0291500Y0280875D01*
X0294566Y0285368D02*
X0297125Y0282809D01*
X0302125Y0282809D01*
X0303941Y0282809D01*
X0305875Y0280875D01*
X0307125Y0280875D01*
X0307750Y0281500D01*
X0307750Y0286731D01*
X0307781Y0286763D01*
X0305881Y0286763D02*
X0304894Y0287750D01*
X0302125Y0287750D01*
X0299684Y0290191D01*
X0299684Y0291500D01*
X0309781Y0286763D02*
X0309781Y0277340D01*
X0309566Y0277125D01*
X0311781Y0280028D02*
X0311781Y0286763D01*
X0313681Y0286763D02*
X0317750Y0282694D01*
X0317750Y0274000D01*
X0311450Y0267700D01*
X0311450Y0229425D01*
X0307750Y0229425D02*
X0304050Y0229425D01*
X0303625Y0229000D01*
X0301500Y0229000D01*
X0300250Y0227750D01*
X0296721Y0227750D01*
X0296500Y0227971D01*
X0292125Y0224625D02*
X0306500Y0224625D01*
X0307750Y0223375D01*
X0307750Y0220875D01*
X0307750Y0219000D02*
X0307750Y0215250D01*
X0306500Y0214000D01*
X0292125Y0214000D01*
X0290875Y0215250D01*
X0290875Y0223375D01*
X0292125Y0224625D01*
X0296500Y0221279D02*
X0296904Y0220875D01*
X0300250Y0220875D01*
X0301500Y0219625D01*
X0303850Y0219625D01*
X0304050Y0219825D01*
X0284000Y0231500D02*
X0302125Y0249625D01*
X0317750Y0249625D02*
X0320250Y0252125D01*
X0320250Y0302125D01*
X0318375Y0304000D01*
X0314044Y0304000D01*
X0313681Y0304363D01*
X0311781Y0304363D02*
X0311781Y0311156D01*
X0312750Y0312125D01*
X0316500Y0312125D01*
X0316650Y0318651D02*
X0323838Y0318651D01*
X0324000Y0318813D01*
X0316650Y0318651D02*
X0316650Y0323800D01*
X0316450Y0324000D01*
X0307125Y0324000D01*
X0299625Y0331500D01*
X0294000Y0331500D01*
X0290250Y0327750D01*
X0283375Y0327750D01*
X0281450Y0329675D01*
X0278325Y0329675D01*
X0278325Y0332175D02*
X0285925Y0332175D01*
X0285875Y0332125D01*
X0285925Y0332175D02*
X0287750Y0334000D01*
X0296251Y0334000D01*
X0296350Y0334099D01*
X0296350Y0328950D02*
X0296350Y0323800D01*
X0295925Y0323375D01*
X0286500Y0323375D01*
X0285300Y0324575D01*
X0278325Y0324575D01*
X0278325Y0327075D02*
X0274050Y0327075D01*
X0272750Y0328375D01*
X0272750Y0336500D01*
X0273375Y0337125D01*
X0313624Y0337125D01*
X0316650Y0334099D01*
X0316650Y0328950D01*
X0296350Y0318651D02*
X0295250Y0317550D01*
X0295250Y0306500D01*
X0297388Y0304363D01*
X0305881Y0304363D01*
X0307781Y0304363D02*
X0307781Y0308344D01*
X0307125Y0309000D01*
X0301500Y0309000D01*
X0306500Y0314000D02*
X0308375Y0314000D01*
X0309625Y0312750D01*
X0309625Y0304519D01*
X0309781Y0304363D01*
X0313681Y0286763D02*
X0313994Y0286450D01*
X0311781Y0280028D02*
X0314684Y0277125D01*
X0314684Y0274684D01*
X0312750Y0272750D01*
X0304000Y0272750D01*
X0302125Y0274625D01*
X0302125Y0277691D01*
X0297125Y0277691D01*
X0277125Y0239000D02*
X0270000Y0239000D01*
X0270000Y0234000D02*
X0275250Y0234000D01*
X0277750Y0231500D01*
X0284000Y0231500D01*
X0279625Y0236500D02*
X0277125Y0239000D01*
X0276500Y0229000D02*
X0270000Y0229000D01*
X0276500Y0229000D02*
X0279000Y0226500D01*
X0207125Y0310875D02*
X0169000Y0310875D01*
X0162900Y0324375D02*
X0175500Y0324375D01*
X0163375Y0332125D02*
X0147750Y0332125D01*
X0146500Y0330875D01*
X0146500Y0240875D01*
X0207125Y0310875D02*
X0209625Y0313375D01*
X0209625Y0317750D01*
X0231500Y0317750D02*
X0231500Y0322115D01*
X0235260Y0325875D01*
X0242740Y0325875D02*
X0246500Y0322115D01*
X0246500Y0317750D01*
X0213375Y0362125D02*
X0196500Y0362125D01*
X0195875Y0362750D01*
X0199625Y0370250D02*
X0215250Y0370250D01*
X0222750Y0377750D01*
X0233000Y0377750D01*
X0233000Y0382750D02*
X0214625Y0382750D01*
X0209625Y0377750D01*
X0224000Y0372750D02*
X0213375Y0362125D01*
X0224000Y0372750D02*
X0233000Y0372750D01*
X0233000Y0392750D02*
X0214000Y0392750D01*
X0210875Y0395875D01*
X0179625Y0334575D02*
X0171500Y0334575D01*
X0162900Y0334575D01*
X0157125Y0334625D02*
X0143375Y0334625D01*
X0270000Y0101500D02*
X0277125Y0101500D01*
X0279625Y0099000D01*
X0275250Y0096500D02*
X0277750Y0094000D01*
X0284000Y0094000D01*
X0279000Y0089000D02*
X0276500Y0091500D01*
X0270000Y0091500D01*
X0270000Y0096500D02*
X0275250Y0096500D01*
D34*
X0195875Y0087125D03*
X0199625Y0096500D03*
X0214000Y0106500D03*
X0210250Y0115250D03*
X0239000Y0124625D03*
X0264000Y0125250D03*
X0279625Y0119000D03*
X0288375Y0106500D03*
X0295875Y0097125D03*
X0302125Y0112125D03*
X0317750Y0112125D03*
X0297125Y0131500D03*
X0291500Y0143375D03*
X0301500Y0171500D03*
X0306500Y0176500D03*
X0316500Y0174625D03*
X0285875Y0194625D03*
X0260875Y0180875D03*
X0279625Y0214000D03*
X0279000Y0226500D03*
X0279625Y0236500D03*
X0288375Y0244000D03*
X0302125Y0249625D03*
X0317750Y0249625D03*
X0295875Y0234625D03*
X0314625Y0215250D03*
X0279625Y0256500D03*
X0264000Y0262750D03*
X0239000Y0262125D03*
X0214000Y0244000D03*
X0207750Y0249000D03*
X0199625Y0233375D03*
X0195875Y0226500D03*
X0179000Y0239000D03*
X0146500Y0240875D03*
X0222750Y0219000D03*
X0297125Y0269000D03*
X0291500Y0280875D03*
X0301500Y0309000D03*
X0306500Y0314000D03*
X0316500Y0312125D03*
X0285875Y0332125D03*
X0260875Y0318375D03*
X0279625Y0357750D03*
X0279000Y0370250D03*
X0279625Y0380250D03*
X0288375Y0387750D03*
X0295875Y0378375D03*
X0302125Y0393375D03*
X0317750Y0393375D03*
X0297125Y0412750D03*
X0291500Y0424625D03*
X0279625Y0400250D03*
X0264000Y0406500D03*
X0239000Y0405875D03*
X0210875Y0395875D03*
X0214000Y0387750D03*
X0209625Y0377750D03*
X0199625Y0370250D03*
X0195875Y0362750D03*
X0222750Y0362750D03*
X0209625Y0317750D03*
X0169000Y0310875D03*
X0143375Y0334625D03*
X0153375Y0342125D03*
X0172350Y0436500D03*
X0260875Y0462125D03*
X0285875Y0475875D03*
X0306500Y0457750D03*
X0301500Y0452750D03*
X0316500Y0455875D03*
X0314625Y0359000D03*
X0279625Y0099000D03*
X0279000Y0089000D03*
X0279625Y0076500D03*
X0314625Y0077750D03*
X0222750Y0081500D03*
D35*
X0378075Y0105250D02*
X0378075Y0477750D01*
X0388975Y0477750D02*
X0388975Y0105350D01*
X0388875Y0105250D01*
X0399775Y0105250D02*
X0399775Y0477750D01*
X0410675Y0477750D02*
X0410675Y0105250D01*
X0421475Y0105250D02*
X0421575Y0105350D01*
X0421575Y0477750D01*
X0432375Y0477750D02*
X0432375Y0105250D01*
X0443275Y0105250D02*
X0443275Y0477750D01*
X0454175Y0477750D02*
X0454175Y0105250D01*
X0464975Y0105250D02*
X0464975Y0477750D01*
X0475875Y0477750D02*
X0475875Y0105250D01*
X0486775Y0105250D02*
X0486775Y0477750D01*
X0497575Y0477750D02*
X0497575Y0105250D01*
X0508475Y0105250D02*
X0508475Y0477750D01*
X0519375Y0477750D02*
X0519375Y0105250D01*
X0530175Y0105250D02*
X0530275Y0105350D01*
X0530275Y0477750D01*
X0541075Y0477750D02*
X0541075Y0105250D01*
X0551975Y0105250D02*
X0551975Y0477750D01*
X0562875Y0477750D02*
X0562875Y0105350D01*
X0562775Y0105250D01*
X0573675Y0105250D02*
X0573675Y0477750D01*
X0568275Y0487750D02*
X0568275Y0095250D01*
X0557375Y0095250D02*
X0557375Y0487750D01*
X0546575Y0487750D02*
X0546575Y0095350D01*
X0546475Y0095250D01*
X0535675Y0095250D02*
X0535675Y0487750D01*
X0524775Y0487750D02*
X0524775Y0095250D01*
X0513975Y0095350D02*
X0513875Y0095250D01*
X0513975Y0095350D02*
X0513975Y0487750D01*
X0503075Y0487750D02*
X0503075Y0095250D01*
X0492175Y0095250D02*
X0492175Y0487750D01*
X0481275Y0487750D02*
X0481275Y0095250D01*
X0470475Y0095250D02*
X0470475Y0487750D01*
X0459575Y0487750D02*
X0459575Y0095250D01*
X0448675Y0095250D02*
X0448675Y0487750D01*
X0437875Y0487750D02*
X0437875Y0095250D01*
X0426975Y0095250D02*
X0426975Y0487750D01*
X0416075Y0487750D02*
X0416075Y0095250D01*
X0405275Y0095350D02*
X0405175Y0095250D01*
X0405275Y0095350D02*
X0405275Y0487750D01*
X0394375Y0487750D02*
X0394375Y0095250D01*
X0383475Y0092850D02*
X0382750Y0092125D01*
X0383475Y0092850D02*
X0383475Y0487750D01*
M02*
