G75*
%MOIN*%
%OFA0B0*%
%FSLAX25Y25*%
%IPPOS*%
%LPD*%
%AMOC8*
5,1,8,0,0,1.08239X$1,22.5*
%
%ADD10C,0.00800*%
%ADD11C,0.01575*%
%ADD12C,0.00600*%
%ADD13C,0.03000*%
%ADD14R,0.02000X0.03000*%
%ADD15R,0.04000X0.03000*%
D10*
X0061555Y0028867D02*
X0061555Y0039891D01*
X0072776Y0039891D02*
X0072776Y0028867D01*
D11*
X0061260Y0027293D03*
D12*
X0037500Y0030167D02*
X0037500Y0020167D01*
X0027500Y0020167D01*
X0027500Y0030167D01*
X0037500Y0030167D01*
X0037500Y0035167D02*
X0027500Y0035167D01*
X0027500Y0045167D01*
X0027500Y0055167D01*
X0037500Y0055167D01*
X0037500Y0045167D01*
X0027500Y0045167D01*
X0037500Y0045167D02*
X0037500Y0035167D01*
X0037500Y0020167D02*
X0037500Y0010167D01*
X0027500Y0010167D01*
X0027500Y0020167D01*
X0091161Y0024576D02*
X0101161Y0024576D01*
X0101161Y0034576D01*
X0101161Y0044576D01*
X0091161Y0044576D01*
X0091161Y0034576D01*
X0091161Y0024576D01*
X0091161Y0034576D02*
X0101161Y0034576D01*
D13*
X0025000Y0015167D02*
X0002500Y0015167D01*
X0002500Y0025167D02*
X0025000Y0025167D01*
X0025000Y0040167D02*
X0002500Y0040167D01*
X0002500Y0050167D02*
X0025000Y0050167D01*
X0103661Y0039576D02*
X0126161Y0039576D01*
X0126161Y0029576D02*
X0103661Y0029576D01*
D14*
X0102161Y0029576D03*
X0102161Y0039576D03*
X0026500Y0040167D03*
X0026500Y0050167D03*
X0026500Y0025167D03*
X0026500Y0015167D03*
D15*
X0039500Y0015167D03*
X0039500Y0025167D03*
X0039500Y0040167D03*
X0039500Y0050167D03*
X0089161Y0039576D03*
X0089161Y0029576D03*
M02*
