G75*
%MOIN*%
%OFA0B0*%
%FSLAX25Y25*%
%IPPOS*%
%LPD*%
%AMOC8*
5,1,8,0,0,1.08239X$1,22.5*
%
%ADD10R,0.05118X0.05906*%
%ADD11R,0.01181X0.03937*%
%ADD12C,0.06000*%
%ADD13C,0.00787*%
%ADD14C,0.03575*%
D10*
X0059961Y0017804D03*
X0067441Y0017804D03*
X0067441Y0052214D03*
X0059961Y0052214D03*
D11*
X0063228Y0042450D03*
X0065197Y0042450D03*
X0067165Y0042450D03*
X0069134Y0042450D03*
X0071102Y0042450D03*
X0071102Y0026308D03*
X0069134Y0026308D03*
X0067165Y0026308D03*
X0065197Y0026308D03*
X0063228Y0026308D03*
D12*
X0048000Y0025167D02*
X0042000Y0025167D01*
X0042000Y0015167D02*
X0048000Y0015167D01*
X0080661Y0029576D02*
X0086661Y0029576D01*
X0086661Y0039576D02*
X0080661Y0039576D01*
X0048000Y0040167D02*
X0042000Y0040167D01*
X0042000Y0050167D02*
X0048000Y0050167D01*
D13*
X0027693Y0060663D02*
X0027693Y0005970D01*
X0076693Y0005970D01*
X0076693Y0028231D01*
X0076480Y0028744D01*
X0076480Y0030408D01*
X0076693Y0030921D01*
X0076693Y0032923D01*
X0070709Y0032923D01*
X0070709Y0029671D01*
X0071102Y0029671D01*
X0071102Y0026309D01*
X0071102Y0026309D01*
X0071102Y0029671D01*
X0071876Y0029671D01*
X0072231Y0029576D01*
X0072549Y0029392D01*
X0072808Y0029133D01*
X0072992Y0028815D01*
X0073087Y0028460D01*
X0073087Y0026308D01*
X0071102Y0026308D01*
X0071102Y0026308D01*
X0071102Y0022946D01*
X0070328Y0022946D01*
X0069974Y0023041D01*
X0069770Y0023159D01*
X0068740Y0023159D01*
X0068740Y0021938D01*
X0070489Y0021938D01*
X0071181Y0021246D01*
X0071181Y0014362D01*
X0070489Y0013671D01*
X0069016Y0013671D01*
X0069016Y0011995D01*
X0068093Y0011072D01*
X0065534Y0008513D01*
X0049426Y0008513D01*
X0048504Y0009436D01*
X0046954Y0010986D01*
X0041168Y0010986D01*
X0039632Y0011622D01*
X0038455Y0012798D01*
X0037819Y0014335D01*
X0037819Y0015998D01*
X0038455Y0017535D01*
X0039632Y0018711D01*
X0041168Y0019348D01*
X0048832Y0019348D01*
X0050368Y0018711D01*
X0051545Y0017535D01*
X0052181Y0015998D01*
X0052181Y0014335D01*
X0051545Y0012798D01*
X0050570Y0011824D01*
X0050731Y0011663D01*
X0064230Y0011663D01*
X0065866Y0013299D01*
X0065866Y0013671D01*
X0064393Y0013671D01*
X0063793Y0014270D01*
X0063635Y0013996D01*
X0063375Y0013736D01*
X0063058Y0013553D01*
X0062703Y0013458D01*
X0060354Y0013458D01*
X0060354Y0017411D01*
X0059567Y0017411D01*
X0056008Y0017411D01*
X0056008Y0014668D01*
X0056103Y0014314D01*
X0056286Y0013996D01*
X0056546Y0013736D01*
X0056864Y0013553D01*
X0057218Y0013458D01*
X0059567Y0013458D01*
X0059567Y0017411D01*
X0059567Y0018198D01*
X0056008Y0018198D01*
X0056008Y0020941D01*
X0056103Y0021295D01*
X0056286Y0021613D01*
X0056546Y0021872D01*
X0056864Y0022056D01*
X0057218Y0022151D01*
X0059567Y0022151D01*
X0059567Y0018198D01*
X0060354Y0018198D01*
X0060354Y0022151D01*
X0062703Y0022151D01*
X0063058Y0022056D01*
X0063375Y0021872D01*
X0063635Y0021613D01*
X0063793Y0021339D01*
X0064393Y0021938D01*
X0065591Y0021938D01*
X0065591Y0023159D01*
X0064561Y0023159D01*
X0064357Y0023041D01*
X0064002Y0022946D01*
X0063228Y0022946D01*
X0063228Y0026308D01*
X0063228Y0026308D01*
X0061244Y0026308D01*
X0061244Y0024156D01*
X0061339Y0023802D01*
X0061523Y0023484D01*
X0061782Y0023225D01*
X0062100Y0023041D01*
X0062454Y0022946D01*
X0063228Y0022946D01*
X0063228Y0026308D01*
X0063228Y0026308D01*
X0061244Y0026308D01*
X0061244Y0028460D01*
X0061339Y0028815D01*
X0061523Y0029133D01*
X0061782Y0029392D01*
X0062100Y0029576D01*
X0062454Y0029671D01*
X0063228Y0029671D01*
X0063228Y0026309D01*
X0063228Y0026309D01*
X0063228Y0029671D01*
X0063622Y0029671D01*
X0063622Y0033102D01*
X0064320Y0033800D01*
X0064276Y0033907D01*
X0064276Y0035088D01*
X0064320Y0035195D01*
X0063622Y0035892D01*
X0063622Y0039088D01*
X0063228Y0039088D01*
X0063228Y0042450D01*
X0061244Y0042450D01*
X0061244Y0040298D01*
X0061339Y0039944D01*
X0061523Y0039626D01*
X0061782Y0039366D01*
X0062100Y0039183D01*
X0062454Y0039088D01*
X0063228Y0039088D01*
X0063228Y0042450D01*
X0063228Y0042450D01*
X0063228Y0042450D01*
X0061244Y0042450D01*
X0061244Y0044602D01*
X0061339Y0044957D01*
X0061523Y0045274D01*
X0061782Y0045534D01*
X0062100Y0045717D01*
X0062454Y0045812D01*
X0063228Y0045812D01*
X0063228Y0042450D01*
X0063228Y0042450D01*
X0063228Y0026308D01*
X0060276Y0023356D01*
X0059961Y0023041D01*
X0057835Y0025167D01*
X0045000Y0025167D01*
X0036535Y0033631D01*
X0036535Y0044734D01*
X0041969Y0050167D01*
X0045000Y0050167D01*
X0044606Y0050113D02*
X0027693Y0050113D01*
X0027693Y0050899D02*
X0037667Y0050899D01*
X0037714Y0051196D02*
X0037614Y0050560D01*
X0044606Y0050560D01*
X0044606Y0049773D01*
X0037614Y0049773D01*
X0037714Y0049138D01*
X0037928Y0048480D01*
X0038242Y0047864D01*
X0038649Y0047304D01*
X0039138Y0046815D01*
X0039697Y0046409D01*
X0040313Y0046095D01*
X0040971Y0045881D01*
X0041654Y0045773D01*
X0044606Y0045773D01*
X0044606Y0049773D01*
X0045394Y0049773D01*
X0045394Y0045773D01*
X0048346Y0045773D01*
X0049029Y0045881D01*
X0049687Y0046095D01*
X0050005Y0046257D01*
X0048096Y0044348D01*
X0041168Y0044348D01*
X0039632Y0043711D01*
X0038455Y0042535D01*
X0037819Y0040998D01*
X0037819Y0039335D01*
X0038455Y0037798D01*
X0039632Y0036622D01*
X0041168Y0035986D01*
X0048832Y0035986D01*
X0050368Y0036622D01*
X0051545Y0037798D01*
X0052181Y0039335D01*
X0052181Y0040998D01*
X0051545Y0042535D01*
X0051141Y0042939D01*
X0055433Y0047231D01*
X0055433Y0053530D01*
X0056008Y0054105D01*
X0056008Y0052608D01*
X0059567Y0052608D01*
X0059567Y0051820D01*
X0060354Y0051820D01*
X0060354Y0047867D01*
X0062703Y0047867D01*
X0063058Y0047962D01*
X0063375Y0048146D01*
X0063635Y0048405D01*
X0063793Y0048680D01*
X0064393Y0048080D01*
X0065591Y0048080D01*
X0065591Y0045600D01*
X0064561Y0045600D01*
X0064357Y0045717D01*
X0064002Y0045812D01*
X0063228Y0045812D01*
X0063228Y0042450D01*
X0059961Y0045718D01*
X0059961Y0052214D01*
X0059567Y0052471D02*
X0055433Y0052471D01*
X0055433Y0053257D02*
X0056008Y0053257D01*
X0056008Y0054042D02*
X0055945Y0054042D01*
X0053858Y0054182D02*
X0056220Y0056545D01*
X0065669Y0056545D01*
X0067244Y0054970D01*
X0067244Y0050836D01*
X0067441Y0052214D01*
X0067165Y0050364D01*
X0067165Y0042450D01*
X0065197Y0042450D02*
X0065197Y0036545D01*
X0067244Y0034497D01*
X0076693Y0034497D01*
X0083661Y0034497D01*
X0083661Y0039576D01*
X0076693Y0038231D02*
X0076693Y0036072D01*
X0070709Y0036072D01*
X0070709Y0037039D01*
X0070709Y0039088D01*
X0071102Y0039088D01*
X0071102Y0042450D01*
X0071102Y0042450D01*
X0071102Y0045812D01*
X0070328Y0045812D01*
X0069974Y0045717D01*
X0069770Y0045600D01*
X0068740Y0045600D01*
X0068740Y0048080D01*
X0070489Y0048080D01*
X0071181Y0048772D01*
X0071181Y0055656D01*
X0070489Y0056348D01*
X0068093Y0056348D01*
X0067896Y0056545D01*
X0066322Y0058119D01*
X0055568Y0058119D01*
X0054646Y0057197D01*
X0052283Y0054835D01*
X0052283Y0051202D01*
X0052072Y0051853D01*
X0051758Y0052469D01*
X0051351Y0053029D01*
X0050862Y0053518D01*
X0050303Y0053924D01*
X0049687Y0054238D01*
X0049029Y0054452D01*
X0048346Y0054560D01*
X0045394Y0054560D01*
X0045394Y0050560D01*
X0044606Y0050560D01*
X0044606Y0054560D01*
X0041654Y0054560D01*
X0040971Y0054452D01*
X0040313Y0054238D01*
X0039697Y0053924D01*
X0039138Y0053518D01*
X0038649Y0053029D01*
X0038242Y0052469D01*
X0037928Y0051853D01*
X0037714Y0051196D01*
X0037873Y0051685D02*
X0027693Y0051685D01*
X0027693Y0052471D02*
X0038243Y0052471D01*
X0038876Y0053257D02*
X0027693Y0053257D01*
X0027693Y0054042D02*
X0039929Y0054042D01*
X0044606Y0054042D02*
X0045394Y0054042D01*
X0045394Y0053257D02*
X0044606Y0053257D01*
X0044606Y0052471D02*
X0045394Y0052471D01*
X0045394Y0051685D02*
X0044606Y0051685D01*
X0044606Y0050899D02*
X0045394Y0050899D01*
X0045394Y0049327D02*
X0044606Y0049327D01*
X0044606Y0048541D02*
X0045394Y0048541D01*
X0045394Y0047755D02*
X0044606Y0047755D01*
X0044606Y0046969D02*
X0045394Y0046969D01*
X0045394Y0046183D02*
X0044606Y0046183D01*
X0048359Y0044612D02*
X0027693Y0044612D01*
X0027693Y0045397D02*
X0049145Y0045397D01*
X0049860Y0046183D02*
X0049931Y0046183D01*
X0052028Y0043826D02*
X0061244Y0043826D01*
X0061247Y0044612D02*
X0052814Y0044612D01*
X0053600Y0045397D02*
X0061646Y0045397D01*
X0063228Y0045397D02*
X0063228Y0045397D01*
X0063228Y0044612D02*
X0063228Y0044612D01*
X0063228Y0043826D02*
X0063228Y0043826D01*
X0063228Y0043040D02*
X0063228Y0043040D01*
X0063228Y0042254D02*
X0063228Y0042254D01*
X0063228Y0041468D02*
X0063228Y0041468D01*
X0063228Y0040682D02*
X0063228Y0040682D01*
X0063228Y0039896D02*
X0063228Y0039896D01*
X0063228Y0039110D02*
X0063228Y0039110D01*
X0062371Y0039110D02*
X0052088Y0039110D01*
X0052181Y0039896D02*
X0061367Y0039896D01*
X0061244Y0040682D02*
X0052181Y0040682D01*
X0051987Y0041468D02*
X0061244Y0041468D01*
X0061244Y0042254D02*
X0051661Y0042254D01*
X0051242Y0043040D02*
X0061244Y0043040D01*
X0065591Y0046183D02*
X0054386Y0046183D01*
X0055171Y0046969D02*
X0065591Y0046969D01*
X0065591Y0047755D02*
X0055433Y0047755D01*
X0055433Y0048541D02*
X0056208Y0048541D01*
X0056286Y0048405D02*
X0056546Y0048146D01*
X0056864Y0047962D01*
X0057218Y0047867D01*
X0059567Y0047867D01*
X0059567Y0051820D01*
X0056008Y0051820D01*
X0056008Y0049078D01*
X0056103Y0048723D01*
X0056286Y0048405D01*
X0056008Y0049327D02*
X0055433Y0049327D01*
X0055433Y0050113D02*
X0056008Y0050113D01*
X0056008Y0050899D02*
X0055433Y0050899D01*
X0055433Y0051685D02*
X0056008Y0051685D01*
X0052283Y0051685D02*
X0052127Y0051685D01*
X0052283Y0052471D02*
X0051757Y0052471D01*
X0052283Y0053257D02*
X0051124Y0053257D01*
X0050071Y0054042D02*
X0052283Y0054042D01*
X0052283Y0054828D02*
X0027693Y0054828D01*
X0027693Y0055614D02*
X0053063Y0055614D01*
X0053849Y0056400D02*
X0027693Y0056400D01*
X0027693Y0057186D02*
X0054635Y0057186D01*
X0055421Y0057972D02*
X0027693Y0057972D01*
X0027693Y0058758D02*
X0076693Y0058758D01*
X0076693Y0059544D02*
X0027693Y0059544D01*
X0027693Y0060330D02*
X0076693Y0060330D01*
X0076693Y0060663D02*
X0076693Y0040921D01*
X0076480Y0040408D01*
X0076480Y0038744D01*
X0076693Y0038231D01*
X0076654Y0038324D02*
X0070709Y0038324D01*
X0070709Y0037538D02*
X0076693Y0037538D01*
X0076693Y0036752D02*
X0070709Y0036752D01*
X0069134Y0036387D02*
X0067244Y0034497D01*
X0069134Y0032608D01*
X0069134Y0026308D01*
X0067165Y0026308D02*
X0067165Y0018080D01*
X0067441Y0017804D01*
X0067441Y0012647D01*
X0064882Y0010088D01*
X0050079Y0010088D01*
X0045000Y0015167D01*
X0050403Y0018676D02*
X0056008Y0018676D01*
X0056008Y0019462D02*
X0027693Y0019462D01*
X0027693Y0018676D02*
X0039597Y0018676D01*
X0038811Y0017890D02*
X0027693Y0017890D01*
X0027693Y0017105D02*
X0038277Y0017105D01*
X0037952Y0016319D02*
X0027693Y0016319D01*
X0027693Y0015533D02*
X0037819Y0015533D01*
X0037819Y0014747D02*
X0027693Y0014747D01*
X0027693Y0013961D02*
X0037974Y0013961D01*
X0038299Y0013175D02*
X0027693Y0013175D01*
X0027693Y0012389D02*
X0038865Y0012389D01*
X0039677Y0011603D02*
X0027693Y0011603D01*
X0027693Y0010817D02*
X0047122Y0010817D01*
X0047908Y0010031D02*
X0027693Y0010031D01*
X0027693Y0009245D02*
X0048694Y0009245D01*
X0051135Y0012389D02*
X0064956Y0012389D01*
X0065742Y0013175D02*
X0051701Y0013175D01*
X0052026Y0013961D02*
X0056321Y0013961D01*
X0056008Y0014747D02*
X0052181Y0014747D01*
X0052181Y0015533D02*
X0056008Y0015533D01*
X0056008Y0016319D02*
X0052048Y0016319D01*
X0051723Y0017105D02*
X0056008Y0017105D01*
X0059567Y0017105D02*
X0060354Y0017105D01*
X0059961Y0017608D02*
X0059961Y0017804D01*
X0059961Y0023041D01*
X0061615Y0023392D02*
X0052027Y0023392D01*
X0052072Y0023480D02*
X0052286Y0024138D01*
X0052386Y0024773D01*
X0045394Y0024773D01*
X0045394Y0025560D01*
X0052386Y0025560D01*
X0052286Y0026196D01*
X0052072Y0026853D01*
X0051758Y0027469D01*
X0051351Y0028029D01*
X0050862Y0028518D01*
X0050303Y0028924D01*
X0049687Y0029238D01*
X0049029Y0029452D01*
X0048346Y0029560D01*
X0045394Y0029560D01*
X0045394Y0025560D01*
X0044606Y0025560D01*
X0044606Y0024773D01*
X0037614Y0024773D01*
X0037714Y0024138D01*
X0037928Y0023480D01*
X0038242Y0022864D01*
X0038649Y0022304D01*
X0039138Y0021815D01*
X0039697Y0021409D01*
X0040313Y0021095D01*
X0040971Y0020881D01*
X0041654Y0020773D01*
X0044606Y0020773D01*
X0044606Y0024773D01*
X0045394Y0024773D01*
X0045394Y0020773D01*
X0048346Y0020773D01*
X0049029Y0020881D01*
X0049687Y0021095D01*
X0050303Y0021409D01*
X0050862Y0021815D01*
X0051351Y0022304D01*
X0051758Y0022864D01*
X0052072Y0023480D01*
X0052292Y0024178D02*
X0061244Y0024178D01*
X0061244Y0024964D02*
X0045394Y0024964D01*
X0045394Y0025750D02*
X0044606Y0025750D01*
X0044606Y0025560D02*
X0044606Y0029560D01*
X0041654Y0029560D01*
X0040971Y0029452D01*
X0040313Y0029238D01*
X0039697Y0028924D01*
X0039138Y0028518D01*
X0038649Y0028029D01*
X0038242Y0027469D01*
X0037928Y0026853D01*
X0037714Y0026196D01*
X0037614Y0025560D01*
X0044606Y0025560D01*
X0044606Y0024964D02*
X0027693Y0024964D01*
X0027693Y0025750D02*
X0037644Y0025750D01*
X0037825Y0026536D02*
X0027693Y0026536D01*
X0027693Y0027321D02*
X0038167Y0027321D01*
X0038727Y0028107D02*
X0027693Y0028107D01*
X0027693Y0028893D02*
X0039654Y0028893D01*
X0044606Y0028893D02*
X0045394Y0028893D01*
X0045394Y0028107D02*
X0044606Y0028107D01*
X0044606Y0027321D02*
X0045394Y0027321D01*
X0045394Y0026536D02*
X0044606Y0026536D01*
X0044606Y0024178D02*
X0045394Y0024178D01*
X0045394Y0023392D02*
X0044606Y0023392D01*
X0044606Y0022606D02*
X0045394Y0022606D01*
X0045394Y0021820D02*
X0044606Y0021820D01*
X0044606Y0021034D02*
X0045394Y0021034D01*
X0049500Y0021034D02*
X0056033Y0021034D01*
X0056008Y0020248D02*
X0027693Y0020248D01*
X0027693Y0021034D02*
X0040500Y0021034D01*
X0039133Y0021820D02*
X0027693Y0021820D01*
X0027693Y0022606D02*
X0038430Y0022606D01*
X0037973Y0023392D02*
X0027693Y0023392D01*
X0027693Y0024178D02*
X0037708Y0024178D01*
X0027693Y0029679D02*
X0063622Y0029679D01*
X0063622Y0030465D02*
X0027693Y0030465D01*
X0027693Y0031251D02*
X0063622Y0031251D01*
X0063622Y0032037D02*
X0027693Y0032037D01*
X0027693Y0032823D02*
X0063622Y0032823D01*
X0064128Y0033609D02*
X0027693Y0033609D01*
X0027693Y0034395D02*
X0064276Y0034395D01*
X0064314Y0035181D02*
X0027693Y0035181D01*
X0027693Y0035966D02*
X0063622Y0035966D01*
X0063622Y0036752D02*
X0050499Y0036752D01*
X0051285Y0037538D02*
X0063622Y0037538D01*
X0063622Y0038324D02*
X0051762Y0038324D01*
X0046142Y0040167D02*
X0053858Y0047883D01*
X0053858Y0054182D01*
X0059567Y0051685D02*
X0060354Y0051685D01*
X0060354Y0050899D02*
X0059567Y0050899D01*
X0059567Y0050113D02*
X0060354Y0050113D01*
X0060354Y0049327D02*
X0059567Y0049327D01*
X0059567Y0048541D02*
X0060354Y0048541D01*
X0063713Y0048541D02*
X0063932Y0048541D01*
X0068740Y0047755D02*
X0076693Y0047755D01*
X0076693Y0046969D02*
X0068740Y0046969D01*
X0068740Y0046183D02*
X0076693Y0046183D01*
X0076693Y0045397D02*
X0072685Y0045397D01*
X0072808Y0045274D02*
X0072549Y0045534D01*
X0072231Y0045717D01*
X0071876Y0045812D01*
X0071102Y0045812D01*
X0071102Y0042450D01*
X0071102Y0042450D01*
X0071102Y0039088D01*
X0071876Y0039088D01*
X0072231Y0039183D01*
X0072549Y0039366D01*
X0072808Y0039626D01*
X0072992Y0039944D01*
X0073087Y0040298D01*
X0073087Y0042450D01*
X0071102Y0042450D01*
X0071102Y0042450D01*
X0073087Y0042450D01*
X0073087Y0044602D01*
X0072992Y0044957D01*
X0072808Y0045274D01*
X0073084Y0044612D02*
X0076693Y0044612D01*
X0076693Y0043826D02*
X0073087Y0043826D01*
X0073087Y0043040D02*
X0076693Y0043040D01*
X0076693Y0042254D02*
X0073087Y0042254D01*
X0073087Y0041468D02*
X0076693Y0041468D01*
X0076594Y0040682D02*
X0073087Y0040682D01*
X0072964Y0039896D02*
X0076480Y0039896D01*
X0076480Y0039110D02*
X0071959Y0039110D01*
X0071102Y0039110D02*
X0071102Y0039110D01*
X0071102Y0039896D02*
X0071102Y0039896D01*
X0071102Y0040682D02*
X0071102Y0040682D01*
X0071102Y0041468D02*
X0071102Y0041468D01*
X0071102Y0042254D02*
X0071102Y0042254D01*
X0071102Y0043040D02*
X0071102Y0043040D01*
X0071102Y0043826D02*
X0071102Y0043826D01*
X0071102Y0044612D02*
X0071102Y0044612D01*
X0071102Y0045397D02*
X0071102Y0045397D01*
X0069134Y0042450D02*
X0069134Y0036387D01*
X0067244Y0034497D02*
X0065197Y0032450D01*
X0065197Y0026308D01*
X0063228Y0026536D02*
X0063228Y0026536D01*
X0063228Y0027321D02*
X0063228Y0027321D01*
X0063228Y0028107D02*
X0063228Y0028107D01*
X0063228Y0028893D02*
X0063228Y0028893D01*
X0061384Y0028893D02*
X0050346Y0028893D01*
X0051273Y0028107D02*
X0061244Y0028107D01*
X0061244Y0027321D02*
X0051833Y0027321D01*
X0052175Y0026536D02*
X0061244Y0026536D01*
X0061244Y0025750D02*
X0052356Y0025750D01*
X0051570Y0022606D02*
X0065591Y0022606D01*
X0064274Y0021820D02*
X0063428Y0021820D01*
X0063228Y0023392D02*
X0063228Y0023392D01*
X0063228Y0024178D02*
X0063228Y0024178D01*
X0063228Y0024964D02*
X0063228Y0024964D01*
X0063228Y0025750D02*
X0063228Y0025750D01*
X0068740Y0022606D02*
X0076693Y0022606D01*
X0076693Y0023392D02*
X0072716Y0023392D01*
X0072808Y0023484D02*
X0072992Y0023802D01*
X0073087Y0024156D01*
X0073087Y0026308D01*
X0071102Y0026308D01*
X0071102Y0022946D01*
X0071876Y0022946D01*
X0072231Y0023041D01*
X0072549Y0023225D01*
X0072808Y0023484D01*
X0073087Y0024178D02*
X0076693Y0024178D01*
X0076693Y0024964D02*
X0073087Y0024964D01*
X0073087Y0025750D02*
X0076693Y0025750D01*
X0076693Y0026536D02*
X0073087Y0026536D01*
X0073087Y0027321D02*
X0076693Y0027321D01*
X0076693Y0028107D02*
X0073087Y0028107D01*
X0072946Y0028893D02*
X0076480Y0028893D01*
X0076480Y0029679D02*
X0070709Y0029679D01*
X0070709Y0030465D02*
X0076504Y0030465D01*
X0076693Y0031251D02*
X0070709Y0031251D01*
X0070709Y0032037D02*
X0076693Y0032037D01*
X0076693Y0032823D02*
X0070709Y0032823D01*
X0071102Y0028893D02*
X0071102Y0028893D01*
X0071102Y0028107D02*
X0071102Y0028107D01*
X0071102Y0027321D02*
X0071102Y0027321D01*
X0071102Y0026536D02*
X0071102Y0026536D01*
X0071102Y0026308D02*
X0071102Y0026308D01*
X0071102Y0025750D02*
X0071102Y0025750D01*
X0071102Y0024964D02*
X0071102Y0024964D01*
X0071102Y0024178D02*
X0071102Y0024178D01*
X0071102Y0023392D02*
X0071102Y0023392D01*
X0070607Y0021820D02*
X0076693Y0021820D01*
X0076693Y0021034D02*
X0071181Y0021034D01*
X0071181Y0020248D02*
X0076693Y0020248D01*
X0076693Y0019462D02*
X0071181Y0019462D01*
X0071181Y0018676D02*
X0076693Y0018676D01*
X0076693Y0017890D02*
X0071181Y0017890D01*
X0071181Y0017105D02*
X0076693Y0017105D01*
X0076693Y0016319D02*
X0071181Y0016319D01*
X0071181Y0015533D02*
X0076693Y0015533D01*
X0076693Y0014747D02*
X0071181Y0014747D01*
X0070780Y0013961D02*
X0076693Y0013961D01*
X0076693Y0013175D02*
X0069016Y0013175D01*
X0069016Y0012389D02*
X0076693Y0012389D01*
X0076693Y0011603D02*
X0068624Y0011603D01*
X0067838Y0010817D02*
X0076693Y0010817D01*
X0076693Y0010031D02*
X0067052Y0010031D01*
X0066267Y0009245D02*
X0076693Y0009245D01*
X0076693Y0008460D02*
X0027693Y0008460D01*
X0027693Y0007674D02*
X0076693Y0007674D01*
X0076693Y0006888D02*
X0027693Y0006888D01*
X0027693Y0006102D02*
X0076693Y0006102D01*
X0064102Y0013961D02*
X0063600Y0013961D01*
X0060354Y0013961D02*
X0059567Y0013961D01*
X0059567Y0014747D02*
X0060354Y0014747D01*
X0060354Y0015533D02*
X0059567Y0015533D01*
X0059567Y0016319D02*
X0060354Y0016319D01*
X0059567Y0017890D02*
X0051189Y0017890D01*
X0050867Y0021820D02*
X0056493Y0021820D01*
X0059567Y0021820D02*
X0060354Y0021820D01*
X0060354Y0021034D02*
X0059567Y0021034D01*
X0059567Y0020248D02*
X0060354Y0020248D01*
X0060354Y0019462D02*
X0059567Y0019462D01*
X0059567Y0018676D02*
X0060354Y0018676D01*
X0083661Y0029576D02*
X0083661Y0034497D01*
X0076693Y0048541D02*
X0070950Y0048541D01*
X0071181Y0049327D02*
X0076693Y0049327D01*
X0076693Y0050113D02*
X0071181Y0050113D01*
X0071181Y0050899D02*
X0076693Y0050899D01*
X0076693Y0051685D02*
X0071181Y0051685D01*
X0071181Y0052471D02*
X0076693Y0052471D01*
X0076693Y0053257D02*
X0071181Y0053257D01*
X0071181Y0054042D02*
X0076693Y0054042D01*
X0076693Y0054828D02*
X0071181Y0054828D01*
X0071181Y0055614D02*
X0076693Y0055614D01*
X0076693Y0056400D02*
X0068041Y0056400D01*
X0067255Y0057186D02*
X0076693Y0057186D01*
X0076693Y0057972D02*
X0066469Y0057972D01*
X0076693Y0060663D02*
X0027693Y0060663D01*
X0027693Y0049327D02*
X0037685Y0049327D01*
X0037908Y0048541D02*
X0027693Y0048541D01*
X0027693Y0047755D02*
X0038321Y0047755D01*
X0038984Y0046969D02*
X0027693Y0046969D01*
X0027693Y0046183D02*
X0040140Y0046183D01*
X0039908Y0043826D02*
X0027693Y0043826D01*
X0027693Y0043040D02*
X0038960Y0043040D01*
X0038339Y0042254D02*
X0027693Y0042254D01*
X0027693Y0041468D02*
X0038013Y0041468D01*
X0037819Y0040682D02*
X0027693Y0040682D01*
X0027693Y0039896D02*
X0037819Y0039896D01*
X0037912Y0039110D02*
X0027693Y0039110D01*
X0027693Y0038324D02*
X0038238Y0038324D01*
X0038715Y0037538D02*
X0027693Y0037538D01*
X0027693Y0036752D02*
X0039501Y0036752D01*
X0045000Y0040167D02*
X0046142Y0040167D01*
D14*
X0067244Y0034497D03*
M02*
